<svg xmlns="http://www.w3.org/2000/svg" width="900" height="1200" viewBox="0 0 900 1200" font-family="sans-serif">
<rect width="100%" height="100%" fill="#111"/>
<text x="14" y="24" fill="#fff" font-size="16">5156-单block: 单-28</text>
<rect x="14" y="37" width="14" height="12" fill="#4a9eff"/>
<text x="34" y="48" fill="#ddd" font-size="12">layer1 毛版outline</text>
<rect x="14" y="57" width="14" height="12" fill="#39d353"/>
<text x="34" y="68" fill="#ddd" font-size="12">layer14 净版</text>
<rect x="14" y="77" width="14" height="12" fill="#ff5454"/>
<text x="34" y="88" fill="#ddd" font-size="12">layer7 布纹线</text>
<rect x="14" y="97" width="14" height="12" fill="#ffb000"/>
<text x="34" y="108" fill="#ddd" font-size="12">layer8 内部线</text>
<rect x="14" y="117" width="14" height="12" fill="#00e5ff"/>
<text x="34" y="128" fill="#ddd" font-size="12">layer2 POINT</text>
<rect x="14" y="137" width="14" height="12" fill="#e040fb"/>
<text x="34" y="148" fill="#ddd" font-size="12">layer3 POINT</text>
<rect x="14" y="157" width="14" height="12" fill="#ffeb3b"/>
<text x="34" y="168" fill="#ddd" font-size="12">layer4 POINT</text>
<rect x="14" y="177" width="14" height="12" fill="#ffffff"/>
<text x="34" y="188" fill="#ddd" font-size="12">layer13 POINT</text>
<circle cx="145.8" cy="493.1" r="1.1" fill="#e040fb" opacity="0.85"/>
<circle cx="205.2" cy="493.1" r="1.1" fill="#e040fb" opacity="0.85"/>
<circle cx="269.6" cy="493.1" r="1.1" fill="#e040fb" opacity="0.85"/>
<circle cx="333.2" cy="493.1" r="1.1" fill="#e040fb" opacity="0.85"/>
<circle cx="392.0" cy="493.1" r="1.1" fill="#e040fb" opacity="0.85"/>
<circle cx="452.3" cy="493.1" r="1.1" fill="#e040fb" opacity="0.85"/>
<circle cx="510.1" cy="493.1" r="1.1" fill="#e040fb" opacity="0.85"/>
<circle cx="569.2" cy="493.1" r="1.1" fill="#e040fb" opacity="0.85"/>
<circle cx="633.2" cy="493.1" r="1.1" fill="#e040fb" opacity="0.85"/>
<circle cx="691.3" cy="493.1" r="1.1" fill="#e040fb" opacity="0.85"/>
<circle cx="751.9" cy="493.1" r="1.1" fill="#e040fb" opacity="0.85"/>
<circle cx="808.8" cy="493.1" r="1.1" fill="#e040fb" opacity="0.85"/>
<circle cx="817.9" cy="554.4" r="1.1" fill="#e040fb" opacity="0.85"/>
<circle cx="817.9" cy="613.5" r="1.1" fill="#e040fb" opacity="0.85"/>
<circle cx="817.9" cy="672.6" r="1.1" fill="#e040fb" opacity="0.85"/>
<circle cx="754.5" cy="733.3" r="1.1" fill="#e040fb" opacity="0.85"/>
<circle cx="692.6" cy="733.3" r="1.1" fill="#e040fb" opacity="0.85"/>
<circle cx="633.2" cy="733.3" r="1.1" fill="#e040fb" opacity="0.85"/>
<circle cx="567.9" cy="733.3" r="1.1" fill="#e040fb" opacity="0.85"/>
<circle cx="508.1" cy="733.3" r="1.1" fill="#e040fb" opacity="0.85"/>
<circle cx="442.0" cy="733.3" r="1.1" fill="#e040fb" opacity="0.85"/>
<circle cx="382.3" cy="733.3" r="1.1" fill="#e040fb" opacity="0.85"/>
<circle cx="324.7" cy="733.3" r="1.1" fill="#e040fb" opacity="0.85"/>
<circle cx="262.9" cy="733.3" r="1.1" fill="#e040fb" opacity="0.85"/>
<circle cx="200.8" cy="733.3" r="1.1" fill="#e040fb" opacity="0.85"/>
<circle cx="143.7" cy="733.3" r="1.1" fill="#e040fb" opacity="0.85"/>
<circle cx="87.4" cy="733.3" r="1.1" fill="#e040fb" opacity="0.85"/>
<circle cx="101.0" cy="466.7" r="1.1" fill="#e040fb" opacity="0.85"/>
<circle cx="159.8" cy="466.7" r="1.1" fill="#e040fb" opacity="0.85"/>
<circle cx="218.6" cy="466.7" r="1.1" fill="#e040fb" opacity="0.85"/>
<circle cx="277.5" cy="466.7" r="1.1" fill="#e040fb" opacity="0.85"/>
<circle cx="336.6" cy="466.7" r="1.1" fill="#e040fb" opacity="0.85"/>
<circle cx="395.4" cy="466.7" r="1.1" fill="#e040fb" opacity="0.85"/>
<circle cx="454.0" cy="466.7" r="1.1" fill="#e040fb" opacity="0.85"/>
<circle cx="512.8" cy="466.7" r="1.1" fill="#e040fb" opacity="0.85"/>
<circle cx="570.9" cy="466.7" r="1.1" fill="#e040fb" opacity="0.85"/>
<circle cx="629.7" cy="466.7" r="1.1" fill="#e040fb" opacity="0.85"/>
<circle cx="688.6" cy="466.7" r="1.1" fill="#e040fb" opacity="0.85"/>
<circle cx="746.7" cy="466.7" r="1.1" fill="#e040fb" opacity="0.85"/>
<circle cx="805.6" cy="466.7" r="1.1" fill="#e040fb" opacity="0.85"/>
<circle cx="860.0" cy="529.4" r="1.1" fill="#e040fb" opacity="0.85"/>
<circle cx="860.0" cy="590.2" r="1.1" fill="#e040fb" opacity="0.85"/>
<circle cx="860.0" cy="650.4" r="1.1" fill="#e040fb" opacity="0.85"/>
<circle cx="860.0" cy="707.3" r="1.1" fill="#e040fb" opacity="0.85"/>
<circle cx="797.8" cy="733.3" r="1.1" fill="#e040fb" opacity="0.85"/>
<circle cx="737.2" cy="733.3" r="1.1" fill="#e040fb" opacity="0.85"/>
<circle cx="676.7" cy="733.3" r="1.1" fill="#e040fb" opacity="0.85"/>
<circle cx="616.2" cy="733.3" r="1.1" fill="#e040fb" opacity="0.85"/>
<circle cx="555.7" cy="733.3" r="1.1" fill="#e040fb" opacity="0.85"/>
<circle cx="495.2" cy="733.3" r="1.1" fill="#e040fb" opacity="0.85"/>
<circle cx="434.8" cy="733.3" r="1.1" fill="#e040fb" opacity="0.85"/>
<circle cx="374.3" cy="733.3" r="1.1" fill="#e040fb" opacity="0.85"/>
<circle cx="313.8" cy="733.3" r="1.1" fill="#e040fb" opacity="0.85"/>
<circle cx="253.3" cy="733.3" r="1.1" fill="#e040fb" opacity="0.85"/>
<circle cx="192.8" cy="733.3" r="1.1" fill="#e040fb" opacity="0.85"/>
<circle cx="132.2" cy="733.3" r="1.1" fill="#e040fb" opacity="0.85"/>
<circle cx="72.4" cy="733.3" r="1.1" fill="#e040fb" opacity="0.85"/>
<circle cx="79.1" cy="733.3" r="1.8" fill="#00e5ff" opacity="0.85"/>
<circle cx="79.1" cy="493.1" r="1.8" fill="#00e5ff" opacity="0.85"/>
<circle cx="817.9" cy="493.1" r="1.8" fill="#00e5ff" opacity="0.85"/>
<circle cx="817.9" cy="733.3" r="1.8" fill="#00e5ff" opacity="0.85"/>
<circle cx="40.0" cy="733.3" r="1.8" fill="#00e5ff" opacity="0.85"/>
<circle cx="40.0" cy="466.7" r="1.8" fill="#00e5ff" opacity="0.85"/>
<circle cx="860.0" cy="466.7" r="1.8" fill="#00e5ff" opacity="0.85"/>
<circle cx="860.0" cy="733.3" r="1.8" fill="#00e5ff" opacity="0.85"/>
<path d="M 79.1 733.3 L 79.1 493.1 L 145.8 493.1 L 205.2 493.1 L 269.6 493.1 L 333.2 493.1 L 392.0 493.1 L 452.3 493.1 L 510.1 493.1 L 569.2 493.1 L 633.2 493.1 L 691.3 493.1 L 751.9 493.1 L 808.8 493.1 L 817.9 493.1 L 817.9 554.4 L 817.9 613.5 L 817.9 672.6 L 817.9 733.3 L 754.5 733.3 L 692.6 733.3 L 633.2 733.3 L 567.9 733.3 L 508.1 733.3 L 442.0 733.3 L 382.3 733.3 L 324.7 733.3 L 262.9 733.3 L 200.8 733.3 L 143.7 733.3 L 87.4 733.3 Z" fill="none" stroke="#39d353" stroke-width="2.0" stroke-dasharray="8 5"/>
<path d="M 40.0 733.3 L 40.0 466.7 L 101.0 466.7 L 159.8 466.7 L 218.6 466.7 L 277.5 466.7 L 336.6 466.7 L 395.4 466.7 L 454.0 466.7 L 512.8 466.7 L 570.9 466.7 L 629.7 466.7 L 688.6 466.7 L 746.7 466.7 L 805.6 466.7 L 860.0 466.7 L 860.0 529.4 L 860.0 590.2 L 860.0 650.4 L 860.0 707.3 L 860.0 733.3 L 797.8 733.3 L 737.2 733.3 L 676.7 733.3 L 616.2 733.3 L 555.7 733.3 L 495.2 733.3 L 434.8 733.3 L 374.3 733.3 L 313.8 733.3 L 253.3 733.3 L 192.8 733.3 L 132.2 733.3 L 72.4 733.3 Z" fill="rgba(74,158,255,0.10)" stroke="#4a9eff" stroke-width="2.4"/>
<line x1="185.9" y1="567.0" x2="661.0" y2="567.0" stroke="#ff5454" stroke-width="2.0" stroke-dasharray="9 5"/>
</svg>