<svg xmlns="http://www.w3.org/2000/svg" width="900" height="1200" viewBox="0 0 900 1200" font-family="sans-serif">
<rect width="100%" height="100%" fill="#111"/>
<text x="14" y="24" fill="#fff" font-size="16">5156-腰block: 腰-28</text>
<rect x="14" y="37" width="14" height="12" fill="#4a9eff"/>
<text x="34" y="48" fill="#ddd" font-size="12">layer1 毛版outline</text>
<rect x="14" y="57" width="14" height="12" fill="#39d353"/>
<text x="34" y="68" fill="#ddd" font-size="12">layer14 净版</text>
<rect x="14" y="77" width="14" height="12" fill="#ff5454"/>
<text x="34" y="88" fill="#ddd" font-size="12">layer7 布纹线</text>
<rect x="14" y="97" width="14" height="12" fill="#ffb000"/>
<text x="34" y="108" fill="#ddd" font-size="12">layer8 内部线</text>
<rect x="14" y="117" width="14" height="12" fill="#00e5ff"/>
<text x="34" y="128" fill="#ddd" font-size="12">layer2 POINT</text>
<rect x="14" y="137" width="14" height="12" fill="#e040fb"/>
<text x="34" y="148" fill="#ddd" font-size="12">layer3 POINT</text>
<rect x="14" y="157" width="14" height="12" fill="#ffeb3b"/>
<text x="34" y="168" fill="#ddd" font-size="12">layer4 POINT</text>
<rect x="14" y="177" width="14" height="12" fill="#ffffff"/>
<text x="34" y="188" fill="#ddd" font-size="12">layer13 POINT</text>
<circle cx="107.2" cy="584.9" r="1.1" fill="#e040fb" opacity="0.85"/>
<circle cx="112.9" cy="573.7" r="1.1" fill="#e040fb" opacity="0.85"/>
<circle cx="118.9" cy="562.1" r="1.1" fill="#e040fb" opacity="0.85"/>
<circle cx="131.2" cy="566.8" r="1.1" fill="#e040fb" opacity="0.85"/>
<circle cx="143.0" cy="571.1" r="1.1" fill="#e040fb" opacity="0.85"/>
<circle cx="154.7" cy="575.2" r="1.1" fill="#e040fb" opacity="0.85"/>
<circle cx="166.8" cy="579.2" r="1.1" fill="#e040fb" opacity="0.85"/>
<circle cx="178.6" cy="583.0" r="1.1" fill="#e040fb" opacity="0.85"/>
<circle cx="190.8" cy="586.8" r="1.1" fill="#e040fb" opacity="0.85"/>
<circle cx="202.7" cy="590.3" r="1.1" fill="#e040fb" opacity="0.85"/>
<circle cx="214.2" cy="593.4" r="1.1" fill="#e040fb" opacity="0.85"/>
<circle cx="225.6" cy="596.2" r="1.1" fill="#e040fb" opacity="0.85"/>
<circle cx="237.1" cy="598.9" r="1.1" fill="#e040fb" opacity="0.85"/>
<circle cx="249.4" cy="601.6" r="1.1" fill="#e040fb" opacity="0.85"/>
<circle cx="261.5" cy="604.0" r="1.1" fill="#e040fb" opacity="0.85"/>
<circle cx="274.0" cy="606.3" r="1.1" fill="#e040fb" opacity="0.85"/>
<circle cx="286.2" cy="608.3" r="1.1" fill="#e040fb" opacity="0.85"/>
<circle cx="298.7" cy="610.2" r="1.1" fill="#e040fb" opacity="0.85"/>
<circle cx="310.8" cy="611.9" r="1.1" fill="#e040fb" opacity="0.85"/>
<circle cx="323.7" cy="613.5" r="1.1" fill="#e040fb" opacity="0.85"/>
<circle cx="336.5" cy="614.9" r="1.1" fill="#e040fb" opacity="0.85"/>
<circle cx="348.8" cy="616.1" r="1.1" fill="#e040fb" opacity="0.85"/>
<circle cx="361.7" cy="617.2" r="1.1" fill="#e040fb" opacity="0.85"/>
<circle cx="374.6" cy="618.1" r="1.1" fill="#e040fb" opacity="0.85"/>
<circle cx="387.1" cy="618.8" r="1.1" fill="#e040fb" opacity="0.85"/>
<circle cx="399.7" cy="619.5" r="1.1" fill="#e040fb" opacity="0.85"/>
<circle cx="412.4" cy="620.0" r="1.1" fill="#e040fb" opacity="0.85"/>
<circle cx="425.0" cy="620.5" r="1.1" fill="#e040fb" opacity="0.85"/>
<circle cx="437.4" cy="620.9" r="1.1" fill="#e040fb" opacity="0.85"/>
<circle cx="455.3" cy="621.1" r="1.1" fill="#e040fb" opacity="0.85"/>
<circle cx="466.4" cy="621.0" r="1.1" fill="#e040fb" opacity="0.85"/>
<circle cx="475.7" cy="620.7" r="1.1" fill="#e040fb" opacity="0.85"/>
<circle cx="488.3" cy="620.0" r="1.1" fill="#e040fb" opacity="0.85"/>
<circle cx="500.7" cy="619.4" r="1.1" fill="#e040fb" opacity="0.85"/>
<circle cx="513.4" cy="618.8" r="1.1" fill="#e040fb" opacity="0.85"/>
<circle cx="525.9" cy="618.1" r="1.1" fill="#e040fb" opacity="0.85"/>
<circle cx="538.5" cy="617.2" r="1.1" fill="#e040fb" opacity="0.85"/>
<circle cx="551.1" cy="616.1" r="1.1" fill="#e040fb" opacity="0.85"/>
<circle cx="563.6" cy="614.9" r="1.1" fill="#e040fb" opacity="0.85"/>
<circle cx="576.3" cy="613.5" r="1.1" fill="#e040fb" opacity="0.85"/>
<circle cx="589.2" cy="611.9" r="1.1" fill="#e040fb" opacity="0.85"/>
<circle cx="601.3" cy="610.2" r="1.1" fill="#e040fb" opacity="0.85"/>
<circle cx="613.6" cy="608.4" r="1.1" fill="#e040fb" opacity="0.85"/>
<circle cx="626.1" cy="606.3" r="1.1" fill="#e040fb" opacity="0.85"/>
<circle cx="638.4" cy="604.1" r="1.1" fill="#e040fb" opacity="0.85"/>
<circle cx="650.7" cy="601.6" r="1.1" fill="#e040fb" opacity="0.85"/>
<circle cx="662.8" cy="599.0" r="1.1" fill="#e040fb" opacity="0.85"/>
<circle cx="674.7" cy="596.2" r="1.1" fill="#e040fb" opacity="0.85"/>
<circle cx="686.0" cy="593.3" r="1.1" fill="#e040fb" opacity="0.85"/>
<circle cx="697.4" cy="590.2" r="1.1" fill="#e040fb" opacity="0.85"/>
<circle cx="709.1" cy="586.8" r="1.1" fill="#e040fb" opacity="0.85"/>
<circle cx="721.2" cy="583.1" r="1.1" fill="#e040fb" opacity="0.85"/>
<circle cx="733.2" cy="579.3" r="1.1" fill="#e040fb" opacity="0.85"/>
<circle cx="745.1" cy="575.2" r="1.1" fill="#e040fb" opacity="0.85"/>
<circle cx="757.0" cy="571.1" r="1.1" fill="#e040fb" opacity="0.85"/>
<circle cx="768.8" cy="566.8" r="1.1" fill="#e040fb" opacity="0.85"/>
<circle cx="781.1" cy="562.1" r="1.1" fill="#e040fb" opacity="0.85"/>
<circle cx="787.3" cy="574.2" r="1.1" fill="#e040fb" opacity="0.85"/>
<circle cx="793.2" cy="585.6" r="1.1" fill="#e040fb" opacity="0.85"/>
<circle cx="798.3" cy="595.4" r="1.1" fill="#e040fb" opacity="0.85"/>
<circle cx="785.6" cy="600.2" r="1.1" fill="#e040fb" opacity="0.85"/>
<circle cx="773.1" cy="604.8" r="1.1" fill="#e040fb" opacity="0.85"/>
<circle cx="760.1" cy="609.4" r="1.1" fill="#e040fb" opacity="0.85"/>
<circle cx="748.1" cy="613.5" r="1.1" fill="#e040fb" opacity="0.85"/>
<circle cx="735.2" cy="617.7" r="1.1" fill="#e040fb" opacity="0.85"/>
<circle cx="723.2" cy="621.4" r="1.1" fill="#e040fb" opacity="0.85"/>
<circle cx="710.8" cy="625.1" r="1.1" fill="#e040fb" opacity="0.85"/>
<circle cx="699.4" cy="628.2" r="1.1" fill="#e040fb" opacity="0.85"/>
<circle cx="686.9" cy="631.5" r="1.1" fill="#e040fb" opacity="0.85"/>
<circle cx="674.3" cy="634.5" r="1.1" fill="#e040fb" opacity="0.85"/>
<circle cx="661.6" cy="637.3" r="1.1" fill="#e040fb" opacity="0.85"/>
<circle cx="648.8" cy="639.9" r="1.1" fill="#e040fb" opacity="0.85"/>
<circle cx="635.6" cy="642.4" r="1.1" fill="#e040fb" opacity="0.85"/>
<circle cx="622.8" cy="644.6" r="1.1" fill="#e040fb" opacity="0.85"/>
<circle cx="610.0" cy="646.6" r="1.1" fill="#e040fb" opacity="0.85"/>
<circle cx="597.2" cy="648.5" r="1.1" fill="#e040fb" opacity="0.85"/>
<circle cx="584.3" cy="650.2" r="1.1" fill="#e040fb" opacity="0.85"/>
<circle cx="571.4" cy="651.7" r="1.1" fill="#e040fb" opacity="0.85"/>
<circle cx="558.4" cy="653.1" r="1.1" fill="#e040fb" opacity="0.85"/>
<circle cx="545.5" cy="654.3" r="1.1" fill="#e040fb" opacity="0.85"/>
<circle cx="532.5" cy="655.3" r="1.1" fill="#e040fb" opacity="0.85"/>
<circle cx="519.6" cy="656.2" r="1.1" fill="#e040fb" opacity="0.85"/>
<circle cx="506.6" cy="656.9" r="1.1" fill="#e040fb" opacity="0.85"/>
<circle cx="493.6" cy="657.4" r="1.1" fill="#e040fb" opacity="0.85"/>
<circle cx="480.6" cy="657.8" r="1.1" fill="#e040fb" opacity="0.85"/>
<circle cx="468.1" cy="658.1" r="1.1" fill="#e040fb" opacity="0.85"/>
<circle cx="455.4" cy="658.3" r="1.1" fill="#e040fb" opacity="0.85"/>
<circle cx="450.0" cy="658.3" r="1.1" fill="#e040fb" opacity="0.85"/>
<circle cx="450.0" cy="658.3" r="1.1" fill="#e040fb" opacity="0.85"/>
<circle cx="442.3" cy="658.2" r="1.1" fill="#e040fb" opacity="0.85"/>
<circle cx="430.0" cy="658.0" r="1.1" fill="#e040fb" opacity="0.85"/>
<circle cx="417.5" cy="657.6" r="1.1" fill="#e040fb" opacity="0.85"/>
<circle cx="404.3" cy="657.1" r="1.1" fill="#e040fb" opacity="0.85"/>
<circle cx="391.4" cy="656.4" r="1.1" fill="#e040fb" opacity="0.85"/>
<circle cx="377.3" cy="655.6" r="1.1" fill="#e040fb" opacity="0.85"/>
<circle cx="364.4" cy="654.6" r="1.1" fill="#e040fb" opacity="0.85"/>
<circle cx="350.9" cy="653.5" r="1.1" fill="#e040fb" opacity="0.85"/>
<circle cx="336.8" cy="652.2" r="1.1" fill="#e040fb" opacity="0.85"/>
<circle cx="322.3" cy="650.6" r="1.1" fill="#e040fb" opacity="0.85"/>
<circle cx="309.9" cy="649.2" r="1.1" fill="#e040fb" opacity="0.85"/>
<circle cx="297.4" cy="647.5" r="1.1" fill="#e040fb" opacity="0.85"/>
<circle cx="284.6" cy="645.7" r="1.1" fill="#e040fb" opacity="0.85"/>
<circle cx="271.8" cy="643.6" r="1.1" fill="#e040fb" opacity="0.85"/>
<circle cx="256.4" cy="640.9" r="1.1" fill="#e040fb" opacity="0.85"/>
<circle cx="245.2" cy="638.7" r="1.1" fill="#e040fb" opacity="0.85"/>
<circle cx="232.4" cy="636.0" r="1.1" fill="#e040fb" opacity="0.85"/>
<circle cx="219.6" cy="633.1" r="1.1" fill="#e040fb" opacity="0.85"/>
<circle cx="207.0" cy="629.9" r="1.1" fill="#e040fb" opacity="0.85"/>
<circle cx="194.2" cy="626.5" r="1.1" fill="#e040fb" opacity="0.85"/>
<circle cx="181.7" cy="622.9" r="1.1" fill="#e040fb" opacity="0.85"/>
<circle cx="169.4" cy="619.1" r="1.1" fill="#e040fb" opacity="0.85"/>
<circle cx="155.3" cy="614.6" r="1.1" fill="#e040fb" opacity="0.85"/>
<circle cx="142.2" cy="610.2" r="1.1" fill="#e040fb" opacity="0.85"/>
<circle cx="128.5" cy="605.4" r="1.1" fill="#e040fb" opacity="0.85"/>
<circle cx="115.7" cy="600.7" r="1.1" fill="#e040fb" opacity="0.85"/>
<circle cx="101.8" cy="595.4" r="1.1" fill="#e040fb" opacity="0.85"/>
<circle cx="101.8" cy="595.4" r="1.1" fill="#e040fb" opacity="0.85"/>
<circle cx="450.0" cy="634.1" r="1.1" fill="#e040fb" opacity="0.85"/>
<circle cx="450.0" cy="646.5" r="1.1" fill="#e040fb" opacity="0.85"/>
<circle cx="43.6" cy="576.3" r="1.1" fill="#e040fb" opacity="0.85"/>
<circle cx="49.3" cy="565.2" r="1.1" fill="#e040fb" opacity="0.85"/>
<circle cx="55.1" cy="554.0" r="1.1" fill="#e040fb" opacity="0.85"/>
<circle cx="60.9" cy="542.6" r="1.1" fill="#e040fb" opacity="0.85"/>
<circle cx="61.9" cy="540.6" r="1.1" fill="#e040fb" opacity="0.85"/>
<circle cx="78.9" cy="535.8" r="1.1" fill="#e040fb" opacity="0.85"/>
<circle cx="90.6" cy="540.2" r="1.1" fill="#e040fb" opacity="0.85"/>
<circle cx="102.4" cy="544.7" r="1.1" fill="#e040fb" opacity="0.85"/>
<circle cx="114.2" cy="549.1" r="1.1" fill="#e040fb" opacity="0.85"/>
<circle cx="126.1" cy="553.6" r="1.1" fill="#e040fb" opacity="0.85"/>
<circle cx="137.8" cy="558.0" r="1.1" fill="#e040fb" opacity="0.85"/>
<circle cx="149.9" cy="562.4" r="1.1" fill="#e040fb" opacity="0.85"/>
<circle cx="161.8" cy="566.5" r="1.1" fill="#e040fb" opacity="0.85"/>
<circle cx="173.6" cy="570.4" r="1.1" fill="#e040fb" opacity="0.85"/>
<circle cx="185.6" cy="574.2" r="1.1" fill="#e040fb" opacity="0.85"/>
<circle cx="197.9" cy="577.9" r="1.1" fill="#e040fb" opacity="0.85"/>
<circle cx="209.6" cy="581.3" r="1.1" fill="#e040fb" opacity="0.85"/>
<circle cx="220.9" cy="584.3" r="1.1" fill="#e040fb" opacity="0.85"/>
<circle cx="232.3" cy="587.1" r="1.1" fill="#e040fb" opacity="0.85"/>
<circle cx="244.2" cy="589.8" r="1.1" fill="#e040fb" opacity="0.85"/>
<circle cx="256.2" cy="592.3" r="1.1" fill="#e040fb" opacity="0.85"/>
<circle cx="269.0" cy="594.7" r="1.1" fill="#e040fb" opacity="0.85"/>
<circle cx="281.0" cy="596.9" r="1.1" fill="#e040fb" opacity="0.85"/>
<circle cx="293.9" cy="598.9" r="1.1" fill="#e040fb" opacity="0.85"/>
<circle cx="305.9" cy="600.7" r="1.1" fill="#e040fb" opacity="0.85"/>
<circle cx="318.9" cy="602.3" r="1.1" fill="#e040fb" opacity="0.85"/>
<circle cx="331.2" cy="603.8" r="1.1" fill="#e040fb" opacity="0.85"/>
<circle cx="344.1" cy="605.1" r="1.1" fill="#e040fb" opacity="0.85"/>
<circle cx="356.5" cy="606.2" r="1.1" fill="#e040fb" opacity="0.85"/>
<circle cx="369.1" cy="607.2" r="1.1" fill="#e040fb" opacity="0.85"/>
<circle cx="381.5" cy="608.0" r="1.1" fill="#e040fb" opacity="0.85"/>
<circle cx="394.1" cy="608.7" r="1.1" fill="#e040fb" opacity="0.85"/>
<circle cx="406.7" cy="609.3" r="1.1" fill="#e040fb" opacity="0.85"/>
<circle cx="419.1" cy="609.8" r="1.1" fill="#e040fb" opacity="0.85"/>
<circle cx="431.7" cy="610.2" r="1.1" fill="#e040fb" opacity="0.85"/>
<circle cx="444.1" cy="610.5" r="1.1" fill="#e040fb" opacity="0.85"/>
<circle cx="456.6" cy="610.6" r="1.1" fill="#e040fb" opacity="0.85"/>
<circle cx="466.4" cy="610.4" r="1.1" fill="#e040fb" opacity="0.85"/>
<circle cx="479.2" cy="609.9" r="1.1" fill="#e040fb" opacity="0.85"/>
<circle cx="492.0" cy="609.3" r="1.1" fill="#e040fb" opacity="0.85"/>
<circle cx="504.6" cy="608.7" r="1.1" fill="#e040fb" opacity="0.85"/>
<circle cx="517.4" cy="608.0" r="1.1" fill="#e040fb" opacity="0.85"/>
<circle cx="530.0" cy="607.3" r="1.1" fill="#e040fb" opacity="0.85"/>
<circle cx="542.7" cy="606.3" r="1.1" fill="#e040fb" opacity="0.85"/>
<circle cx="555.4" cy="605.2" r="1.1" fill="#e040fb" opacity="0.85"/>
<circle cx="568.1" cy="603.9" r="1.1" fill="#e040fb" opacity="0.85"/>
<circle cx="580.7" cy="602.4" r="1.1" fill="#e040fb" opacity="0.85"/>
<circle cx="593.4" cy="600.8" r="1.1" fill="#e040fb" opacity="0.85"/>
<circle cx="606.0" cy="598.9" r="1.1" fill="#e040fb" opacity="0.85"/>
<circle cx="618.7" cy="596.9" r="1.1" fill="#e040fb" opacity="0.85"/>
<circle cx="630.9" cy="594.8" r="1.1" fill="#e040fb" opacity="0.85"/>
<circle cx="643.5" cy="592.3" r="1.1" fill="#e040fb" opacity="0.85"/>
<circle cx="655.4" cy="589.9" r="1.1" fill="#e040fb" opacity="0.85"/>
<circle cx="667.1" cy="587.2" r="1.1" fill="#e040fb" opacity="0.85"/>
<circle cx="678.7" cy="584.4" r="1.1" fill="#e040fb" opacity="0.85"/>
<circle cx="689.4" cy="581.5" r="1.1" fill="#e040fb" opacity="0.85"/>
<circle cx="701.3" cy="578.2" r="1.1" fill="#e040fb" opacity="0.85"/>
<circle cx="713.4" cy="574.6" r="1.1" fill="#e040fb" opacity="0.85"/>
<circle cx="725.6" cy="570.7" r="1.1" fill="#e040fb" opacity="0.85"/>
<circle cx="737.7" cy="566.7" r="1.1" fill="#e040fb" opacity="0.85"/>
<circle cx="749.8" cy="562.5" r="1.1" fill="#e040fb" opacity="0.85"/>
<circle cx="761.8" cy="558.2" r="1.1" fill="#e040fb" opacity="0.85"/>
<circle cx="773.8" cy="553.7" r="1.1" fill="#e040fb" opacity="0.85"/>
<circle cx="785.7" cy="549.2" r="1.1" fill="#e040fb" opacity="0.85"/>
<circle cx="797.7" cy="544.6" r="1.1" fill="#e040fb" opacity="0.85"/>
<circle cx="809.3" cy="540.2" r="1.1" fill="#e040fb" opacity="0.85"/>
<circle cx="821.2" cy="535.8" r="1.1" fill="#e040fb" opacity="0.85"/>
<circle cx="838.1" cy="540.6" r="1.1" fill="#e040fb" opacity="0.85"/>
<circle cx="839.3" cy="542.9" r="1.1" fill="#e040fb" opacity="0.85"/>
<circle cx="845.0" cy="554.0" r="1.1" fill="#e040fb" opacity="0.85"/>
<circle cx="850.8" cy="565.2" r="1.1" fill="#e040fb" opacity="0.85"/>
<circle cx="856.5" cy="576.3" r="1.1" fill="#e040fb" opacity="0.85"/>
<circle cx="848.0" cy="587.7" r="1.1" fill="#e040fb" opacity="0.85"/>
<circle cx="836.1" cy="592.2" r="1.1" fill="#e040fb" opacity="0.85"/>
<circle cx="824.4" cy="596.7" r="1.1" fill="#e040fb" opacity="0.85"/>
<circle cx="812.7" cy="601.1" r="1.1" fill="#e040fb" opacity="0.85"/>
<circle cx="802.0" cy="605.2" r="1.1" fill="#e040fb" opacity="0.85"/>
<circle cx="801.0" cy="605.6" r="1.1" fill="#e040fb" opacity="0.85"/>
<circle cx="789.3" cy="610.0" r="1.1" fill="#e040fb" opacity="0.85"/>
<circle cx="777.5" cy="614.4" r="1.1" fill="#e040fb" opacity="0.85"/>
<circle cx="765.4" cy="618.7" r="1.1" fill="#e040fb" opacity="0.85"/>
<circle cx="753.5" cy="622.8" r="1.1" fill="#e040fb" opacity="0.85"/>
<circle cx="741.5" cy="626.7" r="1.1" fill="#e040fb" opacity="0.85"/>
<circle cx="729.5" cy="630.5" r="1.1" fill="#e040fb" opacity="0.85"/>
<circle cx="717.2" cy="634.2" r="1.1" fill="#e040fb" opacity="0.85"/>
<circle cx="705.1" cy="637.6" r="1.1" fill="#e040fb" opacity="0.85"/>
<circle cx="693.0" cy="640.8" r="1.1" fill="#e040fb" opacity="0.85"/>
<circle cx="681.3" cy="643.6" r="1.1" fill="#e040fb" opacity="0.85"/>
<circle cx="669.0" cy="646.4" r="1.1" fill="#e040fb" opacity="0.85"/>
<circle cx="656.6" cy="649.1" r="1.1" fill="#e040fb" opacity="0.85"/>
<circle cx="644.3" cy="651.5" r="1.1" fill="#e040fb" opacity="0.85"/>
<circle cx="631.9" cy="653.7" r="1.1" fill="#e040fb" opacity="0.85"/>
<circle cx="619.5" cy="655.8" r="1.1" fill="#e040fb" opacity="0.85"/>
<circle cx="606.9" cy="657.7" r="1.1" fill="#e040fb" opacity="0.85"/>
<circle cx="594.5" cy="659.5" r="1.1" fill="#e040fb" opacity="0.85"/>
<circle cx="581.9" cy="661.1" r="1.1" fill="#e040fb" opacity="0.85"/>
<circle cx="569.5" cy="662.5" r="1.1" fill="#e040fb" opacity="0.85"/>
<circle cx="556.9" cy="663.8" r="1.1" fill="#e040fb" opacity="0.85"/>
<circle cx="544.4" cy="664.9" r="1.1" fill="#e040fb" opacity="0.85"/>
<circle cx="531.7" cy="665.9" r="1.1" fill="#e040fb" opacity="0.85"/>
<circle cx="519.2" cy="666.7" r="1.1" fill="#e040fb" opacity="0.85"/>
<circle cx="507.1" cy="667.4" r="1.1" fill="#e040fb" opacity="0.85"/>
<circle cx="494.0" cy="667.9" r="1.1" fill="#e040fb" opacity="0.85"/>
<circle cx="481.5" cy="668.3" r="1.1" fill="#e040fb" opacity="0.85"/>
<circle cx="468.7" cy="668.6" r="1.1" fill="#e040fb" opacity="0.85"/>
<circle cx="456.2" cy="668.7" r="1.1" fill="#e040fb" opacity="0.85"/>
<circle cx="450.1" cy="668.8" r="1.1" fill="#e040fb" opacity="0.85"/>
<circle cx="449.9" cy="668.8" r="1.1" fill="#e040fb" opacity="0.85"/>
<circle cx="443.6" cy="668.7" r="1.1" fill="#e040fb" opacity="0.85"/>
<circle cx="431.3" cy="668.5" r="1.1" fill="#e040fb" opacity="0.85"/>
<circle cx="418.7" cy="668.2" r="1.1" fill="#e040fb" opacity="0.85"/>
<circle cx="406.0" cy="667.7" r="1.1" fill="#e040fb" opacity="0.85"/>
<circle cx="393.4" cy="667.1" r="1.1" fill="#e040fb" opacity="0.85"/>
<circle cx="380.9" cy="666.3" r="1.1" fill="#e040fb" opacity="0.85"/>
<circle cx="368.3" cy="665.4" r="1.1" fill="#e040fb" opacity="0.85"/>
<circle cx="355.6" cy="664.4" r="1.1" fill="#e040fb" opacity="0.85"/>
<circle cx="343.1" cy="663.3" r="1.1" fill="#e040fb" opacity="0.85"/>
<circle cx="330.5" cy="662.1" r="1.1" fill="#e040fb" opacity="0.85"/>
<circle cx="318.0" cy="660.7" r="1.1" fill="#e040fb" opacity="0.85"/>
<circle cx="305.4" cy="659.2" r="1.1" fill="#e040fb" opacity="0.85"/>
<circle cx="292.9" cy="657.5" r="1.1" fill="#e040fb" opacity="0.85"/>
<circle cx="280.3" cy="655.6" r="1.1" fill="#e040fb" opacity="0.85"/>
<circle cx="267.9" cy="653.6" r="1.1" fill="#e040fb" opacity="0.85"/>
<circle cx="255.5" cy="651.4" r="1.1" fill="#e040fb" opacity="0.85"/>
<circle cx="242.9" cy="649.0" r="1.1" fill="#e040fb" opacity="0.85"/>
<circle cx="230.6" cy="646.4" r="1.1" fill="#e040fb" opacity="0.85"/>
<circle cx="218.6" cy="643.6" r="1.1" fill="#e040fb" opacity="0.85"/>
<circle cx="206.9" cy="640.7" r="1.1" fill="#e040fb" opacity="0.85"/>
<circle cx="195.3" cy="637.7" r="1.1" fill="#e040fb" opacity="0.85"/>
<circle cx="183.2" cy="634.3" r="1.1" fill="#e040fb" opacity="0.85"/>
<circle cx="171.0" cy="630.6" r="1.1" fill="#e040fb" opacity="0.85"/>
<circle cx="159.0" cy="626.8" r="1.1" fill="#e040fb" opacity="0.85"/>
<circle cx="146.8" cy="622.8" r="1.1" fill="#e040fb" opacity="0.85"/>
<circle cx="134.9" cy="618.8" r="1.1" fill="#e040fb" opacity="0.85"/>
<circle cx="123.1" cy="614.6" r="1.1" fill="#e040fb" opacity="0.85"/>
<circle cx="111.3" cy="610.2" r="1.1" fill="#e040fb" opacity="0.85"/>
<circle cx="99.5" cy="605.8" r="1.1" fill="#e040fb" opacity="0.85"/>
<circle cx="96.9" cy="604.8" r="1.1" fill="#e040fb" opacity="0.85"/>
<circle cx="96.2" cy="604.5" r="1.1" fill="#e040fb" opacity="0.85"/>
<circle cx="87.5" cy="601.2" r="1.1" fill="#e040fb" opacity="0.85"/>
<circle cx="75.7" cy="596.7" r="1.1" fill="#e040fb" opacity="0.85"/>
<circle cx="64.0" cy="592.3" r="1.1" fill="#e040fb" opacity="0.85"/>
<circle cx="52.0" cy="587.8" r="1.1" fill="#e040fb" opacity="0.85"/>
<circle cx="101.8" cy="595.4" r="1.8" fill="#00e5ff" opacity="0.85"/>
<circle cx="118.9" cy="562.1" r="1.8" fill="#00e5ff" opacity="0.85"/>
<circle cx="449.7" cy="621.1" r="1.8" fill="#00e5ff" opacity="0.85"/>
<circle cx="781.2" cy="562.2" r="1.8" fill="#00e5ff" opacity="0.85"/>
<circle cx="798.3" cy="595.4" r="1.8" fill="#00e5ff" opacity="0.85"/>
<circle cx="450.0" cy="658.3" r="1.8" fill="#00e5ff" opacity="0.85"/>
<circle cx="450.0" cy="621.1" r="1.8" fill="#00e5ff" opacity="0.85"/>
<circle cx="450.0" cy="658.3" r="1.8" fill="#00e5ff" opacity="0.85"/>
<circle cx="40.0" cy="583.2" r="1.8" fill="#00e5ff" opacity="0.85"/>
<circle cx="66.8" cy="531.2" r="1.8" fill="#00e5ff" opacity="0.85"/>
<circle cx="450.4" cy="610.6" r="1.8" fill="#00e5ff" opacity="0.85"/>
<circle cx="833.3" cy="531.2" r="1.8" fill="#00e5ff" opacity="0.85"/>
<circle cx="860.0" cy="583.1" r="1.8" fill="#00e5ff" opacity="0.85"/>
<circle cx="450.0" cy="668.8" r="1.8" fill="#00e5ff" opacity="0.85"/>
<circle cx="118.9" cy="562.1" r="2.0" fill="#ffeb3b" opacity="0.85"/>
<circle cx="781.1" cy="562.1" r="2.0" fill="#ffeb3b" opacity="0.85"/>
<circle cx="798.3" cy="595.4" r="2.0" fill="#ffeb3b" opacity="0.85"/>
<circle cx="450.0" cy="658.3" r="2.0" fill="#ffeb3b" opacity="0.85"/>
<circle cx="450.0" cy="658.3" r="2.0" fill="#ffeb3b" opacity="0.85"/>
<circle cx="101.8" cy="595.4" r="2.0" fill="#ffeb3b" opacity="0.85"/>
<circle cx="101.8" cy="595.4" r="2.0" fill="#ffeb3b" opacity="0.85"/>
<circle cx="61.9" cy="540.6" r="2.0" fill="#ffeb3b" opacity="0.85"/>
<circle cx="838.1" cy="540.6" r="2.0" fill="#ffeb3b" opacity="0.85"/>
<circle cx="802.0" cy="605.2" r="2.0" fill="#ffeb3b" opacity="0.85"/>
<circle cx="450.1" cy="668.8" r="2.0" fill="#ffeb3b" opacity="0.85"/>
<circle cx="449.9" cy="668.8" r="2.0" fill="#ffeb3b" opacity="0.85"/>
<circle cx="96.9" cy="604.8" r="2.0" fill="#ffeb3b" opacity="0.85"/>
<circle cx="96.2" cy="604.5" r="2.0" fill="#ffeb3b" opacity="0.85"/>
<path d="M 450.0 621.1 L 450.0 634.1 L 450.0 646.5 L 450.0 658.3" fill="none" stroke="#ffb000" stroke-width="2.2"/>
<path d="M 101.8 595.4 L 107.2 584.9 L 112.9 573.7 L 118.9 562.1 L 118.9 562.1 L 131.2 566.8 L 143.0 571.1 L 154.7 575.2 L 166.8 579.2 L 178.6 583.0 L 190.8 586.8 L 202.7 590.3 L 214.2 593.4 L 225.6 596.2 L 237.1 598.9 L 249.4 601.6 L 261.5 604.0 L 274.0 606.3 L 286.2 608.3 L 298.7 610.2 L 310.8 611.9 L 323.7 613.5 L 336.5 614.9 L 348.8 616.1 L 361.7 617.2 L 374.6 618.1 L 387.1 618.8 L 399.7 619.5 L 412.4 620.0 L 425.0 620.5 L 437.4 620.9 L 449.7 621.1 L 455.3 621.1 L 466.4 621.0 L 475.7 620.7 L 488.3 620.0 L 500.7 619.4 L 513.4 618.8 L 525.9 618.1 L 538.5 617.2 L 551.1 616.1 L 563.6 614.9 L 576.3 613.5 L 589.2 611.9 L 601.3 610.2 L 613.6 608.4 L 626.1 606.3 L 638.4 604.1 L 650.7 601.6 L 662.8 599.0 L 674.7 596.2 L 686.0 593.3 L 697.4 590.2 L 709.1 586.8 L 721.2 583.1 L 733.2 579.3 L 745.1 575.2 L 757.0 571.1 L 768.8 566.8 L 781.2 562.2 L 781.1 562.1 L 787.3 574.2 L 793.2 585.6 L 798.3 595.4 L 798.3 595.4 L 785.6 600.2 L 773.1 604.8 L 760.1 609.4 L 748.1 613.5 L 735.2 617.7 L 723.2 621.4 L 710.8 625.1 L 699.4 628.2 L 686.9 631.5 L 674.3 634.5 L 661.6 637.3 L 648.8 639.9 L 635.6 642.4 L 622.8 644.6 L 610.0 646.6 L 597.2 648.5 L 584.3 650.2 L 571.4 651.7 L 558.4 653.1 L 545.5 654.3 L 532.5 655.3 L 519.6 656.2 L 506.6 656.9 L 493.6 657.4 L 480.6 657.8 L 468.1 658.1 L 455.4 658.3 L 450.0 658.3 L 450.0 658.3 L 450.0 658.3 L 442.3 658.2 L 430.0 658.0 L 417.5 657.6 L 404.3 657.1 L 391.4 656.4 L 377.3 655.6 L 364.4 654.6 L 350.9 653.5 L 336.8 652.2 L 322.3 650.6 L 309.9 649.2 L 297.4 647.5 L 284.6 645.7 L 271.8 643.6 L 256.4 640.9 L 245.2 638.7 L 232.4 636.0 L 219.6 633.1 L 207.0 629.9 L 194.2 626.5 L 181.7 622.9 L 169.4 619.1 L 155.3 614.6 L 142.2 610.2 L 128.5 605.4 L 115.7 600.7 L 101.8 595.4 L 101.8 595.4 Z" fill="none" stroke="#39d353" stroke-width="2.0" stroke-dasharray="8 5"/>
<path d="M 40.0 583.2 L 43.6 576.3 L 49.3 565.2 L 55.1 554.0 L 60.9 542.6 L 61.9 540.6 L 66.8 531.2 L 78.9 535.8 L 90.6 540.2 L 102.4 544.7 L 114.2 549.1 L 126.1 553.6 L 137.8 558.0 L 149.9 562.4 L 161.8 566.5 L 173.6 570.4 L 185.6 574.2 L 197.9 577.9 L 209.6 581.3 L 220.9 584.3 L 232.3 587.1 L 244.2 589.8 L 256.2 592.3 L 269.0 594.7 L 281.0 596.9 L 293.9 598.9 L 305.9 600.7 L 318.9 602.3 L 331.2 603.8 L 344.1 605.1 L 356.5 606.2 L 369.1 607.2 L 381.5 608.0 L 394.1 608.7 L 406.7 609.3 L 419.1 609.8 L 431.7 610.2 L 444.1 610.5 L 450.4 610.6 L 456.6 610.6 L 466.4 610.4 L 479.2 609.9 L 492.0 609.3 L 504.6 608.7 L 517.4 608.0 L 530.0 607.3 L 542.7 606.3 L 555.4 605.2 L 568.1 603.9 L 580.7 602.4 L 593.4 600.8 L 606.0 598.9 L 618.7 596.9 L 630.9 594.8 L 643.5 592.3 L 655.4 589.9 L 667.1 587.2 L 678.7 584.4 L 689.4 581.5 L 701.3 578.2 L 713.4 574.6 L 725.6 570.7 L 737.7 566.7 L 749.8 562.5 L 761.8 558.2 L 773.8 553.7 L 785.7 549.2 L 797.7 544.6 L 809.3 540.2 L 821.2 535.8 L 833.3 531.2 L 838.1 540.6 L 839.3 542.9 L 845.0 554.0 L 850.8 565.2 L 856.5 576.3 L 860.0 583.1 L 848.0 587.7 L 836.1 592.2 L 824.4 596.7 L 812.7 601.1 L 802.0 605.2 L 801.0 605.6 L 789.3 610.0 L 777.5 614.4 L 765.4 618.7 L 753.5 622.8 L 741.5 626.7 L 729.5 630.5 L 717.2 634.2 L 705.1 637.6 L 693.0 640.8 L 681.3 643.6 L 669.0 646.4 L 656.6 649.1 L 644.3 651.5 L 631.9 653.7 L 619.5 655.8 L 606.9 657.7 L 594.5 659.5 L 581.9 661.1 L 569.5 662.5 L 556.9 663.8 L 544.4 664.9 L 531.7 665.9 L 519.2 666.7 L 507.1 667.4 L 494.0 667.9 L 481.5 668.3 L 468.7 668.6 L 456.2 668.7 L 450.1 668.8 L 450.0 668.8 L 449.9 668.8 L 443.6 668.7 L 431.3 668.5 L 418.7 668.2 L 406.0 667.7 L 393.4 667.1 L 380.9 666.3 L 368.3 665.4 L 355.6 664.4 L 343.1 663.3 L 330.5 662.1 L 318.0 660.7 L 305.4 659.2 L 292.9 657.5 L 280.3 655.6 L 267.9 653.6 L 255.5 651.4 L 242.9 649.0 L 230.6 646.4 L 218.6 643.6 L 206.9 640.7 L 195.3 637.7 L 183.2 634.3 L 171.0 630.6 L 159.0 626.8 L 146.8 622.8 L 134.9 618.8 L 123.1 614.6 L 111.3 610.2 L 99.5 605.8 L 96.9 604.8 L 96.2 604.5 L 87.5 601.2 L 75.7 596.7 L 64.0 592.3 L 52.0 587.8 Z" fill="rgba(74,158,255,0.10)" stroke="#4a9eff" stroke-width="2.4"/>
<line x1="451.8" y1="624.8" x2="451.8" y2="654.6" stroke="#ff5454" stroke-width="2.0" stroke-dasharray="9 5"/>
</svg>