  0
SECTION
  2
HEADER
  9
$ACADVER
  1
AC1009
  9
$DWGCODEPAGE
  3
ANSI_1252
  9
$INSBASE
 10
0.0
 20
0.0
 30
0.0
  9
$EXTMIN
 10
1e+20
 20
1e+20
 30
1e+20
  9
$EXTMAX
 10
-1e+20
 20
-1e+20
 30
-1e+20
  9
$LIMMIN
 10
0.0
 20
0.0
  9
$LIMMAX
 10
420.0
 20
297.0
  9
$ORTHOMODE
 70
0
  9
$REGENMODE
 70
1
  9
$FILLMODE
 70
1
  9
$DRAGMODE
 70
2
  9
$QTEXTMODE
 70
0
  9
$MIRRTEXT
 70
1
  9
$OSMODE
 70
20583
  9
$LTSCALE
 40
1.0
  9
$ATTMODE
 70
1
  9
$TEXTSIZE
 40
2.5
  9
$TRACEWID
 40
1.0
  9
$TEXTSTYLE
  7
Standard
  9
$CLAYER
  8
0
  9
$CELTYPE
  6
ByLayer
  9
$CECOLOR
 62
256
  9
$DIMSCALE
 40
1.0
  9
$DIMASZ
 40
2.5
  9
$DIMEXO
 40
0.625
  9
$DIMDLI
 40
3.75
  9
$DIMRND
 40
0.0
  9
$DIMDLE
 40
0.0
  9
$DIMEXE
 40
1.25
  9
$DIMTP
 40
0.0
  9
$DIMTM
 40
0.0
  9
$DIMTXT
 40
2.5
  9
$DIMCEN
 40
2.5
  9
$DIMTSZ
 40
0.0
  9
$DIMTOL
 70
0
  9
$DIMLIM
 70
0
  9
$DIMTIH
 70
0
  9
$DIMTOH
 70
0
  9
$DIMSE1
 70
0
  9
$DIMSE2
 70
0
  9
$DIMTAD
 70
1
  9
$DIMZIN
 70
8
  9
$DIMBLK
  1

  9
$DIMASO
 70
1
  9
$DIMSHO
 70
1
  9
$DIMPOST
  1

  9
$DIMAPOST
  1

  9
$DIMALT
 70
0
  9
$DIMALTD
 70
3
  9
$DIMALTF
 40
0.03937007874
  9
$DIMLFAC
 40
1.0
  9
$DIMTOFL
 70
1
  9
$DIMTVP
 40
0.0
  9
$DIMTIX
 70
0
  9
$DIMSOXD
 70
0
  9
$DIMSAH
 70
0
  9
$DIMBLK1
  1

  9
$DIMBLK2
  1

  9
$DIMSTYLE
  2
ISO-25
  9
$DIMCLRD
 70
0
  9
$DIMCLRE
 70
0
  9
$DIMCLRT
 70
0
  9
$DIMTFAC
 40
1.0
  9
$DIMGAP
 40
0.625
  9
$COORDS
 70
1
  9
$ATTDIA
 70
0
  9
$ATTREQ
 70
1
  9
$HANDLING
 70
1
  9
$LUNITS
 70
2
  9
$LUPREC
 70
4
  9
$SKETCHINC
 40
1.0
  9
$FILLETRAD
 40
10.0
  9
$AUNITS
 70
0
  9
$AUPREC
 70
2
  9
$MENU
  1
.
  9
$ELEVATION
 40
0.0
  9
$PELEVATION
 40
0.0
  9
$THICKNESS
 40
0.0
  9
$LIMCHECK
 70
0
  9
$CHAMFERA
 40
0.0
  9
$CHAMFERB
 40
0.0
  9
$SKPOLY
 70
0
  9
$TDCREATE
 40
2461264.9423032408
  9
$TDUPDATE
 40
2461264.9423032408
  9
$TDINDWG
 40
0.0
  9
$TDUSRTIMER
 40
0.0
  9
$USRTIMER
 70
1
  9
$ANGBASE
 50
0.0
  9
$ANGDIR
 70
0
  9
$PDMODE
 70
0
  9
$PDSIZE
 40
0.0
  9
$PLINEWID
 40
0.0
  9
$SPLFRAME
 70
0
  9
$SPLINETYPE
 70
6
  9
$SPLINESEGS
 70
8
  9
$HANDSEED
  5
21C
  9
$SURFTAB1
 70
6
  9
$SURFTAB2
 70
6
  9
$SURFTYPE
 70
6
  9
$SURFU
 70
6
  9
$SURFV
 70
6
  9
$UCSNAME
  2

  9
$UCSORG
 10
0.0
 20
0.0
 30
0.0
  9
$UCSXDIR
 10
1.0
 20
0.0
 30
0.0
  9
$UCSYDIR
 10
0.0
 20
1.0
 30
0.0
  9
$PUCSNAME
  2

  9
$PUCSORG
 10
0.0
 20
0.0
 30
0.0
  9
$PUCSXDIR
 10
1.0
 20
0.0
 30
0.0
  9
$PUCSYDIR
 10
0.0
 20
1.0
 30
0.0
  9
$USERI1
 70
0
  9
$USERI2
 70
0
  9
$USERI3
 70
0
  9
$USERI4
 70
0
  9
$USERI5
 70
0
  9
$USERR1
 40
0.0
  9
$USERR2
 40
0.0
  9
$USERR3
 40
0.0
  9
$USERR4
 40
0.0
  9
$USERR5
 40
0.0
  9
$WORLDVIEW
 70
1
  9
$SHADEDGE
 70
3
  9
$SHADEDIF
 70
70
  9
$TILEMODE
 70
1
  9
$MAXACTVP
 70
64
  9
$PLIMCHECK
 70
0
  9
$PEXTMIN
 10
1e+20
 20
1e+20
 30
1e+20
  9
$PEXTMAX
 10
-1e+20
 20
-1e+20
 30
-1e+20
  9
$PLIMMIN
 10
0.0
 20
0.0
  9
$PLIMMAX
 10
420.0
 20
297.0
  9
$UNITMODE
 70
0
  9
$VISRETAIN
 70
1
  9
$PLINEGEN
 70
0
  9
$PSLTSCALE
 70
1
  0
ENDSEC
  0
SECTION
  2
TABLES
  0
TABLE
  2
VPORT
 70
1
  0
VPORT
  5
23
  2
*Active
 70
0
 10
0.0
 20
0.0
 11
1.0
 21
1.0
 12
0.0
 22
0.0
 13
0.0
 23
0.0
 14
0.5
 24
0.5
 15
0.5
 25
0.5
 16
0.0
 26
0.0
 36
1.0
 17
0.0
 27
0.0
 37
0.0
 40
1000.0
 41
1.34
 42
50.0
 43
0.0
 44
0.0
 50
0.0
 51
0.0
 71
0
 72
1000
 73
1
 74
3
 75
0
 76
0
 77
0
 78
0
  0
ENDTAB
  0
TABLE
  2
LTYPE
 70
3
  0
LTYPE
  5
24
  2
ByBlock
 70
0
  3

 72
65
 73
0
 40
0.0
  0
LTYPE
  5
25
  2
ByLayer
 70
0
  3

 72
65
 73
0
 40
0.0
  0
LTYPE
  5
26
  2
Continuous
 70
0
  3

 72
65
 73
0
 40
0.0
  0
ENDTAB
  0
TABLE
  2
LAYER
 70
7
  0
LAYER
  5
27
  2
0
 70
0
 62
7
  6
Continuous
  0
LAYER
  5
28
  2
Defpoints
 70
0
 62
7
  6
Continuous
  0
LAYER
  5
2D
  2
1
 70
0
 62
1
  6
Continuous
  0
LAYER
  5
2E
  2
7
 70
0
 62
7
  6
Continuous
  0
LAYER
  5
2F
  2
14
 70
0
 62
3
  6
Continuous
  0
LAYER
  5
30
  2
8
 70
0
 62
6
  6
Continuous
  0
LAYER
  5
31
  2
4
 70
0
 62
2
  6
Continuous
  0
ENDTAB
  0
TABLE
  2
STYLE
 70
1
  0
STYLE
  5
29
  2
Standard
 70
0
 40
0.0
 41
1.0
 50
0.0
 71
0
 42
2.5
  3
txt
  4

  0
ENDTAB
  0
TABLE
  2
VIEW
 70
0
  0
ENDTAB
  0
TABLE
  2
UCS
 70
0
  0
ENDTAB
  0
TABLE
  2
APPID
 70
3
  0
APPID
  5
2A
  2
ACAD
 70
0
  0
APPID
  5
21A
  2
HATCHBACKGROUNDCOLOR
 70
0
  0
APPID
  5
21B
  2
EZDXF
 70
0
  0
ENDTAB
  0
TABLE
  2
DIMSTYLE
 70
1
  0
DIMSTYLE
105
2B
  2
Standard
 70
0
  3

  4

  5

  6

  7

 40
1.0
 41
2.5
 42
0.625
 43
3.75
 44
1.25
 45
0.0
 46
0.0
 47
0.0
 48
0.0
140
2.5
141
2.5
142
0.0
143
0.03937007874
144
1.0
145
0.0
146
1.0
147
0.625
 71
0
 72
0
 73
0
 74
0
 75
0
 76
0
 77
1
 78
8
170
0
171
3
172
1
173
0
174
0
175
0
176
0
177
0
178
0
  0
ENDTAB
  0
ENDSEC
  0
SECTION
  2
BLOCKS
  0
BLOCK
  5
18
  8
0
  2
$Model_Space
 70
0
 10
0.0
 20
0.0
 30
0.0
  3
$Model_Space
  1

1001
EZDXF
1000
CREATED_BY_EZDXF
1000
1.4.4 @ 2026-08-11T14:36:55.754216+00:00
1000
WRITTEN_BY_EZDXF
1000
1.4.4 @ 2026-08-11T14:36:55.759216+00:00
  0
ENDBLK
  5
19
  8
0
  0
BLOCK
  5
1C
  8
0
  2
$Paper_Space
 70
0
 10
0.0
 20
0.0
 30
0.0
  3
$Paper_Space
  1

  0
ENDBLK
  5
1D
  8
0
  0
ENDSEC
  0
SECTION
  2
ENTITIES
  0
POLYLINE
  5
32
  8
1
 66
1
 10
0.0
 20
0.0
 30
0.0
 70
1
  0
VERTEX
  5
34
  8
1
 10
-2922.911987
 20
-834.343033
 30
0.0
 70
0
  0
VERTEX
  5
35
  8
1
 10
-2922.843933
 20
-834.345703
 30
0.0
 70
0
  0
VERTEX
  5
36
  8
1
 10
-2936.025601
 20
-833.828502
 30
0.0
 70
0
  0
VERTEX
  5
37
  8
1
 10
-2951.307627
 20
-833.222038
 30
0.0
 70
0
  0
VERTEX
  5
38
  8
1
 10
-2966.330871
 20
-832.617073
 30
0.0
 70
0
  0
VERTEX
  5
39
  8
1
 10
-2981.450943
 20
-831.997926
 30
0.0
 70
0
  0
VERTEX
  5
3A
  8
1
 10
-2996.552221
 20
-831.371256
 30
0.0
 70
0
  0
VERTEX
  5
3B
  8
1
 10
-3011.671627
 20
-830.736794
 30
0.0
 70
0
  0
VERTEX
  5
3C
  8
1
 10
-3026.973356
 20
-830.086954
 30
0.0
 70
0
  0
VERTEX
  5
3D
  8
1
 10
-3042.092153
 20
-829.436756
 30
0.0
 70
0
  0
VERTEX
  5
3E
  8
1
 10
-3057.573818
 20
-828.762493
 30
0.0
 70
0
  0
VERTEX
  5
3F
  8
1
 10
-3072.69191
 20
-828.095637
 30
0.0
 70
0
  0
VERTEX
  5
40
  8
1
 10
-3087.82822
 20
-827.419229
 30
0.0
 70
0
  0
VERTEX
  5
41
  8
1
 10
-3102.945552
 20
-826.734513
 30
0.0
 70
0
  0
VERTEX
  5
42
  8
1
 10
-3118.298981
 20
-826.029314
 30
0.0
 70
0
  0
VERTEX
  5
43
  8
1
 10
-3133.415353
 20
-825.324799
 30
0.0
 70
0
  0
VERTEX
  5
44
  8
1
 10
-3148.767965
 20
-824.597993
 30
0.0
 70
0
  0
VERTEX
  5
45
  8
1
 10
-3163.883171
 20
-823.870531
 30
0.0
 70
0
  0
VERTEX
  5
46
  8
1
 10
-3179.158693
 20
-823.122913
 30
0.0
 70
0
  0
VERTEX
  5
47
  8
1
 10
-3194.272695
 20
-822.370828
 30
0.0
 70
0
  0
VERTEX
  5
48
  8
1
 10
-3209.633735
 20
-821.594561
 30
0.0
 70
0
  0
VERTEX
  5
49
  8
1
 10
-3224.746721
 20
-820.819964
 30
0.0
 70
0
  0
VERTEX
  5
4A
  8
1
 10
-3239.961782
 20
-820.030118
 30
0.0
 70
0
  0
VERTEX
  5
4B
  8
1
 10
-3255.073736
 20
-819.236381
 30
0.0
 70
0
  0
VERTEX
  5
4C
  8
1
 10
-3270.059826
 20
-818.440453
 30
0.0
 70
0
  0
VERTEX
  5
4D
  8
1
 10
-3285.170863
 20
-817.629324
 30
0.0
 70
0
  0
VERTEX
  5
4E
  8
1
 10
-3300.295342
 20
-816.809422
 30
0.0
 70
0
  0
VERTEX
  5
4F
  8
1
 10
-3315.405471
 20
-815.982702
 30
0.0
 70
0
  0
VERTEX
  5
50
  8
1
 10
-3330.43192
 20
-815.152972
 30
0.0
 70
0
  0
VERTEX
  5
51
  8
1
 10
-3345.54125
 20
-814.310621
 30
0.0
 70
0
  0
VERTEX
  5
52
  8
1
 10
-3361.024621
 20
-813.437644
 30
0.0
 70
0
  0
VERTEX
  5
53
  8
1
 10
-3376.132817
 20
-812.575959
 30
0.0
 70
0
  0
VERTEX
  5
54
  8
1
 10
-3390.343323
 20
-811.760483
 30
0.0
 70
0
  0
VERTEX
  5
55
  8
1
 10
-3391.240705
 20
-811.708963
 30
0.0
 70
0
  0
VERTEX
  5
56
  8
1
 10
-3406.648162
 20
-810.824002
 30
0.0
 70
0
  0
VERTEX
  5
57
  8
1
 10
-3422.085571
 20
-809.937439
 30
0.0
 70
0
  0
VERTEX
  5
58
  8
1
 10
-3422.017456
 20
-794.065228
 30
0.0
 70
0
  0
VERTEX
  5
59
  8
1
 10
-3421.951234
 20
-778.662395
 30
0.0
 70
0
  0
VERTEX
  5
5A
  8
1
 10
-3421.884943
 20
-763.259564
 30
0.0
 70
0
  0
VERTEX
  5
5B
  8
1
 10
-3421.82018
 20
-748.213658
 30
0.0
 70
0
  0
VERTEX
  5
5C
  8
1
 10
-3421.753892
 20
-732.810843
 30
0.0
 70
0
  0
VERTEX
  5
5D
  8
1
 10
-3421.688668
 20
-717.650587
 30
0.0
 70
0
  0
VERTEX
  5
5E
  8
1
 10
-3421.622419
 20
-702.247746
 30
0.0
 70
0
  0
VERTEX
  5
5F
  8
1
 10
-3421.557842
 20
-687.230342
 30
0.0
 70
0
  0
VERTEX
  5
60
  8
1
 10
-3421.491618
 20
-671.827507
 30
0.0
 70
0
  0
VERTEX
  5
61
  8
1
 10
-3421.426216
 20
-656.615796
 30
0.0
 70
0
  0
VERTEX
  5
62
  8
1
 10
-3421.359983
 20
-641.212973
 30
0.0
 70
0
  0
VERTEX
  5
63
  8
1
 10
-3421.294507
 20
-625.992345
 30
0.0
 70
0
  0
VERTEX
  5
64
  8
1
 10
-3421.228257
 20
-610.589521
 30
0.0
 70
0
  0
VERTEX
  5
65
  8
1
 10
-3421.164246
 20
-595.670662
 30
0.0
 70
0
  0
VERTEX
  5
66
  8
1
 10
-3405.317567
 20
-594.920922
 30
0.0
 70
0
  0
VERTEX
  5
67
  8
1
 10
-3390.062359
 20
-594.199163
 30
0.0
 70
0
  0
VERTEX
  5
68
  8
1
 10
-3389.407349
 20
-594.168167
 30
0.0
 70
0
  0
VERTEX
  5
69
  8
1
 10
-3374.408588
 20
-593.458542
 30
0.0
 70
0
  0
VERTEX
  5
6A
  8
1
 10
-3359.783944
 20
-592.766609
 30
0.0
 70
0
  0
VERTEX
  5
6B
  8
1
 10
-3344.130107
 20
-592.025981
 30
0.0
 70
0
  0
VERTEX
  5
6C
  8
1
 10
-3329.437856
 20
-591.330852
 30
0.0
 70
0
  0
VERTEX
  5
6D
  8
1
 10
-3313.784104
 20
-590.590241
 30
0.0
 70
0
  0
VERTEX
  5
6E
  8
1
 10
-3298.712728
 20
-589.877185
 30
0.0
 70
0
  0
VERTEX
  5
6F
  8
1
 10
-3283.580726
 20
-589.161256
 30
0.0
 70
0
  0
VERTEX
  5
70
  8
1
 10
-3268.512823
 20
-588.448354
 30
0.0
 70
0
  0
VERTEX
  5
71
  8
1
 10
-3253.380844
 20
-587.732416
 30
0.0
 70
0
  0
VERTEX
  5
72
  8
1
 10
-3238.756216
 20
-587.040484
 30
0.0
 70
0
  0
VERTEX
  5
73
  8
1
 10
-3223.102431
 20
-586.299868
 30
0.0
 70
0
  0
VERTEX
  5
74
  8
1
 10
-3208.05594
 20
-585.587985
 30
0.0
 70
0
  0
VERTEX
  5
75
  8
1
 10
-3192.923941
 20
-584.872049
 30
0.0
 70
0
  0
VERTEX
  5
76
  8
1
 10
-3177.896748
 20
-584.16107
 30
0.0
 70
0
  0
VERTEX
  5
77
  8
1
 10
-3162.76475
 20
-583.445135
 30
0.0
 70
0
  0
VERTEX
  5
78
  8
1
 10
-3147.632751
 20
-582.729203
 30
0.0
 70
0
  0
VERTEX
  5
79
  8
1
 10
-3132.48631
 20
-582.012588
 30
0.0
 70
0
  0
VERTEX
  5
7A
  8
1
 10
-3117.354311
 20
-581.296656
 30
0.0
 70
0
  0
VERTEX
  5
7B
  8
1
 10
-3102.040555
 20
-580.572124
 30
0.0
 70
0
  0
VERTEX
  5
7C
  8
1
 10
-3086.908556
 20
-579.856191
 30
0.0
 70
0
  0
VERTEX
  5
7D
  8
1
 10
-3071.827885
 20
-579.142684
 30
0.0
 70
0
  0
VERTEX
  5
7E
  8
1
 10
-3056.6959
 20
-578.426749
 30
0.0
 70
0
  0
VERTEX
  5
7F
  8
1
 10
-3041.54252
 20
-577.709803
 30
0.0
 70
0
  0
VERTEX
  5
80
  8
1
 10
-3026.410555
 20
-576.99387
 30
0.0
 70
0
  0
VERTEX
  5
81
  8
1
 10
-3011.264128
 20
-576.277251
 30
0.0
 70
0
  0
VERTEX
  5
82
  8
1
 10
-2996.132116
 20
-575.561317
 30
0.0
 70
0
  0
VERTEX
  5
83
  8
1
 10
-2980.903828
 20
-574.840832
 30
0.0
 70
0
  0
VERTEX
  5
84
  8
1
 10
-2965.771791
 20
-574.124902
 30
0.0
 70
0
  0
VERTEX
  5
85
  8
1
 10
-2950.346731
 20
-573.395106
 30
0.0
 70
0
  0
VERTEX
  5
86
  8
1
 10
-2935.316489
 20
-572.683986
 30
0.0
 70
0
  0
VERTEX
  5
87
  8
1
 10
-2922.943726
 20
-572.098579
 30
0.0
 70
0
  0
VERTEX
  5
88
  8
1
 10
-2923.327637
 20
-572.117767
 30
0.0
 70
0
  0
VERTEX
  5
89
  8
1
 10
-2907.643549
 20
-570.417618
 30
0.0
 70
0
  0
VERTEX
  5
8A
  8
1
 10
-2892.274176
 20
-568.676419
 30
0.0
 70
0
  0
VERTEX
  5
8B
  8
1
 10
-2877.251596
 20
-566.878125
 30
0.0
 70
0
  0
VERTEX
  5
8C
  8
1
 10
-2862.265534
 20
-564.993914
 30
0.0
 70
0
  0
VERTEX
  5
8D
  8
1
 10
-2847.263618
 20
-563.030161
 30
0.0
 70
0
  0
VERTEX
  5
8E
  8
1
 10
-2832.272137
 20
-560.988981
 30
0.0
 70
0
  0
VERTEX
  5
8F
  8
1
 10
-2817.052229
 20
-558.83126
 30
0.0
 70
0
  0
VERTEX
  5
90
  8
1
 10
-2802.085943
 20
-556.621139
 30
0.0
 70
0
  0
VERTEX
  5
91
  8
1
 10
-2787.132067
 20
-554.319983
 30
0.0
 70
0
  0
VERTEX
  5
92
  8
1
 10
-2772.193883
 20
-551.91895
 30
0.0
 70
0
  0
VERTEX
  5
93
  8
1
 10
-2757.261721
 20
-549.406421
 30
0.0
 70
0
  0
VERTEX
  5
94
  8
1
 10
-2742.361719
 20
-546.778759
 30
0.0
 70
0
  0
VERTEX
  5
95
  8
1
 10
-2727.250494
 20
-543.985466
 30
0.0
 70
0
  0
VERTEX
  5
96
  8
1
 10
-2712.523121
 20
-541.145117
 30
0.0
 70
0
  0
VERTEX
  5
97
  8
1
 10
-2697.193265
 20
-538.075252
 30
0.0
 70
0
  0
VERTEX
  5
98
  8
1
 10
-2682.870193
 20
-535.113319
 30
0.0
 70
0
  0
VERTEX
  5
99
  8
1
 10
-2667.577968
 20
-531.861281
 30
0.0
 70
0
  0
VERTEX
  5
9A
  8
1
 10
-2653.285767
 20
-528.741019
 30
0.0
 70
0
  0
VERTEX
  5
9B
  8
1
 10
-2638.029371
 20
-525.324486
 30
0.0
 70
0
  0
VERTEX
  5
9C
  8
1
 10
-2623.365171
 20
-521.95402
 30
0.0
 70
0
  0
VERTEX
  5
9D
  8
1
 10
-2608.836174
 20
-518.537041
 30
0.0
 70
0
  0
VERTEX
  5
9E
  8
1
 10
-2600.764771
 20
-516.614189
 30
0.0
 70
0
  0
VERTEX
  5
9F
  8
1
 10
-2595.878138
 20
-523.532125
 30
0.0
 70
0
  0
VERTEX
  5
A0
  8
1
 10
-2592.15397
 20
-528.397818
 30
0.0
 70
0
  0
VERTEX
  5
A1
  8
1
 10
-2589.05367
 20
-532.098183
 30
0.0
 70
0
  0
VERTEX
  5
A2
  8
1
 10
-2586.122596
 20
-535.218616
 30
0.0
 70
0
  0
VERTEX
  5
A3
  8
1
 10
-2583.135592
 20
-538.062143
 30
0.0
 70
0
  0
VERTEX
  5
A4
  8
1
 10
-2580.14954
 20
-540.569363
 30
0.0
 70
0
  0
VERTEX
  5
A5
  8
1
 10
-2577.336589
 20
-542.621
 30
0.0
 70
0
  0
VERTEX
  5
A6
  8
1
 10
-2574.596355
 20
-544.3214
 30
0.0
 70
0
  0
VERTEX
  5
A7
  8
1
 10
-2571.5979
 20
-545.87678
 30
0.0
 70
0
  0
VERTEX
  5
A8
  8
1
 10
-2568.174166
 20
-547.358576
 30
0.0
 70
0
  0
VERTEX
  5
A9
  8
1
 10
-2564.356363
 20
-548.732104
 30
0.0
 70
0
  0
VERTEX
  5
AA
  8
1
 10
-2559.89008
 20
-550.059328
 30
0.0
 70
0
  0
VERTEX
  5
AB
  8
1
 10
-2554.529752
 20
-551.367645
 30
0.0
 70
0
  0
VERTEX
  5
AC
  8
1
 10
-2548.248492
 20
-552.637358
 30
0.0
 70
0
  0
VERTEX
  5
AD
  8
1
 10
-2541.237534
 20
-553.795349
 30
0.0
 70
0
  0
VERTEX
  5
AE
  8
1
 10
-2532.728983
 20
-554.926651
 30
0.0
 70
0
  0
VERTEX
  5
AF
  8
1
 10
-2521.973114
 20
-556.063461
 30
0.0
 70
0
  0
VERTEX
  5
B0
  8
1
 10
-2506.21399
 20
-557.22303
 30
0.0
 70
0
  0
VERTEX
  5
B1
  8
1
 10
-2491.240937
 20
-558.364465
 30
0.0
 70
0
  0
VERTEX
  5
B2
  8
1
 10
-2475.980706
 20
-559.583036
 30
0.0
 70
0
  0
VERTEX
  5
B3
  8
1
 10
-2460.725492
 20
-560.863504
 30
0.0
 70
0
  0
VERTEX
  5
B4
  8
1
 10
-2445.360257
 20
-562.219508
 30
0.0
 70
0
  0
VERTEX
  5
B5
  8
1
 10
-2430.117371
 20
-563.638876
 30
0.0
 70
0
  0
VERTEX
  5
B6
  8
1
 10
-2414.751111
 20
-565.149983
 30
0.0
 70
0
  0
VERTEX
  5
B7
  8
1
 10
-2399.615026
 20
-566.70519
 30
0.0
 70
0
  0
VERTEX
  5
B8
  8
1
 10
-2384.391975
 20
-568.324265
 30
0.0
 70
0
  0
VERTEX
  5
B9
  8
1
 10
-2369.175646
 20
-570.004514
 30
0.0
 70
0
  0
VERTEX
  5
BA
  8
1
 10
-2354.234204
 20
-571.718018
 30
0.0
 70
0
  0
VERTEX
  5
BB
  8
1
 10
-2338.919378
 20
-573.509162
 30
0.0
 70
0
  0
VERTEX
  5
BC
  8
1
 10
-2329.766083
 20
-574.582634
 30
0.0
 70
0
  0
VERTEX
  5
BD
  8
1
 10
-2330.027976
 20
-590.443999
 30
0.0
 70
0
  0
VERTEX
  5
BE
  8
1
 10
-2330.246829
 20
-605.81901
 30
0.0
 70
0
  0
VERTEX
  5
BF
  8
1
 10
-2330.339976
 20
-621.232747
 30
0.0
 70
0
  0
VERTEX
  5
C0
  8
1
 10
-2330.238432
 20
-636.609258
 30
0.0
 70
0
  0
VERTEX
  5
C1
  8
1
 10
-2329.922764
 20
-652.014533
 30
0.0
 70
0
  0
VERTEX
  5
C2
  8
1
 10
-2329.391346
 20
-667.382145
 30
0.0
 70
0
  0
VERTEX
  5
C3
  8
1
 10
-2328.676386
 20
-682.525536
 30
0.0
 70
0
  0
VERTEX
  5
C4
  8
1
 10
-2327.815437
 20
-697.566052
 30
0.0
 70
0
  0
VERTEX
  5
C5
  8
1
 10
-2326.859991
 20
-712.376534
 30
0.0
 70
0
  0
VERTEX
  5
C6
  8
1
 10
-2326.663513
 20
-715.221252
 30
0.0
 70
0
  0
VERTEX
  5
C7
  8
1
 10
-2339.897752
 20
-717.146387
 30
0.0
 70
0
  0
VERTEX
  5
C8
  8
1
 10
-2345.045862
 20
-717.933724
 30
0.0
 70
0
  0
VERTEX
  5
C9
  8
1
 10
-2350.000066
 20
-718.979503
 30
0.0
 70
0
  0
VERTEX
  5
CA
  8
1
 10
-2355.05739
 20
-720.287822
 30
0.0
 70
0
  0
VERTEX
  5
CB
  8
1
 10
-2359.72957
 20
-721.742296
 30
0.0
 70
0
  0
VERTEX
  5
CC
  8
1
 10
-2364.183126
 20
-723.380425
 30
0.0
 70
0
  0
VERTEX
  5
CD
  8
1
 10
-2368.26637
 20
-725.139458
 30
0.0
 70
0
  0
VERTEX
  5
CE
  8
1
 10
-2371.940362
 20
-726.980124
 30
0.0
 70
0
  0
VERTEX
  5
CF
  8
1
 10
-2375.281383
 20
-728.920356
 30
0.0
 70
0
  0
VERTEX
  5
D0
  8
1
 10
-2378.270365
 20
-730.933156
 30
0.0
 70
0
  0
VERTEX
  5
D1
  8
1
 10
-2380.949116
 20
-733.031353
 30
0.0
 70
0
  0
VERTEX
  5
D2
  8
1
 10
-2383.248667
 20
-735.1348
 30
0.0
 70
0
  0
VERTEX
  5
D3
  8
1
 10
-2385.250788
 20
-737.285463
 30
0.0
 70
0
  0
VERTEX
  5
D4
  8
1
 10
-2387.022645
 20
-739.553496
 30
0.0
 70
0
  0
VERTEX
  5
D5
  8
1
 10
-2388.549042
 20
-741.921634
 30
0.0
 70
0
  0
VERTEX
  5
D6
  8
1
 10
-2389.911179
 20
-744.499518
 30
0.0
 70
0
  0
VERTEX
  5
D7
  8
1
 10
-2391.163467
 20
-747.407811
 30
0.0
 70
0
  0
VERTEX
  5
D8
  8
1
 10
-2392.283244
 20
-750.65117
 30
0.0
 70
0
  0
VERTEX
  5
D9
  8
1
 10
-2393.250396
 20
-754.221623
 30
0.0
 70
0
  0
VERTEX
  5
DA
  8
1
 10
-2394.069495
 20
-758.21469
 30
0.0
 70
0
  0
VERTEX
  5
DB
  8
1
 10
-2394.723141
 20
-762.688479
 30
0.0
 70
0
  0
VERTEX
  5
DC
  8
1
 10
-2395.178614
 20
-767.561682
 30
0.0
 70
0
  0
VERTEX
  5
DD
  8
1
 10
-2395.429269
 20
-773.029747
 30
0.0
 70
0
  0
VERTEX
  5
DE
  8
1
 10
-2395.449582
 20
-779.061825
 30
0.0
 70
0
  0
VERTEX
  5
DF
  8
1
 10
-2395.211077
 20
-786.005498
 30
0.0
 70
0
  0
VERTEX
  5
E0
  8
1
 10
-2394.69148
 20
-793.727226
 30
0.0
 70
0
  0
VERTEX
  5
E1
  8
1
 10
-2393.876278
 20
-802.06259
 30
0.0
 70
0
  0
VERTEX
  5
E2
  8
1
 10
-2392.687485
 20
-811.547209
 30
0.0
 70
0
  0
VERTEX
  5
E3
  8
1
 10
-2390.88172
 20
-823.705692
 30
0.0
 70
0
  0
VERTEX
  5
E4
  8
1
 10
-2388.483747
 20
-838.496219
 30
0.0
 70
0
  0
VERTEX
  5
E5
  8
1
 10
-2388.198242
 20
-840.215912
 30
0.0
 70
0
  0
VERTEX
  5
E6
  8
1
 10
-2389.67185
 20
-840.406974
 30
0.0
 70
0
  0
VERTEX
  5
E7
  8
1
 10
-2404.404537
 20
-842.225064
 30
0.0
 70
0
  0
VERTEX
  5
E8
  8
1
 10
-2419.542732
 20
-843.954205
 30
0.0
 70
0
  0
VERTEX
  5
E9
  8
1
 10
-2434.510905
 20
-845.503774
 30
0.0
 70
0
  0
VERTEX
  5
EA
  8
1
 10
-2449.72936
 20
-846.864315
 30
0.0
 70
0
  0
VERTEX
  5
EB
  8
1
 10
-2465.002752
 20
-847.985986
 30
0.0
 70
0
  0
VERTEX
  5
EC
  8
1
 10
-2480.107457
 20
-848.847096
 30
0.0
 70
0
  0
VERTEX
  5
ED
  8
1
 10
-2495.408403
 20
-849.485915
 30
0.0
 70
0
  0
VERTEX
  5
EE
  8
1
 10
-2510.700471
 20
-849.917976
 30
0.0
 70
0
  0
VERTEX
  5
EF
  8
1
 10
-2526.540254
 20
-850.192632
 30
0.0
 70
0
  0
VERTEX
  5
F0
  8
1
 10
-2541.53723
 20
-850.329687
 30
0.0
 70
0
  0
VERTEX
  5
F1
  8
1
 10
-2556.882359
 20
-850.36002
 30
0.0
 70
0
  0
VERTEX
  5
F2
  8
1
 10
-2572.19622
 20
-850.281331
 30
0.0
 70
0
  0
VERTEX
  5
F3
  8
1
 10
-2587.508736
 20
-850.074741
 30
0.0
 70
0
  0
VERTEX
  5
F4
  8
1
 10
-2602.627504
 20
-849.729091
 30
0.0
 70
0
  0
VERTEX
  5
F5
  8
1
 10
-2617.934035
 20
-849.250511
 30
0.0
 70
0
  0
VERTEX
  5
F6
  8
1
 10
-2632.933517
 20
-848.680084
 30
0.0
 70
0
  0
VERTEX
  5
F7
  8
1
 10
-2648.26713
 20
-848.027055
 30
0.0
 70
0
  0
VERTEX
  5
F8
  8
1
 10
-2663.565326
 20
-847.336011
 30
0.0
 70
0
  0
VERTEX
  5
F9
  8
1
 10
-2678.862079
 20
-846.614297
 30
0.0
 70
0
  0
VERTEX
  5
FA
  8
1
 10
-2693.854749
 20
-845.88123
 30
0.0
 70
0
  0
VERTEX
  5
FB
  8
1
 10
-2709.149455
 20
-845.11589
 30
0.0
 70
0
  0
VERTEX
  5
FC
  8
1
 10
-2724.26966
 20
-844.350877
 30
0.0
 70
0
  0
VERTEX
  5
FD
  8
1
 10
-2739.56382
 20
-843.574518
 30
0.0
 70
0
  0
VERTEX
  5
FE
  8
1
 10
-2754.58219
 20
-842.813683
 30
0.0
 70
0
  0
VERTEX
  5
FF
  8
1
 10
-2769.876503
 20
-842.04037
 30
0.0
 70
0
  0
VERTEX
  5
100
  8
1
 10
-2785.054431
 20
-841.273566
 30
0.0
 70
0
  0
VERTEX
  5
101
  8
1
 10
-2800.348855
 20
-840.50155
 30
0.0
 70
0
  0
VERTEX
  5
102
  8
1
 10
-2815.638804
 20
-839.730646
 30
0.0
 70
0
  0
VERTEX
  5
103
  8
1
 10
-2830.933243
 20
-838.96034
 30
0.0
 70
0
  0
VERTEX
  5
104
  8
1
 10
-2846.177775
 20
-838.193254
 30
0.0
 70
0
  0
VERTEX
  5
105
  8
1
 10
-2861.515796
 20
-837.422137
 30
0.0
 70
0
  0
VERTEX
  5
106
  8
1
 10
-2876.810308
 20
-836.653886
 30
0.0
 70
0
  0
VERTEX
  5
107
  8
1
 10
-2892.104863
 20
-835.886435
 30
0.0
 70
0
  0
VERTEX
  5
108
  8
1
 10
-2907.131208
 20
-835.133272
 30
0.0
 70
0
  0
SEQEND
  5
33
  8
1
  0
POLYLINE
  5
109
  8
14
 66
1
 10
0.0
 20
0.0
 30
0.0
 70
1
  0
VERTEX
  5
10B
  8
14
 10
-2922.345886
 20
-821.655426
 30
0.0
 70
0
  0
VERTEX
  5
10C
  8
14
 10
-2922.345886
 20
-821.655426
 30
0.0
 70
0
  0
VERTEX
  5
10D
  8
14
 10
-2927.353842
 20
-821.461462
 30
0.0
 70
0
  0
VERTEX
  5
10E
  8
14
 10
-2941.462395
 20
-820.906
 30
0.0
 70
0
  0
VERTEX
  5
10F
  8
14
 10
-2957.285783
 20
-820.272357
 30
0.0
 70
0
  0
VERTEX
  5
110
  8
14
 10
-2973.491157
 20
-819.613623
 30
0.0
 70
0
  0
VERTEX
  5
111
  8
14
 10
-2988.218265
 20
-819.006987
 30
0.0
 70
0
  0
VERTEX
  5
112
  8
14
 10
-3004.34789
 20
-818.334098
 30
0.0
 70
0
  0
VERTEX
  5
113
  8
14
 10
-3021.728266
 20
-817.59915
 30
0.0
 70
0
  0
VERTEX
  5
114
  8
14
 10
-3040.207623
 20
-816.806339
 30
0.0
 70
0
  0
VERTEX
  5
115
  8
14
 10
-3059.634195
 20
-815.959859
 30
0.0
 70
0
  0
VERTEX
  5
116
  8
14
 10
-3074.734454
 20
-815.292303
 30
0.0
 70
0
  0
VERTEX
  5
117
  8
14
 10
-3090.218088
 20
-814.598689
 30
0.0
 70
0
  0
VERTEX
  5
118
  8
14
 10
-3106.021143
 20
-813.880785
 30
0.0
 70
0
  0
VERTEX
  5
119
  8
14
 10
-3122.079518
 20
-813.140363
 30
0.0
 70
0
  0
VERTEX
  5
11A
  8
14
 10
-3138.329262
 20
-812.379191
 30
0.0
 70
0
  0
VERTEX
  5
11B
  8
14
 10
-3154.70627
 20
-811.599041
 30
0.0
 70
0
  0
VERTEX
  5
11C
  8
14
 10
-3171.146593
 20
-810.801679
 30
0.0
 70
0
  0
VERTEX
  5
11D
  8
14
 10
-3187.359328
 20
-810.000667
 30
0.0
 70
0
  0
VERTEX
  5
11E
  8
14
 10
-3203.714482
 20
-809.178736
 30
0.0
 70
0
  0
VERTEX
  5
11F
  8
14
 10
-3219.905428
 20
-808.352444
 30
0.0
 70
0
  0
VERTEX
  5
120
  8
14
 10
-3235.849874
 20
-807.527367
 30
0.0
 70
0
  0
VERTEX
  5
121
  8
14
 10
-3251.465532
 20
-806.709085
 30
0.0
 70
0
  0
VERTEX
  5
122
  8
14
 10
-3266.67011
 20
-805.903174
 30
0.0
 70
0
  0
VERTEX
  5
123
  8
14
 10
-3286.161195
 20
-804.85751
 30
0.0
 70
0
  0
VERTEX
  5
124
  8
14
 10
-3304.58012
 20
-803.856974
 30
0.0
 70
0
  0
VERTEX
  5
125
  8
14
 10
-3321.731828
 20
-802.914789
 30
0.0
 70
0
  0
VERTEX
  5
126
  8
14
 10
-3337.42126
 20
-802.044173
 30
0.0
 70
0
  0
VERTEX
  5
127
  8
14
 10
-3354.679566
 20
-801.07669
 30
0.0
 70
0
  0
VERTEX
  5
128
  8
14
 10
-3371.434872
 20
-800.126948
 30
0.0
 70
0
  0
VERTEX
  5
129
  8
14
 10
-3390.288391
 20
-799.04274
 30
0.0
 70
0
  0
VERTEX
  5
12A
  8
14
 10
-3390.288391
 20
-799.04274
 30
0.0
 70
0
  0
VERTEX
  5
12B
  8
14
 10
-3390.212125
 20
-781.309432
 30
0.0
 70
0
  0
VERTEX
  5
12C
  8
14
 10
-3390.12905
 20
-761.992794
 30
0.0
 70
0
  0
VERTEX
  5
12D
  8
14
 10
-3390.062569
 20
-746.534793
 30
0.0
 70
0
  0
VERTEX
  5
12E
  8
14
 10
-3389.990036
 20
-729.669377
 30
0.0
 70
0
  0
VERTEX
  5
12F
  8
14
 10
-3389.913871
 20
-711.959526
 30
0.0
 70
0
  0
VERTEX
  5
130
  8
14
 10
-3389.836495
 20
-693.968194
 30
0.0
 70
0
  0
VERTEX
  5
131
  8
14
 10
-3389.76033
 20
-676.258333
 30
0.0
 70
0
  0
VERTEX
  5
132
  8
14
 10
-3389.687797
 20
-659.392933
 30
0.0
 70
0
  0
VERTEX
  5
133
  8
14
 10
-3389.621316
 20
-643.934921
 30
0.0
 70
0
  0
VERTEX
  5
134
  8
14
 10
-3389.550416
 20
-627.449218
 30
0.0
 70
0
  0
VERTEX
  5
135
  8
14
 10
-3389.489471
 20
-613.278398
 30
0.0
 70
0
  0
VERTEX
  5
136
  8
14
 10
-3389.461975
 20
-606.884956
 30
0.0
 70
0
  0
VERTEX
  5
137
  8
14
 10
-3389.461975
 20
-606.884956
 30
0.0
 70
0
  0
VERTEX
  5
138
  8
14
 10
-3369.390464
 20
-605.935322
 30
0.0
 70
0
  0
VERTEX
  5
139
  8
14
 10
-3352.807947
 20
-605.150761
 30
0.0
 70
0
  0
VERTEX
  5
13A
  8
14
 10
-3332.184043
 20
-604.174992
 30
0.0
 70
0
  0
VERTEX
  5
13B
  8
14
 10
-3308.096101
 20
-603.03533
 30
0.0
 70
0
  0
VERTEX
  5
13C
  8
14
 10
-3290.398105
 20
-602.197993
 30
0.0
 70
0
  0
VERTEX
  5
13D
  8
14
 10
-3271.588194
 20
-601.308049
 30
0.0
 70
0
  0
VERTEX
  5
13E
  8
14
 10
-3251.837431
 20
-600.37359
 30
0.0
 70
0
  0
VERTEX
  5
13F
  8
14
 10
-3231.316881
 20
-599.402711
 30
0.0
 70
0
  0
VERTEX
  5
140
  8
14
 10
-3210.197607
 20
-598.403504
 30
0.0
 70
0
  0
VERTEX
  5
141
  8
14
 10
-3188.650674
 20
-597.384064
 30
0.0
 70
0
  0
VERTEX
  5
142
  8
14
 10
-3166.847145
 20
-596.352484
 30
0.0
 70
0
  0
VERTEX
  5
143
  8
14
 10
-3144.958066
 20
-595.316856
 30
0.0
 70
0
  0
VERTEX
  5
144
  8
14
 10
-3123.154558
 20
-594.285277
 30
0.0
 70
0
  0
VERTEX
  5
145
  8
14
 10
-3101.607609
 20
-593.265836
 30
0.0
 70
0
  0
VERTEX
  5
146
  8
14
 10
-3080.488358
 20
-592.26663
 30
0.0
 70
0
  0
VERTEX
  5
147
  8
14
 10
-3059.967796
 20
-591.295751
 30
0.0
 70
0
  0
VERTEX
  5
148
  8
14
 10
-3040.217058
 20
-590.361293
 30
0.0
 70
0
  0
VERTEX
  5
149
  8
14
 10
-3021.40714
 20
-589.471348
 30
0.0
 70
0
  0
VERTEX
  5
14A
  8
14
 10
-3003.709171
 20
-588.634012
 30
0.0
 70
0
  0
VERTEX
  5
14B
  8
14
 10
-2987.294153
 20
-587.857376
 30
0.0
 70
0
  0
VERTEX
  5
14C
  8
14
 10
-2972.333208
 20
-587.149536
 30
0.0
 70
0
  0
VERTEX
  5
14D
  8
14
 10
-2952.992313
 20
-586.234469
 30
0.0
 70
0
  0
VERTEX
  5
14E
  8
14
 10
-2937.885238
 20
-585.519715
 30
0.0
 70
0
  0
VERTEX
  5
14F
  8
14
 10
-2923.683423
 20
-584.847791
 30
0.0
 70
0
  0
VERTEX
  5
150
  8
14
 10
-2922.343445
 20
-584.784393
 30
0.0
 70
0
  0
VERTEX
  5
151
  8
14
 10
-2922.343445
 20
-584.784393
 30
0.0
 70
0
  0
VERTEX
  5
152
  8
14
 10
-2905.48028
 20
-582.974714
 30
0.0
 70
0
  0
VERTEX
  5
153
  8
14
 10
-2889.660183
 20
-581.157783
 30
0.0
 70
0
  0
VERTEX
  5
154
  8
14
 10
-2872.417463
 20
-579.072179
 30
0.0
 70
0
  0
VERTEX
  5
155
  8
14
 10
-2855.49698
 20
-576.92404
 30
0.0
 70
0
  0
VERTEX
  5
156
  8
14
 10
-2840.119459
 20
-574.884464
 30
0.0
 70
0
  0
VERTEX
  5
157
  8
14
 10
-2823.768841
 20
-572.621922
 30
0.0
 70
0
  0
VERTEX
  5
158
  8
14
 10
-2806.621349
 20
-570.140001
 30
0.0
 70
0
  0
VERTEX
  5
159
  8
14
 10
-2788.853157
 20
-567.442277
 30
0.0
 70
0
  0
VERTEX
  5
15A
  8
14
 10
-2770.640455
 20
-564.53233
 30
0.0
 70
0
  0
VERTEX
  5
15B
  8
14
 10
-2752.159414
 20
-561.413737
 30
0.0
 70
0
  0
VERTEX
  5
15C
  8
14
 10
-2738.691025
 20
-559.023974
 30
0.0
 70
0
  0
VERTEX
  5
15D
  8
14
 10
-2720.183168
 20
-555.568975
 30
0.0
 70
0
  0
VERTEX
  5
15E
  8
14
 10
-2702.018546
 20
-552.005726
 30
0.0
 70
0
  0
VERTEX
  5
15F
  8
14
 10
-2684.504752
 20
-548.428441
 30
0.0
 70
0
  0
VERTEX
  5
160
  8
14
 10
-2667.949414
 20
-544.931344
 30
0.0
 70
0
  0
VERTEX
  5
161
  8
14
 10
-2652.660174
 20
-541.608658
 30
0.0
 70
0
  0
VERTEX
  5
162
  8
14
 10
-2636.417388
 20
-537.984305
 30
0.0
 70
0
  0
VERTEX
  5
163
  8
14
 10
-2621.040693
 20
-534.461989
 30
0.0
 70
0
  0
VERTEX
  5
164
  8
14
 10
-2607.352947
 20
-531.24039
 30
0.0
 70
0
  0
VERTEX
  5
165
  8
14
 10
-2604.711609
 20
-530.604782
 30
0.0
 70
0
  0
VERTEX
  5
166
  8
14
 10
-2601.757741
 20
-534.678993
 30
0.0
 70
0
  0
VERTEX
  5
167
  8
14
 10
-2598.447532
 20
-538.720288
 30
0.0
 70
0
  0
VERTEX
  5
168
  8
14
 10
-2594.88108
 20
-542.612504
 30
0.0
 70
0
  0
VERTEX
  5
169
  8
14
 10
-2591.553274
 20
-545.85692
 30
0.0
 70
0
  0
VERTEX
  5
16A
  8
14
 10
-2587.845306
 20
-549.053649
 30
0.0
 70
0
  0
VERTEX
  5
16B
  8
14
 10
-2584.31928
 20
-551.69279
 30
0.0
 70
0
  0
VERTEX
  5
16C
  8
14
 10
-2581.241931
 20
-553.677597
 30
0.0
 70
0
  0
VERTEX
  5
16D
  8
14
 10
-2577.881395
 20
-555.525134
 30
0.0
 70
0
  0
VERTEX
  5
16E
  8
14
 10
-2574.38511
 20
-557.159123
 30
0.0
 70
0
  0
VERTEX
  5
16F
  8
14
 10
-2570.162611
 20
-558.822231
 30
0.0
 70
0
  0
VERTEX
  5
170
  8
14
 10
-2565.817417
 20
-560.253657
 30
0.0
 70
0
  0
VERTEX
  5
171
  8
14
 10
-2560.744113
 20
-561.646623
 30
0.0
 70
0
  0
VERTEX
  5
172
  8
14
 10
-2554.95939
 20
-562.960615
 30
0.0
 70
0
  0
VERTEX
  5
173
  8
14
 10
-2547.683176
 20
-564.327074
 30
0.0
 70
0
  0
VERTEX
  5
174
  8
14
 10
-2539.708538
 20
-565.562906
 30
0.0
 70
0
  0
VERTEX
  5
175
  8
14
 10
-2530.797187
 20
-566.683807
 30
0.0
 70
0
  0
VERTEX
  5
176
  8
14
 10
-2522.888336
 20
-567.457123
 30
0.0
 70
0
  0
VERTEX
  5
177
  8
14
 10
-2505.675321
 20
-568.715729
 30
0.0
 70
0
  0
VERTEX
  5
178
  8
14
 10
-2488.789885
 20
-570.021013
 30
0.0
 70
0
  0
VERTEX
  5
179
  8
14
 10
-2472.243272
 20
-571.363216
 30
0.0
 70
0
  0
VERTEX
  5
17A
  8
14
 10
-2456.180618
 20
-572.731605
 30
0.0
 70
0
  0
VERTEX
  5
17B
  8
14
 10
-2439.438941
 20
-574.238206
 30
0.0
 70
0
  0
VERTEX
  5
17C
  8
14
 10
-2423.340478
 20
-575.778764
 30
0.0
 70
0
  0
VERTEX
  5
17D
  8
14
 10
-2406.854938
 20
-577.443122
 30
0.0
 70
0
  0
VERTEX
  5
17E
  8
14
 10
-2391.234873
 20
-579.088608
 30
0.0
 70
0
  0
VERTEX
  5
17F
  8
14
 10
-2375.305395
 20
-580.827503
 30
0.0
 70
0
  0
VERTEX
  5
180
  8
14
 10
-2360.462652
 20
-582.499856
 30
0.0
 70
0
  0
VERTEX
  5
181
  8
14
 10
-2345.865291
 20
-584.196661
 30
0.0
 70
0
  0
VERTEX
  5
182
  8
14
 10
-2342.632904
 20
-584.581985
 30
0.0
 70
0
  0
VERTEX
  5
183
  8
14
 10
-2342.923725
 20
-601.017702
 30
0.0
 70
0
  0
VERTEX
  5
184
  8
14
 10
-2343.032694
 20
-617.111933
 30
0.0
 70
0
  0
VERTEX
  5
185
  8
14
 10
-2342.966994
 20
-633.35267
 30
0.0
 70
0
  0
VERTEX
  5
186
  8
14
 10
-2342.699767
 20
-649.247489
 30
0.0
 70
0
  0
VERTEX
  5
187
  8
14
 10
-2342.215532
 20
-664.494114
 30
0.0
 70
0
  0
VERTEX
  5
188
  8
14
 10
-2341.54539
 20
-679.579432
 30
0.0
 70
0
  0
VERTEX
  5
189
  8
14
 10
-2340.715437
 20
-694.740944
 30
0.0
 70
0
  0
VERTEX
  5
18A
  8
14
 10
-2339.746704
 20
-709.437561
 30
0.0
 70
0
  0
VERTEX
  5
18B
  8
14
 10
-2345.234531
 20
-710.230495
 30
0.0
 70
0
  0
VERTEX
  5
18C
  8
14
 10
-2351.218919
 20
-711.438598
 30
0.0
 70
0
  0
VERTEX
  5
18D
  8
14
 10
-2357.029619
 20
-712.926563
 30
0.0
 70
0
  0
VERTEX
  5
18E
  8
14
 10
-2362.604733
 20
-714.672052
 30
0.0
 70
0
  0
VERTEX
  5
18F
  8
14
 10
-2367.588637
 20
-716.537139
 30
0.0
 70
0
  0
VERTEX
  5
190
  8
14
 10
-2372.628935
 20
-718.775775
 30
0.0
 70
0
  0
VERTEX
  5
191
  8
14
 10
-2376.781312
 20
-720.94919
 30
0.0
 70
0
  0
VERTEX
  5
192
  8
14
 10
-2380.81236
 20
-723.421785
 30
0.0
 70
0
  0
VERTEX
  5
193
  8
14
 10
-2383.90082
 20
-725.627419
 30
0.0
 70
0
  0
VERTEX
  5
194
  8
14
 10
-2386.827589
 20
-728.045351
 30
0.0
 70
0
  0
VERTEX
  5
195
  8
14
 10
-2389.555324
 20
-730.684846
 30
0.0
 70
0
  0
VERTEX
  5
196
  8
14
 10
-2392.046662
 20
-733.555143
 30
0.0
 70
0
  0
VERTEX
  5
197
  8
14
 10
-2394.17243
 20
-736.522357
 30
0.0
 70
0
  0
VERTEX
  5
198
  8
14
 10
-2396.111145
 20
-739.860493
 30
0.0
 70
0
  0
VERTEX
  5
199
  8
14
 10
-2397.771289
 20
-743.41687
 30
0.0
 70
0
  0
VERTEX
  5
19A
  8
14
 10
-2399.170084
 20
-747.1688
 30
0.0
 70
0
  0
VERTEX
  5
19B
  8
14
 10
-2400.324751
 20
-751.093595
 30
0.0
 70
0
  0
VERTEX
  5
19C
  8
14
 10
-2401.252513
 20
-755.168567
 30
0.0
 70
0
  0
VERTEX
  5
19D
  8
14
 10
-2402.119367
 20
-760.438902
 30
0.0
 70
0
  0
VERTEX
  5
19E
  8
14
 10
-2402.692228
 20
-765.864125
 30
0.0
 70
0
  0
VERTEX
  5
19F
  8
14
 10
-2403.004732
 20
-771.399924
 30
0.0
 70
0
  0
VERTEX
  5
1A0
  8
14
 10
-2403.083427
 20
-778.126447
 30
0.0
 70
0
  0
VERTEX
  5
1A1
  8
14
 10
-2402.89377
 20
-784.871817
 30
0.0
 70
0
  0
VERTEX
  5
1A2
  8
14
 10
-2402.410879
 20
-792.663087
 30
0.0
 70
0
  0
VERTEX
  5
1A3
  8
14
 10
-2401.591445
 20
-801.61343
 30
0.0
 70
0
  0
VERTEX
  5
1A4
  8
14
 10
-2400.424478
 20
-811.495792
 30
0.0
 70
0
  0
VERTEX
  5
1A5
  8
14
 10
-2398.95203
 20
-821.782588
 30
0.0
 70
0
  0
VERTEX
  5
1A6
  8
14
 10
-2397.816772
 20
-828.608017
 30
0.0
 70
0
  0
VERTEX
  5
1A7
  8
14
 10
-2408.897149
 20
-829.967131
 30
0.0
 70
0
  0
VERTEX
  5
1A8
  8
14
 10
-2423.679007
 20
-831.623753
 30
0.0
 70
0
  0
VERTEX
  5
1A9
  8
14
 10
-2438.889484
 20
-833.152605
 30
0.0
 70
0
  0
VERTEX
  5
1AA
  8
14
 10
-2453.81286
 20
-834.452487
 30
0.0
 70
0
  0
VERTEX
  5
1AB
  8
14
 10
-2469.634719
 20
-835.559995
 30
0.0
 70
0
  0
VERTEX
  5
1AC
  8
14
 10
-2484.925219
 20
-836.361145
 30
0.0
 70
0
  0
VERTEX
  5
1AD
  8
14
 10
-2500.22985
 20
-836.934615
 30
0.0
 70
0
  0
VERTEX
  5
1AE
  8
14
 10
-2515.543914
 20
-837.316116
 30
0.0
 70
0
  0
VERTEX
  5
1AF
  8
14
 10
-2530.862676
 20
-837.541352
 30
0.0
 70
0
  0
VERTEX
  5
1B0
  8
14
 10
-2545.954029
 20
-837.645103
 30
0.0
 70
0
  0
VERTEX
  5
1B1
  8
14
 10
-2561.269583
 20
-837.649831
 30
0.0
 70
0
  0
VERTEX
  5
1B2
  8
14
 10
-2576.581894
 20
-837.538289
 30
0.0
 70
0
  0
VERTEX
  5
1B3
  8
14
 10
-2593.592271
 20
-837.254327
 30
0.0
 70
0
  0
VERTEX
  5
1B4
  8
14
 10
-2608.51474
 20
-836.854718
 30
0.0
 70
0
  0
VERTEX
  5
1B5
  8
14
 10
-2623.81902
 20
-836.324791
 30
0.0
 70
0
  0
VERTEX
  5
1B6
  8
14
 10
-2640.82083
 20
-835.637325
 30
0.0
 70
0
  0
VERTEX
  5
1B7
  8
14
 10
-2654.739777
 20
-835.02723
 30
0.0
 70
0
  0
VERTEX
  5
1B8
  8
14
 10
-2670.036791
 20
-834.320932
 30
0.0
 70
0
  0
VERTEX
  5
1B9
  8
14
 10
-2685.332118
 20
-833.585118
 30
0.0
 70
0
  0
VERTEX
  5
1BA
  8
14
 10
-2700.626234
 20
-832.827911
 30
0.0
 70
0
  0
VERTEX
  5
1BB
  8
14
 10
-2715.919615
 20
-832.057433
 30
0.0
 70
0
  0
VERTEX
  5
1BC
  8
14
 10
-2732.430439
 20
-831.220035
 30
0.0
 70
0
  0
VERTEX
  5
1BD
  8
14
 10
-2747.693124
 20
-830.446529
 30
0.0
 70
0
  0
VERTEX
  5
1BE
  8
14
 10
-2762.846521
 20
-829.679585
 30
0.0
 70
0
  0
VERTEX
  5
1BF
  8
14
 10
-2779.453248
 20
-828.840157
 30
0.0
 70
0
  0
VERTEX
  5
1C0
  8
14
 10
-2795.706038
 20
-828.019622
 30
0.0
 70
0
  0
VERTEX
  5
1C1
  8
14
 10
-2811.489621
 20
-827.223658
 30
0.0
 70
0
  0
VERTEX
  5
1C2
  8
14
 10
-2826.688742
 20
-826.457944
 30
0.0
 70
0
  0
VERTEX
  5
1C3
  8
14
 10
-2842.595111
 20
-825.657377
 30
0.0
 70
0
  0
VERTEX
  5
1C4
  8
14
 10
-2858.801571
 20
-824.842498
 30
0.0
 70
0
  0
VERTEX
  5
1C5
  8
14
 10
-2874.784421
 20
-824.039632
 30
0.0
 70
0
  0
VERTEX
  5
1C6
  8
14
 10
-2890.869112
 20
-823.232431
 30
0.0
 70
0
  0
VERTEX
  5
1C7
  8
14
 10
-2906.312256
 20
-822.458213
 30
0.0
 70
0
  0
SEQEND
  5
10A
  8
14
  0
POLYLINE
  5
1C8
  8
8
 66
1
 10
0.0
 20
0.0
 30
0.0
 70
0
  0
VERTEX
  5
1CA
  8
8
 10
-3369.555664
 20
-706.611252
 30
0.0
 70
0
  0
VERTEX
  5
1CB
  8
8
 10
-3351.573189
 20
-706.66167
 30
0.0
 70
0
  0
VERTEX
  5
1CC
  8
8
 10
-3334.42039
 20
-706.707716
 30
0.0
 70
0
  0
VERTEX
  5
1CD
  8
8
 10
-3317.106214
 20
-706.752688
 30
0.0
 70
0
  0
VERTEX
  5
1CE
  8
8
 10
-3296.874021
 20
-706.803531
 30
0.0
 70
0
  0
VERTEX
  5
1CF
  8
8
 10
-3279.937519
 20
-706.844761
 30
0.0
 70
0
  0
VERTEX
  5
1D0
  8
8
 10
-3261.609333
 20
-706.888059
 30
0.0
 70
0
  0
VERTEX
  5
1D1
  8
8
 10
-3241.996478
 20
-706.932896
 30
0.0
 70
0
  0
VERTEX
  5
1D2
  8
8
 10
-3221.205953
 20
-706.97874
 30
0.0
 70
0
  0
VERTEX
  5
1D3
  8
8
 10
-3199.344805
 20
-707.025065
 30
0.0
 70
0
  0
VERTEX
  5
1D4
  8
8
 10
-3176.520034
 20
-707.071339
 30
0.0
 70
0
  0
VERTEX
  5
1D5
  8
8
 10
-3160.821022
 20
-707.1019
 30
0.0
 70
0
  0
VERTEX
  5
1D6
  8
8
 10
-3144.773003
 20
-707.132046
 30
0.0
 70
0
  0
VERTEX
  5
1D7
  8
8
 10
-3128.407687
 20
-707.161621
 30
0.0
 70
0
  0
VERTEX
  5
1D8
  8
8
 10
-3111.756781
 20
-707.190468
 30
0.0
 70
0
  0
VERTEX
  5
1D9
  8
8
 10
-3094.851995
 20
-707.21843
 30
0.0
 70
0
  0
VERTEX
  5
1DA
  8
8
 10
-3077.725035
 20
-707.24535
 30
0.0
 70
0
  0
VERTEX
  5
1DB
  8
8
 10
-3060.407611
 20
-707.271072
 30
0.0
 70
0
  0
VERTEX
  5
1DC
  8
8
 10
-3042.931431
 20
-707.295439
 30
0.0
 70
0
  0
VERTEX
  5
1DD
  8
8
 10
-3025.328204
 20
-707.318294
 30
0.0
 70
0
  0
VERTEX
  5
1DE
  8
8
 10
-3007.629636
 20
-707.339479
 30
0.0
 70
0
  0
VERTEX
  5
1DF
  8
8
 10
-2989.867437
 20
-707.358839
 30
0.0
 70
0
  0
VERTEX
  5
1E0
  8
8
 10
-2972.073316
 20
-707.376215
 30
0.0
 70
0
  0
VERTEX
  5
1E1
  8
8
 10
-2954.160895
 20
-707.391591
 30
0.0
 70
0
  0
VERTEX
  5
1E2
  8
8
 10
-2936.406044
 20
-707.404822
 30
0.0
 70
0
  0
VERTEX
  5
1E3
  8
8
 10
-2918.72776
 20
-707.416122
 30
0.0
 70
0
  0
VERTEX
  5
1E4
  8
8
 10
-2901.16433
 20
-707.425598
 30
0.0
 70
0
  0
VERTEX
  5
1E5
  8
8
 10
-2883.754038
 20
-707.433355
 30
0.0
 70
0
  0
VERTEX
  5
1E6
  8
8
 10
-2866.53517
 20
-707.439497
 30
0.0
 70
0
  0
VERTEX
  5
1E7
  8
8
 10
-2849.546011
 20
-707.444131
 30
0.0
 70
0
  0
VERTEX
  5
1E8
  8
8
 10
-2832.824846
 20
-707.447361
 30
0.0
 70
0
  0
VERTEX
  5
1E9
  8
8
 10
-2816.40996
 20
-707.449293
 30
0.0
 70
0
  0
VERTEX
  5
1EA
  8
8
 10
-2800.339638
 20
-707.450032
 30
0.0
 70
0
  0
VERTEX
  5
1EB
  8
8
 10
-2784.652166
 20
-707.449683
 30
0.0
 70
0
  0
VERTEX
  5
1EC
  8
8
 10
-2769.385828
 20
-707.448352
 30
0.0
 70
0
  0
VERTEX
  5
1ED
  8
8
 10
-2754.57891
 20
-707.446144
 30
0.0
 70
0
  0
VERTEX
  5
1EE
  8
8
 10
-2733.313635
 20
-707.441418
 30
0.0
 70
0
  0
VERTEX
  5
1EF
  8
8
 10
-2713.297471
 20
-707.43531
 30
0.0
 70
0
  0
VERTEX
  5
1F0
  8
8
 10
-2694.659568
 20
-707.428177
 30
0.0
 70
0
  0
VERTEX
  5
1F1
  8
8
 10
-2677.529139
 20
-707.420374
 30
0.0
 70
0
  0
VERTEX
  5
1F2
  8
8
 10
-2662.035396
 20
-707.412256
 30
0.0
 70
0
  0
VERTEX
  5
1F3
  8
8
 10
-2644.146358
 20
-707.401557
 30
0.0
 70
0
  0
VERTEX
  5
1F4
  8
8
 10
-2629.702977
 20
-707.391772
 30
0.0
 70
0
  0
VERTEX
  5
1F5
  8
8
 10
-2615.168501
 20
-707.380652
 30
0.0
 70
0
  0
VERTEX
  5
1F6
  8
8
 10
-2610.109558
 20
-707.376328
 30
0.0
 70
0
  0
SEQEND
  5
1C9
  8
8
  0
POLYLINE
  5
1F7
  8
8
 66
1
 10
0.0
 20
0.0
 30
0.0
 70
0
  0
VERTEX
  5
1F9
  8
8
 10
-2523.27774
 20
-588.179626
 30
0.0
 70
0
  0
VERTEX
  5
1FA
  8
8
 10
-2542.96051
 20
-837.613754
 30
0.0
 70
0
  0
SEQEND
  5
1F8
  8
8
  0
POLYLINE
  5
1FB
  8
8
 66
1
 10
0.0
 20
0.0
 30
0.0
 70
0
  0
VERTEX
  5
1FD
  8
8
 10
-2922.343445
 20
-584.784393
 30
0.0
 70
0
  0
VERTEX
  5
1FE
  8
8
 10
-2922.343445
 20
-601.681003
 30
0.0
 70
0
  0
VERTEX
  5
1FF
  8
8
 10
-2922.343445
 20
-617.471229
 30
0.0
 70
0
  0
VERTEX
  5
200
  8
8
 10
-2922.343445
 20
-634.667147
 30
0.0
 70
0
  0
VERTEX
  5
201
  8
8
 10
-2922.343445
 20
-651.594638
 30
0.0
 70
0
  0
VERTEX
  5
202
  8
8
 10
-2922.343445
 20
-667.138079
 30
0.0
 70
0
  0
VERTEX
  5
203
  8
8
 10
-2922.343445
 20
-683.33279
 30
0.0
 70
0
  0
VERTEX
  5
204
  8
8
 10
-2922.343445
 20
-699.891423
 30
0.0
 70
0
  0
VERTEX
  5
205
  8
8
 10
-2922.343445
 20
-715.415604
 30
0.0
 70
0
  0
VERTEX
  5
206
  8
8
 10
-2922.343445
 20
-731.855143
 30
0.0
 70
0
  0
VERTEX
  5
207
  8
8
 10
-2922.343445
 20
-747.797508
 30
0.0
 70
0
  0
VERTEX
  5
208
  8
8
 10
-2922.343445
 20
-762.94435
 30
0.0
 70
0
  0
VERTEX
  5
209
  8
8
 10
-2922.343445
 20
-779.212261
 30
0.0
 70
0
  0
VERTEX
  5
20A
  8
8
 10
-2922.343445
 20
-795.37344
 30
0.0
 70
0
  0
VERTEX
  5
20B
  8
8
 10
-2922.343445
 20
-810.893045
 30
0.0
 70
0
  0
VERTEX
  5
20C
  8
8
 10
-2922.343445
 20
-821.655426
 30
0.0
 70
0
  0
SEQEND
  5
1FC
  8
8
  0
POLYLINE
  5
20D
  8
8
 66
1
 10
0.0
 20
0.0
 30
0.0
 70
0
  0
VERTEX
  5
20F
  8
8
 10
-2604.711609
 20
-530.604782
 30
0.0
 70
0
  0
VERTEX
  5
210
  8
8
 10
-2593.597107
 20
-837.222214
 30
0.0
 70
0
  0
SEQEND
  5
20E
  8
8
  0
POINT
  5
211
  8
4
 10
-2922.843933
 20
-834.345703
 30
0.0
  0
POINT
  5
212
  8
4
 10
-3390.343323
 20
-811.760483
 30
0.0
  0
POINT
  5
213
  8
4
 10
-3389.407349
 20
-594.168167
 30
0.0
  0
POINT
  5
214
  8
4
 10
-2922.943726
 20
-572.098579
 30
0.0
  0
POINT
  5
215
  8
4
 10
-2922.345886
 20
-821.655426
 30
0.0
  0
POINT
  5
216
  8
4
 10
-3390.288391
 20
-799.04274
 30
0.0
  0
POINT
  5
217
  8
4
 10
-3389.461975
 20
-606.884956
 30
0.0
  0
POINT
  5
218
  8
4
 10
-2922.343445
 20
-584.784393
 30
0.0
  0
LINE
  5
219
  8
7
 10
-3341.298828
 20
-702.162857
 30
0.0
 11
-2446.712189
 21
-702.162857
 31
0.0
  0
ENDSEC
  0
EOF
