  0
SECTION
  2
HEADER
  9
$ACADVER
  1
AC1009
  9
$DWGCODEPAGE
  3
ANSI_1252
  9
$INSBASE
 10
0.0
 20
0.0
 30
0.0
  9
$EXTMIN
 10
1e+20
 20
1e+20
 30
1e+20
  9
$EXTMAX
 10
-1e+20
 20
-1e+20
 30
-1e+20
  9
$LIMMIN
 10
0.0
 20
0.0
  9
$LIMMAX
 10
420.0
 20
297.0
  9
$ORTHOMODE
 70
0
  9
$REGENMODE
 70
1
  9
$FILLMODE
 70
1
  9
$DRAGMODE
 70
2
  9
$QTEXTMODE
 70
0
  9
$MIRRTEXT
 70
1
  9
$OSMODE
 70
20583
  9
$LTSCALE
 40
1.0
  9
$ATTMODE
 70
1
  9
$TEXTSIZE
 40
2.5
  9
$TRACEWID
 40
1.0
  9
$TEXTSTYLE
  7
Standard
  9
$CLAYER
  8
0
  9
$CELTYPE
  6
ByLayer
  9
$CECOLOR
 62
256
  9
$DIMSCALE
 40
1.0
  9
$DIMASZ
 40
2.5
  9
$DIMEXO
 40
0.625
  9
$DIMDLI
 40
3.75
  9
$DIMRND
 40
0.0
  9
$DIMDLE
 40
0.0
  9
$DIMEXE
 40
1.25
  9
$DIMTP
 40
0.0
  9
$DIMTM
 40
0.0
  9
$DIMTXT
 40
2.5
  9
$DIMCEN
 40
2.5
  9
$DIMTSZ
 40
0.0
  9
$DIMTOL
 70
0
  9
$DIMLIM
 70
0
  9
$DIMTIH
 70
0
  9
$DIMTOH
 70
0
  9
$DIMSE1
 70
0
  9
$DIMSE2
 70
0
  9
$DIMTAD
 70
1
  9
$DIMZIN
 70
8
  9
$DIMBLK
  1

  9
$DIMASO
 70
1
  9
$DIMSHO
 70
1
  9
$DIMPOST
  1

  9
$DIMAPOST
  1

  9
$DIMALT
 70
0
  9
$DIMALTD
 70
3
  9
$DIMALTF
 40
0.03937007874
  9
$DIMLFAC
 40
1.0
  9
$DIMTOFL
 70
1
  9
$DIMTVP
 40
0.0
  9
$DIMTIX
 70
0
  9
$DIMSOXD
 70
0
  9
$DIMSAH
 70
0
  9
$DIMBLK1
  1

  9
$DIMBLK2
  1

  9
$DIMSTYLE
  2
ISO-25
  9
$DIMCLRD
 70
0
  9
$DIMCLRE
 70
0
  9
$DIMCLRT
 70
0
  9
$DIMTFAC
 40
1.0
  9
$DIMGAP
 40
0.625
  9
$COORDS
 70
1
  9
$ATTDIA
 70
0
  9
$ATTREQ
 70
1
  9
$HANDLING
 70
1
  9
$LUNITS
 70
2
  9
$LUPREC
 70
4
  9
$SKETCHINC
 40
1.0
  9
$FILLETRAD
 40
10.0
  9
$AUNITS
 70
0
  9
$AUPREC
 70
2
  9
$MENU
  1
.
  9
$ELEVATION
 40
0.0
  9
$PELEVATION
 40
0.0
  9
$THICKNESS
 40
0.0
  9
$LIMCHECK
 70
0
  9
$CHAMFERA
 40
0.0
  9
$CHAMFERB
 40
0.0
  9
$SKPOLY
 70
0
  9
$TDCREATE
 40
2461259.4353819443
  9
$TDUPDATE
 40
2461259.4353819443
  9
$TDINDWG
 40
0.0
  9
$TDUSRTIMER
 40
0.0
  9
$USRTIMER
 70
1
  9
$ANGBASE
 50
0.0
  9
$ANGDIR
 70
0
  9
$PDMODE
 70
0
  9
$PDSIZE
 40
0.0
  9
$PLINEWID
 40
0.0
  9
$SPLFRAME
 70
0
  9
$SPLINETYPE
 70
6
  9
$SPLINESEGS
 70
8
  9
$HANDSEED
  5
FD
  9
$SURFTAB1
 70
6
  9
$SURFTAB2
 70
6
  9
$SURFTYPE
 70
6
  9
$SURFU
 70
6
  9
$SURFV
 70
6
  9
$UCSNAME
  2

  9
$UCSORG
 10
0.0
 20
0.0
 30
0.0
  9
$UCSXDIR
 10
1.0
 20
0.0
 30
0.0
  9
$UCSYDIR
 10
0.0
 20
1.0
 30
0.0
  9
$PUCSNAME
  2

  9
$PUCSORG
 10
0.0
 20
0.0
 30
0.0
  9
$PUCSXDIR
 10
1.0
 20
0.0
 30
0.0
  9
$PUCSYDIR
 10
0.0
 20
1.0
 30
0.0
  9
$USERI1
 70
0
  9
$USERI2
 70
0
  9
$USERI3
 70
0
  9
$USERI4
 70
0
  9
$USERI5
 70
0
  9
$USERR1
 40
0.0
  9
$USERR2
 40
0.0
  9
$USERR3
 40
0.0
  9
$USERR4
 40
0.0
  9
$USERR5
 40
0.0
  9
$WORLDVIEW
 70
1
  9
$SHADEDGE
 70
3
  9
$SHADEDIF
 70
70
  9
$TILEMODE
 70
1
  9
$MAXACTVP
 70
64
  9
$PLIMCHECK
 70
0
  9
$PEXTMIN
 10
1e+20
 20
1e+20
 30
1e+20
  9
$PEXTMAX
 10
-1e+20
 20
-1e+20
 30
-1e+20
  9
$PLIMMIN
 10
0.0
 20
0.0
  9
$PLIMMAX
 10
420.0
 20
297.0
  9
$UNITMODE
 70
0
  9
$VISRETAIN
 70
1
  9
$PLINEGEN
 70
0
  9
$PSLTSCALE
 70
1
  0
ENDSEC
  0
SECTION
  2
TABLES
  0
TABLE
  2
VPORT
 70
1
  0
VPORT
  5
23
  2
*Active
 70
0
 10
0.0
 20
0.0
 11
1.0
 21
1.0
 12
0.0
 22
0.0
 13
0.0
 23
0.0
 14
0.5
 24
0.5
 15
0.5
 25
0.5
 16
0.0
 26
0.0
 36
1.0
 17
0.0
 27
0.0
 37
0.0
 40
1000.0
 41
1.34
 42
50.0
 43
0.0
 44
0.0
 50
0.0
 51
0.0
 71
0
 72
1000
 73
1
 74
3
 75
0
 76
0
 77
0
 78
0
  0
ENDTAB
  0
TABLE
  2
LTYPE
 70
3
  0
LTYPE
  5
24
  2
ByBlock
 70
0
  3

 72
65
 73
0
 40
0.0
  0
LTYPE
  5
25
  2
ByLayer
 70
0
  3

 72
65
 73
0
 40
0.0
  0
LTYPE
  5
26
  2
Continuous
 70
0
  3

 72
65
 73
0
 40
0.0
  0
ENDTAB
  0
TABLE
  2
LAYER
 70
4
  0
LAYER
  5
27
  2
0
 70
0
 62
7
  6
Continuous
  0
LAYER
  5
28
  2
Defpoints
 70
0
 62
7
  6
Continuous
  0
LAYER
  5
2D
  2
1
 70
0
 62
1
  6
Continuous
  0
LAYER
  5
2E
  2
7
 70
0
 62
7
  6
Continuous
  0
ENDTAB
  0
TABLE
  2
STYLE
 70
1
  0
STYLE
  5
29
  2
Standard
 70
0
 40
0.0
 41
1.0
 50
0.0
 71
0
 42
2.5
  3
txt
  4

  0
ENDTAB
  0
TABLE
  2
VIEW
 70
0
  0
ENDTAB
  0
TABLE
  2
UCS
 70
0
  0
ENDTAB
  0
TABLE
  2
APPID
 70
3
  0
APPID
  5
2A
  2
ACAD
 70
0
  0
APPID
  5
FB
  2
HATCHBACKGROUNDCOLOR
 70
0
  0
APPID
  5
FC
  2
EZDXF
 70
0
  0
ENDTAB
  0
TABLE
  2
DIMSTYLE
 70
1
  0
DIMSTYLE
105
2B
  2
Standard
 70
0
  3

  4

  5

  6

  7

 40
1.0
 41
2.5
 42
0.625
 43
3.75
 44
1.25
 45
0.0
 46
0.0
 47
0.0
 48
0.0
140
2.5
141
2.5
142
0.0
143
0.03937007874
144
1.0
145
0.0
146
1.0
147
0.625
 71
0
 72
0
 73
0
 74
0
 75
0
 76
0
 77
1
 78
8
170
0
171
3
172
1
173
0
174
0
175
0
176
0
177
0
178
0
  0
ENDTAB
  0
ENDSEC
  0
SECTION
  2
BLOCKS
  0
BLOCK
  5
18
  8
0
  2
$Model_Space
 70
0
 10
0.0
 20
0.0
 30
0.0
  3
$Model_Space
  1

1001
EZDXF
1000
CREATED_BY_EZDXF
1000
1.4.4 @ 2026-08-06T02:26:57.842153+00:00
1000
WRITTEN_BY_EZDXF
1000
1.4.4 @ 2026-08-06T02:26:57.844153+00:00
  0
ENDBLK
  5
19
  8
0
  0
BLOCK
  5
1C
  8
0
  2
$Paper_Space
 70
0
 10
0.0
 20
0.0
 30
0.0
  3
$Paper_Space
  1

  0
ENDBLK
  5
1D
  8
0
  0
ENDSEC
  0
SECTION
  2
ENTITIES
  0
POLYLINE
  5
2F
  8
1
 66
1
 10
0.0
 20
0.0
 30
0.0
 70
1
  0
VERTEX
  5
31
  8
1
 10
-2922.724915
 20
-816.569748
 30
0.0
 70
0
  0
VERTEX
  5
32
  8
1
 10
-2922.727661
 20
-816.569672
 30
0.0
 70
0
  0
VERTEX
  5
33
  8
1
 10
-2938.268627
 20
-816.097661
 30
0.0
 70
0
  0
VERTEX
  5
34
  8
1
 10
-2953.570539
 20
-815.625172
 30
0.0
 70
0
  0
VERTEX
  5
35
  8
1
 10
-2968.726916
 20
-815.147294
 30
0.0
 70
0
  0
VERTEX
  5
36
  8
1
 10
-2984.025245
 20
-814.654412
 30
0.0
 70
0
  0
VERTEX
  5
37
  8
1
 10
-2999.312738
 20
-814.153264
 30
0.0
 70
0
  0
VERTEX
  5
38
  8
1
 10
-3014.610624
 20
-813.64398
 30
0.0
 70
0
  0
VERTEX
  5
39
  8
1
 10
-3029.80636
 20
-813.129835
 30
0.0
 70
0
  0
VERTEX
  5
3A
  8
1
 10
-3045.103634
 20
-812.603466
 30
0.0
 70
0
  0
VERTEX
  5
3B
  8
1
 10
-3060.400561
 20
-812.068072
 30
0.0
 70
0
  0
VERTEX
  5
3C
  8
1
 10
-3075.548077
 20
-811.528768
 30
0.0
 70
0
  0
VERTEX
  5
3D
  8
1
 10
-3090.844322
 20
-810.974464
 30
0.0
 70
0
  0
VERTEX
  5
3E
  8
1
 10
-3106.12175
 20
-810.410541
 30
0.0
 70
0
  0
VERTEX
  5
3F
  8
1
 10
-3121.417308
 20
-809.834979
 30
0.0
 70
0
  0
VERTEX
  5
40
  8
1
 10
-3136.614516
 20
-809.251532
 30
0.0
 70
0
  0
VERTEX
  5
41
  8
1
 10
-3151.90903
 20
-808.651784
 30
0.0
 70
0
  0
VERTEX
  5
42
  8
1
 10
-3167.437993
 20
-808.028968
 30
0.0
 70
0
  0
VERTEX
  5
43
  8
1
 10
-3182.731465
 20
-807.402151
 30
0.0
 70
0
  0
VERTEX
  5
44
  8
1
 10
-3198.282389
 20
-806.752252
 30
0.0
 70
0
  0
VERTEX
  5
45
  8
1
 10
-3213.574936
 20
-806.101791
 30
0.0
 70
0
  0
VERTEX
  5
46
  8
1
 10
-3229.041532
 20
-805.433289
 30
0.0
 70
0
  0
VERTEX
  5
47
  8
1
 10
-3244.333117
 20
-804.762477
 30
0.0
 70
0
  0
VERTEX
  5
48
  8
1
 10
-3259.624266
 20
-804.082237
 30
0.0
 70
0
  0
VERTEX
  5
49
  8
1
 10
-3274.615179
 20
-803.406552
 30
0.0
 70
0
  0
VERTEX
  5
4A
  8
1
 10
-3289.905612
 20
-802.709026
 30
0.0
 70
0
  0
VERTEX
  5
4B
  8
1
 10
-3305.196864
 20
-802.003716
 30
0.0
 70
0
  0
VERTEX
  5
4C
  8
1
 10
-3320.486531
 20
-801.289885
 30
0.0
 70
0
  0
VERTEX
  5
4D
  8
1
 10
-3335.494092
 20
-800.578791
 30
0.0
 70
0
  0
VERTEX
  5
4E
  8
1
 10
-3350.782734
 20
-799.84401
 30
0.0
 70
0
  0
VERTEX
  5
4F
  8
1
 10
-3364.951782
 20
-799.15802
 30
0.0
 70
0
  0
VERTEX
  5
50
  8
1
 10
-3365.857968
 20
-799.11415
 30
0.0
 70
0
  0
VERTEX
  5
51
  8
1
 10
-3381.064226
 20
-798.377095
 30
0.0
 70
0
  0
VERTEX
  5
52
  8
1
 10
-3396.694641
 20
-797.619476
 30
0.0
 70
0
  0
VERTEX
  5
53
  8
1
 10
-3396.616536
 20
-781.806496
 30
0.0
 70
0
  0
VERTEX
  5
54
  8
1
 10
-3396.541214
 20
-766.564904
 30
0.0
 70
0
  0
VERTEX
  5
55
  8
1
 10
-3396.465857
 20
-751.323316
 30
0.0
 70
0
  0
VERTEX
  5
56
  8
1
 10
-3396.390187
 20
-736.023256
 30
0.0
 70
0
  0
VERTEX
  5
57
  8
1
 10
-3396.314814
 20
-720.781651
 30
0.0
 70
0
  0
VERTEX
  5
58
  8
1
 10
-3396.238874
 20
-705.417224
 30
0.0
 70
0
  0
VERTEX
  5
59
  8
1
 10
-3396.163592
 20
-690.175616
 30
0.0
 70
0
  0
VERTEX
  5
5A
  8
1
 10
-3396.089389
 20
-675.14541
 30
0.0
 70
0
  0
VERTEX
  5
5B
  8
1
 10
-3396.01415
 20
-659.90381
 30
0.0
 70
0
  0
VERTEX
  5
5C
  8
1
 10
-3395.938323
 20
-644.549842
 30
0.0
 70
0
  0
VERTEX
  5
5D
  8
1
 10
-3395.862991
 20
-629.308235
 30
0.0
 70
0
  0
VERTEX
  5
5E
  8
1
 10
-3395.788437
 20
-614.23803
 30
0.0
 70
0
  0
VERTEX
  5
5F
  8
1
 10
-3395.757446
 20
-607.977257
 30
0.0
 70
0
  0
VERTEX
  5
60
  8
1
 10
-3379.857356
 20
-607.219135
 30
0.0
 70
0
  0
VERTEX
  5
61
  8
1
 10
-3364.807056
 20
-606.501537
 30
0.0
 70
0
  0
VERTEX
  5
62
  8
1
 10
-3363.999634
 20
-606.463051
 30
0.0
 70
0
  0
VERTEX
  5
63
  8
1
 10
-3349.415387
 20
-605.767669
 30
0.0
 70
0
  0
VERTEX
  5
64
  8
1
 10
-3334.062631
 20
-605.035656
 30
0.0
 70
0
  0
VERTEX
  5
65
  8
1
 10
-3318.670966
 20
-604.301781
 30
0.0
 70
0
  0
VERTEX
  5
66
  8
1
 10
-3303.303903
 20
-603.569076
 30
0.0
 70
0
  0
VERTEX
  5
67
  8
1
 10
-3287.912301
 20
-602.835205
 30
0.0
 70
0
  0
VERTEX
  5
68
  8
1
 10
-3272.52069
 20
-602.101336
 30
0.0
 70
0
  0
VERTEX
  5
69
  8
1
 10
-3257.045273
 20
-601.363471
 30
0.0
 70
0
  0
VERTEX
  5
6A
  8
1
 10
-3241.653563
 20
-600.6296
 30
0.0
 70
0
  0
VERTEX
  5
6B
  8
1
 10
-3226.219737
 20
-599.893725
 30
0.0
 70
0
  0
VERTEX
  5
6C
  8
1
 10
-3211.006716
 20
-599.168378
 30
0.0
 70
0
  0
VERTEX
  5
6D
  8
1
 10
-3195.615025
 20
-598.434507
 30
0.0
 70
0
  0
VERTEX
  5
6E
  8
1
 10
-3180.477358
 20
-597.712745
 30
0.0
 70
0
  0
VERTEX
  5
6F
  8
1
 10
-3165.085679
 20
-596.978875
 30
0.0
 70
0
  0
VERTEX
  5
70
  8
1
 10
-3149.772461
 20
-596.248744
 30
0.0
 70
0
  0
VERTEX
  5
71
  8
1
 10
-3134.380787
 20
-595.514867
 30
0.0
 70
0
  0
VERTEX
  5
72
  8
1
 10
-3119.00911
 20
-594.781945
 30
0.0
 70
0
  0
VERTEX
  5
73
  8
1
 10
-3103.617435
 20
-594.048076
 30
0.0
 70
0
  0
VERTEX
  5
74
  8
1
 10
-3088.404549
 20
-593.322734
 30
0.0
 70
0
  0
VERTEX
  5
75
  8
1
 10
-3073.012936
 20
-592.588866
 30
0.0
 70
0
  0
VERTEX
  5
76
  8
1
 10
-3057.699803
 20
-591.858738
 30
0.0
 70
0
  0
VERTEX
  5
77
  8
1
 10
-3042.30812
 20
-591.124867
 30
0.0
 70
0
  0
VERTEX
  5
78
  8
1
 10
-3027.170411
 20
-590.403104
 30
0.0
 70
0
  0
VERTEX
  5
79
  8
1
 10
-3011.778751
 20
-589.669229
 30
0.0
 70
0
  0
VERTEX
  5
7A
  8
1
 10
-2996.387043
 20
-588.935354
 30
0.0
 70
0
  0
VERTEX
  5
7B
  8
1
 10
-2980.953236
 20
-588.19948
 30
0.0
 70
0
  0
VERTEX
  5
7C
  8
1
 10
-2965.928982
 20
-587.483133
 30
0.0
 70
0
  0
VERTEX
  5
7D
  8
1
 10
-2950.332898
 20
-586.739517
 30
0.0
 70
0
  0
VERTEX
  5
7E
  8
1
 10
-2935.129553
 20
-586.014622
 30
0.0
 70
0
  0
VERTEX
  5
7F
  8
1
 10
-2922.948303
 20
-585.433807
 30
0.0
 70
0
  0
VERTEX
  5
80
  8
1
 10
-2923.119812
 20
-585.442467
 30
0.0
 70
0
  0
VERTEX
  5
81
  8
1
 10
-2907.549212
 20
-584.276362
 30
0.0
 70
0
  0
VERTEX
  5
82
  8
1
 10
-2892.434599
 20
-583.071868
 30
0.0
 70
0
  0
VERTEX
  5
83
  8
1
 10
-2877.048421
 20
-581.747248
 30
0.0
 70
0
  0
VERTEX
  5
84
  8
1
 10
-2861.787387
 20
-580.340091
 30
0.0
 70
0
  0
VERTEX
  5
85
  8
1
 10
-2846.417024
 20
-578.842
 30
0.0
 70
0
  0
VERTEX
  5
86
  8
1
 10
-2831.196513
 20
-577.277067
 30
0.0
 70
0
  0
VERTEX
  5
87
  8
1
 10
-2815.84342
 20
-575.611403
 30
0.0
 70
0
  0
VERTEX
  5
88
  8
1
 10
-2800.489919
 20
-573.853766
 30
0.0
 70
0
  0
VERTEX
  5
89
  8
1
 10
-2785.158271
 20
-572.001024
 30
0.0
 70
0
  0
VERTEX
  5
8A
  8
1
 10
-2770.268952
 20
-570.098023
 30
0.0
 70
0
  0
VERTEX
  5
8B
  8
1
 10
-2754.965488
 20
-568.024742
 30
0.0
 70
0
  0
VERTEX
  5
8C
  8
1
 10
-2739.686583
 20
-565.827978
 30
0.0
 70
0
  0
VERTEX
  5
8D
  8
1
 10
-2724.419404
 20
-563.50269
 30
0.0
 70
0
  0
VERTEX
  5
8E
  8
1
 10
-2709.363914
 20
-561.090503
 30
0.0
 70
0
  0
VERTEX
  5
8F
  8
1
 10
-2694.132648
 20
-558.540809
 30
0.0
 70
0
  0
VERTEX
  5
90
  8
1
 10
-2679.180358
 20
-555.942515
 30
0.0
 70
0
  0
VERTEX
  5
91
  8
1
 10
-2663.980336
 20
-553.212878
 30
0.0
 70
0
  0
VERTEX
  5
92
  8
1
 10
-2648.762364
 20
-550.388447
 30
0.0
 70
0
  0
VERTEX
  5
93
  8
1
 10
-2633.595139
 20
-547.482019
 30
0.0
 70
0
  0
VERTEX
  5
94
  8
1
 10
-2618.635539
 20
-544.536959
 30
0.0
 70
0
  0
VERTEX
  5
95
  8
1
 10
-2603.947624
 20
-541.588668
 30
0.0
 70
0
  0
VERTEX
  5
96
  8
1
 10
-2601.063232
 20
-541.004753
 30
0.0
 70
0
  0
VERTEX
  5
97
  8
1
 10
-2596.410324
 20
-547.586826
 30
0.0
 70
0
  0
VERTEX
  5
98
  8
1
 10
-2592.530095
 20
-552.672516
 30
0.0
 70
0
  0
VERTEX
  5
99
  8
1
 10
-2589.500984
 20
-556.282247
 30
0.0
 70
0
  0
VERTEX
  5
9A
  8
1
 10
-2586.489218
 20
-559.483184
 30
0.0
 70
0
  0
VERTEX
  5
9B
  8
1
 10
-2583.496271
 20
-562.322261
 30
0.0
 70
0
  0
VERTEX
  5
9C
  8
1
 10
-2580.597789
 20
-564.75056
 30
0.0
 70
0
  0
VERTEX
  5
9D
  8
1
 10
-2577.785588
 20
-566.801025
 30
0.0
 70
0
  0
VERTEX
  5
9E
  8
1
 10
-2575.041648
 20
-568.502946
 30
0.0
 70
0
  0
VERTEX
  5
9F
  8
1
 10
-2572.034732
 20
-570.061531
 30
0.0
 70
0
  0
VERTEX
  5
A0
  8
1
 10
-2568.609153
 20
-571.54269
 30
0.0
 70
0
  0
VERTEX
  5
A1
  8
1
 10
-2564.788448
 20
-572.915876
 30
0.0
 70
0
  0
VERTEX
  5
A2
  8
1
 10
-2560.369828
 20
-574.229303
 30
0.0
 70
0
  0
VERTEX
  5
A3
  8
1
 10
-2555.062431
 20
-575.526544
 30
0.0
 70
0
  0
VERTEX
  5
A4
  8
1
 10
-2548.849036
 20
-576.772342
 30
0.0
 70
0
  0
VERTEX
  5
A5
  8
1
 10
-2540.980611
 20
-578.07675
 30
0.0
 70
0
  0
VERTEX
  5
A6
  8
1
 10
-2532.988365
 20
-579.157424
 30
0.0
 70
0
  0
VERTEX
  5
A7
  8
1
 10
-2524.137368
 20
-580.085426
 30
0.0
 70
0
  0
VERTEX
  5
A8
  8
1
 10
-2522.230988
 20
-580.257835
 30
0.0
 70
0
  0
VERTEX
  5
A9
  8
1
 10
-2506.696979
 20
-581.784617
 30
0.0
 70
0
  0
VERTEX
  5
AA
  8
1
 10
-2491.590424
 20
-583.319265
 30
0.0
 70
0
  0
VERTEX
  5
AB
  8
1
 10
-2476.430414
 20
-584.928551
 30
0.0
 70
0
  0
VERTEX
  5
AC
  8
1
 10
-2461.084308
 20
-586.644635
 30
0.0
 70
0
  0
VERTEX
  5
AD
  8
1
 10
-2446.062103
 20
-588.418244
 30
0.0
 70
0
  0
VERTEX
  5
AE
  8
1
 10
-2430.737475
 20
-590.316535
 30
0.0
 70
0
  0
VERTEX
  5
AF
  8
1
 10
-2415.58349
 20
-592.269598
 30
0.0
 70
0
  0
VERTEX
  5
B0
  8
1
 10
-2400.277926
 20
-594.316311
 30
0.0
 70
0
  0
VERTEX
  5
B1
  8
1
 10
-2384.98278
 20
-596.439057
 30
0.0
 70
0
  0
VERTEX
  5
B2
  8
1
 10
-2369.885836
 20
-598.591192
 30
0.0
 70
0
  0
VERTEX
  5
B3
  8
1
 10
-2365.319214
 20
-599.239616
 30
0.0
 70
0
  0
VERTEX
  5
B4
  8
1
 10
-2365.471803
 20
-615.763921
 30
0.0
 70
0
  0
VERTEX
  5
B5
  8
1
 10
-2365.37107
 20
-631.229148
 30
0.0
 70
0
  0
VERTEX
  5
B6
  8
1
 10
-2365.044722
 20
-645.777708
 30
0.0
 70
0
  0
VERTEX
  5
B7
  8
1
 10
-2364.48221
 20
-659.409295
 30
0.0
 70
0
  0
VERTEX
  5
B8
  8
1
 10
-2363.58498
 20
-674.422828
 30
0.0
 70
0
  0
VERTEX
  5
B9
  8
1
 10
-2362.477313
 20
-689.235908
 30
0.0
 70
0
  0
VERTEX
  5
BA
  8
1
 10
-2362.308044
 20
-691.243057
 30
0.0
 70
0
  0
VERTEX
  5
BB
  8
1
 10
-2375.487187
 20
-693.161471
 30
0.0
 70
0
  0
VERTEX
  5
BC
  8
1
 10
-2380.748056
 20
-693.963971
 30
0.0
 70
0
  0
VERTEX
  5
BD
  8
1
 10
-2385.702194
 20
-695.009681
 30
0.0
 70
0
  0
VERTEX
  5
BE
  8
1
 10
-2390.760021
 20
-696.318107
 30
0.0
 70
0
  0
VERTEX
  5
BF
  8
1
 10
-2395.430088
 20
-697.771904
 30
0.0
 70
0
  0
VERTEX
  5
C0
  8
1
 10
-2399.883978
 20
-699.410042
 30
0.0
 70
0
  0
VERTEX
  5
C1
  8
1
 10
-2403.967456
 20
-701.169024
 30
0.0
 70
0
  0
VERTEX
  5
C2
  8
1
 10
-2407.641883
 20
-703.00983
 30
0.0
 70
0
  0
VERTEX
  5
C3
  8
1
 10
-2410.983011
 20
-704.950065
 30
0.0
 70
0
  0
VERTEX
  5
C4
  8
1
 10
-2413.972281
 20
-706.96297
 30
0.0
 70
0
  0
VERTEX
  5
C5
  8
1
 10
-2416.65107
 20
-709.061051
 30
0.0
 70
0
  0
VERTEX
  5
C6
  8
1
 10
-2418.95069
 20
-711.164442
 30
0.0
 70
0
  0
VERTEX
  5
C7
  8
1
 10
-2420.952859
 20
-713.315136
 30
0.0
 70
0
  0
VERTEX
  5
C8
  8
1
 10
-2422.72484
 20
-715.583203
 30
0.0
 70
0
  0
VERTEX
  5
C9
  8
1
 10
-2424.251375
 20
-717.951342
 30
0.0
 70
0
  0
VERTEX
  5
CA
  8
1
 10
-2425.613609
 20
-720.529324
 30
0.0
 70
0
  0
VERTEX
  5
CB
  8
1
 10
-2426.865954
 20
-723.437664
 30
0.0
 70
0
  0
VERTEX
  5
CC
  8
1
 10
-2427.98577
 20
-726.680993
 30
0.0
 70
0
  0
VERTEX
  5
CD
  8
1
 10
-2428.952893
 20
-730.25139
 30
0.0
 70
0
  0
VERTEX
  5
CE
  8
1
 10
-2429.771943
 20
-734.244338
 30
0.0
 70
0
  0
VERTEX
  5
CF
  8
1
 10
-2430.425711
 20
-738.718305
 30
0.0
 70
0
  0
VERTEX
  5
D0
  8
1
 10
-2430.881088
 20
-743.589258
 30
0.0
 70
0
  0
VERTEX
  5
D1
  8
1
 10
-2431.131923
 20
-749.059488
 30
0.0
 70
0
  0
VERTEX
  5
D2
  8
1
 10
-2431.152301
 20
-755.088813
 30
0.0
 70
0
  0
VERTEX
  5
D3
  8
1
 10
-2430.913775
 20
-762.035226
 30
0.0
 70
0
  0
VERTEX
  5
D4
  8
1
 10
-2430.394498
 20
-769.753428
 30
0.0
 70
0
  0
VERTEX
  5
D5
  8
1
 10
-2429.579054
 20
-778.092433
 30
0.0
 70
0
  0
VERTEX
  5
D6
  8
1
 10
-2428.390962
 20
-787.57271
 30
0.0
 70
0
  0
VERTEX
  5
D7
  8
1
 10
-2426.586148
 20
-799.725621
 30
0.0
 70
0
  0
VERTEX
  5
D8
  8
1
 10
-2424.192603
 20
-814.486761
 30
0.0
 70
0
  0
VERTEX
  5
D9
  8
1
 10
-2423.91922
 20
-816.133194
 30
0.0
 70
0
  0
VERTEX
  5
DA
  8
1
 10
-2435.57763
 20
-817.776208
 30
0.0
 70
0
  0
VERTEX
  5
DB
  8
1
 10
-2450.603208
 20
-819.751985
 30
0.0
 70
0
  0
VERTEX
  5
DC
  8
1
 10
-2465.599263
 20
-821.515009
 30
0.0
 70
0
  0
VERTEX
  5
DD
  8
1
 10
-2479.916999
 20
-822.952065
 30
0.0
 70
0
  0
VERTEX
  5
DE
  8
1
 10
-2493.706061
 20
-824.087384
 30
0.0
 70
0
  0
VERTEX
  5
DF
  8
1
 10
-2507.472211
 20
-824.96046
 30
0.0
 70
0
  0
VERTEX
  5
E0
  8
1
 10
-2521.846597
 20
-825.609703
 30
0.0
 70
0
  0
VERTEX
  5
E1
  8
1
 10
-2537.337051
 20
-826.051111
 30
0.0
 70
0
  0
VERTEX
  5
E2
  8
1
 10
-2552.425149
 20
-826.266201
 30
0.0
 70
0
  0
VERTEX
  5
E3
  8
1
 10
-2567.919722
 20
-826.308909
 30
0.0
 70
0
  0
VERTEX
  5
E4
  8
1
 10
-2583.395952
 20
-826.212277
 30
0.0
 70
0
  0
VERTEX
  5
E5
  8
1
 10
-2598.889295
 20
-826.024656
 30
0.0
 70
0
  0
VERTEX
  5
E6
  8
1
 10
-2614.300758
 20
-825.803946
 30
0.0
 70
0
  0
VERTEX
  5
E7
  8
1
 10
-2629.793587
 20
-825.573243
 30
0.0
 70
0
  0
VERTEX
  5
E8
  8
1
 10
-2645.245233
 20
-825.317698
 30
0.0
 70
0
  0
VERTEX
  5
E9
  8
1
 10
-2660.736848
 20
-825.015493
 30
0.0
 70
0
  0
VERTEX
  5
EA
  8
1
 10
-2676.196404
 20
-824.646664
 30
0.0
 70
0
  0
VERTEX
  5
EB
  8
1
 10
-2691.684705
 20
-824.205501
 30
0.0
 70
0
  0
VERTEX
  5
EC
  8
1
 10
-2707.084316
 20
-823.71639
 30
0.0
 70
0
  0
VERTEX
  5
ED
  8
1
 10
-2722.570029
 20
-823.194471
 30
0.0
 70
0
  0
VERTEX
  5
EE
  8
1
 10
-2737.624395
 20
-822.674654
 30
0.0
 70
0
  0
VERTEX
  5
EF
  8
1
 10
-2753.109675
 20
-822.139548
 30
0.0
 70
0
  0
VERTEX
  5
F0
  8
1
 10
-2768.320087
 20
-821.617884
 30
0.0
 70
0
  0
VERTEX
  5
F1
  8
1
 10
-2783.805683
 20
-821.092947
 30
0.0
 70
0
  0
VERTEX
  5
F2
  8
1
 10
-2799.246598
 20
-820.574617
 30
0.0
 70
0
  0
VERTEX
  5
F3
  8
1
 10
-2814.732571
 20
-820.058816
 30
0.0
 70
0
  0
VERTEX
  5
F4
  8
1
 10
-2829.743096
 20
-819.562676
 30
0.0
 70
0
  0
VERTEX
  5
F5
  8
1
 10
-2845.229285
 20
-819.054739
 30
0.0
 70
0
  0
VERTEX
  5
F6
  8
1
 10
-2860.711392
 20
-818.550568
 30
0.0
 70
0
  0
VERTEX
  5
F7
  8
1
 10
-2876.197768
 20
-818.049737
 30
0.0
 70
0
  0
VERTEX
  5
F8
  8
1
 10
-2891.540046
 20
-817.557681
 30
0.0
 70
0
  0
VERTEX
  5
F9
  8
1
 10
-2906.920178
 20
-817.068782
 30
0.0
 70
0
  0
SEQEND
  5
30
  8
1
  0
LINE
  5
FA
  8
7
 10
-3341.298828
 20
-702.162857
 30
0.0
 11
-2446.712189
 21
-702.162857
 31
0.0
  0
ENDSEC
  0
EOF
