  0
SECTION
  2
HEADER
  9
$ACADVER
  1
AC1009
  9
$DWGCODEPAGE
  3
ANSI_1252
  9
$INSBASE
 10
0.0
 20
0.0
 30
0.0
  9
$EXTMIN
 10
1e+20
 20
1e+20
 30
1e+20
  9
$EXTMAX
 10
-1e+20
 20
-1e+20
 30
-1e+20
  9
$LIMMIN
 10
0.0
 20
0.0
  9
$LIMMAX
 10
420.0
 20
297.0
  9
$ORTHOMODE
 70
0
  9
$REGENMODE
 70
1
  9
$FILLMODE
 70
1
  9
$DRAGMODE
 70
2
  9
$QTEXTMODE
 70
0
  9
$MIRRTEXT
 70
1
  9
$OSMODE
 70
20583
  9
$LTSCALE
 40
1.0
  9
$ATTMODE
 70
1
  9
$TEXTSIZE
 40
2.5
  9
$TRACEWID
 40
1.0
  9
$TEXTSTYLE
  7
Standard
  9
$CLAYER
  8
0
  9
$CELTYPE
  6
ByLayer
  9
$CECOLOR
 62
256
  9
$DIMSCALE
 40
1.0
  9
$DIMASZ
 40
2.5
  9
$DIMEXO
 40
0.625
  9
$DIMDLI
 40
3.75
  9
$DIMRND
 40
0.0
  9
$DIMDLE
 40
0.0
  9
$DIMEXE
 40
1.25
  9
$DIMTP
 40
0.0
  9
$DIMTM
 40
0.0
  9
$DIMTXT
 40
2.5
  9
$DIMCEN
 40
2.5
  9
$DIMTSZ
 40
0.0
  9
$DIMTOL
 70
0
  9
$DIMLIM
 70
0
  9
$DIMTIH
 70
0
  9
$DIMTOH
 70
0
  9
$DIMSE1
 70
0
  9
$DIMSE2
 70
0
  9
$DIMTAD
 70
1
  9
$DIMZIN
 70
8
  9
$DIMBLK
  1

  9
$DIMASO
 70
1
  9
$DIMSHO
 70
1
  9
$DIMPOST
  1

  9
$DIMAPOST
  1

  9
$DIMALT
 70
0
  9
$DIMALTD
 70
3
  9
$DIMALTF
 40
0.03937007874
  9
$DIMLFAC
 40
1.0
  9
$DIMTOFL
 70
1
  9
$DIMTVP
 40
0.0
  9
$DIMTIX
 70
0
  9
$DIMSOXD
 70
0
  9
$DIMSAH
 70
0
  9
$DIMBLK1
  1

  9
$DIMBLK2
  1

  9
$DIMSTYLE
  2
ISO-25
  9
$DIMCLRD
 70
0
  9
$DIMCLRE
 70
0
  9
$DIMCLRT
 70
0
  9
$DIMTFAC
 40
1.0
  9
$DIMGAP
 40
0.625
  9
$COORDS
 70
1
  9
$ATTDIA
 70
0
  9
$ATTREQ
 70
1
  9
$HANDLING
 70
1
  9
$LUNITS
 70
2
  9
$LUPREC
 70
4
  9
$SKETCHINC
 40
1.0
  9
$FILLETRAD
 40
10.0
  9
$AUNITS
 70
0
  9
$AUPREC
 70
2
  9
$MENU
  1
.
  9
$ELEVATION
 40
0.0
  9
$PELEVATION
 40
0.0
  9
$THICKNESS
 40
0.0
  9
$LIMCHECK
 70
0
  9
$CHAMFERA
 40
0.0
  9
$CHAMFERB
 40
0.0
  9
$SKPOLY
 70
0
  9
$TDCREATE
 40
2461259.4353935183
  9
$TDUPDATE
 40
2461259.4353935183
  9
$TDINDWG
 40
0.0
  9
$TDUSRTIMER
 40
0.0
  9
$USRTIMER
 70
1
  9
$ANGBASE
 50
0.0
  9
$ANGDIR
 70
0
  9
$PDMODE
 70
0
  9
$PDSIZE
 40
0.0
  9
$PLINEWID
 40
0.0
  9
$SPLFRAME
 70
0
  9
$SPLINETYPE
 70
6
  9
$SPLINESEGS
 70
8
  9
$HANDSEED
  5
105
  9
$SURFTAB1
 70
6
  9
$SURFTAB2
 70
6
  9
$SURFTYPE
 70
6
  9
$SURFU
 70
6
  9
$SURFV
 70
6
  9
$UCSNAME
  2

  9
$UCSORG
 10
0.0
 20
0.0
 30
0.0
  9
$UCSXDIR
 10
1.0
 20
0.0
 30
0.0
  9
$UCSYDIR
 10
0.0
 20
1.0
 30
0.0
  9
$PUCSNAME
  2

  9
$PUCSORG
 10
0.0
 20
0.0
 30
0.0
  9
$PUCSXDIR
 10
1.0
 20
0.0
 30
0.0
  9
$PUCSYDIR
 10
0.0
 20
1.0
 30
0.0
  9
$USERI1
 70
0
  9
$USERI2
 70
0
  9
$USERI3
 70
0
  9
$USERI4
 70
0
  9
$USERI5
 70
0
  9
$USERR1
 40
0.0
  9
$USERR2
 40
0.0
  9
$USERR3
 40
0.0
  9
$USERR4
 40
0.0
  9
$USERR5
 40
0.0
  9
$WORLDVIEW
 70
1
  9
$SHADEDGE
 70
3
  9
$SHADEDIF
 70
70
  9
$TILEMODE
 70
1
  9
$MAXACTVP
 70
64
  9
$PLIMCHECK
 70
0
  9
$PEXTMIN
 10
1e+20
 20
1e+20
 30
1e+20
  9
$PEXTMAX
 10
-1e+20
 20
-1e+20
 30
-1e+20
  9
$PLIMMIN
 10
0.0
 20
0.0
  9
$PLIMMAX
 10
420.0
 20
297.0
  9
$UNITMODE
 70
0
  9
$VISRETAIN
 70
1
  9
$PLINEGEN
 70
0
  9
$PSLTSCALE
 70
1
  0
ENDSEC
  0
SECTION
  2
TABLES
  0
TABLE
  2
VPORT
 70
1
  0
VPORT
  5
23
  2
*Active
 70
0
 10
0.0
 20
0.0
 11
1.0
 21
1.0
 12
0.0
 22
0.0
 13
0.0
 23
0.0
 14
0.5
 24
0.5
 15
0.5
 25
0.5
 16
0.0
 26
0.0
 36
1.0
 17
0.0
 27
0.0
 37
0.0
 40
1000.0
 41
1.34
 42
50.0
 43
0.0
 44
0.0
 50
0.0
 51
0.0
 71
0
 72
1000
 73
1
 74
3
 75
0
 76
0
 77
0
 78
0
  0
ENDTAB
  0
TABLE
  2
LTYPE
 70
3
  0
LTYPE
  5
24
  2
ByBlock
 70
0
  3

 72
65
 73
0
 40
0.0
  0
LTYPE
  5
25
  2
ByLayer
 70
0
  3

 72
65
 73
0
 40
0.0
  0
LTYPE
  5
26
  2
Continuous
 70
0
  3

 72
65
 73
0
 40
0.0
  0
ENDTAB
  0
TABLE
  2
LAYER
 70
4
  0
LAYER
  5
27
  2
0
 70
0
 62
7
  6
Continuous
  0
LAYER
  5
28
  2
Defpoints
 70
0
 62
7
  6
Continuous
  0
LAYER
  5
2D
  2
1
 70
0
 62
1
  6
Continuous
  0
LAYER
  5
2E
  2
7
 70
0
 62
7
  6
Continuous
  0
ENDTAB
  0
TABLE
  2
STYLE
 70
1
  0
STYLE
  5
29
  2
Standard
 70
0
 40
0.0
 41
1.0
 50
0.0
 71
0
 42
2.5
  3
txt
  4

  0
ENDTAB
  0
TABLE
  2
VIEW
 70
0
  0
ENDTAB
  0
TABLE
  2
UCS
 70
0
  0
ENDTAB
  0
TABLE
  2
APPID
 70
3
  0
APPID
  5
2A
  2
ACAD
 70
0
  0
APPID
  5
103
  2
HATCHBACKGROUNDCOLOR
 70
0
  0
APPID
  5
104
  2
EZDXF
 70
0
  0
ENDTAB
  0
TABLE
  2
DIMSTYLE
 70
1
  0
DIMSTYLE
105
2B
  2
Standard
 70
0
  3

  4

  5

  6

  7

 40
1.0
 41
2.5
 42
0.625
 43
3.75
 44
1.25
 45
0.0
 46
0.0
 47
0.0
 48
0.0
140
2.5
141
2.5
142
0.0
143
0.03937007874
144
1.0
145
0.0
146
1.0
147
0.625
 71
0
 72
0
 73
0
 74
0
 75
0
 76
0
 77
1
 78
8
170
0
171
3
172
1
173
0
174
0
175
0
176
0
177
0
178
0
  0
ENDTAB
  0
ENDSEC
  0
SECTION
  2
BLOCKS
  0
BLOCK
  5
18
  8
0
  2
$Model_Space
 70
0
 10
0.0
 20
0.0
 30
0.0
  3
$Model_Space
  1

1001
EZDXF
1000
CREATED_BY_EZDXF
1000
1.4.4 @ 2026-08-06T02:26:58.019009+00:00
1000
WRITTEN_BY_EZDXF
1000
1.4.4 @ 2026-08-06T02:26:58.021009+00:00
  0
ENDBLK
  5
19
  8
0
  0
BLOCK
  5
1C
  8
0
  2
$Paper_Space
 70
0
 10
0.0
 20
0.0
 30
0.0
  3
$Paper_Space
  1

  0
ENDBLK
  5
1D
  8
0
  0
ENDSEC
  0
SECTION
  2
ENTITIES
  0
POLYLINE
  5
2F
  8
1
 66
1
 10
0.0
 20
0.0
 30
0.0
 70
1
  0
VERTEX
  5
31
  8
1
 10
-2922.784729
 20
-826.727829
 30
0.0
 70
0
  0
VERTEX
  5
32
  8
1
 10
-2922.784729
 20
-826.727829
 30
0.0
 70
0
  0
VERTEX
  5
33
  8
1
 10
-2930.457019
 20
-826.461523
 30
0.0
 70
0
  0
VERTEX
  5
34
  8
1
 10
-2945.373672
 20
-825.937979
 30
0.0
 70
0
  0
VERTEX
  5
35
  8
1
 10
-2960.391378
 20
-825.400677
 30
0.0
 70
0
  0
VERTEX
  5
36
  8
1
 10
-2975.610759
 20
-824.846087
 30
0.0
 70
0
  0
VERTEX
  5
37
  8
1
 10
-2990.646075
 20
-824.290353
 30
0.0
 70
0
  0
VERTEX
  5
38
  8
1
 10
-3005.864871
 20
-823.720435
 30
0.0
 70
0
  0
VERTEX
  5
39
  8
1
 10
-3021.203902
 20
-823.138014
 30
0.0
 70
0
  0
VERTEX
  5
3A
  8
1
 10
-3036.42206
 20
-822.551975
 30
0.0
 70
0
  0
VERTEX
  5
3B
  8
1
 10
-3051.697581
 20
-821.955412
 30
0.0
 70
0
  0
VERTEX
  5
3C
  8
1
 10
-3066.915144
 20
-821.352649
 30
0.0
 70
0
  0
VERTEX
  5
3D
  8
1
 10
-3082.132363
 20
-820.741069
 30
0.0
 70
0
  0
VERTEX
  5
3E
  8
1
 10
-3097.185702
 20
-820.126976
 30
0.0
 70
0
  0
VERTEX
  5
3F
  8
1
 10
-3112.402166
 20
-819.496575
 30
0.0
 70
0
  0
VERTEX
  5
40
  8
1
 10
-3127.757643
 20
-818.850053
 30
0.0
 70
0
  0
VERTEX
  5
41
  8
1
 10
-3142.973176
 20
-818.198351
 30
0.0
 70
0
  0
VERTEX
  5
42
  8
1
 10
-3158.445333
 20
-817.523448
 30
0.0
 70
0
  0
VERTEX
  5
43
  8
1
 10
-3173.659739
 20
-816.847253
 30
0.0
 70
0
  0
VERTEX
  5
44
  8
1
 10
-3189.129577
 20
-816.146685
 30
0.0
 70
0
  0
VERTEX
  5
45
  8
1
 10
-3204.342951
 20
-815.445461
 30
0.0
 70
0
  0
VERTEX
  5
46
  8
1
 10
-3219.487364
 20
-814.73643
 30
0.0
 70
0
  0
VERTEX
  5
47
  8
1
 10
-3234.699705
 20
-814.014055
 30
0.0
 70
0
  0
VERTEX
  5
48
  8
1
 10
-3249.699853
 20
-813.292394
 30
0.0
 70
0
  0
VERTEX
  5
49
  8
1
 10
-3264.911305
 20
-812.55154
 30
0.0
 70
0
  0
VERTEX
  5
4A
  8
1
 10
-3280.122316
 20
-811.801909
 30
0.0
 70
0
  0
VERTEX
  5
4B
  8
1
 10
-3295.22424
 20
-811.049265
 30
0.0
 70
0
  0
VERTEX
  5
4C
  8
1
 10
-3310.434367
 20
-810.283334
 30
0.0
 70
0
  0
VERTEX
  5
4D
  8
1
 10
-3325.658175
 20
-809.509377
 30
0.0
 70
0
  0
VERTEX
  5
4E
  8
1
 10
-3340.867541
 20
-808.727991
 30
0.0
 70
0
  0
VERTEX
  5
4F
  8
1
 10
-3356.009384
 20
-807.939776
 30
0.0
 70
0
  0
VERTEX
  5
50
  8
1
 10
-3371.217734
 20
-807.138343
 30
0.0
 70
0
  0
VERTEX
  5
51
  8
1
 10
-3385.266418
 20
-806.393356
 30
0.0
 70
0
  0
VERTEX
  5
52
  8
1
 10
-3386.404925
 20
-806.333029
 30
0.0
 70
0
  0
VERTEX
  5
53
  8
1
 10
-3401.497241
 20
-805.531919
 30
0.0
 70
0
  0
VERTEX
  5
54
  8
1
 10
-3417.009277
 20
-804.708481
 30
0.0
 70
0
  0
VERTEX
  5
55
  8
1
 10
-3416.938682
 20
-789.217451
 30
0.0
 70
0
  0
VERTEX
  5
56
  8
1
 10
-3416.868735
 20
-773.869363
 30
0.0
 70
0
  0
VERTEX
  5
57
  8
1
 10
-3416.798813
 20
-758.521269
 30
0.0
 70
0
  0
VERTEX
  5
58
  8
1
 10
-3416.728395
 20
-743.054101
 30
0.0
 70
0
  0
VERTEX
  5
59
  8
1
 10
-3416.658546
 20
-727.705986
 30
0.0
 70
0
  0
VERTEX
  5
5A
  8
1
 10
-3416.589425
 20
-712.520828
 30
0.0
 70
0
  0
VERTEX
  5
5B
  8
1
 10
-3416.519528
 20
-697.172714
 30
0.0
 70
0
  0
VERTEX
  5
5C
  8
1
 10
-3416.450524
 20
-682.02612
 30
0.0
 70
0
  0
VERTEX
  5
5D
  8
1
 10
-3416.380584
 20
-666.678024
 30
0.0
 70
0
  0
VERTEX
  5
5E
  8
1
 10
-3416.310328
 20
-651.260126
 30
0.0
 70
0
  0
VERTEX
  5
5F
  8
1
 10
-3416.240402
 20
-635.912007
 30
0.0
 70
0
  0
VERTEX
  5
60
  8
1
 10
-3416.170494
 20
-620.563918
 30
0.0
 70
0
  0
VERTEX
  5
61
  8
1
 10
-3416.100981
 20
-605.299152
 30
0.0
 70
0
  0
VERTEX
  5
62
  8
1
 10
-3416.081238
 20
-600.962944
 30
0.0
 70
0
  0
VERTEX
  5
63
  8
1
 10
-3400.578503
 20
-600.235183
 30
0.0
 70
0
  0
VERTEX
  5
64
  8
1
 10
-3385.265751
 20
-599.51635
 30
0.0
 70
0
  0
VERTEX
  5
65
  8
1
 10
-3384.324341
 20
-599.47216
 30
0.0
 70
0
  0
VERTEX
  5
66
  8
1
 10
-3370.036861
 20
-598.801465
 30
0.0
 70
0
  0
VERTEX
  5
67
  8
1
 10
-3354.581091
 20
-598.075935
 30
0.0
 70
0
  0
VERTEX
  5
68
  8
1
 10
-3339.404284
 20
-597.363497
 30
0.0
 70
0
  0
VERTEX
  5
69
  8
1
 10
-3324.208599
 20
-596.650167
 30
0.0
 70
0
  0
VERTEX
  5
6A
  8
1
 10
-3308.752903
 20
-595.924624
 30
0.0
 70
0
  0
VERTEX
  5
6B
  8
1
 10
-3293.353666
 20
-595.201727
 30
0.0
 70
0
  0
VERTEX
  5
6C
  8
1
 10
-3277.898011
 20
-594.476183
 30
0.0
 70
0
  0
VERTEX
  5
6D
  8
1
 10
-3262.869298
 20
-593.770686
 30
0.0
 70
0
  0
VERTEX
  5
6E
  8
1
 10
-3247.413503
 20
-593.045149
 30
0.0
 70
0
  0
VERTEX
  5
6F
  8
1
 10
-3232.34664
 20
-592.337875
 30
0.0
 70
0
  0
VERTEX
  5
70
  8
1
 10
-3216.890893
 20
-591.612344
 30
0.0
 70
0
  0
VERTEX
  5
71
  8
1
 10
-3201.890618
 20
-590.90819
 30
0.0
 70
0
  0
VERTEX
  5
72
  8
1
 10
-3186.434894
 20
-590.182651
 30
0.0
 70
0
  0
VERTEX
  5
73
  8
1
 10
-3171.051142
 20
-589.46049
 30
0.0
 70
0
  0
VERTEX
  5
74
  8
1
 10
-3155.595352
 20
-588.734952
 30
0.0
 70
0
  0
VERTEX
  5
75
  8
1
 10
-3140.556644
 20
-588.028994
 30
0.0
 70
0
  0
VERTEX
  5
76
  8
1
 10
-3125.100881
 20
-587.303458
 30
0.0
 70
0
  0
VERTEX
  5
77
  8
1
 10
-3109.924111
 20
-586.591014
 30
0.0
 70
0
  0
VERTEX
  5
78
  8
1
 10
-3094.468408
 20
-585.86547
 30
0.0
 70
0
  0
VERTEX
  5
79
  8
1
 10
-3079.033033
 20
-585.140882
 30
0.0
 70
0
  0
VERTEX
  5
7A
  8
1
 10
-3063.57723
 20
-584.415342
 30
0.0
 70
0
  0
VERTEX
  5
7B
  8
1
 10
-3048.473574
 20
-583.706334
 30
0.0
 70
0
  0
VERTEX
  5
7C
  8
1
 10
-3033.017791
 20
-582.980793
 30
0.0
 70
0
  0
VERTEX
  5
7D
  8
1
 10
-3017.950924
 20
-582.273507
 30
0.0
 70
0
  0
VERTEX
  5
7E
  8
1
 10
-3002.495178
 20
-581.547965
 30
0.0
 70
0
  0
VERTEX
  5
7F
  8
1
 10
-2987.421369
 20
-580.840357
 30
0.0
 70
0
  0
VERTEX
  5
80
  8
1
 10
-2971.965636
 20
-580.114826
 30
0.0
 70
0
  0
VERTEX
  5
81
  8
1
 10
-2956.925185
 20
-579.40879
 30
0.0
 70
0
  0
VERTEX
  5
82
  8
1
 10
-2941.827323
 20
-578.700056
 30
0.0
 70
0
  0
VERTEX
  5
83
  8
1
 10
-2926.914281
 20
-577.999995
 30
0.0
 70
0
  0
VERTEX
  5
84
  8
1
 10
-2922.938843
 20
-577.813377
 30
0.0
 70
0
  0
VERTEX
  5
85
  8
1
 10
-2923.235474
 20
-577.828064
 30
0.0
 70
0
  0
VERTEX
  5
86
  8
1
 10
-2907.6445
 20
-576.361534
 30
0.0
 70
0
  0
VERTEX
  5
87
  8
1
 10
-2892.294935
 20
-574.843177
 30
0.0
 70
0
  0
VERTEX
  5
88
  8
1
 10
-2877.112682
 20
-573.243851
 30
0.0
 70
0
  0
VERTEX
  5
89
  8
1
 10
-2862.141148
 20
-571.576205
 30
0.0
 70
0
  0
VERTEX
  5
8A
  8
1
 10
-2847.17028
 20
-569.831561
 30
0.0
 70
0
  0
VERTEX
  5
8B
  8
1
 10
-2832.208713
 20
-568.009723
 30
0.0
 70
0
  0
VERTEX
  5
8C
  8
1
 10
-2816.995177
 20
-566.072107
 30
0.0
 70
0
  0
VERTEX
  5
8D
  8
1
 10
-2802.055068
 20
-564.081454
 30
0.0
 70
0
  0
VERTEX
  5
8E
  8
1
 10
-2787.103771
 20
-561.99685
 30
0.0
 70
0
  0
VERTEX
  5
8F
  8
1
 10
-2772.190281
 20
-559.815837
 30
0.0
 70
0
  0
VERTEX
  5
90
  8
1
 10
-2757.259931
 20
-557.520405
 30
0.0
 70
0
  0
VERTEX
  5
91
  8
1
 10
-2742.381296
 20
-555.113117
 30
0.0
 70
0
  0
VERTEX
  5
92
  8
1
 10
-2727.270326
 20
-552.540514
 30
0.0
 70
0
  0
VERTEX
  5
93
  8
1
 10
-2712.432064
 20
-549.895637
 30
0.0
 70
0
  0
VERTEX
  5
94
  8
1
 10
-2697.682679
 20
-547.159771
 30
0.0
 70
0
  0
VERTEX
  5
95
  8
1
 10
-2682.880872
 20
-544.31794
 30
0.0
 70
0
  0
VERTEX
  5
96
  8
1
 10
-2668.074824
 20
-541.388714
 30
0.0
 70
0
  0
VERTEX
  5
97
  8
1
 10
-2653.30514
 20
-538.384223
 30
0.0
 70
0
  0
VERTEX
  5
98
  8
1
 10
-2638.524486
 20
-535.295938
 30
0.0
 70
0
  0
VERTEX
  5
99
  8
1
 10
-2623.788464
 20
-532.131071
 30
0.0
 70
0
  0
VERTEX
  5
9A
  8
1
 10
-2609.148024
 20
-528.904824
 30
0.0
 70
0
  0
VERTEX
  5
9B
  8
1
 10
-2600.897827
 20
-527.060242
 30
0.0
 70
0
  0
VERTEX
  5
9C
  8
1
 10
-2596.004486
 20
-533.985395
 30
0.0
 70
0
  0
VERTEX
  5
9D
  8
1
 10
-2592.322512
 20
-538.79229
 30
0.0
 70
0
  0
VERTEX
  5
9E
  8
1
 10
-2589.250093
 20
-542.457533
 30
0.0
 70
0
  0
VERTEX
  5
9F
  8
1
 10
-2586.236942
 20
-545.660812
 30
0.0
 70
0
  0
VERTEX
  5
A0
  8
1
 10
-2583.245241
 20
-548.499468
 30
0.0
 70
0
  0
VERTEX
  5
A1
  8
1
 10
-2580.34413
 20
-550.93071
 30
0.0
 70
0
  0
VERTEX
  5
A2
  8
1
 10
-2577.531361
 20
-552.9823
 30
0.0
 70
0
  0
VERTEX
  5
A3
  8
1
 10
-2574.791159
 20
-554.682714
 30
0.0
 70
0
  0
VERTEX
  5
A4
  8
1
 10
-2571.793936
 20
-556.237546
 30
0.0
 70
0
  0
VERTEX
  5
A5
  8
1
 10
-2568.368892
 20
-557.719967
 30
0.0
 70
0
  0
VERTEX
  5
A6
  8
1
 10
-2564.551084
 20
-559.093478
 30
0.0
 70
0
  0
VERTEX
  5
A7
  8
1
 10
-2560.086617
 20
-560.4202
 30
0.0
 70
0
  0
VERTEX
  5
A8
  8
1
 10
-2554.724475
 20
-561.729004
 30
0.0
 70
0
  0
VERTEX
  5
A9
  8
1
 10
-2548.445726
 20
-562.998253
 30
0.0
 70
0
  0
VERTEX
  5
AA
  8
1
 10
-2541.437618
 20
-564.1559
 30
0.0
 70
0
  0
VERTEX
  5
AB
  8
1
 10
-2532.925602
 20
-565.287744
 30
0.0
 70
0
  0
VERTEX
  5
AC
  8
1
 10
-2522.129974
 20
-566.428299
 30
0.0
 70
0
  0
VERTEX
  5
AD
  8
1
 10
-2506.587641
 20
-567.716568
 30
0.0
 70
0
  0
VERTEX
  5
AE
  8
1
 10
-2491.210693
 20
-569.035496
 30
0.0
 70
0
  0
VERTEX
  5
AF
  8
1
 10
-2476.220163
 20
-570.380624
 30
0.0
 70
0
  0
VERTEX
  5
B0
  8
1
 10
-2461.209919
 20
-571.797273
 30
0.0
 70
0
  0
VERTEX
  5
B1
  8
1
 10
-2445.885926
 20
-573.321223
 30
0.0
 70
0
  0
VERTEX
  5
B2
  8
1
 10
-2430.890689
 20
-574.889081
 30
0.0
 70
0
  0
VERTEX
  5
B3
  8
1
 10
-2415.596095
 20
-576.565523
 30
0.0
 70
0
  0
VERTEX
  5
B4
  8
1
 10
-2400.617242
 20
-578.282577
 30
0.0
 70
0
  0
VERTEX
  5
B5
  8
1
 10
-2385.34272
 20
-580.10654
 30
0.0
 70
0
  0
VERTEX
  5
B6
  8
1
 10
-2370.378499
 20
-581.946522
 30
0.0
 70
0
  0
VERTEX
  5
B7
  8
1
 10
-2355.337002
 20
-583.826156
 30
0.0
 70
0
  0
VERTEX
  5
B8
  8
1
 10
-2344.989166
 20
-585.125961
 30
0.0
 70
0
  0
VERTEX
  5
B9
  8
1
 10
-2345.18332
 20
-601.009795
 30
0.0
 70
0
  0
VERTEX
  5
BA
  8
1
 10
-2345.323415
 20
-616.107442
 30
0.0
 70
0
  0
VERTEX
  5
BB
  8
1
 10
-2345.30257
 20
-631.627186
 30
0.0
 70
0
  0
VERTEX
  5
BC
  8
1
 10
-2345.038542
 20
-646.723769
 30
0.0
 70
0
  0
VERTEX
  5
BD
  8
1
 10
-2344.527693
 20
-661.655644
 30
0.0
 70
0
  0
VERTEX
  5
BE
  8
1
 10
-2343.779487
 20
-676.812538
 30
0.0
 70
0
  0
VERTEX
  5
BF
  8
1
 10
-2342.868806
 20
-691.751728
 30
0.0
 70
0
  0
VERTEX
  5
C0
  8
1
 10
-2341.93222
 20
-704.943771
 30
0.0
 70
0
  0
VERTEX
  5
C1
  8
1
 10
-2355.086075
 20
-706.858508
 30
0.0
 70
0
  0
VERTEX
  5
C2
  8
1
 10
-2360.346957
 20
-707.661032
 30
0.0
 70
0
  0
VERTEX
  5
C3
  8
1
 10
-2365.301191
 20
-708.706769
 30
0.0
 70
0
  0
VERTEX
  5
C4
  8
1
 10
-2370.358659
 20
-710.015119
 30
0.0
 70
0
  0
VERTEX
  5
C5
  8
1
 10
-2375.030318
 20
-711.469487
 30
0.0
 70
0
  0
VERTEX
  5
C6
  8
1
 10
-2379.484031
 20
-713.107634
 30
0.0
 70
0
  0
VERTEX
  5
C7
  8
1
 10
-2383.567346
 20
-714.866619
 30
0.0
 70
0
  0
VERTEX
  5
C8
  8
1
 10
-2387.241426
 20
-716.707302
 30
0.0
 70
0
  0
VERTEX
  5
C9
  8
1
 10
-2390.582412
 20
-718.647551
 30
0.0
 70
0
  0
VERTEX
  5
CA
  8
1
 10
-2393.571492
 20
-720.660431
 30
0.0
 70
0
  0
VERTEX
  5
CB
  8
1
 10
-2396.250284
 20
-722.758596
 30
0.0
 70
0
  0
VERTEX
  5
CC
  8
1
 10
-2398.549816
 20
-724.861998
 30
0.0
 70
0
  0
VERTEX
  5
CD
  8
1
 10
-2400.551861
 20
-727.012657
 30
0.0
 70
0
  0
VERTEX
  5
CE
  8
1
 10
-2402.323672
 20
-729.2807
 30
0.0
 70
0
  0
VERTEX
  5
CF
  8
1
 10
-2403.850087
 20
-731.648862
 30
0.0
 70
0
  0
VERTEX
  5
D0
  8
1
 10
-2405.212304
 20
-734.226817
 30
0.0
 70
0
  0
VERTEX
  5
D1
  8
1
 10
-2406.464629
 20
-737.135145
 30
0.0
 70
0
  0
VERTEX
  5
D2
  8
1
 10
-2407.584378
 20
-740.378478
 30
0.0
 70
0
  0
VERTEX
  5
D3
  8
1
 10
-2408.551553
 20
-743.948904
 30
0.0
 70
0
  0
VERTEX
  5
D4
  8
1
 10
-2409.370562
 20
-747.941947
 30
0.0
 70
0
  0
VERTEX
  5
D5
  8
1
 10
-2410.0242
 20
-752.415754
 30
0.0
 70
0
  0
VERTEX
  5
D6
  8
1
 10
-2410.479639
 20
-757.288491
 30
0.0
 70
0
  0
VERTEX
  5
D7
  8
1
 10
-2410.730325
 20
-762.75703
 30
0.0
 70
0
  0
VERTEX
  5
D8
  8
1
 10
-2410.75065
 20
-768.788539
 30
0.0
 70
0
  0
VERTEX
  5
D9
  8
1
 10
-2410.512154
 20
-775.732807
 30
0.0
 70
0
  0
VERTEX
  5
DA
  8
1
 10
-2409.992667
 20
-783.453789
 30
0.0
 70
0
  0
VERTEX
  5
DB
  8
1
 10
-2409.177466
 20
-791.789923
 30
0.0
 70
0
  0
VERTEX
  5
DC
  8
1
 10
-2407.988861
 20
-801.273634
 30
0.0
 70
0
  0
VERTEX
  5
DD
  8
1
 10
-2406.183276
 20
-813.430936
 30
0.0
 70
0
  0
VERTEX
  5
DE
  8
1
 10
-2403.787135
 20
-828.20871
 30
0.0
 70
0
  0
VERTEX
  5
DF
  8
1
 10
-2403.50647
 20
-829.899063
 30
0.0
 70
0
  0
VERTEX
  5
E0
  8
1
 10
-2405.31404
 20
-830.14782
 30
0.0
 70
0
  0
VERTEX
  5
E1
  8
1
 10
-2419.964472
 20
-832.047566
 30
0.0
 70
0
  0
VERTEX
  5
E2
  8
1
 10
-2435.19975
 20
-833.851873
 30
0.0
 70
0
  0
VERTEX
  5
E3
  8
1
 10
-2450.394155
 20
-835.461111
 30
0.0
 70
0
  0
VERTEX
  5
E4
  8
1
 10
-2464.785115
 20
-836.762349
 30
0.0
 70
0
  0
VERTEX
  5
E5
  8
1
 10
-2479.41074
 20
-837.835863
 30
0.0
 70
0
  0
VERTEX
  5
E6
  8
1
 10
-2494.638818
 20
-838.698889
 30
0.0
 70
0
  0
VERTEX
  5
E7
  8
1
 10
-2509.704009
 20
-839.310707
 30
0.0
 70
0
  0
VERTEX
  5
E8
  8
1
 10
-2524.949185
 20
-839.713418
 30
0.0
 70
0
  0
VERTEX
  5
E9
  8
1
 10
-2540.532712
 20
-839.947187
 30
0.0
 70
0
  0
VERTEX
  5
EA
  8
1
 10
-2555.782815
 20
-840.037458
 30
0.0
 70
0
  0
VERTEX
  5
EB
  8
1
 10
-2571.274597
 20
-840.004395
 30
0.0
 70
0
  0
VERTEX
  5
EC
  8
1
 10
-2586.524247
 20
-839.861563
 30
0.0
 70
0
  0
VERTEX
  5
ED
  8
1
 10
-2601.772681
 20
-839.62053
 30
0.0
 70
0
  0
VERTEX
  5
EE
  8
1
 10
-2617.011436
 20
-839.292087
 30
0.0
 70
0
  0
VERTEX
  5
EF
  8
1
 10
-2632.256301
 20
-838.884976
 30
0.0
 70
0
  0
VERTEX
  5
F0
  8
1
 10
-2647.798902
 20
-838.39819
 30
0.0
 70
0
  0
VERTEX
  5
F1
  8
1
 10
-2663.039692
 20
-837.860415
 30
0.0
 70
0
  0
VERTEX
  5
F2
  8
1
 10
-2678.404718
 20
-837.268075
 30
0.0
 70
0
  0
VERTEX
  5
F3
  8
1
 10
-2693.642058
 20
-836.642001
 30
0.0
 70
0
  0
VERTEX
  5
F4
  8
1
 10
-2708.960509
 20
-835.985384
 30
0.0
 70
0
  0
VERTEX
  5
F5
  8
1
 10
-2724.195989
 20
-835.316855
 30
0.0
 70
0
  0
VERTEX
  5
F6
  8
1
 10
-2739.434827
 20
-834.644187
 30
0.0
 70
0
  0
VERTEX
  5
F7
  8
1
 10
-2754.670284
 20
-833.973889
 30
0.0
 70
0
  0
VERTEX
  5
F8
  8
1
 10
-2770.21227
 20
-833.292859
 30
0.0
 70
0
  0
VERTEX
  5
F9
  8
1
 10
-2785.44804
 20
-832.627912
 30
0.0
 70
0
  0
VERTEX
  5
FA
  8
1
 10
-2800.74588
 20
-831.962626
 30
0.0
 70
0
  0
VERTEX
  5
FB
  8
1
 10
-2815.981767
 20
-831.302184
 30
0.0
 70
0
  0
VERTEX
  5
FC
  8
1
 10
-2831.525049
 20
-830.630561
 30
0.0
 70
0
  0
VERTEX
  5
FD
  8
1
 10
-2846.761183
 20
-829.974215
 30
0.0
 70
0
  0
VERTEX
  5
FE
  8
1
 10
-2861.897954
 20
-829.323941
 30
0.0
 70
0
  0
VERTEX
  5
FF
  8
1
 10
-2877.134208
 20
-828.671188
 30
0.0
 70
0
  0
VERTEX
  5
100
  8
1
 10
-2892.138315
 20
-828.030526
 30
0.0
 70
0
  0
VERTEX
  5
101
  8
1
 10
-2907.218453
 20
-827.388844
 30
0.0
 70
0
  0
SEQEND
  5
30
  8
1
  0
LINE
  5
102
  8
7
 10
-3341.298828
 20
-702.162857
 30
0.0
 11
-2446.712189
 21
-702.162857
 31
0.0
  0
ENDSEC
  0
EOF
