  0
SECTION
  2
HEADER
  9
$ACADVER
  1
AC1009
  9
$DWGCODEPAGE
  3
ANSI_1252
  9
$INSBASE
 10
0.0
 20
0.0
 30
0.0
  9
$EXTMIN
 10
1e+20
 20
1e+20
 30
1e+20
  9
$EXTMAX
 10
-1e+20
 20
-1e+20
 30
-1e+20
  9
$LIMMIN
 10
0.0
 20
0.0
  9
$LIMMAX
 10
420.0
 20
297.0
  9
$ORTHOMODE
 70
0
  9
$REGENMODE
 70
1
  9
$FILLMODE
 70
1
  9
$DRAGMODE
 70
2
  9
$QTEXTMODE
 70
0
  9
$MIRRTEXT
 70
1
  9
$OSMODE
 70
20583
  9
$LTSCALE
 40
1.0
  9
$ATTMODE
 70
1
  9
$TEXTSIZE
 40
2.5
  9
$TRACEWID
 40
1.0
  9
$TEXTSTYLE
  7
Standard
  9
$CLAYER
  8
0
  9
$CELTYPE
  6
ByLayer
  9
$CECOLOR
 62
256
  9
$DIMSCALE
 40
1.0
  9
$DIMASZ
 40
2.5
  9
$DIMEXO
 40
0.625
  9
$DIMDLI
 40
3.75
  9
$DIMRND
 40
0.0
  9
$DIMDLE
 40
0.0
  9
$DIMEXE
 40
1.25
  9
$DIMTP
 40
0.0
  9
$DIMTM
 40
0.0
  9
$DIMTXT
 40
2.5
  9
$DIMCEN
 40
2.5
  9
$DIMTSZ
 40
0.0
  9
$DIMTOL
 70
0
  9
$DIMLIM
 70
0
  9
$DIMTIH
 70
0
  9
$DIMTOH
 70
0
  9
$DIMSE1
 70
0
  9
$DIMSE2
 70
0
  9
$DIMTAD
 70
1
  9
$DIMZIN
 70
8
  9
$DIMBLK
  1

  9
$DIMASO
 70
1
  9
$DIMSHO
 70
1
  9
$DIMPOST
  1

  9
$DIMAPOST
  1

  9
$DIMALT
 70
0
  9
$DIMALTD
 70
3
  9
$DIMALTF
 40
0.03937007874
  9
$DIMLFAC
 40
1.0
  9
$DIMTOFL
 70
1
  9
$DIMTVP
 40
0.0
  9
$DIMTIX
 70
0
  9
$DIMSOXD
 70
0
  9
$DIMSAH
 70
0
  9
$DIMBLK1
  1

  9
$DIMBLK2
  1

  9
$DIMSTYLE
  2
ISO-25
  9
$DIMCLRD
 70
0
  9
$DIMCLRE
 70
0
  9
$DIMCLRT
 70
0
  9
$DIMTFAC
 40
1.0
  9
$DIMGAP
 40
0.625
  9
$COORDS
 70
1
  9
$ATTDIA
 70
0
  9
$ATTREQ
 70
1
  9
$HANDLING
 70
1
  9
$LUNITS
 70
2
  9
$LUPREC
 70
4
  9
$SKETCHINC
 40
1.0
  9
$FILLETRAD
 40
10.0
  9
$AUNITS
 70
0
  9
$AUPREC
 70
2
  9
$MENU
  1
.
  9
$ELEVATION
 40
0.0
  9
$PELEVATION
 40
0.0
  9
$THICKNESS
 40
0.0
  9
$LIMCHECK
 70
0
  9
$CHAMFERA
 40
0.0
  9
$CHAMFERB
 40
0.0
  9
$SKPOLY
 70
0
  9
$TDCREATE
 40
2461264.9423032408
  9
$TDUPDATE
 40
2461264.9423032408
  9
$TDINDWG
 40
0.0
  9
$TDUSRTIMER
 40
0.0
  9
$USRTIMER
 70
1
  9
$ANGBASE
 50
0.0
  9
$ANGDIR
 70
0
  9
$PDMODE
 70
0
  9
$PDSIZE
 40
0.0
  9
$PLINEWID
 40
0.0
  9
$SPLFRAME
 70
0
  9
$SPLINETYPE
 70
6
  9
$SPLINESEGS
 70
8
  9
$HANDSEED
  5
21A
  9
$SURFTAB1
 70
6
  9
$SURFTAB2
 70
6
  9
$SURFTYPE
 70
6
  9
$SURFU
 70
6
  9
$SURFV
 70
6
  9
$UCSNAME
  2

  9
$UCSORG
 10
0.0
 20
0.0
 30
0.0
  9
$UCSXDIR
 10
1.0
 20
0.0
 30
0.0
  9
$UCSYDIR
 10
0.0
 20
1.0
 30
0.0
  9
$PUCSNAME
  2

  9
$PUCSORG
 10
0.0
 20
0.0
 30
0.0
  9
$PUCSXDIR
 10
1.0
 20
0.0
 30
0.0
  9
$PUCSYDIR
 10
0.0
 20
1.0
 30
0.0
  9
$USERI1
 70
0
  9
$USERI2
 70
0
  9
$USERI3
 70
0
  9
$USERI4
 70
0
  9
$USERI5
 70
0
  9
$USERR1
 40
0.0
  9
$USERR2
 40
0.0
  9
$USERR3
 40
0.0
  9
$USERR4
 40
0.0
  9
$USERR5
 40
0.0
  9
$WORLDVIEW
 70
1
  9
$SHADEDGE
 70
3
  9
$SHADEDIF
 70
70
  9
$TILEMODE
 70
1
  9
$MAXACTVP
 70
64
  9
$PLIMCHECK
 70
0
  9
$PEXTMIN
 10
1e+20
 20
1e+20
 30
1e+20
  9
$PEXTMAX
 10
-1e+20
 20
-1e+20
 30
-1e+20
  9
$PLIMMIN
 10
0.0
 20
0.0
  9
$PLIMMAX
 10
420.0
 20
297.0
  9
$UNITMODE
 70
0
  9
$VISRETAIN
 70
1
  9
$PLINEGEN
 70
0
  9
$PSLTSCALE
 70
1
  0
ENDSEC
  0
SECTION
  2
TABLES
  0
TABLE
  2
VPORT
 70
1
  0
VPORT
  5
23
  2
*Active
 70
0
 10
0.0
 20
0.0
 11
1.0
 21
1.0
 12
0.0
 22
0.0
 13
0.0
 23
0.0
 14
0.5
 24
0.5
 15
0.5
 25
0.5
 16
0.0
 26
0.0
 36
1.0
 17
0.0
 27
0.0
 37
0.0
 40
1000.0
 41
1.34
 42
50.0
 43
0.0
 44
0.0
 50
0.0
 51
0.0
 71
0
 72
1000
 73
1
 74
3
 75
0
 76
0
 77
0
 78
0
  0
ENDTAB
  0
TABLE
  2
LTYPE
 70
3
  0
LTYPE
  5
24
  2
ByBlock
 70
0
  3

 72
65
 73
0
 40
0.0
  0
LTYPE
  5
25
  2
ByLayer
 70
0
  3

 72
65
 73
0
 40
0.0
  0
LTYPE
  5
26
  2
Continuous
 70
0
  3

 72
65
 73
0
 40
0.0
  0
ENDTAB
  0
TABLE
  2
LAYER
 70
7
  0
LAYER
  5
27
  2
0
 70
0
 62
7
  6
Continuous
  0
LAYER
  5
28
  2
Defpoints
 70
0
 62
7
  6
Continuous
  0
LAYER
  5
2D
  2
1
 70
0
 62
1
  6
Continuous
  0
LAYER
  5
2E
  2
7
 70
0
 62
7
  6
Continuous
  0
LAYER
  5
2F
  2
14
 70
0
 62
3
  6
Continuous
  0
LAYER
  5
30
  2
8
 70
0
 62
6
  6
Continuous
  0
LAYER
  5
31
  2
4
 70
0
 62
2
  6
Continuous
  0
ENDTAB
  0
TABLE
  2
STYLE
 70
1
  0
STYLE
  5
29
  2
Standard
 70
0
 40
0.0
 41
1.0
 50
0.0
 71
0
 42
2.5
  3
txt
  4

  0
ENDTAB
  0
TABLE
  2
VIEW
 70
0
  0
ENDTAB
  0
TABLE
  2
UCS
 70
0
  0
ENDTAB
  0
TABLE
  2
APPID
 70
3
  0
APPID
  5
2A
  2
ACAD
 70
0
  0
APPID
  5
218
  2
HATCHBACKGROUNDCOLOR
 70
0
  0
APPID
  5
219
  2
EZDXF
 70
0
  0
ENDTAB
  0
TABLE
  2
DIMSTYLE
 70
1
  0
DIMSTYLE
105
2B
  2
Standard
 70
0
  3

  4

  5

  6

  7

 40
1.0
 41
2.5
 42
0.625
 43
3.75
 44
1.25
 45
0.0
 46
0.0
 47
0.0
 48
0.0
140
2.5
141
2.5
142
0.0
143
0.03937007874
144
1.0
145
0.0
146
1.0
147
0.625
 71
0
 72
0
 73
0
 74
0
 75
0
 76
0
 77
1
 78
8
170
0
171
3
172
1
173
0
174
0
175
0
176
0
177
0
178
0
  0
ENDTAB
  0
ENDSEC
  0
SECTION
  2
BLOCKS
  0
BLOCK
  5
18
  8
0
  2
$Model_Space
 70
0
 10
0.0
 20
0.0
 30
0.0
  3
$Model_Space
  1

1001
EZDXF
1000
CREATED_BY_EZDXF
1000
1.4.4 @ 2026-08-11T14:36:55.659939+00:00
1000
WRITTEN_BY_EZDXF
1000
1.4.4 @ 2026-08-11T14:36:55.663940+00:00
  0
ENDBLK
  5
19
  8
0
  0
BLOCK
  5
1C
  8
0
  2
$Paper_Space
 70
0
 10
0.0
 20
0.0
 30
0.0
  3
$Paper_Space
  1

  0
ENDBLK
  5
1D
  8
0
  0
ENDSEC
  0
SECTION
  2
ENTITIES
  0
POLYLINE
  5
32
  8
1
 66
1
 10
0.0
 20
0.0
 30
0.0
 70
1
  0
VERTEX
  5
34
  8
1
 10
-2922.888794
 20
-831.80397
 30
0.0
 70
0
  0
VERTEX
  5
35
  8
1
 10
-2922.828064
 20
-831.806259
 30
0.0
 70
0
  0
VERTEX
  5
36
  8
1
 10
-2930.510276
 20
-831.514352
 30
0.0
 70
0
  0
VERTEX
  5
37
  8
1
 10
-2945.416331
 20
-830.942143
 30
0.0
 70
0
  0
VERTEX
  5
38
  8
1
 10
-2960.44021
 20
-830.355185
 30
0.0
 70
0
  0
VERTEX
  5
39
  8
1
 10
-2975.655386
 20
-829.750676
 30
0.0
 70
0
  0
VERTEX
  5
3A
  8
1
 10
-2990.696146
 20
-829.145249
 30
0.0
 70
0
  0
VERTEX
  5
3B
  8
1
 10
-3005.910593
 20
-828.525431
 30
0.0
 70
0
  0
VERTEX
  5
3C
  8
1
 10
-3021.25633
 20
-827.892243
 30
0.0
 70
0
  0
VERTEX
  5
3D
  8
1
 10
-3036.47015
 20
-827.256279
 30
0.0
 70
0
  0
VERTEX
  5
3E
  8
1
 10
-3051.751876
 20
-826.609152
 30
0.0
 70
0
  0
VERTEX
  5
3F
  8
1
 10
-3066.965084
 20
-825.956472
 30
0.0
 70
0
  0
VERTEX
  5
40
  8
1
 10
-3082.177879
 20
-825.29499
 30
0.0
 70
0
  0
VERTEX
  5
41
  8
1
 10
-3097.236372
 20
-824.631122
 30
0.0
 70
0
  0
VERTEX
  5
42
  8
1
 10
-3112.448309
 20
-823.950839
 30
0.0
 70
0
  0
VERTEX
  5
43
  8
1
 10
-3127.808958
 20
-823.253534
 30
0.0
 70
0
  0
VERTEX
  5
44
  8
1
 10
-3143.019892
 20
-822.551951
 30
0.0
 70
0
  0
VERTEX
  5
45
  8
1
 10
-3158.497182
 20
-821.825863
 30
0.0
 70
0
  0
VERTEX
  5
46
  8
1
 10
-3173.706979
 20
-821.099787
 30
0.0
 70
0
  0
VERTEX
  5
47
  8
1
 10
-3189.181861
 20
-820.348031
 30
0.0
 70
0
  0
VERTEX
  5
48
  8
1
 10
-3204.390487
 20
-819.596939
 30
0.0
 70
0
  0
VERTEX
  5
49
  8
1
 10
-3219.53971
 20
-818.837787
 30
0.0
 70
0
  0
VERTEX
  5
4A
  8
1
 10
-3234.747278
 20
-818.065543
 30
0.0
 70
0
  0
VERTEX
  5
4B
  8
1
 10
-3249.754655
 20
-817.294089
 30
0.0
 70
0
  0
VERTEX
  5
4C
  8
1
 10
-3264.961281
 20
-816.503362
 30
0.0
 70
0
  0
VERTEX
  5
4D
  8
1
 10
-3280.167412
 20
-815.703869
 30
0.0
 70
0
  0
VERTEX
  5
4E
  8
1
 10
-3295.275185
 20
-814.901162
 30
0.0
 70
0
  0
VERTEX
  5
4F
  8
1
 10
-3310.480417
 20
-814.085385
 30
0.0
 70
0
  0
VERTEX
  5
50
  8
1
 10
-3325.709181
 20
-813.261
 30
0.0
 70
0
  0
VERTEX
  5
51
  8
1
 10
-3340.913549
 20
-812.429767
 30
0.0
 70
0
  0
VERTEX
  5
52
  8
1
 10
-3356.061102
 20
-811.591337
 30
0.0
 70
0
  0
VERTEX
  5
53
  8
1
 10
-3371.26441
 20
-810.740071
 30
0.0
 70
0
  0
VERTEX
  5
54
  8
1
 10
-3385.264282
 20
-809.951553
 30
0.0
 70
0
  0
VERTEX
  5
55
  8
1
 10
-3386.396061
 20
-809.887844
 30
0.0
 70
0
  0
VERTEX
  5
56
  8
1
 10
-3401.487969
 20
-809.037023
 30
0.0
 70
0
  0
VERTEX
  5
57
  8
1
 10
-3417.006836
 20
-808.162079
 30
0.0
 70
0
  0
VERTEX
  5
58
  8
1
 10
-3416.937351
 20
-792.330124
 30
0.0
 70
0
  0
VERTEX
  5
59
  8
1
 10
-3416.870862
 20
-777.167592
 30
0.0
 70
0
  0
VERTEX
  5
5A
  8
1
 10
-3416.804426
 20
-762.005065
 30
0.0
 70
0
  0
VERTEX
  5
5B
  8
1
 10
-3416.738142
 20
-746.868291
 30
0.0
 70
0
  0
VERTEX
  5
5C
  8
1
 10
-3416.671754
 20
-731.70578
 30
0.0
 70
0
  0
VERTEX
  5
5D
  8
1
 10
-3416.605088
 20
-716.485462
 30
0.0
 70
0
  0
VERTEX
  5
5E
  8
1
 10
-3416.538641
 20
-701.32294
 30
0.0
 70
0
  0
VERTEX
  5
5F
  8
1
 10
-3416.471935
 20
-686.106719
 30
0.0
 70
0
  0
VERTEX
  5
60
  8
1
 10
-3416.405455
 20
-670.944191
 30
0.0
 70
0
  0
VERTEX
  5
61
  8
1
 10
-3416.340315
 20
-656.085942
 30
0.0
 70
0
  0
VERTEX
  5
62
  8
1
 10
-3416.271965
 20
-640.490181
 30
0.0
 70
0
  0
VERTEX
  5
63
  8
1
 10
-3416.205538
 20
-625.327655
 30
0.0
 70
0
  0
VERTEX
  5
64
  8
1
 10
-3416.138566
 20
-610.034391
 30
0.0
 70
0
  0
VERTEX
  5
65
  8
1
 10
-3416.083374
 20
-597.424126
 30
0.0
 70
0
  0
VERTEX
  5
66
  8
1
 10
-3400.583023
 20
-596.687971
 30
0.0
 70
0
  0
VERTEX
  5
67
  8
1
 10
-3385.272668
 20
-595.960843
 30
0.0
 70
0
  0
VERTEX
  5
68
  8
1
 10
-3384.326477
 20
-595.915909
 30
0.0
 70
0
  0
VERTEX
  5
69
  8
1
 10
-3370.046308
 20
-595.237707
 30
0.0
 70
0
  0
VERTEX
  5
6A
  8
1
 10
-3354.593057
 20
-594.503795
 30
0.0
 70
0
  0
VERTEX
  5
6B
  8
1
 10
-3339.434591
 20
-593.783878
 30
0.0
 70
0
  0
VERTEX
  5
6C
  8
1
 10
-3324.228116
 20
-593.061678
 30
0.0
 70
0
  0
VERTEX
  5
6D
  8
1
 10
-3308.774869
 20
-592.327755
 30
0.0
 70
0
  0
VERTEX
  5
6E
  8
1
 10
-3293.368172
 20
-591.596045
 30
0.0
 70
0
  0
VERTEX
  5
6F
  8
1
 10
-3277.91489
 20
-590.862127
 30
0.0
 70
0
  0
VERTEX
  5
70
  8
1
 10
-3262.879882
 20
-590.148075
 30
0.0
 70
0
  0
VERTEX
  5
71
  8
1
 10
-3247.426583
 20
-589.414155
 30
0.0
 70
0
  0
VERTEX
  5
72
  8
1
 10
-3232.377688
 20
-588.699442
 30
0.0
 70
0
  0
VERTEX
  5
73
  8
1
 10
-3216.924356
 20
-587.965524
 30
0.0
 70
0
  0
VERTEX
  5
74
  8
1
 10
-3201.915225
 20
-587.252704
 30
0.0
 70
0
  0
VERTEX
  5
75
  8
1
 10
-3186.461917
 20
-586.518787
 30
0.0
 70
0
  0
VERTEX
  5
76
  8
1
 10
-3171.067793
 20
-585.78768
 30
0.0
 70
0
  0
VERTEX
  5
77
  8
1
 10
-3155.614533
 20
-585.053764
 30
0.0
 70
0
  0
VERTEX
  5
78
  8
1
 10
-3140.564275
 20
-584.338985
 30
0.0
 70
0
  0
VERTEX
  5
79
  8
1
 10
-3125.11101
 20
-583.605064
 30
0.0
 70
0
  0
VERTEX
  5
7A
  8
1
 10
-3109.952487
 20
-582.885143
 30
0.0
 70
0
  0
VERTEX
  5
7B
  8
1
 10
-3094.499203
 20
-582.151229
 30
0.0
 70
0
  0
VERTEX
  5
7C
  8
1
 10
-3079.052937
 20
-581.417649
 30
0.0
 70
0
  0
VERTEX
  5
7D
  8
1
 10
-3063.599552
 20
-580.68373
 30
0.0
 70
0
  0
VERTEX
  5
7E
  8
1
 10
-3048.486235
 20
-579.965958
 30
0.0
 70
0
  0
VERTEX
  5
7F
  8
1
 10
-3033.032964
 20
-579.232036
 30
0.0
 70
0
  0
VERTEX
  5
80
  8
1
 10
-3017.984073
 20
-578.517321
 30
0.0
 70
0
  0
VERTEX
  5
81
  8
1
 10
-3002.530701
 20
-577.783399
 30
0.0
 70
0
  0
VERTEX
  5
82
  8
1
 10
-2987.449024
 20
-577.06713
 30
0.0
 70
0
  0
VERTEX
  5
83
  8
1
 10
-2971.995787
 20
-576.333212
 30
0.0
 70
0
  0
VERTEX
  5
84
  8
1
 10
-2956.950444
 20
-575.618666
 30
0.0
 70
0
  0
VERTEX
  5
85
  8
1
 10
-2941.85649
 20
-574.901812
 30
0.0
 70
0
  0
VERTEX
  5
86
  8
1
 10
-2926.957362
 20
-574.19421
 30
0.0
 70
0
  0
VERTEX
  5
87
  8
1
 10
-2922.945862
 20
-574.003716
 30
0.0
 70
0
  0
VERTEX
  5
88
  8
1
 10
-2923.29895
 20
-574.021416
 30
0.0
 70
0
  0
VERTEX
  5
89
  8
1
 10
-2907.580388
 20
-572.39243
 30
0.0
 70
0
  0
VERTEX
  5
8A
  8
1
 10
-2892.398123
 20
-570.745256
 30
0.0
 70
0
  0
VERTEX
  5
8B
  8
1
 10
-2876.886289
 20
-568.9619
 30
0.0
 70
0
  0
VERTEX
  5
8C
  8
1
 10
-2862.223868
 20
-567.187613
 30
0.0
 70
0
  0
VERTEX
  5
8D
  8
1
 10
-2846.732738
 20
-565.232622
 30
0.0
 70
0
  0
VERTEX
  5
8E
  8
1
 10
-2832.003498
 20
-563.295737
 30
0.0
 70
0
  0
VERTEX
  5
8F
  8
1
 10
-2816.534228
 20
-561.174703
 30
0.0
 70
0
  0
VERTEX
  5
90
  8
1
 10
-2802.067668
 20
-559.10648
 30
0.0
 70
0
  0
VERTEX
  5
91
  8
1
 10
-2786.624506
 20
-556.802686
 30
0.0
 70
0
  0
VERTEX
  5
92
  8
1
 10
-2772.173591
 20
-554.547937
 30
0.0
 70
0
  0
VERTEX
  5
93
  8
1
 10
-2756.764352
 20
-552.02756
 30
0.0
 70
0
  0
VERTEX
  5
94
  8
1
 10
-2742.128476
 20
-549.514455
 30
0.0
 70
0
  0
VERTEX
  5
95
  8
1
 10
-2726.761945
 20
-546.745611
 30
0.0
 70
0
  0
VERTEX
  5
96
  8
1
 10
-2711.538685
 20
-543.878129
 30
0.0
 70
0
  0
VERTEX
  5
97
  8
1
 10
-2696.709619
 20
-540.975964
 30
0.0
 70
0
  0
VERTEX
  5
98
  8
1
 10
-2681.891909
 20
-537.9799
 30
0.0
 70
0
  0
VERTEX
  5
99
  8
1
 10
-2667.098233
 20
-534.902353
 30
0.0
 70
0
  0
VERTEX
  5
9A
  8
1
 10
-2652.310317
 20
-531.742794
 30
0.0
 70
0
  0
VERTEX
  5
9B
  8
1
 10
-2637.550546
 20
-528.506682
 30
0.0
 70
0
  0
VERTEX
  5
9C
  8
1
 10
-2622.871141
 20
-525.202559
 30
0.0
 70
0
  0
VERTEX
  5
9D
  8
1
 10
-2608.087891
 20
-521.795566
 30
0.0
 70
0
  0
VERTEX
  5
9E
  8
1
 10
-2600.809021
 20
-520.096283
 30
0.0
 70
0
  0
VERTEX
  5
9F
  8
1
 10
-2595.928833
 20
-527.004779
 30
0.0
 70
0
  0
VERTEX
  5
A0
  8
1
 10
-2592.21878
 20
-531.851839
 30
0.0
 70
0
  0
VERTEX
  5
A1
  8
1
 10
-2589.041123
 20
-535.63923
 30
0.0
 70
0
  0
VERTEX
  5
A2
  8
1
 10
-2586.105085
 20
-538.755177
 30
0.0
 70
0
  0
VERTEX
  5
A3
  8
1
 10
-2583.113389
 20
-541.593697
 30
0.0
 70
0
  0
VERTEX
  5
A4
  8
1
 10
-2580.214292
 20
-544.023193
 30
0.0
 70
0
  0
VERTEX
  5
A5
  8
1
 10
-2577.401545
 20
-546.074792
 30
0.0
 70
0
  0
VERTEX
  5
A6
  8
1
 10
-2574.661135
 20
-547.775216
 30
0.0
 70
0
  0
VERTEX
  5
A7
  8
1
 10
-2571.663142
 20
-549.33038
 30
0.0
 70
0
  0
VERTEX
  5
A8
  8
1
 10
-2568.238816
 20
-550.81246
 30
0.0
 70
0
  0
VERTEX
  5
A9
  8
1
 10
-2564.421009
 20
-552.185985
 30
0.0
 70
0
  0
VERTEX
  5
AA
  8
1
 10
-2559.955493
 20
-553.512998
 30
0.0
 70
0
  0
VERTEX
  5
AB
  8
1
 10
-2554.594304
 20
-554.821536
 30
0.0
 70
0
  0
VERTEX
  5
AC
  8
1
 10
-2548.314058
 20
-556.091046
 30
0.0
 70
0
  0
VERTEX
  5
AD
  8
1
 10
-2541.304238
 20
-557.24888
 30
0.0
 70
0
  0
VERTEX
  5
AE
  8
1
 10
-2532.794069
 20
-558.380402
 30
0.0
 70
0
  0
VERTEX
  5
AF
  8
1
 10
-2522.0224
 20
-559.518623
 30
0.0
 70
0
  0
VERTEX
  5
B0
  8
1
 10
-2506.490957
 20
-560.70623
 30
0.0
 70
0
  0
VERTEX
  5
B1
  8
1
 10
-2491.282289
 20
-561.911037
 30
0.0
 70
0
  0
VERTEX
  5
B2
  8
1
 10
-2475.916965
 20
-563.186642
 30
0.0
 70
0
  0
VERTEX
  5
B3
  8
1
 10
-2460.892794
 20
-564.497444
 30
0.0
 70
0
  0
VERTEX
  5
B4
  8
1
 10
-2445.538942
 20
-565.905271
 30
0.0
 70
0
  0
VERTEX
  5
B5
  8
1
 10
-2430.204099
 20
-567.388538
 30
0.0
 70
0
  0
VERTEX
  5
B6
  8
1
 10
-2414.865591
 20
-568.95409
 30
0.0
 70
0
  0
VERTEX
  5
B7
  8
1
 10
-2399.779668
 20
-570.561308
 30
0.0
 70
0
  0
VERTEX
  5
B8
  8
1
 10
-2384.454235
 20
-572.251108
 30
0.0
 70
0
  0
VERTEX
  5
B9
  8
1
 10
-2369.519359
 20
-573.958949
 30
0.0
 70
0
  0
VERTEX
  5
BA
  8
1
 10
-2354.208093
 20
-575.771715
 30
0.0
 70
0
  0
VERTEX
  5
BB
  8
1
 10
-2339.341097
 20
-577.559476
 30
0.0
 70
0
  0
VERTEX
  5
BC
  8
1
 10
-2334.838867
 20
-578.102036
 30
0.0
 70
0
  0
VERTEX
  5
BD
  8
1
 10
-2335.082483
 20
-594.064553
 30
0.0
 70
0
  0
VERTEX
  5
BE
  8
1
 10
-2335.279462
 20
-609.506768
 30
0.0
 70
0
  0
VERTEX
  5
BF
  8
1
 10
-2335.336666
 20
-624.833747
 30
0.0
 70
0
  0
VERTEX
  5
C0
  8
1
 10
-2335.182836
 20
-640.276725
 30
0.0
 70
0
  0
VERTEX
  5
C1
  8
1
 10
-2334.805721
 20
-655.50433
 30
0.0
 70
0
  0
VERTEX
  5
C2
  8
1
 10
-2334.197849
 20
-670.936089
 30
0.0
 70
0
  0
VERTEX
  5
C3
  8
1
 10
-2333.410313
 20
-686.011316
 30
0.0
 70
0
  0
VERTEX
  5
C4
  8
1
 10
-2332.468324
 20
-701.22275
 30
0.0
 70
0
  0
VERTEX
  5
C5
  8
1
 10
-2331.746979
 20
-711.79451
 30
0.0
 70
0
  0
VERTEX
  5
C6
  8
1
 10
-2344.885431
 20
-713.706951
 30
0.0
 70
0
  0
VERTEX
  5
C7
  8
1
 10
-2350.146262
 20
-714.509504
 30
0.0
 70
0
  0
VERTEX
  5
C8
  8
1
 10
-2355.100394
 20
-715.555265
 30
0.0
 70
0
  0
VERTEX
  5
C9
  8
1
 10
-2360.15776
 20
-716.863544
 30
0.0
 70
0
  0
VERTEX
  5
CA
  8
1
 10
-2364.82999
 20
-718.318064
 30
0.0
 70
0
  0
VERTEX
  5
CB
  8
1
 10
-2369.283571
 20
-719.956216
 30
0.0
 70
0
  0
VERTEX
  5
CC
  8
1
 10
-2373.366824
 20
-721.715257
 30
0.0
 70
0
  0
VERTEX
  5
CD
  8
1
 10
-2377.040819
 20
-723.555929
 30
0.0
 70
0
  0
VERTEX
  5
CE
  8
1
 10
-2380.381772
 20
-725.496133
 30
0.0
 70
0
  0
VERTEX
  5
CF
  8
1
 10
-2383.370799
 20
-727.508963
 30
0.0
 70
0
  0
VERTEX
  5
D0
  8
1
 10
-2386.049603
 20
-729.607151
 30
0.0
 70
0
  0
VERTEX
  5
D1
  8
1
 10
-2388.349119
 20
-731.71056
 30
0.0
 70
0
  0
VERTEX
  5
D2
  8
1
 10
-2390.351132
 20
-733.86124
 30
0.0
 70
0
  0
VERTEX
  5
D3
  8
1
 10
-2392.122913
 20
-736.129284
 30
0.0
 70
0
  0
VERTEX
  5
D4
  8
1
 10
-2393.649368
 20
-738.497384
 30
0.0
 70
0
  0
VERTEX
  5
D5
  8
1
 10
-2395.011576
 20
-741.075255
 30
0.0
 70
0
  0
VERTEX
  5
D6
  8
1
 10
-2396.263818
 20
-743.98356
 30
0.0
 70
0
  0
VERTEX
  5
D7
  8
1
 10
-2397.383564
 20
-747.226927
 30
0.0
 70
0
  0
VERTEX
  5
D8
  8
1
 10
-2398.35075
 20
-750.797434
 30
0.0
 70
0
  0
VERTEX
  5
D9
  8
1
 10
-2399.169801
 20
-754.790525
 30
0.0
 70
0
  0
VERTEX
  5
DA
  8
1
 10
-2399.823513
 20
-759.264315
 30
0.0
 70
0
  0
VERTEX
  5
DB
  8
1
 10
-2400.279016
 20
-764.137543
 30
0.0
 70
0
  0
VERTEX
  5
DC
  8
1
 10
-2400.529648
 20
-769.605581
 30
0.0
 70
0
  0
VERTEX
  5
DD
  8
1
 10
-2400.549912
 20
-775.637699
 30
0.0
 70
0
  0
VERTEX
  5
DE
  8
1
 10
-2400.311372
 20
-782.58133
 30
0.0
 70
0
  0
VERTEX
  5
DF
  8
1
 10
-2399.791792
 20
-790.303112
 30
0.0
 70
0
  0
VERTEX
  5
E0
  8
1
 10
-2398.976655
 20
-798.638417
 30
0.0
 70
0
  0
VERTEX
  5
E1
  8
1
 10
-2397.787919
 20
-808.1231
 30
0.0
 70
0
  0
VERTEX
  5
E2
  8
1
 10
-2395.982162
 20
-820.281669
 30
0.0
 70
0
  0
VERTEX
  5
E3
  8
1
 10
-2393.584936
 20
-835.066892
 30
0.0
 70
0
  0
VERTEX
  5
E4
  8
1
 10
-2393.301239
 20
-836.775589
 30
0.0
 70
0
  0
VERTEX
  5
E5
  8
1
 10
-2394.488479
 20
-836.931572
 30
0.0
 70
0
  0
VERTEX
  5
E6
  8
1
 10
-2409.20477
 20
-838.771061
 30
0.0
 70
0
  0
VERTEX
  5
E7
  8
1
 10
-2424.034159
 20
-840.487764
 30
0.0
 70
0
  0
VERTEX
  5
E8
  8
1
 10
-2439.20044
 20
-842.081783
 30
0.0
 70
0
  0
VERTEX
  5
E9
  8
1
 10
-2454.176117
 20
-843.444202
 30
0.0
 70
0
  0
VERTEX
  5
EA
  8
1
 10
-2469.160535
 20
-844.564508
 30
0.0
 70
0
  0
VERTEX
  5
EB
  8
1
 10
-2483.671347
 20
-845.40302
 30
0.0
 70
0
  0
VERTEX
  5
EC
  8
1
 10
-2498.683982
 20
-846.035619
 30
0.0
 70
0
  0
VERTEX
  5
ED
  8
1
 10
-2514.218693
 20
-846.481053
 30
0.0
 70
0
  0
VERTEX
  5
EE
  8
1
 10
-2529.241954
 20
-846.748074
 30
0.0
 70
0
  0
VERTEX
  5
EF
  8
1
 10
-2544.282135
 20
-846.888727
 30
0.0
 70
0
  0
VERTEX
  5
F0
  8
1
 10
-2559.307674
 20
-846.917815
 30
0.0
 70
0
  0
VERTEX
  5
F1
  8
1
 10
-2574.800492
 20
-846.833625
 30
0.0
 70
0
  0
VERTEX
  5
F2
  8
1
 10
-2589.824821
 20
-846.636003
 30
0.0
 70
0
  0
VERTEX
  5
F3
  8
1
 10
-2605.126117
 20
-846.307732
 30
0.0
 70
0
  0
VERTEX
  5
F4
  8
1
 10
-2620.145318
 20
-845.869614
 30
0.0
 70
0
  0
VERTEX
  5
F5
  8
1
 10
-2635.161905
 20
-845.342253
 30
0.0
 70
0
  0
VERTEX
  5
F6
  8
1
 10
-2650.326651
 20
-844.745306
 30
0.0
 70
0
  0
VERTEX
  5
F7
  8
1
 10
-2665.338714
 20
-844.109155
 30
0.0
 70
0
  0
VERTEX
  5
F8
  8
1
 10
-2680.626667
 20
-843.424462
 30
0.0
 70
0
  0
VERTEX
  5
F9
  8
1
 10
-2695.635901
 20
-842.724877
 30
0.0
 70
0
  0
VERTEX
  5
FA
  8
1
 10
-2710.747389
 20
-842.002169
 30
0.0
 70
0
  0
VERTEX
  5
FB
  8
1
 10
-2725.755213
 20
-841.2747
 30
0.0
 70
0
  0
VERTEX
  5
FC
  8
1
 10
-2740.849574
 20
-840.54123
 30
0.0
 70
0
  0
VERTEX
  5
FD
  8
1
 10
-2755.857425
 20
-839.81397
 30
0.0
 70
0
  0
VERTEX
  5
FE
  8
1
 10
-2771.184377
 20
-839.072866
 30
0.0
 70
0
  0
VERTEX
  5
FF
  8
1
 10
-2786.192348
 20
-838.348455
 30
0.0
 70
0
  0
VERTEX
  5
100
  8
1
 10
-2801.177058
 20
-837.626426
 30
0.0
 70
0
  0
VERTEX
  5
101
  8
1
 10
-2816.185167
 20
-836.904517
 30
0.0
 70
0
  0
VERTEX
  5
102
  8
1
 10
-2831.250243
 20
-836.181049
 30
0.0
 70
0
  0
VERTEX
  5
103
  8
1
 10
-2846.258459
 20
-835.461409
 30
0.0
 70
0
  0
VERTEX
  5
104
  8
1
 10
-2861.273888
 20
-834.742441
 30
0.0
 70
0
  0
VERTEX
  5
105
  8
1
 10
-2876.282284
 20
-834.024814
 30
0.0
 70
0
  0
VERTEX
  5
106
  8
1
 10
-2891.846617
 20
-833.281884
 30
0.0
 70
0
  0
VERTEX
  5
107
  8
1
 10
-2907.208331
 20
-832.549994
 30
0.0
 70
0
  0
SEQEND
  5
33
  8
1
  0
POLYLINE
  5
108
  8
14
 66
1
 10
0.0
 20
0.0
 30
0.0
 70
1
  0
VERTEX
  5
10A
  8
14
 10
-2922.345886
 20
-819.115448
 30
0.0
 70
0
  0
VERTEX
  5
10B
  8
14
 10
-2922.345886
 20
-819.115448
 30
0.0
 70
0
  0
VERTEX
  5
10C
  8
14
 10
-2931.542359
 20
-818.767329
 30
0.0
 70
0
  0
VERTEX
  5
10D
  8
14
 10
-2946.009484
 20
-818.209667
 30
0.0
 70
0
  0
VERTEX
  5
10E
  8
14
 10
-2963.011094
 20
-817.543049
 30
0.0
 70
0
  0
VERTEX
  5
10F
  8
14
 10
-2980.03653
 20
-816.864823
 30
0.0
 70
0
  0
VERTEX
  5
110
  8
14
 10
-2995.316093
 20
-816.247537
 30
0.0
 70
0
  0
VERTEX
  5
111
  8
14
 10
-3011.907886
 20
-815.56817
 30
0.0
 70
0
  0
VERTEX
  5
112
  8
14
 10
-3029.661792
 20
-814.830714
 30
0.0
 70
0
  0
VERTEX
  5
113
  8
14
 10
-3048.427694
 20
-814.039162
 30
0.0
 70
0
  0
VERTEX
  5
114
  8
14
 10
-3068.055474
 20
-813.197506
 30
0.0
 70
0
  0
VERTEX
  5
115
  8
14
 10
-3083.251576
 20
-812.535785
 30
0.0
 70
0
  0
VERTEX
  5
116
  8
14
 10
-3098.784748
 20
-811.849809
 30
0.0
 70
0
  0
VERTEX
  5
117
  8
14
 10
-3114.591625
 20
-811.141264
 30
0.0
 70
0
  0
VERTEX
  5
118
  8
14
 10
-3130.608876
 20
-810.411832
 30
0.0
 70
0
  0
VERTEX
  5
119
  8
14
 10
-3146.773171
 20
-809.663199
 30
0.0
 70
0
  0
VERTEX
  5
11A
  8
14
 10
-3163.021177
 20
-808.897048
 30
0.0
 70
0
  0
VERTEX
  5
11B
  8
14
 10
-3179.06703
 20
-808.126
 30
0.0
 70
0
  0
VERTEX
  5
11C
  8
14
 10
-3195.280718
 20
-807.332696
 30
0.0
 70
0
  0
VERTEX
  5
11D
  8
14
 10
-3211.359105
 20
-806.533098
 30
0.0
 70
0
  0
VERTEX
  5
11E
  8
14
 10
-3227.22083
 20
-805.732637
 30
0.0
 70
0
  0
VERTEX
  5
11F
  8
14
 10
-3242.784476
 20
-804.936744
 30
0.0
 70
0
  0
VERTEX
  5
120
  8
14
 10
-3262.931637
 20
-803.892048
 30
0.0
 70
0
  0
VERTEX
  5
121
  8
14
 10
-3282.211227
 20
-802.878002
 30
0.0
 70
0
  0
VERTEX
  5
122
  8
14
 10
-3300.430303
 20
-801.907482
 30
0.0
 70
0
  0
VERTEX
  5
123
  8
14
 10
-3317.395905
 20
-800.993362
 30
0.0
 70
0
  0
VERTEX
  5
124
  8
14
 10
-3332.91512
 20
-800.148515
 30
0.0
 70
0
  0
VERTEX
  5
125
  8
14
 10
-3349.986196
 20
-799.209483
 30
0.0
 70
0
  0
VERTEX
  5
126
  8
14
 10
-3366.559734
 20
-798.287478
 30
0.0
 70
0
  0
VERTEX
  5
127
  8
14
 10
-3385.20874
 20
-797.23465
 30
0.0
 70
0
  0
VERTEX
  5
128
  8
14
 10
-3385.20874
 20
-797.23465
 30
0.0
 70
0
  0
VERTEX
  5
129
  8
14
 10
-3385.120267
 20
-777.05096
 30
0.0
 70
0
  0
VERTEX
  5
12A
  8
14
 10
-3385.04934
 20
-760.870339
 30
0.0
 70
0
  0
VERTEX
  5
12B
  8
14
 10
-3384.965168
 20
-741.667992
 30
0.0
 70
0
  0
VERTEX
  5
12C
  8
14
 10
-3384.891473
 20
-724.85568
 30
0.0
 70
0
  0
VERTEX
  5
12D
  8
14
 10
-3384.81475
 20
-707.352687
 30
0.0
 70
0
  0
VERTEX
  5
12E
  8
14
 10
-3384.737421
 20
-689.711567
 30
0.0
 70
0
  0
VERTEX
  5
12F
  8
14
 10
-3384.661909
 20
-672.484845
 30
0.0
 70
0
  0
VERTEX
  5
130
  8
14
 10
-3384.590636
 20
-656.225082
 30
0.0
 70
0
  0
VERTEX
  5
131
  8
14
 10
-3384.526023
 20
-641.484814
 30
0.0
 70
0
  0
VERTEX
  5
132
  8
14
 10
-3384.458313
 20
-626.038021
 30
0.0
 70
0
  0
VERTEX
  5
133
  8
14
 10
-3384.396368
 20
-611.906404
 30
0.0
 70
0
  0
VERTEX
  5
134
  8
14
 10
-3384.382019
 20
-608.632851
 30
0.0
 70
0
  0
VERTEX
  5
135
  8
14
 10
-3384.382019
 20
-608.632851
 30
0.0
 70
0
  0
VERTEX
  5
136
  8
14
 10
-3364.528782
 20
-607.689968
 30
0.0
 70
0
  0
VERTEX
  5
137
  8
14
 10
-3341.742685
 20
-606.607796
 30
0.0
 70
0
  0
VERTEX
  5
138
  8
14
 10
-3320.137495
 20
-605.581708
 30
0.0
 70
0
  0
VERTEX
  5
139
  8
14
 10
-3303.900981
 20
-604.810593
 30
0.0
 70
0
  0
VERTEX
  5
13A
  8
14
 10
-3286.395455
 20
-603.979209
 30
0.0
 70
0
  0
VERTEX
  5
13B
  8
14
 10
-3267.790105
 20
-603.095592
 30
0.0
 70
0
  0
VERTEX
  5
13C
  8
14
 10
-3248.254119
 20
-602.167776
 30
0.0
 70
0
  0
VERTEX
  5
13D
  8
14
 10
-3227.956734
 20
-601.2038
 30
0.0
 70
0
  0
VERTEX
  5
13E
  8
14
 10
-3207.067137
 20
-600.211697
 30
0.0
 70
0
  0
VERTEX
  5
13F
  8
14
 10
-3185.754513
 20
-599.199504
 30
0.0
 70
0
  0
VERTEX
  5
140
  8
14
 10
-3164.188104
 20
-598.175258
 30
0.0
 70
0
  0
VERTEX
  5
141
  8
14
 10
-3142.537093
 20
-597.146995
 30
0.0
 70
0
  0
VERTEX
  5
142
  8
14
 10
-3120.970686
 20
-596.122749
 30
0.0
 70
0
  0
VERTEX
  5
143
  8
14
 10
-3099.658085
 20
-595.110557
 30
0.0
 70
0
  0
VERTEX
  5
144
  8
14
 10
-3078.768458
 20
-594.118453
 30
0.0
 70
0
  0
VERTEX
  5
145
  8
14
 10
-3058.471082
 20
-593.154477
 30
0.0
 70
0
  0
VERTEX
  5
146
  8
14
 10
-3038.935123
 20
-592.226663
 30
0.0
 70
0
  0
VERTEX
  5
147
  8
14
 10
-3020.329787
 20
-591.343046
 30
0.0
 70
0
  0
VERTEX
  5
148
  8
14
 10
-3002.824275
 20
-590.511663
 30
0.0
 70
0
  0
VERTEX
  5
149
  8
14
 10
-2986.587791
 20
-589.740549
 30
0.0
 70
0
  0
VERTEX
  5
14A
  8
14
 10
-2971.789515
 20
-589.03774
 30
0.0
 70
0
  0
VERTEX
  5
14B
  8
14
 10
-2952.658972
 20
-588.12918
 30
0.0
 70
0
  0
VERTEX
  5
14C
  8
14
 10
-2937.716202
 20
-587.419508
 30
0.0
 70
0
  0
VERTEX
  5
14D
  8
14
 10
-2923.668841
 20
-586.752362
 30
0.0
 70
0
  0
VERTEX
  5
14E
  8
14
 10
-2922.343445
 20
-586.689415
 30
0.0
 70
0
  0
VERTEX
  5
14F
  8
14
 10
-2922.343445
 20
-586.689415
 30
0.0
 70
0
  0
VERTEX
  5
150
  8
14
 10
-2905.488727
 20
-584.960885
 30
0.0
 70
0
  0
VERTEX
  5
151
  8
14
 10
-2889.676
 20
-583.220203
 30
0.0
 70
0
  0
VERTEX
  5
152
  8
14
 10
-2872.440813
 20
-581.217812
 30
0.0
 70
0
  0
VERTEX
  5
153
  8
14
 10
-2855.527242
 20
-579.15143
 30
0.0
 70
0
  0
VERTEX
  5
154
  8
14
 10
-2840.155596
 20
-577.186246
 30
0.0
 70
0
  0
VERTEX
  5
155
  8
14
 10
-2823.810801
 20
-575.0029
 30
0.0
 70
0
  0
VERTEX
  5
156
  8
14
 10
-2806.668887
 20
-572.604141
 30
0.0
 70
0
  0
VERTEX
  5
157
  8
14
 10
-2788.905884
 20
-569.992717
 30
0.0
 70
0
  0
VERTEX
  5
158
  8
14
 10
-2770.697803
 20
-567.171372
 30
0.0
 70
0
  0
VERTEX
  5
159
  8
14
 10
-2752.220712
 20
-564.142858
 30
0.0
 70
0
  0
VERTEX
  5
15A
  8
14
 10
-2738.754639
 20
-561.818859
 30
0.0
 70
0
  0
VERTEX
  5
15B
  8
14
 10
-2720.249163
 20
-558.454401
 30
0.0
 70
0
  0
VERTEX
  5
15C
  8
14
 10
-2702.086071
 20
-554.980188
 30
0.0
 70
0
  0
VERTEX
  5
15D
  8
14
 10
-2684.573106
 20
-551.488897
 30
0.0
 70
0
  0
VERTEX
  5
15E
  8
14
 10
-2668.017995
 20
-548.0732
 30
0.0
 70
0
  0
VERTEX
  5
15F
  8
14
 10
-2652.728531
 20
-544.825785
 30
0.0
 70
0
  0
VERTEX
  5
160
  8
14
 10
-2636.485053
 20
-541.281489
 30
0.0
 70
0
  0
VERTEX
  5
161
  8
14
 10
-2621.107316
 20
-537.835062
 30
0.0
 70
0
  0
VERTEX
  5
162
  8
14
 10
-2607.418244
 20
-534.681105
 30
0.0
 70
0
  0
VERTEX
  5
163
  8
14
 10
-2604.776611
 20
-534.058571
 30
0.0
 70
0
  0
VERTEX
  5
164
  8
14
 10
-2601.822718
 20
-538.132748
 30
0.0
 70
0
  0
VERTEX
  5
165
  8
14
 10
-2598.512488
 20
-542.174017
 30
0.0
 70
0
  0
VERTEX
  5
166
  8
14
 10
-2594.94602
 20
-546.066211
 30
0.0
 70
0
  0
VERTEX
  5
167
  8
14
 10
-2591.618203
 20
-549.310615
 30
0.0
 70
0
  0
VERTEX
  5
168
  8
14
 10
-2587.910229
 20
-552.507337
 30
0.0
 70
0
  0
VERTEX
  5
169
  8
14
 10
-2584.384204
 20
-555.14648
 30
0.0
 70
0
  0
VERTEX
  5
16A
  8
14
 10
-2581.306859
 20
-557.131293
 30
0.0
 70
0
  0
VERTEX
  5
16B
  8
14
 10
-2577.946332
 20
-558.978839
 30
0.0
 70
0
  0
VERTEX
  5
16C
  8
14
 10
-2574.450059
 20
-560.612837
 30
0.0
 70
0
  0
VERTEX
  5
16D
  8
14
 10
-2570.227577
 20
-562.275954
 30
0.0
 70
0
  0
VERTEX
  5
16E
  8
14
 10
-2565.882402
 20
-563.707388
 30
0.0
 70
0
  0
VERTEX
  5
16F
  8
14
 10
-2560.809118
 20
-565.100363
 30
0.0
 70
0
  0
VERTEX
  5
170
  8
14
 10
-2555.024414
 20
-566.414362
 30
0.0
 70
0
  0
VERTEX
  5
171
  8
14
 10
-2547.748213
 20
-567.780829
 30
0.0
 70
0
  0
VERTEX
  5
172
  8
14
 10
-2539.773566
 20
-569.01667
 30
0.0
 70
0
  0
VERTEX
  5
173
  8
14
 10
-2530.862176
 20
-570.13758
 30
0.0
 70
0
  0
VERTEX
  5
174
  8
14
 10
-2522.953186
 20
-570.910912
 30
0.0
 70
0
  0
VERTEX
  5
175
  8
14
 10
-2506.216071
 20
-572.182783
 30
0.0
 70
0
  0
VERTEX
  5
176
  8
14
 10
-2489.797674
 20
-573.499142
 30
0.0
 70
0
  0
VERTEX
  5
177
  8
14
 10
-2473.708897
 20
-574.850467
 30
0.0
 70
0
  0
VERTEX
  5
178
  8
14
 10
-2458.090877
 20
-576.225914
 30
0.0
 70
0
  0
VERTEX
  5
179
  8
14
 10
-2441.812852
 20
-577.737667
 30
0.0
 70
0
  0
VERTEX
  5
17A
  8
14
 10
-2426.160478
 20
-579.28066
 30
0.0
 70
0
  0
VERTEX
  5
17B
  8
14
 10
-2410.131989
 20
-580.945131
 30
0.0
 70
0
  0
VERTEX
  5
17C
  8
14
 10
-2394.945182
 20
-582.588843
 30
0.0
 70
0
  0
VERTEX
  5
17D
  8
14
 10
-2379.457724
 20
-584.324259
 30
0.0
 70
0
  0
VERTEX
  5
17E
  8
14
 10
-2363.778737
 20
-586.138509
 30
0.0
 70
0
  0
VERTEX
  5
17F
  8
14
 10
-2349.303838
 20
-587.868972
 30
0.0
 70
0
  0
VERTEX
  5
180
  8
14
 10
-2347.692413
 20
-588.066444
 30
0.0
 70
0
  0
VERTEX
  5
181
  8
14
 10
-2347.961726
 20
-604.551115
 30
0.0
 70
0
  0
VERTEX
  5
182
  8
14
 10
-2348.039583
 20
-620.010851
 30
0.0
 70
0
  0
VERTEX
  5
183
  8
14
 10
-2347.946435
 20
-635.480131
 30
0.0
 70
0
  0
VERTEX
  5
184
  8
14
 10
-2347.658652
 20
-650.537113
 30
0.0
 70
0
  0
VERTEX
  5
185
  8
14
 10
-2347.113106
 20
-666.243055
 30
0.0
 70
0
  0
VERTEX
  5
186
  8
14
 10
-2346.38779
 20
-681.410277
 30
0.0
 70
0
  0
VERTEX
  5
187
  8
14
 10
-2345.501141
 20
-696.573651
 30
0.0
 70
0
  0
VERTEX
  5
188
  8
14
 10
-2344.847107
 20
-706.013336
 30
0.0
 70
0
  0
VERTEX
  5
189
  8
14
 10
-2350.334922
 20
-706.806271
 30
0.0
 70
0
  0
VERTEX
  5
18A
  8
14
 10
-2356.319297
 20
-708.014374
 30
0.0
 70
0
  0
VERTEX
  5
18B
  8
14
 10
-2362.129986
 20
-709.502339
 30
0.0
 70
0
  0
VERTEX
  5
18C
  8
14
 10
-2367.70509
 20
-711.247829
 30
0.0
 70
0
  0
VERTEX
  5
18D
  8
14
 10
-2372.688986
 20
-713.112916
 30
0.0
 70
0
  0
VERTEX
  5
18E
  8
14
 10
-2377.729275
 20
-715.351553
 30
0.0
 70
0
  0
VERTEX
  5
18F
  8
14
 10
-2381.881646
 20
-717.524969
 30
0.0
 70
0
  0
VERTEX
  5
190
  8
14
 10
-2385.912689
 20
-719.997565
 30
0.0
 70
0
  0
VERTEX
  5
191
  8
14
 10
-2389.001146
 20
-722.2032
 30
0.0
 70
0
  0
VERTEX
  5
192
  8
14
 10
-2391.927911
 20
-724.621133
 30
0.0
 70
0
  0
VERTEX
  5
193
  8
14
 10
-2394.655645
 20
-727.260628
 30
0.0
 70
0
  0
VERTEX
  5
194
  8
14
 10
-2397.146982
 20
-730.130927
 30
0.0
 70
0
  0
VERTEX
  5
195
  8
14
 10
-2399.27275
 20
-733.098142
 30
0.0
 70
0
  0
VERTEX
  5
196
  8
14
 10
-2401.211466
 20
-736.436279
 30
0.0
 70
0
  0
VERTEX
  5
197
  8
14
 10
-2402.871613
 20
-739.992657
 30
0.0
 70
0
  0
VERTEX
  5
198
  8
14
 10
-2404.270411
 20
-743.744588
 30
0.0
 70
0
  0
VERTEX
  5
199
  8
14
 10
-2405.425082
 20
-747.669385
 30
0.0
 70
0
  0
VERTEX
  5
19A
  8
14
 10
-2406.352849
 20
-751.744358
 30
0.0
 70
0
  0
VERTEX
  5
19B
  8
14
 10
-2407.219709
 20
-757.014695
 30
0.0
 70
0
  0
VERTEX
  5
19C
  8
14
 10
-2407.792577
 20
-762.43992
 30
0.0
 70
0
  0
VERTEX
  5
19D
  8
14
 10
-2408.105088
 20
-767.975721
 30
0.0
 70
0
  0
VERTEX
  5
19E
  8
14
 10
-2408.183791
 20
-774.702247
 30
0.0
 70
0
  0
VERTEX
  5
19F
  8
14
 10
-2407.994142
 20
-781.447619
 30
0.0
 70
0
  0
VERTEX
  5
1A0
  8
14
 10
-2407.51126
 20
-789.238891
 30
0.0
 70
0
  0
VERTEX
  5
1A1
  8
14
 10
-2406.691833
 20
-798.189235
 30
0.0
 70
0
  0
VERTEX
  5
1A2
  8
14
 10
-2405.524871
 20
-808.071598
 30
0.0
 70
0
  0
VERTEX
  5
1A3
  8
14
 10
-2404.052428
 20
-818.358388
 30
0.0
 70
0
  0
VERTEX
  5
1A4
  8
14
 10
-2402.917023
 20
-825.183792
 30
0.0
 70
0
  0
VERTEX
  5
1A5
  8
14
 10
-2411.829719
 20
-826.30161
 30
0.0
 70
0
  0
VERTEX
  5
1A6
  8
14
 10
-2427.129677
 20
-828.06172
 30
0.0
 70
0
  0
VERTEX
  5
1A7
  8
14
 10
-2442.084337
 20
-829.603252
 30
0.0
 70
0
  0
VERTEX
  5
1A8
  8
14
 10
-2458.497813
 20
-831.058581
 30
0.0
 70
0
  0
VERTEX
  5
1A9
  8
14
 10
-2473.82295
 20
-832.136715
 30
0.0
 70
0
  0
VERTEX
  5
1AA
  8
14
 10
-2488.946115
 20
-832.935141
 30
0.0
 70
0
  0
VERTEX
  5
1AB
  8
14
 10
-2504.083507
 20
-833.506438
 30
0.0
 70
0
  0
VERTEX
  5
1AC
  8
14
 10
-2519.230067
 20
-833.885756
 30
0.0
 70
0
  0
VERTEX
  5
1AD
  8
14
 10
-2534.380851
 20
-834.108249
 30
0.0
 70
0
  0
VERTEX
  5
1AE
  8
14
 10
-2549.672586
 20
-834.208872
 30
0.0
 70
0
  0
VERTEX
  5
1AF
  8
14
 10
-2564.819543
 20
-834.201014
 30
0.0
 70
0
  0
VERTEX
  5
1B0
  8
14
 10
-2579.963646
 20
-834.079129
 30
0.0
 70
0
  0
VERTEX
  5
1B1
  8
14
 10
-2596.787702
 20
-833.800025
 30
0.0
 70
0
  0
VERTEX
  5
1B2
  8
14
 10
-2611.601026
 20
-833.425849
 30
0.0
 70
0
  0
VERTEX
  5
1B3
  8
14
 10
-2626.738703
 20
-832.939547
 30
0.0
 70
0
  0
VERTEX
  5
1B4
  8
14
 10
-2643.555726
 20
-832.308232
 30
0.0
 70
0
  0
VERTEX
  5
1B5
  8
14
 10
-2657.42235
 20
-831.738244
 30
0.0
 70
0
  0
VERTEX
  5
1B6
  8
14
 10
-2672.553248
 20
-831.07737
 30
0.0
 70
0
  0
VERTEX
  5
1B7
  8
14
 10
-2687.682525
 20
-830.384625
 30
0.0
 70
0
  0
VERTEX
  5
1B8
  8
14
 10
-2702.81066
 20
-829.668919
 30
0.0
 70
0
  0
VERTEX
  5
1B9
  8
14
 10
-2717.938073
 20
-828.939166
 30
0.0
 70
0
  0
VERTEX
  5
1BA
  8
14
 10
-2732.920781
 20
-828.211274
 30
0.0
 70
0
  0
VERTEX
  5
1BB
  8
14
 10
-2748.023533
 20
-827.478578
 30
0.0
 70
0
  0
VERTEX
  5
1BC
  8
14
 10
-2763.025815
 20
-826.752335
 30
0.0
 70
0
  0
VERTEX
  5
1BD
  8
14
 10
-2779.476338
 20
-825.957637
 30
0.0
 70
0
  0
VERTEX
  5
1BE
  8
14
 10
-2795.586706
 20
-825.180917
 30
0.0
 70
0
  0
VERTEX
  5
1BF
  8
14
 10
-2811.243175
 20
-824.427444
 30
0.0
 70
0
  0
VERTEX
  5
1C0
  8
14
 10
-2827.805229
 20
-823.631764
 30
0.0
 70
0
  0
VERTEX
  5
1C1
  8
14
 10
-2843.528984
 20
-822.877605
 30
0.0
 70
0
  0
VERTEX
  5
1C2
  8
14
 10
-2859.548177
 20
-822.110482
 30
0.0
 70
0
  0
VERTEX
  5
1C3
  8
14
 10
-2875.345152
 20
-821.355173
 30
0.0
 70
0
  0
VERTEX
  5
1C4
  8
14
 10
-2891.241582
 20
-820.596301
 30
0.0
 70
0
  0
VERTEX
  5
1C5
  8
14
 10
-2906.502765
 20
-819.868954
 30
0.0
 70
0
  0
SEQEND
  5
109
  8
14
  0
POLYLINE
  5
1C6
  8
8
 66
1
 10
0.0
 20
0.0
 30
0.0
 70
0
  0
VERTEX
  5
1C8
  8
8
 10
-3369.555664
 20
-706.611252
 30
0.0
 70
0
  0
VERTEX
  5
1C9
  8
8
 10
-3351.573189
 20
-706.66167
 30
0.0
 70
0
  0
VERTEX
  5
1CA
  8
8
 10
-3334.42039
 20
-706.707716
 30
0.0
 70
0
  0
VERTEX
  5
1CB
  8
8
 10
-3317.106214
 20
-706.752688
 30
0.0
 70
0
  0
VERTEX
  5
1CC
  8
8
 10
-3296.874021
 20
-706.803531
 30
0.0
 70
0
  0
VERTEX
  5
1CD
  8
8
 10
-3279.937519
 20
-706.844761
 30
0.0
 70
0
  0
VERTEX
  5
1CE
  8
8
 10
-3261.609333
 20
-706.888059
 30
0.0
 70
0
  0
VERTEX
  5
1CF
  8
8
 10
-3241.996478
 20
-706.932896
 30
0.0
 70
0
  0
VERTEX
  5
1D0
  8
8
 10
-3221.205953
 20
-706.97874
 30
0.0
 70
0
  0
VERTEX
  5
1D1
  8
8
 10
-3199.344805
 20
-707.025065
 30
0.0
 70
0
  0
VERTEX
  5
1D2
  8
8
 10
-3176.520034
 20
-707.071339
 30
0.0
 70
0
  0
VERTEX
  5
1D3
  8
8
 10
-3160.821022
 20
-707.1019
 30
0.0
 70
0
  0
VERTEX
  5
1D4
  8
8
 10
-3144.773003
 20
-707.132046
 30
0.0
 70
0
  0
VERTEX
  5
1D5
  8
8
 10
-3128.407687
 20
-707.161621
 30
0.0
 70
0
  0
VERTEX
  5
1D6
  8
8
 10
-3111.756781
 20
-707.190468
 30
0.0
 70
0
  0
VERTEX
  5
1D7
  8
8
 10
-3094.851995
 20
-707.21843
 30
0.0
 70
0
  0
VERTEX
  5
1D8
  8
8
 10
-3077.725035
 20
-707.24535
 30
0.0
 70
0
  0
VERTEX
  5
1D9
  8
8
 10
-3060.407611
 20
-707.271072
 30
0.0
 70
0
  0
VERTEX
  5
1DA
  8
8
 10
-3042.931431
 20
-707.295439
 30
0.0
 70
0
  0
VERTEX
  5
1DB
  8
8
 10
-3025.328204
 20
-707.318294
 30
0.0
 70
0
  0
VERTEX
  5
1DC
  8
8
 10
-3007.629636
 20
-707.339479
 30
0.0
 70
0
  0
VERTEX
  5
1DD
  8
8
 10
-2989.867437
 20
-707.358839
 30
0.0
 70
0
  0
VERTEX
  5
1DE
  8
8
 10
-2972.073316
 20
-707.376215
 30
0.0
 70
0
  0
VERTEX
  5
1DF
  8
8
 10
-2954.160895
 20
-707.391591
 30
0.0
 70
0
  0
VERTEX
  5
1E0
  8
8
 10
-2936.406044
 20
-707.404822
 30
0.0
 70
0
  0
VERTEX
  5
1E1
  8
8
 10
-2918.72776
 20
-707.416122
 30
0.0
 70
0
  0
VERTEX
  5
1E2
  8
8
 10
-2901.16433
 20
-707.425598
 30
0.0
 70
0
  0
VERTEX
  5
1E3
  8
8
 10
-2883.754038
 20
-707.433355
 30
0.0
 70
0
  0
VERTEX
  5
1E4
  8
8
 10
-2866.53517
 20
-707.439497
 30
0.0
 70
0
  0
VERTEX
  5
1E5
  8
8
 10
-2849.546011
 20
-707.444131
 30
0.0
 70
0
  0
VERTEX
  5
1E6
  8
8
 10
-2832.824846
 20
-707.447361
 30
0.0
 70
0
  0
VERTEX
  5
1E7
  8
8
 10
-2816.40996
 20
-707.449293
 30
0.0
 70
0
  0
VERTEX
  5
1E8
  8
8
 10
-2800.339638
 20
-707.450032
 30
0.0
 70
0
  0
VERTEX
  5
1E9
  8
8
 10
-2784.652166
 20
-707.449683
 30
0.0
 70
0
  0
VERTEX
  5
1EA
  8
8
 10
-2769.385828
 20
-707.448352
 30
0.0
 70
0
  0
VERTEX
  5
1EB
  8
8
 10
-2754.57891
 20
-707.446144
 30
0.0
 70
0
  0
VERTEX
  5
1EC
  8
8
 10
-2733.313635
 20
-707.441418
 30
0.0
 70
0
  0
VERTEX
  5
1ED
  8
8
 10
-2713.297471
 20
-707.43531
 30
0.0
 70
0
  0
VERTEX
  5
1EE
  8
8
 10
-2694.659568
 20
-707.428177
 30
0.0
 70
0
  0
VERTEX
  5
1EF
  8
8
 10
-2677.529139
 20
-707.420374
 30
0.0
 70
0
  0
VERTEX
  5
1F0
  8
8
 10
-2662.035396
 20
-707.412256
 30
0.0
 70
0
  0
VERTEX
  5
1F1
  8
8
 10
-2644.146358
 20
-707.401557
 30
0.0
 70
0
  0
VERTEX
  5
1F2
  8
8
 10
-2629.702977
 20
-707.391772
 30
0.0
 70
0
  0
VERTEX
  5
1F3
  8
8
 10
-2615.168501
 20
-707.380652
 30
0.0
 70
0
  0
VERTEX
  5
1F4
  8
8
 10
-2610.109558
 20
-707.376328
 30
0.0
 70
0
  0
SEQEND
  5
1C7
  8
8
  0
POLYLINE
  5
1F5
  8
8
 66
1
 10
0.0
 20
0.0
 30
0.0
 70
0
  0
VERTEX
  5
1F7
  8
8
 10
-2523.27774
 20
-588.179626
 30
0.0
 70
0
  0
VERTEX
  5
1F8
  8
8
 10
-2542.980957
 20
-834.15947
 30
0.0
 70
0
  0
SEQEND
  5
1F6
  8
8
  0
POLYLINE
  5
1F9
  8
8
 66
1
 10
0.0
 20
0.0
 30
0.0
 70
0
  0
VERTEX
  5
1FB
  8
8
 10
-2922.343445
 20
-586.689415
 30
0.0
 70
0
  0
VERTEX
  5
1FC
  8
8
 10
-2922.343445
 20
-603.268948
 30
0.0
 70
0
  0
VERTEX
  5
1FD
  8
8
 10
-2922.343445
 20
-618.762864
 30
0.0
 70
0
  0
VERTEX
  5
1FE
  8
8
 10
-2922.343445
 20
-635.636092
 30
0.0
 70
0
  0
VERTEX
  5
1FF
  8
8
 10
-2922.343445
 20
-652.245922
 30
0.0
 70
0
  0
VERTEX
  5
200
  8
8
 10
-2922.343445
 20
-667.497682
 30
0.0
 70
0
  0
VERTEX
  5
201
  8
8
 10
-2922.343445
 20
-683.388491
 30
0.0
 70
0
  0
VERTEX
  5
202
  8
8
 10
-2922.343445
 20
-699.636403
 30
0.0
 70
0
  0
VERTEX
  5
203
  8
8
 10
-2922.343445
 20
-714.869264
 30
0.0
 70
0
  0
VERTEX
  5
204
  8
8
 10
-2922.343445
 20
-731.000307
 30
0.0
 70
0
  0
VERTEX
  5
205
  8
8
 10
-2922.343445
 20
-746.64349
 30
0.0
 70
0
  0
VERTEX
  5
206
  8
8
 10
-2922.343445
 20
-761.506114
 30
0.0
 70
0
  0
VERTEX
  5
207
  8
8
 10
-2922.343445
 20
-777.468736
 30
0.0
 70
0
  0
VERTEX
  5
208
  8
8
 10
-2922.343445
 20
-793.32666
 30
0.0
 70
0
  0
VERTEX
  5
209
  8
8
 10
-2922.343445
 20
-808.555023
 30
0.0
 70
0
  0
VERTEX
  5
20A
  8
8
 10
-2922.343445
 20
-819.115448
 30
0.0
 70
0
  0
SEQEND
  5
1FA
  8
8
  0
POLYLINE
  5
20B
  8
8
 66
1
 10
0.0
 20
0.0
 30
0.0
 70
0
  0
VERTEX
  5
20D
  8
8
 10
-2604.776611
 20
-534.058571
 30
0.0
 70
0
  0
VERTEX
  5
20E
  8
8
 10
-2596.792603
 20
-833.767853
 30
0.0
 70
0
  0
SEQEND
  5
20C
  8
8
  0
POINT
  5
20F
  8
4
 10
-2922.828064
 20
-831.806259
 30
0.0
  0
POINT
  5
210
  8
4
 10
-3385.264282
 20
-809.951553
 30
0.0
  0
POINT
  5
211
  8
4
 10
-3384.326477
 20
-595.915909
 30
0.0
  0
POINT
  5
212
  8
4
 10
-2922.945862
 20
-574.003716
 30
0.0
  0
POINT
  5
213
  8
4
 10
-2922.345886
 20
-819.115448
 30
0.0
  0
POINT
  5
214
  8
4
 10
-3385.20874
 20
-797.23465
 30
0.0
  0
POINT
  5
215
  8
4
 10
-3384.382019
 20
-608.632851
 30
0.0
  0
POINT
  5
216
  8
4
 10
-2922.343445
 20
-586.689415
 30
0.0
  0
LINE
  5
217
  8
7
 10
-3341.298828
 20
-702.162857
 30
0.0
 11
-2446.712189
 21
-702.162857
 31
0.0
  0
ENDSEC
  0
EOF
