  0
SECTION
  2
HEADER
  9
$ACADVER
  1
AC1009
  9
$DWGCODEPAGE
  3
ANSI_1252
  9
$INSBASE
 10
0.0
 20
0.0
 30
0.0
  9
$EXTMIN
 10
1e+20
 20
1e+20
 30
1e+20
  9
$EXTMAX
 10
-1e+20
 20
-1e+20
 30
-1e+20
  9
$LIMMIN
 10
0.0
 20
0.0
  9
$LIMMAX
 10
420.0
 20
297.0
  9
$ORTHOMODE
 70
0
  9
$REGENMODE
 70
1
  9
$FILLMODE
 70
1
  9
$DRAGMODE
 70
2
  9
$QTEXTMODE
 70
0
  9
$MIRRTEXT
 70
1
  9
$OSMODE
 70
20583
  9
$LTSCALE
 40
1.0
  9
$ATTMODE
 70
1
  9
$TEXTSIZE
 40
2.5
  9
$TRACEWID
 40
1.0
  9
$TEXTSTYLE
  7
Standard
  9
$CLAYER
  8
0
  9
$CELTYPE
  6
ByLayer
  9
$CECOLOR
 62
256
  9
$DIMSCALE
 40
1.0
  9
$DIMASZ
 40
2.5
  9
$DIMEXO
 40
0.625
  9
$DIMDLI
 40
3.75
  9
$DIMRND
 40
0.0
  9
$DIMDLE
 40
0.0
  9
$DIMEXE
 40
1.25
  9
$DIMTP
 40
0.0
  9
$DIMTM
 40
0.0
  9
$DIMTXT
 40
2.5
  9
$DIMCEN
 40
2.5
  9
$DIMTSZ
 40
0.0
  9
$DIMTOL
 70
0
  9
$DIMLIM
 70
0
  9
$DIMTIH
 70
0
  9
$DIMTOH
 70
0
  9
$DIMSE1
 70
0
  9
$DIMSE2
 70
0
  9
$DIMTAD
 70
1
  9
$DIMZIN
 70
8
  9
$DIMBLK
  1

  9
$DIMASO
 70
1
  9
$DIMSHO
 70
1
  9
$DIMPOST
  1

  9
$DIMAPOST
  1

  9
$DIMALT
 70
0
  9
$DIMALTD
 70
3
  9
$DIMALTF
 40
0.03937007874
  9
$DIMLFAC
 40
1.0
  9
$DIMTOFL
 70
1
  9
$DIMTVP
 40
0.0
  9
$DIMTIX
 70
0
  9
$DIMSOXD
 70
0
  9
$DIMSAH
 70
0
  9
$DIMBLK1
  1

  9
$DIMBLK2
  1

  9
$DIMSTYLE
  2
ISO-25
  9
$DIMCLRD
 70
0
  9
$DIMCLRE
 70
0
  9
$DIMCLRT
 70
0
  9
$DIMTFAC
 40
1.0
  9
$DIMGAP
 40
0.625
  9
$COORDS
 70
1
  9
$ATTDIA
 70
0
  9
$ATTREQ
 70
1
  9
$HANDLING
 70
1
  9
$LUNITS
 70
2
  9
$LUPREC
 70
4
  9
$SKETCHINC
 40
1.0
  9
$FILLETRAD
 40
10.0
  9
$AUNITS
 70
0
  9
$AUPREC
 70
2
  9
$MENU
  1
.
  9
$ELEVATION
 40
0.0
  9
$PELEVATION
 40
0.0
  9
$THICKNESS
 40
0.0
  9
$LIMCHECK
 70
0
  9
$CHAMFERA
 40
0.0
  9
$CHAMFERB
 40
0.0
  9
$SKPOLY
 70
0
  9
$TDCREATE
 40
2461264.9423032408
  9
$TDUPDATE
 40
2461264.9423032408
  9
$TDINDWG
 40
0.0
  9
$TDUSRTIMER
 40
0.0
  9
$USRTIMER
 70
1
  9
$ANGBASE
 50
0.0
  9
$ANGDIR
 70
0
  9
$PDMODE
 70
0
  9
$PDSIZE
 40
0.0
  9
$PLINEWID
 40
0.0
  9
$SPLFRAME
 70
0
  9
$SPLINETYPE
 70
6
  9
$SPLINESEGS
 70
8
  9
$HANDSEED
  5
203
  9
$SURFTAB1
 70
6
  9
$SURFTAB2
 70
6
  9
$SURFTYPE
 70
6
  9
$SURFU
 70
6
  9
$SURFV
 70
6
  9
$UCSNAME
  2

  9
$UCSORG
 10
0.0
 20
0.0
 30
0.0
  9
$UCSXDIR
 10
1.0
 20
0.0
 30
0.0
  9
$UCSYDIR
 10
0.0
 20
1.0
 30
0.0
  9
$PUCSNAME
  2

  9
$PUCSORG
 10
0.0
 20
0.0
 30
0.0
  9
$PUCSXDIR
 10
1.0
 20
0.0
 30
0.0
  9
$PUCSYDIR
 10
0.0
 20
1.0
 30
0.0
  9
$USERI1
 70
0
  9
$USERI2
 70
0
  9
$USERI3
 70
0
  9
$USERI4
 70
0
  9
$USERI5
 70
0
  9
$USERR1
 40
0.0
  9
$USERR2
 40
0.0
  9
$USERR3
 40
0.0
  9
$USERR4
 40
0.0
  9
$USERR5
 40
0.0
  9
$WORLDVIEW
 70
1
  9
$SHADEDGE
 70
3
  9
$SHADEDIF
 70
70
  9
$TILEMODE
 70
1
  9
$MAXACTVP
 70
64
  9
$PLIMCHECK
 70
0
  9
$PEXTMIN
 10
1e+20
 20
1e+20
 30
1e+20
  9
$PEXTMAX
 10
-1e+20
 20
-1e+20
 30
-1e+20
  9
$PLIMMIN
 10
0.0
 20
0.0
  9
$PLIMMAX
 10
420.0
 20
297.0
  9
$UNITMODE
 70
0
  9
$VISRETAIN
 70
1
  9
$PLINEGEN
 70
0
  9
$PSLTSCALE
 70
1
  0
ENDSEC
  0
SECTION
  2
TABLES
  0
TABLE
  2
VPORT
 70
1
  0
VPORT
  5
23
  2
*Active
 70
0
 10
0.0
 20
0.0
 11
1.0
 21
1.0
 12
0.0
 22
0.0
 13
0.0
 23
0.0
 14
0.5
 24
0.5
 15
0.5
 25
0.5
 16
0.0
 26
0.0
 36
1.0
 17
0.0
 27
0.0
 37
0.0
 40
1000.0
 41
1.34
 42
50.0
 43
0.0
 44
0.0
 50
0.0
 51
0.0
 71
0
 72
1000
 73
1
 74
3
 75
0
 76
0
 77
0
 78
0
  0
ENDTAB
  0
TABLE
  2
LTYPE
 70
3
  0
LTYPE
  5
24
  2
ByBlock
 70
0
  3

 72
65
 73
0
 40
0.0
  0
LTYPE
  5
25
  2
ByLayer
 70
0
  3

 72
65
 73
0
 40
0.0
  0
LTYPE
  5
26
  2
Continuous
 70
0
  3

 72
65
 73
0
 40
0.0
  0
ENDTAB
  0
TABLE
  2
LAYER
 70
7
  0
LAYER
  5
27
  2
0
 70
0
 62
7
  6
Continuous
  0
LAYER
  5
28
  2
Defpoints
 70
0
 62
7
  6
Continuous
  0
LAYER
  5
2D
  2
1
 70
0
 62
1
  6
Continuous
  0
LAYER
  5
2E
  2
7
 70
0
 62
7
  6
Continuous
  0
LAYER
  5
2F
  2
14
 70
0
 62
3
  6
Continuous
  0
LAYER
  5
30
  2
8
 70
0
 62
6
  6
Continuous
  0
LAYER
  5
31
  2
4
 70
0
 62
2
  6
Continuous
  0
ENDTAB
  0
TABLE
  2
STYLE
 70
1
  0
STYLE
  5
29
  2
Standard
 70
0
 40
0.0
 41
1.0
 50
0.0
 71
0
 42
2.5
  3
txt
  4

  0
ENDTAB
  0
TABLE
  2
VIEW
 70
0
  0
ENDTAB
  0
TABLE
  2
UCS
 70
0
  0
ENDTAB
  0
TABLE
  2
APPID
 70
3
  0
APPID
  5
2A
  2
ACAD
 70
0
  0
APPID
  5
201
  2
HATCHBACKGROUNDCOLOR
 70
0
  0
APPID
  5
202
  2
EZDXF
 70
0
  0
ENDTAB
  0
TABLE
  2
DIMSTYLE
 70
1
  0
DIMSTYLE
105
2B
  2
Standard
 70
0
  3

  4

  5

  6

  7

 40
1.0
 41
2.5
 42
0.625
 43
3.75
 44
1.25
 45
0.0
 46
0.0
 47
0.0
 48
0.0
140
2.5
141
2.5
142
0.0
143
0.03937007874
144
1.0
145
0.0
146
1.0
147
0.625
 71
0
 72
0
 73
0
 74
0
 75
0
 76
0
 77
1
 78
8
170
0
171
3
172
1
173
0
174
0
175
0
176
0
177
0
178
0
  0
ENDTAB
  0
ENDSEC
  0
SECTION
  2
BLOCKS
  0
BLOCK
  5
18
  8
0
  2
$Model_Space
 70
0
 10
0.0
 20
0.0
 30
0.0
  3
$Model_Space
  1

1001
EZDXF
1000
CREATED_BY_EZDXF
1000
1.4.4 @ 2026-08-11T14:36:55.135176+00:00
1000
WRITTEN_BY_EZDXF
1000
1.4.4 @ 2026-08-11T14:36:55.140175+00:00
  0
ENDBLK
  5
19
  8
0
  0
BLOCK
  5
1C
  8
0
  2
$Paper_Space
 70
0
 10
0.0
 20
0.0
 30
0.0
  3
$Paper_Space
  1

  0
ENDBLK
  5
1D
  8
0
  0
ENDSEC
  0
SECTION
  2
ENTITIES
  0
POLYLINE
  5
32
  8
1
 66
1
 10
0.0
 20
0.0
 30
0.0
 70
1
  0
VERTEX
  5
34
  8
1
 10
-2922.724915
 20
-816.569748
 30
0.0
 70
0
  0
VERTEX
  5
35
  8
1
 10
-2922.727661
 20
-816.569672
 30
0.0
 70
0
  0
VERTEX
  5
36
  8
1
 10
-2938.268627
 20
-816.097661
 30
0.0
 70
0
  0
VERTEX
  5
37
  8
1
 10
-2953.570539
 20
-815.625172
 30
0.0
 70
0
  0
VERTEX
  5
38
  8
1
 10
-2968.726916
 20
-815.147294
 30
0.0
 70
0
  0
VERTEX
  5
39
  8
1
 10
-2984.025245
 20
-814.654412
 30
0.0
 70
0
  0
VERTEX
  5
3A
  8
1
 10
-2999.312738
 20
-814.153264
 30
0.0
 70
0
  0
VERTEX
  5
3B
  8
1
 10
-3014.610624
 20
-813.64398
 30
0.0
 70
0
  0
VERTEX
  5
3C
  8
1
 10
-3029.80636
 20
-813.129835
 30
0.0
 70
0
  0
VERTEX
  5
3D
  8
1
 10
-3045.103634
 20
-812.603466
 30
0.0
 70
0
  0
VERTEX
  5
3E
  8
1
 10
-3060.400561
 20
-812.068072
 30
0.0
 70
0
  0
VERTEX
  5
3F
  8
1
 10
-3075.548077
 20
-811.528768
 30
0.0
 70
0
  0
VERTEX
  5
40
  8
1
 10
-3090.844322
 20
-810.974464
 30
0.0
 70
0
  0
VERTEX
  5
41
  8
1
 10
-3106.12175
 20
-810.410541
 30
0.0
 70
0
  0
VERTEX
  5
42
  8
1
 10
-3121.417308
 20
-809.834979
 30
0.0
 70
0
  0
VERTEX
  5
43
  8
1
 10
-3136.614516
 20
-809.251532
 30
0.0
 70
0
  0
VERTEX
  5
44
  8
1
 10
-3151.90903
 20
-808.651784
 30
0.0
 70
0
  0
VERTEX
  5
45
  8
1
 10
-3167.437993
 20
-808.028968
 30
0.0
 70
0
  0
VERTEX
  5
46
  8
1
 10
-3182.731465
 20
-807.402151
 30
0.0
 70
0
  0
VERTEX
  5
47
  8
1
 10
-3198.282389
 20
-806.752252
 30
0.0
 70
0
  0
VERTEX
  5
48
  8
1
 10
-3213.574936
 20
-806.101791
 30
0.0
 70
0
  0
VERTEX
  5
49
  8
1
 10
-3229.041532
 20
-805.433289
 30
0.0
 70
0
  0
VERTEX
  5
4A
  8
1
 10
-3244.333117
 20
-804.762477
 30
0.0
 70
0
  0
VERTEX
  5
4B
  8
1
 10
-3259.624266
 20
-804.082237
 30
0.0
 70
0
  0
VERTEX
  5
4C
  8
1
 10
-3274.615179
 20
-803.406552
 30
0.0
 70
0
  0
VERTEX
  5
4D
  8
1
 10
-3289.905612
 20
-802.709026
 30
0.0
 70
0
  0
VERTEX
  5
4E
  8
1
 10
-3305.196864
 20
-802.003716
 30
0.0
 70
0
  0
VERTEX
  5
4F
  8
1
 10
-3320.486531
 20
-801.289885
 30
0.0
 70
0
  0
VERTEX
  5
50
  8
1
 10
-3335.494092
 20
-800.578791
 30
0.0
 70
0
  0
VERTEX
  5
51
  8
1
 10
-3350.782734
 20
-799.84401
 30
0.0
 70
0
  0
VERTEX
  5
52
  8
1
 10
-3364.951782
 20
-799.15802
 30
0.0
 70
0
  0
VERTEX
  5
53
  8
1
 10
-3365.857968
 20
-799.11415
 30
0.0
 70
0
  0
VERTEX
  5
54
  8
1
 10
-3381.064226
 20
-798.377095
 30
0.0
 70
0
  0
VERTEX
  5
55
  8
1
 10
-3396.694641
 20
-797.619476
 30
0.0
 70
0
  0
VERTEX
  5
56
  8
1
 10
-3396.616536
 20
-781.806496
 30
0.0
 70
0
  0
VERTEX
  5
57
  8
1
 10
-3396.541214
 20
-766.564904
 30
0.0
 70
0
  0
VERTEX
  5
58
  8
1
 10
-3396.465857
 20
-751.323316
 30
0.0
 70
0
  0
VERTEX
  5
59
  8
1
 10
-3396.390187
 20
-736.023256
 30
0.0
 70
0
  0
VERTEX
  5
5A
  8
1
 10
-3396.314814
 20
-720.781651
 30
0.0
 70
0
  0
VERTEX
  5
5B
  8
1
 10
-3396.238874
 20
-705.417224
 30
0.0
 70
0
  0
VERTEX
  5
5C
  8
1
 10
-3396.163592
 20
-690.175616
 30
0.0
 70
0
  0
VERTEX
  5
5D
  8
1
 10
-3396.089389
 20
-675.14541
 30
0.0
 70
0
  0
VERTEX
  5
5E
  8
1
 10
-3396.01415
 20
-659.90381
 30
0.0
 70
0
  0
VERTEX
  5
5F
  8
1
 10
-3395.938323
 20
-644.549842
 30
0.0
 70
0
  0
VERTEX
  5
60
  8
1
 10
-3395.862991
 20
-629.308235
 30
0.0
 70
0
  0
VERTEX
  5
61
  8
1
 10
-3395.788437
 20
-614.23803
 30
0.0
 70
0
  0
VERTEX
  5
62
  8
1
 10
-3395.757446
 20
-607.977257
 30
0.0
 70
0
  0
VERTEX
  5
63
  8
1
 10
-3379.857356
 20
-607.219135
 30
0.0
 70
0
  0
VERTEX
  5
64
  8
1
 10
-3364.807056
 20
-606.501537
 30
0.0
 70
0
  0
VERTEX
  5
65
  8
1
 10
-3363.999634
 20
-606.463051
 30
0.0
 70
0
  0
VERTEX
  5
66
  8
1
 10
-3349.415387
 20
-605.767669
 30
0.0
 70
0
  0
VERTEX
  5
67
  8
1
 10
-3334.062631
 20
-605.035656
 30
0.0
 70
0
  0
VERTEX
  5
68
  8
1
 10
-3318.670966
 20
-604.301781
 30
0.0
 70
0
  0
VERTEX
  5
69
  8
1
 10
-3303.303903
 20
-603.569076
 30
0.0
 70
0
  0
VERTEX
  5
6A
  8
1
 10
-3287.912301
 20
-602.835205
 30
0.0
 70
0
  0
VERTEX
  5
6B
  8
1
 10
-3272.52069
 20
-602.101336
 30
0.0
 70
0
  0
VERTEX
  5
6C
  8
1
 10
-3257.045273
 20
-601.363471
 30
0.0
 70
0
  0
VERTEX
  5
6D
  8
1
 10
-3241.653563
 20
-600.6296
 30
0.0
 70
0
  0
VERTEX
  5
6E
  8
1
 10
-3226.219737
 20
-599.893725
 30
0.0
 70
0
  0
VERTEX
  5
6F
  8
1
 10
-3211.006716
 20
-599.168378
 30
0.0
 70
0
  0
VERTEX
  5
70
  8
1
 10
-3195.615025
 20
-598.434507
 30
0.0
 70
0
  0
VERTEX
  5
71
  8
1
 10
-3180.477358
 20
-597.712745
 30
0.0
 70
0
  0
VERTEX
  5
72
  8
1
 10
-3165.085679
 20
-596.978875
 30
0.0
 70
0
  0
VERTEX
  5
73
  8
1
 10
-3149.772461
 20
-596.248744
 30
0.0
 70
0
  0
VERTEX
  5
74
  8
1
 10
-3134.380787
 20
-595.514867
 30
0.0
 70
0
  0
VERTEX
  5
75
  8
1
 10
-3119.00911
 20
-594.781945
 30
0.0
 70
0
  0
VERTEX
  5
76
  8
1
 10
-3103.617435
 20
-594.048076
 30
0.0
 70
0
  0
VERTEX
  5
77
  8
1
 10
-3088.404549
 20
-593.322734
 30
0.0
 70
0
  0
VERTEX
  5
78
  8
1
 10
-3073.012936
 20
-592.588866
 30
0.0
 70
0
  0
VERTEX
  5
79
  8
1
 10
-3057.699803
 20
-591.858738
 30
0.0
 70
0
  0
VERTEX
  5
7A
  8
1
 10
-3042.30812
 20
-591.124867
 30
0.0
 70
0
  0
VERTEX
  5
7B
  8
1
 10
-3027.170411
 20
-590.403104
 30
0.0
 70
0
  0
VERTEX
  5
7C
  8
1
 10
-3011.778751
 20
-589.669229
 30
0.0
 70
0
  0
VERTEX
  5
7D
  8
1
 10
-2996.387043
 20
-588.935354
 30
0.0
 70
0
  0
VERTEX
  5
7E
  8
1
 10
-2980.953236
 20
-588.19948
 30
0.0
 70
0
  0
VERTEX
  5
7F
  8
1
 10
-2965.928982
 20
-587.483133
 30
0.0
 70
0
  0
VERTEX
  5
80
  8
1
 10
-2950.332898
 20
-586.739517
 30
0.0
 70
0
  0
VERTEX
  5
81
  8
1
 10
-2935.129553
 20
-586.014622
 30
0.0
 70
0
  0
VERTEX
  5
82
  8
1
 10
-2922.948303
 20
-585.433807
 30
0.0
 70
0
  0
VERTEX
  5
83
  8
1
 10
-2923.119812
 20
-585.442467
 30
0.0
 70
0
  0
VERTEX
  5
84
  8
1
 10
-2907.549212
 20
-584.276362
 30
0.0
 70
0
  0
VERTEX
  5
85
  8
1
 10
-2892.434599
 20
-583.071868
 30
0.0
 70
0
  0
VERTEX
  5
86
  8
1
 10
-2877.048421
 20
-581.747248
 30
0.0
 70
0
  0
VERTEX
  5
87
  8
1
 10
-2861.787387
 20
-580.340091
 30
0.0
 70
0
  0
VERTEX
  5
88
  8
1
 10
-2846.417024
 20
-578.842
 30
0.0
 70
0
  0
VERTEX
  5
89
  8
1
 10
-2831.196513
 20
-577.277067
 30
0.0
 70
0
  0
VERTEX
  5
8A
  8
1
 10
-2815.84342
 20
-575.611403
 30
0.0
 70
0
  0
VERTEX
  5
8B
  8
1
 10
-2800.489919
 20
-573.853766
 30
0.0
 70
0
  0
VERTEX
  5
8C
  8
1
 10
-2785.158271
 20
-572.001024
 30
0.0
 70
0
  0
VERTEX
  5
8D
  8
1
 10
-2770.268952
 20
-570.098023
 30
0.0
 70
0
  0
VERTEX
  5
8E
  8
1
 10
-2754.965488
 20
-568.024742
 30
0.0
 70
0
  0
VERTEX
  5
8F
  8
1
 10
-2739.686583
 20
-565.827978
 30
0.0
 70
0
  0
VERTEX
  5
90
  8
1
 10
-2724.419404
 20
-563.50269
 30
0.0
 70
0
  0
VERTEX
  5
91
  8
1
 10
-2709.363914
 20
-561.090503
 30
0.0
 70
0
  0
VERTEX
  5
92
  8
1
 10
-2694.132648
 20
-558.540809
 30
0.0
 70
0
  0
VERTEX
  5
93
  8
1
 10
-2679.180358
 20
-555.942515
 30
0.0
 70
0
  0
VERTEX
  5
94
  8
1
 10
-2663.980336
 20
-553.212878
 30
0.0
 70
0
  0
VERTEX
  5
95
  8
1
 10
-2648.762364
 20
-550.388447
 30
0.0
 70
0
  0
VERTEX
  5
96
  8
1
 10
-2633.595139
 20
-547.482019
 30
0.0
 70
0
  0
VERTEX
  5
97
  8
1
 10
-2618.635539
 20
-544.536959
 30
0.0
 70
0
  0
VERTEX
  5
98
  8
1
 10
-2603.947624
 20
-541.588668
 30
0.0
 70
0
  0
VERTEX
  5
99
  8
1
 10
-2601.063232
 20
-541.004753
 30
0.0
 70
0
  0
VERTEX
  5
9A
  8
1
 10
-2596.410324
 20
-547.586826
 30
0.0
 70
0
  0
VERTEX
  5
9B
  8
1
 10
-2592.530095
 20
-552.672516
 30
0.0
 70
0
  0
VERTEX
  5
9C
  8
1
 10
-2589.500984
 20
-556.282247
 30
0.0
 70
0
  0
VERTEX
  5
9D
  8
1
 10
-2586.489218
 20
-559.483184
 30
0.0
 70
0
  0
VERTEX
  5
9E
  8
1
 10
-2583.496271
 20
-562.322261
 30
0.0
 70
0
  0
VERTEX
  5
9F
  8
1
 10
-2580.597789
 20
-564.75056
 30
0.0
 70
0
  0
VERTEX
  5
A0
  8
1
 10
-2577.785588
 20
-566.801025
 30
0.0
 70
0
  0
VERTEX
  5
A1
  8
1
 10
-2575.041648
 20
-568.502946
 30
0.0
 70
0
  0
VERTEX
  5
A2
  8
1
 10
-2572.034732
 20
-570.061531
 30
0.0
 70
0
  0
VERTEX
  5
A3
  8
1
 10
-2568.609153
 20
-571.54269
 30
0.0
 70
0
  0
VERTEX
  5
A4
  8
1
 10
-2564.788448
 20
-572.915876
 30
0.0
 70
0
  0
VERTEX
  5
A5
  8
1
 10
-2560.369828
 20
-574.229303
 30
0.0
 70
0
  0
VERTEX
  5
A6
  8
1
 10
-2555.062431
 20
-575.526544
 30
0.0
 70
0
  0
VERTEX
  5
A7
  8
1
 10
-2548.849036
 20
-576.772342
 30
0.0
 70
0
  0
VERTEX
  5
A8
  8
1
 10
-2540.980611
 20
-578.07675
 30
0.0
 70
0
  0
VERTEX
  5
A9
  8
1
 10
-2532.988365
 20
-579.157424
 30
0.0
 70
0
  0
VERTEX
  5
AA
  8
1
 10
-2524.137368
 20
-580.085426
 30
0.0
 70
0
  0
VERTEX
  5
AB
  8
1
 10
-2522.230988
 20
-580.257835
 30
0.0
 70
0
  0
VERTEX
  5
AC
  8
1
 10
-2506.696979
 20
-581.784617
 30
0.0
 70
0
  0
VERTEX
  5
AD
  8
1
 10
-2491.590424
 20
-583.319265
 30
0.0
 70
0
  0
VERTEX
  5
AE
  8
1
 10
-2476.430414
 20
-584.928551
 30
0.0
 70
0
  0
VERTEX
  5
AF
  8
1
 10
-2461.084308
 20
-586.644635
 30
0.0
 70
0
  0
VERTEX
  5
B0
  8
1
 10
-2446.062103
 20
-588.418244
 30
0.0
 70
0
  0
VERTEX
  5
B1
  8
1
 10
-2430.737475
 20
-590.316535
 30
0.0
 70
0
  0
VERTEX
  5
B2
  8
1
 10
-2415.58349
 20
-592.269598
 30
0.0
 70
0
  0
VERTEX
  5
B3
  8
1
 10
-2400.277926
 20
-594.316311
 30
0.0
 70
0
  0
VERTEX
  5
B4
  8
1
 10
-2384.98278
 20
-596.439057
 30
0.0
 70
0
  0
VERTEX
  5
B5
  8
1
 10
-2369.885836
 20
-598.591192
 30
0.0
 70
0
  0
VERTEX
  5
B6
  8
1
 10
-2365.319214
 20
-599.239616
 30
0.0
 70
0
  0
VERTEX
  5
B7
  8
1
 10
-2365.471803
 20
-615.763921
 30
0.0
 70
0
  0
VERTEX
  5
B8
  8
1
 10
-2365.37107
 20
-631.229148
 30
0.0
 70
0
  0
VERTEX
  5
B9
  8
1
 10
-2365.044722
 20
-645.777708
 30
0.0
 70
0
  0
VERTEX
  5
BA
  8
1
 10
-2364.48221
 20
-659.409295
 30
0.0
 70
0
  0
VERTEX
  5
BB
  8
1
 10
-2363.58498
 20
-674.422828
 30
0.0
 70
0
  0
VERTEX
  5
BC
  8
1
 10
-2362.477313
 20
-689.235908
 30
0.0
 70
0
  0
VERTEX
  5
BD
  8
1
 10
-2362.308044
 20
-691.243057
 30
0.0
 70
0
  0
VERTEX
  5
BE
  8
1
 10
-2375.487187
 20
-693.161471
 30
0.0
 70
0
  0
VERTEX
  5
BF
  8
1
 10
-2380.748056
 20
-693.963971
 30
0.0
 70
0
  0
VERTEX
  5
C0
  8
1
 10
-2385.702194
 20
-695.009681
 30
0.0
 70
0
  0
VERTEX
  5
C1
  8
1
 10
-2390.760021
 20
-696.318107
 30
0.0
 70
0
  0
VERTEX
  5
C2
  8
1
 10
-2395.430088
 20
-697.771904
 30
0.0
 70
0
  0
VERTEX
  5
C3
  8
1
 10
-2399.883978
 20
-699.410042
 30
0.0
 70
0
  0
VERTEX
  5
C4
  8
1
 10
-2403.967456
 20
-701.169024
 30
0.0
 70
0
  0
VERTEX
  5
C5
  8
1
 10
-2407.641883
 20
-703.00983
 30
0.0
 70
0
  0
VERTEX
  5
C6
  8
1
 10
-2410.983011
 20
-704.950065
 30
0.0
 70
0
  0
VERTEX
  5
C7
  8
1
 10
-2413.972281
 20
-706.96297
 30
0.0
 70
0
  0
VERTEX
  5
C8
  8
1
 10
-2416.65107
 20
-709.061051
 30
0.0
 70
0
  0
VERTEX
  5
C9
  8
1
 10
-2418.95069
 20
-711.164442
 30
0.0
 70
0
  0
VERTEX
  5
CA
  8
1
 10
-2420.952859
 20
-713.315136
 30
0.0
 70
0
  0
VERTEX
  5
CB
  8
1
 10
-2422.72484
 20
-715.583203
 30
0.0
 70
0
  0
VERTEX
  5
CC
  8
1
 10
-2424.251375
 20
-717.951342
 30
0.0
 70
0
  0
VERTEX
  5
CD
  8
1
 10
-2425.613609
 20
-720.529324
 30
0.0
 70
0
  0
VERTEX
  5
CE
  8
1
 10
-2426.865954
 20
-723.437664
 30
0.0
 70
0
  0
VERTEX
  5
CF
  8
1
 10
-2427.98577
 20
-726.680993
 30
0.0
 70
0
  0
VERTEX
  5
D0
  8
1
 10
-2428.952893
 20
-730.25139
 30
0.0
 70
0
  0
VERTEX
  5
D1
  8
1
 10
-2429.771943
 20
-734.244338
 30
0.0
 70
0
  0
VERTEX
  5
D2
  8
1
 10
-2430.425711
 20
-738.718305
 30
0.0
 70
0
  0
VERTEX
  5
D3
  8
1
 10
-2430.881088
 20
-743.589258
 30
0.0
 70
0
  0
VERTEX
  5
D4
  8
1
 10
-2431.131923
 20
-749.059488
 30
0.0
 70
0
  0
VERTEX
  5
D5
  8
1
 10
-2431.152301
 20
-755.088813
 30
0.0
 70
0
  0
VERTEX
  5
D6
  8
1
 10
-2430.913775
 20
-762.035226
 30
0.0
 70
0
  0
VERTEX
  5
D7
  8
1
 10
-2430.394498
 20
-769.753428
 30
0.0
 70
0
  0
VERTEX
  5
D8
  8
1
 10
-2429.579054
 20
-778.092433
 30
0.0
 70
0
  0
VERTEX
  5
D9
  8
1
 10
-2428.390962
 20
-787.57271
 30
0.0
 70
0
  0
VERTEX
  5
DA
  8
1
 10
-2426.586148
 20
-799.725621
 30
0.0
 70
0
  0
VERTEX
  5
DB
  8
1
 10
-2424.192603
 20
-814.486761
 30
0.0
 70
0
  0
VERTEX
  5
DC
  8
1
 10
-2423.91922
 20
-816.133194
 30
0.0
 70
0
  0
VERTEX
  5
DD
  8
1
 10
-2435.57763
 20
-817.776208
 30
0.0
 70
0
  0
VERTEX
  5
DE
  8
1
 10
-2450.603208
 20
-819.751985
 30
0.0
 70
0
  0
VERTEX
  5
DF
  8
1
 10
-2465.599263
 20
-821.515009
 30
0.0
 70
0
  0
VERTEX
  5
E0
  8
1
 10
-2479.916999
 20
-822.952065
 30
0.0
 70
0
  0
VERTEX
  5
E1
  8
1
 10
-2493.706061
 20
-824.087384
 30
0.0
 70
0
  0
VERTEX
  5
E2
  8
1
 10
-2507.472211
 20
-824.96046
 30
0.0
 70
0
  0
VERTEX
  5
E3
  8
1
 10
-2521.846597
 20
-825.609703
 30
0.0
 70
0
  0
VERTEX
  5
E4
  8
1
 10
-2537.337051
 20
-826.051111
 30
0.0
 70
0
  0
VERTEX
  5
E5
  8
1
 10
-2552.425149
 20
-826.266201
 30
0.0
 70
0
  0
VERTEX
  5
E6
  8
1
 10
-2567.919722
 20
-826.308909
 30
0.0
 70
0
  0
VERTEX
  5
E7
  8
1
 10
-2583.395952
 20
-826.212277
 30
0.0
 70
0
  0
VERTEX
  5
E8
  8
1
 10
-2598.889295
 20
-826.024656
 30
0.0
 70
0
  0
VERTEX
  5
E9
  8
1
 10
-2614.300758
 20
-825.803946
 30
0.0
 70
0
  0
VERTEX
  5
EA
  8
1
 10
-2629.793587
 20
-825.573243
 30
0.0
 70
0
  0
VERTEX
  5
EB
  8
1
 10
-2645.245233
 20
-825.317698
 30
0.0
 70
0
  0
VERTEX
  5
EC
  8
1
 10
-2660.736848
 20
-825.015493
 30
0.0
 70
0
  0
VERTEX
  5
ED
  8
1
 10
-2676.196404
 20
-824.646664
 30
0.0
 70
0
  0
VERTEX
  5
EE
  8
1
 10
-2691.684705
 20
-824.205501
 30
0.0
 70
0
  0
VERTEX
  5
EF
  8
1
 10
-2707.084316
 20
-823.71639
 30
0.0
 70
0
  0
VERTEX
  5
F0
  8
1
 10
-2722.570029
 20
-823.194471
 30
0.0
 70
0
  0
VERTEX
  5
F1
  8
1
 10
-2737.624395
 20
-822.674654
 30
0.0
 70
0
  0
VERTEX
  5
F2
  8
1
 10
-2753.109675
 20
-822.139548
 30
0.0
 70
0
  0
VERTEX
  5
F3
  8
1
 10
-2768.320087
 20
-821.617884
 30
0.0
 70
0
  0
VERTEX
  5
F4
  8
1
 10
-2783.805683
 20
-821.092947
 30
0.0
 70
0
  0
VERTEX
  5
F5
  8
1
 10
-2799.246598
 20
-820.574617
 30
0.0
 70
0
  0
VERTEX
  5
F6
  8
1
 10
-2814.732571
 20
-820.058816
 30
0.0
 70
0
  0
VERTEX
  5
F7
  8
1
 10
-2829.743096
 20
-819.562676
 30
0.0
 70
0
  0
VERTEX
  5
F8
  8
1
 10
-2845.229285
 20
-819.054739
 30
0.0
 70
0
  0
VERTEX
  5
F9
  8
1
 10
-2860.711392
 20
-818.550568
 30
0.0
 70
0
  0
VERTEX
  5
FA
  8
1
 10
-2876.197768
 20
-818.049737
 30
0.0
 70
0
  0
VERTEX
  5
FB
  8
1
 10
-2891.540046
 20
-817.557681
 30
0.0
 70
0
  0
VERTEX
  5
FC
  8
1
 10
-2906.920178
 20
-817.068782
 30
0.0
 70
0
  0
SEQEND
  5
33
  8
1
  0
POLYLINE
  5
FD
  8
14
 66
1
 10
0.0
 20
0.0
 30
0.0
 70
1
  0
VERTEX
  5
FF
  8
14
 10
-2922.345886
 20
-803.875427
 30
0.0
 70
0
  0
VERTEX
  5
100
  8
14
 10
-2922.345886
 20
-803.875427
 30
0.0
 70
0
  0
VERTEX
  5
101
  8
14
 10
-2928.302242
 20
-803.697599
 30
0.0
 70
0
  0
VERTEX
  5
102
  8
14
 10
-2942.638998
 20
-803.259899
 30
0.0
 70
0
  0
VERTEX
  5
103
  8
14
 10
-2958.254525
 20
-802.772423
 30
0.0
 70
0
  0
VERTEX
  5
104
  8
14
 10
-2974.061006
 20
-802.269262
 30
0.0
 70
0
  0
VERTEX
  5
105
  8
14
 10
-2992.108143
 20
-801.683577
 30
0.0
 70
0
  0
VERTEX
  5
106
  8
14
 10
-3007.970744
 20
-801.159137
 30
0.0
 70
0
  0
VERTEX
  5
107
  8
14
 10
-3024.944464
 20
-800.587925
 30
0.0
 70
0
  0
VERTEX
  5
108
  8
14
 10
-3042.885802
 20
-799.972626
 30
0.0
 70
0
  0
VERTEX
  5
109
  8
14
 10
-3061.651288
 20
-799.315925
 30
0.0
 70
0
  0
VERTEX
  5
10A
  8
14
 10
-3081.09735
 20
-798.62051
 30
0.0
 70
0
  0
VERTEX
  5
10B
  8
14
 10
-3096.04223
 20
-798.075157
 30
0.0
 70
0
  0
VERTEX
  5
10C
  8
14
 10
-3111.228692
 20
-797.51067
 30
0.0
 70
0
  0
VERTEX
  5
10D
  8
14
 10
-3126.596196
 20
-796.928183
 30
0.0
 70
0
  0
VERTEX
  5
10E
  8
14
 10
-3142.084201
 20
-796.328828
 30
0.0
 70
0
  0
VERTEX
  5
10F
  8
14
 10
-3157.632146
 20
-795.713739
 30
0.0
 70
0
  0
VERTEX
  5
110
  8
14
 10
-3172.965026
 20
-795.093279
 30
0.0
 70
0
  0
VERTEX
  5
111
  8
14
 10
-3188.432704
 20
-794.454244
 30
0.0
 70
0
  0
VERTEX
  5
112
  8
14
 10
-3203.745171
 20
-793.809703
 30
0.0
 70
0
  0
VERTEX
  5
113
  8
14
 10
-3223.78588
 20
-792.949659
 30
0.0
 70
0
  0
VERTEX
  5
114
  8
14
 10
-3243.227794
 20
-792.098817
 30
0.0
 70
0
  0
VERTEX
  5
115
  8
14
 10
-3261.886446
 20
-791.268027
 30
0.0
 70
0
  0
VERTEX
  5
116
  8
14
 10
-3279.5773
 20
-790.468142
 30
0.0
 70
0
  0
VERTEX
  5
117
  8
14
 10
-3296.115885
 20
-789.710014
 30
0.0
 70
0
  0
VERTEX
  5
118
  8
14
 10
-3314.887627
 20
-788.837608
 30
0.0
 70
0
  0
VERTEX
  5
119
  8
14
 10
-3331.210284
 20
-788.068601
 30
0.0
 70
0
  0
VERTEX
  5
11A
  8
14
 10
-3347.057299
 20
-787.312122
 30
0.0
 70
0
  0
VERTEX
  5
11B
  8
14
 10
-3364.888916
 20
-786.446228
 30
0.0
 70
0
  0
VERTEX
  5
11C
  8
14
 10
-3364.888916
 20
-786.446228
 30
0.0
 70
0
  0
VERTEX
  5
11D
  8
14
 10
-3364.800475
 20
-768.545864
 30
0.0
 70
0
  0
VERTEX
  5
11E
  8
14
 10
-3364.713654
 20
-750.973462
 30
0.0
 70
0
  0
VERTEX
  5
11F
  8
14
 10
-3364.627433
 20
-733.522294
 30
0.0
 70
0
  0
VERTEX
  5
120
  8
14
 10
-3364.533645
 20
-714.539772
 30
0.0
 70
0
  0
VERTEX
  5
121
  8
14
 10
-3364.456345
 20
-698.894333
 30
0.0
 70
0
  0
VERTEX
  5
122
  8
14
 10
-3364.379651
 20
-683.371412
 30
0.0
 70
0
  0
VERTEX
  5
123
  8
14
 10
-3364.305982
 20
-668.461027
 30
0.0
 70
0
  0
VERTEX
  5
124
  8
14
 10
-3364.221841
 20
-651.430991
 30
0.0
 70
0
  0
VERTEX
  5
125
  8
14
 10
-3364.138766
 20
-634.616613
 30
0.0
 70
0
  0
VERTEX
  5
126
  8
14
 10
-3364.067777
 20
-620.248582
 30
0.0
 70
0
  0
VERTEX
  5
127
  8
14
 10
-3364.0625
 20
-619.18045
 30
0.0
 70
0
  0
VERTEX
  5
128
  8
14
 10
-3364.0625
 20
-619.18045
 30
0.0
 70
0
  0
VERTEX
  5
129
  8
14
 10
-3340.31376
 20
-618.048116
 30
0.0
 70
0
  0
VERTEX
  5
12A
  8
14
 10
-3323.298376
 20
-617.236827
 30
0.0
 70
0
  0
VERTEX
  5
12B
  8
14
 10
-3302.643344
 20
-616.252
 30
0.0
 70
0
  0
VERTEX
  5
12C
  8
14
 10
-3278.894607
 20
-615.119666
 30
0.0
 70
0
  0
VERTEX
  5
12D
  8
14
 10
-3261.612995
 20
-614.295683
 30
0.0
 70
0
  0
VERTEX
  5
12E
  8
14
 10
-3243.360809
 20
-613.425423
 30
0.0
 70
0
  0
VERTEX
  5
12F
  8
14
 10
-3224.299793
 20
-612.516598
 30
0.0
 70
0
  0
VERTEX
  5
130
  8
14
 10
-3204.591746
 20
-611.576923
 30
0.0
 70
0
  0
VERTEX
  5
131
  8
14
 10
-3184.398411
 20
-610.61411
 30
0.0
 70
0
  0
VERTEX
  5
132
  8
14
 10
-3163.881553
 20
-609.635871
 30
0.0
 70
0
  0
VERTEX
  5
133
  8
14
 10
-3143.202932
 20
-608.64992
 30
0.0
 70
0
  0
VERTEX
  5
134
  8
14
 10
-3122.524312
 20
-607.663968
 30
0.0
 70
0
  0
VERTEX
  5
135
  8
14
 10
-3102.007454
 20
-606.685729
 30
0.0
 70
0
  0
VERTEX
  5
136
  8
14
 10
-3081.814122
 20
-605.722916
 30
0.0
 70
0
  0
VERTEX
  5
137
  8
14
 10
-3062.106077
 20
-604.783241
 30
0.0
 70
0
  0
VERTEX
  5
138
  8
14
 10
-3043.045081
 20
-603.874417
 30
0.0
 70
0
  0
VERTEX
  5
139
  8
14
 10
-3024.792898
 20
-603.004158
 30
0.0
 70
0
  0
VERTEX
  5
13A
  8
14
 10
-3007.511258
 20
-602.180173
 30
0.0
 70
0
  0
VERTEX
  5
13B
  8
14
 10
-2991.361988
 20
-601.41018
 30
0.0
 70
0
  0
VERTEX
  5
13C
  8
14
 10
-2976.506817
 20
-600.701889
 30
0.0
 70
0
  0
VERTEX
  5
13D
  8
14
 10
-2957.004364
 20
-599.772017
 30
0.0
 70
0
  0
VERTEX
  5
13E
  8
14
 10
-2941.323526
 20
-599.024358
 30
0.0
 70
0
  0
VERTEX
  5
13F
  8
14
 10
-2927.304138
 20
-598.355917
 30
0.0
 70
0
  0
VERTEX
  5
140
  8
14
 10
-2922.343445
 20
-598.119392
 30
0.0
 70
0
  0
VERTEX
  5
141
  8
14
 10
-2922.343445
 20
-598.119392
 30
0.0
 70
0
  0
VERTEX
  5
142
  8
14
 10
-2905.539525
 20
-596.877777
 30
0.0
 70
0
  0
VERTEX
  5
143
  8
14
 10
-2889.771083
 20
-595.594611
 30
0.0
 70
0
  0
VERTEX
  5
144
  8
14
 10
-2872.581199
 20
-594.091515
 30
0.0
 70
0
  0
VERTEX
  5
145
  8
14
 10
-2855.709213
 20
-592.515711
 30
0.0
 70
0
  0
VERTEX
  5
146
  8
14
 10
-2840.372887
 20
-590.996896
 30
0.0
 70
0
  0
VERTEX
  5
147
  8
14
 10
-2824.063003
 20
-589.288734
 30
0.0
 70
0
  0
VERTEX
  5
148
  8
14
 10
-2806.95462
 20
-587.388977
 30
0.0
 70
0
  0
VERTEX
  5
149
  8
14
 10
-2789.222805
 20
-585.295379
 30
0.0
 70
0
  0
VERTEX
  5
14A
  8
14
 10
-2771.042623
 20
-583.005692
 30
0.0
 70
0
  0
VERTEX
  5
14B
  8
14
 10
-2752.589141
 20
-580.517669
 30
0.0
 70
0
  0
VERTEX
  5
14C
  8
14
 10
-2735.426543
 20
-578.037539
 30
0.0
 70
0
  0
VERTEX
  5
14D
  8
14
 10
-2716.978103
 20
-575.185929
 30
0.0
 70
0
  0
VERTEX
  5
14E
  8
14
 10
-2698.928621
 20
-572.232214
 30
0.0
 70
0
  0
VERTEX
  5
14F
  8
14
 10
-2681.586626
 20
-569.259816
 30
0.0
 70
0
  0
VERTEX
  5
150
  8
14
 10
-2665.260698
 20
-566.352164
 30
0.0
 70
0
  0
VERTEX
  5
151
  8
14
 10
-2650.259362
 20
-563.59268
 30
0.0
 70
0
  0
VERTEX
  5
152
  8
14
 10
-2634.440644
 20
-560.594342
 30
0.0
 70
0
  0
VERTEX
  5
153
  8
14
 10
-2619.669097
 20
-557.710103
 30
0.0
 70
0
  0
VERTEX
  5
154
  8
14
 10
-2605.16571
 20
-554.781342
 30
0.0
 70
0
  0
VERTEX
  5
155
  8
14
 10
-2602.211834
 20
-558.855563
 30
0.0
 70
0
  0
VERTEX
  5
156
  8
14
 10
-2598.901615
 20
-562.896868
 30
0.0
 70
0
  0
VERTEX
  5
157
  8
14
 10
-2595.335154
 20
-566.789091
 30
0.0
 70
0
  0
VERTEX
  5
158
  8
14
 10
-2592.007339
 20
-570.033511
 30
0.0
 70
0
  0
VERTEX
  5
159
  8
14
 10
-2588.299361
 20
-573.230242
 30
0.0
 70
0
  0
VERTEX
  5
15A
  8
14
 10
-2584.773326
 20
-575.869383
 30
0.0
 70
0
  0
VERTEX
  5
15B
  8
14
 10
-2581.695969
 20
-577.854187
 30
0.0
 70
0
  0
VERTEX
  5
15C
  8
14
 10
-2578.335424
 20
-579.701721
 30
0.0
 70
0
  0
VERTEX
  5
15D
  8
14
 10
-2574.839132
 20
-581.335706
 30
0.0
 70
0
  0
VERTEX
  5
15E
  8
14
 10
-2570.616625
 20
-582.998808
 30
0.0
 70
0
  0
VERTEX
  5
15F
  8
14
 10
-2566.271424
 20
-584.430228
 30
0.0
 70
0
  0
VERTEX
  5
160
  8
14
 10
-2561.198116
 20
-585.823189
 30
0.0
 70
0
  0
VERTEX
  5
161
  8
14
 10
-2555.413393
 20
-587.137176
 30
0.0
 70
0
  0
VERTEX
  5
162
  8
14
 10
-2548.13719
 20
-588.503633
 30
0.0
 70
0
  0
VERTEX
  5
163
  8
14
 10
-2540.162581
 20
-589.739465
 30
0.0
 70
0
  0
VERTEX
  5
164
  8
14
 10
-2531.251292
 20
-590.860369
 30
0.0
 70
0
  0
VERTEX
  5
165
  8
14
 10
-2523.34259
 20
-591.633682
 30
0.0
 70
0
  0
VERTEX
  5
166
  8
14
 10
-2507.253987
 20
-593.205725
 30
0.0
 70
0
  0
VERTEX
  5
167
  8
14
 10
-2491.579669
 20
-594.811766
 30
0.0
 70
0
  0
VERTEX
  5
168
  8
14
 10
-2476.124888
 20
-596.465263
 30
0.0
 70
0
  0
VERTEX
  5
169
  8
14
 10
-2459.456515
 20
-598.33878
 30
0.0
 70
0
  0
VERTEX
  5
16A
  8
14
 10
-2443.080713
 20
-600.291979
 30
0.0
 70
0
  0
VERTEX
  5
16B
  8
14
 10
-2428.174873
 20
-602.164372
 30
0.0
 70
0
  0
VERTEX
  5
16C
  8
14
 10
-2412.747514
 20
-604.180448
 30
0.0
 70
0
  0
VERTEX
  5
16D
  8
14
 10
-2398.044598
 20
-606.167125
 30
0.0
 70
0
  0
VERTEX
  5
16E
  8
14
 10
-2383.621143
 20
-608.176751
 30
0.0
 70
0
  0
VERTEX
  5
16F
  8
14
 10
-2378.049011
 20
-608.973083
 30
0.0
 70
0
  0
VERTEX
  5
170
  8
14
 10
-2378.106334
 20
-625.123081
 30
0.0
 70
0
  0
VERTEX
  5
171
  8
14
 10
-2377.893466
 20
-640.605901
 30
0.0
 70
0
  0
VERTEX
  5
172
  8
14
 10
-2377.470635
 20
-653.51797
 30
0.0
 70
0
  0
VERTEX
  5
173
  8
14
 10
-2376.755263
 20
-667.182154
 30
0.0
 70
0
  0
VERTEX
  5
174
  8
14
 10
-2375.727921
 20
-682.165167
 30
0.0
 70
0
  0
VERTEX
  5
175
  8
14
 10
-2375.449371
 20
-685.467911
 30
0.0
 70
0
  0
VERTEX
  5
176
  8
14
 10
-2380.9372
 20
-686.260846
 30
0.0
 70
0
  0
VERTEX
  5
177
  8
14
 10
-2386.921591
 20
-687.46895
 30
0.0
 70
0
  0
VERTEX
  5
178
  8
14
 10
-2392.732294
 20
-688.956916
 30
0.0
 70
0
  0
VERTEX
  5
179
  8
14
 10
-2398.30741
 20
-690.702406
 30
0.0
 70
0
  0
VERTEX
  5
17A
  8
14
 10
-2403.291315
 20
-692.567495
 30
0.0
 70
0
  0
VERTEX
  5
17B
  8
14
 10
-2408.331613
 20
-694.806134
 30
0.0
 70
0
  0
VERTEX
  5
17C
  8
14
 10
-2412.483991
 20
-696.979551
 30
0.0
 70
0
  0
VERTEX
  5
17D
  8
14
 10
-2416.515039
 20
-699.452148
 30
0.0
 70
0
  0
VERTEX
  5
17E
  8
14
 10
-2419.6035
 20
-701.657785
 30
0.0
 70
0
  0
VERTEX
  5
17F
  8
14
 10
-2422.530267
 20
-704.075719
 30
0.0
 70
0
  0
VERTEX
  5
180
  8
14
 10
-2425.258002
 20
-706.715217
 30
0.0
 70
0
  0
VERTEX
  5
181
  8
14
 10
-2427.749339
 20
-709.585518
 30
0.0
 70
0
  0
VERTEX
  5
182
  8
14
 10
-2429.875105
 20
-712.552735
 30
0.0
 70
0
  0
VERTEX
  5
183
  8
14
 10
-2431.813818
 20
-715.890874
 30
0.0
 70
0
  0
VERTEX
  5
184
  8
14
 10
-2433.473961
 20
-719.447254
 30
0.0
 70
0
  0
VERTEX
  5
185
  8
14
 10
-2434.872754
 20
-723.199187
 30
0.0
 70
0
  0
VERTEX
  5
186
  8
14
 10
-2436.027421
 20
-727.123985
 30
0.0
 70
0
  0
VERTEX
  5
187
  8
14
 10
-2436.955182
 20
-731.198959
 30
0.0
 70
0
  0
VERTEX
  5
188
  8
14
 10
-2437.822035
 20
-736.469297
 30
0.0
 70
0
  0
VERTEX
  5
189
  8
14
 10
-2438.394894
 20
-741.894522
 30
0.0
 70
0
  0
VERTEX
  5
18A
  8
14
 10
-2438.707398
 20
-747.430323
 30
0.0
 70
0
  0
VERTEX
  5
18B
  8
14
 10
-2438.786092
 20
-754.156847
 30
0.0
 70
0
  0
VERTEX
  5
18C
  8
14
 10
-2438.596433
 20
-760.902217
 30
0.0
 70
0
  0
VERTEX
  5
18D
  8
14
 10
-2438.113541
 20
-768.693485
 30
0.0
 70
0
  0
VERTEX
  5
18E
  8
14
 10
-2437.294105
 20
-777.643821
 30
0.0
 70
0
  0
VERTEX
  5
18F
  8
14
 10
-2436.127136
 20
-787.526172
 30
0.0
 70
0
  0
VERTEX
  5
190
  8
14
 10
-2434.654687
 20
-797.81294
 30
0.0
 70
0
  0
VERTEX
  5
191
  8
14
 10
-2433.519287
 20
-804.63829
 30
0.0
 70
0
  0
VERTEX
  5
192
  8
14
 10
-2441.708713
 20
-805.784564
 30
0.0
 70
0
  0
VERTEX
  5
193
  8
14
 10
-2457.051922
 20
-807.749932
 30
0.0
 70
0
  0
VERTEX
  5
194
  8
14
 10
-2471.799613
 20
-809.416355
 30
0.0
 70
0
  0
VERTEX
  5
195
  8
14
 10
-2484.853882
 20
-810.660508
 30
0.0
 70
0
  0
VERTEX
  5
196
  8
14
 10
-2498.953585
 20
-811.723438
 30
0.0
 70
0
  0
VERTEX
  5
197
  8
14
 10
-2513.074235
 20
-812.520045
 30
0.0
 70
0
  0
VERTEX
  5
198
  8
14
 10
-2528.779589
 20
-813.126278
 30
0.0
 70
0
  0
VERTEX
  5
199
  8
14
 10
-2545.264189
 20
-813.486647
 30
0.0
 70
0
  0
VERTEX
  5
19A
  8
14
 10
-2560.976174
 20
-813.609923
 30
0.0
 70
0
  0
VERTEX
  5
19B
  8
14
 10
-2576.686876
 20
-813.568212
 30
0.0
 70
0
  0
VERTEX
  5
19C
  8
14
 10
-2592.396689
 20
-813.412077
 30
0.0
 70
0
  0
VERTEX
  5
19D
  8
14
 10
-2608.105971
 20
-813.192083
 30
0.0
 70
0
  0
VERTEX
  5
19E
  8
14
 10
-2623.836721
 20
-812.956693
 30
0.0
 70
0
  0
VERTEX
  5
19F
  8
14
 10
-2639.545623
 20
-812.714321
 30
0.0
 70
0
  0
VERTEX
  5
1A0
  8
14
 10
-2655.25351
 20
-812.431456
 30
0.0
 70
0
  0
VERTEX
  5
1A1
  8
14
 10
-2670.378197
 20
-812.090727
 30
0.0
 70
0
  0
VERTEX
  5
1A2
  8
14
 10
-2686.082752
 20
-811.664641
 30
0.0
 70
0
  0
VERTEX
  5
1A3
  8
14
 10
-2701.785975
 20
-811.18233
 30
0.0
 70
0
  0
VERTEX
  5
1A4
  8
14
 10
-2717.488303
 20
-810.661658
 30
0.0
 70
0
  0
VERTEX
  5
1A5
  8
14
 10
-2733.19012
 20
-810.120492
 30
0.0
 70
0
  0
VERTEX
  5
1A6
  8
14
 10
-2749.200833
 20
-809.565655
 30
0.0
 70
0
  0
VERTEX
  5
1A7
  8
14
 10
-2764.843807
 20
-809.029175
 30
0.0
 70
0
  0
VERTEX
  5
1A8
  8
14
 10
-2780.327731
 20
-808.503411
 30
0.0
 70
0
  0
VERTEX
  5
1A9
  8
14
 10
-2795.547946
 20
-807.991265
 30
0.0
 70
0
  0
VERTEX
  5
1AA
  8
14
 10
-2811.860625
 20
-807.447097
 30
0.0
 70
0
  0
VERTEX
  5
1AB
  8
14
 10
-2827.588142
 20
-806.926783
 30
0.0
 70
0
  0
VERTEX
  5
1AC
  8
14
 10
-2843.91434
 20
-806.390911
 30
0.0
 70
0
  0
VERTEX
  5
1AD
  8
14
 10
-2859.197428
 20
-805.89304
 30
0.0
 70
0
  0
VERTEX
  5
1AE
  8
14
 10
-2875.467927
 20
-805.366911
 30
0.0
 70
0
  0
VERTEX
  5
1AF
  8
14
 10
-2890.725407
 20
-804.877223
 30
0.0
 70
0
  0
VERTEX
  5
1B0
  8
14
 10
-2906.280182
 20
-804.381878
 30
0.0
 70
0
  0
SEQEND
  5
FE
  8
14
  0
POLYLINE
  5
1B1
  8
8
 66
1
 10
0.0
 20
0.0
 30
0.0
 70
0
  0
VERTEX
  5
1B3
  8
8
 10
-3369.555664
 20
-706.611252
 30
0.0
 70
0
  0
VERTEX
  5
1B4
  8
8
 10
-3351.573189
 20
-706.66167
 30
0.0
 70
0
  0
VERTEX
  5
1B5
  8
8
 10
-3334.42039
 20
-706.707716
 30
0.0
 70
0
  0
VERTEX
  5
1B6
  8
8
 10
-3317.106214
 20
-706.752688
 30
0.0
 70
0
  0
VERTEX
  5
1B7
  8
8
 10
-3296.874021
 20
-706.803531
 30
0.0
 70
0
  0
VERTEX
  5
1B8
  8
8
 10
-3279.937519
 20
-706.844761
 30
0.0
 70
0
  0
VERTEX
  5
1B9
  8
8
 10
-3261.609333
 20
-706.888059
 30
0.0
 70
0
  0
VERTEX
  5
1BA
  8
8
 10
-3241.996478
 20
-706.932896
 30
0.0
 70
0
  0
VERTEX
  5
1BB
  8
8
 10
-3221.205953
 20
-706.97874
 30
0.0
 70
0
  0
VERTEX
  5
1BC
  8
8
 10
-3199.344805
 20
-707.025065
 30
0.0
 70
0
  0
VERTEX
  5
1BD
  8
8
 10
-3176.520034
 20
-707.071339
 30
0.0
 70
0
  0
VERTEX
  5
1BE
  8
8
 10
-3160.821022
 20
-707.1019
 30
0.0
 70
0
  0
VERTEX
  5
1BF
  8
8
 10
-3144.773003
 20
-707.132046
 30
0.0
 70
0
  0
VERTEX
  5
1C0
  8
8
 10
-3128.407687
 20
-707.161621
 30
0.0
 70
0
  0
VERTEX
  5
1C1
  8
8
 10
-3111.756781
 20
-707.190468
 30
0.0
 70
0
  0
VERTEX
  5
1C2
  8
8
 10
-3094.851995
 20
-707.21843
 30
0.0
 70
0
  0
VERTEX
  5
1C3
  8
8
 10
-3077.725035
 20
-707.24535
 30
0.0
 70
0
  0
VERTEX
  5
1C4
  8
8
 10
-3060.407611
 20
-707.271072
 30
0.0
 70
0
  0
VERTEX
  5
1C5
  8
8
 10
-3042.931431
 20
-707.295439
 30
0.0
 70
0
  0
VERTEX
  5
1C6
  8
8
 10
-3025.328204
 20
-707.318294
 30
0.0
 70
0
  0
VERTEX
  5
1C7
  8
8
 10
-3007.629636
 20
-707.339479
 30
0.0
 70
0
  0
VERTEX
  5
1C8
  8
8
 10
-2989.867437
 20
-707.358839
 30
0.0
 70
0
  0
VERTEX
  5
1C9
  8
8
 10
-2972.073316
 20
-707.376215
 30
0.0
 70
0
  0
VERTEX
  5
1CA
  8
8
 10
-2954.160895
 20
-707.391591
 30
0.0
 70
0
  0
VERTEX
  5
1CB
  8
8
 10
-2936.406044
 20
-707.404822
 30
0.0
 70
0
  0
VERTEX
  5
1CC
  8
8
 10
-2918.72776
 20
-707.416122
 30
0.0
 70
0
  0
VERTEX
  5
1CD
  8
8
 10
-2901.16433
 20
-707.425598
 30
0.0
 70
0
  0
VERTEX
  5
1CE
  8
8
 10
-2883.754038
 20
-707.433355
 30
0.0
 70
0
  0
VERTEX
  5
1CF
  8
8
 10
-2866.53517
 20
-707.439497
 30
0.0
 70
0
  0
VERTEX
  5
1D0
  8
8
 10
-2849.546011
 20
-707.444131
 30
0.0
 70
0
  0
VERTEX
  5
1D1
  8
8
 10
-2832.824846
 20
-707.447361
 30
0.0
 70
0
  0
VERTEX
  5
1D2
  8
8
 10
-2816.40996
 20
-707.449293
 30
0.0
 70
0
  0
VERTEX
  5
1D3
  8
8
 10
-2800.339638
 20
-707.450032
 30
0.0
 70
0
  0
VERTEX
  5
1D4
  8
8
 10
-2784.652166
 20
-707.449683
 30
0.0
 70
0
  0
VERTEX
  5
1D5
  8
8
 10
-2769.385828
 20
-707.448352
 30
0.0
 70
0
  0
VERTEX
  5
1D6
  8
8
 10
-2754.57891
 20
-707.446144
 30
0.0
 70
0
  0
VERTEX
  5
1D7
  8
8
 10
-2733.313635
 20
-707.441418
 30
0.0
 70
0
  0
VERTEX
  5
1D8
  8
8
 10
-2713.297471
 20
-707.43531
 30
0.0
 70
0
  0
VERTEX
  5
1D9
  8
8
 10
-2694.659568
 20
-707.428177
 30
0.0
 70
0
  0
VERTEX
  5
1DA
  8
8
 10
-2677.529139
 20
-707.420374
 30
0.0
 70
0
  0
VERTEX
  5
1DB
  8
8
 10
-2662.035396
 20
-707.412256
 30
0.0
 70
0
  0
VERTEX
  5
1DC
  8
8
 10
-2644.146358
 20
-707.401557
 30
0.0
 70
0
  0
VERTEX
  5
1DD
  8
8
 10
-2629.702977
 20
-707.391772
 30
0.0
 70
0
  0
VERTEX
  5
1DE
  8
8
 10
-2615.168501
 20
-707.380652
 30
0.0
 70
0
  0
VERTEX
  5
1DF
  8
8
 10
-2610.109558
 20
-707.376328
 30
0.0
 70
0
  0
SEQEND
  5
1B2
  8
8
  0
POLYLINE
  5
1E0
  8
8
 66
1
 10
0.0
 20
0.0
 30
0.0
 70
0
  0
VERTEX
  5
1E2
  8
8
 10
-2523.27774
 20
-588.179626
 30
0.0
 70
0
  0
VERTEX
  5
1E3
  8
8
 10
-2543.10379
 20
-813.43338
 30
0.0
 70
0
  0
SEQEND
  5
1E1
  8
8
  0
POLYLINE
  5
1E4
  8
8
 66
1
 10
0.0
 20
0.0
 30
0.0
 70
0
  0
VERTEX
  5
1E6
  8
8
 10
-2922.343445
 20
-598.119392
 30
0.0
 70
0
  0
VERTEX
  5
1E7
  8
8
 10
-2922.343445
 20
-615.521473
 30
0.0
 70
0
  0
VERTEX
  5
1E8
  8
8
 10
-2922.343445
 20
-631.845852
 30
0.0
 70
0
  0
VERTEX
  5
1E9
  8
8
 10
-2922.343445
 20
-647.58999
 30
0.0
 70
0
  0
VERTEX
  5
1EA
  8
8
 10
-2922.343445
 20
-662.818066
 30
0.0
 70
0
  0
VERTEX
  5
1EB
  8
8
 10
-2922.343445
 20
-678.986041
 30
0.0
 70
0
  0
VERTEX
  5
1EC
  8
8
 10
-2922.343445
 20
-695.697529
 30
0.0
 70
0
  0
VERTEX
  5
1ED
  8
8
 10
-2922.343445
 20
-711.591084
 30
0.0
 70
0
  0
VERTEX
  5
1EE
  8
8
 10
-2922.343445
 20
-728.216187
 30
0.0
 70
0
  0
VERTEX
  5
1EF
  8
8
 10
-2922.343445
 20
-744.194651
 30
0.0
 70
0
  0
VERTEX
  5
1F0
  8
8
 10
-2922.343445
 20
-759.115026
 30
0.0
 70
0
  0
VERTEX
  5
1F1
  8
8
 10
-2922.343445
 20
-774.343375
 30
0.0
 70
0
  0
VERTEX
  5
1F2
  8
8
 10
-2922.343445
 20
-789.743816
 30
0.0
 70
0
  0
VERTEX
  5
1F3
  8
8
 10
-2922.343445
 20
-803.875427
 30
0.0
 70
0
  0
SEQEND
  5
1E5
  8
8
  0
POLYLINE
  5
1F4
  8
8
 66
1
 10
0.0
 20
0.0
 30
0.0
 70
0
  0
VERTEX
  5
1F6
  8
8
 10
-2605.16571
 20
-554.781342
 30
0.0
 70
0
  0
VERTEX
  5
1F7
  8
8
 10
-2615.965271
 20
-813.04184
 30
0.0
 70
0
  0
SEQEND
  5
1F5
  8
8
  0
POINT
  5
1F8
  8
4
 10
-2922.727661
 20
-816.569672
 30
0.0
  0
POINT
  5
1F9
  8
4
 10
-3364.951782
 20
-799.15802
 30
0.0
  0
POINT
  5
1FA
  8
4
 10
-3363.999634
 20
-606.463051
 30
0.0
  0
POINT
  5
1FB
  8
4
 10
-2922.948303
 20
-585.433807
 30
0.0
  0
POINT
  5
1FC
  8
4
 10
-2922.345886
 20
-803.875427
 30
0.0
  0
POINT
  5
1FD
  8
4
 10
-3364.888916
 20
-786.446228
 30
0.0
  0
POINT
  5
1FE
  8
4
 10
-3364.0625
 20
-619.18045
 30
0.0
  0
POINT
  5
1FF
  8
4
 10
-2922.343445
 20
-598.119392
 30
0.0
  0
LINE
  5
200
  8
7
 10
-3341.298828
 20
-702.162857
 30
0.0
 11
-2446.712189
 21
-702.162857
 31
0.0
  0
ENDSEC
  0
EOF
