  0
SECTION
  2
HEADER
  9
$ACADVER
  1
AC1009
  9
$DWGCODEPAGE
  3
ANSI_1252
  9
$INSBASE
 10
0.0
 20
0.0
 30
0.0
  9
$EXTMIN
 10
1e+20
 20
1e+20
 30
1e+20
  9
$EXTMAX
 10
-1e+20
 20
-1e+20
 30
-1e+20
  9
$LIMMIN
 10
0.0
 20
0.0
  9
$LIMMAX
 10
420.0
 20
297.0
  9
$ORTHOMODE
 70
0
  9
$REGENMODE
 70
1
  9
$FILLMODE
 70
1
  9
$DRAGMODE
 70
2
  9
$QTEXTMODE
 70
0
  9
$MIRRTEXT
 70
1
  9
$OSMODE
 70
20583
  9
$LTSCALE
 40
1.0
  9
$ATTMODE
 70
1
  9
$TEXTSIZE
 40
2.5
  9
$TRACEWID
 40
1.0
  9
$TEXTSTYLE
  7
Standard
  9
$CLAYER
  8
0
  9
$CELTYPE
  6
ByLayer
  9
$CECOLOR
 62
256
  9
$DIMSCALE
 40
1.0
  9
$DIMASZ
 40
2.5
  9
$DIMEXO
 40
0.625
  9
$DIMDLI
 40
3.75
  9
$DIMRND
 40
0.0
  9
$DIMDLE
 40
0.0
  9
$DIMEXE
 40
1.25
  9
$DIMTP
 40
0.0
  9
$DIMTM
 40
0.0
  9
$DIMTXT
 40
2.5
  9
$DIMCEN
 40
2.5
  9
$DIMTSZ
 40
0.0
  9
$DIMTOL
 70
0
  9
$DIMLIM
 70
0
  9
$DIMTIH
 70
0
  9
$DIMTOH
 70
0
  9
$DIMSE1
 70
0
  9
$DIMSE2
 70
0
  9
$DIMTAD
 70
1
  9
$DIMZIN
 70
8
  9
$DIMBLK
  1

  9
$DIMASO
 70
1
  9
$DIMSHO
 70
1
  9
$DIMPOST
  1

  9
$DIMAPOST
  1

  9
$DIMALT
 70
0
  9
$DIMALTD
 70
3
  9
$DIMALTF
 40
0.03937007874
  9
$DIMLFAC
 40
1.0
  9
$DIMTOFL
 70
1
  9
$DIMTVP
 40
0.0
  9
$DIMTIX
 70
0
  9
$DIMSOXD
 70
0
  9
$DIMSAH
 70
0
  9
$DIMBLK1
  1

  9
$DIMBLK2
  1

  9
$DIMSTYLE
  2
ISO-25
  9
$DIMCLRD
 70
0
  9
$DIMCLRE
 70
0
  9
$DIMCLRT
 70
0
  9
$DIMTFAC
 40
1.0
  9
$DIMGAP
 40
0.625
  9
$COORDS
 70
1
  9
$ATTDIA
 70
0
  9
$ATTREQ
 70
1
  9
$HANDLING
 70
1
  9
$LUNITS
 70
2
  9
$LUPREC
 70
4
  9
$SKETCHINC
 40
1.0
  9
$FILLETRAD
 40
10.0
  9
$AUNITS
 70
0
  9
$AUPREC
 70
2
  9
$MENU
  1
.
  9
$ELEVATION
 40
0.0
  9
$PELEVATION
 40
0.0
  9
$THICKNESS
 40
0.0
  9
$LIMCHECK
 70
0
  9
$CHAMFERA
 40
0.0
  9
$CHAMFERB
 40
0.0
  9
$SKPOLY
 70
0
  9
$TDCREATE
 40
2461264.9423032408
  9
$TDUPDATE
 40
2461264.9423032408
  9
$TDINDWG
 40
0.0
  9
$TDUSRTIMER
 40
0.0
  9
$USRTIMER
 70
1
  9
$ANGBASE
 50
0.0
  9
$ANGDIR
 70
0
  9
$PDMODE
 70
0
  9
$PDSIZE
 40
0.0
  9
$PLINEWID
 40
0.0
  9
$SPLFRAME
 70
0
  9
$SPLINETYPE
 70
6
  9
$SPLINESEGS
 70
8
  9
$HANDSEED
  5
20A
  9
$SURFTAB1
 70
6
  9
$SURFTAB2
 70
6
  9
$SURFTYPE
 70
6
  9
$SURFU
 70
6
  9
$SURFV
 70
6
  9
$UCSNAME
  2

  9
$UCSORG
 10
0.0
 20
0.0
 30
0.0
  9
$UCSXDIR
 10
1.0
 20
0.0
 30
0.0
  9
$UCSYDIR
 10
0.0
 20
1.0
 30
0.0
  9
$PUCSNAME
  2

  9
$PUCSORG
 10
0.0
 20
0.0
 30
0.0
  9
$PUCSXDIR
 10
1.0
 20
0.0
 30
0.0
  9
$PUCSYDIR
 10
0.0
 20
1.0
 30
0.0
  9
$USERI1
 70
0
  9
$USERI2
 70
0
  9
$USERI3
 70
0
  9
$USERI4
 70
0
  9
$USERI5
 70
0
  9
$USERR1
 40
0.0
  9
$USERR2
 40
0.0
  9
$USERR3
 40
0.0
  9
$USERR4
 40
0.0
  9
$USERR5
 40
0.0
  9
$WORLDVIEW
 70
1
  9
$SHADEDGE
 70
3
  9
$SHADEDIF
 70
70
  9
$TILEMODE
 70
1
  9
$MAXACTVP
 70
64
  9
$PLIMCHECK
 70
0
  9
$PEXTMIN
 10
1e+20
 20
1e+20
 30
1e+20
  9
$PEXTMAX
 10
-1e+20
 20
-1e+20
 30
-1e+20
  9
$PLIMMIN
 10
0.0
 20
0.0
  9
$PLIMMAX
 10
420.0
 20
297.0
  9
$UNITMODE
 70
0
  9
$VISRETAIN
 70
1
  9
$PLINEGEN
 70
0
  9
$PSLTSCALE
 70
1
  0
ENDSEC
  0
SECTION
  2
TABLES
  0
TABLE
  2
VPORT
 70
1
  0
VPORT
  5
23
  2
*Active
 70
0
 10
0.0
 20
0.0
 11
1.0
 21
1.0
 12
0.0
 22
0.0
 13
0.0
 23
0.0
 14
0.5
 24
0.5
 15
0.5
 25
0.5
 16
0.0
 26
0.0
 36
1.0
 17
0.0
 27
0.0
 37
0.0
 40
1000.0
 41
1.34
 42
50.0
 43
0.0
 44
0.0
 50
0.0
 51
0.0
 71
0
 72
1000
 73
1
 74
3
 75
0
 76
0
 77
0
 78
0
  0
ENDTAB
  0
TABLE
  2
LTYPE
 70
3
  0
LTYPE
  5
24
  2
ByBlock
 70
0
  3

 72
65
 73
0
 40
0.0
  0
LTYPE
  5
25
  2
ByLayer
 70
0
  3

 72
65
 73
0
 40
0.0
  0
LTYPE
  5
26
  2
Continuous
 70
0
  3

 72
65
 73
0
 40
0.0
  0
ENDTAB
  0
TABLE
  2
LAYER
 70
7
  0
LAYER
  5
27
  2
0
 70
0
 62
7
  6
Continuous
  0
LAYER
  5
28
  2
Defpoints
 70
0
 62
7
  6
Continuous
  0
LAYER
  5
2D
  2
1
 70
0
 62
1
  6
Continuous
  0
LAYER
  5
2E
  2
7
 70
0
 62
7
  6
Continuous
  0
LAYER
  5
2F
  2
14
 70
0
 62
3
  6
Continuous
  0
LAYER
  5
30
  2
8
 70
0
 62
6
  6
Continuous
  0
LAYER
  5
31
  2
4
 70
0
 62
2
  6
Continuous
  0
ENDTAB
  0
TABLE
  2
STYLE
 70
1
  0
STYLE
  5
29
  2
Standard
 70
0
 40
0.0
 41
1.0
 50
0.0
 71
0
 42
2.5
  3
txt
  4

  0
ENDTAB
  0
TABLE
  2
VIEW
 70
0
  0
ENDTAB
  0
TABLE
  2
UCS
 70
0
  0
ENDTAB
  0
TABLE
  2
APPID
 70
3
  0
APPID
  5
2A
  2
ACAD
 70
0
  0
APPID
  5
208
  2
HATCHBACKGROUNDCOLOR
 70
0
  0
APPID
  5
209
  2
EZDXF
 70
0
  0
ENDTAB
  0
TABLE
  2
DIMSTYLE
 70
1
  0
DIMSTYLE
105
2B
  2
Standard
 70
0
  3

  4

  5

  6

  7

 40
1.0
 41
2.5
 42
0.625
 43
3.75
 44
1.25
 45
0.0
 46
0.0
 47
0.0
 48
0.0
140
2.5
141
2.5
142
0.0
143
0.03937007874
144
1.0
145
0.0
146
1.0
147
0.625
 71
0
 72
0
 73
0
 74
0
 75
0
 76
0
 77
1
 78
8
170
0
171
3
172
1
173
0
174
0
175
0
176
0
177
0
178
0
  0
ENDTAB
  0
ENDSEC
  0
SECTION
  2
BLOCKS
  0
BLOCK
  5
18
  8
0
  2
$Model_Space
 70
0
 10
0.0
 20
0.0
 30
0.0
  3
$Model_Space
  1

1001
EZDXF
1000
CREATED_BY_EZDXF
1000
1.4.4 @ 2026-08-11T14:36:55.321176+00:00
1000
WRITTEN_BY_EZDXF
1000
1.4.4 @ 2026-08-11T14:36:55.325175+00:00
  0
ENDBLK
  5
19
  8
0
  0
BLOCK
  5
1C
  8
0
  2
$Paper_Space
 70
0
 10
0.0
 20
0.0
 30
0.0
  3
$Paper_Space
  1

  0
ENDBLK
  5
1D
  8
0
  0
ENDSEC
  0
SECTION
  2
ENTITIES
  0
POLYLINE
  5
32
  8
1
 66
1
 10
0.0
 20
0.0
 30
0.0
 70
1
  0
VERTEX
  5
34
  8
1
 10
-2922.75177
 20
-821.648941
 30
0.0
 70
0
  0
VERTEX
  5
35
  8
1
 10
-2922.75177
 20
-821.648941
 30
0.0
 70
0
  0
VERTEX
  5
36
  8
1
 10
-2935.014773
 20
-821.252521
 30
0.0
 70
0
  0
VERTEX
  5
37
  8
1
 10
-2950.144058
 20
-820.750696
 30
0.0
 70
0
  0
VERTEX
  5
38
  8
1
 10
-2965.273066
 20
-820.237929
 30
0.0
 70
0
  0
VERTEX
  5
39
  8
1
 10
-2980.73432
 20
-819.705792
 30
0.0
 70
0
  0
VERTEX
  5
3A
  8
1
 10
-2995.862829
 20
-819.177714
 30
0.0
 70
0
  0
VERTEX
  5
3B
  8
1
 10
-3011.268313
 20
-818.631726
 30
0.0
 70
0
  0
VERTEX
  5
3C
  8
1
 10
-3026.396111
 20
-818.087205
 30
0.0
 70
0
  0
VERTEX
  5
3D
  8
1
 10
-3041.819923
 20
-817.523539
 30
0.0
 70
0
  0
VERTEX
  5
3E
  8
1
 10
-3056.947126
 20
-816.962276
 30
0.0
 70
0
  0
VERTEX
  5
3F
  8
1
 10
-3072.074013
 20
-816.392281
 30
0.0
 70
0
  0
VERTEX
  5
40
  8
1
 10
-3087.430676
 20
-815.804259
 30
0.0
 70
0
  0
VERTEX
  5
41
  8
1
 10
-3102.55686
 20
-815.21537
 30
0.0
 70
0
  0
VERTEX
  5
42
  8
1
 10
-3117.77985
 20
-814.61249
 30
0.0
 70
0
  0
VERTEX
  5
43
  8
1
 10
-3132.905249
 20
-814.002607
 30
0.0
 70
0
  0
VERTEX
  5
44
  8
1
 10
-3148.325809
 20
-813.368849
 30
0.0
 70
0
  0
VERTEX
  5
45
  8
1
 10
-3163.45012
 20
-812.734775
 30
0.0
 70
0
  0
VERTEX
  5
46
  8
1
 10
-3178.446726
 20
-812.093226
 30
0.0
 70
0
  0
VERTEX
  5
47
  8
1
 10
-3193.570025
 20
-811.433761
 30
0.0
 70
0
  0
VERTEX
  5
48
  8
1
 10
-3208.86593
 20
-810.755167
 30
0.0
 70
0
  0
VERTEX
  5
49
  8
1
 10
-3223.988266
 20
-810.073713
 30
0.0
 70
0
  0
VERTEX
  5
4A
  8
1
 10
-3238.997479
 20
-809.387645
 30
0.0
 70
0
  0
VERTEX
  5
4B
  8
1
 10
-3254.118895
 20
-808.687158
 30
0.0
 70
0
  0
VERTEX
  5
4C
  8
1
 10
-3269.239905
 20
-807.977699
 30
0.0
 70
0
  0
VERTEX
  5
4D
  8
1
 10
-3284.457984
 20
-807.254993
 30
0.0
 70
0
  0
VERTEX
  5
4E
  8
1
 10
-3299.578229
 20
-806.528932
 30
0.0
 70
0
  0
VERTEX
  5
4F
  8
1
 10
-3314.640032
 20
-805.798349
 30
0.0
 70
0
  0
VERTEX
  5
50
  8
1
 10
-3329.759494
 20
-805.056701
 30
0.0
 70
0
  0
VERTEX
  5
51
  8
1
 10
-3344.936688
 20
-804.301871
 30
0.0
 70
0
  0
VERTEX
  5
52
  8
1
 10
-3360.055124
 20
-803.539871
 30
0.0
 70
0
  0
VERTEX
  5
53
  8
1
 10
-3375.108948
 20
-802.775726
 30
0.0
 70
0
  0
VERTEX
  5
54
  8
1
 10
-3375.694605
 20
-802.74599
 30
0.0
 70
0
  0
VERTEX
  5
55
  8
1
 10
-3391.050319
 20
-801.965542
 30
0.0
 70
0
  0
VERTEX
  5
56
  8
1
 10
-3406.851807
 20
-801.162415
 30
0.0
 70
0
  0
VERTEX
  5
57
  8
1
 10
-3406.776438
 20
-785.272396
 30
0.0
 70
0
  0
VERTEX
  5
58
  8
1
 10
-3406.703817
 20
-769.96201
 30
0.0
 70
0
  0
VERTEX
  5
59
  8
1
 10
-3406.631224
 20
-754.651634
 30
0.0
 70
0
  0
VERTEX
  5
5A
  8
1
 10
-3406.559323
 20
-739.476292
 30
0.0
 70
0
  0
VERTEX
  5
5B
  8
1
 10
-3406.486804
 20
-724.16592
 30
0.0
 70
0
  0
VERTEX
  5
5C
  8
1
 10
-3406.4139
 20
-708.77888
 30
0.0
 70
0
  0
VERTEX
  5
5D
  8
1
 10
-3406.341325
 20
-693.468491
 30
0.0
 70
0
  0
VERTEX
  5
5E
  8
1
 10
-3406.26849
 20
-678.109136
 30
0.0
 70
0
  0
VERTEX
  5
5F
  8
1
 10
-3406.195881
 20
-662.798756
 30
0.0
 70
0
  0
VERTEX
  5
60
  8
1
 10
-3406.123948
 20
-647.627089
 30
0.0
 70
0
  0
VERTEX
  5
61
  8
1
 10
-3406.051389
 20
-632.31671
 30
0.0
 70
0
  0
VERTEX
  5
62
  8
1
 10
-3405.978861
 20
-617.006332
 30
0.0
 70
0
  0
VERTEX
  5
63
  8
1
 10
-3405.919495
 20
-604.469833
 30
0.0
 70
0
  0
VERTEX
  5
64
  8
1
 10
-3390.428967
 20
-603.737087
 30
0.0
 70
0
  0
VERTEX
  5
65
  8
1
 10
-3375.15784
 20
-603.014717
 30
0.0
 70
0
  0
VERTEX
  5
66
  8
1
 10
-3374.161987
 20
-602.967606
 30
0.0
 70
0
  0
VERTEX
  5
67
  8
1
 10
-3359.943991
 20
-602.295055
 30
0.0
 70
0
  0
VERTEX
  5
68
  8
1
 10
-3344.515887
 20
-601.565258
 30
0.0
 70
0
  0
VERTEX
  5
69
  8
1
 10
-3329.238244
 20
-600.84258
 30
0.0
 70
0
  0
VERTEX
  5
6A
  8
1
 10
-3313.810105
 20
-600.112783
 30
0.0
 70
0
  0
VERTEX
  5
6B
  8
1
 10
-3298.57184
 20
-599.391963
 30
0.0
 70
0
  0
VERTEX
  5
6C
  8
1
 10
-3283.143723
 20
-598.662163
 30
0.0
 70
0
  0
VERTEX
  5
6D
  8
1
 10
-3267.693003
 20
-597.931295
 30
0.0
 70
0
  0
VERTEX
  5
6E
  8
1
 10
-3252.264898
 20
-597.201497
 30
0.0
 70
0
  0
VERTEX
  5
6F
  8
1
 10
-3237.280774
 20
-596.492701
 30
0.0
 70
0
  0
VERTEX
  5
70
  8
1
 10
-3221.852644
 20
-595.762901
 30
0.0
 70
0
  0
VERTEX
  5
71
  8
1
 10
-3206.408646
 20
-595.032351
 30
0.0
 70
0
  0
VERTEX
  5
72
  8
1
 10
-3191.182961
 20
-594.312126
 30
0.0
 70
0
  0
VERTEX
  5
73
  8
1
 10
-3175.754863
 20
-593.582325
 30
0.0
 70
0
  0
VERTEX
  5
74
  8
1
 10
-3160.331052
 20
-592.852732
 30
0.0
 70
0
  0
VERTEX
  5
75
  8
1
 10
-3144.902934
 20
-592.122945
 30
0.0
 70
0
  0
VERTEX
  5
76
  8
1
 10
-3129.712297
 20
-591.404393
 30
0.0
 70
0
  0
VERTEX
  5
77
  8
1
 10
-3114.284157
 20
-590.6746
 30
0.0
 70
0
  0
VERTEX
  5
78
  8
1
 10
-3099.058484
 20
-589.954375
 30
0.0
 70
0
  0
VERTEX
  5
79
  8
1
 10
-3083.63042
 20
-589.224569
 30
0.0
 70
0
  0
VERTEX
  5
7A
  8
1
 10
-3068.202357
 20
-588.494763
 30
0.0
 70
0
  0
VERTEX
  5
7B
  8
1
 10
-3052.729695
 20
-587.762855
 30
0.0
 70
0
  0
VERTEX
  5
7C
  8
1
 10
-3037.685658
 20
-587.051227
 30
0.0
 70
0
  0
VERTEX
  5
7D
  8
1
 10
-3022.257558
 20
-586.321433
 30
0.0
 70
0
  0
VERTEX
  5
7E
  8
1
 10
-3007.126888
 20
-585.605712
 30
0.0
 70
0
  0
VERTEX
  5
7F
  8
1
 10
-2991.69872
 20
-584.875924
 30
0.0
 70
0
  0
VERTEX
  5
80
  8
1
 10
-2976.578995
 20
-584.160724
 30
0.0
 70
0
  0
VERTEX
  5
81
  8
1
 10
-2961.150856
 20
-583.430925
 30
0.0
 70
0
  0
VERTEX
  5
82
  8
1
 10
-2945.900191
 20
-582.709514
 30
0.0
 70
0
  0
VERTEX
  5
83
  8
1
 10
-2930.747926
 20
-581.992755
 30
0.0
 70
0
  0
VERTEX
  5
84
  8
1
 10
-2922.94342
 20
-581.623573
 30
0.0
 70
0
  0
VERTEX
  5
85
  8
1
 10
-2923.178101
 20
-581.635323
 30
0.0
 70
0
  0
VERTEX
  5
86
  8
1
 10
-2907.497973
 20
-580.310335
 30
0.0
 70
0
  0
VERTEX
  5
87
  8
1
 10
-2892.413566
 20
-578.962969
 30
0.0
 70
0
  0
VERTEX
  5
88
  8
1
 10
-2876.949234
 20
-577.482344
 30
0.0
 70
0
  0
VERTEX
  5
89
  8
1
 10
-2862.05091
 20
-575.965561
 30
0.0
 70
0
  0
VERTEX
  5
8A
  8
1
 10
-2846.603998
 20
-574.312341
 30
0.0
 70
0
  0
VERTEX
  5
8B
  8
1
 10
-2831.882897
 20
-572.659116
 30
0.0
 70
0
  0
VERTEX
  5
8C
  8
1
 10
-2816.454655
 20
-570.840272
 30
0.0
 70
0
  0
VERTEX
  5
8D
  8
1
 10
-2801.989304
 20
-569.0507
 30
0.0
 70
0
  0
VERTEX
  5
8E
  8
1
 10
-2786.583636
 20
-567.049594
 30
0.0
 70
0
  0
VERTEX
  5
8F
  8
1
 10
-2772.135689
 20
-565.074479
 30
0.0
 70
0
  0
VERTEX
  5
90
  8
1
 10
-2756.759649
 20
-562.857288
 30
0.0
 70
0
  0
VERTEX
  5
91
  8
1
 10
-2742.12533
 20
-560.628577
 30
0.0
 70
0
  0
VERTEX
  5
92
  8
1
 10
-2726.786993
 20
-558.163482
 30
0.0
 70
0
  0
VERTEX
  5
93
  8
1
 10
-2712.013426
 20
-555.670943
 30
0.0
 70
0
  0
VERTEX
  5
94
  8
1
 10
-2696.713503
 20
-552.97777
 30
0.0
 70
0
  0
VERTEX
  5
95
  8
1
 10
-2682.381605
 20
-550.362321
 30
0.0
 70
0
  0
VERTEX
  5
96
  8
1
 10
-2667.114842
 20
-547.487715
 30
0.0
 70
0
  0
VERTEX
  5
97
  8
1
 10
-2652.802259
 20
-544.713281
 30
0.0
 70
0
  0
VERTEX
  5
98
  8
1
 10
-2637.566922
 20
-541.676184
 30
0.0
 70
0
  0
VERTEX
  5
99
  8
1
 10
-2623.306173
 20
-538.750318
 30
0.0
 70
0
  0
VERTEX
  5
9A
  8
1
 10
-2608.011332
 20
-535.527701
 30
0.0
 70
0
  0
VERTEX
  5
9B
  8
1
 10
-2600.985413
 20
-534.025536
 30
0.0
 70
0
  0
VERTEX
  5
9C
  8
1
 10
-2596.344404
 20
-540.593314
 30
0.0
 70
0
  0
VERTEX
  5
9D
  8
1
 10
-2592.471178
 20
-545.675932
 30
0.0
 70
0
  0
VERTEX
  5
9E
  8
1
 10
-2589.446686
 20
-549.289723
 30
0.0
 70
0
  0
VERTEX
  5
9F
  8
1
 10
-2586.439703
 20
-552.494822
 30
0.0
 70
0
  0
VERTEX
  5
A0
  8
1
 10
-2583.451096
 20
-555.338876
 30
0.0
 70
0
  0
VERTEX
  5
A1
  8
1
 10
-2580.466957
 20
-557.843709
 30
0.0
 70
0
  0
VERTEX
  5
A2
  8
1
 10
-2577.655016
 20
-559.894023
 30
0.0
 70
0
  0
VERTEX
  5
A3
  8
1
 10
-2574.910667
 20
-561.596095
 30
0.0
 70
0
  0
VERTEX
  5
A4
  8
1
 10
-2571.9033
 20
-563.154775
 30
0.0
 70
0
  0
VERTEX
  5
A5
  8
1
 10
-2568.476993
 20
-564.636083
 30
0.0
 70
0
  0
VERTEX
  5
A6
  8
1
 10
-2564.655972
 20
-566.009201
 30
0.0
 70
0
  0
VERTEX
  5
A7
  8
1
 10
-2560.231577
 20
-567.324013
 30
0.0
 70
0
  0
VERTEX
  5
A8
  8
1
 10
-2554.928113
 20
-568.619958
 30
0.0
 70
0
  0
VERTEX
  5
A9
  8
1
 10
-2548.706598
 20
-569.867055
 30
0.0
 70
0
  0
VERTEX
  5
AA
  8
1
 10
-2540.843795
 20
-571.170219
 30
0.0
 70
0
  0
VERTEX
  5
AB
  8
1
 10
-2532.841222
 20
-572.251921
 30
0.0
 70
0
  0
VERTEX
  5
AC
  8
1
 10
-2524.001672
 20
-573.178391
 30
0.0
 70
0
  0
VERTEX
  5
AD
  8
1
 10
-2522.191925
 20
-573.341789
 30
0.0
 70
0
  0
VERTEX
  5
AE
  8
1
 10
-2506.590308
 20
-574.748162
 30
0.0
 70
0
  0
VERTEX
  5
AF
  8
1
 10
-2491.179806
 20
-576.185027
 30
0.0
 70
0
  0
VERTEX
  5
B0
  8
1
 10
-2475.803176
 20
-577.683398
 30
0.0
 70
0
  0
VERTEX
  5
B1
  8
1
 10
-2460.473018
 20
-579.25734
 30
0.0
 70
0
  0
VERTEX
  5
B2
  8
1
 10
-2445.1625
 20
-580.91764
 30
0.0
 70
0
  0
VERTEX
  5
B3
  8
1
 10
-2429.851039
 20
-582.663768
 30
0.0
 70
0
  0
VERTEX
  5
B4
  8
1
 10
-2414.747521
 20
-584.461113
 30
0.0
 70
0
  0
VERTEX
  5
B5
  8
1
 10
-2399.453249
 20
-586.352615
 30
0.0
 70
0
  0
VERTEX
  5
B6
  8
1
 10
-2384.167855
 20
-588.3144
 30
0.0
 70
0
  0
VERTEX
  5
B7
  8
1
 10
-2369.218596
 20
-590.298586
 30
0.0
 70
0
  0
VERTEX
  5
B8
  8
1
 10
-2355.144653
 20
-592.190285
 30
0.0
 70
0
  0
VERTEX
  5
B9
  8
1
 10
-2355.360276
 20
-608.142269
 30
0.0
 70
0
  0
VERTEX
  5
BA
  8
1
 10
-2355.38832
 20
-623.62717
 30
0.0
 70
0
  0
VERTEX
  5
BB
  8
1
 10
-2355.197543
 20
-639.088194
 30
0.0
 70
0
  0
VERTEX
  5
BC
  8
1
 10
-2354.751786
 20
-654.122118
 30
0.0
 70
0
  0
VERTEX
  5
BD
  8
1
 10
-2354.056935
 20
-669.147296
 30
0.0
 70
0
  0
VERTEX
  5
BE
  8
1
 10
-2353.092897
 20
-684.699071
 30
0.0
 70
0
  0
VERTEX
  5
BF
  8
1
 10
-2352.114563
 20
-698.092575
 30
0.0
 70
0
  0
VERTEX
  5
C0
  8
1
 10
-2365.286378
 20
-700.009949
 30
0.0
 70
0
  0
VERTEX
  5
C1
  8
1
 10
-2370.547241
 20
-700.812482
 30
0.0
 70
0
  0
VERTEX
  5
C2
  8
1
 10
-2375.501444
 20
-701.858197
 30
0.0
 70
0
  0
VERTEX
  5
C3
  8
1
 10
-2380.559235
 20
-703.166616
 30
0.0
 70
0
  0
VERTEX
  5
C4
  8
1
 10
-2385.229272
 20
-704.620356
 30
0.0
 70
0
  0
VERTEX
  5
C5
  8
1
 10
-2389.683257
 20
-706.258487
 30
0.0
 70
0
  0
VERTEX
  5
C6
  8
1
 10
-2393.766745
 20
-708.017495
 30
0.0
 70
0
  0
VERTEX
  5
C7
  8
1
 10
-2397.441137
 20
-709.85826
 30
0.0
 70
0
  0
VERTEX
  5
C8
  8
1
 10
-2400.782254
 20
-711.7985
 30
0.0
 70
0
  0
VERTEX
  5
C9
  8
1
 10
-2403.771468
 20
-713.811399
 30
0.0
 70
0
  0
VERTEX
  5
CA
  8
1
 10
-2406.450322
 20
-715.909516
 30
0.0
 70
0
  0
VERTEX
  5
CB
  8
1
 10
-2408.749999
 20
-718.012932
 30
0.0
 70
0
  0
VERTEX
  5
CC
  8
1
 10
-2410.752145
 20
-720.163597
 30
0.0
 70
0
  0
VERTEX
  5
CD
  8
1
 10
-2412.524048
 20
-722.431647
 30
0.0
 70
0
  0
VERTEX
  5
CE
  8
1
 10
-2414.050529
 20
-724.799787
 30
0.0
 70
0
  0
VERTEX
  5
CF
  8
1
 10
-2415.412831
 20
-727.377754
 30
0.0
 70
0
  0
VERTEX
  5
D0
  8
1
 10
-2416.665219
 20
-730.286096
 30
0.0
 70
0
  0
VERTEX
  5
D1
  8
1
 10
-2417.784959
 20
-733.529464
 30
0.0
 70
0
  0
VERTEX
  5
D2
  8
1
 10
-2418.75212
 20
-737.099844
 30
0.0
 70
0
  0
VERTEX
  5
D3
  8
1
 10
-2419.571227
 20
-741.092754
 30
0.0
 70
0
  0
VERTEX
  5
D4
  8
1
 10
-2420.224932
 20
-745.566688
 30
0.0
 70
0
  0
VERTEX
  5
D5
  8
1
 10
-2420.680276
 20
-750.437604
 30
0.0
 70
0
  0
VERTEX
  5
D6
  8
1
 10
-2420.931115
 20
-755.907904
 30
0.0
 70
0
  0
VERTEX
  5
D7
  8
1
 10
-2420.951498
 20
-761.937159
 30
0.0
 70
0
  0
VERTEX
  5
D8
  8
1
 10
-2420.712974
 20
-768.883599
 30
0.0
 70
0
  0
VERTEX
  5
D9
  8
1
 10
-2420.193705
 20
-776.601727
 30
0.0
 70
0
  0
VERTEX
  5
DA
  8
1
 10
-2419.378259
 20
-784.940809
 30
0.0
 70
0
  0
VERTEX
  5
DB
  8
1
 10
-2418.190189
 20
-794.421018
 30
0.0
 70
0
  0
VERTEX
  5
DC
  8
1
 10
-2416.385424
 20
-806.573844
 30
0.0
 70
0
  0
VERTEX
  5
DD
  8
1
 10
-2413.991592
 20
-821.337215
 30
0.0
 70
0
  0
VERTEX
  5
DE
  8
1
 10
-2413.717499
 20
-822.987976
 30
0.0
 70
0
  0
VERTEX
  5
DF
  8
1
 10
-2419.444045
 20
-823.796135
 30
0.0
 70
0
  0
VERTEX
  5
E0
  8
1
 10
-2434.395174
 20
-825.76601
 30
0.0
 70
0
  0
VERTEX
  5
E1
  8
1
 10
-2449.264515
 20
-827.543504
 30
0.0
 70
0
  0
VERTEX
  5
E2
  8
1
 10
-2464.468067
 20
-829.13836
 30
0.0
 70
0
  0
VERTEX
  5
E3
  8
1
 10
-2478.10407
 20
-830.326765
 30
0.0
 70
0
  0
VERTEX
  5
E4
  8
1
 10
-2492.422903
 20
-831.325302
 30
0.0
 70
0
  0
VERTEX
  5
E5
  8
1
 10
-2507.330474
 20
-832.109001
 30
0.0
 70
0
  0
VERTEX
  5
E6
  8
1
 10
-2522.637658
 20
-832.661002
 30
0.0
 70
0
  0
VERTEX
  5
E7
  8
1
 10
-2538.133835
 20
-832.99607
 30
0.0
 70
0
  0
VERTEX
  5
E8
  8
1
 10
-2553.605162
 20
-833.149857
 30
0.0
 70
0
  0
VERTEX
  5
E9
  8
1
 10
-2569.105008
 20
-833.15617
 30
0.0
 70
0
  0
VERTEX
  5
EA
  8
1
 10
-2584.180029
 20
-833.046477
 30
0.0
 70
0
  0
VERTEX
  5
EB
  8
1
 10
-2599.678448
 20
-832.845154
 30
0.0
 70
0
  0
VERTEX
  5
EC
  8
1
 10
-2615.183464
 20
-832.586217
 30
0.0
 70
0
  0
VERTEX
  5
ED
  8
1
 10
-2630.680098
 20
-832.279659
 30
0.0
 70
0
  0
VERTEX
  5
EE
  8
1
 10
-2646.066437
 20
-831.918297
 30
0.0
 70
0
  0
VERTEX
  5
EF
  8
1
 10
-2661.560293
 20
-831.491727
 30
0.0
 70
0
  0
VERTEX
  5
F0
  8
1
 10
-2676.569899
 20
-831.018854
 30
0.0
 70
0
  0
VERTEX
  5
F1
  8
1
 10
-2692.060117
 20
-830.476842
 30
0.0
 70
0
  0
VERTEX
  5
F2
  8
1
 10
-2707.589992
 20
-829.894613
 30
0.0
 70
0
  0
VERTEX
  5
F3
  8
1
 10
-2723.0779
 20
-829.291214
 30
0.0
 70
0
  0
VERTEX
  5
F4
  8
1
 10
-2738.075153
 20
-828.699032
 30
0.0
 70
0
  0
VERTEX
  5
F5
  8
1
 10
-2753.562847
 20
-828.089316
 30
0.0
 70
0
  0
VERTEX
  5
F6
  8
1
 10
-2768.771229
 20
-827.494192
 30
0.0
 70
0
  0
VERTEX
  5
F7
  8
1
 10
-2784.259188
 20
-826.89226
 30
0.0
 70
0
  0
VERTEX
  5
F8
  8
1
 10
-2799.536984
 20
-826.302093
 30
0.0
 70
0
  0
VERTEX
  5
F9
  8
1
 10
-2815.025162
 20
-825.706955
 30
0.0
 70
0
  0
VERTEX
  5
FA
  8
1
 10
-2830.152745
 20
-825.128636
 30
0.0
 70
0
  0
VERTEX
  5
FB
  8
1
 10
-2845.641212
 20
-824.53947
 30
0.0
 70
0
  0
VERTEX
  5
FC
  8
1
 10
-2860.933817
 20
-823.960452
 30
0.0
 70
0
  0
VERTEX
  5
FD
  8
1
 10
-2876.422439
 20
-823.376644
 30
0.0
 70
0
  0
VERTEX
  5
FE
  8
1
 10
-2891.515364
 20
-822.810805
 30
0.0
 70
0
  0
VERTEX
  5
FF
  8
1
 10
-2906.937532
 20
-822.235958
 30
0.0
 70
0
  0
SEQEND
  5
33
  8
1
  0
POLYLINE
  5
100
  8
14
 66
1
 10
0.0
 20
0.0
 30
0.0
 70
1
  0
VERTEX
  5
102
  8
14
 10
-2922.345886
 20
-808.955383
 30
0.0
 70
0
  0
VERTEX
  5
103
  8
14
 10
-2922.345886
 20
-808.955383
 30
0.0
 70
0
  0
VERTEX
  5
104
  8
14
 10
-2924.279033
 20
-808.893563
 30
0.0
 70
0
  0
VERTEX
  5
105
  8
14
 10
-2938.691446
 20
-808.423225
 30
0.0
 70
0
  0
VERTEX
  5
106
  8
14
 10
-2953.317858
 20
-807.935362
 30
0.0
 70
0
  0
VERTEX
  5
107
  8
14
 10
-2968.490423
 20
-807.420283
 30
0.0
 70
0
  0
VERTEX
  5
108
  8
14
 10
-2986.069739
 20
-806.812987
 30
0.0
 70
0
  0
VERTEX
  5
109
  8
14
 10
-3001.673386
 20
-806.264811
 30
0.0
 70
0
  0
VERTEX
  5
10A
  8
14
 10
-3018.487088
 20
-805.664572
 30
0.0
 70
0
  0
VERTEX
  5
10B
  8
14
 10
-3036.363978
 20
-805.015362
 30
0.0
 70
0
  0
VERTEX
  5
10C
  8
14
 10
-3055.157316
 20
-804.320272
 30
0.0
 70
0
  0
VERTEX
  5
10D
  8
14
 10
-3074.720229
 20
-803.582395
 30
0.0
 70
0
  0
VERTEX
  5
10E
  8
14
 10
-3089.809194
 20
-803.002768
 30
0.0
 70
0
  0
VERTEX
  5
10F
  8
14
 10
-3105.186516
 20
-802.402117
 30
0.0
 70
0
  0
VERTEX
  5
110
  8
14
 10
-3120.790298
 20
-801.781747
 30
0.0
 70
0
  0
VERTEX
  5
111
  8
14
 10
-3136.558606
 20
-801.142961
 30
0.0
 70
0
  0
VERTEX
  5
112
  8
14
 10
-3152.429547
 20
-800.487063
 30
0.0
 70
0
  0
VERTEX
  5
113
  8
14
 10
-3168.124031
 20
-799.824639
 30
0.0
 70
0
  0
VERTEX
  5
114
  8
14
 10
-3184.008367
 20
-799.139968
 30
0.0
 70
0
  0
VERTEX
  5
115
  8
14
 10
-3199.787
 20
-798.446788
 30
0.0
 70
0
  0
VERTEX
  5
116
  8
14
 10
-3215.38029
 20
-797.74997
 30
0.0
 70
0
  0
VERTEX
  5
117
  8
14
 10
-3230.708656
 20
-797.054384
 30
0.0
 70
0
  0
VERTEX
  5
118
  8
14
 10
-3250.59672
 20
-796.13727
 30
0.0
 70
0
  0
VERTEX
  5
119
  8
14
 10
-3269.683495
 20
-795.242551
 30
0.0
 70
0
  0
VERTEX
  5
11A
  8
14
 10
-3287.780238
 20
-794.381773
 30
0.0
 70
0
  0
VERTEX
  5
11B
  8
14
 10
-3304.698249
 20
-793.566478
 30
0.0
 70
0
  0
VERTEX
  5
11C
  8
14
 10
-3323.900636
 20
-792.628912
 30
0.0
 70
0
  0
VERTEX
  5
11D
  8
14
 10
-3340.597722
 20
-791.803005
 30
0.0
 70
0
  0
VERTEX
  5
11E
  8
14
 10
-3356.808231
 20
-790.991057
 30
0.0
 70
0
  0
VERTEX
  5
11F
  8
14
 10
-3375.048828
 20
-790.062408
 30
0.0
 70
0
  0
VERTEX
  5
120
  8
14
 10
-3375.048828
 20
-790.062408
 30
0.0
 70
0
  0
VERTEX
  5
121
  8
14
 10
-3374.960387
 20
-771.400931
 30
0.0
 70
0
  0
VERTEX
  5
122
  8
14
 10
-3374.873567
 20
-753.081367
 30
0.0
 70
0
  0
VERTEX
  5
123
  8
14
 10
-3374.787345
 20
-734.888186
 30
0.0
 70
0
  0
VERTEX
  5
124
  8
14
 10
-3374.712693
 20
-719.136292
 30
0.0
 70
0
  0
VERTEX
  5
125
  8
14
 10
-3374.63562
 20
-702.873526
 30
0.0
 70
0
  0
VERTEX
  5
126
  8
14
 10
-3374.558547
 20
-686.61075
 30
0.0
 70
0
  0
VERTEX
  5
127
  8
14
 10
-3374.483895
 20
-670.858857
 30
0.0
 70
0
  0
VERTEX
  5
128
  8
14
 10
-3374.414086
 20
-656.128709
 30
0.0
 70
0
  0
VERTEX
  5
129
  8
14
 10
-3374.337322
 20
-639.931131
 30
0.0
 70
0
  0
VERTEX
  5
12A
  8
14
 10
-3374.266844
 20
-625.059957
 30
0.0
 70
0
  0
VERTEX
  5
12B
  8
14
 10
-3374.222412
 20
-615.684662
 30
0.0
 70
0
  0
VERTEX
  5
12C
  8
14
 10
-3374.222412
 20
-615.684662
 30
0.0
 70
0
  0
VERTEX
  5
12D
  8
14
 10
-3354.805742
 20
-614.766193
 30
0.0
 70
0
  0
VERTEX
  5
12E
  8
14
 10
-3332.520698
 20
-613.712042
 30
0.0
 70
0
  0
VERTEX
  5
12F
  8
14
 10
-3311.39059
 20
-612.712522
 30
0.0
 70
0
  0
VERTEX
  5
130
  8
14
 10
-3295.511116
 20
-611.961374
 30
0.0
 70
0
  0
VERTEX
  5
131
  8
14
 10
-3278.390512
 20
-611.151516
 30
0.0
 70
0
  0
VERTEX
  5
132
  8
14
 10
-3260.194284
 20
-610.290778
 30
0.0
 70
0
  0
VERTEX
  5
133
  8
14
 10
-3241.0879
 20
-609.386987
 30
0.0
 70
0
  0
VERTEX
  5
134
  8
14
 10
-3221.236825
 20
-608.44797
 30
0.0
 70
0
  0
VERTEX
  5
135
  8
14
 10
-3200.806577
 20
-607.481556
 30
0.0
 70
0
  0
VERTEX
  5
136
  8
14
 10
-3179.962603
 20
-606.495571
 30
0.0
 70
0
  0
VERTEX
  5
137
  8
14
 10
-3158.870404
 20
-605.497845
 30
0.0
 70
0
  0
VERTEX
  5
138
  8
14
 10
-3137.695501
 20
-604.496206
 30
0.0
 70
0
  0
VERTEX
  5
139
  8
14
 10
-3116.603302
 20
-603.49848
 30
0.0
 70
0
  0
VERTEX
  5
13A
  8
14
 10
-3095.759327
 20
-602.512496
 30
0.0
 70
0
  0
VERTEX
  5
13B
  8
14
 10
-3075.329096
 20
-601.546082
 30
0.0
 70
0
  0
VERTEX
  5
13C
  8
14
 10
-3055.478019
 20
-600.607065
 30
0.0
 70
0
  0
VERTEX
  5
13D
  8
14
 10
-3036.371615
 20
-599.703273
 30
0.0
 70
0
  0
VERTEX
  5
13E
  8
14
 10
-3018.175369
 20
-598.842534
 30
0.0
 70
0
  0
VERTEX
  5
13F
  8
14
 10
-3001.054793
 20
-598.032678
 30
0.0
 70
0
  0
VERTEX
  5
140
  8
14
 10
-2985.175308
 20
-597.281529
 30
0.0
 70
0
  0
VERTEX
  5
141
  8
14
 10
-2970.70243
 20
-596.596917
 30
0.0
 70
0
  0
VERTEX
  5
142
  8
14
 10
-2951.992515
 20
-595.71188
 30
0.0
 70
0
  0
VERTEX
  5
143
  8
14
 10
-2937.378283
 20
-595.020582
 30
0.0
 70
0
  0
VERTEX
  5
144
  8
14
 10
-2923.639731
 20
-594.370706
 30
0.0
 70
0
  0
VERTEX
  5
145
  8
14
 10
-2922.343445
 20
-594.309387
 30
0.0
 70
0
  0
VERTEX
  5
146
  8
14
 10
-2922.343445
 20
-594.309387
 30
0.0
 70
0
  0
VERTEX
  5
147
  8
14
 10
-2905.522593
 20
-592.905466
 30
0.0
 70
0
  0
VERTEX
  5
148
  8
14
 10
-2889.739387
 20
-591.469794
 30
0.0
 70
0
  0
VERTEX
  5
149
  8
14
 10
-2872.534403
 20
-589.800267
 30
0.0
 70
0
  0
VERTEX
  5
14A
  8
14
 10
-2855.648557
 20
-588.060937
 30
0.0
 70
0
  0
VERTEX
  5
14B
  8
14
 10
-2840.300469
 20
-586.393333
 30
0.0
 70
0
  0
VERTEX
  5
14C
  8
14
 10
-2823.978947
 20
-584.526777
 30
0.0
 70
0
  0
VERTEX
  5
14D
  8
14
 10
-2806.859367
 20
-582.460684
 30
0.0
 70
0
  0
VERTEX
  5
14E
  8
14
 10
-2789.117153
 20
-580.194477
 30
0.0
 70
0
  0
VERTEX
  5
14F
  8
14
 10
-2770.927674
 20
-577.727572
 30
0.0
 70
0
  0
VERTEX
  5
150
  8
14
 10
-2752.466318
 20
-575.059385
 30
0.0
 70
0
  0
VERTEX
  5
151
  8
14
 10
-2739.009505
 20
-572.998451
 30
0.0
 70
0
  0
VERTEX
  5
152
  8
14
 10
-2720.513538
 20
-569.996181
 30
0.0
 70
0
  0
VERTEX
  5
153
  8
14
 10
-2702.356533
 20
-566.878133
 30
0.0
 70
0
  0
VERTEX
  5
154
  8
14
 10
-2684.846786
 20
-563.73082
 30
0.0
 70
0
  0
VERTEX
  5
155
  8
14
 10
-2668.292521
 20
-560.640738
 30
0.0
 70
0
  0
VERTEX
  5
156
  8
14
 10
-2653.002082
 20
-557.69441
 30
0.0
 70
0
  0
VERTEX
  5
157
  8
14
 10
-2636.755801
 20
-554.470363
 30
0.0
 70
0
  0
VERTEX
  5
158
  8
14
 10
-2621.373649
 20
-551.327467
 30
0.0
 70
0
  0
VERTEX
  5
159
  8
14
 10
-2607.679013
 20
-548.444045
 30
0.0
 70
0
  0
VERTEX
  5
15A
  8
14
 10
-2605.036011
 20
-547.873764
 30
0.0
 70
0
  0
VERTEX
  5
15B
  8
14
 10
-2602.082139
 20
-551.947979
 30
0.0
 70
0
  0
VERTEX
  5
15C
  8
14
 10
-2598.771925
 20
-555.989278
 30
0.0
 70
0
  0
VERTEX
  5
15D
  8
14
 10
-2595.205468
 20
-559.881496
 30
0.0
 70
0
  0
VERTEX
  5
15E
  8
14
 10
-2591.877656
 20
-563.125913
 30
0.0
 70
0
  0
VERTEX
  5
15F
  8
14
 10
-2588.169681
 20
-566.322642
 30
0.0
 70
0
  0
VERTEX
  5
160
  8
14
 10
-2584.64365
 20
-568.961782
 30
0.0
 70
0
  0
VERTEX
  5
161
  8
14
 10
-2581.566295
 20
-570.946587
 30
0.0
 70
0
  0
VERTEX
  5
162
  8
14
 10
-2578.205751
 20
-572.794121
 30
0.0
 70
0
  0
VERTEX
  5
163
  8
14
 10
-2574.70946
 20
-574.428109
 30
0.0
 70
0
  0
VERTEX
  5
164
  8
14
 10
-2570.486953
 20
-576.091214
 30
0.0
 70
0
  0
VERTEX
  5
165
  8
14
 10
-2566.141753
 20
-577.522638
 30
0.0
 70
0
  0
VERTEX
  5
166
  8
14
 10
-2561.068443
 20
-578.915603
 30
0.0
 70
0
  0
VERTEX
  5
167
  8
14
 10
-2555.283717
 20
-580.229593
 30
0.0
 70
0
  0
VERTEX
  5
168
  8
14
 10
-2548.007506
 20
-581.596053
 30
0.0
 70
0
  0
VERTEX
  5
169
  8
14
 10
-2540.032883
 20
-582.831888
 30
0.0
 70
0
  0
VERTEX
  5
16A
  8
14
 10
-2531.121575
 20
-583.952793
 30
0.0
 70
0
  0
VERTEX
  5
16B
  8
14
 10
-2523.212738
 20
-584.726105
 30
0.0
 70
0
  0
VERTEX
  5
16C
  8
14
 10
-2506.020978
 20
-586.267793
 30
0.0
 70
0
  0
VERTEX
  5
16D
  8
14
 10
-2489.271279
 20
-587.849305
 30
0.0
 70
0
  0
VERTEX
  5
16E
  8
14
 10
-2472.755582
 20
-589.483356
 30
0.0
 70
0
  0
VERTEX
  5
16F
  8
14
 10
-2456.754496
 20
-591.147713
 30
0.0
 70
0
  0
VERTEX
  5
170
  8
14
 10
-2441.057971
 20
-592.875657
 30
0.0
 70
0
  0
VERTEX
  5
171
  8
14
 10
-2424.983152
 20
-594.745148
 30
0.0
 70
0
  0
VERTEX
  5
172
  8
14
 10
-2409.786516
 20
-596.589726
 30
0.0
 70
0
  0
VERTEX
  5
173
  8
14
 10
-2394.659893
 20
-598.490627
 30
0.0
 70
0
  0
VERTEX
  5
174
  8
14
 10
-2380.072148
 20
-600.38149
 30
0.0
 70
0
  0
VERTEX
  5
175
  8
14
 10
-2367.930145
 20
-602.004204
 30
0.0
 70
0
  0
VERTEX
  5
176
  8
14
 10
-2368.078447
 20
-618.541554
 30
0.0
 70
0
  0
VERTEX
  5
177
  8
14
 10
-2367.987246
 20
-634.24515
 30
0.0
 70
0
  0
VERTEX
  5
178
  8
14
 10
-2367.673514
 20
-648.786303
 30
0.0
 70
0
  0
VERTEX
  5
179
  8
14
 10
-2367.107094
 20
-662.887917
 30
0.0
 70
0
  0
VERTEX
  5
17A
  8
14
 10
-2366.274176
 20
-677.794497
 30
0.0
 70
0
  0
VERTEX
  5
17B
  8
14
 10
-2365.248718
 20
-692.31636
 30
0.0
 70
0
  0
VERTEX
  5
17C
  8
14
 10
-2370.73655
 20
-693.109298
 30
0.0
 70
0
  0
VERTEX
  5
17D
  8
14
 10
-2376.720942
 20
-694.317405
 30
0.0
 70
0
  0
VERTEX
  5
17E
  8
14
 10
-2382.531645
 20
-695.805376
 30
0.0
 70
0
  0
VERTEX
  5
17F
  8
14
 10
-2388.106759
 20
-697.550872
 30
0.0
 70
0
  0
VERTEX
  5
180
  8
14
 10
-2393.090662
 20
-699.415967
 30
0.0
 70
0
  0
VERTEX
  5
181
  8
14
 10
-2398.130956
 20
-701.654612
 30
0.0
 70
0
  0
VERTEX
  5
182
  8
14
 10
-2402.283328
 20
-703.828036
 30
0.0
 70
0
  0
VERTEX
  5
183
  8
14
 10
-2406.31437
 20
-706.30064
 30
0.0
 70
0
  0
VERTEX
  5
184
  8
14
 10
-2409.402823
 20
-708.506284
 30
0.0
 70
0
  0
VERTEX
  5
185
  8
14
 10
-2412.329583
 20
-710.924226
 30
0.0
 70
0
  0
VERTEX
  5
186
  8
14
 10
-2415.057309
 20
-713.563731
 30
0.0
 70
0
  0
VERTEX
  5
187
  8
14
 10
-2417.548635
 20
-716.43404
 30
0.0
 70
0
  0
VERTEX
  5
188
  8
14
 10
-2419.67439
 20
-719.401267
 30
0.0
 70
0
  0
VERTEX
  5
189
  8
14
 10
-2421.613091
 20
-722.739415
 30
0.0
 70
0
  0
VERTEX
  5
18A
  8
14
 10
-2423.273223
 20
-726.295803
 30
0.0
 70
0
  0
VERTEX
  5
18B
  8
14
 10
-2424.672006
 20
-730.047745
 30
0.0
 70
0
  0
VERTEX
  5
18C
  8
14
 10
-2425.826662
 20
-733.97255
 30
0.0
 70
0
  0
VERTEX
  5
18D
  8
14
 10
-2426.754414
 20
-738.047532
 30
0.0
 70
0
  0
VERTEX
  5
18E
  8
14
 10
-2427.621256
 20
-743.317878
 30
0.0
 70
0
  0
VERTEX
  5
18F
  8
14
 10
-2428.194106
 20
-748.74311
 30
0.0
 70
0
  0
VERTEX
  5
190
  8
14
 10
-2428.506601
 20
-754.278917
 30
0.0
 70
0
  0
VERTEX
  5
191
  8
14
 10
-2428.585286
 20
-761.005447
 30
0.0
 70
0
  0
VERTEX
  5
192
  8
14
 10
-2428.395621
 20
-767.750821
 30
0.0
 70
0
  0
VERTEX
  5
193
  8
14
 10
-2427.912724
 20
-775.542093
 30
0.0
 70
0
  0
VERTEX
  5
194
  8
14
 10
-2427.093285
 20
-784.492428
 30
0.0
 70
0
  0
VERTEX
  5
195
  8
14
 10
-2425.926316
 20
-794.374769
 30
0.0
 70
0
  0
VERTEX
  5
196
  8
14
 10
-2424.453872
 20
-804.661513
 30
0.0
 70
0
  0
VERTEX
  5
197
  8
14
 10
-2423.318634
 20
-811.486816
 30
0.0
 70
0
  0
VERTEX
  5
198
  8
14
 10
-2435.200561
 20
-813.060842
 30
0.0
 70
0
  0
VERTEX
  5
199
  8
14
 10
-2450.479456
 20
-814.89326
 30
0.0
 70
0
  0
VERTEX
  5
19A
  8
14
 10
-2465.695729
 20
-816.497847
 30
0.0
 70
0
  0
VERTEX
  5
19B
  8
14
 10
-2480.205121
 20
-817.767828
 30
0.0
 70
0
  0
VERTEX
  5
19C
  8
14
 10
-2494.645752
 20
-818.748145
 30
0.0
 70
0
  0
VERTEX
  5
19D
  8
14
 10
-2510.712383
 20
-819.541578
 30
0.0
 70
0
  0
VERTEX
  5
19E
  8
14
 10
-2526.793335
 20
-820.064624
 30
0.0
 70
0
  0
VERTEX
  5
19F
  8
14
 10
-2542.879926
 20
-820.359684
 30
0.0
 70
0
  0
VERTEX
  5
1A0
  8
14
 10
-2558.108696
 20
-820.466189
 30
0.0
 70
0
  0
VERTEX
  5
1A1
  8
14
 10
-2574.191731
 20
-820.430359
 30
0.0
 70
0
  0
VERTEX
  5
1A2
  8
14
 10
-2590.273149
 20
-820.27596
 30
0.0
 70
0
  0
VERTEX
  5
1A3
  8
14
 10
-2606.353531
 20
-820.037413
 30
0.0
 70
0
  0
VERTEX
  5
1A4
  8
14
 10
-2622.338935
 20
-819.74699
 30
0.0
 70
0
  0
VERTEX
  5
1A5
  8
14
 10
-2638.418011
 20
-819.402078
 30
0.0
 70
0
  0
VERTEX
  5
1A6
  8
14
 10
-2654.495458
 20
-818.991737
 30
0.0
 70
0
  0
VERTEX
  5
1A7
  8
14
 10
-2669.760843
 20
-818.53414
 30
0.0
 70
0
  0
VERTEX
  5
1A8
  8
14
 10
-2685.834244
 20
-817.991402
 30
0.0
 70
0
  0
VERTEX
  5
1A9
  8
14
 10
-2701.906186
 20
-817.402083
 30
0.0
 70
0
  0
VERTEX
  5
1AA
  8
14
 10
-2717.977181
 20
-816.782307
 30
0.0
 70
0
  0
VERTEX
  5
1AB
  8
14
 10
-2734.047682
 20
-816.148204
 30
0.0
 70
0
  0
VERTEX
  5
1AC
  8
14
 10
-2749.70838
 20
-815.530575
 30
0.0
 70
0
  0
VERTEX
  5
1AD
  8
14
 10
-2765.686949
 20
-814.904909
 30
0.0
 70
0
  0
VERTEX
  5
1AE
  8
14
 10
-2781.47442
 20
-814.29079
 30
0.0
 70
0
  0
VERTEX
  5
1AF
  8
14
 10
-2796.963116
 20
-813.691893
 30
0.0
 70
0
  0
VERTEX
  5
1B0
  8
14
 10
-2813.527009
 20
-813.055076
 30
0.0
 70
0
  0
VERTEX
  5
1B1
  8
14
 10
-2829.455658
 20
-812.446018
 30
0.0
 70
0
  0
VERTEX
  5
1B2
  8
14
 10
-2844.605678
 20
-811.869611
 30
0.0
 70
0
  0
VERTEX
  5
1B3
  8
14
 10
-2860.076529
 20
-811.28379
 30
0.0
 70
0
  0
VERTEX
  5
1B4
  8
14
 10
-2875.382527
 20
-810.706936
 30
0.0
 70
0
  0
VERTEX
  5
1B5
  8
14
 10
-2890.862587
 20
-810.126305
 30
0.0
 70
0
  0
VERTEX
  5
1B6
  8
14
 10
-2906.571434
 20
-809.540129
 30
0.0
 70
0
  0
SEQEND
  5
101
  8
14
  0
POLYLINE
  5
1B7
  8
8
 66
1
 10
0.0
 20
0.0
 30
0.0
 70
0
  0
VERTEX
  5
1B9
  8
8
 10
-3369.555664
 20
-706.611252
 30
0.0
 70
0
  0
VERTEX
  5
1BA
  8
8
 10
-3351.573189
 20
-706.66167
 30
0.0
 70
0
  0
VERTEX
  5
1BB
  8
8
 10
-3334.42039
 20
-706.707716
 30
0.0
 70
0
  0
VERTEX
  5
1BC
  8
8
 10
-3317.106214
 20
-706.752688
 30
0.0
 70
0
  0
VERTEX
  5
1BD
  8
8
 10
-3296.874021
 20
-706.803531
 30
0.0
 70
0
  0
VERTEX
  5
1BE
  8
8
 10
-3279.937519
 20
-706.844761
 30
0.0
 70
0
  0
VERTEX
  5
1BF
  8
8
 10
-3261.609333
 20
-706.888059
 30
0.0
 70
0
  0
VERTEX
  5
1C0
  8
8
 10
-3241.996478
 20
-706.932896
 30
0.0
 70
0
  0
VERTEX
  5
1C1
  8
8
 10
-3221.205953
 20
-706.97874
 30
0.0
 70
0
  0
VERTEX
  5
1C2
  8
8
 10
-3199.344805
 20
-707.025065
 30
0.0
 70
0
  0
VERTEX
  5
1C3
  8
8
 10
-3176.520034
 20
-707.071339
 30
0.0
 70
0
  0
VERTEX
  5
1C4
  8
8
 10
-3160.821022
 20
-707.1019
 30
0.0
 70
0
  0
VERTEX
  5
1C5
  8
8
 10
-3144.773003
 20
-707.132046
 30
0.0
 70
0
  0
VERTEX
  5
1C6
  8
8
 10
-3128.407687
 20
-707.161621
 30
0.0
 70
0
  0
VERTEX
  5
1C7
  8
8
 10
-3111.756781
 20
-707.190468
 30
0.0
 70
0
  0
VERTEX
  5
1C8
  8
8
 10
-3094.851995
 20
-707.21843
 30
0.0
 70
0
  0
VERTEX
  5
1C9
  8
8
 10
-3077.725035
 20
-707.24535
 30
0.0
 70
0
  0
VERTEX
  5
1CA
  8
8
 10
-3060.407611
 20
-707.271072
 30
0.0
 70
0
  0
VERTEX
  5
1CB
  8
8
 10
-3042.931431
 20
-707.295439
 30
0.0
 70
0
  0
VERTEX
  5
1CC
  8
8
 10
-3025.328204
 20
-707.318294
 30
0.0
 70
0
  0
VERTEX
  5
1CD
  8
8
 10
-3007.629636
 20
-707.339479
 30
0.0
 70
0
  0
VERTEX
  5
1CE
  8
8
 10
-2989.867437
 20
-707.358839
 30
0.0
 70
0
  0
VERTEX
  5
1CF
  8
8
 10
-2972.073316
 20
-707.376215
 30
0.0
 70
0
  0
VERTEX
  5
1D0
  8
8
 10
-2954.160895
 20
-707.391591
 30
0.0
 70
0
  0
VERTEX
  5
1D1
  8
8
 10
-2936.406044
 20
-707.404822
 30
0.0
 70
0
  0
VERTEX
  5
1D2
  8
8
 10
-2918.72776
 20
-707.416122
 30
0.0
 70
0
  0
VERTEX
  5
1D3
  8
8
 10
-2901.16433
 20
-707.425598
 30
0.0
 70
0
  0
VERTEX
  5
1D4
  8
8
 10
-2883.754038
 20
-707.433355
 30
0.0
 70
0
  0
VERTEX
  5
1D5
  8
8
 10
-2866.53517
 20
-707.439497
 30
0.0
 70
0
  0
VERTEX
  5
1D6
  8
8
 10
-2849.546011
 20
-707.444131
 30
0.0
 70
0
  0
VERTEX
  5
1D7
  8
8
 10
-2832.824846
 20
-707.447361
 30
0.0
 70
0
  0
VERTEX
  5
1D8
  8
8
 10
-2816.40996
 20
-707.449293
 30
0.0
 70
0
  0
VERTEX
  5
1D9
  8
8
 10
-2800.339638
 20
-707.450032
 30
0.0
 70
0
  0
VERTEX
  5
1DA
  8
8
 10
-2784.652166
 20
-707.449683
 30
0.0
 70
0
  0
VERTEX
  5
1DB
  8
8
 10
-2769.385828
 20
-707.448352
 30
0.0
 70
0
  0
VERTEX
  5
1DC
  8
8
 10
-2754.57891
 20
-707.446144
 30
0.0
 70
0
  0
VERTEX
  5
1DD
  8
8
 10
-2733.313635
 20
-707.441418
 30
0.0
 70
0
  0
VERTEX
  5
1DE
  8
8
 10
-2713.297471
 20
-707.43531
 30
0.0
 70
0
  0
VERTEX
  5
1DF
  8
8
 10
-2694.659568
 20
-707.428177
 30
0.0
 70
0
  0
VERTEX
  5
1E0
  8
8
 10
-2677.529139
 20
-707.420374
 30
0.0
 70
0
  0
VERTEX
  5
1E1
  8
8
 10
-2662.035396
 20
-707.412256
 30
0.0
 70
0
  0
VERTEX
  5
1E2
  8
8
 10
-2644.146358
 20
-707.401557
 30
0.0
 70
0
  0
VERTEX
  5
1E3
  8
8
 10
-2629.702977
 20
-707.391772
 30
0.0
 70
0
  0
VERTEX
  5
1E4
  8
8
 10
-2615.168501
 20
-707.380652
 30
0.0
 70
0
  0
VERTEX
  5
1E5
  8
8
 10
-2610.109558
 20
-707.376328
 30
0.0
 70
0
  0
SEQEND
  5
1B8
  8
8
  0
POLYLINE
  5
1E6
  8
8
 66
1
 10
0.0
 20
0.0
 30
0.0
 70
0
  0
VERTEX
  5
1E8
  8
8
 10
-2523.27774
 20
-588.179626
 30
0.0
 70
0
  0
VERTEX
  5
1E9
  8
8
 10
-2543.062897
 20
-820.342102
 30
0.0
 70
0
  0
SEQEND
  5
1E7
  8
8
  0
POLYLINE
  5
1EA
  8
8
 66
1
 10
0.0
 20
0.0
 30
0.0
 70
0
  0
VERTEX
  5
1EC
  8
8
 10
-2922.343445
 20
-594.309387
 30
0.0
 70
0
  0
VERTEX
  5
1ED
  8
8
 10
-2922.343445
 20
-611.01631
 30
0.0
 70
0
  0
VERTEX
  5
1EE
  8
8
 10
-2922.343445
 20
-627.598762
 30
0.0
 70
0
  0
VERTEX
  5
1EF
  8
8
 10
-2922.343445
 20
-643.752152
 30
0.0
 70
0
  0
VERTEX
  5
1F0
  8
8
 10
-2922.343445
 20
-659.464357
 30
0.0
 70
0
  0
VERTEX
  5
1F1
  8
8
 10
-2922.343445
 20
-676.216136
 30
0.0
 70
0
  0
VERTEX
  5
1F2
  8
8
 10
-2922.343445
 20
-693.593984
 30
0.0
 70
0
  0
VERTEX
  5
1F3
  8
8
 10
-2922.343445
 20
-710.176139
 30
0.0
 70
0
  0
VERTEX
  5
1F4
  8
8
 10
-2922.343445
 20
-727.580857
 30
0.0
 70
0
  0
VERTEX
  5
1F5
  8
8
 10
-2922.343445
 20
-744.372359
 30
0.0
 70
0
  0
VERTEX
  5
1F6
  8
8
 10
-2922.343445
 20
-760.121357
 30
0.0
 70
0
  0
VERTEX
  5
1F7
  8
8
 10
-2922.343445
 20
-776.293009
 30
0.0
 70
0
  0
VERTEX
  5
1F8
  8
8
 10
-2922.343445
 20
-791.390519
 30
0.0
 70
0
  0
VERTEX
  5
1F9
  8
8
 10
-2922.343445
 20
-806.278559
 30
0.0
 70
0
  0
VERTEX
  5
1FA
  8
8
 10
-2922.343445
 20
-808.955383
 30
0.0
 70
0
  0
SEQEND
  5
1EB
  8
8
  0
POLYLINE
  5
1FB
  8
8
 66
1
 10
0.0
 20
0.0
 30
0.0
 70
0
  0
VERTEX
  5
1FD
  8
8
 10
-2605.036011
 20
-547.873764
 30
0.0
 70
0
  0
VERTEX
  5
1FE
  8
8
 10
-2609.57428
 20
-819.950485
 30
0.0
 70
0
  0
SEQEND
  5
1FC
  8
8
  0
POINT
  5
1FF
  8
4
 10
-2922.75177
 20
-821.648941
 30
0.0
  0
POINT
  5
200
  8
4
 10
-3375.108948
 20
-802.775726
 30
0.0
  0
POINT
  5
201
  8
4
 10
-3374.161987
 20
-602.967606
 30
0.0
  0
POINT
  5
202
  8
4
 10
-2922.94342
 20
-581.623573
 30
0.0
  0
POINT
  5
203
  8
4
 10
-2922.345886
 20
-808.955383
 30
0.0
  0
POINT
  5
204
  8
4
 10
-3375.048828
 20
-790.062408
 30
0.0
  0
POINT
  5
205
  8
4
 10
-3374.222412
 20
-615.684662
 30
0.0
  0
POINT
  5
206
  8
4
 10
-2922.343445
 20
-594.309387
 30
0.0
  0
LINE
  5
207
  8
7
 10
-3341.298828
 20
-702.162857
 30
0.0
 11
-2446.712189
 21
-702.162857
 31
0.0
  0
ENDSEC
  0
EOF
