  0
SECTION
  2
HEADER
  9
$ACADVER
  1
AC1009
  9
$DWGCODEPAGE
  3
ANSI_1252
  9
$INSBASE
 10
0.0
 20
0.0
 30
0.0
  9
$EXTMIN
 10
1e+20
 20
1e+20
 30
1e+20
  9
$EXTMAX
 10
-1e+20
 20
-1e+20
 30
-1e+20
  9
$LIMMIN
 10
0.0
 20
0.0
  9
$LIMMAX
 10
420.0
 20
297.0
  9
$ORTHOMODE
 70
0
  9
$REGENMODE
 70
1
  9
$FILLMODE
 70
1
  9
$DRAGMODE
 70
2
  9
$QTEXTMODE
 70
0
  9
$MIRRTEXT
 70
1
  9
$OSMODE
 70
20583
  9
$LTSCALE
 40
1.0
  9
$ATTMODE
 70
1
  9
$TEXTSIZE
 40
2.5
  9
$TRACEWID
 40
1.0
  9
$TEXTSTYLE
  7
Standard
  9
$CLAYER
  8
0
  9
$CELTYPE
  6
ByLayer
  9
$CECOLOR
 62
256
  9
$DIMSCALE
 40
1.0
  9
$DIMASZ
 40
2.5
  9
$DIMEXO
 40
0.625
  9
$DIMDLI
 40
3.75
  9
$DIMRND
 40
0.0
  9
$DIMDLE
 40
0.0
  9
$DIMEXE
 40
1.25
  9
$DIMTP
 40
0.0
  9
$DIMTM
 40
0.0
  9
$DIMTXT
 40
2.5
  9
$DIMCEN
 40
2.5
  9
$DIMTSZ
 40
0.0
  9
$DIMTOL
 70
0
  9
$DIMLIM
 70
0
  9
$DIMTIH
 70
0
  9
$DIMTOH
 70
0
  9
$DIMSE1
 70
0
  9
$DIMSE2
 70
0
  9
$DIMTAD
 70
1
  9
$DIMZIN
 70
8
  9
$DIMBLK
  1

  9
$DIMASO
 70
1
  9
$DIMSHO
 70
1
  9
$DIMPOST
  1

  9
$DIMAPOST
  1

  9
$DIMALT
 70
0
  9
$DIMALTD
 70
3
  9
$DIMALTF
 40
0.03937007874
  9
$DIMLFAC
 40
1.0
  9
$DIMTOFL
 70
1
  9
$DIMTVP
 40
0.0
  9
$DIMTIX
 70
0
  9
$DIMSOXD
 70
0
  9
$DIMSAH
 70
0
  9
$DIMBLK1
  1

  9
$DIMBLK2
  1

  9
$DIMSTYLE
  2
ISO-25
  9
$DIMCLRD
 70
0
  9
$DIMCLRE
 70
0
  9
$DIMCLRT
 70
0
  9
$DIMTFAC
 40
1.0
  9
$DIMGAP
 40
0.625
  9
$COORDS
 70
1
  9
$ATTDIA
 70
0
  9
$ATTREQ
 70
1
  9
$HANDLING
 70
1
  9
$LUNITS
 70
2
  9
$LUPREC
 70
4
  9
$SKETCHINC
 40
1.0
  9
$FILLETRAD
 40
10.0
  9
$AUNITS
 70
0
  9
$AUPREC
 70
2
  9
$MENU
  1
.
  9
$ELEVATION
 40
0.0
  9
$PELEVATION
 40
0.0
  9
$THICKNESS
 40
0.0
  9
$LIMCHECK
 70
0
  9
$CHAMFERA
 40
0.0
  9
$CHAMFERB
 40
0.0
  9
$SKPOLY
 70
0
  9
$TDCREATE
 40
2461264.9423032408
  9
$TDUPDATE
 40
2461264.9423032408
  9
$TDINDWG
 40
0.0
  9
$TDUSRTIMER
 40
0.0
  9
$USRTIMER
 70
1
  9
$ANGBASE
 50
0.0
  9
$ANGDIR
 70
0
  9
$PDMODE
 70
0
  9
$PDSIZE
 40
0.0
  9
$PLINEWID
 40
0.0
  9
$SPLFRAME
 70
0
  9
$SPLINETYPE
 70
6
  9
$SPLINESEGS
 70
8
  9
$HANDSEED
  5
21D
  9
$SURFTAB1
 70
6
  9
$SURFTAB2
 70
6
  9
$SURFTYPE
 70
6
  9
$SURFU
 70
6
  9
$SURFV
 70
6
  9
$UCSNAME
  2

  9
$UCSORG
 10
0.0
 20
0.0
 30
0.0
  9
$UCSXDIR
 10
1.0
 20
0.0
 30
0.0
  9
$UCSYDIR
 10
0.0
 20
1.0
 30
0.0
  9
$PUCSNAME
  2

  9
$PUCSORG
 10
0.0
 20
0.0
 30
0.0
  9
$PUCSXDIR
 10
1.0
 20
0.0
 30
0.0
  9
$PUCSYDIR
 10
0.0
 20
1.0
 30
0.0
  9
$USERI1
 70
0
  9
$USERI2
 70
0
  9
$USERI3
 70
0
  9
$USERI4
 70
0
  9
$USERI5
 70
0
  9
$USERR1
 40
0.0
  9
$USERR2
 40
0.0
  9
$USERR3
 40
0.0
  9
$USERR4
 40
0.0
  9
$USERR5
 40
0.0
  9
$WORLDVIEW
 70
1
  9
$SHADEDGE
 70
3
  9
$SHADEDIF
 70
70
  9
$TILEMODE
 70
1
  9
$MAXACTVP
 70
64
  9
$PLIMCHECK
 70
0
  9
$PEXTMIN
 10
1e+20
 20
1e+20
 30
1e+20
  9
$PEXTMAX
 10
-1e+20
 20
-1e+20
 30
-1e+20
  9
$PLIMMIN
 10
0.0
 20
0.0
  9
$PLIMMAX
 10
420.0
 20
297.0
  9
$UNITMODE
 70
0
  9
$VISRETAIN
 70
1
  9
$PLINEGEN
 70
0
  9
$PSLTSCALE
 70
1
  0
ENDSEC
  0
SECTION
  2
TABLES
  0
TABLE
  2
VPORT
 70
1
  0
VPORT
  5
23
  2
*Active
 70
0
 10
0.0
 20
0.0
 11
1.0
 21
1.0
 12
0.0
 22
0.0
 13
0.0
 23
0.0
 14
0.5
 24
0.5
 15
0.5
 25
0.5
 16
0.0
 26
0.0
 36
1.0
 17
0.0
 27
0.0
 37
0.0
 40
1000.0
 41
1.34
 42
50.0
 43
0.0
 44
0.0
 50
0.0
 51
0.0
 71
0
 72
1000
 73
1
 74
3
 75
0
 76
0
 77
0
 78
0
  0
ENDTAB
  0
TABLE
  2
LTYPE
 70
3
  0
LTYPE
  5
24
  2
ByBlock
 70
0
  3

 72
65
 73
0
 40
0.0
  0
LTYPE
  5
25
  2
ByLayer
 70
0
  3

 72
65
 73
0
 40
0.0
  0
LTYPE
  5
26
  2
Continuous
 70
0
  3

 72
65
 73
0
 40
0.0
  0
ENDTAB
  0
TABLE
  2
LAYER
 70
7
  0
LAYER
  5
27
  2
0
 70
0
 62
7
  6
Continuous
  0
LAYER
  5
28
  2
Defpoints
 70
0
 62
7
  6
Continuous
  0
LAYER
  5
2D
  2
1
 70
0
 62
1
  6
Continuous
  0
LAYER
  5
2E
  2
7
 70
0
 62
7
  6
Continuous
  0
LAYER
  5
2F
  2
14
 70
0
 62
3
  6
Continuous
  0
LAYER
  5
30
  2
8
 70
0
 62
6
  6
Continuous
  0
LAYER
  5
31
  2
4
 70
0
 62
2
  6
Continuous
  0
ENDTAB
  0
TABLE
  2
STYLE
 70
1
  0
STYLE
  5
29
  2
Standard
 70
0
 40
0.0
 41
1.0
 50
0.0
 71
0
 42
2.5
  3
txt
  4

  0
ENDTAB
  0
TABLE
  2
VIEW
 70
0
  0
ENDTAB
  0
TABLE
  2
UCS
 70
0
  0
ENDTAB
  0
TABLE
  2
APPID
 70
3
  0
APPID
  5
2A
  2
ACAD
 70
0
  0
APPID
  5
21B
  2
HATCHBACKGROUNDCOLOR
 70
0
  0
APPID
  5
21C
  2
EZDXF
 70
0
  0
ENDTAB
  0
TABLE
  2
DIMSTYLE
 70
1
  0
DIMSTYLE
105
2B
  2
Standard
 70
0
  3

  4

  5

  6

  7

 40
1.0
 41
2.5
 42
0.625
 43
3.75
 44
1.25
 45
0.0
 46
0.0
 47
0.0
 48
0.0
140
2.5
141
2.5
142
0.0
143
0.03937007874
144
1.0
145
0.0
146
1.0
147
0.625
 71
0
 72
0
 73
0
 74
0
 75
0
 76
0
 77
1
 78
8
170
0
171
3
172
1
173
0
174
0
175
0
176
0
177
0
178
0
  0
ENDTAB
  0
ENDSEC
  0
SECTION
  2
BLOCKS
  0
BLOCK
  5
18
  8
0
  2
$Model_Space
 70
0
 10
0.0
 20
0.0
 30
0.0
  3
$Model_Space
  1

1001
EZDXF
1000
CREATED_BY_EZDXF
1000
1.4.4 @ 2026-08-11T14:36:55.842216+00:00
1000
WRITTEN_BY_EZDXF
1000
1.4.4 @ 2026-08-11T14:36:55.846216+00:00
  0
ENDBLK
  5
19
  8
0
  0
BLOCK
  5
1C
  8
0
  2
$Paper_Space
 70
0
 10
0.0
 20
0.0
 30
0.0
  3
$Paper_Space
  1

  0
ENDBLK
  5
1D
  8
0
  0
ENDSEC
  0
SECTION
  2
ENTITIES
  0
POLYLINE
  5
32
  8
1
 66
1
 10
0.0
 20
0.0
 30
0.0
 70
1
  0
VERTEX
  5
34
  8
1
 10
-2922.940369
 20
-836.881714
 30
0.0
 70
0
  0
VERTEX
  5
35
  8
1
 10
-2922.871399
 20
-836.884613
 30
0.0
 70
0
  0
VERTEX
  5
36
  8
1
 10
-2933.166776
 20
-836.458304
 30
0.0
 70
0
  0
VERTEX
  5
37
  8
1
 10
-2948.222254
 20
-835.828632
 30
0.0
 70
0
  0
VERTEX
  5
38
  8
1
 10
-2963.186208
 20
-835.194472
 30
0.0
 70
0
  0
VERTEX
  5
39
  8
1
 10
-2978.189656
 20
-834.548019
 30
0.0
 70
0
  0
VERTEX
  5
3A
  8
1
 10
-2993.298149
 20
-833.888046
 30
0.0
 70
0
  0
VERTEX
  5
3B
  8
1
 10
-3008.300965
 20
-833.226006
 30
0.0
 70
0
  0
VERTEX
  5
3C
  8
1
 10
-3023.322227
 20
-832.555933
 30
0.0
 70
0
  0
VERTEX
  5
3D
  8
1
 10
-3038.324372
 20
-831.87851
 30
0.0
 70
0
  0
VERTEX
  5
3E
  8
1
 10
-3053.333273
 20
-831.192543
 30
0.0
 70
0
  0
VERTEX
  5
3F
  8
1
 10
-3068.33468
 20
-830.498762
 30
0.0
 70
0
  0
VERTEX
  5
40
  8
1
 10
-3083.852917
 20
-829.772071
 30
0.0
 70
0
  0
VERTEX
  5
41
  8
1
 10
-3098.603455
 20
-829.072338
 30
0.0
 70
0
  0
VERTEX
  5
42
  8
1
 10
-3113.664395
 20
-828.348407
 30
0.0
 70
0
  0
VERTEX
  5
43
  8
1
 10
-3128.663927
 20
-827.61743
 30
0.0
 70
0
  0
VERTEX
  5
44
  8
1
 10
-3143.841533
 20
-826.866815
 30
0.0
 70
0
  0
VERTEX
  5
45
  8
1
 10
-3158.840018
 20
-826.113417
 30
0.0
 70
0
  0
VERTEX
  5
46
  8
1
 10
-3174.015274
 20
-825.338776
 30
0.0
 70
0
  0
VERTEX
  5
47
  8
1
 10
-3189.012516
 20
-824.560732
 30
0.0
 70
0
  0
VERTEX
  5
48
  8
1
 10
-3204.389569
 20
-823.750829
 30
0.0
 70
0
  0
VERTEX
  5
49
  8
1
 10
-3219.385559
 20
-822.950074
 30
0.0
 70
0
  0
VERTEX
  5
4A
  8
1
 10
-3234.737098
 20
-822.120025
 30
0.0
 70
0
  0
VERTEX
  5
4B
  8
1
 10
-3249.732055
 20
-821.299901
 30
0.0
 70
0
  0
VERTEX
  5
4C
  8
1
 10
-3265.122214
 20
-820.448885
 30
0.0
 70
0
  0
VERTEX
  5
4D
  8
1
 10
-3280.116175
 20
-819.611046
 30
0.0
 70
0
  0
VERTEX
  5
4E
  8
1
 10
-3295.588381
 20
-818.738054
 30
0.0
 70
0
  0
VERTEX
  5
4F
  8
1
 10
-3310.581456
 20
-817.884422
 30
0.0
 70
0
  0
VERTEX
  5
50
  8
1
 10
-3326.011393
 20
-816.997961
 30
0.0
 70
0
  0
VERTEX
  5
51
  8
1
 10
-3341.003599
 20
-816.128482
 30
0.0
 70
0
  0
VERTEX
  5
52
  8
1
 10
-3355.995297
 20
-815.24967
 30
0.0
 70
0
  0
VERTEX
  5
53
  8
1
 10
-3370.975321
 20
-814.361848
 30
0.0
 70
0
  0
VERTEX
  5
54
  8
1
 10
-3385.262451
 20
-813.509979
 30
0.0
 70
0
  0
VERTEX
  5
55
  8
1
 10
-3386.000994
 20
-813.465925
 30
0.0
 70
0
  0
VERTEX
  5
56
  8
1
 10
-3401.388672
 20
-812.547578
 30
0.0
 70
0
  0
VERTEX
  5
57
  8
1
 10
-3417.0047
 20
-811.615677
 30
0.0
 70
0
  0
VERTEX
  5
58
  8
1
 10
-3416.937672
 20
-795.742253
 30
0.0
 70
0
  0
VERTEX
  5
59
  8
1
 10
-3416.873502
 20
-780.552572
 30
0.0
 70
0
  0
VERTEX
  5
5A
  8
1
 10
-3416.808734
 20
-765.225547
 30
0.0
 70
0
  0
VERTEX
  5
5B
  8
1
 10
-3416.744544
 20
-750.035869
 30
0.0
 70
0
  0
VERTEX
  5
5C
  8
1
 10
-3416.680357
 20
-734.846198
 30
0.0
 70
0
  0
VERTEX
  5
5D
  8
1
 10
-3416.616464
 20
-719.724023
 30
0.0
 70
0
  0
VERTEX
  5
5E
  8
1
 10
-3416.5523
 20
-704.534344
 30
0.0
 70
0
  0
VERTEX
  5
5F
  8
1
 10
-3416.487416
 20
-689.169976
 30
0.0
 70
0
  0
VERTEX
  5
60
  8
1
 10
-3416.423288
 20
-673.980306
 30
0.0
 70
0
  0
VERTEX
  5
61
  8
1
 10
-3416.359167
 20
-658.790627
 30
0.0
 70
0
  0
VERTEX
  5
62
  8
1
 10
-3416.295376
 20
-643.679505
 30
0.0
 70
0
  0
VERTEX
  5
63
  8
1
 10
-3416.231255
 20
-628.489832
 30
0.0
 70
0
  0
VERTEX
  5
64
  8
1
 10
-3416.167472
 20
-613.378435
 30
0.0
 70
0
  0
VERTEX
  5
65
  8
1
 10
-3416.103571
 20
-598.237235
 30
0.0
 70
0
  0
VERTEX
  5
66
  8
1
 10
-3416.085205
 20
-593.885307
 30
0.0
 70
0
  0
VERTEX
  5
67
  8
1
 10
-3400.587488
 20
-593.140752
 30
0.0
 70
0
  0
VERTEX
  5
68
  8
1
 10
-3385.279653
 20
-592.405324
 30
0.0
 70
0
  0
VERTEX
  5
69
  8
1
 10
-3384.328308
 20
-592.359619
 30
0.0
 70
0
  0
VERTEX
  5
6A
  8
1
 10
-3370.05594
 20
-591.673946
 30
0.0
 70
0
  0
VERTEX
  5
6B
  8
1
 10
-3354.605069
 20
-590.931655
 30
0.0
 70
0
  0
VERTEX
  5
6C
  8
1
 10
-3339.463189
 20
-590.204202
 30
0.0
 70
0
  0
VERTEX
  5
6D
  8
1
 10
-3324.246463
 20
-589.473152
 30
0.0
 70
0
  0
VERTEX
  5
6E
  8
1
 10
-3308.79569
 20
-588.73086
 30
0.0
 70
0
  0
VERTEX
  5
6F
  8
1
 10
-3293.381933
 20
-587.990348
 30
0.0
 70
0
  0
VERTEX
  5
70
  8
1
 10
-3277.931102
 20
-587.248056
 30
0.0
 70
0
  0
VERTEX
  5
71
  8
1
 10
-3262.890085
 20
-586.525452
 30
0.0
 70
0
  0
VERTEX
  5
72
  8
1
 10
-3247.439234
 20
-585.783154
 30
0.0
 70
0
  0
VERTEX
  5
73
  8
1
 10
-3232.406696
 20
-585.060953
 30
0.0
 70
0
  0
VERTEX
  5
74
  8
1
 10
-3216.955824
 20
-584.318654
 30
0.0
 70
0
  0
VERTEX
  5
75
  8
1
 10
-3201.938344
 20
-583.597178
 30
0.0
 70
0
  0
VERTEX
  5
76
  8
1
 10
-3186.487485
 20
-582.85488
 30
0.0
 70
0
  0
VERTEX
  5
77
  8
1
 10
-3171.083537
 20
-582.114835
 30
0.0
 70
0
  0
VERTEX
  5
78
  8
1
 10
-3155.632763
 20
-581.37254
 30
0.0
 70
0
  0
VERTEX
  5
79
  8
1
 10
-3140.571652
 20
-580.648966
 30
0.0
 70
0
  0
VERTEX
  5
7A
  8
1
 10
-3125.120839
 20
-579.906673
 30
0.0
 70
0
  0
VERTEX
  5
7B
  8
1
 10
-3109.979004
 20
-579.179225
 30
0.0
 70
0
  0
VERTEX
  5
7C
  8
1
 10
-3094.528115
 20
-578.436931
 30
0.0
 70
0
  0
VERTEX
  5
7D
  8
1
 10
-3079.071667
 20
-577.69437
 30
0.0
 70
0
  0
VERTEX
  5
7E
  8
1
 10
-3063.620837
 20
-576.952077
 30
0.0
 70
0
  0
VERTEX
  5
7F
  8
1
 10
-3048.49845
 20
-576.225563
 30
0.0
 70
0
  0
VERTEX
  5
80
  8
1
 10
-3033.047564
 20
-575.483265
 30
0.0
 70
0
  0
VERTEX
  5
81
  8
1
 10
-3018.015034
 20
-574.761062
 30
0.0
 70
0
  0
VERTEX
  5
82
  8
1
 10
-3002.564252
 20
-574.018761
 30
0.0
 70
0
  0
VERTEX
  5
83
  8
1
 10
-2987.475209
 20
-573.293839
 30
0.0
 70
0
  0
VERTEX
  5
84
  8
1
 10
-2972.024423
 20
-572.55154
 30
0.0
 70
0
  0
VERTEX
  5
85
  8
1
 10
-2956.974371
 20
-571.828498
 30
0.0
 70
0
  0
VERTEX
  5
86
  8
1
 10
-2941.884338
 20
-571.103541
 30
0.0
 70
0
  0
VERTEX
  5
87
  8
1
 10
-2926.999492
 20
-570.388445
 30
0.0
 70
0
  0
VERTEX
  5
88
  8
1
 10
-2922.952881
 20
-570.194016
 30
0.0
 70
0
  0
VERTEX
  5
89
  8
1
 10
-2923.362122
 20
-570.214767
 30
0.0
 70
0
  0
VERTEX
  5
8A
  8
1
 10
-2907.70261
 20
-568.442739
 30
0.0
 70
0
  0
VERTEX
  5
8B
  8
1
 10
-2892.298722
 20
-566.624242
 30
0.0
 70
0
  0
VERTEX
  5
8C
  8
1
 10
-2877.152105
 20
-564.738388
 30
0.0
 70
0
  0
VERTEX
  5
8D
  8
1
 10
-2862.303953
 20
-562.800173
 30
0.0
 70
0
  0
VERTEX
  5
8E
  8
1
 10
-2846.792013
 20
-560.694152
 30
0.0
 70
0
  0
VERTEX
  5
8F
  8
1
 10
-2832.058019
 20
-558.615542
 30
0.0
 70
0
  0
VERTEX
  5
90
  8
1
 10
-2816.569599
 20
-556.343297
 30
0.0
 70
0
  0
VERTEX
  5
91
  8
1
 10
-2801.602455
 20
-554.058151
 30
0.0
 70
0
  0
VERTEX
  5
92
  8
1
 10
-2786.640962
 20
-551.680565
 30
0.0
 70
0
  0
VERTEX
  5
93
  8
1
 10
-2772.188164
 20
-549.286091
 30
0.0
 70
0
  0
VERTEX
  5
94
  8
1
 10
-2756.763583
 20
-546.614054
 30
0.0
 70
0
  0
VERTEX
  5
95
  8
1
 10
-2742.126664
 20
-543.958833
 30
0.0
 70
0
  0
VERTEX
  5
96
  8
1
 10
-2726.747258
 20
-541.038039
 30
0.0
 70
0
  0
VERTEX
  5
97
  8
1
 10
-2712.022271
 20
-538.122547
 30
0.0
 70
0
  0
VERTEX
  5
98
  8
1
 10
-2697.182369
 20
-535.076451
 30
0.0
 70
0
  0
VERTEX
  5
99
  8
1
 10
-2682.367444
 20
-531.938658
 30
0.0
 70
0
  0
VERTEX
  5
9A
  8
1
 10
-2667.564832
 20
-528.716541
 30
0.0
 70
0
  0
VERTEX
  5
9B
  8
1
 10
-2652.783764
 20
-525.415298
 30
0.0
 70
0
  0
VERTEX
  5
9C
  8
1
 10
-2638.016712
 20
-522.033955
 30
0.0
 70
0
  0
VERTEX
  5
9D
  8
1
 10
-2623.364848
 20
-518.593753
 30
0.0
 70
0
  0
VERTEX
  5
9E
  8
1
 10
-2608.829382
 20
-515.103153
 30
0.0
 70
0
  0
VERTEX
  5
9F
  8
1
 10
-2600.72113
 20
-513.131218
 30
0.0
 70
0
  0
VERTEX
  5
A0
  8
1
 10
-2595.758592
 20
-520.153144
 30
0.0
 70
0
  0
VERTEX
  5
A1
  8
1
 10
-2592.016148
 20
-525.035195
 30
0.0
 70
0
  0
VERTEX
  5
A2
  8
1
 10
-2588.91133
 20
-528.731662
 30
0.0
 70
0
  0
VERTEX
  5
A3
  8
1
 10
-2585.975333
 20
-531.847588
 30
0.0
 70
0
  0
VERTEX
  5
A4
  8
1
 10
-2582.983642
 20
-534.686119
 30
0.0
 70
0
  0
VERTEX
  5
A5
  8
1
 10
-2580.084559
 20
-537.115603
 30
0.0
 70
0
  0
VERTEX
  5
A6
  8
1
 10
-2577.27179
 20
-539.167213
 30
0.0
 70
0
  0
VERTEX
  5
A7
  8
1
 10
-2574.531349
 20
-540.867644
 30
0.0
 70
0
  0
VERTEX
  5
A8
  8
1
 10
-2571.532144
 20
-542.42335
 30
0.0
 70
0
  0
VERTEX
  5
A9
  8
1
 10
-2568.109021
 20
-543.904842
 30
0.0
 70
0
  0
VERTEX
  5
AA
  8
1
 10
-2564.291238
 20
-545.278355
 30
0.0
 70
0
  0
VERTEX
  5
AB
  8
1
 10
-2559.824073
 20
-546.605812
 30
0.0
 70
0
  0
VERTEX
  5
AC
  8
1
 10
-2554.464654
 20
-547.913878
 30
0.0
 70
0
  0
VERTEX
  5
AD
  8
1
 10
-2548.182117
 20
-549.18382
 30
0.0
 70
0
  0
VERTEX
  5
AE
  8
1
 10
-2541.169715
 20
-550.341974
 30
0.0
 70
0
  0
VERTEX
  5
AF
  8
1
 10
-2532.662764
 20
-551.473007
 30
0.0
 70
0
  0
VERTEX
  5
B0
  8
1
 10
-2521.921692
 20
-552.608414
 30
0.0
 70
0
  0
VERTEX
  5
B1
  8
1
 10
-2506.429485
 20
-553.704429
 30
0.0
 70
0
  0
VERTEX
  5
B2
  8
1
 10
-2491.052676
 20
-554.832689
 30
0.0
 70
0
  0
VERTEX
  5
B3
  8
1
 10
-2475.914994
 20
-555.99763
 30
0.0
 70
0
  0
VERTEX
  5
B4
  8
1
 10
-2460.781889
 20
-557.221253
 30
0.0
 70
0
  0
VERTEX
  5
B5
  8
1
 10
-2445.746468
 20
-558.497373
 30
0.0
 70
0
  0
VERTEX
  5
B6
  8
1
 10
-2430.624383
 20
-559.85012
 30
0.0
 70
0
  0
VERTEX
  5
B7
  8
1
 10
-2415.204751
 20
-561.308148
 30
0.0
 70
0
  0
VERTEX
  5
B8
  8
1
 10
-2400.096127
 20
-562.804499
 30
0.0
 70
0
  0
VERTEX
  5
B9
  8
1
 10
-2385.09204
 20
-564.345779
 30
0.0
 70
0
  0
VERTEX
  5
BA
  8
1
 10
-2369.99504
 20
-565.954065
 30
0.0
 70
0
  0
VERTEX
  5
BB
  8
1
 10
-2354.794568
 20
-567.63422
 30
0.0
 70
0
  0
VERTEX
  5
BC
  8
1
 10
-2339.709072
 20
-569.347352
 30
0.0
 70
0
  0
VERTEX
  5
BD
  8
1
 10
-2324.693146
 20
-571.077499
 30
0.0
 70
0
  0
VERTEX
  5
BE
  8
1
 10
-2324.972486
 20
-586.770425
 30
0.0
 70
0
  0
VERTEX
  5
BF
  8
1
 10
-2325.212
 20
-601.981456
 30
0.0
 70
0
  0
VERTEX
  5
C0
  8
1
 10
-2325.336338
 20
-617.163807
 30
0.0
 70
0
  0
VERTEX
  5
C1
  8
1
 10
-2325.284095
 20
-632.376833
 30
0.0
 70
0
  0
VERTEX
  5
C2
  8
1
 10
-2325.035212
 20
-647.734662
 30
0.0
 70
0
  0
VERTEX
  5
C3
  8
1
 10
-2324.589339
 20
-662.941397
 30
0.0
 70
0
  0
VERTEX
  5
C4
  8
1
 10
-2323.951001
 20
-678.211159
 30
0.0
 70
0
  0
VERTEX
  5
C5
  8
1
 10
-2323.144041
 20
-693.507445
 30
0.0
 70
0
  0
VERTEX
  5
C6
  8
1
 10
-2322.229563
 20
-708.543189
 30
0.0
 70
0
  0
VERTEX
  5
C7
  8
1
 10
-2321.552887
 20
-718.643951
 30
0.0
 70
0
  0
VERTEX
  5
C8
  8
1
 10
-2334.797968
 20
-720.570765
 30
0.0
 70
0
  0
VERTEX
  5
C9
  8
1
 10
-2339.946052
 20
-721.358111
 30
0.0
 70
0
  0
VERTEX
  5
CA
  8
1
 10
-2344.900252
 20
-722.403874
 30
0.0
 70
0
  0
VERTEX
  5
CB
  8
1
 10
-2349.957234
 20
-723.712133
 30
0.0
 70
0
  0
VERTEX
  5
CC
  8
1
 10
-2354.63101
 20
-725.16719
 30
0.0
 70
0
  0
VERTEX
  5
CD
  8
1
 10
-2359.08441
 20
-726.805292
 30
0.0
 70
0
  0
VERTEX
  5
CE
  8
1
 10
-2363.167489
 20
-728.56432
 30
0.0
 70
0
  0
VERTEX
  5
CF
  8
1
 10
-2366.841148
 20
-730.404914
 30
0.0
 70
0
  0
VERTEX
  5
D0
  8
1
 10
-2370.181947
 20
-732.345154
 30
0.0
 70
0
  0
VERTEX
  5
D1
  8
1
 10
-2373.170687
 20
-734.357951
 30
0.0
 70
0
  0
VERTEX
  5
D2
  8
1
 10
-2375.849439
 20
-736.456214
 30
0.0
 70
0
  0
VERTEX
  5
D3
  8
1
 10
-2378.148975
 20
-738.559643
 30
0.0
 70
0
  0
VERTEX
  5
D4
  8
1
 10
-2380.15095
 20
-740.710276
 30
0.0
 70
0
  0
VERTEX
  5
D5
  8
1
 10
-2381.922637
 20
-742.978272
 30
0.0
 70
0
  0
VERTEX
  5
D6
  8
1
 10
-2383.448963
 20
-745.346411
 30
0.0
 70
0
  0
VERTEX
  5
D7
  8
1
 10
-2384.860067
 20
-748.027104
 30
0.0
 70
0
  0
VERTEX
  5
D8
  8
1
 10
-2386.104291
 20
-750.93886
 30
0.0
 70
0
  0
VERTEX
  5
D9
  8
1
 10
-2387.216314
 20
-754.184844
 30
0.0
 70
0
  0
VERTEX
  5
DA
  8
1
 10
-2388.202333
 20
-757.868086
 30
0.0
 70
0
  0
VERTEX
  5
DB
  8
1
 10
-2389.008152
 20
-761.863993
 30
0.0
 70
0
  0
VERTEX
  5
DC
  8
1
 10
-2389.649484
 20
-766.339468
 30
0.0
 70
0
  0
VERTEX
  5
DD
  8
1
 10
-2390.093877
 20
-771.215451
 30
0.0
 70
0
  0
VERTEX
  5
DE
  8
1
 10
-2390.334184
 20
-776.682325
 30
0.0
 70
0
  0
VERTEX
  5
DF
  8
1
 10
-2390.345366
 20
-782.716496
 30
0.0
 70
0
  0
VERTEX
  5
E0
  8
1
 10
-2390.098949
 20
-789.657896
 30
0.0
 70
0
  0
VERTEX
  5
E1
  8
1
 10
-2389.571975
 20
-797.381732
 30
0.0
 70
0
  0
VERTEX
  5
E2
  8
1
 10
-2388.75051
 20
-805.713714
 30
0.0
 70
0
  0
VERTEX
  5
E3
  8
1
 10
-2387.540038
 20
-815.313632
 30
0.0
 70
0
  0
VERTEX
  5
E4
  8
1
 10
-2385.691519
 20
-827.700261
 30
0.0
 70
0
  0
VERTEX
  5
E5
  8
1
 10
-2383.289498
 20
-842.486834
 30
0.0
 70
0
  0
VERTEX
  5
E6
  8
1
 10
-2383.092804
 20
-843.670425
 30
0.0
 70
0
  0
VERTEX
  5
E7
  8
1
 10
-2392.404681
 20
-844.794947
 30
0.0
 70
0
  0
VERTEX
  5
E8
  8
1
 10
-2407.693808
 20
-846.575556
 30
0.0
 70
0
  0
VERTEX
  5
E9
  8
1
 10
-2422.718966
 20
-848.196005
 30
0.0
 70
0
  0
VERTEX
  5
EA
  8
1
 10
-2437.761691
 20
-849.638048
 30
0.0
 70
0
  0
VERTEX
  5
EB
  8
1
 10
-2453.111744
 20
-850.877911
 30
0.0
 70
0
  0
VERTEX
  5
EC
  8
1
 10
-2468.192093
 20
-851.857243
 30
0.0
 70
0
  0
VERTEX
  5
ED
  8
1
 10
-2483.23064
 20
-852.601249
 30
0.0
 70
0
  0
VERTEX
  5
EE
  8
1
 10
-2498.333169
 20
-853.135363
 30
0.0
 70
0
  0
VERTEX
  5
EF
  8
1
 10
-2513.365317
 20
-853.483356
 30
0.0
 70
0
  0
VERTEX
  5
F0
  8
1
 10
-2528.963153
 20
-853.695948
 30
0.0
 70
0
  0
VERTEX
  5
F1
  8
1
 10
-2543.905354
 20
-853.795887
 30
0.0
 70
0
  0
VERTEX
  5
F2
  8
1
 10
-2559.019425
 20
-853.795854
 30
0.0
 70
0
  0
VERTEX
  5
F3
  8
1
 10
-2574.130845
 20
-853.683135
 30
0.0
 70
0
  0
VERTEX
  5
F4
  8
1
 10
-2589.240383
 20
-853.431692
 30
0.0
 70
0
  0
VERTEX
  5
F5
  8
1
 10
-2604.343825
 20
-853.022779
 30
0.0
 70
0
  0
VERTEX
  5
F6
  8
1
 10
-2619.684998
 20
-852.471867
 30
0.0
 70
0
  0
VERTEX
  5
F7
  8
1
 10
-2634.783071
 20
-851.832665
 30
0.0
 70
0
  0
VERTEX
  5
F8
  8
1
 10
-2650.09183
 20
-851.123258
 30
0.0
 70
0
  0
VERTEX
  5
F9
  8
1
 10
-2665.185787
 20
-850.393519
 30
0.0
 70
0
  0
VERTEX
  5
FA
  8
1
 10
-2680.278599
 20
-849.639961
 30
0.0
 70
0
  0
VERTEX
  5
FB
  8
1
 10
-2695.348393
 20
-848.865582
 30
0.0
 70
0
  0
VERTEX
  5
FC
  8
1
 10
-2710.439392
 20
-848.075775
 30
0.0
 70
0
  0
VERTEX
  5
FD
  8
1
 10
-2725.518118
 20
-847.280452
 30
0.0
 70
0
  0
VERTEX
  5
FE
  8
1
 10
-2740.851718
 20
-846.469908
 30
0.0
 70
0
  0
VERTEX
  5
FF
  8
1
 10
-2755.942286
 20
-845.67321
 30
0.0
 70
0
  0
VERTEX
  5
100
  8
1
 10
-2771.075407
 20
-844.87508
 30
0.0
 70
0
  0
VERTEX
  5
101
  8
1
 10
-2786.165989
 20
-844.079315
 30
0.0
 70
0
  0
VERTEX
  5
102
  8
1
 10
-2801.336559
 20
-843.279554
 30
0.0
 70
0
  0
VERTEX
  5
103
  8
1
 10
-2816.427156
 20
-842.484453
 30
0.0
 70
0
  0
VERTEX
  5
104
  8
1
 10
-2831.556654
 20
-841.687688
 30
0.0
 70
0
  0
VERTEX
  5
105
  8
1
 10
-2846.647291
 20
-840.893253
 30
0.0
 70
0
  0
VERTEX
  5
106
  8
1
 10
-2861.917566
 20
-840.089647
 30
0.0
 70
0
  0
VERTEX
  5
107
  8
1
 10
-2877.008315
 20
-839.295801
 30
0.0
 70
0
  0
VERTEX
  5
108
  8
1
 10
-2892.115142
 20
-838.501471
 30
0.0
 70
0
  0
VERTEX
  5
109
  8
1
 10
-2907.531884
 20
-837.691231
 30
0.0
 70
0
  0
SEQEND
  5
33
  8
1
  0
POLYLINE
  5
10A
  8
14
 66
1
 10
0.0
 20
0.0
 30
0.0
 70
1
  0
VERTEX
  5
10C
  8
14
 10
-2922.345886
 20
-824.195404
 30
0.0
 70
0
  0
VERTEX
  5
10D
  8
14
 10
-2922.345886
 20
-824.195404
 30
0.0
 70
0
  0
VERTEX
  5
10E
  8
14
 10
-2933.227339
 20
-823.747068
 30
0.0
 70
0
  0
VERTEX
  5
10F
  8
14
 10
-2948.564534
 20
-823.103914
 30
0.0
 70
0
  0
VERTEX
  5
110
  8
14
 10
-2963.012221
 20
-822.489177
 30
0.0
 70
0
  0
VERTEX
  5
111
  8
14
 10
-2980.038055
 20
-821.754917
 30
0.0
 70
0
  0
VERTEX
  5
112
  8
14
 10
-2995.317969
 20
-821.087341
 30
0.0
 70
0
  0
VERTEX
  5
113
  8
14
 10
-3011.910085
 20
-820.353365
 30
0.0
 70
0
  0
VERTEX
  5
114
  8
14
 10
-3029.664302
 20
-819.557473
 30
0.0
 70
0
  0
VERTEX
  5
115
  8
14
 10
-3048.430526
 20
-818.704151
 30
0.0
 70
0
  0
VERTEX
  5
116
  8
14
 10
-3068.058565
 20
-817.797886
 30
0.0
 70
0
  0
VERTEX
  5
117
  8
14
 10
-3083.254898
 20
-817.086141
 30
0.0
 70
0
  0
VERTEX
  5
118
  8
14
 10
-3098.788203
 20
-816.349032
 30
0.0
 70
0
  0
VERTEX
  5
119
  8
14
 10
-3114.595218
 20
-815.588448
 30
0.0
 70
0
  0
VERTEX
  5
11A
  8
14
 10
-3130.612572
 20
-814.806284
 30
0.0
 70
0
  0
VERTEX
  5
11B
  8
14
 10
-3146.776892
 20
-814.004434
 30
0.0
 70
0
  0
VERTEX
  5
11C
  8
14
 10
-3163.024919
 20
-813.184787
 30
0.0
 70
0
  0
VERTEX
  5
11D
  8
14
 10
-3179.070704
 20
-812.360908
 30
0.0
 70
0
  0
VERTEX
  5
11E
  8
14
 10
-3195.284301
 20
-811.514215
 30
0.0
 70
0
  0
VERTEX
  5
11F
  8
14
 10
-3211.362574
 20
-810.661672
 30
0.0
 70
0
  0
VERTEX
  5
120
  8
14
 10
-3227.224132
 20
-809.808978
 30
0.0
 70
0
  0
VERTEX
  5
121
  8
14
 10
-3242.787598
 20
-808.96183
 30
0.0
 70
0
  0
VERTEX
  5
122
  8
14
 10
-3262.934444
 20
-807.850784
 30
0.0
 70
0
  0
VERTEX
  5
123
  8
14
 10
-3282.213705
 20
-806.773243
 30
0.0
 70
0
  0
VERTEX
  5
124
  8
14
 10
-3300.43243
 20
-805.742717
 30
0.0
 70
0
  0
VERTEX
  5
125
  8
14
 10
-3317.397688
 20
-804.772718
 30
0.0
 70
0
  0
VERTEX
  5
126
  8
14
 10
-3332.916538
 20
-803.876754
 30
0.0
 70
0
  0
VERTEX
  5
127
  8
14
 10
-3349.987188
 20
-802.881493
 30
0.0
 70
0
  0
VERTEX
  5
128
  8
14
 10
-3366.560285
 20
-801.904895
 30
0.0
 70
0
  0
VERTEX
  5
129
  8
14
 10
-3385.20874
 20
-800.790634
 30
0.0
 70
0
  0
VERTEX
  5
12A
  8
14
 10
-3385.20874
 20
-800.790634
 30
0.0
 70
0
  0
VERTEX
  5
12B
  8
14
 10
-3385.132446
 20
-782.729161
 30
0.0
 70
0
  0
VERTEX
  5
12C
  8
14
 10
-3385.064736
 20
-766.699898
 30
0.0
 70
0
  0
VERTEX
  5
12D
  8
14
 10
-3384.982835
 20
-747.310986
 30
0.0
 70
0
  0
VERTEX
  5
12E
  8
14
 10
-3384.910275
 20
-730.133478
 30
0.0
 70
0
  0
VERTEX
  5
12F
  8
14
 10
-3384.834082
 20
-712.095892
 30
0.0
 70
0
  0
VERTEX
  5
130
  8
14
 10
-3384.756678
 20
-693.771615
 30
0.0
 70
0
  0
VERTEX
  5
131
  8
14
 10
-3384.680484
 20
-675.734037
 30
0.0
 70
0
  0
VERTEX
  5
132
  8
14
 10
-3384.607924
 20
-658.55652
 30
0.0
 70
0
  0
VERTEX
  5
133
  8
14
 10
-3384.541419
 20
-642.812454
 30
0.0
 70
0
  0
VERTEX
  5
134
  8
14
 10
-3384.470493
 20
-626.021673
 30
0.0
 70
0
  0
VERTEX
  5
135
  8
14
 10
-3384.409526
 20
-611.588619
 30
0.0
 70
0
  0
VERTEX
  5
136
  8
14
 10
-3384.382019
 20
-605.076866
 30
0.0
 70
0
  0
VERTEX
  5
137
  8
14
 10
-3384.382019
 20
-605.076866
 30
0.0
 70
0
  0
VERTEX
  5
138
  8
14
 10
-3364.528784
 20
-604.123068
 30
0.0
 70
0
  0
VERTEX
  5
139
  8
14
 10
-3341.742688
 20
-603.028369
 30
0.0
 70
0
  0
VERTEX
  5
13A
  8
14
 10
-3320.137487
 20
-601.990403
 30
0.0
 70
0
  0
VERTEX
  5
13B
  8
14
 10
-3303.900984
 20
-601.210362
 30
0.0
 70
0
  0
VERTEX
  5
13C
  8
14
 10
-3286.395454
 20
-600.369353
 30
0.0
 70
0
  0
VERTEX
  5
13D
  8
14
 10
-3267.790101
 20
-599.475507
 30
0.0
 70
0
  0
VERTEX
  5
13E
  8
14
 10
-3248.254128
 20
-598.536951
 30
0.0
 70
0
  0
VERTEX
  5
13F
  8
14
 10
-3227.95674
 20
-597.561815
 30
0.0
 70
0
  0
VERTEX
  5
140
  8
14
 10
-3207.067139
 20
-596.558228
 30
0.0
 70
0
  0
VERTEX
  5
141
  8
14
 10
-3185.754512
 20
-595.534318
 30
0.0
 70
0
  0
VERTEX
  5
142
  8
14
 10
-3164.188098
 20
-594.498215
 30
0.0
 70
0
  0
VERTEX
  5
143
  8
14
 10
-3142.537084
 20
-593.458048
 30
0.0
 70
0
  0
VERTEX
  5
144
  8
14
 10
-3120.970672
 20
-592.421945
 30
0.0
 70
0
  0
VERTEX
  5
145
  8
14
 10
-3099.658067
 20
-591.398035
 30
0.0
 70
0
  0
VERTEX
  5
146
  8
14
 10
-3078.768473
 20
-590.394448
 30
0.0
 70
0
  0
VERTEX
  5
147
  8
14
 10
-3058.471093
 20
-589.419313
 30
0.0
 70
0
  0
VERTEX
  5
148
  8
14
 10
-3038.93513
 20
-588.480758
 30
0.0
 70
0
  0
VERTEX
  5
149
  8
14
 10
-3020.32979
 20
-587.586912
 30
0.0
 70
0
  0
VERTEX
  5
14A
  8
14
 10
-3002.824274
 20
-586.745904
 30
0.0
 70
0
  0
VERTEX
  5
14B
  8
14
 10
-2986.587788
 20
-585.965864
 30
0.0
 70
0
  0
VERTEX
  5
14C
  8
14
 10
-2971.789535
 20
-585.25492
 30
0.0
 70
0
  0
VERTEX
  5
14D
  8
14
 10
-2952.658974
 20
-584.335842
 30
0.0
 70
0
  0
VERTEX
  5
14E
  8
14
 10
-2937.716194
 20
-583.617954
 30
0.0
 70
0
  0
VERTEX
  5
14F
  8
14
 10
-2923.668839
 20
-582.943085
 30
0.0
 70
0
  0
VERTEX
  5
150
  8
14
 10
-2922.343445
 20
-582.87941
 30
0.0
 70
0
  0
VERTEX
  5
151
  8
14
 10
-2922.343445
 20
-582.87941
 30
0.0
 70
0
  0
VERTEX
  5
152
  8
14
 10
-2905.47181
 20
-580.988576
 30
0.0
 70
0
  0
VERTEX
  5
153
  8
14
 10
-2889.644327
 20
-579.095389
 30
0.0
 70
0
  0
VERTEX
  5
154
  8
14
 10
-2872.394056
 20
-576.926568
 30
0.0
 70
0
  0
VERTEX
  5
155
  8
14
 10
-2855.466633
 20
-574.696663
 30
0.0
 70
0
  0
VERTEX
  5
156
  8
14
 10
-2840.083214
 20
-572.582689
 30
0.0
 70
0
  0
VERTEX
  5
157
  8
14
 10
-2823.726792
 20
-570.240952
 30
0.0
 70
0
  0
VERTEX
  5
158
  8
14
 10
-2806.573709
 20
-567.675862
 30
0.0
 70
0
  0
VERTEX
  5
159
  8
14
 10
-2788.800299
 20
-564.89183
 30
0.0
 70
0
  0
VERTEX
  5
15A
  8
14
 10
-2770.582948
 20
-561.893274
 30
0.0
 70
0
  0
VERTEX
  5
15B
  8
14
 10
-2752.097989
 20
-558.684603
 30
0.0
 70
0
  0
VERTEX
  5
15C
  8
14
 10
-2738.627262
 20
-556.22907
 30
0.0
 70
0
  0
VERTEX
  5
15D
  8
14
 10
-2720.117026
 20
-552.683526
 30
0.0
 70
0
  0
VERTEX
  5
15E
  8
14
 10
-2701.950883
 20
-549.031239
 30
0.0
 70
0
  0
VERTEX
  5
15F
  8
14
 10
-2684.43629
 20
-545.367965
 30
0.0
 70
0
  0
VERTEX
  5
160
  8
14
 10
-2667.880741
 20
-541.789469
 30
0.0
 70
0
  0
VERTEX
  5
161
  8
14
 10
-2652.591742
 20
-538.391516
 30
0.0
 70
0
  0
VERTEX
  5
162
  8
14
 10
-2636.349649
 20
-534.687106
 30
0.0
 70
0
  0
VERTEX
  5
163
  8
14
 10
-2620.97405
 20
-531.088912
 30
0.0
 70
0
  0
VERTEX
  5
164
  8
14
 10
-2607.28764
 20
-527.799672
 30
0.0
 70
0
  0
VERTEX
  5
165
  8
14
 10
-2604.646606
 20
-527.150993
 30
0.0
 70
0
  0
VERTEX
  5
166
  8
14
 10
-2601.692733
 20
-531.225211
 30
0.0
 70
0
  0
VERTEX
  5
167
  8
14
 10
-2598.382518
 20
-535.266513
 30
0.0
 70
0
  0
VERTEX
  5
168
  8
14
 10
-2594.81606
 20
-539.158734
 30
0.0
 70
0
  0
VERTEX
  5
169
  8
14
 10
-2591.488247
 20
-542.403154
 30
0.0
 70
0
  0
VERTEX
  5
16A
  8
14
 10
-2587.780272
 20
-545.599886
 30
0.0
 70
0
  0
VERTEX
  5
16B
  8
14
 10
-2584.25424
 20
-548.239029
 30
0.0
 70
0
  0
VERTEX
  5
16C
  8
14
 10
-2581.176885
 20
-550.223836
 30
0.0
 70
0
  0
VERTEX
  5
16D
  8
14
 10
-2577.816342
 20
-552.071373
 30
0.0
 70
0
  0
VERTEX
  5
16E
  8
14
 10
-2574.320051
 20
-553.705362
 30
0.0
 70
0
  0
VERTEX
  5
16F
  8
14
 10
-2570.097546
 20
-555.368468
 30
0.0
 70
0
  0
VERTEX
  5
170
  8
14
 10
-2565.752347
 20
-556.799892
 30
0.0
 70
0
  0
VERTEX
  5
171
  8
14
 10
-2560.67904
 20
-558.192856
 30
0.0
 70
0
  0
VERTEX
  5
172
  8
14
 10
-2554.894318
 20
-559.506846
 30
0.0
 70
0
  0
VERTEX
  5
173
  8
14
 10
-2547.618115
 20
-560.873302
 30
0.0
 70
0
  0
VERTEX
  5
174
  8
14
 10
-2539.643504
 20
-562.109132
 30
0.0
 70
0
  0
VERTEX
  5
175
  8
14
 10
-2530.732208
 20
-563.230028
 30
0.0
 70
0
  0
VERTEX
  5
176
  8
14
 10
-2522.823486
 20
-564.003334
 30
0.0
 70
0
  0
VERTEX
  5
177
  8
14
 10
-2506.476713
 20
-565.151337
 30
0.0
 70
0
  0
VERTEX
  5
178
  8
14
 10
-2489.534654
 20
-566.409191
 30
0.0
 70
0
  0
VERTEX
  5
179
  8
14
 10
-2472.762675
 20
-567.716895
 30
0.0
 70
0
  0
VERTEX
  5
17A
  8
14
 10
-2456.383974
 20
-569.058966
 30
0.0
 70
0
  0
VERTEX
  5
17B
  8
14
 10
-2439.23375
 20
-570.544263
 30
0.0
 70
0
  0
VERTEX
  5
17C
  8
14
 10
-2422.675783
 20
-572.07128
 30
0.0
 70
0
  0
VERTEX
  5
17D
  8
14
 10
-2407.749759
 20
-573.52383
 30
0.0
 70
0
  0
VERTEX
  5
17E
  8
14
 10
-2391.427014
 20
-575.182156
 30
0.0
 70
0
  0
VERTEX
  5
17F
  8
14
 10
-2376.37037
 20
-576.768987
 30
0.0
 70
0
  0
VERTEX
  5
180
  8
14
 10
-2361.57054
 20
-578.378225
 30
0.0
 70
0
  0
VERTEX
  5
181
  8
14
 10
-2346.555428
 20
-580.0612
 30
0.0
 70
0
  0
VERTEX
  5
182
  8
14
 10
-2337.573547
 20
-581.097565
 30
0.0
 70
0
  0
VERTEX
  5
183
  8
14
 10
-2337.882283
 20
-597.397577
 30
0.0
 70
0
  0
VERTEX
  5
184
  8
14
 10
-2338.01726
 20
-612.764611
 30
0.0
 70
0
  0
VERTEX
  5
185
  8
14
 10
-2338.005432
 20
-628.125717
 30
0.0
 70
0
  0
VERTEX
  5
186
  8
14
 10
-2337.802771
 20
-644.716924
 30
0.0
 70
0
  0
VERTEX
  5
187
  8
14
 10
-2337.372178
 20
-660.873901
 30
0.0
 70
0
  0
VERTEX
  5
188
  8
14
 10
-2336.714276
 20
-677.169388
 30
0.0
 70
0
  0
VERTEX
  5
189
  8
14
 10
-2335.911479
 20
-692.857165
 30
0.0
 70
0
  0
VERTEX
  5
18A
  8
14
 10
-2335.003162
 20
-707.849508
 30
0.0
 70
0
  0
VERTEX
  5
18B
  8
14
 10
-2334.646454
 20
-712.861862
 30
0.0
 70
0
  0
VERTEX
  5
18C
  8
14
 10
-2340.13429
 20
-713.6548
 30
0.0
 70
0
  0
VERTEX
  5
18D
  8
14
 10
-2346.118687
 20
-714.862908
 30
0.0
 70
0
  0
VERTEX
  5
18E
  8
14
 10
-2351.929393
 20
-716.350879
 30
0.0
 70
0
  0
VERTEX
  5
18F
  8
14
 10
-2357.504511
 20
-718.096376
 30
0.0
 70
0
  0
VERTEX
  5
190
  8
14
 10
-2362.488416
 20
-719.961471
 30
0.0
 70
0
  0
VERTEX
  5
191
  8
14
 10
-2367.528712
 20
-722.200117
 30
0.0
 70
0
  0
VERTEX
  5
192
  8
14
 10
-2371.681086
 20
-724.373541
 30
0.0
 70
0
  0
VERTEX
  5
193
  8
14
 10
-2375.712128
 20
-726.846146
 30
0.0
 70
0
  0
VERTEX
  5
194
  8
14
 10
-2378.800582
 20
-729.05179
 30
0.0
 70
0
  0
VERTEX
  5
195
  8
14
 10
-2381.727341
 20
-731.469732
 30
0.0
 70
0
  0
VERTEX
  5
196
  8
14
 10
-2384.455066
 20
-734.109238
 30
0.0
 70
0
  0
VERTEX
  5
197
  8
14
 10
-2386.946391
 20
-736.979547
 30
0.0
 70
0
  0
VERTEX
  5
198
  8
14
 10
-2389.072144
 20
-739.946774
 30
0.0
 70
0
  0
VERTEX
  5
199
  8
14
 10
-2391.010843
 20
-743.284922
 30
0.0
 70
0
  0
VERTEX
  5
19A
  8
14
 10
-2392.670973
 20
-746.84131
 30
0.0
 70
0
  0
VERTEX
  5
19B
  8
14
 10
-2394.069753
 20
-750.593251
 30
0.0
 70
0
  0
VERTEX
  5
19C
  8
14
 10
-2395.224408
 20
-754.518056
 30
0.0
 70
0
  0
VERTEX
  5
19D
  8
14
 10
-2396.152158
 20
-758.593036
 30
0.0
 70
0
  0
VERTEX
  5
19E
  8
14
 10
-2397.018997
 20
-763.86338
 30
0.0
 70
0
  0
VERTEX
  5
19F
  8
14
 10
-2397.591845
 20
-769.28861
 30
0.0
 70
0
  0
VERTEX
  5
1A0
  8
14
 10
-2397.904338
 20
-774.824414
 30
0.0
 70
0
  0
VERTEX
  5
1A1
  8
14
 10
-2397.983021
 20
-781.550941
 30
0.0
 70
0
  0
VERTEX
  5
1A2
  8
14
 10
-2397.793354
 20
-788.296311
 30
0.0
 70
0
  0
VERTEX
  5
1A3
  8
14
 10
-2397.310455
 20
-796.087578
 30
0.0
 70
0
  0
VERTEX
  5
1A4
  8
14
 10
-2396.491015
 20
-805.037908
 30
0.0
 70
0
  0
VERTEX
  5
1A5
  8
14
 10
-2395.324046
 20
-814.92024
 30
0.0
 70
0
  0
VERTEX
  5
1A6
  8
14
 10
-2393.851603
 20
-825.20697
 30
0.0
 70
0
  0
VERTEX
  5
1A7
  8
14
 10
-2392.71637
 20
-832.032242
 30
0.0
 70
0
  0
VERTEX
  5
1A8
  8
14
 10
-2406.117458
 20
-833.64091
 30
0.0
 70
0
  0
VERTEX
  5
1A9
  8
14
 10
-2421.68915
 20
-835.333631
 30
0.0
 70
0
  0
VERTEX
  5
1AA
  8
14
 10
-2437.334878
 20
-836.84924
 30
0.0
 70
0
  0
VERTEX
  5
1AB
  8
14
 10
-2452.512081
 20
-838.111567
 30
0.0
 70
0
  0
VERTEX
  5
1AC
  8
14
 10
-2467.088503
 20
-839.0852
 30
0.0
 70
0
  0
VERTEX
  5
1AD
  8
14
 10
-2482.548072
 20
-839.864012
 30
0.0
 70
0
  0
VERTEX
  5
1AE
  8
14
 10
-2498.021298
 20
-840.418023
 30
0.0
 70
0
  0
VERTEX
  5
1AF
  8
14
 10
-2513.503669
 20
-840.783282
 30
0.0
 70
0
  0
VERTEX
  5
1B0
  8
14
 10
-2528.990672
 20
-840.995835
 30
0.0
 70
0
  0
VERTEX
  5
1B1
  8
14
 10
-2545.676384
 20
-841.095251
 30
0.0
 70
0
  0
VERTEX
  5
1B2
  8
14
 10
-2561.159911
 20
-841.086732
 30
0.0
 70
0
  0
VERTEX
  5
1B3
  8
14
 10
-2576.639827
 20
-840.955136
 30
0.0
 70
0
  0
VERTEX
  5
1B4
  8
14
 10
-2591.674266
 20
-840.678761
 30
0.0
 70
0
  0
VERTEX
  5
1B5
  8
14
 10
-2607.147743
 20
-840.226403
 30
0.0
 70
0
  0
VERTEX
  5
1B6
  8
14
 10
-2622.618235
 20
-839.640145
 30
0.0
 70
0
  0
VERTEX
  5
1B7
  8
14
 10
-2638.310341
 20
-838.956263
 30
0.0
 70
0
  0
VERTEX
  5
1B8
  8
14
 10
-2653.775375
 20
-838.234536
 30
0.0
 70
0
  0
VERTEX
  5
1B9
  8
14
 10
-2669.238247
 20
-837.479252
 30
0.0
 70
0
  0
VERTEX
  5
1BA
  8
14
 10
-2684.699441
 20
-836.697717
 30
0.0
 70
0
  0
VERTEX
  5
1BB
  8
14
 10
-2700.159444
 20
-835.897234
 30
0.0
 70
0
  0
VERTEX
  5
1BC
  8
14
 10
-2715.618741
 20
-835.085108
 30
0.0
 70
0
  0
VERTEX
  5
1BD
  8
14
 10
-2731.97695
 20
-834.221104
 30
0.0
 70
0
  0
VERTEX
  5
1BE
  8
14
 10
-2747.39871
 20
-833.406748
 30
0.0
 70
0
  0
VERTEX
  5
1BF
  8
14
 10
-2762.702125
 20
-832.599103
 30
0.0
 70
0
  0
VERTEX
  5
1C0
  8
14
 10
-2777.80204
 20
-831.802612
 30
0.0
 70
0
  0
VERTEX
  5
1C1
  8
14
 10
-2794.237499
 20
-830.936107
 30
0.0
 70
0
  0
VERTEX
  5
1C2
  8
14
 10
-2810.199839
 20
-830.094949
 30
0.0
 70
0
  0
VERTEX
  5
1C3
  8
14
 10
-2825.572277
 20
-829.28523
 30
0.0
 70
0
  0
VERTEX
  5
1C4
  8
14
 10
-2841.661255
 20
-828.438124
 30
0.0
 70
0
  0
VERTEX
  5
1C5
  8
14
 10
-2858.054981
 20
-827.575334
 30
0.0
 70
0
  0
VERTEX
  5
1C6
  8
14
 10
-2874.223694
 20
-826.724737
 30
0.0
 70
0
  0
VERTEX
  5
1C7
  8
14
 10
-2890.496646
 20
-825.869013
 30
0.0
 70
0
  0
VERTEX
  5
1C8
  8
14
 10
-2906.121747
 20
-825.047716
 30
0.0
 70
0
  0
SEQEND
  5
10B
  8
14
  0
POLYLINE
  5
1C9
  8
8
 66
1
 10
0.0
 20
0.0
 30
0.0
 70
0
  0
VERTEX
  5
1CB
  8
8
 10
-3369.555664
 20
-706.611252
 30
0.0
 70
0
  0
VERTEX
  5
1CC
  8
8
 10
-3351.573189
 20
-706.66167
 30
0.0
 70
0
  0
VERTEX
  5
1CD
  8
8
 10
-3334.42039
 20
-706.707716
 30
0.0
 70
0
  0
VERTEX
  5
1CE
  8
8
 10
-3317.106214
 20
-706.752688
 30
0.0
 70
0
  0
VERTEX
  5
1CF
  8
8
 10
-3296.874021
 20
-706.803531
 30
0.0
 70
0
  0
VERTEX
  5
1D0
  8
8
 10
-3279.937519
 20
-706.844761
 30
0.0
 70
0
  0
VERTEX
  5
1D1
  8
8
 10
-3261.609333
 20
-706.888059
 30
0.0
 70
0
  0
VERTEX
  5
1D2
  8
8
 10
-3241.996478
 20
-706.932896
 30
0.0
 70
0
  0
VERTEX
  5
1D3
  8
8
 10
-3221.205953
 20
-706.97874
 30
0.0
 70
0
  0
VERTEX
  5
1D4
  8
8
 10
-3199.344805
 20
-707.025065
 30
0.0
 70
0
  0
VERTEX
  5
1D5
  8
8
 10
-3176.520034
 20
-707.071339
 30
0.0
 70
0
  0
VERTEX
  5
1D6
  8
8
 10
-3160.821022
 20
-707.1019
 30
0.0
 70
0
  0
VERTEX
  5
1D7
  8
8
 10
-3144.773003
 20
-707.132046
 30
0.0
 70
0
  0
VERTEX
  5
1D8
  8
8
 10
-3128.407687
 20
-707.161621
 30
0.0
 70
0
  0
VERTEX
  5
1D9
  8
8
 10
-3111.756781
 20
-707.190468
 30
0.0
 70
0
  0
VERTEX
  5
1DA
  8
8
 10
-3094.851995
 20
-707.21843
 30
0.0
 70
0
  0
VERTEX
  5
1DB
  8
8
 10
-3077.725035
 20
-707.24535
 30
0.0
 70
0
  0
VERTEX
  5
1DC
  8
8
 10
-3060.407611
 20
-707.271072
 30
0.0
 70
0
  0
VERTEX
  5
1DD
  8
8
 10
-3042.931431
 20
-707.295439
 30
0.0
 70
0
  0
VERTEX
  5
1DE
  8
8
 10
-3025.328204
 20
-707.318294
 30
0.0
 70
0
  0
VERTEX
  5
1DF
  8
8
 10
-3007.629636
 20
-707.339479
 30
0.0
 70
0
  0
VERTEX
  5
1E0
  8
8
 10
-2989.867437
 20
-707.358839
 30
0.0
 70
0
  0
VERTEX
  5
1E1
  8
8
 10
-2972.073316
 20
-707.376215
 30
0.0
 70
0
  0
VERTEX
  5
1E2
  8
8
 10
-2954.160895
 20
-707.391591
 30
0.0
 70
0
  0
VERTEX
  5
1E3
  8
8
 10
-2936.406044
 20
-707.404822
 30
0.0
 70
0
  0
VERTEX
  5
1E4
  8
8
 10
-2918.72776
 20
-707.416122
 30
0.0
 70
0
  0
VERTEX
  5
1E5
  8
8
 10
-2901.16433
 20
-707.425598
 30
0.0
 70
0
  0
VERTEX
  5
1E6
  8
8
 10
-2883.754038
 20
-707.433355
 30
0.0
 70
0
  0
VERTEX
  5
1E7
  8
8
 10
-2866.53517
 20
-707.439497
 30
0.0
 70
0
  0
VERTEX
  5
1E8
  8
8
 10
-2849.546011
 20
-707.444131
 30
0.0
 70
0
  0
VERTEX
  5
1E9
  8
8
 10
-2832.824846
 20
-707.447361
 30
0.0
 70
0
  0
VERTEX
  5
1EA
  8
8
 10
-2816.40996
 20
-707.449293
 30
0.0
 70
0
  0
VERTEX
  5
1EB
  8
8
 10
-2800.339638
 20
-707.450032
 30
0.0
 70
0
  0
VERTEX
  5
1EC
  8
8
 10
-2784.652166
 20
-707.449683
 30
0.0
 70
0
  0
VERTEX
  5
1ED
  8
8
 10
-2769.385828
 20
-707.448352
 30
0.0
 70
0
  0
VERTEX
  5
1EE
  8
8
 10
-2754.57891
 20
-707.446144
 30
0.0
 70
0
  0
VERTEX
  5
1EF
  8
8
 10
-2733.313635
 20
-707.441418
 30
0.0
 70
0
  0
VERTEX
  5
1F0
  8
8
 10
-2713.297471
 20
-707.43531
 30
0.0
 70
0
  0
VERTEX
  5
1F1
  8
8
 10
-2694.659568
 20
-707.428177
 30
0.0
 70
0
  0
VERTEX
  5
1F2
  8
8
 10
-2677.529139
 20
-707.420374
 30
0.0
 70
0
  0
VERTEX
  5
1F3
  8
8
 10
-2662.035396
 20
-707.412256
 30
0.0
 70
0
  0
VERTEX
  5
1F4
  8
8
 10
-2644.146358
 20
-707.401557
 30
0.0
 70
0
  0
VERTEX
  5
1F5
  8
8
 10
-2629.702977
 20
-707.391772
 30
0.0
 70
0
  0
VERTEX
  5
1F6
  8
8
 10
-2615.168501
 20
-707.380652
 30
0.0
 70
0
  0
VERTEX
  5
1F7
  8
8
 10
-2610.109558
 20
-707.376328
 30
0.0
 70
0
  0
SEQEND
  5
1CA
  8
8
  0
POLYLINE
  5
1F8
  8
8
 66
1
 10
0.0
 20
0.0
 30
0.0
 70
0
  0
VERTEX
  5
1FA
  8
8
 10
-2523.27774
 20
-588.179626
 30
0.0
 70
0
  0
VERTEX
  5
1FB
  8
8
 10
-2542.940063
 20
-841.068115
 30
0.0
 70
0
  0
SEQEND
  5
1F9
  8
8
  0
POLYLINE
  5
1FC
  8
8
 66
1
 10
0.0
 20
0.0
 30
0.0
 70
0
  0
VERTEX
  5
1FE
  8
8
 10
-2922.343445
 20
-582.87941
 30
0.0
 70
0
  0
VERTEX
  5
1FF
  8
8
 10
-2922.343445
 20
-600.093096
 30
0.0
 70
0
  0
VERTEX
  5
200
  8
8
 10
-2922.343445
 20
-616.179643
 30
0.0
 70
0
  0
VERTEX
  5
201
  8
8
 10
-2922.343445
 20
-633.698255
 30
0.0
 70
0
  0
VERTEX
  5
202
  8
8
 10
-2922.343445
 20
-650.943401
 30
0.0
 70
0
  0
VERTEX
  5
203
  8
8
 10
-2922.343445
 20
-666.778523
 30
0.0
 70
0
  0
VERTEX
  5
204
  8
8
 10
-2922.343445
 20
-683.277136
 30
0.0
 70
0
  0
VERTEX
  5
205
  8
8
 10
-2922.343445
 20
-700.14651
 30
0.0
 70
0
  0
VERTEX
  5
206
  8
8
 10
-2922.343445
 20
-715.962012
 30
0.0
 70
0
  0
VERTEX
  5
207
  8
8
 10
-2922.343445
 20
-732.710044
 30
0.0
 70
0
  0
VERTEX
  5
208
  8
8
 10
-2922.343445
 20
-748.951554
 30
0.0
 70
0
  0
VERTEX
  5
209
  8
8
 10
-2922.343445
 20
-764.382647
 30
0.0
 70
0
  0
VERTEX
  5
20A
  8
8
 10
-2922.343445
 20
-780.955826
 30
0.0
 70
0
  0
VERTEX
  5
20B
  8
8
 10
-2922.343445
 20
-797.420267
 30
0.0
 70
0
  0
VERTEX
  5
20C
  8
8
 10
-2922.343445
 20
-811.92437
 30
0.0
 70
0
  0
VERTEX
  5
20D
  8
8
 10
-2922.343445
 20
-824.195404
 30
0.0
 70
0
  0
SEQEND
  5
1FD
  8
8
  0
POLYLINE
  5
20E
  8
8
 66
1
 10
0.0
 20
0.0
 30
0.0
 70
0
  0
VERTEX
  5
210
  8
8
 10
-2604.646606
 20
-527.150993
 30
0.0
 70
0
  0
VERTEX
  5
211
  8
8
 10
-2590.401611
 20
-840.676575
 30
0.0
 70
0
  0
SEQEND
  5
20F
  8
8
  0
POINT
  5
212
  8
4
 10
-2922.871399
 20
-836.884613
 30
0.0
  0
POINT
  5
213
  8
4
 10
-3385.262451
 20
-813.509979
 30
0.0
  0
POINT
  5
214
  8
4
 10
-3384.328308
 20
-592.359619
 30
0.0
  0
POINT
  5
215
  8
4
 10
-2922.952881
 20
-570.194016
 30
0.0
  0
POINT
  5
216
  8
4
 10
-2922.345886
 20
-824.195404
 30
0.0
  0
POINT
  5
217
  8
4
 10
-3385.20874
 20
-800.790634
 30
0.0
  0
POINT
  5
218
  8
4
 10
-3384.382019
 20
-605.076866
 30
0.0
  0
POINT
  5
219
  8
4
 10
-2922.343445
 20
-582.87941
 30
0.0
  0
LINE
  5
21A
  8
7
 10
-3341.298828
 20
-702.162857
 30
0.0
 11
-2446.712189
 21
-702.162857
 31
0.0
  0
ENDSEC
  0
EOF
