  0
SECTION
  2
HEADER
  9
$ACADVER
  1
AC1009
  9
$DWGCODEPAGE
  3
ANSI_1252
  9
$INSBASE
 10
0.0
 20
0.0
 30
0.0
  9
$EXTMIN
 10
1e+20
 20
1e+20
 30
1e+20
  9
$EXTMAX
 10
-1e+20
 20
-1e+20
 30
-1e+20
  9
$LIMMIN
 10
0.0
 20
0.0
  9
$LIMMAX
 10
420.0
 20
297.0
  9
$ORTHOMODE
 70
0
  9
$REGENMODE
 70
1
  9
$FILLMODE
 70
1
  9
$DRAGMODE
 70
2
  9
$QTEXTMODE
 70
0
  9
$MIRRTEXT
 70
1
  9
$OSMODE
 70
20583
  9
$LTSCALE
 40
1.0
  9
$ATTMODE
 70
1
  9
$TEXTSIZE
 40
2.5
  9
$TRACEWID
 40
1.0
  9
$TEXTSTYLE
  7
Standard
  9
$CLAYER
  8
0
  9
$CELTYPE
  6
ByLayer
  9
$CECOLOR
 62
256
  9
$DIMSCALE
 40
1.0
  9
$DIMASZ
 40
2.5
  9
$DIMEXO
 40
0.625
  9
$DIMDLI
 40
3.75
  9
$DIMRND
 40
0.0
  9
$DIMDLE
 40
0.0
  9
$DIMEXE
 40
1.25
  9
$DIMTP
 40
0.0
  9
$DIMTM
 40
0.0
  9
$DIMTXT
 40
2.5
  9
$DIMCEN
 40
2.5
  9
$DIMTSZ
 40
0.0
  9
$DIMTOL
 70
0
  9
$DIMLIM
 70
0
  9
$DIMTIH
 70
0
  9
$DIMTOH
 70
0
  9
$DIMSE1
 70
0
  9
$DIMSE2
 70
0
  9
$DIMTAD
 70
1
  9
$DIMZIN
 70
8
  9
$DIMBLK
  1

  9
$DIMASO
 70
1
  9
$DIMSHO
 70
1
  9
$DIMPOST
  1

  9
$DIMAPOST
  1

  9
$DIMALT
 70
0
  9
$DIMALTD
 70
3
  9
$DIMALTF
 40
0.03937007874
  9
$DIMLFAC
 40
1.0
  9
$DIMTOFL
 70
1
  9
$DIMTVP
 40
0.0
  9
$DIMTIX
 70
0
  9
$DIMSOXD
 70
0
  9
$DIMSAH
 70
0
  9
$DIMBLK1
  1

  9
$DIMBLK2
  1

  9
$DIMSTYLE
  2
ISO-25
  9
$DIMCLRD
 70
0
  9
$DIMCLRE
 70
0
  9
$DIMCLRT
 70
0
  9
$DIMTFAC
 40
1.0
  9
$DIMGAP
 40
0.625
  9
$COORDS
 70
1
  9
$ATTDIA
 70
0
  9
$ATTREQ
 70
1
  9
$HANDLING
 70
1
  9
$LUNITS
 70
2
  9
$LUPREC
 70
4
  9
$SKETCHINC
 40
1.0
  9
$FILLETRAD
 40
10.0
  9
$AUNITS
 70
0
  9
$AUPREC
 70
2
  9
$MENU
  1
.
  9
$ELEVATION
 40
0.0
  9
$PELEVATION
 40
0.0
  9
$THICKNESS
 40
0.0
  9
$LIMCHECK
 70
0
  9
$CHAMFERA
 40
0.0
  9
$CHAMFERB
 40
0.0
  9
$SKPOLY
 70
0
  9
$TDCREATE
 40
2461264.9423032408
  9
$TDUPDATE
 40
2461264.9423032408
  9
$TDINDWG
 40
0.0
  9
$TDUSRTIMER
 40
0.0
  9
$USRTIMER
 70
1
  9
$ANGBASE
 50
0.0
  9
$ANGDIR
 70
0
  9
$PDMODE
 70
0
  9
$PDSIZE
 40
0.0
  9
$PLINEWID
 40
0.0
  9
$SPLFRAME
 70
0
  9
$SPLINETYPE
 70
6
  9
$SPLINESEGS
 70
8
  9
$HANDSEED
  5
210
  9
$SURFTAB1
 70
6
  9
$SURFTAB2
 70
6
  9
$SURFTYPE
 70
6
  9
$SURFU
 70
6
  9
$SURFV
 70
6
  9
$UCSNAME
  2

  9
$UCSORG
 10
0.0
 20
0.0
 30
0.0
  9
$UCSXDIR
 10
1.0
 20
0.0
 30
0.0
  9
$UCSYDIR
 10
0.0
 20
1.0
 30
0.0
  9
$PUCSNAME
  2

  9
$PUCSORG
 10
0.0
 20
0.0
 30
0.0
  9
$PUCSXDIR
 10
1.0
 20
0.0
 30
0.0
  9
$PUCSYDIR
 10
0.0
 20
1.0
 30
0.0
  9
$USERI1
 70
0
  9
$USERI2
 70
0
  9
$USERI3
 70
0
  9
$USERI4
 70
0
  9
$USERI5
 70
0
  9
$USERR1
 40
0.0
  9
$USERR2
 40
0.0
  9
$USERR3
 40
0.0
  9
$USERR4
 40
0.0
  9
$USERR5
 40
0.0
  9
$WORLDVIEW
 70
1
  9
$SHADEDGE
 70
3
  9
$SHADEDIF
 70
70
  9
$TILEMODE
 70
1
  9
$MAXACTVP
 70
64
  9
$PLIMCHECK
 70
0
  9
$PEXTMIN
 10
1e+20
 20
1e+20
 30
1e+20
  9
$PEXTMAX
 10
-1e+20
 20
-1e+20
 30
-1e+20
  9
$PLIMMIN
 10
0.0
 20
0.0
  9
$PLIMMAX
 10
420.0
 20
297.0
  9
$UNITMODE
 70
0
  9
$VISRETAIN
 70
1
  9
$PLINEGEN
 70
0
  9
$PSLTSCALE
 70
1
  0
ENDSEC
  0
SECTION
  2
TABLES
  0
TABLE
  2
VPORT
 70
1
  0
VPORT
  5
23
  2
*Active
 70
0
 10
0.0
 20
0.0
 11
1.0
 21
1.0
 12
0.0
 22
0.0
 13
0.0
 23
0.0
 14
0.5
 24
0.5
 15
0.5
 25
0.5
 16
0.0
 26
0.0
 36
1.0
 17
0.0
 27
0.0
 37
0.0
 40
1000.0
 41
1.34
 42
50.0
 43
0.0
 44
0.0
 50
0.0
 51
0.0
 71
0
 72
1000
 73
1
 74
3
 75
0
 76
0
 77
0
 78
0
  0
ENDTAB
  0
TABLE
  2
LTYPE
 70
3
  0
LTYPE
  5
24
  2
ByBlock
 70
0
  3

 72
65
 73
0
 40
0.0
  0
LTYPE
  5
25
  2
ByLayer
 70
0
  3

 72
65
 73
0
 40
0.0
  0
LTYPE
  5
26
  2
Continuous
 70
0
  3

 72
65
 73
0
 40
0.0
  0
ENDTAB
  0
TABLE
  2
LAYER
 70
7
  0
LAYER
  5
27
  2
0
 70
0
 62
7
  6
Continuous
  0
LAYER
  5
28
  2
Defpoints
 70
0
 62
7
  6
Continuous
  0
LAYER
  5
2D
  2
1
 70
0
 62
1
  6
Continuous
  0
LAYER
  5
2E
  2
7
 70
0
 62
7
  6
Continuous
  0
LAYER
  5
2F
  2
14
 70
0
 62
3
  6
Continuous
  0
LAYER
  5
30
  2
8
 70
0
 62
6
  6
Continuous
  0
LAYER
  5
31
  2
4
 70
0
 62
2
  6
Continuous
  0
ENDTAB
  0
TABLE
  2
STYLE
 70
1
  0
STYLE
  5
29
  2
Standard
 70
0
 40
0.0
 41
1.0
 50
0.0
 71
0
 42
2.5
  3
txt
  4

  0
ENDTAB
  0
TABLE
  2
VIEW
 70
0
  0
ENDTAB
  0
TABLE
  2
UCS
 70
0
  0
ENDTAB
  0
TABLE
  2
APPID
 70
3
  0
APPID
  5
2A
  2
ACAD
 70
0
  0
APPID
  5
20E
  2
HATCHBACKGROUNDCOLOR
 70
0
  0
APPID
  5
20F
  2
EZDXF
 70
0
  0
ENDTAB
  0
TABLE
  2
DIMSTYLE
 70
1
  0
DIMSTYLE
105
2B
  2
Standard
 70
0
  3

  4

  5

  6

  7

 40
1.0
 41
2.5
 42
0.625
 43
3.75
 44
1.25
 45
0.0
 46
0.0
 47
0.0
 48
0.0
140
2.5
141
2.5
142
0.0
143
0.03937007874
144
1.0
145
0.0
146
1.0
147
0.625
 71
0
 72
0
 73
0
 74
0
 75
0
 76
0
 77
1
 78
8
170
0
171
3
172
1
173
0
174
0
175
0
176
0
177
0
178
0
  0
ENDTAB
  0
ENDSEC
  0
SECTION
  2
BLOCKS
  0
BLOCK
  5
18
  8
0
  2
$Model_Space
 70
0
 10
0.0
 20
0.0
 30
0.0
  3
$Model_Space
  1

1001
EZDXF
1000
CREATED_BY_EZDXF
1000
1.4.4 @ 2026-08-11T14:36:55.403575+00:00
1000
WRITTEN_BY_EZDXF
1000
1.4.4 @ 2026-08-11T14:36:55.408575+00:00
  0
ENDBLK
  5
19
  8
0
  0
BLOCK
  5
1C
  8
0
  2
$Paper_Space
 70
0
 10
0.0
 20
0.0
 30
0.0
  3
$Paper_Space
  1

  0
ENDBLK
  5
1D
  8
0
  0
ENDSEC
  0
SECTION
  2
ENTITIES
  0
POLYLINE
  5
32
  8
1
 66
1
 10
0.0
 20
0.0
 30
0.0
 70
1
  0
VERTEX
  5
34
  8
1
 10
-2922.769165
 20
-824.188385
 30
0.0
 70
0
  0
VERTEX
  5
35
  8
1
 10
-2922.770386
 20
-824.188309
 30
0.0
 70
0
  0
VERTEX
  5
36
  8
1
 10
-2927.211041
 20
-824.039507
 30
0.0
 70
0
  0
VERTEX
  5
37
  8
1
 10
-2942.165543
 20
-823.533131
 30
0.0
 70
0
  0
VERTEX
  5
38
  8
1
 10
-2957.504587
 20
-823.003036
 30
0.0
 70
0
  0
VERTEX
  5
39
  8
1
 10
-2972.537521
 20
-822.473269
 30
0.0
 70
0
  0
VERTEX
  5
3A
  8
1
 10
-2987.844505
 20
-821.925769
 30
0.0
 70
0
  0
VERTEX
  5
3B
  8
1
 10
-3002.876757
 20
-821.380619
 30
0.0
 70
0
  0
VERTEX
  5
3C
  8
1
 10
-3018.101167
 20
-820.820496
 30
0.0
 70
0
  0
VERTEX
  5
3D
  8
1
 10
-3033.132839
 20
-820.259362
 30
0.0
 70
0
  0
VERTEX
  5
3E
  8
1
 10
-3048.477805
 20
-819.678168
 30
0.0
 70
0
  0
VERTEX
  5
3F
  8
1
 10
-3063.508937
 20
-819.100479
 30
0.0
 70
0
  0
VERTEX
  5
40
  8
1
 10
-3078.767108
 20
-818.505211
 30
0.0
 70
0
  0
VERTEX
  5
41
  8
1
 10
-3093.797528
 20
-817.909706
 30
0.0
 70
0
  0
VERTEX
  5
42
  8
1
 10
-3108.901761
 20
-817.301684
 30
0.0
 70
0
  0
VERTEX
  5
43
  8
1
 10
-3123.931307
 20
-816.686587
 30
0.0
 70
0
  0
VERTEX
  5
44
  8
1
 10
-3139.497128
 20
-816.038158
 30
0.0
 70
0
  0
VERTEX
  5
45
  8
1
 10
-3154.263956
 20
-815.411555
 30
0.0
 70
0
  0
VERTEX
  5
46
  8
1
 10
-3169.292101
 20
-814.761725
 30
0.0
 70
0
  0
VERTEX
  5
47
  8
1
 10
-3184.694444
 20
-814.082516
 30
0.0
 70
0
  0
VERTEX
  5
48
  8
1
 10
-3199.721542
 20
-813.407677
 30
0.0
 70
0
  0
VERTEX
  5
49
  8
1
 10
-3214.908529
 20
-812.714548
 30
0.0
 70
0
  0
VERTEX
  5
4A
  8
1
 10
-3229.934589
 20
-812.018587
 30
0.0
 70
0
  0
VERTEX
  5
4B
  8
1
 10
-3245.218831
 20
-811.300953
 30
0.0
 70
0
  0
VERTEX
  5
4C
  8
1
 10
-3260.244008
 20
-810.586371
 30
0.0
 70
0
  0
VERTEX
  5
4D
  8
1
 10
-3275.278021
 20
-809.862632
 30
0.0
 70
0
  0
VERTEX
  5
4E
  8
1
 10
-3290.302416
 20
-809.131004
 30
0.0
 70
0
  0
VERTEX
  5
4F
  8
1
 10
-3305.326432
 20
-808.391683
 30
0.0
 70
0
  0
VERTEX
  5
50
  8
1
 10
-3320.719886
 20
-807.626726
 30
0.0
 70
0
  0
VERTEX
  5
51
  8
1
 10
-3335.743073
 20
-806.871795
 30
0.0
 70
0
  0
VERTEX
  5
52
  8
1
 10
-3350.744683
 20
-806.107765
 30
0.0
 70
0
  0
VERTEX
  5
53
  8
1
 10
-3365.766877
 20
-805.333065
 30
0.0
 70
0
  0
VERTEX
  5
54
  8
1
 10
-3380.187683
 20
-804.584579
 30
0.0
 70
0
  0
VERTEX
  5
55
  8
1
 10
-3380.826045
 20
-804.551413
 30
0.0
 70
0
  0
VERTEX
  5
56
  8
1
 10
-3396.279647
 20
-803.748372
 30
0.0
 70
0
  0
VERTEX
  5
57
  8
1
 10
-3411.930542
 20
-802.935028
 30
0.0
 70
0
  0
VERTEX
  5
58
  8
1
 10
-3411.856485
 20
-787.005231
 30
0.0
 70
0
  0
VERTEX
  5
59
  8
1
 10
-3411.786298
 20
-771.908013
 30
0.0
 70
0
  0
VERTEX
  5
5A
  8
1
 10
-3411.71614
 20
-756.810784
 30
0.0
 70
0
  0
VERTEX
  5
5B
  8
1
 10
-3411.646069
 20
-741.721432
 30
0.0
 70
0
  0
VERTEX
  5
5C
  8
1
 10
-3411.575988
 20
-726.624193
 30
0.0
 70
0
  0
VERTEX
  5
5D
  8
1
 10
-3411.504978
 20
-711.330218
 30
0.0
 70
0
  0
VERTEX
  5
5E
  8
1
 10
-3411.434848
 20
-696.233003
 30
0.0
 70
0
  0
VERTEX
  5
5F
  8
1
 10
-3411.363932
 20
-680.97214
 30
0.0
 70
0
  0
VERTEX
  5
60
  8
1
 10
-3411.293768
 20
-665.874912
 30
0.0
 70
0
  0
VERTEX
  5
61
  8
1
 10
-3411.22379
 20
-650.812045
 30
0.0
 70
0
  0
VERTEX
  5
62
  8
1
 10
-3411.153686
 20
-635.714819
 30
0.0
 70
0
  0
VERTEX
  5
63
  8
1
 10
-3411.083573
 20
-620.617599
 30
0.0
 70
0
  0
VERTEX
  5
64
  8
1
 10
-3411.01422
 20
-605.695642
 30
0.0
 70
0
  0
VERTEX
  5
65
  8
1
 10
-3411.000366
 20
-602.716331
 30
0.0
 70
0
  0
VERTEX
  5
66
  8
1
 10
-3395.209163
 20
-601.972218
 30
0.0
 70
0
  0
VERTEX
  5
67
  8
1
 10
-3379.899979
 20
-601.250825
 30
0.0
 70
0
  0
VERTEX
  5
68
  8
1
 10
-3379.243164
 20
-601.219902
 30
0.0
 70
0
  0
VERTEX
  5
69
  8
1
 10
-3364.286878
 20
-600.515122
 30
0.0
 70
0
  0
VERTEX
  5
6A
  8
1
 10
-3349.177412
 20
-599.803153
 30
0.0
 70
0
  0
VERTEX
  5
6B
  8
1
 10
-3333.835138
 20
-599.080211
 30
0.0
 70
0
  0
VERTEX
  5
6C
  8
1
 10
-3318.725687
 20
-598.368238
 30
0.0
 70
0
  0
VERTEX
  5
6D
  8
1
 10
-3303.312144
 20
-597.641936
 30
0.0
 70
0
  0
VERTEX
  5
6E
  8
1
 10
-3288.202675
 20
-596.929966
 30
0.0
 70
0
  0
VERTEX
  5
6F
  8
1
 10
-3273.200278
 20
-596.223045
 30
0.0
 70
0
  0
VERTEX
  5
70
  8
1
 10
-3258.090818
 20
-595.51108
 30
0.0
 70
0
  0
VERTEX
  5
71
  8
1
 10
-3242.94288
 20
-594.797297
 30
0.0
 70
0
  0
VERTEX
  5
72
  8
1
 10
-3227.833457
 20
-594.085321
 30
0.0
 70
0
  0
VERTEX
  5
73
  8
1
 10
-3212.49127
 20
-593.36237
 30
0.0
 70
0
  0
VERTEX
  5
74
  8
1
 10
-3197.381916
 20
-592.650389
 30
0.0
 70
0
  0
VERTEX
  5
75
  8
1
 10
-3182.267123
 20
-591.938161
 30
0.0
 70
0
  0
VERTEX
  5
76
  8
1
 10
-3167.157665
 20
-591.226191
 30
0.0
 70
0
  0
VERTEX
  5
77
  8
1
 10
-3151.672825
 20
-590.496539
 30
0.0
 70
0
  0
VERTEX
  5
78
  8
1
 10
-3136.563413
 20
-589.784574
 30
0.0
 70
0
  0
VERTEX
  5
79
  8
1
 10
-3121.197275
 20
-589.060504
 30
0.0
 70
0
  0
VERTEX
  5
7A
  8
1
 10
-3106.087824
 20
-588.348527
 30
0.0
 70
0
  0
VERTEX
  5
7B
  8
1
 10
-3090.745549
 20
-587.625585
 30
0.0
 70
0
  0
VERTEX
  5
7C
  8
1
 10
-3075.636078
 20
-586.913616
 30
0.0
 70
0
  0
VERTEX
  5
7D
  8
1
 10
-3060.604528
 20
-586.205313
 30
0.0
 70
0
  0
VERTEX
  5
7E
  8
1
 10
-3045.495062
 20
-585.493335
 30
0.0
 70
0
  0
VERTEX
  5
7F
  8
1
 10
-3030.279685
 20
-584.776371
 30
0.0
 70
0
  0
VERTEX
  5
80
  8
1
 10
-3015.170256
 20
-584.064405
 30
0.0
 70
0
  0
VERTEX
  5
81
  8
1
 10
-2999.871526
 20
-583.34352
 30
0.0
 70
0
  0
VERTEX
  5
82
  8
1
 10
-2984.762098
 20
-582.631553
 30
0.0
 70
0
  0
VERTEX
  5
83
  8
1
 10
-2969.480542
 20
-581.91147
 30
0.0
 70
0
  0
VERTEX
  5
84
  8
1
 10
-2954.371115
 20
-581.199492
 30
0.0
 70
0
  0
VERTEX
  5
85
  8
1
 10
-2939.104559
 20
-580.480106
 30
0.0
 70
0
  0
VERTEX
  5
86
  8
1
 10
-2924.26234
 20
-579.780713
 30
0.0
 70
0
  0
VERTEX
  5
87
  8
1
 10
-2922.941284
 20
-579.718475
 30
0.0
 70
0
  0
VERTEX
  5
88
  8
1
 10
-2923.206787
 20
-579.731712
 30
0.0
 70
0
  0
VERTEX
  5
89
  8
1
 10
-2907.572988
 20
-578.335877
 30
0.0
 70
0
  0
VERTEX
  5
8A
  8
1
 10
-2892.252385
 20
-576.893564
 30
0.0
 70
0
  0
VERTEX
  5
8B
  8
1
 10
-2877.274934
 20
-575.388072
 30
0.0
 70
0
  0
VERTEX
  5
8C
  8
1
 10
-2862.306541
 20
-573.793658
 30
0.0
 70
0
  0
VERTEX
  5
8D
  8
1
 10
-2847.136545
 20
-572.099085
 30
0.0
 70
0
  0
VERTEX
  5
8E
  8
1
 10
-2832.185531
 20
-570.350302
 30
0.0
 70
0
  0
VERTEX
  5
8F
  8
1
 10
-2816.973971
 20
-568.486078
 30
0.0
 70
0
  0
VERTEX
  5
90
  8
1
 10
-2802.043563
 20
-566.568627
 30
0.0
 70
0
  0
VERTEX
  5
91
  8
1
 10
-2787.092295
 20
-564.55615
 30
0.0
 70
0
  0
VERTEX
  5
92
  8
1
 10
-2772.187508
 20
-562.448441
 30
0.0
 70
0
  0
VERTEX
  5
93
  8
1
 10
-2757.257592
 20
-560.225389
 30
0.0
 70
0
  0
VERTEX
  5
94
  8
1
 10
-2742.386555
 20
-557.891545
 30
0.0
 70
0
  0
VERTEX
  5
95
  8
1
 10
-2727.275707
 20
-555.392555
 30
0.0
 70
0
  0
VERTEX
  5
96
  8
1
 10
-2712.443907
 20
-552.821271
 30
0.0
 70
0
  0
VERTEX
  5
97
  8
1
 10
-2697.197682
 20
-550.066196
 30
0.0
 70
0
  0
VERTEX
  5
98
  8
1
 10
-2682.401864
 20
-547.295115
 30
0.0
 70
0
  0
VERTEX
  5
99
  8
1
 10
-2667.594307
 20
-544.435615
 30
0.0
 70
0
  0
VERTEX
  5
9A
  8
1
 10
-2652.829922
 20
-541.502268
 30
0.0
 70
0
  0
VERTEX
  5
9B
  8
1
 10
-2638.045184
 20
-538.483438
 30
0.0
 70
0
  0
VERTEX
  5
9C
  8
1
 10
-2623.313903
 20
-535.389602
 30
0.0
 70
0
  0
VERTEX
  5
9D
  8
1
 10
-2608.382371
 20
-532.170345
 30
0.0
 70
0
  0
VERTEX
  5
9E
  8
1
 10
-2600.941772
 20
-530.542946
 30
0.0
 70
0
  0
VERTEX
  5
9F
  8
1
 10
-2596.08226
 20
-537.420702
 30
0.0
 70
0
  0
VERTEX
  5
A0
  8
1
 10
-2592.341454
 20
-542.303221
 30
0.0
 70
0
  0
VERTEX
  5
A1
  8
1
 10
-2589.23683
 20
-545.999481
 30
0.0
 70
0
  0
VERTEX
  5
A2
  8
1
 10
-2586.300603
 20
-549.115713
 30
0.0
 70
0
  0
VERTEX
  5
A3
  8
1
 10
-2583.309038
 20
-551.954263
 30
0.0
 70
0
  0
VERTEX
  5
A4
  8
1
 10
-2580.409691
 20
-554.38406
 30
0.0
 70
0
  0
VERTEX
  5
A5
  8
1
 10
-2577.596896
 20
-556.435742
 30
0.0
 70
0
  0
VERTEX
  5
A6
  8
1
 10
-2574.856865
 20
-558.136046
 30
0.0
 70
0
  0
VERTEX
  5
A7
  8
1
 10
-2571.86176
 20
-559.689902
 30
0.0
 70
0
  0
VERTEX
  5
A8
  8
1
 10
-2568.437077
 20
-561.172382
 30
0.0
 70
0
  0
VERTEX
  5
A9
  8
1
 10
-2564.617717
 20
-562.546634
 30
0.0
 70
0
  0
VERTEX
  5
AA
  8
1
 10
-2560.156538
 20
-563.872595
 30
0.0
 70
0
  0
VERTEX
  5
AB
  8
1
 10
-2554.792556
 20
-565.182068
 30
0.0
 70
0
  0
VERTEX
  5
AC
  8
1
 10
-2548.518399
 20
-566.450602
 30
0.0
 70
0
  0
VERTEX
  5
AD
  8
1
 10
-2541.515377
 20
-567.607747
 30
0.0
 70
0
  0
VERTEX
  5
AE
  8
1
 10
-2533.000794
 20
-568.740285
 30
0.0
 70
0
  0
VERTEX
  5
AF
  8
1
 10
-2522.203979
 20
-569.881287
 30
0.0
 70
0
  0
VERTEX
  5
B0
  8
1
 10
-2506.615837
 20
-571.227296
 30
0.0
 70
0
  0
VERTEX
  5
B1
  8
1
 10
-2491.162242
 20
-572.608438
 30
0.0
 70
0
  0
VERTEX
  5
B2
  8
1
 10
-2476.077231
 20
-574.019111
 30
0.0
 70
0
  0
VERTEX
  5
B3
  8
1
 10
-2460.921259
 20
-575.510551
 30
0.0
 70
0
  0
VERTEX
  5
B4
  8
1
 10
-2445.511675
 20
-577.109464
 30
0.0
 70
0
  0
VERTEX
  5
B5
  8
1
 10
-2430.372361
 20
-578.761447
 30
0.0
 70
0
  0
VERTEX
  5
B6
  8
1
 10
-2415.341559
 20
-580.478184
 30
0.0
 70
0
  0
VERTEX
  5
B7
  8
1
 10
-2400.219344
 20
-582.279825
 30
0.0
 70
0
  0
VERTEX
  5
B8
  8
1
 10
-2384.963339
 20
-584.169499
 30
0.0
 70
0
  0
VERTEX
  5
B9
  8
1
 10
-2369.85629
 20
-586.094254
 30
0.0
 70
0
  0
VERTEX
  5
BA
  8
1
 10
-2354.734986
 20
-588.047212
 30
0.0
 70
0
  0
VERTEX
  5
BB
  8
1
 10
-2350.063477
 20
-588.652496
 30
0.0
 70
0
  0
VERTEX
  5
BC
  8
1
 10
-2350.232958
 20
-604.330347
 30
0.0
 70
0
  0
VERTEX
  5
BD
  8
1
 10
-2350.346692
 20
-619.783126
 30
0.0
 70
0
  0
VERTEX
  5
BE
  8
1
 10
-2350.266333
 20
-635.057307
 30
0.0
 70
0
  0
VERTEX
  5
BF
  8
1
 10
-2349.939008
 20
-649.477276
 30
0.0
 70
0
  0
VERTEX
  5
C0
  8
1
 10
-2349.332586
 20
-664.920129
 30
0.0
 70
0
  0
VERTEX
  5
C1
  8
1
 10
-2348.515494
 20
-679.899083
 30
0.0
 70
0
  0
VERTEX
  5
C2
  8
1
 10
-2347.527832
 20
-694.87654
 30
0.0
 70
0
  0
VERTEX
  5
C3
  8
1
 10
-2347.046204
 20
-701.52153
 30
0.0
 70
0
  0
VERTEX
  5
C4
  8
1
 10
-2360.186042
 20
-703.434203
 30
0.0
 70
0
  0
VERTEX
  5
C5
  8
1
 10
-2365.446904
 20
-704.236722
 30
0.0
 70
0
  0
VERTEX
  5
C6
  8
1
 10
-2370.401078
 20
-705.282431
 30
0.0
 70
0
  0
VERTEX
  5
C7
  8
1
 10
-2375.458871
 20
-706.590868
 30
0.0
 70
0
  0
VERTEX
  5
C8
  8
1
 10
-2380.12879
 20
-708.044606
 30
0.0
 70
0
  0
VERTEX
  5
C9
  8
1
 10
-2384.58281
 20
-709.682712
 30
0.0
 70
0
  0
VERTEX
  5
CA
  8
1
 10
-2388.666331
 20
-711.441714
 30
0.0
 70
0
  0
VERTEX
  5
CB
  8
1
 10
-2392.340766
 20
-713.282502
 30
0.0
 70
0
  0
VERTEX
  5
CC
  8
1
 10
-2395.681898
 20
-715.222758
 30
0.0
 70
0
  0
VERTEX
  5
CD
  8
1
 10
-2398.671113
 20
-717.235704
 30
0.0
 70
0
  0
VERTEX
  5
CE
  8
1
 10
-2401.349961
 20
-719.333803
 30
0.0
 70
0
  0
VERTEX
  5
CF
  8
1
 10
-2403.649628
 20
-721.437189
 30
0.0
 70
0
  0
VERTEX
  5
D0
  8
1
 10
-2405.651777
 20
-723.587863
 30
0.0
 70
0
  0
VERTEX
  5
D1
  8
1
 10
-2407.423685
 20
-725.855927
 30
0.0
 70
0
  0
VERTEX
  5
D2
  8
1
 10
-2408.950165
 20
-728.22408
 30
0.0
 70
0
  0
VERTEX
  5
D3
  8
1
 10
-2410.312467
 20
-730.802092
 30
0.0
 70
0
  0
VERTEX
  5
D4
  8
1
 10
-2411.564849
 20
-733.710452
 30
0.0
 70
0
  0
VERTEX
  5
D5
  8
1
 10
-2412.684583
 20
-736.953782
 30
0.0
 70
0
  0
VERTEX
  5
D6
  8
1
 10
-2413.651739
 20
-740.524157
 30
0.0
 70
0
  0
VERTEX
  5
D7
  8
1
 10
-2414.470839
 20
-744.517061
 30
0.0
 70
0
  0
VERTEX
  5
D8
  8
1
 10
-2415.124538
 20
-748.99099
 30
0.0
 70
0
  0
VERTEX
  5
D9
  8
1
 10
-2415.579871
 20
-753.861808
 30
0.0
 70
0
  0
VERTEX
  5
DA
  8
1
 10
-2415.830714
 20
-759.332211
 30
0.0
 70
0
  0
VERTEX
  5
DB
  8
1
 10
-2415.851096
 20
-765.361363
 30
0.0
 70
0
  0
VERTEX
  5
DC
  8
1
 10
-2415.612568
 20
-772.307944
 30
0.0
 70
0
  0
VERTEX
  5
DD
  8
1
 10
-2415.093307
 20
-780.025891
 30
0.0
 70
0
  0
VERTEX
  5
DE
  8
1
 10
-2414.277822
 20
-788.365126
 30
0.0
 70
0
  0
VERTEX
  5
DF
  8
1
 10
-2413.089728
 20
-797.845133
 30
0.0
 70
0
  0
VERTEX
  5
E0
  8
1
 10
-2411.284993
 20
-809.997705
 30
0.0
 70
0
  0
VERTEX
  5
E1
  8
1
 10
-2408.889726
 20
-824.770919
 30
0.0
 70
0
  0
VERTEX
  5
E2
  8
1
 10
-2408.612366
 20
-826.441498
 30
0.0
 70
0
  0
VERTEX
  5
E3
  8
1
 10
-2422.879886
 20
-828.35724
 30
0.0
 70
0
  0
VERTEX
  5
E4
  8
1
 10
-2437.958649
 20
-830.203325
 30
0.0
 70
0
  0
VERTEX
  5
E5
  8
1
 10
-2452.823128
 20
-831.835901
 30
0.0
 70
0
  0
VERTEX
  5
E6
  8
1
 10
-2467.143743
 20
-833.187481
 30
0.0
 70
0
  0
VERTEX
  5
E7
  8
1
 10
-2481.6205
 20
-834.298168
 30
0.0
 70
0
  0
VERTEX
  5
E8
  8
1
 10
-2496.695343
 20
-835.193985
 30
0.0
 70
0
  0
VERTEX
  5
E9
  8
1
 10
-2512.158246
 20
-835.853778
 30
0.0
 70
0
  0
VERTEX
  5
EA
  8
1
 10
-2527.25179
 20
-836.272054
 30
0.0
 70
0
  0
VERTEX
  5
EB
  8
1
 10
-2542.670479
 20
-836.512583
 30
0.0
 70
0
  0
VERTEX
  5
EC
  8
1
 10
-2557.769436
 20
-836.6015
 30
0.0
 70
0
  0
VERTEX
  5
ED
  8
1
 10
-2573.03804
 20
-836.56487
 30
0.0
 70
0
  0
VERTEX
  5
EE
  8
1
 10
-2588.136433
 20
-836.422524
 30
0.0
 70
0
  0
VERTEX
  5
EF
  8
1
 10
-2603.233806
 20
-836.195238
 30
0.0
 70
0
  0
VERTEX
  5
F0
  8
1
 10
-2618.306389
 20
-835.901829
 30
0.0
 70
0
  0
VERTEX
  5
F1
  8
1
 10
-2633.401294
 20
-835.545132
 30
0.0
 70
0
  0
VERTEX
  5
F2
  8
1
 10
-2648.853392
 20
-835.113923
 30
0.0
 70
0
  0
VERTEX
  5
F3
  8
1
 10
-2663.944785
 20
-834.631958
 30
0.0
 70
0
  0
VERTEX
  5
F4
  8
1
 10
-2679.117758
 20
-834.093268
 30
0.0
 70
0
  0
VERTEX
  5
F5
  8
1
 10
-2694.205672
 20
-833.514293
 30
0.0
 70
0
  0
VERTEX
  5
F6
  8
1
 10
-2709.328813
 20
-832.903854
 30
0.0
 70
0
  0
VERTEX
  5
F7
  8
1
 10
-2724.414918
 20
-832.2776
 30
0.0
 70
0
  0
VERTEX
  5
F8
  8
1
 10
-2739.798699
 20
-831.633752
 30
0.0
 70
0
  0
VERTEX
  5
F9
  8
1
 10
-2754.884643
 20
-831.004822
 30
0.0
 70
0
  0
VERTEX
  5
FA
  8
1
 10
-2770.217361
 20
-830.36885
 30
0.0
 70
0
  0
VERTEX
  5
FB
  8
1
 10
-2785.303497
 20
-829.746309
 30
0.0
 70
0
  0
VERTEX
  5
FC
  8
1
 10
-2800.388884
 20
-829.12664
 30
0.0
 70
0
  0
VERTEX
  5
FD
  8
1
 10
-2815.475343
 20
-828.509484
 30
0.0
 70
0
  0
VERTEX
  5
FE
  8
1
 10
-2830.799221
 20
-827.885148
 30
0.0
 70
0
  0
VERTEX
  5
FF
  8
1
 10
-2845.88582
 20
-827.272879
 30
0.0
 70
0
  0
VERTEX
  5
100
  8
1
 10
-2861.381837
 20
-826.646274
 30
0.0
 70
0
  0
VERTEX
  5
101
  8
1
 10
-2876.468607
 20
-826.03839
 30
0.0
 70
0
  0
VERTEX
  5
102
  8
1
 10
-2891.786238
 20
-825.423845
 30
0.0
 70
0
  0
VERTEX
  5
103
  8
1
 10
-2907.310089
 20
-824.803882
 30
0.0
 70
0
  0
SEQEND
  5
33
  8
1
  0
POLYLINE
  5
104
  8
14
 66
1
 10
0.0
 20
0.0
 30
0.0
 70
1
  0
VERTEX
  5
106
  8
14
 10
-2922.345886
 20
-811.495438
 30
0.0
 70
0
  0
VERTEX
  5
107
  8
14
 10
-2922.345886
 20
-811.495438
 30
0.0
 70
0
  0
VERTEX
  5
108
  8
14
 10
-2928.507616
 20
-811.290017
 30
0.0
 70
0
  0
VERTEX
  5
109
  8
14
 10
-2943.338585
 20
-810.785573
 30
0.0
 70
0
  0
VERTEX
  5
10A
  8
14
 10
-2959.492329
 20
-810.225028
 30
0.0
 70
0
  0
VERTEX
  5
10B
  8
14
 10
-2975.843598
 20
-809.647568
 30
0.0
 70
0
  0
VERTEX
  5
10C
  8
14
 10
-2990.60735
 20
-809.118013
 30
0.0
 70
0
  0
VERTEX
  5
10D
  8
14
 10
-3006.706044
 20
-808.531949
 30
0.0
 70
0
  0
VERTEX
  5
10E
  8
14
 10
-3023.991255
 20
-807.892671
 30
0.0
 70
0
  0
VERTEX
  5
10F
  8
14
 10
-3042.314466
 20
-807.203475
 30
0.0
 70
0
  0
VERTEX
  5
110
  8
14
 10
-3061.527251
 20
-806.467657
 30
0.0
 70
0
  0
VERTEX
  5
111
  8
14
 10
-3076.431308
 20
-805.88718
 30
0.0
 70
0
  0
VERTEX
  5
112
  8
14
 10
-3091.68965
 20
-805.283719
 30
0.0
 70
0
  0
VERTEX
  5
113
  8
14
 10
-3107.239575
 20
-804.658668
 30
0.0
 70
0
  0
VERTEX
  5
114
  8
14
 10
-3123.018489
 20
-804.013415
 30
0.0
 70
0
  0
VERTEX
  5
115
  8
14
 10
-3138.963799
 20
-803.34935
 30
0.0
 70
0
  0
VERTEX
  5
116
  8
14
 10
-3155.012801
 20
-802.667864
 30
0.0
 70
0
  0
VERTEX
  5
117
  8
14
 10
-3170.883395
 20
-801.979981
 30
0.0
 70
0
  0
VERTEX
  5
118
  8
14
 10
-3186.945947
 20
-801.269382
 30
0.0
 70
0
  0
VERTEX
  5
119
  8
14
 10
-3202.901593
 20
-800.550299
 30
0.0
 70
0
  0
VERTEX
  5
11A
  8
14
 10
-3218.669822
 20
-799.82775
 30
0.0
 70
0
  0
VERTEX
  5
11B
  8
14
 10
-3234.170104
 20
-799.106751
 30
0.0
 70
0
  0
VERTEX
  5
11C
  8
14
 10
-3254.281242
 20
-798.1565
 30
0.0
 70
0
  0
VERTEX
  5
11D
  8
14
 10
-3273.58207
 20
-797.229815
 30
0.0
 70
0
  0
VERTEX
  5
11E
  8
14
 10
-3291.881761
 20
-796.338588
 30
0.0
 70
0
  0
VERTEX
  5
11F
  8
14
 10
-3308.989475
 20
-795.494711
 30
0.0
 70
0
  0
VERTEX
  5
120
  8
14
 10
-3328.407168
 20
-794.524564
 30
0.0
 70
0
  0
VERTEX
  5
121
  8
14
 10
-3345.291461
 20
-793.670207
 30
0.0
 70
0
  0
VERTEX
  5
122
  8
14
 10
-3361.683709
 20
-792.830524
 30
0.0
 70
0
  0
VERTEX
  5
123
  8
14
 10
-3380.128784
 20
-791.870499
 30
0.0
 70
0
  0
VERTEX
  5
124
  8
14
 10
-3380.128784
 20
-791.870499
 30
0.0
 70
0
  0
VERTEX
  5
125
  8
14
 10
-3380.040343
 20
-772.828466
 30
0.0
 70
0
  0
VERTEX
  5
126
  8
14
 10
-3379.953523
 20
-754.135318
 30
0.0
 70
0
  0
VERTEX
  5
127
  8
14
 10
-3379.867301
 20
-735.571133
 30
0.0
 70
0
  0
VERTEX
  5
128
  8
14
 10
-3379.792649
 20
-719.498013
 30
0.0
 70
0
  0
VERTEX
  5
129
  8
14
 10
-3379.715576
 20
-702.903604
 30
0.0
 70
0
  0
VERTEX
  5
12A
  8
14
 10
-3379.638503
 20
-686.309195
 30
0.0
 70
0
  0
VERTEX
  5
12B
  8
14
 10
-3379.563851
 20
-670.236078
 30
0.0
 70
0
  0
VERTEX
  5
12C
  8
14
 10
-3379.494042
 20
-655.205551
 30
0.0
 70
0
  0
VERTEX
  5
12D
  8
14
 10
-3379.417278
 20
-638.677663
 30
0.0
 70
0
  0
VERTEX
  5
12E
  8
14
 10
-3379.3468
 20
-623.503239
 30
0.0
 70
0
  0
VERTEX
  5
12F
  8
14
 10
-3379.302368
 20
-613.936768
 30
0.0
 70
0
  0
VERTEX
  5
130
  8
14
 10
-3379.302368
 20
-613.936768
 30
0.0
 70
0
  0
VERTEX
  5
131
  8
14
 10
-3359.667421
 20
-613.011549
 30
0.0
 70
0
  0
VERTEX
  5
132
  8
14
 10
-3337.131854
 20
-611.949651
 30
0.0
 70
0
  0
VERTEX
  5
133
  8
14
 10
-3315.764208
 20
-610.942786
 30
0.0
 70
0
  0
VERTEX
  5
134
  8
14
 10
-3299.706225
 20
-610.186117
 30
0.0
 70
0
  0
VERTEX
  5
135
  8
14
 10
-3282.393168
 20
-609.370309
 30
0.0
 70
0
  0
VERTEX
  5
136
  8
14
 10
-3263.992379
 20
-608.503245
 30
0.0
 70
0
  0
VERTEX
  5
137
  8
14
 10
-3244.671184
 20
-607.592811
 30
0.0
 70
0
  0
VERTEX
  5
138
  8
14
 10
-3224.596961
 20
-606.646893
 30
0.0
 70
0
  0
VERTEX
  5
139
  8
14
 10
-3203.937036
 20
-605.673377
 30
0.0
 70
0
  0
VERTEX
  5
13A
  8
14
 10
-3182.858753
 20
-604.680147
 30
0.0
 70
0
  0
VERTEX
  5
13B
  8
14
 10
-3161.529455
 20
-603.675089
 30
0.0
 70
0
  0
VERTEX
  5
13C
  8
14
 10
-3140.116484
 20
-602.666088
 30
0.0
 70
0
  0
VERTEX
  5
13D
  8
14
 10
-3118.787185
 20
-601.66103
 30
0.0
 70
0
  0
VERTEX
  5
13E
  8
14
 10
-3097.7089
 20
-600.6678
 30
0.0
 70
0
  0
VERTEX
  5
13F
  8
14
 10
-3077.048972
 20
-599.694284
 30
0.0
 70
0
  0
VERTEX
  5
140
  8
14
 10
-3056.974745
 20
-598.748366
 30
0.0
 70
0
  0
VERTEX
  5
141
  8
14
 10
-3037.653562
 20
-597.837932
 30
0.0
 70
0
  0
VERTEX
  5
142
  8
14
 10
-3019.252735
 20
-596.970867
 30
0.0
 70
0
  0
VERTEX
  5
143
  8
14
 10
-3001.939671
 20
-596.155058
 30
0.0
 70
0
  0
VERTEX
  5
144
  8
14
 10
-2985.881682
 20
-595.398389
 30
0.0
 70
0
  0
VERTEX
  5
145
  8
14
 10
-2971.246109
 20
-594.708746
 30
0.0
 70
0
  0
VERTEX
  5
146
  8
14
 10
-2952.325846
 20
-593.817205
 30
0.0
 70
0
  0
VERTEX
  5
147
  8
14
 10
-2937.547326
 20
-593.120826
 30
0.0
 70
0
  0
VERTEX
  5
148
  8
14
 10
-2923.654316
 20
-592.466173
 30
0.0
 70
0
  0
VERTEX
  5
149
  8
14
 10
-2922.343445
 20
-592.404404
 30
0.0
 70
0
  0
VERTEX
  5
14A
  8
14
 10
-2922.343445
 20
-592.404404
 30
0.0
 70
0
  0
VERTEX
  5
14B
  8
14
 10
-2905.514133
 20
-590.919328
 30
0.0
 70
0
  0
VERTEX
  5
14C
  8
14
 10
-2889.723554
 20
-589.407402
 30
0.0
 70
0
  0
VERTEX
  5
14D
  8
14
 10
-2872.511025
 20
-587.654656
 30
0.0
 70
0
  0
VERTEX
  5
14E
  8
14
 10
-2855.618252
 20
-585.833561
 30
0.0
 70
0
  0
VERTEX
  5
14F
  8
14
 10
-2840.26427
 20
-584.091558
 30
0.0
 70
0
  0
VERTEX
  5
150
  8
14
 10
-2823.93693
 20
-582.145802
 30
0.0
 70
0
  0
VERTEX
  5
151
  8
14
 10
-2806.811779
 20
-579.996541
 30
0.0
 70
0
  0
VERTEX
  5
152
  8
14
 10
-2789.064385
 20
-577.644028
 30
0.0
 70
0
  0
VERTEX
  5
153
  8
14
 10
-2770.87026
 20
-575.08851
 30
0.0
 70
0
  0
VERTEX
  5
154
  8
14
 10
-2752.404969
 20
-572.330238
 30
0.0
 70
0
  0
VERTEX
  5
155
  8
14
 10
-2738.94584
 20
-570.203535
 30
0.0
 70
0
  0
VERTEX
  5
156
  8
14
 10
-2720.447492
 20
-567.110714
 30
0.0
 70
0
  0
VERTEX
  5
157
  8
14
 10
-2702.288961
 20
-563.90362
 30
0.0
 70
0
  0
VERTEX
  5
158
  8
14
 10
-2684.778409
 20
-560.670308
 30
0.0
 70
0
  0
VERTEX
  5
159
  8
14
 10
-2668.22393
 20
-557.498818
 30
0.0
 70
0
  0
VERTEX
  5
15A
  8
14
 10
-2652.933735
 20
-554.477214
 30
0.0
 70
0
  0
VERTEX
  5
15B
  8
14
 10
-2636.688157
 20
-551.173101
 30
0.0
 70
0
  0
VERTEX
  5
15C
  8
14
 10
-2621.307133
 20
-547.954323
 30
0.0
 70
0
  0
VERTEX
  5
15D
  8
14
 10
-2607.613929
 20
-545.003272
 30
0.0
 70
0
  0
VERTEX
  5
15E
  8
14
 10
-2604.971313
 20
-544.419937
 30
0.0
 70
0
  0
VERTEX
  5
15F
  8
14
 10
-2602.01742
 20
-548.494121
 30
0.0
 70
0
  0
VERTEX
  5
160
  8
14
 10
-2598.70719
 20
-552.535394
 30
0.0
 70
0
  0
VERTEX
  5
161
  8
14
 10
-2595.140722
 20
-556.427594
 30
0.0
 70
0
  0
VERTEX
  5
162
  8
14
 10
-2591.812905
 20
-559.672
 30
0.0
 70
0
  0
VERTEX
  5
163
  8
14
 10
-2588.104932
 20
-562.868725
 30
0.0
 70
0
  0
VERTEX
  5
164
  8
14
 10
-2584.578907
 20
-565.507869
 30
0.0
 70
0
  0
VERTEX
  5
165
  8
14
 10
-2581.501562
 20
-567.492683
 30
0.0
 70
0
  0
VERTEX
  5
166
  8
14
 10
-2578.141035
 20
-569.340228
 30
0.0
 70
0
  0
VERTEX
  5
167
  8
14
 10
-2574.644762
 20
-570.974225
 30
0.0
 70
0
  0
VERTEX
  5
168
  8
14
 10
-2570.422281
 20
-572.637339
 30
0.0
 70
0
  0
VERTEX
  5
169
  8
14
 10
-2566.077105
 20
-574.068772
 30
0.0
 70
0
  0
VERTEX
  5
16A
  8
14
 10
-2561.003822
 20
-575.461745
 30
0.0
 70
0
  0
VERTEX
  5
16B
  8
14
 10
-2555.219118
 20
-576.775743
 30
0.0
 70
0
  0
VERTEX
  5
16C
  8
14
 10
-2547.942918
 20
-578.14221
 30
0.0
 70
0
  0
VERTEX
  5
16D
  8
14
 10
-2539.968272
 20
-579.378055
 30
0.0
 70
0
  0
VERTEX
  5
16E
  8
14
 10
-2531.056882
 20
-580.498975
 30
0.0
 70
0
  0
VERTEX
  5
16F
  8
14
 10
-2523.147888
 20
-581.272316
 30
0.0
 70
0
  0
VERTEX
  5
170
  8
14
 10
-2506.639616
 20
-582.689612
 30
0.0
 70
0
  0
VERTEX
  5
171
  8
14
 10
-2491.278126
 20
-584.075462
 30
0.0
 70
0
  0
VERTEX
  5
172
  8
14
 10
-2474.619185
 20
-585.647553
 30
0.0
 70
0
  0
VERTEX
  5
173
  8
14
 10
-2458.282391
 20
-587.267824
 30
0.0
 70
0
  0
VERTEX
  5
174
  8
14
 10
-2442.102323
 20
-588.965775
 30
0.0
 70
0
  0
VERTEX
  5
175
  8
14
 10
-2427.222746
 20
-590.617686
 30
0.0
 70
0
  0
VERTEX
  5
176
  8
14
 10
-2411.165988
 20
-592.482625
 30
0.0
 70
0
  0
VERTEX
  5
177
  8
14
 10
-2396.427653
 20
-594.259094
 30
0.0
 70
0
  0
VERTEX
  5
178
  8
14
 10
-2381.106586
 20
-596.165698
 30
0.0
 70
0
  0
VERTEX
  5
179
  8
14
 10
-2366.307099
 20
-598.067072
 30
0.0
 70
0
  0
VERTEX
  5
17A
  8
14
 10
-2362.870789
 20
-598.519745
 30
0.0
 70
0
  0
VERTEX
  5
17B
  8
14
 10
-2363.053842
 20
-614.585775
 30
0.0
 70
0
  0
VERTEX
  5
17C
  8
14
 10
-2363.022893
 20
-630.016513
 30
0.0
 70
0
  0
VERTEX
  5
17D
  8
14
 10
-2362.770526
 20
-645.467567
 30
0.0
 70
0
  0
VERTEX
  5
17E
  8
14
 10
-2362.29208
 20
-659.634519
 30
0.0
 70
0
  0
VERTEX
  5
17F
  8
14
 10
-2361.554734
 20
-674.488293
 30
0.0
 70
0
  0
VERTEX
  5
180
  8
14
 10
-2360.631966
 20
-689.259208
 30
0.0
 70
0
  0
VERTEX
  5
181
  8
14
 10
-2360.148315
 20
-695.740662
 30
0.0
 70
0
  0
VERTEX
  5
182
  8
14
 10
-2365.636152
 20
-696.533599
 30
0.0
 70
0
  0
VERTEX
  5
183
  8
14
 10
-2371.620549
 20
-697.741708
 30
0.0
 70
0
  0
VERTEX
  5
184
  8
14
 10
-2377.431255
 20
-699.229679
 30
0.0
 70
0
  0
VERTEX
  5
185
  8
14
 10
-2383.006373
 20
-700.975176
 30
0.0
 70
0
  0
VERTEX
  5
186
  8
14
 10
-2387.990278
 20
-702.840271
 30
0.0
 70
0
  0
VERTEX
  5
187
  8
14
 10
-2393.030574
 20
-705.078917
 30
0.0
 70
0
  0
VERTEX
  5
188
  8
14
 10
-2397.182948
 20
-707.252342
 30
0.0
 70
0
  0
VERTEX
  5
189
  8
14
 10
-2401.21399
 20
-709.724947
 30
0.0
 70
0
  0
VERTEX
  5
18A
  8
14
 10
-2404.302443
 20
-711.930591
 30
0.0
 70
0
  0
VERTEX
  5
18B
  8
14
 10
-2407.229203
 20
-714.348533
 30
0.0
 70
0
  0
VERTEX
  5
18C
  8
14
 10
-2409.956928
 20
-716.98804
 30
0.0
 70
0
  0
VERTEX
  5
18D
  8
14
 10
-2412.448252
 20
-719.85835
 30
0.0
 70
0
  0
VERTEX
  5
18E
  8
14
 10
-2414.574005
 20
-722.825576
 30
0.0
 70
0
  0
VERTEX
  5
18F
  8
14
 10
-2416.512705
 20
-726.163725
 30
0.0
 70
0
  0
VERTEX
  5
190
  8
14
 10
-2418.172834
 20
-729.720114
 30
0.0
 70
0
  0
VERTEX
  5
191
  8
14
 10
-2419.571615
 20
-733.472055
 30
0.0
 70
0
  0
VERTEX
  5
192
  8
14
 10
-2420.72627
 20
-737.39686
 30
0.0
 70
0
  0
VERTEX
  5
193
  8
14
 10
-2421.654021
 20
-741.471841
 30
0.0
 70
0
  0
VERTEX
  5
194
  8
14
 10
-2422.520863
 20
-746.742186
 30
0.0
 70
0
  0
VERTEX
  5
195
  8
14
 10
-2423.093714
 20
-752.167417
 30
0.0
 70
0
  0
VERTEX
  5
196
  8
14
 10
-2423.40621
 20
-757.703222
 30
0.0
 70
0
  0
VERTEX
  5
197
  8
14
 10
-2423.4849
 20
-764.42975
 30
0.0
 70
0
  0
VERTEX
  5
198
  8
14
 10
-2423.295242
 20
-771.175121
 30
0.0
 70
0
  0
VERTEX
  5
199
  8
14
 10
-2422.812356
 20
-778.966389
 30
0.0
 70
0
  0
VERTEX
  5
19A
  8
14
 10
-2421.992936
 20
-787.916721
 30
0.0
 70
0
  0
VERTEX
  5
19B
  8
14
 10
-2420.825995
 20
-797.799054
 30
0.0
 70
0
  0
VERTEX
  5
19C
  8
14
 10
-2419.353587
 20
-808.085782
 30
0.0
 70
0
  0
VERTEX
  5
19D
  8
14
 10
-2418.218231
 20
-814.911041
 30
0.0
 70
0
  0
VERTEX
  5
19E
  8
14
 10
-2431.511369
 20
-816.631339
 30
0.0
 70
0
  0
VERTEX
  5
19F
  8
14
 10
-2447.20137
 20
-818.459398
 30
0.0
 70
0
  0
VERTEX
  5
1A0
  8
14
 10
-2462.644415
 20
-820.036338
 30
0.0
 70
0
  0
VERTEX
  5
1A1
  8
14
 10
-2476.203573
 20
-821.191731
 30
0.0
 70
0
  0
VERTEX
  5
1A2
  8
14
 10
-2490.81193
 20
-822.165554
 30
0.0
 70
0
  0
VERTEX
  5
1A3
  8
14
 10
-2507.064484
 20
-822.954033
 30
0.0
 70
0
  0
VERTEX
  5
1A4
  8
14
 10
-2523.331489
 20
-823.476318
 30
0.0
 70
0
  0
VERTEX
  5
1A5
  8
14
 10
-2539.604817
 20
-823.776681
 30
0.0
 70
0
  0
VERTEX
  5
1A6
  8
14
 10
-2555.944507
 20
-823.89792
 30
0.0
 70
0
  0
VERTEX
  5
1A7
  8
14
 10
-2572.214025
 20
-823.86957
 30
0.0
 70
0
  0
VERTEX
  5
1A8
  8
14
 10
-2588.481479
 20
-823.717461
 30
0.0
 70
0
  0
VERTEX
  5
1A9
  8
14
 10
-2604.7476
 20
-823.466557
 30
0.0
 70
0
  0
VERTEX
  5
1AA
  8
14
 10
-2620.860426
 20
-823.142084
 30
0.0
 70
0
  0
VERTEX
  5
1AB
  8
14
 10
-2637.124574
 20
-822.742729
 30
0.0
 70
0
  0
VERTEX
  5
1AC
  8
14
 10
-2652.46261
 20
-822.299145
 30
0.0
 70
0
  0
VERTEX
  5
1AD
  8
14
 10
-2668.722524
 20
-821.760059
 30
0.0
 70
0
  0
VERTEX
  5
1AE
  8
14
 10
-2684.980372
 20
-821.162973
 30
0.0
 70
0
  0
VERTEX
  5
1AF
  8
14
 10
-2701.236688
 20
-820.523095
 30
0.0
 70
0
  0
VERTEX
  5
1B0
  8
14
 10
-2717.492008
 20
-819.855634
 30
0.0
 70
0
  0
VERTEX
  5
1B1
  8
14
 10
-2733.746869
 20
-819.175799
 30
0.0
 70
0
  0
VERTEX
  5
1B2
  8
14
 10
-2749.232733
 20
-818.528918
 30
0.0
 70
0
  0
VERTEX
  5
1B3
  8
14
 10
-2765.383146
 20
-817.858114
 30
0.0
 70
0
  0
VERTEX
  5
1B4
  8
14
 10
-2781.331251
 20
-817.199204
 30
0.0
 70
0
  0
VERTEX
  5
1B5
  8
14
 10
-2796.967806
 20
-816.556257
 30
0.0
 70
0
  0
VERTEX
  5
1B6
  8
14
 10
-2812.183621
 20
-815.93334
 30
0.0
 70
0
  0
VERTEX
  5
1B7
  8
14
 10
-2828.30469
 20
-815.27612
 30
0.0
 70
0
  0
VERTEX
  5
1B8
  8
14
 10
-2843.639083
 20
-814.653474
 30
0.0
 70
0
  0
VERTEX
  5
1B9
  8
14
 10
-2859.299518
 20
-814.020015
 30
0.0
 70
0
  0
VERTEX
  5
1BA
  8
14
 10
-2874.794379
 20
-813.395621
 30
0.0
 70
0
  0
VERTEX
  5
1BB
  8
14
 10
-2890.466747
 20
-812.766492
 30
0.0
 70
0
  0
VERTEX
  5
1BC
  8
14
 10
-2906.372191
 20
-812.130644
 30
0.0
 70
0
  0
SEQEND
  5
105
  8
14
  0
POLYLINE
  5
1BD
  8
8
 66
1
 10
0.0
 20
0.0
 30
0.0
 70
0
  0
VERTEX
  5
1BF
  8
8
 10
-3369.555664
 20
-706.611252
 30
0.0
 70
0
  0
VERTEX
  5
1C0
  8
8
 10
-3351.573189
 20
-706.66167
 30
0.0
 70
0
  0
VERTEX
  5
1C1
  8
8
 10
-3334.42039
 20
-706.707716
 30
0.0
 70
0
  0
VERTEX
  5
1C2
  8
8
 10
-3317.106214
 20
-706.752688
 30
0.0
 70
0
  0
VERTEX
  5
1C3
  8
8
 10
-3296.874021
 20
-706.803531
 30
0.0
 70
0
  0
VERTEX
  5
1C4
  8
8
 10
-3279.937519
 20
-706.844761
 30
0.0
 70
0
  0
VERTEX
  5
1C5
  8
8
 10
-3261.609333
 20
-706.888059
 30
0.0
 70
0
  0
VERTEX
  5
1C6
  8
8
 10
-3241.996478
 20
-706.932896
 30
0.0
 70
0
  0
VERTEX
  5
1C7
  8
8
 10
-3221.205953
 20
-706.97874
 30
0.0
 70
0
  0
VERTEX
  5
1C8
  8
8
 10
-3199.344805
 20
-707.025065
 30
0.0
 70
0
  0
VERTEX
  5
1C9
  8
8
 10
-3176.520034
 20
-707.071339
 30
0.0
 70
0
  0
VERTEX
  5
1CA
  8
8
 10
-3160.821022
 20
-707.1019
 30
0.0
 70
0
  0
VERTEX
  5
1CB
  8
8
 10
-3144.773003
 20
-707.132046
 30
0.0
 70
0
  0
VERTEX
  5
1CC
  8
8
 10
-3128.407687
 20
-707.161621
 30
0.0
 70
0
  0
VERTEX
  5
1CD
  8
8
 10
-3111.756781
 20
-707.190468
 30
0.0
 70
0
  0
VERTEX
  5
1CE
  8
8
 10
-3094.851995
 20
-707.21843
 30
0.0
 70
0
  0
VERTEX
  5
1CF
  8
8
 10
-3077.725035
 20
-707.24535
 30
0.0
 70
0
  0
VERTEX
  5
1D0
  8
8
 10
-3060.407611
 20
-707.271072
 30
0.0
 70
0
  0
VERTEX
  5
1D1
  8
8
 10
-3042.931431
 20
-707.295439
 30
0.0
 70
0
  0
VERTEX
  5
1D2
  8
8
 10
-3025.328204
 20
-707.318294
 30
0.0
 70
0
  0
VERTEX
  5
1D3
  8
8
 10
-3007.629636
 20
-707.339479
 30
0.0
 70
0
  0
VERTEX
  5
1D4
  8
8
 10
-2989.867437
 20
-707.358839
 30
0.0
 70
0
  0
VERTEX
  5
1D5
  8
8
 10
-2972.073316
 20
-707.376215
 30
0.0
 70
0
  0
VERTEX
  5
1D6
  8
8
 10
-2954.160895
 20
-707.391591
 30
0.0
 70
0
  0
VERTEX
  5
1D7
  8
8
 10
-2936.406044
 20
-707.404822
 30
0.0
 70
0
  0
VERTEX
  5
1D8
  8
8
 10
-2918.72776
 20
-707.416122
 30
0.0
 70
0
  0
VERTEX
  5
1D9
  8
8
 10
-2901.16433
 20
-707.425598
 30
0.0
 70
0
  0
VERTEX
  5
1DA
  8
8
 10
-2883.754038
 20
-707.433355
 30
0.0
 70
0
  0
VERTEX
  5
1DB
  8
8
 10
-2866.53517
 20
-707.439497
 30
0.0
 70
0
  0
VERTEX
  5
1DC
  8
8
 10
-2849.546011
 20
-707.444131
 30
0.0
 70
0
  0
VERTEX
  5
1DD
  8
8
 10
-2832.824846
 20
-707.447361
 30
0.0
 70
0
  0
VERTEX
  5
1DE
  8
8
 10
-2816.40996
 20
-707.449293
 30
0.0
 70
0
  0
VERTEX
  5
1DF
  8
8
 10
-2800.339638
 20
-707.450032
 30
0.0
 70
0
  0
VERTEX
  5
1E0
  8
8
 10
-2784.652166
 20
-707.449683
 30
0.0
 70
0
  0
VERTEX
  5
1E1
  8
8
 10
-2769.385828
 20
-707.448352
 30
0.0
 70
0
  0
VERTEX
  5
1E2
  8
8
 10
-2754.57891
 20
-707.446144
 30
0.0
 70
0
  0
VERTEX
  5
1E3
  8
8
 10
-2733.313635
 20
-707.441418
 30
0.0
 70
0
  0
VERTEX
  5
1E4
  8
8
 10
-2713.297471
 20
-707.43531
 30
0.0
 70
0
  0
VERTEX
  5
1E5
  8
8
 10
-2694.659568
 20
-707.428177
 30
0.0
 70
0
  0
VERTEX
  5
1E6
  8
8
 10
-2677.529139
 20
-707.420374
 30
0.0
 70
0
  0
VERTEX
  5
1E7
  8
8
 10
-2662.035396
 20
-707.412256
 30
0.0
 70
0
  0
VERTEX
  5
1E8
  8
8
 10
-2644.146358
 20
-707.401557
 30
0.0
 70
0
  0
VERTEX
  5
1E9
  8
8
 10
-2629.702977
 20
-707.391772
 30
0.0
 70
0
  0
VERTEX
  5
1EA
  8
8
 10
-2615.168501
 20
-707.380652
 30
0.0
 70
0
  0
VERTEX
  5
1EB
  8
8
 10
-2610.109558
 20
-707.376328
 30
0.0
 70
0
  0
SEQEND
  5
1BE
  8
8
  0
POLYLINE
  5
1EC
  8
8
 66
1
 10
0.0
 20
0.0
 30
0.0
 70
0
  0
VERTEX
  5
1EE
  8
8
 10
-2523.27774
 20
-588.179626
 30
0.0
 70
0
  0
VERTEX
  5
1EF
  8
8
 10
-2543.042297
 20
-823.796463
 30
0.0
 70
0
  0
SEQEND
  5
1ED
  8
8
  0
POLYLINE
  5
1F0
  8
8
 66
1
 10
0.0
 20
0.0
 30
0.0
 70
0
  0
VERTEX
  5
1F2
  8
8
 10
-2922.343445
 20
-592.404404
 30
0.0
 70
0
  0
VERTEX
  5
1F3
  8
8
 10
-2922.343445
 20
-609.457304
 30
0.0
 70
0
  0
VERTEX
  5
1F4
  8
8
 10
-2922.343445
 20
-626.383157
 30
0.0
 70
0
  0
VERTEX
  5
1F5
  8
8
 10
-2922.343445
 20
-642.871059
 30
0.0
 70
0
  0
VERTEX
  5
1F6
  8
8
 10
-2922.343445
 20
-658.908632
 30
0.0
 70
0
  0
VERTEX
  5
1F7
  8
8
 10
-2922.343445
 20
-676.007323
 30
0.0
 70
0
  0
VERTEX
  5
1F8
  8
8
 10
-2922.343445
 20
-691.187953
 30
0.0
 70
0
  0
VERTEX
  5
1F9
  8
8
 10
-2922.343445
 20
-708.107161
 30
0.0
 70
0
  0
VERTEX
  5
1FA
  8
8
 10
-2922.343445
 20
-723.404692
 30
0.0
 70
0
  0
VERTEX
  5
1FB
  8
8
 10
-2922.343445
 20
-738.334328
 30
0.0
 70
0
  0
VERTEX
  5
1FC
  8
8
 10
-2922.343445
 20
-754.919138
 30
0.0
 70
0
  0
VERTEX
  5
1FD
  8
8
 10
-2922.343445
 20
-770.189502
 30
0.0
 70
0
  0
VERTEX
  5
1FE
  8
8
 10
-2922.343445
 20
-785.469725
 30
0.0
 70
0
  0
VERTEX
  5
1FF
  8
8
 10
-2922.343445
 20
-800.354533
 30
0.0
 70
0
  0
VERTEX
  5
200
  8
8
 10
-2922.343445
 20
-811.495438
 30
0.0
 70
0
  0
SEQEND
  5
1F1
  8
8
  0
POLYLINE
  5
201
  8
8
 66
1
 10
0.0
 20
0.0
 30
0.0
 70
0
  0
VERTEX
  5
203
  8
8
 10
-2604.971313
 20
-544.419937
 30
0.0
 70
0
  0
VERTEX
  5
204
  8
8
 10
-2606.378784
 20
-823.404846
 30
0.0
 70
0
  0
SEQEND
  5
202
  8
8
  0
POINT
  5
205
  8
4
 10
-2922.770386
 20
-824.188309
 30
0.0
  0
POINT
  5
206
  8
4
 10
-3380.187683
 20
-804.584579
 30
0.0
  0
POINT
  5
207
  8
4
 10
-3379.243164
 20
-601.219902
 30
0.0
  0
POINT
  5
208
  8
4
 10
-2922.941284
 20
-579.718475
 30
0.0
  0
POINT
  5
209
  8
4
 10
-2922.345886
 20
-811.495438
 30
0.0
  0
POINT
  5
20A
  8
4
 10
-3380.128784
 20
-791.870499
 30
0.0
  0
POINT
  5
20B
  8
4
 10
-3379.302368
 20
-613.936768
 30
0.0
  0
POINT
  5
20C
  8
4
 10
-2922.343445
 20
-592.404404
 30
0.0
  0
LINE
  5
20D
  8
7
 10
-3341.298828
 20
-702.162857
 30
0.0
 11
-2446.712189
 21
-702.162857
 31
0.0
  0
ENDSEC
  0
EOF
