  0
SECTION
  2
HEADER
  9
$ACADVER
  1
AC1009
  9
$DWGCODEPAGE
  3
ANSI_1252
  9
$INSBASE
 10
0.0
 20
0.0
 30
0.0
  9
$EXTMIN
 10
1e+20
 20
1e+20
 30
1e+20
  9
$EXTMAX
 10
-1e+20
 20
-1e+20
 30
-1e+20
  9
$LIMMIN
 10
0.0
 20
0.0
  9
$LIMMAX
 10
420.0
 20
297.0
  9
$ORTHOMODE
 70
0
  9
$REGENMODE
 70
1
  9
$FILLMODE
 70
1
  9
$DRAGMODE
 70
2
  9
$QTEXTMODE
 70
0
  9
$MIRRTEXT
 70
1
  9
$OSMODE
 70
20583
  9
$LTSCALE
 40
1.0
  9
$ATTMODE
 70
1
  9
$TEXTSIZE
 40
2.5
  9
$TRACEWID
 40
1.0
  9
$TEXTSTYLE
  7
Standard
  9
$CLAYER
  8
0
  9
$CELTYPE
  6
ByLayer
  9
$CECOLOR
 62
256
  9
$DIMSCALE
 40
1.0
  9
$DIMASZ
 40
2.5
  9
$DIMEXO
 40
0.625
  9
$DIMDLI
 40
3.75
  9
$DIMRND
 40
0.0
  9
$DIMDLE
 40
0.0
  9
$DIMEXE
 40
1.25
  9
$DIMTP
 40
0.0
  9
$DIMTM
 40
0.0
  9
$DIMTXT
 40
2.5
  9
$DIMCEN
 40
2.5
  9
$DIMTSZ
 40
0.0
  9
$DIMTOL
 70
0
  9
$DIMLIM
 70
0
  9
$DIMTIH
 70
0
  9
$DIMTOH
 70
0
  9
$DIMSE1
 70
0
  9
$DIMSE2
 70
0
  9
$DIMTAD
 70
1
  9
$DIMZIN
 70
8
  9
$DIMBLK
  1

  9
$DIMASO
 70
1
  9
$DIMSHO
 70
1
  9
$DIMPOST
  1

  9
$DIMAPOST
  1

  9
$DIMALT
 70
0
  9
$DIMALTD
 70
3
  9
$DIMALTF
 40
0.03937007874
  9
$DIMLFAC
 40
1.0
  9
$DIMTOFL
 70
1
  9
$DIMTVP
 40
0.0
  9
$DIMTIX
 70
0
  9
$DIMSOXD
 70
0
  9
$DIMSAH
 70
0
  9
$DIMBLK1
  1

  9
$DIMBLK2
  1

  9
$DIMSTYLE
  2
ISO-25
  9
$DIMCLRD
 70
0
  9
$DIMCLRE
 70
0
  9
$DIMCLRT
 70
0
  9
$DIMTFAC
 40
1.0
  9
$DIMGAP
 40
0.625
  9
$COORDS
 70
1
  9
$ATTDIA
 70
0
  9
$ATTREQ
 70
1
  9
$HANDLING
 70
1
  9
$LUNITS
 70
2
  9
$LUPREC
 70
4
  9
$SKETCHINC
 40
1.0
  9
$FILLETRAD
 40
10.0
  9
$AUNITS
 70
0
  9
$AUPREC
 70
2
  9
$MENU
  1
.
  9
$ELEVATION
 40
0.0
  9
$PELEVATION
 40
0.0
  9
$THICKNESS
 40
0.0
  9
$LIMCHECK
 70
0
  9
$CHAMFERA
 40
0.0
  9
$CHAMFERB
 40
0.0
  9
$SKPOLY
 70
0
  9
$TDCREATE
 40
2461259.4353935183
  9
$TDUPDATE
 40
2461259.4353935183
  9
$TDINDWG
 40
0.0
  9
$TDUSRTIMER
 40
0.0
  9
$USRTIMER
 70
1
  9
$ANGBASE
 50
0.0
  9
$ANGDIR
 70
0
  9
$PDMODE
 70
0
  9
$PDSIZE
 40
0.0
  9
$PLINEWID
 40
0.0
  9
$SPLFRAME
 70
0
  9
$SPLINETYPE
 70
6
  9
$SPLINESEGS
 70
8
  9
$HANDSEED
  5
107
  9
$SURFTAB1
 70
6
  9
$SURFTAB2
 70
6
  9
$SURFTYPE
 70
6
  9
$SURFU
 70
6
  9
$SURFV
 70
6
  9
$UCSNAME
  2

  9
$UCSORG
 10
0.0
 20
0.0
 30
0.0
  9
$UCSXDIR
 10
1.0
 20
0.0
 30
0.0
  9
$UCSYDIR
 10
0.0
 20
1.0
 30
0.0
  9
$PUCSNAME
  2

  9
$PUCSORG
 10
0.0
 20
0.0
 30
0.0
  9
$PUCSXDIR
 10
1.0
 20
0.0
 30
0.0
  9
$PUCSYDIR
 10
0.0
 20
1.0
 30
0.0
  9
$USERI1
 70
0
  9
$USERI2
 70
0
  9
$USERI3
 70
0
  9
$USERI4
 70
0
  9
$USERI5
 70
0
  9
$USERR1
 40
0.0
  9
$USERR2
 40
0.0
  9
$USERR3
 40
0.0
  9
$USERR4
 40
0.0
  9
$USERR5
 40
0.0
  9
$WORLDVIEW
 70
1
  9
$SHADEDGE
 70
3
  9
$SHADEDIF
 70
70
  9
$TILEMODE
 70
1
  9
$MAXACTVP
 70
64
  9
$PLIMCHECK
 70
0
  9
$PEXTMIN
 10
1e+20
 20
1e+20
 30
1e+20
  9
$PEXTMAX
 10
-1e+20
 20
-1e+20
 30
-1e+20
  9
$PLIMMIN
 10
0.0
 20
0.0
  9
$PLIMMAX
 10
420.0
 20
297.0
  9
$UNITMODE
 70
0
  9
$VISRETAIN
 70
1
  9
$PLINEGEN
 70
0
  9
$PSLTSCALE
 70
1
  0
ENDSEC
  0
SECTION
  2
TABLES
  0
TABLE
  2
VPORT
 70
1
  0
VPORT
  5
23
  2
*Active
 70
0
 10
0.0
 20
0.0
 11
1.0
 21
1.0
 12
0.0
 22
0.0
 13
0.0
 23
0.0
 14
0.5
 24
0.5
 15
0.5
 25
0.5
 16
0.0
 26
0.0
 36
1.0
 17
0.0
 27
0.0
 37
0.0
 40
1000.0
 41
1.34
 42
50.0
 43
0.0
 44
0.0
 50
0.0
 51
0.0
 71
0
 72
1000
 73
1
 74
3
 75
0
 76
0
 77
0
 78
0
  0
ENDTAB
  0
TABLE
  2
LTYPE
 70
3
  0
LTYPE
  5
24
  2
ByBlock
 70
0
  3

 72
65
 73
0
 40
0.0
  0
LTYPE
  5
25
  2
ByLayer
 70
0
  3

 72
65
 73
0
 40
0.0
  0
LTYPE
  5
26
  2
Continuous
 70
0
  3

 72
65
 73
0
 40
0.0
  0
ENDTAB
  0
TABLE
  2
LAYER
 70
4
  0
LAYER
  5
27
  2
0
 70
0
 62
7
  6
Continuous
  0
LAYER
  5
28
  2
Defpoints
 70
0
 62
7
  6
Continuous
  0
LAYER
  5
2D
  2
1
 70
0
 62
1
  6
Continuous
  0
LAYER
  5
2E
  2
7
 70
0
 62
7
  6
Continuous
  0
ENDTAB
  0
TABLE
  2
STYLE
 70
1
  0
STYLE
  5
29
  2
Standard
 70
0
 40
0.0
 41
1.0
 50
0.0
 71
0
 42
2.5
  3
txt
  4

  0
ENDTAB
  0
TABLE
  2
VIEW
 70
0
  0
ENDTAB
  0
TABLE
  2
UCS
 70
0
  0
ENDTAB
  0
TABLE
  2
APPID
 70
3
  0
APPID
  5
2A
  2
ACAD
 70
0
  0
APPID
  5
105
  2
HATCHBACKGROUNDCOLOR
 70
0
  0
APPID
  5
106
  2
EZDXF
 70
0
  0
ENDTAB
  0
TABLE
  2
DIMSTYLE
 70
1
  0
DIMSTYLE
105
2B
  2
Standard
 70
0
  3

  4

  5

  6

  7

 40
1.0
 41
2.5
 42
0.625
 43
3.75
 44
1.25
 45
0.0
 46
0.0
 47
0.0
 48
0.0
140
2.5
141
2.5
142
0.0
143
0.03937007874
144
1.0
145
0.0
146
1.0
147
0.625
 71
0
 72
0
 73
0
 74
0
 75
0
 76
0
 77
1
 78
8
170
0
171
3
172
1
173
0
174
0
175
0
176
0
177
0
178
0
  0
ENDTAB
  0
ENDSEC
  0
SECTION
  2
BLOCKS
  0
BLOCK
  5
18
  8
0
  2
$Model_Space
 70
0
 10
0.0
 20
0.0
 30
0.0
  3
$Model_Space
  1

1001
EZDXF
1000
CREATED_BY_EZDXF
1000
1.4.4 @ 2026-08-06T02:26:58.065009+00:00
1000
WRITTEN_BY_EZDXF
1000
1.4.4 @ 2026-08-06T02:26:58.067009+00:00
  0
ENDBLK
  5
19
  8
0
  0
BLOCK
  5
1C
  8
0
  2
$Paper_Space
 70
0
 10
0.0
 20
0.0
 30
0.0
  3
$Paper_Space
  1

  0
ENDBLK
  5
1D
  8
0
  0
ENDSEC
  0
SECTION
  2
ENTITIES
  0
POLYLINE
  5
2F
  8
1
 66
1
 10
0.0
 20
0.0
 30
0.0
 70
1
  0
VERTEX
  5
31
  8
1
 10
-2922.859192
 20
-829.265213
 30
0.0
 70
0
  0
VERTEX
  5
32
  8
1
 10
-2922.802734
 20
-829.267197
 30
0.0
 70
0
  0
VERTEX
  5
33
  8
1
 10
-2936.788676
 20
-828.763825
 30
0.0
 70
0
  0
VERTEX
  5
34
  8
1
 10
-2951.759794
 20
-828.218098
 30
0.0
 70
0
  0
VERTEX
  5
35
  8
1
 10
-2966.794687
 20
-827.661239
 30
0.0
 70
0
  0
VERTEX
  5
36
  8
1
 10
-2981.915852
 20
-827.090929
 30
0.0
 70
0
  0
VERTEX
  5
37
  8
1
 10
-2997.012198
 20
-826.513366
 30
0.0
 70
0
  0
VERTEX
  5
38
  8
1
 10
-3012.13288
 20
-825.927859
 30
0.0
 70
0
  0
VERTEX
  5
39
  8
1
 10
-3027.445797
 20
-825.327143
 30
0.0
 70
0
  0
VERTEX
  5
3A
  8
1
 10
-3042.565795
 20
-824.725837
 30
0.0
 70
0
  0
VERTEX
  5
3B
  8
1
 10
-3058.04569
 20
-824.101752
 30
0.0
 70
0
  0
VERTEX
  5
3C
  8
1
 10
-3073.165062
 20
-823.483763
 30
0.0
 70
0
  0
VERTEX
  5
3D
  8
1
 10
-3088.299144
 20
-822.856414
 30
0.0
 70
0
  0
VERTEX
  5
3E
  8
1
 10
-3103.4178
 20
-822.220534
 30
0.0
 70
0
  0
VERTEX
  5
3F
  8
1
 10
-3118.768875
 20
-821.565085
 30
0.0
 70
0
  0
VERTEX
  5
40
  8
1
 10
-3133.886648
 20
-820.909375
 30
0.0
 70
0
  0
VERTEX
  5
41
  8
1
 10
-3149.236801
 20
-820.232285
 30
0.0
 70
0
  0
VERTEX
  5
42
  8
1
 10
-3164.35352
 20
-819.55358
 30
0.0
 70
0
  0
VERTEX
  5
43
  8
1
 10
-3179.626886
 20
-818.855399
 30
0.0
 70
0
  0
VERTEX
  5
44
  8
1
 10
-3194.742558
 20
-818.152073
 30
0.0
 70
0
  0
VERTEX
  5
45
  8
1
 10
-3210.101752
 20
-817.425553
 30
0.0
 70
0
  0
VERTEX
  5
46
  8
1
 10
-3225.216305
 20
-816.699758
 30
0.0
 70
0
  0
VERTEX
  5
47
  8
1
 10
-3240.428271
 20
-815.959306
 30
0.0
 70
0
  0
VERTEX
  5
48
  8
1
 10
-3255.541905
 20
-815.214426
 30
0.0
 70
0
  0
VERTEX
  5
49
  8
1
 10
-3270.524627
 20
-814.467204
 30
0.0
 70
0
  0
VERTEX
  5
4A
  8
1
 10
-3285.637419
 20
-813.704934
 30
0.0
 70
0
  0
VERTEX
  5
4B
  8
1
 10
-3300.759703
 20
-812.934152
 30
0.0
 70
0
  0
VERTEX
  5
4C
  8
1
 10
-3315.871662
 20
-812.156316
 30
0.0
 70
0
  0
VERTEX
  5
4D
  8
1
 10
-3330.894789
 20
-811.375464
 30
0.0
 70
0
  0
VERTEX
  5
4E
  8
1
 10
-3346.005888
 20
-810.581963
 30
0.0
 70
0
  0
VERTEX
  5
4F
  8
1
 10
-3361.024156
 20
-809.783972
 30
0.0
 70
0
  0
VERTEX
  5
50
  8
1
 10
-3376.134257
 20
-808.971415
 30
0.0
 70
0
  0
VERTEX
  5
51
  8
1
 10
-3390.345154
 20
-808.202209
 30
0.0
 70
0
  0
VERTEX
  5
52
  8
1
 10
-3391.244103
 20
-808.153569
 30
0.0
 70
0
  0
VERTEX
  5
53
  8
1
 10
-3406.646874
 20
-807.319108
 30
0.0
 70
0
  0
VERTEX
  5
54
  8
1
 10
-3422.088013
 20
-806.482697
 30
0.0
 70
0
  0
VERTEX
  5
55
  8
1
 10
-3422.018578
 20
-790.95769
 30
0.0
 70
0
  0
VERTEX
  5
56
  8
1
 10
-3421.951048
 20
-775.846113
 30
0.0
 70
0
  0
VERTEX
  5
57
  8
1
 10
-3421.883568
 20
-760.734533
 30
0.0
 70
0
  0
VERTEX
  5
58
  8
1
 10
-3421.815709
 20
-745.529607
 30
0.0
 70
0
  0
VERTEX
  5
59
  8
1
 10
-3421.748273
 20
-730.418035
 30
0.0
 70
0
  0
VERTEX
  5
5A
  8
1
 10
-3421.679748
 20
-715.068694
 30
0.0
 70
0
  0
VERTEX
  5
5B
  8
1
 10
-3421.612243
 20
-699.957105
 30
0.0
 70
0
  0
VERTEX
  5
5C
  8
1
 10
-3421.543101
 20
-684.486949
 30
0.0
 70
0
  0
VERTEX
  5
5D
  8
1
 10
-3421.475543
 20
-669.375375
 30
0.0
 70
0
  0
VERTEX
  5
5E
  8
1
 10
-3421.407133
 20
-654.069191
 30
0.0
 70
0
  0
VERTEX
  5
5F
  8
1
 10
-3421.339628
 20
-638.957614
 30
0.0
 70
0
  0
VERTEX
  5
60
  8
1
 10
-3421.272142
 20
-623.846035
 30
0.0
 70
0
  0
VERTEX
  5
61
  8
1
 10
-3421.205128
 20
-608.840508
 30
0.0
 70
0
  0
VERTEX
  5
62
  8
1
 10
-3421.162109
 20
-599.209633
 30
0.0
 70
0
  0
VERTEX
  5
63
  8
1
 10
-3405.31294
 20
-598.468398
 30
0.0
 70
0
  0
VERTEX
  5
64
  8
1
 10
-3390.055254
 20
-597.75482
 30
0.0
 70
0
  0
VERTEX
  5
65
  8
1
 10
-3389.405212
 20
-597.724419
 30
0.0
 70
0
  0
VERTEX
  5
66
  8
1
 10
-3374.398985
 20
-597.022592
 30
0.0
 70
0
  0
VERTEX
  5
67
  8
1
 10
-3359.757295
 20
-596.337814
 30
0.0
 70
0
  0
VERTEX
  5
68
  8
1
 10
-3344.100987
 20
-595.605589
 30
0.0
 70
0
  0
VERTEX
  5
69
  8
1
 10
-3329.415313
 20
-594.918764
 30
0.0
 70
0
  0
VERTEX
  5
6A
  8
1
 10
-3313.759052
 20
-594.186547
 30
0.0
 70
0
  0
VERTEX
  5
6B
  8
1
 10
-3298.699382
 20
-593.482229
 30
0.0
 70
0
  0
VERTEX
  5
6C
  8
1
 10
-3283.564925
 20
-592.774408
 30
0.0
 70
0
  0
VERTEX
  5
6D
  8
1
 10
-3268.503452
 20
-592.069996
 30
0.0
 70
0
  0
VERTEX
  5
6E
  8
1
 10
-3253.36905
 20
-591.362172
 30
0.0
 70
0
  0
VERTEX
  5
6F
  8
1
 10
-3238.727381
 20
-590.677396
 30
0.0
 70
0
  0
VERTEX
  5
70
  8
1
 10
-3223.071089
 20
-589.945178
 30
0.0
 70
0
  0
VERTEX
  5
71
  8
1
 10
-3208.033509
 20
-589.241894
 30
0.0
 70
0
  0
VERTEX
  5
72
  8
1
 10
-3192.899153
 20
-588.534076
 30
0.0
 70
0
  0
VERTEX
  5
73
  8
1
 10
-3177.882205
 20
-587.831746
 30
0.0
 70
0
  0
VERTEX
  5
74
  8
1
 10
-3162.747764
 20
-587.123927
 30
0.0
 70
0
  0
VERTEX
  5
75
  8
1
 10
-3147.613311
 20
-586.416108
 30
0.0
 70
0
  0
VERTEX
  5
76
  8
1
 10
-3132.449757
 20
-585.706924
 30
0.0
 70
0
  0
VERTEX
  5
77
  8
1
 10
-3117.315368
 20
-584.999106
 30
0.0
 70
0
  0
VERTEX
  5
78
  8
1
 10
-3102.012542
 20
-584.283419
 30
0.0
 70
0
  0
VERTEX
  5
79
  8
1
 10
-3086.878135
 20
-583.575608
 30
0.0
 70
0
  0
VERTEX
  5
7A
  8
1
 10
-3071.808141
 20
-582.870801
 30
0.0
 70
0
  0
VERTEX
  5
7B
  8
1
 10
-3056.673803
 20
-582.16298
 30
0.0
 70
0
  0
VERTEX
  5
7C
  8
1
 10
-3041.530169
 20
-581.454728
 30
0.0
 70
0
  0
VERTEX
  5
7D
  8
1
 10
-3026.395769
 20
-580.746912
 30
0.0
 70
0
  0
VERTEX
  5
7E
  8
1
 10
-3011.232213
 20
-580.037737
 30
0.0
 70
0
  0
VERTEX
  5
7F
  8
1
 10
-2996.097803
 20
-579.329926
 30
0.0
 70
0
  0
VERTEX
  5
80
  8
1
 10
-2980.877192
 20
-578.618082
 30
0.0
 70
0
  0
VERTEX
  5
81
  8
1
 10
-2965.742815
 20
-577.91027
 30
0.0
 70
0
  0
VERTEX
  5
82
  8
1
 10
-2950.322095
 20
-577.189064
 30
0.0
 70
0
  0
VERTEX
  5
83
  8
1
 10
-2935.284984
 20
-576.485799
 30
0.0
 70
0
  0
VERTEX
  5
84
  8
1
 10
-2922.936707
 20
-575.908279
 30
0.0
 70
0
  0
VERTEX
  5
85
  8
1
 10
-2923.264465
 20
-575.924454
 30
0.0
 70
0
  0
VERTEX
  5
86
  8
1
 10
-2907.538212
 20
-574.369743
 30
0.0
 70
0
  0
VERTEX
  5
87
  8
1
 10
-2892.498
 20
-572.810188
 30
0.0
 70
0
  0
VERTEX
  5
88
  8
1
 10
-2877.009149
 20
-571.104459
 30
0.0
 70
0
  0
VERTEX
  5
89
  8
1
 10
-2862.184526
 20
-569.381954
 30
0.0
 70
0
  0
VERTEX
  5
8A
  8
1
 10
-2846.715578
 20
-567.503888
 30
0.0
 70
0
  0
VERTEX
  5
8B
  8
1
 10
-2831.976729
 20
-565.636435
 30
0.0
 70
0
  0
VERTEX
  5
8C
  8
1
 10
-2816.528875
 20
-563.592548
 30
0.0
 70
0
  0
VERTEX
  5
8D
  8
1
 10
-2802.051337
 20
-561.59242
 30
0.0
 70
0
  0
VERTEX
  5
8E
  8
1
 10
-2786.628739
 20
-559.366039
 30
0.0
 70
0
  0
VERTEX
  5
8F
  8
1
 10
-2772.166868
 20
-557.179441
 30
0.0
 70
0
  0
VERTEX
  5
90
  8
1
 10
-2756.776956
 20
-554.736754
 30
0.0
 70
0
  0
VERTEX
  5
91
  8
1
 10
-2742.129478
 20
-552.29278
 30
0.0
 70
0
  0
VERTEX
  5
92
  8
1
 10
-2726.780971
 20
-549.601929
 30
0.0
 70
0
  0
VERTEX
  5
93
  8
1
 10
-2712.004155
 20
-546.892474
 30
0.0
 70
0
  0
VERTEX
  5
94
  8
1
 10
-2697.190859
 20
-544.069168
 30
0.0
 70
0
  0
VERTEX
  5
95
  8
1
 10
-2682.395568
 20
-541.153073
 30
0.0
 70
0
  0
VERTEX
  5
96
  8
1
 10
-2667.580913
 20
-538.146564
 30
0.0
 70
0
  0
VERTEX
  5
97
  8
1
 10
-2652.818617
 20
-535.068148
 30
0.0
 70
0
  0
VERTEX
  5
98
  8
1
 10
-2638.031675
 20
-531.90276
 30
0.0
 70
0
  0
VERTEX
  5
99
  8
1
 10
-2623.326568
 20
-528.668882
 30
0.0
 70
0
  0
VERTEX
  5
9A
  8
1
 10
-2608.7682
 20
-525.3866
 30
0.0
 70
0
  0
VERTEX
  5
9B
  8
1
 10
-2600.854187
 20
-523.577461
 30
0.0
 70
0
  0
VERTEX
  5
9C
  8
1
 10
-2595.980166
 20
-530.476393
 30
0.0
 70
0
  0
VERTEX
  5
9D
  8
1
 10
-2592.283692
 20
-535.305415
 30
0.0
 70
0
  0
VERTEX
  5
9E
  8
1
 10
-2589.106147
 20
-539.092741
 30
0.0
 70
0
  0
VERTEX
  5
9F
  8
1
 10
-2586.170289
 20
-542.208728
 30
0.0
 70
0
  0
VERTEX
  5
A0
  8
1
 10
-2583.178594
 20
-545.047331
 30
0.0
 70
0
  0
VERTEX
  5
A1
  8
1
 10
-2580.279369
 20
-547.476883
 30
0.0
 70
0
  0
VERTEX
  5
A2
  8
1
 10
-2577.466431
 20
-549.52852
 30
0.0
 70
0
  0
VERTEX
  5
A3
  8
1
 10
-2574.726168
 20
-551.228957
 30
0.0
 70
0
  0
VERTEX
  5
A4
  8
1
 10
-2571.728842
 20
-552.783838
 30
0.0
 70
0
  0
VERTEX
  5
A5
  8
1
 10
-2568.303876
 20
-554.266214
 30
0.0
 70
0
  0
VERTEX
  5
A6
  8
1
 10
-2564.485947
 20
-555.639735
 30
0.0
 70
0
  0
VERTEX
  5
A7
  8
1
 10
-2560.021255
 20
-556.966505
 30
0.0
 70
0
  0
VERTEX
  5
A8
  8
1
 10
-2554.659222
 20
-558.275281
 30
0.0
 70
0
  0
VERTEX
  5
A9
  8
1
 10
-2548.38031
 20
-559.544566
 30
0.0
 70
0
  0
VERTEX
  5
AA
  8
1
 10
-2541.371983
 20
-560.702244
 30
0.0
 70
0
  0
VERTEX
  5
AB
  8
1
 10
-2532.860294
 20
-561.834036
 30
0.0
 70
0
  0
VERTEX
  5
AC
  8
1
 10
-2522.075043
 20
-562.973557
 30
0.0
 70
0
  0
VERTEX
  5
AD
  8
1
 10
-2506.582084
 20
-564.205847
 30
0.0
 70
0
  0
VERTEX
  5
AE
  8
1
 10
-2491.3347
 20
-565.462091
 30
0.0
 70
0
  0
VERTEX
  5
AF
  8
1
 10
-2476.104667
 20
-566.776528
 30
0.0
 70
0
  0
VERTEX
  5
B0
  8
1
 10
-2461.091249
 20
-568.138793
 30
0.0
 70
0
  0
VERTEX
  5
B1
  8
1
 10
-2445.859835
 20
-569.591667
 30
0.0
 70
0
  0
VERTEX
  5
B2
  8
1
 10
-2430.860173
 20
-571.097082
 30
0.0
 70
0
  0
VERTEX
  5
B3
  8
1
 10
-2415.912588
 20
-572.674718
 30
0.0
 70
0
  0
VERTEX
  5
B4
  8
1
 10
-2400.928469
 20
-574.32815
 30
0.0
 70
0
  0
VERTEX
  5
B5
  8
1
 10
-2385.719682
 20
-576.070905
 30
0.0
 70
0
  0
VERTEX
  5
B6
  8
1
 10
-2370.749002
 20
-577.84203
 30
0.0
 70
0
  0
VERTEX
  5
B7
  8
1
 10
-2355.783994
 20
-579.660386
 30
0.0
 70
0
  0
VERTEX
  5
B8
  8
1
 10
-2340.975084
 20
-581.487547
 30
0.0
 70
0
  0
VERTEX
  5
B9
  8
1
 10
-2339.911652
 20
-581.618652
 30
0.0
 70
0
  0
VERTEX
  5
BA
  8
1
 10
-2340.130133
 20
-597.264309
 30
0.0
 70
0
  0
VERTEX
  5
BB
  8
1
 10
-2340.301528
 20
-612.564255
 30
0.0
 70
0
  0
VERTEX
  5
BC
  8
1
 10
-2340.326816
 20
-627.733799
 30
0.0
 70
0
  0
VERTEX
  5
BD
  8
1
 10
-2340.12873
 20
-643.033871
 30
0.0
 70
0
  0
VERTEX
  5
BE
  8
1
 10
-2339.688674
 20
-658.310984
 30
0.0
 70
0
  0
VERTEX
  5
BF
  8
1
 10
-2339.010916
 20
-673.596995
 30
0.0
 70
0
  0
VERTEX
  5
C0
  8
1
 10
-2338.141833
 20
-688.873908
 30
0.0
 70
0
  0
VERTEX
  5
C1
  8
1
 10
-2337.15261
 20
-703.872312
 30
0.0
 70
0
  0
VERTEX
  5
C2
  8
1
 10
-2336.838989
 20
-708.369064
 30
0.0
 70
0
  0
VERTEX
  5
C3
  8
1
 10
-2349.985785
 20
-710.282729
 30
0.0
 70
0
  0
VERTEX
  5
C4
  8
1
 10
-2355.246659
 20
-711.085278
 30
0.0
 70
0
  0
VERTEX
  5
C5
  8
1
 10
-2360.200791
 20
-712.131039
 30
0.0
 70
0
  0
VERTEX
  5
C6
  8
1
 10
-2365.258151
 20
-713.439316
 30
0.0
 70
0
  0
VERTEX
  5
C7
  8
1
 10
-2369.930321
 20
-714.893815
 30
0.0
 70
0
  0
VERTEX
  5
C8
  8
1
 10
-2374.383898
 20
-716.531952
 30
0.0
 70
0
  0
VERTEX
  5
C9
  8
1
 10
-2378.467158
 20
-718.290951
 30
0.0
 70
0
  0
VERTEX
  5
CA
  8
1
 10
-2382.14117
 20
-720.131652
 30
0.0
 70
0
  0
VERTEX
  5
CB
  8
1
 10
-2385.482128
 20
-722.071878
 30
0.0
 70
0
  0
VERTEX
  5
CC
  8
1
 10
-2388.471159
 20
-724.084707
 30
0.0
 70
0
  0
VERTEX
  5
CD
  8
1
 10
-2391.149958
 20
-726.182886
 30
0.0
 70
0
  0
VERTEX
  5
CE
  8
1
 10
-2393.449474
 20
-728.286284
 30
0.0
 70
0
  0
VERTEX
  5
CF
  8
1
 10
-2395.451491
 20
-730.43692
 30
0.0
 70
0
  0
VERTEX
  5
D0
  8
1
 10
-2397.223276
 20
-732.704935
 30
0.0
 70
0
  0
VERTEX
  5
D1
  8
1
 10
-2398.749668
 20
-735.07306
 30
0.0
 70
0
  0
VERTEX
  5
D2
  8
1
 10
-2400.111869
 20
-737.650975
 30
0.0
 70
0
  0
VERTEX
  5
D3
  8
1
 10
-2401.36419
 20
-740.559276
 30
0.0
 70
0
  0
VERTEX
  5
D4
  8
1
 10
-2402.483948
 20
-743.802615
 30
0.0
 70
0
  0
VERTEX
  5
D5
  8
1
 10
-2403.451138
 20
-747.373076
 30
0.0
 70
0
  0
VERTEX
  5
D6
  8
1
 10
-2404.270193
 20
-751.366179
 30
0.0
 70
0
  0
VERTEX
  5
D7
  8
1
 10
-2404.923892
 20
-755.840001
 30
0.0
 70
0
  0
VERTEX
  5
D8
  8
1
 10
-2405.379348
 20
-760.713193
 30
0.0
 70
0
  0
VERTEX
  5
D9
  8
1
 10
-2405.62995
 20
-766.181243
 30
0.0
 70
0
  0
VERTEX
  5
DA
  8
1
 10
-2405.650241
 20
-772.213324
 30
0.0
 70
0
  0
VERTEX
  5
DB
  8
1
 10
-2405.411752
 20
-779.157025
 30
0.0
 70
0
  0
VERTEX
  5
DC
  8
1
 10
-2404.892201
 20
-786.87876
 30
0.0
 70
0
  0
VERTEX
  5
DD
  8
1
 10
-2404.077054
 20
-795.214119
 30
0.0
 70
0
  0
VERTEX
  5
DE
  8
1
 10
-2402.888303
 20
-804.698728
 30
0.0
 70
0
  0
VERTEX
  5
DF
  8
1
 10
-2401.082513
 20
-816.857205
 30
0.0
 70
0
  0
VERTEX
  5
E0
  8
1
 10
-2398.68569
 20
-831.639609
 30
0.0
 70
0
  0
VERTEX
  5
E1
  8
1
 10
-2398.403015
 20
-833.342133
 30
0.0
 70
0
  0
VERTEX
  5
E2
  8
1
 10
-2409.367417
 20
-834.739559
 30
0.0
 70
0
  0
VERTEX
  5
E3
  8
1
 10
-2424.302447
 20
-836.554298
 30
0.0
 70
0
  0
VERTEX
  5
E4
  8
1
 10
-2439.255382
 20
-838.212003
 30
0.0
 70
0
  0
VERTEX
  5
E5
  8
1
 10
-2454.068209
 20
-839.640515
 30
0.0
 70
0
  0
VERTEX
  5
E6
  8
1
 10
-2468.564989
 20
-840.793962
 30
0.0
 70
0
  0
VERTEX
  5
E7
  8
1
 10
-2483.989686
 20
-841.764064
 30
0.0
 70
0
  0
VERTEX
  5
E8
  8
1
 10
-2499.017118
 20
-842.472558
 30
0.0
 70
0
  0
VERTEX
  5
E9
  8
1
 10
-2514.304877
 20
-842.97478
 30
0.0
 70
0
  0
VERTEX
  5
EA
  8
1
 10
-2529.345612
 20
-843.279009
 30
0.0
 70
0
  0
VERTEX
  5
EB
  8
1
 10
-2544.666471
 20
-843.436689
 30
0.0
 70
0
  0
VERTEX
  5
EC
  8
1
 10
-2559.71026
 20
-843.476995
 30
0.0
 70
0
  0
VERTEX
  5
ED
  8
1
 10
-2574.742762
 20
-843.408452
 30
0.0
 70
0
  0
VERTEX
  5
EE
  8
1
 10
-2589.785475
 20
-843.230004
 30
0.0
 70
0
  0
VERTEX
  5
EF
  8
1
 10
-2604.885861
 20
-842.943314
 30
0.0
 70
0
  0
VERTEX
  5
F0
  8
1
 10
-2619.924614
 20
-842.55709
 30
0.0
 70
0
  0
VERTEX
  5
F1
  8
1
 10
-2635.042898
 20
-842.084211
 30
0.0
 70
0
  0
VERTEX
  5
F2
  8
1
 10
-2650.077051
 20
-841.547754
 30
0.0
 70
0
  0
VERTEX
  5
F3
  8
1
 10
-2665.610269
 20
-840.938163
 30
0.0
 70
0
  0
VERTEX
  5
F4
  8
1
 10
-2680.314518
 20
-840.320834
 30
0.0
 70
0
  0
VERTEX
  5
F5
  8
1
 10
-2695.343685
 20
-839.659442
 30
0.0
 70
0
  0
VERTEX
  5
F6
  8
1
 10
-2710.402112
 20
-838.975605
 30
0.0
 70
0
  0
VERTEX
  5
F7
  8
1
 10
-2725.429768
 20
-838.281451
 30
0.0
 70
0
  0
VERTEX
  5
F8
  8
1
 10
-2740.58012
 20
-837.57795
 30
0.0
 70
0
  0
VERTEX
  5
F9
  8
1
 10
-2755.607645
 20
-836.882719
 30
0.0
 70
0
  0
VERTEX
  5
FA
  8
1
 10
-2770.984865
 20
-836.174128
 30
0.0
 70
0
  0
VERTEX
  5
FB
  8
1
 10
-2786.012681
 20
-835.483325
 30
0.0
 70
0
  0
VERTEX
  5
FC
  8
1
 10
-2801.040573
 20
-834.794122
 30
0.0
 70
0
  0
VERTEX
  5
FD
  8
1
 10
-2816.029242
 20
-834.108435
 30
0.0
 70
0
  0
VERTEX
  5
FE
  8
1
 10
-2831.558208
 20
-833.399741
 30
0.0
 70
0
  0
VERTEX
  5
FF
  8
1
 10
-2846.094314
 20
-832.737803
 30
0.0
 70
0
  0
VERTEX
  5
100
  8
1
 10
-2861.623496
 20
-832.032087
 30
0.0
 70
0
  0
VERTEX
  5
101
  8
1
 10
-2876.388062
 20
-831.362483
 30
0.0
 70
0
  0
VERTEX
  5
102
  8
1
 10
-2891.917329
 20
-830.659905
 30
0.0
 70
0
  0
VERTEX
  5
103
  8
1
 10
-2907.155583
 20
-829.972313
 30
0.0
 70
0
  0
SEQEND
  5
30
  8
1
  0
LINE
  5
104
  8
7
 10
-3341.298828
 20
-702.162857
 30
0.0
 11
-2446.712189
 21
-702.162857
 31
0.0
  0
ENDSEC
  0
EOF
