  0
SECTION
  2
HEADER
  9
$ACADVER
  1
AC1009
  9
$DWGCODEPAGE
  3
ANSI_1252
  9
$INSBASE
 10
0.0
 20
0.0
 30
0.0
  9
$EXTMIN
 10
1e+20
 20
1e+20
 30
1e+20
  9
$EXTMAX
 10
-1e+20
 20
-1e+20
 30
-1e+20
  9
$LIMMIN
 10
0.0
 20
0.0
  9
$LIMMAX
 10
420.0
 20
297.0
  9
$ORTHOMODE
 70
0
  9
$REGENMODE
 70
1
  9
$FILLMODE
 70
1
  9
$DRAGMODE
 70
2
  9
$QTEXTMODE
 70
0
  9
$MIRRTEXT
 70
1
  9
$OSMODE
 70
20583
  9
$LTSCALE
 40
1.0
  9
$ATTMODE
 70
1
  9
$TEXTSIZE
 40
2.5
  9
$TRACEWID
 40
1.0
  9
$TEXTSTYLE
  7
Standard
  9
$CLAYER
  8
0
  9
$CELTYPE
  6
ByLayer
  9
$CECOLOR
 62
256
  9
$DIMSCALE
 40
1.0
  9
$DIMASZ
 40
2.5
  9
$DIMEXO
 40
0.625
  9
$DIMDLI
 40
3.75
  9
$DIMRND
 40
0.0
  9
$DIMDLE
 40
0.0
  9
$DIMEXE
 40
1.25
  9
$DIMTP
 40
0.0
  9
$DIMTM
 40
0.0
  9
$DIMTXT
 40
2.5
  9
$DIMCEN
 40
2.5
  9
$DIMTSZ
 40
0.0
  9
$DIMTOL
 70
0
  9
$DIMLIM
 70
0
  9
$DIMTIH
 70
0
  9
$DIMTOH
 70
0
  9
$DIMSE1
 70
0
  9
$DIMSE2
 70
0
  9
$DIMTAD
 70
1
  9
$DIMZIN
 70
8
  9
$DIMBLK
  1

  9
$DIMASO
 70
1
  9
$DIMSHO
 70
1
  9
$DIMPOST
  1

  9
$DIMAPOST
  1

  9
$DIMALT
 70
0
  9
$DIMALTD
 70
3
  9
$DIMALTF
 40
0.03937007874
  9
$DIMLFAC
 40
1.0
  9
$DIMTOFL
 70
1
  9
$DIMTVP
 40
0.0
  9
$DIMTIX
 70
0
  9
$DIMSOXD
 70
0
  9
$DIMSAH
 70
0
  9
$DIMBLK1
  1

  9
$DIMBLK2
  1

  9
$DIMSTYLE
  2
ISO-25
  9
$DIMCLRD
 70
0
  9
$DIMCLRE
 70
0
  9
$DIMCLRT
 70
0
  9
$DIMTFAC
 40
1.0
  9
$DIMGAP
 40
0.625
  9
$COORDS
 70
1
  9
$ATTDIA
 70
0
  9
$ATTREQ
 70
1
  9
$HANDLING
 70
1
  9
$LUNITS
 70
2
  9
$LUPREC
 70
4
  9
$SKETCHINC
 40
1.0
  9
$FILLETRAD
 40
10.0
  9
$AUNITS
 70
0
  9
$AUPREC
 70
2
  9
$MENU
  1
.
  9
$ELEVATION
 40
0.0
  9
$PELEVATION
 40
0.0
  9
$THICKNESS
 40
0.0
  9
$LIMCHECK
 70
0
  9
$CHAMFERA
 40
0.0
  9
$CHAMFERB
 40
0.0
  9
$SKPOLY
 70
0
  9
$TDCREATE
 40
2461264.9423032408
  9
$TDUPDATE
 40
2461264.9423032408
  9
$TDINDWG
 40
0.0
  9
$TDUSRTIMER
 40
0.0
  9
$USRTIMER
 70
1
  9
$ANGBASE
 50
0.0
  9
$ANGDIR
 70
0
  9
$PDMODE
 70
0
  9
$PDSIZE
 40
0.0
  9
$PLINEWID
 40
0.0
  9
$SPLFRAME
 70
0
  9
$SPLINETYPE
 70
6
  9
$SPLINESEGS
 70
8
  9
$HANDSEED
  5
206
  9
$SURFTAB1
 70
6
  9
$SURFTAB2
 70
6
  9
$SURFTYPE
 70
6
  9
$SURFU
 70
6
  9
$SURFV
 70
6
  9
$UCSNAME
  2

  9
$UCSORG
 10
0.0
 20
0.0
 30
0.0
  9
$UCSXDIR
 10
1.0
 20
0.0
 30
0.0
  9
$UCSYDIR
 10
0.0
 20
1.0
 30
0.0
  9
$PUCSNAME
  2

  9
$PUCSORG
 10
0.0
 20
0.0
 30
0.0
  9
$PUCSXDIR
 10
1.0
 20
0.0
 30
0.0
  9
$PUCSYDIR
 10
0.0
 20
1.0
 30
0.0
  9
$USERI1
 70
0
  9
$USERI2
 70
0
  9
$USERI3
 70
0
  9
$USERI4
 70
0
  9
$USERI5
 70
0
  9
$USERR1
 40
0.0
  9
$USERR2
 40
0.0
  9
$USERR3
 40
0.0
  9
$USERR4
 40
0.0
  9
$USERR5
 40
0.0
  9
$WORLDVIEW
 70
1
  9
$SHADEDGE
 70
3
  9
$SHADEDIF
 70
70
  9
$TILEMODE
 70
1
  9
$MAXACTVP
 70
64
  9
$PLIMCHECK
 70
0
  9
$PEXTMIN
 10
1e+20
 20
1e+20
 30
1e+20
  9
$PEXTMAX
 10
-1e+20
 20
-1e+20
 30
-1e+20
  9
$PLIMMIN
 10
0.0
 20
0.0
  9
$PLIMMAX
 10
420.0
 20
297.0
  9
$UNITMODE
 70
0
  9
$VISRETAIN
 70
1
  9
$PLINEGEN
 70
0
  9
$PSLTSCALE
 70
1
  0
ENDSEC
  0
SECTION
  2
TABLES
  0
TABLE
  2
VPORT
 70
1
  0
VPORT
  5
23
  2
*Active
 70
0
 10
0.0
 20
0.0
 11
1.0
 21
1.0
 12
0.0
 22
0.0
 13
0.0
 23
0.0
 14
0.5
 24
0.5
 15
0.5
 25
0.5
 16
0.0
 26
0.0
 36
1.0
 17
0.0
 27
0.0
 37
0.0
 40
1000.0
 41
1.34
 42
50.0
 43
0.0
 44
0.0
 50
0.0
 51
0.0
 71
0
 72
1000
 73
1
 74
3
 75
0
 76
0
 77
0
 78
0
  0
ENDTAB
  0
TABLE
  2
LTYPE
 70
3
  0
LTYPE
  5
24
  2
ByBlock
 70
0
  3

 72
65
 73
0
 40
0.0
  0
LTYPE
  5
25
  2
ByLayer
 70
0
  3

 72
65
 73
0
 40
0.0
  0
LTYPE
  5
26
  2
Continuous
 70
0
  3

 72
65
 73
0
 40
0.0
  0
ENDTAB
  0
TABLE
  2
LAYER
 70
7
  0
LAYER
  5
27
  2
0
 70
0
 62
7
  6
Continuous
  0
LAYER
  5
28
  2
Defpoints
 70
0
 62
7
  6
Continuous
  0
LAYER
  5
2D
  2
1
 70
0
 62
1
  6
Continuous
  0
LAYER
  5
2E
  2
7
 70
0
 62
7
  6
Continuous
  0
LAYER
  5
2F
  2
14
 70
0
 62
3
  6
Continuous
  0
LAYER
  5
30
  2
8
 70
0
 62
6
  6
Continuous
  0
LAYER
  5
31
  2
4
 70
0
 62
2
  6
Continuous
  0
ENDTAB
  0
TABLE
  2
STYLE
 70
1
  0
STYLE
  5
29
  2
Standard
 70
0
 40
0.0
 41
1.0
 50
0.0
 71
0
 42
2.5
  3
txt
  4

  0
ENDTAB
  0
TABLE
  2
VIEW
 70
0
  0
ENDTAB
  0
TABLE
  2
UCS
 70
0
  0
ENDTAB
  0
TABLE
  2
APPID
 70
3
  0
APPID
  5
2A
  2
ACAD
 70
0
  0
APPID
  5
204
  2
HATCHBACKGROUNDCOLOR
 70
0
  0
APPID
  5
205
  2
EZDXF
 70
0
  0
ENDTAB
  0
TABLE
  2
DIMSTYLE
 70
1
  0
DIMSTYLE
105
2B
  2
Standard
 70
0
  3

  4

  5

  6

  7

 40
1.0
 41
2.5
 42
0.625
 43
3.75
 44
1.25
 45
0.0
 46
0.0
 47
0.0
 48
0.0
140
2.5
141
2.5
142
0.0
143
0.03937007874
144
1.0
145
0.0
146
1.0
147
0.625
 71
0
 72
0
 73
0
 74
0
 75
0
 76
0
 77
1
 78
8
170
0
171
3
172
1
173
0
174
0
175
0
176
0
177
0
178
0
  0
ENDTAB
  0
ENDSEC
  0
SECTION
  2
BLOCKS
  0
BLOCK
  5
18
  8
0
  2
$Model_Space
 70
0
 10
0.0
 20
0.0
 30
0.0
  3
$Model_Space
  1

1001
EZDXF
1000
CREATED_BY_EZDXF
1000
1.4.4 @ 2026-08-11T14:36:55.240176+00:00
1000
WRITTEN_BY_EZDXF
1000
1.4.4 @ 2026-08-11T14:36:55.244176+00:00
  0
ENDBLK
  5
19
  8
0
  0
BLOCK
  5
1C
  8
0
  2
$Paper_Space
 70
0
 10
0.0
 20
0.0
 30
0.0
  3
$Paper_Space
  1

  0
ENDBLK
  5
1D
  8
0
  0
ENDSEC
  0
SECTION
  2
ENTITIES
  0
POLYLINE
  5
32
  8
1
 66
1
 10
0.0
 20
0.0
 30
0.0
 70
1
  0
VERTEX
  5
34
  8
1
 10
-2922.737122
 20
-819.109421
 30
0.0
 70
0
  0
VERTEX
  5
35
  8
1
 10
-2922.737122
 20
-819.109421
 30
0.0
 70
0
  0
VERTEX
  5
36
  8
1
 10
-2925.532213
 20
-819.023205
 30
0.0
 70
0
  0
VERTEX
  5
37
  8
1
 10
-2941.024932
 20
-818.535799
 30
0.0
 70
0
  0
VERTEX
  5
38
  8
1
 10
-2956.517279
 20
-818.034662
 30
0.0
 70
0
  0
VERTEX
  5
39
  8
1
 10
-2971.787265
 20
-817.530906
 30
0.0
 70
0
  0
VERTEX
  5
3A
  8
1
 10
-2987.278911
 20
-817.012232
 30
0.0
 70
0
  0
VERTEX
  5
3B
  8
1
 10
-3002.491807
 20
-816.494992
 30
0.0
 70
0
  0
VERTEX
  5
3C
  8
1
 10
-3017.982932
 20
-815.959636
 30
0.0
 70
0
  0
VERTEX
  5
3D
  8
1
 10
-3033.473791
 20
-815.415512
 30
0.0
 70
0
  0
VERTEX
  5
3E
  8
1
 10
-3048.700423
 20
-814.872131
 30
0.0
 70
0
  0
VERTEX
  5
3F
  8
1
 10
-3064.190716
 20
-814.310341
 30
0.0
 70
0
  0
VERTEX
  5
40
  8
1
 10
-3079.359332
 20
-813.750995
 30
0.0
 70
0
  0
VERTEX
  5
41
  8
1
 10
-3094.84887
 20
-813.169928
 30
0.0
 70
0
  0
VERTEX
  5
42
  8
1
 10
-3109.883835
 20
-812.595863
 30
0.0
 70
0
  0
VERTEX
  5
43
  8
1
 10
-3125.372449
 20
-811.993457
 30
0.0
 70
0
  0
VERTEX
  5
44
  8
1
 10
-3140.602512
 20
-811.38936
 30
0.0
 70
0
  0
VERTEX
  5
45
  8
1
 10
-3156.090205
 20
-810.762275
 30
0.0
 70
0
  0
VERTEX
  5
46
  8
1
 10
-3171.416434
 20
-810.12832
 30
0.0
 70
0
  0
VERTEX
  5
47
  8
1
 10
-3186.903058
 20
-809.474227
 30
0.0
 70
0
  0
VERTEX
  5
48
  8
1
 10
-3202.00977
 20
-808.824229
 30
0.0
 70
0
  0
VERTEX
  5
49
  8
1
 10
-3217.495407
 20
-808.146739
 30
0.0
 70
0
  0
VERTEX
  5
4A
  8
1
 10
-3232.825092
 20
-807.465678
 30
0.0
 70
0
  0
VERTEX
  5
4B
  8
1
 10
-3248.309798
 20
-806.767833
 30
0.0
 70
0
  0
VERTEX
  5
4C
  8
1
 10
-3263.794078
 20
-806.060432
 30
0.0
 70
0
  0
VERTEX
  5
4D
  8
1
 10
-3278.818457
 20
-805.365258
 30
0.0
 70
0
  0
VERTEX
  5
4E
  8
1
 10
-3294.301913
 20
-804.640438
 30
0.0
 70
0
  0
VERTEX
  5
4F
  8
1
 10
-3309.686319
 20
-803.912479
 30
0.0
 70
0
  0
VERTEX
  5
50
  8
1
 10
-3325.168928
 20
-803.171175
 30
0.0
 70
0
  0
VERTEX
  5
51
  8
1
 10
-3340.152797
 20
-802.443392
 30
0.0
 70
0
  0
VERTEX
  5
52
  8
1
 10
-3355.634448
 20
-801.68098
 30
0.0
 70
0
  0
VERTEX
  5
53
  8
1
 10
-3370.030518
 20
-800.966873
 30
0.0
 70
0
  0
VERTEX
  5
54
  8
1
 10
-3370.915645
 20
-800.922977
 30
0.0
 70
0
  0
VERTEX
  5
55
  8
1
 10
-3386.251206
 20
-800.161375
 30
0.0
 70
0
  0
VERTEX
  5
56
  8
1
 10
-3401.773071
 20
-799.390488
 30
0.0
 70
0
  0
VERTEX
  5
57
  8
1
 10
-3401.696394
 20
-783.539546
 30
0.0
 70
0
  0
VERTEX
  5
58
  8
1
 10
-3401.623627
 20
-768.487738
 30
0.0
 70
0
  0
VERTEX
  5
59
  8
1
 10
-3401.550853
 20
-753.435939
 30
0.0
 70
0
  0
VERTEX
  5
5A
  8
1
 10
-3401.477087
 20
-738.190339
 30
0.0
 70
0
  0
VERTEX
  5
5B
  8
1
 10
-3401.404222
 20
-723.13854
 30
0.0
 70
0
  0
VERTEX
  5
5C
  8
1
 10
-3401.331572
 20
-708.130295
 30
0.0
 70
0
  0
VERTEX
  5
5D
  8
1
 10
-3401.258738
 20
-693.078497
 30
0.0
 70
0
  0
VERTEX
  5
5E
  8
1
 10
-3401.184055
 20
-677.636386
 30
0.0
 70
0
  0
VERTEX
  5
5F
  8
1
 10
-3401.111279
 20
-662.58458
 30
0.0
 70
0
  0
VERTEX
  5
60
  8
1
 10
-3401.038695
 20
-647.576345
 30
0.0
 70
0
  0
VERTEX
  5
61
  8
1
 10
-3400.965868
 20
-632.524545
 30
0.0
 70
0
  0
VERTEX
  5
62
  8
1
 10
-3400.89304
 20
-617.472752
 30
0.0
 70
0
  0
VERTEX
  5
63
  8
1
 10
-3400.838623
 20
-606.223488
 30
0.0
 70
0
  0
VERTEX
  5
64
  8
1
 10
-3385.249018
 20
-605.483142
 30
0.0
 70
0
  0
VERTEX
  5
65
  8
1
 10
-3370.157049
 20
-604.76643
 30
0.0
 70
0
  0
VERTEX
  5
66
  8
1
 10
-3369.080811
 20
-604.715309
 30
0.0
 70
0
  0
VERTEX
  5
67
  8
1
 10
-3354.991164
 20
-604.046211
 30
0.0
 70
0
  0
VERTEX
  5
68
  8
1
 10
-3339.745576
 20
-603.322209
 30
0.0
 70
0
  0
VERTEX
  5
69
  8
1
 10
-3324.638481
 20
-602.604786
 30
0.0
 70
0
  0
VERTEX
  5
6A
  8
1
 10
-3309.392976
 20
-601.880793
 30
0.0
 70
0
  0
VERTEX
  5
6B
  8
1
 10
-3294.332586
 20
-601.165591
 30
0.0
 70
0
  0
VERTEX
  5
6C
  8
1
 10
-3279.087005
 20
-600.441593
 30
0.0
 70
0
  0
VERTEX
  5
6D
  8
1
 10
-3263.809589
 20
-599.716079
 30
0.0
 70
0
  0
VERTEX
  5
6E
  8
1
 10
-3248.564028
 20
-598.992078
 30
0.0
 70
0
  0
VERTEX
  5
6F
  8
1
 10
-3233.139107
 20
-598.259563
 30
0.0
 70
0
  0
VERTEX
  5
70
  8
1
 10
-3217.893513
 20
-597.535562
 30
0.0
 70
0
  0
VERTEX
  5
71
  8
1
 10
-3202.511294
 20
-596.805065
 30
0.0
 70
0
  0
VERTEX
  5
72
  8
1
 10
-3187.265787
 20
-596.081058
 30
0.0
 70
0
  0
VERTEX
  5
73
  8
1
 10
-3172.158662
 20
-595.363628
 30
0.0
 70
0
  0
VERTEX
  5
74
  8
1
 10
-3156.913072
 20
-594.639626
 30
0.0
 70
0
  0
VERTEX
  5
75
  8
1
 10
-3141.668349
 20
-593.915663
 30
0.0
 70
0
  0
VERTEX
  5
76
  8
1
 10
-3126.422797
 20
-593.191664
 30
0.0
 70
0
  0
VERTEX
  5
77
  8
1
 10
-3111.410367
 20
-592.478744
 30
0.0
 70
0
  0
VERTEX
  5
78
  8
1
 10
-3096.164726
 20
-591.754748
 30
0.0
 70
0
  0
VERTEX
  5
79
  8
1
 10
-3081.057556
 20
-591.037319
 30
0.0
 70
0
  0
VERTEX
  5
7A
  8
1
 10
-3065.812043
 20
-590.313316
 30
0.0
 70
0
  0
VERTEX
  5
7B
  8
1
 10
-3050.519936
 20
-589.587106
 30
0.0
 70
0
  0
VERTEX
  5
7C
  8
1
 10
-3035.274444
 20
-588.86311
 30
0.0
 70
0
  0
VERTEX
  5
7D
  8
1
 10
-3020.289178
 20
-588.151467
 30
0.0
 70
0
  0
VERTEX
  5
7E
  8
1
 10
-3005.0436
 20
-587.427462
 30
0.0
 70
0
  0
VERTEX
  5
7F
  8
1
 10
-2989.591608
 20
-586.693661
 30
0.0
 70
0
  0
VERTEX
  5
80
  8
1
 10
-2974.345946
 20
-585.969657
 30
0.0
 70
0
  0
VERTEX
  5
81
  8
1
 10
-2958.898828
 20
-585.236077
 30
0.0
 70
0
  0
VERTEX
  5
82
  8
1
 10
-2943.868683
 20
-584.522296
 30
0.0
 70
0
  0
VERTEX
  5
83
  8
1
 10
-2928.761169
 20
-583.804845
 30
0.0
 70
0
  0
VERTEX
  5
84
  8
1
 10
-2922.945862
 20
-583.528709
 30
0.0
 70
0
  0
VERTEX
  5
85
  8
1
 10
-2923.149414
 20
-583.538933
 30
0.0
 70
0
  0
VERTEX
  5
86
  8
1
 10
-2907.762807
 20
-582.311588
 30
0.0
 70
0
  0
VERTEX
  5
87
  8
1
 10
-2892.359076
 20
-581.009034
 30
0.0
 70
0
  0
VERTEX
  5
88
  8
1
 10
-2877.160538
 20
-579.626733
 30
0.0
 70
0
  0
VERTEX
  5
89
  8
1
 10
-2862.089705
 20
-578.165068
 30
0.0
 70
0
  0
VERTEX
  5
8A
  8
1
 10
-2846.717247
 20
-576.593976
 30
0.0
 70
0
  0
VERTEX
  5
8B
  8
1
 10
-2831.662615
 20
-574.975577
 30
0.0
 70
0
  0
VERTEX
  5
8C
  8
1
 10
-2816.589055
 20
-573.271178
 30
0.0
 70
0
  0
VERTEX
  5
8D
  8
1
 10
-2801.553542
 20
-571.483158
 30
0.0
 70
0
  0
VERTEX
  5
8E
  8
1
 10
-2786.361323
 20
-569.58194
 30
0.0
 70
0
  0
VERTEX
  5
8F
  8
1
 10
-2771.350171
 20
-567.599846
 30
0.0
 70
0
  0
VERTEX
  5
90
  8
1
 10
-2756.139513
 20
-565.475402
 30
0.0
 70
0
  0
VERTEX
  5
91
  8
1
 10
-2741.160838
 20
-563.261138
 30
0.0
 70
0
  0
VERTEX
  5
92
  8
1
 10
-2726.071073
 20
-560.903232
 30
0.0
 70
0
  0
VERTEX
  5
93
  8
1
 10
-2711.129641
 20
-558.450008
 30
0.0
 70
0
  0
VERTEX
  5
94
  8
1
 10
-2696.268938
 20
-555.903426
 30
0.0
 70
0
  0
VERTEX
  5
95
  8
1
 10
-2681.361293
 20
-553.252761
 30
0.0
 70
0
  0
VERTEX
  5
96
  8
1
 10
-2666.136651
 20
-550.45593
 30
0.0
 70
0
  0
VERTEX
  5
97
  8
1
 10
-2651.260126
 20
-547.635943
 30
0.0
 70
0
  0
VERTEX
  5
98
  8
1
 10
-2636.268862
 20
-544.706839
 30
0.0
 70
0
  0
VERTEX
  5
99
  8
1
 10
-2621.423405
 20
-541.727234
 30
0.0
 70
0
  0
VERTEX
  5
9A
  8
1
 10
-2606.591459
 20
-538.681447
 30
0.0
 70
0
  0
VERTEX
  5
9B
  8
1
 10
-2600.921631
 20
-537.501755
 30
0.0
 70
0
  0
VERTEX
  5
9C
  8
1
 10
-2596.459359
 20
-543.969232
 30
0.0
 70
0
  0
VERTEX
  5
9D
  8
1
 10
-2592.730176
 20
-548.966876
 30
0.0
 70
0
  0
VERTEX
  5
9E
  8
1
 10
-2589.819781
 20
-552.512835
 30
0.0
 70
0
  0
VERTEX
  5
9F
  8
1
 10
-2586.91259
 20
-555.662593
 30
0.0
 70
0
  0
VERTEX
  5
A0
  8
1
 10
-2584.001746
 20
-558.471985
 30
0.0
 70
0
  0
VERTEX
  5
A1
  8
1
 10
-2581.082795
 20
-560.954336
 30
0.0
 70
0
  0
VERTEX
  5
A2
  8
1
 10
-2578.313147
 20
-563.001545
 30
0.0
 70
0
  0
VERTEX
  5
A3
  8
1
 10
-2575.589556
 20
-564.717776
 30
0.0
 70
0
  0
VERTEX
  5
A4
  8
1
 10
-2572.583888
 20
-566.302657
 30
0.0
 70
0
  0
VERTEX
  5
A5
  8
1
 10
-2569.143997
 20
-567.81898
 30
0.0
 70
0
  0
VERTEX
  5
A6
  8
1
 10
-2565.291099
 20
-569.235343
 30
0.0
 70
0
  0
VERTEX
  5
A7
  8
1
 10
-2560.882029
 20
-570.582058
 30
0.0
 70
0
  0
VERTEX
  5
A8
  8
1
 10
-2555.668535
 20
-571.897901
 30
0.0
 70
0
  0
VERTEX
  5
A9
  8
1
 10
-2549.576615
 20
-573.165169
 30
0.0
 70
0
  0
VERTEX
  5
AA
  8
1
 10
-2541.930927
 20
-574.47518
 30
0.0
 70
0
  0
VERTEX
  5
AB
  8
1
 10
-2534.056738
 20
-575.577109
 30
0.0
 70
0
  0
VERTEX
  5
AC
  8
1
 10
-2525.915203
 20
-576.462567
 30
0.0
 70
0
  0
VERTEX
  5
AD
  8
1
 10
-2522.21283
 20
-576.799583
 30
0.0
 70
0
  0
VERTEX
  5
AE
  8
1
 10
-2506.636914
 20
-578.264988
 30
0.0
 70
0
  0
VERTEX
  5
AF
  8
1
 10
-2491.607427
 20
-579.726701
 30
0.0
 70
0
  0
VERTEX
  5
B0
  8
1
 10
-2476.308585
 20
-581.281083
 30
0.0
 70
0
  0
VERTEX
  5
B1
  8
1
 10
-2460.954551
 20
-582.924461
 30
0.0
 70
0
  0
VERTEX
  5
B2
  8
1
 10
-2445.690636
 20
-584.649426
 30
0.0
 70
0
  0
VERTEX
  5
B3
  8
1
 10
-2430.35657
 20
-586.469929
 30
0.0
 70
0
  0
VERTEX
  5
B4
  8
1
 10
-2415.299763
 20
-588.334274
 30
0.0
 70
0
  0
VERTEX
  5
B5
  8
1
 10
-2399.984602
 20
-590.307197
 30
0.0
 70
0
  0
VERTEX
  5
B6
  8
1
 10
-2384.660159
 20
-592.358193
 30
0.0
 70
0
  0
VERTEX
  5
B7
  8
1
 10
-2369.520274
 20
-594.426982
 30
0.0
 70
0
  0
VERTEX
  5
B8
  8
1
 10
-2360.226593
 20
-595.698357
 30
0.0
 70
0
  0
VERTEX
  5
B9
  8
1
 10
-2360.436868
 20
-612.329334
 30
0.0
 70
0
  0
VERTEX
  5
BA
  8
1
 10
-2360.400862
 20
-627.843718
 30
0.0
 70
0
  0
VERTEX
  5
BB
  8
1
 10
-2360.122784
 20
-643.413692
 30
0.0
 70
0
  0
VERTEX
  5
BC
  8
1
 10
-2359.604623
 20
-657.565218
 30
0.0
 70
0
  0
VERTEX
  5
BD
  8
1
 10
-2358.770474
 20
-672.797965
 30
0.0
 70
0
  0
VERTEX
  5
BE
  8
1
 10
-2357.718378
 20
-687.964254
 30
0.0
 70
0
  0
VERTEX
  5
BF
  8
1
 10
-2357.211609
 20
-694.303284
 30
0.0
 70
0
  0
VERTEX
  5
C0
  8
1
 10
-2371.263579
 20
-696.770384
 30
0.0
 70
0
  0
VERTEX
  5
C1
  8
1
 10
-2376.273307
 20
-697.717842
 30
0.0
 70
0
  0
VERTEX
  5
C2
  8
1
 10
-2381.389453
 20
-698.967293
 30
0.0
 70
0
  0
VERTEX
  5
C3
  8
1
 10
-2386.59104
 20
-700.477539
 30
0.0
 70
0
  0
VERTEX
  5
C4
  8
1
 10
-2391.427661
 20
-702.132757
 30
0.0
 70
0
  0
VERTEX
  5
C5
  8
1
 10
-2395.936672
 20
-703.928111
 30
0.0
 70
0
  0
VERTEX
  5
C6
  8
1
 10
-2400.029632
 20
-705.8113
 30
0.0
 70
0
  0
VERTEX
  5
C7
  8
1
 10
-2403.795716
 20
-707.808291
 30
0.0
 70
0
  0
VERTEX
  5
C8
  8
1
 10
-2407.183887
 20
-709.879997
 30
0.0
 70
0
  0
VERTEX
  5
C9
  8
1
 10
-2410.198114
 20
-712.009743
 30
0.0
 70
0
  0
VERTEX
  5
CA
  8
1
 10
-2412.783166
 20
-714.124982
 30
0.0
 70
0
  0
VERTEX
  5
CB
  8
1
 10
-2415.063594
 20
-716.297842
 30
0.0
 70
0
  0
VERTEX
  5
CC
  8
1
 10
-2417.028632
 20
-718.500661
 30
0.0
 70
0
  0
VERTEX
  5
CD
  8
1
 10
-2418.679093
 20
-720.708235
 30
0.0
 70
0
  0
VERTEX
  5
CE
  8
1
 10
-2420.148868
 20
-723.092208
 30
0.0
 70
0
  0
VERTEX
  5
CF
  8
1
 10
-2421.498524
 20
-725.785428
 30
0.0
 70
0
  0
VERTEX
  5
D0
  8
1
 10
-2422.670731
 20
-728.691634
 30
0.0
 70
0
  0
VERTEX
  5
D1
  8
1
 10
-2423.70034
 20
-731.916395
 30
0.0
 70
0
  0
VERTEX
  5
D2
  8
1
 10
-2424.592973
 20
-735.564844
 30
0.0
 70
0
  0
VERTEX
  5
D3
  8
1
 10
-2425.315424
 20
-739.626013
 30
0.0
 70
0
  0
VERTEX
  5
D4
  8
1
 10
-2425.851196
 20
-744.141893
 30
0.0
 70
0
  0
VERTEX
  5
D5
  8
1
 10
-2426.175474
 20
-749.017215
 30
0.0
 70
0
  0
VERTEX
  5
D6
  8
1
 10
-2426.282864
 20
-754.551646
 30
0.0
 70
0
  0
VERTEX
  5
D7
  8
1
 10
-2426.14334
 20
-760.798574
 30
0.0
 70
0
  0
VERTEX
  5
D8
  8
1
 10
-2425.703097
 20
-768.396482
 30
0.0
 70
0
  0
VERTEX
  5
D9
  8
1
 10
-2424.940711
 20
-777.226169
 30
0.0
 70
0
  0
VERTEX
  5
DA
  8
1
 10
-2423.882048
 20
-786.597637
 30
0.0
 70
0
  0
VERTEX
  5
DB
  8
1
 10
-2422.484276
 20
-796.727729
 30
0.0
 70
0
  0
VERTEX
  5
DC
  8
1
 10
-2420.139976
 20
-811.644123
 30
0.0
 70
0
  0
VERTEX
  5
DD
  8
1
 10
-2418.900299
 20
-819.600983
 30
0.0
 70
0
  0
VERTEX
  5
DE
  8
1
 10
-2421.031989
 20
-819.911415
 30
0.0
 70
0
  0
VERTEX
  5
DF
  8
1
 10
-2435.687458
 20
-821.913294
 30
0.0
 70
0
  0
VERTEX
  5
E0
  8
1
 10
-2450.582821
 20
-823.760063
 30
0.0
 70
0
  0
VERTEX
  5
E1
  8
1
 10
-2465.929136
 20
-825.444247
 30
0.0
 70
0
  0
VERTEX
  5
E2
  8
1
 10
-2479.744824
 20
-826.719322
 30
0.0
 70
0
  0
VERTEX
  5
E3
  8
1
 10
-2493.962453
 20
-827.769132
 30
0.0
 70
0
  0
VERTEX
  5
E4
  8
1
 10
-2508.767149
 20
-828.597937
 30
0.0
 70
0
  0
VERTEX
  5
E5
  8
1
 10
-2523.682366
 20
-829.180723
 30
0.0
 70
0
  0
VERTEX
  5
E6
  8
1
 10
-2539.073479
 20
-829.547832
 30
0.0
 70
0
  0
VERTEX
  5
E7
  8
1
 10
-2554.475417
 20
-829.719103
 30
0.0
 70
0
  0
VERTEX
  5
E8
  8
1
 10
-2569.870789
 20
-829.732378
 30
0.0
 70
0
  0
VERTEX
  5
E9
  8
1
 10
-2585.154246
 20
-829.621635
 30
0.0
 70
0
  0
VERTEX
  5
EA
  8
1
 10
-2600.548264
 20
-829.42291
 30
0.0
 70
0
  0
VERTEX
  5
EB
  8
1
 10
-2615.80992
 20
-829.182221
 30
0.0
 70
0
  0
VERTEX
  5
EC
  8
1
 10
-2631.202826
 20
-828.913095
 30
0.0
 70
0
  0
VERTEX
  5
ED
  8
1
 10
-2646.375091
 20
-828.609616
 30
0.0
 70
0
  0
VERTEX
  5
EE
  8
1
 10
-2661.766268
 20
-828.249085
 30
0.0
 70
0
  0
VERTEX
  5
EF
  8
1
 10
-2676.964723
 20
-827.828051
 30
0.0
 70
0
  0
VERTEX
  5
F0
  8
1
 10
-2692.352165
 20
-827.337186
 30
0.0
 70
0
  0
VERTEX
  5
F1
  8
1
 10
-2707.499073
 20
-826.809912
 30
0.0
 70
0
  0
VERTEX
  5
F2
  8
1
 10
-2722.884128
 20
-826.248456
 30
0.0
 70
0
  0
VERTEX
  5
F3
  8
1
 10
-2738.234238
 20
-825.67827
 30
0.0
 70
0
  0
VERTEX
  5
F4
  8
1
 10
-2753.618826
 20
-825.107394
 30
0.0
 70
0
  0
VERTEX
  5
F5
  8
1
 10
-2768.78965
 20
-824.548713
 30
0.0
 70
0
  0
VERTEX
  5
F6
  8
1
 10
-2784.174707
 20
-823.987831
 30
0.0
 70
0
  0
VERTEX
  5
F7
  8
1
 10
-2799.506565
 20
-823.433438
 30
0.0
 70
0
  0
VERTEX
  5
F8
  8
1
 10
-2814.891947
 20
-822.88087
 30
0.0
 70
0
  0
VERTEX
  5
F9
  8
1
 10
-2830.430073
 20
-822.326642
 30
0.0
 70
0
  0
VERTEX
  5
FA
  8
1
 10
-2845.815657
 20
-821.781568
 30
0.0
 70
0
  0
VERTEX
  5
FB
  8
1
 10
-2861.132942
 20
-821.242247
 30
0.0
 70
0
  0
VERTEX
  5
FC
  8
1
 10
-2876.518817
 20
-820.7038
 30
0.0
 70
0
  0
VERTEX
  5
FD
  8
1
 10
-2891.774437
 20
-820.173822
 30
0.0
 70
0
  0
VERTEX
  5
FE
  8
1
 10
-2906.978578
 20
-819.649621
 30
0.0
 70
0
  0
SEQEND
  5
33
  8
1
  0
POLYLINE
  5
FF
  8
14
 66
1
 10
0.0
 20
0.0
 30
0.0
 70
1
  0
VERTEX
  5
101
  8
14
 10
-2922.345886
 20
-806.415405
 30
0.0
 70
0
  0
VERTEX
  5
102
  8
14
 10
-2922.345886
 20
-806.415405
 30
0.0
 70
0
  0
VERTEX
  5
103
  8
14
 10
-2924.257438
 20
-806.356493
 30
0.0
 70
0
  0
VERTEX
  5
104
  8
14
 10
-2938.508876
 20
-805.907941
 30
0.0
 70
0
  0
VERTEX
  5
105
  8
14
 10
-2952.971862
 20
-805.44231
 30
0.0
 70
0
  0
VERTEX
  5
106
  8
14
 10
-2967.974837
 20
-804.950397
 30
0.0
 70
0
  0
VERTEX
  5
107
  8
14
 10
-2985.357629
 20
-804.370062
 30
0.0
 70
0
  0
VERTEX
  5
108
  8
14
 10
-3000.786775
 20
-803.845923
 30
0.0
 70
0
  0
VERTEX
  5
109
  8
14
 10
-3017.412389
 20
-803.271695
 30
0.0
 70
0
  0
VERTEX
  5
10A
  8
14
 10
-3035.089235
 20
-802.650268
 30
0.0
 70
0
  0
VERTEX
  5
10B
  8
14
 10
-3053.672201
 20
-801.984531
 30
0.0
 70
0
  0
VERTEX
  5
10C
  8
14
 10
-3073.016045
 20
-801.277375
 30
0.0
 70
0
  0
VERTEX
  5
10D
  8
14
 10
-3087.935962
 20
-800.721564
 30
0.0
 70
0
  0
VERTEX
  5
10E
  8
14
 10
-3103.140985
 20
-800.145299
 30
0.0
 70
0
  0
VERTEX
  5
10F
  8
14
 10
-3118.569869
 20
-799.549798
 30
0.0
 70
0
  0
VERTEX
  5
110
  8
14
 10
-3134.161329
 20
-798.936283
 30
0.0
 70
0
  0
VERTEX
  5
111
  8
14
 10
-3149.854195
 20
-798.305969
 30
0.0
 70
0
  0
VERTEX
  5
112
  8
14
 10
-3165.372555
 20
-797.669004
 30
0.0
 70
0
  0
VERTEX
  5
113
  8
14
 10
-3181.078504
 20
-797.010265
 30
0.0
 70
0
  0
VERTEX
  5
114
  8
14
 10
-3196.67988
 20
-796.342995
 30
0.0
 70
0
  0
VERTEX
  5
115
  8
14
 10
-3212.097946
 20
-795.671918
 30
0.0
 70
0
  0
VERTEX
  5
116
  8
14
 10
-3227.253965
 20
-795.001759
 30
0.0
 70
0
  0
VERTEX
  5
117
  8
14
 10
-3246.918356
 20
-794.117804
 30
0.0
 70
0
  0
VERTEX
  5
118
  8
14
 10
-3265.790387
 20
-793.255076
 30
0.0
 70
0
  0
VERTEX
  5
119
  8
14
 10
-3283.683466
 20
-792.424773
 30
0.0
 70
0
  0
VERTEX
  5
11A
  8
14
 10
-3300.411004
 20
-791.638091
 30
0.0
 70
0
  0
VERTEX
  5
11B
  8
14
 10
-3319.397121
 20
-790.733143
 30
0.0
 70
0
  0
VERTEX
  5
11C
  8
14
 10
-3335.906098
 20
-789.935721
 30
0.0
 70
0
  0
VERTEX
  5
11D
  8
14
 10
-3351.933924
 20
-789.151544
 30
0.0
 70
0
  0
VERTEX
  5
11E
  8
14
 10
-3369.968872
 20
-788.254318
 30
0.0
 70
0
  0
VERTEX
  5
11F
  8
14
 10
-3369.968872
 20
-788.254318
 30
0.0
 70
0
  0
VERTEX
  5
120
  8
14
 10
-3369.880431
 20
-769.973395
 30
0.0
 70
0
  0
VERTEX
  5
121
  8
14
 10
-3369.79361
 20
-752.027416
 30
0.0
 70
0
  0
VERTEX
  5
122
  8
14
 10
-3369.707389
 20
-734.20524
 30
0.0
 70
0
  0
VERTEX
  5
123
  8
14
 10
-3369.632737
 20
-718.774571
 30
0.0
 70
0
  0
VERTEX
  5
124
  8
14
 10
-3369.555664
 20
-702.843439
 30
0.0
 70
0
  0
VERTEX
  5
125
  8
14
 10
-3369.478591
 20
-686.912307
 30
0.0
 70
0
  0
VERTEX
  5
126
  8
14
 10
-3369.403939
 20
-671.48162
 30
0.0
 70
0
  0
VERTEX
  5
127
  8
14
 10
-3369.317718
 20
-653.659453
 30
0.0
 70
0
  0
VERTEX
  5
128
  8
14
 10
-3369.243791
 20
-638.378656
 30
0.0
 70
0
  0
VERTEX
  5
129
  8
14
 10
-3369.169952
 20
-623.116099
 30
0.0
 70
0
  0
VERTEX
  5
12A
  8
14
 10
-3369.142456
 20
-617.432556
 30
0.0
 70
0
  0
VERTEX
  5
12B
  8
14
 10
-3369.142456
 20
-617.432556
 30
0.0
 70
0
  0
VERTEX
  5
12C
  8
14
 10
-3345.120599
 20
-616.291776
 30
0.0
 70
0
  0
VERTEX
  5
12D
  8
14
 10
-3327.909538
 20
-615.474436
 30
0.0
 70
0
  0
VERTEX
  5
12E
  8
14
 10
-3307.016968
 20
-614.482264
 30
0.0
 70
0
  0
VERTEX
  5
12F
  8
14
 10
-3291.316011
 20
-613.736637
 30
0.0
 70
0
  0
VERTEX
  5
130
  8
14
 10
-3274.387877
 20
-612.932733
 30
0.0
 70
0
  0
VERTEX
  5
131
  8
14
 10
-3256.396195
 20
-612.078321
 30
0.0
 70
0
  0
VERTEX
  5
132
  8
14
 10
-3237.504587
 20
-611.181173
 30
0.0
 70
0
  0
VERTEX
  5
133
  8
14
 10
-3217.876678
 20
-610.249059
 30
0.0
 70
0
  0
VERTEX
  5
134
  8
14
 10
-3197.676107
 20
-609.289749
 30
0.0
 70
0
  0
VERTEX
  5
135
  8
14
 10
-3177.066461
 20
-608.311012
 30
0.0
 70
0
  0
VERTEX
  5
136
  8
14
 10
-3156.2114
 20
-607.320621
 30
0.0
 70
0
  0
VERTEX
  5
137
  8
14
 10
-3135.27449
 20
-606.326343
 30
0.0
 70
0
  0
VERTEX
  5
138
  8
14
 10
-3114.419429
 20
-605.335952
 30
0.0
 70
0
  0
VERTEX
  5
139
  8
14
 10
-3093.809765
 20
-604.357215
 30
0.0
 70
0
  0
VERTEX
  5
13A
  8
14
 10
-3073.609195
 20
-603.397905
 30
0.0
 70
0
  0
VERTEX
  5
13B
  8
14
 10
-3053.981304
 20
-602.465791
 30
0.0
 70
0
  0
VERTEX
  5
13C
  8
14
 10
-3035.08968
 20
-601.568642
 30
0.0
 70
0
  0
VERTEX
  5
13D
  8
14
 10
-3017.098015
 20
-600.714232
 30
0.0
 70
0
  0
VERTEX
  5
13E
  8
14
 10
-3000.169896
 20
-599.910328
 30
0.0
 70
0
  0
VERTEX
  5
13F
  8
14
 10
-2984.468919
 20
-599.164701
 30
0.0
 70
0
  0
VERTEX
  5
140
  8
14
 10
-2970.158762
 20
-598.485122
 30
0.0
 70
0
  0
VERTEX
  5
141
  8
14
 10
-2951.659174
 20
-597.606591
 30
0.0
 70
0
  0
VERTEX
  5
142
  8
14
 10
-2937.209247
 20
-596.920375
 30
0.0
 70
0
  0
VERTEX
  5
143
  8
14
 10
-2923.625158
 20
-596.275276
 30
0.0
 70
0
  0
VERTEX
  5
144
  8
14
 10
-2922.343445
 20
-596.214409
 30
0.0
 70
0
  0
VERTEX
  5
145
  8
14
 10
-2922.343445
 20
-596.214409
 30
0.0
 70
0
  0
VERTEX
  5
146
  8
14
 10
-2905.506001
 20
-594.887828
 30
0.0
 70
0
  0
VERTEX
  5
147
  8
14
 10
-2889.709472
 20
-593.525259
 30
0.0
 70
0
  0
VERTEX
  5
148
  8
14
 10
-2872.491936
 20
-591.935889
 30
0.0
 70
0
  0
VERTEX
  5
149
  8
14
 10
-2855.595688
 20
-590.275684
 30
0.0
 70
0
  0
VERTEX
  5
14A
  8
14
 10
-2840.239774
 20
-588.680387
 30
0.0
 70
0
  0
VERTEX
  5
14B
  8
14
 10
-2823.911693
 20
-586.891144
 30
0.0
 70
0
  0
VERTEX
  5
14C
  8
14
 10
-2806.787319
 20
-584.906636
 30
0.0
 70
0
  0
VERTEX
  5
14D
  8
14
 10
-2789.042468
 20
-582.725539
 30
0.0
 70
0
  0
VERTEX
  5
14E
  8
14
 10
-2770.853023
 20
-580.346537
 30
0.0
 70
0
  0
VERTEX
  5
14F
  8
14
 10
-2752.394797
 20
-577.768306
 30
0.0
 70
0
  0
VERTEX
  5
150
  8
14
 10
-2735.232566
 20
-575.204741
 30
0.0
 70
0
  0
VERTEX
  5
151
  8
14
 10
-2716.789779
 20
-572.263953
 30
0.0
 70
0
  0
VERTEX
  5
152
  8
14
 10
-2698.750522
 20
-569.223444
 30
0.0
 70
0
  0
VERTEX
  5
153
  8
14
 10
-2681.422207
 20
-566.168029
 30
0.0
 70
0
  0
VERTEX
  5
154
  8
14
 10
-2665.11225
 20
-563.182521
 30
0.0
 70
0
  0
VERTEX
  5
155
  8
14
 10
-2650.128098
 20
-560.351742
 30
0.0
 70
0
  0
VERTEX
  5
156
  8
14
 10
-2634.330045
 20
-557.278471
 30
0.0
 70
0
  0
VERTEX
  5
157
  8
14
 10
-2619.580226
 20
-554.324498
 30
0.0
 70
0
  0
VERTEX
  5
158
  8
14
 10
-2605.101013
 20
-551.327553
 30
0.0
 70
0
  0
VERTEX
  5
159
  8
14
 10
-2602.252071
 20
-555.339322
 30
0.0
 70
0
  0
VERTEX
  5
15A
  8
14
 10
-2599.036584
 20
-559.325763
 30
0.0
 70
0
  0
VERTEX
  5
15B
  8
14
 10
-2595.552049
 20
-563.172196
 30
0.0
 70
0
  0
VERTEX
  5
15C
  8
14
 10
-2592.283791
 20
-566.385059
 30
0.0
 70
0
  0
VERTEX
  5
15D
  8
14
 10
-2588.623937
 20
-569.558692
 30
0.0
 70
0
  0
VERTEX
  5
15E
  8
14
 10
-2585.126195
 20
-572.187423
 30
0.0
 70
0
  0
VERTEX
  5
15F
  8
14
 10
-2582.059646
 20
-574.172327
 30
0.0
 70
0
  0
VERTEX
  5
160
  8
14
 10
-2578.697168
 20
-576.028948
 30
0.0
 70
0
  0
VERTEX
  5
161
  8
14
 10
-2575.187238
 20
-577.679629
 30
0.0
 70
0
  0
VERTEX
  5
162
  8
14
 10
-2570.936961
 20
-579.369309
 30
0.0
 70
0
  0
VERTEX
  5
163
  8
14
 10
-2565.919854
 20
-581.024223
 30
0.0
 70
0
  0
VERTEX
  5
164
  8
14
 10
-2560.785264
 20
-582.425726
 30
0.0
 70
0
  0
VERTEX
  5
165
  8
14
 10
-2554.937045
 20
-583.752966
 30
0.0
 70
0
  0
VERTEX
  5
166
  8
14
 10
-2547.60481
 20
-585.130529
 30
0.0
 70
0
  0
VERTEX
  5
167
  8
14
 10
-2539.619762
 20
-586.362893
 30
0.0
 70
0
  0
VERTEX
  5
168
  8
14
 10
-2531.232615
 20
-587.411811
 30
0.0
 70
0
  0
VERTEX
  5
169
  8
14
 10
-2523.27774
 20
-588.179893
 30
0.0
 70
0
  0
VERTEX
  5
16A
  8
14
 10
-2506.630759
 20
-589.737531
 30
0.0
 70
0
  0
VERTEX
  5
16B
  8
14
 10
-2490.413579
 20
-591.331894
 30
0.0
 70
0
  0
VERTEX
  5
16C
  8
14
 10
-2474.424607
 20
-592.976091
 30
0.0
 70
0
  0
VERTEX
  5
16D
  8
14
 10
-2458.93563
 20
-594.647529
 30
0.0
 70
0
  0
VERTEX
  5
16E
  8
14
 10
-2443.743562
 20
-596.379197
 30
0.0
 70
0
  0
VERTEX
  5
16F
  8
14
 10
-2428.187555
 20
-598.249123
 30
0.0
 70
0
  0
VERTEX
  5
170
  8
14
 10
-2411.926983
 20
-600.290285
 30
0.0
 70
0
  0
VERTEX
  5
171
  8
14
 10
-2396.202589
 20
-602.337097
 30
0.0
 70
0
  0
VERTEX
  5
172
  8
14
 10
-2381.087512
 20
-604.369122
 30
0.0
 70
0
  0
VERTEX
  5
173
  8
14
 10
-2372.989655
 20
-605.488625
 30
0.0
 70
0
  0
VERTEX
  5
174
  8
14
 10
-2373.096101
 20
-621.524024
 30
0.0
 70
0
  0
VERTEX
  5
175
  8
14
 10
-2372.953858
 20
-637.128488
 30
0.0
 70
0
  0
VERTEX
  5
176
  8
14
 10
-2372.584222
 20
-651.123661
 30
0.0
 70
0
  0
VERTEX
  5
177
  8
14
 10
-2371.925783
 20
-665.401808
 30
0.0
 70
0
  0
VERTEX
  5
178
  8
14
 10
-2370.994639
 20
-680.391479
 30
0.0
 70
0
  0
VERTEX
  5
179
  8
14
 10
-2370.348969
 20
-688.892136
 30
0.0
 70
0
  0
VERTEX
  5
17A
  8
14
 10
-2376.486611
 20
-689.977381
 30
0.0
 70
0
  0
VERTEX
  5
17B
  8
14
 10
-2382.760373
 20
-691.446798
 30
0.0
 70
0
  0
VERTEX
  5
17C
  8
14
 10
-2388.773027
 20
-693.175742
 30
0.0
 70
0
  0
VERTEX
  5
17D
  8
14
 10
-2394.495487
 20
-695.143931
 30
0.0
 70
0
  0
VERTEX
  5
17E
  8
14
 10
-2399.578995
 20
-697.201565
 30
0.0
 70
0
  0
VERTEX
  5
17F
  8
14
 10
-2404.690169
 20
-699.628316
 30
0.0
 70
0
  0
VERTEX
  5
180
  8
14
 10
-2408.876889
 20
-701.951038
 30
0.0
 70
0
  0
VERTEX
  5
181
  8
14
 10
-2412.917421
 20
-704.562676
 30
0.0
 70
0
  0
VERTEX
  5
182
  8
14
 10
-2415.99406
 20
-706.869953
 30
0.0
 70
0
  0
VERTEX
  5
183
  8
14
 10
-2418.890527
 20
-709.379199
 30
0.0
 70
0
  0
VERTEX
  5
184
  8
14
 10
-2421.568324
 20
-712.097994
 30
0.0
 70
0
  0
VERTEX
  5
185
  8
14
 10
-2423.988957
 20
-715.03392
 30
0.0
 70
0
  0
VERTEX
  5
186
  8
14
 10
-2426.027734
 20
-718.049018
 30
0.0
 70
0
  0
VERTEX
  5
187
  8
14
 10
-2427.865277
 20
-721.416217
 30
0.0
 70
0
  0
VERTEX
  5
188
  8
14
 10
-2429.41801
 20
-724.980669
 30
0.0
 70
0
  0
VERTEX
  5
189
  8
14
 10
-2430.704855
 20
-728.721749
 30
0.0
 70
0
  0
VERTEX
  5
18A
  8
14
 10
-2431.744736
 20
-732.618841
 30
0.0
 70
0
  0
VERTEX
  5
18B
  8
14
 10
-2432.556581
 20
-736.651329
 30
0.0
 70
0
  0
VERTEX
  5
18C
  8
14
 10
-2433.279541
 20
-741.850928
 30
0.0
 70
0
  0
VERTEX
  5
18D
  8
14
 10
-2433.712729
 20
-747.189601
 30
0.0
 70
0
  0
VERTEX
  5
18E
  8
14
 10
-2433.9021
 20
-753.72289
 30
0.0
 70
0
  0
VERTEX
  5
18F
  8
14
 10
-2433.7913
 20
-760.32888
 30
0.0
 70
0
  0
VERTEX
  5
190
  8
14
 10
-2433.367866
 20
-768.034935
 30
0.0
 70
0
  0
VERTEX
  5
191
  8
14
 10
-2432.588055
 20
-777.02477
 30
0.0
 70
0
  0
VERTEX
  5
192
  8
14
 10
-2431.441972
 20
-787.255781
 30
0.0
 70
0
  0
VERTEX
  5
193
  8
14
 10
-2429.925591
 20
-798.484823
 30
0.0
 70
0
  0
VERTEX
  5
194
  8
14
 10
-2428.419037
 20
-808.062592
 30
0.0
 70
0
  0
VERTEX
  5
195
  8
14
 10
-2442.173104
 20
-809.907997
 30
0.0
 70
0
  0
VERTEX
  5
196
  8
14
 10
-2458.067498
 20
-811.817565
 30
0.0
 70
0
  0
VERTEX
  5
197
  8
14
 10
-2472.799607
 20
-813.355416
 30
0.0
 70
0
  0
VERTEX
  5
198
  8
14
 10
-2486.770749
 20
-814.547402
 30
0.0
 70
0
  0
VERTEX
  5
199
  8
14
 10
-2501.986872
 20
-815.539254
 30
0.0
 70
0
  0
VERTEX
  5
19A
  8
14
 10
-2517.22677
 20
-816.248867
 30
0.0
 70
0
  0
VERTEX
  5
19B
  8
14
 10
-2532.485541
 20
-816.712188
 30
0.0
 70
0
  0
VERTEX
  5
19C
  8
14
 10
-2547.758325
 20
-816.965166
 30
0.0
 70
0
  0
VERTEX
  5
19D
  8
14
 10
-2563.040258
 20
-817.043749
 30
0.0
 70
0
  0
VERTEX
  5
19E
  8
14
 10
-2578.326478
 20
-816.983887
 30
0.0
 70
0
  0
VERTEX
  5
19F
  8
14
 10
-2593.612123
 20
-816.821529
 30
0.0
 70
0
  0
VERTEX
  5
1A0
  8
14
 10
-2608.892291
 20
-816.592624
 30
0.0
 70
0
  0
VERTEX
  5
1A1
  8
14
 10
-2624.814663
 20
-816.32112
 30
0.0
 70
0
  0
VERTEX
  5
1A2
  8
14
 10
-2640.073298
 20
-816.038555
 30
0.0
 70
0
  0
VERTEX
  5
1A3
  8
14
 10
-2655.325902
 20
-815.708633
 30
0.0
 70
0
  0
VERTEX
  5
1A4
  8
14
 10
-2670.524158
 20
-815.310031
 30
0.0
 70
0
  0
VERTEX
  5
1A5
  8
14
 10
-2685.775205
 20
-814.845347
 30
0.0
 70
0
  0
VERTEX
  5
1A6
  8
14
 10
-2701.026124
 20
-814.331487
 30
0.0
 70
0
  0
VERTEX
  5
1A7
  8
14
 10
-2716.276876
 20
-813.784112
 30
0.0
 70
0
  0
VERTEX
  5
1A8
  8
14
 10
-2731.527458
 20
-813.218885
 30
0.0
 70
0
  0
VERTEX
  5
1A9
  8
14
 10
-2747.072074
 20
-812.640221
 30
0.0
 70
0
  0
VERTEX
  5
1AA
  8
14
 10
-2762.269597
 20
-812.07951
 30
0.0
 70
0
  0
VERTEX
  5
1AB
  8
14
 10
-2777.324249
 20
-811.528804
 30
0.0
 70
0
  0
VERTEX
  5
1AC
  8
14
 10
-2793.973001
 20
-810.924796
 30
0.0
 70
0
  0
VERTEX
  5
1AD
  8
14
 10
-2810.188366
 20
-810.341176
 30
0.0
 70
0
  0
VERTEX
  5
1AE
  8
14
 10
-2825.836605
 20
-809.782037
 30
0.0
 70
0
  0
VERTEX
  5
1AF
  8
14
 10
-2842.395731
 20
-809.194459
 30
0.0
 70
0
  0
VERTEX
  5
1B0
  8
14
 10
-2857.906201
 20
-808.647765
 30
0.0
 70
0
  0
VERTEX
  5
1B1
  8
14
 10
-2873.537569
 20
-808.100321
 30
0.0
 70
0
  0
VERTEX
  5
1B2
  8
14
 10
-2889.755081
 20
-807.53609
 30
0.0
 70
0
  0
VERTEX
  5
1B3
  8
14
 10
-2905.792723
 20
-806.982071
 30
0.0
 70
0
  0
SEQEND
  5
100
  8
14
  0
POLYLINE
  5
1B4
  8
8
 66
1
 10
0.0
 20
0.0
 30
0.0
 70
0
  0
VERTEX
  5
1B6
  8
8
 10
-3369.555664
 20
-706.611252
 30
0.0
 70
0
  0
VERTEX
  5
1B7
  8
8
 10
-3351.573189
 20
-706.66167
 30
0.0
 70
0
  0
VERTEX
  5
1B8
  8
8
 10
-3334.42039
 20
-706.707716
 30
0.0
 70
0
  0
VERTEX
  5
1B9
  8
8
 10
-3317.106214
 20
-706.752688
 30
0.0
 70
0
  0
VERTEX
  5
1BA
  8
8
 10
-3296.874021
 20
-706.803531
 30
0.0
 70
0
  0
VERTEX
  5
1BB
  8
8
 10
-3279.937519
 20
-706.844761
 30
0.0
 70
0
  0
VERTEX
  5
1BC
  8
8
 10
-3261.609333
 20
-706.888059
 30
0.0
 70
0
  0
VERTEX
  5
1BD
  8
8
 10
-3241.996478
 20
-706.932896
 30
0.0
 70
0
  0
VERTEX
  5
1BE
  8
8
 10
-3221.205953
 20
-706.97874
 30
0.0
 70
0
  0
VERTEX
  5
1BF
  8
8
 10
-3199.344805
 20
-707.025065
 30
0.0
 70
0
  0
VERTEX
  5
1C0
  8
8
 10
-3176.520034
 20
-707.071339
 30
0.0
 70
0
  0
VERTEX
  5
1C1
  8
8
 10
-3160.821022
 20
-707.1019
 30
0.0
 70
0
  0
VERTEX
  5
1C2
  8
8
 10
-3144.773003
 20
-707.132046
 30
0.0
 70
0
  0
VERTEX
  5
1C3
  8
8
 10
-3128.407687
 20
-707.161621
 30
0.0
 70
0
  0
VERTEX
  5
1C4
  8
8
 10
-3111.756781
 20
-707.190468
 30
0.0
 70
0
  0
VERTEX
  5
1C5
  8
8
 10
-3094.851995
 20
-707.21843
 30
0.0
 70
0
  0
VERTEX
  5
1C6
  8
8
 10
-3077.725035
 20
-707.24535
 30
0.0
 70
0
  0
VERTEX
  5
1C7
  8
8
 10
-3060.407611
 20
-707.271072
 30
0.0
 70
0
  0
VERTEX
  5
1C8
  8
8
 10
-3042.931431
 20
-707.295439
 30
0.0
 70
0
  0
VERTEX
  5
1C9
  8
8
 10
-3025.328204
 20
-707.318294
 30
0.0
 70
0
  0
VERTEX
  5
1CA
  8
8
 10
-3007.629636
 20
-707.339479
 30
0.0
 70
0
  0
VERTEX
  5
1CB
  8
8
 10
-2989.867437
 20
-707.358839
 30
0.0
 70
0
  0
VERTEX
  5
1CC
  8
8
 10
-2972.073316
 20
-707.376215
 30
0.0
 70
0
  0
VERTEX
  5
1CD
  8
8
 10
-2954.160895
 20
-707.391591
 30
0.0
 70
0
  0
VERTEX
  5
1CE
  8
8
 10
-2936.406044
 20
-707.404822
 30
0.0
 70
0
  0
VERTEX
  5
1CF
  8
8
 10
-2918.72776
 20
-707.416122
 30
0.0
 70
0
  0
VERTEX
  5
1D0
  8
8
 10
-2901.16433
 20
-707.425598
 30
0.0
 70
0
  0
VERTEX
  5
1D1
  8
8
 10
-2883.754038
 20
-707.433355
 30
0.0
 70
0
  0
VERTEX
  5
1D2
  8
8
 10
-2866.53517
 20
-707.439497
 30
0.0
 70
0
  0
VERTEX
  5
1D3
  8
8
 10
-2849.546011
 20
-707.444131
 30
0.0
 70
0
  0
VERTEX
  5
1D4
  8
8
 10
-2832.824846
 20
-707.447361
 30
0.0
 70
0
  0
VERTEX
  5
1D5
  8
8
 10
-2816.40996
 20
-707.449293
 30
0.0
 70
0
  0
VERTEX
  5
1D6
  8
8
 10
-2800.339638
 20
-707.450032
 30
0.0
 70
0
  0
VERTEX
  5
1D7
  8
8
 10
-2784.652166
 20
-707.449683
 30
0.0
 70
0
  0
VERTEX
  5
1D8
  8
8
 10
-2769.385828
 20
-707.448352
 30
0.0
 70
0
  0
VERTEX
  5
1D9
  8
8
 10
-2754.57891
 20
-707.446144
 30
0.0
 70
0
  0
VERTEX
  5
1DA
  8
8
 10
-2733.313635
 20
-707.441418
 30
0.0
 70
0
  0
VERTEX
  5
1DB
  8
8
 10
-2713.297471
 20
-707.43531
 30
0.0
 70
0
  0
VERTEX
  5
1DC
  8
8
 10
-2694.659568
 20
-707.428177
 30
0.0
 70
0
  0
VERTEX
  5
1DD
  8
8
 10
-2677.529139
 20
-707.420374
 30
0.0
 70
0
  0
VERTEX
  5
1DE
  8
8
 10
-2662.035396
 20
-707.412256
 30
0.0
 70
0
  0
VERTEX
  5
1DF
  8
8
 10
-2644.146358
 20
-707.401557
 30
0.0
 70
0
  0
VERTEX
  5
1E0
  8
8
 10
-2629.702977
 20
-707.391772
 30
0.0
 70
0
  0
VERTEX
  5
1E1
  8
8
 10
-2615.168501
 20
-707.380652
 30
0.0
 70
0
  0
VERTEX
  5
1E2
  8
8
 10
-2610.109558
 20
-707.376328
 30
0.0
 70
0
  0
SEQEND
  5
1B5
  8
8
  0
POLYLINE
  5
1E3
  8
8
 66
1
 10
0.0
 20
0.0
 30
0.0
 70
0
  0
VERTEX
  5
1E5
  8
8
 10
-2523.27774
 20
-588.179626
 30
0.0
 70
0
  0
VERTEX
  5
1E6
  8
8
 10
-2543.083344
 20
-816.887741
 30
0.0
 70
0
  0
SEQEND
  5
1E4
  8
8
  0
POLYLINE
  5
1E7
  8
8
 66
1
 10
0.0
 20
0.0
 30
0.0
 70
0
  0
VERTEX
  5
1E9
  8
8
 10
-2922.343445
 20
-596.214409
 30
0.0
 70
0
  0
VERTEX
  5
1EA
  8
8
 10
-2922.343445
 20
-613.992427
 30
0.0
 70
0
  0
VERTEX
  5
1EB
  8
8
 10
-2922.343445
 20
-630.669464
 30
0.0
 70
0
  0
VERTEX
  5
1EC
  8
8
 10
-2922.343445
 20
-646.753724
 30
0.0
 70
0
  0
VERTEX
  5
1ED
  8
8
 10
-2922.343445
 20
-662.310773
 30
0.0
 70
0
  0
VERTEX
  5
1EE
  8
8
 10
-2922.343445
 20
-678.828025
 30
0.0
 70
0
  0
VERTEX
  5
1EF
  8
8
 10
-2922.343445
 20
-695.900535
 30
0.0
 70
0
  0
VERTEX
  5
1F0
  8
8
 10
-2922.343445
 20
-712.137453
 30
0.0
 70
0
  0
VERTEX
  5
1F1
  8
8
 10
-2922.343445
 20
-729.121694
 30
0.0
 70
0
  0
VERTEX
  5
1F2
  8
8
 10
-2922.343445
 20
-745.445364
 30
0.0
 70
0
  0
VERTEX
  5
1F3
  8
8
 10
-2922.343445
 20
-760.68805
 30
0.0
 70
0
  0
VERTEX
  5
1F4
  8
8
 10
-2922.343445
 20
-776.245396
 30
0.0
 70
0
  0
VERTEX
  5
1F5
  8
8
 10
-2922.343445
 20
-791.978531
 30
0.0
 70
0
  0
VERTEX
  5
1F6
  8
8
 10
-2922.343445
 20
-806.415405
 30
0.0
 70
0
  0
SEQEND
  5
1E8
  8
8
  0
POLYLINE
  5
1F7
  8
8
 66
1
 10
0.0
 20
0.0
 30
0.0
 70
0
  0
VERTEX
  5
1F9
  8
8
 10
-2605.101013
 20
-551.327553
 30
0.0
 70
0
  0
VERTEX
  5
1FA
  8
8
 10
-2612.769775
 20
-816.496201
 30
0.0
 70
0
  0
SEQEND
  5
1F8
  8
8
  0
POINT
  5
1FB
  8
4
 10
-2922.737122
 20
-819.109421
 30
0.0
  0
POINT
  5
1FC
  8
4
 10
-3370.030518
 20
-800.966873
 30
0.0
  0
POINT
  5
1FD
  8
4
 10
-3369.080811
 20
-604.715309
 30
0.0
  0
POINT
  5
1FE
  8
4
 10
-2922.945862
 20
-583.528709
 30
0.0
  0
POINT
  5
1FF
  8
4
 10
-2922.345886
 20
-806.415405
 30
0.0
  0
POINT
  5
200
  8
4
 10
-3369.968872
 20
-788.254318
 30
0.0
  0
POINT
  5
201
  8
4
 10
-3369.142456
 20
-617.432556
 30
0.0
  0
POINT
  5
202
  8
4
 10
-2922.343445
 20
-596.214409
 30
0.0
  0
LINE
  5
203
  8
7
 10
-3341.298828
 20
-702.162857
 30
0.0
 11
-2446.712189
 21
-702.162857
 31
0.0
  0
ENDSEC
  0
EOF
