  0
SECTION
  2
HEADER
  9
$ACADVER
  1
AC1009
  9
$DWGCODEPAGE
  3
ANSI_1252
  9
$INSBASE
 10
0.0
 20
0.0
 30
0.0
  9
$EXTMIN
 10
1e+20
 20
1e+20
 30
1e+20
  9
$EXTMAX
 10
-1e+20
 20
-1e+20
 30
-1e+20
  9
$LIMMIN
 10
0.0
 20
0.0
  9
$LIMMAX
 10
420.0
 20
297.0
  9
$ORTHOMODE
 70
0
  9
$REGENMODE
 70
1
  9
$FILLMODE
 70
1
  9
$DRAGMODE
 70
2
  9
$QTEXTMODE
 70
0
  9
$MIRRTEXT
 70
1
  9
$OSMODE
 70
20583
  9
$LTSCALE
 40
1.0
  9
$ATTMODE
 70
1
  9
$TEXTSIZE
 40
2.5
  9
$TRACEWID
 40
1.0
  9
$TEXTSTYLE
  7
Standard
  9
$CLAYER
  8
0
  9
$CELTYPE
  6
ByLayer
  9
$CECOLOR
 62
256
  9
$DIMSCALE
 40
1.0
  9
$DIMASZ
 40
2.5
  9
$DIMEXO
 40
0.625
  9
$DIMDLI
 40
3.75
  9
$DIMRND
 40
0.0
  9
$DIMDLE
 40
0.0
  9
$DIMEXE
 40
1.25
  9
$DIMTP
 40
0.0
  9
$DIMTM
 40
0.0
  9
$DIMTXT
 40
2.5
  9
$DIMCEN
 40
2.5
  9
$DIMTSZ
 40
0.0
  9
$DIMTOL
 70
0
  9
$DIMLIM
 70
0
  9
$DIMTIH
 70
0
  9
$DIMTOH
 70
0
  9
$DIMSE1
 70
0
  9
$DIMSE2
 70
0
  9
$DIMTAD
 70
1
  9
$DIMZIN
 70
8
  9
$DIMBLK
  1

  9
$DIMASO
 70
1
  9
$DIMSHO
 70
1
  9
$DIMPOST
  1

  9
$DIMAPOST
  1

  9
$DIMALT
 70
0
  9
$DIMALTD
 70
3
  9
$DIMALTF
 40
0.03937007874
  9
$DIMLFAC
 40
1.0
  9
$DIMTOFL
 70
1
  9
$DIMTVP
 40
0.0
  9
$DIMTIX
 70
0
  9
$DIMSOXD
 70
0
  9
$DIMSAH
 70
0
  9
$DIMBLK1
  1

  9
$DIMBLK2
  1

  9
$DIMSTYLE
  2
ISO-25
  9
$DIMCLRD
 70
0
  9
$DIMCLRE
 70
0
  9
$DIMCLRT
 70
0
  9
$DIMTFAC
 40
1.0
  9
$DIMGAP
 40
0.625
  9
$COORDS
 70
1
  9
$ATTDIA
 70
0
  9
$ATTREQ
 70
1
  9
$HANDLING
 70
1
  9
$LUNITS
 70
2
  9
$LUPREC
 70
4
  9
$SKETCHINC
 40
1.0
  9
$FILLETRAD
 40
10.0
  9
$AUNITS
 70
0
  9
$AUPREC
 70
2
  9
$MENU
  1
.
  9
$ELEVATION
 40
0.0
  9
$PELEVATION
 40
0.0
  9
$THICKNESS
 40
0.0
  9
$LIMCHECK
 70
0
  9
$CHAMFERA
 40
0.0
  9
$CHAMFERB
 40
0.0
  9
$SKPOLY
 70
0
  9
$TDCREATE
 40
2461259.4353935183
  9
$TDUPDATE
 40
2461259.4353935183
  9
$TDINDWG
 40
0.0
  9
$TDUSRTIMER
 40
0.0
  9
$USRTIMER
 70
1
  9
$ANGBASE
 50
0.0
  9
$ANGDIR
 70
0
  9
$PDMODE
 70
0
  9
$PDSIZE
 40
0.0
  9
$PLINEWID
 40
0.0
  9
$SPLFRAME
 70
0
  9
$SPLINETYPE
 70
6
  9
$SPLINESEGS
 70
8
  9
$HANDSEED
  5
10A
  9
$SURFTAB1
 70
6
  9
$SURFTAB2
 70
6
  9
$SURFTYPE
 70
6
  9
$SURFU
 70
6
  9
$SURFV
 70
6
  9
$UCSNAME
  2

  9
$UCSORG
 10
0.0
 20
0.0
 30
0.0
  9
$UCSXDIR
 10
1.0
 20
0.0
 30
0.0
  9
$UCSYDIR
 10
0.0
 20
1.0
 30
0.0
  9
$PUCSNAME
  2

  9
$PUCSORG
 10
0.0
 20
0.0
 30
0.0
  9
$PUCSXDIR
 10
1.0
 20
0.0
 30
0.0
  9
$PUCSYDIR
 10
0.0
 20
1.0
 30
0.0
  9
$USERI1
 70
0
  9
$USERI2
 70
0
  9
$USERI3
 70
0
  9
$USERI4
 70
0
  9
$USERI5
 70
0
  9
$USERR1
 40
0.0
  9
$USERR2
 40
0.0
  9
$USERR3
 40
0.0
  9
$USERR4
 40
0.0
  9
$USERR5
 40
0.0
  9
$WORLDVIEW
 70
1
  9
$SHADEDGE
 70
3
  9
$SHADEDIF
 70
70
  9
$TILEMODE
 70
1
  9
$MAXACTVP
 70
64
  9
$PLIMCHECK
 70
0
  9
$PEXTMIN
 10
1e+20
 20
1e+20
 30
1e+20
  9
$PEXTMAX
 10
-1e+20
 20
-1e+20
 30
-1e+20
  9
$PLIMMIN
 10
0.0
 20
0.0
  9
$PLIMMAX
 10
420.0
 20
297.0
  9
$UNITMODE
 70
0
  9
$VISRETAIN
 70
1
  9
$PLINEGEN
 70
0
  9
$PSLTSCALE
 70
1
  0
ENDSEC
  0
SECTION
  2
TABLES
  0
TABLE
  2
VPORT
 70
1
  0
VPORT
  5
23
  2
*Active
 70
0
 10
0.0
 20
0.0
 11
1.0
 21
1.0
 12
0.0
 22
0.0
 13
0.0
 23
0.0
 14
0.5
 24
0.5
 15
0.5
 25
0.5
 16
0.0
 26
0.0
 36
1.0
 17
0.0
 27
0.0
 37
0.0
 40
1000.0
 41
1.34
 42
50.0
 43
0.0
 44
0.0
 50
0.0
 51
0.0
 71
0
 72
1000
 73
1
 74
3
 75
0
 76
0
 77
0
 78
0
  0
ENDTAB
  0
TABLE
  2
LTYPE
 70
3
  0
LTYPE
  5
24
  2
ByBlock
 70
0
  3

 72
65
 73
0
 40
0.0
  0
LTYPE
  5
25
  2
ByLayer
 70
0
  3

 72
65
 73
0
 40
0.0
  0
LTYPE
  5
26
  2
Continuous
 70
0
  3

 72
65
 73
0
 40
0.0
  0
ENDTAB
  0
TABLE
  2
LAYER
 70
4
  0
LAYER
  5
27
  2
0
 70
0
 62
7
  6
Continuous
  0
LAYER
  5
28
  2
Defpoints
 70
0
 62
7
  6
Continuous
  0
LAYER
  5
2D
  2
1
 70
0
 62
1
  6
Continuous
  0
LAYER
  5
2E
  2
7
 70
0
 62
7
  6
Continuous
  0
ENDTAB
  0
TABLE
  2
STYLE
 70
1
  0
STYLE
  5
29
  2
Standard
 70
0
 40
0.0
 41
1.0
 50
0.0
 71
0
 42
2.5
  3
txt
  4

  0
ENDTAB
  0
TABLE
  2
VIEW
 70
0
  0
ENDTAB
  0
TABLE
  2
UCS
 70
0
  0
ENDTAB
  0
TABLE
  2
APPID
 70
3
  0
APPID
  5
2A
  2
ACAD
 70
0
  0
APPID
  5
108
  2
HATCHBACKGROUNDCOLOR
 70
0
  0
APPID
  5
109
  2
EZDXF
 70
0
  0
ENDTAB
  0
TABLE
  2
DIMSTYLE
 70
1
  0
DIMSTYLE
105
2B
  2
Standard
 70
0
  3

  4

  5

  6

  7

 40
1.0
 41
2.5
 42
0.625
 43
3.75
 44
1.25
 45
0.0
 46
0.0
 47
0.0
 48
0.0
140
2.5
141
2.5
142
0.0
143
0.03937007874
144
1.0
145
0.0
146
1.0
147
0.625
 71
0
 72
0
 73
0
 74
0
 75
0
 76
0
 77
1
 78
8
170
0
171
3
172
1
173
0
174
0
175
0
176
0
177
0
178
0
  0
ENDTAB
  0
ENDSEC
  0
SECTION
  2
BLOCKS
  0
BLOCK
  5
18
  8
0
  2
$Model_Space
 70
0
 10
0.0
 20
0.0
 30
0.0
  3
$Model_Space
  1

1001
EZDXF
1000
CREATED_BY_EZDXF
1000
1.4.4 @ 2026-08-06T02:26:58.204014+00:00
1000
WRITTEN_BY_EZDXF
1000
1.4.4 @ 2026-08-06T02:26:58.206014+00:00
  0
ENDBLK
  5
19
  8
0
  0
BLOCK
  5
1C
  8
0
  2
$Paper_Space
 70
0
 10
0.0
 20
0.0
 30
0.0
  3
$Paper_Space
  1

  0
ENDBLK
  5
1D
  8
0
  0
ENDSEC
  0
SECTION
  2
ENTITIES
  0
POLYLINE
  5
2F
  8
1
 66
1
 10
0.0
 20
0.0
 30
0.0
 70
1
  0
VERTEX
  5
31
  8
1
 10
-2922.940369
 20
-836.881714
 30
0.0
 70
0
  0
VERTEX
  5
32
  8
1
 10
-2922.871399
 20
-836.884613
 30
0.0
 70
0
  0
VERTEX
  5
33
  8
1
 10
-2933.166776
 20
-836.458304
 30
0.0
 70
0
  0
VERTEX
  5
34
  8
1
 10
-2948.222254
 20
-835.828632
 30
0.0
 70
0
  0
VERTEX
  5
35
  8
1
 10
-2963.186208
 20
-835.194472
 30
0.0
 70
0
  0
VERTEX
  5
36
  8
1
 10
-2978.189656
 20
-834.548019
 30
0.0
 70
0
  0
VERTEX
  5
37
  8
1
 10
-2993.298149
 20
-833.888046
 30
0.0
 70
0
  0
VERTEX
  5
38
  8
1
 10
-3008.300965
 20
-833.226006
 30
0.0
 70
0
  0
VERTEX
  5
39
  8
1
 10
-3023.322227
 20
-832.555933
 30
0.0
 70
0
  0
VERTEX
  5
3A
  8
1
 10
-3038.324372
 20
-831.87851
 30
0.0
 70
0
  0
VERTEX
  5
3B
  8
1
 10
-3053.333273
 20
-831.192543
 30
0.0
 70
0
  0
VERTEX
  5
3C
  8
1
 10
-3068.33468
 20
-830.498762
 30
0.0
 70
0
  0
VERTEX
  5
3D
  8
1
 10
-3083.852917
 20
-829.772071
 30
0.0
 70
0
  0
VERTEX
  5
3E
  8
1
 10
-3098.603455
 20
-829.072338
 30
0.0
 70
0
  0
VERTEX
  5
3F
  8
1
 10
-3113.664395
 20
-828.348407
 30
0.0
 70
0
  0
VERTEX
  5
40
  8
1
 10
-3128.663927
 20
-827.61743
 30
0.0
 70
0
  0
VERTEX
  5
41
  8
1
 10
-3143.841533
 20
-826.866815
 30
0.0
 70
0
  0
VERTEX
  5
42
  8
1
 10
-3158.840018
 20
-826.113417
 30
0.0
 70
0
  0
VERTEX
  5
43
  8
1
 10
-3174.015274
 20
-825.338776
 30
0.0
 70
0
  0
VERTEX
  5
44
  8
1
 10
-3189.012516
 20
-824.560732
 30
0.0
 70
0
  0
VERTEX
  5
45
  8
1
 10
-3204.389569
 20
-823.750829
 30
0.0
 70
0
  0
VERTEX
  5
46
  8
1
 10
-3219.385559
 20
-822.950074
 30
0.0
 70
0
  0
VERTEX
  5
47
  8
1
 10
-3234.737098
 20
-822.120025
 30
0.0
 70
0
  0
VERTEX
  5
48
  8
1
 10
-3249.732055
 20
-821.299901
 30
0.0
 70
0
  0
VERTEX
  5
49
  8
1
 10
-3265.122214
 20
-820.448885
 30
0.0
 70
0
  0
VERTEX
  5
4A
  8
1
 10
-3280.116175
 20
-819.611046
 30
0.0
 70
0
  0
VERTEX
  5
4B
  8
1
 10
-3295.588381
 20
-818.738054
 30
0.0
 70
0
  0
VERTEX
  5
4C
  8
1
 10
-3310.581456
 20
-817.884422
 30
0.0
 70
0
  0
VERTEX
  5
4D
  8
1
 10
-3326.011393
 20
-816.997961
 30
0.0
 70
0
  0
VERTEX
  5
4E
  8
1
 10
-3341.003599
 20
-816.128482
 30
0.0
 70
0
  0
VERTEX
  5
4F
  8
1
 10
-3355.995297
 20
-815.24967
 30
0.0
 70
0
  0
VERTEX
  5
50
  8
1
 10
-3370.975321
 20
-814.361848
 30
0.0
 70
0
  0
VERTEX
  5
51
  8
1
 10
-3385.262451
 20
-813.509979
 30
0.0
 70
0
  0
VERTEX
  5
52
  8
1
 10
-3386.000994
 20
-813.465925
 30
0.0
 70
0
  0
VERTEX
  5
53
  8
1
 10
-3401.388672
 20
-812.547578
 30
0.0
 70
0
  0
VERTEX
  5
54
  8
1
 10
-3417.0047
 20
-811.615677
 30
0.0
 70
0
  0
VERTEX
  5
55
  8
1
 10
-3416.937672
 20
-795.742253
 30
0.0
 70
0
  0
VERTEX
  5
56
  8
1
 10
-3416.873502
 20
-780.552572
 30
0.0
 70
0
  0
VERTEX
  5
57
  8
1
 10
-3416.808734
 20
-765.225547
 30
0.0
 70
0
  0
VERTEX
  5
58
  8
1
 10
-3416.744544
 20
-750.035869
 30
0.0
 70
0
  0
VERTEX
  5
59
  8
1
 10
-3416.680357
 20
-734.846198
 30
0.0
 70
0
  0
VERTEX
  5
5A
  8
1
 10
-3416.616464
 20
-719.724023
 30
0.0
 70
0
  0
VERTEX
  5
5B
  8
1
 10
-3416.5523
 20
-704.534344
 30
0.0
 70
0
  0
VERTEX
  5
5C
  8
1
 10
-3416.487416
 20
-689.169976
 30
0.0
 70
0
  0
VERTEX
  5
5D
  8
1
 10
-3416.423288
 20
-673.980306
 30
0.0
 70
0
  0
VERTEX
  5
5E
  8
1
 10
-3416.359167
 20
-658.790627
 30
0.0
 70
0
  0
VERTEX
  5
5F
  8
1
 10
-3416.295376
 20
-643.679505
 30
0.0
 70
0
  0
VERTEX
  5
60
  8
1
 10
-3416.231255
 20
-628.489832
 30
0.0
 70
0
  0
VERTEX
  5
61
  8
1
 10
-3416.167472
 20
-613.378435
 30
0.0
 70
0
  0
VERTEX
  5
62
  8
1
 10
-3416.103571
 20
-598.237235
 30
0.0
 70
0
  0
VERTEX
  5
63
  8
1
 10
-3416.085205
 20
-593.885307
 30
0.0
 70
0
  0
VERTEX
  5
64
  8
1
 10
-3400.587488
 20
-593.140752
 30
0.0
 70
0
  0
VERTEX
  5
65
  8
1
 10
-3385.279653
 20
-592.405324
 30
0.0
 70
0
  0
VERTEX
  5
66
  8
1
 10
-3384.328308
 20
-592.359619
 30
0.0
 70
0
  0
VERTEX
  5
67
  8
1
 10
-3370.05594
 20
-591.673946
 30
0.0
 70
0
  0
VERTEX
  5
68
  8
1
 10
-3354.605069
 20
-590.931655
 30
0.0
 70
0
  0
VERTEX
  5
69
  8
1
 10
-3339.463189
 20
-590.204202
 30
0.0
 70
0
  0
VERTEX
  5
6A
  8
1
 10
-3324.246463
 20
-589.473152
 30
0.0
 70
0
  0
VERTEX
  5
6B
  8
1
 10
-3308.79569
 20
-588.73086
 30
0.0
 70
0
  0
VERTEX
  5
6C
  8
1
 10
-3293.381933
 20
-587.990348
 30
0.0
 70
0
  0
VERTEX
  5
6D
  8
1
 10
-3277.931102
 20
-587.248056
 30
0.0
 70
0
  0
VERTEX
  5
6E
  8
1
 10
-3262.890085
 20
-586.525452
 30
0.0
 70
0
  0
VERTEX
  5
6F
  8
1
 10
-3247.439234
 20
-585.783154
 30
0.0
 70
0
  0
VERTEX
  5
70
  8
1
 10
-3232.406696
 20
-585.060953
 30
0.0
 70
0
  0
VERTEX
  5
71
  8
1
 10
-3216.955824
 20
-584.318654
 30
0.0
 70
0
  0
VERTEX
  5
72
  8
1
 10
-3201.938344
 20
-583.597178
 30
0.0
 70
0
  0
VERTEX
  5
73
  8
1
 10
-3186.487485
 20
-582.85488
 30
0.0
 70
0
  0
VERTEX
  5
74
  8
1
 10
-3171.083537
 20
-582.114835
 30
0.0
 70
0
  0
VERTEX
  5
75
  8
1
 10
-3155.632763
 20
-581.37254
 30
0.0
 70
0
  0
VERTEX
  5
76
  8
1
 10
-3140.571652
 20
-580.648966
 30
0.0
 70
0
  0
VERTEX
  5
77
  8
1
 10
-3125.120839
 20
-579.906673
 30
0.0
 70
0
  0
VERTEX
  5
78
  8
1
 10
-3109.979004
 20
-579.179225
 30
0.0
 70
0
  0
VERTEX
  5
79
  8
1
 10
-3094.528115
 20
-578.436931
 30
0.0
 70
0
  0
VERTEX
  5
7A
  8
1
 10
-3079.071667
 20
-577.69437
 30
0.0
 70
0
  0
VERTEX
  5
7B
  8
1
 10
-3063.620837
 20
-576.952077
 30
0.0
 70
0
  0
VERTEX
  5
7C
  8
1
 10
-3048.49845
 20
-576.225563
 30
0.0
 70
0
  0
VERTEX
  5
7D
  8
1
 10
-3033.047564
 20
-575.483265
 30
0.0
 70
0
  0
VERTEX
  5
7E
  8
1
 10
-3018.015034
 20
-574.761062
 30
0.0
 70
0
  0
VERTEX
  5
7F
  8
1
 10
-3002.564252
 20
-574.018761
 30
0.0
 70
0
  0
VERTEX
  5
80
  8
1
 10
-2987.475209
 20
-573.293839
 30
0.0
 70
0
  0
VERTEX
  5
81
  8
1
 10
-2972.024423
 20
-572.55154
 30
0.0
 70
0
  0
VERTEX
  5
82
  8
1
 10
-2956.974371
 20
-571.828498
 30
0.0
 70
0
  0
VERTEX
  5
83
  8
1
 10
-2941.884338
 20
-571.103541
 30
0.0
 70
0
  0
VERTEX
  5
84
  8
1
 10
-2926.999492
 20
-570.388445
 30
0.0
 70
0
  0
VERTEX
  5
85
  8
1
 10
-2922.952881
 20
-570.194016
 30
0.0
 70
0
  0
VERTEX
  5
86
  8
1
 10
-2923.362122
 20
-570.214767
 30
0.0
 70
0
  0
VERTEX
  5
87
  8
1
 10
-2907.70261
 20
-568.442739
 30
0.0
 70
0
  0
VERTEX
  5
88
  8
1
 10
-2892.298722
 20
-566.624242
 30
0.0
 70
0
  0
VERTEX
  5
89
  8
1
 10
-2877.152105
 20
-564.738388
 30
0.0
 70
0
  0
VERTEX
  5
8A
  8
1
 10
-2862.303953
 20
-562.800173
 30
0.0
 70
0
  0
VERTEX
  5
8B
  8
1
 10
-2846.792013
 20
-560.694152
 30
0.0
 70
0
  0
VERTEX
  5
8C
  8
1
 10
-2832.058019
 20
-558.615542
 30
0.0
 70
0
  0
VERTEX
  5
8D
  8
1
 10
-2816.569599
 20
-556.343297
 30
0.0
 70
0
  0
VERTEX
  5
8E
  8
1
 10
-2801.602455
 20
-554.058151
 30
0.0
 70
0
  0
VERTEX
  5
8F
  8
1
 10
-2786.640962
 20
-551.680565
 30
0.0
 70
0
  0
VERTEX
  5
90
  8
1
 10
-2772.188164
 20
-549.286091
 30
0.0
 70
0
  0
VERTEX
  5
91
  8
1
 10
-2756.763583
 20
-546.614054
 30
0.0
 70
0
  0
VERTEX
  5
92
  8
1
 10
-2742.126664
 20
-543.958833
 30
0.0
 70
0
  0
VERTEX
  5
93
  8
1
 10
-2726.747258
 20
-541.038039
 30
0.0
 70
0
  0
VERTEX
  5
94
  8
1
 10
-2712.022271
 20
-538.122547
 30
0.0
 70
0
  0
VERTEX
  5
95
  8
1
 10
-2697.182369
 20
-535.076451
 30
0.0
 70
0
  0
VERTEX
  5
96
  8
1
 10
-2682.367444
 20
-531.938658
 30
0.0
 70
0
  0
VERTEX
  5
97
  8
1
 10
-2667.564832
 20
-528.716541
 30
0.0
 70
0
  0
VERTEX
  5
98
  8
1
 10
-2652.783764
 20
-525.415298
 30
0.0
 70
0
  0
VERTEX
  5
99
  8
1
 10
-2638.016712
 20
-522.033955
 30
0.0
 70
0
  0
VERTEX
  5
9A
  8
1
 10
-2623.364848
 20
-518.593753
 30
0.0
 70
0
  0
VERTEX
  5
9B
  8
1
 10
-2608.829382
 20
-515.103153
 30
0.0
 70
0
  0
VERTEX
  5
9C
  8
1
 10
-2600.72113
 20
-513.131218
 30
0.0
 70
0
  0
VERTEX
  5
9D
  8
1
 10
-2595.758592
 20
-520.153144
 30
0.0
 70
0
  0
VERTEX
  5
9E
  8
1
 10
-2592.016148
 20
-525.035195
 30
0.0
 70
0
  0
VERTEX
  5
9F
  8
1
 10
-2588.91133
 20
-528.731662
 30
0.0
 70
0
  0
VERTEX
  5
A0
  8
1
 10
-2585.975333
 20
-531.847588
 30
0.0
 70
0
  0
VERTEX
  5
A1
  8
1
 10
-2582.983642
 20
-534.686119
 30
0.0
 70
0
  0
VERTEX
  5
A2
  8
1
 10
-2580.084559
 20
-537.115603
 30
0.0
 70
0
  0
VERTEX
  5
A3
  8
1
 10
-2577.27179
 20
-539.167213
 30
0.0
 70
0
  0
VERTEX
  5
A4
  8
1
 10
-2574.531349
 20
-540.867644
 30
0.0
 70
0
  0
VERTEX
  5
A5
  8
1
 10
-2571.532144
 20
-542.42335
 30
0.0
 70
0
  0
VERTEX
  5
A6
  8
1
 10
-2568.109021
 20
-543.904842
 30
0.0
 70
0
  0
VERTEX
  5
A7
  8
1
 10
-2564.291238
 20
-545.278355
 30
0.0
 70
0
  0
VERTEX
  5
A8
  8
1
 10
-2559.824073
 20
-546.605812
 30
0.0
 70
0
  0
VERTEX
  5
A9
  8
1
 10
-2554.464654
 20
-547.913878
 30
0.0
 70
0
  0
VERTEX
  5
AA
  8
1
 10
-2548.182117
 20
-549.18382
 30
0.0
 70
0
  0
VERTEX
  5
AB
  8
1
 10
-2541.169715
 20
-550.341974
 30
0.0
 70
0
  0
VERTEX
  5
AC
  8
1
 10
-2532.662764
 20
-551.473007
 30
0.0
 70
0
  0
VERTEX
  5
AD
  8
1
 10
-2521.921692
 20
-552.608414
 30
0.0
 70
0
  0
VERTEX
  5
AE
  8
1
 10
-2506.429485
 20
-553.704429
 30
0.0
 70
0
  0
VERTEX
  5
AF
  8
1
 10
-2491.052676
 20
-554.832689
 30
0.0
 70
0
  0
VERTEX
  5
B0
  8
1
 10
-2475.914994
 20
-555.99763
 30
0.0
 70
0
  0
VERTEX
  5
B1
  8
1
 10
-2460.781889
 20
-557.221253
 30
0.0
 70
0
  0
VERTEX
  5
B2
  8
1
 10
-2445.746468
 20
-558.497373
 30
0.0
 70
0
  0
VERTEX
  5
B3
  8
1
 10
-2430.624383
 20
-559.85012
 30
0.0
 70
0
  0
VERTEX
  5
B4
  8
1
 10
-2415.204751
 20
-561.308148
 30
0.0
 70
0
  0
VERTEX
  5
B5
  8
1
 10
-2400.096127
 20
-562.804499
 30
0.0
 70
0
  0
VERTEX
  5
B6
  8
1
 10
-2385.09204
 20
-564.345779
 30
0.0
 70
0
  0
VERTEX
  5
B7
  8
1
 10
-2369.99504
 20
-565.954065
 30
0.0
 70
0
  0
VERTEX
  5
B8
  8
1
 10
-2354.794568
 20
-567.63422
 30
0.0
 70
0
  0
VERTEX
  5
B9
  8
1
 10
-2339.709072
 20
-569.347352
 30
0.0
 70
0
  0
VERTEX
  5
BA
  8
1
 10
-2324.693146
 20
-571.077499
 30
0.0
 70
0
  0
VERTEX
  5
BB
  8
1
 10
-2324.972486
 20
-586.770425
 30
0.0
 70
0
  0
VERTEX
  5
BC
  8
1
 10
-2325.212
 20
-601.981456
 30
0.0
 70
0
  0
VERTEX
  5
BD
  8
1
 10
-2325.336338
 20
-617.163807
 30
0.0
 70
0
  0
VERTEX
  5
BE
  8
1
 10
-2325.284095
 20
-632.376833
 30
0.0
 70
0
  0
VERTEX
  5
BF
  8
1
 10
-2325.035212
 20
-647.734662
 30
0.0
 70
0
  0
VERTEX
  5
C0
  8
1
 10
-2324.589339
 20
-662.941397
 30
0.0
 70
0
  0
VERTEX
  5
C1
  8
1
 10
-2323.951001
 20
-678.211159
 30
0.0
 70
0
  0
VERTEX
  5
C2
  8
1
 10
-2323.144041
 20
-693.507445
 30
0.0
 70
0
  0
VERTEX
  5
C3
  8
1
 10
-2322.229563
 20
-708.543189
 30
0.0
 70
0
  0
VERTEX
  5
C4
  8
1
 10
-2321.552887
 20
-718.643951
 30
0.0
 70
0
  0
VERTEX
  5
C5
  8
1
 10
-2334.797968
 20
-720.570765
 30
0.0
 70
0
  0
VERTEX
  5
C6
  8
1
 10
-2339.946052
 20
-721.358111
 30
0.0
 70
0
  0
VERTEX
  5
C7
  8
1
 10
-2344.900252
 20
-722.403874
 30
0.0
 70
0
  0
VERTEX
  5
C8
  8
1
 10
-2349.957234
 20
-723.712133
 30
0.0
 70
0
  0
VERTEX
  5
C9
  8
1
 10
-2354.63101
 20
-725.16719
 30
0.0
 70
0
  0
VERTEX
  5
CA
  8
1
 10
-2359.08441
 20
-726.805292
 30
0.0
 70
0
  0
VERTEX
  5
CB
  8
1
 10
-2363.167489
 20
-728.56432
 30
0.0
 70
0
  0
VERTEX
  5
CC
  8
1
 10
-2366.841148
 20
-730.404914
 30
0.0
 70
0
  0
VERTEX
  5
CD
  8
1
 10
-2370.181947
 20
-732.345154
 30
0.0
 70
0
  0
VERTEX
  5
CE
  8
1
 10
-2373.170687
 20
-734.357951
 30
0.0
 70
0
  0
VERTEX
  5
CF
  8
1
 10
-2375.849439
 20
-736.456214
 30
0.0
 70
0
  0
VERTEX
  5
D0
  8
1
 10
-2378.148975
 20
-738.559643
 30
0.0
 70
0
  0
VERTEX
  5
D1
  8
1
 10
-2380.15095
 20
-740.710276
 30
0.0
 70
0
  0
VERTEX
  5
D2
  8
1
 10
-2381.922637
 20
-742.978272
 30
0.0
 70
0
  0
VERTEX
  5
D3
  8
1
 10
-2383.448963
 20
-745.346411
 30
0.0
 70
0
  0
VERTEX
  5
D4
  8
1
 10
-2384.860067
 20
-748.027104
 30
0.0
 70
0
  0
VERTEX
  5
D5
  8
1
 10
-2386.104291
 20
-750.93886
 30
0.0
 70
0
  0
VERTEX
  5
D6
  8
1
 10
-2387.216314
 20
-754.184844
 30
0.0
 70
0
  0
VERTEX
  5
D7
  8
1
 10
-2388.202333
 20
-757.868086
 30
0.0
 70
0
  0
VERTEX
  5
D8
  8
1
 10
-2389.008152
 20
-761.863993
 30
0.0
 70
0
  0
VERTEX
  5
D9
  8
1
 10
-2389.649484
 20
-766.339468
 30
0.0
 70
0
  0
VERTEX
  5
DA
  8
1
 10
-2390.093877
 20
-771.215451
 30
0.0
 70
0
  0
VERTEX
  5
DB
  8
1
 10
-2390.334184
 20
-776.682325
 30
0.0
 70
0
  0
VERTEX
  5
DC
  8
1
 10
-2390.345366
 20
-782.716496
 30
0.0
 70
0
  0
VERTEX
  5
DD
  8
1
 10
-2390.098949
 20
-789.657896
 30
0.0
 70
0
  0
VERTEX
  5
DE
  8
1
 10
-2389.571975
 20
-797.381732
 30
0.0
 70
0
  0
VERTEX
  5
DF
  8
1
 10
-2388.75051
 20
-805.713714
 30
0.0
 70
0
  0
VERTEX
  5
E0
  8
1
 10
-2387.540038
 20
-815.313632
 30
0.0
 70
0
  0
VERTEX
  5
E1
  8
1
 10
-2385.691519
 20
-827.700261
 30
0.0
 70
0
  0
VERTEX
  5
E2
  8
1
 10
-2383.289498
 20
-842.486834
 30
0.0
 70
0
  0
VERTEX
  5
E3
  8
1
 10
-2383.092804
 20
-843.670425
 30
0.0
 70
0
  0
VERTEX
  5
E4
  8
1
 10
-2392.404681
 20
-844.794947
 30
0.0
 70
0
  0
VERTEX
  5
E5
  8
1
 10
-2407.693808
 20
-846.575556
 30
0.0
 70
0
  0
VERTEX
  5
E6
  8
1
 10
-2422.718966
 20
-848.196005
 30
0.0
 70
0
  0
VERTEX
  5
E7
  8
1
 10
-2437.761691
 20
-849.638048
 30
0.0
 70
0
  0
VERTEX
  5
E8
  8
1
 10
-2453.111744
 20
-850.877911
 30
0.0
 70
0
  0
VERTEX
  5
E9
  8
1
 10
-2468.192093
 20
-851.857243
 30
0.0
 70
0
  0
VERTEX
  5
EA
  8
1
 10
-2483.23064
 20
-852.601249
 30
0.0
 70
0
  0
VERTEX
  5
EB
  8
1
 10
-2498.333169
 20
-853.135363
 30
0.0
 70
0
  0
VERTEX
  5
EC
  8
1
 10
-2513.365317
 20
-853.483356
 30
0.0
 70
0
  0
VERTEX
  5
ED
  8
1
 10
-2528.963153
 20
-853.695948
 30
0.0
 70
0
  0
VERTEX
  5
EE
  8
1
 10
-2543.905354
 20
-853.795887
 30
0.0
 70
0
  0
VERTEX
  5
EF
  8
1
 10
-2559.019425
 20
-853.795854
 30
0.0
 70
0
  0
VERTEX
  5
F0
  8
1
 10
-2574.130845
 20
-853.683135
 30
0.0
 70
0
  0
VERTEX
  5
F1
  8
1
 10
-2589.240383
 20
-853.431692
 30
0.0
 70
0
  0
VERTEX
  5
F2
  8
1
 10
-2604.343825
 20
-853.022779
 30
0.0
 70
0
  0
VERTEX
  5
F3
  8
1
 10
-2619.684998
 20
-852.471867
 30
0.0
 70
0
  0
VERTEX
  5
F4
  8
1
 10
-2634.783071
 20
-851.832665
 30
0.0
 70
0
  0
VERTEX
  5
F5
  8
1
 10
-2650.09183
 20
-851.123258
 30
0.0
 70
0
  0
VERTEX
  5
F6
  8
1
 10
-2665.185787
 20
-850.393519
 30
0.0
 70
0
  0
VERTEX
  5
F7
  8
1
 10
-2680.278599
 20
-849.639961
 30
0.0
 70
0
  0
VERTEX
  5
F8
  8
1
 10
-2695.348393
 20
-848.865582
 30
0.0
 70
0
  0
VERTEX
  5
F9
  8
1
 10
-2710.439392
 20
-848.075775
 30
0.0
 70
0
  0
VERTEX
  5
FA
  8
1
 10
-2725.518118
 20
-847.280452
 30
0.0
 70
0
  0
VERTEX
  5
FB
  8
1
 10
-2740.851718
 20
-846.469908
 30
0.0
 70
0
  0
VERTEX
  5
FC
  8
1
 10
-2755.942286
 20
-845.67321
 30
0.0
 70
0
  0
VERTEX
  5
FD
  8
1
 10
-2771.075407
 20
-844.87508
 30
0.0
 70
0
  0
VERTEX
  5
FE
  8
1
 10
-2786.165989
 20
-844.079315
 30
0.0
 70
0
  0
VERTEX
  5
FF
  8
1
 10
-2801.336559
 20
-843.279554
 30
0.0
 70
0
  0
VERTEX
  5
100
  8
1
 10
-2816.427156
 20
-842.484453
 30
0.0
 70
0
  0
VERTEX
  5
101
  8
1
 10
-2831.556654
 20
-841.687688
 30
0.0
 70
0
  0
VERTEX
  5
102
  8
1
 10
-2846.647291
 20
-840.893253
 30
0.0
 70
0
  0
VERTEX
  5
103
  8
1
 10
-2861.917566
 20
-840.089647
 30
0.0
 70
0
  0
VERTEX
  5
104
  8
1
 10
-2877.008315
 20
-839.295801
 30
0.0
 70
0
  0
VERTEX
  5
105
  8
1
 10
-2892.115142
 20
-838.501471
 30
0.0
 70
0
  0
VERTEX
  5
106
  8
1
 10
-2907.531884
 20
-837.691231
 30
0.0
 70
0
  0
SEQEND
  5
30
  8
1
  0
LINE
  5
107
  8
7
 10
-3341.298828
 20
-702.162857
 30
0.0
 11
-2446.712189
 21
-702.162857
 31
0.0
  0
ENDSEC
  0
EOF
