  0
SECTION
  2
HEADER
  9
$ACADVER
  1
AC1009
  9
$DWGCODEPAGE
  3
ANSI_1252
  9
$INSBASE
 10
0.0
 20
0.0
 30
0.0
  9
$EXTMIN
 10
1e+20
 20
1e+20
 30
1e+20
  9
$EXTMAX
 10
-1e+20
 20
-1e+20
 30
-1e+20
  9
$LIMMIN
 10
0.0
 20
0.0
  9
$LIMMAX
 10
420.0
 20
297.0
  9
$ORTHOMODE
 70
0
  9
$REGENMODE
 70
1
  9
$FILLMODE
 70
1
  9
$DRAGMODE
 70
2
  9
$QTEXTMODE
 70
0
  9
$MIRRTEXT
 70
1
  9
$OSMODE
 70
20583
  9
$LTSCALE
 40
1.0
  9
$ATTMODE
 70
1
  9
$TEXTSIZE
 40
2.5
  9
$TRACEWID
 40
1.0
  9
$TEXTSTYLE
  7
Standard
  9
$CLAYER
  8
0
  9
$CELTYPE
  6
ByLayer
  9
$CECOLOR
 62
256
  9
$DIMSCALE
 40
1.0
  9
$DIMASZ
 40
2.5
  9
$DIMEXO
 40
0.625
  9
$DIMDLI
 40
3.75
  9
$DIMRND
 40
0.0
  9
$DIMDLE
 40
0.0
  9
$DIMEXE
 40
1.25
  9
$DIMTP
 40
0.0
  9
$DIMTM
 40
0.0
  9
$DIMTXT
 40
2.5
  9
$DIMCEN
 40
2.5
  9
$DIMTSZ
 40
0.0
  9
$DIMTOL
 70
0
  9
$DIMLIM
 70
0
  9
$DIMTIH
 70
0
  9
$DIMTOH
 70
0
  9
$DIMSE1
 70
0
  9
$DIMSE2
 70
0
  9
$DIMTAD
 70
1
  9
$DIMZIN
 70
8
  9
$DIMBLK
  1

  9
$DIMASO
 70
1
  9
$DIMSHO
 70
1
  9
$DIMPOST
  1

  9
$DIMAPOST
  1

  9
$DIMALT
 70
0
  9
$DIMALTD
 70
3
  9
$DIMALTF
 40
0.03937007874
  9
$DIMLFAC
 40
1.0
  9
$DIMTOFL
 70
1
  9
$DIMTVP
 40
0.0
  9
$DIMTIX
 70
0
  9
$DIMSOXD
 70
0
  9
$DIMSAH
 70
0
  9
$DIMBLK1
  1

  9
$DIMBLK2
  1

  9
$DIMSTYLE
  2
ISO-25
  9
$DIMCLRD
 70
0
  9
$DIMCLRE
 70
0
  9
$DIMCLRT
 70
0
  9
$DIMTFAC
 40
1.0
  9
$DIMGAP
 40
0.625
  9
$COORDS
 70
1
  9
$ATTDIA
 70
0
  9
$ATTREQ
 70
1
  9
$HANDLING
 70
1
  9
$LUNITS
 70
2
  9
$LUPREC
 70
4
  9
$SKETCHINC
 40
1.0
  9
$FILLETRAD
 40
10.0
  9
$AUNITS
 70
0
  9
$AUPREC
 70
2
  9
$MENU
  1
.
  9
$ELEVATION
 40
0.0
  9
$PELEVATION
 40
0.0
  9
$THICKNESS
 40
0.0
  9
$LIMCHECK
 70
0
  9
$CHAMFERA
 40
0.0
  9
$CHAMFERB
 40
0.0
  9
$SKPOLY
 70
0
  9
$TDCREATE
 40
2461264.9423032408
  9
$TDUPDATE
 40
2461264.9423032408
  9
$TDINDWG
 40
0.0
  9
$TDUSRTIMER
 40
0.0
  9
$USRTIMER
 70
1
  9
$ANGBASE
 50
0.0
  9
$ANGDIR
 70
0
  9
$PDMODE
 70
0
  9
$PDSIZE
 40
0.0
  9
$PLINEWID
 40
0.0
  9
$SPLFRAME
 70
0
  9
$SPLINETYPE
 70
6
  9
$SPLINESEGS
 70
8
  9
$HANDSEED
  5
217
  9
$SURFTAB1
 70
6
  9
$SURFTAB2
 70
6
  9
$SURFTYPE
 70
6
  9
$SURFU
 70
6
  9
$SURFV
 70
6
  9
$UCSNAME
  2

  9
$UCSORG
 10
0.0
 20
0.0
 30
0.0
  9
$UCSXDIR
 10
1.0
 20
0.0
 30
0.0
  9
$UCSYDIR
 10
0.0
 20
1.0
 30
0.0
  9
$PUCSNAME
  2

  9
$PUCSORG
 10
0.0
 20
0.0
 30
0.0
  9
$PUCSXDIR
 10
1.0
 20
0.0
 30
0.0
  9
$PUCSYDIR
 10
0.0
 20
1.0
 30
0.0
  9
$USERI1
 70
0
  9
$USERI2
 70
0
  9
$USERI3
 70
0
  9
$USERI4
 70
0
  9
$USERI5
 70
0
  9
$USERR1
 40
0.0
  9
$USERR2
 40
0.0
  9
$USERR3
 40
0.0
  9
$USERR4
 40
0.0
  9
$USERR5
 40
0.0
  9
$WORLDVIEW
 70
1
  9
$SHADEDGE
 70
3
  9
$SHADEDIF
 70
70
  9
$TILEMODE
 70
1
  9
$MAXACTVP
 70
64
  9
$PLIMCHECK
 70
0
  9
$PEXTMIN
 10
1e+20
 20
1e+20
 30
1e+20
  9
$PEXTMAX
 10
-1e+20
 20
-1e+20
 30
-1e+20
  9
$PLIMMIN
 10
0.0
 20
0.0
  9
$PLIMMAX
 10
420.0
 20
297.0
  9
$UNITMODE
 70
0
  9
$VISRETAIN
 70
1
  9
$PLINEGEN
 70
0
  9
$PSLTSCALE
 70
1
  0
ENDSEC
  0
SECTION
  2
TABLES
  0
TABLE
  2
VPORT
 70
1
  0
VPORT
  5
23
  2
*Active
 70
0
 10
0.0
 20
0.0
 11
1.0
 21
1.0
 12
0.0
 22
0.0
 13
0.0
 23
0.0
 14
0.5
 24
0.5
 15
0.5
 25
0.5
 16
0.0
 26
0.0
 36
1.0
 17
0.0
 27
0.0
 37
0.0
 40
1000.0
 41
1.34
 42
50.0
 43
0.0
 44
0.0
 50
0.0
 51
0.0
 71
0
 72
1000
 73
1
 74
3
 75
0
 76
0
 77
0
 78
0
  0
ENDTAB
  0
TABLE
  2
LTYPE
 70
3
  0
LTYPE
  5
24
  2
ByBlock
 70
0
  3

 72
65
 73
0
 40
0.0
  0
LTYPE
  5
25
  2
ByLayer
 70
0
  3

 72
65
 73
0
 40
0.0
  0
LTYPE
  5
26
  2
Continuous
 70
0
  3

 72
65
 73
0
 40
0.0
  0
ENDTAB
  0
TABLE
  2
LAYER
 70
7
  0
LAYER
  5
27
  2
0
 70
0
 62
7
  6
Continuous
  0
LAYER
  5
28
  2
Defpoints
 70
0
 62
7
  6
Continuous
  0
LAYER
  5
2D
  2
1
 70
0
 62
1
  6
Continuous
  0
LAYER
  5
2E
  2
7
 70
0
 62
7
  6
Continuous
  0
LAYER
  5
2F
  2
14
 70
0
 62
3
  6
Continuous
  0
LAYER
  5
30
  2
8
 70
0
 62
6
  6
Continuous
  0
LAYER
  5
31
  2
4
 70
0
 62
2
  6
Continuous
  0
ENDTAB
  0
TABLE
  2
STYLE
 70
1
  0
STYLE
  5
29
  2
Standard
 70
0
 40
0.0
 41
1.0
 50
0.0
 71
0
 42
2.5
  3
txt
  4

  0
ENDTAB
  0
TABLE
  2
VIEW
 70
0
  0
ENDTAB
  0
TABLE
  2
UCS
 70
0
  0
ENDTAB
  0
TABLE
  2
APPID
 70
3
  0
APPID
  5
2A
  2
ACAD
 70
0
  0
APPID
  5
215
  2
HATCHBACKGROUNDCOLOR
 70
0
  0
APPID
  5
216
  2
EZDXF
 70
0
  0
ENDTAB
  0
TABLE
  2
DIMSTYLE
 70
1
  0
DIMSTYLE
105
2B
  2
Standard
 70
0
  3

  4

  5

  6

  7

 40
1.0
 41
2.5
 42
0.625
 43
3.75
 44
1.25
 45
0.0
 46
0.0
 47
0.0
 48
0.0
140
2.5
141
2.5
142
0.0
143
0.03937007874
144
1.0
145
0.0
146
1.0
147
0.625
 71
0
 72
0
 73
0
 74
0
 75
0
 76
0
 77
1
 78
8
170
0
171
3
172
1
173
0
174
0
175
0
176
0
177
0
178
0
  0
ENDTAB
  0
ENDSEC
  0
SECTION
  2
BLOCKS
  0
BLOCK
  5
18
  8
0
  2
$Model_Space
 70
0
 10
0.0
 20
0.0
 30
0.0
  3
$Model_Space
  1

1001
EZDXF
1000
CREATED_BY_EZDXF
1000
1.4.4 @ 2026-08-11T14:36:55.573575+00:00
1000
WRITTEN_BY_EZDXF
1000
1.4.4 @ 2026-08-11T14:36:55.579575+00:00
  0
ENDBLK
  5
19
  8
0
  0
BLOCK
  5
1C
  8
0
  2
$Paper_Space
 70
0
 10
0.0
 20
0.0
 30
0.0
  3
$Paper_Space
  1

  0
ENDBLK
  5
1D
  8
0
  0
ENDSEC
  0
SECTION
  2
ENTITIES
  0
POLYLINE
  5
32
  8
1
 66
1
 10
0.0
 20
0.0
 30
0.0
 70
1
  0
VERTEX
  5
34
  8
1
 10
-2922.859192
 20
-829.265213
 30
0.0
 70
0
  0
VERTEX
  5
35
  8
1
 10
-2922.802734
 20
-829.267197
 30
0.0
 70
0
  0
VERTEX
  5
36
  8
1
 10
-2936.788676
 20
-828.763825
 30
0.0
 70
0
  0
VERTEX
  5
37
  8
1
 10
-2951.759794
 20
-828.218098
 30
0.0
 70
0
  0
VERTEX
  5
38
  8
1
 10
-2966.794687
 20
-827.661239
 30
0.0
 70
0
  0
VERTEX
  5
39
  8
1
 10
-2981.915852
 20
-827.090929
 30
0.0
 70
0
  0
VERTEX
  5
3A
  8
1
 10
-2997.012198
 20
-826.513366
 30
0.0
 70
0
  0
VERTEX
  5
3B
  8
1
 10
-3012.13288
 20
-825.927859
 30
0.0
 70
0
  0
VERTEX
  5
3C
  8
1
 10
-3027.445797
 20
-825.327143
 30
0.0
 70
0
  0
VERTEX
  5
3D
  8
1
 10
-3042.565795
 20
-824.725837
 30
0.0
 70
0
  0
VERTEX
  5
3E
  8
1
 10
-3058.04569
 20
-824.101752
 30
0.0
 70
0
  0
VERTEX
  5
3F
  8
1
 10
-3073.165062
 20
-823.483763
 30
0.0
 70
0
  0
VERTEX
  5
40
  8
1
 10
-3088.299144
 20
-822.856414
 30
0.0
 70
0
  0
VERTEX
  5
41
  8
1
 10
-3103.4178
 20
-822.220534
 30
0.0
 70
0
  0
VERTEX
  5
42
  8
1
 10
-3118.768875
 20
-821.565085
 30
0.0
 70
0
  0
VERTEX
  5
43
  8
1
 10
-3133.886648
 20
-820.909375
 30
0.0
 70
0
  0
VERTEX
  5
44
  8
1
 10
-3149.236801
 20
-820.232285
 30
0.0
 70
0
  0
VERTEX
  5
45
  8
1
 10
-3164.35352
 20
-819.55358
 30
0.0
 70
0
  0
VERTEX
  5
46
  8
1
 10
-3179.626886
 20
-818.855399
 30
0.0
 70
0
  0
VERTEX
  5
47
  8
1
 10
-3194.742558
 20
-818.152073
 30
0.0
 70
0
  0
VERTEX
  5
48
  8
1
 10
-3210.101752
 20
-817.425553
 30
0.0
 70
0
  0
VERTEX
  5
49
  8
1
 10
-3225.216305
 20
-816.699758
 30
0.0
 70
0
  0
VERTEX
  5
4A
  8
1
 10
-3240.428271
 20
-815.959306
 30
0.0
 70
0
  0
VERTEX
  5
4B
  8
1
 10
-3255.541905
 20
-815.214426
 30
0.0
 70
0
  0
VERTEX
  5
4C
  8
1
 10
-3270.524627
 20
-814.467204
 30
0.0
 70
0
  0
VERTEX
  5
4D
  8
1
 10
-3285.637419
 20
-813.704934
 30
0.0
 70
0
  0
VERTEX
  5
4E
  8
1
 10
-3300.759703
 20
-812.934152
 30
0.0
 70
0
  0
VERTEX
  5
4F
  8
1
 10
-3315.871662
 20
-812.156316
 30
0.0
 70
0
  0
VERTEX
  5
50
  8
1
 10
-3330.894789
 20
-811.375464
 30
0.0
 70
0
  0
VERTEX
  5
51
  8
1
 10
-3346.005888
 20
-810.581963
 30
0.0
 70
0
  0
VERTEX
  5
52
  8
1
 10
-3361.024156
 20
-809.783972
 30
0.0
 70
0
  0
VERTEX
  5
53
  8
1
 10
-3376.134257
 20
-808.971415
 30
0.0
 70
0
  0
VERTEX
  5
54
  8
1
 10
-3390.345154
 20
-808.202209
 30
0.0
 70
0
  0
VERTEX
  5
55
  8
1
 10
-3391.244103
 20
-808.153569
 30
0.0
 70
0
  0
VERTEX
  5
56
  8
1
 10
-3406.646874
 20
-807.319108
 30
0.0
 70
0
  0
VERTEX
  5
57
  8
1
 10
-3422.088013
 20
-806.482697
 30
0.0
 70
0
  0
VERTEX
  5
58
  8
1
 10
-3422.018578
 20
-790.95769
 30
0.0
 70
0
  0
VERTEX
  5
59
  8
1
 10
-3421.951048
 20
-775.846113
 30
0.0
 70
0
  0
VERTEX
  5
5A
  8
1
 10
-3421.883568
 20
-760.734533
 30
0.0
 70
0
  0
VERTEX
  5
5B
  8
1
 10
-3421.815709
 20
-745.529607
 30
0.0
 70
0
  0
VERTEX
  5
5C
  8
1
 10
-3421.748273
 20
-730.418035
 30
0.0
 70
0
  0
VERTEX
  5
5D
  8
1
 10
-3421.679748
 20
-715.068694
 30
0.0
 70
0
  0
VERTEX
  5
5E
  8
1
 10
-3421.612243
 20
-699.957105
 30
0.0
 70
0
  0
VERTEX
  5
5F
  8
1
 10
-3421.543101
 20
-684.486949
 30
0.0
 70
0
  0
VERTEX
  5
60
  8
1
 10
-3421.475543
 20
-669.375375
 30
0.0
 70
0
  0
VERTEX
  5
61
  8
1
 10
-3421.407133
 20
-654.069191
 30
0.0
 70
0
  0
VERTEX
  5
62
  8
1
 10
-3421.339628
 20
-638.957614
 30
0.0
 70
0
  0
VERTEX
  5
63
  8
1
 10
-3421.272142
 20
-623.846035
 30
0.0
 70
0
  0
VERTEX
  5
64
  8
1
 10
-3421.205128
 20
-608.840508
 30
0.0
 70
0
  0
VERTEX
  5
65
  8
1
 10
-3421.162109
 20
-599.209633
 30
0.0
 70
0
  0
VERTEX
  5
66
  8
1
 10
-3405.31294
 20
-598.468398
 30
0.0
 70
0
  0
VERTEX
  5
67
  8
1
 10
-3390.055254
 20
-597.75482
 30
0.0
 70
0
  0
VERTEX
  5
68
  8
1
 10
-3389.405212
 20
-597.724419
 30
0.0
 70
0
  0
VERTEX
  5
69
  8
1
 10
-3374.398985
 20
-597.022592
 30
0.0
 70
0
  0
VERTEX
  5
6A
  8
1
 10
-3359.757295
 20
-596.337814
 30
0.0
 70
0
  0
VERTEX
  5
6B
  8
1
 10
-3344.100987
 20
-595.605589
 30
0.0
 70
0
  0
VERTEX
  5
6C
  8
1
 10
-3329.415313
 20
-594.918764
 30
0.0
 70
0
  0
VERTEX
  5
6D
  8
1
 10
-3313.759052
 20
-594.186547
 30
0.0
 70
0
  0
VERTEX
  5
6E
  8
1
 10
-3298.699382
 20
-593.482229
 30
0.0
 70
0
  0
VERTEX
  5
6F
  8
1
 10
-3283.564925
 20
-592.774408
 30
0.0
 70
0
  0
VERTEX
  5
70
  8
1
 10
-3268.503452
 20
-592.069996
 30
0.0
 70
0
  0
VERTEX
  5
71
  8
1
 10
-3253.36905
 20
-591.362172
 30
0.0
 70
0
  0
VERTEX
  5
72
  8
1
 10
-3238.727381
 20
-590.677396
 30
0.0
 70
0
  0
VERTEX
  5
73
  8
1
 10
-3223.071089
 20
-589.945178
 30
0.0
 70
0
  0
VERTEX
  5
74
  8
1
 10
-3208.033509
 20
-589.241894
 30
0.0
 70
0
  0
VERTEX
  5
75
  8
1
 10
-3192.899153
 20
-588.534076
 30
0.0
 70
0
  0
VERTEX
  5
76
  8
1
 10
-3177.882205
 20
-587.831746
 30
0.0
 70
0
  0
VERTEX
  5
77
  8
1
 10
-3162.747764
 20
-587.123927
 30
0.0
 70
0
  0
VERTEX
  5
78
  8
1
 10
-3147.613311
 20
-586.416108
 30
0.0
 70
0
  0
VERTEX
  5
79
  8
1
 10
-3132.449757
 20
-585.706924
 30
0.0
 70
0
  0
VERTEX
  5
7A
  8
1
 10
-3117.315368
 20
-584.999106
 30
0.0
 70
0
  0
VERTEX
  5
7B
  8
1
 10
-3102.012542
 20
-584.283419
 30
0.0
 70
0
  0
VERTEX
  5
7C
  8
1
 10
-3086.878135
 20
-583.575608
 30
0.0
 70
0
  0
VERTEX
  5
7D
  8
1
 10
-3071.808141
 20
-582.870801
 30
0.0
 70
0
  0
VERTEX
  5
7E
  8
1
 10
-3056.673803
 20
-582.16298
 30
0.0
 70
0
  0
VERTEX
  5
7F
  8
1
 10
-3041.530169
 20
-581.454728
 30
0.0
 70
0
  0
VERTEX
  5
80
  8
1
 10
-3026.395769
 20
-580.746912
 30
0.0
 70
0
  0
VERTEX
  5
81
  8
1
 10
-3011.232213
 20
-580.037737
 30
0.0
 70
0
  0
VERTEX
  5
82
  8
1
 10
-2996.097803
 20
-579.329926
 30
0.0
 70
0
  0
VERTEX
  5
83
  8
1
 10
-2980.877192
 20
-578.618082
 30
0.0
 70
0
  0
VERTEX
  5
84
  8
1
 10
-2965.742815
 20
-577.91027
 30
0.0
 70
0
  0
VERTEX
  5
85
  8
1
 10
-2950.322095
 20
-577.189064
 30
0.0
 70
0
  0
VERTEX
  5
86
  8
1
 10
-2935.284984
 20
-576.485799
 30
0.0
 70
0
  0
VERTEX
  5
87
  8
1
 10
-2922.936707
 20
-575.908279
 30
0.0
 70
0
  0
VERTEX
  5
88
  8
1
 10
-2923.264465
 20
-575.924454
 30
0.0
 70
0
  0
VERTEX
  5
89
  8
1
 10
-2907.538212
 20
-574.369743
 30
0.0
 70
0
  0
VERTEX
  5
8A
  8
1
 10
-2892.498
 20
-572.810188
 30
0.0
 70
0
  0
VERTEX
  5
8B
  8
1
 10
-2877.009149
 20
-571.104459
 30
0.0
 70
0
  0
VERTEX
  5
8C
  8
1
 10
-2862.184526
 20
-569.381954
 30
0.0
 70
0
  0
VERTEX
  5
8D
  8
1
 10
-2846.715578
 20
-567.503888
 30
0.0
 70
0
  0
VERTEX
  5
8E
  8
1
 10
-2831.976729
 20
-565.636435
 30
0.0
 70
0
  0
VERTEX
  5
8F
  8
1
 10
-2816.528875
 20
-563.592548
 30
0.0
 70
0
  0
VERTEX
  5
90
  8
1
 10
-2802.051337
 20
-561.59242
 30
0.0
 70
0
  0
VERTEX
  5
91
  8
1
 10
-2786.628739
 20
-559.366039
 30
0.0
 70
0
  0
VERTEX
  5
92
  8
1
 10
-2772.166868
 20
-557.179441
 30
0.0
 70
0
  0
VERTEX
  5
93
  8
1
 10
-2756.776956
 20
-554.736754
 30
0.0
 70
0
  0
VERTEX
  5
94
  8
1
 10
-2742.129478
 20
-552.29278
 30
0.0
 70
0
  0
VERTEX
  5
95
  8
1
 10
-2726.780971
 20
-549.601929
 30
0.0
 70
0
  0
VERTEX
  5
96
  8
1
 10
-2712.004155
 20
-546.892474
 30
0.0
 70
0
  0
VERTEX
  5
97
  8
1
 10
-2697.190859
 20
-544.069168
 30
0.0
 70
0
  0
VERTEX
  5
98
  8
1
 10
-2682.395568
 20
-541.153073
 30
0.0
 70
0
  0
VERTEX
  5
99
  8
1
 10
-2667.580913
 20
-538.146564
 30
0.0
 70
0
  0
VERTEX
  5
9A
  8
1
 10
-2652.818617
 20
-535.068148
 30
0.0
 70
0
  0
VERTEX
  5
9B
  8
1
 10
-2638.031675
 20
-531.90276
 30
0.0
 70
0
  0
VERTEX
  5
9C
  8
1
 10
-2623.326568
 20
-528.668882
 30
0.0
 70
0
  0
VERTEX
  5
9D
  8
1
 10
-2608.7682
 20
-525.3866
 30
0.0
 70
0
  0
VERTEX
  5
9E
  8
1
 10
-2600.854187
 20
-523.577461
 30
0.0
 70
0
  0
VERTEX
  5
9F
  8
1
 10
-2595.980166
 20
-530.476393
 30
0.0
 70
0
  0
VERTEX
  5
A0
  8
1
 10
-2592.283692
 20
-535.305415
 30
0.0
 70
0
  0
VERTEX
  5
A1
  8
1
 10
-2589.106147
 20
-539.092741
 30
0.0
 70
0
  0
VERTEX
  5
A2
  8
1
 10
-2586.170289
 20
-542.208728
 30
0.0
 70
0
  0
VERTEX
  5
A3
  8
1
 10
-2583.178594
 20
-545.047331
 30
0.0
 70
0
  0
VERTEX
  5
A4
  8
1
 10
-2580.279369
 20
-547.476883
 30
0.0
 70
0
  0
VERTEX
  5
A5
  8
1
 10
-2577.466431
 20
-549.52852
 30
0.0
 70
0
  0
VERTEX
  5
A6
  8
1
 10
-2574.726168
 20
-551.228957
 30
0.0
 70
0
  0
VERTEX
  5
A7
  8
1
 10
-2571.728842
 20
-552.783838
 30
0.0
 70
0
  0
VERTEX
  5
A8
  8
1
 10
-2568.303876
 20
-554.266214
 30
0.0
 70
0
  0
VERTEX
  5
A9
  8
1
 10
-2564.485947
 20
-555.639735
 30
0.0
 70
0
  0
VERTEX
  5
AA
  8
1
 10
-2560.021255
 20
-556.966505
 30
0.0
 70
0
  0
VERTEX
  5
AB
  8
1
 10
-2554.659222
 20
-558.275281
 30
0.0
 70
0
  0
VERTEX
  5
AC
  8
1
 10
-2548.38031
 20
-559.544566
 30
0.0
 70
0
  0
VERTEX
  5
AD
  8
1
 10
-2541.371983
 20
-560.702244
 30
0.0
 70
0
  0
VERTEX
  5
AE
  8
1
 10
-2532.860294
 20
-561.834036
 30
0.0
 70
0
  0
VERTEX
  5
AF
  8
1
 10
-2522.075043
 20
-562.973557
 30
0.0
 70
0
  0
VERTEX
  5
B0
  8
1
 10
-2506.582084
 20
-564.205847
 30
0.0
 70
0
  0
VERTEX
  5
B1
  8
1
 10
-2491.3347
 20
-565.462091
 30
0.0
 70
0
  0
VERTEX
  5
B2
  8
1
 10
-2476.104667
 20
-566.776528
 30
0.0
 70
0
  0
VERTEX
  5
B3
  8
1
 10
-2461.091249
 20
-568.138793
 30
0.0
 70
0
  0
VERTEX
  5
B4
  8
1
 10
-2445.859835
 20
-569.591667
 30
0.0
 70
0
  0
VERTEX
  5
B5
  8
1
 10
-2430.860173
 20
-571.097082
 30
0.0
 70
0
  0
VERTEX
  5
B6
  8
1
 10
-2415.912588
 20
-572.674718
 30
0.0
 70
0
  0
VERTEX
  5
B7
  8
1
 10
-2400.928469
 20
-574.32815
 30
0.0
 70
0
  0
VERTEX
  5
B8
  8
1
 10
-2385.719682
 20
-576.070905
 30
0.0
 70
0
  0
VERTEX
  5
B9
  8
1
 10
-2370.749002
 20
-577.84203
 30
0.0
 70
0
  0
VERTEX
  5
BA
  8
1
 10
-2355.783994
 20
-579.660386
 30
0.0
 70
0
  0
VERTEX
  5
BB
  8
1
 10
-2340.975084
 20
-581.487547
 30
0.0
 70
0
  0
VERTEX
  5
BC
  8
1
 10
-2339.911652
 20
-581.618652
 30
0.0
 70
0
  0
VERTEX
  5
BD
  8
1
 10
-2340.130133
 20
-597.264309
 30
0.0
 70
0
  0
VERTEX
  5
BE
  8
1
 10
-2340.301528
 20
-612.564255
 30
0.0
 70
0
  0
VERTEX
  5
BF
  8
1
 10
-2340.326816
 20
-627.733799
 30
0.0
 70
0
  0
VERTEX
  5
C0
  8
1
 10
-2340.12873
 20
-643.033871
 30
0.0
 70
0
  0
VERTEX
  5
C1
  8
1
 10
-2339.688674
 20
-658.310984
 30
0.0
 70
0
  0
VERTEX
  5
C2
  8
1
 10
-2339.010916
 20
-673.596995
 30
0.0
 70
0
  0
VERTEX
  5
C3
  8
1
 10
-2338.141833
 20
-688.873908
 30
0.0
 70
0
  0
VERTEX
  5
C4
  8
1
 10
-2337.15261
 20
-703.872312
 30
0.0
 70
0
  0
VERTEX
  5
C5
  8
1
 10
-2336.838989
 20
-708.369064
 30
0.0
 70
0
  0
VERTEX
  5
C6
  8
1
 10
-2349.985785
 20
-710.282729
 30
0.0
 70
0
  0
VERTEX
  5
C7
  8
1
 10
-2355.246659
 20
-711.085278
 30
0.0
 70
0
  0
VERTEX
  5
C8
  8
1
 10
-2360.200791
 20
-712.131039
 30
0.0
 70
0
  0
VERTEX
  5
C9
  8
1
 10
-2365.258151
 20
-713.439316
 30
0.0
 70
0
  0
VERTEX
  5
CA
  8
1
 10
-2369.930321
 20
-714.893815
 30
0.0
 70
0
  0
VERTEX
  5
CB
  8
1
 10
-2374.383898
 20
-716.531952
 30
0.0
 70
0
  0
VERTEX
  5
CC
  8
1
 10
-2378.467158
 20
-718.290951
 30
0.0
 70
0
  0
VERTEX
  5
CD
  8
1
 10
-2382.14117
 20
-720.131652
 30
0.0
 70
0
  0
VERTEX
  5
CE
  8
1
 10
-2385.482128
 20
-722.071878
 30
0.0
 70
0
  0
VERTEX
  5
CF
  8
1
 10
-2388.471159
 20
-724.084707
 30
0.0
 70
0
  0
VERTEX
  5
D0
  8
1
 10
-2391.149958
 20
-726.182886
 30
0.0
 70
0
  0
VERTEX
  5
D1
  8
1
 10
-2393.449474
 20
-728.286284
 30
0.0
 70
0
  0
VERTEX
  5
D2
  8
1
 10
-2395.451491
 20
-730.43692
 30
0.0
 70
0
  0
VERTEX
  5
D3
  8
1
 10
-2397.223276
 20
-732.704935
 30
0.0
 70
0
  0
VERTEX
  5
D4
  8
1
 10
-2398.749668
 20
-735.07306
 30
0.0
 70
0
  0
VERTEX
  5
D5
  8
1
 10
-2400.111869
 20
-737.650975
 30
0.0
 70
0
  0
VERTEX
  5
D6
  8
1
 10
-2401.36419
 20
-740.559276
 30
0.0
 70
0
  0
VERTEX
  5
D7
  8
1
 10
-2402.483948
 20
-743.802615
 30
0.0
 70
0
  0
VERTEX
  5
D8
  8
1
 10
-2403.451138
 20
-747.373076
 30
0.0
 70
0
  0
VERTEX
  5
D9
  8
1
 10
-2404.270193
 20
-751.366179
 30
0.0
 70
0
  0
VERTEX
  5
DA
  8
1
 10
-2404.923892
 20
-755.840001
 30
0.0
 70
0
  0
VERTEX
  5
DB
  8
1
 10
-2405.379348
 20
-760.713193
 30
0.0
 70
0
  0
VERTEX
  5
DC
  8
1
 10
-2405.62995
 20
-766.181243
 30
0.0
 70
0
  0
VERTEX
  5
DD
  8
1
 10
-2405.650241
 20
-772.213324
 30
0.0
 70
0
  0
VERTEX
  5
DE
  8
1
 10
-2405.411752
 20
-779.157025
 30
0.0
 70
0
  0
VERTEX
  5
DF
  8
1
 10
-2404.892201
 20
-786.87876
 30
0.0
 70
0
  0
VERTEX
  5
E0
  8
1
 10
-2404.077054
 20
-795.214119
 30
0.0
 70
0
  0
VERTEX
  5
E1
  8
1
 10
-2402.888303
 20
-804.698728
 30
0.0
 70
0
  0
VERTEX
  5
E2
  8
1
 10
-2401.082513
 20
-816.857205
 30
0.0
 70
0
  0
VERTEX
  5
E3
  8
1
 10
-2398.68569
 20
-831.639609
 30
0.0
 70
0
  0
VERTEX
  5
E4
  8
1
 10
-2398.403015
 20
-833.342133
 30
0.0
 70
0
  0
VERTEX
  5
E5
  8
1
 10
-2409.367417
 20
-834.739559
 30
0.0
 70
0
  0
VERTEX
  5
E6
  8
1
 10
-2424.302447
 20
-836.554298
 30
0.0
 70
0
  0
VERTEX
  5
E7
  8
1
 10
-2439.255382
 20
-838.212003
 30
0.0
 70
0
  0
VERTEX
  5
E8
  8
1
 10
-2454.068209
 20
-839.640515
 30
0.0
 70
0
  0
VERTEX
  5
E9
  8
1
 10
-2468.564989
 20
-840.793962
 30
0.0
 70
0
  0
VERTEX
  5
EA
  8
1
 10
-2483.989686
 20
-841.764064
 30
0.0
 70
0
  0
VERTEX
  5
EB
  8
1
 10
-2499.017118
 20
-842.472558
 30
0.0
 70
0
  0
VERTEX
  5
EC
  8
1
 10
-2514.304877
 20
-842.97478
 30
0.0
 70
0
  0
VERTEX
  5
ED
  8
1
 10
-2529.345612
 20
-843.279009
 30
0.0
 70
0
  0
VERTEX
  5
EE
  8
1
 10
-2544.666471
 20
-843.436689
 30
0.0
 70
0
  0
VERTEX
  5
EF
  8
1
 10
-2559.71026
 20
-843.476995
 30
0.0
 70
0
  0
VERTEX
  5
F0
  8
1
 10
-2574.742762
 20
-843.408452
 30
0.0
 70
0
  0
VERTEX
  5
F1
  8
1
 10
-2589.785475
 20
-843.230004
 30
0.0
 70
0
  0
VERTEX
  5
F2
  8
1
 10
-2604.885861
 20
-842.943314
 30
0.0
 70
0
  0
VERTEX
  5
F3
  8
1
 10
-2619.924614
 20
-842.55709
 30
0.0
 70
0
  0
VERTEX
  5
F4
  8
1
 10
-2635.042898
 20
-842.084211
 30
0.0
 70
0
  0
VERTEX
  5
F5
  8
1
 10
-2650.077051
 20
-841.547754
 30
0.0
 70
0
  0
VERTEX
  5
F6
  8
1
 10
-2665.610269
 20
-840.938163
 30
0.0
 70
0
  0
VERTEX
  5
F7
  8
1
 10
-2680.314518
 20
-840.320834
 30
0.0
 70
0
  0
VERTEX
  5
F8
  8
1
 10
-2695.343685
 20
-839.659442
 30
0.0
 70
0
  0
VERTEX
  5
F9
  8
1
 10
-2710.402112
 20
-838.975605
 30
0.0
 70
0
  0
VERTEX
  5
FA
  8
1
 10
-2725.429768
 20
-838.281451
 30
0.0
 70
0
  0
VERTEX
  5
FB
  8
1
 10
-2740.58012
 20
-837.57795
 30
0.0
 70
0
  0
VERTEX
  5
FC
  8
1
 10
-2755.607645
 20
-836.882719
 30
0.0
 70
0
  0
VERTEX
  5
FD
  8
1
 10
-2770.984865
 20
-836.174128
 30
0.0
 70
0
  0
VERTEX
  5
FE
  8
1
 10
-2786.012681
 20
-835.483325
 30
0.0
 70
0
  0
VERTEX
  5
FF
  8
1
 10
-2801.040573
 20
-834.794122
 30
0.0
 70
0
  0
VERTEX
  5
100
  8
1
 10
-2816.029242
 20
-834.108435
 30
0.0
 70
0
  0
VERTEX
  5
101
  8
1
 10
-2831.558208
 20
-833.399741
 30
0.0
 70
0
  0
VERTEX
  5
102
  8
1
 10
-2846.094314
 20
-832.737803
 30
0.0
 70
0
  0
VERTEX
  5
103
  8
1
 10
-2861.623496
 20
-832.032087
 30
0.0
 70
0
  0
VERTEX
  5
104
  8
1
 10
-2876.388062
 20
-831.362483
 30
0.0
 70
0
  0
VERTEX
  5
105
  8
1
 10
-2891.917329
 20
-830.659905
 30
0.0
 70
0
  0
VERTEX
  5
106
  8
1
 10
-2907.155583
 20
-829.972313
 30
0.0
 70
0
  0
SEQEND
  5
33
  8
1
  0
POLYLINE
  5
107
  8
14
 66
1
 10
0.0
 20
0.0
 30
0.0
 70
1
  0
VERTEX
  5
109
  8
14
 10
-2922.345886
 20
-816.575394
 30
0.0
 70
0
  0
VERTEX
  5
10A
  8
14
 10
-2922.345886
 20
-816.575394
 30
0.0
 70
0
  0
VERTEX
  5
10B
  8
14
 10
-2927.353691
 20
-816.397733
 30
0.0
 70
0
  0
VERTEX
  5
10C
  8
14
 10
-2941.46184
 20
-815.888201
 30
0.0
 70
0
  0
VERTEX
  5
10D
  8
14
 10
-2957.284811
 20
-815.306071
 30
0.0
 70
0
  0
VERTEX
  5
10E
  8
14
 10
-2973.489794
 20
-814.700097
 30
0.0
 70
0
  0
VERTEX
  5
10F
  8
14
 10
-2988.216577
 20
-814.141409
 30
0.0
 70
0
  0
VERTEX
  5
110
  8
14
 10
-3004.345846
 20
-813.521036
 30
0.0
 70
0
  0
VERTEX
  5
111
  8
14
 10
-3021.725899
 20
-812.842677
 30
0.0
 70
0
  0
VERTEX
  5
112
  8
14
 10
-3040.20495
 20
-812.110035
 30
0.0
 70
0
  0
VERTEX
  5
113
  8
14
 10
-3059.631207
 20
-811.326812
 30
0.0
 70
0
  0
VERTEX
  5
114
  8
14
 10
-3074.731251
 20
-810.708426
 30
0.0
 70
0
  0
VERTEX
  5
115
  8
14
 10
-3090.21473
 20
-810.065232
 30
0.0
 70
0
  0
VERTEX
  5
116
  8
14
 10
-3106.017622
 20
-809.39879
 30
0.0
 70
0
  0
VERTEX
  5
117
  8
14
 10
-3122.075904
 20
-808.710663
 30
0.0
 70
0
  0
VERTEX
  5
118
  8
14
 10
-3138.325553
 20
-808.002411
 30
0.0
 70
0
  0
VERTEX
  5
119
  8
14
 10
-3154.702546
 20
-807.275596
 30
0.0
 70
0
  0
VERTEX
  5
11A
  8
14
 10
-3171.14286
 20
-806.531781
 30
0.0
 70
0
  0
VERTEX
  5
11B
  8
14
 10
-3187.355656
 20
-805.783575
 30
0.0
 70
0
  0
VERTEX
  5
11C
  8
14
 10
-3203.710912
 20
-805.014916
 30
0.0
 70
0
  0
VERTEX
  5
11D
  8
14
 10
-3219.901998
 20
-804.241363
 30
0.0
 70
0
  0
VERTEX
  5
11E
  8
14
 10
-3235.846619
 20
-803.468225
 30
0.0
 70
0
  0
VERTEX
  5
11F
  8
14
 10
-3251.46248
 20
-802.700812
 30
0.0
 70
0
  0
VERTEX
  5
120
  8
14
 10
-3266.667286
 20
-801.944432
 30
0.0
 70
0
  0
VERTEX
  5
121
  8
14
 10
-3286.158713
 20
-800.962265
 30
0.0
 70
0
  0
VERTEX
  5
122
  8
14
 10
-3304.577984
 20
-800.021736
 30
0.0
 70
0
  0
VERTEX
  5
123
  8
14
 10
-3321.730048
 20
-799.135431
 30
0.0
 70
0
  0
VERTEX
  5
124
  8
14
 10
-3337.41984
 20
-798.315933
 30
0.0
 70
0
  0
VERTEX
  5
125
  8
14
 10
-3354.678569
 20
-797.40468
 30
0.0
 70
0
  0
VERTEX
  5
126
  8
14
 10
-3371.434321
 20
-796.509531
 30
0.0
 70
0
  0
VERTEX
  5
127
  8
14
 10
-3390.288391
 20
-795.486755
 30
0.0
 70
0
  0
VERTEX
  5
128
  8
14
 10
-3390.288391
 20
-795.486755
 30
0.0
 70
0
  0
VERTEX
  5
129
  8
14
 10
-3390.19995
 20
-775.683622
 30
0.0
 70
0
  0
VERTEX
  5
12A
  8
14
 10
-3390.12905
 20
-759.808079
 30
0.0
 70
0
  0
VERTEX
  5
12B
  8
14
 10
-3390.044909
 20
-740.967783
 30
0.0
 70
0
  0
VERTEX
  5
12C
  8
14
 10
-3389.971241
 20
-724.472463
 30
0.0
 70
0
  0
VERTEX
  5
12D
  8
14
 10
-3389.894546
 20
-707.299486
 30
0.0
 70
0
  0
VERTEX
  5
12E
  8
14
 10
-3389.817246
 20
-689.990975
 30
0.0
 70
0
  0
VERTEX
  5
12F
  8
14
 10
-3389.741762
 20
-673.089049
 30
0.0
 70
0
  0
VERTEX
  5
130
  8
14
 10
-3389.670515
 20
-657.135851
 30
0.0
 70
0
  0
VERTEX
  5
131
  8
14
 10
-3389.591103
 20
-639.354394
 30
0.0
 70
0
  0
VERTEX
  5
132
  8
14
 10
-3389.526823
 20
-624.961207
 30
0.0
 70
0
  0
VERTEX
  5
133
  8
14
 10
-3389.461975
 20
-610.440941
 30
0.0
 70
0
  0
VERTEX
  5
134
  8
14
 10
-3389.461975
 20
-610.440941
 30
0.0
 70
0
  0
VERTEX
  5
135
  8
14
 10
-3369.390466
 20
-609.502222
 30
0.0
 70
0
  0
VERTEX
  5
136
  8
14
 10
-3352.807949
 20
-608.726678
 30
0.0
 70
0
  0
VERTEX
  5
137
  8
14
 10
-3332.184045
 20
-607.762125
 30
0.0
 70
0
  0
VERTEX
  5
138
  8
14
 10
-3308.096096
 20
-606.635562
 30
0.0
 70
0
  0
VERTEX
  5
139
  8
14
 10
-3290.398095
 20
-605.807849
 30
0.0
 70
0
  0
VERTEX
  5
13A
  8
14
 10
-3271.588194
 20
-604.928133
 30
0.0
 70
0
  0
VERTEX
  5
13B
  8
14
 10
-3251.837425
 20
-604.004415
 30
0.0
 70
0
  0
VERTEX
  5
13C
  8
14
 10
-3231.316869
 20
-603.044694
 30
0.0
 70
0
  0
VERTEX
  5
13D
  8
14
 10
-3210.197607
 20
-602.056973
 30
0.0
 70
0
  0
VERTEX
  5
13E
  8
14
 10
-3188.650667
 20
-601.04925
 30
0.0
 70
0
  0
VERTEX
  5
13F
  8
14
 10
-3166.847132
 20
-600.029526
 30
0.0
 70
0
  0
VERTEX
  5
140
  8
14
 10
-3144.958066
 20
-599.005803
 30
0.0
 70
0
  0
VERTEX
  5
141
  8
14
 10
-3123.154532
 20
-597.986079
 30
0.0
 70
0
  0
VERTEX
  5
142
  8
14
 10
-3101.607633
 20
-596.978358
 30
0.0
 70
0
  0
VERTEX
  5
143
  8
14
 10
-3080.488358
 20
-595.990636
 30
0.0
 70
0
  0
VERTEX
  5
144
  8
14
 10
-3059.967807
 20
-595.030916
 30
0.0
 70
0
  0
VERTEX
  5
145
  8
14
 10
-3040.217046
 20
-594.107198
 30
0.0
 70
0
  0
VERTEX
  5
146
  8
14
 10
-3021.40714
 20
-593.227482
 30
0.0
 70
0
  0
VERTEX
  5
147
  8
14
 10
-3003.70918
 20
-592.399771
 30
0.0
 70
0
  0
VERTEX
  5
148
  8
14
 10
-2987.294171
 20
-591.632062
 30
0.0
 70
0
  0
VERTEX
  5
149
  8
14
 10
-2972.333208
 20
-590.932356
 30
0.0
 70
0
  0
VERTEX
  5
14A
  8
14
 10
-2952.992313
 20
-590.027807
 30
0.0
 70
0
  0
VERTEX
  5
14B
  8
14
 10
-2937.885238
 20
-589.321268
 30
0.0
 70
0
  0
VERTEX
  5
14C
  8
14
 10
-2923.68342
 20
-588.657067
 30
0.0
 70
0
  0
VERTEX
  5
14D
  8
14
 10
-2922.343445
 20
-588.594398
 30
0.0
 70
0
  0
VERTEX
  5
14E
  8
14
 10
-2922.343445
 20
-588.594398
 30
0.0
 70
0
  0
VERTEX
  5
14F
  8
14
 10
-2905.497188
 20
-586.947023
 30
0.0
 70
0
  0
VERTEX
  5
150
  8
14
 10
-2889.691831
 20
-585.282595
 30
0.0
 70
0
  0
VERTEX
  5
151
  8
14
 10
-2872.46419
 20
-583.363421
 30
0.0
 70
0
  0
VERTEX
  5
152
  8
14
 10
-2855.557552
 20
-581.378805
 30
0.0
 70
0
  0
VERTEX
  5
153
  8
14
 10
-2840.191779
 20
-579.488016
 30
0.0
 70
0
  0
VERTEX
  5
154
  8
14
 10
-2823.852796
 20
-577.383869
 30
0.0
 70
0
  0
VERTEX
  5
155
  8
14
 10
-2806.716464
 20
-575.068278
 30
0.0
 70
0
  0
VERTEX
  5
156
  8
14
 10
-2788.958652
 20
-572.543159
 30
0.0
 70
0
  0
VERTEX
  5
157
  8
14
 10
-2770.75523
 20
-569.810427
 30
0.0
 70
0
  0
VERTEX
  5
158
  8
14
 10
-2752.282069
 20
-566.871997
 30
0.0
 70
0
  0
VERTEX
  5
159
  8
14
 10
-2738.81831
 20
-564.613764
 30
0.0
 70
0
  0
VERTEX
  5
15A
  8
14
 10
-2720.31521
 20
-561.339854
 30
0.0
 70
0
  0
VERTEX
  5
15B
  8
14
 10
-2702.153638
 20
-557.954684
 30
0.0
 70
0
  0
VERTEX
  5
15C
  8
14
 10
-2684.64149
 20
-554.549391
 30
0.0
 70
0
  0
VERTEX
  5
15D
  8
14
 10
-2668.086588
 20
-551.215098
 30
0.0
 70
0
  0
VERTEX
  5
15E
  8
14
 10
-2652.796876
 20
-548.042955
 30
0.0
 70
0
  0
VERTEX
  5
15F
  8
14
 10
-2636.5527
 20
-544.578722
 30
0.0
 70
0
  0
VERTEX
  5
160
  8
14
 10
-2621.173828
 20
-541.208172
 30
0.0
 70
0
  0
VERTEX
  5
161
  8
14
 10
-2607.483324
 20
-538.12184
 30
0.0
 70
0
  0
VERTEX
  5
162
  8
14
 10
-2604.841309
 20
-537.51236
 30
0.0
 70
0
  0
VERTEX
  5
163
  8
14
 10
-2601.88744
 20
-541.58657
 30
0.0
 70
0
  0
VERTEX
  5
164
  8
14
 10
-2598.57723
 20
-545.627865
 30
0.0
 70
0
  0
VERTEX
  5
165
  8
14
 10
-2595.010777
 20
-549.520081
 30
0.0
 70
0
  0
VERTEX
  5
166
  8
14
 10
-2591.682969
 20
-552.764498
 30
0.0
 70
0
  0
VERTEX
  5
167
  8
14
 10
-2587.974997
 20
-555.961227
 30
0.0
 70
0
  0
VERTEX
  5
168
  8
14
 10
-2584.448969
 20
-558.600369
 30
0.0
 70
0
  0
VERTEX
  5
169
  8
14
 10
-2581.371616
 20
-560.585177
 30
0.0
 70
0
  0
VERTEX
  5
16A
  8
14
 10
-2578.011075
 20
-562.432715
 30
0.0
 70
0
  0
VERTEX
  5
16B
  8
14
 10
-2574.514786
 20
-564.066706
 30
0.0
 70
0
  0
VERTEX
  5
16C
  8
14
 10
-2570.292282
 20
-565.729816
 30
0.0
 70
0
  0
VERTEX
  5
16D
  8
14
 10
-2565.947084
 20
-567.161245
 30
0.0
 70
0
  0
VERTEX
  5
16E
  8
14
 10
-2560.873776
 20
-568.554214
 30
0.0
 70
0
  0
VERTEX
  5
16F
  8
14
 10
-2555.089051
 20
-569.86821
 30
0.0
 70
0
  0
VERTEX
  5
170
  8
14
 10
-2547.812841
 20
-571.234675
 30
0.0
 70
0
  0
VERTEX
  5
171
  8
14
 10
-2539.838216
 20
-572.470514
 30
0.0
 70
0
  0
VERTEX
  5
172
  8
14
 10
-2530.926901
 20
-573.591423
 30
0.0
 70
0
  0
VERTEX
  5
173
  8
14
 10
-2523.018036
 20
-574.364738
 30
0.0
 70
0
  0
VERTEX
  5
174
  8
14
 10
-2506.756793
 20
-575.649868
 30
0.0
 70
0
  0
VERTEX
  5
175
  8
14
 10
-2490.805411
 20
-576.977296
 30
0.0
 70
0
  0
VERTEX
  5
176
  8
14
 10
-2475.17446
 20
-578.337735
 30
0.0
 70
0
  0
VERTEX
  5
177
  8
14
 10
-2460.001061
 20
-579.720235
 30
0.0
 70
0
  0
VERTEX
  5
178
  8
14
 10
-2444.186681
 20
-581.237132
 30
0.0
 70
0
  0
VERTEX
  5
179
  8
14
 10
-2428.9804
 20
-582.782552
 30
0.0
 70
0
  0
VERTEX
  5
17A
  8
14
 10
-2413.408968
 20
-584.44713
 30
0.0
 70
0
  0
VERTEX
  5
17B
  8
14
 10
-2396.891722
 20
-586.289184
 30
0.0
 70
0
  0
VERTEX
  5
17C
  8
14
 10
-2382.066775
 20
-588.001749
 30
0.0
 70
0
  0
VERTEX
  5
17D
  8
14
 10
-2367.204116
 20
-589.771966
 30
0.0
 70
0
  0
VERTEX
  5
17E
  8
14
 10
-2352.751923
 20
-591.550865
 30
0.0
 70
0
  0
VERTEX
  5
17F
  8
14
 10
-2352.996114
 20
-607.993135
 30
0.0
 70
0
  0
VERTEX
  5
180
  8
14
 10
-2353.039727
 20
-623.948377
 30
0.0
 70
0
  0
VERTEX
  5
181
  8
14
 10
-2352.883431
 20
-640.009809
 30
0.0
 70
0
  0
VERTEX
  5
182
  8
14
 10
-2352.471877
 20
-656.199558
 30
0.0
 70
0
  0
VERTEX
  5
183
  8
14
 10
-2351.842097
 20
-671.313774
 30
0.0
 70
0
  0
VERTEX
  5
184
  8
14
 10
-2351.00898
 20
-686.713697
 30
0.0
 70
0
  0
VERTEX
  5
185
  8
14
 10
-2350.073583
 20
-701.083708
 30
0.0
 70
0
  0
VERTEX
  5
186
  8
14
 10
-2349.94751
 20
-702.589111
 30
0.0
 70
0
  0
VERTEX
  5
187
  8
14
 10
-2355.435344
 20
-703.382049
 30
0.0
 70
0
  0
VERTEX
  5
188
  8
14
 10
-2361.419738
 20
-704.590158
 30
0.0
 70
0
  0
VERTEX
  5
189
  8
14
 10
-2367.230441
 20
-706.078129
 30
0.0
 70
0
  0
VERTEX
  5
18A
  8
14
 10
-2372.805557
 20
-707.823627
 30
0.0
 70
0
  0
VERTEX
  5
18B
  8
14
 10
-2377.789461
 20
-709.688723
 30
0.0
 70
0
  0
VERTEX
  5
18C
  8
14
 10
-2382.829755
 20
-711.927369
 30
0.0
 70
0
  0
VERTEX
  5
18D
  8
14
 10
-2386.982128
 20
-714.100795
 30
0.0
 70
0
  0
VERTEX
  5
18E
  8
14
 10
-2391.013169
 20
-716.573402
 30
0.0
 70
0
  0
VERTEX
  5
18F
  8
14
 10
-2394.101622
 20
-718.779047
 30
0.0
 70
0
  0
VERTEX
  5
190
  8
14
 10
-2397.028381
 20
-721.196991
 30
0.0
 70
0
  0
VERTEX
  5
191
  8
14
 10
-2399.756106
 20
-723.836499
 30
0.0
 70
0
  0
VERTEX
  5
192
  8
14
 10
-2402.247431
 20
-726.70681
 30
0.0
 70
0
  0
VERTEX
  5
193
  8
14
 10
-2404.373184
 20
-729.674039
 30
0.0
 70
0
  0
VERTEX
  5
194
  8
14
 10
-2406.311885
 20
-733.01219
 30
0.0
 70
0
  0
VERTEX
  5
195
  8
14
 10
-2407.972015
 20
-736.568581
 30
0.0
 70
0
  0
VERTEX
  5
196
  8
14
 10
-2409.370797
 20
-740.320524
 30
0.0
 70
0
  0
VERTEX
  5
197
  8
14
 10
-2410.525454
 20
-744.245332
 30
0.0
 70
0
  0
VERTEX
  5
198
  8
14
 10
-2411.453206
 20
-748.320315
 30
0.0
 70
0
  0
VERTEX
  5
199
  8
14
 10
-2412.32005
 20
-753.590663
 30
0.0
 70
0
  0
VERTEX
  5
19A
  8
14
 10
-2412.892902
 20
-759.015896
 30
0.0
 70
0
  0
VERTEX
  5
19B
  8
14
 10
-2413.205401
 20
-764.551703
 30
0.0
 70
0
  0
VERTEX
  5
19C
  8
14
 10
-2413.284093
 20
-771.278234
 30
0.0
 70
0
  0
VERTEX
  5
19D
  8
14
 10
-2413.094436
 20
-778.023606
 30
0.0
 70
0
  0
VERTEX
  5
19E
  8
14
 10
-2412.611551
 20
-785.814874
 30
0.0
 70
0
  0
VERTEX
  5
19F
  8
14
 10
-2411.792132
 20
-794.765204
 30
0.0
 70
0
  0
VERTEX
  5
1A0
  8
14
 10
-2410.625189
 20
-804.647533
 30
0.0
 70
0
  0
VERTEX
  5
1A1
  8
14
 10
-2409.15278
 20
-814.934254
 30
0.0
 70
0
  0
VERTEX
  5
1A2
  8
14
 10
-2408.017426
 20
-821.759491
 30
0.0
 70
0
  0
VERTEX
  5
1A3
  8
14
 10
-2409.723454
 20
-821.984295
 30
0.0
 70
0
  0
VERTEX
  5
1A4
  8
14
 10
-2424.199974
 20
-823.765653
 30
0.0
 70
0
  0
VERTEX
  5
1A5
  8
14
 10
-2439.152454
 20
-825.425417
 30
0.0
 70
0
  0
VERTEX
  5
1A6
  8
14
 10
-2454.904123
 20
-826.963774
 30
0.0
 70
0
  0
VERTEX
  5
1A7
  8
14
 10
-2469.635973
 20
-828.159677
 30
0.0
 70
0
  0
VERTEX
  5
1A8
  8
14
 10
-2484.581658
 20
-829.098591
 30
0.0
 70
0
  0
VERTEX
  5
1A9
  8
14
 10
-2501.207857
 20
-829.854371
 30
0.0
 70
0
  0
VERTEX
  5
1AA
  8
14
 10
-2517.847997
 20
-830.353166
 30
0.0
 70
0
  0
VERTEX
  5
1AB
  8
14
 10
-2534.494864
 20
-830.642151
 30
0.0
 70
0
  0
VERTEX
  5
1AC
  8
14
 10
-2550.061939
 20
-830.763701
 30
0.0
 70
0
  0
VERTEX
  5
1AD
  8
14
 10
-2566.705151
 20
-830.759194
 30
0.0
 70
0
  0
VERTEX
  5
1AE
  8
14
 10
-2583.34531
 20
-830.619051
 30
0.0
 70
0
  0
VERTEX
  5
1AF
  8
14
 10
-2599.983244
 20
-830.345648
 30
0.0
 70
0
  0
VERTEX
  5
1B0
  8
14
 10
-2616.351
 20
-829.952288
 30
0.0
 70
0
  0
VERTEX
  5
1B1
  8
14
 10
-2632.985217
 20
-829.445844
 30
0.0
 70
0
  0
VERTEX
  5
1B2
  8
14
 10
-2648.464558
 20
-828.898534
 30
0.0
 70
0
  0
VERTEX
  5
1B3
  8
14
 10
-2665.093669
 20
-828.248669
 30
0.0
 70
0
  0
VERTEX
  5
1B4
  8
14
 10
-2681.720503
 20
-827.548715
 30
0.0
 70
0
  0
VERTEX
  5
1B5
  8
14
 10
-2698.345646
 20
-826.811935
 30
0.0
 70
0
  0
VERTEX
  5
1B6
  8
14
 10
-2714.969739
 20
-826.051585
 30
0.0
 70
0
  0
VERTEX
  5
1B7
  8
14
 10
-2731.593348
 20
-825.280928
 30
0.0
 70
0
  0
VERTEX
  5
1B8
  8
14
 10
-2746.733257
 20
-824.579569
 30
0.0
 70
0
  0
VERTEX
  5
1B9
  8
14
 10
-2763.240522
 20
-823.817394
 30
0.0
 70
0
  0
VERTEX
  5
1BA
  8
14
 10
-2779.533373
 20
-823.067469
 30
0.0
 70
0
  0
VERTEX
  5
1BB
  8
14
 10
-2795.499546
 20
-822.33466
 30
0.0
 70
0
  0
VERTEX
  5
1BC
  8
14
 10
-2811.026773
 20
-821.623833
 30
0.0
 70
0
  0
VERTEX
  5
1BD
  8
14
 10
-2827.46581
 20
-820.873118
 30
0.0
 70
0
  0
VERTEX
  5
1BE
  8
14
 10
-2843.088526
 20
-820.161361
 30
0.0
 70
0
  0
VERTEX
  5
1BF
  8
14
 10
-2859.024926
 20
-819.436941
 30
0.0
 70
0
  0
VERTEX
  5
1C0
  8
14
 10
-2874.767452
 20
-818.722919
 30
0.0
 70
0
  0
VERTEX
  5
1C1
  8
14
 10
-2890.650847
 20
-818.004123
 30
0.0
 70
0
  0
VERTEX
  5
1C2
  8
14
 10
-2905.97369
 20
-817.312329
 30
0.0
 70
0
  0
SEQEND
  5
108
  8
14
  0
POLYLINE
  5
1C3
  8
8
 66
1
 10
0.0
 20
0.0
 30
0.0
 70
0
  0
VERTEX
  5
1C5
  8
8
 10
-3369.555664
 20
-706.611252
 30
0.0
 70
0
  0
VERTEX
  5
1C6
  8
8
 10
-3351.573189
 20
-706.66167
 30
0.0
 70
0
  0
VERTEX
  5
1C7
  8
8
 10
-3334.42039
 20
-706.707716
 30
0.0
 70
0
  0
VERTEX
  5
1C8
  8
8
 10
-3317.106214
 20
-706.752688
 30
0.0
 70
0
  0
VERTEX
  5
1C9
  8
8
 10
-3296.874021
 20
-706.803531
 30
0.0
 70
0
  0
VERTEX
  5
1CA
  8
8
 10
-3279.937519
 20
-706.844761
 30
0.0
 70
0
  0
VERTEX
  5
1CB
  8
8
 10
-3261.609333
 20
-706.888059
 30
0.0
 70
0
  0
VERTEX
  5
1CC
  8
8
 10
-3241.996478
 20
-706.932896
 30
0.0
 70
0
  0
VERTEX
  5
1CD
  8
8
 10
-3221.205953
 20
-706.97874
 30
0.0
 70
0
  0
VERTEX
  5
1CE
  8
8
 10
-3199.344805
 20
-707.025065
 30
0.0
 70
0
  0
VERTEX
  5
1CF
  8
8
 10
-3176.520034
 20
-707.071339
 30
0.0
 70
0
  0
VERTEX
  5
1D0
  8
8
 10
-3160.821022
 20
-707.1019
 30
0.0
 70
0
  0
VERTEX
  5
1D1
  8
8
 10
-3144.773003
 20
-707.132046
 30
0.0
 70
0
  0
VERTEX
  5
1D2
  8
8
 10
-3128.407687
 20
-707.161621
 30
0.0
 70
0
  0
VERTEX
  5
1D3
  8
8
 10
-3111.756781
 20
-707.190468
 30
0.0
 70
0
  0
VERTEX
  5
1D4
  8
8
 10
-3094.851995
 20
-707.21843
 30
0.0
 70
0
  0
VERTEX
  5
1D5
  8
8
 10
-3077.725035
 20
-707.24535
 30
0.0
 70
0
  0
VERTEX
  5
1D6
  8
8
 10
-3060.407611
 20
-707.271072
 30
0.0
 70
0
  0
VERTEX
  5
1D7
  8
8
 10
-3042.931431
 20
-707.295439
 30
0.0
 70
0
  0
VERTEX
  5
1D8
  8
8
 10
-3025.328204
 20
-707.318294
 30
0.0
 70
0
  0
VERTEX
  5
1D9
  8
8
 10
-3007.629636
 20
-707.339479
 30
0.0
 70
0
  0
VERTEX
  5
1DA
  8
8
 10
-2989.867437
 20
-707.358839
 30
0.0
 70
0
  0
VERTEX
  5
1DB
  8
8
 10
-2972.073316
 20
-707.376215
 30
0.0
 70
0
  0
VERTEX
  5
1DC
  8
8
 10
-2954.160895
 20
-707.391591
 30
0.0
 70
0
  0
VERTEX
  5
1DD
  8
8
 10
-2936.406044
 20
-707.404822
 30
0.0
 70
0
  0
VERTEX
  5
1DE
  8
8
 10
-2918.72776
 20
-707.416122
 30
0.0
 70
0
  0
VERTEX
  5
1DF
  8
8
 10
-2901.16433
 20
-707.425598
 30
0.0
 70
0
  0
VERTEX
  5
1E0
  8
8
 10
-2883.754038
 20
-707.433355
 30
0.0
 70
0
  0
VERTEX
  5
1E1
  8
8
 10
-2866.53517
 20
-707.439497
 30
0.0
 70
0
  0
VERTEX
  5
1E2
  8
8
 10
-2849.546011
 20
-707.444131
 30
0.0
 70
0
  0
VERTEX
  5
1E3
  8
8
 10
-2832.824846
 20
-707.447361
 30
0.0
 70
0
  0
VERTEX
  5
1E4
  8
8
 10
-2816.40996
 20
-707.449293
 30
0.0
 70
0
  0
VERTEX
  5
1E5
  8
8
 10
-2800.339638
 20
-707.450032
 30
0.0
 70
0
  0
VERTEX
  5
1E6
  8
8
 10
-2784.652166
 20
-707.449683
 30
0.0
 70
0
  0
VERTEX
  5
1E7
  8
8
 10
-2769.385828
 20
-707.448352
 30
0.0
 70
0
  0
VERTEX
  5
1E8
  8
8
 10
-2754.57891
 20
-707.446144
 30
0.0
 70
0
  0
VERTEX
  5
1E9
  8
8
 10
-2733.313635
 20
-707.441418
 30
0.0
 70
0
  0
VERTEX
  5
1EA
  8
8
 10
-2713.297471
 20
-707.43531
 30
0.0
 70
0
  0
VERTEX
  5
1EB
  8
8
 10
-2694.659568
 20
-707.428177
 30
0.0
 70
0
  0
VERTEX
  5
1EC
  8
8
 10
-2677.529139
 20
-707.420374
 30
0.0
 70
0
  0
VERTEX
  5
1ED
  8
8
 10
-2662.035396
 20
-707.412256
 30
0.0
 70
0
  0
VERTEX
  5
1EE
  8
8
 10
-2644.146358
 20
-707.401557
 30
0.0
 70
0
  0
VERTEX
  5
1EF
  8
8
 10
-2629.702977
 20
-707.391772
 30
0.0
 70
0
  0
VERTEX
  5
1F0
  8
8
 10
-2615.168501
 20
-707.380652
 30
0.0
 70
0
  0
VERTEX
  5
1F1
  8
8
 10
-2610.109558
 20
-707.376328
 30
0.0
 70
0
  0
SEQEND
  5
1C4
  8
8
  0
POLYLINE
  5
1F2
  8
8
 66
1
 10
0.0
 20
0.0
 30
0.0
 70
0
  0
VERTEX
  5
1F4
  8
8
 10
-2523.27774
 20
-588.179626
 30
0.0
 70
0
  0
VERTEX
  5
1F5
  8
8
 10
-2543.001404
 20
-830.705109
 30
0.0
 70
0
  0
SEQEND
  5
1F3
  8
8
  0
POLYLINE
  5
1F6
  8
8
 66
1
 10
0.0
 20
0.0
 30
0.0
 70
0
  0
VERTEX
  5
1F8
  8
8
 10
-2922.343445
 20
-588.594398
 30
0.0
 70
0
  0
VERTEX
  5
1F9
  8
8
 10
-2922.343445
 20
-606.339261
 30
0.0
 70
0
  0
VERTEX
  5
1FA
  8
8
 10
-2922.343445
 20
-621.981681
 30
0.0
 70
0
  0
VERTEX
  5
1FB
  8
8
 10
-2922.343445
 20
-638.840545
 30
0.0
 70
0
  0
VERTEX
  5
1FC
  8
8
 10
-2922.343445
 20
-655.335291
 30
0.0
 70
0
  0
VERTEX
  5
1FD
  8
8
 10
-2922.343445
 20
-672.996935
 30
0.0
 70
0
  0
VERTEX
  5
1FE
  8
8
 10
-2922.343445
 20
-688.731338
 30
0.0
 70
0
  0
VERTEX
  5
1FF
  8
8
 10
-2922.343445
 20
-703.650484
 30
0.0
 70
0
  0
VERTEX
  5
200
  8
8
 10
-2922.343445
 20
-722.276067
 30
0.0
 70
0
  0
VERTEX
  5
201
  8
8
 10
-2922.343445
 20
-737.895237
 30
0.0
 70
0
  0
VERTEX
  5
202
  8
8
 10
-2922.343445
 20
-752.892316
 30
0.0
 70
0
  0
VERTEX
  5
203
  8
8
 10
-2922.343445
 20
-769.219617
 30
0.0
 70
0
  0
VERTEX
  5
204
  8
8
 10
-2922.343445
 20
-785.779173
 30
0.0
 70
0
  0
VERTEX
  5
205
  8
8
 10
-2922.343445
 20
-800.917369
 30
0.0
 70
0
  0
VERTEX
  5
206
  8
8
 10
-2922.343445
 20
-815.380766
 30
0.0
 70
0
  0
VERTEX
  5
207
  8
8
 10
-2922.343445
 20
-816.575394
 30
0.0
 70
0
  0
SEQEND
  5
1F7
  8
8
  0
POLYLINE
  5
208
  8
8
 66
1
 10
0.0
 20
0.0
 30
0.0
 70
0
  0
VERTEX
  5
20A
  8
8
 10
-2604.841309
 20
-537.51236
 30
0.0
 70
0
  0
VERTEX
  5
20B
  8
8
 10
-2599.988098
 20
-830.313492
 30
0.0
 70
0
  0
SEQEND
  5
209
  8
8
  0
POINT
  5
20C
  8
4
 10
-2922.802734
 20
-829.267197
 30
0.0
  0
POINT
  5
20D
  8
4
 10
-3390.345154
 20
-808.202209
 30
0.0
  0
POINT
  5
20E
  8
4
 10
-3389.405212
 20
-597.724419
 30
0.0
  0
POINT
  5
20F
  8
4
 10
-2922.936707
 20
-575.908279
 30
0.0
  0
POINT
  5
210
  8
4
 10
-2922.345886
 20
-816.575394
 30
0.0
  0
POINT
  5
211
  8
4
 10
-3390.288391
 20
-795.486755
 30
0.0
  0
POINT
  5
212
  8
4
 10
-3389.461975
 20
-610.440941
 30
0.0
  0
POINT
  5
213
  8
4
 10
-2922.343445
 20
-588.594398
 30
0.0
  0
LINE
  5
214
  8
7
 10
-3341.298828
 20
-702.162857
 30
0.0
 11
-2446.712189
 21
-702.162857
 31
0.0
  0
ENDSEC
  0
EOF
