  0
SECTION
  2
HEADER
  9
$ACADVER
  1
AC1009
  9
$DWGCODEPAGE
  3
ANSI_1252
  9
$INSBASE
 10
0.0
 20
0.0
 30
0.0
  9
$EXTMIN
 10
1e+20
 20
1e+20
 30
1e+20
  9
$EXTMAX
 10
-1e+20
 20
-1e+20
 30
-1e+20
  9
$LIMMIN
 10
0.0
 20
0.0
  9
$LIMMAX
 10
420.0
 20
297.0
  9
$ORTHOMODE
 70
0
  9
$REGENMODE
 70
1
  9
$FILLMODE
 70
1
  9
$DRAGMODE
 70
2
  9
$QTEXTMODE
 70
0
  9
$MIRRTEXT
 70
1
  9
$OSMODE
 70
20583
  9
$LTSCALE
 40
1.0
  9
$ATTMODE
 70
1
  9
$TEXTSIZE
 40
2.5
  9
$TRACEWID
 40
1.0
  9
$TEXTSTYLE
  7
Standard
  9
$CLAYER
  8
0
  9
$CELTYPE
  6
ByLayer
  9
$CECOLOR
 62
256
  9
$DIMSCALE
 40
1.0
  9
$DIMASZ
 40
2.5
  9
$DIMEXO
 40
0.625
  9
$DIMDLI
 40
3.75
  9
$DIMRND
 40
0.0
  9
$DIMDLE
 40
0.0
  9
$DIMEXE
 40
1.25
  9
$DIMTP
 40
0.0
  9
$DIMTM
 40
0.0
  9
$DIMTXT
 40
2.5
  9
$DIMCEN
 40
2.5
  9
$DIMTSZ
 40
0.0
  9
$DIMTOL
 70
0
  9
$DIMLIM
 70
0
  9
$DIMTIH
 70
0
  9
$DIMTOH
 70
0
  9
$DIMSE1
 70
0
  9
$DIMSE2
 70
0
  9
$DIMTAD
 70
1
  9
$DIMZIN
 70
8
  9
$DIMBLK
  1

  9
$DIMASO
 70
1
  9
$DIMSHO
 70
1
  9
$DIMPOST
  1

  9
$DIMAPOST
  1

  9
$DIMALT
 70
0
  9
$DIMALTD
 70
3
  9
$DIMALTF
 40
0.03937007874
  9
$DIMLFAC
 40
1.0
  9
$DIMTOFL
 70
1
  9
$DIMTVP
 40
0.0
  9
$DIMTIX
 70
0
  9
$DIMSOXD
 70
0
  9
$DIMSAH
 70
0
  9
$DIMBLK1
  1

  9
$DIMBLK2
  1

  9
$DIMSTYLE
  2
ISO-25
  9
$DIMCLRD
 70
0
  9
$DIMCLRE
 70
0
  9
$DIMCLRT
 70
0
  9
$DIMTFAC
 40
1.0
  9
$DIMGAP
 40
0.625
  9
$COORDS
 70
1
  9
$ATTDIA
 70
0
  9
$ATTREQ
 70
1
  9
$HANDLING
 70
1
  9
$LUNITS
 70
2
  9
$LUPREC
 70
4
  9
$SKETCHINC
 40
1.0
  9
$FILLETRAD
 40
10.0
  9
$AUNITS
 70
0
  9
$AUPREC
 70
2
  9
$MENU
  1
.
  9
$ELEVATION
 40
0.0
  9
$PELEVATION
 40
0.0
  9
$THICKNESS
 40
0.0
  9
$LIMCHECK
 70
0
  9
$CHAMFERA
 40
0.0
  9
$CHAMFERB
 40
0.0
  9
$SKPOLY
 70
0
  9
$TDCREATE
 40
2461259.4353819443
  9
$TDUPDATE
 40
2461259.4353819443
  9
$TDINDWG
 40
0.0
  9
$TDUSRTIMER
 40
0.0
  9
$USRTIMER
 70
1
  9
$ANGBASE
 50
0.0
  9
$ANGDIR
 70
0
  9
$PDMODE
 70
0
  9
$PDSIZE
 40
0.0
  9
$PLINEWID
 40
0.0
  9
$SPLFRAME
 70
0
  9
$SPLINETYPE
 70
6
  9
$SPLINESEGS
 70
8
  9
$HANDSEED
  5
100
  9
$SURFTAB1
 70
6
  9
$SURFTAB2
 70
6
  9
$SURFTYPE
 70
6
  9
$SURFU
 70
6
  9
$SURFV
 70
6
  9
$UCSNAME
  2

  9
$UCSORG
 10
0.0
 20
0.0
 30
0.0
  9
$UCSXDIR
 10
1.0
 20
0.0
 30
0.0
  9
$UCSYDIR
 10
0.0
 20
1.0
 30
0.0
  9
$PUCSNAME
  2

  9
$PUCSORG
 10
0.0
 20
0.0
 30
0.0
  9
$PUCSXDIR
 10
1.0
 20
0.0
 30
0.0
  9
$PUCSYDIR
 10
0.0
 20
1.0
 30
0.0
  9
$USERI1
 70
0
  9
$USERI2
 70
0
  9
$USERI3
 70
0
  9
$USERI4
 70
0
  9
$USERI5
 70
0
  9
$USERR1
 40
0.0
  9
$USERR2
 40
0.0
  9
$USERR3
 40
0.0
  9
$USERR4
 40
0.0
  9
$USERR5
 40
0.0
  9
$WORLDVIEW
 70
1
  9
$SHADEDGE
 70
3
  9
$SHADEDIF
 70
70
  9
$TILEMODE
 70
1
  9
$MAXACTVP
 70
64
  9
$PLIMCHECK
 70
0
  9
$PEXTMIN
 10
1e+20
 20
1e+20
 30
1e+20
  9
$PEXTMAX
 10
-1e+20
 20
-1e+20
 30
-1e+20
  9
$PLIMMIN
 10
0.0
 20
0.0
  9
$PLIMMAX
 10
420.0
 20
297.0
  9
$UNITMODE
 70
0
  9
$VISRETAIN
 70
1
  9
$PLINEGEN
 70
0
  9
$PSLTSCALE
 70
1
  0
ENDSEC
  0
SECTION
  2
TABLES
  0
TABLE
  2
VPORT
 70
1
  0
VPORT
  5
23
  2
*Active
 70
0
 10
0.0
 20
0.0
 11
1.0
 21
1.0
 12
0.0
 22
0.0
 13
0.0
 23
0.0
 14
0.5
 24
0.5
 15
0.5
 25
0.5
 16
0.0
 26
0.0
 36
1.0
 17
0.0
 27
0.0
 37
0.0
 40
1000.0
 41
1.34
 42
50.0
 43
0.0
 44
0.0
 50
0.0
 51
0.0
 71
0
 72
1000
 73
1
 74
3
 75
0
 76
0
 77
0
 78
0
  0
ENDTAB
  0
TABLE
  2
LTYPE
 70
3
  0
LTYPE
  5
24
  2
ByBlock
 70
0
  3

 72
65
 73
0
 40
0.0
  0
LTYPE
  5
25
  2
ByLayer
 70
0
  3

 72
65
 73
0
 40
0.0
  0
LTYPE
  5
26
  2
Continuous
 70
0
  3

 72
65
 73
0
 40
0.0
  0
ENDTAB
  0
TABLE
  2
LAYER
 70
4
  0
LAYER
  5
27
  2
0
 70
0
 62
7
  6
Continuous
  0
LAYER
  5
28
  2
Defpoints
 70
0
 62
7
  6
Continuous
  0
LAYER
  5
2D
  2
1
 70
0
 62
1
  6
Continuous
  0
LAYER
  5
2E
  2
7
 70
0
 62
7
  6
Continuous
  0
ENDTAB
  0
TABLE
  2
STYLE
 70
1
  0
STYLE
  5
29
  2
Standard
 70
0
 40
0.0
 41
1.0
 50
0.0
 71
0
 42
2.5
  3
txt
  4

  0
ENDTAB
  0
TABLE
  2
VIEW
 70
0
  0
ENDTAB
  0
TABLE
  2
UCS
 70
0
  0
ENDTAB
  0
TABLE
  2
APPID
 70
3
  0
APPID
  5
2A
  2
ACAD
 70
0
  0
APPID
  5
FE
  2
HATCHBACKGROUNDCOLOR
 70
0
  0
APPID
  5
FF
  2
EZDXF
 70
0
  0
ENDTAB
  0
TABLE
  2
DIMSTYLE
 70
1
  0
DIMSTYLE
105
2B
  2
Standard
 70
0
  3

  4

  5

  6

  7

 40
1.0
 41
2.5
 42
0.625
 43
3.75
 44
1.25
 45
0.0
 46
0.0
 47
0.0
 48
0.0
140
2.5
141
2.5
142
0.0
143
0.03937007874
144
1.0
145
0.0
146
1.0
147
0.625
 71
0
 72
0
 73
0
 74
0
 75
0
 76
0
 77
1
 78
8
170
0
171
3
172
1
173
0
174
0
175
0
176
0
177
0
178
0
  0
ENDTAB
  0
ENDSEC
  0
SECTION
  2
BLOCKS
  0
BLOCK
  5
18
  8
0
  2
$Model_Space
 70
0
 10
0.0
 20
0.0
 30
0.0
  3
$Model_Space
  1

1001
EZDXF
1000
CREATED_BY_EZDXF
1000
1.4.4 @ 2026-08-06T02:26:57.929764+00:00
1000
WRITTEN_BY_EZDXF
1000
1.4.4 @ 2026-08-06T02:26:57.931764+00:00
  0
ENDBLK
  5
19
  8
0
  0
BLOCK
  5
1C
  8
0
  2
$Paper_Space
 70
0
 10
0.0
 20
0.0
 30
0.0
  3
$Paper_Space
  1

  0
ENDBLK
  5
1D
  8
0
  0
ENDSEC
  0
SECTION
  2
ENTITIES
  0
POLYLINE
  5
2F
  8
1
 66
1
 10
0.0
 20
0.0
 30
0.0
 70
1
  0
VERTEX
  5
31
  8
1
 10
-2922.75177
 20
-821.648941
 30
0.0
 70
0
  0
VERTEX
  5
32
  8
1
 10
-2922.75177
 20
-821.648941
 30
0.0
 70
0
  0
VERTEX
  5
33
  8
1
 10
-2935.014773
 20
-821.252521
 30
0.0
 70
0
  0
VERTEX
  5
34
  8
1
 10
-2950.144058
 20
-820.750696
 30
0.0
 70
0
  0
VERTEX
  5
35
  8
1
 10
-2965.273066
 20
-820.237929
 30
0.0
 70
0
  0
VERTEX
  5
36
  8
1
 10
-2980.73432
 20
-819.705792
 30
0.0
 70
0
  0
VERTEX
  5
37
  8
1
 10
-2995.862829
 20
-819.177714
 30
0.0
 70
0
  0
VERTEX
  5
38
  8
1
 10
-3011.268313
 20
-818.631726
 30
0.0
 70
0
  0
VERTEX
  5
39
  8
1
 10
-3026.396111
 20
-818.087205
 30
0.0
 70
0
  0
VERTEX
  5
3A
  8
1
 10
-3041.819923
 20
-817.523539
 30
0.0
 70
0
  0
VERTEX
  5
3B
  8
1
 10
-3056.947126
 20
-816.962276
 30
0.0
 70
0
  0
VERTEX
  5
3C
  8
1
 10
-3072.074013
 20
-816.392281
 30
0.0
 70
0
  0
VERTEX
  5
3D
  8
1
 10
-3087.430676
 20
-815.804259
 30
0.0
 70
0
  0
VERTEX
  5
3E
  8
1
 10
-3102.55686
 20
-815.21537
 30
0.0
 70
0
  0
VERTEX
  5
3F
  8
1
 10
-3117.77985
 20
-814.61249
 30
0.0
 70
0
  0
VERTEX
  5
40
  8
1
 10
-3132.905249
 20
-814.002607
 30
0.0
 70
0
  0
VERTEX
  5
41
  8
1
 10
-3148.325809
 20
-813.368849
 30
0.0
 70
0
  0
VERTEX
  5
42
  8
1
 10
-3163.45012
 20
-812.734775
 30
0.0
 70
0
  0
VERTEX
  5
43
  8
1
 10
-3178.446726
 20
-812.093226
 30
0.0
 70
0
  0
VERTEX
  5
44
  8
1
 10
-3193.570025
 20
-811.433761
 30
0.0
 70
0
  0
VERTEX
  5
45
  8
1
 10
-3208.86593
 20
-810.755167
 30
0.0
 70
0
  0
VERTEX
  5
46
  8
1
 10
-3223.988266
 20
-810.073713
 30
0.0
 70
0
  0
VERTEX
  5
47
  8
1
 10
-3238.997479
 20
-809.387645
 30
0.0
 70
0
  0
VERTEX
  5
48
  8
1
 10
-3254.118895
 20
-808.687158
 30
0.0
 70
0
  0
VERTEX
  5
49
  8
1
 10
-3269.239905
 20
-807.977699
 30
0.0
 70
0
  0
VERTEX
  5
4A
  8
1
 10
-3284.457984
 20
-807.254993
 30
0.0
 70
0
  0
VERTEX
  5
4B
  8
1
 10
-3299.578229
 20
-806.528932
 30
0.0
 70
0
  0
VERTEX
  5
4C
  8
1
 10
-3314.640032
 20
-805.798349
 30
0.0
 70
0
  0
VERTEX
  5
4D
  8
1
 10
-3329.759494
 20
-805.056701
 30
0.0
 70
0
  0
VERTEX
  5
4E
  8
1
 10
-3344.936688
 20
-804.301871
 30
0.0
 70
0
  0
VERTEX
  5
4F
  8
1
 10
-3360.055124
 20
-803.539871
 30
0.0
 70
0
  0
VERTEX
  5
50
  8
1
 10
-3375.108948
 20
-802.775726
 30
0.0
 70
0
  0
VERTEX
  5
51
  8
1
 10
-3375.694605
 20
-802.74599
 30
0.0
 70
0
  0
VERTEX
  5
52
  8
1
 10
-3391.050319
 20
-801.965542
 30
0.0
 70
0
  0
VERTEX
  5
53
  8
1
 10
-3406.851807
 20
-801.162415
 30
0.0
 70
0
  0
VERTEX
  5
54
  8
1
 10
-3406.776438
 20
-785.272396
 30
0.0
 70
0
  0
VERTEX
  5
55
  8
1
 10
-3406.703817
 20
-769.96201
 30
0.0
 70
0
  0
VERTEX
  5
56
  8
1
 10
-3406.631224
 20
-754.651634
 30
0.0
 70
0
  0
VERTEX
  5
57
  8
1
 10
-3406.559323
 20
-739.476292
 30
0.0
 70
0
  0
VERTEX
  5
58
  8
1
 10
-3406.486804
 20
-724.16592
 30
0.0
 70
0
  0
VERTEX
  5
59
  8
1
 10
-3406.4139
 20
-708.77888
 30
0.0
 70
0
  0
VERTEX
  5
5A
  8
1
 10
-3406.341325
 20
-693.468491
 30
0.0
 70
0
  0
VERTEX
  5
5B
  8
1
 10
-3406.26849
 20
-678.109136
 30
0.0
 70
0
  0
VERTEX
  5
5C
  8
1
 10
-3406.195881
 20
-662.798756
 30
0.0
 70
0
  0
VERTEX
  5
5D
  8
1
 10
-3406.123948
 20
-647.627089
 30
0.0
 70
0
  0
VERTEX
  5
5E
  8
1
 10
-3406.051389
 20
-632.31671
 30
0.0
 70
0
  0
VERTEX
  5
5F
  8
1
 10
-3405.978861
 20
-617.006332
 30
0.0
 70
0
  0
VERTEX
  5
60
  8
1
 10
-3405.919495
 20
-604.469833
 30
0.0
 70
0
  0
VERTEX
  5
61
  8
1
 10
-3390.428967
 20
-603.737087
 30
0.0
 70
0
  0
VERTEX
  5
62
  8
1
 10
-3375.15784
 20
-603.014717
 30
0.0
 70
0
  0
VERTEX
  5
63
  8
1
 10
-3374.161987
 20
-602.967606
 30
0.0
 70
0
  0
VERTEX
  5
64
  8
1
 10
-3359.943991
 20
-602.295055
 30
0.0
 70
0
  0
VERTEX
  5
65
  8
1
 10
-3344.515887
 20
-601.565258
 30
0.0
 70
0
  0
VERTEX
  5
66
  8
1
 10
-3329.238244
 20
-600.84258
 30
0.0
 70
0
  0
VERTEX
  5
67
  8
1
 10
-3313.810105
 20
-600.112783
 30
0.0
 70
0
  0
VERTEX
  5
68
  8
1
 10
-3298.57184
 20
-599.391963
 30
0.0
 70
0
  0
VERTEX
  5
69
  8
1
 10
-3283.143723
 20
-598.662163
 30
0.0
 70
0
  0
VERTEX
  5
6A
  8
1
 10
-3267.693003
 20
-597.931295
 30
0.0
 70
0
  0
VERTEX
  5
6B
  8
1
 10
-3252.264898
 20
-597.201497
 30
0.0
 70
0
  0
VERTEX
  5
6C
  8
1
 10
-3237.280774
 20
-596.492701
 30
0.0
 70
0
  0
VERTEX
  5
6D
  8
1
 10
-3221.852644
 20
-595.762901
 30
0.0
 70
0
  0
VERTEX
  5
6E
  8
1
 10
-3206.408646
 20
-595.032351
 30
0.0
 70
0
  0
VERTEX
  5
6F
  8
1
 10
-3191.182961
 20
-594.312126
 30
0.0
 70
0
  0
VERTEX
  5
70
  8
1
 10
-3175.754863
 20
-593.582325
 30
0.0
 70
0
  0
VERTEX
  5
71
  8
1
 10
-3160.331052
 20
-592.852732
 30
0.0
 70
0
  0
VERTEX
  5
72
  8
1
 10
-3144.902934
 20
-592.122945
 30
0.0
 70
0
  0
VERTEX
  5
73
  8
1
 10
-3129.712297
 20
-591.404393
 30
0.0
 70
0
  0
VERTEX
  5
74
  8
1
 10
-3114.284157
 20
-590.6746
 30
0.0
 70
0
  0
VERTEX
  5
75
  8
1
 10
-3099.058484
 20
-589.954375
 30
0.0
 70
0
  0
VERTEX
  5
76
  8
1
 10
-3083.63042
 20
-589.224569
 30
0.0
 70
0
  0
VERTEX
  5
77
  8
1
 10
-3068.202357
 20
-588.494763
 30
0.0
 70
0
  0
VERTEX
  5
78
  8
1
 10
-3052.729695
 20
-587.762855
 30
0.0
 70
0
  0
VERTEX
  5
79
  8
1
 10
-3037.685658
 20
-587.051227
 30
0.0
 70
0
  0
VERTEX
  5
7A
  8
1
 10
-3022.257558
 20
-586.321433
 30
0.0
 70
0
  0
VERTEX
  5
7B
  8
1
 10
-3007.126888
 20
-585.605712
 30
0.0
 70
0
  0
VERTEX
  5
7C
  8
1
 10
-2991.69872
 20
-584.875924
 30
0.0
 70
0
  0
VERTEX
  5
7D
  8
1
 10
-2976.578995
 20
-584.160724
 30
0.0
 70
0
  0
VERTEX
  5
7E
  8
1
 10
-2961.150856
 20
-583.430925
 30
0.0
 70
0
  0
VERTEX
  5
7F
  8
1
 10
-2945.900191
 20
-582.709514
 30
0.0
 70
0
  0
VERTEX
  5
80
  8
1
 10
-2930.747926
 20
-581.992755
 30
0.0
 70
0
  0
VERTEX
  5
81
  8
1
 10
-2922.94342
 20
-581.623573
 30
0.0
 70
0
  0
VERTEX
  5
82
  8
1
 10
-2923.178101
 20
-581.635323
 30
0.0
 70
0
  0
VERTEX
  5
83
  8
1
 10
-2907.497973
 20
-580.310335
 30
0.0
 70
0
  0
VERTEX
  5
84
  8
1
 10
-2892.413566
 20
-578.962969
 30
0.0
 70
0
  0
VERTEX
  5
85
  8
1
 10
-2876.949234
 20
-577.482344
 30
0.0
 70
0
  0
VERTEX
  5
86
  8
1
 10
-2862.05091
 20
-575.965561
 30
0.0
 70
0
  0
VERTEX
  5
87
  8
1
 10
-2846.603998
 20
-574.312341
 30
0.0
 70
0
  0
VERTEX
  5
88
  8
1
 10
-2831.882897
 20
-572.659116
 30
0.0
 70
0
  0
VERTEX
  5
89
  8
1
 10
-2816.454655
 20
-570.840272
 30
0.0
 70
0
  0
VERTEX
  5
8A
  8
1
 10
-2801.989304
 20
-569.0507
 30
0.0
 70
0
  0
VERTEX
  5
8B
  8
1
 10
-2786.583636
 20
-567.049594
 30
0.0
 70
0
  0
VERTEX
  5
8C
  8
1
 10
-2772.135689
 20
-565.074479
 30
0.0
 70
0
  0
VERTEX
  5
8D
  8
1
 10
-2756.759649
 20
-562.857288
 30
0.0
 70
0
  0
VERTEX
  5
8E
  8
1
 10
-2742.12533
 20
-560.628577
 30
0.0
 70
0
  0
VERTEX
  5
8F
  8
1
 10
-2726.786993
 20
-558.163482
 30
0.0
 70
0
  0
VERTEX
  5
90
  8
1
 10
-2712.013426
 20
-555.670943
 30
0.0
 70
0
  0
VERTEX
  5
91
  8
1
 10
-2696.713503
 20
-552.97777
 30
0.0
 70
0
  0
VERTEX
  5
92
  8
1
 10
-2682.381605
 20
-550.362321
 30
0.0
 70
0
  0
VERTEX
  5
93
  8
1
 10
-2667.114842
 20
-547.487715
 30
0.0
 70
0
  0
VERTEX
  5
94
  8
1
 10
-2652.802259
 20
-544.713281
 30
0.0
 70
0
  0
VERTEX
  5
95
  8
1
 10
-2637.566922
 20
-541.676184
 30
0.0
 70
0
  0
VERTEX
  5
96
  8
1
 10
-2623.306173
 20
-538.750318
 30
0.0
 70
0
  0
VERTEX
  5
97
  8
1
 10
-2608.011332
 20
-535.527701
 30
0.0
 70
0
  0
VERTEX
  5
98
  8
1
 10
-2600.985413
 20
-534.025536
 30
0.0
 70
0
  0
VERTEX
  5
99
  8
1
 10
-2596.344404
 20
-540.593314
 30
0.0
 70
0
  0
VERTEX
  5
9A
  8
1
 10
-2592.471178
 20
-545.675932
 30
0.0
 70
0
  0
VERTEX
  5
9B
  8
1
 10
-2589.446686
 20
-549.289723
 30
0.0
 70
0
  0
VERTEX
  5
9C
  8
1
 10
-2586.439703
 20
-552.494822
 30
0.0
 70
0
  0
VERTEX
  5
9D
  8
1
 10
-2583.451096
 20
-555.338876
 30
0.0
 70
0
  0
VERTEX
  5
9E
  8
1
 10
-2580.466957
 20
-557.843709
 30
0.0
 70
0
  0
VERTEX
  5
9F
  8
1
 10
-2577.655016
 20
-559.894023
 30
0.0
 70
0
  0
VERTEX
  5
A0
  8
1
 10
-2574.910667
 20
-561.596095
 30
0.0
 70
0
  0
VERTEX
  5
A1
  8
1
 10
-2571.9033
 20
-563.154775
 30
0.0
 70
0
  0
VERTEX
  5
A2
  8
1
 10
-2568.476993
 20
-564.636083
 30
0.0
 70
0
  0
VERTEX
  5
A3
  8
1
 10
-2564.655972
 20
-566.009201
 30
0.0
 70
0
  0
VERTEX
  5
A4
  8
1
 10
-2560.231577
 20
-567.324013
 30
0.0
 70
0
  0
VERTEX
  5
A5
  8
1
 10
-2554.928113
 20
-568.619958
 30
0.0
 70
0
  0
VERTEX
  5
A6
  8
1
 10
-2548.706598
 20
-569.867055
 30
0.0
 70
0
  0
VERTEX
  5
A7
  8
1
 10
-2540.843795
 20
-571.170219
 30
0.0
 70
0
  0
VERTEX
  5
A8
  8
1
 10
-2532.841222
 20
-572.251921
 30
0.0
 70
0
  0
VERTEX
  5
A9
  8
1
 10
-2524.001672
 20
-573.178391
 30
0.0
 70
0
  0
VERTEX
  5
AA
  8
1
 10
-2522.191925
 20
-573.341789
 30
0.0
 70
0
  0
VERTEX
  5
AB
  8
1
 10
-2506.590308
 20
-574.748162
 30
0.0
 70
0
  0
VERTEX
  5
AC
  8
1
 10
-2491.179806
 20
-576.185027
 30
0.0
 70
0
  0
VERTEX
  5
AD
  8
1
 10
-2475.803176
 20
-577.683398
 30
0.0
 70
0
  0
VERTEX
  5
AE
  8
1
 10
-2460.473018
 20
-579.25734
 30
0.0
 70
0
  0
VERTEX
  5
AF
  8
1
 10
-2445.1625
 20
-580.91764
 30
0.0
 70
0
  0
VERTEX
  5
B0
  8
1
 10
-2429.851039
 20
-582.663768
 30
0.0
 70
0
  0
VERTEX
  5
B1
  8
1
 10
-2414.747521
 20
-584.461113
 30
0.0
 70
0
  0
VERTEX
  5
B2
  8
1
 10
-2399.453249
 20
-586.352615
 30
0.0
 70
0
  0
VERTEX
  5
B3
  8
1
 10
-2384.167855
 20
-588.3144
 30
0.0
 70
0
  0
VERTEX
  5
B4
  8
1
 10
-2369.218596
 20
-590.298586
 30
0.0
 70
0
  0
VERTEX
  5
B5
  8
1
 10
-2355.144653
 20
-592.190285
 30
0.0
 70
0
  0
VERTEX
  5
B6
  8
1
 10
-2355.360276
 20
-608.142269
 30
0.0
 70
0
  0
VERTEX
  5
B7
  8
1
 10
-2355.38832
 20
-623.62717
 30
0.0
 70
0
  0
VERTEX
  5
B8
  8
1
 10
-2355.197543
 20
-639.088194
 30
0.0
 70
0
  0
VERTEX
  5
B9
  8
1
 10
-2354.751786
 20
-654.122118
 30
0.0
 70
0
  0
VERTEX
  5
BA
  8
1
 10
-2354.056935
 20
-669.147296
 30
0.0
 70
0
  0
VERTEX
  5
BB
  8
1
 10
-2353.092897
 20
-684.699071
 30
0.0
 70
0
  0
VERTEX
  5
BC
  8
1
 10
-2352.114563
 20
-698.092575
 30
0.0
 70
0
  0
VERTEX
  5
BD
  8
1
 10
-2365.286378
 20
-700.009949
 30
0.0
 70
0
  0
VERTEX
  5
BE
  8
1
 10
-2370.547241
 20
-700.812482
 30
0.0
 70
0
  0
VERTEX
  5
BF
  8
1
 10
-2375.501444
 20
-701.858197
 30
0.0
 70
0
  0
VERTEX
  5
C0
  8
1
 10
-2380.559235
 20
-703.166616
 30
0.0
 70
0
  0
VERTEX
  5
C1
  8
1
 10
-2385.229272
 20
-704.620356
 30
0.0
 70
0
  0
VERTEX
  5
C2
  8
1
 10
-2389.683257
 20
-706.258487
 30
0.0
 70
0
  0
VERTEX
  5
C3
  8
1
 10
-2393.766745
 20
-708.017495
 30
0.0
 70
0
  0
VERTEX
  5
C4
  8
1
 10
-2397.441137
 20
-709.85826
 30
0.0
 70
0
  0
VERTEX
  5
C5
  8
1
 10
-2400.782254
 20
-711.7985
 30
0.0
 70
0
  0
VERTEX
  5
C6
  8
1
 10
-2403.771468
 20
-713.811399
 30
0.0
 70
0
  0
VERTEX
  5
C7
  8
1
 10
-2406.450322
 20
-715.909516
 30
0.0
 70
0
  0
VERTEX
  5
C8
  8
1
 10
-2408.749999
 20
-718.012932
 30
0.0
 70
0
  0
VERTEX
  5
C9
  8
1
 10
-2410.752145
 20
-720.163597
 30
0.0
 70
0
  0
VERTEX
  5
CA
  8
1
 10
-2412.524048
 20
-722.431647
 30
0.0
 70
0
  0
VERTEX
  5
CB
  8
1
 10
-2414.050529
 20
-724.799787
 30
0.0
 70
0
  0
VERTEX
  5
CC
  8
1
 10
-2415.412831
 20
-727.377754
 30
0.0
 70
0
  0
VERTEX
  5
CD
  8
1
 10
-2416.665219
 20
-730.286096
 30
0.0
 70
0
  0
VERTEX
  5
CE
  8
1
 10
-2417.784959
 20
-733.529464
 30
0.0
 70
0
  0
VERTEX
  5
CF
  8
1
 10
-2418.75212
 20
-737.099844
 30
0.0
 70
0
  0
VERTEX
  5
D0
  8
1
 10
-2419.571227
 20
-741.092754
 30
0.0
 70
0
  0
VERTEX
  5
D1
  8
1
 10
-2420.224932
 20
-745.566688
 30
0.0
 70
0
  0
VERTEX
  5
D2
  8
1
 10
-2420.680276
 20
-750.437604
 30
0.0
 70
0
  0
VERTEX
  5
D3
  8
1
 10
-2420.931115
 20
-755.907904
 30
0.0
 70
0
  0
VERTEX
  5
D4
  8
1
 10
-2420.951498
 20
-761.937159
 30
0.0
 70
0
  0
VERTEX
  5
D5
  8
1
 10
-2420.712974
 20
-768.883599
 30
0.0
 70
0
  0
VERTEX
  5
D6
  8
1
 10
-2420.193705
 20
-776.601727
 30
0.0
 70
0
  0
VERTEX
  5
D7
  8
1
 10
-2419.378259
 20
-784.940809
 30
0.0
 70
0
  0
VERTEX
  5
D8
  8
1
 10
-2418.190189
 20
-794.421018
 30
0.0
 70
0
  0
VERTEX
  5
D9
  8
1
 10
-2416.385424
 20
-806.573844
 30
0.0
 70
0
  0
VERTEX
  5
DA
  8
1
 10
-2413.991592
 20
-821.337215
 30
0.0
 70
0
  0
VERTEX
  5
DB
  8
1
 10
-2413.717499
 20
-822.987976
 30
0.0
 70
0
  0
VERTEX
  5
DC
  8
1
 10
-2419.444045
 20
-823.796135
 30
0.0
 70
0
  0
VERTEX
  5
DD
  8
1
 10
-2434.395174
 20
-825.76601
 30
0.0
 70
0
  0
VERTEX
  5
DE
  8
1
 10
-2449.264515
 20
-827.543504
 30
0.0
 70
0
  0
VERTEX
  5
DF
  8
1
 10
-2464.468067
 20
-829.13836
 30
0.0
 70
0
  0
VERTEX
  5
E0
  8
1
 10
-2478.10407
 20
-830.326765
 30
0.0
 70
0
  0
VERTEX
  5
E1
  8
1
 10
-2492.422903
 20
-831.325302
 30
0.0
 70
0
  0
VERTEX
  5
E2
  8
1
 10
-2507.330474
 20
-832.109001
 30
0.0
 70
0
  0
VERTEX
  5
E3
  8
1
 10
-2522.637658
 20
-832.661002
 30
0.0
 70
0
  0
VERTEX
  5
E4
  8
1
 10
-2538.133835
 20
-832.99607
 30
0.0
 70
0
  0
VERTEX
  5
E5
  8
1
 10
-2553.605162
 20
-833.149857
 30
0.0
 70
0
  0
VERTEX
  5
E6
  8
1
 10
-2569.105008
 20
-833.15617
 30
0.0
 70
0
  0
VERTEX
  5
E7
  8
1
 10
-2584.180029
 20
-833.046477
 30
0.0
 70
0
  0
VERTEX
  5
E8
  8
1
 10
-2599.678448
 20
-832.845154
 30
0.0
 70
0
  0
VERTEX
  5
E9
  8
1
 10
-2615.183464
 20
-832.586217
 30
0.0
 70
0
  0
VERTEX
  5
EA
  8
1
 10
-2630.680098
 20
-832.279659
 30
0.0
 70
0
  0
VERTEX
  5
EB
  8
1
 10
-2646.066437
 20
-831.918297
 30
0.0
 70
0
  0
VERTEX
  5
EC
  8
1
 10
-2661.560293
 20
-831.491727
 30
0.0
 70
0
  0
VERTEX
  5
ED
  8
1
 10
-2676.569899
 20
-831.018854
 30
0.0
 70
0
  0
VERTEX
  5
EE
  8
1
 10
-2692.060117
 20
-830.476842
 30
0.0
 70
0
  0
VERTEX
  5
EF
  8
1
 10
-2707.589992
 20
-829.894613
 30
0.0
 70
0
  0
VERTEX
  5
F0
  8
1
 10
-2723.0779
 20
-829.291214
 30
0.0
 70
0
  0
VERTEX
  5
F1
  8
1
 10
-2738.075153
 20
-828.699032
 30
0.0
 70
0
  0
VERTEX
  5
F2
  8
1
 10
-2753.562847
 20
-828.089316
 30
0.0
 70
0
  0
VERTEX
  5
F3
  8
1
 10
-2768.771229
 20
-827.494192
 30
0.0
 70
0
  0
VERTEX
  5
F4
  8
1
 10
-2784.259188
 20
-826.89226
 30
0.0
 70
0
  0
VERTEX
  5
F5
  8
1
 10
-2799.536984
 20
-826.302093
 30
0.0
 70
0
  0
VERTEX
  5
F6
  8
1
 10
-2815.025162
 20
-825.706955
 30
0.0
 70
0
  0
VERTEX
  5
F7
  8
1
 10
-2830.152745
 20
-825.128636
 30
0.0
 70
0
  0
VERTEX
  5
F8
  8
1
 10
-2845.641212
 20
-824.53947
 30
0.0
 70
0
  0
VERTEX
  5
F9
  8
1
 10
-2860.933817
 20
-823.960452
 30
0.0
 70
0
  0
VERTEX
  5
FA
  8
1
 10
-2876.422439
 20
-823.376644
 30
0.0
 70
0
  0
VERTEX
  5
FB
  8
1
 10
-2891.515364
 20
-822.810805
 30
0.0
 70
0
  0
VERTEX
  5
FC
  8
1
 10
-2906.937532
 20
-822.235958
 30
0.0
 70
0
  0
SEQEND
  5
30
  8
1
  0
LINE
  5
FD
  8
7
 10
-3341.298828
 20
-702.162857
 30
0.0
 11
-2446.712189
 21
-702.162857
 31
0.0
  0
ENDSEC
  0
EOF
