  0
SECTION
  2
HEADER
  9
$ACADVER
  1
AC1009
  9
$DWGCODEPAGE
  3
ANSI_1252
  9
$INSBASE
 10
0.0
 20
0.0
 30
0.0
  9
$EXTMIN
 10
1e+20
 20
1e+20
 30
1e+20
  9
$EXTMAX
 10
-1e+20
 20
-1e+20
 30
-1e+20
  9
$LIMMIN
 10
0.0
 20
0.0
  9
$LIMMAX
 10
420.0
 20
297.0
  9
$ORTHOMODE
 70
0
  9
$REGENMODE
 70
1
  9
$FILLMODE
 70
1
  9
$DRAGMODE
 70
2
  9
$QTEXTMODE
 70
0
  9
$MIRRTEXT
 70
1
  9
$OSMODE
 70
20583
  9
$LTSCALE
 40
1.0
  9
$ATTMODE
 70
1
  9
$TEXTSIZE
 40
2.5
  9
$TRACEWID
 40
1.0
  9
$TEXTSTYLE
  7
Standard
  9
$CLAYER
  8
0
  9
$CELTYPE
  6
ByLayer
  9
$CECOLOR
 62
256
  9
$DIMSCALE
 40
1.0
  9
$DIMASZ
 40
2.5
  9
$DIMEXO
 40
0.625
  9
$DIMDLI
 40
3.75
  9
$DIMRND
 40
0.0
  9
$DIMDLE
 40
0.0
  9
$DIMEXE
 40
1.25
  9
$DIMTP
 40
0.0
  9
$DIMTM
 40
0.0
  9
$DIMTXT
 40
2.5
  9
$DIMCEN
 40
2.5
  9
$DIMTSZ
 40
0.0
  9
$DIMTOL
 70
0
  9
$DIMLIM
 70
0
  9
$DIMTIH
 70
0
  9
$DIMTOH
 70
0
  9
$DIMSE1
 70
0
  9
$DIMSE2
 70
0
  9
$DIMTAD
 70
1
  9
$DIMZIN
 70
8
  9
$DIMBLK
  1

  9
$DIMASO
 70
1
  9
$DIMSHO
 70
1
  9
$DIMPOST
  1

  9
$DIMAPOST
  1

  9
$DIMALT
 70
0
  9
$DIMALTD
 70
3
  9
$DIMALTF
 40
0.03937007874
  9
$DIMLFAC
 40
1.0
  9
$DIMTOFL
 70
1
  9
$DIMTVP
 40
0.0
  9
$DIMTIX
 70
0
  9
$DIMSOXD
 70
0
  9
$DIMSAH
 70
0
  9
$DIMBLK1
  1

  9
$DIMBLK2
  1

  9
$DIMSTYLE
  2
ISO-25
  9
$DIMCLRD
 70
0
  9
$DIMCLRE
 70
0
  9
$DIMCLRT
 70
0
  9
$DIMTFAC
 40
1.0
  9
$DIMGAP
 40
0.625
  9
$COORDS
 70
1
  9
$ATTDIA
 70
0
  9
$ATTREQ
 70
1
  9
$HANDLING
 70
1
  9
$LUNITS
 70
2
  9
$LUPREC
 70
4
  9
$SKETCHINC
 40
1.0
  9
$FILLETRAD
 40
10.0
  9
$AUNITS
 70
0
  9
$AUPREC
 70
2
  9
$MENU
  1
.
  9
$ELEVATION
 40
0.0
  9
$PELEVATION
 40
0.0
  9
$THICKNESS
 40
0.0
  9
$LIMCHECK
 70
0
  9
$CHAMFERA
 40
0.0
  9
$CHAMFERB
 40
0.0
  9
$SKPOLY
 70
0
  9
$TDCREATE
 40
2461259.4353819443
  9
$TDUPDATE
 40
2461259.4353819443
  9
$TDINDWG
 40
0.0
  9
$TDUSRTIMER
 40
0.0
  9
$USRTIMER
 70
1
  9
$ANGBASE
 50
0.0
  9
$ANGDIR
 70
0
  9
$PDMODE
 70
0
  9
$PDSIZE
 40
0.0
  9
$PLINEWID
 40
0.0
  9
$SPLFRAME
 70
0
  9
$SPLINETYPE
 70
6
  9
$SPLINESEGS
 70
8
  9
$HANDSEED
  5
FF
  9
$SURFTAB1
 70
6
  9
$SURFTAB2
 70
6
  9
$SURFTYPE
 70
6
  9
$SURFU
 70
6
  9
$SURFV
 70
6
  9
$UCSNAME
  2

  9
$UCSORG
 10
0.0
 20
0.0
 30
0.0
  9
$UCSXDIR
 10
1.0
 20
0.0
 30
0.0
  9
$UCSYDIR
 10
0.0
 20
1.0
 30
0.0
  9
$PUCSNAME
  2

  9
$PUCSORG
 10
0.0
 20
0.0
 30
0.0
  9
$PUCSXDIR
 10
1.0
 20
0.0
 30
0.0
  9
$PUCSYDIR
 10
0.0
 20
1.0
 30
0.0
  9
$USERI1
 70
0
  9
$USERI2
 70
0
  9
$USERI3
 70
0
  9
$USERI4
 70
0
  9
$USERI5
 70
0
  9
$USERR1
 40
0.0
  9
$USERR2
 40
0.0
  9
$USERR3
 40
0.0
  9
$USERR4
 40
0.0
  9
$USERR5
 40
0.0
  9
$WORLDVIEW
 70
1
  9
$SHADEDGE
 70
3
  9
$SHADEDIF
 70
70
  9
$TILEMODE
 70
1
  9
$MAXACTVP
 70
64
  9
$PLIMCHECK
 70
0
  9
$PEXTMIN
 10
1e+20
 20
1e+20
 30
1e+20
  9
$PEXTMAX
 10
-1e+20
 20
-1e+20
 30
-1e+20
  9
$PLIMMIN
 10
0.0
 20
0.0
  9
$PLIMMAX
 10
420.0
 20
297.0
  9
$UNITMODE
 70
0
  9
$VISRETAIN
 70
1
  9
$PLINEGEN
 70
0
  9
$PSLTSCALE
 70
1
  0
ENDSEC
  0
SECTION
  2
TABLES
  0
TABLE
  2
VPORT
 70
1
  0
VPORT
  5
23
  2
*Active
 70
0
 10
0.0
 20
0.0
 11
1.0
 21
1.0
 12
0.0
 22
0.0
 13
0.0
 23
0.0
 14
0.5
 24
0.5
 15
0.5
 25
0.5
 16
0.0
 26
0.0
 36
1.0
 17
0.0
 27
0.0
 37
0.0
 40
1000.0
 41
1.34
 42
50.0
 43
0.0
 44
0.0
 50
0.0
 51
0.0
 71
0
 72
1000
 73
1
 74
3
 75
0
 76
0
 77
0
 78
0
  0
ENDTAB
  0
TABLE
  2
LTYPE
 70
3
  0
LTYPE
  5
24
  2
ByBlock
 70
0
  3

 72
65
 73
0
 40
0.0
  0
LTYPE
  5
25
  2
ByLayer
 70
0
  3

 72
65
 73
0
 40
0.0
  0
LTYPE
  5
26
  2
Continuous
 70
0
  3

 72
65
 73
0
 40
0.0
  0
ENDTAB
  0
TABLE
  2
LAYER
 70
4
  0
LAYER
  5
27
  2
0
 70
0
 62
7
  6
Continuous
  0
LAYER
  5
28
  2
Defpoints
 70
0
 62
7
  6
Continuous
  0
LAYER
  5
2D
  2
1
 70
0
 62
1
  6
Continuous
  0
LAYER
  5
2E
  2
7
 70
0
 62
7
  6
Continuous
  0
ENDTAB
  0
TABLE
  2
STYLE
 70
1
  0
STYLE
  5
29
  2
Standard
 70
0
 40
0.0
 41
1.0
 50
0.0
 71
0
 42
2.5
  3
txt
  4

  0
ENDTAB
  0
TABLE
  2
VIEW
 70
0
  0
ENDTAB
  0
TABLE
  2
UCS
 70
0
  0
ENDTAB
  0
TABLE
  2
APPID
 70
3
  0
APPID
  5
2A
  2
ACAD
 70
0
  0
APPID
  5
FD
  2
HATCHBACKGROUNDCOLOR
 70
0
  0
APPID
  5
FE
  2
EZDXF
 70
0
  0
ENDTAB
  0
TABLE
  2
DIMSTYLE
 70
1
  0
DIMSTYLE
105
2B
  2
Standard
 70
0
  3

  4

  5

  6

  7

 40
1.0
 41
2.5
 42
0.625
 43
3.75
 44
1.25
 45
0.0
 46
0.0
 47
0.0
 48
0.0
140
2.5
141
2.5
142
0.0
143
0.03937007874
144
1.0
145
0.0
146
1.0
147
0.625
 71
0
 72
0
 73
0
 74
0
 75
0
 76
0
 77
1
 78
8
170
0
171
3
172
1
173
0
174
0
175
0
176
0
177
0
178
0
  0
ENDTAB
  0
ENDSEC
  0
SECTION
  2
BLOCKS
  0
BLOCK
  5
18
  8
0
  2
$Model_Space
 70
0
 10
0.0
 20
0.0
 30
0.0
  3
$Model_Space
  1

1001
EZDXF
1000
CREATED_BY_EZDXF
1000
1.4.4 @ 2026-08-06T02:26:57.885764+00:00
1000
WRITTEN_BY_EZDXF
1000
1.4.4 @ 2026-08-06T02:26:57.887763+00:00
  0
ENDBLK
  5
19
  8
0
  0
BLOCK
  5
1C
  8
0
  2
$Paper_Space
 70
0
 10
0.0
 20
0.0
 30
0.0
  3
$Paper_Space
  1

  0
ENDBLK
  5
1D
  8
0
  0
ENDSEC
  0
SECTION
  2
ENTITIES
  0
POLYLINE
  5
2F
  8
1
 66
1
 10
0.0
 20
0.0
 30
0.0
 70
1
  0
VERTEX
  5
31
  8
1
 10
-2922.737122
 20
-819.109421
 30
0.0
 70
0
  0
VERTEX
  5
32
  8
1
 10
-2922.737122
 20
-819.109421
 30
0.0
 70
0
  0
VERTEX
  5
33
  8
1
 10
-2925.532213
 20
-819.023205
 30
0.0
 70
0
  0
VERTEX
  5
34
  8
1
 10
-2941.024932
 20
-818.535799
 30
0.0
 70
0
  0
VERTEX
  5
35
  8
1
 10
-2956.517279
 20
-818.034662
 30
0.0
 70
0
  0
VERTEX
  5
36
  8
1
 10
-2971.787265
 20
-817.530906
 30
0.0
 70
0
  0
VERTEX
  5
37
  8
1
 10
-2987.278911
 20
-817.012232
 30
0.0
 70
0
  0
VERTEX
  5
38
  8
1
 10
-3002.491807
 20
-816.494992
 30
0.0
 70
0
  0
VERTEX
  5
39
  8
1
 10
-3017.982932
 20
-815.959636
 30
0.0
 70
0
  0
VERTEX
  5
3A
  8
1
 10
-3033.473791
 20
-815.415512
 30
0.0
 70
0
  0
VERTEX
  5
3B
  8
1
 10
-3048.700423
 20
-814.872131
 30
0.0
 70
0
  0
VERTEX
  5
3C
  8
1
 10
-3064.190716
 20
-814.310341
 30
0.0
 70
0
  0
VERTEX
  5
3D
  8
1
 10
-3079.359332
 20
-813.750995
 30
0.0
 70
0
  0
VERTEX
  5
3E
  8
1
 10
-3094.84887
 20
-813.169928
 30
0.0
 70
0
  0
VERTEX
  5
3F
  8
1
 10
-3109.883835
 20
-812.595863
 30
0.0
 70
0
  0
VERTEX
  5
40
  8
1
 10
-3125.372449
 20
-811.993457
 30
0.0
 70
0
  0
VERTEX
  5
41
  8
1
 10
-3140.602512
 20
-811.38936
 30
0.0
 70
0
  0
VERTEX
  5
42
  8
1
 10
-3156.090205
 20
-810.762275
 30
0.0
 70
0
  0
VERTEX
  5
43
  8
1
 10
-3171.416434
 20
-810.12832
 30
0.0
 70
0
  0
VERTEX
  5
44
  8
1
 10
-3186.903058
 20
-809.474227
 30
0.0
 70
0
  0
VERTEX
  5
45
  8
1
 10
-3202.00977
 20
-808.824229
 30
0.0
 70
0
  0
VERTEX
  5
46
  8
1
 10
-3217.495407
 20
-808.146739
 30
0.0
 70
0
  0
VERTEX
  5
47
  8
1
 10
-3232.825092
 20
-807.465678
 30
0.0
 70
0
  0
VERTEX
  5
48
  8
1
 10
-3248.309798
 20
-806.767833
 30
0.0
 70
0
  0
VERTEX
  5
49
  8
1
 10
-3263.794078
 20
-806.060432
 30
0.0
 70
0
  0
VERTEX
  5
4A
  8
1
 10
-3278.818457
 20
-805.365258
 30
0.0
 70
0
  0
VERTEX
  5
4B
  8
1
 10
-3294.301913
 20
-804.640438
 30
0.0
 70
0
  0
VERTEX
  5
4C
  8
1
 10
-3309.686319
 20
-803.912479
 30
0.0
 70
0
  0
VERTEX
  5
4D
  8
1
 10
-3325.168928
 20
-803.171175
 30
0.0
 70
0
  0
VERTEX
  5
4E
  8
1
 10
-3340.152797
 20
-802.443392
 30
0.0
 70
0
  0
VERTEX
  5
4F
  8
1
 10
-3355.634448
 20
-801.68098
 30
0.0
 70
0
  0
VERTEX
  5
50
  8
1
 10
-3370.030518
 20
-800.966873
 30
0.0
 70
0
  0
VERTEX
  5
51
  8
1
 10
-3370.915645
 20
-800.922977
 30
0.0
 70
0
  0
VERTEX
  5
52
  8
1
 10
-3386.251206
 20
-800.161375
 30
0.0
 70
0
  0
VERTEX
  5
53
  8
1
 10
-3401.773071
 20
-799.390488
 30
0.0
 70
0
  0
VERTEX
  5
54
  8
1
 10
-3401.696394
 20
-783.539546
 30
0.0
 70
0
  0
VERTEX
  5
55
  8
1
 10
-3401.623627
 20
-768.487738
 30
0.0
 70
0
  0
VERTEX
  5
56
  8
1
 10
-3401.550853
 20
-753.435939
 30
0.0
 70
0
  0
VERTEX
  5
57
  8
1
 10
-3401.477087
 20
-738.190339
 30
0.0
 70
0
  0
VERTEX
  5
58
  8
1
 10
-3401.404222
 20
-723.13854
 30
0.0
 70
0
  0
VERTEX
  5
59
  8
1
 10
-3401.331572
 20
-708.130295
 30
0.0
 70
0
  0
VERTEX
  5
5A
  8
1
 10
-3401.258738
 20
-693.078497
 30
0.0
 70
0
  0
VERTEX
  5
5B
  8
1
 10
-3401.184055
 20
-677.636386
 30
0.0
 70
0
  0
VERTEX
  5
5C
  8
1
 10
-3401.111279
 20
-662.58458
 30
0.0
 70
0
  0
VERTEX
  5
5D
  8
1
 10
-3401.038695
 20
-647.576345
 30
0.0
 70
0
  0
VERTEX
  5
5E
  8
1
 10
-3400.965868
 20
-632.524545
 30
0.0
 70
0
  0
VERTEX
  5
5F
  8
1
 10
-3400.89304
 20
-617.472752
 30
0.0
 70
0
  0
VERTEX
  5
60
  8
1
 10
-3400.838623
 20
-606.223488
 30
0.0
 70
0
  0
VERTEX
  5
61
  8
1
 10
-3385.249018
 20
-605.483142
 30
0.0
 70
0
  0
VERTEX
  5
62
  8
1
 10
-3370.157049
 20
-604.76643
 30
0.0
 70
0
  0
VERTEX
  5
63
  8
1
 10
-3369.080811
 20
-604.715309
 30
0.0
 70
0
  0
VERTEX
  5
64
  8
1
 10
-3354.991164
 20
-604.046211
 30
0.0
 70
0
  0
VERTEX
  5
65
  8
1
 10
-3339.745576
 20
-603.322209
 30
0.0
 70
0
  0
VERTEX
  5
66
  8
1
 10
-3324.638481
 20
-602.604786
 30
0.0
 70
0
  0
VERTEX
  5
67
  8
1
 10
-3309.392976
 20
-601.880793
 30
0.0
 70
0
  0
VERTEX
  5
68
  8
1
 10
-3294.332586
 20
-601.165591
 30
0.0
 70
0
  0
VERTEX
  5
69
  8
1
 10
-3279.087005
 20
-600.441593
 30
0.0
 70
0
  0
VERTEX
  5
6A
  8
1
 10
-3263.809589
 20
-599.716079
 30
0.0
 70
0
  0
VERTEX
  5
6B
  8
1
 10
-3248.564028
 20
-598.992078
 30
0.0
 70
0
  0
VERTEX
  5
6C
  8
1
 10
-3233.139107
 20
-598.259563
 30
0.0
 70
0
  0
VERTEX
  5
6D
  8
1
 10
-3217.893513
 20
-597.535562
 30
0.0
 70
0
  0
VERTEX
  5
6E
  8
1
 10
-3202.511294
 20
-596.805065
 30
0.0
 70
0
  0
VERTEX
  5
6F
  8
1
 10
-3187.265787
 20
-596.081058
 30
0.0
 70
0
  0
VERTEX
  5
70
  8
1
 10
-3172.158662
 20
-595.363628
 30
0.0
 70
0
  0
VERTEX
  5
71
  8
1
 10
-3156.913072
 20
-594.639626
 30
0.0
 70
0
  0
VERTEX
  5
72
  8
1
 10
-3141.668349
 20
-593.915663
 30
0.0
 70
0
  0
VERTEX
  5
73
  8
1
 10
-3126.422797
 20
-593.191664
 30
0.0
 70
0
  0
VERTEX
  5
74
  8
1
 10
-3111.410367
 20
-592.478744
 30
0.0
 70
0
  0
VERTEX
  5
75
  8
1
 10
-3096.164726
 20
-591.754748
 30
0.0
 70
0
  0
VERTEX
  5
76
  8
1
 10
-3081.057556
 20
-591.037319
 30
0.0
 70
0
  0
VERTEX
  5
77
  8
1
 10
-3065.812043
 20
-590.313316
 30
0.0
 70
0
  0
VERTEX
  5
78
  8
1
 10
-3050.519936
 20
-589.587106
 30
0.0
 70
0
  0
VERTEX
  5
79
  8
1
 10
-3035.274444
 20
-588.86311
 30
0.0
 70
0
  0
VERTEX
  5
7A
  8
1
 10
-3020.289178
 20
-588.151467
 30
0.0
 70
0
  0
VERTEX
  5
7B
  8
1
 10
-3005.0436
 20
-587.427462
 30
0.0
 70
0
  0
VERTEX
  5
7C
  8
1
 10
-2989.591608
 20
-586.693661
 30
0.0
 70
0
  0
VERTEX
  5
7D
  8
1
 10
-2974.345946
 20
-585.969657
 30
0.0
 70
0
  0
VERTEX
  5
7E
  8
1
 10
-2958.898828
 20
-585.236077
 30
0.0
 70
0
  0
VERTEX
  5
7F
  8
1
 10
-2943.868683
 20
-584.522296
 30
0.0
 70
0
  0
VERTEX
  5
80
  8
1
 10
-2928.761169
 20
-583.804845
 30
0.0
 70
0
  0
VERTEX
  5
81
  8
1
 10
-2922.945862
 20
-583.528709
 30
0.0
 70
0
  0
VERTEX
  5
82
  8
1
 10
-2923.149414
 20
-583.538933
 30
0.0
 70
0
  0
VERTEX
  5
83
  8
1
 10
-2907.762807
 20
-582.311588
 30
0.0
 70
0
  0
VERTEX
  5
84
  8
1
 10
-2892.359076
 20
-581.009034
 30
0.0
 70
0
  0
VERTEX
  5
85
  8
1
 10
-2877.160538
 20
-579.626733
 30
0.0
 70
0
  0
VERTEX
  5
86
  8
1
 10
-2862.089705
 20
-578.165068
 30
0.0
 70
0
  0
VERTEX
  5
87
  8
1
 10
-2846.717247
 20
-576.593976
 30
0.0
 70
0
  0
VERTEX
  5
88
  8
1
 10
-2831.662615
 20
-574.975577
 30
0.0
 70
0
  0
VERTEX
  5
89
  8
1
 10
-2816.589055
 20
-573.271178
 30
0.0
 70
0
  0
VERTEX
  5
8A
  8
1
 10
-2801.553542
 20
-571.483158
 30
0.0
 70
0
  0
VERTEX
  5
8B
  8
1
 10
-2786.361323
 20
-569.58194
 30
0.0
 70
0
  0
VERTEX
  5
8C
  8
1
 10
-2771.350171
 20
-567.599846
 30
0.0
 70
0
  0
VERTEX
  5
8D
  8
1
 10
-2756.139513
 20
-565.475402
 30
0.0
 70
0
  0
VERTEX
  5
8E
  8
1
 10
-2741.160838
 20
-563.261138
 30
0.0
 70
0
  0
VERTEX
  5
8F
  8
1
 10
-2726.071073
 20
-560.903232
 30
0.0
 70
0
  0
VERTEX
  5
90
  8
1
 10
-2711.129641
 20
-558.450008
 30
0.0
 70
0
  0
VERTEX
  5
91
  8
1
 10
-2696.268938
 20
-555.903426
 30
0.0
 70
0
  0
VERTEX
  5
92
  8
1
 10
-2681.361293
 20
-553.252761
 30
0.0
 70
0
  0
VERTEX
  5
93
  8
1
 10
-2666.136651
 20
-550.45593
 30
0.0
 70
0
  0
VERTEX
  5
94
  8
1
 10
-2651.260126
 20
-547.635943
 30
0.0
 70
0
  0
VERTEX
  5
95
  8
1
 10
-2636.268862
 20
-544.706839
 30
0.0
 70
0
  0
VERTEX
  5
96
  8
1
 10
-2621.423405
 20
-541.727234
 30
0.0
 70
0
  0
VERTEX
  5
97
  8
1
 10
-2606.591459
 20
-538.681447
 30
0.0
 70
0
  0
VERTEX
  5
98
  8
1
 10
-2600.921631
 20
-537.501755
 30
0.0
 70
0
  0
VERTEX
  5
99
  8
1
 10
-2596.459359
 20
-543.969232
 30
0.0
 70
0
  0
VERTEX
  5
9A
  8
1
 10
-2592.730176
 20
-548.966876
 30
0.0
 70
0
  0
VERTEX
  5
9B
  8
1
 10
-2589.819781
 20
-552.512835
 30
0.0
 70
0
  0
VERTEX
  5
9C
  8
1
 10
-2586.91259
 20
-555.662593
 30
0.0
 70
0
  0
VERTEX
  5
9D
  8
1
 10
-2584.001746
 20
-558.471985
 30
0.0
 70
0
  0
VERTEX
  5
9E
  8
1
 10
-2581.082795
 20
-560.954336
 30
0.0
 70
0
  0
VERTEX
  5
9F
  8
1
 10
-2578.313147
 20
-563.001545
 30
0.0
 70
0
  0
VERTEX
  5
A0
  8
1
 10
-2575.589556
 20
-564.717776
 30
0.0
 70
0
  0
VERTEX
  5
A1
  8
1
 10
-2572.583888
 20
-566.302657
 30
0.0
 70
0
  0
VERTEX
  5
A2
  8
1
 10
-2569.143997
 20
-567.81898
 30
0.0
 70
0
  0
VERTEX
  5
A3
  8
1
 10
-2565.291099
 20
-569.235343
 30
0.0
 70
0
  0
VERTEX
  5
A4
  8
1
 10
-2560.882029
 20
-570.582058
 30
0.0
 70
0
  0
VERTEX
  5
A5
  8
1
 10
-2555.668535
 20
-571.897901
 30
0.0
 70
0
  0
VERTEX
  5
A6
  8
1
 10
-2549.576615
 20
-573.165169
 30
0.0
 70
0
  0
VERTEX
  5
A7
  8
1
 10
-2541.930927
 20
-574.47518
 30
0.0
 70
0
  0
VERTEX
  5
A8
  8
1
 10
-2534.056738
 20
-575.577109
 30
0.0
 70
0
  0
VERTEX
  5
A9
  8
1
 10
-2525.915203
 20
-576.462567
 30
0.0
 70
0
  0
VERTEX
  5
AA
  8
1
 10
-2522.21283
 20
-576.799583
 30
0.0
 70
0
  0
VERTEX
  5
AB
  8
1
 10
-2506.636914
 20
-578.264988
 30
0.0
 70
0
  0
VERTEX
  5
AC
  8
1
 10
-2491.607427
 20
-579.726701
 30
0.0
 70
0
  0
VERTEX
  5
AD
  8
1
 10
-2476.308585
 20
-581.281083
 30
0.0
 70
0
  0
VERTEX
  5
AE
  8
1
 10
-2460.954551
 20
-582.924461
 30
0.0
 70
0
  0
VERTEX
  5
AF
  8
1
 10
-2445.690636
 20
-584.649426
 30
0.0
 70
0
  0
VERTEX
  5
B0
  8
1
 10
-2430.35657
 20
-586.469929
 30
0.0
 70
0
  0
VERTEX
  5
B1
  8
1
 10
-2415.299763
 20
-588.334274
 30
0.0
 70
0
  0
VERTEX
  5
B2
  8
1
 10
-2399.984602
 20
-590.307197
 30
0.0
 70
0
  0
VERTEX
  5
B3
  8
1
 10
-2384.660159
 20
-592.358193
 30
0.0
 70
0
  0
VERTEX
  5
B4
  8
1
 10
-2369.520274
 20
-594.426982
 30
0.0
 70
0
  0
VERTEX
  5
B5
  8
1
 10
-2360.226593
 20
-595.698357
 30
0.0
 70
0
  0
VERTEX
  5
B6
  8
1
 10
-2360.436868
 20
-612.329334
 30
0.0
 70
0
  0
VERTEX
  5
B7
  8
1
 10
-2360.400862
 20
-627.843718
 30
0.0
 70
0
  0
VERTEX
  5
B8
  8
1
 10
-2360.122784
 20
-643.413692
 30
0.0
 70
0
  0
VERTEX
  5
B9
  8
1
 10
-2359.604623
 20
-657.565218
 30
0.0
 70
0
  0
VERTEX
  5
BA
  8
1
 10
-2358.770474
 20
-672.797965
 30
0.0
 70
0
  0
VERTEX
  5
BB
  8
1
 10
-2357.718378
 20
-687.964254
 30
0.0
 70
0
  0
VERTEX
  5
BC
  8
1
 10
-2357.211609
 20
-694.303284
 30
0.0
 70
0
  0
VERTEX
  5
BD
  8
1
 10
-2371.263579
 20
-696.770384
 30
0.0
 70
0
  0
VERTEX
  5
BE
  8
1
 10
-2376.273307
 20
-697.717842
 30
0.0
 70
0
  0
VERTEX
  5
BF
  8
1
 10
-2381.389453
 20
-698.967293
 30
0.0
 70
0
  0
VERTEX
  5
C0
  8
1
 10
-2386.59104
 20
-700.477539
 30
0.0
 70
0
  0
VERTEX
  5
C1
  8
1
 10
-2391.427661
 20
-702.132757
 30
0.0
 70
0
  0
VERTEX
  5
C2
  8
1
 10
-2395.936672
 20
-703.928111
 30
0.0
 70
0
  0
VERTEX
  5
C3
  8
1
 10
-2400.029632
 20
-705.8113
 30
0.0
 70
0
  0
VERTEX
  5
C4
  8
1
 10
-2403.795716
 20
-707.808291
 30
0.0
 70
0
  0
VERTEX
  5
C5
  8
1
 10
-2407.183887
 20
-709.879997
 30
0.0
 70
0
  0
VERTEX
  5
C6
  8
1
 10
-2410.198114
 20
-712.009743
 30
0.0
 70
0
  0
VERTEX
  5
C7
  8
1
 10
-2412.783166
 20
-714.124982
 30
0.0
 70
0
  0
VERTEX
  5
C8
  8
1
 10
-2415.063594
 20
-716.297842
 30
0.0
 70
0
  0
VERTEX
  5
C9
  8
1
 10
-2417.028632
 20
-718.500661
 30
0.0
 70
0
  0
VERTEX
  5
CA
  8
1
 10
-2418.679093
 20
-720.708235
 30
0.0
 70
0
  0
VERTEX
  5
CB
  8
1
 10
-2420.148868
 20
-723.092208
 30
0.0
 70
0
  0
VERTEX
  5
CC
  8
1
 10
-2421.498524
 20
-725.785428
 30
0.0
 70
0
  0
VERTEX
  5
CD
  8
1
 10
-2422.670731
 20
-728.691634
 30
0.0
 70
0
  0
VERTEX
  5
CE
  8
1
 10
-2423.70034
 20
-731.916395
 30
0.0
 70
0
  0
VERTEX
  5
CF
  8
1
 10
-2424.592973
 20
-735.564844
 30
0.0
 70
0
  0
VERTEX
  5
D0
  8
1
 10
-2425.315424
 20
-739.626013
 30
0.0
 70
0
  0
VERTEX
  5
D1
  8
1
 10
-2425.851196
 20
-744.141893
 30
0.0
 70
0
  0
VERTEX
  5
D2
  8
1
 10
-2426.175474
 20
-749.017215
 30
0.0
 70
0
  0
VERTEX
  5
D3
  8
1
 10
-2426.282864
 20
-754.551646
 30
0.0
 70
0
  0
VERTEX
  5
D4
  8
1
 10
-2426.14334
 20
-760.798574
 30
0.0
 70
0
  0
VERTEX
  5
D5
  8
1
 10
-2425.703097
 20
-768.396482
 30
0.0
 70
0
  0
VERTEX
  5
D6
  8
1
 10
-2424.940711
 20
-777.226169
 30
0.0
 70
0
  0
VERTEX
  5
D7
  8
1
 10
-2423.882048
 20
-786.597637
 30
0.0
 70
0
  0
VERTEX
  5
D8
  8
1
 10
-2422.484276
 20
-796.727729
 30
0.0
 70
0
  0
VERTEX
  5
D9
  8
1
 10
-2420.139976
 20
-811.644123
 30
0.0
 70
0
  0
VERTEX
  5
DA
  8
1
 10
-2418.900299
 20
-819.600983
 30
0.0
 70
0
  0
VERTEX
  5
DB
  8
1
 10
-2421.031989
 20
-819.911415
 30
0.0
 70
0
  0
VERTEX
  5
DC
  8
1
 10
-2435.687458
 20
-821.913294
 30
0.0
 70
0
  0
VERTEX
  5
DD
  8
1
 10
-2450.582821
 20
-823.760063
 30
0.0
 70
0
  0
VERTEX
  5
DE
  8
1
 10
-2465.929136
 20
-825.444247
 30
0.0
 70
0
  0
VERTEX
  5
DF
  8
1
 10
-2479.744824
 20
-826.719322
 30
0.0
 70
0
  0
VERTEX
  5
E0
  8
1
 10
-2493.962453
 20
-827.769132
 30
0.0
 70
0
  0
VERTEX
  5
E1
  8
1
 10
-2508.767149
 20
-828.597937
 30
0.0
 70
0
  0
VERTEX
  5
E2
  8
1
 10
-2523.682366
 20
-829.180723
 30
0.0
 70
0
  0
VERTEX
  5
E3
  8
1
 10
-2539.073479
 20
-829.547832
 30
0.0
 70
0
  0
VERTEX
  5
E4
  8
1
 10
-2554.475417
 20
-829.719103
 30
0.0
 70
0
  0
VERTEX
  5
E5
  8
1
 10
-2569.870789
 20
-829.732378
 30
0.0
 70
0
  0
VERTEX
  5
E6
  8
1
 10
-2585.154246
 20
-829.621635
 30
0.0
 70
0
  0
VERTEX
  5
E7
  8
1
 10
-2600.548264
 20
-829.42291
 30
0.0
 70
0
  0
VERTEX
  5
E8
  8
1
 10
-2615.80992
 20
-829.182221
 30
0.0
 70
0
  0
VERTEX
  5
E9
  8
1
 10
-2631.202826
 20
-828.913095
 30
0.0
 70
0
  0
VERTEX
  5
EA
  8
1
 10
-2646.375091
 20
-828.609616
 30
0.0
 70
0
  0
VERTEX
  5
EB
  8
1
 10
-2661.766268
 20
-828.249085
 30
0.0
 70
0
  0
VERTEX
  5
EC
  8
1
 10
-2676.964723
 20
-827.828051
 30
0.0
 70
0
  0
VERTEX
  5
ED
  8
1
 10
-2692.352165
 20
-827.337186
 30
0.0
 70
0
  0
VERTEX
  5
EE
  8
1
 10
-2707.499073
 20
-826.809912
 30
0.0
 70
0
  0
VERTEX
  5
EF
  8
1
 10
-2722.884128
 20
-826.248456
 30
0.0
 70
0
  0
VERTEX
  5
F0
  8
1
 10
-2738.234238
 20
-825.67827
 30
0.0
 70
0
  0
VERTEX
  5
F1
  8
1
 10
-2753.618826
 20
-825.107394
 30
0.0
 70
0
  0
VERTEX
  5
F2
  8
1
 10
-2768.78965
 20
-824.548713
 30
0.0
 70
0
  0
VERTEX
  5
F3
  8
1
 10
-2784.174707
 20
-823.987831
 30
0.0
 70
0
  0
VERTEX
  5
F4
  8
1
 10
-2799.506565
 20
-823.433438
 30
0.0
 70
0
  0
VERTEX
  5
F5
  8
1
 10
-2814.891947
 20
-822.88087
 30
0.0
 70
0
  0
VERTEX
  5
F6
  8
1
 10
-2830.430073
 20
-822.326642
 30
0.0
 70
0
  0
VERTEX
  5
F7
  8
1
 10
-2845.815657
 20
-821.781568
 30
0.0
 70
0
  0
VERTEX
  5
F8
  8
1
 10
-2861.132942
 20
-821.242247
 30
0.0
 70
0
  0
VERTEX
  5
F9
  8
1
 10
-2876.518817
 20
-820.7038
 30
0.0
 70
0
  0
VERTEX
  5
FA
  8
1
 10
-2891.774437
 20
-820.173822
 30
0.0
 70
0
  0
VERTEX
  5
FB
  8
1
 10
-2906.978578
 20
-819.649621
 30
0.0
 70
0
  0
SEQEND
  5
30
  8
1
  0
LINE
  5
FC
  8
7
 10
-3341.298828
 20
-702.162857
 30
0.0
 11
-2446.712189
 21
-702.162857
 31
0.0
  0
ENDSEC
  0
EOF
