  0
SECTION
  2
HEADER
  9
$ACADVER
  1
AC1009
  9
$DWGCODEPAGE
  3
ANSI_1252
  9
$INSBASE
 10
0.0
 20
0.0
 30
0.0
  9
$EXTMIN
 10
1e+20
 20
1e+20
 30
1e+20
  9
$EXTMAX
 10
-1e+20
 20
-1e+20
 30
-1e+20
  9
$LIMMIN
 10
0.0
 20
0.0
  9
$LIMMAX
 10
420.0
 20
297.0
  9
$ORTHOMODE
 70
0
  9
$REGENMODE
 70
1
  9
$FILLMODE
 70
1
  9
$DRAGMODE
 70
2
  9
$QTEXTMODE
 70
0
  9
$MIRRTEXT
 70
1
  9
$OSMODE
 70
20583
  9
$LTSCALE
 40
1.0
  9
$ATTMODE
 70
1
  9
$TEXTSIZE
 40
2.5
  9
$TRACEWID
 40
1.0
  9
$TEXTSTYLE
  7
Standard
  9
$CLAYER
  8
0
  9
$CELTYPE
  6
ByLayer
  9
$CECOLOR
 62
256
  9
$DIMSCALE
 40
1.0
  9
$DIMASZ
 40
2.5
  9
$DIMEXO
 40
0.625
  9
$DIMDLI
 40
3.75
  9
$DIMRND
 40
0.0
  9
$DIMDLE
 40
0.0
  9
$DIMEXE
 40
1.25
  9
$DIMTP
 40
0.0
  9
$DIMTM
 40
0.0
  9
$DIMTXT
 40
2.5
  9
$DIMCEN
 40
2.5
  9
$DIMTSZ
 40
0.0
  9
$DIMTOL
 70
0
  9
$DIMLIM
 70
0
  9
$DIMTIH
 70
0
  9
$DIMTOH
 70
0
  9
$DIMSE1
 70
0
  9
$DIMSE2
 70
0
  9
$DIMTAD
 70
1
  9
$DIMZIN
 70
8
  9
$DIMBLK
  1

  9
$DIMASO
 70
1
  9
$DIMSHO
 70
1
  9
$DIMPOST
  1

  9
$DIMAPOST
  1

  9
$DIMALT
 70
0
  9
$DIMALTD
 70
3
  9
$DIMALTF
 40
0.03937007874
  9
$DIMLFAC
 40
1.0
  9
$DIMTOFL
 70
1
  9
$DIMTVP
 40
0.0
  9
$DIMTIX
 70
0
  9
$DIMSOXD
 70
0
  9
$DIMSAH
 70
0
  9
$DIMBLK1
  1

  9
$DIMBLK2
  1

  9
$DIMSTYLE
  2
ISO-25
  9
$DIMCLRD
 70
0
  9
$DIMCLRE
 70
0
  9
$DIMCLRT
 70
0
  9
$DIMTFAC
 40
1.0
  9
$DIMGAP
 40
0.625
  9
$COORDS
 70
1
  9
$ATTDIA
 70
0
  9
$ATTREQ
 70
1
  9
$HANDLING
 70
1
  9
$LUNITS
 70
2
  9
$LUPREC
 70
4
  9
$SKETCHINC
 40
1.0
  9
$FILLETRAD
 40
10.0
  9
$AUNITS
 70
0
  9
$AUPREC
 70
2
  9
$MENU
  1
.
  9
$ELEVATION
 40
0.0
  9
$PELEVATION
 40
0.0
  9
$THICKNESS
 40
0.0
  9
$LIMCHECK
 70
0
  9
$CHAMFERA
 40
0.0
  9
$CHAMFERB
 40
0.0
  9
$SKPOLY
 70
0
  9
$TDCREATE
 40
2461259.4353935183
  9
$TDUPDATE
 40
2461259.4353935183
  9
$TDINDWG
 40
0.0
  9
$TDUSRTIMER
 40
0.0
  9
$USRTIMER
 70
1
  9
$ANGBASE
 50
0.0
  9
$ANGDIR
 70
0
  9
$PDMODE
 70
0
  9
$PDSIZE
 40
0.0
  9
$PLINEWID
 40
0.0
  9
$SPLFRAME
 70
0
  9
$SPLINETYPE
 70
6
  9
$SPLINESEGS
 70
8
  9
$HANDSEED
  5
109
  9
$SURFTAB1
 70
6
  9
$SURFTAB2
 70
6
  9
$SURFTYPE
 70
6
  9
$SURFU
 70
6
  9
$SURFV
 70
6
  9
$UCSNAME
  2

  9
$UCSORG
 10
0.0
 20
0.0
 30
0.0
  9
$UCSXDIR
 10
1.0
 20
0.0
 30
0.0
  9
$UCSYDIR
 10
0.0
 20
1.0
 30
0.0
  9
$PUCSNAME
  2

  9
$PUCSORG
 10
0.0
 20
0.0
 30
0.0
  9
$PUCSXDIR
 10
1.0
 20
0.0
 30
0.0
  9
$PUCSYDIR
 10
0.0
 20
1.0
 30
0.0
  9
$USERI1
 70
0
  9
$USERI2
 70
0
  9
$USERI3
 70
0
  9
$USERI4
 70
0
  9
$USERI5
 70
0
  9
$USERR1
 40
0.0
  9
$USERR2
 40
0.0
  9
$USERR3
 40
0.0
  9
$USERR4
 40
0.0
  9
$USERR5
 40
0.0
  9
$WORLDVIEW
 70
1
  9
$SHADEDGE
 70
3
  9
$SHADEDIF
 70
70
  9
$TILEMODE
 70
1
  9
$MAXACTVP
 70
64
  9
$PLIMCHECK
 70
0
  9
$PEXTMIN
 10
1e+20
 20
1e+20
 30
1e+20
  9
$PEXTMAX
 10
-1e+20
 20
-1e+20
 30
-1e+20
  9
$PLIMMIN
 10
0.0
 20
0.0
  9
$PLIMMAX
 10
420.0
 20
297.0
  9
$UNITMODE
 70
0
  9
$VISRETAIN
 70
1
  9
$PLINEGEN
 70
0
  9
$PSLTSCALE
 70
1
  0
ENDSEC
  0
SECTION
  2
TABLES
  0
TABLE
  2
VPORT
 70
1
  0
VPORT
  5
23
  2
*Active
 70
0
 10
0.0
 20
0.0
 11
1.0
 21
1.0
 12
0.0
 22
0.0
 13
0.0
 23
0.0
 14
0.5
 24
0.5
 15
0.5
 25
0.5
 16
0.0
 26
0.0
 36
1.0
 17
0.0
 27
0.0
 37
0.0
 40
1000.0
 41
1.34
 42
50.0
 43
0.0
 44
0.0
 50
0.0
 51
0.0
 71
0
 72
1000
 73
1
 74
3
 75
0
 76
0
 77
0
 78
0
  0
ENDTAB
  0
TABLE
  2
LTYPE
 70
3
  0
LTYPE
  5
24
  2
ByBlock
 70
0
  3

 72
65
 73
0
 40
0.0
  0
LTYPE
  5
25
  2
ByLayer
 70
0
  3

 72
65
 73
0
 40
0.0
  0
LTYPE
  5
26
  2
Continuous
 70
0
  3

 72
65
 73
0
 40
0.0
  0
ENDTAB
  0
TABLE
  2
LAYER
 70
4
  0
LAYER
  5
27
  2
0
 70
0
 62
7
  6
Continuous
  0
LAYER
  5
28
  2
Defpoints
 70
0
 62
7
  6
Continuous
  0
LAYER
  5
2D
  2
1
 70
0
 62
1
  6
Continuous
  0
LAYER
  5
2E
  2
7
 70
0
 62
7
  6
Continuous
  0
ENDTAB
  0
TABLE
  2
STYLE
 70
1
  0
STYLE
  5
29
  2
Standard
 70
0
 40
0.0
 41
1.0
 50
0.0
 71
0
 42
2.5
  3
txt
  4

  0
ENDTAB
  0
TABLE
  2
VIEW
 70
0
  0
ENDTAB
  0
TABLE
  2
UCS
 70
0
  0
ENDTAB
  0
TABLE
  2
APPID
 70
3
  0
APPID
  5
2A
  2
ACAD
 70
0
  0
APPID
  5
107
  2
HATCHBACKGROUNDCOLOR
 70
0
  0
APPID
  5
108
  2
EZDXF
 70
0
  0
ENDTAB
  0
TABLE
  2
DIMSTYLE
 70
1
  0
DIMSTYLE
105
2B
  2
Standard
 70
0
  3

  4

  5

  6

  7

 40
1.0
 41
2.5
 42
0.625
 43
3.75
 44
1.25
 45
0.0
 46
0.0
 47
0.0
 48
0.0
140
2.5
141
2.5
142
0.0
143
0.03937007874
144
1.0
145
0.0
146
1.0
147
0.625
 71
0
 72
0
 73
0
 74
0
 75
0
 76
0
 77
1
 78
8
170
0
171
3
172
1
173
0
174
0
175
0
176
0
177
0
178
0
  0
ENDTAB
  0
ENDSEC
  0
SECTION
  2
BLOCKS
  0
BLOCK
  5
18
  8
0
  2
$Model_Space
 70
0
 10
0.0
 20
0.0
 30
0.0
  3
$Model_Space
  1

1001
EZDXF
1000
CREATED_BY_EZDXF
1000
1.4.4 @ 2026-08-06T02:26:58.157014+00:00
1000
WRITTEN_BY_EZDXF
1000
1.4.4 @ 2026-08-06T02:26:58.160014+00:00
  0
ENDBLK
  5
19
  8
0
  0
BLOCK
  5
1C
  8
0
  2
$Paper_Space
 70
0
 10
0.0
 20
0.0
 30
0.0
  3
$Paper_Space
  1

  0
ENDBLK
  5
1D
  8
0
  0
ENDSEC
  0
SECTION
  2
ENTITIES
  0
POLYLINE
  5
2F
  8
1
 66
1
 10
0.0
 20
0.0
 30
0.0
 70
1
  0
VERTEX
  5
31
  8
1
 10
-2922.911987
 20
-834.343033
 30
0.0
 70
0
  0
VERTEX
  5
32
  8
1
 10
-2922.843933
 20
-834.345703
 30
0.0
 70
0
  0
VERTEX
  5
33
  8
1
 10
-2936.025601
 20
-833.828502
 30
0.0
 70
0
  0
VERTEX
  5
34
  8
1
 10
-2951.307627
 20
-833.222038
 30
0.0
 70
0
  0
VERTEX
  5
35
  8
1
 10
-2966.330871
 20
-832.617073
 30
0.0
 70
0
  0
VERTEX
  5
36
  8
1
 10
-2981.450943
 20
-831.997926
 30
0.0
 70
0
  0
VERTEX
  5
37
  8
1
 10
-2996.552221
 20
-831.371256
 30
0.0
 70
0
  0
VERTEX
  5
38
  8
1
 10
-3011.671627
 20
-830.736794
 30
0.0
 70
0
  0
VERTEX
  5
39
  8
1
 10
-3026.973356
 20
-830.086954
 30
0.0
 70
0
  0
VERTEX
  5
3A
  8
1
 10
-3042.092153
 20
-829.436756
 30
0.0
 70
0
  0
VERTEX
  5
3B
  8
1
 10
-3057.573818
 20
-828.762493
 30
0.0
 70
0
  0
VERTEX
  5
3C
  8
1
 10
-3072.69191
 20
-828.095637
 30
0.0
 70
0
  0
VERTEX
  5
3D
  8
1
 10
-3087.82822
 20
-827.419229
 30
0.0
 70
0
  0
VERTEX
  5
3E
  8
1
 10
-3102.945552
 20
-826.734513
 30
0.0
 70
0
  0
VERTEX
  5
3F
  8
1
 10
-3118.298981
 20
-826.029314
 30
0.0
 70
0
  0
VERTEX
  5
40
  8
1
 10
-3133.415353
 20
-825.324799
 30
0.0
 70
0
  0
VERTEX
  5
41
  8
1
 10
-3148.767965
 20
-824.597993
 30
0.0
 70
0
  0
VERTEX
  5
42
  8
1
 10
-3163.883171
 20
-823.870531
 30
0.0
 70
0
  0
VERTEX
  5
43
  8
1
 10
-3179.158693
 20
-823.122913
 30
0.0
 70
0
  0
VERTEX
  5
44
  8
1
 10
-3194.272695
 20
-822.370828
 30
0.0
 70
0
  0
VERTEX
  5
45
  8
1
 10
-3209.633735
 20
-821.594561
 30
0.0
 70
0
  0
VERTEX
  5
46
  8
1
 10
-3224.746721
 20
-820.819964
 30
0.0
 70
0
  0
VERTEX
  5
47
  8
1
 10
-3239.961782
 20
-820.030118
 30
0.0
 70
0
  0
VERTEX
  5
48
  8
1
 10
-3255.073736
 20
-819.236381
 30
0.0
 70
0
  0
VERTEX
  5
49
  8
1
 10
-3270.059826
 20
-818.440453
 30
0.0
 70
0
  0
VERTEX
  5
4A
  8
1
 10
-3285.170863
 20
-817.629324
 30
0.0
 70
0
  0
VERTEX
  5
4B
  8
1
 10
-3300.295342
 20
-816.809422
 30
0.0
 70
0
  0
VERTEX
  5
4C
  8
1
 10
-3315.405471
 20
-815.982702
 30
0.0
 70
0
  0
VERTEX
  5
4D
  8
1
 10
-3330.43192
 20
-815.152972
 30
0.0
 70
0
  0
VERTEX
  5
4E
  8
1
 10
-3345.54125
 20
-814.310621
 30
0.0
 70
0
  0
VERTEX
  5
4F
  8
1
 10
-3361.024621
 20
-813.437644
 30
0.0
 70
0
  0
VERTEX
  5
50
  8
1
 10
-3376.132817
 20
-812.575959
 30
0.0
 70
0
  0
VERTEX
  5
51
  8
1
 10
-3390.343323
 20
-811.760483
 30
0.0
 70
0
  0
VERTEX
  5
52
  8
1
 10
-3391.240705
 20
-811.708963
 30
0.0
 70
0
  0
VERTEX
  5
53
  8
1
 10
-3406.648162
 20
-810.824002
 30
0.0
 70
0
  0
VERTEX
  5
54
  8
1
 10
-3422.085571
 20
-809.937439
 30
0.0
 70
0
  0
VERTEX
  5
55
  8
1
 10
-3422.017456
 20
-794.065228
 30
0.0
 70
0
  0
VERTEX
  5
56
  8
1
 10
-3421.951234
 20
-778.662395
 30
0.0
 70
0
  0
VERTEX
  5
57
  8
1
 10
-3421.884943
 20
-763.259564
 30
0.0
 70
0
  0
VERTEX
  5
58
  8
1
 10
-3421.82018
 20
-748.213658
 30
0.0
 70
0
  0
VERTEX
  5
59
  8
1
 10
-3421.753892
 20
-732.810843
 30
0.0
 70
0
  0
VERTEX
  5
5A
  8
1
 10
-3421.688668
 20
-717.650587
 30
0.0
 70
0
  0
VERTEX
  5
5B
  8
1
 10
-3421.622419
 20
-702.247746
 30
0.0
 70
0
  0
VERTEX
  5
5C
  8
1
 10
-3421.557842
 20
-687.230342
 30
0.0
 70
0
  0
VERTEX
  5
5D
  8
1
 10
-3421.491618
 20
-671.827507
 30
0.0
 70
0
  0
VERTEX
  5
5E
  8
1
 10
-3421.426216
 20
-656.615796
 30
0.0
 70
0
  0
VERTEX
  5
5F
  8
1
 10
-3421.359983
 20
-641.212973
 30
0.0
 70
0
  0
VERTEX
  5
60
  8
1
 10
-3421.294507
 20
-625.992345
 30
0.0
 70
0
  0
VERTEX
  5
61
  8
1
 10
-3421.228257
 20
-610.589521
 30
0.0
 70
0
  0
VERTEX
  5
62
  8
1
 10
-3421.164246
 20
-595.670662
 30
0.0
 70
0
  0
VERTEX
  5
63
  8
1
 10
-3405.317567
 20
-594.920922
 30
0.0
 70
0
  0
VERTEX
  5
64
  8
1
 10
-3390.062359
 20
-594.199163
 30
0.0
 70
0
  0
VERTEX
  5
65
  8
1
 10
-3389.407349
 20
-594.168167
 30
0.0
 70
0
  0
VERTEX
  5
66
  8
1
 10
-3374.408588
 20
-593.458542
 30
0.0
 70
0
  0
VERTEX
  5
67
  8
1
 10
-3359.783944
 20
-592.766609
 30
0.0
 70
0
  0
VERTEX
  5
68
  8
1
 10
-3344.130107
 20
-592.025981
 30
0.0
 70
0
  0
VERTEX
  5
69
  8
1
 10
-3329.437856
 20
-591.330852
 30
0.0
 70
0
  0
VERTEX
  5
6A
  8
1
 10
-3313.784104
 20
-590.590241
 30
0.0
 70
0
  0
VERTEX
  5
6B
  8
1
 10
-3298.712728
 20
-589.877185
 30
0.0
 70
0
  0
VERTEX
  5
6C
  8
1
 10
-3283.580726
 20
-589.161256
 30
0.0
 70
0
  0
VERTEX
  5
6D
  8
1
 10
-3268.512823
 20
-588.448354
 30
0.0
 70
0
  0
VERTEX
  5
6E
  8
1
 10
-3253.380844
 20
-587.732416
 30
0.0
 70
0
  0
VERTEX
  5
6F
  8
1
 10
-3238.756216
 20
-587.040484
 30
0.0
 70
0
  0
VERTEX
  5
70
  8
1
 10
-3223.102431
 20
-586.299868
 30
0.0
 70
0
  0
VERTEX
  5
71
  8
1
 10
-3208.05594
 20
-585.587985
 30
0.0
 70
0
  0
VERTEX
  5
72
  8
1
 10
-3192.923941
 20
-584.872049
 30
0.0
 70
0
  0
VERTEX
  5
73
  8
1
 10
-3177.896748
 20
-584.16107
 30
0.0
 70
0
  0
VERTEX
  5
74
  8
1
 10
-3162.76475
 20
-583.445135
 30
0.0
 70
0
  0
VERTEX
  5
75
  8
1
 10
-3147.632751
 20
-582.729203
 30
0.0
 70
0
  0
VERTEX
  5
76
  8
1
 10
-3132.48631
 20
-582.012588
 30
0.0
 70
0
  0
VERTEX
  5
77
  8
1
 10
-3117.354311
 20
-581.296656
 30
0.0
 70
0
  0
VERTEX
  5
78
  8
1
 10
-3102.040555
 20
-580.572124
 30
0.0
 70
0
  0
VERTEX
  5
79
  8
1
 10
-3086.908556
 20
-579.856191
 30
0.0
 70
0
  0
VERTEX
  5
7A
  8
1
 10
-3071.827885
 20
-579.142684
 30
0.0
 70
0
  0
VERTEX
  5
7B
  8
1
 10
-3056.6959
 20
-578.426749
 30
0.0
 70
0
  0
VERTEX
  5
7C
  8
1
 10
-3041.54252
 20
-577.709803
 30
0.0
 70
0
  0
VERTEX
  5
7D
  8
1
 10
-3026.410555
 20
-576.99387
 30
0.0
 70
0
  0
VERTEX
  5
7E
  8
1
 10
-3011.264128
 20
-576.277251
 30
0.0
 70
0
  0
VERTEX
  5
7F
  8
1
 10
-2996.132116
 20
-575.561317
 30
0.0
 70
0
  0
VERTEX
  5
80
  8
1
 10
-2980.903828
 20
-574.840832
 30
0.0
 70
0
  0
VERTEX
  5
81
  8
1
 10
-2965.771791
 20
-574.124902
 30
0.0
 70
0
  0
VERTEX
  5
82
  8
1
 10
-2950.346731
 20
-573.395106
 30
0.0
 70
0
  0
VERTEX
  5
83
  8
1
 10
-2935.316489
 20
-572.683986
 30
0.0
 70
0
  0
VERTEX
  5
84
  8
1
 10
-2922.943726
 20
-572.098579
 30
0.0
 70
0
  0
VERTEX
  5
85
  8
1
 10
-2923.327637
 20
-572.117767
 30
0.0
 70
0
  0
VERTEX
  5
86
  8
1
 10
-2907.643549
 20
-570.417618
 30
0.0
 70
0
  0
VERTEX
  5
87
  8
1
 10
-2892.274176
 20
-568.676419
 30
0.0
 70
0
  0
VERTEX
  5
88
  8
1
 10
-2877.251596
 20
-566.878125
 30
0.0
 70
0
  0
VERTEX
  5
89
  8
1
 10
-2862.265534
 20
-564.993914
 30
0.0
 70
0
  0
VERTEX
  5
8A
  8
1
 10
-2847.263618
 20
-563.030161
 30
0.0
 70
0
  0
VERTEX
  5
8B
  8
1
 10
-2832.272137
 20
-560.988981
 30
0.0
 70
0
  0
VERTEX
  5
8C
  8
1
 10
-2817.052229
 20
-558.83126
 30
0.0
 70
0
  0
VERTEX
  5
8D
  8
1
 10
-2802.085943
 20
-556.621139
 30
0.0
 70
0
  0
VERTEX
  5
8E
  8
1
 10
-2787.132067
 20
-554.319983
 30
0.0
 70
0
  0
VERTEX
  5
8F
  8
1
 10
-2772.193883
 20
-551.91895
 30
0.0
 70
0
  0
VERTEX
  5
90
  8
1
 10
-2757.261721
 20
-549.406421
 30
0.0
 70
0
  0
VERTEX
  5
91
  8
1
 10
-2742.361719
 20
-546.778759
 30
0.0
 70
0
  0
VERTEX
  5
92
  8
1
 10
-2727.250494
 20
-543.985466
 30
0.0
 70
0
  0
VERTEX
  5
93
  8
1
 10
-2712.523121
 20
-541.145117
 30
0.0
 70
0
  0
VERTEX
  5
94
  8
1
 10
-2697.193265
 20
-538.075252
 30
0.0
 70
0
  0
VERTEX
  5
95
  8
1
 10
-2682.870193
 20
-535.113319
 30
0.0
 70
0
  0
VERTEX
  5
96
  8
1
 10
-2667.577968
 20
-531.861281
 30
0.0
 70
0
  0
VERTEX
  5
97
  8
1
 10
-2653.285767
 20
-528.741019
 30
0.0
 70
0
  0
VERTEX
  5
98
  8
1
 10
-2638.029371
 20
-525.324486
 30
0.0
 70
0
  0
VERTEX
  5
99
  8
1
 10
-2623.365171
 20
-521.95402
 30
0.0
 70
0
  0
VERTEX
  5
9A
  8
1
 10
-2608.836174
 20
-518.537041
 30
0.0
 70
0
  0
VERTEX
  5
9B
  8
1
 10
-2600.764771
 20
-516.614189
 30
0.0
 70
0
  0
VERTEX
  5
9C
  8
1
 10
-2595.878138
 20
-523.532125
 30
0.0
 70
0
  0
VERTEX
  5
9D
  8
1
 10
-2592.15397
 20
-528.397818
 30
0.0
 70
0
  0
VERTEX
  5
9E
  8
1
 10
-2589.05367
 20
-532.098183
 30
0.0
 70
0
  0
VERTEX
  5
9F
  8
1
 10
-2586.122596
 20
-535.218616
 30
0.0
 70
0
  0
VERTEX
  5
A0
  8
1
 10
-2583.135592
 20
-538.062143
 30
0.0
 70
0
  0
VERTEX
  5
A1
  8
1
 10
-2580.14954
 20
-540.569363
 30
0.0
 70
0
  0
VERTEX
  5
A2
  8
1
 10
-2577.336589
 20
-542.621
 30
0.0
 70
0
  0
VERTEX
  5
A3
  8
1
 10
-2574.596355
 20
-544.3214
 30
0.0
 70
0
  0
VERTEX
  5
A4
  8
1
 10
-2571.5979
 20
-545.87678
 30
0.0
 70
0
  0
VERTEX
  5
A5
  8
1
 10
-2568.174166
 20
-547.358576
 30
0.0
 70
0
  0
VERTEX
  5
A6
  8
1
 10
-2564.356363
 20
-548.732104
 30
0.0
 70
0
  0
VERTEX
  5
A7
  8
1
 10
-2559.89008
 20
-550.059328
 30
0.0
 70
0
  0
VERTEX
  5
A8
  8
1
 10
-2554.529752
 20
-551.367645
 30
0.0
 70
0
  0
VERTEX
  5
A9
  8
1
 10
-2548.248492
 20
-552.637358
 30
0.0
 70
0
  0
VERTEX
  5
AA
  8
1
 10
-2541.237534
 20
-553.795349
 30
0.0
 70
0
  0
VERTEX
  5
AB
  8
1
 10
-2532.728983
 20
-554.926651
 30
0.0
 70
0
  0
VERTEX
  5
AC
  8
1
 10
-2521.973114
 20
-556.063461
 30
0.0
 70
0
  0
VERTEX
  5
AD
  8
1
 10
-2506.21399
 20
-557.22303
 30
0.0
 70
0
  0
VERTEX
  5
AE
  8
1
 10
-2491.240937
 20
-558.364465
 30
0.0
 70
0
  0
VERTEX
  5
AF
  8
1
 10
-2475.980706
 20
-559.583036
 30
0.0
 70
0
  0
VERTEX
  5
B0
  8
1
 10
-2460.725492
 20
-560.863504
 30
0.0
 70
0
  0
VERTEX
  5
B1
  8
1
 10
-2445.360257
 20
-562.219508
 30
0.0
 70
0
  0
VERTEX
  5
B2
  8
1
 10
-2430.117371
 20
-563.638876
 30
0.0
 70
0
  0
VERTEX
  5
B3
  8
1
 10
-2414.751111
 20
-565.149983
 30
0.0
 70
0
  0
VERTEX
  5
B4
  8
1
 10
-2399.615026
 20
-566.70519
 30
0.0
 70
0
  0
VERTEX
  5
B5
  8
1
 10
-2384.391975
 20
-568.324265
 30
0.0
 70
0
  0
VERTEX
  5
B6
  8
1
 10
-2369.175646
 20
-570.004514
 30
0.0
 70
0
  0
VERTEX
  5
B7
  8
1
 10
-2354.234204
 20
-571.718018
 30
0.0
 70
0
  0
VERTEX
  5
B8
  8
1
 10
-2338.919378
 20
-573.509162
 30
0.0
 70
0
  0
VERTEX
  5
B9
  8
1
 10
-2329.766083
 20
-574.582634
 30
0.0
 70
0
  0
VERTEX
  5
BA
  8
1
 10
-2330.027976
 20
-590.443999
 30
0.0
 70
0
  0
VERTEX
  5
BB
  8
1
 10
-2330.246829
 20
-605.81901
 30
0.0
 70
0
  0
VERTEX
  5
BC
  8
1
 10
-2330.339976
 20
-621.232747
 30
0.0
 70
0
  0
VERTEX
  5
BD
  8
1
 10
-2330.238432
 20
-636.609258
 30
0.0
 70
0
  0
VERTEX
  5
BE
  8
1
 10
-2329.922764
 20
-652.014533
 30
0.0
 70
0
  0
VERTEX
  5
BF
  8
1
 10
-2329.391346
 20
-667.382145
 30
0.0
 70
0
  0
VERTEX
  5
C0
  8
1
 10
-2328.676386
 20
-682.525536
 30
0.0
 70
0
  0
VERTEX
  5
C1
  8
1
 10
-2327.815437
 20
-697.566052
 30
0.0
 70
0
  0
VERTEX
  5
C2
  8
1
 10
-2326.859991
 20
-712.376534
 30
0.0
 70
0
  0
VERTEX
  5
C3
  8
1
 10
-2326.663513
 20
-715.221252
 30
0.0
 70
0
  0
VERTEX
  5
C4
  8
1
 10
-2339.897752
 20
-717.146387
 30
0.0
 70
0
  0
VERTEX
  5
C5
  8
1
 10
-2345.045862
 20
-717.933724
 30
0.0
 70
0
  0
VERTEX
  5
C6
  8
1
 10
-2350.000066
 20
-718.979503
 30
0.0
 70
0
  0
VERTEX
  5
C7
  8
1
 10
-2355.05739
 20
-720.287822
 30
0.0
 70
0
  0
VERTEX
  5
C8
  8
1
 10
-2359.72957
 20
-721.742296
 30
0.0
 70
0
  0
VERTEX
  5
C9
  8
1
 10
-2364.183126
 20
-723.380425
 30
0.0
 70
0
  0
VERTEX
  5
CA
  8
1
 10
-2368.26637
 20
-725.139458
 30
0.0
 70
0
  0
VERTEX
  5
CB
  8
1
 10
-2371.940362
 20
-726.980124
 30
0.0
 70
0
  0
VERTEX
  5
CC
  8
1
 10
-2375.281383
 20
-728.920356
 30
0.0
 70
0
  0
VERTEX
  5
CD
  8
1
 10
-2378.270365
 20
-730.933156
 30
0.0
 70
0
  0
VERTEX
  5
CE
  8
1
 10
-2380.949116
 20
-733.031353
 30
0.0
 70
0
  0
VERTEX
  5
CF
  8
1
 10
-2383.248667
 20
-735.1348
 30
0.0
 70
0
  0
VERTEX
  5
D0
  8
1
 10
-2385.250788
 20
-737.285463
 30
0.0
 70
0
  0
VERTEX
  5
D1
  8
1
 10
-2387.022645
 20
-739.553496
 30
0.0
 70
0
  0
VERTEX
  5
D2
  8
1
 10
-2388.549042
 20
-741.921634
 30
0.0
 70
0
  0
VERTEX
  5
D3
  8
1
 10
-2389.911179
 20
-744.499518
 30
0.0
 70
0
  0
VERTEX
  5
D4
  8
1
 10
-2391.163467
 20
-747.407811
 30
0.0
 70
0
  0
VERTEX
  5
D5
  8
1
 10
-2392.283244
 20
-750.65117
 30
0.0
 70
0
  0
VERTEX
  5
D6
  8
1
 10
-2393.250396
 20
-754.221623
 30
0.0
 70
0
  0
VERTEX
  5
D7
  8
1
 10
-2394.069495
 20
-758.21469
 30
0.0
 70
0
  0
VERTEX
  5
D8
  8
1
 10
-2394.723141
 20
-762.688479
 30
0.0
 70
0
  0
VERTEX
  5
D9
  8
1
 10
-2395.178614
 20
-767.561682
 30
0.0
 70
0
  0
VERTEX
  5
DA
  8
1
 10
-2395.429269
 20
-773.029747
 30
0.0
 70
0
  0
VERTEX
  5
DB
  8
1
 10
-2395.449582
 20
-779.061825
 30
0.0
 70
0
  0
VERTEX
  5
DC
  8
1
 10
-2395.211077
 20
-786.005498
 30
0.0
 70
0
  0
VERTEX
  5
DD
  8
1
 10
-2394.69148
 20
-793.727226
 30
0.0
 70
0
  0
VERTEX
  5
DE
  8
1
 10
-2393.876278
 20
-802.06259
 30
0.0
 70
0
  0
VERTEX
  5
DF
  8
1
 10
-2392.687485
 20
-811.547209
 30
0.0
 70
0
  0
VERTEX
  5
E0
  8
1
 10
-2390.88172
 20
-823.705692
 30
0.0
 70
0
  0
VERTEX
  5
E1
  8
1
 10
-2388.483747
 20
-838.496219
 30
0.0
 70
0
  0
VERTEX
  5
E2
  8
1
 10
-2388.198242
 20
-840.215912
 30
0.0
 70
0
  0
VERTEX
  5
E3
  8
1
 10
-2389.67185
 20
-840.406974
 30
0.0
 70
0
  0
VERTEX
  5
E4
  8
1
 10
-2404.404537
 20
-842.225064
 30
0.0
 70
0
  0
VERTEX
  5
E5
  8
1
 10
-2419.542732
 20
-843.954205
 30
0.0
 70
0
  0
VERTEX
  5
E6
  8
1
 10
-2434.510905
 20
-845.503774
 30
0.0
 70
0
  0
VERTEX
  5
E7
  8
1
 10
-2449.72936
 20
-846.864315
 30
0.0
 70
0
  0
VERTEX
  5
E8
  8
1
 10
-2465.002752
 20
-847.985986
 30
0.0
 70
0
  0
VERTEX
  5
E9
  8
1
 10
-2480.107457
 20
-848.847096
 30
0.0
 70
0
  0
VERTEX
  5
EA
  8
1
 10
-2495.408403
 20
-849.485915
 30
0.0
 70
0
  0
VERTEX
  5
EB
  8
1
 10
-2510.700471
 20
-849.917976
 30
0.0
 70
0
  0
VERTEX
  5
EC
  8
1
 10
-2526.540254
 20
-850.192632
 30
0.0
 70
0
  0
VERTEX
  5
ED
  8
1
 10
-2541.53723
 20
-850.329687
 30
0.0
 70
0
  0
VERTEX
  5
EE
  8
1
 10
-2556.882359
 20
-850.36002
 30
0.0
 70
0
  0
VERTEX
  5
EF
  8
1
 10
-2572.19622
 20
-850.281331
 30
0.0
 70
0
  0
VERTEX
  5
F0
  8
1
 10
-2587.508736
 20
-850.074741
 30
0.0
 70
0
  0
VERTEX
  5
F1
  8
1
 10
-2602.627504
 20
-849.729091
 30
0.0
 70
0
  0
VERTEX
  5
F2
  8
1
 10
-2617.934035
 20
-849.250511
 30
0.0
 70
0
  0
VERTEX
  5
F3
  8
1
 10
-2632.933517
 20
-848.680084
 30
0.0
 70
0
  0
VERTEX
  5
F4
  8
1
 10
-2648.26713
 20
-848.027055
 30
0.0
 70
0
  0
VERTEX
  5
F5
  8
1
 10
-2663.565326
 20
-847.336011
 30
0.0
 70
0
  0
VERTEX
  5
F6
  8
1
 10
-2678.862079
 20
-846.614297
 30
0.0
 70
0
  0
VERTEX
  5
F7
  8
1
 10
-2693.854749
 20
-845.88123
 30
0.0
 70
0
  0
VERTEX
  5
F8
  8
1
 10
-2709.149455
 20
-845.11589
 30
0.0
 70
0
  0
VERTEX
  5
F9
  8
1
 10
-2724.26966
 20
-844.350877
 30
0.0
 70
0
  0
VERTEX
  5
FA
  8
1
 10
-2739.56382
 20
-843.574518
 30
0.0
 70
0
  0
VERTEX
  5
FB
  8
1
 10
-2754.58219
 20
-842.813683
 30
0.0
 70
0
  0
VERTEX
  5
FC
  8
1
 10
-2769.876503
 20
-842.04037
 30
0.0
 70
0
  0
VERTEX
  5
FD
  8
1
 10
-2785.054431
 20
-841.273566
 30
0.0
 70
0
  0
VERTEX
  5
FE
  8
1
 10
-2800.348855
 20
-840.50155
 30
0.0
 70
0
  0
VERTEX
  5
FF
  8
1
 10
-2815.638804
 20
-839.730646
 30
0.0
 70
0
  0
VERTEX
  5
100
  8
1
 10
-2830.933243
 20
-838.96034
 30
0.0
 70
0
  0
VERTEX
  5
101
  8
1
 10
-2846.177775
 20
-838.193254
 30
0.0
 70
0
  0
VERTEX
  5
102
  8
1
 10
-2861.515796
 20
-837.422137
 30
0.0
 70
0
  0
VERTEX
  5
103
  8
1
 10
-2876.810308
 20
-836.653886
 30
0.0
 70
0
  0
VERTEX
  5
104
  8
1
 10
-2892.104863
 20
-835.886435
 30
0.0
 70
0
  0
VERTEX
  5
105
  8
1
 10
-2907.131208
 20
-835.133272
 30
0.0
 70
0
  0
SEQEND
  5
30
  8
1
  0
LINE
  5
106
  8
7
 10
-3341.298828
 20
-702.162857
 30
0.0
 11
-2446.712189
 21
-702.162857
 31
0.0
  0
ENDSEC
  0
EOF
