  0
SECTION
  2
HEADER
  9
$ACADVER
  1
AC1009
  9
$DWGCODEPAGE
  3
ANSI_1252
  9
$INSBASE
 10
0.0
 20
0.0
 30
0.0
  9
$EXTMIN
 10
1e+20
 20
1e+20
 30
1e+20
  9
$EXTMAX
 10
-1e+20
 20
-1e+20
 30
-1e+20
  9
$LIMMIN
 10
0.0
 20
0.0
  9
$LIMMAX
 10
420.0
 20
297.0
  9
$ORTHOMODE
 70
0
  9
$REGENMODE
 70
1
  9
$FILLMODE
 70
1
  9
$DRAGMODE
 70
2
  9
$QTEXTMODE
 70
0
  9
$MIRRTEXT
 70
1
  9
$OSMODE
 70
20583
  9
$LTSCALE
 40
1.0
  9
$ATTMODE
 70
1
  9
$TEXTSIZE
 40
2.5
  9
$TRACEWID
 40
1.0
  9
$TEXTSTYLE
  7
Standard
  9
$CLAYER
  8
0
  9
$CELTYPE
  6
ByLayer
  9
$CECOLOR
 62
256
  9
$DIMSCALE
 40
1.0
  9
$DIMASZ
 40
2.5
  9
$DIMEXO
 40
0.625
  9
$DIMDLI
 40
3.75
  9
$DIMRND
 40
0.0
  9
$DIMDLE
 40
0.0
  9
$DIMEXE
 40
1.25
  9
$DIMTP
 40
0.0
  9
$DIMTM
 40
0.0
  9
$DIMTXT
 40
2.5
  9
$DIMCEN
 40
2.5
  9
$DIMTSZ
 40
0.0
  9
$DIMTOL
 70
0
  9
$DIMLIM
 70
0
  9
$DIMTIH
 70
0
  9
$DIMTOH
 70
0
  9
$DIMSE1
 70
0
  9
$DIMSE2
 70
0
  9
$DIMTAD
 70
1
  9
$DIMZIN
 70
8
  9
$DIMBLK
  1

  9
$DIMASO
 70
1
  9
$DIMSHO
 70
1
  9
$DIMPOST
  1

  9
$DIMAPOST
  1

  9
$DIMALT
 70
0
  9
$DIMALTD
 70
3
  9
$DIMALTF
 40
0.03937007874
  9
$DIMLFAC
 40
1.0
  9
$DIMTOFL
 70
1
  9
$DIMTVP
 40
0.0
  9
$DIMTIX
 70
0
  9
$DIMSOXD
 70
0
  9
$DIMSAH
 70
0
  9
$DIMBLK1
  1

  9
$DIMBLK2
  1

  9
$DIMSTYLE
  2
ISO-25
  9
$DIMCLRD
 70
0
  9
$DIMCLRE
 70
0
  9
$DIMCLRT
 70
0
  9
$DIMTFAC
 40
1.0
  9
$DIMGAP
 40
0.625
  9
$COORDS
 70
1
  9
$ATTDIA
 70
0
  9
$ATTREQ
 70
1
  9
$HANDLING
 70
1
  9
$LUNITS
 70
2
  9
$LUPREC
 70
4
  9
$SKETCHINC
 40
1.0
  9
$FILLETRAD
 40
10.0
  9
$AUNITS
 70
0
  9
$AUPREC
 70
2
  9
$MENU
  1
.
  9
$ELEVATION
 40
0.0
  9
$PELEVATION
 40
0.0
  9
$THICKNESS
 40
0.0
  9
$LIMCHECK
 70
0
  9
$CHAMFERA
 40
0.0
  9
$CHAMFERB
 40
0.0
  9
$SKPOLY
 70
0
  9
$TDCREATE
 40
2461259.4353935183
  9
$TDUPDATE
 40
2461259.4353935183
  9
$TDINDWG
 40
0.0
  9
$TDUSRTIMER
 40
0.0
  9
$USRTIMER
 70
1
  9
$ANGBASE
 50
0.0
  9
$ANGDIR
 70
0
  9
$PDMODE
 70
0
  9
$PDSIZE
 40
0.0
  9
$PLINEWID
 40
0.0
  9
$SPLFRAME
 70
0
  9
$SPLINETYPE
 70
6
  9
$SPLINESEGS
 70
8
  9
$HANDSEED
  5
108
  9
$SURFTAB1
 70
6
  9
$SURFTAB2
 70
6
  9
$SURFTYPE
 70
6
  9
$SURFU
 70
6
  9
$SURFV
 70
6
  9
$UCSNAME
  2

  9
$UCSORG
 10
0.0
 20
0.0
 30
0.0
  9
$UCSXDIR
 10
1.0
 20
0.0
 30
0.0
  9
$UCSYDIR
 10
0.0
 20
1.0
 30
0.0
  9
$PUCSNAME
  2

  9
$PUCSORG
 10
0.0
 20
0.0
 30
0.0
  9
$PUCSXDIR
 10
1.0
 20
0.0
 30
0.0
  9
$PUCSYDIR
 10
0.0
 20
1.0
 30
0.0
  9
$USERI1
 70
0
  9
$USERI2
 70
0
  9
$USERI3
 70
0
  9
$USERI4
 70
0
  9
$USERI5
 70
0
  9
$USERR1
 40
0.0
  9
$USERR2
 40
0.0
  9
$USERR3
 40
0.0
  9
$USERR4
 40
0.0
  9
$USERR5
 40
0.0
  9
$WORLDVIEW
 70
1
  9
$SHADEDGE
 70
3
  9
$SHADEDIF
 70
70
  9
$TILEMODE
 70
1
  9
$MAXACTVP
 70
64
  9
$PLIMCHECK
 70
0
  9
$PEXTMIN
 10
1e+20
 20
1e+20
 30
1e+20
  9
$PEXTMAX
 10
-1e+20
 20
-1e+20
 30
-1e+20
  9
$PLIMMIN
 10
0.0
 20
0.0
  9
$PLIMMAX
 10
420.0
 20
297.0
  9
$UNITMODE
 70
0
  9
$VISRETAIN
 70
1
  9
$PLINEGEN
 70
0
  9
$PSLTSCALE
 70
1
  0
ENDSEC
  0
SECTION
  2
TABLES
  0
TABLE
  2
VPORT
 70
1
  0
VPORT
  5
23
  2
*Active
 70
0
 10
0.0
 20
0.0
 11
1.0
 21
1.0
 12
0.0
 22
0.0
 13
0.0
 23
0.0
 14
0.5
 24
0.5
 15
0.5
 25
0.5
 16
0.0
 26
0.0
 36
1.0
 17
0.0
 27
0.0
 37
0.0
 40
1000.0
 41
1.34
 42
50.0
 43
0.0
 44
0.0
 50
0.0
 51
0.0
 71
0
 72
1000
 73
1
 74
3
 75
0
 76
0
 77
0
 78
0
  0
ENDTAB
  0
TABLE
  2
LTYPE
 70
3
  0
LTYPE
  5
24
  2
ByBlock
 70
0
  3

 72
65
 73
0
 40
0.0
  0
LTYPE
  5
25
  2
ByLayer
 70
0
  3

 72
65
 73
0
 40
0.0
  0
LTYPE
  5
26
  2
Continuous
 70
0
  3

 72
65
 73
0
 40
0.0
  0
ENDTAB
  0
TABLE
  2
LAYER
 70
4
  0
LAYER
  5
27
  2
0
 70
0
 62
7
  6
Continuous
  0
LAYER
  5
28
  2
Defpoints
 70
0
 62
7
  6
Continuous
  0
LAYER
  5
2D
  2
1
 70
0
 62
1
  6
Continuous
  0
LAYER
  5
2E
  2
7
 70
0
 62
7
  6
Continuous
  0
ENDTAB
  0
TABLE
  2
STYLE
 70
1
  0
STYLE
  5
29
  2
Standard
 70
0
 40
0.0
 41
1.0
 50
0.0
 71
0
 42
2.5
  3
txt
  4

  0
ENDTAB
  0
TABLE
  2
VIEW
 70
0
  0
ENDTAB
  0
TABLE
  2
UCS
 70
0
  0
ENDTAB
  0
TABLE
  2
APPID
 70
3
  0
APPID
  5
2A
  2
ACAD
 70
0
  0
APPID
  5
106
  2
HATCHBACKGROUNDCOLOR
 70
0
  0
APPID
  5
107
  2
EZDXF
 70
0
  0
ENDTAB
  0
TABLE
  2
DIMSTYLE
 70
1
  0
DIMSTYLE
105
2B
  2
Standard
 70
0
  3

  4

  5

  6

  7

 40
1.0
 41
2.5
 42
0.625
 43
3.75
 44
1.25
 45
0.0
 46
0.0
 47
0.0
 48
0.0
140
2.5
141
2.5
142
0.0
143
0.03937007874
144
1.0
145
0.0
146
1.0
147
0.625
 71
0
 72
0
 73
0
 74
0
 75
0
 76
0
 77
1
 78
8
170
0
171
3
172
1
173
0
174
0
175
0
176
0
177
0
178
0
  0
ENDTAB
  0
ENDSEC
  0
SECTION
  2
BLOCKS
  0
BLOCK
  5
18
  8
0
  2
$Model_Space
 70
0
 10
0.0
 20
0.0
 30
0.0
  3
$Model_Space
  1

1001
EZDXF
1000
CREATED_BY_EZDXF
1000
1.4.4 @ 2026-08-06T02:26:58.111009+00:00
1000
WRITTEN_BY_EZDXF
1000
1.4.4 @ 2026-08-06T02:26:58.113009+00:00
  0
ENDBLK
  5
19
  8
0
  0
BLOCK
  5
1C
  8
0
  2
$Paper_Space
 70
0
 10
0.0
 20
0.0
 30
0.0
  3
$Paper_Space
  1

  0
ENDBLK
  5
1D
  8
0
  0
ENDSEC
  0
SECTION
  2
ENTITIES
  0
POLYLINE
  5
2F
  8
1
 66
1
 10
0.0
 20
0.0
 30
0.0
 70
1
  0
VERTEX
  5
31
  8
1
 10
-2922.888794
 20
-831.80397
 30
0.0
 70
0
  0
VERTEX
  5
32
  8
1
 10
-2922.828064
 20
-831.806259
 30
0.0
 70
0
  0
VERTEX
  5
33
  8
1
 10
-2930.510276
 20
-831.514352
 30
0.0
 70
0
  0
VERTEX
  5
34
  8
1
 10
-2945.416331
 20
-830.942143
 30
0.0
 70
0
  0
VERTEX
  5
35
  8
1
 10
-2960.44021
 20
-830.355185
 30
0.0
 70
0
  0
VERTEX
  5
36
  8
1
 10
-2975.655386
 20
-829.750676
 30
0.0
 70
0
  0
VERTEX
  5
37
  8
1
 10
-2990.696146
 20
-829.145249
 30
0.0
 70
0
  0
VERTEX
  5
38
  8
1
 10
-3005.910593
 20
-828.525431
 30
0.0
 70
0
  0
VERTEX
  5
39
  8
1
 10
-3021.25633
 20
-827.892243
 30
0.0
 70
0
  0
VERTEX
  5
3A
  8
1
 10
-3036.47015
 20
-827.256279
 30
0.0
 70
0
  0
VERTEX
  5
3B
  8
1
 10
-3051.751876
 20
-826.609152
 30
0.0
 70
0
  0
VERTEX
  5
3C
  8
1
 10
-3066.965084
 20
-825.956472
 30
0.0
 70
0
  0
VERTEX
  5
3D
  8
1
 10
-3082.177879
 20
-825.29499
 30
0.0
 70
0
  0
VERTEX
  5
3E
  8
1
 10
-3097.236372
 20
-824.631122
 30
0.0
 70
0
  0
VERTEX
  5
3F
  8
1
 10
-3112.448309
 20
-823.950839
 30
0.0
 70
0
  0
VERTEX
  5
40
  8
1
 10
-3127.808958
 20
-823.253534
 30
0.0
 70
0
  0
VERTEX
  5
41
  8
1
 10
-3143.019892
 20
-822.551951
 30
0.0
 70
0
  0
VERTEX
  5
42
  8
1
 10
-3158.497182
 20
-821.825863
 30
0.0
 70
0
  0
VERTEX
  5
43
  8
1
 10
-3173.706979
 20
-821.099787
 30
0.0
 70
0
  0
VERTEX
  5
44
  8
1
 10
-3189.181861
 20
-820.348031
 30
0.0
 70
0
  0
VERTEX
  5
45
  8
1
 10
-3204.390487
 20
-819.596939
 30
0.0
 70
0
  0
VERTEX
  5
46
  8
1
 10
-3219.53971
 20
-818.837787
 30
0.0
 70
0
  0
VERTEX
  5
47
  8
1
 10
-3234.747278
 20
-818.065543
 30
0.0
 70
0
  0
VERTEX
  5
48
  8
1
 10
-3249.754655
 20
-817.294089
 30
0.0
 70
0
  0
VERTEX
  5
49
  8
1
 10
-3264.961281
 20
-816.503362
 30
0.0
 70
0
  0
VERTEX
  5
4A
  8
1
 10
-3280.167412
 20
-815.703869
 30
0.0
 70
0
  0
VERTEX
  5
4B
  8
1
 10
-3295.275185
 20
-814.901162
 30
0.0
 70
0
  0
VERTEX
  5
4C
  8
1
 10
-3310.480417
 20
-814.085385
 30
0.0
 70
0
  0
VERTEX
  5
4D
  8
1
 10
-3325.709181
 20
-813.261
 30
0.0
 70
0
  0
VERTEX
  5
4E
  8
1
 10
-3340.913549
 20
-812.429767
 30
0.0
 70
0
  0
VERTEX
  5
4F
  8
1
 10
-3356.061102
 20
-811.591337
 30
0.0
 70
0
  0
VERTEX
  5
50
  8
1
 10
-3371.26441
 20
-810.740071
 30
0.0
 70
0
  0
VERTEX
  5
51
  8
1
 10
-3385.264282
 20
-809.951553
 30
0.0
 70
0
  0
VERTEX
  5
52
  8
1
 10
-3386.396061
 20
-809.887844
 30
0.0
 70
0
  0
VERTEX
  5
53
  8
1
 10
-3401.487969
 20
-809.037023
 30
0.0
 70
0
  0
VERTEX
  5
54
  8
1
 10
-3417.006836
 20
-808.162079
 30
0.0
 70
0
  0
VERTEX
  5
55
  8
1
 10
-3416.937351
 20
-792.330124
 30
0.0
 70
0
  0
VERTEX
  5
56
  8
1
 10
-3416.870862
 20
-777.167592
 30
0.0
 70
0
  0
VERTEX
  5
57
  8
1
 10
-3416.804426
 20
-762.005065
 30
0.0
 70
0
  0
VERTEX
  5
58
  8
1
 10
-3416.738142
 20
-746.868291
 30
0.0
 70
0
  0
VERTEX
  5
59
  8
1
 10
-3416.671754
 20
-731.70578
 30
0.0
 70
0
  0
VERTEX
  5
5A
  8
1
 10
-3416.605088
 20
-716.485462
 30
0.0
 70
0
  0
VERTEX
  5
5B
  8
1
 10
-3416.538641
 20
-701.32294
 30
0.0
 70
0
  0
VERTEX
  5
5C
  8
1
 10
-3416.471935
 20
-686.106719
 30
0.0
 70
0
  0
VERTEX
  5
5D
  8
1
 10
-3416.405455
 20
-670.944191
 30
0.0
 70
0
  0
VERTEX
  5
5E
  8
1
 10
-3416.340315
 20
-656.085942
 30
0.0
 70
0
  0
VERTEX
  5
5F
  8
1
 10
-3416.271965
 20
-640.490181
 30
0.0
 70
0
  0
VERTEX
  5
60
  8
1
 10
-3416.205538
 20
-625.327655
 30
0.0
 70
0
  0
VERTEX
  5
61
  8
1
 10
-3416.138566
 20
-610.034391
 30
0.0
 70
0
  0
VERTEX
  5
62
  8
1
 10
-3416.083374
 20
-597.424126
 30
0.0
 70
0
  0
VERTEX
  5
63
  8
1
 10
-3400.583023
 20
-596.687971
 30
0.0
 70
0
  0
VERTEX
  5
64
  8
1
 10
-3385.272668
 20
-595.960843
 30
0.0
 70
0
  0
VERTEX
  5
65
  8
1
 10
-3384.326477
 20
-595.915909
 30
0.0
 70
0
  0
VERTEX
  5
66
  8
1
 10
-3370.046308
 20
-595.237707
 30
0.0
 70
0
  0
VERTEX
  5
67
  8
1
 10
-3354.593057
 20
-594.503795
 30
0.0
 70
0
  0
VERTEX
  5
68
  8
1
 10
-3339.434591
 20
-593.783878
 30
0.0
 70
0
  0
VERTEX
  5
69
  8
1
 10
-3324.228116
 20
-593.061678
 30
0.0
 70
0
  0
VERTEX
  5
6A
  8
1
 10
-3308.774869
 20
-592.327755
 30
0.0
 70
0
  0
VERTEX
  5
6B
  8
1
 10
-3293.368172
 20
-591.596045
 30
0.0
 70
0
  0
VERTEX
  5
6C
  8
1
 10
-3277.91489
 20
-590.862127
 30
0.0
 70
0
  0
VERTEX
  5
6D
  8
1
 10
-3262.879882
 20
-590.148075
 30
0.0
 70
0
  0
VERTEX
  5
6E
  8
1
 10
-3247.426583
 20
-589.414155
 30
0.0
 70
0
  0
VERTEX
  5
6F
  8
1
 10
-3232.377688
 20
-588.699442
 30
0.0
 70
0
  0
VERTEX
  5
70
  8
1
 10
-3216.924356
 20
-587.965524
 30
0.0
 70
0
  0
VERTEX
  5
71
  8
1
 10
-3201.915225
 20
-587.252704
 30
0.0
 70
0
  0
VERTEX
  5
72
  8
1
 10
-3186.461917
 20
-586.518787
 30
0.0
 70
0
  0
VERTEX
  5
73
  8
1
 10
-3171.067793
 20
-585.78768
 30
0.0
 70
0
  0
VERTEX
  5
74
  8
1
 10
-3155.614533
 20
-585.053764
 30
0.0
 70
0
  0
VERTEX
  5
75
  8
1
 10
-3140.564275
 20
-584.338985
 30
0.0
 70
0
  0
VERTEX
  5
76
  8
1
 10
-3125.11101
 20
-583.605064
 30
0.0
 70
0
  0
VERTEX
  5
77
  8
1
 10
-3109.952487
 20
-582.885143
 30
0.0
 70
0
  0
VERTEX
  5
78
  8
1
 10
-3094.499203
 20
-582.151229
 30
0.0
 70
0
  0
VERTEX
  5
79
  8
1
 10
-3079.052937
 20
-581.417649
 30
0.0
 70
0
  0
VERTEX
  5
7A
  8
1
 10
-3063.599552
 20
-580.68373
 30
0.0
 70
0
  0
VERTEX
  5
7B
  8
1
 10
-3048.486235
 20
-579.965958
 30
0.0
 70
0
  0
VERTEX
  5
7C
  8
1
 10
-3033.032964
 20
-579.232036
 30
0.0
 70
0
  0
VERTEX
  5
7D
  8
1
 10
-3017.984073
 20
-578.517321
 30
0.0
 70
0
  0
VERTEX
  5
7E
  8
1
 10
-3002.530701
 20
-577.783399
 30
0.0
 70
0
  0
VERTEX
  5
7F
  8
1
 10
-2987.449024
 20
-577.06713
 30
0.0
 70
0
  0
VERTEX
  5
80
  8
1
 10
-2971.995787
 20
-576.333212
 30
0.0
 70
0
  0
VERTEX
  5
81
  8
1
 10
-2956.950444
 20
-575.618666
 30
0.0
 70
0
  0
VERTEX
  5
82
  8
1
 10
-2941.85649
 20
-574.901812
 30
0.0
 70
0
  0
VERTEX
  5
83
  8
1
 10
-2926.957362
 20
-574.19421
 30
0.0
 70
0
  0
VERTEX
  5
84
  8
1
 10
-2922.945862
 20
-574.003716
 30
0.0
 70
0
  0
VERTEX
  5
85
  8
1
 10
-2923.29895
 20
-574.021416
 30
0.0
 70
0
  0
VERTEX
  5
86
  8
1
 10
-2907.580388
 20
-572.39243
 30
0.0
 70
0
  0
VERTEX
  5
87
  8
1
 10
-2892.398123
 20
-570.745256
 30
0.0
 70
0
  0
VERTEX
  5
88
  8
1
 10
-2876.886289
 20
-568.9619
 30
0.0
 70
0
  0
VERTEX
  5
89
  8
1
 10
-2862.223868
 20
-567.187613
 30
0.0
 70
0
  0
VERTEX
  5
8A
  8
1
 10
-2846.732738
 20
-565.232622
 30
0.0
 70
0
  0
VERTEX
  5
8B
  8
1
 10
-2832.003498
 20
-563.295737
 30
0.0
 70
0
  0
VERTEX
  5
8C
  8
1
 10
-2816.534228
 20
-561.174703
 30
0.0
 70
0
  0
VERTEX
  5
8D
  8
1
 10
-2802.067668
 20
-559.10648
 30
0.0
 70
0
  0
VERTEX
  5
8E
  8
1
 10
-2786.624506
 20
-556.802686
 30
0.0
 70
0
  0
VERTEX
  5
8F
  8
1
 10
-2772.173591
 20
-554.547937
 30
0.0
 70
0
  0
VERTEX
  5
90
  8
1
 10
-2756.764352
 20
-552.02756
 30
0.0
 70
0
  0
VERTEX
  5
91
  8
1
 10
-2742.128476
 20
-549.514455
 30
0.0
 70
0
  0
VERTEX
  5
92
  8
1
 10
-2726.761945
 20
-546.745611
 30
0.0
 70
0
  0
VERTEX
  5
93
  8
1
 10
-2711.538685
 20
-543.878129
 30
0.0
 70
0
  0
VERTEX
  5
94
  8
1
 10
-2696.709619
 20
-540.975964
 30
0.0
 70
0
  0
VERTEX
  5
95
  8
1
 10
-2681.891909
 20
-537.9799
 30
0.0
 70
0
  0
VERTEX
  5
96
  8
1
 10
-2667.098233
 20
-534.902353
 30
0.0
 70
0
  0
VERTEX
  5
97
  8
1
 10
-2652.310317
 20
-531.742794
 30
0.0
 70
0
  0
VERTEX
  5
98
  8
1
 10
-2637.550546
 20
-528.506682
 30
0.0
 70
0
  0
VERTEX
  5
99
  8
1
 10
-2622.871141
 20
-525.202559
 30
0.0
 70
0
  0
VERTEX
  5
9A
  8
1
 10
-2608.087891
 20
-521.795566
 30
0.0
 70
0
  0
VERTEX
  5
9B
  8
1
 10
-2600.809021
 20
-520.096283
 30
0.0
 70
0
  0
VERTEX
  5
9C
  8
1
 10
-2595.928833
 20
-527.004779
 30
0.0
 70
0
  0
VERTEX
  5
9D
  8
1
 10
-2592.21878
 20
-531.851839
 30
0.0
 70
0
  0
VERTEX
  5
9E
  8
1
 10
-2589.041123
 20
-535.63923
 30
0.0
 70
0
  0
VERTEX
  5
9F
  8
1
 10
-2586.105085
 20
-538.755177
 30
0.0
 70
0
  0
VERTEX
  5
A0
  8
1
 10
-2583.113389
 20
-541.593697
 30
0.0
 70
0
  0
VERTEX
  5
A1
  8
1
 10
-2580.214292
 20
-544.023193
 30
0.0
 70
0
  0
VERTEX
  5
A2
  8
1
 10
-2577.401545
 20
-546.074792
 30
0.0
 70
0
  0
VERTEX
  5
A3
  8
1
 10
-2574.661135
 20
-547.775216
 30
0.0
 70
0
  0
VERTEX
  5
A4
  8
1
 10
-2571.663142
 20
-549.33038
 30
0.0
 70
0
  0
VERTEX
  5
A5
  8
1
 10
-2568.238816
 20
-550.81246
 30
0.0
 70
0
  0
VERTEX
  5
A6
  8
1
 10
-2564.421009
 20
-552.185985
 30
0.0
 70
0
  0
VERTEX
  5
A7
  8
1
 10
-2559.955493
 20
-553.512998
 30
0.0
 70
0
  0
VERTEX
  5
A8
  8
1
 10
-2554.594304
 20
-554.821536
 30
0.0
 70
0
  0
VERTEX
  5
A9
  8
1
 10
-2548.314058
 20
-556.091046
 30
0.0
 70
0
  0
VERTEX
  5
AA
  8
1
 10
-2541.304238
 20
-557.24888
 30
0.0
 70
0
  0
VERTEX
  5
AB
  8
1
 10
-2532.794069
 20
-558.380402
 30
0.0
 70
0
  0
VERTEX
  5
AC
  8
1
 10
-2522.0224
 20
-559.518623
 30
0.0
 70
0
  0
VERTEX
  5
AD
  8
1
 10
-2506.490957
 20
-560.70623
 30
0.0
 70
0
  0
VERTEX
  5
AE
  8
1
 10
-2491.282289
 20
-561.911037
 30
0.0
 70
0
  0
VERTEX
  5
AF
  8
1
 10
-2475.916965
 20
-563.186642
 30
0.0
 70
0
  0
VERTEX
  5
B0
  8
1
 10
-2460.892794
 20
-564.497444
 30
0.0
 70
0
  0
VERTEX
  5
B1
  8
1
 10
-2445.538942
 20
-565.905271
 30
0.0
 70
0
  0
VERTEX
  5
B2
  8
1
 10
-2430.204099
 20
-567.388538
 30
0.0
 70
0
  0
VERTEX
  5
B3
  8
1
 10
-2414.865591
 20
-568.95409
 30
0.0
 70
0
  0
VERTEX
  5
B4
  8
1
 10
-2399.779668
 20
-570.561308
 30
0.0
 70
0
  0
VERTEX
  5
B5
  8
1
 10
-2384.454235
 20
-572.251108
 30
0.0
 70
0
  0
VERTEX
  5
B6
  8
1
 10
-2369.519359
 20
-573.958949
 30
0.0
 70
0
  0
VERTEX
  5
B7
  8
1
 10
-2354.208093
 20
-575.771715
 30
0.0
 70
0
  0
VERTEX
  5
B8
  8
1
 10
-2339.341097
 20
-577.559476
 30
0.0
 70
0
  0
VERTEX
  5
B9
  8
1
 10
-2334.838867
 20
-578.102036
 30
0.0
 70
0
  0
VERTEX
  5
BA
  8
1
 10
-2335.082483
 20
-594.064553
 30
0.0
 70
0
  0
VERTEX
  5
BB
  8
1
 10
-2335.279462
 20
-609.506768
 30
0.0
 70
0
  0
VERTEX
  5
BC
  8
1
 10
-2335.336666
 20
-624.833747
 30
0.0
 70
0
  0
VERTEX
  5
BD
  8
1
 10
-2335.182836
 20
-640.276725
 30
0.0
 70
0
  0
VERTEX
  5
BE
  8
1
 10
-2334.805721
 20
-655.50433
 30
0.0
 70
0
  0
VERTEX
  5
BF
  8
1
 10
-2334.197849
 20
-670.936089
 30
0.0
 70
0
  0
VERTEX
  5
C0
  8
1
 10
-2333.410313
 20
-686.011316
 30
0.0
 70
0
  0
VERTEX
  5
C1
  8
1
 10
-2332.468324
 20
-701.22275
 30
0.0
 70
0
  0
VERTEX
  5
C2
  8
1
 10
-2331.746979
 20
-711.79451
 30
0.0
 70
0
  0
VERTEX
  5
C3
  8
1
 10
-2344.885431
 20
-713.706951
 30
0.0
 70
0
  0
VERTEX
  5
C4
  8
1
 10
-2350.146262
 20
-714.509504
 30
0.0
 70
0
  0
VERTEX
  5
C5
  8
1
 10
-2355.100394
 20
-715.555265
 30
0.0
 70
0
  0
VERTEX
  5
C6
  8
1
 10
-2360.15776
 20
-716.863544
 30
0.0
 70
0
  0
VERTEX
  5
C7
  8
1
 10
-2364.82999
 20
-718.318064
 30
0.0
 70
0
  0
VERTEX
  5
C8
  8
1
 10
-2369.283571
 20
-719.956216
 30
0.0
 70
0
  0
VERTEX
  5
C9
  8
1
 10
-2373.366824
 20
-721.715257
 30
0.0
 70
0
  0
VERTEX
  5
CA
  8
1
 10
-2377.040819
 20
-723.555929
 30
0.0
 70
0
  0
VERTEX
  5
CB
  8
1
 10
-2380.381772
 20
-725.496133
 30
0.0
 70
0
  0
VERTEX
  5
CC
  8
1
 10
-2383.370799
 20
-727.508963
 30
0.0
 70
0
  0
VERTEX
  5
CD
  8
1
 10
-2386.049603
 20
-729.607151
 30
0.0
 70
0
  0
VERTEX
  5
CE
  8
1
 10
-2388.349119
 20
-731.71056
 30
0.0
 70
0
  0
VERTEX
  5
CF
  8
1
 10
-2390.351132
 20
-733.86124
 30
0.0
 70
0
  0
VERTEX
  5
D0
  8
1
 10
-2392.122913
 20
-736.129284
 30
0.0
 70
0
  0
VERTEX
  5
D1
  8
1
 10
-2393.649368
 20
-738.497384
 30
0.0
 70
0
  0
VERTEX
  5
D2
  8
1
 10
-2395.011576
 20
-741.075255
 30
0.0
 70
0
  0
VERTEX
  5
D3
  8
1
 10
-2396.263818
 20
-743.98356
 30
0.0
 70
0
  0
VERTEX
  5
D4
  8
1
 10
-2397.383564
 20
-747.226927
 30
0.0
 70
0
  0
VERTEX
  5
D5
  8
1
 10
-2398.35075
 20
-750.797434
 30
0.0
 70
0
  0
VERTEX
  5
D6
  8
1
 10
-2399.169801
 20
-754.790525
 30
0.0
 70
0
  0
VERTEX
  5
D7
  8
1
 10
-2399.823513
 20
-759.264315
 30
0.0
 70
0
  0
VERTEX
  5
D8
  8
1
 10
-2400.279016
 20
-764.137543
 30
0.0
 70
0
  0
VERTEX
  5
D9
  8
1
 10
-2400.529648
 20
-769.605581
 30
0.0
 70
0
  0
VERTEX
  5
DA
  8
1
 10
-2400.549912
 20
-775.637699
 30
0.0
 70
0
  0
VERTEX
  5
DB
  8
1
 10
-2400.311372
 20
-782.58133
 30
0.0
 70
0
  0
VERTEX
  5
DC
  8
1
 10
-2399.791792
 20
-790.303112
 30
0.0
 70
0
  0
VERTEX
  5
DD
  8
1
 10
-2398.976655
 20
-798.638417
 30
0.0
 70
0
  0
VERTEX
  5
DE
  8
1
 10
-2397.787919
 20
-808.1231
 30
0.0
 70
0
  0
VERTEX
  5
DF
  8
1
 10
-2395.982162
 20
-820.281669
 30
0.0
 70
0
  0
VERTEX
  5
E0
  8
1
 10
-2393.584936
 20
-835.066892
 30
0.0
 70
0
  0
VERTEX
  5
E1
  8
1
 10
-2393.301239
 20
-836.775589
 30
0.0
 70
0
  0
VERTEX
  5
E2
  8
1
 10
-2394.488479
 20
-836.931572
 30
0.0
 70
0
  0
VERTEX
  5
E3
  8
1
 10
-2409.20477
 20
-838.771061
 30
0.0
 70
0
  0
VERTEX
  5
E4
  8
1
 10
-2424.034159
 20
-840.487764
 30
0.0
 70
0
  0
VERTEX
  5
E5
  8
1
 10
-2439.20044
 20
-842.081783
 30
0.0
 70
0
  0
VERTEX
  5
E6
  8
1
 10
-2454.176117
 20
-843.444202
 30
0.0
 70
0
  0
VERTEX
  5
E7
  8
1
 10
-2469.160535
 20
-844.564508
 30
0.0
 70
0
  0
VERTEX
  5
E8
  8
1
 10
-2483.671347
 20
-845.40302
 30
0.0
 70
0
  0
VERTEX
  5
E9
  8
1
 10
-2498.683982
 20
-846.035619
 30
0.0
 70
0
  0
VERTEX
  5
EA
  8
1
 10
-2514.218693
 20
-846.481053
 30
0.0
 70
0
  0
VERTEX
  5
EB
  8
1
 10
-2529.241954
 20
-846.748074
 30
0.0
 70
0
  0
VERTEX
  5
EC
  8
1
 10
-2544.282135
 20
-846.888727
 30
0.0
 70
0
  0
VERTEX
  5
ED
  8
1
 10
-2559.307674
 20
-846.917815
 30
0.0
 70
0
  0
VERTEX
  5
EE
  8
1
 10
-2574.800492
 20
-846.833625
 30
0.0
 70
0
  0
VERTEX
  5
EF
  8
1
 10
-2589.824821
 20
-846.636003
 30
0.0
 70
0
  0
VERTEX
  5
F0
  8
1
 10
-2605.126117
 20
-846.307732
 30
0.0
 70
0
  0
VERTEX
  5
F1
  8
1
 10
-2620.145318
 20
-845.869614
 30
0.0
 70
0
  0
VERTEX
  5
F2
  8
1
 10
-2635.161905
 20
-845.342253
 30
0.0
 70
0
  0
VERTEX
  5
F3
  8
1
 10
-2650.326651
 20
-844.745306
 30
0.0
 70
0
  0
VERTEX
  5
F4
  8
1
 10
-2665.338714
 20
-844.109155
 30
0.0
 70
0
  0
VERTEX
  5
F5
  8
1
 10
-2680.626667
 20
-843.424462
 30
0.0
 70
0
  0
VERTEX
  5
F6
  8
1
 10
-2695.635901
 20
-842.724877
 30
0.0
 70
0
  0
VERTEX
  5
F7
  8
1
 10
-2710.747389
 20
-842.002169
 30
0.0
 70
0
  0
VERTEX
  5
F8
  8
1
 10
-2725.755213
 20
-841.2747
 30
0.0
 70
0
  0
VERTEX
  5
F9
  8
1
 10
-2740.849574
 20
-840.54123
 30
0.0
 70
0
  0
VERTEX
  5
FA
  8
1
 10
-2755.857425
 20
-839.81397
 30
0.0
 70
0
  0
VERTEX
  5
FB
  8
1
 10
-2771.184377
 20
-839.072866
 30
0.0
 70
0
  0
VERTEX
  5
FC
  8
1
 10
-2786.192348
 20
-838.348455
 30
0.0
 70
0
  0
VERTEX
  5
FD
  8
1
 10
-2801.177058
 20
-837.626426
 30
0.0
 70
0
  0
VERTEX
  5
FE
  8
1
 10
-2816.185167
 20
-836.904517
 30
0.0
 70
0
  0
VERTEX
  5
FF
  8
1
 10
-2831.250243
 20
-836.181049
 30
0.0
 70
0
  0
VERTEX
  5
100
  8
1
 10
-2846.258459
 20
-835.461409
 30
0.0
 70
0
  0
VERTEX
  5
101
  8
1
 10
-2861.273888
 20
-834.742441
 30
0.0
 70
0
  0
VERTEX
  5
102
  8
1
 10
-2876.282284
 20
-834.024814
 30
0.0
 70
0
  0
VERTEX
  5
103
  8
1
 10
-2891.846617
 20
-833.281884
 30
0.0
 70
0
  0
VERTEX
  5
104
  8
1
 10
-2907.208331
 20
-832.549994
 30
0.0
 70
0
  0
SEQEND
  5
30
  8
1
  0
LINE
  5
105
  8
7
 10
-3341.298828
 20
-702.162857
 30
0.0
 11
-2446.712189
 21
-702.162857
 31
0.0
  0
ENDSEC
  0
EOF
