  0
SECTION
  2
HEADER
  9
$ACADVER
  1
AC1009
  9
$DWGCODEPAGE
  3
ANSI_1252
  9
$INSBASE
 10
0.0
 20
0.0
 30
0.0
  9
$EXTMIN
 10
1e+20
 20
1e+20
 30
1e+20
  9
$EXTMAX
 10
-1e+20
 20
-1e+20
 30
-1e+20
  9
$LIMMIN
 10
0.0
 20
0.0
  9
$LIMMAX
 10
420.0
 20
297.0
  9
$ORTHOMODE
 70
0
  9
$REGENMODE
 70
1
  9
$FILLMODE
 70
1
  9
$DRAGMODE
 70
2
  9
$QTEXTMODE
 70
0
  9
$MIRRTEXT
 70
1
  9
$OSMODE
 70
20583
  9
$LTSCALE
 40
1.0
  9
$ATTMODE
 70
1
  9
$TEXTSIZE
 40
2.5
  9
$TRACEWID
 40
1.0
  9
$TEXTSTYLE
  7
Standard
  9
$CLAYER
  8
0
  9
$CELTYPE
  6
ByLayer
  9
$CECOLOR
 62
256
  9
$DIMSCALE
 40
1.0
  9
$DIMASZ
 40
2.5
  9
$DIMEXO
 40
0.625
  9
$DIMDLI
 40
3.75
  9
$DIMRND
 40
0.0
  9
$DIMDLE
 40
0.0
  9
$DIMEXE
 40
1.25
  9
$DIMTP
 40
0.0
  9
$DIMTM
 40
0.0
  9
$DIMTXT
 40
2.5
  9
$DIMCEN
 40
2.5
  9
$DIMTSZ
 40
0.0
  9
$DIMTOL
 70
0
  9
$DIMLIM
 70
0
  9
$DIMTIH
 70
0
  9
$DIMTOH
 70
0
  9
$DIMSE1
 70
0
  9
$DIMSE2
 70
0
  9
$DIMTAD
 70
1
  9
$DIMZIN
 70
8
  9
$DIMBLK
  1

  9
$DIMASO
 70
1
  9
$DIMSHO
 70
1
  9
$DIMPOST
  1

  9
$DIMAPOST
  1

  9
$DIMALT
 70
0
  9
$DIMALTD
 70
3
  9
$DIMALTF
 40
0.03937007874
  9
$DIMLFAC
 40
1.0
  9
$DIMTOFL
 70
1
  9
$DIMTVP
 40
0.0
  9
$DIMTIX
 70
0
  9
$DIMSOXD
 70
0
  9
$DIMSAH
 70
0
  9
$DIMBLK1
  1

  9
$DIMBLK2
  1

  9
$DIMSTYLE
  2
ISO-25
  9
$DIMCLRD
 70
0
  9
$DIMCLRE
 70
0
  9
$DIMCLRT
 70
0
  9
$DIMTFAC
 40
1.0
  9
$DIMGAP
 40
0.625
  9
$COORDS
 70
1
  9
$ATTDIA
 70
0
  9
$ATTREQ
 70
1
  9
$HANDLING
 70
1
  9
$LUNITS
 70
2
  9
$LUPREC
 70
4
  9
$SKETCHINC
 40
1.0
  9
$FILLETRAD
 40
10.0
  9
$AUNITS
 70
0
  9
$AUPREC
 70
2
  9
$MENU
  1
.
  9
$ELEVATION
 40
0.0
  9
$PELEVATION
 40
0.0
  9
$THICKNESS
 40
0.0
  9
$LIMCHECK
 70
0
  9
$CHAMFERA
 40
0.0
  9
$CHAMFERB
 40
0.0
  9
$SKPOLY
 70
0
  9
$TDCREATE
 40
2461264.9423032408
  9
$TDUPDATE
 40
2461264.9423032408
  9
$TDINDWG
 40
0.0
  9
$TDUSRTIMER
 40
0.0
  9
$USRTIMER
 70
1
  9
$ANGBASE
 50
0.0
  9
$ANGDIR
 70
0
  9
$PDMODE
 70
0
  9
$PDSIZE
 40
0.0
  9
$PLINEWID
 40
0.0
  9
$SPLFRAME
 70
0
  9
$SPLINETYPE
 70
6
  9
$SPLINESEGS
 70
8
  9
$HANDSEED
  5
221
  9
$SURFTAB1
 70
6
  9
$SURFTAB2
 70
6
  9
$SURFTYPE
 70
6
  9
$SURFU
 70
6
  9
$SURFV
 70
6
  9
$UCSNAME
  2

  9
$UCSORG
 10
0.0
 20
0.0
 30
0.0
  9
$UCSXDIR
 10
1.0
 20
0.0
 30
0.0
  9
$UCSYDIR
 10
0.0
 20
1.0
 30
0.0
  9
$PUCSNAME
  2

  9
$PUCSORG
 10
0.0
 20
0.0
 30
0.0
  9
$PUCSXDIR
 10
1.0
 20
0.0
 30
0.0
  9
$PUCSYDIR
 10
0.0
 20
1.0
 30
0.0
  9
$USERI1
 70
0
  9
$USERI2
 70
0
  9
$USERI3
 70
0
  9
$USERI4
 70
0
  9
$USERI5
 70
0
  9
$USERR1
 40
0.0
  9
$USERR2
 40
0.0
  9
$USERR3
 40
0.0
  9
$USERR4
 40
0.0
  9
$USERR5
 40
0.0
  9
$WORLDVIEW
 70
1
  9
$SHADEDGE
 70
3
  9
$SHADEDIF
 70
70
  9
$TILEMODE
 70
1
  9
$MAXACTVP
 70
64
  9
$PLIMCHECK
 70
0
  9
$PEXTMIN
 10
1e+20
 20
1e+20
 30
1e+20
  9
$PEXTMAX
 10
-1e+20
 20
-1e+20
 30
-1e+20
  9
$PLIMMIN
 10
0.0
 20
0.0
  9
$PLIMMAX
 10
420.0
 20
297.0
  9
$UNITMODE
 70
0
  9
$VISRETAIN
 70
1
  9
$PLINEGEN
 70
0
  9
$PSLTSCALE
 70
1
  0
ENDSEC
  0
SECTION
  2
TABLES
  0
TABLE
  2
VPORT
 70
1
  0
VPORT
  5
23
  2
*Active
 70
0
 10
0.0
 20
0.0
 11
1.0
 21
1.0
 12
0.0
 22
0.0
 13
0.0
 23
0.0
 14
0.5
 24
0.5
 15
0.5
 25
0.5
 16
0.0
 26
0.0
 36
1.0
 17
0.0
 27
0.0
 37
0.0
 40
1000.0
 41
1.34
 42
50.0
 43
0.0
 44
0.0
 50
0.0
 51
0.0
 71
0
 72
1000
 73
1
 74
3
 75
0
 76
0
 77
0
 78
0
  0
ENDTAB
  0
TABLE
  2
LTYPE
 70
3
  0
LTYPE
  5
24
  2
ByBlock
 70
0
  3

 72
65
 73
0
 40
0.0
  0
LTYPE
  5
25
  2
ByLayer
 70
0
  3

 72
65
 73
0
 40
0.0
  0
LTYPE
  5
26
  2
Continuous
 70
0
  3

 72
65
 73
0
 40
0.0
  0
ENDTAB
  0
TABLE
  2
LAYER
 70
7
  0
LAYER
  5
27
  2
0
 70
0
 62
7
  6
Continuous
  0
LAYER
  5
28
  2
Defpoints
 70
0
 62
7
  6
Continuous
  0
LAYER
  5
2D
  2
1
 70
0
 62
1
  6
Continuous
  0
LAYER
  5
2E
  2
7
 70
0
 62
7
  6
Continuous
  0
LAYER
  5
2F
  2
14
 70
0
 62
3
  6
Continuous
  0
LAYER
  5
30
  2
8
 70
0
 62
6
  6
Continuous
  0
LAYER
  5
31
  2
4
 70
0
 62
2
  6
Continuous
  0
ENDTAB
  0
TABLE
  2
STYLE
 70
1
  0
STYLE
  5
29
  2
Standard
 70
0
 40
0.0
 41
1.0
 50
0.0
 71
0
 42
2.5
  3
txt
  4

  0
ENDTAB
  0
TABLE
  2
VIEW
 70
0
  0
ENDTAB
  0
TABLE
  2
UCS
 70
0
  0
ENDTAB
  0
TABLE
  2
APPID
 70
3
  0
APPID
  5
2A
  2
ACAD
 70
0
  0
APPID
  5
21F
  2
HATCHBACKGROUNDCOLOR
 70
0
  0
APPID
  5
220
  2
EZDXF
 70
0
  0
ENDTAB
  0
TABLE
  2
DIMSTYLE
 70
1
  0
DIMSTYLE
105
2B
  2
Standard
 70
0
  3

  4

  5

  6

  7

 40
1.0
 41
2.5
 42
0.625
 43
3.75
 44
1.25
 45
0.0
 46
0.0
 47
0.0
 48
0.0
140
2.5
141
2.5
142
0.0
143
0.03937007874
144
1.0
145
0.0
146
1.0
147
0.625
 71
0
 72
0
 73
0
 74
0
 75
0
 76
0
 77
1
 78
8
170
0
171
3
172
1
173
0
174
0
175
0
176
0
177
0
178
0
  0
ENDTAB
  0
ENDSEC
  0
SECTION
  2
BLOCKS
  0
BLOCK
  5
18
  8
0
  2
$Model_Space
 70
0
 10
0.0
 20
0.0
 30
0.0
  3
$Model_Space
  1

1001
EZDXF
1000
CREATED_BY_EZDXF
1000
1.4.4 @ 2026-08-11T14:36:55.930216+00:00
1000
WRITTEN_BY_EZDXF
1000
1.4.4 @ 2026-08-11T14:36:55.935216+00:00
  0
ENDBLK
  5
19
  8
0
  0
BLOCK
  5
1C
  8
0
  2
$Paper_Space
 70
0
 10
0.0
 20
0.0
 30
0.0
  3
$Paper_Space
  1

  0
ENDBLK
  5
1D
  8
0
  0
ENDSEC
  0
SECTION
  2
ENTITIES
  0
POLYLINE
  5
32
  8
1
 66
1
 10
0.0
 20
0.0
 30
0.0
 70
1
  0
VERTEX
  5
34
  8
1
 10
-2922.970276
 20
-839.420319
 30
0.0
 70
0
  0
VERTEX
  5
35
  8
1
 10
-2922.897339
 20
-839.423447
 30
0.0
 70
0
  0
VERTEX
  5
36
  8
1
 10
-2925.266259
 20
-839.320518
 30
0.0
 70
0
  0
VERTEX
  5
37
  8
1
 10
-2940.196807
 20
-838.666794
 30
0.0
 70
0
  0
VERTEX
  5
38
  8
1
 10
-2955.239243
 20
-837.999012
 30
0.0
 70
0
  0
VERTEX
  5
39
  8
1
 10
-2970.408084
 20
-837.31449
 30
0.0
 70
0
  0
VERTEX
  5
3A
  8
1
 10
-2985.547149
 20
-836.622717
 30
0.0
 70
0
  0
VERTEX
  5
3B
  8
1
 10
-3000.715267
 20
-835.922457
 30
0.0
 70
0
  0
VERTEX
  5
3C
  8
1
 10
-3016.076419
 20
-835.205304
 30
0.0
 70
0
  0
VERTEX
  5
3D
  8
1
 10
-3031.243741
 20
-834.488833
 30
0.0
 70
0
  0
VERTEX
  5
3E
  8
1
 10
-3046.496923
 20
-833.759965
 30
0.0
 70
0
  0
VERTEX
  5
3F
  8
1
 10
-3061.663395
 20
-833.026848
 30
0.0
 70
0
  0
VERTEX
  5
40
  8
1
 10
-3076.818759
 20
-832.285515
 30
0.0
 70
0
  0
VERTEX
  5
41
  8
1
 10
-3091.984443
 20
-831.534485
 30
0.0
 70
0
  0
VERTEX
  5
42
  8
1
 10
-3106.989358
 20
-830.781933
 30
0.0
 70
0
  0
VERTEX
  5
43
  8
1
 10
-3122.153999
 20
-830.011258
 30
0.0
 70
0
  0
VERTEX
  5
44
  8
1
 10
-3137.358577
 20
-829.227624
 30
0.0
 70
0
  0
VERTEX
  5
45
  8
1
 10
-3152.52207
 20
-828.434431
 30
0.0
 70
0
  0
VERTEX
  5
46
  8
1
 10
-3167.82521
 20
-827.621247
 30
0.0
 70
0
  0
VERTEX
  5
47
  8
1
 10
-3182.987365
 20
-826.802583
 30
0.0
 70
0
  0
VERTEX
  5
48
  8
1
 10
-3198.07305
 20
-825.975925
 30
0.0
 70
0
  0
VERTEX
  5
49
  8
1
 10
-3213.233931
 20
-825.133832
 30
0.0
 70
0
  0
VERTEX
  5
4A
  8
1
 10
-3228.443783
 20
-824.278529
 30
0.0
 70
0
  0
VERTEX
  5
4B
  8
1
 10
-3243.603447
 20
-823.416359
 30
0.0
 70
0
  0
VERTEX
  5
4C
  8
1
 10
-3259.055419
 20
-822.527963
 30
0.0
 70
0
  0
VERTEX
  5
4D
  8
1
 10
-3274.214069
 20
-821.647371
 30
0.0
 70
0
  0
VERTEX
  5
4E
  8
1
 10
-3289.522218
 20
-820.749664
 30
0.0
 70
0
  0
VERTEX
  5
4F
  8
1
 10
-3304.679956
 20
-819.852958
 30
0.0
 70
0
  0
VERTEX
  5
50
  8
1
 10
-3320.097912
 20
-818.932793
 30
0.0
 70
0
  0
VERTEX
  5
51
  8
1
 10
-3335.254649
 20
-818.019808
 30
0.0
 70
0
  0
VERTEX
  5
52
  8
1
 10
-3350.604107
 20
-817.085267
 30
0.0
 70
0
  0
VERTEX
  5
53
  8
1
 10
-3365.759695
 20
-816.152447
 30
0.0
 70
0
  0
VERTEX
  5
54
  8
1
 10
-3380.18158
 20
-815.259552
 30
0.0
 70
0
  0
VERTEX
  5
55
  8
1
 10
-3380.95175
 20
-815.211891
 30
0.0
 70
0
  0
VERTEX
  5
56
  8
1
 10
-3396.461979
 20
-814.250786
 30
0.0
 70
0
  0
VERTEX
  5
57
  8
1
 10
-3411.923523
 20
-813.29277
 30
0.0
 70
0
  0
VERTEX
  5
58
  8
1
 10
-3411.857717
 20
-797.419215
 30
0.0
 70
0
  0
VERTEX
  5
59
  8
1
 10
-3411.793757
 20
-782.002778
 30
0.0
 70
0
  0
VERTEX
  5
5A
  8
1
 10
-3411.730645
 20
-766.789914
 30
0.0
 70
0
  0
VERTEX
  5
5B
  8
1
 10
-3411.666732
 20
-751.373471
 30
0.0
 70
0
  0
VERTEX
  5
5C
  8
1
 10
-3411.602821
 20
-735.957028
 30
0.0
 70
0
  0
VERTEX
  5
5D
  8
1
 10
-3411.540304
 20
-720.887098
 30
0.0
 70
0
  0
VERTEX
  5
5E
  8
1
 10
-3411.476322
 20
-705.470651
 30
0.0
 70
0
  0
VERTEX
  5
5F
  8
1
 10
-3411.413758
 20
-690.394952
 30
0.0
 70
0
  0
VERTEX
  5
60
  8
1
 10
-3411.349799
 20
-674.978501
 30
0.0
 70
0
  0
VERTEX
  5
61
  8
1
 10
-3411.285932
 20
-659.579738
 30
0.0
 70
0
  0
VERTEX
  5
62
  8
1
 10
-3411.222006
 20
-644.163286
 30
0.0
 70
0
  0
VERTEX
  5
63
  8
1
 10
-3411.158083
 20
-628.746826
 30
0.0
 70
0
  0
VERTEX
  5
64
  8
1
 10
-3411.094818
 20
-613.491211
 30
0.0
 70
0
  0
VERTEX
  5
65
  8
1
 10
-3411.031843
 20
-598.30034
 30
0.0
 70
0
  0
VERTEX
  5
66
  8
1
 10
-3411.006165
 20
-592.100449
 30
0.0
 70
0
  0
VERTEX
  5
67
  8
1
 10
-3395.191344
 20
-591.328872
 30
0.0
 70
0
  0
VERTEX
  5
68
  8
1
 10
-3379.92107
 20
-590.583858
 30
0.0
 70
0
  0
VERTEX
  5
69
  8
1
 10
-3379.249573
 20
-590.551071
 30
0.0
 70
0
  0
VERTEX
  5
6A
  8
1
 10
-3364.29765
 20
-589.821609
 30
0.0
 70
0
  0
VERTEX
  5
6B
  8
1
 10
-3349.178222
 20
-589.083947
 30
0.0
 70
0
  0
VERTEX
  5
6C
  8
1
 10
-3333.907301
 20
-588.338896
 30
0.0
 70
0
  0
VERTEX
  5
6D
  8
1
 10
-3318.787884
 20
-587.601239
 30
0.0
 70
0
  0
VERTEX
  5
6E
  8
1
 10
-3303.476671
 20
-586.854227
 30
0.0
 70
0
  0
VERTEX
  5
6F
  8
1
 10
-3288.357259
 20
-586.116574
 30
0.0
 70
0
  0
VERTEX
  5
70
  8
1
 10
-3273.351775
 20
-585.384479
 30
0.0
 70
0
  0
VERTEX
  5
71
  8
1
 10
-3258.232326
 20
-584.646824
 30
0.0
 70
0
  0
VERTEX
  5
72
  8
1
 10
-3243.08499
 20
-583.907809
 30
0.0
 70
0
  0
VERTEX
  5
73
  8
1
 10
-3227.965588
 20
-583.170155
 30
0.0
 70
0
  0
VERTEX
  5
74
  8
1
 10
-3212.694639
 20
-582.425104
 30
0.0
 70
0
  0
VERTEX
  5
75
  8
1
 10
-3197.575186
 20
-581.687446
 30
0.0
 70
0
  0
VERTEX
  5
76
  8
1
 10
-3182.453579
 20
-580.94969
 30
0.0
 70
0
  0
VERTEX
  5
77
  8
1
 10
-3167.33419
 20
-580.212044
 30
0.0
 70
0
  0
VERTEX
  5
78
  8
1
 10
-3152.34143
 20
-579.480572
 30
0.0
 70
0
  0
VERTEX
  5
79
  8
1
 10
-3137.222062
 20
-578.742918
 30
0.0
 70
0
  0
VERTEX
  5
7A
  8
1
 10
-3121.84302
 20
-577.99259
 30
0.0
 70
0
  0
VERTEX
  5
7B
  8
1
 10
-3106.723514
 20
-577.254926
 30
0.0
 70
0
  0
VERTEX
  5
7C
  8
1
 10
-3091.452535
 20
-576.509875
 30
0.0
 70
0
  0
VERTEX
  5
7D
  8
1
 10
-3076.333148
 20
-575.772225
 30
0.0
 70
0
  0
VERTEX
  5
7E
  8
1
 10
-3061.288874
 20
-575.038243
 30
0.0
 70
0
  0
VERTEX
  5
7F
  8
1
 10
-3046.169503
 20
-574.300594
 30
0.0
 70
0
  0
VERTEX
  5
80
  8
1
 10
-3030.944969
 20
-573.557806
 30
0.0
 70
0
  0
VERTEX
  5
81
  8
1
 10
-3015.82557
 20
-572.820143
 30
0.0
 70
0
  0
VERTEX
  5
82
  8
1
 10
-3000.523722
 20
-572.073585
 30
0.0
 70
0
  0
VERTEX
  5
83
  8
1
 10
-2985.40425
 20
-571.335929
 30
0.0
 70
0
  0
VERTEX
  5
84
  8
1
 10
-2970.12816
 20
-570.59063
 30
0.0
 70
0
  0
VERTEX
  5
85
  8
1
 10
-2955.008776
 20
-569.852978
 30
0.0
 70
0
  0
VERTEX
  5
86
  8
1
 10
-2939.864881
 20
-569.114139
 30
0.0
 70
0
  0
VERTEX
  5
87
  8
1
 10
-2925.137435
 20
-568.395629
 30
0.0
 70
0
  0
VERTEX
  5
88
  8
1
 10
-2922.962341
 20
-568.28949
 30
0.0
 70
0
  0
VERTEX
  5
89
  8
1
 10
-2923.396606
 20
-568.311806
 30
0.0
 70
0
  0
VERTEX
  5
8A
  8
1
 10
-2908.02822
 20
-566.500237
 30
0.0
 70
0
  0
VERTEX
  5
8B
  8
1
 10
-2892.636387
 20
-564.611488
 30
0.0
 70
0
  0
VERTEX
  5
8C
  8
1
 10
-2877.603906
 20
-562.670413
 30
0.0
 70
0
  0
VERTEX
  5
8D
  8
1
 10
-2862.583061
 20
-560.639983
 30
0.0
 70
0
  0
VERTEX
  5
8E
  8
1
 10
-2847.331573
 20
-558.498468
 30
0.0
 70
0
  0
VERTEX
  5
8F
  8
1
 10
-2832.332665
 20
-556.312732
 30
0.0
 70
0
  0
VERTEX
  5
90
  8
1
 10
-2817.09667
 20
-554.006704
 30
0.0
 70
0
  0
VERTEX
  5
91
  8
1
 10
-2802.123354
 20
-551.6518
 30
0.0
 70
0
  0
VERTEX
  5
92
  8
1
 10
-2787.157533
 20
-549.204861
 30
0.0
 70
0
  0
VERTEX
  5
93
  8
1
 10
-2772.215414
 20
-546.659176
 30
0.0
 70
0
  0
VERTEX
  5
94
  8
1
 10
-2757.270552
 20
-544.000108
 30
0.0
 70
0
  0
VERTEX
  5
95
  8
1
 10
-2742.368864
 20
-541.227752
 30
0.0
 70
0
  0
VERTEX
  5
96
  8
1
 10
-2727.246454
 20
-538.285383
 30
0.0
 70
0
  0
VERTEX
  5
97
  8
1
 10
-2712.511162
 20
-535.299782
 30
0.0
 70
0
  0
VERTEX
  5
98
  8
1
 10
-2697.677109
 20
-532.185796
 30
0.0
 70
0
  0
VERTEX
  5
99
  8
1
 10
-2682.862905
 20
-528.978603
 30
0.0
 70
0
  0
VERTEX
  5
9A
  8
1
 10
-2668.056186
 20
-525.685669
 30
0.0
 70
0
  0
VERTEX
  5
9B
  8
1
 10
-2653.278319
 20
-522.315117
 30
0.0
 70
0
  0
VERTEX
  5
9C
  8
1
 10
-2638.507068
 20
-518.862665
 30
0.0
 70
0
  0
VERTEX
  5
9D
  8
1
 10
-2623.854895
 20
-515.352758
 30
0.0
 70
0
  0
VERTEX
  5
9E
  8
1
 10
-2609.218867
 20
-511.767389
 30
0.0
 70
0
  0
VERTEX
  5
9F
  8
1
 10
-2600.677795
 20
-509.64817
 30
0.0
 70
0
  0
VERTEX
  5
A0
  8
1
 10
-2595.70848
 20
-516.679998
 30
0.0
 70
0
  0
VERTEX
  5
A1
  8
1
 10
-2591.951431
 20
-521.581247
 30
0.0
 70
0
  0
VERTEX
  5
A2
  8
1
 10
-2588.846475
 20
-525.277749
 30
0.0
 70
0
  0
VERTEX
  5
A3
  8
1
 10
-2585.910481
 20
-528.393654
 30
0.0
 70
0
  0
VERTEX
  5
A4
  8
1
 10
-2582.91875
 20
-531.232231
 30
0.0
 70
0
  0
VERTEX
  5
A5
  8
1
 10
-2580.019651
 20
-533.661742
 30
0.0
 70
0
  0
VERTEX
  5
A6
  8
1
 10
-2577.206952
 20
-535.713349
 30
0.0
 70
0
  0
VERTEX
  5
A7
  8
1
 10
-2574.466719
 20
-537.413766
 30
0.0
 70
0
  0
VERTEX
  5
A8
  8
1
 10
-2571.46684
 20
-538.969778
 30
0.0
 70
0
  0
VERTEX
  5
A9
  8
1
 10
-2568.044442
 20
-540.450992
 30
0.0
 70
0
  0
VERTEX
  5
AA
  8
1
 10
-2564.226688
 20
-541.824515
 30
0.0
 70
0
  0
VERTEX
  5
AB
  8
1
 10
-2559.758506
 20
-543.152242
 30
0.0
 70
0
  0
VERTEX
  5
AC
  8
1
 10
-2554.399834
 20
-544.460094
 30
0.0
 70
0
  0
VERTEX
  5
AD
  8
1
 10
-2548.115953
 20
-545.730282
 30
0.0
 70
0
  0
VERTEX
  5
AE
  8
1
 10
-2541.102113
 20
-546.888604
 30
0.0
 70
0
  0
VERTEX
  5
AF
  8
1
 10
-2532.596726
 20
-548.019372
 30
0.0
 70
0
  0
VERTEX
  5
B0
  8
1
 10
-2521.870117
 20
-549.153404
 30
0.0
 70
0
  0
VERTEX
  5
B1
  8
1
 10
-2506.317514
 20
-550.212154
 30
0.0
 70
0
  0
VERTEX
  5
B2
  8
1
 10
-2490.978031
 20
-551.296439
 30
0.0
 70
0
  0
VERTEX
  5
B3
  8
1
 10
-2475.623683
 20
-552.436332
 30
0.0
 70
0
  0
VERTEX
  5
B4
  8
1
 10
-2460.628134
 20
-553.606026
 30
0.0
 70
0
  0
VERTEX
  5
B5
  8
1
 10
-2445.281395
 20
-554.861267
 30
0.0
 70
0
  0
VERTEX
  5
B6
  8
1
 10
-2430.295951
 20
-556.153249
 30
0.0
 70
0
  0
VERTEX
  5
B7
  8
1
 10
-2414.929273
 20
-557.555337
 30
0.0
 70
0
  0
VERTEX
  5
B8
  8
1
 10
-2399.956603
 20
-558.988597
 30
0.0
 70
0
  0
VERTEX
  5
B9
  8
1
 10
-2384.72775
 20
-560.502737
 30
0.0
 70
0
  0
VERTEX
  5
BA
  8
1
 10
-2369.766134
 20
-562.046763
 30
0.0
 70
0
  0
VERTEX
  5
BB
  8
1
 10
-2354.787484
 20
-563.651166
 30
0.0
 70
0
  0
VERTEX
  5
BC
  8
1
 10
-2339.836689
 20
-565.296529
 30
0.0
 70
0
  0
VERTEX
  5
BD
  8
1
 10
-2324.639009
 20
-566.992602
 30
0.0
 70
0
  0
VERTEX
  5
BE
  8
1
 10
-2319.621735
 20
-567.554665
 30
0.0
 70
0
  0
VERTEX
  5
BF
  8
1
 10
-2319.925568
 20
-583.641982
 30
0.0
 70
0
  0
VERTEX
  5
C0
  8
1
 10
-2320.178575
 20
-598.654017
 30
0.0
 70
0
  0
VERTEX
  5
C1
  8
1
 10
-2320.325526
 20
-613.681338
 30
0.0
 70
0
  0
VERTEX
  5
C2
  8
1
 10
-2320.310336
 20
-628.695615
 30
0.0
 70
0
  0
VERTEX
  5
C3
  8
1
 10
-2320.113932
 20
-644.027002
 30
0.0
 70
0
  0
VERTEX
  5
C4
  8
1
 10
-2319.738896
 20
-659.036827
 30
0.0
 70
0
  0
VERTEX
  5
C5
  8
1
 10
-2319.168832
 20
-674.421012
 30
0.0
 70
0
  0
VERTEX
  5
C6
  8
1
 10
-2318.436311
 20
-689.655615
 30
0.0
 70
0
  0
VERTEX
  5
C7
  8
1
 10
-2317.586599
 20
-704.708568
 30
0.0
 70
0
  0
VERTEX
  5
C8
  8
1
 10
-2316.646398
 20
-719.483518
 30
0.0
 70
0
  0
VERTEX
  5
C9
  8
1
 10
-2316.468658
 20
-722.070541
 30
0.0
 70
0
  0
VERTEX
  5
CA
  8
1
 10
-2329.697545
 20
-723.994985
 30
0.0
 70
0
  0
VERTEX
  5
CB
  8
1
 10
-2334.845576
 20
-724.782322
 30
0.0
 70
0
  0
VERTEX
  5
CC
  8
1
 10
-2339.799736
 20
-725.828073
 30
0.0
 70
0
  0
VERTEX
  5
CD
  8
1
 10
-2344.856745
 20
-727.136333
 30
0.0
 70
0
  0
VERTEX
  5
CE
  8
1
 10
-2349.530301
 20
-728.591322
 30
0.0
 70
0
  0
VERTEX
  5
CF
  8
1
 10
-2353.983758
 20
-730.229468
 30
0.0
 70
0
  0
VERTEX
  5
D0
  8
1
 10
-2358.06687
 20
-731.988465
 30
0.0
 70
0
  0
VERTEX
  5
D1
  8
1
 10
-2361.740595
 20
-733.829058
 30
0.0
 70
0
  0
VERTEX
  5
D2
  8
1
 10
-2365.081422
 20
-735.769302
 30
0.0
 70
0
  0
VERTEX
  5
D3
  8
1
 10
-2368.070196
 20
-737.782108
 30
0.0
 70
0
  0
VERTEX
  5
D4
  8
1
 10
-2370.749038
 20
-739.880365
 30
0.0
 70
0
  0
VERTEX
  5
D5
  8
1
 10
-2373.048555
 20
-741.983795
 30
0.0
 70
0
  0
VERTEX
  5
D6
  8
1
 10
-2375.050495
 20
-744.134438
 30
0.0
 70
0
  0
VERTEX
  5
D7
  8
1
 10
-2376.822191
 20
-746.402437
 30
0.0
 70
0
  0
VERTEX
  5
D8
  8
1
 10
-2378.348525
 20
-748.770576
 30
0.0
 70
0
  0
VERTEX
  5
D9
  8
1
 10
-2379.759636
 20
-751.451271
 30
0.0
 70
0
  0
VERTEX
  5
DA
  8
1
 10
-2381.003865
 20
-754.363024
 30
0.0
 70
0
  0
VERTEX
  5
DB
  8
1
 10
-2382.115892
 20
-757.609007
 30
0.0
 70
0
  0
VERTEX
  5
DC
  8
1
 10
-2383.101915
 20
-761.292245
 30
0.0
 70
0
  0
VERTEX
  5
DD
  8
1
 10
-2383.907733
 20
-765.288145
 30
0.0
 70
0
  0
VERTEX
  5
DE
  8
1
 10
-2384.549072
 20
-769.763662
 30
0.0
 70
0
  0
VERTEX
  5
DF
  8
1
 10
-2384.993463
 20
-774.639421
 30
0.0
 70
0
  0
VERTEX
  5
E0
  8
1
 10
-2385.233833
 20
-780.106465
 30
0.0
 70
0
  0
VERTEX
  5
E1
  8
1
 10
-2385.245079
 20
-786.14036
 30
0.0
 70
0
  0
VERTEX
  5
E2
  8
1
 10
-2384.998517
 20
-793.081975
 30
0.0
 70
0
  0
VERTEX
  5
E3
  8
1
 10
-2384.471252
 20
-800.805447
 30
0.0
 70
0
  0
VERTEX
  5
E4
  8
1
 10
-2383.637576
 20
-809.250997
 30
0.0
 70
0
  0
VERTEX
  5
E5
  8
1
 10
-2382.426351
 20
-818.85049
 30
0.0
 70
0
  0
VERTEX
  5
E6
  8
1
 10
-2380.610742
 20
-831.011266
 30
0.0
 70
0
  0
VERTEX
  5
E7
  8
1
 10
-2378.19381
 20
-845.809793
 30
0.0
 70
0
  0
VERTEX
  5
E8
  8
1
 10
-2377.97699
 20
-847.1035
 30
0.0
 70
0
  0
VERTEX
  5
E9
  8
1
 10
-2387.039479
 20
-848.189007
 30
0.0
 70
0
  0
VERTEX
  5
EA
  8
1
 10
-2401.870976
 20
-849.897933
 30
0.0
 70
0
  0
VERTEX
  5
EB
  8
1
 10
-2417.193731
 20
-851.542465
 30
0.0
 70
0
  0
VERTEX
  5
EC
  8
1
 10
-2432.602192
 20
-853.015331
 30
0.0
 70
0
  0
VERTEX
  5
ED
  8
1
 10
-2447.624891
 20
-854.231451
 30
0.0
 70
0
  0
VERTEX
  5
EE
  8
1
 10
-2463.070824
 20
-855.241298
 30
0.0
 70
0
  0
VERTEX
  5
EF
  8
1
 10
-2478.137982
 20
-855.99388
 30
0.0
 70
0
  0
VERTEX
  5
F0
  8
1
 10
-2493.606813
 20
-856.548348
 30
0.0
 70
0
  0
VERTEX
  5
F1
  8
1
 10
-2509.03468
 20
-856.911709
 30
0.0
 70
0
  0
VERTEX
  5
F2
  8
1
 10
-2524.511792
 20
-857.128546
 30
0.0
 70
0
  0
VERTEX
  5
F3
  8
1
 10
-2539.997115
 20
-857.239412
 30
0.0
 70
0
  0
VERTEX
  5
F4
  8
1
 10
-2555.475636
 20
-857.247541
 30
0.0
 70
0
  0
VERTEX
  5
F5
  8
1
 10
-2570.563811
 20
-857.142184
 30
0.0
 70
0
  0
VERTEX
  5
F6
  8
1
 10
-2586.040169
 20
-856.884935
 30
0.0
 70
0
  0
VERTEX
  5
F7
  8
1
 10
-2601.084318
 20
-856.460674
 30
0.0
 70
0
  0
VERTEX
  5
F8
  8
1
 10
-2616.551823
 20
-855.871706
 30
0.0
 70
0
  0
VERTEX
  5
F9
  8
1
 10
-2631.861322
 20
-855.182954
 30
0.0
 70
0
  0
VERTEX
  5
FA
  8
1
 10
-2647.321148
 20
-854.423969
 30
0.0
 70
0
  0
VERTEX
  5
FB
  8
1
 10
-2662.603279
 20
-853.646834
 30
0.0
 70
0
  0
VERTEX
  5
FC
  8
1
 10
-2678.060713
 20
-852.840757
 30
0.0
 70
0
  0
VERTEX
  5
FD
  8
1
 10
-2693.379474
 20
-852.021001
 30
0.0
 70
0
  0
VERTEX
  5
FE
  8
1
 10
-2708.835018
 20
-851.179795
 30
0.0
 70
0
  0
VERTEX
  5
FF
  8
1
 10
-2723.891337
 20
-850.35474
 30
0.0
 70
0
  0
VERTEX
  5
100
  8
1
 10
-2739.346464
 20
-849.505974
 30
0.0
 70
0
  0
VERTEX
  5
101
  8
1
 10
-2754.641215
 20
-848.666276
 30
0.0
 70
0
  0
VERTEX
  5
102
  8
1
 10
-2770.096401
 20
-847.817985
 30
0.0
 70
0
  0
VERTEX
  5
103
  8
1
 10
-2785.166018
 20
-846.990572
 30
0.0
 70
0
  0
VERTEX
  5
104
  8
1
 10
-2800.621075
 20
-846.141789
 30
0.0
 70
0
  0
VERTEX
  5
105
  8
1
 10
-2815.7379
 20
-845.311559
 30
0.0
 70
0
  0
VERTEX
  5
106
  8
1
 10
-2831.193002
 20
-844.462705
 30
0.0
 70
0
  0
VERTEX
  5
107
  8
1
 10
-2846.191372
 20
-843.638838
 30
0.0
 70
0
  0
VERTEX
  5
108
  8
1
 10
-2861.646515
 20
-842.789804
 30
0.0
 70
0
  0
VERTEX
  5
109
  8
1
 10
-2876.987803
 20
-841.946977
 30
0.0
 70
0
  0
VERTEX
  5
10A
  8
1
 10
-2892.117773
 20
-841.115682
 30
0.0
 70
0
  0
VERTEX
  5
10B
  8
1
 10
-2907.425929
 20
-840.274493
 30
0.0
 70
0
  0
SEQEND
  5
33
  8
1
  0
POLYLINE
  5
10C
  8
14
 66
1
 10
0.0
 20
0.0
 30
0.0
 70
1
  0
VERTEX
  5
10E
  8
14
 10
-2922.345886
 20
-826.735458
 30
0.0
 70
0
  0
VERTEX
  5
10F
  8
14
 10
-2922.345886
 20
-826.735458
 30
0.0
 70
0
  0
VERTEX
  5
110
  8
14
 10
-2928.508195
 20
-826.468525
 30
0.0
 70
0
  0
VERTEX
  5
111
  8
14
 10
-2943.340458
 20
-825.816017
 30
0.0
 70
0
  0
VERTEX
  5
112
  8
14
 10
-2959.49553
 20
-825.094197
 30
0.0
 70
0
  0
VERTEX
  5
113
  8
14
 10
-2975.848004
 20
-824.353487
 30
0.0
 70
0
  0
VERTEX
  5
114
  8
14
 10
-2990.612789
 20
-823.676527
 30
0.0
 70
0
  0
VERTEX
  5
115
  8
14
 10
-3006.712525
 20
-822.929726
 30
0.0
 70
0
  0
VERTEX
  5
116
  8
14
 10
-3023.998693
 20
-822.117863
 30
0.0
 70
0
  0
VERTEX
  5
117
  8
14
 10
-3042.322869
 20
-821.245711
 30
0.0
 70
0
  0
VERTEX
  5
118
  8
14
 10
-3061.536535
 20
-820.318047
 30
0.0
 70
0
  0
VERTEX
  5
119
  8
14
 10
-3076.44119
 20
-819.588744
 30
0.0
 70
0
  0
VERTEX
  5
11A
  8
14
 10
-3091.69998
 20
-818.832919
 30
0.0
 70
0
  0
VERTEX
  5
11B
  8
14
 10
-3107.250336
 20
-818.052584
 30
0.0
 70
0
  0
VERTEX
  5
11C
  8
14
 10
-3123.029578
 20
-817.249756
 30
0.0
 70
0
  0
VERTEX
  5
11D
  8
14
 10
-3138.975064
 20
-816.42645
 30
0.0
 70
0
  0
VERTEX
  5
11E
  8
14
 10
-3155.024151
 20
-815.584681
 30
0.0
 70
0
  0
VERTEX
  5
11F
  8
14
 10
-3170.894662
 20
-814.738292
 30
0.0
 70
0
  0
VERTEX
  5
120
  8
14
 10
-3186.956997
 20
-813.867263
 30
0.0
 70
0
  0
VERTEX
  5
121
  8
14
 10
-3202.91228
 20
-812.988813
 30
0.0
 70
0
  0
VERTEX
  5
122
  8
14
 10
-3218.680051
 20
-812.108762
 30
0.0
 70
0
  0
VERTEX
  5
123
  8
14
 10
-3234.179776
 20
-811.232933
 30
0.0
 70
0
  0
VERTEX
  5
124
  8
14
 10
-3254.29004
 20
-810.081789
 30
0.0
 70
0
  0
VERTEX
  5
125
  8
14
 10
-3273.589883
 20
-808.962299
 30
0.0
 70
0
  0
VERTEX
  5
126
  8
14
 10
-3291.888534
 20
-807.888262
 30
0.0
 70
0
  0
VERTEX
  5
127
  8
14
 10
-3308.995153
 20
-806.873477
 30
0.0
 70
0
  0
VERTEX
  5
128
  8
14
 10
-3328.411485
 20
-805.709341
 30
0.0
 70
0
  0
VERTEX
  5
129
  8
14
 10
-3345.294489
 20
-804.6863
 30
0.0
 70
0
  0
VERTEX
  5
12A
  8
14
 10
-3361.685381
 20
-803.682843
 30
0.0
 70
0
  0
VERTEX
  5
12B
  8
14
 10
-3380.128784
 20
-802.538528
 30
0.0
 70
0
  0
VERTEX
  5
12C
  8
14
 10
-3380.128784
 20
-802.538528
 30
0.0
 70
0
  0
VERTEX
  5
12D
  8
14
 10
-3380.052518
 20
-784.148886
 30
0.0
 70
0
  0
VERTEX
  5
12E
  8
14
 10
-3379.984833
 20
-767.828382
 30
0.0
 70
0
  0
VERTEX
  5
12F
  8
14
 10
-3379.920245
 20
-752.254353
 30
0.0
 70
0
  0
VERTEX
  5
130
  8
14
 10
-3379.848997
 20
-735.07487
 30
0.0
 70
0
  0
VERTEX
  5
131
  8
14
 10
-3379.773513
 20
-716.87375
 30
0.0
 70
0
  0
VERTEX
  5
132
  8
14
 10
-3379.696213
 20
-698.234781
 30
0.0
 70
0
  0
VERTEX
  5
133
  8
14
 10
-3379.619519
 20
-679.741762
 30
0.0
 70
0
  0
VERTEX
  5
134
  8
14
 10
-3379.54585
 20
-661.978491
 30
0.0
 70
0
  0
VERTEX
  5
135
  8
14
 10
-3379.47763
 20
-645.528749
 30
0.0
 70
0
  0
VERTEX
  5
136
  8
14
 10
-3379.417278
 20
-630.976369
 30
0.0
 70
0
  0
VERTEX
  5
137
  8
14
 10
-3379.356592
 20
-616.343411
 30
0.0
 70
0
  0
VERTEX
  5
138
  8
14
 10
-3379.302368
 20
-603.268776
 30
0.0
 70
0
  0
VERTEX
  5
139
  8
14
 10
-3379.302368
 20
-603.268776
 30
0.0
 70
0
  0
VERTEX
  5
13A
  8
14
 10
-3359.66742
 20
-602.310814
 30
0.0
 70
0
  0
VERTEX
  5
13B
  8
14
 10
-3337.131857
 20
-601.211336
 30
0.0
 70
0
  0
VERTEX
  5
13C
  8
14
 10
-3315.764205
 20
-600.168838
 30
0.0
 70
0
  0
VERTEX
  5
13D
  8
14
 10
-3299.706218
 20
-599.385391
 30
0.0
 70
0
  0
VERTEX
  5
13E
  8
14
 10
-3282.393171
 20
-598.540712
 30
0.0
 70
0
  0
VERTEX
  5
13F
  8
14
 10
-3263.992377
 20
-597.642962
 30
0.0
 70
0
  0
VERTEX
  5
140
  8
14
 10
-3244.671195
 20
-596.700309
 30
0.0
 70
0
  0
VERTEX
  5
141
  8
14
 10
-3224.596967
 20
-595.720915
 30
0.0
 70
0
  0
VERTEX
  5
142
  8
14
 10
-3203.937037
 20
-594.712946
 30
0.0
 70
0
  0
VERTEX
  5
143
  8
14
 10
-3182.858748
 20
-593.684566
 30
0.0
 70
0
  0
VERTEX
  5
144
  8
14
 10
-3161.529463
 20
-592.64394
 30
0.0
 70
0
  0
VERTEX
  5
145
  8
14
 10
-3140.116486
 20
-591.599231
 30
0.0
 70
0
  0
VERTEX
  5
146
  8
14
 10
-3118.787181
 20
-590.558604
 30
0.0
 70
0
  0
VERTEX
  5
147
  8
14
 10
-3097.708891
 20
-589.530223
 30
0.0
 70
0
  0
VERTEX
  5
148
  8
14
 10
-3077.048958
 20
-588.522254
 30
0.0
 70
0
  0
VERTEX
  5
149
  8
14
 10
-3056.974726
 20
-587.54286
 30
0.0
 70
0
  0
VERTEX
  5
14A
  8
14
 10
-3037.653539
 20
-586.600207
 30
0.0
 70
0
  0
VERTEX
  5
14B
  8
14
 10
-3019.25274
 20
-585.702457
 30
0.0
 70
0
  0
VERTEX
  5
14C
  8
14
 10
-3001.939672
 20
-584.857777
 30
0.0
 70
0
  0
VERTEX
  5
14D
  8
14
 10
-2985.881678
 20
-584.07433
 30
0.0
 70
0
  0
VERTEX
  5
14E
  8
14
 10
-2971.246127
 20
-583.360282
 30
0.0
 70
0
  0
VERTEX
  5
14F
  8
14
 10
-2952.325846
 20
-582.437188
 30
0.0
 70
0
  0
VERTEX
  5
150
  8
14
 10
-2937.547331
 20
-581.716164
 30
0.0
 70
0
  0
VERTEX
  5
151
  8
14
 10
-2923.654318
 20
-581.038344
 30
0.0
 70
0
  0
VERTEX
  5
152
  8
14
 10
-2922.343445
 20
-580.974388
 30
0.0
 70
0
  0
VERTEX
  5
153
  8
14
 10
-2922.343445
 20
-580.974388
 30
0.0
 70
0
  0
VERTEX
  5
154
  8
14
 10
-2905.463349
 20
-579.002403
 30
0.0
 70
0
  0
VERTEX
  5
155
  8
14
 10
-2889.62849
 20
-577.032965
 30
0.0
 70
0
  0
VERTEX
  5
156
  8
14
 10
-2872.370672
 20
-574.78093
 30
0.0
 70
0
  0
VERTEX
  5
157
  8
14
 10
-2855.436322
 20
-572.469263
 30
0.0
 70
0
  0
VERTEX
  5
158
  8
14
 10
-2840.047025
 20
-570.280896
 30
0.0
 70
0
  0
VERTEX
  5
159
  8
14
 10
-2823.684786
 20
-567.859962
 30
0.0
 70
0
  0
VERTEX
  5
15A
  8
14
 10
-2806.526099
 20
-565.211704
 30
0.0
 70
0
  0
VERTEX
  5
15B
  8
14
 10
-2788.74751
 20
-562.341371
 30
0.0
 70
0
  0
VERTEX
  5
15C
  8
14
 10
-2770.525513
 20
-559.254205
 30
0.0
 70
0
  0
VERTEX
  5
15D
  8
14
 10
-2752.036619
 20
-555.955453
 30
0.0
 70
0
  0
VERTEX
  5
15E
  8
14
 10
-2738.563591
 20
-553.434157
 30
0.0
 70
0
  0
VERTEX
  5
15F
  8
14
 10
-2720.050957
 20
-549.798061
 30
0.0
 70
0
  0
VERTEX
  5
160
  8
14
 10
-2701.883288
 20
-546.056732
 30
0.0
 70
0
  0
VERTEX
  5
161
  8
14
 10
-2684.367927
 20
-542.307472
 30
0.0
 70
0
  0
VERTEX
  5
162
  8
14
 10
-2667.812164
 20
-538.647571
 30
0.0
 70
0
  0
VERTEX
  5
163
  8
14
 10
-2652.523379
 20
-535.174339
 30
0.0
 70
0
  0
VERTEX
  5
164
  8
14
 10
-2636.281998
 20
-531.389869
 30
0.0
 70
0
  0
VERTEX
  5
165
  8
14
 10
-2620.907517
 20
-527.715796
 30
0.0
 70
0
  0
VERTEX
  5
166
  8
14
 10
-2607.222557
 20
-524.358936
 30
0.0
 70
0
  0
VERTEX
  5
167
  8
14
 10
-2604.581909
 20
-523.697205
 30
0.0
 70
0
  0
VERTEX
  5
168
  8
14
 10
-2601.628015
 20
-527.771383
 30
0.0
 70
0
  0
VERTEX
  5
169
  8
14
 10
-2598.317783
 20
-531.812652
 30
0.0
 70
0
  0
VERTEX
  5
16A
  8
14
 10
-2594.751312
 20
-535.704848
 30
0.0
 70
0
  0
VERTEX
  5
16B
  8
14
 10
-2591.423492
 20
-538.949252
 30
0.0
 70
0
  0
VERTEX
  5
16C
  8
14
 10
-2587.715514
 20
-542.145976
 30
0.0
 70
0
  0
VERTEX
  5
16D
  8
14
 10
-2584.189484
 20
-544.78512
 30
0.0
 70
0
  0
VERTEX
  5
16E
  8
14
 10
-2581.112135
 20
-546.769934
 30
0.0
 70
0
  0
VERTEX
  5
16F
  8
14
 10
-2577.751602
 20
-548.617482
 30
0.0
 70
0
  0
VERTEX
  5
170
  8
14
 10
-2574.255325
 20
-550.251481
 30
0.0
 70
0
  0
VERTEX
  5
171
  8
14
 10
-2570.032836
 20
-551.914599
 30
0.0
 70
0
  0
VERTEX
  5
172
  8
14
 10
-2565.687655
 20
-553.346035
 30
0.0
 70
0
  0
VERTEX
  5
173
  8
14
 10
-2560.614366
 20
-554.739011
 30
0.0
 70
0
  0
VERTEX
  5
174
  8
14
 10
-2554.82966
 20
-556.053012
 30
0.0
 70
0
  0
VERTEX
  5
175
  8
14
 10
-2547.553461
 20
-557.419479
 30
0.0
 70
0
  0
VERTEX
  5
176
  8
14
 10
-2539.578828
 20
-558.655319
 30
0.0
 70
0
  0
VERTEX
  5
177
  8
14
 10
-2530.667477
 20
-559.776226
 30
0.0
 70
0
  0
VERTEX
  5
178
  8
14
 10
-2522.758484
 20
-560.549545
 30
0.0
 70
0
  0
VERTEX
  5
179
  8
14
 10
-2505.971939
 20
-561.685217
 30
0.0
 70
0
  0
VERTEX
  5
17A
  8
14
 10
-2490.341246
 20
-562.80251
 30
0.0
 70
0
  0
VERTEX
  5
17B
  8
14
 10
-2473.367084
 20
-564.075162
 30
0.0
 70
0
  0
VERTEX
  5
17C
  8
14
 10
-2456.688737
 20
-565.390191
 30
0.0
 70
0
  0
VERTEX
  5
17D
  8
14
 10
-2441.362567
 20
-566.66308
 30
0.0
 70
0
  0
VERTEX
  5
17E
  8
14
 10
-2424.355301
 20
-568.162029
 30
0.0
 70
0
  0
VERTEX
  5
17F
  8
14
 10
-2408.918627
 20
-569.604397
 30
0.0
 70
0
  0
VERTEX
  5
180
  8
14
 10
-2393.983502
 20
-571.063262
 30
0.0
 70
0
  0
VERTEX
  5
181
  8
14
 10
-2377.972376
 20
-572.687746
 30
0.0
 70
0
  0
VERTEX
  5
182
  8
14
 10
-2361.925072
 20
-574.373124
 30
0.0
 70
0
  0
VERTEX
  5
183
  8
14
 10
-2347.396885
 20
-575.946822
 30
0.0
 70
0
  0
VERTEX
  5
184
  8
14
 10
-2332.514038
 20
-577.613144
 30
0.0
 70
0
  0
VERTEX
  5
185
  8
14
 10
-2332.837233
 20
-593.695335
 30
0.0
 70
0
  0
VERTEX
  5
186
  8
14
 10
-2333.000522
 20
-609.566081
 30
0.0
 70
0
  0
VERTEX
  5
187
  8
14
 10
-2333.015528
 20
-625.56878
 30
0.0
 70
0
  0
VERTEX
  5
188
  8
14
 10
-2332.863735
 20
-641.337448
 30
0.0
 70
0
  0
VERTEX
  5
189
  8
14
 10
-2332.521356
 20
-656.725798
 30
0.0
 70
0
  0
VERTEX
  5
18A
  8
14
 10
-2331.955305
 20
-672.639392
 30
0.0
 70
0
  0
VERTEX
  5
18B
  8
14
 10
-2331.206437
 20
-688.727341
 30
0.0
 70
0
  0
VERTEX
  5
18C
  8
14
 10
-2330.341451
 20
-704.207424
 30
0.0
 70
0
  0
VERTEX
  5
18D
  8
14
 10
-2329.546051
 20
-716.286087
 30
0.0
 70
0
  0
VERTEX
  5
18E
  8
14
 10
-2335.033887
 20
-717.079025
 30
0.0
 70
0
  0
VERTEX
  5
18F
  8
14
 10
-2341.018284
 20
-718.287134
 30
0.0
 70
0
  0
VERTEX
  5
190
  8
14
 10
-2346.82899
 20
-719.775106
 30
0.0
 70
0
  0
VERTEX
  5
191
  8
14
 10
-2352.404108
 20
-721.520604
 30
0.0
 70
0
  0
VERTEX
  5
192
  8
14
 10
-2357.388013
 20
-723.385701
 30
0.0
 70
0
  0
VERTEX
  5
193
  8
14
 10
-2362.428309
 20
-725.624348
 30
0.0
 70
0
  0
VERTEX
  5
194
  8
14
 10
-2366.580683
 20
-727.797775
 30
0.0
 70
0
  0
VERTEX
  5
195
  8
14
 10
-2370.611725
 20
-730.270382
 30
0.0
 70
0
  0
VERTEX
  5
196
  8
14
 10
-2373.700179
 20
-732.476028
 30
0.0
 70
0
  0
VERTEX
  5
197
  8
14
 10
-2376.626938
 20
-734.893973
 30
0.0
 70
0
  0
VERTEX
  5
198
  8
14
 10
-2379.354663
 20
-737.533481
 30
0.0
 70
0
  0
VERTEX
  5
199
  8
14
 10
-2381.845988
 20
-740.403794
 30
0.0
 70
0
  0
VERTEX
  5
19A
  8
14
 10
-2383.971741
 20
-743.371023
 30
0.0
 70
0
  0
VERTEX
  5
19B
  8
14
 10
-2385.910441
 20
-746.709175
 30
0.0
 70
0
  0
VERTEX
  5
19C
  8
14
 10
-2387.57057
 20
-750.265567
 30
0.0
 70
0
  0
VERTEX
  5
19D
  8
14
 10
-2388.969351
 20
-754.017511
 30
0.0
 70
0
  0
VERTEX
  5
19E
  8
14
 10
-2390.124006
 20
-757.94232
 30
0.0
 70
0
  0
VERTEX
  5
19F
  8
14
 10
-2391.051757
 20
-762.017304
 30
0.0
 70
0
  0
VERTEX
  5
1A0
  8
14
 10
-2391.918598
 20
-767.287652
 30
0.0
 70
0
  0
VERTEX
  5
1A1
  8
14
 10
-2392.491449
 20
-772.712886
 30
0.0
 70
0
  0
VERTEX
  5
1A2
  8
14
 10
-2392.803946
 20
-778.248693
 30
0.0
 70
0
  0
VERTEX
  5
1A3
  8
14
 10
-2392.882636
 20
-784.975223
 30
0.0
 70
0
  0
VERTEX
  5
1A4
  8
14
 10
-2392.692978
 20
-791.720595
 30
0.0
 70
0
  0
VERTEX
  5
1A5
  8
14
 10
-2392.210092
 20
-799.511861
 30
0.0
 70
0
  0
VERTEX
  5
1A6
  8
14
 10
-2391.390672
 20
-808.462187
 30
0.0
 70
0
  0
VERTEX
  5
1A7
  8
14
 10
-2390.22373
 20
-818.344508
 30
0.0
 70
0
  0
VERTEX
  5
1A8
  8
14
 10
-2388.751323
 20
-828.631221
 30
0.0
 70
0
  0
VERTEX
  5
1A9
  8
14
 10
-2387.615967
 20
-835.456467
 30
0.0
 70
0
  0
VERTEX
  5
1AA
  8
14
 10
-2388.916638
 20
-835.619118
 30
0.0
 70
0
  0
VERTEX
  5
1AB
  8
14
 10
-2403.476034
 20
-837.320702
 30
0.0
 70
0
  0
VERTEX
  5
1AC
  8
14
 10
-2418.279729
 20
-838.889829
 30
0.0
 70
0
  0
VERTEX
  5
1AD
  8
14
 10
-2434.163694
 20
-840.392814
 30
0.0
 70
0
  0
VERTEX
  5
1AE
  8
14
 10
-2449.519044
 20
-841.637484
 30
0.0
 70
0
  0
VERTEX
  5
1AF
  8
14
 10
-2464.50475
 20
-842.608374
 30
0.0
 70
0
  0
VERTEX
  5
1B0
  8
14
 10
-2480.133321
 20
-843.367165
 30
0.0
 70
0
  0
VERTEX
  5
1B1
  8
14
 10
-2495.77513
 20
-843.903578
 30
0.0
 70
0
  0
VERTEX
  5
1B2
  8
14
 10
-2511.425789
 20
-844.253765
 30
0.0
 70
0
  0
VERTEX
  5
1B3
  8
14
 10
-2527.081062
 20
-844.453878
 30
0.0
 70
0
  0
VERTEX
  5
1B4
  8
14
 10
-2543.733742
 20
-844.542541
 30
0.0
 70
0
  0
VERTEX
  5
1B5
  8
14
 10
-2559.385695
 20
-844.530525
 30
0.0
 70
0
  0
VERTEX
  5
1B6
  8
14
 10
-2575.03357
 20
-844.390551
 30
0.0
 70
0
  0
VERTEX
  5
1B7
  8
14
 10
-2590.177535
 20
-844.088814
 30
0.0
 70
0
  0
VERTEX
  5
1B8
  8
14
 10
-2605.81764
 20
-843.588326
 30
0.0
 70
0
  0
VERTEX
  5
1B9
  8
14
 10
-2621.454194
 20
-842.943676
 30
0.0
 70
0
  0
VERTEX
  5
1BA
  8
14
 10
-2637.216919
 20
-842.20545
 30
0.0
 70
0
  0
VERTEX
  5
1BB
  8
14
 10
-2652.847731
 20
-841.431268
 30
0.0
 70
0
  0
VERTEX
  5
1BC
  8
14
 10
-2668.476431
 20
-840.627547
 30
0.0
 70
0
  0
VERTEX
  5
1BD
  8
14
 10
-2684.103437
 20
-839.800748
 30
0.0
 70
0
  0
VERTEX
  5
1BE
  8
14
 10
-2699.729319
 20
-838.95732
 30
0.0
 70
0
  0
VERTEX
  5
1BF
  8
14
 10
-2715.354494
 20
-838.103724
 30
0.0
 70
0
  0
VERTEX
  5
1C0
  8
14
 10
-2731.560121
 20
-837.214447
 30
0.0
 70
0
  0
VERTEX
  5
1C1
  8
14
 10
-2747.140072
 20
-836.359207
 30
0.0
 70
0
  0
VERTEX
  5
1C2
  8
14
 10
-2762.592346
 20
-835.510869
 30
0.0
 70
0
  0
VERTEX
  5
1C3
  8
14
 10
-2777.830703
 20
-834.674181
 30
0.0
 70
0
  0
VERTEX
  5
1C4
  8
14
 10
-2794.406433
 20
-833.763964
 30
0.0
 70
0
  0
VERTEX
  5
1C5
  8
14
 10
-2810.493309
 20
-832.880499
 30
0.0
 70
0
  0
VERTEX
  5
1C6
  8
14
 10
-2825.973037
 20
-832.030297
 30
0.0
 70
0
  0
VERTEX
  5
1C7
  8
14
 10
-2842.158294
 20
-831.141263
 30
0.0
 70
0
  0
VERTEX
  5
1C8
  8
14
 10
-2858.628819
 20
-830.236479
 30
0.0
 70
0
  0
VERTEX
  5
1C9
  8
14
 10
-2874.844499
 20
-829.345614
 30
0.0
 70
0
  0
VERTEX
  5
1CA
  8
14
 10
-2890.124124
 20
-828.5061
 30
0.0
 70
0
  0
VERTEX
  5
1CB
  8
14
 10
-2905.931206
 20
-827.637527
 30
0.0
 70
0
  0
SEQEND
  5
10D
  8
14
  0
POLYLINE
  5
1CC
  8
8
 66
1
 10
0.0
 20
0.0
 30
0.0
 70
0
  0
VERTEX
  5
1CE
  8
8
 10
-3369.555664
 20
-706.611252
 30
0.0
 70
0
  0
VERTEX
  5
1CF
  8
8
 10
-3351.573189
 20
-706.66167
 30
0.0
 70
0
  0
VERTEX
  5
1D0
  8
8
 10
-3334.42039
 20
-706.707716
 30
0.0
 70
0
  0
VERTEX
  5
1D1
  8
8
 10
-3317.106214
 20
-706.752688
 30
0.0
 70
0
  0
VERTEX
  5
1D2
  8
8
 10
-3296.874021
 20
-706.803531
 30
0.0
 70
0
  0
VERTEX
  5
1D3
  8
8
 10
-3279.937519
 20
-706.844761
 30
0.0
 70
0
  0
VERTEX
  5
1D4
  8
8
 10
-3261.609333
 20
-706.888059
 30
0.0
 70
0
  0
VERTEX
  5
1D5
  8
8
 10
-3241.996478
 20
-706.932896
 30
0.0
 70
0
  0
VERTEX
  5
1D6
  8
8
 10
-3221.205953
 20
-706.97874
 30
0.0
 70
0
  0
VERTEX
  5
1D7
  8
8
 10
-3199.344805
 20
-707.025065
 30
0.0
 70
0
  0
VERTEX
  5
1D8
  8
8
 10
-3176.520034
 20
-707.071339
 30
0.0
 70
0
  0
VERTEX
  5
1D9
  8
8
 10
-3160.821022
 20
-707.1019
 30
0.0
 70
0
  0
VERTEX
  5
1DA
  8
8
 10
-3144.773003
 20
-707.132046
 30
0.0
 70
0
  0
VERTEX
  5
1DB
  8
8
 10
-3128.407687
 20
-707.161621
 30
0.0
 70
0
  0
VERTEX
  5
1DC
  8
8
 10
-3111.756781
 20
-707.190468
 30
0.0
 70
0
  0
VERTEX
  5
1DD
  8
8
 10
-3094.851995
 20
-707.21843
 30
0.0
 70
0
  0
VERTEX
  5
1DE
  8
8
 10
-3077.725035
 20
-707.24535
 30
0.0
 70
0
  0
VERTEX
  5
1DF
  8
8
 10
-3060.407611
 20
-707.271072
 30
0.0
 70
0
  0
VERTEX
  5
1E0
  8
8
 10
-3042.931431
 20
-707.295439
 30
0.0
 70
0
  0
VERTEX
  5
1E1
  8
8
 10
-3025.328204
 20
-707.318294
 30
0.0
 70
0
  0
VERTEX
  5
1E2
  8
8
 10
-3007.629636
 20
-707.339479
 30
0.0
 70
0
  0
VERTEX
  5
1E3
  8
8
 10
-2989.867437
 20
-707.358839
 30
0.0
 70
0
  0
VERTEX
  5
1E4
  8
8
 10
-2972.073316
 20
-707.376215
 30
0.0
 70
0
  0
VERTEX
  5
1E5
  8
8
 10
-2954.160895
 20
-707.391591
 30
0.0
 70
0
  0
VERTEX
  5
1E6
  8
8
 10
-2936.406044
 20
-707.404822
 30
0.0
 70
0
  0
VERTEX
  5
1E7
  8
8
 10
-2918.72776
 20
-707.416122
 30
0.0
 70
0
  0
VERTEX
  5
1E8
  8
8
 10
-2901.16433
 20
-707.425598
 30
0.0
 70
0
  0
VERTEX
  5
1E9
  8
8
 10
-2883.754038
 20
-707.433355
 30
0.0
 70
0
  0
VERTEX
  5
1EA
  8
8
 10
-2866.53517
 20
-707.439497
 30
0.0
 70
0
  0
VERTEX
  5
1EB
  8
8
 10
-2849.546011
 20
-707.444131
 30
0.0
 70
0
  0
VERTEX
  5
1EC
  8
8
 10
-2832.824846
 20
-707.447361
 30
0.0
 70
0
  0
VERTEX
  5
1ED
  8
8
 10
-2816.40996
 20
-707.449293
 30
0.0
 70
0
  0
VERTEX
  5
1EE
  8
8
 10
-2800.339638
 20
-707.450032
 30
0.0
 70
0
  0
VERTEX
  5
1EF
  8
8
 10
-2784.652166
 20
-707.449683
 30
0.0
 70
0
  0
VERTEX
  5
1F0
  8
8
 10
-2769.385828
 20
-707.448352
 30
0.0
 70
0
  0
VERTEX
  5
1F1
  8
8
 10
-2754.57891
 20
-707.446144
 30
0.0
 70
0
  0
VERTEX
  5
1F2
  8
8
 10
-2733.313635
 20
-707.441418
 30
0.0
 70
0
  0
VERTEX
  5
1F3
  8
8
 10
-2713.297471
 20
-707.43531
 30
0.0
 70
0
  0
VERTEX
  5
1F4
  8
8
 10
-2694.659568
 20
-707.428177
 30
0.0
 70
0
  0
VERTEX
  5
1F5
  8
8
 10
-2677.529139
 20
-707.420374
 30
0.0
 70
0
  0
VERTEX
  5
1F6
  8
8
 10
-2662.035396
 20
-707.412256
 30
0.0
 70
0
  0
VERTEX
  5
1F7
  8
8
 10
-2644.146358
 20
-707.401557
 30
0.0
 70
0
  0
VERTEX
  5
1F8
  8
8
 10
-2629.702977
 20
-707.391772
 30
0.0
 70
0
  0
VERTEX
  5
1F9
  8
8
 10
-2615.168501
 20
-707.380652
 30
0.0
 70
0
  0
VERTEX
  5
1FA
  8
8
 10
-2610.109558
 20
-707.376328
 30
0.0
 70
0
  0
SEQEND
  5
1CD
  8
8
  0
POLYLINE
  5
1FB
  8
8
 66
1
 10
0.0
 20
0.0
 30
0.0
 70
0
  0
VERTEX
  5
1FD
  8
8
 10
-2523.27774
 20
-588.179626
 30
0.0
 70
0
  0
VERTEX
  5
1FE
  8
8
 10
-2542.919617
 20
-844.522476
 30
0.0
 70
0
  0
SEQEND
  5
1FC
  8
8
  0
POLYLINE
  5
1FF
  8
8
 66
1
 10
0.0
 20
0.0
 30
0.0
 70
0
  0
VERTEX
  5
201
  8
8
 10
-2922.343445
 20
-580.974388
 30
0.0
 70
0
  0
VERTEX
  5
202
  8
8
 10
-2922.343445
 20
-598.505137
 30
0.0
 70
0
  0
VERTEX
  5
203
  8
8
 10
-2922.343445
 20
-614.887982
 30
0.0
 70
0
  0
VERTEX
  5
204
  8
8
 10
-2922.343445
 20
-630.35612
 30
0.0
 70
0
  0
VERTEX
  5
205
  8
8
 10
-2922.343445
 20
-647.690896
 30
0.0
 70
0
  0
VERTEX
  5
206
  8
8
 10
-2922.343445
 20
-663.676086
 30
0.0
 70
0
  0
VERTEX
  5
207
  8
8
 10
-2922.343445
 20
-680.38669
 30
0.0
 70
0
  0
VERTEX
  5
208
  8
8
 10
-2922.343445
 20
-697.524549
 30
0.0
 70
0
  0
VERTEX
  5
209
  8
8
 10
-2922.343445
 20
-713.637112
 30
0.0
 70
0
  0
VERTEX
  5
20A
  8
8
 10
-2922.343445
 20
-730.749545
 30
0.0
 70
0
  0
VERTEX
  5
20B
  8
8
 10
-2922.343445
 20
-747.397694
 30
0.0
 70
0
  0
VERTEX
  5
20C
  8
8
 10
-2922.343445
 20
-763.272085
 30
0.0
 70
0
  0
VERTEX
  5
20D
  8
8
 10
-2922.343445
 20
-780.40131
 30
0.0
 70
0
  0
VERTEX
  5
20E
  8
8
 10
-2922.343445
 20
-795.564571
 30
0.0
 70
0
  0
VERTEX
  5
20F
  8
8
 10
-2922.343445
 20
-811.380455
 30
0.0
 70
0
  0
VERTEX
  5
210
  8
8
 10
-2922.343445
 20
-825.447646
 30
0.0
 70
0
  0
VERTEX
  5
211
  8
8
 10
-2922.343445
 20
-826.735458
 30
0.0
 70
0
  0
SEQEND
  5
200
  8
8
  0
POLYLINE
  5
212
  8
8
 66
1
 10
0.0
 20
0.0
 30
0.0
 70
0
  0
VERTEX
  5
214
  8
8
 10
-2604.581909
 20
-523.697205
 30
0.0
 70
0
  0
VERTEX
  5
215
  8
8
 10
-2587.206116
 20
-844.130859
 30
0.0
 70
0
  0
SEQEND
  5
213
  8
8
  0
POINT
  5
216
  8
4
 10
-2922.897339
 20
-839.423447
 30
0.0
  0
POINT
  5
217
  8
4
 10
-3380.18158
 20
-815.259552
 30
0.0
  0
POINT
  5
218
  8
4
 10
-3379.249573
 20
-590.551071
 30
0.0
  0
POINT
  5
219
  8
4
 10
-2922.962341
 20
-568.28949
 30
0.0
  0
POINT
  5
21A
  8
4
 10
-2922.345886
 20
-826.735458
 30
0.0
  0
POINT
  5
21B
  8
4
 10
-3380.128784
 20
-802.538528
 30
0.0
  0
POINT
  5
21C
  8
4
 10
-3379.302368
 20
-603.268776
 30
0.0
  0
POINT
  5
21D
  8
4
 10
-2922.343445
 20
-580.974388
 30
0.0
  0
LINE
  5
21E
  8
7
 10
-3341.298828
 20
-702.162857
 30
0.0
 11
-2446.712189
 21
-702.162857
 31
0.0
  0
ENDSEC
  0
EOF
