  0
SECTION
  2
HEADER
  9
$ACADVER
  1
AC1009
  9
$DWGCODEPAGE
  3
ANSI_1252
  9
$INSBASE
 10
0.0
 20
0.0
 30
0.0
  9
$EXTMIN
 10
1e+20
 20
1e+20
 30
1e+20
  9
$EXTMAX
 10
-1e+20
 20
-1e+20
 30
-1e+20
  9
$LIMMIN
 10
0.0
 20
0.0
  9
$LIMMAX
 10
420.0
 20
297.0
  9
$ORTHOMODE
 70
0
  9
$REGENMODE
 70
1
  9
$FILLMODE
 70
1
  9
$DRAGMODE
 70
2
  9
$QTEXTMODE
 70
0
  9
$MIRRTEXT
 70
1
  9
$OSMODE
 70
20583
  9
$LTSCALE
 40
1.0
  9
$ATTMODE
 70
1
  9
$TEXTSIZE
 40
2.5
  9
$TRACEWID
 40
1.0
  9
$TEXTSTYLE
  7
Standard
  9
$CLAYER
  8
0
  9
$CELTYPE
  6
ByLayer
  9
$CECOLOR
 62
256
  9
$DIMSCALE
 40
1.0
  9
$DIMASZ
 40
2.5
  9
$DIMEXO
 40
0.625
  9
$DIMDLI
 40
3.75
  9
$DIMRND
 40
0.0
  9
$DIMDLE
 40
0.0
  9
$DIMEXE
 40
1.25
  9
$DIMTP
 40
0.0
  9
$DIMTM
 40
0.0
  9
$DIMTXT
 40
2.5
  9
$DIMCEN
 40
2.5
  9
$DIMTSZ
 40
0.0
  9
$DIMTOL
 70
0
  9
$DIMLIM
 70
0
  9
$DIMTIH
 70
0
  9
$DIMTOH
 70
0
  9
$DIMSE1
 70
0
  9
$DIMSE2
 70
0
  9
$DIMTAD
 70
1
  9
$DIMZIN
 70
8
  9
$DIMBLK
  1

  9
$DIMASO
 70
1
  9
$DIMSHO
 70
1
  9
$DIMPOST
  1

  9
$DIMAPOST
  1

  9
$DIMALT
 70
0
  9
$DIMALTD
 70
3
  9
$DIMALTF
 40
0.03937007874
  9
$DIMLFAC
 40
1.0
  9
$DIMTOFL
 70
1
  9
$DIMTVP
 40
0.0
  9
$DIMTIX
 70
0
  9
$DIMSOXD
 70
0
  9
$DIMSAH
 70
0
  9
$DIMBLK1
  1

  9
$DIMBLK2
  1

  9
$DIMSTYLE
  2
ISO-25
  9
$DIMCLRD
 70
0
  9
$DIMCLRE
 70
0
  9
$DIMCLRT
 70
0
  9
$DIMTFAC
 40
1.0
  9
$DIMGAP
 40
0.625
  9
$COORDS
 70
1
  9
$ATTDIA
 70
0
  9
$ATTREQ
 70
1
  9
$HANDLING
 70
1
  9
$LUNITS
 70
2
  9
$LUPREC
 70
4
  9
$SKETCHINC
 40
1.0
  9
$FILLETRAD
 40
10.0
  9
$AUNITS
 70
0
  9
$AUPREC
 70
2
  9
$MENU
  1
.
  9
$ELEVATION
 40
0.0
  9
$PELEVATION
 40
0.0
  9
$THICKNESS
 40
0.0
  9
$LIMCHECK
 70
0
  9
$CHAMFERA
 40
0.0
  9
$CHAMFERB
 40
0.0
  9
$SKPOLY
 70
0
  9
$TDCREATE
 40
2461259.4353819443
  9
$TDUPDATE
 40
2461259.4353819443
  9
$TDINDWG
 40
0.0
  9
$TDUSRTIMER
 40
0.0
  9
$USRTIMER
 70
1
  9
$ANGBASE
 50
0.0
  9
$ANGDIR
 70
0
  9
$PDMODE
 70
0
  9
$PDSIZE
 40
0.0
  9
$PLINEWID
 40
0.0
  9
$SPLFRAME
 70
0
  9
$SPLINETYPE
 70
6
  9
$SPLINESEGS
 70
8
  9
$HANDSEED
  5
FB
  9
$SURFTAB1
 70
6
  9
$SURFTAB2
 70
6
  9
$SURFTYPE
 70
6
  9
$SURFU
 70
6
  9
$SURFV
 70
6
  9
$UCSNAME
  2

  9
$UCSORG
 10
0.0
 20
0.0
 30
0.0
  9
$UCSXDIR
 10
1.0
 20
0.0
 30
0.0
  9
$UCSYDIR
 10
0.0
 20
1.0
 30
0.0
  9
$PUCSNAME
  2

  9
$PUCSORG
 10
0.0
 20
0.0
 30
0.0
  9
$PUCSXDIR
 10
1.0
 20
0.0
 30
0.0
  9
$PUCSYDIR
 10
0.0
 20
1.0
 30
0.0
  9
$USERI1
 70
0
  9
$USERI2
 70
0
  9
$USERI3
 70
0
  9
$USERI4
 70
0
  9
$USERI5
 70
0
  9
$USERR1
 40
0.0
  9
$USERR2
 40
0.0
  9
$USERR3
 40
0.0
  9
$USERR4
 40
0.0
  9
$USERR5
 40
0.0
  9
$WORLDVIEW
 70
1
  9
$SHADEDGE
 70
3
  9
$SHADEDIF
 70
70
  9
$TILEMODE
 70
1
  9
$MAXACTVP
 70
64
  9
$PLIMCHECK
 70
0
  9
$PEXTMIN
 10
1e+20
 20
1e+20
 30
1e+20
  9
$PEXTMAX
 10
-1e+20
 20
-1e+20
 30
-1e+20
  9
$PLIMMIN
 10
0.0
 20
0.0
  9
$PLIMMAX
 10
420.0
 20
297.0
  9
$UNITMODE
 70
0
  9
$VISRETAIN
 70
1
  9
$PLINEGEN
 70
0
  9
$PSLTSCALE
 70
1
  0
ENDSEC
  0
SECTION
  2
TABLES
  0
TABLE
  2
VPORT
 70
1
  0
VPORT
  5
23
  2
*Active
 70
0
 10
0.0
 20
0.0
 11
1.0
 21
1.0
 12
0.0
 22
0.0
 13
0.0
 23
0.0
 14
0.5
 24
0.5
 15
0.5
 25
0.5
 16
0.0
 26
0.0
 36
1.0
 17
0.0
 27
0.0
 37
0.0
 40
1000.0
 41
1.34
 42
50.0
 43
0.0
 44
0.0
 50
0.0
 51
0.0
 71
0
 72
1000
 73
1
 74
3
 75
0
 76
0
 77
0
 78
0
  0
ENDTAB
  0
TABLE
  2
LTYPE
 70
3
  0
LTYPE
  5
24
  2
ByBlock
 70
0
  3

 72
65
 73
0
 40
0.0
  0
LTYPE
  5
25
  2
ByLayer
 70
0
  3

 72
65
 73
0
 40
0.0
  0
LTYPE
  5
26
  2
Continuous
 70
0
  3

 72
65
 73
0
 40
0.0
  0
ENDTAB
  0
TABLE
  2
LAYER
 70
4
  0
LAYER
  5
27
  2
0
 70
0
 62
7
  6
Continuous
  0
LAYER
  5
28
  2
Defpoints
 70
0
 62
7
  6
Continuous
  0
LAYER
  5
2D
  2
1
 70
0
 62
1
  6
Continuous
  0
LAYER
  5
2E
  2
7
 70
0
 62
7
  6
Continuous
  0
ENDTAB
  0
TABLE
  2
STYLE
 70
1
  0
STYLE
  5
29
  2
Standard
 70
0
 40
0.0
 41
1.0
 50
0.0
 71
0
 42
2.5
  3
txt
  4

  0
ENDTAB
  0
TABLE
  2
VIEW
 70
0
  0
ENDTAB
  0
TABLE
  2
UCS
 70
0
  0
ENDTAB
  0
TABLE
  2
APPID
 70
3
  0
APPID
  5
2A
  2
ACAD
 70
0
  0
APPID
  5
F9
  2
HATCHBACKGROUNDCOLOR
 70
0
  0
APPID
  5
FA
  2
EZDXF
 70
0
  0
ENDTAB
  0
TABLE
  2
DIMSTYLE
 70
1
  0
DIMSTYLE
105
2B
  2
Standard
 70
0
  3

  4

  5

  6

  7

 40
1.0
 41
2.5
 42
0.625
 43
3.75
 44
1.25
 45
0.0
 46
0.0
 47
0.0
 48
0.0
140
2.5
141
2.5
142
0.0
143
0.03937007874
144
1.0
145
0.0
146
1.0
147
0.625
 71
0
 72
0
 73
0
 74
0
 75
0
 76
0
 77
1
 78
8
170
0
171
3
172
1
173
0
174
0
175
0
176
0
177
0
178
0
  0
ENDTAB
  0
ENDSEC
  0
SECTION
  2
BLOCKS
  0
BLOCK
  5
18
  8
0
  2
$Model_Space
 70
0
 10
0.0
 20
0.0
 30
0.0
  3
$Model_Space
  1

1001
EZDXF
1000
CREATED_BY_EZDXF
1000
1.4.4 @ 2026-08-06T02:26:57.780153+00:00
1000
WRITTEN_BY_EZDXF
1000
1.4.4 @ 2026-08-06T02:26:57.782153+00:00
  0
ENDBLK
  5
19
  8
0
  0
BLOCK
  5
1C
  8
0
  2
$Paper_Space
 70
0
 10
0.0
 20
0.0
 30
0.0
  3
$Paper_Space
  1

  0
ENDBLK
  5
1D
  8
0
  0
ENDSEC
  0
SECTION
  2
ENTITIES
  0
POLYLINE
  5
2F
  8
1
 66
1
 10
0.0
 20
0.0
 30
0.0
 70
1
  0
VERTEX
  5
31
  8
1
 10
-2922.713318
 20
-814.030075
 30
0.0
 70
0
  0
VERTEX
  5
32
  8
1
 10
-2922.713318
 20
-814.030075
 30
0.0
 70
0
  0
VERTEX
  5
33
  8
1
 10
-2937.183405
 20
-813.609061
 30
0.0
 70
0
  0
VERTEX
  5
34
  8
1
 10
-2952.656
 20
-813.150653
 30
0.0
 70
0
  0
VERTEX
  5
35
  8
1
 10
-2967.591307
 20
-812.697447
 30
0.0
 70
0
  0
VERTEX
  5
36
  8
1
 10
-2982.646979
 20
-812.230777
 30
0.0
 70
0
  0
VERTEX
  5
37
  8
1
 10
-2997.816555
 20
-811.752576
 30
0.0
 70
0
  0
VERTEX
  5
38
  8
1
 10
-3012.871642
 20
-811.270123
 30
0.0
 70
0
  0
VERTEX
  5
39
  8
1
 10
-3028.251233
 20
-810.768639
 30
0.0
 70
0
  0
VERTEX
  5
3A
  8
1
 10
-3043.305699
 20
-810.269052
 30
0.0
 70
0
  0
VERTEX
  5
3B
  8
1
 10
-3058.319486
 20
-809.762097
 30
0.0
 70
0
  0
VERTEX
  5
3C
  8
1
 10
-3073.373437
 20
-809.244725
 30
0.0
 70
0
  0
VERTEX
  5
3D
  8
1
 10
-3088.427009
 20
-808.717789
 30
0.0
 70
0
  0
VERTEX
  5
3E
  8
1
 10
-3103.469516
 20
-808.181144
 30
0.0
 70
0
  0
VERTEX
  5
3F
  8
1
 10
-3118.522324
 20
-807.633437
 30
0.0
 70
0
  0
VERTEX
  5
40
  8
1
 10
-3133.567748
 20
-807.074622
 30
0.0
 70
0
  0
VERTEX
  5
41
  8
1
 10
-3148.61974
 20
-806.503158
 30
0.0
 70
0
  0
VERTEX
  5
42
  8
1
 10
-3164.080723
 20
-805.902309
 30
0.0
 70
0
  0
VERTEX
  5
43
  8
1
 10
-3179.131731
 20
-805.304305
 30
0.0
 70
0
  0
VERTEX
  5
44
  8
1
 10
-3194.21338
 20
-804.692985
 30
0.0
 70
0
  0
VERTEX
  5
45
  8
1
 10
-3209.263372
 20
-804.071767
 30
0.0
 70
0
  0
VERTEX
  5
46
  8
1
 10
-3224.470575
 20
-803.433624
 30
0.0
 70
0
  0
VERTEX
  5
47
  8
1
 10
-3239.519662
 20
-802.7924
 30
0.0
 70
0
  0
VERTEX
  5
48
  8
1
 10
-3254.981887
 20
-802.123885
 30
0.0
 70
0
  0
VERTEX
  5
49
  8
1
 10
-3270.030259
 20
-801.464278
 30
0.0
 70
0
  0
VERTEX
  5
4A
  8
1
 10
-3285.078278
 20
-800.796545
 30
0.0
 70
0
  0
VERTEX
  5
4B
  8
1
 10
-3300.12088
 20
-800.121467
 30
0.0
 70
0
  0
VERTEX
  5
4C
  8
1
 10
-3315.168098
 20
-799.437419
 30
0.0
 70
0
  0
VERTEX
  5
4D
  8
1
 10
-3330.316967
 20
-798.737948
 30
0.0
 70
0
  0
VERTEX
  5
4E
  8
1
 10
-3345.363288
 20
-798.033468
 30
0.0
 70
0
  0
VERTEX
  5
4F
  8
1
 10
-3359.873352
 20
-797.349243
 30
0.0
 70
0
  0
VERTEX
  5
50
  8
1
 10
-3360.409391
 20
-797.323945
 30
0.0
 70
0
  0
VERTEX
  5
51
  8
1
 10
-3375.927711
 20
-796.591154
 30
0.0
 70
0
  0
VERTEX
  5
52
  8
1
 10
-3391.615906
 20
-795.85022
 30
0.0
 70
0
  0
VERTEX
  5
53
  8
1
 10
-3391.536372
 20
-780.073339
 30
0.0
 70
0
  0
VERTEX
  5
54
  8
1
 10
-3391.458605
 20
-764.657427
 30
0.0
 70
0
  0
VERTEX
  5
55
  8
1
 10
-3391.381202
 20
-749.318798
 30
0.0
 70
0
  0
VERTEX
  5
56
  8
1
 10
-3391.303411
 20
-733.902875
 30
0.0
 70
0
  0
VERTEX
  5
57
  8
1
 10
-3391.225616
 20
-718.486959
 30
0.0
 70
0
  0
VERTEX
  5
58
  8
1
 10
-3391.147897
 20
-703.088741
 30
0.0
 70
0
  0
VERTEX
  5
59
  8
1
 10
-3391.070069
 20
-687.672837
 30
0.0
 70
0
  0
VERTEX
  5
5A
  8
1
 10
-3390.993863
 20
-672.583023
 30
0.0
 70
0
  0
VERTEX
  5
5B
  8
1
 10
-3390.915992
 20
-657.167103
 30
0.0
 70
0
  0
VERTEX
  5
5C
  8
1
 10
-3390.838346
 20
-641.79646
 30
0.0
 70
0
  0
VERTEX
  5
5D
  8
1
 10
-3390.760514
 20
-626.380548
 30
0.0
 70
0
  0
VERTEX
  5
5E
  8
1
 10
-3390.684885
 20
-611.380503
 30
0.0
 70
0
  0
VERTEX
  5
5F
  8
1
 10
-3390.676575
 20
-609.73114
 30
0.0
 70
0
  0
VERTEX
  5
60
  8
1
 10
-3375.111694
 20
-608.985978
 30
0.0
 70
0
  0
VERTEX
  5
61
  8
1
 10
-3360.007809
 20
-608.262886
 30
0.0
 70
0
  0
VERTEX
  5
62
  8
1
 10
-3358.918457
 20
-608.210754
 30
0.0
 70
0
  0
VERTEX
  5
63
  8
1
 10
-3344.916255
 20
-607.540384
 30
0.0
 70
0
  0
VERTEX
  5
64
  8
1
 10
-3329.691536
 20
-606.811507
 30
0.0
 70
0
  0
VERTEX
  5
65
  8
1
 10
-3314.597785
 20
-606.088902
 30
0.0
 70
0
  0
VERTEX
  5
66
  8
1
 10
-3299.373051
 20
-605.360028
 30
0.0
 70
0
  0
VERTEX
  5
67
  8
1
 10
-3284.20576
 20
-604.633906
 30
0.0
 70
0
  0
VERTEX
  5
68
  8
1
 10
-3268.98102
 20
-603.905032
 30
0.0
 70
0
  0
VERTEX
  5
69
  8
1
 10
-3253.711283
 20
-603.173997
 30
0.0
 70
0
  0
VERTEX
  5
6A
  8
1
 10
-3238.4866
 20
-602.445118
 30
0.0
 70
0
  0
VERTEX
  5
6B
  8
1
 10
-3223.246608
 20
-601.715506
 30
0.0
 70
0
  0
VERTEX
  5
6C
  8
1
 10
-3208.021896
 20
-600.986625
 30
0.0
 70
0
  0
VERTEX
  5
6D
  8
1
 10
-3192.954015
 20
-600.26525
 30
0.0
 70
0
  0
VERTEX
  5
6E
  8
1
 10
-3177.729229
 20
-599.536364
 30
0.0
 70
0
  0
VERTEX
  5
6F
  8
1
 10
-3162.261416
 20
-598.795851
 30
0.0
 70
0
  0
VERTEX
  5
70
  8
1
 10
-3147.147443
 20
-598.072279
 30
0.0
 70
0
  0
VERTEX
  5
71
  8
1
 10
-3131.922696
 20
-597.3434
 30
0.0
 70
0
  0
VERTEX
  5
72
  8
1
 10
-3116.751694
 20
-596.617089
 30
0.0
 70
0
  0
VERTEX
  5
73
  8
1
 10
-3101.527041
 20
-595.888207
 30
0.0
 70
0
  0
VERTEX
  5
74
  8
1
 10
-3086.459277
 20
-595.16684
 30
0.0
 70
0
  0
VERTEX
  5
75
  8
1
 10
-3071.23457
 20
-594.437966
 30
0.0
 70
0
  0
VERTEX
  5
76
  8
1
 10
-3056.120604
 20
-593.714397
 30
0.0
 70
0
  0
VERTEX
  5
77
  8
1
 10
-3040.895897
 20
-592.985524
 30
0.0
 70
0
  0
VERTEX
  5
78
  8
1
 10
-3025.95313
 20
-592.270147
 30
0.0
 70
0
  0
VERTEX
  5
79
  8
1
 10
-3010.203297
 20
-591.516129
 30
0.0
 70
0
  0
VERTEX
  5
7A
  8
1
 10
-2995.488206
 20
-590.811645
 30
0.0
 70
0
  0
VERTEX
  5
7B
  8
1
 10
-2979.738455
 20
-590.057624
 30
0.0
 70
0
  0
VERTEX
  5
7C
  8
1
 10
-2964.840323
 20
-589.344373
 30
0.0
 70
0
  0
VERTEX
  5
7D
  8
1
 10
-2949.422711
 20
-588.606254
 30
0.0
 70
0
  0
VERTEX
  5
7E
  8
1
 10
-2934.464954
 20
-587.890153
 30
0.0
 70
0
  0
VERTEX
  5
7F
  8
1
 10
-2922.950745
 20
-587.338943
 30
0.0
 70
0
  0
VERTEX
  5
80
  8
1
 10
-2923.09082
 20
-587.346001
 30
0.0
 70
0
  0
VERTEX
  5
81
  8
1
 10
-2907.659661
 20
-586.264799
 30
0.0
 70
0
  0
VERTEX
  5
82
  8
1
 10
-2892.434216
 20
-585.125136
 30
0.0
 70
0
  0
VERTEX
  5
83
  8
1
 10
-2877.132902
 20
-583.881996
 30
0.0
 70
0
  0
VERTEX
  5
84
  8
1
 10
-2861.754168
 20
-582.538127
 30
0.0
 70
0
  0
VERTEX
  5
85
  8
1
 10
-2846.365428
 20
-581.112204
 30
0.0
 70
0
  0
VERTEX
  5
86
  8
1
 10
-2831.159868
 20
-579.622001
 30
0.0
 70
0
  0
VERTEX
  5
87
  8
1
 10
-2815.804942
 20
-578.030099
 30
0.0
 70
0
  0
VERTEX
  5
88
  8
1
 10
-2800.464007
 20
-576.347866
 30
0.0
 70
0
  0
VERTEX
  5
89
  8
1
 10
-2785.129577
 20
-574.568839
 30
0.0
 70
0
  0
VERTEX
  5
8A
  8
1
 10
-2769.759933
 20
-572.676917
 30
0.0
 70
0
  0
VERTEX
  5
8B
  8
1
 10
-2754.45316
 20
-570.673383
 30
0.0
 70
0
  0
VERTEX
  5
8C
  8
1
 10
-2739.188477
 20
-568.548596
 30
0.0
 70
0
  0
VERTEX
  5
8D
  8
1
 10
-2723.916853
 20
-566.292915
 30
0.0
 70
0
  0
VERTEX
  5
8E
  8
1
 10
-2708.873752
 20
-563.952491
 30
0.0
 70
0
  0
VERTEX
  5
8F
  8
1
 10
-2693.636904
 20
-561.473113
 30
0.0
 70
0
  0
VERTEX
  5
90
  8
1
 10
-2678.695879
 20
-558.94721
 30
0.0
 70
0
  0
VERTEX
  5
91
  8
1
 10
-2663.489292
 20
-556.288307
 30
0.0
 70
0
  0
VERTEX
  5
92
  8
1
 10
-2648.279112
 20
-553.537206
 30
0.0
 70
0
  0
VERTEX
  5
93
  8
1
 10
-2633.104574
 20
-550.701358
 30
0.0
 70
0
  0
VERTEX
  5
94
  8
1
 10
-2618.141196
 20
-547.826985
 30
0.0
 70
0
  0
VERTEX
  5
95
  8
1
 10
-2603.432606
 20
-544.94561
 30
0.0
 70
0
  0
VERTEX
  5
96
  8
1
 10
-2601.107788
 20
-544.486313
 30
0.0
 70
0
  0
VERTEX
  5
97
  8
1
 10
-2596.450203
 20
-551.0741
 30
0.0
 70
0
  0
VERTEX
  5
98
  8
1
 10
-2592.595264
 20
-556.126021
 30
0.0
 70
0
  0
VERTEX
  5
99
  8
1
 10
-2589.566257
 20
-559.735727
 30
0.0
 70
0
  0
VERTEX
  5
9A
  8
1
 10
-2586.554331
 20
-562.936761
 30
0.0
 70
0
  0
VERTEX
  5
9B
  8
1
 10
-2583.561256
 20
-565.775812
 30
0.0
 70
0
  0
VERTEX
  5
9C
  8
1
 10
-2580.662732
 20
-568.204235
 30
0.0
 70
0
  0
VERTEX
  5
9D
  8
1
 10
-2577.850677
 20
-570.254742
 30
0.0
 70
0
  0
VERTEX
  5
9E
  8
1
 10
-2575.106939
 20
-571.956572
 30
0.0
 70
0
  0
VERTEX
  5
9F
  8
1
 10
-2572.100277
 20
-573.515062
 30
0.0
 70
0
  0
VERTEX
  5
A0
  8
1
 10
-2568.675045
 20
-574.996128
 30
0.0
 70
0
  0
VERTEX
  5
A1
  8
1
 10
-2564.854458
 20
-576.369328
 30
0.0
 70
0
  0
VERTEX
  5
A2
  8
1
 10
-2560.438012
 20
-577.682211
 30
0.0
 70
0
  0
VERTEX
  5
A3
  8
1
 10
-2555.24142
 20
-578.954993
 30
0.0
 70
0
  0
VERTEX
  5
A4
  8
1
 10
-2549.032
 20
-580.204569
 30
0.0
 70
0
  0
VERTEX
  5
A5
  8
1
 10
-2541.161943
 20
-581.512984
 30
0.0
 70
0
  0
VERTEX
  5
A6
  8
1
 10
-2533.174143
 20
-582.596674
 30
0.0
 70
0
  0
VERTEX
  5
A7
  8
1
 10
-2524.363922
 20
-583.524176
 30
0.0
 70
0
  0
VERTEX
  5
A8
  8
1
 10
-2522.243805
 20
-583.71685
 30
0.0
 70
0
  0
VERTEX
  5
A9
  8
1
 10
-2506.620139
 20
-585.323153
 30
0.0
 70
0
  0
VERTEX
  5
AA
  8
1
 10
-2491.607503
 20
-586.919069
 30
0.0
 70
0
  0
VERTEX
  5
AB
  8
1
 10
-2476.502342
 20
-588.596896
 30
0.0
 70
0
  0
VERTEX
  5
AC
  8
1
 10
-2461.311381
 20
-590.372668
 30
0.0
 70
0
  0
VERTEX
  5
AD
  8
1
 10
-2446.233936
 20
-592.230773
 30
0.0
 70
0
  0
VERTEX
  5
AE
  8
1
 10
-2431.066086
 20
-594.194164
 30
0.0
 70
0
  0
VERTEX
  5
AF
  8
1
 10
-2416.073888
 20
-596.220888
 30
0.0
 70
0
  0
VERTEX
  5
B0
  8
1
 10
-2400.927267
 20
-598.341683
 30
0.0
 70
0
  0
VERTEX
  5
B1
  8
1
 10
-2385.788378
 20
-600.517236
 30
0.0
 70
0
  0
VERTEX
  5
B2
  8
1
 10
-2370.413055
 20
-602.764511
 30
0.0
 70
0
  0
VERTEX
  5
B3
  8
1
 10
-2370.511522
 20
-619.153396
 30
0.0
 70
0
  0
VERTEX
  5
B4
  8
1
 10
-2370.341189
 20
-634.480707
 30
0.0
 70
0
  0
VERTEX
  5
B5
  8
1
 10
-2369.923161
 20
-648.992663
 30
0.0
 70
0
  0
VERTEX
  5
B6
  8
1
 10
-2369.287313
 20
-661.886725
 30
0.0
 70
0
  0
VERTEX
  5
B7
  8
1
 10
-2368.267553
 20
-676.878299
 30
0.0
 70
0
  0
VERTEX
  5
B8
  8
1
 10
-2367.367706
 20
-687.812805
 30
0.0
 70
0
  0
VERTEX
  5
B9
  8
1
 10
-2380.587621
 20
-689.737218
 30
0.0
 70
0
  0
VERTEX
  5
BA
  8
1
 10
-2385.848517
 20
-690.539752
 30
0.0
 70
0
  0
VERTEX
  5
BB
  8
1
 10
-2390.802655
 20
-691.585471
 30
0.0
 70
0
  0
VERTEX
  5
BC
  8
1
 10
-2395.860472
 20
-692.893896
 30
0.0
 70
0
  0
VERTEX
  5
BD
  8
1
 10
-2400.530525
 20
-694.347691
 30
0.0
 70
0
  0
VERTEX
  5
BE
  8
1
 10
-2404.984439
 20
-695.98584
 30
0.0
 70
0
  0
VERTEX
  5
BF
  8
1
 10
-2409.067927
 20
-697.744823
 30
0.0
 70
0
  0
VERTEX
  5
C0
  8
1
 10
-2412.742346
 20
-699.585593
 30
0.0
 70
0
  0
VERTEX
  5
C1
  8
1
 10
-2416.083472
 20
-701.525849
 30
0.0
 70
0
  0
VERTEX
  5
C2
  8
1
 10
-2419.07275
 20
-703.538792
 30
0.0
 70
0
  0
VERTEX
  5
C3
  8
1
 10
-2421.751547
 20
-705.636889
 30
0.0
 70
0
  0
VERTEX
  5
C4
  8
1
 10
-2424.051148
 20
-707.740273
 30
0.0
 70
0
  0
VERTEX
  5
C5
  8
1
 10
-2426.053294
 20
-709.890954
 30
0.0
 70
0
  0
VERTEX
  5
C6
  8
1
 10
-2427.825198
 20
-712.159027
 30
0.0
 70
0
  0
VERTEX
  5
C7
  8
1
 10
-2429.351671
 20
-714.527185
 30
0.0
 70
0
  0
VERTEX
  5
C8
  8
1
 10
-2430.713957
 20
-717.10518
 30
0.0
 70
0
  0
VERTEX
  5
C9
  8
1
 10
-2431.966327
 20
-720.013524
 30
0.0
 70
0
  0
VERTEX
  5
CA
  8
1
 10
-2433.086104
 20
-723.256837
 30
0.0
 70
0
  0
VERTEX
  5
CB
  8
1
 10
-2434.053303
 20
-726.82723
 30
0.0
 70
0
  0
VERTEX
  5
CC
  8
1
 10
-2434.872356
 20
-730.820154
 30
0.0
 70
0
  0
VERTEX
  5
CD
  8
1
 10
-2435.526103
 20
-735.294081
 30
0.0
 70
0
  0
VERTEX
  5
CE
  8
1
 10
-2435.981426
 20
-740.165054
 30
0.0
 70
0
  0
VERTEX
  5
CF
  8
1
 10
-2436.232202
 20
-745.635306
 30
0.0
 70
0
  0
VERTEX
  5
D0
  8
1
 10
-2436.252557
 20
-751.664648
 30
0.0
 70
0
  0
VERTEX
  5
D1
  8
1
 10
-2436.014044
 20
-758.611034
 30
0.0
 70
0
  0
VERTEX
  5
D2
  8
1
 10
-2435.494809
 20
-766.329221
 30
0.0
 70
0
  0
VERTEX
  5
D3
  8
1
 10
-2434.67941
 20
-774.668204
 30
0.0
 70
0
  0
VERTEX
  5
D4
  8
1
 10
-2433.491335
 20
-784.148518
 30
0.0
 70
0
  0
VERTEX
  5
D5
  8
1
 10
-2431.686487
 20
-796.301475
 30
0.0
 70
0
  0
VERTEX
  5
D6
  8
1
 10
-2429.285434
 20
-811.107278
 30
0.0
 70
0
  0
VERTEX
  5
D7
  8
1
 10
-2429.026184
 20
-812.668457
 30
0.0
 70
0
  0
VERTEX
  5
D8
  8
1
 10
-2440.065904
 20
-814.270672
 30
0.0
 70
0
  0
VERTEX
  5
D9
  8
1
 10
-2454.982624
 20
-816.291787
 30
0.0
 70
0
  0
VERTEX
  5
DA
  8
1
 10
-2469.616498
 20
-818.060979
 30
0.0
 70
0
  0
VERTEX
  5
DB
  8
1
 10
-2483.760958
 20
-819.52014
 30
0.0
 70
0
  0
VERTEX
  5
DC
  8
1
 10
-2497.384474
 20
-820.671758
 30
0.0
 70
0
  0
VERTEX
  5
DD
  8
1
 10
-2510.400028
 20
-821.523606
 30
0.0
 70
0
  0
VERTEX
  5
DE
  8
1
 10
-2524.603239
 20
-822.189689
 30
0.0
 70
0
  0
VERTEX
  5
DF
  8
1
 10
-2539.909968
 20
-822.63966
 30
0.0
 70
0
  0
VERTEX
  5
E0
  8
1
 10
-2555.377925
 20
-822.856478
 30
0.0
 70
0
  0
VERTEX
  5
E1
  8
1
 10
-2570.689009
 20
-822.882291
 30
0.0
 70
0
  0
VERTEX
  5
E2
  8
1
 10
-2585.968685
 20
-822.769347
 30
0.0
 70
0
  0
VERTEX
  5
E3
  8
1
 10
-2601.27853
 20
-822.574137
 30
0.0
 70
0
  0
VERTEX
  5
E4
  8
1
 10
-2616.531426
 20
-822.362614
 30
0.0
 70
0
  0
VERTEX
  5
E5
  8
1
 10
-2631.841219
 20
-822.16071
 30
0.0
 70
0
  0
VERTEX
  5
E6
  8
1
 10
-2647.215527
 20
-821.949748
 30
0.0
 70
0
  0
VERTEX
  5
E7
  8
1
 10
-2662.524649
 20
-821.704812
 30
0.0
 70
0
  0
VERTEX
  5
E8
  8
1
 10
-2677.811305
 20
-821.392601
 30
0.0
 70
0
  0
VERTEX
  5
E9
  8
1
 10
-2693.117422
 20
-821.003058
 30
0.0
 70
0
  0
VERTEX
  5
EA
  8
1
 10
-2708.34121
 20
-820.561843
 30
0.0
 70
0
  0
VERTEX
  5
EB
  8
1
 10
-2723.644893
 20
-820.086388
 30
0.0
 70
0
  0
VERTEX
  5
EC
  8
1
 10
-2738.891378
 20
-819.59872
 30
0.0
 70
0
  0
VERTEX
  5
ED
  8
1
 10
-2754.19463
 20
-819.108146
 30
0.0
 70
0
  0
VERTEX
  5
EE
  8
1
 10
-2769.266799
 20
-818.62921
 30
0.0
 70
0
  0
VERTEX
  5
EF
  8
1
 10
-2784.570406
 20
-818.149898
 30
0.0
 70
0
  0
VERTEX
  5
F0
  8
1
 10
-2799.915703
 20
-817.674965
 30
0.0
 70
0
  0
VERTEX
  5
F1
  8
1
 10
-2815.219586
 20
-817.205748
 30
0.0
 70
0
  0
VERTEX
  5
F2
  8
1
 10
-2830.746485
 20
-816.734193
 30
0.0
 70
0
  0
VERTEX
  5
F3
  8
1
 10
-2846.050561
 20
-816.273799
 30
0.0
 70
0
  0
VERTEX
  5
F4
  8
1
 10
-2861.440998
 20
-815.814807
 30
0.0
 70
0
  0
VERTEX
  5
F5
  8
1
 10
-2876.74537
 20
-815.362247
 30
0.0
 70
0
  0
VERTEX
  5
F6
  8
1
 10
-2891.852449
 20
-814.920038
 30
0.0
 70
0
  0
VERTEX
  5
F7
  8
1
 10
-2907.056925
 20
-814.479755
 30
0.0
 70
0
  0
SEQEND
  5
30
  8
1
  0
LINE
  5
F8
  8
7
 10
-3341.298828
 20
-702.162857
 30
0.0
 11
-2446.712189
 21
-702.162857
 31
0.0
  0
ENDSEC
  0
EOF
