  0
SECTION
  2
HEADER
  9
$ACADVER
  1
AC1009
  9
$DWGCODEPAGE
  3
ANSI_1252
  9
$INSBASE
 10
0.0
 20
0.0
 30
0.0
  9
$EXTMIN
 10
1e+20
 20
1e+20
 30
1e+20
  9
$EXTMAX
 10
-1e+20
 20
-1e+20
 30
-1e+20
  9
$LIMMIN
 10
0.0
 20
0.0
  9
$LIMMAX
 10
420.0
 20
297.0
  9
$ORTHOMODE
 70
0
  9
$REGENMODE
 70
1
  9
$FILLMODE
 70
1
  9
$DRAGMODE
 70
2
  9
$QTEXTMODE
 70
0
  9
$MIRRTEXT
 70
1
  9
$OSMODE
 70
20583
  9
$LTSCALE
 40
1.0
  9
$ATTMODE
 70
1
  9
$TEXTSIZE
 40
2.5
  9
$TRACEWID
 40
1.0
  9
$TEXTSTYLE
  7
Standard
  9
$CLAYER
  8
0
  9
$CELTYPE
  6
ByLayer
  9
$CECOLOR
 62
256
  9
$DIMSCALE
 40
1.0
  9
$DIMASZ
 40
2.5
  9
$DIMEXO
 40
0.625
  9
$DIMDLI
 40
3.75
  9
$DIMRND
 40
0.0
  9
$DIMDLE
 40
0.0
  9
$DIMEXE
 40
1.25
  9
$DIMTP
 40
0.0
  9
$DIMTM
 40
0.0
  9
$DIMTXT
 40
2.5
  9
$DIMCEN
 40
2.5
  9
$DIMTSZ
 40
0.0
  9
$DIMTOL
 70
0
  9
$DIMLIM
 70
0
  9
$DIMTIH
 70
0
  9
$DIMTOH
 70
0
  9
$DIMSE1
 70
0
  9
$DIMSE2
 70
0
  9
$DIMTAD
 70
1
  9
$DIMZIN
 70
8
  9
$DIMBLK
  1

  9
$DIMASO
 70
1
  9
$DIMSHO
 70
1
  9
$DIMPOST
  1

  9
$DIMAPOST
  1

  9
$DIMALT
 70
0
  9
$DIMALTD
 70
3
  9
$DIMALTF
 40
0.03937007874
  9
$DIMLFAC
 40
1.0
  9
$DIMTOFL
 70
1
  9
$DIMTVP
 40
0.0
  9
$DIMTIX
 70
0
  9
$DIMSOXD
 70
0
  9
$DIMSAH
 70
0
  9
$DIMBLK1
  1

  9
$DIMBLK2
  1

  9
$DIMSTYLE
  2
ISO-25
  9
$DIMCLRD
 70
0
  9
$DIMCLRE
 70
0
  9
$DIMCLRT
 70
0
  9
$DIMTFAC
 40
1.0
  9
$DIMGAP
 40
0.625
  9
$COORDS
 70
1
  9
$ATTDIA
 70
0
  9
$ATTREQ
 70
1
  9
$HANDLING
 70
1
  9
$LUNITS
 70
2
  9
$LUPREC
 70
4
  9
$SKETCHINC
 40
1.0
  9
$FILLETRAD
 40
10.0
  9
$AUNITS
 70
0
  9
$AUPREC
 70
2
  9
$MENU
  1
.
  9
$ELEVATION
 40
0.0
  9
$PELEVATION
 40
0.0
  9
$THICKNESS
 40
0.0
  9
$LIMCHECK
 70
0
  9
$CHAMFERA
 40
0.0
  9
$CHAMFERB
 40
0.0
  9
$SKPOLY
 70
0
  9
$TDCREATE
 40
2461264.9423032408
  9
$TDUPDATE
 40
2461264.9423032408
  9
$TDINDWG
 40
0.0
  9
$TDUSRTIMER
 40
0.0
  9
$USRTIMER
 70
1
  9
$ANGBASE
 50
0.0
  9
$ANGDIR
 70
0
  9
$PDMODE
 70
0
  9
$PDSIZE
 40
0.0
  9
$PLINEWID
 40
0.0
  9
$SPLFRAME
 70
0
  9
$SPLINETYPE
 70
6
  9
$SPLINESEGS
 70
8
  9
$HANDSEED
  5
F6
  9
$SURFTAB1
 70
6
  9
$SURFTAB2
 70
6
  9
$SURFTYPE
 70
6
  9
$SURFU
 70
6
  9
$SURFV
 70
6
  9
$UCSNAME
  2

  9
$UCSORG
 10
0.0
 20
0.0
 30
0.0
  9
$UCSXDIR
 10
1.0
 20
0.0
 30
0.0
  9
$UCSYDIR
 10
0.0
 20
1.0
 30
0.0
  9
$PUCSNAME
  2

  9
$PUCSORG
 10
0.0
 20
0.0
 30
0.0
  9
$PUCSXDIR
 10
1.0
 20
0.0
 30
0.0
  9
$PUCSYDIR
 10
0.0
 20
1.0
 30
0.0
  9
$USERI1
 70
0
  9
$USERI2
 70
0
  9
$USERI3
 70
0
  9
$USERI4
 70
0
  9
$USERI5
 70
0
  9
$USERR1
 40
0.0
  9
$USERR2
 40
0.0
  9
$USERR3
 40
0.0
  9
$USERR4
 40
0.0
  9
$USERR5
 40
0.0
  9
$WORLDVIEW
 70
1
  9
$SHADEDGE
 70
3
  9
$SHADEDIF
 70
70
  9
$TILEMODE
 70
1
  9
$MAXACTVP
 70
64
  9
$PLIMCHECK
 70
0
  9
$PEXTMIN
 10
1e+20
 20
1e+20
 30
1e+20
  9
$PEXTMAX
 10
-1e+20
 20
-1e+20
 30
-1e+20
  9
$PLIMMIN
 10
0.0
 20
0.0
  9
$PLIMMAX
 10
420.0
 20
297.0
  9
$UNITMODE
 70
0
  9
$VISRETAIN
 70
1
  9
$PLINEGEN
 70
0
  9
$PSLTSCALE
 70
1
  0
ENDSEC
  0
SECTION
  2
TABLES
  0
TABLE
  2
VPORT
 70
1
  0
VPORT
  5
23
  2
*Active
 70
0
 10
0.0
 20
0.0
 11
1.0
 21
1.0
 12
0.0
 22
0.0
 13
0.0
 23
0.0
 14
0.5
 24
0.5
 15
0.5
 25
0.5
 16
0.0
 26
0.0
 36
1.0
 17
0.0
 27
0.0
 37
0.0
 40
1000.0
 41
1.34
 42
50.0
 43
0.0
 44
0.0
 50
0.0
 51
0.0
 71
0
 72
1000
 73
1
 74
3
 75
0
 76
0
 77
0
 78
0
  0
ENDTAB
  0
TABLE
  2
LTYPE
 70
3
  0
LTYPE
  5
24
  2
ByBlock
 70
0
  3

 72
65
 73
0
 40
0.0
  0
LTYPE
  5
25
  2
ByLayer
 70
0
  3

 72
65
 73
0
 40
0.0
  0
LTYPE
  5
26
  2
Continuous
 70
0
  3

 72
65
 73
0
 40
0.0
  0
ENDTAB
  0
TABLE
  2
LAYER
 70
7
  0
LAYER
  5
27
  2
0
 70
0
 62
7
  6
Continuous
  0
LAYER
  5
28
  2
Defpoints
 70
0
 62
7
  6
Continuous
  0
LAYER
  5
2D
  2
1
 70
0
 62
1
  6
Continuous
  0
LAYER
  5
2E
  2
7
 70
0
 62
7
  6
Continuous
  0
LAYER
  5
2F
  2
14
 70
0
 62
3
  6
Continuous
  0
LAYER
  5
30
  2
8
 70
0
 62
6
  6
Continuous
  0
LAYER
  5
31
  2
4
 70
0
 62
2
  6
Continuous
  0
ENDTAB
  0
TABLE
  2
STYLE
 70
1
  0
STYLE
  5
29
  2
Standard
 70
0
 40
0.0
 41
1.0
 50
0.0
 71
0
 42
2.5
  3
txt
  4

  0
ENDTAB
  0
TABLE
  2
VIEW
 70
0
  0
ENDTAB
  0
TABLE
  2
UCS
 70
0
  0
ENDTAB
  0
TABLE
  2
APPID
 70
3
  0
APPID
  5
2A
  2
ACAD
 70
0
  0
APPID
  5
F4
  2
HATCHBACKGROUNDCOLOR
 70
0
  0
APPID
  5
F5
  2
EZDXF
 70
0
  0
ENDTAB
  0
TABLE
  2
DIMSTYLE
 70
1
  0
DIMSTYLE
105
2B
  2
Standard
 70
0
  3

  4

  5

  6

  7

 40
1.0
 41
2.5
 42
0.625
 43
3.75
 44
1.25
 45
0.0
 46
0.0
 47
0.0
 48
0.0
140
2.5
141
2.5
142
0.0
143
0.03937007874
144
1.0
145
0.0
146
1.0
147
0.625
 71
0
 72
0
 73
0
 74
0
 75
0
 76
0
 77
1
 78
8
170
0
171
3
172
1
173
0
174
0
175
0
176
0
177
0
178
0
  0
ENDTAB
  0
ENDSEC
  0
SECTION
  2
BLOCKS
  0
BLOCK
  5
18
  8
0
  2
$Model_Space
 70
0
 10
0.0
 20
0.0
 30
0.0
  3
$Model_Space
  1

1001
EZDXF
1000
CREATED_BY_EZDXF
1000
1.4.4 @ 2026-08-11T14:36:55.602940+00:00
1000
WRITTEN_BY_EZDXF
1000
1.4.4 @ 2026-08-11T14:36:55.604940+00:00
  0
ENDBLK
  5
19
  8
0
  0
BLOCK
  5
1C
  8
0
  2
$Paper_Space
 70
0
 10
0.0
 20
0.0
 30
0.0
  3
$Paper_Space
  1

  0
ENDBLK
  5
1D
  8
0
  0
ENDSEC
  0
SECTION
  2
ENTITIES
  0
POLYLINE
  5
32
  8
1
 66
1
 10
0.0
 20
0.0
 30
0.0
 70
1
  0
VERTEX
  5
34
  8
1
 10
-2272.782288
 20
-869.294052
 30
0.0
 70
0
  0
VERTEX
  5
35
  8
1
 10
-2274.311068
 20
-857.424748
 30
0.0
 70
0
  0
VERTEX
  5
36
  8
1
 10
-2276.200432
 20
-842.505131
 30
0.0
 70
0
  0
VERTEX
  5
37
  8
1
 10
-2277.943962
 20
-827.516235
 30
0.0
 70
0
  0
VERTEX
  5
38
  8
1
 10
-2279.171915
 20
-815.060505
 30
0.0
 70
0
  0
VERTEX
  5
39
  8
1
 10
-2280.062208
 20
-803.64524
 30
0.0
 70
0
  0
VERTEX
  5
3A
  8
1
 10
-2280.651853
 20
-793.079517
 30
0.0
 70
0
  0
VERTEX
  5
3B
  8
1
 10
-2280.971732
 20
-783.176078
 30
0.0
 70
0
  0
VERTEX
  5
3C
  8
1
 10
-2281.011169
 20
-775.369972
 30
0.0
 70
0
  0
VERTEX
  5
3D
  8
1
 10
-2280.817216
 20
-768.642949
 30
0.0
 70
0
  0
VERTEX
  5
3E
  8
1
 10
-2280.407098
 20
-762.584476
 30
0.0
 70
0
  0
VERTEX
  5
3F
  8
1
 10
-2279.792887
 20
-757.017561
 30
0.0
 70
0
  0
VERTEX
  5
40
  8
1
 10
-2278.987283
 20
-751.874529
 30
0.0
 70
0
  0
VERTEX
  5
41
  8
1
 10
-2277.99434
 20
-747.095789
 30
0.0
 70
0
  0
VERTEX
  5
42
  8
1
 10
-2276.84563
 20
-742.734813
 30
0.0
 70
0
  0
VERTEX
  5
43
  8
1
 10
-2275.518929
 20
-738.638933
 30
0.0
 70
0
  0
VERTEX
  5
44
  8
1
 10
-2274.032142
 20
-734.830294
 30
0.0
 70
0
  0
VERTEX
  5
45
  8
1
 10
-2272.398088
 20
-731.301002
 30
0.0
 70
0
  0
VERTEX
  5
46
  8
1
 10
-2270.539416
 20
-727.886061
 30
0.0
 70
0
  0
VERTEX
  5
47
  8
1
 10
-2268.587683
 20
-724.810089
 30
0.0
 70
0
  0
VERTEX
  5
48
  8
1
 10
-2266.367952
 20
-721.789922
 30
0.0
 70
0
  0
VERTEX
  5
49
  8
1
 10
-2263.940647
 20
-718.91264
 30
0.0
 70
0
  0
VERTEX
  5
4A
  8
1
 10
-2261.180582
 20
-716.037859
 30
0.0
 70
0
  0
VERTEX
  5
4B
  8
1
 10
-2258.076754
 20
-713.186292
 30
0.0
 70
0
  0
VERTEX
  5
4C
  8
1
 10
-2254.714028
 20
-710.44842
 30
0.0
 70
0
  0
VERTEX
  5
4D
  8
1
 10
-2250.971153
 20
-707.739191
 30
0.0
 70
0
  0
VERTEX
  5
4E
  8
1
 10
-2246.893914
 20
-705.112499
 30
0.0
 70
0
  0
VERTEX
  5
4F
  8
1
 10
-2242.494952
 20
-702.58713
 30
0.0
 70
0
  0
VERTEX
  5
50
  8
1
 10
-2237.692072
 20
-700.131494
 30
0.0
 70
0
  0
VERTEX
  5
51
  8
1
 10
-2232.596325
 20
-697.814424
 30
0.0
 70
0
  0
VERTEX
  5
52
  8
1
 10
-2227.147872
 20
-695.615686
 30
0.0
 70
0
  0
VERTEX
  5
53
  8
1
 10
-2221.331318
 20
-693.542486
 30
0.0
 70
0
  0
VERTEX
  5
54
  8
1
 10
-2215.103126
 20
-691.596661
 30
0.0
 70
0
  0
VERTEX
  5
55
  8
1
 10
-2208.573175
 20
-689.825636
 30
0.0
 70
0
  0
VERTEX
  5
56
  8
1
 10
-2201.813733
 20
-688.254216
 30
0.0
 70
0
  0
VERTEX
  5
57
  8
1
 10
-2194.734789
 20
-686.865743
 30
0.0
 70
0
  0
VERTEX
  5
58
  8
1
 10
-2187.028786
 20
-685.616514
 30
0.0
 70
0
  0
VERTEX
  5
59
  8
1
 10
-2179.233509
 20
-684.598482
 30
0.0
 70
0
  0
VERTEX
  5
5A
  8
1
 10
-2172.154565
 20
-683.907472
 30
0.0
 70
0
  0
VERTEX
  5
5B
  8
1
 10
-2165.32965
 20
-683.485696
 30
0.0
 70
0
  0
VERTEX
  5
5C
  8
1
 10
-2155.273137
 20
-683.196424
 30
0.0
 70
0
  0
VERTEX
  5
5D
  8
1
 10
-2140.026855
 20
-682.880707
 30
0.0
 70
0
  0
VERTEX
  5
5E
  8
1
 10
-2138.932209
 20
-698.457088
 30
0.0
 70
0
  0
VERTEX
  5
5F
  8
1
 10
-2137.746124
 20
-712.13028
 30
0.0
 70
0
  0
VERTEX
  5
60
  8
1
 10
-2137.760773
 20
-711.972275
 30
0.0
 70
0
  0
VERTEX
  5
61
  8
1
 10
-2136.075072
 20
-726.996865
 30
0.0
 70
0
  0
VERTEX
  5
62
  8
1
 10
-2134.278302
 20
-740.755611
 30
0.0
 70
0
  0
VERTEX
  5
63
  8
1
 10
-2132.490199
 20
-752.686084
 30
0.0
 70
0
  0
VERTEX
  5
64
  8
1
 10
-2130.188102
 20
-766.086409
 30
0.0
 70
0
  0
VERTEX
  5
65
  8
1
 10
-2127.448564
 20
-781.10399
 30
0.0
 70
0
  0
VERTEX
  5
66
  8
1
 10
-2125.01541
 20
-793.615585
 30
0.0
 70
0
  0
VERTEX
  5
67
  8
1
 10
-2122.749587
 20
-803.946919
 30
0.0
 70
0
  0
VERTEX
  5
68
  8
1
 10
-2120.459843
 20
-813.222908
 30
0.0
 70
0
  0
VERTEX
  5
69
  8
1
 10
-2117.6424
 20
-823.492327
 30
0.0
 70
0
  0
VERTEX
  5
6A
  8
1
 10
-2114.311932
 20
-834.692719
 30
0.0
 70
0
  0
VERTEX
  5
6B
  8
1
 10
-2113.600006
 20
-836.972733
 30
0.0
 70
0
  0
VERTEX
  5
6C
  8
1
 10
-2118.126318
 20
-838.494571
 30
0.0
 70
0
  0
VERTEX
  5
6D
  8
1
 10
-2132.368053
 20
-843.330732
 30
0.0
 70
0
  0
VERTEX
  5
6E
  8
1
 10
-2143.143284
 20
-846.778336
 30
0.0
 70
0
  0
VERTEX
  5
6F
  8
1
 10
-2154.46285
 20
-850.135135
 30
0.0
 70
0
  0
VERTEX
  5
70
  8
1
 10
-2166.397687
 20
-853.40169
 30
0.0
 70
0
  0
VERTEX
  5
71
  8
1
 10
-2177.849228
 20
-856.279162
 30
0.0
 70
0
  0
VERTEX
  5
72
  8
1
 10
-2188.401084
 20
-858.682178
 30
0.0
 70
0
  0
VERTEX
  5
73
  8
1
 10
-2198.403393
 20
-860.714713
 30
0.0
 70
0
  0
VERTEX
  5
74
  8
1
 10
-2208.574323
 20
-862.523913
 30
0.0
 70
0
  0
VERTEX
  5
75
  8
1
 10
-2210.990906
 20
-862.917175
 30
0.0
 70
0
  0
VERTEX
  5
76
  8
1
 10
-2219.273145
 20
-864.164443
 30
0.0
 70
0
  0
VERTEX
  5
77
  8
1
 10
-2230.494786
 20
-865.620459
 30
0.0
 70
0
  0
VERTEX
  5
78
  8
1
 10
-2242.860401
 20
-866.945879
 30
0.0
 70
0
  0
VERTEX
  5
79
  8
1
 10
-2257.088343
 20
-868.195374
 30
0.0
 70
0
  0
SEQEND
  5
33
  8
1
  0
POLYLINE
  5
7A
  8
14
 66
1
 10
0.0
 20
0.0
 30
0.0
 70
1
  0
VERTEX
  5
7C
  8
14
 10
-2272.792511
 20
-856.688004
 30
0.0
 70
0
  0
VERTEX
  5
7D
  8
14
 10
-2273.778521
 20
-849.609232
 30
0.0
 70
0
  0
VERTEX
  5
7E
  8
14
 10
-2275.426985
 20
-836.184361
 30
0.0
 70
0
  0
VERTEX
  5
7F
  8
14
 10
-2276.855877
 20
-822.533441
 30
0.0
 70
0
  0
VERTEX
  5
80
  8
14
 10
-2277.990351
 20
-809.382329
 30
0.0
 70
0
  0
VERTEX
  5
81
  8
14
 10
-2278.838005
 20
-796.609575
 30
0.0
 70
0
  0
VERTEX
  5
82
  8
14
 10
-2279.297309
 20
-786.268676
 30
0.0
 70
0
  0
VERTEX
  5
83
  8
14
 10
-2279.431074
 20
-778.323152
 30
0.0
 70
0
  0
VERTEX
  5
84
  8
14
 10
-2279.290909
 20
-770.402593
 30
0.0
 70
0
  0
VERTEX
  5
85
  8
14
 10
-2278.90823
 20
-763.871267
 30
0.0
 70
0
  0
VERTEX
  5
86
  8
14
 10
-2278.235403
 20
-757.445677
 30
0.0
 70
0
  0
VERTEX
  5
87
  8
14
 10
-2277.457713
 20
-752.408307
 30
0.0
 70
0
  0
VERTEX
  5
88
  8
14
 10
-2276.442006
 20
-747.484874
 30
0.0
 70
0
  0
VERTEX
  5
89
  8
14
 10
-2275.165028
 20
-742.695949
 30
0.0
 70
0
  0
VERTEX
  5
8A
  8
14
 10
-2273.603525
 20
-738.0621
 30
0.0
 70
0
  0
VERTEX
  5
8B
  8
14
 10
-2271.73425
 20
-733.603911
 30
0.0
 70
0
  0
VERTEX
  5
8C
  8
14
 10
-2269.533937
 20
-729.341918
 30
0.0
 70
0
  0
VERTEX
  5
8D
  8
14
 10
-2266.979337
 20
-725.296707
 30
0.0
 70
0
  0
VERTEX
  5
8E
  8
14
 10
-2264.155344
 20
-721.602702
 30
0.0
 70
0
  0
VERTEX
  5
8F
  8
14
 10
-2260.897364
 20
-718.014736
 30
0.0
 70
0
  0
VERTEX
  5
90
  8
14
 10
-2257.3247
 20
-714.652777
 30
0.0
 70
0
  0
VERTEX
  5
91
  8
14
 10
-2253.469302
 20
-711.511074
 30
0.0
 70
0
  0
VERTEX
  5
92
  8
14
 10
-2249.363119
 20
-708.583872
 30
0.0
 70
0
  0
VERTEX
  5
93
  8
14
 10
-2245.038078
 20
-705.865399
 30
0.0
 70
0
  0
VERTEX
  5
94
  8
14
 10
-2240.526138
 20
-703.349908
 30
0.0
 70
0
  0
VERTEX
  5
95
  8
14
 10
-2234.67203
 20
-700.482201
 30
0.0
 70
0
  0
VERTEX
  5
96
  8
14
 10
-2228.638174
 20
-697.911394
 30
0.0
 70
0
  0
VERTEX
  5
97
  8
14
 10
-2222.48696
 20
-695.62624
 30
0.0
 70
0
  0
VERTEX
  5
98
  8
14
 10
-2216.075755
 20
-693.553682
 30
0.0
 70
0
  0
VERTEX
  5
99
  8
14
 10
-2208.641928
 20
-691.495083
 30
0.0
 70
0
  0
VERTEX
  5
9A
  8
14
 10
-2201.30971
 20
-689.782866
 30
0.0
 70
0
  0
VERTEX
  5
9B
  8
14
 10
-2193.001916
 20
-688.180787
 30
0.0
 70
0
  0
VERTEX
  5
9C
  8
14
 10
-2185.093373
 20
-686.956715
 30
0.0
 70
0
  0
VERTEX
  5
9D
  8
14
 10
-2176.724179
 20
-685.956089
 30
0.0
 70
0
  0
VERTEX
  5
9E
  8
14
 10
-2168.412704
 20
-685.248448
 30
0.0
 70
0
  0
VERTEX
  5
9F
  8
14
 10
-2160.262093
 20
-684.834065
 30
0.0
 70
0
  0
VERTEX
  5
A0
  8
14
 10
-2152.627106
 20
-684.739151
 30
0.0
 70
0
  0
VERTEX
  5
A1
  8
14
 10
-2151.523788
 20
-700.327195
 30
0.0
 70
0
  0
VERTEX
  5
A2
  8
14
 10
-2150.397491
 20
-713.227692
 30
0.0
 70
0
  0
VERTEX
  5
A3
  8
14
 10
-2150.397339
 20
-713.228836
 30
0.0
 70
0
  0
VERTEX
  5
A4
  8
14
 10
-2148.621068
 20
-729.001301
 30
0.0
 70
0
  0
VERTEX
  5
A5
  8
14
 10
-2146.788988
 20
-742.999435
 30
0.0
 70
0
  0
VERTEX
  5
A6
  8
14
 10
-2144.999176
 20
-754.888533
 30
0.0
 70
0
  0
VERTEX
  5
A7
  8
14
 10
-2142.679077
 20
-768.421557
 30
0.0
 70
0
  0
VERTEX
  5
A8
  8
14
 10
-2139.923432
 20
-783.392717
 30
0.0
 70
0
  0
VERTEX
  5
A9
  8
14
 10
-2137.193766
 20
-797.440366
 30
0.0
 70
0
  0
VERTEX
  5
AA
  8
14
 10
-2135.117564
 20
-806.941365
 30
0.0
 70
0
  0
VERTEX
  5
AB
  8
14
 10
-2132.998546
 20
-815.457426
 30
0.0
 70
0
  0
VERTEX
  5
AC
  8
14
 10
-2130.234946
 20
-825.438378
 30
0.0
 70
0
  0
VERTEX
  5
AD
  8
14
 10
-2129.229126
 20
-828.854752
 30
0.0
 70
0
  0
VERTEX
  5
AE
  8
14
 10
-2132.886672
 20
-830.107248
 30
0.0
 70
0
  0
VERTEX
  5
AF
  8
14
 10
-2144.042959
 20
-833.722057
 30
0.0
 70
0
  0
VERTEX
  5
B0
  8
14
 10
-2156.488411
 20
-837.474658
 30
0.0
 70
0
  0
VERTEX
  5
B1
  8
14
 10
-2168.182972
 20
-840.738114
 30
0.0
 70
0
  0
VERTEX
  5
B2
  8
14
 10
-2179.282807
 20
-843.580075
 30
0.0
 70
0
  0
VERTEX
  5
B3
  8
14
 10
-2189.191258
 20
-845.878576
 30
0.0
 70
0
  0
VERTEX
  5
B4
  8
14
 10
-2199.456478
 20
-847.984639
 30
0.0
 70
0
  0
VERTEX
  5
B5
  8
14
 10
-2211.154501
 20
-850.047861
 30
0.0
 70
0
  0
VERTEX
  5
B6
  8
14
 10
-2213.001709
 20
-850.34462
 30
0.0
 70
0
  0
VERTEX
  5
B7
  8
14
 10
-2222.558461
 20
-851.766431
 30
0.0
 70
0
  0
VERTEX
  5
B8
  8
14
 10
-2234.902305
 20
-853.345283
 30
0.0
 70
0
  0
VERTEX
  5
B9
  8
14
 10
-2247.452441
 20
-854.681503
 30
0.0
 70
0
  0
VERTEX
  5
BA
  8
14
 10
-2260.101346
 20
-855.767847
 30
0.0
 70
0
  0
SEQEND
  5
7B
  8
14
  0
POLYLINE
  5
BB
  8
8
 66
1
 10
0.0
 20
0.0
 30
0.0
 70
0
  0
VERTEX
  5
BD
  8
8
 10
-2169.665985
 20
-739.508133
 30
0.0
 70
0
  0
VERTEX
  5
BE
  8
8
 10
-2166.968625
 20
-755.528385
 30
0.0
 70
0
  0
VERTEX
  5
BF
  8
8
 10
-2164.317376
 20
-771.274776
 30
0.0
 70
0
  0
VERTEX
  5
C0
  8
8
 10
-2161.690039
 20
-786.879144
 30
0.0
 70
0
  0
VERTEX
  5
C1
  8
8
 10
-2159.044638
 20
-802.590796
 30
0.0
 70
0
  0
VERTEX
  5
C2
  8
8
 10
-2156.481062
 20
-817.816478
 30
0.0
 70
0
  0
VERTEX
  5
C3
  8
8
 10
-2154.033419
 20
-832.353599
 30
0.0
 70
0
  0
VERTEX
  5
C4
  8
8
 10
-2153.331451
 20
-836.522751
 30
0.0
 70
0
  0
SEQEND
  5
BC
  8
8
  0
POLYLINE
  5
C5
  8
8
 66
1
 10
0.0
 20
0.0
 30
0.0
 70
0
  0
VERTEX
  5
C7
  8
8
 10
-2150.433044
 20
-713.232193
 30
0.0
 70
0
  0
VERTEX
  5
C8
  8
8
 10
-2156.171099
 20
-714.294035
 30
0.0
 70
0
  0
VERTEX
  5
C9
  8
8
 10
-2162.066148
 20
-715.710284
 30
0.0
 70
0
  0
VERTEX
  5
CA
  8
8
 10
-2168.445903
 20
-717.581423
 30
0.0
 70
0
  0
VERTEX
  5
CB
  8
8
 10
-2173.707809
 20
-719.410039
 30
0.0
 70
0
  0
VERTEX
  5
CC
  8
8
 10
-2179.209571
 20
-721.638275
 30
0.0
 70
0
  0
VERTEX
  5
CD
  8
8
 10
-2183.86781
 20
-723.8232
 30
0.0
 70
0
  0
VERTEX
  5
CE
  8
8
 10
-2188.498877
 20
-726.325869
 30
0.0
 70
0
  0
VERTEX
  5
CF
  8
8
 10
-2193.014712
 20
-729.16457
 30
0.0
 70
0
  0
VERTEX
  5
D0
  8
8
 10
-2196.485236
 20
-731.689763
 30
0.0
 70
0
  0
VERTEX
  5
D1
  8
8
 10
-2199.78056
 20
-734.45108
 30
0.0
 70
0
  0
VERTEX
  5
D2
  8
8
 10
-2202.855602
 20
-737.457888
 30
0.0
 70
0
  0
VERTEX
  5
D3
  8
8
 10
-2205.66527
 20
-740.719548
 30
0.0
 70
0
  0
VERTEX
  5
D4
  8
8
 10
-2208.09757
 20
-744.137839
 30
0.0
 70
0
  0
VERTEX
  5
D5
  8
8
 10
-2210.286684
 20
-747.911448
 30
0.0
 70
0
  0
VERTEX
  5
D6
  8
8
 10
-2212.171821
 20
-751.918703
 30
0.0
 70
0
  0
VERTEX
  5
D7
  8
8
 10
-2213.771448
 20
-756.136272
 30
0.0
 70
0
  0
VERTEX
  5
D8
  8
8
 10
-2215.104034
 20
-760.540834
 30
0.0
 70
0
  0
VERTEX
  5
D9
  8
8
 10
-2216.18805
 20
-765.109056
 30
0.0
 70
0
  0
VERTEX
  5
DA
  8
8
 10
-2217.041971
 20
-769.817634
 30
0.0
 70
0
  0
VERTEX
  5
DB
  8
8
 10
-2217.813934
 20
-775.865182
 30
0.0
 70
0
  0
VERTEX
  5
DC
  8
8
 10
-2218.291306
 20
-782.050027
 30
0.0
 70
0
  0
VERTEX
  5
DD
  8
8
 10
-2218.510162
 20
-788.326616
 30
0.0
 70
0
  0
VERTEX
  5
DE
  8
8
 10
-2218.482343
 20
-795.915494
 30
0.0
 70
0
  0
VERTEX
  5
DF
  8
8
 10
-2218.128213
 20
-804.748236
 30
0.0
 70
0
  0
VERTEX
  5
E0
  8
8
 10
-2217.463703
 20
-814.144793
 30
0.0
 70
0
  0
VERTEX
  5
E1
  8
8
 10
-2216.446397
 20
-824.790397
 30
0.0
 70
0
  0
VERTEX
  5
E2
  8
8
 10
-2215.082091
 20
-836.314111
 30
0.0
 70
0
  0
VERTEX
  5
E3
  8
8
 10
-2213.482481
 20
-847.713949
 30
0.0
 70
0
  0
VERTEX
  5
E4
  8
8
 10
-2212.825317
 20
-851.873245
 30
0.0
 70
0
  0
SEQEND
  5
C6
  8
8
  0
POLYLINE
  5
E5
  8
8
 66
1
 10
0.0
 20
0.0
 30
0.0
 70
0
  0
VERTEX
  5
E7
  8
8
 10
-2274.741974
 20
-754.1465
 30
0.0
 70
0
  0
VERTEX
  5
E8
  8
8
 10
-2258.487472
 20
-751.996407
 30
0.0
 70
0
  0
VERTEX
  5
E9
  8
8
 10
-2242.530416
 20
-749.850139
 30
0.0
 70
0
  0
VERTEX
  5
EA
  8
8
 10
-2226.853649
 20
-747.702911
 30
0.0
 70
0
  0
VERTEX
  5
EB
  8
8
 10
-2211.700418
 20
-745.581502
 30
0.0
 70
0
  0
VERTEX
  5
EC
  8
8
 10
-2196.821637
 20
-743.460191
 30
0.0
 70
0
  0
VERTEX
  5
ED
  8
8
 10
-2181.638407
 20
-741.263412
 30
0.0
 70
0
  0
VERTEX
  5
EE
  8
8
 10
-2169.665985
 20
-739.508133
 30
0.0
 70
0
  0
SEQEND
  5
E6
  8
8
  0
POINT
  5
EF
  8
4
 10
-2137.746124
 20
-712.13028
 30
0.0
  0
POINT
  5
F0
  8
4
 10
-2210.990906
 20
-862.917175
 30
0.0
  0
POINT
  5
F1
  8
4
 10
-2150.397491
 20
-713.227692
 30
0.0
  0
POINT
  5
F2
  8
4
 10
-2213.001709
 20
-850.34462
 30
0.0
  0
LINE
  5
F3
  8
7
 10
-2271.537476
 20
-781.340027
 30
0.0
 11
-2146.262207
 21
-781.340027
 31
0.0
  0
ENDSEC
  0
EOF
