  0
SECTION
  2
HEADER
  9
$ACADVER
  1
AC1009
  9
$DWGCODEPAGE
  3
ANSI_1252
  9
$INSBASE
 10
0.0
 20
0.0
 30
0.0
  9
$EXTMIN
 10
1e+20
 20
1e+20
 30
1e+20
  9
$EXTMAX
 10
-1e+20
 20
-1e+20
 30
-1e+20
  9
$LIMMIN
 10
0.0
 20
0.0
  9
$LIMMAX
 10
420.0
 20
297.0
  9
$ORTHOMODE
 70
0
  9
$REGENMODE
 70
1
  9
$FILLMODE
 70
1
  9
$DRAGMODE
 70
2
  9
$QTEXTMODE
 70
0
  9
$MIRRTEXT
 70
1
  9
$OSMODE
 70
20583
  9
$LTSCALE
 40
1.0
  9
$ATTMODE
 70
1
  9
$TEXTSIZE
 40
2.5
  9
$TRACEWID
 40
1.0
  9
$TEXTSTYLE
  7
Standard
  9
$CLAYER
  8
0
  9
$CELTYPE
  6
ByLayer
  9
$CECOLOR
 62
256
  9
$DIMSCALE
 40
1.0
  9
$DIMASZ
 40
2.5
  9
$DIMEXO
 40
0.625
  9
$DIMDLI
 40
3.75
  9
$DIMRND
 40
0.0
  9
$DIMDLE
 40
0.0
  9
$DIMEXE
 40
1.25
  9
$DIMTP
 40
0.0
  9
$DIMTM
 40
0.0
  9
$DIMTXT
 40
2.5
  9
$DIMCEN
 40
2.5
  9
$DIMTSZ
 40
0.0
  9
$DIMTOL
 70
0
  9
$DIMLIM
 70
0
  9
$DIMTIH
 70
0
  9
$DIMTOH
 70
0
  9
$DIMSE1
 70
0
  9
$DIMSE2
 70
0
  9
$DIMTAD
 70
1
  9
$DIMZIN
 70
8
  9
$DIMBLK
  1

  9
$DIMASO
 70
1
  9
$DIMSHO
 70
1
  9
$DIMPOST
  1

  9
$DIMAPOST
  1

  9
$DIMALT
 70
0
  9
$DIMALTD
 70
3
  9
$DIMALTF
 40
0.03937007874
  9
$DIMLFAC
 40
1.0
  9
$DIMTOFL
 70
1
  9
$DIMTVP
 40
0.0
  9
$DIMTIX
 70
0
  9
$DIMSOXD
 70
0
  9
$DIMSAH
 70
0
  9
$DIMBLK1
  1

  9
$DIMBLK2
  1

  9
$DIMSTYLE
  2
ISO-25
  9
$DIMCLRD
 70
0
  9
$DIMCLRE
 70
0
  9
$DIMCLRT
 70
0
  9
$DIMTFAC
 40
1.0
  9
$DIMGAP
 40
0.625
  9
$COORDS
 70
1
  9
$ATTDIA
 70
0
  9
$ATTREQ
 70
1
  9
$HANDLING
 70
1
  9
$LUNITS
 70
2
  9
$LUPREC
 70
4
  9
$SKETCHINC
 40
1.0
  9
$FILLETRAD
 40
10.0
  9
$AUNITS
 70
0
  9
$AUPREC
 70
2
  9
$MENU
  1
.
  9
$ELEVATION
 40
0.0
  9
$PELEVATION
 40
0.0
  9
$THICKNESS
 40
0.0
  9
$LIMCHECK
 70
0
  9
$CHAMFERA
 40
0.0
  9
$CHAMFERB
 40
0.0
  9
$SKPOLY
 70
0
  9
$TDCREATE
 40
2461259.4353819443
  9
$TDUPDATE
 40
2461259.4353819443
  9
$TDINDWG
 40
0.0
  9
$TDUSRTIMER
 40
0.0
  9
$USRTIMER
 70
1
  9
$ANGBASE
 50
0.0
  9
$ANGDIR
 70
0
  9
$PDMODE
 70
0
  9
$PDSIZE
 40
0.0
  9
$PLINEWID
 40
0.0
  9
$SPLFRAME
 70
0
  9
$SPLINETYPE
 70
6
  9
$SPLINESEGS
 70
8
  9
$HANDSEED
  5
7A
  9
$SURFTAB1
 70
6
  9
$SURFTAB2
 70
6
  9
$SURFTYPE
 70
6
  9
$SURFU
 70
6
  9
$SURFV
 70
6
  9
$UCSNAME
  2

  9
$UCSORG
 10
0.0
 20
0.0
 30
0.0
  9
$UCSXDIR
 10
1.0
 20
0.0
 30
0.0
  9
$UCSYDIR
 10
0.0
 20
1.0
 30
0.0
  9
$PUCSNAME
  2

  9
$PUCSORG
 10
0.0
 20
0.0
 30
0.0
  9
$PUCSXDIR
 10
1.0
 20
0.0
 30
0.0
  9
$PUCSYDIR
 10
0.0
 20
1.0
 30
0.0
  9
$USERI1
 70
0
  9
$USERI2
 70
0
  9
$USERI3
 70
0
  9
$USERI4
 70
0
  9
$USERI5
 70
0
  9
$USERR1
 40
0.0
  9
$USERR2
 40
0.0
  9
$USERR3
 40
0.0
  9
$USERR4
 40
0.0
  9
$USERR5
 40
0.0
  9
$WORLDVIEW
 70
1
  9
$SHADEDGE
 70
3
  9
$SHADEDIF
 70
70
  9
$TILEMODE
 70
1
  9
$MAXACTVP
 70
64
  9
$PLIMCHECK
 70
0
  9
$PEXTMIN
 10
1e+20
 20
1e+20
 30
1e+20
  9
$PEXTMAX
 10
-1e+20
 20
-1e+20
 30
-1e+20
  9
$PLIMMIN
 10
0.0
 20
0.0
  9
$PLIMMAX
 10
420.0
 20
297.0
  9
$UNITMODE
 70
0
  9
$VISRETAIN
 70
1
  9
$PLINEGEN
 70
0
  9
$PSLTSCALE
 70
1
  0
ENDSEC
  0
SECTION
  2
TABLES
  0
TABLE
  2
VPORT
 70
1
  0
VPORT
  5
23
  2
*Active
 70
0
 10
0.0
 20
0.0
 11
1.0
 21
1.0
 12
0.0
 22
0.0
 13
0.0
 23
0.0
 14
0.5
 24
0.5
 15
0.5
 25
0.5
 16
0.0
 26
0.0
 36
1.0
 17
0.0
 27
0.0
 37
0.0
 40
1000.0
 41
1.34
 42
50.0
 43
0.0
 44
0.0
 50
0.0
 51
0.0
 71
0
 72
1000
 73
1
 74
3
 75
0
 76
0
 77
0
 78
0
  0
ENDTAB
  0
TABLE
  2
LTYPE
 70
3
  0
LTYPE
  5
24
  2
ByBlock
 70
0
  3

 72
65
 73
0
 40
0.0
  0
LTYPE
  5
25
  2
ByLayer
 70
0
  3

 72
65
 73
0
 40
0.0
  0
LTYPE
  5
26
  2
Continuous
 70
0
  3

 72
65
 73
0
 40
0.0
  0
ENDTAB
  0
TABLE
  2
LAYER
 70
4
  0
LAYER
  5
27
  2
0
 70
0
 62
7
  6
Continuous
  0
LAYER
  5
28
  2
Defpoints
 70
0
 62
7
  6
Continuous
  0
LAYER
  5
2D
  2
1
 70
0
 62
1
  6
Continuous
  0
LAYER
  5
2E
  2
7
 70
0
 62
7
  6
Continuous
  0
ENDTAB
  0
TABLE
  2
STYLE
 70
1
  0
STYLE
  5
29
  2
Standard
 70
0
 40
0.0
 41
1.0
 50
0.0
 71
0
 42
2.5
  3
txt
  4

  0
ENDTAB
  0
TABLE
  2
VIEW
 70
0
  0
ENDTAB
  0
TABLE
  2
UCS
 70
0
  0
ENDTAB
  0
TABLE
  2
APPID
 70
3
  0
APPID
  5
2A
  2
ACAD
 70
0
  0
APPID
  5
78
  2
HATCHBACKGROUNDCOLOR
 70
0
  0
APPID
  5
79
  2
EZDXF
 70
0
  0
ENDTAB
  0
TABLE
  2
DIMSTYLE
 70
1
  0
DIMSTYLE
105
2B
  2
Standard
 70
0
  3

  4

  5

  6

  7

 40
1.0
 41
2.5
 42
0.625
 43
3.75
 44
1.25
 45
0.0
 46
0.0
 47
0.0
 48
0.0
140
2.5
141
2.5
142
0.0
143
0.03937007874
144
1.0
145
0.0
146
1.0
147
0.625
 71
0
 72
0
 73
0
 74
0
 75
0
 76
0
 77
1
 78
8
170
0
171
3
172
1
173
0
174
0
175
0
176
0
177
0
178
0
  0
ENDTAB
  0
ENDSEC
  0
SECTION
  2
BLOCKS
  0
BLOCK
  5
18
  8
0
  2
$Model_Space
 70
0
 10
0.0
 20
0.0
 30
0.0
  3
$Model_Space
  1

1001
EZDXF
1000
CREATED_BY_EZDXF
1000
1.4.4 @ 2026-08-06T02:26:57.856153+00:00
1000
WRITTEN_BY_EZDXF
1000
1.4.4 @ 2026-08-06T02:26:57.857153+00:00
  0
ENDBLK
  5
19
  8
0
  0
BLOCK
  5
1C
  8
0
  2
$Paper_Space
 70
0
 10
0.0
 20
0.0
 30
0.0
  3
$Paper_Space
  1

  0
ENDBLK
  5
1D
  8
0
  0
ENDSEC
  0
SECTION
  2
ENTITIES
  0
POLYLINE
  5
2F
  8
1
 66
1
 10
0.0
 20
0.0
 30
0.0
 70
1
  0
VERTEX
  5
31
  8
1
 10
-2272.782288
 20
-869.294052
 30
0.0
 70
0
  0
VERTEX
  5
32
  8
1
 10
-2274.311068
 20
-857.424748
 30
0.0
 70
0
  0
VERTEX
  5
33
  8
1
 10
-2276.200432
 20
-842.505131
 30
0.0
 70
0
  0
VERTEX
  5
34
  8
1
 10
-2277.943962
 20
-827.516235
 30
0.0
 70
0
  0
VERTEX
  5
35
  8
1
 10
-2279.171915
 20
-815.060505
 30
0.0
 70
0
  0
VERTEX
  5
36
  8
1
 10
-2280.062208
 20
-803.64524
 30
0.0
 70
0
  0
VERTEX
  5
37
  8
1
 10
-2280.651853
 20
-793.079517
 30
0.0
 70
0
  0
VERTEX
  5
38
  8
1
 10
-2280.971732
 20
-783.176078
 30
0.0
 70
0
  0
VERTEX
  5
39
  8
1
 10
-2281.011169
 20
-775.369972
 30
0.0
 70
0
  0
VERTEX
  5
3A
  8
1
 10
-2280.817216
 20
-768.642949
 30
0.0
 70
0
  0
VERTEX
  5
3B
  8
1
 10
-2280.407098
 20
-762.584476
 30
0.0
 70
0
  0
VERTEX
  5
3C
  8
1
 10
-2279.792887
 20
-757.017561
 30
0.0
 70
0
  0
VERTEX
  5
3D
  8
1
 10
-2278.987283
 20
-751.874529
 30
0.0
 70
0
  0
VERTEX
  5
3E
  8
1
 10
-2277.99434
 20
-747.095789
 30
0.0
 70
0
  0
VERTEX
  5
3F
  8
1
 10
-2276.84563
 20
-742.734813
 30
0.0
 70
0
  0
VERTEX
  5
40
  8
1
 10
-2275.518929
 20
-738.638933
 30
0.0
 70
0
  0
VERTEX
  5
41
  8
1
 10
-2274.032142
 20
-734.830294
 30
0.0
 70
0
  0
VERTEX
  5
42
  8
1
 10
-2272.398088
 20
-731.301002
 30
0.0
 70
0
  0
VERTEX
  5
43
  8
1
 10
-2270.539416
 20
-727.886061
 30
0.0
 70
0
  0
VERTEX
  5
44
  8
1
 10
-2268.587683
 20
-724.810089
 30
0.0
 70
0
  0
VERTEX
  5
45
  8
1
 10
-2266.367952
 20
-721.789922
 30
0.0
 70
0
  0
VERTEX
  5
46
  8
1
 10
-2263.940647
 20
-718.91264
 30
0.0
 70
0
  0
VERTEX
  5
47
  8
1
 10
-2261.180582
 20
-716.037859
 30
0.0
 70
0
  0
VERTEX
  5
48
  8
1
 10
-2258.076754
 20
-713.186292
 30
0.0
 70
0
  0
VERTEX
  5
49
  8
1
 10
-2254.714028
 20
-710.44842
 30
0.0
 70
0
  0
VERTEX
  5
4A
  8
1
 10
-2250.971153
 20
-707.739191
 30
0.0
 70
0
  0
VERTEX
  5
4B
  8
1
 10
-2246.893914
 20
-705.112499
 30
0.0
 70
0
  0
VERTEX
  5
4C
  8
1
 10
-2242.494952
 20
-702.58713
 30
0.0
 70
0
  0
VERTEX
  5
4D
  8
1
 10
-2237.692072
 20
-700.131494
 30
0.0
 70
0
  0
VERTEX
  5
4E
  8
1
 10
-2232.596325
 20
-697.814424
 30
0.0
 70
0
  0
VERTEX
  5
4F
  8
1
 10
-2227.147872
 20
-695.615686
 30
0.0
 70
0
  0
VERTEX
  5
50
  8
1
 10
-2221.331318
 20
-693.542486
 30
0.0
 70
0
  0
VERTEX
  5
51
  8
1
 10
-2215.103126
 20
-691.596661
 30
0.0
 70
0
  0
VERTEX
  5
52
  8
1
 10
-2208.573175
 20
-689.825636
 30
0.0
 70
0
  0
VERTEX
  5
53
  8
1
 10
-2201.813733
 20
-688.254216
 30
0.0
 70
0
  0
VERTEX
  5
54
  8
1
 10
-2194.734789
 20
-686.865743
 30
0.0
 70
0
  0
VERTEX
  5
55
  8
1
 10
-2187.028786
 20
-685.616514
 30
0.0
 70
0
  0
VERTEX
  5
56
  8
1
 10
-2179.233509
 20
-684.598482
 30
0.0
 70
0
  0
VERTEX
  5
57
  8
1
 10
-2172.154565
 20
-683.907472
 30
0.0
 70
0
  0
VERTEX
  5
58
  8
1
 10
-2165.32965
 20
-683.485696
 30
0.0
 70
0
  0
VERTEX
  5
59
  8
1
 10
-2155.273137
 20
-683.196424
 30
0.0
 70
0
  0
VERTEX
  5
5A
  8
1
 10
-2140.026855
 20
-682.880707
 30
0.0
 70
0
  0
VERTEX
  5
5B
  8
1
 10
-2138.932209
 20
-698.457088
 30
0.0
 70
0
  0
VERTEX
  5
5C
  8
1
 10
-2137.746124
 20
-712.13028
 30
0.0
 70
0
  0
VERTEX
  5
5D
  8
1
 10
-2137.760773
 20
-711.972275
 30
0.0
 70
0
  0
VERTEX
  5
5E
  8
1
 10
-2136.075072
 20
-726.996865
 30
0.0
 70
0
  0
VERTEX
  5
5F
  8
1
 10
-2134.278302
 20
-740.755611
 30
0.0
 70
0
  0
VERTEX
  5
60
  8
1
 10
-2132.490199
 20
-752.686084
 30
0.0
 70
0
  0
VERTEX
  5
61
  8
1
 10
-2130.188102
 20
-766.086409
 30
0.0
 70
0
  0
VERTEX
  5
62
  8
1
 10
-2127.448564
 20
-781.10399
 30
0.0
 70
0
  0
VERTEX
  5
63
  8
1
 10
-2125.01541
 20
-793.615585
 30
0.0
 70
0
  0
VERTEX
  5
64
  8
1
 10
-2122.749587
 20
-803.946919
 30
0.0
 70
0
  0
VERTEX
  5
65
  8
1
 10
-2120.459843
 20
-813.222908
 30
0.0
 70
0
  0
VERTEX
  5
66
  8
1
 10
-2117.6424
 20
-823.492327
 30
0.0
 70
0
  0
VERTEX
  5
67
  8
1
 10
-2114.311932
 20
-834.692719
 30
0.0
 70
0
  0
VERTEX
  5
68
  8
1
 10
-2113.600006
 20
-836.972733
 30
0.0
 70
0
  0
VERTEX
  5
69
  8
1
 10
-2118.126318
 20
-838.494571
 30
0.0
 70
0
  0
VERTEX
  5
6A
  8
1
 10
-2132.368053
 20
-843.330732
 30
0.0
 70
0
  0
VERTEX
  5
6B
  8
1
 10
-2143.143284
 20
-846.778336
 30
0.0
 70
0
  0
VERTEX
  5
6C
  8
1
 10
-2154.46285
 20
-850.135135
 30
0.0
 70
0
  0
VERTEX
  5
6D
  8
1
 10
-2166.397687
 20
-853.40169
 30
0.0
 70
0
  0
VERTEX
  5
6E
  8
1
 10
-2177.849228
 20
-856.279162
 30
0.0
 70
0
  0
VERTEX
  5
6F
  8
1
 10
-2188.401084
 20
-858.682178
 30
0.0
 70
0
  0
VERTEX
  5
70
  8
1
 10
-2198.403393
 20
-860.714713
 30
0.0
 70
0
  0
VERTEX
  5
71
  8
1
 10
-2208.574323
 20
-862.523913
 30
0.0
 70
0
  0
VERTEX
  5
72
  8
1
 10
-2210.990906
 20
-862.917175
 30
0.0
 70
0
  0
VERTEX
  5
73
  8
1
 10
-2219.273145
 20
-864.164443
 30
0.0
 70
0
  0
VERTEX
  5
74
  8
1
 10
-2230.494786
 20
-865.620459
 30
0.0
 70
0
  0
VERTEX
  5
75
  8
1
 10
-2242.860401
 20
-866.945879
 30
0.0
 70
0
  0
VERTEX
  5
76
  8
1
 10
-2257.088343
 20
-868.195374
 30
0.0
 70
0
  0
SEQEND
  5
30
  8
1
  0
LINE
  5
77
  8
7
 10
-2271.537476
 20
-781.340027
 30
0.0
 11
-2146.262207
 21
-781.340027
 31
0.0
  0
ENDSEC
  0
EOF
