  0
SECTION
  2
HEADER
  9
$ACADVER
  1
AC1009
  9
$DWGCODEPAGE
  3
ANSI_1252
  9
$INSBASE
 10
0.0
 20
0.0
 30
0.0
  9
$EXTMIN
 10
1e+20
 20
1e+20
 30
1e+20
  9
$EXTMAX
 10
-1e+20
 20
-1e+20
 30
-1e+20
  9
$LIMMIN
 10
0.0
 20
0.0
  9
$LIMMAX
 10
420.0
 20
297.0
  9
$ORTHOMODE
 70
0
  9
$REGENMODE
 70
1
  9
$FILLMODE
 70
1
  9
$DRAGMODE
 70
2
  9
$QTEXTMODE
 70
0
  9
$MIRRTEXT
 70
1
  9
$OSMODE
 70
20583
  9
$LTSCALE
 40
1.0
  9
$ATTMODE
 70
1
  9
$TEXTSIZE
 40
2.5
  9
$TRACEWID
 40
1.0
  9
$TEXTSTYLE
  7
Standard
  9
$CLAYER
  8
0
  9
$CELTYPE
  6
ByLayer
  9
$CECOLOR
 62
256
  9
$DIMSCALE
 40
1.0
  9
$DIMASZ
 40
2.5
  9
$DIMEXO
 40
0.625
  9
$DIMDLI
 40
3.75
  9
$DIMRND
 40
0.0
  9
$DIMDLE
 40
0.0
  9
$DIMEXE
 40
1.25
  9
$DIMTP
 40
0.0
  9
$DIMTM
 40
0.0
  9
$DIMTXT
 40
2.5
  9
$DIMCEN
 40
2.5
  9
$DIMTSZ
 40
0.0
  9
$DIMTOL
 70
0
  9
$DIMLIM
 70
0
  9
$DIMTIH
 70
0
  9
$DIMTOH
 70
0
  9
$DIMSE1
 70
0
  9
$DIMSE2
 70
0
  9
$DIMTAD
 70
1
  9
$DIMZIN
 70
8
  9
$DIMBLK
  1

  9
$DIMASO
 70
1
  9
$DIMSHO
 70
1
  9
$DIMPOST
  1

  9
$DIMAPOST
  1

  9
$DIMALT
 70
0
  9
$DIMALTD
 70
3
  9
$DIMALTF
 40
0.03937007874
  9
$DIMLFAC
 40
1.0
  9
$DIMTOFL
 70
1
  9
$DIMTVP
 40
0.0
  9
$DIMTIX
 70
0
  9
$DIMSOXD
 70
0
  9
$DIMSAH
 70
0
  9
$DIMBLK1
  1

  9
$DIMBLK2
  1

  9
$DIMSTYLE
  2
ISO-25
  9
$DIMCLRD
 70
0
  9
$DIMCLRE
 70
0
  9
$DIMCLRT
 70
0
  9
$DIMTFAC
 40
1.0
  9
$DIMGAP
 40
0.625
  9
$COORDS
 70
1
  9
$ATTDIA
 70
0
  9
$ATTREQ
 70
1
  9
$HANDLING
 70
1
  9
$LUNITS
 70
2
  9
$LUPREC
 70
4
  9
$SKETCHINC
 40
1.0
  9
$FILLETRAD
 40
10.0
  9
$AUNITS
 70
0
  9
$AUPREC
 70
2
  9
$MENU
  1
.
  9
$ELEVATION
 40
0.0
  9
$PELEVATION
 40
0.0
  9
$THICKNESS
 40
0.0
  9
$LIMCHECK
 70
0
  9
$CHAMFERA
 40
0.0
  9
$CHAMFERB
 40
0.0
  9
$SKPOLY
 70
0
  9
$TDCREATE
 40
2461264.9423032408
  9
$TDUPDATE
 40
2461264.9423032408
  9
$TDINDWG
 40
0.0
  9
$TDUSRTIMER
 40
0.0
  9
$USRTIMER
 70
1
  9
$ANGBASE
 50
0.0
  9
$ANGDIR
 70
0
  9
$PDMODE
 70
0
  9
$PDSIZE
 40
0.0
  9
$PLINEWID
 40
0.0
  9
$SPLFRAME
 70
0
  9
$SPLINETYPE
 70
6
  9
$SPLINESEGS
 70
8
  9
$HANDSEED
  5
A8
  9
$SURFTAB1
 70
6
  9
$SURFTAB2
 70
6
  9
$SURFTYPE
 70
6
  9
$SURFU
 70
6
  9
$SURFV
 70
6
  9
$UCSNAME
  2

  9
$UCSORG
 10
0.0
 20
0.0
 30
0.0
  9
$UCSXDIR
 10
1.0
 20
0.0
 30
0.0
  9
$UCSYDIR
 10
0.0
 20
1.0
 30
0.0
  9
$PUCSNAME
  2

  9
$PUCSORG
 10
0.0
 20
0.0
 30
0.0
  9
$PUCSXDIR
 10
1.0
 20
0.0
 30
0.0
  9
$PUCSYDIR
 10
0.0
 20
1.0
 30
0.0
  9
$USERI1
 70
0
  9
$USERI2
 70
0
  9
$USERI3
 70
0
  9
$USERI4
 70
0
  9
$USERI5
 70
0
  9
$USERR1
 40
0.0
  9
$USERR2
 40
0.0
  9
$USERR3
 40
0.0
  9
$USERR4
 40
0.0
  9
$USERR5
 40
0.0
  9
$WORLDVIEW
 70
1
  9
$SHADEDGE
 70
3
  9
$SHADEDIF
 70
70
  9
$TILEMODE
 70
1
  9
$MAXACTVP
 70
64
  9
$PLIMCHECK
 70
0
  9
$PEXTMIN
 10
1e+20
 20
1e+20
 30
1e+20
  9
$PEXTMAX
 10
-1e+20
 20
-1e+20
 30
-1e+20
  9
$PLIMMIN
 10
0.0
 20
0.0
  9
$PLIMMAX
 10
420.0
 20
297.0
  9
$UNITMODE
 70
0
  9
$VISRETAIN
 70
1
  9
$PLINEGEN
 70
0
  9
$PSLTSCALE
 70
1
  0
ENDSEC
  0
SECTION
  2
TABLES
  0
TABLE
  2
VPORT
 70
1
  0
VPORT
  5
23
  2
*Active
 70
0
 10
0.0
 20
0.0
 11
1.0
 21
1.0
 12
0.0
 22
0.0
 13
0.0
 23
0.0
 14
0.5
 24
0.5
 15
0.5
 25
0.5
 16
0.0
 26
0.0
 36
1.0
 17
0.0
 27
0.0
 37
0.0
 40
1000.0
 41
1.34
 42
50.0
 43
0.0
 44
0.0
 50
0.0
 51
0.0
 71
0
 72
1000
 73
1
 74
3
 75
0
 76
0
 77
0
 78
0
  0
ENDTAB
  0
TABLE
  2
LTYPE
 70
3
  0
LTYPE
  5
24
  2
ByBlock
 70
0
  3

 72
65
 73
0
 40
0.0
  0
LTYPE
  5
25
  2
ByLayer
 70
0
  3

 72
65
 73
0
 40
0.0
  0
LTYPE
  5
26
  2
Continuous
 70
0
  3

 72
65
 73
0
 40
0.0
  0
ENDTAB
  0
TABLE
  2
LAYER
 70
7
  0
LAYER
  5
27
  2
0
 70
0
 62
7
  6
Continuous
  0
LAYER
  5
28
  2
Defpoints
 70
0
 62
7
  6
Continuous
  0
LAYER
  5
2D
  2
1
 70
0
 62
1
  6
Continuous
  0
LAYER
  5
2E
  2
7
 70
0
 62
7
  6
Continuous
  0
LAYER
  5
2F
  2
14
 70
0
 62
3
  6
Continuous
  0
LAYER
  5
30
  2
8
 70
0
 62
6
  6
Continuous
  0
LAYER
  5
31
  2
4
 70
0
 62
2
  6
Continuous
  0
ENDTAB
  0
TABLE
  2
STYLE
 70
1
  0
STYLE
  5
29
  2
Standard
 70
0
 40
0.0
 41
1.0
 50
0.0
 71
0
 42
2.5
  3
txt
  4

  0
ENDTAB
  0
TABLE
  2
VIEW
 70
0
  0
ENDTAB
  0
TABLE
  2
UCS
 70
0
  0
ENDTAB
  0
TABLE
  2
APPID
 70
3
  0
APPID
  5
2A
  2
ACAD
 70
0
  0
APPID
  5
A6
  2
HATCHBACKGROUNDCOLOR
 70
0
  0
APPID
  5
A7
  2
EZDXF
 70
0
  0
ENDTAB
  0
TABLE
  2
DIMSTYLE
 70
1
  0
DIMSTYLE
105
2B
  2
Standard
 70
0
  3

  4

  5

  6

  7

 40
1.0
 41
2.5
 42
0.625
 43
3.75
 44
1.25
 45
0.0
 46
0.0
 47
0.0
 48
0.0
140
2.5
141
2.5
142
0.0
143
0.03937007874
144
1.0
145
0.0
146
1.0
147
0.625
 71
0
 72
0
 73
0
 74
0
 75
0
 76
0
 77
1
 78
8
170
0
171
3
172
1
173
0
174
0
175
0
176
0
177
0
178
0
  0
ENDTAB
  0
ENDSEC
  0
SECTION
  2
BLOCKS
  0
BLOCK
  5
18
  8
0
  2
$Model_Space
 70
0
 10
0.0
 20
0.0
 30
0.0
  3
$Model_Space
  1

1001
EZDXF
1000
CREATED_BY_EZDXF
1000
1.4.4 @ 2026-08-11T14:36:55.993216+00:00
1000
WRITTEN_BY_EZDXF
1000
1.4.4 @ 2026-08-11T14:36:55.994216+00:00
  0
ENDBLK
  5
19
  8
0
  0
BLOCK
  5
1C
  8
0
  2
$Paper_Space
 70
0
 10
0.0
 20
0.0
 30
0.0
  3
$Paper_Space
  1

  0
ENDBLK
  5
1D
  8
0
  0
ENDSEC
  0
SECTION
  2
ENTITIES
  0
POLYLINE
  5
32
  8
1
 66
1
 10
0.0
 20
0.0
 30
0.0
 70
1
  0
VERTEX
  5
34
  8
1
 10
-1817.993774
 20
84.060726
 30
0.0
 70
0
  0
VERTEX
  5
35
  8
1
 10
-1817.993774
 20
98.969198
 30
0.0
 70
0
  0
VERTEX
  5
36
  8
1
 10
-1817.993774
 20
114.073293
 30
0.0
 70
0
  0
VERTEX
  5
37
  8
1
 10
-1817.993774
 20
129.186751
 30
0.0
 70
0
  0
VERTEX
  5
38
  8
1
 10
-1817.993774
 20
145.019903
 30
0.0
 70
0
  0
VERTEX
  5
39
  8
1
 10
-1817.993774
 20
160.853062
 30
0.0
 70
0
  0
VERTEX
  5
3A
  8
1
 10
-1817.993774
 20
175.966523
 30
0.0
 70
0
  0
VERTEX
  5
3B
  8
1
 10
-1817.993774
 20
191.070603
 30
0.0
 70
0
  0
VERTEX
  5
3C
  8
1
 10
-1817.993774
 20
205.97908
 30
0.0
 70
0
  0
VERTEX
  5
3D
  8
1
 10
-1815.039771
 20
205.97908
 30
0.0
 70
0
  0
VERTEX
  5
3E
  8
1
 10
-1800.268709
 20
205.97908
 30
0.0
 70
0
  0
VERTEX
  5
3F
  8
1
 10
-1785.041166
 20
205.97908
 30
0.0
 70
0
  0
VERTEX
  5
40
  8
1
 10
-1769.897225
 20
205.97908
 30
0.0
 70
0
  0
VERTEX
  5
41
  8
1
 10
-1754.842706
 20
205.97908
 30
0.0
 70
0
  0
VERTEX
  5
42
  8
1
 10
-1739.370598
 20
205.97908
 30
0.0
 70
0
  0
VERTEX
  5
43
  8
1
 10
-1724.316047
 20
205.97908
 30
0.0
 70
0
  0
VERTEX
  5
44
  8
1
 10
-1708.824812
 20
205.97908
 30
0.0
 70
0
  0
VERTEX
  5
45
  8
1
 10
-1693.770273
 20
205.97908
 30
0.0
 70
0
  0
VERTEX
  5
46
  8
1
 10
-1678.383624
 20
205.97908
 30
0.0
 70
0
  0
VERTEX
  5
47
  8
1
 10
-1663.329103
 20
205.97908
 30
0.0
 70
0
  0
VERTEX
  5
48
  8
1
 10
-1648.128921
 20
205.97908
 30
0.0
 70
0
  0
VERTEX
  5
49
  8
1
 10
-1633.074402
 20
205.97908
 30
0.0
 70
0
  0
VERTEX
  5
4A
  8
1
 10
-1618.019891
 20
205.97908
 30
0.0
 70
0
  0
VERTEX
  5
4B
  8
1
 10
-1602.093964
 20
205.97908
 30
0.0
 70
0
  0
VERTEX
  5
4C
  8
1
 10
-1602.093964
 20
191.901943
 30
0.0
 70
0
  0
VERTEX
  5
4D
  8
1
 10
-1602.093964
 20
176.2132
 30
0.0
 70
0
  0
VERTEX
  5
4E
  8
1
 10
-1602.093964
 20
160.773096
 30
0.0
 70
0
  0
VERTEX
  5
4F
  8
1
 10
-1602.093964
 20
145.019903
 30
0.0
 70
0
  0
VERTEX
  5
50
  8
1
 10
-1602.093964
 20
129.266717
 30
0.0
 70
0
  0
VERTEX
  5
51
  8
1
 10
-1602.093964
 20
113.826616
 30
0.0
 70
0
  0
VERTEX
  5
52
  8
1
 10
-1602.093964
 20
98.13787
 30
0.0
 70
0
  0
VERTEX
  5
53
  8
1
 10
-1602.093964
 20
84.060726
 30
0.0
 70
0
  0
SEQEND
  5
33
  8
1
  0
POLYLINE
  5
54
  8
14
 66
1
 10
0.0
 20
0.0
 30
0.0
 70
1
  0
VERTEX
  5
56
  8
14
 10
-1817.993774
 20
84.060726
 30
0.0
 70
0
  0
VERTEX
  5
57
  8
14
 10
-1817.993774
 20
98.969198
 30
0.0
 70
0
  0
VERTEX
  5
58
  8
14
 10
-1817.993774
 20
114.073293
 30
0.0
 70
0
  0
VERTEX
  5
59
  8
14
 10
-1817.993774
 20
129.186751
 30
0.0
 70
0
  0
VERTEX
  5
5A
  8
14
 10
-1817.993774
 20
145.019903
 30
0.0
 70
0
  0
VERTEX
  5
5B
  8
14
 10
-1817.993774
 20
160.853062
 30
0.0
 70
0
  0
VERTEX
  5
5C
  8
14
 10
-1817.993774
 20
175.966523
 30
0.0
 70
0
  0
VERTEX
  5
5D
  8
14
 10
-1817.993774
 20
191.070603
 30
0.0
 70
0
  0
VERTEX
  5
5E
  8
14
 10
-1817.993774
 20
205.97908
 30
0.0
 70
0
  0
VERTEX
  5
5F
  8
14
 10
-1814.670861
 20
205.97908
 30
0.0
 70
0
  0
VERTEX
  5
60
  8
14
 10
-1799.789517
 20
205.97908
 30
0.0
 70
0
  0
VERTEX
  5
61
  8
14
 10
-1784.470403
 20
205.97908
 30
0.0
 70
0
  0
VERTEX
  5
62
  8
14
 10
-1768.892263
 20
205.97908
 30
0.0
 70
0
  0
VERTEX
  5
63
  8
14
 10
-1753.360849
 20
205.97908
 30
0.0
 70
0
  0
VERTEX
  5
64
  8
14
 10
-1738.245947
 20
205.97908
 30
0.0
 70
0
  0
VERTEX
  5
65
  8
14
 10
-1722.7145
 20
205.97908
 30
0.0
 70
0
  0
VERTEX
  5
66
  8
14
 10
-1707.413211
 20
205.97908
 30
0.0
 70
0
  0
VERTEX
  5
67
  8
14
 10
-1691.881777
 20
205.97908
 30
0.0
 70
0
  0
VERTEX
  5
68
  8
14
 10
-1676.852332
 20
205.97908
 30
0.0
 70
0
  0
VERTEX
  5
69
  8
14
 10
-1661.320907
 20
205.97908
 30
0.0
 70
0
  0
VERTEX
  5
6A
  8
14
 10
-1645.892177
 20
205.97908
 30
0.0
 70
0
  0
VERTEX
  5
6B
  8
14
 10
-1630.579552
 20
205.97908
 30
0.0
 70
0
  0
VERTEX
  5
6C
  8
14
 10
-1614.794006
 20
205.97908
 30
0.0
 70
0
  0
VERTEX
  5
6D
  8
14
 10
-1614.794006
 20
191.221987
 30
0.0
 70
0
  0
VERTEX
  5
6E
  8
14
 10
-1614.794006
 20
176.213194
 30
0.0
 70
0
  0
VERTEX
  5
6F
  8
14
 10
-1614.794006
 20
161.036439
 30
0.0
 70
0
  0
VERTEX
  5
70
  8
14
 10
-1614.794006
 20
145.019903
 30
0.0
 70
0
  0
VERTEX
  5
71
  8
14
 10
-1614.794006
 20
129.003368
 30
0.0
 70
0
  0
VERTEX
  5
72
  8
14
 10
-1614.794006
 20
113.826612
 30
0.0
 70
0
  0
VERTEX
  5
73
  8
14
 10
-1614.794006
 20
98.817819
 30
0.0
 70
0
  0
VERTEX
  5
74
  8
14
 10
-1614.794006
 20
84.060726
 30
0.0
 70
0
  0
SEQEND
  5
55
  8
14
  0
POLYLINE
  5
75
  8
8
 66
1
 10
0.0
 20
0.0
 30
0.0
 70
0
  0
VERTEX
  5
77
  8
8
 10
-1614.794006
 20
145.019903
 30
0.0
 70
0
  0
VERTEX
  5
78
  8
8
 10
-1631.752465
 20
145.019903
 30
0.0
 70
0
  0
VERTEX
  5
79
  8
8
 10
-1648.384828
 20
145.019903
 30
0.0
 70
0
  0
VERTEX
  5
7A
  8
8
 10
-1664.419372
 20
145.019903
 30
0.0
 70
0
  0
VERTEX
  5
7B
  8
8
 10
-1679.852657
 20
145.019903
 30
0.0
 70
0
  0
VERTEX
  5
7C
  8
8
 10
-1696.113684
 20
145.019903
 30
0.0
 70
0
  0
VERTEX
  5
7D
  8
8
 10
-1711.789114
 20
145.019903
 30
0.0
 70
0
  0
VERTEX
  5
7E
  8
8
 10
-1728.371159
 20
145.019903
 30
0.0
 70
0
  0
VERTEX
  5
7F
  8
8
 10
-1744.554154
 20
145.019903
 30
0.0
 70
0
  0
VERTEX
  5
80
  8
8
 10
-1759.988992
 20
145.019903
 30
0.0
 70
0
  0
VERTEX
  5
81
  8
8
 10
-1776.264771
 20
145.019903
 30
0.0
 70
0
  0
VERTEX
  5
82
  8
8
 10
-1792.212948
 20
145.019903
 30
0.0
 70
0
  0
VERTEX
  5
83
  8
8
 10
-1807.263617
 20
145.019903
 30
0.0
 70
0
  0
VERTEX
  5
84
  8
8
 10
-1817.993774
 20
145.019903
 30
0.0
 70
0
  0
SEQEND
  5
76
  8
8
  0
POLYLINE
  5
85
  8
8
 66
1
 10
0.0
 20
0.0
 30
0.0
 70
0
  0
VERTEX
  5
87
  8
8
 10
-1614.794006
 20
145.019903
 30
0.0
 70
0
  0
VERTEX
  5
88
  8
8
 10
-1631.752465
 20
145.019903
 30
0.0
 70
0
  0
VERTEX
  5
89
  8
8
 10
-1648.384828
 20
145.019903
 30
0.0
 70
0
  0
VERTEX
  5
8A
  8
8
 10
-1664.419372
 20
145.019903
 30
0.0
 70
0
  0
VERTEX
  5
8B
  8
8
 10
-1679.852657
 20
145.019903
 30
0.0
 70
0
  0
VERTEX
  5
8C
  8
8
 10
-1696.113684
 20
145.019903
 30
0.0
 70
0
  0
VERTEX
  5
8D
  8
8
 10
-1711.789114
 20
145.019903
 30
0.0
 70
0
  0
VERTEX
  5
8E
  8
8
 10
-1728.371159
 20
145.019903
 30
0.0
 70
0
  0
VERTEX
  5
8F
  8
8
 10
-1744.554154
 20
145.019903
 30
0.0
 70
0
  0
VERTEX
  5
90
  8
8
 10
-1759.988992
 20
145.019903
 30
0.0
 70
0
  0
VERTEX
  5
91
  8
8
 10
-1776.264771
 20
145.019903
 30
0.0
 70
0
  0
VERTEX
  5
92
  8
8
 10
-1792.212948
 20
145.019903
 30
0.0
 70
0
  0
VERTEX
  5
93
  8
8
 10
-1807.263617
 20
145.019903
 30
0.0
 70
0
  0
VERTEX
  5
94
  8
8
 10
-1817.993774
 20
145.019903
 30
0.0
 70
0
  0
SEQEND
  5
86
  8
8
  0
POLYLINE
  5
95
  8
8
 66
1
 10
0.0
 20
0.0
 30
0.0
 70
0
  0
VERTEX
  5
97
  8
8
 10
-1817.993774
 20
204.244232
 30
0.0
 70
0
  0
VERTEX
  5
98
  8
8
 10
-1801.463224
 20
204.502449
 30
0.0
 70
0
  0
VERTEX
  5
99
  8
8
 10
-1785.92676
 20
204.722183
 30
0.0
 70
0
  0
VERTEX
  5
9A
  8
8
 10
-1769.521743
 20
204.935177
 30
0.0
 70
0
  0
VERTEX
  5
9B
  8
8
 10
-1754.169026
 20
205.11793
 30
0.0
 70
0
  0
VERTEX
  5
9C
  8
8
 10
-1737.309424
 20
205.300432
 30
0.0
 70
0
  0
VERTEX
  5
9D
  8
8
 10
-1721.231583
 20
205.45651
 30
0.0
 70
0
  0
VERTEX
  5
9E
  8
8
 10
-1704.283428
 20
205.601434
 30
0.0
 70
0
  0
VERTEX
  5
9F
  8
8
 10
-1688.858349
 20
205.715038
 30
0.0
 70
0
  0
VERTEX
  5
A0
  8
8
 10
-1672.983337
 20
205.812698
 30
0.0
 70
0
  0
VERTEX
  5
A1
  8
8
 10
-1656.759334
 20
205.890962
 30
0.0
 70
0
  0
VERTEX
  5
A2
  8
8
 10
-1640.287355
 20
205.946374
 30
0.0
 70
0
  0
VERTEX
  5
A3
  8
8
 10
-1623.668341
 20
205.975481
 30
0.0
 70
0
  0
VERTEX
  5
A4
  8
8
 10
-1614.794006
 20
205.97908
 30
0.0
 70
0
  0
SEQEND
  5
96
  8
8
  0
LINE
  5
A5
  8
7
 10
-1774.194183
 20
150.33844
 30
0.0
 11
-1649.785919
 21
150.33844
 31
0.0
  0
ENDSEC
  0
EOF
