  0
SECTION
  2
HEADER
  9
$ACADVER
  1
AC1009
  9
$DWGCODEPAGE
  3
ANSI_1252
  9
$INSBASE
 10
0.0
 20
0.0
 30
0.0
  9
$EXTMIN
 10
1e+20
 20
1e+20
 30
1e+20
  9
$EXTMAX
 10
-1e+20
 20
-1e+20
 30
-1e+20
  9
$LIMMIN
 10
0.0
 20
0.0
  9
$LIMMAX
 10
420.0
 20
297.0
  9
$ORTHOMODE
 70
0
  9
$REGENMODE
 70
1
  9
$FILLMODE
 70
1
  9
$DRAGMODE
 70
2
  9
$QTEXTMODE
 70
0
  9
$MIRRTEXT
 70
1
  9
$OSMODE
 70
20583
  9
$LTSCALE
 40
1.0
  9
$ATTMODE
 70
1
  9
$TEXTSIZE
 40
2.5
  9
$TRACEWID
 40
1.0
  9
$TEXTSTYLE
  7
Standard
  9
$CLAYER
  8
0
  9
$CELTYPE
  6
ByLayer
  9
$CECOLOR
 62
256
  9
$DIMSCALE
 40
1.0
  9
$DIMASZ
 40
2.5
  9
$DIMEXO
 40
0.625
  9
$DIMDLI
 40
3.75
  9
$DIMRND
 40
0.0
  9
$DIMDLE
 40
0.0
  9
$DIMEXE
 40
1.25
  9
$DIMTP
 40
0.0
  9
$DIMTM
 40
0.0
  9
$DIMTXT
 40
2.5
  9
$DIMCEN
 40
2.5
  9
$DIMTSZ
 40
0.0
  9
$DIMTOL
 70
0
  9
$DIMLIM
 70
0
  9
$DIMTIH
 70
0
  9
$DIMTOH
 70
0
  9
$DIMSE1
 70
0
  9
$DIMSE2
 70
0
  9
$DIMTAD
 70
1
  9
$DIMZIN
 70
8
  9
$DIMBLK
  1

  9
$DIMASO
 70
1
  9
$DIMSHO
 70
1
  9
$DIMPOST
  1

  9
$DIMAPOST
  1

  9
$DIMALT
 70
0
  9
$DIMALTD
 70
3
  9
$DIMALTF
 40
0.03937007874
  9
$DIMLFAC
 40
1.0
  9
$DIMTOFL
 70
1
  9
$DIMTVP
 40
0.0
  9
$DIMTIX
 70
0
  9
$DIMSOXD
 70
0
  9
$DIMSAH
 70
0
  9
$DIMBLK1
  1

  9
$DIMBLK2
  1

  9
$DIMSTYLE
  2
ISO-25
  9
$DIMCLRD
 70
0
  9
$DIMCLRE
 70
0
  9
$DIMCLRT
 70
0
  9
$DIMTFAC
 40
1.0
  9
$DIMGAP
 40
0.625
  9
$COORDS
 70
1
  9
$ATTDIA
 70
0
  9
$ATTREQ
 70
1
  9
$HANDLING
 70
1
  9
$LUNITS
 70
2
  9
$LUPREC
 70
4
  9
$SKETCHINC
 40
1.0
  9
$FILLETRAD
 40
10.0
  9
$AUNITS
 70
0
  9
$AUPREC
 70
2
  9
$MENU
  1
.
  9
$ELEVATION
 40
0.0
  9
$PELEVATION
 40
0.0
  9
$THICKNESS
 40
0.0
  9
$LIMCHECK
 70
0
  9
$CHAMFERA
 40
0.0
  9
$CHAMFERB
 40
0.0
  9
$SKPOLY
 70
0
  9
$TDCREATE
 40
2461259.4353935183
  9
$TDUPDATE
 40
2461259.4353935183
  9
$TDINDWG
 40
0.0
  9
$TDUSRTIMER
 40
0.0
  9
$USRTIMER
 70
1
  9
$ANGBASE
 50
0.0
  9
$ANGDIR
 70
0
  9
$PDMODE
 70
0
  9
$PDSIZE
 40
0.0
  9
$PLINEWID
 40
0.0
  9
$SPLFRAME
 70
0
  9
$SPLINETYPE
 70
6
  9
$SPLINESEGS
 70
8
  9
$HANDSEED
  5
10A
  9
$SURFTAB1
 70
6
  9
$SURFTAB2
 70
6
  9
$SURFTYPE
 70
6
  9
$SURFU
 70
6
  9
$SURFV
 70
6
  9
$UCSNAME
  2

  9
$UCSORG
 10
0.0
 20
0.0
 30
0.0
  9
$UCSXDIR
 10
1.0
 20
0.0
 30
0.0
  9
$UCSYDIR
 10
0.0
 20
1.0
 30
0.0
  9
$PUCSNAME
  2

  9
$PUCSORG
 10
0.0
 20
0.0
 30
0.0
  9
$PUCSXDIR
 10
1.0
 20
0.0
 30
0.0
  9
$PUCSYDIR
 10
0.0
 20
1.0
 30
0.0
  9
$USERI1
 70
0
  9
$USERI2
 70
0
  9
$USERI3
 70
0
  9
$USERI4
 70
0
  9
$USERI5
 70
0
  9
$USERR1
 40
0.0
  9
$USERR2
 40
0.0
  9
$USERR3
 40
0.0
  9
$USERR4
 40
0.0
  9
$USERR5
 40
0.0
  9
$WORLDVIEW
 70
1
  9
$SHADEDGE
 70
3
  9
$SHADEDIF
 70
70
  9
$TILEMODE
 70
1
  9
$MAXACTVP
 70
64
  9
$PLIMCHECK
 70
0
  9
$PEXTMIN
 10
1e+20
 20
1e+20
 30
1e+20
  9
$PEXTMAX
 10
-1e+20
 20
-1e+20
 30
-1e+20
  9
$PLIMMIN
 10
0.0
 20
0.0
  9
$PLIMMAX
 10
420.0
 20
297.0
  9
$UNITMODE
 70
0
  9
$VISRETAIN
 70
1
  9
$PLINEGEN
 70
0
  9
$PSLTSCALE
 70
1
  0
ENDSEC
  0
SECTION
  2
TABLES
  0
TABLE
  2
VPORT
 70
1
  0
VPORT
  5
23
  2
*Active
 70
0
 10
0.0
 20
0.0
 11
1.0
 21
1.0
 12
0.0
 22
0.0
 13
0.0
 23
0.0
 14
0.5
 24
0.5
 15
0.5
 25
0.5
 16
0.0
 26
0.0
 36
1.0
 17
0.0
 27
0.0
 37
0.0
 40
1000.0
 41
1.34
 42
50.0
 43
0.0
 44
0.0
 50
0.0
 51
0.0
 71
0
 72
1000
 73
1
 74
3
 75
0
 76
0
 77
0
 78
0
  0
ENDTAB
  0
TABLE
  2
LTYPE
 70
3
  0
LTYPE
  5
24
  2
ByBlock
 70
0
  3

 72
65
 73
0
 40
0.0
  0
LTYPE
  5
25
  2
ByLayer
 70
0
  3

 72
65
 73
0
 40
0.0
  0
LTYPE
  5
26
  2
Continuous
 70
0
  3

 72
65
 73
0
 40
0.0
  0
ENDTAB
  0
TABLE
  2
LAYER
 70
4
  0
LAYER
  5
27
  2
0
 70
0
 62
7
  6
Continuous
  0
LAYER
  5
28
  2
Defpoints
 70
0
 62
7
  6
Continuous
  0
LAYER
  5
2D
  2
1
 70
0
 62
1
  6
Continuous
  0
LAYER
  5
2E
  2
7
 70
0
 62
7
  6
Continuous
  0
ENDTAB
  0
TABLE
  2
STYLE
 70
1
  0
STYLE
  5
29
  2
Standard
 70
0
 40
0.0
 41
1.0
 50
0.0
 71
0
 42
2.5
  3
txt
  4

  0
ENDTAB
  0
TABLE
  2
VIEW
 70
0
  0
ENDTAB
  0
TABLE
  2
UCS
 70
0
  0
ENDTAB
  0
TABLE
  2
APPID
 70
3
  0
APPID
  5
2A
  2
ACAD
 70
0
  0
APPID
  5
108
  2
HATCHBACKGROUNDCOLOR
 70
0
  0
APPID
  5
109
  2
EZDXF
 70
0
  0
ENDTAB
  0
TABLE
  2
DIMSTYLE
 70
1
  0
DIMSTYLE
105
2B
  2
Standard
 70
0
  3

  4

  5

  6

  7

 40
1.0
 41
2.5
 42
0.625
 43
3.75
 44
1.25
 45
0.0
 46
0.0
 47
0.0
 48
0.0
140
2.5
141
2.5
142
0.0
143
0.03937007874
144
1.0
145
0.0
146
1.0
147
0.625
 71
0
 72
0
 73
0
 74
0
 75
0
 76
0
 77
1
 78
8
170
0
171
3
172
1
173
0
174
0
175
0
176
0
177
0
178
0
  0
ENDTAB
  0
ENDSEC
  0
SECTION
  2
BLOCKS
  0
BLOCK
  5
18
  8
0
  2
$Model_Space
 70
0
 10
0.0
 20
0.0
 30
0.0
  3
$Model_Space
  1

1001
EZDXF
1000
CREATED_BY_EZDXF
1000
1.4.4 @ 2026-08-06T02:26:58.243015+00:00
1000
WRITTEN_BY_EZDXF
1000
1.4.4 @ 2026-08-06T02:26:58.245014+00:00
  0
ENDBLK
  5
19
  8
0
  0
BLOCK
  5
1C
  8
0
  2
$Paper_Space
 70
0
 10
0.0
 20
0.0
 30
0.0
  3
$Paper_Space
  1

  0
ENDBLK
  5
1D
  8
0
  0
ENDSEC
  0
SECTION
  2
ENTITIES
  0
POLYLINE
  5
2F
  8
1
 66
1
 10
0.0
 20
0.0
 30
0.0
 70
1
  0
VERTEX
  5
31
  8
1
 10
-3009.532471
 20
-1255.791092
 30
0.0
 70
0
  0
VERTEX
  5
32
  8
1
 10
-3009.404602
 20
-1255.79689
 30
0.0
 70
0
  0
VERTEX
  5
33
  8
1
 10
-3011.681481
 20
-1255.694627
 30
0.0
 70
0
  0
VERTEX
  5
34
  8
1
 10
-3026.598658
 20
-1255.018571
 30
0.0
 70
0
  0
VERTEX
  5
35
  8
1
 10
-3041.879027
 20
-1254.313543
 30
0.0
 70
0
  0
VERTEX
  5
36
  8
1
 10
-3057.064294
 20
-1253.597507
 30
0.0
 70
0
  0
VERTEX
  5
37
  8
1
 10
-3072.151909
 20
-1252.874287
 30
0.0
 70
0
  0
VERTEX
  5
38
  8
1
 10
-3087.336151
 20
-1252.136904
 30
0.0
 70
0
  0
VERTEX
  5
39
  8
1
 10
-3102.641474
 20
-1251.383101
 30
0.0
 70
0
  0
VERTEX
  5
3A
  8
1
 10
-3117.824683
 20
-1250.624134
 30
0.0
 70
0
  0
VERTEX
  5
3B
  8
1
 10
-3133.211477
 20
-1249.843729
 30
0.0
 70
0
  0
VERTEX
  5
3C
  8
1
 10
-3148.393565
 20
-1249.062565
 30
0.0
 70
0
  0
VERTEX
  5
3D
  8
1
 10
-3163.83957
 20
-1248.256004
 30
0.0
 70
0
  0
VERTEX
  5
3E
  8
1
 10
-3179.020313
 20
-1247.451167
 30
0.0
 70
0
  0
VERTEX
  5
3F
  8
1
 10
-3194.355971
 20
-1246.62536
 30
0.0
 70
0
  0
VERTEX
  5
40
  8
1
 10
-3209.535419
 20
-1245.794747
 30
0.0
 70
0
  0
VERTEX
  5
41
  8
1
 10
-3224.881735
 20
-1244.940934
 30
0.0
 70
0
  0
VERTEX
  5
42
  8
1
 10
-3240.059645
 20
-1244.081685
 30
0.0
 70
0
  0
VERTEX
  5
43
  8
1
 10
-3255.104521
 20
-1243.214197
 30
0.0
 70
0
  0
VERTEX
  5
44
  8
1
 10
-3270.280469
 20
-1242.322336
 30
0.0
 70
0
  0
VERTEX
  5
45
  8
1
 10
-3285.47746
 20
-1241.412189
 30
0.0
 70
0
  0
VERTEX
  5
46
  8
1
 10
-3300.651427
 20
-1240.48685
 30
0.0
 70
0
  0
VERTEX
  5
47
  8
1
 10
-3315.965501
 20
-1239.537731
 30
0.0
 70
0
  0
VERTEX
  5
48
  8
1
 10
-3331.137583
 20
-1238.583712
 30
0.0
 70
0
  0
VERTEX
  5
49
  8
1
 10
-3346.433792
 20
-1237.608793
 30
0.0
 70
0
  0
VERTEX
  5
4A
  8
1
 10
-3361.604378
 20
-1236.629548
 30
0.0
 70
0
  0
VERTEX
  5
4B
  8
1
 10
-3376.889844
 20
-1235.631252
 30
0.0
 70
0
  0
VERTEX
  5
4C
  8
1
 10
-3392.058957
 20
-1234.629685
 30
0.0
 70
0
  0
VERTEX
  5
4D
  8
1
 10
-3407.177061
 20
-1233.621055
 30
0.0
 70
0
  0
VERTEX
  5
4E
  8
1
 10
-3422.344742
 20
-1232.598323
 30
0.0
 70
0
  0
VERTEX
  5
4F
  8
1
 10
-3437.632988
 20
-1231.554295
 30
0.0
 70
0
  0
VERTEX
  5
50
  8
1
 10
-3452.798831
 20
-1230.505115
 30
0.0
 70
0
  0
VERTEX
  5
51
  8
1
 10
-3466.614685
 20
-1229.542847
 30
0.0
 70
0
  0
VERTEX
  5
52
  8
1
 10
-3467.805903
 20
-1229.459856
 30
0.0
 70
0
  0
VERTEX
  5
53
  8
1
 10
-3482.839027
 20
-1228.411856
 30
0.0
 70
0
  0
VERTEX
  5
54
  8
1
 10
-3498.357849
 20
-1227.33017
 30
0.0
 70
0
  0
VERTEX
  5
55
  8
1
 10
-3498.307713
 20
-1211.776834
 30
0.0
 70
0
  0
VERTEX
  5
56
  8
1
 10
-3498.258574
 20
-1196.52033
 30
0.0
 70
0
  0
VERTEX
  5
57
  8
1
 10
-3498.210179
 20
-1181.494492
 30
0.0
 70
0
  0
VERTEX
  5
58
  8
1
 10
-3498.161004
 20
-1166.237985
 30
0.0
 70
0
  0
VERTEX
  5
59
  8
1
 10
-3498.111777
 20
-1150.981479
 30
0.0
 70
0
  0
VERTEX
  5
5A
  8
1
 10
-3498.063083
 20
-1135.909373
 30
0.0
 70
0
  0
VERTEX
  5
5B
  8
1
 10
-3498.013743
 20
-1120.652862
 30
0.0
 70
0
  0
VERTEX
  5
5C
  8
1
 10
-3497.964842
 20
-1105.543828
 30
0.0
 70
0
  0
VERTEX
  5
5D
  8
1
 10
-3497.915411
 20
-1090.287309
 30
0.0
 70
0
  0
VERTEX
  5
5E
  8
1
 10
-3497.866293
 20
-1075.152186
 30
0.0
 70
0
  0
VERTEX
  5
5F
  8
1
 10
-3497.816702
 20
-1059.895693
 30
0.0
 70
0
  0
VERTEX
  5
60
  8
1
 10
-3497.767312
 20
-1044.713348
 30
0.0
 70
0
  0
VERTEX
  5
61
  8
1
 10
-3497.717666
 20
-1029.45684
 30
0.0
 70
0
  0
VERTEX
  5
62
  8
1
 10
-3497.66821
 20
-1014.26661
 30
0.0
 70
0
  0
VERTEX
  5
63
  8
1
 10
-3497.618496
 20
-999.010121
 30
0.0
 70
0
  0
VERTEX
  5
64
  8
1
 10
-3497.568713
 20
-983.753598
 30
0.0
 70
0
  0
VERTEX
  5
65
  8
1
 10
-3497.519176
 20
-968.600892
 30
0.0
 70
0
  0
VERTEX
  5
66
  8
1
 10
-3497.469587
 20
-953.466164
 30
0.0
 70
0
  0
VERTEX
  5
67
  8
1
 10
-3497.461243
 20
-950.922318
 30
0.0
 70
0
  0
VERTEX
  5
68
  8
1
 10
-3482.031411
 20
-950.102588
 30
0.0
 70
0
  0
VERTEX
  5
69
  8
1
 10
-3466.805522
 20
-949.293692
 30
0.0
 70
0
  0
VERTEX
  5
6A
  8
1
 10
-3465.705566
 20
-949.235229
 30
0.0
 70
0
  0
VERTEX
  5
6B
  8
1
 10
-3451.52558
 20
-948.481924
 30
0.0
 70
0
  0
VERTEX
  5
6C
  8
1
 10
-3436.133543
 20
-947.664212
 30
0.0
 70
0
  0
VERTEX
  5
6D
  8
1
 10
-3420.713181
 20
-946.845016
 30
0.0
 70
0
  0
VERTEX
  5
6E
  8
1
 10
-3405.321109
 20
-946.027324
 30
0.0
 70
0
  0
VERTEX
  5
6F
  8
1
 10
-3390.255234
 20
-945.226944
 30
0.0
 70
0
  0
VERTEX
  5
70
  8
1
 10
-3374.863117
 20
-944.409221
 30
0.0
 70
0
  0
VERTEX
  5
71
  8
1
 10
-3359.611773
 20
-943.598977
 30
0.0
 70
0
  0
VERTEX
  5
72
  8
1
 10
-3344.219749
 20
-942.781271
 30
0.0
 70
0
  0
VERTEX
  5
73
  8
1
 10
-3328.831296
 20
-941.963773
 30
0.0
 70
0
  0
VERTEX
  5
74
  8
1
 10
-3313.439241
 20
-941.146084
 30
0.0
 70
0
  0
VERTEX
  5
75
  8
1
 10
-3298.018902
 20
-940.326875
 30
0.0
 70
0
  0
VERTEX
  5
76
  8
1
 10
-3282.62693
 20
-939.509163
 30
0.0
 70
0
  0
VERTEX
  5
77
  8
1
 10
-3267.254806
 20
-938.692509
 30
0.0
 70
0
  0
VERTEX
  5
78
  8
1
 10
-3251.86279
 20
-937.874804
 30
0.0
 70
0
  0
VERTEX
  5
79
  8
1
 10
-3236.613017
 20
-937.064659
 30
0.0
 70
0
  0
VERTEX
  5
7A
  8
1
 10
-3221.220997
 20
-936.246952
 30
0.0
 70
0
  0
VERTEX
  5
7B
  8
1
 10
-3206.19981
 20
-935.448934
 30
0.0
 70
0
  0
VERTEX
  5
7C
  8
1
 10
-3190.80784
 20
-934.63122
 30
0.0
 70
0
  0
VERTEX
  5
7D
  8
1
 10
-3175.387531
 20
-933.812019
 30
0.0
 70
0
  0
VERTEX
  5
7E
  8
1
 10
-3159.995498
 20
-932.994327
 30
0.0
 70
0
  0
VERTEX
  5
7F
  8
1
 10
-3144.692676
 20
-932.181371
 30
0.0
 70
0
  0
VERTEX
  5
80
  8
1
 10
-3129.300639
 20
-931.363672
 30
0.0
 70
0
  0
VERTEX
  5
81
  8
1
 10
-3114.318864
 20
-930.567771
 30
0.0
 70
0
  0
VERTEX
  5
82
  8
1
 10
-3098.926816
 20
-929.750073
 30
0.0
 70
0
  0
VERTEX
  5
83
  8
1
 10
-3083.875681
 20
-928.950481
 30
0.0
 70
0
  0
VERTEX
  5
84
  8
1
 10
-3068.483576
 20
-928.132769
 30
0.0
 70
0
  0
VERTEX
  5
85
  8
1
 10
-3053.469127
 20
-927.335115
 30
0.0
 70
0
  0
VERTEX
  5
86
  8
1
 10
-3038.076997
 20
-926.517399
 30
0.0
 70
0
  0
VERTEX
  5
87
  8
1
 10
-3022.684999
 20
-925.699699
 30
0.0
 70
0
  0
VERTEX
  5
88
  8
1
 10
-3009.505615
 20
-924.999542
 30
0.0
 70
0
  0
VERTEX
  5
89
  8
1
 10
-3010.208435
 20
-925.039215
 30
0.0
 70
0
  0
VERTEX
  5
8A
  8
1
 10
-2994.829942
 20
-922.492037
 30
0.0
 70
0
  0
VERTEX
  5
8B
  8
1
 10
-2979.718178
 20
-919.890402
 30
0.0
 70
0
  0
VERTEX
  5
8C
  8
1
 10
-2964.927296
 20
-917.215097
 30
0.0
 70
0
  0
VERTEX
  5
8D
  8
1
 10
-2949.727608
 20
-914.329889
 30
0.0
 70
0
  0
VERTEX
  5
8E
  8
1
 10
-2935.005882
 20
-911.408877
 30
0.0
 70
0
  0
VERTEX
  5
8F
  8
1
 10
-2919.86042
 20
-908.252725
 30
0.0
 70
0
  0
VERTEX
  5
90
  8
1
 10
-2905.11507
 20
-905.006809
 30
0.0
 70
0
  0
VERTEX
  5
91
  8
1
 10
-2890.196316
 20
-901.52816
 30
0.0
 70
0
  0
VERTEX
  5
92
  8
1
 10
-2875.178281
 20
-897.811347
 30
0.0
 70
0
  0
VERTEX
  5
93
  8
1
 10
-2860.312443
 20
-893.91239
 30
0.0
 70
0
  0
VERTEX
  5
94
  8
1
 10
-2845.404324
 20
-889.77597
 30
0.0
 70
0
  0
VERTEX
  5
95
  8
1
 10
-2830.580227
 20
-885.424959
 30
0.0
 70
0
  0
VERTEX
  5
96
  8
1
 10
-2815.803494
 20
-880.841809
 30
0.0
 70
0
  0
VERTEX
  5
97
  8
1
 10
-2801.14133
 20
-876.057947
 30
0.0
 70
0
  0
VERTEX
  5
98
  8
1
 10
-2786.499362
 20
-871.061763
 30
0.0
 70
0
  0
VERTEX
  5
99
  8
1
 10
-2772.015409
 20
-865.937565
 30
0.0
 70
0
  0
VERTEX
  5
9A
  8
1
 10
-2757.480913
 20
-860.636223
 30
0.0
 70
0
  0
VERTEX
  5
9B
  8
1
 10
-2743.044245
 20
-855.194829
 30
0.0
 70
0
  0
VERTEX
  5
9C
  8
1
 10
-2728.627346
 20
-849.582364
 30
0.0
 70
0
  0
VERTEX
  5
9D
  8
1
 10
-2718.734131
 20
-845.643158
 30
0.0
 70
0
  0
VERTEX
  5
9E
  8
1
 10
-2714.255541
 20
-843.859979
 30
0.0
 70
0
  0
VERTEX
  5
9F
  8
1
 10
-2700.510591
 20
-838.320046
 30
0.0
 70
0
  0
VERTEX
  5
A0
  8
1
 10
-2697.742615
 20
-837.198029
 30
0.0
 70
0
  0
VERTEX
  5
A1
  8
1
 10
-2690.22522
 20
-840.945892
 30
0.0
 70
0
  0
VERTEX
  5
A2
  8
1
 10
-2688.404011
 20
-848.56189
 30
0.0
 70
0
  0
VERTEX
  5
A3
  8
1
 10
-2686.511022
 20
-855.407465
 30
0.0
 70
0
  0
VERTEX
  5
A4
  8
1
 10
-2684.644148
 20
-861.30155
 30
0.0
 70
0
  0
VERTEX
  5
A5
  8
1
 10
-2682.657543
 20
-866.749666
 30
0.0
 70
0
  0
VERTEX
  5
A6
  8
1
 10
-2680.47155
 20
-872.025148
 30
0.0
 70
0
  0
VERTEX
  5
A7
  8
1
 10
-2678.149243
 20
-877.005862
 30
0.0
 70
0
  0
VERTEX
  5
A8
  8
1
 10
-2675.714099
 20
-881.658699
 30
0.0
 70
0
  0
VERTEX
  5
A9
  8
1
 10
-2673.138224
 20
-886.047653
 30
0.0
 70
0
  0
VERTEX
  5
AA
  8
1
 10
-2670.509362
 20
-890.04454
 30
0.0
 70
0
  0
VERTEX
  5
AB
  8
1
 10
-2667.819659
 20
-893.692637
 30
0.0
 70
0
  0
VERTEX
  5
AC
  8
1
 10
-2665.105681
 20
-896.970689
 30
0.0
 70
0
  0
VERTEX
  5
AD
  8
1
 10
-2662.307397
 20
-899.968779
 30
0.0
 70
0
  0
VERTEX
  5
AE
  8
1
 10
-2659.45092
 20
-902.665063
 30
0.0
 70
0
  0
VERTEX
  5
AF
  8
1
 10
-2656.563748
 20
-905.046797
 30
0.0
 70
0
  0
VERTEX
  5
B0
  8
1
 10
-2653.440286
 20
-907.282079
 30
0.0
 70
0
  0
VERTEX
  5
B1
  8
1
 10
-2649.943452
 20
-909.457924
 30
0.0
 70
0
  0
VERTEX
  5
B2
  8
1
 10
-2646.151772
 20
-911.518348
 30
0.0
 70
0
  0
VERTEX
  5
B3
  8
1
 10
-2641.878293
 20
-913.550089
 30
0.0
 70
0
  0
VERTEX
  5
B4
  8
1
 10
-2637.102969
 20
-915.531941
 30
0.0
 70
0
  0
VERTEX
  5
B5
  8
1
 10
-2631.792751
 20
-917.453651
 30
0.0
 70
0
  0
VERTEX
  5
B6
  8
1
 10
-2625.849196
 20
-919.326943
 30
0.0
 70
0
  0
VERTEX
  5
B7
  8
1
 10
-2619.225781
 20
-921.144364
 30
0.0
 70
0
  0
VERTEX
  5
B8
  8
1
 10
-2611.773933
 20
-922.917538
 30
0.0
 70
0
  0
VERTEX
  5
B9
  8
1
 10
-2602.92482
 20
-924.750411
 30
0.0
 70
0
  0
VERTEX
  5
BA
  8
1
 10
-2593.051726
 20
-926.541502
 30
0.0
 70
0
  0
VERTEX
  5
BB
  8
1
 10
-2590.689697
 20
-926.929779
 30
0.0
 70
0
  0
VERTEX
  5
BC
  8
1
 10
-2575.493153
 20
-930.036568
 30
0.0
 70
0
  0
VERTEX
  5
BD
  8
1
 10
-2560.586921
 20
-933.085806
 30
0.0
 70
0
  0
VERTEX
  5
BE
  8
1
 10
-2545.435172
 20
-936.187761
 30
0.0
 70
0
  0
VERTEX
  5
BF
  8
1
 10
-2530.296091
 20
-939.289904
 30
0.0
 70
0
  0
VERTEX
  5
C0
  8
1
 10
-2515.413233
 20
-942.342267
 30
0.0
 70
0
  0
VERTEX
  5
C1
  8
1
 10
-2500.27533
 20
-945.450003
 30
0.0
 70
0
  0
VERTEX
  5
C2
  8
1
 10
-2485.142351
 20
-948.560201
 30
0.0
 70
0
  0
VERTEX
  5
C3
  8
1
 10
-2470.005824
 20
-951.674508
 30
0.0
 70
0
  0
VERTEX
  5
C4
  8
1
 10
-2455.155059
 20
-954.732921
 30
0.0
 70
0
  0
VERTEX
  5
C5
  8
1
 10
-2440.01958
 20
-957.852365
 30
0.0
 70
0
  0
VERTEX
  5
C6
  8
1
 10
-2424.884436
 20
-960.973485
 30
0.0
 70
0
  0
VERTEX
  5
C7
  8
1
 10
-2423.715668
 20
-961.2146
 30
0.0
 70
0
  0
VERTEX
  5
C8
  8
1
 10
-2411.11557
 20
-963.813782
 30
0.0
 70
0
  0
VERTEX
  5
C9
  8
1
 10
-2411.776029
 20
-979.307425
 30
0.0
 70
0
  0
VERTEX
  5
CA
  8
1
 10
-2411.80603
 20
-980.010376
 30
0.0
 70
0
  0
VERTEX
  5
CB
  8
1
 10
-2412.422777
 20
-994.490841
 30
0.0
 70
0
  0
VERTEX
  5
CC
  8
1
 10
-2413.067176
 20
-1009.674352
 30
0.0
 70
0
  0
VERTEX
  5
CD
  8
1
 10
-2413.718163
 20
-1025.11365
 30
0.0
 70
0
  0
VERTEX
  5
CE
  8
1
 10
-2414.354366
 20
-1040.297518
 30
0.0
 70
0
  0
VERTEX
  5
CF
  8
1
 10
-2414.984264
 20
-1055.404899
 30
0.0
 70
0
  0
VERTEX
  5
D0
  8
1
 10
-2415.614402
 20
-1070.589037
 30
0.0
 70
0
  0
VERTEX
  5
D1
  8
1
 10
-2416.237572
 20
-1085.682985
 30
0.0
 70
0
  0
VERTEX
  5
D2
  8
1
 10
-2416.861043
 20
-1100.86739
 30
0.0
 70
0
  0
VERTEX
  5
D3
  8
1
 10
-2417.483304
 20
-1116.10895
 30
0.0
 70
0
  0
VERTEX
  5
D4
  8
1
 10
-2418.099563
 20
-1131.293633
 30
0.0
 70
0
  0
VERTEX
  5
D5
  8
1
 10
-2418.70655
 20
-1146.344336
 30
0.0
 70
0
  0
VERTEX
  5
D6
  8
1
 10
-2419.314771
 20
-1161.529345
 30
0.0
 70
0
  0
VERTEX
  5
D7
  8
1
 10
-2419.918193
 20
-1176.712443
 30
0.0
 70
0
  0
VERTEX
  5
D8
  8
1
 10
-2420.46524
 20
-1190.587234
 30
0.0
 70
0
  0
VERTEX
  5
D9
  8
1
 10
-2420.516645
 20
-1191.89783
 30
0.0
 70
0
  0
VERTEX
  5
DA
  8
1
 10
-2421.110479
 20
-1207.083413
 30
0.0
 70
0
  0
VERTEX
  5
DB
  8
1
 10
-2421.705882
 20
-1222.414351
 30
0.0
 70
0
  0
VERTEX
  5
DC
  8
1
 10
-2422.291773
 20
-1237.600232
 30
0.0
 70
0
  0
VERTEX
  5
DD
  8
1
 10
-2422.880827
 20
-1252.965555
 30
0.0
 70
0
  0
VERTEX
  5
DE
  8
1
 10
-2423.459005
 20
-1268.100186
 30
0.0
 70
0
  0
VERTEX
  5
DF
  8
1
 10
-2423.722534
 20
-1275.001602
 30
0.0
 70
0
  0
VERTEX
  5
E0
  8
1
 10
-2430.145485
 20
-1275.466177
 30
0.0
 70
0
  0
VERTEX
  5
E1
  8
1
 10
-2436.465607
 20
-1275.905533
 30
0.0
 70
0
  0
VERTEX
  5
E2
  8
1
 10
-2445.106523
 20
-1276.506232
 30
0.0
 70
0
  0
VERTEX
  5
E3
  8
1
 10
-2460.303409
 20
-1277.496079
 30
0.0
 70
0
  0
VERTEX
  5
E4
  8
1
 10
-2475.556856
 20
-1278.394942
 30
0.0
 70
0
  0
VERTEX
  5
E5
  8
1
 10
-2490.631705
 20
-1279.173322
 30
0.0
 70
0
  0
VERTEX
  5
E6
  8
1
 10
-2505.897405
 20
-1279.835608
 30
0.0
 70
0
  0
VERTEX
  5
E7
  8
1
 10
-2521.196323
 20
-1280.355422
 30
0.0
 70
0
  0
VERTEX
  5
E8
  8
1
 10
-2536.471944
 20
-1280.720351
 30
0.0
 70
0
  0
VERTEX
  5
E9
  8
1
 10
-2551.740396
 20
-1280.940981
 30
0.0
 70
0
  0
VERTEX
  5
EA
  8
1
 10
-2567.020157
 20
-1281.030381
 30
0.0
 70
0
  0
VERTEX
  5
EB
  8
1
 10
-2582.248275
 20
-1280.999906
 30
0.0
 70
0
  0
VERTEX
  5
EC
  8
1
 10
-2597.527577
 20
-1280.861295
 30
0.0
 70
0
  0
VERTEX
  5
ED
  8
1
 10
-2612.680496
 20
-1280.631705
 30
0.0
 70
0
  0
VERTEX
  5
EE
  8
1
 10
-2627.957119
 20
-1280.318291
 30
0.0
 70
0
  0
VERTEX
  5
EF
  8
1
 10
-2643.29303
 20
-1279.918089
 30
0.0
 70
0
  0
VERTEX
  5
F0
  8
1
 10
-2658.564971
 20
-1279.42113
 30
0.0
 70
0
  0
VERTEX
  5
F1
  8
1
 10
-2674.059739
 20
-1278.776835
 30
0.0
 70
0
  0
VERTEX
  5
F2
  8
1
 10
-2689.318598
 20
-1277.974079
 30
0.0
 70
0
  0
VERTEX
  5
F3
  8
1
 10
-2704.764911
 20
-1277.005636
 30
0.0
 70
0
  0
VERTEX
  5
F4
  8
1
 10
-2720.006803
 20
-1275.929342
 30
0.0
 70
0
  0
VERTEX
  5
F5
  8
1
 10
-2735.207458
 20
-1274.801464
 30
0.0
 70
0
  0
VERTEX
  5
F6
  8
1
 10
-2750.445544
 20
-1273.673279
 30
0.0
 70
0
  0
VERTEX
  5
F7
  8
1
 10
-2765.457842
 20
-1272.574179
 30
0.0
 70
0
  0
VERTEX
  5
F8
  8
1
 10
-2780.697766
 20
-1271.470718
 30
0.0
 70
0
  0
VERTEX
  5
F9
  8
1
 10
-2796.135196
 20
-1270.362647
 30
0.0
 70
0
  0
VERTEX
  5
FA
  8
1
 10
-2811.376286
 20
-1269.275627
 30
0.0
 70
0
  0
VERTEX
  5
FB
  8
1
 10
-2826.365674
 20
-1268.213733
 30
0.0
 70
0
  0
VERTEX
  5
FC
  8
1
 10
-2841.607899
 20
-1267.141977
 30
0.0
 70
0
  0
VERTEX
  5
FD
  8
1
 10
-2856.887274
 20
-1266.075205
 30
0.0
 70
0
  0
VERTEX
  5
FE
  8
1
 10
-2872.130539
 20
-1265.017814
 30
0.0
 70
0
  0
VERTEX
  5
FF
  8
1
 10
-2887.457195
 20
-1263.961397
 30
0.0
 70
0
  0
VERTEX
  5
100
  8
1
 10
-2902.701285
 20
-1262.917373
 30
0.0
 70
0
  0
VERTEX
  5
101
  8
1
 10
-2917.945781
 20
-1261.879924
 30
0.0
 70
0
  0
VERTEX
  5
102
  8
1
 10
-2933.087747
 20
-1260.855868
 30
0.0
 70
0
  0
VERTEX
  5
103
  8
1
 10
-2948.391841
 20
-1259.827118
 30
0.0
 70
0
  0
VERTEX
  5
104
  8
1
 10
-2963.637686
 20
-1258.808669
 30
0.0
 70
0
  0
VERTEX
  5
105
  8
1
 10
-2978.884087
 20
-1257.798142
 30
0.0
 70
0
  0
VERTEX
  5
106
  8
1
 10
-2993.777136
 20
-1256.819516
 30
0.0
 70
0
  0
SEQEND
  5
30
  8
1
  0
LINE
  5
107
  8
7
 10
-3387.257385
 20
-1086.681671
 30
0.0
 11
-2519.147034
 21
-1086.681671
 31
0.0
  0
ENDSEC
  0
EOF
