  0
SECTION
  2
HEADER
  9
$ACADVER
  1
AC1009
  9
$DWGCODEPAGE
  3
ANSI_1252
  9
$INSBASE
 10
0.0
 20
0.0
 30
0.0
  9
$EXTMIN
 10
1e+20
 20
1e+20
 30
1e+20
  9
$EXTMAX
 10
-1e+20
 20
-1e+20
 30
-1e+20
  9
$LIMMIN
 10
0.0
 20
0.0
  9
$LIMMAX
 10
420.0
 20
297.0
  9
$ORTHOMODE
 70
0
  9
$REGENMODE
 70
1
  9
$FILLMODE
 70
1
  9
$DRAGMODE
 70
2
  9
$QTEXTMODE
 70
0
  9
$MIRRTEXT
 70
1
  9
$OSMODE
 70
20583
  9
$LTSCALE
 40
1.0
  9
$ATTMODE
 70
1
  9
$TEXTSIZE
 40
2.5
  9
$TRACEWID
 40
1.0
  9
$TEXTSTYLE
  7
Standard
  9
$CLAYER
  8
0
  9
$CELTYPE
  6
ByLayer
  9
$CECOLOR
 62
256
  9
$DIMSCALE
 40
1.0
  9
$DIMASZ
 40
2.5
  9
$DIMEXO
 40
0.625
  9
$DIMDLI
 40
3.75
  9
$DIMRND
 40
0.0
  9
$DIMDLE
 40
0.0
  9
$DIMEXE
 40
1.25
  9
$DIMTP
 40
0.0
  9
$DIMTM
 40
0.0
  9
$DIMTXT
 40
2.5
  9
$DIMCEN
 40
2.5
  9
$DIMTSZ
 40
0.0
  9
$DIMTOL
 70
0
  9
$DIMLIM
 70
0
  9
$DIMTIH
 70
0
  9
$DIMTOH
 70
0
  9
$DIMSE1
 70
0
  9
$DIMSE2
 70
0
  9
$DIMTAD
 70
1
  9
$DIMZIN
 70
8
  9
$DIMBLK
  1

  9
$DIMASO
 70
1
  9
$DIMSHO
 70
1
  9
$DIMPOST
  1

  9
$DIMAPOST
  1

  9
$DIMALT
 70
0
  9
$DIMALTD
 70
3
  9
$DIMALTF
 40
0.03937007874
  9
$DIMLFAC
 40
1.0
  9
$DIMTOFL
 70
1
  9
$DIMTVP
 40
0.0
  9
$DIMTIX
 70
0
  9
$DIMSOXD
 70
0
  9
$DIMSAH
 70
0
  9
$DIMBLK1
  1

  9
$DIMBLK2
  1

  9
$DIMSTYLE
  2
ISO-25
  9
$DIMCLRD
 70
0
  9
$DIMCLRE
 70
0
  9
$DIMCLRT
 70
0
  9
$DIMTFAC
 40
1.0
  9
$DIMGAP
 40
0.625
  9
$COORDS
 70
1
  9
$ATTDIA
 70
0
  9
$ATTREQ
 70
1
  9
$HANDLING
 70
1
  9
$LUNITS
 70
2
  9
$LUPREC
 70
4
  9
$SKETCHINC
 40
1.0
  9
$FILLETRAD
 40
10.0
  9
$AUNITS
 70
0
  9
$AUPREC
 70
2
  9
$MENU
  1
.
  9
$ELEVATION
 40
0.0
  9
$PELEVATION
 40
0.0
  9
$THICKNESS
 40
0.0
  9
$LIMCHECK
 70
0
  9
$CHAMFERA
 40
0.0
  9
$CHAMFERB
 40
0.0
  9
$SKPOLY
 70
0
  9
$TDCREATE
 40
2461259.4353819443
  9
$TDUPDATE
 40
2461259.4353819443
  9
$TDINDWG
 40
0.0
  9
$TDUSRTIMER
 40
0.0
  9
$USRTIMER
 70
1
  9
$ANGBASE
 50
0.0
  9
$ANGDIR
 70
0
  9
$PDMODE
 70
0
  9
$PDSIZE
 40
0.0
  9
$PLINEWID
 40
0.0
  9
$SPLFRAME
 70
0
  9
$SPLINETYPE
 70
6
  9
$SPLINESEGS
 70
8
  9
$HANDSEED
  5
102
  9
$SURFTAB1
 70
6
  9
$SURFTAB2
 70
6
  9
$SURFTYPE
 70
6
  9
$SURFU
 70
6
  9
$SURFV
 70
6
  9
$UCSNAME
  2

  9
$UCSORG
 10
0.0
 20
0.0
 30
0.0
  9
$UCSXDIR
 10
1.0
 20
0.0
 30
0.0
  9
$UCSYDIR
 10
0.0
 20
1.0
 30
0.0
  9
$PUCSNAME
  2

  9
$PUCSORG
 10
0.0
 20
0.0
 30
0.0
  9
$PUCSXDIR
 10
1.0
 20
0.0
 30
0.0
  9
$PUCSYDIR
 10
0.0
 20
1.0
 30
0.0
  9
$USERI1
 70
0
  9
$USERI2
 70
0
  9
$USERI3
 70
0
  9
$USERI4
 70
0
  9
$USERI5
 70
0
  9
$USERR1
 40
0.0
  9
$USERR2
 40
0.0
  9
$USERR3
 40
0.0
  9
$USERR4
 40
0.0
  9
$USERR5
 40
0.0
  9
$WORLDVIEW
 70
1
  9
$SHADEDGE
 70
3
  9
$SHADEDIF
 70
70
  9
$TILEMODE
 70
1
  9
$MAXACTVP
 70
64
  9
$PLIMCHECK
 70
0
  9
$PEXTMIN
 10
1e+20
 20
1e+20
 30
1e+20
  9
$PEXTMAX
 10
-1e+20
 20
-1e+20
 30
-1e+20
  9
$PLIMMIN
 10
0.0
 20
0.0
  9
$PLIMMAX
 10
420.0
 20
297.0
  9
$UNITMODE
 70
0
  9
$VISRETAIN
 70
1
  9
$PLINEGEN
 70
0
  9
$PSLTSCALE
 70
1
  0
ENDSEC
  0
SECTION
  2
TABLES
  0
TABLE
  2
VPORT
 70
1
  0
VPORT
  5
23
  2
*Active
 70
0
 10
0.0
 20
0.0
 11
1.0
 21
1.0
 12
0.0
 22
0.0
 13
0.0
 23
0.0
 14
0.5
 24
0.5
 15
0.5
 25
0.5
 16
0.0
 26
0.0
 36
1.0
 17
0.0
 27
0.0
 37
0.0
 40
1000.0
 41
1.34
 42
50.0
 43
0.0
 44
0.0
 50
0.0
 51
0.0
 71
0
 72
1000
 73
1
 74
3
 75
0
 76
0
 77
0
 78
0
  0
ENDTAB
  0
TABLE
  2
LTYPE
 70
3
  0
LTYPE
  5
24
  2
ByBlock
 70
0
  3

 72
65
 73
0
 40
0.0
  0
LTYPE
  5
25
  2
ByLayer
 70
0
  3

 72
65
 73
0
 40
0.0
  0
LTYPE
  5
26
  2
Continuous
 70
0
  3

 72
65
 73
0
 40
0.0
  0
ENDTAB
  0
TABLE
  2
LAYER
 70
4
  0
LAYER
  5
27
  2
0
 70
0
 62
7
  6
Continuous
  0
LAYER
  5
28
  2
Defpoints
 70
0
 62
7
  6
Continuous
  0
LAYER
  5
2D
  2
1
 70
0
 62
1
  6
Continuous
  0
LAYER
  5
2E
  2
7
 70
0
 62
7
  6
Continuous
  0
ENDTAB
  0
TABLE
  2
STYLE
 70
1
  0
STYLE
  5
29
  2
Standard
 70
0
 40
0.0
 41
1.0
 50
0.0
 71
0
 42
2.5
  3
txt
  4

  0
ENDTAB
  0
TABLE
  2
VIEW
 70
0
  0
ENDTAB
  0
TABLE
  2
UCS
 70
0
  0
ENDTAB
  0
TABLE
  2
APPID
 70
3
  0
APPID
  5
2A
  2
ACAD
 70
0
  0
APPID
  5
100
  2
HATCHBACKGROUNDCOLOR
 70
0
  0
APPID
  5
101
  2
EZDXF
 70
0
  0
ENDTAB
  0
TABLE
  2
DIMSTYLE
 70
1
  0
DIMSTYLE
105
2B
  2
Standard
 70
0
  3

  4

  5

  6

  7

 40
1.0
 41
2.5
 42
0.625
 43
3.75
 44
1.25
 45
0.0
 46
0.0
 47
0.0
 48
0.0
140
2.5
141
2.5
142
0.0
143
0.03937007874
144
1.0
145
0.0
146
1.0
147
0.625
 71
0
 72
0
 73
0
 74
0
 75
0
 76
0
 77
1
 78
8
170
0
171
3
172
1
173
0
174
0
175
0
176
0
177
0
178
0
  0
ENDTAB
  0
ENDSEC
  0
SECTION
  2
BLOCKS
  0
BLOCK
  5
18
  8
0
  2
$Model_Space
 70
0
 10
0.0
 20
0.0
 30
0.0
  3
$Model_Space
  1

1001
EZDXF
1000
CREATED_BY_EZDXF
1000
1.4.4 @ 2026-08-06T02:26:57.965384+00:00
1000
WRITTEN_BY_EZDXF
1000
1.4.4 @ 2026-08-06T02:26:57.968385+00:00
  0
ENDBLK
  5
19
  8
0
  0
BLOCK
  5
1C
  8
0
  2
$Paper_Space
 70
0
 10
0.0
 20
0.0
 30
0.0
  3
$Paper_Space
  1

  0
ENDBLK
  5
1D
  8
0
  0
ENDSEC
  0
SECTION
  2
ENTITIES
  0
POLYLINE
  5
2F
  8
1
 66
1
 10
0.0
 20
0.0
 30
0.0
 70
1
  0
VERTEX
  5
31
  8
1
 10
-3009.393616
 20
-1240.557861
 30
0.0
 70
0
  0
VERTEX
  5
32
  8
1
 10
-3009.278259
 20
-1240.561905
 30
0.0
 70
0
  0
VERTEX
  5
33
  8
1
 10
-3011.616237
 20
-1240.480251
 30
0.0
 70
0
  0
VERTEX
  5
34
  8
1
 10
-3026.500978
 20
-1239.954066
 30
0.0
 70
0
  0
VERTEX
  5
35
  8
1
 10
-3041.73939
 20
-1239.403067
 30
0.0
 70
0
  0
VERTEX
  5
36
  8
1
 10
-3056.935767
 20
-1238.838204
 30
0.0
 70
0
  0
VERTEX
  5
37
  8
1
 10
-3072.006514
 20
-1238.266145
 30
0.0
 70
0
  0
VERTEX
  5
38
  8
1
 10
-3087.20209
 20
-1237.679838
 30
0.0
 70
0
  0
VERTEX
  5
39
  8
1
 10
-3102.510718
 20
-1237.078674
 30
0.0
 70
0
  0
VERTEX
  5
3A
  8
1
 10
-3117.705381
 20
-1236.470792
 30
0.0
 70
0
  0
VERTEX
  5
3B
  8
1
 10
-3133.073923
 20
-1235.844691
 30
0.0
 70
0
  0
VERTEX
  5
3C
  8
1
 10
-3148.267661
 20
-1235.21457
 30
0.0
 70
0
  0
VERTEX
  5
3D
  8
1
 10
-3163.700245
 20
-1234.562772
 30
0.0
 70
0
  0
VERTEX
  5
3E
  8
1
 10
-3178.893028
 20
-1233.909004
 30
0.0
 70
0
  0
VERTEX
  5
3F
  8
1
 10
-3194.214947
 20
-1233.236934
 30
0.0
 70
0
  0
VERTEX
  5
40
  8
1
 10
-3209.406613
 20
-1232.557331
 30
0.0
 70
0
  0
VERTEX
  5
41
  8
1
 10
-3224.736051
 20
-1231.857527
 30
0.0
 70
0
  0
VERTEX
  5
42
  8
1
 10
-3239.926474
 20
-1231.149297
 30
0.0
 70
0
  0
VERTEX
  5
43
  8
1
 10
-3254.95897
 20
-1230.432692
 30
0.0
 70
0
  0
VERTEX
  5
44
  8
1
 10
-3270.147816
 20
-1229.691781
 30
0.0
 70
0
  0
VERTEX
  5
45
  8
1
 10
-3285.331844
 20
-1228.934093
 30
0.0
 70
0
  0
VERTEX
  5
46
  8
1
 10
-3300.518976
 20
-1228.159698
 30
0.0
 70
0
  0
VERTEX
  5
47
  8
1
 10
-3315.818674
 20
-1227.364351
 30
0.0
 70
0
  0
VERTEX
  5
48
  8
1
 10
-3331.004247
 20
-1226.561249
 30
0.0
 70
0
  0
VERTEX
  5
49
  8
1
 10
-3346.285653
 20
-1225.740026
 30
0.0
 70
0
  0
VERTEX
  5
4A
  8
1
 10
-3361.469934
 20
-1224.9117
 30
0.0
 70
0
  0
VERTEX
  5
4B
  8
1
 10
-3376.74234
 20
-1224.066967
 30
0.0
 70
0
  0
VERTEX
  5
4C
  8
1
 10
-3391.925422
 20
-1223.216319
 30
0.0
 70
0
  0
VERTEX
  5
4D
  8
1
 10
-3407.030096
 20
-1222.359595
 30
0.0
 70
0
  0
VERTEX
  5
4E
  8
1
 10
-3422.21195
 20
-1221.487655
 30
0.0
 70
0
  0
VERTEX
  5
4F
  8
1
 10
-3437.554474
 20
-1220.593353
 30
0.0
 70
0
  0
VERTEX
  5
50
  8
1
 10
-3452.734689
 20
-1219.695007
 30
0.0
 70
0
  0
VERTEX
  5
51
  8
1
 10
-3466.618652
 20
-1218.866806
 30
0.0
 70
0
  0
VERTEX
  5
52
  8
1
 10
-3467.793468
 20
-1218.796735
 30
0.0
 70
0
  0
VERTEX
  5
53
  8
1
 10
-3482.837487
 20
-1217.898447
 30
0.0
 70
0
  0
VERTEX
  5
54
  8
1
 10
-3498.362122
 20
-1216.971664
 30
0.0
 70
0
  0
VERTEX
  5
55
  8
1
 10
-3498.307084
 20
-1201.410013
 30
0.0
 70
0
  0
VERTEX
  5
56
  8
1
 10
-3498.253164
 20
-1186.148199
 30
0.0
 70
0
  0
VERTEX
  5
57
  8
1
 10
-3498.2001
 20
-1171.118051
 30
0.0
 70
0
  0
VERTEX
  5
58
  8
1
 10
-3498.14623
 20
-1155.856256
 30
0.0
 70
0
  0
VERTEX
  5
59
  8
1
 10
-3498.092334
 20
-1140.594465
 30
0.0
 70
0
  0
VERTEX
  5
5A
  8
1
 10
-3498.038719
 20
-1125.429105
 30
0.0
 70
0
  0
VERTEX
  5
5B
  8
1
 10
-3497.984719
 20
-1110.167289
 30
0.0
 70
0
  0
VERTEX
  5
5C
  8
1
 10
-3497.931189
 20
-1095.040893
 30
0.0
 70
0
  0
VERTEX
  5
5D
  8
1
 10
-3497.877184
 20
-1079.779076
 30
0.0
 70
0
  0
VERTEX
  5
5E
  8
1
 10
-3497.823281
 20
-1064.545737
 30
0.0
 70
0
  0
VERTEX
  5
5F
  8
1
 10
-3497.76926
 20
-1049.283933
 30
0.0
 70
0
  0
VERTEX
  5
60
  8
1
 10
-3497.715026
 20
-1033.976099
 30
0.0
 70
0
  0
VERTEX
  5
61
  8
1
 10
-3497.660902
 20
-1018.714303
 30
0.0
 70
0
  0
VERTEX
  5
62
  8
1
 10
-3497.606969
 20
-1003.514331
 30
0.0
 70
0
  0
VERTEX
  5
63
  8
1
 10
-3497.552823
 20
-988.252516
 30
0.0
 70
0
  0
VERTEX
  5
64
  8
1
 10
-3497.498729
 20
-972.99071
 30
0.0
 70
0
  0
VERTEX
  5
65
  8
1
 10
-3497.458191
 20
-961.538315
 30
0.0
 70
0
  0
VERTEX
  5
66
  8
1
 10
-3481.645928
 20
-960.724673
 30
0.0
 70
0
  0
VERTEX
  5
67
  8
1
 10
-3466.400093
 20
-959.940164
 30
0.0
 70
0
  0
VERTEX
  5
68
  8
1
 10
-3465.702209
 20
-959.904251
 30
0.0
 70
0
  0
VERTEX
  5
69
  8
1
 10
-3450.783753
 20
-959.136574
 30
0.0
 70
0
  0
VERTEX
  5
6A
  8
1
 10
-3435.671125
 20
-958.358904
 30
0.0
 70
0
  0
VERTEX
  5
6B
  8
1
 10
-3420.428256
 20
-957.574547
 30
0.0
 70
0
  0
VERTEX
  5
6C
  8
1
 10
-3405.315599
 20
-956.796896
 30
0.0
 70
0
  0
VERTEX
  5
6D
  8
1
 10
-3389.988174
 20
-956.008186
 30
0.0
 70
0
  0
VERTEX
  5
6E
  8
1
 10
-3374.875624
 20
-955.230531
 30
0.0
 70
0
  0
VERTEX
  5
6F
  8
1
 10
-3359.858953
 20
-954.457812
 30
0.0
 70
0
  0
VERTEX
  5
70
  8
1
 10
-3344.746359
 20
-953.680158
 30
0.0
 70
0
  0
VERTEX
  5
71
  8
1
 10
-3329.589671
 20
-952.900232
 30
0.0
 70
0
  0
VERTEX
  5
72
  8
1
 10
-3314.477027
 20
-952.122574
 30
0.0
 70
0
  0
VERTEX
  5
73
  8
1
 10
-3299.234258
 20
-951.338226
 30
0.0
 70
0
  0
VERTEX
  5
74
  8
1
 10
-3284.121718
 20
-950.560579
 30
0.0
 70
0
  0
VERTEX
  5
75
  8
1
 10
-3268.987014
 20
-949.781783
 30
0.0
 70
0
  0
VERTEX
  5
76
  8
1
 10
-3253.874416
 20
-949.004119
 30
0.0
 70
0
  0
VERTEX
  5
77
  8
1
 10
-3238.865816
 20
-948.231811
 30
0.0
 70
0
  0
VERTEX
  5
78
  8
1
 10
-3223.753212
 20
-947.454151
 30
0.0
 70
0
  0
VERTEX
  5
79
  8
1
 10
-3208.357834
 20
-946.661938
 30
0.0
 70
0
  0
VERTEX
  5
7A
  8
1
 10
-3193.245228
 20
-945.88428
 30
0.0
 70
0
  0
VERTEX
  5
7B
  8
1
 10
-3178.00235
 20
-945.099932
 30
0.0
 70
0
  0
VERTEX
  5
7C
  8
1
 10
-3162.889674
 20
-944.322286
 30
0.0
 70
0
  0
VERTEX
  5
7D
  8
1
 10
-3147.828919
 20
-943.547295
 30
0.0
 70
0
  0
VERTEX
  5
7E
  8
1
 10
-3132.716316
 20
-942.769626
 30
0.0
 70
0
  0
VERTEX
  5
7F
  8
1
 10
-3117.477335
 20
-941.985461
 30
0.0
 70
0
  0
VERTEX
  5
80
  8
1
 10
-3102.364758
 20
-941.207809
 30
0.0
 70
0
  0
VERTEX
  5
81
  8
1
 10
-3087.051722
 20
-940.419843
 30
0.0
 70
0
  0
VERTEX
  5
82
  8
1
 10
-3071.939129
 20
-939.642192
 30
0.0
 70
0
  0
VERTEX
  5
83
  8
1
 10
-3056.6563
 20
-938.855782
 30
0.0
 70
0
  0
VERTEX
  5
84
  8
1
 10
-3041.543713
 20
-938.07813
 30
0.0
 70
0
  0
VERTEX
  5
85
  8
1
 10
-3026.393927
 20
-937.298553
 30
0.0
 70
0
  0
VERTEX
  5
86
  8
1
 10
-3011.523316
 20
-936.533332
 30
0.0
 70
0
  0
VERTEX
  5
87
  8
1
 10
-3009.484558
 20
-936.428452
 30
0.0
 70
0
  0
VERTEX
  5
88
  8
1
 10
-3010.018616
 20
-936.457748
 30
0.0
 70
0
  0
VERTEX
  5
89
  8
1
 10
-2994.699234
 20
-934.363326
 30
0.0
 70
0
  0
VERTEX
  5
8A
  8
1
 10
-2979.885686
 20
-932.243137
 30
0.0
 70
0
  0
VERTEX
  5
8B
  8
1
 10
-2964.776807
 20
-929.949639
 30
0.0
 70
0
  0
VERTEX
  5
8C
  8
1
 10
-2949.688203
 20
-927.524419
 30
0.0
 70
0
  0
VERTEX
  5
8D
  8
1
 10
-2934.497907
 20
-924.951505
 30
0.0
 70
0
  0
VERTEX
  5
8E
  8
1
 10
-2919.713104
 20
-922.299932
 30
0.0
 70
0
  0
VERTEX
  5
8F
  8
1
 10
-2904.702251
 20
-919.432823
 30
0.0
 70
0
  0
VERTEX
  5
90
  8
1
 10
-2889.776298
 20
-916.386887
 30
0.0
 70
0
  0
VERTEX
  5
91
  8
1
 10
-2874.845393
 20
-913.128647
 30
0.0
 70
0
  0
VERTEX
  5
92
  8
1
 10
-2859.961117
 20
-909.663198
 30
0.0
 70
0
  0
VERTEX
  5
93
  8
1
 10
-2845.126241
 20
-905.987002
 30
0.0
 70
0
  0
VERTEX
  5
94
  8
1
 10
-2830.34866
 20
-902.091889
 30
0.0
 70
0
  0
VERTEX
  5
95
  8
1
 10
-2815.554252
 20
-897.949349
 30
0.0
 70
0
  0
VERTEX
  5
96
  8
1
 10
-2800.899435
 20
-893.614882
 30
0.0
 70
0
  0
VERTEX
  5
97
  8
1
 10
-2786.251732
 20
-889.06943
 30
0.0
 70
0
  0
VERTEX
  5
98
  8
1
 10
-2771.713482
 20
-884.376257
 30
0.0
 70
0
  0
VERTEX
  5
99
  8
1
 10
-2757.21664
 20
-879.539905
 30
0.0
 70
0
  0
VERTEX
  5
9A
  8
1
 10
-2742.771141
 20
-874.55332
 30
0.0
 70
0
  0
VERTEX
  5
9B
  8
1
 10
-2728.323314
 20
-869.390821
 30
0.0
 70
0
  0
VERTEX
  5
9C
  8
1
 10
-2718.75946
 20
-865.888443
 30
0.0
 70
0
  0
VERTEX
  5
9D
  8
1
 10
-2713.973081
 20
-864.135574
 30
0.0
 70
0
  0
VERTEX
  5
9E
  8
1
 10
-2700.04243
 20
-858.967557
 30
0.0
 70
0
  0
VERTEX
  5
9F
  8
1
 10
-2697.490845
 20
-858.015823
 30
0.0
 70
0
  0
VERTEX
  5
A0
  8
1
 10
-2690.167542
 20
-861.99295
 30
0.0
 70
0
  0
VERTEX
  5
A1
  8
1
 10
-2688.705789
 20
-869.510746
 30
0.0
 70
0
  0
VERTEX
  5
A2
  8
1
 10
-2687.104677
 20
-876.427808
 30
0.0
 70
0
  0
VERTEX
  5
A3
  8
1
 10
-2685.513309
 20
-882.298112
 30
0.0
 70
0
  0
VERTEX
  5
A4
  8
1
 10
-2683.839076
 20
-887.570595
 30
0.0
 70
0
  0
VERTEX
  5
A5
  8
1
 10
-2681.960727
 20
-892.687039
 30
0.0
 70
0
  0
VERTEX
  5
A6
  8
1
 10
-2679.882658
 20
-897.640923
 30
0.0
 70
0
  0
VERTEX
  5
A7
  8
1
 10
-2677.694744
 20
-902.247035
 30
0.0
 70
0
  0
VERTEX
  5
A8
  8
1
 10
-2675.375906
 20
-906.549715
 30
0.0
 70
0
  0
VERTEX
  5
A9
  8
1
 10
-2672.969885
 20
-910.49828
 30
0.0
 70
0
  0
VERTEX
  5
AA
  8
1
 10
-2670.472467
 20
-914.12201
 30
0.0
 70
0
  0
VERTEX
  5
AB
  8
1
 10
-2667.928454
 20
-917.380889
 30
0.0
 70
0
  0
VERTEX
  5
AC
  8
1
 10
-2665.292452
 20
-920.350989
 30
0.0
 70
0
  0
VERTEX
  5
AD
  8
1
 10
-2662.682217
 20
-922.926641
 30
0.0
 70
0
  0
VERTEX
  5
AE
  8
1
 10
-2659.941444
 20
-925.279178
 30
0.0
 70
0
  0
VERTEX
  5
AF
  8
1
 10
-2656.900531
 20
-927.541681
 30
0.0
 70
0
  0
VERTEX
  5
B0
  8
1
 10
-2653.469563
 20
-929.766936
 30
0.0
 70
0
  0
VERTEX
  5
B1
  8
1
 10
-2649.656985
 20
-931.931952
 30
0.0
 70
0
  0
VERTEX
  5
B2
  8
1
 10
-2645.431091
 20
-934.040357
 30
0.0
 70
0
  0
VERTEX
  5
B3
  8
1
 10
-2640.609186
 20
-936.154343
 30
0.0
 70
0
  0
VERTEX
  5
B4
  8
1
 10
-2635.322181
 20
-938.194386
 30
0.0
 70
0
  0
VERTEX
  5
B5
  8
1
 10
-2629.280078
 20
-940.247284
 30
0.0
 70
0
  0
VERTEX
  5
B6
  8
1
 10
-2622.559526
 20
-942.261363
 30
0.0
 70
0
  0
VERTEX
  5
B7
  8
1
 10
-2614.829683
 20
-944.304805
 30
0.0
 70
0
  0
VERTEX
  5
B8
  8
1
 10
-2605.07002
 20
-946.599738
 30
0.0
 70
0
  0
VERTEX
  5
B9
  8
1
 10
-2599.64386
 20
-947.775269
 30
0.0
 70
0
  0
VERTEX
  5
BA
  8
1
 10
-2584.275394
 20
-951.378997
 30
0.0
 70
0
  0
VERTEX
  5
BB
  8
1
 10
-2569.456048
 20
-954.856008
 30
0.0
 70
0
  0
VERTEX
  5
BC
  8
1
 10
-2554.492431
 20
-958.369677
 30
0.0
 70
0
  0
VERTEX
  5
BD
  8
1
 10
-2539.501215
 20
-961.893162
 30
0.0
 70
0
  0
VERTEX
  5
BE
  8
1
 10
-2524.804742
 20
-965.350816
 30
0.0
 70
0
  0
VERTEX
  5
BF
  8
1
 10
-2509.815129
 20
-968.881018
 30
0.0
 70
0
  0
VERTEX
  5
C0
  8
1
 10
-2495.052469
 20
-972.361289
 30
0.0
 70
0
  0
VERTEX
  5
C1
  8
1
 10
-2480.064407
 20
-975.897965
 30
0.0
 70
0
  0
VERTEX
  5
C2
  8
1
 10
-2465.076974
 20
-979.437321
 30
0.0
 70
0
  0
VERTEX
  5
C3
  8
1
 10
-2453.977356
 20
-982.060242
 30
0.0
 70
0
  0
VERTEX
  5
C4
  8
1
 10
-2450.538733
 20
-982.872778
 30
0.0
 70
0
  0
VERTEX
  5
C5
  8
1
 10
-2441.40686
 20
-985.031433
 30
0.0
 70
0
  0
VERTEX
  5
C6
  8
1
 10
-2442.171471
 20
-1000.858953
 30
0.0
 70
0
  0
VERTEX
  5
C7
  8
1
 10
-2442.19223
 20
-1001.288834
 30
0.0
 70
0
  0
VERTEX
  5
C8
  8
1
 10
-2442.902274
 20
-1015.99568
 30
0.0
 70
0
  0
VERTEX
  5
C9
  8
1
 10
-2443.630696
 20
-1031.132521
 30
0.0
 70
0
  0
VERTEX
  5
CA
  8
1
 10
-2444.357494
 20
-1046.321951
 30
0.0
 70
0
  0
VERTEX
  5
CB
  8
1
 10
-2445.077911
 20
-1061.459164
 30
0.0
 70
0
  0
VERTEX
  5
CC
  8
1
 10
-2445.79272
 20
-1076.544089
 30
0.0
 70
0
  0
VERTEX
  5
CD
  8
1
 10
-2446.506948
 20
-1091.681594
 30
0.0
 70
0
  0
VERTEX
  5
CE
  8
1
 10
-2447.215548
 20
-1106.770887
 30
0.0
 70
0
  0
VERTEX
  5
CF
  8
1
 10
-2447.922845
 20
-1121.908744
 30
0.0
 70
0
  0
VERTEX
  5
D0
  8
1
 10
-2448.629761
 20
-1137.118962
 30
0.0
 70
0
  0
VERTEX
  5
D1
  8
1
 10
-2449.329321
 20
-1152.257151
 30
0.0
 70
0
  0
VERTEX
  5
D2
  8
1
 10
-2450.037947
 20
-1167.689719
 30
0.0
 70
0
  0
VERTEX
  5
D3
  8
1
 10
-2450.728275
 20
-1182.828314
 30
0.0
 70
0
  0
VERTEX
  5
D4
  8
1
 10
-2450.948029
 20
-1187.669983
 30
0.0
 70
0
  0
VERTEX
  5
D5
  8
1
 10
-2451.413685
 20
-1197.967153
 30
0.0
 70
0
  0
VERTEX
  5
D6
  8
1
 10
-2452.097309
 20
-1213.174241
 30
0.0
 70
0
  0
VERTEX
  5
D7
  8
1
 10
-2452.77429
 20
-1228.313456
 30
0.0
 70
0
  0
VERTEX
  5
D8
  8
1
 10
-2453.447409
 20
-1243.410029
 30
0.0
 70
0
  0
VERTEX
  5
D9
  8
1
 10
-2453.90686
 20
-1253.722992
 30
0.0
 70
0
  0
VERTEX
  5
DA
  8
1
 10
-2459.041979
 20
-1254.100862
 30
0.0
 70
0
  0
VERTEX
  5
DB
  8
1
 10
-2466.660004
 20
-1254.64447
 30
0.0
 70
0
  0
VERTEX
  5
DC
  8
1
 10
-2474.079038
 20
-1255.173818
 30
0.0
 70
0
  0
VERTEX
  5
DD
  8
1
 10
-2489.36378
 20
-1256.208249
 30
0.0
 70
0
  0
VERTEX
  5
DE
  8
1
 10
-2504.645757
 20
-1257.156965
 30
0.0
 70
0
  0
VERTEX
  5
DF
  8
1
 10
-2520.112847
 20
-1257.996643
 30
0.0
 70
0
  0
VERTEX
  5
E0
  8
1
 10
-2535.408853
 20
-1258.682621
 30
0.0
 70
0
  0
VERTEX
  5
E1
  8
1
 10
-2550.882085
 20
-1259.222286
 30
0.0
 70
0
  0
VERTEX
  5
E2
  8
1
 10
-2566.188736
 20
-1259.601558
 30
0.0
 70
0
  0
VERTEX
  5
E3
  8
1
 10
-2581.638977
 20
-1259.835245
 30
0.0
 70
0
  0
VERTEX
  5
E4
  8
1
 10
-2596.950111
 20
-1259.927874
 30
0.0
 70
0
  0
VERTEX
  5
E5
  8
1
 10
-2612.437707
 20
-1259.892179
 30
0.0
 70
0
  0
VERTEX
  5
E6
  8
1
 10
-2627.748278
 20
-1259.740255
 30
0.0
 70
0
  0
VERTEX
  5
E7
  8
1
 10
-2643.168519
 20
-1259.480864
 30
0.0
 70
0
  0
VERTEX
  5
E8
  8
1
 10
-2658.475621
 20
-1259.125064
 30
0.0
 70
0
  0
VERTEX
  5
E9
  8
1
 10
-2673.616547
 20
-1258.675926
 30
0.0
 70
0
  0
VERTEX
  5
EA
  8
1
 10
-2688.917804
 20
-1258.120414
 30
0.0
 70
0
  0
VERTEX
  5
EB
  8
1
 10
-2704.28261
 20
-1257.452918
 30
0.0
 70
0
  0
VERTEX
  5
EC
  8
1
 10
-2719.574524
 20
-1256.682433
 30
0.0
 70
0
  0
VERTEX
  5
ED
  8
1
 10
-2734.637365
 20
-1255.849822
 30
0.0
 70
0
  0
VERTEX
  5
EE
  8
1
 10
-2749.922941
 20
-1254.964244
 30
0.0
 70
0
  0
VERTEX
  5
EF
  8
1
 10
-2764.977686
 20
-1254.083278
 30
0.0
 70
0
  0
VERTEX
  5
F0
  8
1
 10
-2780.26353
 20
-1253.20257
 30
0.0
 70
0
  0
VERTEX
  5
F1
  8
1
 10
-2795.561627
 20
-1252.330514
 30
0.0
 70
0
  0
VERTEX
  5
F2
  8
1
 10
-2810.84814
 20
-1251.461287
 30
0.0
 70
0
  0
VERTEX
  5
F3
  8
1
 10
-2825.890522
 20
-1250.609321
 30
0.0
 70
0
  0
VERTEX
  5
F4
  8
1
 10
-2841.177488
 20
-1249.7491
 30
0.0
 70
0
  0
VERTEX
  5
F5
  8
1
 10
-2856.155207
 20
-1248.911106
 30
0.0
 70
0
  0
VERTEX
  5
F6
  8
1
 10
-2871.442782
 20
-1248.059696
 30
0.0
 70
0
  0
VERTEX
  5
F7
  8
1
 10
-2886.730578
 20
-1247.212194
 30
0.0
 70
0
  0
VERTEX
  5
F8
  8
1
 10
-2901.948317
 20
-1246.37261
 30
0.0
 70
0
  0
VERTEX
  5
F9
  8
1
 10
-2917.412492
 20
-1245.523474
 30
0.0
 70
0
  0
VERTEX
  5
FA
  8
1
 10
-2932.700909
 20
-1244.68786
 30
0.0
 70
0
  0
VERTEX
  5
FB
  8
1
 10
-2947.989508
 20
-1243.855916
 30
0.0
 70
0
  0
VERTEX
  5
FC
  8
1
 10
-2963.266865
 20
-1243.028306
 30
0.0
 70
0
  0
VERTEX
  5
FD
  8
1
 10
-2978.55586
 20
-1242.204717
 30
0.0
 70
0
  0
VERTEX
  5
FE
  8
1
 10
-2993.633145
 20
-1241.397565
 30
0.0
 70
0
  0
SEQEND
  5
30
  8
1
  0
LINE
  5
FF
  8
7
 10
-3387.257385
 20
-1086.681671
 30
0.0
 11
-2519.147034
 21
-1086.681671
 31
0.0
  0
ENDSEC
  0
EOF
