  0
SECTION
  2
HEADER
  9
$ACADVER
  1
AC1009
  9
$DWGCODEPAGE
  3
ANSI_1252
  9
$INSBASE
 10
0.0
 20
0.0
 30
0.0
  9
$EXTMIN
 10
1e+20
 20
1e+20
 30
1e+20
  9
$EXTMAX
 10
-1e+20
 20
-1e+20
 30
-1e+20
  9
$LIMMIN
 10
0.0
 20
0.0
  9
$LIMMAX
 10
420.0
 20
297.0
  9
$ORTHOMODE
 70
0
  9
$REGENMODE
 70
1
  9
$FILLMODE
 70
1
  9
$DRAGMODE
 70
2
  9
$QTEXTMODE
 70
0
  9
$MIRRTEXT
 70
1
  9
$OSMODE
 70
20583
  9
$LTSCALE
 40
1.0
  9
$ATTMODE
 70
1
  9
$TEXTSIZE
 40
2.5
  9
$TRACEWID
 40
1.0
  9
$TEXTSTYLE
  7
Standard
  9
$CLAYER
  8
0
  9
$CELTYPE
  6
ByLayer
  9
$CECOLOR
 62
256
  9
$DIMSCALE
 40
1.0
  9
$DIMASZ
 40
2.5
  9
$DIMEXO
 40
0.625
  9
$DIMDLI
 40
3.75
  9
$DIMRND
 40
0.0
  9
$DIMDLE
 40
0.0
  9
$DIMEXE
 40
1.25
  9
$DIMTP
 40
0.0
  9
$DIMTM
 40
0.0
  9
$DIMTXT
 40
2.5
  9
$DIMCEN
 40
2.5
  9
$DIMTSZ
 40
0.0
  9
$DIMTOL
 70
0
  9
$DIMLIM
 70
0
  9
$DIMTIH
 70
0
  9
$DIMTOH
 70
0
  9
$DIMSE1
 70
0
  9
$DIMSE2
 70
0
  9
$DIMTAD
 70
1
  9
$DIMZIN
 70
8
  9
$DIMBLK
  1

  9
$DIMASO
 70
1
  9
$DIMSHO
 70
1
  9
$DIMPOST
  1

  9
$DIMAPOST
  1

  9
$DIMALT
 70
0
  9
$DIMALTD
 70
3
  9
$DIMALTF
 40
0.03937007874
  9
$DIMLFAC
 40
1.0
  9
$DIMTOFL
 70
1
  9
$DIMTVP
 40
0.0
  9
$DIMTIX
 70
0
  9
$DIMSOXD
 70
0
  9
$DIMSAH
 70
0
  9
$DIMBLK1
  1

  9
$DIMBLK2
  1

  9
$DIMSTYLE
  2
ISO-25
  9
$DIMCLRD
 70
0
  9
$DIMCLRE
 70
0
  9
$DIMCLRT
 70
0
  9
$DIMTFAC
 40
1.0
  9
$DIMGAP
 40
0.625
  9
$COORDS
 70
1
  9
$ATTDIA
 70
0
  9
$ATTREQ
 70
1
  9
$HANDLING
 70
1
  9
$LUNITS
 70
2
  9
$LUPREC
 70
4
  9
$SKETCHINC
 40
1.0
  9
$FILLETRAD
 40
10.0
  9
$AUNITS
 70
0
  9
$AUPREC
 70
2
  9
$MENU
  1
.
  9
$ELEVATION
 40
0.0
  9
$PELEVATION
 40
0.0
  9
$THICKNESS
 40
0.0
  9
$LIMCHECK
 70
0
  9
$CHAMFERA
 40
0.0
  9
$CHAMFERB
 40
0.0
  9
$SKPOLY
 70
0
  9
$TDCREATE
 40
2461264.9423032408
  9
$TDUPDATE
 40
2461264.9423032408
  9
$TDINDWG
 40
0.0
  9
$TDUSRTIMER
 40
0.0
  9
$USRTIMER
 70
1
  9
$ANGBASE
 50
0.0
  9
$ANGDIR
 70
0
  9
$PDMODE
 70
0
  9
$PDSIZE
 40
0.0
  9
$PLINEWID
 40
0.0
  9
$SPLFRAME
 70
0
  9
$SPLINETYPE
 70
6
  9
$SPLINESEGS
 70
8
  9
$HANDSEED
  5
21E
  9
$SURFTAB1
 70
6
  9
$SURFTAB2
 70
6
  9
$SURFTYPE
 70
6
  9
$SURFU
 70
6
  9
$SURFV
 70
6
  9
$UCSNAME
  2

  9
$UCSORG
 10
0.0
 20
0.0
 30
0.0
  9
$UCSXDIR
 10
1.0
 20
0.0
 30
0.0
  9
$UCSYDIR
 10
0.0
 20
1.0
 30
0.0
  9
$PUCSNAME
  2

  9
$PUCSORG
 10
0.0
 20
0.0
 30
0.0
  9
$PUCSXDIR
 10
1.0
 20
0.0
 30
0.0
  9
$PUCSYDIR
 10
0.0
 20
1.0
 30
0.0
  9
$USERI1
 70
0
  9
$USERI2
 70
0
  9
$USERI3
 70
0
  9
$USERI4
 70
0
  9
$USERI5
 70
0
  9
$USERR1
 40
0.0
  9
$USERR2
 40
0.0
  9
$USERR3
 40
0.0
  9
$USERR4
 40
0.0
  9
$USERR5
 40
0.0
  9
$WORLDVIEW
 70
1
  9
$SHADEDGE
 70
3
  9
$SHADEDIF
 70
70
  9
$TILEMODE
 70
1
  9
$MAXACTVP
 70
64
  9
$PLIMCHECK
 70
0
  9
$PEXTMIN
 10
1e+20
 20
1e+20
 30
1e+20
  9
$PEXTMAX
 10
-1e+20
 20
-1e+20
 30
-1e+20
  9
$PLIMMIN
 10
0.0
 20
0.0
  9
$PLIMMAX
 10
420.0
 20
297.0
  9
$UNITMODE
 70
0
  9
$VISRETAIN
 70
1
  9
$PLINEGEN
 70
0
  9
$PSLTSCALE
 70
1
  0
ENDSEC
  0
SECTION
  2
TABLES
  0
TABLE
  2
VPORT
 70
1
  0
VPORT
  5
23
  2
*Active
 70
0
 10
0.0
 20
0.0
 11
1.0
 21
1.0
 12
0.0
 22
0.0
 13
0.0
 23
0.0
 14
0.5
 24
0.5
 15
0.5
 25
0.5
 16
0.0
 26
0.0
 36
1.0
 17
0.0
 27
0.0
 37
0.0
 40
1000.0
 41
1.34
 42
50.0
 43
0.0
 44
0.0
 50
0.0
 51
0.0
 71
0
 72
1000
 73
1
 74
3
 75
0
 76
0
 77
0
 78
0
  0
ENDTAB
  0
TABLE
  2
LTYPE
 70
3
  0
LTYPE
  5
24
  2
ByBlock
 70
0
  3

 72
65
 73
0
 40
0.0
  0
LTYPE
  5
25
  2
ByLayer
 70
0
  3

 72
65
 73
0
 40
0.0
  0
LTYPE
  5
26
  2
Continuous
 70
0
  3

 72
65
 73
0
 40
0.0
  0
ENDTAB
  0
TABLE
  2
LAYER
 70
7
  0
LAYER
  5
27
  2
0
 70
0
 62
7
  6
Continuous
  0
LAYER
  5
28
  2
Defpoints
 70
0
 62
7
  6
Continuous
  0
LAYER
  5
2D
  2
1
 70
0
 62
1
  6
Continuous
  0
LAYER
  5
2E
  2
7
 70
0
 62
7
  6
Continuous
  0
LAYER
  5
2F
  2
14
 70
0
 62
3
  6
Continuous
  0
LAYER
  5
30
  2
8
 70
0
 62
6
  6
Continuous
  0
LAYER
  5
31
  2
4
 70
0
 62
2
  6
Continuous
  0
ENDTAB
  0
TABLE
  2
STYLE
 70
1
  0
STYLE
  5
29
  2
Standard
 70
0
 40
0.0
 41
1.0
 50
0.0
 71
0
 42
2.5
  3
txt
  4

  0
ENDTAB
  0
TABLE
  2
VIEW
 70
0
  0
ENDTAB
  0
TABLE
  2
UCS
 70
0
  0
ENDTAB
  0
TABLE
  2
APPID
 70
3
  0
APPID
  5
2A
  2
ACAD
 70
0
  0
APPID
  5
21C
  2
HATCHBACKGROUNDCOLOR
 70
0
  0
APPID
  5
21D
  2
EZDXF
 70
0
  0
ENDTAB
  0
TABLE
  2
DIMSTYLE
 70
1
  0
DIMSTYLE
105
2B
  2
Standard
 70
0
  3

  4

  5

  6

  7

 40
1.0
 41
2.5
 42
0.625
 43
3.75
 44
1.25
 45
0.0
 46
0.0
 47
0.0
 48
0.0
140
2.5
141
2.5
142
0.0
143
0.03937007874
144
1.0
145
0.0
146
1.0
147
0.625
 71
0
 72
0
 73
0
 74
0
 75
0
 76
0
 77
1
 78
8
170
0
171
3
172
1
173
0
174
0
175
0
176
0
177
0
178
0
  0
ENDTAB
  0
ENDSEC
  0
SECTION
  2
BLOCKS
  0
BLOCK
  5
18
  8
0
  2
$Model_Space
 70
0
 10
0.0
 20
0.0
 30
0.0
  3
$Model_Space
  1

1001
EZDXF
1000
CREATED_BY_EZDXF
1000
1.4.4 @ 2026-08-11T14:36:55.224176+00:00
1000
WRITTEN_BY_EZDXF
1000
1.4.4 @ 2026-08-11T14:36:55.228176+00:00
  0
ENDBLK
  5
19
  8
0
  0
BLOCK
  5
1C
  8
0
  2
$Paper_Space
 70
0
 10
0.0
 20
0.0
 30
0.0
  3
$Paper_Space
  1

  0
ENDBLK
  5
1D
  8
0
  0
ENDSEC
  0
SECTION
  2
ENTITIES
  0
POLYLINE
  5
32
  8
1
 66
1
 10
0.0
 20
0.0
 30
0.0
 70
1
  0
VERTEX
  5
34
  8
1
 10
-3009.352112
 20
-1235.479507
 30
0.0
 70
0
  0
VERTEX
  5
35
  8
1
 10
-3009.255371
 20
-1235.482712
 30
0.0
 70
0
  0
VERTEX
  5
36
  8
1
 10
-3016.137537
 20
-1235.254812
 30
0.0
 70
0
  0
VERTEX
  5
37
  8
1
 10
-3031.188622
 20
-1234.750677
 30
0.0
 70
0
  0
VERTEX
  5
38
  8
1
 10
-3046.446044
 20
-1234.228176
 30
0.0
 70
0
  0
VERTEX
  5
39
  8
1
 10
-3061.620621
 20
-1233.695165
 30
0.0
 70
0
  0
VERTEX
  5
3A
  8
1
 10
-3076.877146
 20
-1233.145676
 30
0.0
 70
0
  0
VERTEX
  5
3B
  8
1
 10
-3091.974101
 20
-1232.590663
 30
0.0
 70
0
  0
VERTEX
  5
3C
  8
1
 10
-3107.229786
 20
-1232.01983
 30
0.0
 70
0
  0
VERTEX
  5
3D
  8
1
 10
-3122.385102
 20
-1231.441976
 30
0.0
 70
0
  0
VERTEX
  5
3E
  8
1
 10
-3137.639871
 20
-1230.848656
 30
0.0
 70
0
  0
VERTEX
  5
3F
  8
1
 10
-3152.716853
 20
-1230.250629
 30
0.0
 70
0
  0
VERTEX
  5
40
  8
1
 10
-3167.970796
 20
-1229.63365
 30
0.0
 70
0
  0
VERTEX
  5
41
  8
1
 10
-3183.336265
 20
-1228.999391
 30
0.0
 70
0
  0
VERTEX
  5
42
  8
1
 10
-3198.589108
 20
-1228.356421
 30
0.0
 70
0
  0
VERTEX
  5
43
  8
1
 10
-3214.033231
 20
-1227.691194
 30
0.0
 70
0
  0
VERTEX
  5
44
  8
1
 10
-3229.284767
 20
-1227.019423
 30
0.0
 70
0
  0
VERTEX
  5
45
  8
1
 10
-3244.433288
 20
-1226.336232
 30
0.0
 70
0
  0
VERTEX
  5
46
  8
1
 10
-3259.683263
 20
-1225.631268
 30
0.0
 70
0
  0
VERTEX
  5
47
  8
1
 10
-3274.888189
 20
-1224.910976
 30
0.0
 70
0
  0
VERTEX
  5
48
  8
1
 10
-3290.13666
 20
-1224.17144
 30
0.0
 70
0
  0
VERTEX
  5
49
  8
1
 10
-3305.250924
 20
-1223.422777
 30
0.0
 70
0
  0
VERTEX
  5
4A
  8
1
 10
-3320.497887
 20
-1222.653148
 30
0.0
 70
0
  0
VERTEX
  5
4B
  8
1
 10
-3335.703368
 20
-1221.872045
 30
0.0
 70
0
  0
VERTEX
  5
4C
  8
1
 10
-3350.948948
 20
-1221.076067
 30
0.0
 70
0
  0
VERTEX
  5
4D
  8
1
 10
-3366.149729
 20
-1220.270623
 30
0.0
 70
0
  0
VERTEX
  5
4E
  8
1
 10
-3381.394036
 20
-1219.451816
 30
0.0
 70
0
  0
VERTEX
  5
4F
  8
1
 10
-3396.84483
 20
-1218.610608
 30
0.0
 70
0
  0
VERTEX
  5
50
  8
1
 10
-3412.087957
 20
-1217.769023
 30
0.0
 70
0
  0
VERTEX
  5
51
  8
1
 10
-3427.151912
 20
-1216.924329
 30
0.0
 70
0
  0
VERTEX
  5
52
  8
1
 10
-3442.393614
 20
-1216.056484
 30
0.0
 70
0
  0
VERTEX
  5
53
  8
1
 10
-3456.460266
 20
-1215.248947
 30
0.0
 70
0
  0
VERTEX
  5
54
  8
1
 10
-3457.51827
 20
-1215.188233
 30
0.0
 70
0
  0
VERTEX
  5
55
  8
1
 10
-3472.609434
 20
-1214.320852
 30
0.0
 70
0
  0
VERTEX
  5
56
  8
1
 10
-3488.203735
 20
-1213.424606
 30
0.0
 70
0
  0
VERTEX
  5
57
  8
1
 10
-3488.147143
 20
-1197.912177
 30
0.0
 70
0
  0
VERTEX
  5
58
  8
1
 10
-3488.091311
 20
-1182.602839
 30
0.0
 70
0
  0
VERTEX
  5
59
  8
1
 10
-3488.035483
 20
-1167.293496
 30
0.0
 70
0
  0
VERTEX
  5
5A
  8
1
 10
-3487.980323
 20
-1152.170426
 30
0.0
 70
0
  0
VERTEX
  5
5B
  8
1
 10
-3487.92447
 20
-1136.861082
 30
0.0
 70
0
  0
VERTEX
  5
5C
  8
1
 10
-3487.869181
 20
-1121.709796
 30
0.0
 70
0
  0
VERTEX
  5
5D
  8
1
 10
-3487.813305
 20
-1106.400468
 30
0.0
 70
0
  0
VERTEX
  5
5E
  8
1
 10
-3487.7584
 20
-1091.362008
 30
0.0
 70
0
  0
VERTEX
  5
5F
  8
1
 10
-3487.702492
 20
-1076.052688
 30
0.0
 70
0
  0
VERTEX
  5
60
  8
1
 10
-3487.646219
 20
-1060.641095
 30
0.0
 70
0
  0
VERTEX
  5
61
  8
1
 10
-3487.590338
 20
-1045.331754
 30
0.0
 70
0
  0
VERTEX
  5
62
  8
1
 10
-3487.534449
 20
-1030.022389
 30
0.0
 70
0
  0
VERTEX
  5
63
  8
1
 10
-3487.479602
 20
-1015.007529
 30
0.0
 70
0
  0
VERTEX
  5
64
  8
1
 10
-3487.423661
 20
-999.698203
 30
0.0
 70
0
  0
VERTEX
  5
65
  8
1
 10
-3487.367728
 20
-984.388857
 30
0.0
 70
0
  0
VERTEX
  5
66
  8
1
 10
-3487.312619
 20
-969.260554
 30
0.0
 70
0
  0
VERTEX
  5
67
  8
1
 10
-3487.297363
 20
-965.048599
 30
0.0
 70
0
  0
VERTEX
  5
68
  8
1
 10
-3471.703324
 20
-964.238884
 30
0.0
 70
0
  0
VERTEX
  5
69
  8
1
 10
-3456.613431
 20
-963.455344
 30
0.0
 70
0
  0
VERTEX
  5
6A
  8
1
 10
-3455.541077
 20
-963.399658
 30
0.0
 70
0
  0
VERTEX
  5
6B
  8
1
 10
-3441.498526
 20
-962.670503
 30
0.0
 70
0
  0
VERTEX
  5
6C
  8
1
 10
-3426.259197
 20
-961.879208
 30
0.0
 70
0
  0
VERTEX
  5
6D
  8
1
 10
-3411.249071
 20
-961.099827
 30
0.0
 70
0
  0
VERTEX
  5
6E
  8
1
 10
-3396.00966
 20
-960.30854
 30
0.0
 70
0
  0
VERTEX
  5
6F
  8
1
 10
-3380.909876
 20
-959.524491
 30
0.0
 70
0
  0
VERTEX
  5
70
  8
1
 10
-3365.670473
 20
-958.733188
 30
0.0
 70
0
  0
VERTEX
  5
71
  8
1
 10
-3350.369739
 20
-957.938708
 30
0.0
 70
0
  0
VERTEX
  5
72
  8
1
 10
-3335.130371
 20
-957.147412
 30
0.0
 70
0
  0
VERTEX
  5
73
  8
1
 10
-3319.688242
 20
-956.345577
 30
0.0
 70
0
  0
VERTEX
  5
74
  8
1
 10
-3304.448895
 20
-955.554269
 30
0.0
 70
0
  0
VERTEX
  5
75
  8
1
 10
-3289.037339
 20
-954.754027
 30
0.0
 70
0
  0
VERTEX
  5
76
  8
1
 10
-3273.798007
 20
-953.962733
 30
0.0
 70
0
  0
VERTEX
  5
77
  8
1
 10
-3258.787915
 20
-953.18334
 30
0.0
 70
0
  0
VERTEX
  5
78
  8
1
 10
-3243.548603
 20
-952.392042
 30
0.0
 70
0
  0
VERTEX
  5
79
  8
1
 10
-3228.266523
 20
-951.598524
 30
0.0
 70
0
  0
VERTEX
  5
7A
  8
1
 10
-3213.027136
 20
-950.807227
 30
0.0
 70
0
  0
VERTEX
  5
7B
  8
1
 10
-3197.973294
 20
-950.025571
 30
0.0
 70
0
  0
VERTEX
  5
7C
  8
1
 10
-3182.733821
 20
-949.234282
 30
0.0
 70
0
  0
VERTEX
  5
7D
  8
1
 10
-3167.723706
 20
-948.454904
 30
0.0
 70
0
  0
VERTEX
  5
7E
  8
1
 10
-3152.484382
 20
-947.66362
 30
0.0
 70
0
  0
VERTEX
  5
7F
  8
1
 10
-3137.152949
 20
-946.867545
 30
0.0
 70
0
  0
VERTEX
  5
80
  8
1
 10
-3121.913605
 20
-946.076249
 30
0.0
 70
0
  0
VERTEX
  5
81
  8
1
 10
-3106.516542
 20
-945.276767
 30
0.0
 70
0
  0
VERTEX
  5
82
  8
1
 10
-3091.531052
 20
-944.498656
 30
0.0
 70
0
  0
VERTEX
  5
83
  8
1
 10
-3076.291711
 20
-943.70736
 30
0.0
 70
0
  0
VERTEX
  5
84
  8
1
 10
-3061.325116
 20
-942.930221
 30
0.0
 70
0
  0
VERTEX
  5
85
  8
1
 10
-3045.594146
 20
-942.113386
 30
0.0
 70
0
  0
VERTEX
  5
86
  8
1
 10
-3030.53085
 20
-941.331222
 30
0.0
 70
0
  0
VERTEX
  5
87
  8
1
 10
-3015.518073
 20
-940.551687
 30
0.0
 70
0
  0
VERTEX
  5
88
  8
1
 10
-3009.490356
 20
-940.238724
 30
0.0
 70
0
  0
VERTEX
  5
89
  8
1
 10
-3009.962158
 20
-940.264893
 30
0.0
 70
0
  0
VERTEX
  5
8A
  8
1
 10
-2994.225571
 20
-938.263838
 30
0.0
 70
0
  0
VERTEX
  5
8B
  8
1
 10
-2979.251144
 20
-936.26156
 30
0.0
 70
0
  0
VERTEX
  5
8C
  8
1
 10
-2964.131322
 20
-934.107515
 30
0.0
 70
0
  0
VERTEX
  5
8D
  8
1
 10
-2949.030612
 20
-931.821562
 30
0.0
 70
0
  0
VERTEX
  5
8E
  8
1
 10
-2933.851853
 20
-929.392536
 30
0.0
 70
0
  0
VERTEX
  5
8F
  8
1
 10
-2919.070339
 20
-926.879485
 30
0.0
 70
0
  0
VERTEX
  5
90
  8
1
 10
-2903.559402
 20
-924.057797
 30
0.0
 70
0
  0
VERTEX
  5
91
  8
1
 10
-2888.644693
 20
-921.145979
 30
0.0
 70
0
  0
VERTEX
  5
92
  8
1
 10
-2873.696008
 20
-918.015982
 30
0.0
 70
0
  0
VERTEX
  5
93
  8
1
 10
-2858.818516
 20
-914.684087
 30
0.0
 70
0
  0
VERTEX
  5
94
  8
1
 10
-2843.963602
 20
-911.135212
 30
0.0
 70
0
  0
VERTEX
  5
95
  8
1
 10
-2829.599408
 20
-907.480674
 30
0.0
 70
0
  0
VERTEX
  5
96
  8
1
 10
-2814.381829
 20
-903.360267
 30
0.0
 70
0
  0
VERTEX
  5
97
  8
1
 10
-2799.704379
 20
-899.153242
 30
0.0
 70
0
  0
VERTEX
  5
98
  8
1
 10
-2785.079916
 20
-894.751342
 30
0.0
 70
0
  0
VERTEX
  5
99
  8
1
 10
-2770.602181
 20
-890.215678
 30
0.0
 70
0
  0
VERTEX
  5
9A
  8
1
 10
-2756.072856
 20
-885.50831
 30
0.0
 70
0
  0
VERTEX
  5
9B
  8
1
 10
-2741.649542
 20
-880.669266
 30
0.0
 70
0
  0
VERTEX
  5
9C
  8
1
 10
-2727.222943
 20
-875.656922
 30
0.0
 70
0
  0
VERTEX
  5
9D
  8
1
 10
-2718.491821
 20
-872.544861
 30
0.0
 70
0
  0
VERTEX
  5
9E
  8
1
 10
-2712.863374
 20
-870.538876
 30
0.0
 70
0
  0
VERTEX
  5
9F
  8
1
 10
-2698.960129
 20
-865.511773
 30
0.0
 70
0
  0
VERTEX
  5
A0
  8
1
 10
-2696.931763
 20
-864.773102
 30
0.0
 70
0
  0
VERTEX
  5
A1
  8
1
 10
-2689.854126
 20
-868.828583
 30
0.0
 70
0
  0
VERTEX
  5
A2
  8
1
 10
-2688.674402
 20
-876.701659
 30
0.0
 70
0
  0
VERTEX
  5
A3
  8
1
 10
-2687.453723
 20
-883.241547
 30
0.0
 70
0
  0
VERTEX
  5
A4
  8
1
 10
-2686.203337
 20
-888.685337
 30
0.0
 70
0
  0
VERTEX
  5
A5
  8
1
 10
-2684.785716
 20
-893.798193
 30
0.0
 70
0
  0
VERTEX
  5
A6
  8
1
 10
-2683.151517
 20
-898.76769
 30
0.0
 70
0
  0
VERTEX
  5
A7
  8
1
 10
-2681.341763
 20
-903.495768
 30
0.0
 70
0
  0
VERTEX
  5
A8
  8
1
 10
-2679.390669
 20
-907.935354
 30
0.0
 70
0
  0
VERTEX
  5
A9
  8
1
 10
-2677.270032
 20
-912.150203
 30
0.0
 70
0
  0
VERTEX
  5
AA
  8
1
 10
-2675.055944
 20
-916.014639
 30
0.0
 70
0
  0
VERTEX
  5
AB
  8
1
 10
-2672.740097
 20
-919.570245
 30
0.0
 70
0
  0
VERTEX
  5
AC
  8
1
 10
-2670.306575
 20
-922.854596
 30
0.0
 70
0
  0
VERTEX
  5
AD
  8
1
 10
-2667.841026
 20
-925.775936
 30
0.0
 70
0
  0
VERTEX
  5
AE
  8
1
 10
-2665.287153
 20
-928.42628
 30
0.0
 70
0
  0
VERTEX
  5
AF
  8
1
 10
-2662.629845
 20
-930.826929
 30
0.0
 70
0
  0
VERTEX
  5
B0
  8
1
 10
-2659.697824
 20
-933.128697
 30
0.0
 70
0
  0
VERTEX
  5
B1
  8
1
 10
-2656.334228
 20
-935.439534
 30
0.0
 70
0
  0
VERTEX
  5
B2
  8
1
 10
-2652.593979
 20
-937.699278
 30
0.0
 70
0
  0
VERTEX
  5
B3
  8
1
 10
-2648.441757
 20
-939.917078
 30
0.0
 70
0
  0
VERTEX
  5
B4
  8
1
 10
-2643.767211
 20
-942.124764
 30
0.0
 70
0
  0
VERTEX
  5
B5
  8
1
 10
-2638.579316
 20
-944.29264
 30
0.0
 70
0
  0
VERTEX
  5
B6
  8
1
 10
-2632.671609
 20
-946.479548
 30
0.0
 70
0
  0
VERTEX
  5
B7
  8
1
 10
-2626.088007
 20
-948.644271
 30
0.0
 70
0
  0
VERTEX
  5
B8
  8
1
 10
-2619.053356
 20
-950.69243
 30
0.0
 70
0
  0
VERTEX
  5
B9
  8
1
 10
-2610.596843
 20
-952.87244
 30
0.0
 70
0
  0
VERTEX
  5
BA
  8
1
 10
-2602.60498
 20
-954.734039
 30
0.0
 70
0
  0
VERTEX
  5
BB
  8
1
 10
-2587.262524
 20
-958.515488
 30
0.0
 70
0
  0
VERTEX
  5
BC
  8
1
 10
-2572.222129
 20
-962.224684
 30
0.0
 70
0
  0
VERTEX
  5
BD
  8
1
 10
-2557.258333
 20
-965.917981
 30
0.0
 70
0
  0
VERTEX
  5
BE
  8
1
 10
-2542.567606
 20
-969.547365
 30
0.0
 70
0
  0
VERTEX
  5
BF
  8
1
 10
-2527.607795
 20
-973.247061
 30
0.0
 70
0
  0
VERTEX
  5
C0
  8
1
 10
-2512.918774
 20
-976.883517
 30
0.0
 70
0
  0
VERTEX
  5
C1
  8
1
 10
-2498.183804
 20
-980.534874
 30
0.0
 70
0
  0
VERTEX
  5
C2
  8
1
 10
-2483.496343
 20
-984.177632
 30
0.0
 70
0
  0
VERTEX
  5
C3
  8
1
 10
-2468.809518
 20
-987.822993
 30
0.0
 70
0
  0
VERTEX
  5
C4
  8
1
 10
-2464.084167
 20
-988.996582
 30
0.0
 70
0
  0
VERTEX
  5
C5
  8
1
 10
-2454.370069
 20
-991.409125
 30
0.0
 70
0
  0
VERTEX
  5
C6
  8
1
 10
-2451.521759
 20
-992.116699
 30
0.0
 70
0
  0
VERTEX
  5
C7
  8
1
 10
-2452.287252
 20
-1007.736997
 30
0.0
 70
0
  0
VERTEX
  5
C8
  8
1
 10
-2452.320099
 20
-1008.406754
 30
0.0
 70
0
  0
VERTEX
  5
C9
  8
1
 10
-2453.036875
 20
-1023.033668
 30
0.0
 70
0
  0
VERTEX
  5
CA
  8
1
 10
-2453.7865
 20
-1038.330352
 30
0.0
 70
0
  0
VERTEX
  5
CB
  8
1
 10
-2454.52179
 20
-1053.33424
 30
0.0
 70
0
  0
VERTEX
  5
CC
  8
1
 10
-2455.271428
 20
-1068.630925
 30
0.0
 70
0
  0
VERTEX
  5
CD
  8
1
 10
-2456.027908
 20
-1084.067842
 30
0.0
 70
0
  0
VERTEX
  5
CE
  8
1
 10
-2456.777488
 20
-1099.364524
 30
0.0
 70
0
  0
VERTEX
  5
CF
  8
1
 10
-2457.520892
 20
-1114.534889
 30
0.0
 70
0
  0
VERTEX
  5
D0
  8
1
 10
-2458.27052
 20
-1129.83157
 30
0.0
 70
0
  0
VERTEX
  5
D1
  8
1
 10
-2459.005606
 20
-1144.83135
 30
0.0
 70
0
  0
VERTEX
  5
D2
  8
1
 10
-2459.755231
 20
-1160.128037
 30
0.0
 70
0
  0
VERTEX
  5
D3
  8
1
 10
-2460.507018
 20
-1175.46899
 30
0.0
 70
0
  0
VERTEX
  5
D4
  8
1
 10
-2461.110077
 20
-1187.776108
 30
0.0
 70
0
  0
VERTEX
  5
D5
  8
1
 10
-2461.25663
 20
-1190.765657
 30
0.0
 70
0
  0
VERTEX
  5
D6
  8
1
 10
-2462.006236
 20
-1206.06232
 30
0.0
 70
0
  0
VERTEX
  5
D7
  8
1
 10
-2462.746473
 20
-1221.16797
 30
0.0
 70
0
  0
VERTEX
  5
D8
  8
1
 10
-2463.489576
 20
-1236.332063
 30
0.0
 70
0
  0
VERTEX
  5
D9
  8
1
 10
-2463.993835
 20
-1246.622086
 30
0.0
 70
0
  0
VERTEX
  5
DA
  8
1
 10
-2472.386092
 20
-1247.247317
 30
0.0
 70
0
  0
VERTEX
  5
DB
  8
1
 10
-2476.755219
 20
-1247.561722
 30
0.0
 70
0
  0
VERTEX
  5
DC
  8
1
 10
-2487.607148
 20
-1248.342682
 30
0.0
 70
0
  0
VERTEX
  5
DD
  8
1
 10
-2502.621807
 20
-1249.356675
 30
0.0
 70
0
  0
VERTEX
  5
DE
  8
1
 10
-2518.069329
 20
-1250.298856
 30
0.0
 70
0
  0
VERTEX
  5
DF
  8
1
 10
-2533.232324
 20
-1251.097066
 30
0.0
 70
0
  0
VERTEX
  5
E0
  8
1
 10
-2548.694164
 20
-1251.76589
 30
0.0
 70
0
  0
VERTEX
  5
E1
  8
1
 10
-2563.932748
 20
-1252.272654
 30
0.0
 70
0
  0
VERTEX
  5
E2
  8
1
 10
-2579.404926
 20
-1252.631638
 30
0.0
 70
0
  0
VERTEX
  5
E3
  8
1
 10
-2594.616917
 20
-1252.835809
 30
0.0
 70
0
  0
VERTEX
  5
E4
  8
1
 10
-2610.093124
 20
-1252.90223
 30
0.0
 70
0
  0
VERTEX
  5
E5
  8
1
 10
-2625.177632
 20
-1252.841673
 30
0.0
 70
0
  0
VERTEX
  5
E6
  8
1
 10
-2640.652858
 20
-1252.660209
 30
0.0
 70
0
  0
VERTEX
  5
E7
  8
1
 10
-2655.800597
 20
-1252.373166
 30
0.0
 70
0
  0
VERTEX
  5
E8
  8
1
 10
-2671.271724
 20
-1251.97622
 30
0.0
 70
0
  0
VERTEX
  5
E9
  8
1
 10
-2686.707512
 20
-1251.483136
 30
0.0
 70
0
  0
VERTEX
  5
EA
  8
1
 10
-2702.172505
 20
-1250.895086
 30
0.0
 70
0
  0
VERTEX
  5
EB
  8
1
 10
-2717.513139
 20
-1250.222191
 30
0.0
 70
0
  0
VERTEX
  5
EC
  8
1
 10
-2732.971155
 20
-1249.47193
 30
0.0
 70
0
  0
VERTEX
  5
ED
  8
1
 10
-2748.358362
 20
-1248.677655
 30
0.0
 70
0
  0
VERTEX
  5
EE
  8
1
 10
-2763.81294
 20
-1247.861181
 30
0.0
 70
0
  0
VERTEX
  5
EF
  8
1
 10
-2778.94071
 20
-1247.068904
 30
0.0
 70
0
  0
VERTEX
  5
F0
  8
1
 10
-2794.396133
 20
-1246.268054
 30
0.0
 70
0
  0
VERTEX
  5
F1
  8
1
 10
-2809.650912
 20
-1245.480512
 30
0.0
 70
0
  0
VERTEX
  5
F2
  8
1
 10
-2825.106669
 20
-1244.685423
 30
0.0
 70
0
  0
VERTEX
  5
F3
  8
1
 10
-2840.194477
 20
-1243.913382
 30
0.0
 70
0
  0
VERTEX
  5
F4
  8
1
 10
-2855.650549
 20
-1243.126469
 30
0.0
 70
0
  0
VERTEX
  5
F5
  8
1
 10
-2871.049565
 20
-1242.345801
 30
0.0
 70
0
  0
VERTEX
  5
F6
  8
1
 10
-2886.506018
 20
-1241.565467
 30
0.0
 70
0
  0
VERTEX
  5
F7
  8
1
 10
-2901.772929
 20
-1240.797935
 30
0.0
 70
0
  0
VERTEX
  5
F8
  8
1
 10
-2917.229727
 20
-1240.024069
 30
0.0
 70
0
  0
VERTEX
  5
F9
  8
1
 10
-2932.382658
 20
-1239.268462
 30
0.0
 70
0
  0
VERTEX
  5
FA
  8
1
 10
-2947.839786
 20
-1238.500654
 30
0.0
 70
0
  0
VERTEX
  5
FB
  8
1
 10
-2963.258568
 20
-1237.737766
 30
0.0
 70
0
  0
VERTEX
  5
FC
  8
1
 10
-2978.546339
 20
-1236.985059
 30
0.0
 70
0
  0
VERTEX
  5
FD
  8
1
 10
-2993.842536
 20
-1236.235962
 30
0.0
 70
0
  0
SEQEND
  5
33
  8
1
  0
POLYLINE
  5
FE
  8
14
 66
1
 10
0.0
 20
0.0
 30
0.0
 70
1
  0
VERTEX
  5
100
  8
14
 10
-3008.834839
 20
-1222.789612
 30
0.0
 70
0
  0
VERTEX
  5
101
  8
14
 10
-3008.834839
 20
-1222.789612
 30
0.0
 70
0
  0
VERTEX
  5
102
  8
14
 10
-3016.375282
 20
-1222.54381
 30
0.0
 70
0
  0
VERTEX
  5
103
  8
14
 10
-3031.416326
 20
-1222.039005
 30
0.0
 70
0
  0
VERTEX
  5
104
  8
14
 10
-3047.28682
 20
-1221.491605
 30
0.0
 70
0
  0
VERTEX
  5
105
  8
14
 10
-3063.168866
 20
-1220.930719
 30
0.0
 70
0
  0
VERTEX
  5
106
  8
14
 10
-3081.199238
 20
-1220.279074
 30
0.0
 70
0
  0
VERTEX
  5
107
  8
14
 10
-3097.002191
 20
-1219.695209
 30
0.0
 70
0
  0
VERTEX
  5
108
  8
14
 10
-3113.891885
 20
-1219.058056
 30
0.0
 70
0
  0
VERTEX
  5
109
  8
14
 10
-3131.740245
 20
-1218.369745
 30
0.0
 70
0
  0
VERTEX
  5
10A
  8
14
 10
-3150.41923
 20
-1217.632407
 30
0.0
 70
0
  0
VERTEX
  5
10B
  8
14
 10
-3169.800696
 20
-1216.848176
 30
0.0
 70
0
  0
VERTEX
  5
10C
  8
14
 10
-3184.720775
 20
-1216.230512
 30
0.0
 70
0
  0
VERTEX
  5
10D
  8
14
 10
-3199.909944
 20
-1215.588567
 30
0.0
 70
0
  0
VERTEX
  5
10E
  8
14
 10
-3215.314209
 20
-1214.923241
 30
0.0
 70
0
  0
VERTEX
  5
10F
  8
14
 10
-3230.879463
 20
-1214.235436
 30
0.0
 70
0
  0
VERTEX
  5
110
  8
14
 10
-3246.551712
 20
-1213.526049
 30
0.0
 70
0
  0
VERTEX
  5
111
  8
14
 10
-3265.122877
 20
-1212.661785
 30
0.0
 70
0
  0
VERTEX
  5
112
  8
14
 10
-3280.830777
 20
-1211.909969
 30
0.0
 70
0
  0
VERTEX
  5
113
  8
14
 10
-3296.429317
 20
-1211.145994
 30
0.0
 70
0
  0
VERTEX
  5
114
  8
14
 10
-3311.82685
 20
-1210.376314
 30
0.0
 70
0
  0
VERTEX
  5
115
  8
14
 10
-3331.885693
 20
-1209.352359
 30
0.0
 70
0
  0
VERTEX
  5
116
  8
14
 10
-3351.206846
 20
-1208.34504
 30
0.0
 70
0
  0
VERTEX
  5
117
  8
14
 10
-3369.572946
 20
-1207.36966
 30
0.0
 70
0
  0
VERTEX
  5
118
  8
14
 10
-3386.766697
 20
-1206.441519
 30
0.0
 70
0
  0
VERTEX
  5
119
  8
14
 10
-3402.570743
 20
-1205.57592
 30
0.0
 70
0
  0
VERTEX
  5
11A
  8
14
 10
-3420.040451
 20
-1204.605182
 30
0.0
 70
0
  0
VERTEX
  5
11B
  8
14
 10
-3437.09196
 20
-1203.642927
 30
0.0
 70
0
  0
VERTEX
  5
11C
  8
14
 10
-3456.413879
 20
-1202.530746
 30
0.0
 70
0
  0
VERTEX
  5
11D
  8
14
 10
-3456.413879
 20
-1202.530746
 30
0.0
 70
0
  0
VERTEX
  5
11E
  8
14
 10
-3456.337613
 20
-1181.63632
 30
0.0
 70
0
  0
VERTEX
  5
11F
  8
14
 10
-3456.269929
 20
-1163.092858
 30
0.0
 70
0
  0
VERTEX
  5
120
  8
14
 10
-3456.20534
 20
-1145.397546
 30
0.0
 70
0
  0
VERTEX
  5
121
  8
14
 10
-3456.134093
 20
-1125.878117
 30
0.0
 70
0
  0
VERTEX
  5
122
  8
14
 10
-3456.077744
 20
-1110.440488
 30
0.0
 70
0
  0
VERTEX
  5
123
  8
14
 10
-3456.020034
 20
-1094.629743
 30
0.0
 70
0
  0
VERTEX
  5
124
  8
14
 10
-3455.961984
 20
-1078.72573
 30
0.0
 70
0
  0
VERTEX
  5
125
  8
14
 10
-3455.904614
 20
-1063.008273
 30
0.0
 70
0
  0
VERTEX
  5
126
  8
14
 10
-3455.848947
 20
-1047.75721
 30
0.0
 70
0
  0
VERTEX
  5
127
  8
14
 10
-3455.779137
 20
-1028.631615
 30
0.0
 70
0
  0
VERTEX
  5
128
  8
14
 10
-3455.716591
 20
-1011.495981
 30
0.0
 70
0
  0
VERTEX
  5
129
  8
14
 10
-3455.663729
 20
-997.013592
 30
0.0
 70
0
  0
VERTEX
  5
12A
  8
14
 10
-3455.607892
 20
-981.715879
 30
0.0
 70
0
  0
VERTEX
  5
12B
  8
14
 10
-3455.587463
 20
-976.119156
 30
0.0
 70
0
  0
VERTEX
  5
12C
  8
14
 10
-3455.587463
 20
-976.119156
 30
0.0
 70
0
  0
VERTEX
  5
12D
  8
14
 10
-3431.567946
 20
-974.871959
 30
0.0
 70
0
  0
VERTEX
  5
12E
  8
14
 10
-3414.358559
 20
-973.978374
 30
0.0
 70
0
  0
VERTEX
  5
12F
  8
14
 10
-3393.468021
 20
-972.893647
 30
0.0
 70
0
  0
VERTEX
  5
130
  8
14
 10
-3377.76859
 20
-972.078465
 30
0.0
 70
0
  0
VERTEX
  5
131
  8
14
 10
-3360.842102
 20
-971.199569
 30
0.0
 70
0
  0
VERTEX
  5
132
  8
14
 10
-3342.852168
 20
-970.265454
 30
0.0
 70
0
  0
VERTEX
  5
133
  8
14
 10
-3323.962414
 20
-969.284616
 30
0.0
 70
0
  0
VERTEX
  5
134
  8
14
 10
-3304.336412
 20
-968.26555
 30
0.0
 70
0
  0
VERTEX
  5
135
  8
14
 10
-3284.137786
 20
-967.21675
 30
0.0
 70
0
  0
VERTEX
  5
136
  8
14
 10
-3263.530161
 20
-966.146713
 30
0.0
 70
0
  0
VERTEX
  5
137
  8
14
 10
-3242.677107
 20
-965.063933
 30
0.0
 70
0
  0
VERTEX
  5
138
  8
14
 10
-3221.742249
 20
-963.976905
 30
0.0
 70
0
  0
VERTEX
  5
139
  8
14
 10
-3200.889194
 20
-962.894125
 30
0.0
 70
0
  0
VERTEX
  5
13A
  8
14
 10
-3180.281548
 20
-961.824087
 30
0.0
 70
0
  0
VERTEX
  5
13B
  8
14
 10
-3160.082956
 20
-960.775289
 30
0.0
 70
0
  0
VERTEX
  5
13C
  8
14
 10
-3140.45695
 20
-959.756222
 30
0.0
 70
0
  0
VERTEX
  5
13D
  8
14
 10
-3121.567175
 20
-958.775384
 30
0.0
 70
0
  0
VERTEX
  5
13E
  8
14
 10
-3103.577236
 20
-957.841269
 30
0.0
 70
0
  0
VERTEX
  5
13F
  8
14
 10
-3086.650742
 20
-956.962372
 30
0.0
 70
0
  0
VERTEX
  5
140
  8
14
 10
-3070.951298
 20
-956.147189
 30
0.0
 70
0
  0
VERTEX
  5
141
  8
14
 10
-3056.642537
 20
-955.404217
 30
0.0
 70
0
  0
VERTEX
  5
142
  8
14
 10
-3038.144717
 20
-954.44373
 30
0.0
 70
0
  0
VERTEX
  5
143
  8
14
 10
-3023.696185
 20
-953.6935
 30
0.0
 70
0
  0
VERTEX
  5
144
  8
14
 10
-3010.113387
 20
-952.988223
 30
0.0
 70
0
  0
VERTEX
  5
145
  8
14
 10
-3008.831787
 20
-952.921677
 30
0.0
 70
0
  0
VERTEX
  5
146
  8
14
 10
-3008.831787
 20
-952.921677
 30
0.0
 70
0
  0
VERTEX
  5
147
  8
14
 10
-2991.976581
 20
-950.799665
 30
0.0
 70
0
  0
VERTEX
  5
148
  8
14
 10
-2975.921095
 20
-948.622322
 30
0.0
 70
0
  0
VERTEX
  5
149
  8
14
 10
-2960.017129
 20
-946.332861
 30
0.0
 70
0
  0
VERTEX
  5
14A
  8
14
 10
-2944.334137
 20
-943.940902
 30
0.0
 70
0
  0
VERTEX
  5
14B
  8
14
 10
-2927.653921
 20
-941.235689
 30
0.0
 70
0
  0
VERTEX
  5
14C
  8
14
 10
-2912.586341
 20
-938.628748
 30
0.0
 70
0
  0
VERTEX
  5
14D
  8
14
 10
-2897.469662
 20
-935.829643
 30
0.0
 70
0
  0
VERTEX
  5
14E
  8
14
 10
-2882.294097
 20
-932.812138
 30
0.0
 70
0
  0
VERTEX
  5
14F
  8
14
 10
-2867.162448
 20
-929.588069
 30
0.0
 70
0
  0
VERTEX
  5
150
  8
14
 10
-2852.081518
 20
-926.153135
 30
0.0
 70
0
  0
VERTEX
  5
151
  8
14
 10
-2837.058056
 20
-922.503022
 30
0.0
 70
0
  0
VERTEX
  5
152
  8
14
 10
-2822.098829
 20
-918.633419
 30
0.0
 70
0
  0
VERTEX
  5
153
  8
14
 10
-2805.743557
 20
-914.123869
 30
0.0
 70
0
  0
VERTEX
  5
154
  8
14
 10
-2791.04671
 20
-909.832973
 30
0.0
 70
0
  0
VERTEX
  5
155
  8
14
 10
-2776.753962
 20
-905.470687
 30
0.0
 70
0
  0
VERTEX
  5
156
  8
14
 10
-2761.209308
 20
-900.537276
 30
0.0
 70
0
  0
VERTEX
  5
157
  8
14
 10
-2746.836211
 20
-895.814895
 30
0.0
 70
0
  0
VERTEX
  5
158
  8
14
 10
-2732.494371
 20
-890.956529
 30
0.0
 70
0
  0
VERTEX
  5
159
  8
14
 10
-2718.282231
 20
-885.997182
 30
0.0
 70
0
  0
VERTEX
  5
15A
  8
14
 10
-2704.065552
 20
-880.864716
 30
0.0
 70
0
  0
VERTEX
  5
15B
  8
14
 10
-2704.065552
 20
-880.864716
 30
0.0
 70
0
  0
VERTEX
  5
15C
  8
14
 10
-2703.153582
 20
-886.280849
 30
0.0
 70
0
  0
VERTEX
  5
15D
  8
14
 10
-2701.797267
 20
-892.310121
 30
0.0
 70
0
  0
VERTEX
  5
15E
  8
14
 10
-2700.267816
 20
-897.879929
 30
0.0
 70
0
  0
VERTEX
  5
15F
  8
14
 10
-2698.484861
 20
-903.396986
 30
0.0
 70
0
  0
VERTEX
  5
160
  8
14
 10
-2696.258851
 20
-909.294416
 30
0.0
 70
0
  0
VERTEX
  5
161
  8
14
 10
-2693.914054
 20
-914.651641
 30
0.0
 70
0
  0
VERTEX
  5
162
  8
14
 10
-2691.586498
 20
-919.311833
 30
0.0
 70
0
  0
VERTEX
  5
163
  8
14
 10
-2688.94662
 20
-923.969894
 30
0.0
 70
0
  0
VERTEX
  5
164
  8
14
 10
-2685.976392
 20
-928.564078
 30
0.0
 70
0
  0
VERTEX
  5
165
  8
14
 10
-2683.235846
 20
-932.299224
 30
0.0
 70
0
  0
VERTEX
  5
166
  8
14
 10
-2680.24293
 20
-935.911413
 30
0.0
 70
0
  0
VERTEX
  5
167
  8
14
 10
-2676.987222
 20
-939.364901
 30
0.0
 70
0
  0
VERTEX
  5
168
  8
14
 10
-2674.105351
 20
-942.061017
 30
0.0
 70
0
  0
VERTEX
  5
169
  8
14
 10
-2669.568968
 20
-945.731062
 30
0.0
 70
0
  0
VERTEX
  5
16A
  8
14
 10
-2665.518127
 20
-948.55573
 30
0.0
 70
0
  0
VERTEX
  5
16B
  8
14
 10
-2661.255114
 20
-951.178634
 30
0.0
 70
0
  0
VERTEX
  5
16C
  8
14
 10
-2655.904022
 20
-954.073886
 30
0.0
 70
0
  0
VERTEX
  5
16D
  8
14
 10
-2650.347708
 20
-956.710326
 30
0.0
 70
0
  0
VERTEX
  5
16E
  8
14
 10
-2644.640888
 20
-959.105263
 30
0.0
 70
0
  0
VERTEX
  5
16F
  8
14
 10
-2637.865663
 20
-961.617229
 30
0.0
 70
0
  0
VERTEX
  5
170
  8
14
 10
-2631.193599
 20
-963.80617
 30
0.0
 70
0
  0
VERTEX
  5
171
  8
14
 10
-2623.569706
 20
-966.036079
 30
0.0
 70
0
  0
VERTEX
  5
172
  8
14
 10
-2615.124559
 20
-968.24878
 30
0.0
 70
0
  0
VERTEX
  5
173
  8
14
 10
-2606.329041
 20
-970.297089
 30
0.0
 70
0
  0
VERTEX
  5
174
  8
14
 10
-2589.6775
 20
-974.400834
 30
0.0
 70
0
  0
VERTEX
  5
175
  8
14
 10
-2574.695226
 20
-978.096361
 30
0.0
 70
0
  0
VERTEX
  5
176
  8
14
 10
-2559.959698
 20
-981.733817
 30
0.0
 70
0
  0
VERTEX
  5
177
  8
14
 10
-2543.96141
 20
-985.686506
 30
0.0
 70
0
  0
VERTEX
  5
178
  8
14
 10
-2528.719163
 20
-989.45652
 30
0.0
 70
0
  0
VERTEX
  5
179
  8
14
 10
-2513.999993
 20
-993.101328
 30
0.0
 70
0
  0
VERTEX
  5
17A
  8
14
 10
-2498.612583
 20
-996.915217
 30
0.0
 70
0
  0
VERTEX
  5
17B
  8
14
 10
-2483.898386
 20
-1000.565179
 30
0.0
 70
0
  0
VERTEX
  5
17C
  8
14
 10
-2469.666947
 20
-1004.098002
 30
0.0
 70
0
  0
VERTEX
  5
17D
  8
14
 10
-2464.882507
 20
-1005.286407
 30
0.0
 70
0
  0
VERTEX
  5
17E
  8
14
 10
-2464.881134
 20
-1005.26123
 30
0.0
 70
0
  0
VERTEX
  5
17F
  8
14
 10
-2464.882507
 20
-1005.286407
 30
0.0
 70
0
  0
VERTEX
  5
180
  8
14
 10
-2465.763735
 20
-1023.27152
 30
0.0
 70
0
  0
VERTEX
  5
181
  8
14
 10
-2466.638613
 20
-1041.124208
 30
0.0
 70
0
  0
VERTEX
  5
182
  8
14
 10
-2467.489891
 20
-1058.495336
 30
0.0
 70
0
  0
VERTEX
  5
183
  8
14
 10
-2468.440028
 20
-1077.883756
 30
0.0
 70
0
  0
VERTEX
  5
184
  8
14
 10
-2469.197683
 20
-1093.344418
 30
0.0
 70
0
  0
VERTEX
  5
185
  8
14
 10
-2469.978508
 20
-1109.277873
 30
0.0
 70
0
  0
VERTEX
  5
186
  8
14
 10
-2470.768601
 20
-1125.40045
 30
0.0
 70
0
  0
VERTEX
  5
187
  8
14
 10
-2471.554061
 20
-1141.428485
 30
0.0
 70
0
  0
VERTEX
  5
188
  8
14
 10
-2472.320984
 20
-1157.078259
 30
0.0
 70
0
  0
VERTEX
  5
189
  8
14
 10
-2473.055469
 20
-1172.066109
 30
0.0
 70
0
  0
VERTEX
  5
18A
  8
14
 10
-2473.795013
 20
-1187.155151
 30
0.0
 70
0
  0
VERTEX
  5
18B
  8
14
 10
-2473.960296
 20
-1190.529948
 30
0.0
 70
0
  0
VERTEX
  5
18C
  8
14
 10
-2474.749788
 20
-1206.640264
 30
0.0
 70
0
  0
VERTEX
  5
18D
  8
14
 10
-2475.524263
 20
-1222.444146
 30
0.0
 70
0
  0
VERTEX
  5
18E
  8
14
 10
-2476.128998
 20
-1234.784317
 30
0.0
 70
0
  0
VERTEX
  5
18F
  8
14
 10
-2476.128998
 20
-1234.784317
 30
0.0
 70
0
  0
VERTEX
  5
190
  8
14
 10
-2478.934399
 20
-1234.998512
 30
0.0
 70
0
  0
VERTEX
  5
191
  8
14
 10
-2493.304517
 20
-1236.023125
 30
0.0
 70
0
  0
VERTEX
  5
192
  8
14
 10
-2508.51796
 20
-1237.007491
 30
0.0
 70
0
  0
VERTEX
  5
193
  8
14
 10
-2524.385399
 20
-1237.923211
 30
0.0
 70
0
  0
VERTEX
  5
194
  8
14
 10
-2539.293772
 20
-1238.66439
 30
0.0
 70
0
  0
VERTEX
  5
195
  8
14
 10
-2554.442528
 20
-1239.271604
 30
0.0
 70
0
  0
VERTEX
  5
196
  8
14
 10
-2569.671005
 20
-1239.721569
 30
0.0
 70
0
  0
VERTEX
  5
197
  8
14
 10
-2584.905425
 20
-1240.019385
 30
0.0
 70
0
  0
VERTEX
  5
198
  8
14
 10
-2600.143839
 20
-1240.174145
 30
0.0
 70
0
  0
VERTEX
  5
199
  8
14
 10
-2615.38434
 20
-1240.194942
 30
0.0
 70
0
  0
VERTEX
  5
19A
  8
14
 10
-2630.624903
 20
-1240.090871
 30
0.0
 70
0
  0
VERTEX
  5
19B
  8
14
 10
-2645.863618
 20
-1239.871025
 30
0.0
 70
0
  0
VERTEX
  5
19C
  8
14
 10
-2661.003115
 20
-1239.546842
 30
0.0
 70
0
  0
VERTEX
  5
19D
  8
14
 10
-2676.233196
 20
-1239.121901
 30
0.0
 70
0
  0
VERTEX
  5
19E
  8
14
 10
-2691.458607
 20
-1238.603198
 30
0.0
 70
0
  0
VERTEX
  5
19F
  8
14
 10
-2706.679818
 20
-1237.995749
 30
0.0
 70
0
  0
VERTEX
  5
1A0
  8
14
 10
-2722.201346
 20
-1237.289965
 30
0.0
 70
0
  0
VERTEX
  5
1A1
  8
14
 10
-2737.415761
 20
-1236.527453
 30
0.0
 70
0
  0
VERTEX
  5
1A2
  8
14
 10
-2754.398771
 20
-1235.637838
 30
0.0
 70
0
  0
VERTEX
  5
1A3
  8
14
 10
-2769.600709
 20
-1234.840958
 30
0.0
 70
0
  0
VERTEX
  5
1A4
  8
14
 10
-2784.749667
 20
-1234.051496
 30
0.0
 70
0
  0
VERTEX
  5
1A5
  8
14
 10
-2799.797937
 20
-1233.271559
 30
0.0
 70
0
  0
VERTEX
  5
1A6
  8
14
 10
-2816.811493
 20
-1232.394571
 30
0.0
 70
0
  0
VERTEX
  5
1A7
  8
14
 10
-2833.559988
 20
-1231.535926
 30
0.0
 70
0
  0
VERTEX
  5
1A8
  8
14
 10
-2849.972226
 20
-1230.698771
 30
0.0
 70
0
  0
VERTEX
  5
1A9
  8
14
 10
-2865.976989
 20
-1229.886254
 30
0.0
 70
0
  0
VERTEX
  5
1AA
  8
14
 10
-2881.503062
 20
-1229.10152
 30
0.0
 70
0
  0
VERTEX
  5
1AB
  8
14
 10
-2898.309027
 20
-1228.255824
 30
0.0
 70
0
  0
VERTEX
  5
1AC
  8
14
 10
-2914.317633
 20
-1227.453756
 30
0.0
 70
0
  0
VERTEX
  5
1AD
  8
14
 10
-2929.427464
 20
-1226.699796
 30
0.0
 70
0
  0
VERTEX
  5
1AE
  8
14
 10
-2945.038706
 20
-1225.923938
 30
0.0
 70
0
  0
VERTEX
  5
1AF
  8
14
 10
-2960.618894
 20
-1225.152819
 30
0.0
 70
0
  0
VERTEX
  5
1B0
  8
14
 10
-2976.63544
 20
-1224.363557
 30
0.0
 70
0
  0
VERTEX
  5
1B1
  8
14
 10
-2992.353972
 20
-1223.592697
 30
0.0
 70
0
  0
SEQEND
  5
FF
  8
14
  0
POLYLINE
  5
1B2
  8
8
 66
1
 10
0.0
 20
0.0
 30
0.0
 70
0
  0
VERTEX
  5
1B4
  8
8
 10
-2502.717133
 20
-1036.646423
 30
0.0
 70
0
  0
VERTEX
  5
1B5
  8
8
 10
-2503.989413
 20
-1055.184761
 30
0.0
 70
0
  0
VERTEX
  5
1B6
  8
8
 10
-2505.123636
 20
-1071.711467
 30
0.0
 70
0
  0
VERTEX
  5
1B7
  8
8
 10
-2506.229915
 20
-1087.831006
 30
0.0
 70
0
  0
VERTEX
  5
1B8
  8
8
 10
-2507.419314
 20
-1105.161666
 30
0.0
 70
0
  0
VERTEX
  5
1B9
  8
8
 10
-2508.632461
 20
-1122.838371
 30
0.0
 70
0
  0
VERTEX
  5
1BA
  8
8
 10
-2509.809984
 20
-1139.996009
 30
0.0
 70
0
  0
VERTEX
  5
1BB
  8
8
 10
-2510.892515
 20
-1155.769506
 30
0.0
 70
0
  0
VERTEX
  5
1BC
  8
8
 10
-2511.982565
 20
-1171.652568
 30
0.0
 70
0
  0
VERTEX
  5
1BD
  8
8
 10
-2512.976432
 20
-1186.134163
 30
0.0
 70
0
  0
VERTEX
  5
1BE
  8
8
 10
-2513.092957
 20
-1187.832031
 30
0.0
 70
0
  0
SEQEND
  5
1B3
  8
8
  0
POLYLINE
  5
1BF
  8
8
 66
1
 10
0.0
 20
0.0
 30
0.0
 70
0
  0
VERTEX
  5
1C1
  8
8
 10
-2606.329041
 20
-970.297089
 30
0.0
 70
0
  0
VERTEX
  5
1C2
  8
8
 10
-2630.55542
 20
-1239.916153
 30
0.0
 70
0
  0
SEQEND
  5
1C0
  8
8
  0
POLYLINE
  5
1C3
  8
8
 66
1
 10
0.0
 20
0.0
 30
0.0
 70
0
  0
VERTEX
  5
1C5
  8
8
 10
-3456.000671
 20
-1093.093338
 30
0.0
 70
0
  0
VERTEX
  5
1C6
  8
8
 10
-3435.442475
 20
-1093.084985
 30
0.0
 70
0
  0
VERTEX
  5
1C7
  8
8
 10
-3417.634309
 20
-1093.078077
 30
0.0
 70
0
  0
VERTEX
  5
1C8
  8
8
 10
-3399.939166
 20
-1093.071441
 30
0.0
 70
0
  0
VERTEX
  5
1C9
  8
8
 10
-3379.447434
 20
-1093.064013
 30
0.0
 70
0
  0
VERTEX
  5
1CA
  8
8
 10
-3362.392688
 20
-1093.05803
 30
0.0
 70
0
  0
VERTEX
  5
1CB
  8
8
 10
-3344.009149
 20
-1093.051776
 30
0.0
 70
0
  0
VERTEX
  5
1CC
  8
8
 10
-3324.401529
 20
-1093.045328
 30
0.0
 70
0
  0
VERTEX
  5
1CD
  8
8
 10
-3303.674525
 20
-1093.038761
 30
0.0
 70
0
  0
VERTEX
  5
1CE
  8
8
 10
-3281.932851
 20
-1093.032149
 30
0.0
 70
0
  0
VERTEX
  5
1CF
  8
8
 10
-3259.281191
 20
-1093.02557
 30
0.0
 70
0
  0
VERTEX
  5
1D0
  8
8
 10
-3243.726217
 20
-1093.021238
 30
0.0
 70
0
  0
VERTEX
  5
1D1
  8
8
 10
-3227.844392
 20
-1093.016977
 30
0.0
 70
0
  0
VERTEX
  5
1D2
  8
8
 10
-3211.666669
 20
-1093.012807
 30
0.0
 70
0
  0
VERTEX
  5
1D3
  8
8
 10
-3195.224104
 20
-1093.008752
 30
0.0
 70
0
  0
VERTEX
  5
1D4
  8
8
 10
-3178.547756
 20
-1093.004834
 30
0.0
 70
0
  0
VERTEX
  5
1D5
  8
8
 10
-3161.668573
 20
-1093.001075
 30
0.0
 70
0
  0
VERTEX
  5
1D6
  8
8
 10
-3144.617651
 20
-1092.997498
 30
0.0
 70
0
  0
VERTEX
  5
1D7
  8
8
 10
-3127.425937
 20
-1092.994124
 30
0.0
 70
0
  0
VERTEX
  5
1D8
  8
8
 10
-3110.124527
 20
-1092.990977
 30
0.0
 70
0
  0
VERTEX
  5
1D9
  8
8
 10
-3092.744369
 20
-1092.988078
 30
0.0
 70
0
  0
VERTEX
  5
1DA
  8
8
 10
-3075.316558
 20
-1092.98545
 30
0.0
 70
0
  0
VERTEX
  5
1DB
  8
8
 10
-3065.943619
 20
-1092.984158
 30
0.0
 70
0
  0
VERTEX
  5
1DC
  8
8
 10
-3039.796061
 20
-1092.981006
 30
0.0
 70
0
  0
VERTEX
  5
1DD
  8
8
 10
-3022.426996
 20
-1092.979262
 30
0.0
 70
0
  0
VERTEX
  5
1DE
  8
8
 10
-3005.151968
 20
-1092.977785
 30
0.0
 70
0
  0
VERTEX
  5
1DF
  8
8
 10
-2988.008501
 20
-1092.976561
 30
0.0
 70
0
  0
VERTEX
  5
1E0
  8
8
 10
-2971.034233
 20
-1092.975574
 30
0.0
 70
0
  0
VERTEX
  5
1E1
  8
8
 10
-2954.266837
 20
-1092.97481
 30
0.0
 70
0
  0
VERTEX
  5
1E2
  8
8
 10
-2937.743765
 20
-1092.974253
 30
0.0
 70
0
  0
VERTEX
  5
1E3
  8
8
 10
-2921.502692
 20
-1092.973889
 30
0.0
 70
0
  0
VERTEX
  5
1E4
  8
8
 10
-2905.581216
 20
-1092.973703
 30
0.0
 70
0
  0
VERTEX
  5
1E5
  8
8
 10
-2890.016938
 20
-1092.973679
 30
0.0
 70
0
  0
VERTEX
  5
1E6
  8
8
 10
-2874.847523
 20
-1092.973802
 30
0.0
 70
0
  0
VERTEX
  5
1E7
  8
8
 10
-2852.915795
 20
-1092.97423
 30
0.0
 70
0
  0
VERTEX
  5
1E8
  8
8
 10
-2832.08386
 20
-1092.974906
 30
0.0
 70
0
  0
VERTEX
  5
1E9
  8
8
 10
-2812.478672
 20
-1092.975777
 30
0.0
 70
0
  0
VERTEX
  5
1EA
  8
8
 10
-2794.227017
 20
-1092.976795
 30
0.0
 70
0
  0
VERTEX
  5
1EB
  8
8
 10
-2777.455852
 20
-1092.977908
 30
0.0
 70
0
  0
VERTEX
  5
1EC
  8
8
 10
-2762.292119
 20
-1092.979064
 30
0.0
 70
0
  0
VERTEX
  5
1ED
  8
8
 10
-2744.793463
 20
-1092.980588
 30
0.0
 70
0
  0
VERTEX
  5
1EE
  8
8
 10
-2727.714137
 20
-1092.982293
 30
0.0
 70
0
  0
VERTEX
  5
1EF
  8
8
 10
-2713.80457
 20
-1092.983886
 30
0.0
 70
0
  0
VERTEX
  5
1F0
  8
8
 10
-2711.645813
 20
-1092.984161
 30
0.0
 70
0
  0
SEQEND
  5
1C4
  8
8
  0
POLYLINE
  5
1F1
  8
8
 66
1
 10
0.0
 20
0.0
 30
0.0
 70
0
  0
VERTEX
  5
1F3
  8
8
 10
-3008.831787
 20
-952.921677
 30
0.0
 70
0
  0
VERTEX
  5
1F4
  8
8
 10
-3008.831787
 20
-970.51524
 30
0.0
 70
0
  0
VERTEX
  5
1F5
  8
8
 10
-3008.831787
 20
-987.992205
 30
0.0
 70
0
  0
VERTEX
  5
1F6
  8
8
 10
-3008.831787
 20
-1004.664958
 30
0.0
 70
0
  0
VERTEX
  5
1F7
  8
8
 10
-3008.831787
 20
-1020.665313
 30
0.0
 70
0
  0
VERTEX
  5
1F8
  8
8
 10
-3008.831787
 20
-1037.896579
 30
0.0
 70
0
  0
VERTEX
  5
1F9
  8
8
 10
-3008.831787
 20
-1056.030032
 30
0.0
 70
0
  0
VERTEX
  5
1FA
  8
8
 10
-3008.831787
 20
-1071.593244
 30
0.0
 70
0
  0
VERTEX
  5
1FB
  8
8
 10
-3008.831787
 20
-1087.364413
 30
0.0
 70
0
  0
VERTEX
  5
1FC
  8
8
 10
-3008.831787
 20
-1104.618196
 30
0.0
 70
0
  0
VERTEX
  5
1FD
  8
8
 10
-3008.831787
 20
-1120.202253
 30
0.0
 70
0
  0
VERTEX
  5
1FE
  8
8
 10
-3008.831787
 20
-1135.394594
 30
0.0
 70
0
  0
VERTEX
  5
1FF
  8
8
 10
-3008.831787
 20
-1152.832516
 30
0.0
 70
0
  0
VERTEX
  5
200
  8
8
 10
-3008.831787
 20
-1169.085851
 30
0.0
 70
0
  0
VERTEX
  5
201
  8
8
 10
-3008.831787
 20
-1183.816107
 30
0.0
 70
0
  0
VERTEX
  5
202
  8
8
 10
-3008.831787
 20
-1198.624891
 30
0.0
 70
0
  0
VERTEX
  5
203
  8
8
 10
-3008.831787
 20
-1213.076773
 30
0.0
 70
0
  0
VERTEX
  5
204
  8
8
 10
-3008.831787
 20
-1222.789612
 30
0.0
 70
0
  0
SEQEND
  5
1F2
  8
8
  0
POLYLINE
  5
205
  8
8
 66
1
 10
0.0
 20
0.0
 30
0.0
 70
0
  0
VERTEX
  5
207
  8
8
 10
-2704.065552
 20
-880.864716
 30
0.0
 70
0
  0
VERTEX
  5
208
  8
8
 10
-2714.543152
 20
-1237.62886
 30
0.0
 70
0
  0
SEQEND
  5
206
  8
8
  0
POINT
  5
209
  8
4
 10
-3009.255371
 20
-1235.482712
 30
0.0
  0
POINT
  5
20A
  8
4
 10
-3456.460266
 20
-1215.248947
 30
0.0
  0
POINT
  5
20B
  8
4
 10
-3455.541077
 20
-963.399658
 30
0.0
  0
POINT
  5
20C
  8
4
 10
-3009.490356
 20
-940.238724
 30
0.0
  0
POINT
  5
20D
  8
4
 10
-2718.491821
 20
-872.544861
 30
0.0
  0
POINT
  5
20E
  8
4
 10
-2464.084167
 20
-988.996582
 30
0.0
  0
POINT
  5
20F
  8
4
 10
-2452.320099
 20
-1008.406754
 30
0.0
  0
POINT
  5
210
  8
4
 10
-2461.110077
 20
-1187.776108
 30
0.0
  0
POINT
  5
211
  8
4
 10
-2476.755219
 20
-1247.561722
 30
0.0
  0
POINT
  5
212
  8
4
 10
-3008.834839
 20
-1222.789612
 30
0.0
  0
POINT
  5
213
  8
4
 10
-3456.413879
 20
-1202.530746
 30
0.0
  0
POINT
  5
214
  8
4
 10
-3455.587463
 20
-976.119156
 30
0.0
  0
POINT
  5
215
  8
4
 10
-3008.831787
 20
-952.921677
 30
0.0
  0
POINT
  5
216
  8
4
 10
-2704.065552
 20
-880.864716
 30
0.0
  0
POINT
  5
217
  8
4
 10
-2464.882507
 20
-1005.286407
 30
0.0
  0
POINT
  5
218
  8
4
 10
-2464.882507
 20
-1005.286407
 30
0.0
  0
POINT
  5
219
  8
4
 10
-2473.795013
 20
-1187.155151
 30
0.0
  0
POINT
  5
21A
  8
4
 10
-2476.128998
 20
-1234.784317
 30
0.0
  0
LINE
  5
21B
  8
7
 10
-3387.257385
 20
-1086.681671
 30
0.0
 11
-2519.147034
 21
-1086.681671
 31
0.0
  0
ENDSEC
  0
EOF
