  0
SECTION
  2
HEADER
  9
$ACADVER
  1
AC1009
  9
$DWGCODEPAGE
  3
ANSI_1252
  9
$INSBASE
 10
0.0
 20
0.0
 30
0.0
  9
$EXTMIN
 10
1e+20
 20
1e+20
 30
1e+20
  9
$EXTMAX
 10
-1e+20
 20
-1e+20
 30
-1e+20
  9
$LIMMIN
 10
0.0
 20
0.0
  9
$LIMMAX
 10
420.0
 20
297.0
  9
$ORTHOMODE
 70
0
  9
$REGENMODE
 70
1
  9
$FILLMODE
 70
1
  9
$DRAGMODE
 70
2
  9
$QTEXTMODE
 70
0
  9
$MIRRTEXT
 70
1
  9
$OSMODE
 70
20583
  9
$LTSCALE
 40
1.0
  9
$ATTMODE
 70
1
  9
$TEXTSIZE
 40
2.5
  9
$TRACEWID
 40
1.0
  9
$TEXTSTYLE
  7
Standard
  9
$CLAYER
  8
0
  9
$CELTYPE
  6
ByLayer
  9
$CECOLOR
 62
256
  9
$DIMSCALE
 40
1.0
  9
$DIMASZ
 40
2.5
  9
$DIMEXO
 40
0.625
  9
$DIMDLI
 40
3.75
  9
$DIMRND
 40
0.0
  9
$DIMDLE
 40
0.0
  9
$DIMEXE
 40
1.25
  9
$DIMTP
 40
0.0
  9
$DIMTM
 40
0.0
  9
$DIMTXT
 40
2.5
  9
$DIMCEN
 40
2.5
  9
$DIMTSZ
 40
0.0
  9
$DIMTOL
 70
0
  9
$DIMLIM
 70
0
  9
$DIMTIH
 70
0
  9
$DIMTOH
 70
0
  9
$DIMSE1
 70
0
  9
$DIMSE2
 70
0
  9
$DIMTAD
 70
1
  9
$DIMZIN
 70
8
  9
$DIMBLK
  1

  9
$DIMASO
 70
1
  9
$DIMSHO
 70
1
  9
$DIMPOST
  1

  9
$DIMAPOST
  1

  9
$DIMALT
 70
0
  9
$DIMALTD
 70
3
  9
$DIMALTF
 40
0.03937007874
  9
$DIMLFAC
 40
1.0
  9
$DIMTOFL
 70
1
  9
$DIMTVP
 40
0.0
  9
$DIMTIX
 70
0
  9
$DIMSOXD
 70
0
  9
$DIMSAH
 70
0
  9
$DIMBLK1
  1

  9
$DIMBLK2
  1

  9
$DIMSTYLE
  2
ISO-25
  9
$DIMCLRD
 70
0
  9
$DIMCLRE
 70
0
  9
$DIMCLRT
 70
0
  9
$DIMTFAC
 40
1.0
  9
$DIMGAP
 40
0.625
  9
$COORDS
 70
1
  9
$ATTDIA
 70
0
  9
$ATTREQ
 70
1
  9
$HANDLING
 70
1
  9
$LUNITS
 70
2
  9
$LUPREC
 70
4
  9
$SKETCHINC
 40
1.0
  9
$FILLETRAD
 40
10.0
  9
$AUNITS
 70
0
  9
$AUPREC
 70
2
  9
$MENU
  1
.
  9
$ELEVATION
 40
0.0
  9
$PELEVATION
 40
0.0
  9
$THICKNESS
 40
0.0
  9
$LIMCHECK
 70
0
  9
$CHAMFERA
 40
0.0
  9
$CHAMFERB
 40
0.0
  9
$SKPOLY
 70
0
  9
$TDCREATE
 40
2461264.9423032408
  9
$TDUPDATE
 40
2461264.9423032408
  9
$TDINDWG
 40
0.0
  9
$TDUSRTIMER
 40
0.0
  9
$USRTIMER
 70
1
  9
$ANGBASE
 50
0.0
  9
$ANGDIR
 70
0
  9
$PDMODE
 70
0
  9
$PDSIZE
 40
0.0
  9
$PLINEWID
 40
0.0
  9
$SPLFRAME
 70
0
  9
$SPLINETYPE
 70
6
  9
$SPLINESEGS
 70
8
  9
$HANDSEED
  5
226
  9
$SURFTAB1
 70
6
  9
$SURFTAB2
 70
6
  9
$SURFTYPE
 70
6
  9
$SURFU
 70
6
  9
$SURFV
 70
6
  9
$UCSNAME
  2

  9
$UCSORG
 10
0.0
 20
0.0
 30
0.0
  9
$UCSXDIR
 10
1.0
 20
0.0
 30
0.0
  9
$UCSYDIR
 10
0.0
 20
1.0
 30
0.0
  9
$PUCSNAME
  2

  9
$PUCSORG
 10
0.0
 20
0.0
 30
0.0
  9
$PUCSXDIR
 10
1.0
 20
0.0
 30
0.0
  9
$PUCSYDIR
 10
0.0
 20
1.0
 30
0.0
  9
$USERI1
 70
0
  9
$USERI2
 70
0
  9
$USERI3
 70
0
  9
$USERI4
 70
0
  9
$USERI5
 70
0
  9
$USERR1
 40
0.0
  9
$USERR2
 40
0.0
  9
$USERR3
 40
0.0
  9
$USERR4
 40
0.0
  9
$USERR5
 40
0.0
  9
$WORLDVIEW
 70
1
  9
$SHADEDGE
 70
3
  9
$SHADEDIF
 70
70
  9
$TILEMODE
 70
1
  9
$MAXACTVP
 70
64
  9
$PLIMCHECK
 70
0
  9
$PEXTMIN
 10
1e+20
 20
1e+20
 30
1e+20
  9
$PEXTMAX
 10
-1e+20
 20
-1e+20
 30
-1e+20
  9
$PLIMMIN
 10
0.0
 20
0.0
  9
$PLIMMAX
 10
420.0
 20
297.0
  9
$UNITMODE
 70
0
  9
$VISRETAIN
 70
1
  9
$PLINEGEN
 70
0
  9
$PSLTSCALE
 70
1
  0
ENDSEC
  0
SECTION
  2
TABLES
  0
TABLE
  2
VPORT
 70
1
  0
VPORT
  5
23
  2
*Active
 70
0
 10
0.0
 20
0.0
 11
1.0
 21
1.0
 12
0.0
 22
0.0
 13
0.0
 23
0.0
 14
0.5
 24
0.5
 15
0.5
 25
0.5
 16
0.0
 26
0.0
 36
1.0
 17
0.0
 27
0.0
 37
0.0
 40
1000.0
 41
1.34
 42
50.0
 43
0.0
 44
0.0
 50
0.0
 51
0.0
 71
0
 72
1000
 73
1
 74
3
 75
0
 76
0
 77
0
 78
0
  0
ENDTAB
  0
TABLE
  2
LTYPE
 70
3
  0
LTYPE
  5
24
  2
ByBlock
 70
0
  3

 72
65
 73
0
 40
0.0
  0
LTYPE
  5
25
  2
ByLayer
 70
0
  3

 72
65
 73
0
 40
0.0
  0
LTYPE
  5
26
  2
Continuous
 70
0
  3

 72
65
 73
0
 40
0.0
  0
ENDTAB
  0
TABLE
  2
LAYER
 70
7
  0
LAYER
  5
27
  2
0
 70
0
 62
7
  6
Continuous
  0
LAYER
  5
28
  2
Defpoints
 70
0
 62
7
  6
Continuous
  0
LAYER
  5
2D
  2
1
 70
0
 62
1
  6
Continuous
  0
LAYER
  5
2E
  2
7
 70
0
 62
7
  6
Continuous
  0
LAYER
  5
2F
  2
14
 70
0
 62
3
  6
Continuous
  0
LAYER
  5
30
  2
8
 70
0
 62
6
  6
Continuous
  0
LAYER
  5
31
  2
4
 70
0
 62
2
  6
Continuous
  0
ENDTAB
  0
TABLE
  2
STYLE
 70
1
  0
STYLE
  5
29
  2
Standard
 70
0
 40
0.0
 41
1.0
 50
0.0
 71
0
 42
2.5
  3
txt
  4

  0
ENDTAB
  0
TABLE
  2
VIEW
 70
0
  0
ENDTAB
  0
TABLE
  2
UCS
 70
0
  0
ENDTAB
  0
TABLE
  2
APPID
 70
3
  0
APPID
  5
2A
  2
ACAD
 70
0
  0
APPID
  5
224
  2
HATCHBACKGROUNDCOLOR
 70
0
  0
APPID
  5
225
  2
EZDXF
 70
0
  0
ENDTAB
  0
TABLE
  2
DIMSTYLE
 70
1
  0
DIMSTYLE
105
2B
  2
Standard
 70
0
  3

  4

  5

  6

  7

 40
1.0
 41
2.5
 42
0.625
 43
3.75
 44
1.25
 45
0.0
 46
0.0
 47
0.0
 48
0.0
140
2.5
141
2.5
142
0.0
143
0.03937007874
144
1.0
145
0.0
146
1.0
147
0.625
 71
0
 72
0
 73
0
 74
0
 75
0
 76
0
 77
1
 78
8
170
0
171
3
172
1
173
0
174
0
175
0
176
0
177
0
178
0
  0
ENDTAB
  0
ENDSEC
  0
SECTION
  2
BLOCKS
  0
BLOCK
  5
18
  8
0
  2
$Model_Space
 70
0
 10
0.0
 20
0.0
 30
0.0
  3
$Model_Space
  1

1001
EZDXF
1000
CREATED_BY_EZDXF
1000
1.4.4 @ 2026-08-11T14:36:55.387574+00:00
1000
WRITTEN_BY_EZDXF
1000
1.4.4 @ 2026-08-11T14:36:55.391575+00:00
  0
ENDBLK
  5
19
  8
0
  0
BLOCK
  5
1C
  8
0
  2
$Paper_Space
 70
0
 10
0.0
 20
0.0
 30
0.0
  3
$Paper_Space
  1

  0
ENDBLK
  5
1D
  8
0
  0
ENDSEC
  0
SECTION
  2
ENTITIES
  0
POLYLINE
  5
32
  8
1
 66
1
 10
0.0
 20
0.0
 30
0.0
 70
1
  0
VERTEX
  5
34
  8
1
 10
-3009.393616
 20
-1240.557861
 30
0.0
 70
0
  0
VERTEX
  5
35
  8
1
 10
-3009.278259
 20
-1240.561905
 30
0.0
 70
0
  0
VERTEX
  5
36
  8
1
 10
-3011.616237
 20
-1240.480251
 30
0.0
 70
0
  0
VERTEX
  5
37
  8
1
 10
-3026.500978
 20
-1239.954066
 30
0.0
 70
0
  0
VERTEX
  5
38
  8
1
 10
-3041.73939
 20
-1239.403067
 30
0.0
 70
0
  0
VERTEX
  5
39
  8
1
 10
-3056.935767
 20
-1238.838204
 30
0.0
 70
0
  0
VERTEX
  5
3A
  8
1
 10
-3072.006514
 20
-1238.266145
 30
0.0
 70
0
  0
VERTEX
  5
3B
  8
1
 10
-3087.20209
 20
-1237.679838
 30
0.0
 70
0
  0
VERTEX
  5
3C
  8
1
 10
-3102.510718
 20
-1237.078674
 30
0.0
 70
0
  0
VERTEX
  5
3D
  8
1
 10
-3117.705381
 20
-1236.470792
 30
0.0
 70
0
  0
VERTEX
  5
3E
  8
1
 10
-3133.073923
 20
-1235.844691
 30
0.0
 70
0
  0
VERTEX
  5
3F
  8
1
 10
-3148.267661
 20
-1235.21457
 30
0.0
 70
0
  0
VERTEX
  5
40
  8
1
 10
-3163.700245
 20
-1234.562772
 30
0.0
 70
0
  0
VERTEX
  5
41
  8
1
 10
-3178.893028
 20
-1233.909004
 30
0.0
 70
0
  0
VERTEX
  5
42
  8
1
 10
-3194.214947
 20
-1233.236934
 30
0.0
 70
0
  0
VERTEX
  5
43
  8
1
 10
-3209.406613
 20
-1232.557331
 30
0.0
 70
0
  0
VERTEX
  5
44
  8
1
 10
-3224.736051
 20
-1231.857527
 30
0.0
 70
0
  0
VERTEX
  5
45
  8
1
 10
-3239.926474
 20
-1231.149297
 30
0.0
 70
0
  0
VERTEX
  5
46
  8
1
 10
-3254.95897
 20
-1230.432692
 30
0.0
 70
0
  0
VERTEX
  5
47
  8
1
 10
-3270.147816
 20
-1229.691781
 30
0.0
 70
0
  0
VERTEX
  5
48
  8
1
 10
-3285.331844
 20
-1228.934093
 30
0.0
 70
0
  0
VERTEX
  5
49
  8
1
 10
-3300.518976
 20
-1228.159698
 30
0.0
 70
0
  0
VERTEX
  5
4A
  8
1
 10
-3315.818674
 20
-1227.364351
 30
0.0
 70
0
  0
VERTEX
  5
4B
  8
1
 10
-3331.004247
 20
-1226.561249
 30
0.0
 70
0
  0
VERTEX
  5
4C
  8
1
 10
-3346.285653
 20
-1225.740026
 30
0.0
 70
0
  0
VERTEX
  5
4D
  8
1
 10
-3361.469934
 20
-1224.9117
 30
0.0
 70
0
  0
VERTEX
  5
4E
  8
1
 10
-3376.74234
 20
-1224.066967
 30
0.0
 70
0
  0
VERTEX
  5
4F
  8
1
 10
-3391.925422
 20
-1223.216319
 30
0.0
 70
0
  0
VERTEX
  5
50
  8
1
 10
-3407.030096
 20
-1222.359595
 30
0.0
 70
0
  0
VERTEX
  5
51
  8
1
 10
-3422.21195
 20
-1221.487655
 30
0.0
 70
0
  0
VERTEX
  5
52
  8
1
 10
-3437.554474
 20
-1220.593353
 30
0.0
 70
0
  0
VERTEX
  5
53
  8
1
 10
-3452.734689
 20
-1219.695007
 30
0.0
 70
0
  0
VERTEX
  5
54
  8
1
 10
-3466.618652
 20
-1218.866806
 30
0.0
 70
0
  0
VERTEX
  5
55
  8
1
 10
-3467.793468
 20
-1218.796735
 30
0.0
 70
0
  0
VERTEX
  5
56
  8
1
 10
-3482.837487
 20
-1217.898447
 30
0.0
 70
0
  0
VERTEX
  5
57
  8
1
 10
-3498.362122
 20
-1216.971664
 30
0.0
 70
0
  0
VERTEX
  5
58
  8
1
 10
-3498.307084
 20
-1201.410013
 30
0.0
 70
0
  0
VERTEX
  5
59
  8
1
 10
-3498.253164
 20
-1186.148199
 30
0.0
 70
0
  0
VERTEX
  5
5A
  8
1
 10
-3498.2001
 20
-1171.118051
 30
0.0
 70
0
  0
VERTEX
  5
5B
  8
1
 10
-3498.14623
 20
-1155.856256
 30
0.0
 70
0
  0
VERTEX
  5
5C
  8
1
 10
-3498.092334
 20
-1140.594465
 30
0.0
 70
0
  0
VERTEX
  5
5D
  8
1
 10
-3498.038719
 20
-1125.429105
 30
0.0
 70
0
  0
VERTEX
  5
5E
  8
1
 10
-3497.984719
 20
-1110.167289
 30
0.0
 70
0
  0
VERTEX
  5
5F
  8
1
 10
-3497.931189
 20
-1095.040893
 30
0.0
 70
0
  0
VERTEX
  5
60
  8
1
 10
-3497.877184
 20
-1079.779076
 30
0.0
 70
0
  0
VERTEX
  5
61
  8
1
 10
-3497.823281
 20
-1064.545737
 30
0.0
 70
0
  0
VERTEX
  5
62
  8
1
 10
-3497.76926
 20
-1049.283933
 30
0.0
 70
0
  0
VERTEX
  5
63
  8
1
 10
-3497.715026
 20
-1033.976099
 30
0.0
 70
0
  0
VERTEX
  5
64
  8
1
 10
-3497.660902
 20
-1018.714303
 30
0.0
 70
0
  0
VERTEX
  5
65
  8
1
 10
-3497.606969
 20
-1003.514331
 30
0.0
 70
0
  0
VERTEX
  5
66
  8
1
 10
-3497.552823
 20
-988.252516
 30
0.0
 70
0
  0
VERTEX
  5
67
  8
1
 10
-3497.498729
 20
-972.99071
 30
0.0
 70
0
  0
VERTEX
  5
68
  8
1
 10
-3497.458191
 20
-961.538315
 30
0.0
 70
0
  0
VERTEX
  5
69
  8
1
 10
-3481.645928
 20
-960.724673
 30
0.0
 70
0
  0
VERTEX
  5
6A
  8
1
 10
-3466.400093
 20
-959.940164
 30
0.0
 70
0
  0
VERTEX
  5
6B
  8
1
 10
-3465.702209
 20
-959.904251
 30
0.0
 70
0
  0
VERTEX
  5
6C
  8
1
 10
-3450.783753
 20
-959.136574
 30
0.0
 70
0
  0
VERTEX
  5
6D
  8
1
 10
-3435.671125
 20
-958.358904
 30
0.0
 70
0
  0
VERTEX
  5
6E
  8
1
 10
-3420.428256
 20
-957.574547
 30
0.0
 70
0
  0
VERTEX
  5
6F
  8
1
 10
-3405.315599
 20
-956.796896
 30
0.0
 70
0
  0
VERTEX
  5
70
  8
1
 10
-3389.988174
 20
-956.008186
 30
0.0
 70
0
  0
VERTEX
  5
71
  8
1
 10
-3374.875624
 20
-955.230531
 30
0.0
 70
0
  0
VERTEX
  5
72
  8
1
 10
-3359.858953
 20
-954.457812
 30
0.0
 70
0
  0
VERTEX
  5
73
  8
1
 10
-3344.746359
 20
-953.680158
 30
0.0
 70
0
  0
VERTEX
  5
74
  8
1
 10
-3329.589671
 20
-952.900232
 30
0.0
 70
0
  0
VERTEX
  5
75
  8
1
 10
-3314.477027
 20
-952.122574
 30
0.0
 70
0
  0
VERTEX
  5
76
  8
1
 10
-3299.234258
 20
-951.338226
 30
0.0
 70
0
  0
VERTEX
  5
77
  8
1
 10
-3284.121718
 20
-950.560579
 30
0.0
 70
0
  0
VERTEX
  5
78
  8
1
 10
-3268.987014
 20
-949.781783
 30
0.0
 70
0
  0
VERTEX
  5
79
  8
1
 10
-3253.874416
 20
-949.004119
 30
0.0
 70
0
  0
VERTEX
  5
7A
  8
1
 10
-3238.865816
 20
-948.231811
 30
0.0
 70
0
  0
VERTEX
  5
7B
  8
1
 10
-3223.753212
 20
-947.454151
 30
0.0
 70
0
  0
VERTEX
  5
7C
  8
1
 10
-3208.357834
 20
-946.661938
 30
0.0
 70
0
  0
VERTEX
  5
7D
  8
1
 10
-3193.245228
 20
-945.88428
 30
0.0
 70
0
  0
VERTEX
  5
7E
  8
1
 10
-3178.00235
 20
-945.099932
 30
0.0
 70
0
  0
VERTEX
  5
7F
  8
1
 10
-3162.889674
 20
-944.322286
 30
0.0
 70
0
  0
VERTEX
  5
80
  8
1
 10
-3147.828919
 20
-943.547295
 30
0.0
 70
0
  0
VERTEX
  5
81
  8
1
 10
-3132.716316
 20
-942.769626
 30
0.0
 70
0
  0
VERTEX
  5
82
  8
1
 10
-3117.477335
 20
-941.985461
 30
0.0
 70
0
  0
VERTEX
  5
83
  8
1
 10
-3102.364758
 20
-941.207809
 30
0.0
 70
0
  0
VERTEX
  5
84
  8
1
 10
-3087.051722
 20
-940.419843
 30
0.0
 70
0
  0
VERTEX
  5
85
  8
1
 10
-3071.939129
 20
-939.642192
 30
0.0
 70
0
  0
VERTEX
  5
86
  8
1
 10
-3056.6563
 20
-938.855782
 30
0.0
 70
0
  0
VERTEX
  5
87
  8
1
 10
-3041.543713
 20
-938.07813
 30
0.0
 70
0
  0
VERTEX
  5
88
  8
1
 10
-3026.393927
 20
-937.298553
 30
0.0
 70
0
  0
VERTEX
  5
89
  8
1
 10
-3011.523316
 20
-936.533332
 30
0.0
 70
0
  0
VERTEX
  5
8A
  8
1
 10
-3009.484558
 20
-936.428452
 30
0.0
 70
0
  0
VERTEX
  5
8B
  8
1
 10
-3010.018616
 20
-936.457748
 30
0.0
 70
0
  0
VERTEX
  5
8C
  8
1
 10
-2994.699234
 20
-934.363326
 30
0.0
 70
0
  0
VERTEX
  5
8D
  8
1
 10
-2979.885686
 20
-932.243137
 30
0.0
 70
0
  0
VERTEX
  5
8E
  8
1
 10
-2964.776807
 20
-929.949639
 30
0.0
 70
0
  0
VERTEX
  5
8F
  8
1
 10
-2949.688203
 20
-927.524419
 30
0.0
 70
0
  0
VERTEX
  5
90
  8
1
 10
-2934.497907
 20
-924.951505
 30
0.0
 70
0
  0
VERTEX
  5
91
  8
1
 10
-2919.713104
 20
-922.299932
 30
0.0
 70
0
  0
VERTEX
  5
92
  8
1
 10
-2904.702251
 20
-919.432823
 30
0.0
 70
0
  0
VERTEX
  5
93
  8
1
 10
-2889.776298
 20
-916.386887
 30
0.0
 70
0
  0
VERTEX
  5
94
  8
1
 10
-2874.845393
 20
-913.128647
 30
0.0
 70
0
  0
VERTEX
  5
95
  8
1
 10
-2859.961117
 20
-909.663198
 30
0.0
 70
0
  0
VERTEX
  5
96
  8
1
 10
-2845.126241
 20
-905.987002
 30
0.0
 70
0
  0
VERTEX
  5
97
  8
1
 10
-2830.34866
 20
-902.091889
 30
0.0
 70
0
  0
VERTEX
  5
98
  8
1
 10
-2815.554252
 20
-897.949349
 30
0.0
 70
0
  0
VERTEX
  5
99
  8
1
 10
-2800.899435
 20
-893.614882
 30
0.0
 70
0
  0
VERTEX
  5
9A
  8
1
 10
-2786.251732
 20
-889.06943
 30
0.0
 70
0
  0
VERTEX
  5
9B
  8
1
 10
-2771.713482
 20
-884.376257
 30
0.0
 70
0
  0
VERTEX
  5
9C
  8
1
 10
-2757.21664
 20
-879.539905
 30
0.0
 70
0
  0
VERTEX
  5
9D
  8
1
 10
-2742.771141
 20
-874.55332
 30
0.0
 70
0
  0
VERTEX
  5
9E
  8
1
 10
-2728.323314
 20
-869.390821
 30
0.0
 70
0
  0
VERTEX
  5
9F
  8
1
 10
-2718.75946
 20
-865.888443
 30
0.0
 70
0
  0
VERTEX
  5
A0
  8
1
 10
-2713.973081
 20
-864.135574
 30
0.0
 70
0
  0
VERTEX
  5
A1
  8
1
 10
-2700.04243
 20
-858.967557
 30
0.0
 70
0
  0
VERTEX
  5
A2
  8
1
 10
-2697.490845
 20
-858.015823
 30
0.0
 70
0
  0
VERTEX
  5
A3
  8
1
 10
-2690.167542
 20
-861.99295
 30
0.0
 70
0
  0
VERTEX
  5
A4
  8
1
 10
-2688.705789
 20
-869.510746
 30
0.0
 70
0
  0
VERTEX
  5
A5
  8
1
 10
-2687.104677
 20
-876.427808
 30
0.0
 70
0
  0
VERTEX
  5
A6
  8
1
 10
-2685.513309
 20
-882.298112
 30
0.0
 70
0
  0
VERTEX
  5
A7
  8
1
 10
-2683.839076
 20
-887.570595
 30
0.0
 70
0
  0
VERTEX
  5
A8
  8
1
 10
-2681.960727
 20
-892.687039
 30
0.0
 70
0
  0
VERTEX
  5
A9
  8
1
 10
-2679.882658
 20
-897.640923
 30
0.0
 70
0
  0
VERTEX
  5
AA
  8
1
 10
-2677.694744
 20
-902.247035
 30
0.0
 70
0
  0
VERTEX
  5
AB
  8
1
 10
-2675.375906
 20
-906.549715
 30
0.0
 70
0
  0
VERTEX
  5
AC
  8
1
 10
-2672.969885
 20
-910.49828
 30
0.0
 70
0
  0
VERTEX
  5
AD
  8
1
 10
-2670.472467
 20
-914.12201
 30
0.0
 70
0
  0
VERTEX
  5
AE
  8
1
 10
-2667.928454
 20
-917.380889
 30
0.0
 70
0
  0
VERTEX
  5
AF
  8
1
 10
-2665.292452
 20
-920.350989
 30
0.0
 70
0
  0
VERTEX
  5
B0
  8
1
 10
-2662.682217
 20
-922.926641
 30
0.0
 70
0
  0
VERTEX
  5
B1
  8
1
 10
-2659.941444
 20
-925.279178
 30
0.0
 70
0
  0
VERTEX
  5
B2
  8
1
 10
-2656.900531
 20
-927.541681
 30
0.0
 70
0
  0
VERTEX
  5
B3
  8
1
 10
-2653.469563
 20
-929.766936
 30
0.0
 70
0
  0
VERTEX
  5
B4
  8
1
 10
-2649.656985
 20
-931.931952
 30
0.0
 70
0
  0
VERTEX
  5
B5
  8
1
 10
-2645.431091
 20
-934.040357
 30
0.0
 70
0
  0
VERTEX
  5
B6
  8
1
 10
-2640.609186
 20
-936.154343
 30
0.0
 70
0
  0
VERTEX
  5
B7
  8
1
 10
-2635.322181
 20
-938.194386
 30
0.0
 70
0
  0
VERTEX
  5
B8
  8
1
 10
-2629.280078
 20
-940.247284
 30
0.0
 70
0
  0
VERTEX
  5
B9
  8
1
 10
-2622.559526
 20
-942.261363
 30
0.0
 70
0
  0
VERTEX
  5
BA
  8
1
 10
-2614.829683
 20
-944.304805
 30
0.0
 70
0
  0
VERTEX
  5
BB
  8
1
 10
-2605.07002
 20
-946.599738
 30
0.0
 70
0
  0
VERTEX
  5
BC
  8
1
 10
-2599.64386
 20
-947.775269
 30
0.0
 70
0
  0
VERTEX
  5
BD
  8
1
 10
-2584.275394
 20
-951.378997
 30
0.0
 70
0
  0
VERTEX
  5
BE
  8
1
 10
-2569.456048
 20
-954.856008
 30
0.0
 70
0
  0
VERTEX
  5
BF
  8
1
 10
-2554.492431
 20
-958.369677
 30
0.0
 70
0
  0
VERTEX
  5
C0
  8
1
 10
-2539.501215
 20
-961.893162
 30
0.0
 70
0
  0
VERTEX
  5
C1
  8
1
 10
-2524.804742
 20
-965.350816
 30
0.0
 70
0
  0
VERTEX
  5
C2
  8
1
 10
-2509.815129
 20
-968.881018
 30
0.0
 70
0
  0
VERTEX
  5
C3
  8
1
 10
-2495.052469
 20
-972.361289
 30
0.0
 70
0
  0
VERTEX
  5
C4
  8
1
 10
-2480.064407
 20
-975.897965
 30
0.0
 70
0
  0
VERTEX
  5
C5
  8
1
 10
-2465.076974
 20
-979.437321
 30
0.0
 70
0
  0
VERTEX
  5
C6
  8
1
 10
-2453.977356
 20
-982.060242
 30
0.0
 70
0
  0
VERTEX
  5
C7
  8
1
 10
-2450.538733
 20
-982.872778
 30
0.0
 70
0
  0
VERTEX
  5
C8
  8
1
 10
-2441.40686
 20
-985.031433
 30
0.0
 70
0
  0
VERTEX
  5
C9
  8
1
 10
-2442.171471
 20
-1000.858953
 30
0.0
 70
0
  0
VERTEX
  5
CA
  8
1
 10
-2442.19223
 20
-1001.288834
 30
0.0
 70
0
  0
VERTEX
  5
CB
  8
1
 10
-2442.902274
 20
-1015.99568
 30
0.0
 70
0
  0
VERTEX
  5
CC
  8
1
 10
-2443.630696
 20
-1031.132521
 30
0.0
 70
0
  0
VERTEX
  5
CD
  8
1
 10
-2444.357494
 20
-1046.321951
 30
0.0
 70
0
  0
VERTEX
  5
CE
  8
1
 10
-2445.077911
 20
-1061.459164
 30
0.0
 70
0
  0
VERTEX
  5
CF
  8
1
 10
-2445.79272
 20
-1076.544089
 30
0.0
 70
0
  0
VERTEX
  5
D0
  8
1
 10
-2446.506948
 20
-1091.681594
 30
0.0
 70
0
  0
VERTEX
  5
D1
  8
1
 10
-2447.215548
 20
-1106.770887
 30
0.0
 70
0
  0
VERTEX
  5
D2
  8
1
 10
-2447.922845
 20
-1121.908744
 30
0.0
 70
0
  0
VERTEX
  5
D3
  8
1
 10
-2448.629761
 20
-1137.118962
 30
0.0
 70
0
  0
VERTEX
  5
D4
  8
1
 10
-2449.329321
 20
-1152.257151
 30
0.0
 70
0
  0
VERTEX
  5
D5
  8
1
 10
-2450.037947
 20
-1167.689719
 30
0.0
 70
0
  0
VERTEX
  5
D6
  8
1
 10
-2450.728275
 20
-1182.828314
 30
0.0
 70
0
  0
VERTEX
  5
D7
  8
1
 10
-2450.948029
 20
-1187.669983
 30
0.0
 70
0
  0
VERTEX
  5
D8
  8
1
 10
-2451.413685
 20
-1197.967153
 30
0.0
 70
0
  0
VERTEX
  5
D9
  8
1
 10
-2452.097309
 20
-1213.174241
 30
0.0
 70
0
  0
VERTEX
  5
DA
  8
1
 10
-2452.77429
 20
-1228.313456
 30
0.0
 70
0
  0
VERTEX
  5
DB
  8
1
 10
-2453.447409
 20
-1243.410029
 30
0.0
 70
0
  0
VERTEX
  5
DC
  8
1
 10
-2453.90686
 20
-1253.722992
 30
0.0
 70
0
  0
VERTEX
  5
DD
  8
1
 10
-2459.041979
 20
-1254.100862
 30
0.0
 70
0
  0
VERTEX
  5
DE
  8
1
 10
-2466.660004
 20
-1254.64447
 30
0.0
 70
0
  0
VERTEX
  5
DF
  8
1
 10
-2474.079038
 20
-1255.173818
 30
0.0
 70
0
  0
VERTEX
  5
E0
  8
1
 10
-2489.36378
 20
-1256.208249
 30
0.0
 70
0
  0
VERTEX
  5
E1
  8
1
 10
-2504.645757
 20
-1257.156965
 30
0.0
 70
0
  0
VERTEX
  5
E2
  8
1
 10
-2520.112847
 20
-1257.996643
 30
0.0
 70
0
  0
VERTEX
  5
E3
  8
1
 10
-2535.408853
 20
-1258.682621
 30
0.0
 70
0
  0
VERTEX
  5
E4
  8
1
 10
-2550.882085
 20
-1259.222286
 30
0.0
 70
0
  0
VERTEX
  5
E5
  8
1
 10
-2566.188736
 20
-1259.601558
 30
0.0
 70
0
  0
VERTEX
  5
E6
  8
1
 10
-2581.638977
 20
-1259.835245
 30
0.0
 70
0
  0
VERTEX
  5
E7
  8
1
 10
-2596.950111
 20
-1259.927874
 30
0.0
 70
0
  0
VERTEX
  5
E8
  8
1
 10
-2612.437707
 20
-1259.892179
 30
0.0
 70
0
  0
VERTEX
  5
E9
  8
1
 10
-2627.748278
 20
-1259.740255
 30
0.0
 70
0
  0
VERTEX
  5
EA
  8
1
 10
-2643.168519
 20
-1259.480864
 30
0.0
 70
0
  0
VERTEX
  5
EB
  8
1
 10
-2658.475621
 20
-1259.125064
 30
0.0
 70
0
  0
VERTEX
  5
EC
  8
1
 10
-2673.616547
 20
-1258.675926
 30
0.0
 70
0
  0
VERTEX
  5
ED
  8
1
 10
-2688.917804
 20
-1258.120414
 30
0.0
 70
0
  0
VERTEX
  5
EE
  8
1
 10
-2704.28261
 20
-1257.452918
 30
0.0
 70
0
  0
VERTEX
  5
EF
  8
1
 10
-2719.574524
 20
-1256.682433
 30
0.0
 70
0
  0
VERTEX
  5
F0
  8
1
 10
-2734.637365
 20
-1255.849822
 30
0.0
 70
0
  0
VERTEX
  5
F1
  8
1
 10
-2749.922941
 20
-1254.964244
 30
0.0
 70
0
  0
VERTEX
  5
F2
  8
1
 10
-2764.977686
 20
-1254.083278
 30
0.0
 70
0
  0
VERTEX
  5
F3
  8
1
 10
-2780.26353
 20
-1253.20257
 30
0.0
 70
0
  0
VERTEX
  5
F4
  8
1
 10
-2795.561627
 20
-1252.330514
 30
0.0
 70
0
  0
VERTEX
  5
F5
  8
1
 10
-2810.84814
 20
-1251.461287
 30
0.0
 70
0
  0
VERTEX
  5
F6
  8
1
 10
-2825.890522
 20
-1250.609321
 30
0.0
 70
0
  0
VERTEX
  5
F7
  8
1
 10
-2841.177488
 20
-1249.7491
 30
0.0
 70
0
  0
VERTEX
  5
F8
  8
1
 10
-2856.155207
 20
-1248.911106
 30
0.0
 70
0
  0
VERTEX
  5
F9
  8
1
 10
-2871.442782
 20
-1248.059696
 30
0.0
 70
0
  0
VERTEX
  5
FA
  8
1
 10
-2886.730578
 20
-1247.212194
 30
0.0
 70
0
  0
VERTEX
  5
FB
  8
1
 10
-2901.948317
 20
-1246.37261
 30
0.0
 70
0
  0
VERTEX
  5
FC
  8
1
 10
-2917.412492
 20
-1245.523474
 30
0.0
 70
0
  0
VERTEX
  5
FD
  8
1
 10
-2932.700909
 20
-1244.68786
 30
0.0
 70
0
  0
VERTEX
  5
FE
  8
1
 10
-2947.989508
 20
-1243.855916
 30
0.0
 70
0
  0
VERTEX
  5
FF
  8
1
 10
-2963.266865
 20
-1243.028306
 30
0.0
 70
0
  0
VERTEX
  5
100
  8
1
 10
-2978.55586
 20
-1242.204717
 30
0.0
 70
0
  0
VERTEX
  5
101
  8
1
 10
-2993.633145
 20
-1241.397565
 30
0.0
 70
0
  0
SEQEND
  5
33
  8
1
  0
POLYLINE
  5
102
  8
14
 66
1
 10
0.0
 20
0.0
 30
0.0
 70
1
  0
VERTEX
  5
104
  8
14
 10
-3008.834839
 20
-1227.869644
 30
0.0
 70
0
  0
VERTEX
  5
105
  8
14
 10
-3008.834839
 20
-1227.869644
 30
0.0
 70
0
  0
VERTEX
  5
106
  8
14
 10
-3015.172182
 20
-1227.649671
 30
0.0
 70
0
  0
VERTEX
  5
107
  8
14
 10
-3029.596842
 20
-1227.135774
 30
0.0
 70
0
  0
VERTEX
  5
108
  8
14
 10
-3045.19498
 20
-1226.565829
 30
0.0
 70
0
  0
VERTEX
  5
109
  8
14
 10
-3060.966526
 20
-1225.976767
 30
0.0
 70
0
  0
VERTEX
  5
10A
  8
14
 10
-3078.986279
 20
-1225.289108
 30
0.0
 70
0
  0
VERTEX
  5
10B
  8
14
 10
-3094.848883
 20
-1224.671226
 30
0.0
 70
0
  0
VERTEX
  5
10C
  8
14
 10
-3111.855629
 20
-1223.99579
 30
0.0
 70
0
  0
VERTEX
  5
10D
  8
14
 10
-3129.875618
 20
-1223.265263
 30
0.0
 70
0
  0
VERTEX
  5
10E
  8
14
 10
-3148.777859
 20
-1222.482113
 30
0.0
 70
0
  0
VERTEX
  5
10F
  8
14
 10
-3168.431389
 20
-1221.648805
 30
0.0
 70
0
  0
VERTEX
  5
110
  8
14
 10
-3183.585781
 20
-1220.992391
 30
0.0
 70
0
  0
VERTEX
  5
111
  8
14
 10
-3199.033857
 20
-1220.31019
 30
0.0
 70
0
  0
VERTEX
  5
112
  8
14
 10
-3214.720369
 20
-1219.603243
 30
0.0
 70
0
  0
VERTEX
  5
113
  8
14
 10
-3230.590104
 20
-1218.872587
 30
0.0
 70
0
  0
VERTEX
  5
114
  8
14
 10
-3246.587721
 20
-1218.119268
 30
0.0
 70
0
  0
VERTEX
  5
115
  8
14
 10
-3268.021434
 20
-1217.081379
 30
0.0
 70
0
  0
VERTEX
  5
116
  8
14
 10
-3281.649588
 20
-1216.403352
 30
0.0
 70
0
  0
VERTEX
  5
117
  8
14
 10
-3297.650226
 20
-1215.590326
 30
0.0
 70
0
  0
VERTEX
  5
118
  8
14
 10
-3313.476603
 20
-1214.769641
 30
0.0
 70
0
  0
VERTEX
  5
119
  8
14
 10
-3329.034956
 20
-1213.948105
 30
0.0
 70
0
  0
VERTEX
  5
11A
  8
14
 10
-3344.231506
 20
-1213.132527
 30
0.0
 70
0
  0
VERTEX
  5
11B
  8
14
 10
-3363.768687
 20
-1212.066124
 30
0.0
 70
0
  0
VERTEX
  5
11C
  8
14
 10
-3382.273645
 20
-1211.038556
 30
0.0
 70
0
  0
VERTEX
  5
11D
  8
14
 10
-3399.524077
 20
-1210.065962
 30
0.0
 70
0
  0
VERTEX
  5
11E
  8
14
 10
-3415.297703
 20
-1209.164481
 30
0.0
 70
0
  0
VERTEX
  5
11F
  8
14
 10
-3432.599308
 20
-1208.16222
 30
0.0
 70
0
  0
VERTEX
  5
120
  8
14
 10
-3449.245517
 20
-1207.183847
 30
0.0
 70
0
  0
VERTEX
  5
121
  8
14
 10
-3466.573792
 20
-1206.146927
 30
0.0
 70
0
  0
VERTEX
  5
122
  8
14
 10
-3466.573792
 20
-1206.146927
 30
0.0
 70
0
  0
VERTEX
  5
123
  8
14
 10
-3466.512383
 20
-1188.760815
 30
0.0
 70
0
  0
VERTEX
  5
124
  8
14
 10
-3466.455349
 20
-1172.617647
 30
0.0
 70
0
  0
VERTEX
  5
125
  8
14
 10
-3466.393569
 20
-1155.135773
 30
0.0
 70
0
  0
VERTEX
  5
126
  8
14
 10
-3466.333095
 20
-1138.028219
 30
0.0
 70
0
  0
VERTEX
  5
127
  8
14
 10
-3466.277886
 20
-1122.414207
 30
0.0
 70
0
  0
VERTEX
  5
128
  8
14
 10
-3466.220723
 20
-1106.252664
 30
0.0
 70
0
  0
VERTEX
  5
129
  8
14
 10
-3466.167399
 20
-1091.181697
 30
0.0
 70
0
  0
VERTEX
  5
12A
  8
14
 10
-3466.109531
 20
-1074.832663
 30
0.0
 70
0
  0
VERTEX
  5
12B
  8
14
 10
-3466.052749
 20
-1058.795644
 30
0.0
 70
0
  0
VERTEX
  5
12C
  8
14
 10
-3465.998002
 20
-1043.338114
 30
0.0
 70
0
  0
VERTEX
  5
12D
  8
14
 10
-3465.937973
 20
-1026.39357
 30
0.0
 70
0
  0
VERTEX
  5
12E
  8
14
 10
-3465.883518
 20
-1011.026509
 30
0.0
 70
0
  0
VERTEX
  5
12F
  8
14
 10
-3465.830048
 20
-995.940615
 30
0.0
 70
0
  0
VERTEX
  5
130
  8
14
 10
-3465.775775
 20
-980.632072
 30
0.0
 70
0
  0
VERTEX
  5
131
  8
14
 10
-3465.747375
 20
-972.623367
 30
0.0
 70
0
  0
VERTEX
  5
132
  8
14
 10
-3465.747375
 20
-972.623367
 30
0.0
 70
0
  0
VERTEX
  5
133
  8
14
 10
-3446.114298
 20
-971.613098
 30
0.0
 70
0
  0
VERTEX
  5
134
  8
14
 10
-3423.580879
 20
-970.453585
 30
0.0
 70
0
  0
VERTEX
  5
135
  8
14
 10
-3402.215259
 20
-969.354163
 30
0.0
 70
0
  0
VERTEX
  5
136
  8
14
 10
-3386.158802
 20
-968.527938
 30
0.0
 70
0
  0
VERTEX
  5
137
  8
14
 10
-3368.847389
 20
-967.637136
 30
0.0
 70
0
  0
VERTEX
  5
138
  8
14
 10
-3350.448348
 20
-966.690368
 30
0.0
 70
0
  0
VERTEX
  5
139
  8
14
 10
-3331.129006
 20
-965.696243
 30
0.0
 70
0
  0
VERTEX
  5
13A
  8
14
 10
-3311.056691
 20
-964.663371
 30
0.0
 70
0
  0
VERTEX
  5
13B
  8
14
 10
-3290.398729
 20
-963.600364
 30
0.0
 70
0
  0
VERTEX
  5
13C
  8
14
 10
-3269.322447
 20
-962.515832
 30
0.0
 70
0
  0
VERTEX
  5
13D
  8
14
 10
-3247.995174
 20
-961.418383
 30
0.0
 70
0
  0
VERTEX
  5
13E
  8
14
 10
-3226.584255
 20
-960.316631
 30
0.0
 70
0
  0
VERTEX
  5
13F
  8
14
 10
-3205.256961
 20
-959.219182
 30
0.0
 70
0
  0
VERTEX
  5
140
  8
14
 10
-3184.180694
 20
-958.13465
 30
0.0
 70
0
  0
VERTEX
  5
141
  8
14
 10
-3163.522707
 20
-957.071641
 30
0.0
 70
0
  0
VERTEX
  5
142
  8
14
 10
-3143.450366
 20
-956.038769
 30
0.0
 70
0
  0
VERTEX
  5
143
  8
14
 10
-3124.131032
 20
-955.044644
 30
0.0
 70
0
  0
VERTEX
  5
144
  8
14
 10
-3105.731964
 20
-954.097874
 30
0.0
 70
0
  0
VERTEX
  5
145
  8
14
 10
-3088.420554
 20
-953.207072
 30
0.0
 70
0
  0
VERTEX
  5
146
  8
14
 10
-3072.364068
 20
-952.380846
 30
0.0
 70
0
  0
VERTEX
  5
147
  8
14
 10
-3057.72989
 20
-951.627807
 30
0.0
 70
0
  0
VERTEX
  5
148
  8
14
 10
-3038.811404
 20
-950.654309
 30
0.0
 70
0
  0
VERTEX
  5
149
  8
14
 10
-3024.034268
 20
-949.893915
 30
0.0
 70
0
  0
VERTEX
  5
14A
  8
14
 10
-3010.142548
 20
-949.179082
 30
0.0
 70
0
  0
VERTEX
  5
14B
  8
14
 10
-3008.831787
 20
-949.111633
 30
0.0
 70
0
  0
VERTEX
  5
14C
  8
14
 10
-3008.831787
 20
-949.111633
 30
0.0
 70
0
  0
VERTEX
  5
14D
  8
14
 10
-2991.9805
 20
-946.828153
 30
0.0
 70
0
  0
VERTEX
  5
14E
  8
14
 10
-2975.929055
 20
-944.496817
 30
0.0
 70
0
  0
VERTEX
  5
14F
  8
14
 10
-2960.029349
 20
-942.054658
 30
0.0
 70
0
  0
VERTEX
  5
150
  8
14
 10
-2944.35082
 20
-939.511963
 30
0.0
 70
0
  0
VERTEX
  5
151
  8
14
 10
-2927.675676
 20
-936.646238
 30
0.0
 70
0
  0
VERTEX
  5
152
  8
14
 10
-2912.612983
 20
-933.894107
 30
0.0
 70
0
  0
VERTEX
  5
153
  8
14
 10
-2897.501551
 20
-930.949114
 30
0.0
 70
0
  0
VERTEX
  5
154
  8
14
 10
-2882.331247
 20
-927.784693
 30
0.0
 70
0
  0
VERTEX
  5
155
  8
14
 10
-2867.204004
 20
-924.413221
 30
0.0
 70
0
  0
VERTEX
  5
156
  8
14
 10
-2852.125707
 20
-920.829987
 30
0.0
 70
0
  0
VERTEX
  5
157
  8
14
 10
-2837.102259
 20
-917.030281
 30
0.0
 70
0
  0
VERTEX
  5
158
  8
14
 10
-2822.139509
 20
-913.009383
 30
0.0
 70
0
  0
VERTEX
  5
159
  8
14
 10
-2805.775273
 20
-908.331159
 30
0.0
 70
0
  0
VERTEX
  5
15A
  8
14
 10
-2791.065564
 20
-903.885678
 30
0.0
 70
0
  0
VERTEX
  5
15B
  8
14
 10
-2776.756495
 20
-899.370659
 30
0.0
 70
0
  0
VERTEX
  5
15C
  8
14
 10
-2761.1902
 20
-894.268717
 30
0.0
 70
0
  0
VERTEX
  5
15D
  8
14
 10
-2746.793861
 20
-889.388473
 30
0.0
 70
0
  0
VERTEX
  5
15E
  8
14
 10
-2732.425836
 20
-884.37072
 30
0.0
 70
0
  0
VERTEX
  5
15F
  8
14
 10
-2718.184841
 20
-879.251597
 30
0.0
 70
0
  0
VERTEX
  5
160
  8
14
 10
-2703.935852
 20
-873.957138
 30
0.0
 70
0
  0
VERTEX
  5
161
  8
14
 10
-2703.935852
 20
-873.957138
 30
0.0
 70
0
  0
VERTEX
  5
162
  8
14
 10
-2702.77512
 20
-879.576538
 30
0.0
 70
0
  0
VERTEX
  5
163
  8
14
 10
-2701.148371
 20
-885.814817
 30
0.0
 70
0
  0
VERTEX
  5
164
  8
14
 10
-2699.145448
 20
-892.247971
 30
0.0
 70
0
  0
VERTEX
  5
165
  8
14
 10
-2697.070581
 20
-897.984258
 30
0.0
 70
0
  0
VERTEX
  5
166
  8
14
 10
-2694.538061
 20
-904.076594
 30
0.0
 70
0
  0
VERTEX
  5
167
  8
14
 10
-2691.919384
 20
-909.577404
 30
0.0
 70
0
  0
VERTEX
  5
168
  8
14
 10
-2689.357118
 20
-914.335905
 30
0.0
 70
0
  0
VERTEX
  5
169
  8
14
 10
-2686.48614
 20
-919.065436
 30
0.0
 70
0
  0
VERTEX
  5
16A
  8
14
 10
-2683.291792
 20
-923.700507
 30
0.0
 70
0
  0
VERTEX
  5
16B
  8
14
 10
-2680.372245
 20
-927.443656
 30
0.0
 70
0
  0
VERTEX
  5
16C
  8
14
 10
-2677.209487
 20
-931.03781
 30
0.0
 70
0
  0
VERTEX
  5
16D
  8
14
 10
-2673.795034
 20
-934.445072
 30
0.0
 70
0
  0
VERTEX
  5
16E
  8
14
 10
-2670.03536
 20
-937.696588
 30
0.0
 70
0
  0
VERTEX
  5
16F
  8
14
 10
-2666.102903
 20
-940.633146
 30
0.0
 70
0
  0
VERTEX
  5
170
  8
14
 10
-2661.946272
 20
-943.340687
 30
0.0
 70
0
  0
VERTEX
  5
171
  8
14
 10
-2657.59494
 20
-945.833057
 30
0.0
 70
0
  0
VERTEX
  5
172
  8
14
 10
-2652.157839
 20
-948.559368
 30
0.0
 70
0
  0
VERTEX
  5
173
  8
14
 10
-2646.533764
 20
-951.019683
 30
0.0
 70
0
  0
VERTEX
  5
174
  8
14
 10
-2640.773656
 20
-953.23792
 30
0.0
 70
0
  0
VERTEX
  5
175
  8
14
 10
-2633.949567
 20
-955.551812
 30
0.0
 70
0
  0
VERTEX
  5
176
  8
14
 10
-2626.264091
 20
-957.839274
 30
0.0
 70
0
  0
VERTEX
  5
177
  8
14
 10
-2617.81393
 20
-960.066035
 30
0.0
 70
0
  0
VERTEX
  5
178
  8
14
 10
-2608.568703
 20
-962.239148
 30
0.0
 70
0
  0
VERTEX
  5
179
  8
14
 10
-2603.153992
 20
-963.38829
 30
0.0
 70
0
  0
VERTEX
  5
17A
  8
14
 10
-2586.817674
 20
-967.218587
 30
0.0
 70
0
  0
VERTEX
  5
17B
  8
14
 10
-2571.411879
 20
-970.833833
 30
0.0
 70
0
  0
VERTEX
  5
17C
  8
14
 10
-2556.12818
 20
-974.423247
 30
0.0
 70
0
  0
VERTEX
  5
17D
  8
14
 10
-2541.152288
 20
-977.943382
 30
0.0
 70
0
  0
VERTEX
  5
17E
  8
14
 10
-2525.602182
 20
-981.602229
 30
0.0
 70
0
  0
VERTEX
  5
17F
  8
14
 10
-2509.677249
 20
-985.35382
 30
0.0
 70
0
  0
VERTEX
  5
180
  8
14
 10
-2494.829025
 20
-988.855321
 30
0.0
 70
0
  0
VERTEX
  5
181
  8
14
 10
-2479.971377
 20
-992.361916
 30
0.0
 70
0
  0
VERTEX
  5
182
  8
14
 10
-2465.705144
 20
-995.73141
 30
0.0
 70
0
  0
VERTEX
  5
183
  8
14
 10
-2454.763489
 20
-998.317566
 30
0.0
 70
0
  0
VERTEX
  5
184
  8
14
 10
-2454.762268
 20
-998.292389
 30
0.0
 70
0
  0
VERTEX
  5
185
  8
14
 10
-2454.763489
 20
-998.317566
 30
0.0
 70
0
  0
VERTEX
  5
186
  8
14
 10
-2455.55869
 20
-1014.761518
 30
0.0
 70
0
  0
VERTEX
  5
187
  8
14
 10
-2456.342091
 20
-1031.065238
 30
0.0
 70
0
  0
VERTEX
  5
188
  8
14
 10
-2457.139159
 20
-1047.73891
 30
0.0
 70
0
  0
VERTEX
  5
189
  8
14
 10
-2457.946474
 20
-1064.711214
 30
0.0
 70
0
  0
VERTEX
  5
18A
  8
14
 10
-2458.716497
 20
-1080.979365
 30
0.0
 70
0
  0
VERTEX
  5
18B
  8
14
 10
-2459.535069
 20
-1098.362093
 30
0.0
 70
0
  0
VERTEX
  5
18C
  8
14
 10
-2460.267504
 20
-1113.997955
 30
0.0
 70
0
  0
VERTEX
  5
18D
  8
14
 10
-2461.021495
 20
-1130.181334
 30
0.0
 70
0
  0
VERTEX
  5
18E
  8
14
 10
-2461.790532
 20
-1146.787017
 30
0.0
 70
0
  0
VERTEX
  5
18F
  8
14
 10
-2462.568102
 20
-1163.689794
 30
0.0
 70
0
  0
VERTEX
  5
190
  8
14
 10
-2463.347691
 20
-1180.764395
 30
0.0
 70
0
  0
VERTEX
  5
191
  8
14
 10
-2463.635101
 20
-1187.094498
 30
0.0
 70
0
  0
VERTEX
  5
192
  8
14
 10
-2464.147923
 20
-1198.439834
 30
0.0
 70
0
  0
VERTEX
  5
193
  8
14
 10
-2464.869542
 20
-1214.492442
 30
0.0
 70
0
  0
VERTEX
  5
194
  8
14
 10
-2465.562102
 20
-1229.980314
 30
0.0
 70
0
  0
VERTEX
  5
195
  8
14
 10
-2466.091309
 20
-1241.869659
 30
0.0
 70
0
  0
VERTEX
  5
196
  8
14
 10
-2466.091309
 20
-1241.869659
 30
0.0
 70
0
  0
VERTEX
  5
197
  8
14
 10
-2472.114488
 20
-1242.318026
 30
0.0
 70
0
  0
VERTEX
  5
198
  8
14
 10
-2486.495651
 20
-1243.311183
 30
0.0
 70
0
  0
VERTEX
  5
199
  8
14
 10
-2502.719143
 20
-1244.323411
 30
0.0
 70
0
  0
VERTEX
  5
19A
  8
14
 10
-2519.286968
 20
-1245.232183
 30
0.0
 70
0
  0
VERTEX
  5
19B
  8
14
 10
-2536.849548
 20
-1246.030243
 30
0.0
 70
0
  0
VERTEX
  5
19C
  8
14
 10
-2551.852126
 20
-1246.547282
 30
0.0
 70
0
  0
VERTEX
  5
19D
  8
14
 10
-2567.37679
 20
-1246.922781
 30
0.0
 70
0
  0
VERTEX
  5
19E
  8
14
 10
-2582.905897
 20
-1247.14672
 30
0.0
 70
0
  0
VERTEX
  5
19F
  8
14
 10
-2598.437816
 20
-1247.229678
 30
0.0
 70
0
  0
VERTEX
  5
1A0
  8
14
 10
-2613.97092
 20
-1247.182236
 30
0.0
 70
0
  0
VERTEX
  5
1A1
  8
14
 10
-2629.503579
 20
-1247.014973
 30
0.0
 70
0
  0
VERTEX
  5
1A2
  8
14
 10
-2645.034163
 20
-1246.73847
 30
0.0
 70
0
  0
VERTEX
  5
1A3
  8
14
 10
-2661.622802
 20
-1246.332968
 30
0.0
 70
0
  0
VERTEX
  5
1A4
  8
14
 10
-2677.145035
 20
-1245.849565
 30
0.0
 70
0
  0
VERTEX
  5
1A5
  8
14
 10
-2692.662484
 20
-1245.259435
 30
0.0
 70
0
  0
VERTEX
  5
1A6
  8
14
 10
-2709.407803
 20
-1244.495439
 30
0.0
 70
0
  0
VERTEX
  5
1A7
  8
14
 10
-2724.914755
 20
-1243.67527
 30
0.0
 70
0
  0
VERTEX
  5
1A8
  8
14
 10
-2740.41872
 20
-1242.790075
 30
0.0
 70
0
  0
VERTEX
  5
1A9
  8
14
 10
-2756.520606
 20
-1241.853717
 30
0.0
 70
0
  0
VERTEX
  5
1AA
  8
14
 10
-2771.992275
 20
-1240.959815
 30
0.0
 70
0
  0
VERTEX
  5
1AB
  8
14
 10
-2787.386362
 20
-1240.076225
 30
0.0
 70
0
  0
VERTEX
  5
1AC
  8
14
 10
-2802.654495
 20
-1239.20524
 30
0.0
 70
0
  0
VERTEX
  5
1AD
  8
14
 10
-2817.748305
 20
-1238.349151
 30
0.0
 70
0
  0
VERTEX
  5
1AE
  8
14
 10
-2834.722861
 20
-1237.391945
 30
0.0
 70
0
  0
VERTEX
  5
1AF
  8
14
 10
-2851.334346
 20
-1236.460613
 30
0.0
 70
0
  0
VERTEX
  5
1B0
  8
14
 10
-2867.510557
 20
-1235.558576
 30
0.0
 70
0
  0
VERTEX
  5
1B1
  8
14
 10
-2883.179288
 20
-1234.689255
 30
0.0
 70
0
  0
VERTEX
  5
1B2
  8
14
 10
-2898.268337
 20
-1233.856074
 30
0.0
 70
0
  0
VERTEX
  5
1B3
  8
14
 10
-2914.46071
 20
-1232.966202
 30
0.0
 70
0
  0
VERTEX
  5
1B4
  8
14
 10
-2929.725248
 20
-1232.131271
 30
0.0
 70
0
  0
VERTEX
  5
1B5
  8
14
 10
-2945.472568
 20
-1231.273934
 30
0.0
 70
0
  0
VERTEX
  5
1B6
  8
14
 10
-2961.156674
 20
-1230.424128
 30
0.0
 70
0
  0
VERTEX
  5
1B7
  8
14
 10
-2977.230808
 20
-1229.557599
 30
0.0
 70
0
  0
VERTEX
  5
1B8
  8
14
 10
-2992.917247
 20
-1228.716688
 30
0.0
 70
0
  0
SEQEND
  5
103
  8
14
  0
POLYLINE
  5
1B9
  8
8
 66
1
 10
0.0
 20
0.0
 30
0.0
 70
0
  0
VERTEX
  5
1BB
  8
8
 10
-2492.55722
 20
-1036.586227
 30
0.0
 70
0
  0
VERTEX
  5
1BC
  8
8
 10
-2493.82952
 20
-1055.124562
 30
0.0
 70
0
  0
VERTEX
  5
1BD
  8
8
 10
-2494.963759
 20
-1071.651267
 30
0.0
 70
0
  0
VERTEX
  5
1BE
  8
8
 10
-2496.070055
 20
-1087.770804
 30
0.0
 70
0
  0
VERTEX
  5
1BF
  8
8
 10
-2497.25947
 20
-1105.101463
 30
0.0
 70
0
  0
VERTEX
  5
1C0
  8
8
 10
-2498.472635
 20
-1122.778166
 30
0.0
 70
0
  0
VERTEX
  5
1C1
  8
8
 10
-2499.650176
 20
-1139.935804
 30
0.0
 70
0
  0
VERTEX
  5
1C2
  8
8
 10
-2500.732722
 20
-1155.709301
 30
0.0
 70
0
  0
VERTEX
  5
1C3
  8
8
 10
-2501.822788
 20
-1171.592364
 30
0.0
 70
0
  0
VERTEX
  5
1C4
  8
8
 10
-2502.816671
 20
-1186.073964
 30
0.0
 70
0
  0
VERTEX
  5
1C5
  8
8
 10
-2502.933197
 20
-1187.771835
 30
0.0
 70
0
  0
SEQEND
  5
1BA
  8
8
  0
POLYLINE
  5
1C6
  8
8
 66
1
 10
0.0
 20
0.0
 30
0.0
 70
0
  0
VERTEX
  5
1C8
  8
8
 10
-2606.329041
 20
-970.297089
 30
0.0
 70
0
  0
VERTEX
  5
1C9
  8
8
 10
-2630.514526
 20
-1246.824799
 30
0.0
 70
0
  0
SEQEND
  5
1C7
  8
8
  0
POLYLINE
  5
1CA
  8
8
 66
1
 10
0.0
 20
0.0
 30
0.0
 70
0
  0
VERTEX
  5
1CC
  8
8
 10
-3466.160583
 20
-1093.153534
 30
0.0
 70
0
  0
VERTEX
  5
1CD
  8
8
 10
-3448.310121
 20
-1093.144863
 30
0.0
 70
0
  0
VERTEX
  5
1CE
  8
8
 10
-3431.282321
 20
-1093.136887
 30
0.0
 70
0
  0
VERTEX
  5
1CF
  8
8
 10
-3414.093651
 20
-1093.129053
 30
0.0
 70
0
  0
VERTEX
  5
1D0
  8
8
 10
-3394.007342
 20
-1093.120145
 30
0.0
 70
0
  0
VERTEX
  5
1D1
  8
8
 10
-3377.192368
 20
-1093.11288
 30
0.0
 70
0
  0
VERTEX
  5
1D2
  8
8
 10
-3358.99509
 20
-1093.105208
 30
0.0
 70
0
  0
VERTEX
  5
1D3
  8
8
 10
-3339.52166
 20
-1093.097214
 30
0.0
 70
0
  0
VERTEX
  5
1D4
  8
8
 10
-3318.878177
 20
-1093.088983
 30
0.0
 70
0
  0
VERTEX
  5
1D5
  8
8
 10
-3297.170815
 20
-1093.080599
 30
0.0
 70
0
  0
VERTEX
  5
1D6
  8
8
 10
-3274.505638
 20
-1093.072148
 30
0.0
 70
0
  0
VERTEX
  5
1D7
  8
8
 10
-3258.915825
 20
-1093.066517
 30
0.0
 70
0
  0
VERTEX
  5
1D8
  8
8
 10
-3242.978978
 20
-1093.060919
 30
0.0
 70
0
  0
VERTEX
  5
1D9
  8
8
 10
-3226.726473
 20
-1093.055379
 30
0.0
 70
0
  0
VERTEX
  5
1DA
  8
8
 10
-3210.189789
 20
-1093.049921
 30
0.0
 70
0
  0
VERTEX
  5
1DB
  8
8
 10
-3193.40037
 20
-1093.044571
 30
0.0
 70
0
  0
VERTEX
  5
1DC
  8
8
 10
-3176.3897
 20
-1093.039354
 30
0.0
 70
0
  0
VERTEX
  5
1DD
  8
8
 10
-3159.189148
 20
-1093.034295
 30
0.0
 70
0
  0
VERTEX
  5
1DE
  8
8
 10
-3141.830198
 20
-1093.029419
 30
0.0
 70
0
  0
VERTEX
  5
1DF
  8
8
 10
-3124.344295
 20
-1093.02475
 30
0.0
 70
0
  0
VERTEX
  5
1E0
  8
8
 10
-3106.76292
 20
-1093.020315
 30
0.0
 70
0
  0
VERTEX
  5
1E1
  8
8
 10
-3089.117444
 20
-1093.016139
 30
0.0
 70
0
  0
VERTEX
  5
1E2
  8
8
 10
-3071.43935
 20
-1093.012245
 30
0.0
 70
0
  0
VERTEX
  5
1E3
  8
8
 10
-3053.102082
 20
-1093.008526
 30
0.0
 70
0
  0
VERTEX
  5
1E4
  8
8
 10
-3035.462602
 20
-1093.005244
 30
0.0
 70
0
  0
VERTEX
  5
1E5
  8
8
 10
-3017.899348
 20
-1093.002247
 30
0.0
 70
0
  0
VERTEX
  5
1E6
  8
8
 10
-3000.450432
 20
-1092.999522
 30
0.0
 70
0
  0
VERTEX
  5
1E7
  8
8
 10
-2983.153967
 20
-1092.997058
 30
0.0
 70
0
  0
VERTEX
  5
1E8
  8
8
 10
-2966.04814
 20
-1092.994841
 30
0.0
 70
0
  0
VERTEX
  5
1E9
  8
8
 10
-2949.170915
 20
-1092.99286
 30
0.0
 70
0
  0
VERTEX
  5
1EA
  8
8
 10
-2932.560481
 20
-1092.991103
 30
0.0
 70
0
  0
VERTEX
  5
1EB
  8
8
 10
-2916.25495
 20
-1092.989557
 30
0.0
 70
0
  0
VERTEX
  5
1EC
  8
8
 10
-2900.292435
 20
-1092.98821
 30
0.0
 70
0
  0
VERTEX
  5
1ED
  8
8
 10
-2884.711048
 20
-1092.987049
 30
0.0
 70
0
  0
VERTEX
  5
1EE
  8
8
 10
-2869.548904
 20
-1092.986063
 30
0.0
 70
0
  0
VERTEX
  5
1EF
  8
8
 10
-2847.675169
 20
-1092.984884
 30
0.0
 70
0
  0
VERTEX
  5
1F0
  8
8
 10
-2826.959111
 20
-1092.984029
 30
0.0
 70
0
  0
VERTEX
  5
1F1
  8
8
 10
-2807.529305
 20
-1092.983455
 30
0.0
 70
0
  0
VERTEX
  5
1F2
  8
8
 10
-2789.514495
 20
-1092.983123
 30
0.0
 70
0
  0
VERTEX
  5
1F3
  8
8
 10
-2773.043255
 20
-1092.982989
 30
0.0
 70
0
  0
VERTEX
  5
1F4
  8
8
 10
-2758.244174
 20
-1092.983013
 30
0.0
 70
0
  0
VERTEX
  5
1F5
  8
8
 10
-2741.335661
 20
-1092.98322
 30
0.0
 70
0
  0
VERTEX
  5
1F6
  8
8
 10
-2725.16655
 20
-1092.983619
 30
0.0
 70
0
  0
VERTEX
  5
1F7
  8
8
 10
-2711.645813
 20
-1092.984161
 30
0.0
 70
0
  0
SEQEND
  5
1CB
  8
8
  0
POLYLINE
  5
1F8
  8
8
 66
1
 10
0.0
 20
0.0
 30
0.0
 70
0
  0
VERTEX
  5
1FA
  8
8
 10
-3008.831787
 20
-949.111633
 30
0.0
 70
0
  0
VERTEX
  5
1FB
  8
8
 10
-3008.831787
 20
-967.284755
 30
0.0
 70
0
  0
VERTEX
  5
1FC
  8
8
 10
-3008.831787
 20
-983.087598
 30
0.0
 70
0
  0
VERTEX
  5
1FD
  8
8
 10
-3008.831787
 20
-999.9523
 30
0.0
 70
0
  0
VERTEX
  5
1FE
  8
8
 10
-3008.831787
 20
-1016.234806
 30
0.0
 70
0
  0
VERTEX
  5
1FF
  8
8
 10
-3008.831787
 20
-1033.845376
 30
0.0
 70
0
  0
VERTEX
  5
200
  8
8
 10
-3008.831787
 20
-1049.29036
 30
0.0
 70
0
  0
VERTEX
  5
201
  8
8
 10
-3008.831787
 20
-1065.225297
 30
0.0
 70
0
  0
VERTEX
  5
202
  8
8
 10
-3008.831787
 20
-1081.453648
 30
0.0
 70
0
  0
VERTEX
  5
203
  8
8
 10
-3008.831787
 20
-1099.298347
 30
0.0
 70
0
  0
VERTEX
  5
204
  8
8
 10
-3008.831787
 20
-1115.500981
 30
0.0
 70
0
  0
VERTEX
  5
205
  8
8
 10
-3008.831787
 20
-1131.379924
 30
0.0
 70
0
  0
VERTEX
  5
206
  8
8
 10
-3008.831787
 20
-1146.732821
 30
0.0
 70
0
  0
VERTEX
  5
207
  8
8
 10
-3008.831787
 20
-1164.177095
 30
0.0
 70
0
  0
VERTEX
  5
208
  8
8
 10
-3008.831787
 20
-1180.222924
 30
0.0
 70
0
  0
VERTEX
  5
209
  8
8
 10
-3008.831787
 20
-1196.70919
 30
0.0
 70
0
  0
VERTEX
  5
20A
  8
8
 10
-3008.831787
 20
-1211.925094
 30
0.0
 70
0
  0
VERTEX
  5
20B
  8
8
 10
-3008.831787
 20
-1226.340743
 30
0.0
 70
0
  0
VERTEX
  5
20C
  8
8
 10
-3008.831787
 20
-1227.869644
 30
0.0
 70
0
  0
SEQEND
  5
1F9
  8
8
  0
POLYLINE
  5
20D
  8
8
 66
1
 10
0.0
 20
0.0
 30
0.0
 70
0
  0
VERTEX
  5
20F
  8
8
 10
-2704.065552
 20
-880.864716
 30
0.0
 70
0
  0
VERTEX
  5
210
  8
8
 10
-2708.152161
 20
-1244.537582
 30
0.0
 70
0
  0
SEQEND
  5
20E
  8
8
  0
POINT
  5
211
  8
4
 10
-3009.278259
 20
-1240.561905
 30
0.0
  0
POINT
  5
212
  8
4
 10
-3466.618652
 20
-1218.866806
 30
0.0
  0
POINT
  5
213
  8
4
 10
-3465.702209
 20
-959.904251
 30
0.0
  0
POINT
  5
214
  8
4
 10
-3009.484558
 20
-936.428452
 30
0.0
  0
POINT
  5
215
  8
4
 10
-2718.75946
 20
-865.888443
 30
0.0
  0
POINT
  5
216
  8
4
 10
-2453.977356
 20
-982.060242
 30
0.0
  0
POINT
  5
217
  8
4
 10
-2442.19223
 20
-1001.288834
 30
0.0
  0
POINT
  5
218
  8
4
 10
-2450.948029
 20
-1187.669983
 30
0.0
  0
POINT
  5
219
  8
4
 10
-2466.660004
 20
-1254.64447
 30
0.0
  0
POINT
  5
21A
  8
4
 10
-3008.834839
 20
-1227.869644
 30
0.0
  0
POINT
  5
21B
  8
4
 10
-3466.573792
 20
-1206.146927
 30
0.0
  0
POINT
  5
21C
  8
4
 10
-3465.747375
 20
-972.623367
 30
0.0
  0
POINT
  5
21D
  8
4
 10
-3008.831787
 20
-949.111633
 30
0.0
  0
POINT
  5
21E
  8
4
 10
-2703.935852
 20
-873.957138
 30
0.0
  0
POINT
  5
21F
  8
4
 10
-2454.763489
 20
-998.317566
 30
0.0
  0
POINT
  5
220
  8
4
 10
-2454.763489
 20
-998.317566
 30
0.0
  0
POINT
  5
221
  8
4
 10
-2463.635101
 20
-1187.094498
 30
0.0
  0
POINT
  5
222
  8
4
 10
-2466.091309
 20
-1241.869659
 30
0.0
  0
LINE
  5
223
  8
7
 10
-3387.257385
 20
-1086.681671
 30
0.0
 11
-2519.147034
 21
-1086.681671
 31
0.0
  0
ENDSEC
  0
EOF
