  0
SECTION
  2
HEADER
  9
$ACADVER
  1
AC1009
  9
$DWGCODEPAGE
  3
ANSI_1252
  9
$INSBASE
 10
0.0
 20
0.0
 30
0.0
  9
$EXTMIN
 10
1e+20
 20
1e+20
 30
1e+20
  9
$EXTMAX
 10
-1e+20
 20
-1e+20
 30
-1e+20
  9
$LIMMIN
 10
0.0
 20
0.0
  9
$LIMMAX
 10
420.0
 20
297.0
  9
$ORTHOMODE
 70
0
  9
$REGENMODE
 70
1
  9
$FILLMODE
 70
1
  9
$DRAGMODE
 70
2
  9
$QTEXTMODE
 70
0
  9
$MIRRTEXT
 70
1
  9
$OSMODE
 70
20583
  9
$LTSCALE
 40
1.0
  9
$ATTMODE
 70
1
  9
$TEXTSIZE
 40
2.5
  9
$TRACEWID
 40
1.0
  9
$TEXTSTYLE
  7
Standard
  9
$CLAYER
  8
0
  9
$CELTYPE
  6
ByLayer
  9
$CECOLOR
 62
256
  9
$DIMSCALE
 40
1.0
  9
$DIMASZ
 40
2.5
  9
$DIMEXO
 40
0.625
  9
$DIMDLI
 40
3.75
  9
$DIMRND
 40
0.0
  9
$DIMDLE
 40
0.0
  9
$DIMEXE
 40
1.25
  9
$DIMTP
 40
0.0
  9
$DIMTM
 40
0.0
  9
$DIMTXT
 40
2.5
  9
$DIMCEN
 40
2.5
  9
$DIMTSZ
 40
0.0
  9
$DIMTOL
 70
0
  9
$DIMLIM
 70
0
  9
$DIMTIH
 70
0
  9
$DIMTOH
 70
0
  9
$DIMSE1
 70
0
  9
$DIMSE2
 70
0
  9
$DIMTAD
 70
1
  9
$DIMZIN
 70
8
  9
$DIMBLK
  1

  9
$DIMASO
 70
1
  9
$DIMSHO
 70
1
  9
$DIMPOST
  1

  9
$DIMAPOST
  1

  9
$DIMALT
 70
0
  9
$DIMALTD
 70
3
  9
$DIMALTF
 40
0.03937007874
  9
$DIMLFAC
 40
1.0
  9
$DIMTOFL
 70
1
  9
$DIMTVP
 40
0.0
  9
$DIMTIX
 70
0
  9
$DIMSOXD
 70
0
  9
$DIMSAH
 70
0
  9
$DIMBLK1
  1

  9
$DIMBLK2
  1

  9
$DIMSTYLE
  2
ISO-25
  9
$DIMCLRD
 70
0
  9
$DIMCLRE
 70
0
  9
$DIMCLRT
 70
0
  9
$DIMTFAC
 40
1.0
  9
$DIMGAP
 40
0.625
  9
$COORDS
 70
1
  9
$ATTDIA
 70
0
  9
$ATTREQ
 70
1
  9
$HANDLING
 70
1
  9
$LUNITS
 70
2
  9
$LUPREC
 70
4
  9
$SKETCHINC
 40
1.0
  9
$FILLETRAD
 40
10.0
  9
$AUNITS
 70
0
  9
$AUPREC
 70
2
  9
$MENU
  1
.
  9
$ELEVATION
 40
0.0
  9
$PELEVATION
 40
0.0
  9
$THICKNESS
 40
0.0
  9
$LIMCHECK
 70
0
  9
$CHAMFERA
 40
0.0
  9
$CHAMFERB
 40
0.0
  9
$SKPOLY
 70
0
  9
$TDCREATE
 40
2461264.9423032408
  9
$TDUPDATE
 40
2461264.9423032408
  9
$TDINDWG
 40
0.0
  9
$TDUSRTIMER
 40
0.0
  9
$USRTIMER
 70
1
  9
$ANGBASE
 50
0.0
  9
$ANGDIR
 70
0
  9
$PDMODE
 70
0
  9
$PDSIZE
 40
0.0
  9
$PLINEWID
 40
0.0
  9
$SPLFRAME
 70
0
  9
$SPLINETYPE
 70
6
  9
$SPLINESEGS
 70
8
  9
$HANDSEED
  5
237
  9
$SURFTAB1
 70
6
  9
$SURFTAB2
 70
6
  9
$SURFTYPE
 70
6
  9
$SURFU
 70
6
  9
$SURFV
 70
6
  9
$UCSNAME
  2

  9
$UCSORG
 10
0.0
 20
0.0
 30
0.0
  9
$UCSXDIR
 10
1.0
 20
0.0
 30
0.0
  9
$UCSYDIR
 10
0.0
 20
1.0
 30
0.0
  9
$PUCSNAME
  2

  9
$PUCSORG
 10
0.0
 20
0.0
 30
0.0
  9
$PUCSXDIR
 10
1.0
 20
0.0
 30
0.0
  9
$PUCSYDIR
 10
0.0
 20
1.0
 30
0.0
  9
$USERI1
 70
0
  9
$USERI2
 70
0
  9
$USERI3
 70
0
  9
$USERI4
 70
0
  9
$USERI5
 70
0
  9
$USERR1
 40
0.0
  9
$USERR2
 40
0.0
  9
$USERR3
 40
0.0
  9
$USERR4
 40
0.0
  9
$USERR5
 40
0.0
  9
$WORLDVIEW
 70
1
  9
$SHADEDGE
 70
3
  9
$SHADEDIF
 70
70
  9
$TILEMODE
 70
1
  9
$MAXACTVP
 70
64
  9
$PLIMCHECK
 70
0
  9
$PEXTMIN
 10
1e+20
 20
1e+20
 30
1e+20
  9
$PEXTMAX
 10
-1e+20
 20
-1e+20
 30
-1e+20
  9
$PLIMMIN
 10
0.0
 20
0.0
  9
$PLIMMAX
 10
420.0
 20
297.0
  9
$UNITMODE
 70
0
  9
$VISRETAIN
 70
1
  9
$PLINEGEN
 70
0
  9
$PSLTSCALE
 70
1
  0
ENDSEC
  0
SECTION
  2
TABLES
  0
TABLE
  2
VPORT
 70
1
  0
VPORT
  5
23
  2
*Active
 70
0
 10
0.0
 20
0.0
 11
1.0
 21
1.0
 12
0.0
 22
0.0
 13
0.0
 23
0.0
 14
0.5
 24
0.5
 15
0.5
 25
0.5
 16
0.0
 26
0.0
 36
1.0
 17
0.0
 27
0.0
 37
0.0
 40
1000.0
 41
1.34
 42
50.0
 43
0.0
 44
0.0
 50
0.0
 51
0.0
 71
0
 72
1000
 73
1
 74
3
 75
0
 76
0
 77
0
 78
0
  0
ENDTAB
  0
TABLE
  2
LTYPE
 70
3
  0
LTYPE
  5
24
  2
ByBlock
 70
0
  3

 72
65
 73
0
 40
0.0
  0
LTYPE
  5
25
  2
ByLayer
 70
0
  3

 72
65
 73
0
 40
0.0
  0
LTYPE
  5
26
  2
Continuous
 70
0
  3

 72
65
 73
0
 40
0.0
  0
ENDTAB
  0
TABLE
  2
LAYER
 70
7
  0
LAYER
  5
27
  2
0
 70
0
 62
7
  6
Continuous
  0
LAYER
  5
28
  2
Defpoints
 70
0
 62
7
  6
Continuous
  0
LAYER
  5
2D
  2
1
 70
0
 62
1
  6
Continuous
  0
LAYER
  5
2E
  2
7
 70
0
 62
7
  6
Continuous
  0
LAYER
  5
2F
  2
14
 70
0
 62
3
  6
Continuous
  0
LAYER
  5
30
  2
8
 70
0
 62
6
  6
Continuous
  0
LAYER
  5
31
  2
4
 70
0
 62
2
  6
Continuous
  0
ENDTAB
  0
TABLE
  2
STYLE
 70
1
  0
STYLE
  5
29
  2
Standard
 70
0
 40
0.0
 41
1.0
 50
0.0
 71
0
 42
2.5
  3
txt
  4

  0
ENDTAB
  0
TABLE
  2
VIEW
 70
0
  0
ENDTAB
  0
TABLE
  2
UCS
 70
0
  0
ENDTAB
  0
TABLE
  2
APPID
 70
3
  0
APPID
  5
2A
  2
ACAD
 70
0
  0
APPID
  5
235
  2
HATCHBACKGROUNDCOLOR
 70
0
  0
APPID
  5
236
  2
EZDXF
 70
0
  0
ENDTAB
  0
TABLE
  2
DIMSTYLE
 70
1
  0
DIMSTYLE
105
2B
  2
Standard
 70
0
  3

  4

  5

  6

  7

 40
1.0
 41
2.5
 42
0.625
 43
3.75
 44
1.25
 45
0.0
 46
0.0
 47
0.0
 48
0.0
140
2.5
141
2.5
142
0.0
143
0.03937007874
144
1.0
145
0.0
146
1.0
147
0.625
 71
0
 72
0
 73
0
 74
0
 75
0
 76
0
 77
1
 78
8
170
0
171
3
172
1
173
0
174
0
175
0
176
0
177
0
178
0
  0
ENDTAB
  0
ENDSEC
  0
SECTION
  2
BLOCKS
  0
BLOCK
  5
18
  8
0
  2
$Model_Space
 70
0
 10
0.0
 20
0.0
 30
0.0
  3
$Model_Space
  1

1001
EZDXF
1000
CREATED_BY_EZDXF
1000
1.4.4 @ 2026-08-11T14:36:55.913216+00:00
1000
WRITTEN_BY_EZDXF
1000
1.4.4 @ 2026-08-11T14:36:55.918216+00:00
  0
ENDBLK
  5
19
  8
0
  0
BLOCK
  5
1C
  8
0
  2
$Paper_Space
 70
0
 10
0.0
 20
0.0
 30
0.0
  3
$Paper_Space
  1

  0
ENDBLK
  5
1D
  8
0
  0
ENDSEC
  0
SECTION
  2
ENTITIES
  0
POLYLINE
  5
32
  8
1
 66
1
 10
0.0
 20
0.0
 30
0.0
 70
1
  0
VERTEX
  5
34
  8
1
 10
-3009.532471
 20
-1255.791092
 30
0.0
 70
0
  0
VERTEX
  5
35
  8
1
 10
-3009.404602
 20
-1255.79689
 30
0.0
 70
0
  0
VERTEX
  5
36
  8
1
 10
-3011.681481
 20
-1255.694627
 30
0.0
 70
0
  0
VERTEX
  5
37
  8
1
 10
-3026.598658
 20
-1255.018571
 30
0.0
 70
0
  0
VERTEX
  5
38
  8
1
 10
-3041.879027
 20
-1254.313543
 30
0.0
 70
0
  0
VERTEX
  5
39
  8
1
 10
-3057.064294
 20
-1253.597507
 30
0.0
 70
0
  0
VERTEX
  5
3A
  8
1
 10
-3072.151909
 20
-1252.874287
 30
0.0
 70
0
  0
VERTEX
  5
3B
  8
1
 10
-3087.336151
 20
-1252.136904
 30
0.0
 70
0
  0
VERTEX
  5
3C
  8
1
 10
-3102.641474
 20
-1251.383101
 30
0.0
 70
0
  0
VERTEX
  5
3D
  8
1
 10
-3117.824683
 20
-1250.624134
 30
0.0
 70
0
  0
VERTEX
  5
3E
  8
1
 10
-3133.211477
 20
-1249.843729
 30
0.0
 70
0
  0
VERTEX
  5
3F
  8
1
 10
-3148.393565
 20
-1249.062565
 30
0.0
 70
0
  0
VERTEX
  5
40
  8
1
 10
-3163.83957
 20
-1248.256004
 30
0.0
 70
0
  0
VERTEX
  5
41
  8
1
 10
-3179.020313
 20
-1247.451167
 30
0.0
 70
0
  0
VERTEX
  5
42
  8
1
 10
-3194.355971
 20
-1246.62536
 30
0.0
 70
0
  0
VERTEX
  5
43
  8
1
 10
-3209.535419
 20
-1245.794747
 30
0.0
 70
0
  0
VERTEX
  5
44
  8
1
 10
-3224.881735
 20
-1244.940934
 30
0.0
 70
0
  0
VERTEX
  5
45
  8
1
 10
-3240.059645
 20
-1244.081685
 30
0.0
 70
0
  0
VERTEX
  5
46
  8
1
 10
-3255.104521
 20
-1243.214197
 30
0.0
 70
0
  0
VERTEX
  5
47
  8
1
 10
-3270.280469
 20
-1242.322336
 30
0.0
 70
0
  0
VERTEX
  5
48
  8
1
 10
-3285.47746
 20
-1241.412189
 30
0.0
 70
0
  0
VERTEX
  5
49
  8
1
 10
-3300.651427
 20
-1240.48685
 30
0.0
 70
0
  0
VERTEX
  5
4A
  8
1
 10
-3315.965501
 20
-1239.537731
 30
0.0
 70
0
  0
VERTEX
  5
4B
  8
1
 10
-3331.137583
 20
-1238.583712
 30
0.0
 70
0
  0
VERTEX
  5
4C
  8
1
 10
-3346.433792
 20
-1237.608793
 30
0.0
 70
0
  0
VERTEX
  5
4D
  8
1
 10
-3361.604378
 20
-1236.629548
 30
0.0
 70
0
  0
VERTEX
  5
4E
  8
1
 10
-3376.889844
 20
-1235.631252
 30
0.0
 70
0
  0
VERTEX
  5
4F
  8
1
 10
-3392.058957
 20
-1234.629685
 30
0.0
 70
0
  0
VERTEX
  5
50
  8
1
 10
-3407.177061
 20
-1233.621055
 30
0.0
 70
0
  0
VERTEX
  5
51
  8
1
 10
-3422.344742
 20
-1232.598323
 30
0.0
 70
0
  0
VERTEX
  5
52
  8
1
 10
-3437.632988
 20
-1231.554295
 30
0.0
 70
0
  0
VERTEX
  5
53
  8
1
 10
-3452.798831
 20
-1230.505115
 30
0.0
 70
0
  0
VERTEX
  5
54
  8
1
 10
-3466.614685
 20
-1229.542847
 30
0.0
 70
0
  0
VERTEX
  5
55
  8
1
 10
-3467.805903
 20
-1229.459856
 30
0.0
 70
0
  0
VERTEX
  5
56
  8
1
 10
-3482.839027
 20
-1228.411856
 30
0.0
 70
0
  0
VERTEX
  5
57
  8
1
 10
-3498.357849
 20
-1227.33017
 30
0.0
 70
0
  0
VERTEX
  5
58
  8
1
 10
-3498.307713
 20
-1211.776834
 30
0.0
 70
0
  0
VERTEX
  5
59
  8
1
 10
-3498.258574
 20
-1196.52033
 30
0.0
 70
0
  0
VERTEX
  5
5A
  8
1
 10
-3498.210179
 20
-1181.494492
 30
0.0
 70
0
  0
VERTEX
  5
5B
  8
1
 10
-3498.161004
 20
-1166.237985
 30
0.0
 70
0
  0
VERTEX
  5
5C
  8
1
 10
-3498.111777
 20
-1150.981479
 30
0.0
 70
0
  0
VERTEX
  5
5D
  8
1
 10
-3498.063083
 20
-1135.909373
 30
0.0
 70
0
  0
VERTEX
  5
5E
  8
1
 10
-3498.013743
 20
-1120.652862
 30
0.0
 70
0
  0
VERTEX
  5
5F
  8
1
 10
-3497.964842
 20
-1105.543828
 30
0.0
 70
0
  0
VERTEX
  5
60
  8
1
 10
-3497.915411
 20
-1090.287309
 30
0.0
 70
0
  0
VERTEX
  5
61
  8
1
 10
-3497.866293
 20
-1075.152186
 30
0.0
 70
0
  0
VERTEX
  5
62
  8
1
 10
-3497.816702
 20
-1059.895693
 30
0.0
 70
0
  0
VERTEX
  5
63
  8
1
 10
-3497.767312
 20
-1044.713348
 30
0.0
 70
0
  0
VERTEX
  5
64
  8
1
 10
-3497.717666
 20
-1029.45684
 30
0.0
 70
0
  0
VERTEX
  5
65
  8
1
 10
-3497.66821
 20
-1014.26661
 30
0.0
 70
0
  0
VERTEX
  5
66
  8
1
 10
-3497.618496
 20
-999.010121
 30
0.0
 70
0
  0
VERTEX
  5
67
  8
1
 10
-3497.568713
 20
-983.753598
 30
0.0
 70
0
  0
VERTEX
  5
68
  8
1
 10
-3497.519176
 20
-968.600892
 30
0.0
 70
0
  0
VERTEX
  5
69
  8
1
 10
-3497.469587
 20
-953.466164
 30
0.0
 70
0
  0
VERTEX
  5
6A
  8
1
 10
-3497.461243
 20
-950.922318
 30
0.0
 70
0
  0
VERTEX
  5
6B
  8
1
 10
-3482.031411
 20
-950.102588
 30
0.0
 70
0
  0
VERTEX
  5
6C
  8
1
 10
-3466.805522
 20
-949.293692
 30
0.0
 70
0
  0
VERTEX
  5
6D
  8
1
 10
-3465.705566
 20
-949.235229
 30
0.0
 70
0
  0
VERTEX
  5
6E
  8
1
 10
-3451.52558
 20
-948.481924
 30
0.0
 70
0
  0
VERTEX
  5
6F
  8
1
 10
-3436.133543
 20
-947.664212
 30
0.0
 70
0
  0
VERTEX
  5
70
  8
1
 10
-3420.713181
 20
-946.845016
 30
0.0
 70
0
  0
VERTEX
  5
71
  8
1
 10
-3405.321109
 20
-946.027324
 30
0.0
 70
0
  0
VERTEX
  5
72
  8
1
 10
-3390.255234
 20
-945.226944
 30
0.0
 70
0
  0
VERTEX
  5
73
  8
1
 10
-3374.863117
 20
-944.409221
 30
0.0
 70
0
  0
VERTEX
  5
74
  8
1
 10
-3359.611773
 20
-943.598977
 30
0.0
 70
0
  0
VERTEX
  5
75
  8
1
 10
-3344.219749
 20
-942.781271
 30
0.0
 70
0
  0
VERTEX
  5
76
  8
1
 10
-3328.831296
 20
-941.963773
 30
0.0
 70
0
  0
VERTEX
  5
77
  8
1
 10
-3313.439241
 20
-941.146084
 30
0.0
 70
0
  0
VERTEX
  5
78
  8
1
 10
-3298.018902
 20
-940.326875
 30
0.0
 70
0
  0
VERTEX
  5
79
  8
1
 10
-3282.62693
 20
-939.509163
 30
0.0
 70
0
  0
VERTEX
  5
7A
  8
1
 10
-3267.254806
 20
-938.692509
 30
0.0
 70
0
  0
VERTEX
  5
7B
  8
1
 10
-3251.86279
 20
-937.874804
 30
0.0
 70
0
  0
VERTEX
  5
7C
  8
1
 10
-3236.613017
 20
-937.064659
 30
0.0
 70
0
  0
VERTEX
  5
7D
  8
1
 10
-3221.220997
 20
-936.246952
 30
0.0
 70
0
  0
VERTEX
  5
7E
  8
1
 10
-3206.19981
 20
-935.448934
 30
0.0
 70
0
  0
VERTEX
  5
7F
  8
1
 10
-3190.80784
 20
-934.63122
 30
0.0
 70
0
  0
VERTEX
  5
80
  8
1
 10
-3175.387531
 20
-933.812019
 30
0.0
 70
0
  0
VERTEX
  5
81
  8
1
 10
-3159.995498
 20
-932.994327
 30
0.0
 70
0
  0
VERTEX
  5
82
  8
1
 10
-3144.692676
 20
-932.181371
 30
0.0
 70
0
  0
VERTEX
  5
83
  8
1
 10
-3129.300639
 20
-931.363672
 30
0.0
 70
0
  0
VERTEX
  5
84
  8
1
 10
-3114.318864
 20
-930.567771
 30
0.0
 70
0
  0
VERTEX
  5
85
  8
1
 10
-3098.926816
 20
-929.750073
 30
0.0
 70
0
  0
VERTEX
  5
86
  8
1
 10
-3083.875681
 20
-928.950481
 30
0.0
 70
0
  0
VERTEX
  5
87
  8
1
 10
-3068.483576
 20
-928.132769
 30
0.0
 70
0
  0
VERTEX
  5
88
  8
1
 10
-3053.469127
 20
-927.335115
 30
0.0
 70
0
  0
VERTEX
  5
89
  8
1
 10
-3038.076997
 20
-926.517399
 30
0.0
 70
0
  0
VERTEX
  5
8A
  8
1
 10
-3022.684999
 20
-925.699699
 30
0.0
 70
0
  0
VERTEX
  5
8B
  8
1
 10
-3009.505615
 20
-924.999542
 30
0.0
 70
0
  0
VERTEX
  5
8C
  8
1
 10
-3010.208435
 20
-925.039215
 30
0.0
 70
0
  0
VERTEX
  5
8D
  8
1
 10
-2994.829942
 20
-922.492037
 30
0.0
 70
0
  0
VERTEX
  5
8E
  8
1
 10
-2979.718178
 20
-919.890402
 30
0.0
 70
0
  0
VERTEX
  5
8F
  8
1
 10
-2964.927296
 20
-917.215097
 30
0.0
 70
0
  0
VERTEX
  5
90
  8
1
 10
-2949.727608
 20
-914.329889
 30
0.0
 70
0
  0
VERTEX
  5
91
  8
1
 10
-2935.005882
 20
-911.408877
 30
0.0
 70
0
  0
VERTEX
  5
92
  8
1
 10
-2919.86042
 20
-908.252725
 30
0.0
 70
0
  0
VERTEX
  5
93
  8
1
 10
-2905.11507
 20
-905.006809
 30
0.0
 70
0
  0
VERTEX
  5
94
  8
1
 10
-2890.196316
 20
-901.52816
 30
0.0
 70
0
  0
VERTEX
  5
95
  8
1
 10
-2875.178281
 20
-897.811347
 30
0.0
 70
0
  0
VERTEX
  5
96
  8
1
 10
-2860.312443
 20
-893.91239
 30
0.0
 70
0
  0
VERTEX
  5
97
  8
1
 10
-2845.404324
 20
-889.77597
 30
0.0
 70
0
  0
VERTEX
  5
98
  8
1
 10
-2830.580227
 20
-885.424959
 30
0.0
 70
0
  0
VERTEX
  5
99
  8
1
 10
-2815.803494
 20
-880.841809
 30
0.0
 70
0
  0
VERTEX
  5
9A
  8
1
 10
-2801.14133
 20
-876.057947
 30
0.0
 70
0
  0
VERTEX
  5
9B
  8
1
 10
-2786.499362
 20
-871.061763
 30
0.0
 70
0
  0
VERTEX
  5
9C
  8
1
 10
-2772.015409
 20
-865.937565
 30
0.0
 70
0
  0
VERTEX
  5
9D
  8
1
 10
-2757.480913
 20
-860.636223
 30
0.0
 70
0
  0
VERTEX
  5
9E
  8
1
 10
-2743.044245
 20
-855.194829
 30
0.0
 70
0
  0
VERTEX
  5
9F
  8
1
 10
-2728.627346
 20
-849.582364
 30
0.0
 70
0
  0
VERTEX
  5
A0
  8
1
 10
-2718.734131
 20
-845.643158
 30
0.0
 70
0
  0
VERTEX
  5
A1
  8
1
 10
-2714.255541
 20
-843.859979
 30
0.0
 70
0
  0
VERTEX
  5
A2
  8
1
 10
-2700.510591
 20
-838.320046
 30
0.0
 70
0
  0
VERTEX
  5
A3
  8
1
 10
-2697.742615
 20
-837.198029
 30
0.0
 70
0
  0
VERTEX
  5
A4
  8
1
 10
-2690.22522
 20
-840.945892
 30
0.0
 70
0
  0
VERTEX
  5
A5
  8
1
 10
-2688.404011
 20
-848.56189
 30
0.0
 70
0
  0
VERTEX
  5
A6
  8
1
 10
-2686.511022
 20
-855.407465
 30
0.0
 70
0
  0
VERTEX
  5
A7
  8
1
 10
-2684.644148
 20
-861.30155
 30
0.0
 70
0
  0
VERTEX
  5
A8
  8
1
 10
-2682.657543
 20
-866.749666
 30
0.0
 70
0
  0
VERTEX
  5
A9
  8
1
 10
-2680.47155
 20
-872.025148
 30
0.0
 70
0
  0
VERTEX
  5
AA
  8
1
 10
-2678.149243
 20
-877.005862
 30
0.0
 70
0
  0
VERTEX
  5
AB
  8
1
 10
-2675.714099
 20
-881.658699
 30
0.0
 70
0
  0
VERTEX
  5
AC
  8
1
 10
-2673.138224
 20
-886.047653
 30
0.0
 70
0
  0
VERTEX
  5
AD
  8
1
 10
-2670.509362
 20
-890.04454
 30
0.0
 70
0
  0
VERTEX
  5
AE
  8
1
 10
-2667.819659
 20
-893.692637
 30
0.0
 70
0
  0
VERTEX
  5
AF
  8
1
 10
-2665.105681
 20
-896.970689
 30
0.0
 70
0
  0
VERTEX
  5
B0
  8
1
 10
-2662.307397
 20
-899.968779
 30
0.0
 70
0
  0
VERTEX
  5
B1
  8
1
 10
-2659.45092
 20
-902.665063
 30
0.0
 70
0
  0
VERTEX
  5
B2
  8
1
 10
-2656.563748
 20
-905.046797
 30
0.0
 70
0
  0
VERTEX
  5
B3
  8
1
 10
-2653.440286
 20
-907.282079
 30
0.0
 70
0
  0
VERTEX
  5
B4
  8
1
 10
-2649.943452
 20
-909.457924
 30
0.0
 70
0
  0
VERTEX
  5
B5
  8
1
 10
-2646.151772
 20
-911.518348
 30
0.0
 70
0
  0
VERTEX
  5
B6
  8
1
 10
-2641.878293
 20
-913.550089
 30
0.0
 70
0
  0
VERTEX
  5
B7
  8
1
 10
-2637.102969
 20
-915.531941
 30
0.0
 70
0
  0
VERTEX
  5
B8
  8
1
 10
-2631.792751
 20
-917.453651
 30
0.0
 70
0
  0
VERTEX
  5
B9
  8
1
 10
-2625.849196
 20
-919.326943
 30
0.0
 70
0
  0
VERTEX
  5
BA
  8
1
 10
-2619.225781
 20
-921.144364
 30
0.0
 70
0
  0
VERTEX
  5
BB
  8
1
 10
-2611.773933
 20
-922.917538
 30
0.0
 70
0
  0
VERTEX
  5
BC
  8
1
 10
-2602.92482
 20
-924.750411
 30
0.0
 70
0
  0
VERTEX
  5
BD
  8
1
 10
-2593.051726
 20
-926.541502
 30
0.0
 70
0
  0
VERTEX
  5
BE
  8
1
 10
-2590.689697
 20
-926.929779
 30
0.0
 70
0
  0
VERTEX
  5
BF
  8
1
 10
-2575.493153
 20
-930.036568
 30
0.0
 70
0
  0
VERTEX
  5
C0
  8
1
 10
-2560.586921
 20
-933.085806
 30
0.0
 70
0
  0
VERTEX
  5
C1
  8
1
 10
-2545.435172
 20
-936.187761
 30
0.0
 70
0
  0
VERTEX
  5
C2
  8
1
 10
-2530.296091
 20
-939.289904
 30
0.0
 70
0
  0
VERTEX
  5
C3
  8
1
 10
-2515.413233
 20
-942.342267
 30
0.0
 70
0
  0
VERTEX
  5
C4
  8
1
 10
-2500.27533
 20
-945.450003
 30
0.0
 70
0
  0
VERTEX
  5
C5
  8
1
 10
-2485.142351
 20
-948.560201
 30
0.0
 70
0
  0
VERTEX
  5
C6
  8
1
 10
-2470.005824
 20
-951.674508
 30
0.0
 70
0
  0
VERTEX
  5
C7
  8
1
 10
-2455.155059
 20
-954.732921
 30
0.0
 70
0
  0
VERTEX
  5
C8
  8
1
 10
-2440.01958
 20
-957.852365
 30
0.0
 70
0
  0
VERTEX
  5
C9
  8
1
 10
-2424.884436
 20
-960.973485
 30
0.0
 70
0
  0
VERTEX
  5
CA
  8
1
 10
-2423.715668
 20
-961.2146
 30
0.0
 70
0
  0
VERTEX
  5
CB
  8
1
 10
-2411.11557
 20
-963.813782
 30
0.0
 70
0
  0
VERTEX
  5
CC
  8
1
 10
-2411.776029
 20
-979.307425
 30
0.0
 70
0
  0
VERTEX
  5
CD
  8
1
 10
-2411.80603
 20
-980.010376
 30
0.0
 70
0
  0
VERTEX
  5
CE
  8
1
 10
-2412.422777
 20
-994.490841
 30
0.0
 70
0
  0
VERTEX
  5
CF
  8
1
 10
-2413.067176
 20
-1009.674352
 30
0.0
 70
0
  0
VERTEX
  5
D0
  8
1
 10
-2413.718163
 20
-1025.11365
 30
0.0
 70
0
  0
VERTEX
  5
D1
  8
1
 10
-2414.354366
 20
-1040.297518
 30
0.0
 70
0
  0
VERTEX
  5
D2
  8
1
 10
-2414.984264
 20
-1055.404899
 30
0.0
 70
0
  0
VERTEX
  5
D3
  8
1
 10
-2415.614402
 20
-1070.589037
 30
0.0
 70
0
  0
VERTEX
  5
D4
  8
1
 10
-2416.237572
 20
-1085.682985
 30
0.0
 70
0
  0
VERTEX
  5
D5
  8
1
 10
-2416.861043
 20
-1100.86739
 30
0.0
 70
0
  0
VERTEX
  5
D6
  8
1
 10
-2417.483304
 20
-1116.10895
 30
0.0
 70
0
  0
VERTEX
  5
D7
  8
1
 10
-2418.099563
 20
-1131.293633
 30
0.0
 70
0
  0
VERTEX
  5
D8
  8
1
 10
-2418.70655
 20
-1146.344336
 30
0.0
 70
0
  0
VERTEX
  5
D9
  8
1
 10
-2419.314771
 20
-1161.529345
 30
0.0
 70
0
  0
VERTEX
  5
DA
  8
1
 10
-2419.918193
 20
-1176.712443
 30
0.0
 70
0
  0
VERTEX
  5
DB
  8
1
 10
-2420.46524
 20
-1190.587234
 30
0.0
 70
0
  0
VERTEX
  5
DC
  8
1
 10
-2420.516645
 20
-1191.89783
 30
0.0
 70
0
  0
VERTEX
  5
DD
  8
1
 10
-2421.110479
 20
-1207.083413
 30
0.0
 70
0
  0
VERTEX
  5
DE
  8
1
 10
-2421.705882
 20
-1222.414351
 30
0.0
 70
0
  0
VERTEX
  5
DF
  8
1
 10
-2422.291773
 20
-1237.600232
 30
0.0
 70
0
  0
VERTEX
  5
E0
  8
1
 10
-2422.880827
 20
-1252.965555
 30
0.0
 70
0
  0
VERTEX
  5
E1
  8
1
 10
-2423.459005
 20
-1268.100186
 30
0.0
 70
0
  0
VERTEX
  5
E2
  8
1
 10
-2423.722534
 20
-1275.001602
 30
0.0
 70
0
  0
VERTEX
  5
E3
  8
1
 10
-2430.145485
 20
-1275.466177
 30
0.0
 70
0
  0
VERTEX
  5
E4
  8
1
 10
-2436.465607
 20
-1275.905533
 30
0.0
 70
0
  0
VERTEX
  5
E5
  8
1
 10
-2445.106523
 20
-1276.506232
 30
0.0
 70
0
  0
VERTEX
  5
E6
  8
1
 10
-2460.303409
 20
-1277.496079
 30
0.0
 70
0
  0
VERTEX
  5
E7
  8
1
 10
-2475.556856
 20
-1278.394942
 30
0.0
 70
0
  0
VERTEX
  5
E8
  8
1
 10
-2490.631705
 20
-1279.173322
 30
0.0
 70
0
  0
VERTEX
  5
E9
  8
1
 10
-2505.897405
 20
-1279.835608
 30
0.0
 70
0
  0
VERTEX
  5
EA
  8
1
 10
-2521.196323
 20
-1280.355422
 30
0.0
 70
0
  0
VERTEX
  5
EB
  8
1
 10
-2536.471944
 20
-1280.720351
 30
0.0
 70
0
  0
VERTEX
  5
EC
  8
1
 10
-2551.740396
 20
-1280.940981
 30
0.0
 70
0
  0
VERTEX
  5
ED
  8
1
 10
-2567.020157
 20
-1281.030381
 30
0.0
 70
0
  0
VERTEX
  5
EE
  8
1
 10
-2582.248275
 20
-1280.999906
 30
0.0
 70
0
  0
VERTEX
  5
EF
  8
1
 10
-2597.527577
 20
-1280.861295
 30
0.0
 70
0
  0
VERTEX
  5
F0
  8
1
 10
-2612.680496
 20
-1280.631705
 30
0.0
 70
0
  0
VERTEX
  5
F1
  8
1
 10
-2627.957119
 20
-1280.318291
 30
0.0
 70
0
  0
VERTEX
  5
F2
  8
1
 10
-2643.29303
 20
-1279.918089
 30
0.0
 70
0
  0
VERTEX
  5
F3
  8
1
 10
-2658.564971
 20
-1279.42113
 30
0.0
 70
0
  0
VERTEX
  5
F4
  8
1
 10
-2674.059739
 20
-1278.776835
 30
0.0
 70
0
  0
VERTEX
  5
F5
  8
1
 10
-2689.318598
 20
-1277.974079
 30
0.0
 70
0
  0
VERTEX
  5
F6
  8
1
 10
-2704.764911
 20
-1277.005636
 30
0.0
 70
0
  0
VERTEX
  5
F7
  8
1
 10
-2720.006803
 20
-1275.929342
 30
0.0
 70
0
  0
VERTEX
  5
F8
  8
1
 10
-2735.207458
 20
-1274.801464
 30
0.0
 70
0
  0
VERTEX
  5
F9
  8
1
 10
-2750.445544
 20
-1273.673279
 30
0.0
 70
0
  0
VERTEX
  5
FA
  8
1
 10
-2765.457842
 20
-1272.574179
 30
0.0
 70
0
  0
VERTEX
  5
FB
  8
1
 10
-2780.697766
 20
-1271.470718
 30
0.0
 70
0
  0
VERTEX
  5
FC
  8
1
 10
-2796.135196
 20
-1270.362647
 30
0.0
 70
0
  0
VERTEX
  5
FD
  8
1
 10
-2811.376286
 20
-1269.275627
 30
0.0
 70
0
  0
VERTEX
  5
FE
  8
1
 10
-2826.365674
 20
-1268.213733
 30
0.0
 70
0
  0
VERTEX
  5
FF
  8
1
 10
-2841.607899
 20
-1267.141977
 30
0.0
 70
0
  0
VERTEX
  5
100
  8
1
 10
-2856.887274
 20
-1266.075205
 30
0.0
 70
0
  0
VERTEX
  5
101
  8
1
 10
-2872.130539
 20
-1265.017814
 30
0.0
 70
0
  0
VERTEX
  5
102
  8
1
 10
-2887.457195
 20
-1263.961397
 30
0.0
 70
0
  0
VERTEX
  5
103
  8
1
 10
-2902.701285
 20
-1262.917373
 30
0.0
 70
0
  0
VERTEX
  5
104
  8
1
 10
-2917.945781
 20
-1261.879924
 30
0.0
 70
0
  0
VERTEX
  5
105
  8
1
 10
-2933.087747
 20
-1260.855868
 30
0.0
 70
0
  0
VERTEX
  5
106
  8
1
 10
-2948.391841
 20
-1259.827118
 30
0.0
 70
0
  0
VERTEX
  5
107
  8
1
 10
-2963.637686
 20
-1258.808669
 30
0.0
 70
0
  0
VERTEX
  5
108
  8
1
 10
-2978.884087
 20
-1257.798142
 30
0.0
 70
0
  0
VERTEX
  5
109
  8
1
 10
-2993.777136
 20
-1256.819516
 30
0.0
 70
0
  0
SEQEND
  5
33
  8
1
  0
POLYLINE
  5
10A
  8
14
 66
1
 10
0.0
 20
0.0
 30
0.0
 70
1
  0
VERTEX
  5
10C
  8
14
 10
-3008.834839
 20
-1243.109665
 30
0.0
 70
0
  0
VERTEX
  5
10D
  8
14
 10
-3008.834839
 20
-1243.109665
 30
0.0
 70
0
  0
VERTEX
  5
10E
  8
14
 10
-3015.172992
 20
-1242.82643
 30
0.0
 70
0
  0
VERTEX
  5
10F
  8
14
 10
-3029.599374
 20
-1242.168534
 30
0.0
 70
0
  0
VERTEX
  5
110
  8
14
 10
-3045.199216
 20
-1241.442869
 30
0.0
 70
0
  0
VERTEX
  5
111
  8
14
 10
-3060.972367
 20
-1240.696351
 30
0.0
 70
0
  0
VERTEX
  5
112
  8
14
 10
-3078.993781
 20
-1239.828783
 30
0.0
 70
0
  0
VERTEX
  5
113
  8
14
 10
-3094.85776
 20
-1239.052523
 30
0.0
 70
0
  0
VERTEX
  5
114
  8
14
 10
-3111.865853
 20
-1238.207279
 30
0.0
 70
0
  0
VERTEX
  5
115
  8
14
 10
-3129.887087
 20
-1237.296822
 30
0.0
 70
0
  0
VERTEX
  5
116
  8
14
 10
-3148.790464
 20
-1236.324925
 30
0.0
 70
0
  0
VERTEX
  5
117
  8
14
 10
-3168.444984
 20
-1235.295359
 30
0.0
 70
0
  0
VERTEX
  5
118
  8
14
 10
-3183.600017
 20
-1234.487608
 30
0.0
 70
0
  0
VERTEX
  5
119
  8
14
 10
-3199.048616
 20
-1233.651131
 30
0.0
 70
0
  0
VERTEX
  5
11A
  8
14
 10
-3214.735517
 20
-1232.78752
 30
0.0
 70
0
  0
VERTEX
  5
11B
  8
14
 10
-3230.605415
 20
-1231.898367
 30
0.0
 70
0
  0
VERTEX
  5
11C
  8
14
 10
-3246.60314
 20
-1230.98526
 30
0.0
 70
0
  0
VERTEX
  5
11D
  8
14
 10
-3268.036636
 20
-1229.733278
 30
0.0
 70
0
  0
VERTEX
  5
11E
  8
14
 10
-3281.664474
 20
-1228.919116
 30
0.0
 70
0
  0
VERTEX
  5
11F
  8
14
 10
-3297.664566
 20
-1227.946248
 30
0.0
 70
0
  0
VERTEX
  5
120
  8
14
 10
-3313.490255
 20
-1226.967454
 30
0.0
 70
0
  0
VERTEX
  5
121
  8
14
 10
-3329.047765
 20
-1225.990481
 30
0.0
 70
0
  0
VERTEX
  5
122
  8
14
 10
-3344.243376
 20
-1225.023072
 30
0.0
 70
0
  0
VERTEX
  5
123
  8
14
 10
-3363.779148
 20
-1223.761465
 30
0.0
 70
0
  0
VERTEX
  5
124
  8
14
 10
-3382.282596
 20
-1222.548998
 30
0.0
 70
0
  0
VERTEX
  5
125
  8
14
 10
-3399.531487
 20
-1221.404033
 30
0.0
 70
0
  0
VERTEX
  5
126
  8
14
 10
-3415.303575
 20
-1220.344932
 30
0.0
 70
0
  0
VERTEX
  5
127
  8
14
 10
-3432.603357
 20
-1219.169777
 30
0.0
 70
0
  0
VERTEX
  5
128
  8
14
 10
-3449.247674
 20
-1218.025052
 30
0.0
 70
0
  0
VERTEX
  5
129
  8
14
 10
-3466.573792
 20
-1216.814957
 30
0.0
 70
0
  0
VERTEX
  5
12A
  8
14
 10
-3466.573792
 20
-1216.814957
 30
0.0
 70
0
  0
VERTEX
  5
12B
  8
14
 10
-3466.518247
 20
-1199.550487
 30
0.0
 70
0
  0
VERTEX
  5
12C
  8
14
 10
-3466.463312
 20
-1182.494291
 30
0.0
 70
0
  0
VERTEX
  5
12D
  8
14
 10
-3466.411093
 20
-1166.296669
 30
0.0
 70
0
  0
VERTEX
  5
12E
  8
14
 10
-3466.361153
 20
-1150.819702
 30
0.0
 70
0
  0
VERTEX
  5
12F
  8
14
 10
-3466.30757
 20
-1134.229467
 30
0.0
 70
0
  0
VERTEX
  5
130
  8
14
 10
-3466.251421
 20
-1116.864634
 30
0.0
 70
0
  0
VERTEX
  5
131
  8
14
 10
-3466.193788
 20
-1099.063876
 30
0.0
 70
0
  0
VERTEX
  5
132
  8
14
 10
-3466.138411
 20
-1081.986111
 30
0.0
 70
0
  0
VERTEX
  5
133
  8
14
 10
-3466.08091
 20
-1064.27844
 30
0.0
 70
0
  0
VERTEX
  5
134
  8
14
 10
-3466.024928
 20
-1047.060295
 30
0.0
 70
0
  0
VERTEX
  5
135
  8
14
 10
-3465.971435
 20
-1030.625443
 30
0.0
 70
0
  0
VERTEX
  5
136
  8
14
 10
-3465.921401
 20
-1015.267592
 30
0.0
 70
0
  0
VERTEX
  5
137
  8
14
 10
-3465.868693
 20
-999.103165
 30
0.0
 70
0
  0
VERTEX
  5
138
  8
14
 10
-3465.817812
 20
-983.512412
 30
0.0
 70
0
  0
VERTEX
  5
139
  8
14
 10
-3465.768209
 20
-968.327738
 30
0.0
 70
0
  0
VERTEX
  5
13A
  8
14
 10
-3465.747375
 20
-961.955338
 30
0.0
 70
0
  0
VERTEX
  5
13B
  8
14
 10
-3465.747375
 20
-961.955338
 30
0.0
 70
0
  0
VERTEX
  5
13C
  8
14
 10
-3446.114295
 20
-960.912328
 30
0.0
 70
0
  0
VERTEX
  5
13D
  8
14
 10
-3423.580876
 20
-959.715238
 30
0.0
 70
0
  0
VERTEX
  5
13E
  8
14
 10
-3402.215264
 20
-958.580188
 30
0.0
 70
0
  0
VERTEX
  5
13F
  8
14
 10
-3386.158804
 20
-957.727188
 30
0.0
 70
0
  0
VERTEX
  5
140
  8
14
 10
-3368.847389
 20
-956.807517
 30
0.0
 70
0
  0
VERTEX
  5
141
  8
14
 10
-3350.448344
 20
-955.830066
 30
0.0
 70
0
  0
VERTEX
  5
142
  8
14
 10
-3331.129016
 20
-954.803725
 30
0.0
 70
0
  0
VERTEX
  5
143
  8
14
 10
-3311.056696
 20
-953.737381
 30
0.0
 70
0
  0
VERTEX
  5
144
  8
14
 10
-3290.39873
 20
-952.639925
 30
0.0
 70
0
  0
VERTEX
  5
145
  8
14
 10
-3269.322445
 20
-951.520245
 30
0.0
 70
0
  0
VERTEX
  5
146
  8
14
 10
-3247.995168
 20
-950.387232
 30
0.0
 70
0
  0
VERTEX
  5
147
  8
14
 10
-3226.584245
 20
-949.249775
 30
0.0
 70
0
  0
VERTEX
  5
148
  8
14
 10
-3205.256946
 20
-948.11676
 30
0.0
 70
0
  0
VERTEX
  5
149
  8
14
 10
-3184.180676
 20
-946.997081
 30
0.0
 70
0
  0
VERTEX
  5
14A
  8
14
 10
-3163.522722
 20
-945.899626
 30
0.0
 70
0
  0
VERTEX
  5
14B
  8
14
 10
-3143.450377
 20
-944.833281
 30
0.0
 70
0
  0
VERTEX
  5
14C
  8
14
 10
-3124.131039
 20
-943.806939
 30
0.0
 70
0
  0
VERTEX
  5
14D
  8
14
 10
-3105.731967
 20
-942.829487
 30
0.0
 70
0
  0
VERTEX
  5
14E
  8
14
 10
-3088.420553
 20
-941.909816
 30
0.0
 70
0
  0
VERTEX
  5
14F
  8
14
 10
-3072.364064
 20
-941.056814
 30
0.0
 70
0
  0
VERTEX
  5
150
  8
14
 10
-3057.729884
 20
-940.279372
 30
0.0
 70
0
  0
VERTEX
  5
151
  8
14
 10
-3038.811405
 20
-939.274326
 30
0.0
 70
0
  0
VERTEX
  5
152
  8
14
 10
-3024.034274
 20
-938.489289
 30
0.0
 70
0
  0
VERTEX
  5
153
  8
14
 10
-3010.142546
 20
-937.75129
 30
0.0
 70
0
  0
VERTEX
  5
154
  8
14
 10
-3008.831787
 20
-937.681656
 30
0.0
 70
0
  0
VERTEX
  5
155
  8
14
 10
-3008.831787
 20
-937.681656
 30
0.0
 70
0
  0
VERTEX
  5
156
  8
14
 10
-2991.905863
 20
-934.90008
 30
0.0
 70
0
  0
VERTEX
  5
157
  8
14
 10
-2975.78776
 20
-932.092994
 30
0.0
 70
0
  0
VERTEX
  5
158
  8
14
 10
-2959.825801
 20
-929.178483
 30
0.0
 70
0
  0
VERTEX
  5
159
  8
14
 10
-2944.089702
 20
-926.168892
 30
0.0
 70
0
  0
VERTEX
  5
15A
  8
14
 10
-2927.357913
 20
-922.805255
 30
0.0
 70
0
  0
VERTEX
  5
15B
  8
14
 10
-2912.248698
 20
-919.602005
 30
0.0
 70
0
  0
VERTEX
  5
15C
  8
14
 10
-2897.095819
 20
-916.202908
 30
0.0
 70
0
  0
VERTEX
  5
15D
  8
14
 10
-2881.889827
 20
-912.580894
 30
0.0
 70
0
  0
VERTEX
  5
15E
  8
14
 10
-2866.733119
 20
-908.751334
 30
0.0
 70
0
  0
VERTEX
  5
15F
  8
14
 10
-2851.631798
 20
-904.709653
 30
0.0
 70
0
  0
VERTEX
  5
160
  8
14
 10
-2836.591911
 20
-900.451261
 30
0.0
 70
0
  0
VERTEX
  5
161
  8
14
 10
-2821.619508
 20
-895.971568
 30
0.0
 70
0
  0
VERTEX
  5
162
  8
14
 10
-2805.252716
 20
-890.789257
 30
0.0
 70
0
  0
VERTEX
  5
163
  8
14
 10
-2790.547519
 20
-885.888658
 30
0.0
 70
0
  0
VERTEX
  5
164
  8
14
 10
-2776.248213
 20
-880.929323
 30
0.0
 70
0
  0
VERTEX
  5
165
  8
14
 10
-2760.697974
 20
-875.342458
 30
0.0
 70
0
  0
VERTEX
  5
166
  8
14
 10
-2746.321056
 20
-870.012389
 30
0.0
 70
0
  0
VERTEX
  5
167
  8
14
 10
-2731.976612
 20
-864.544482
 30
0.0
 70
0
  0
VERTEX
  5
168
  8
14
 10
-2717.763091
 20
-858.977961
 30
0.0
 70
0
  0
VERTEX
  5
169
  8
14
 10
-2704.593572
 20
-853.66672
 30
0.0
 70
0
  0
VERTEX
  5
16A
  8
14
 10
-2703.546448
 20
-853.234406
 30
0.0
 70
0
  0
VERTEX
  5
16B
  8
14
 10
-2703.546448
 20
-853.234406
 30
0.0
 70
0
  0
VERTEX
  5
16C
  8
14
 10
-2702.073878
 20
-859.086437
 30
0.0
 70
0
  0
VERTEX
  5
16D
  8
14
 10
-2700.285263
 20
-864.957743
 30
0.0
 70
0
  0
VERTEX
  5
16E
  8
14
 10
-2698.225101
 20
-870.827969
 30
0.0
 70
0
  0
VERTEX
  5
16F
  8
14
 10
-2695.906396
 20
-876.647551
 30
0.0
 70
0
  0
VERTEX
  5
170
  8
14
 10
-2693.098181
 20
-882.861793
 30
0.0
 70
0
  0
VERTEX
  5
171
  8
14
 10
-2690.216246
 20
-888.493539
 30
0.0
 70
0
  0
VERTEX
  5
172
  8
14
 10
-2687.414761
 20
-893.377255
 30
0.0
 70
0
  0
VERTEX
  5
173
  8
14
 10
-2684.294361
 20
-898.239799
 30
0.0
 70
0
  0
VERTEX
  5
174
  8
14
 10
-2680.842601
 20
-903.011686
 30
0.0
 70
0
  0
VERTEX
  5
175
  8
14
 10
-2677.704026
 20
-906.868892
 30
0.0
 70
0
  0
VERTEX
  5
176
  8
14
 10
-2674.319497
 20
-910.574682
 30
0.0
 70
0
  0
VERTEX
  5
177
  8
14
 10
-2670.681806
 20
-914.088855
 30
0.0
 70
0
  0
VERTEX
  5
178
  8
14
 10
-2666.78375
 20
-917.371204
 30
0.0
 70
0
  0
VERTEX
  5
179
  8
14
 10
-2662.527849
 20
-920.454945
 30
0.0
 70
0
  0
VERTEX
  5
17A
  8
14
 10
-2658.125026
 20
-923.210986
 30
0.0
 70
0
  0
VERTEX
  5
17B
  8
14
 10
-2653.515179
 20
-925.725836
 30
0.0
 70
0
  0
VERTEX
  5
17C
  8
14
 10
-2648.728661
 20
-928.015364
 30
0.0
 70
0
  0
VERTEX
  5
17D
  8
14
 10
-2642.794364
 20
-930.487721
 30
0.0
 70
0
  0
VERTEX
  5
17E
  8
14
 10
-2636.701828
 20
-932.685888
 30
0.0
 70
0
  0
VERTEX
  5
17F
  8
14
 10
-2630.503484
 20
-934.637295
 30
0.0
 70
0
  0
VERTEX
  5
180
  8
14
 10
-2623.208352
 20
-936.638639
 30
0.0
 70
0
  0
VERTEX
  5
181
  8
14
 10
-2615.081563
 20
-938.574458
 30
0.0
 70
0
  0
VERTEX
  5
182
  8
14
 10
-2605.548854
 20
-940.553302
 30
0.0
 70
0
  0
VERTEX
  5
183
  8
14
 10
-2596.00577
 20
-942.277088
 30
0.0
 70
0
  0
VERTEX
  5
184
  8
14
 10
-2593.62915
 20
-942.661896
 30
0.0
 70
0
  0
VERTEX
  5
185
  8
14
 10
-2577.474695
 20
-945.96419
 30
0.0
 70
0
  0
VERTEX
  5
186
  8
14
 10
-2562.217458
 20
-949.085792
 30
0.0
 70
0
  0
VERTEX
  5
187
  8
14
 10
-2547.215379
 20
-952.15752
 30
0.0
 70
0
  0
VERTEX
  5
188
  8
14
 10
-2530.633802
 20
-955.555525
 30
0.0
 70
0
  0
VERTEX
  5
189
  8
14
 10
-2515.086074
 20
-958.744782
 30
0.0
 70
0
  0
VERTEX
  5
18A
  8
14
 10
-2498.80308
 20
-962.088731
 30
0.0
 70
0
  0
VERTEX
  5
18B
  8
14
 10
-2483.172782
 20
-965.302484
 30
0.0
 70
0
  0
VERTEX
  5
18C
  8
14
 10
-2468.298931
 20
-968.363613
 30
0.0
 70
0
  0
VERTEX
  5
18D
  8
14
 10
-2453.154256
 20
-971.482999
 30
0.0
 70
0
  0
VERTEX
  5
18E
  8
14
 10
-2438.030029
 20
-974.600532
 30
0.0
 70
0
  0
VERTEX
  5
18F
  8
14
 10
-2424.406738
 20
-977.410889
 30
0.0
 70
0
  0
VERTEX
  5
190
  8
14
 10
-2424.40567
 20
-977.385712
 30
0.0
 70
0
  0
VERTEX
  5
191
  8
14
 10
-2424.406738
 20
-977.410889
 30
0.0
 70
0
  0
VERTEX
  5
192
  8
14
 10
-2425.134964
 20
-994.478614
 30
0.0
 70
0
  0
VERTEX
  5
193
  8
14
 10
-2425.844491
 20
-1011.234733
 30
0.0
 70
0
  0
VERTEX
  5
194
  8
14
 10
-2426.549472
 20
-1027.982829
 30
0.0
 70
0
  0
VERTEX
  5
195
  8
14
 10
-2427.251422
 20
-1044.752537
 30
0.0
 70
0
  0
VERTEX
  5
196
  8
14
 10
-2427.906902
 20
-1060.496473
 30
0.0
 70
0
  0
VERTEX
  5
197
  8
14
 10
-2428.604201
 20
-1077.336823
 30
0.0
 70
0
  0
VERTEX
  5
198
  8
14
 10
-2429.335879
 20
-1095.114287
 30
0.0
 70
0
  0
VERTEX
  5
199
  8
14
 10
-2429.966506
 20
-1110.529768
 30
0.0
 70
0
  0
VERTEX
  5
19A
  8
14
 10
-2430.611538
 20
-1126.393226
 30
0.0
 70
0
  0
VERTEX
  5
19B
  8
14
 10
-2431.266668
 20
-1142.612484
 30
0.0
 70
0
  0
VERTEX
  5
19C
  8
14
 10
-2431.927594
 20
-1159.09536
 30
0.0
 70
0
  0
VERTEX
  5
19D
  8
14
 10
-2432.590008
 20
-1175.749675
 30
0.0
 70
0
  0
VERTEX
  5
19E
  8
14
 10
-2433.15567
 20
-1190.088501
 30
0.0
 70
0
  0
VERTEX
  5
19F
  8
14
 10
-2433.155634
 20
-1190.089319
 30
0.0
 70
0
  0
VERTEX
  5
1A0
  8
14
 10
-2433.931951
 20
-1209.956256
 30
0.0
 70
0
  0
VERTEX
  5
1A1
  8
14
 10
-2434.5359
 20
-1225.537101
 30
0.0
 70
0
  0
VERTEX
  5
1A2
  8
14
 10
-2435.166064
 20
-1241.893838
 30
0.0
 70
0
  0
VERTEX
  5
1A3
  8
14
 10
-2435.708092
 20
-1256.041454
 30
0.0
 70
0
  0
VERTEX
  5
1A4
  8
14
 10
-2435.978241
 20
-1263.12561
 30
0.0
 70
0
  0
VERTEX
  5
1A5
  8
14
 10
-2435.978241
 20
-1263.12561
 30
0.0
 70
0
  0
VERTEX
  5
1A6
  8
14
 10
-2445.165161
 20
-1263.781736
 30
0.0
 70
0
  0
VERTEX
  5
1A7
  8
14
 10
-2460.311543
 20
-1264.77324
 30
0.0
 70
0
  0
VERTEX
  5
1A8
  8
14
 10
-2475.984615
 20
-1265.696359
 30
0.0
 70
0
  0
VERTEX
  5
1A9
  8
14
 10
-2491.381244
 20
-1266.493982
 30
0.0
 70
0
  0
VERTEX
  5
1AA
  8
14
 10
-2509.943431
 20
-1267.283772
 30
0.0
 70
0
  0
VERTEX
  5
1AB
  8
14
 10
-2524.464891
 20
-1267.742965
 30
0.0
 70
0
  0
VERTEX
  5
1AC
  8
14
 10
-2540.875012
 20
-1268.095844
 30
0.0
 70
0
  0
VERTEX
  5
1AD
  8
14
 10
-2557.289659
 20
-1268.286837
 30
0.0
 70
0
  0
VERTEX
  5
1AE
  8
14
 10
-2573.707226
 20
-1268.330574
 30
0.0
 70
0
  0
VERTEX
  5
1AF
  8
14
 10
-2590.126257
 20
-1268.24169
 30
0.0
 70
0
  0
VERTEX
  5
1B0
  8
14
 10
-2606.545187
 20
-1268.034816
 30
0.0
 70
0
  0
VERTEX
  5
1B1
  8
14
 10
-2622.962446
 20
-1267.724585
 30
0.0
 70
0
  0
VERTEX
  5
1B2
  8
14
 10
-2639.800994
 20
-1267.310816
 30
0.0
 70
0
  0
VERTEX
  5
1B3
  8
14
 10
-2656.209655
 20
-1266.794681
 30
0.0
 70
0
  0
VERTEX
  5
1B4
  8
14
 10
-2672.610797
 20
-1266.13067
 30
0.0
 70
0
  0
VERTEX
  5
1B5
  8
14
 10
-2689.002069
 20
-1265.282392
 30
0.0
 70
0
  0
VERTEX
  5
1B6
  8
14
 10
-2704.641599
 20
-1264.285756
 30
0.0
 70
0
  0
VERTEX
  5
1B7
  8
14
 10
-2721.015153
 20
-1263.113723
 30
0.0
 70
0
  0
VERTEX
  5
1B8
  8
14
 10
-2736.337204
 20
-1261.977825
 30
0.0
 70
0
  0
VERTEX
  5
1B9
  8
14
 10
-2752.688034
 20
-1260.774354
 30
0.0
 70
0
  0
VERTEX
  5
1BA
  8
14
 10
-2768.970842
 20
-1259.587162
 30
0.0
 70
0
  0
VERTEX
  5
1BB
  8
14
 10
-2785.135174
 20
-1258.419011
 30
0.0
 70
0
  0
VERTEX
  5
1BC
  8
14
 10
-2801.130728
 20
-1257.272649
 30
0.0
 70
0
  0
VERTEX
  5
1BD
  8
14
 10
-2816.907088
 20
-1256.150832
 30
0.0
 70
0
  0
VERTEX
  5
1BE
  8
14
 10
-2832.413839
 20
-1255.056318
 30
0.0
 70
0
  0
VERTEX
  5
1BF
  8
14
 10
-2847.600678
 20
-1253.991855
 30
0.0
 70
0
  0
VERTEX
  5
1C0
  8
14
 10
-2864.500637
 20
-1252.815661
 30
0.0
 70
0
  0
VERTEX
  5
1C1
  8
14
 10
-2880.841722
 20
-1251.686429
 30
0.0
 70
0
  0
VERTEX
  5
1C2
  8
14
 10
-2896.548714
 20
-1250.608271
 30
0.0
 70
0
  0
VERTEX
  5
1C3
  8
14
 10
-2913.367503
 20
-1249.461512
 30
0.0
 70
0
  0
VERTEX
  5
1C4
  8
14
 10
-2929.181524
 20
-1248.39045
 30
0.0
 70
0
  0
VERTEX
  5
1C5
  8
14
 10
-2945.444005
 20
-1247.29628
 30
0.0
 70
0
  0
VERTEX
  5
1C6
  8
14
 10
-2961.572027
 20
-1246.218562
 30
0.0
 70
0
  0
VERTEX
  5
1C7
  8
14
 10
-2976.839599
 20
-1245.205447
 30
0.0
 70
0
  0
VERTEX
  5
1C8
  8
14
 10
-2992.992087
 20
-1244.141903
 30
0.0
 70
0
  0
SEQEND
  5
10B
  8
14
  0
POLYLINE
  5
1C9
  8
8
 66
1
 10
0.0
 20
0.0
 30
0.0
 70
0
  0
VERTEX
  5
1CB
  8
8
 10
-2462.077789
 20
-1033.230591
 30
0.0
 70
0
  0
VERTEX
  5
1CC
  8
8
 10
-2463.350088
 20
-1052.547558
 30
0.0
 70
0
  0
VERTEX
  5
1CD
  8
8
 10
-2464.484328
 20
-1069.768408
 30
0.0
 70
0
  0
VERTEX
  5
1CE
  8
8
 10
-2465.590622
 20
-1086.564981
 30
0.0
 70
0
  0
VERTEX
  5
1CF
  8
8
 10
-2466.780038
 20
-1104.62356
 30
0.0
 70
0
  0
VERTEX
  5
1D0
  8
8
 10
-2467.993202
 20
-1123.042699
 30
0.0
 70
0
  0
VERTEX
  5
1D1
  8
8
 10
-2469.170744
 20
-1140.92099
 30
0.0
 70
0
  0
VERTEX
  5
1D2
  8
8
 10
-2470.25329
 20
-1157.356988
 30
0.0
 70
0
  0
VERTEX
  5
1D3
  8
8
 10
-2471.343356
 20
-1173.907163
 30
0.0
 70
0
  0
VERTEX
  5
1D4
  8
8
 10
-2472.273672
 20
-1188.031902
 30
0.0
 70
0
  0
VERTEX
  5
1D5
  8
8
 10
-2472.453766
 20
-1190.76622
 30
0.0
 70
0
  0
SEQEND
  5
1CA
  8
8
  0
POLYLINE
  5
1D6
  8
8
 66
1
 10
0.0
 20
0.0
 30
0.0
 70
0
  0
VERTEX
  5
1D8
  8
8
 10
-2606.329041
 20
-970.297089
 30
0.0
 70
0
  0
VERTEX
  5
1D9
  8
8
 10
-2630.391541
 20
-1267.550888
 30
0.0
 70
0
  0
SEQEND
  5
1D7
  8
8
  0
POLYLINE
  5
1DA
  8
8
 66
1
 10
0.0
 20
0.0
 30
0.0
 70
0
  0
VERTEX
  5
1DC
  8
8
 10
-3466.160583
 20
-1093.153534
 30
0.0
 70
0
  0
VERTEX
  5
1DD
  8
8
 10
-3448.310121
 20
-1093.144863
 30
0.0
 70
0
  0
VERTEX
  5
1DE
  8
8
 10
-3431.282321
 20
-1093.136887
 30
0.0
 70
0
  0
VERTEX
  5
1DF
  8
8
 10
-3414.093651
 20
-1093.129053
 30
0.0
 70
0
  0
VERTEX
  5
1E0
  8
8
 10
-3394.007342
 20
-1093.120145
 30
0.0
 70
0
  0
VERTEX
  5
1E1
  8
8
 10
-3377.192368
 20
-1093.11288
 30
0.0
 70
0
  0
VERTEX
  5
1E2
  8
8
 10
-3358.99509
 20
-1093.105208
 30
0.0
 70
0
  0
VERTEX
  5
1E3
  8
8
 10
-3339.52166
 20
-1093.097214
 30
0.0
 70
0
  0
VERTEX
  5
1E4
  8
8
 10
-3318.878177
 20
-1093.088983
 30
0.0
 70
0
  0
VERTEX
  5
1E5
  8
8
 10
-3297.170815
 20
-1093.080599
 30
0.0
 70
0
  0
VERTEX
  5
1E6
  8
8
 10
-3274.505638
 20
-1093.072148
 30
0.0
 70
0
  0
VERTEX
  5
1E7
  8
8
 10
-3258.915825
 20
-1093.066517
 30
0.0
 70
0
  0
VERTEX
  5
1E8
  8
8
 10
-3242.978978
 20
-1093.060919
 30
0.0
 70
0
  0
VERTEX
  5
1E9
  8
8
 10
-3226.726473
 20
-1093.055379
 30
0.0
 70
0
  0
VERTEX
  5
1EA
  8
8
 10
-3210.189789
 20
-1093.049921
 30
0.0
 70
0
  0
VERTEX
  5
1EB
  8
8
 10
-3193.40037
 20
-1093.044571
 30
0.0
 70
0
  0
VERTEX
  5
1EC
  8
8
 10
-3176.3897
 20
-1093.039354
 30
0.0
 70
0
  0
VERTEX
  5
1ED
  8
8
 10
-3159.189148
 20
-1093.034295
 30
0.0
 70
0
  0
VERTEX
  5
1EE
  8
8
 10
-3141.830198
 20
-1093.029419
 30
0.0
 70
0
  0
VERTEX
  5
1EF
  8
8
 10
-3124.344295
 20
-1093.02475
 30
0.0
 70
0
  0
VERTEX
  5
1F0
  8
8
 10
-3106.76292
 20
-1093.020315
 30
0.0
 70
0
  0
VERTEX
  5
1F1
  8
8
 10
-3089.117444
 20
-1093.016139
 30
0.0
 70
0
  0
VERTEX
  5
1F2
  8
8
 10
-3071.43935
 20
-1093.012245
 30
0.0
 70
0
  0
VERTEX
  5
1F3
  8
8
 10
-3053.102082
 20
-1093.008526
 30
0.0
 70
0
  0
VERTEX
  5
1F4
  8
8
 10
-3035.462602
 20
-1093.005244
 30
0.0
 70
0
  0
VERTEX
  5
1F5
  8
8
 10
-3017.899348
 20
-1093.002247
 30
0.0
 70
0
  0
VERTEX
  5
1F6
  8
8
 10
-3000.450432
 20
-1092.999522
 30
0.0
 70
0
  0
VERTEX
  5
1F7
  8
8
 10
-2983.153967
 20
-1092.997058
 30
0.0
 70
0
  0
VERTEX
  5
1F8
  8
8
 10
-2966.04814
 20
-1092.994841
 30
0.0
 70
0
  0
VERTEX
  5
1F9
  8
8
 10
-2949.170915
 20
-1092.99286
 30
0.0
 70
0
  0
VERTEX
  5
1FA
  8
8
 10
-2932.560481
 20
-1092.991103
 30
0.0
 70
0
  0
VERTEX
  5
1FB
  8
8
 10
-2916.25495
 20
-1092.989557
 30
0.0
 70
0
  0
VERTEX
  5
1FC
  8
8
 10
-2900.292435
 20
-1092.98821
 30
0.0
 70
0
  0
VERTEX
  5
1FD
  8
8
 10
-2884.711048
 20
-1092.987049
 30
0.0
 70
0
  0
VERTEX
  5
1FE
  8
8
 10
-2869.548904
 20
-1092.986063
 30
0.0
 70
0
  0
VERTEX
  5
1FF
  8
8
 10
-2847.675169
 20
-1092.984884
 30
0.0
 70
0
  0
VERTEX
  5
200
  8
8
 10
-2826.959111
 20
-1092.984029
 30
0.0
 70
0
  0
VERTEX
  5
201
  8
8
 10
-2807.529305
 20
-1092.983455
 30
0.0
 70
0
  0
VERTEX
  5
202
  8
8
 10
-2789.514495
 20
-1092.983123
 30
0.0
 70
0
  0
VERTEX
  5
203
  8
8
 10
-2773.043255
 20
-1092.982989
 30
0.0
 70
0
  0
VERTEX
  5
204
  8
8
 10
-2758.244174
 20
-1092.983013
 30
0.0
 70
0
  0
VERTEX
  5
205
  8
8
 10
-2741.335661
 20
-1092.98322
 30
0.0
 70
0
  0
VERTEX
  5
206
  8
8
 10
-2725.16655
 20
-1092.983619
 30
0.0
 70
0
  0
VERTEX
  5
207
  8
8
 10
-2711.645813
 20
-1092.984161
 30
0.0
 70
0
  0
SEQEND
  5
1DB
  8
8
  0
POLYLINE
  5
208
  8
8
 66
1
 10
0.0
 20
0.0
 30
0.0
 70
0
  0
VERTEX
  5
20A
  8
8
 10
-3008.831787
 20
-937.681656
 30
0.0
 70
0
  0
VERTEX
  5
20B
  8
8
 10
-3008.831787
 20
-955.755721
 30
0.0
 70
0
  0
VERTEX
  5
20C
  8
8
 10
-3008.831787
 20
-972.505987
 30
0.0
 70
0
  0
VERTEX
  5
20D
  8
8
 10
-3008.831787
 20
-990.580703
 30
0.0
 70
0
  0
VERTEX
  5
20E
  8
8
 10
-3008.831787
 20
-1008.142334
 30
0.0
 70
0
  0
VERTEX
  5
20F
  8
8
 10
-3008.831787
 20
-1023.951746
 30
0.0
 70
0
  0
VERTEX
  5
210
  8
8
 10
-3008.831787
 20
-1040.599413
 30
0.0
 70
0
  0
VERTEX
  5
211
  8
8
 10
-3008.831787
 20
-1057.870022
 30
0.0
 70
0
  0
VERTEX
  5
212
  8
8
 10
-3008.831787
 20
-1075.548244
 30
0.0
 70
0
  0
VERTEX
  5
213
  8
8
 10
-3008.831787
 20
-1091.507702
 30
0.0
 70
0
  0
VERTEX
  5
214
  8
8
 10
-3008.831787
 20
-1109.366931
 30
0.0
 70
0
  0
VERTEX
  5
215
  8
8
 10
-3008.831787
 20
-1127.004467
 30
0.0
 70
0
  0
VERTEX
  5
216
  8
8
 10
-3008.831787
 20
-1144.198669
 30
0.0
 70
0
  0
VERTEX
  5
217
  8
8
 10
-3008.831787
 20
-1160.727844
 30
0.0
 70
0
  0
VERTEX
  5
218
  8
8
 10
-3008.831787
 20
-1176.3703
 30
0.0
 70
0
  0
VERTEX
  5
219
  8
8
 10
-3008.831787
 20
-1193.6587
 30
0.0
 70
0
  0
VERTEX
  5
21A
  8
8
 10
-3008.831787
 20
-1208.967977
 30
0.0
 70
0
  0
VERTEX
  5
21B
  8
8
 10
-3008.831787
 20
-1223.816363
 30
0.0
 70
0
  0
VERTEX
  5
21C
  8
8
 10
-3008.831787
 20
-1238.245081
 30
0.0
 70
0
  0
VERTEX
  5
21D
  8
8
 10
-3008.831787
 20
-1243.109665
 30
0.0
 70
0
  0
SEQEND
  5
209
  8
8
  0
POLYLINE
  5
21E
  8
8
 66
1
 10
0.0
 20
0.0
 30
0.0
 70
0
  0
VERTEX
  5
220
  8
8
 10
-2704.065552
 20
-880.864716
 30
0.0
 70
0
  0
VERTEX
  5
221
  8
8
 10
-2688.979492
 20
-1265.263596
 30
0.0
 70
0
  0
SEQEND
  5
21F
  8
8
  0
POINT
  5
222
  8
4
 10
-3009.404602
 20
-1255.79689
 30
0.0
  0
POINT
  5
223
  8
4
 10
-3466.614685
 20
-1229.542847
 30
0.0
  0
POINT
  5
224
  8
4
 10
-3465.705566
 20
-949.235229
 30
0.0
  0
POINT
  5
225
  8
4
 10
-3009.505615
 20
-924.999542
 30
0.0
  0
POINT
  5
226
  8
4
 10
-2718.734131
 20
-845.643158
 30
0.0
  0
POINT
  5
227
  8
4
 10
-2423.715668
 20
-961.2146
 30
0.0
  0
POINT
  5
228
  8
4
 10
-2411.80603
 20
-980.010376
 30
0.0
  0
POINT
  5
229
  8
4
 10
-2420.46524
 20
-1190.587234
 30
0.0
  0
POINT
  5
22A
  8
4
 10
-2436.465607
 20
-1275.905533
 30
0.0
  0
POINT
  5
22B
  8
4
 10
-3008.834839
 20
-1243.109665
 30
0.0
  0
POINT
  5
22C
  8
4
 10
-3466.573792
 20
-1216.814957
 30
0.0
  0
POINT
  5
22D
  8
4
 10
-3465.747375
 20
-961.955338
 30
0.0
  0
POINT
  5
22E
  8
4
 10
-3008.831787
 20
-937.681656
 30
0.0
  0
POINT
  5
22F
  8
4
 10
-2703.546448
 20
-853.234406
 30
0.0
  0
POINT
  5
230
  8
4
 10
-2424.406738
 20
-977.410889
 30
0.0
  0
POINT
  5
231
  8
4
 10
-2424.406738
 20
-977.410889
 30
0.0
  0
POINT
  5
232
  8
4
 10
-2433.15567
 20
-1190.088501
 30
0.0
  0
POINT
  5
233
  8
4
 10
-2435.978241
 20
-1263.12561
 30
0.0
  0
LINE
  5
234
  8
7
 10
-3387.257385
 20
-1086.681671
 30
0.0
 11
-2519.147034
 21
-1086.681671
 31
0.0
  0
ENDSEC
  0
EOF
