  0
SECTION
  2
HEADER
  9
$ACADVER
  1
AC1009
  9
$DWGCODEPAGE
  3
ANSI_1252
  9
$INSBASE
 10
0.0
 20
0.0
 30
0.0
  9
$EXTMIN
 10
1e+20
 20
1e+20
 30
1e+20
  9
$EXTMAX
 10
-1e+20
 20
-1e+20
 30
-1e+20
  9
$LIMMIN
 10
0.0
 20
0.0
  9
$LIMMAX
 10
420.0
 20
297.0
  9
$ORTHOMODE
 70
0
  9
$REGENMODE
 70
1
  9
$FILLMODE
 70
1
  9
$DRAGMODE
 70
2
  9
$QTEXTMODE
 70
0
  9
$MIRRTEXT
 70
1
  9
$OSMODE
 70
20583
  9
$LTSCALE
 40
1.0
  9
$ATTMODE
 70
1
  9
$TEXTSIZE
 40
2.5
  9
$TRACEWID
 40
1.0
  9
$TEXTSTYLE
  7
Standard
  9
$CLAYER
  8
0
  9
$CELTYPE
  6
ByLayer
  9
$CECOLOR
 62
256
  9
$DIMSCALE
 40
1.0
  9
$DIMASZ
 40
2.5
  9
$DIMEXO
 40
0.625
  9
$DIMDLI
 40
3.75
  9
$DIMRND
 40
0.0
  9
$DIMDLE
 40
0.0
  9
$DIMEXE
 40
1.25
  9
$DIMTP
 40
0.0
  9
$DIMTM
 40
0.0
  9
$DIMTXT
 40
2.5
  9
$DIMCEN
 40
2.5
  9
$DIMTSZ
 40
0.0
  9
$DIMTOL
 70
0
  9
$DIMLIM
 70
0
  9
$DIMTIH
 70
0
  9
$DIMTOH
 70
0
  9
$DIMSE1
 70
0
  9
$DIMSE2
 70
0
  9
$DIMTAD
 70
1
  9
$DIMZIN
 70
8
  9
$DIMBLK
  1

  9
$DIMASO
 70
1
  9
$DIMSHO
 70
1
  9
$DIMPOST
  1

  9
$DIMAPOST
  1

  9
$DIMALT
 70
0
  9
$DIMALTD
 70
3
  9
$DIMALTF
 40
0.03937007874
  9
$DIMLFAC
 40
1.0
  9
$DIMTOFL
 70
1
  9
$DIMTVP
 40
0.0
  9
$DIMTIX
 70
0
  9
$DIMSOXD
 70
0
  9
$DIMSAH
 70
0
  9
$DIMBLK1
  1

  9
$DIMBLK2
  1

  9
$DIMSTYLE
  2
ISO-25
  9
$DIMCLRD
 70
0
  9
$DIMCLRE
 70
0
  9
$DIMCLRT
 70
0
  9
$DIMTFAC
 40
1.0
  9
$DIMGAP
 40
0.625
  9
$COORDS
 70
1
  9
$ATTDIA
 70
0
  9
$ATTREQ
 70
1
  9
$HANDLING
 70
1
  9
$LUNITS
 70
2
  9
$LUPREC
 70
4
  9
$SKETCHINC
 40
1.0
  9
$FILLETRAD
 40
10.0
  9
$AUNITS
 70
0
  9
$AUPREC
 70
2
  9
$MENU
  1
.
  9
$ELEVATION
 40
0.0
  9
$PELEVATION
 40
0.0
  9
$THICKNESS
 40
0.0
  9
$LIMCHECK
 70
0
  9
$CHAMFERA
 40
0.0
  9
$CHAMFERB
 40
0.0
  9
$SKPOLY
 70
0
  9
$TDCREATE
 40
2461259.4353819443
  9
$TDUPDATE
 40
2461259.4353819443
  9
$TDINDWG
 40
0.0
  9
$TDUSRTIMER
 40
0.0
  9
$USRTIMER
 70
1
  9
$ANGBASE
 50
0.0
  9
$ANGDIR
 70
0
  9
$PDMODE
 70
0
  9
$PDSIZE
 40
0.0
  9
$PLINEWID
 40
0.0
  9
$SPLFRAME
 70
0
  9
$SPLINETYPE
 70
6
  9
$SPLINESEGS
 70
8
  9
$HANDSEED
  5
FC
  9
$SURFTAB1
 70
6
  9
$SURFTAB2
 70
6
  9
$SURFTYPE
 70
6
  9
$SURFU
 70
6
  9
$SURFV
 70
6
  9
$UCSNAME
  2

  9
$UCSORG
 10
0.0
 20
0.0
 30
0.0
  9
$UCSXDIR
 10
1.0
 20
0.0
 30
0.0
  9
$UCSYDIR
 10
0.0
 20
1.0
 30
0.0
  9
$PUCSNAME
  2

  9
$PUCSORG
 10
0.0
 20
0.0
 30
0.0
  9
$PUCSXDIR
 10
1.0
 20
0.0
 30
0.0
  9
$PUCSYDIR
 10
0.0
 20
1.0
 30
0.0
  9
$USERI1
 70
0
  9
$USERI2
 70
0
  9
$USERI3
 70
0
  9
$USERI4
 70
0
  9
$USERI5
 70
0
  9
$USERR1
 40
0.0
  9
$USERR2
 40
0.0
  9
$USERR3
 40
0.0
  9
$USERR4
 40
0.0
  9
$USERR5
 40
0.0
  9
$WORLDVIEW
 70
1
  9
$SHADEDGE
 70
3
  9
$SHADEDIF
 70
70
  9
$TILEMODE
 70
1
  9
$MAXACTVP
 70
64
  9
$PLIMCHECK
 70
0
  9
$PEXTMIN
 10
1e+20
 20
1e+20
 30
1e+20
  9
$PEXTMAX
 10
-1e+20
 20
-1e+20
 30
-1e+20
  9
$PLIMMIN
 10
0.0
 20
0.0
  9
$PLIMMAX
 10
420.0
 20
297.0
  9
$UNITMODE
 70
0
  9
$VISRETAIN
 70
1
  9
$PLINEGEN
 70
0
  9
$PSLTSCALE
 70
1
  0
ENDSEC
  0
SECTION
  2
TABLES
  0
TABLE
  2
VPORT
 70
1
  0
VPORT
  5
23
  2
*Active
 70
0
 10
0.0
 20
0.0
 11
1.0
 21
1.0
 12
0.0
 22
0.0
 13
0.0
 23
0.0
 14
0.5
 24
0.5
 15
0.5
 25
0.5
 16
0.0
 26
0.0
 36
1.0
 17
0.0
 27
0.0
 37
0.0
 40
1000.0
 41
1.34
 42
50.0
 43
0.0
 44
0.0
 50
0.0
 51
0.0
 71
0
 72
1000
 73
1
 74
3
 75
0
 76
0
 77
0
 78
0
  0
ENDTAB
  0
TABLE
  2
LTYPE
 70
3
  0
LTYPE
  5
24
  2
ByBlock
 70
0
  3

 72
65
 73
0
 40
0.0
  0
LTYPE
  5
25
  2
ByLayer
 70
0
  3

 72
65
 73
0
 40
0.0
  0
LTYPE
  5
26
  2
Continuous
 70
0
  3

 72
65
 73
0
 40
0.0
  0
ENDTAB
  0
TABLE
  2
LAYER
 70
4
  0
LAYER
  5
27
  2
0
 70
0
 62
7
  6
Continuous
  0
LAYER
  5
28
  2
Defpoints
 70
0
 62
7
  6
Continuous
  0
LAYER
  5
2D
  2
1
 70
0
 62
1
  6
Continuous
  0
LAYER
  5
2E
  2
7
 70
0
 62
7
  6
Continuous
  0
ENDTAB
  0
TABLE
  2
STYLE
 70
1
  0
STYLE
  5
29
  2
Standard
 70
0
 40
0.0
 41
1.0
 50
0.0
 71
0
 42
2.5
  3
txt
  4

  0
ENDTAB
  0
TABLE
  2
VIEW
 70
0
  0
ENDTAB
  0
TABLE
  2
UCS
 70
0
  0
ENDTAB
  0
TABLE
  2
APPID
 70
3
  0
APPID
  5
2A
  2
ACAD
 70
0
  0
APPID
  5
FA
  2
HATCHBACKGROUNDCOLOR
 70
0
  0
APPID
  5
FB
  2
EZDXF
 70
0
  0
ENDTAB
  0
TABLE
  2
DIMSTYLE
 70
1
  0
DIMSTYLE
105
2B
  2
Standard
 70
0
  3

  4

  5

  6

  7

 40
1.0
 41
2.5
 42
0.625
 43
3.75
 44
1.25
 45
0.0
 46
0.0
 47
0.0
 48
0.0
140
2.5
141
2.5
142
0.0
143
0.03937007874
144
1.0
145
0.0
146
1.0
147
0.625
 71
0
 72
0
 73
0
 74
0
 75
0
 76
0
 77
1
 78
8
170
0
171
3
172
1
173
0
174
0
175
0
176
0
177
0
178
0
  0
ENDTAB
  0
ENDSEC
  0
SECTION
  2
BLOCKS
  0
BLOCK
  5
18
  8
0
  2
$Model_Space
 70
0
 10
0.0
 20
0.0
 30
0.0
  3
$Model_Space
  1

1001
EZDXF
1000
CREATED_BY_EZDXF
1000
1.4.4 @ 2026-08-06T02:26:57.834153+00:00
1000
WRITTEN_BY_EZDXF
1000
1.4.4 @ 2026-08-06T02:26:57.836153+00:00
  0
ENDBLK
  5
19
  8
0
  0
BLOCK
  5
1C
  8
0
  2
$Paper_Space
 70
0
 10
0.0
 20
0.0
 30
0.0
  3
$Paper_Space
  1

  0
ENDBLK
  5
1D
  8
0
  0
ENDSEC
  0
SECTION
  2
ENTITIES
  0
POLYLINE
  5
2F
  8
1
 66
1
 10
0.0
 20
0.0
 30
0.0
 70
1
  0
VERTEX
  5
31
  8
1
 10
-3009.333801
 20
-1232.940216
 30
0.0
 70
0
  0
VERTEX
  5
32
  8
1
 10
-3009.239807
 20
-1232.943192
 30
0.0
 70
0
  0
VERTEX
  5
33
  8
1
 10
-3014.045017
 20
-1232.789924
 30
0.0
 70
0
  0
VERTEX
  5
34
  8
1
 10
-3028.97472
 20
-1232.308362
 30
0.0
 70
0
  0
VERTEX
  5
35
  8
1
 10
-3044.028117
 20
-1231.81134
 30
0.0
 70
0
  0
VERTEX
  5
36
  8
1
 10
-3059.158401
 20
-1231.29841
 30
0.0
 70
0
  0
VERTEX
  5
37
  8
1
 10
-3074.210833
 20
-1230.774723
 30
0.0
 70
0
  0
VERTEX
  5
38
  8
1
 10
-3089.319234
 20
-1230.237748
 30
0.0
 70
0
  0
VERTEX
  5
39
  8
1
 10
-3104.370988
 20
-1229.692872
 30
0.0
 70
0
  0
VERTEX
  5
3A
  8
1
 10
-3119.573789
 20
-1229.131663
 30
0.0
 70
0
  0
VERTEX
  5
3B
  8
1
 10
-3134.624705
 20
-1228.56449
 30
0.0
 70
0
  0
VERTEX
  5
3C
  8
1
 10
-3149.999888
 20
-1227.973112
 30
0.0
 70
0
  0
VERTEX
  5
3D
  8
1
 10
-3165.049968
 20
-1227.382339
 30
0.0
 70
0
  0
VERTEX
  5
3E
  8
1
 10
-3180.271367
 20
-1226.772213
 30
0.0
 70
0
  0
VERTEX
  5
3F
  8
1
 10
-3195.320328
 20
-1226.155837
 30
0.0
 70
0
  0
VERTEX
  5
40
  8
1
 10
-3210.620901
 20
-1225.515164
 30
0.0
 70
0
  0
VERTEX
  5
41
  8
1
 10
-3225.668714
 20
-1224.870542
 30
0.0
 70
0
  0
VERTEX
  5
42
  8
1
 10
-3240.683227
 20
-1224.21161
 30
0.0
 70
0
  0
VERTEX
  5
43
  8
1
 10
-3255.729645
 20
-1223.534356
 30
0.0
 70
0
  0
VERTEX
  5
44
  8
1
 10
-3270.872946
 20
-1222.835347
 30
0.0
 70
0
  0
VERTEX
  5
45
  8
1
 10
-3285.917728
 20
-1222.12383
 30
0.0
 70
0
  0
VERTEX
  5
46
  8
1
 10
-3300.90738
 20
-1221.39932
 30
0.0
 70
0
  0
VERTEX
  5
47
  8
1
 10
-3315.950767
 20
-1220.657914
 30
0.0
 70
0
  0
VERTEX
  5
48
  8
1
 10
-3331.102693
 20
-1219.897543
 30
0.0
 70
0
  0
VERTEX
  5
49
  8
1
 10
-3346.144681
 20
-1219.129973
 30
0.0
 70
0
  0
VERTEX
  5
4A
  8
1
 10
-3361.288749
 20
-1218.345388
 30
0.0
 70
0
  0
VERTEX
  5
4B
  8
1
 10
-3376.329555
 20
-1217.555228
 30
0.0
 70
0
  0
VERTEX
  5
4C
  8
1
 10
-3391.85496
 20
-1216.728125
 30
0.0
 70
0
  0
VERTEX
  5
4D
  8
1
 10
-3406.687679
 20
-1215.926534
 30
0.0
 70
0
  0
VERTEX
  5
4E
  8
1
 10
-3422.211738
 20
-1215.074161
 30
0.0
 70
0
  0
VERTEX
  5
4F
  8
1
 10
-3436.97649
 20
-1214.250529
 30
0.0
 70
0
  0
VERTEX
  5
50
  8
1
 10
-3451.381226
 20
-1213.440094
 30
0.0
 70
0
  0
VERTEX
  5
51
  8
1
 10
-3452.014323
 20
-1213.404444
 30
0.0
 70
0
  0
VERTEX
  5
52
  8
1
 10
-3467.302245
 20
-1212.543175
 30
0.0
 70
0
  0
VERTEX
  5
53
  8
1
 10
-3483.124695
 20
-1211.651993
 30
0.0
 70
0
  0
VERTEX
  5
54
  8
1
 10
-3483.067205
 20
-1196.163034
 30
0.0
 70
0
  0
VERTEX
  5
55
  8
1
 10
-3483.011148
 20
-1181.061114
 30
0.0
 70
0
  0
VERTEX
  5
56
  8
1
 10
-3482.954197
 20
-1165.718802
 30
0.0
 70
0
  0
VERTEX
  5
57
  8
1
 10
-3482.898145
 20
-1150.616861
 30
0.0
 70
0
  0
VERTEX
  5
58
  8
1
 10
-3482.842114
 20
-1135.514924
 30
0.0
 70
0
  0
VERTEX
  5
59
  8
1
 10
-3482.785308
 20
-1120.195233
 30
0.0
 70
0
  0
VERTEX
  5
5A
  8
1
 10
-3482.729329
 20
-1105.093312
 30
0.0
 70
0
  0
VERTEX
  5
5B
  8
1
 10
-3482.67245
 20
-1089.749372
 30
0.0
 70
0
  0
VERTEX
  5
5C
  8
1
 10
-3482.616452
 20
-1074.647458
 30
0.0
 70
0
  0
VERTEX
  5
5D
  8
1
 10
-3482.559711
 20
-1059.351173
 30
0.0
 70
0
  0
VERTEX
  5
5E
  8
1
 10
-3482.503692
 20
-1044.249229
 30
0.0
 70
0
  0
VERTEX
  5
5F
  8
1
 10
-3482.446894
 20
-1028.924488
 30
0.0
 70
0
  0
VERTEX
  5
60
  8
1
 10
-3482.390977
 20
-1013.822551
 30
0.0
 70
0
  0
VERTEX
  5
61
  8
1
 10
-3482.334542
 20
-998.575306
 30
0.0
 70
0
  0
VERTEX
  5
62
  8
1
 10
-3482.278617
 20
-983.473359
 30
0.0
 70
0
  0
VERTEX
  5
63
  8
1
 10
-3482.223415
 20
-968.587302
 30
0.0
 70
0
  0
VERTEX
  5
64
  8
1
 10
-3482.216797
 20
-966.80397
 30
0.0
 70
0
  0
VERTEX
  5
65
  8
1
 10
-3466.306932
 20
-965.974018
 30
0.0
 70
0
  0
VERTEX
  5
66
  8
1
 10
-3451.324662
 20
-965.192449
 30
0.0
 70
0
  0
VERTEX
  5
67
  8
1
 10
-3450.46051
 20
-965.147324
 30
0.0
 70
0
  0
VERTEX
  5
68
  8
1
 10
-3435.939516
 20
-964.389858
 30
0.0
 70
0
  0
VERTEX
  5
69
  8
1
 10
-3420.616918
 20
-963.590526
 30
0.0
 70
0
  0
VERTEX
  5
6A
  8
1
 10
-3405.23178
 20
-962.787934
 30
0.0
 70
0
  0
VERTEX
  5
6B
  8
1
 10
-3389.846649
 20
-961.985351
 30
0.0
 70
0
  0
VERTEX
  5
6C
  8
1
 10
-3374.459974
 20
-961.182699
 30
0.0
 70
0
  0
VERTEX
  5
6D
  8
1
 10
-3359.546799
 20
-960.404745
 30
0.0
 70
0
  0
VERTEX
  5
6E
  8
1
 10
-3343.631111
 20
-959.574484
 30
0.0
 70
0
  0
VERTEX
  5
6F
  8
1
 10
-3328.716791
 20
-958.79646
 30
0.0
 70
0
  0
VERTEX
  5
70
  8
1
 10
-3312.801126
 20
-957.966212
 30
0.0
 70
0
  0
VERTEX
  5
71
  8
1
 10
-3297.63395
 20
-957.175013
 30
0.0
 70
0
  0
VERTEX
  5
72
  8
1
 10
-3282.248792
 20
-956.372438
 30
0.0
 70
0
  0
VERTEX
  5
73
  8
1
 10
-3267.094307
 20
-955.581895
 30
0.0
 70
0
  0
VERTEX
  5
74
  8
1
 10
-3251.709142
 20
-954.77932
 30
0.0
 70
0
  0
VERTEX
  5
75
  8
1
 10
-3236.376346
 20
-953.979468
 30
0.0
 70
0
  0
VERTEX
  5
76
  8
1
 10
-3220.991241
 20
-953.17687
 30
0.0
 70
0
  0
VERTEX
  5
77
  8
1
 10
-3206.129567
 20
-952.401577
 30
0.0
 70
0
  0
VERTEX
  5
78
  8
1
 10
-3190.213858
 20
-951.571315
 30
0.0
 70
0
  0
VERTEX
  5
79
  8
1
 10
-3175.046639
 20
-950.780108
 30
0.0
 70
0
  0
VERTEX
  5
7A
  8
1
 10
-3159.661456
 20
-949.977529
 30
0.0
 70
0
  0
VERTEX
  5
7B
  8
1
 10
-3144.32864
 20
-949.177682
 30
0.0
 70
0
  0
VERTEX
  5
7C
  8
1
 10
-3128.943523
 20
-948.375109
 30
0.0
 70
0
  0
VERTEX
  5
7D
  8
1
 10
-3113.789034
 20
-947.584566
 30
0.0
 70
0
  0
VERTEX
  5
7E
  8
1
 10
-3098.403922
 20
-946.781988
 30
0.0
 70
0
  0
VERTEX
  5
7F
  8
1
 10
-3083.48965
 20
-946.003969
 30
0.0
 70
0
  0
VERTEX
  5
80
  8
1
 10
-3067.574046
 20
-945.173711
 30
0.0
 70
0
  0
VERTEX
  5
81
  8
1
 10
-3052.545377
 20
-944.389724
 30
0.0
 70
0
  0
VERTEX
  5
82
  8
1
 10
-3037.481148
 20
-943.603888
 30
0.0
 70
0
  0
VERTEX
  5
83
  8
1
 10
-3022.23797
 20
-942.808722
 30
0.0
 70
0
  0
VERTEX
  5
84
  8
1
 10
-3009.493408
 20
-942.14386
 30
0.0
 70
0
  0
VERTEX
  5
85
  8
1
 10
-3009.932861
 20
-942.16835
 30
0.0
 70
0
  0
VERTEX
  5
86
  8
1
 10
-2994.18831
 20
-940.243571
 30
0.0
 70
0
  0
VERTEX
  5
87
  8
1
 10
-2978.769362
 20
-938.255424
 30
0.0
 70
0
  0
VERTEX
  5
88
  8
1
 10
-2963.652098
 20
-936.171436
 30
0.0
 70
0
  0
VERTEX
  5
89
  8
1
 10
-2948.539036
 20
-933.953992
 30
0.0
 70
0
  0
VERTEX
  5
8A
  8
1
 10
-2933.459428
 20
-931.611283
 30
0.0
 70
0
  0
VERTEX
  5
8B
  8
1
 10
-2918.369767
 20
-929.113983
 30
0.0
 70
0
  0
VERTEX
  5
8C
  8
1
 10
-2903.343782
 20
-926.448785
 30
0.0
 70
0
  0
VERTEX
  5
8D
  8
1
 10
-2888.207585
 20
-923.563513
 30
0.0
 70
0
  0
VERTEX
  5
8E
  8
1
 10
-2873.257505
 20
-920.500356
 30
0.0
 70
0
  0
VERTEX
  5
8F
  8
1
 10
-2858.485776
 20
-917.259567
 30
0.0
 70
0
  0
VERTEX
  5
90
  8
1
 10
-2843.627394
 20
-913.778335
 30
0.0
 70
0
  0
VERTEX
  5
91
  8
1
 10
-2828.90752
 20
-910.097751
 30
0.0
 70
0
  0
VERTEX
  5
92
  8
1
 10
-2814.160779
 20
-906.170974
 30
0.0
 70
0
  0
VERTEX
  5
93
  8
1
 10
-2799.4713
 20
-902.029851
 30
0.0
 70
0
  0
VERTEX
  5
94
  8
1
 10
-2784.839496
 20
-897.695042
 30
0.0
 70
0
  0
VERTEX
  5
95
  8
1
 10
-2770.286927
 20
-893.20928
 30
0.0
 70
0
  0
VERTEX
  5
96
  8
1
 10
-2755.747132
 20
-888.574623
 30
0.0
 70
0
  0
VERTEX
  5
97
  8
1
 10
-2741.34761
 20
-883.816582
 30
0.0
 70
0
  0
VERTEX
  5
98
  8
1
 10
-2726.910002
 20
-878.873859
 30
0.0
 70
0
  0
VERTEX
  5
99
  8
1
 10
-2718.771667
 20
-876.016464
 30
0.0
 70
0
  0
VERTEX
  5
9A
  8
1
 10
-2712.542479
 20
-873.829315
 30
0.0
 70
0
  0
VERTEX
  5
9B
  8
1
 10
-2698.551958
 20
-868.847106
 30
0.0
 70
0
  0
VERTEX
  5
9C
  8
1
 10
-2697.338562
 20
-868.41156
 30
0.0
 70
0
  0
VERTEX
  5
9D
  8
1
 10
-2690.127563
 20
-872.490921
 30
0.0
 70
0
  0
VERTEX
  5
9E
  8
1
 10
-2688.858111
 20
-879.955065
 30
0.0
 70
0
  0
VERTEX
  5
9F
  8
1
 10
-2687.446092
 20
-886.784559
 30
0.0
 70
0
  0
VERTEX
  5
A0
  8
1
 10
-2685.974829
 20
-892.758834
 30
0.0
 70
0
  0
VERTEX
  5
A1
  8
1
 10
-2684.433355
 20
-898.021426
 30
0.0
 70
0
  0
VERTEX
  5
A2
  8
1
 10
-2682.705986
 20
-903.069018
 30
0.0
 70
0
  0
VERTEX
  5
A3
  8
1
 10
-2680.741913
 20
-908.045289
 30
0.0
 70
0
  0
VERTEX
  5
A4
  8
1
 10
-2678.707085
 20
-912.563658
 30
0.0
 70
0
  0
VERTEX
  5
A5
  8
1
 10
-2676.546912
 20
-916.77203
 30
0.0
 70
0
  0
VERTEX
  5
A6
  8
1
 10
-2674.287806
 20
-920.650341
 30
0.0
 70
0
  0
VERTEX
  5
A7
  8
1
 10
-2671.934022
 20
-924.211601
 30
0.0
 70
0
  0
VERTEX
  5
A8
  8
1
 10
-2669.52902
 20
-927.415853
 30
0.0
 70
0
  0
VERTEX
  5
A9
  8
1
 10
-2667.027715
 20
-930.340948
 30
0.0
 70
0
  0
VERTEX
  5
AA
  8
1
 10
-2664.46917
 20
-932.951708
 30
0.0
 70
0
  0
VERTEX
  5
AB
  8
1
 10
-2661.837268
 20
-935.281213
 30
0.0
 70
0
  0
VERTEX
  5
AC
  8
1
 10
-2658.93615
 20
-937.511766
 30
0.0
 70
0
  0
VERTEX
  5
AD
  8
1
 10
-2655.656282
 20
-939.719337
 30
0.0
 70
0
  0
VERTEX
  5
AE
  8
1
 10
-2651.877082
 20
-941.951706
 30
0.0
 70
0
  0
VERTEX
  5
AF
  8
1
 10
-2647.706462
 20
-944.120052
 30
0.0
 70
0
  0
VERTEX
  5
B0
  8
1
 10
-2642.960294
 20
-946.295856
 30
0.0
 70
0
  0
VERTEX
  5
B1
  8
1
 10
-2637.635485
 20
-948.452376
 30
0.0
 70
0
  0
VERTEX
  5
B2
  8
1
 10
-2631.67315
 20
-950.589716
 30
0.0
 70
0
  0
VERTEX
  5
B3
  8
1
 10
-2624.955703
 20
-952.729991
 30
0.0
 70
0
  0
VERTEX
  5
B4
  8
1
 10
-2617.188555
 20
-954.9306
 30
0.0
 70
0
  0
VERTEX
  5
B5
  8
1
 10
-2607.145987
 20
-957.48346
 30
0.0
 70
0
  0
VERTEX
  5
B6
  8
1
 10
-2604.122314
 20
-958.205261
 30
0.0
 70
0
  0
VERTEX
  5
B7
  8
1
 10
-2588.371872
 20
-962.188765
 30
0.0
 70
0
  0
VERTEX
  5
B8
  8
1
 10
-2573.515255
 20
-965.948462
 30
0.0
 70
0
  0
VERTEX
  5
B9
  8
1
 10
-2558.405228
 20
-969.775397
 30
0.0
 70
0
  0
VERTEX
  5
BA
  8
1
 10
-2543.555611
 20
-973.540064
 30
0.0
 70
0
  0
VERTEX
  5
BB
  8
1
 10
-2528.803667
 20
-977.283911
 30
0.0
 70
0
  0
VERTEX
  5
BC
  8
1
 10
-2513.955936
 20
-981.056027
 30
0.0
 70
0
  0
VERTEX
  5
BD
  8
1
 10
-2498.934902
 20
-984.875974
 30
0.0
 70
0
  0
VERTEX
  5
BE
  8
1
 10
-2484.222564
 20
-988.620419
 30
0.0
 70
0
  0
VERTEX
  5
BF
  8
1
 10
-2469.444826
 20
-992.383892
 30
0.0
 70
0
  0
VERTEX
  5
C0
  8
1
 10
-2469.141388
 20
-992.461243
 30
0.0
 70
0
  0
VERTEX
  5
C1
  8
1
 10
-2456.582794
 20
-995.661392
 30
0.0
 70
0
  0
VERTEX
  5
C2
  8
1
 10
-2457.344552
 20
-1011.173019
 30
0.0
 70
0
  0
VERTEX
  5
C3
  8
1
 10
-2457.383728
 20
-1011.970139
 30
0.0
 70
0
  0
VERTEX
  5
C4
  8
1
 10
-2458.098309
 20
-1026.513213
 30
0.0
 70
0
  0
VERTEX
  5
C5
  8
1
 10
-2458.853954
 20
-1041.853304
 30
0.0
 70
0
  0
VERTEX
  5
C6
  8
1
 10
-2459.608305
 20
-1057.101629
 30
0.0
 70
0
  0
VERTEX
  5
C7
  8
1
 10
-2460.370237
 20
-1072.441434
 30
0.0
 70
0
  0
VERTEX
  5
C8
  8
1
 10
-2461.127267
 20
-1087.633451
 30
0.0
 70
0
  0
VERTEX
  5
C9
  8
1
 10
-2461.894128
 20
-1102.97299
 30
0.0
 70
0
  0
VERTEX
  5
CA
  8
1
 10
-2462.662241
 20
-1118.283102
 30
0.0
 70
0
  0
VERTEX
  5
CB
  8
1
 10
-2463.434731
 20
-1133.622367
 30
0.0
 70
0
  0
VERTEX
  5
CC
  8
1
 10
-2464.213277
 20
-1149.020508
 30
0.0
 70
0
  0
VERTEX
  5
CD
  8
1
 10
-2464.992185
 20
-1164.359469
 30
0.0
 70
0
  0
VERTEX
  5
CE
  8
1
 10
-2465.760817
 20
-1179.424075
 30
0.0
 70
0
  0
VERTEX
  5
CF
  8
1
 10
-2466.191559
 20
-1187.834854
 30
0.0
 70
0
  0
VERTEX
  5
D0
  8
1
 10
-2466.547283
 20
-1194.762629
 30
0.0
 70
0
  0
VERTEX
  5
D1
  8
1
 10
-2467.339275
 20
-1210.137014
 30
0.0
 70
0
  0
VERTEX
  5
D2
  8
1
 10
-2468.132303
 20
-1225.475201
 30
0.0
 70
0
  0
VERTEX
  5
D3
  8
1
 10
-2468.903323
 20
-1240.364854
 30
0.0
 70
0
  0
VERTEX
  5
D4
  8
1
 10
-2469.044037
 20
-1243.081589
 30
0.0
 70
0
  0
VERTEX
  5
D5
  8
1
 10
-2474.056689
 20
-1243.469295
 30
0.0
 70
0
  0
VERTEX
  5
D6
  8
1
 10
-2481.81076
 20
-1244.042969
 30
0.0
 70
0
  0
VERTEX
  5
D7
  8
1
 10
-2488.875221
 20
-1244.565595
 30
0.0
 70
0
  0
VERTEX
  5
D8
  8
1
 10
-2503.907057
 20
-1245.6032
 30
0.0
 70
0
  0
VERTEX
  5
D9
  8
1
 10
-2519.039248
 20
-1246.546483
 30
0.0
 70
0
  0
VERTEX
  5
DA
  8
1
 10
-2534.372247
 20
-1247.379304
 30
0.0
 70
0
  0
VERTEX
  5
DB
  8
1
 10
-2549.422499
 20
-1248.07056
 30
0.0
 70
0
  0
VERTEX
  5
DC
  8
1
 10
-2564.767766
 20
-1248.632748
 30
0.0
 70
0
  0
VERTEX
  5
DD
  8
1
 10
-2579.804049
 20
-1249.02734
 30
0.0
 70
0
  0
VERTEX
  5
DE
  8
1
 10
-2595.157692
 20
-1249.274357
 30
0.0
 70
0
  0
VERTEX
  5
DF
  8
1
 10
-2610.435136
 20
-1249.379825
 30
0.0
 70
0
  0
VERTEX
  5
E0
  8
1
 10
-2625.790611
 20
-1249.354922
 30
0.0
 70
0
  0
VERTEX
  5
E1
  8
1
 10
-2641.080599
 20
-1249.206207
 30
0.0
 70
0
  0
VERTEX
  5
E2
  8
1
 10
-2656.433851
 20
-1248.940894
 30
0.0
 70
0
  0
VERTEX
  5
E3
  8
1
 10
-2671.862627
 20
-1248.566773
 30
0.0
 70
0
  0
VERTEX
  5
E4
  8
1
 10
-2687.210969
 20
-1248.096639
 30
0.0
 70
0
  0
VERTEX
  5
E5
  8
1
 10
-2702.491457
 20
-1247.540181
 30
0.0
 70
0
  0
VERTEX
  5
E6
  8
1
 10
-2717.833594
 20
-1246.902341
 30
0.0
 70
0
  0
VERTEX
  5
E7
  8
1
 10
-2733.220732
 20
-1246.194886
 30
0.0
 70
0
  0
VERTEX
  5
E8
  8
1
 10
-2748.558056
 20
-1245.448667
 30
0.0
 70
0
  0
VERTEX
  5
E9
  8
1
 10
-2763.816637
 20
-1244.69641
 30
0.0
 70
0
  0
VERTEX
  5
EA
  8
1
 10
-2779.153451
 20
-1243.941283
 30
0.0
 70
0
  0
VERTEX
  5
EB
  8
1
 10
-2794.490417
 20
-1243.18883
 30
0.0
 70
0
  0
VERTEX
  5
EC
  8
1
 10
-2809.660595
 20
-1242.44852
 30
0.0
 70
0
  0
VERTEX
  5
ED
  8
1
 10
-2824.997984
 20
-1241.703574
 30
0.0
 70
0
  0
VERTEX
  5
EE
  8
1
 10
-2840.050839
 20
-1240.974903
 30
0.0
 70
0
  0
VERTEX
  5
EF
  8
1
 10
-2855.388494
 20
-1240.234838
 30
0.0
 70
0
  0
VERTEX
  5
F0
  8
1
 10
-2870.845729
 20
-1239.491643
 30
0.0
 70
0
  0
VERTEX
  5
F1
  8
1
 10
-2886.183561
 20
-1238.756702
 30
0.0
 70
0
  0
VERTEX
  5
F2
  8
1
 10
-2901.601949
 20
-1238.02023
 30
0.0
 70
0
  0
VERTEX
  5
F3
  8
1
 10
-2916.93996
 20
-1237.289879
 30
0.0
 70
0
  0
VERTEX
  5
F4
  8
1
 10
-2931.951751
 20
-1236.577263
 30
0.0
 70
0
  0
VERTEX
  5
F5
  8
1
 10
-2947.290046
 20
-1235.85131
 30
0.0
 70
0
  0
VERTEX
  5
F6
  8
1
 10
-2962.697743
 20
-1235.124258
 30
0.0
 70
0
  0
VERTEX
  5
F7
  8
1
 10
-2978.565082
 20
-1234.378331
 30
0.0
 70
0
  0
VERTEX
  5
F8
  8
1
 10
-2993.460768
 20
-1233.68096
 30
0.0
 70
0
  0
SEQEND
  5
30
  8
1
  0
LINE
  5
F9
  8
7
 10
-3387.257385
 20
-1086.681671
 30
0.0
 11
-2519.147034
 21
-1086.681671
 31
0.0
  0
ENDSEC
  0
EOF
