  0
SECTION
  2
HEADER
  9
$ACADVER
  1
AC1009
  9
$DWGCODEPAGE
  3
ANSI_1252
  9
$INSBASE
 10
0.0
 20
0.0
 30
0.0
  9
$EXTMIN
 10
1e+20
 20
1e+20
 30
1e+20
  9
$EXTMAX
 10
-1e+20
 20
-1e+20
 30
-1e+20
  9
$LIMMIN
 10
0.0
 20
0.0
  9
$LIMMAX
 10
420.0
 20
297.0
  9
$ORTHOMODE
 70
0
  9
$REGENMODE
 70
1
  9
$FILLMODE
 70
1
  9
$DRAGMODE
 70
2
  9
$QTEXTMODE
 70
0
  9
$MIRRTEXT
 70
1
  9
$OSMODE
 70
20583
  9
$LTSCALE
 40
1.0
  9
$ATTMODE
 70
1
  9
$TEXTSIZE
 40
2.5
  9
$TRACEWID
 40
1.0
  9
$TEXTSTYLE
  7
Standard
  9
$CLAYER
  8
0
  9
$CELTYPE
  6
ByLayer
  9
$CECOLOR
 62
256
  9
$DIMSCALE
 40
1.0
  9
$DIMASZ
 40
2.5
  9
$DIMEXO
 40
0.625
  9
$DIMDLI
 40
3.75
  9
$DIMRND
 40
0.0
  9
$DIMDLE
 40
0.0
  9
$DIMEXE
 40
1.25
  9
$DIMTP
 40
0.0
  9
$DIMTM
 40
0.0
  9
$DIMTXT
 40
2.5
  9
$DIMCEN
 40
2.5
  9
$DIMTSZ
 40
0.0
  9
$DIMTOL
 70
0
  9
$DIMLIM
 70
0
  9
$DIMTIH
 70
0
  9
$DIMTOH
 70
0
  9
$DIMSE1
 70
0
  9
$DIMSE2
 70
0
  9
$DIMTAD
 70
1
  9
$DIMZIN
 70
8
  9
$DIMBLK
  1

  9
$DIMASO
 70
1
  9
$DIMSHO
 70
1
  9
$DIMPOST
  1

  9
$DIMAPOST
  1

  9
$DIMALT
 70
0
  9
$DIMALTD
 70
3
  9
$DIMALTF
 40
0.03937007874
  9
$DIMLFAC
 40
1.0
  9
$DIMTOFL
 70
1
  9
$DIMTVP
 40
0.0
  9
$DIMTIX
 70
0
  9
$DIMSOXD
 70
0
  9
$DIMSAH
 70
0
  9
$DIMBLK1
  1

  9
$DIMBLK2
  1

  9
$DIMSTYLE
  2
ISO-25
  9
$DIMCLRD
 70
0
  9
$DIMCLRE
 70
0
  9
$DIMCLRT
 70
0
  9
$DIMTFAC
 40
1.0
  9
$DIMGAP
 40
0.625
  9
$COORDS
 70
1
  9
$ATTDIA
 70
0
  9
$ATTREQ
 70
1
  9
$HANDLING
 70
1
  9
$LUNITS
 70
2
  9
$LUPREC
 70
4
  9
$SKETCHINC
 40
1.0
  9
$FILLETRAD
 40
10.0
  9
$AUNITS
 70
0
  9
$AUPREC
 70
2
  9
$MENU
  1
.
  9
$ELEVATION
 40
0.0
  9
$PELEVATION
 40
0.0
  9
$THICKNESS
 40
0.0
  9
$LIMCHECK
 70
0
  9
$CHAMFERA
 40
0.0
  9
$CHAMFERB
 40
0.0
  9
$SKPOLY
 70
0
  9
$TDCREATE
 40
2461264.9423032408
  9
$TDUPDATE
 40
2461264.9423032408
  9
$TDINDWG
 40
0.0
  9
$TDUSRTIMER
 40
0.0
  9
$USRTIMER
 70
1
  9
$ANGBASE
 50
0.0
  9
$ANGDIR
 70
0
  9
$PDMODE
 70
0
  9
$PDSIZE
 40
0.0
  9
$PLINEWID
 40
0.0
  9
$SPLFRAME
 70
0
  9
$SPLINETYPE
 70
6
  9
$SPLINESEGS
 70
8
  9
$HANDSEED
  5
237
  9
$SURFTAB1
 70
6
  9
$SURFTAB2
 70
6
  9
$SURFTYPE
 70
6
  9
$SURFU
 70
6
  9
$SURFV
 70
6
  9
$UCSNAME
  2

  9
$UCSORG
 10
0.0
 20
0.0
 30
0.0
  9
$UCSXDIR
 10
1.0
 20
0.0
 30
0.0
  9
$UCSYDIR
 10
0.0
 20
1.0
 30
0.0
  9
$PUCSNAME
  2

  9
$PUCSORG
 10
0.0
 20
0.0
 30
0.0
  9
$PUCSXDIR
 10
1.0
 20
0.0
 30
0.0
  9
$PUCSYDIR
 10
0.0
 20
1.0
 30
0.0
  9
$USERI1
 70
0
  9
$USERI2
 70
0
  9
$USERI3
 70
0
  9
$USERI4
 70
0
  9
$USERI5
 70
0
  9
$USERR1
 40
0.0
  9
$USERR2
 40
0.0
  9
$USERR3
 40
0.0
  9
$USERR4
 40
0.0
  9
$USERR5
 40
0.0
  9
$WORLDVIEW
 70
1
  9
$SHADEDGE
 70
3
  9
$SHADEDIF
 70
70
  9
$TILEMODE
 70
1
  9
$MAXACTVP
 70
64
  9
$PLIMCHECK
 70
0
  9
$PEXTMIN
 10
1e+20
 20
1e+20
 30
1e+20
  9
$PEXTMAX
 10
-1e+20
 20
-1e+20
 30
-1e+20
  9
$PLIMMIN
 10
0.0
 20
0.0
  9
$PLIMMAX
 10
420.0
 20
297.0
  9
$UNITMODE
 70
0
  9
$VISRETAIN
 70
1
  9
$PLINEGEN
 70
0
  9
$PSLTSCALE
 70
1
  0
ENDSEC
  0
SECTION
  2
TABLES
  0
TABLE
  2
VPORT
 70
1
  0
VPORT
  5
23
  2
*Active
 70
0
 10
0.0
 20
0.0
 11
1.0
 21
1.0
 12
0.0
 22
0.0
 13
0.0
 23
0.0
 14
0.5
 24
0.5
 15
0.5
 25
0.5
 16
0.0
 26
0.0
 36
1.0
 17
0.0
 27
0.0
 37
0.0
 40
1000.0
 41
1.34
 42
50.0
 43
0.0
 44
0.0
 50
0.0
 51
0.0
 71
0
 72
1000
 73
1
 74
3
 75
0
 76
0
 77
0
 78
0
  0
ENDTAB
  0
TABLE
  2
LTYPE
 70
3
  0
LTYPE
  5
24
  2
ByBlock
 70
0
  3

 72
65
 73
0
 40
0.0
  0
LTYPE
  5
25
  2
ByLayer
 70
0
  3

 72
65
 73
0
 40
0.0
  0
LTYPE
  5
26
  2
Continuous
 70
0
  3

 72
65
 73
0
 40
0.0
  0
ENDTAB
  0
TABLE
  2
LAYER
 70
7
  0
LAYER
  5
27
  2
0
 70
0
 62
7
  6
Continuous
  0
LAYER
  5
28
  2
Defpoints
 70
0
 62
7
  6
Continuous
  0
LAYER
  5
2D
  2
1
 70
0
 62
1
  6
Continuous
  0
LAYER
  5
2E
  2
7
 70
0
 62
7
  6
Continuous
  0
LAYER
  5
2F
  2
14
 70
0
 62
3
  6
Continuous
  0
LAYER
  5
30
  2
8
 70
0
 62
6
  6
Continuous
  0
LAYER
  5
31
  2
4
 70
0
 62
2
  6
Continuous
  0
ENDTAB
  0
TABLE
  2
STYLE
 70
1
  0
STYLE
  5
29
  2
Standard
 70
0
 40
0.0
 41
1.0
 50
0.0
 71
0
 42
2.5
  3
txt
  4

  0
ENDTAB
  0
TABLE
  2
VIEW
 70
0
  0
ENDTAB
  0
TABLE
  2
UCS
 70
0
  0
ENDTAB
  0
TABLE
  2
APPID
 70
3
  0
APPID
  5
2A
  2
ACAD
 70
0
  0
APPID
  5
235
  2
HATCHBACKGROUNDCOLOR
 70
0
  0
APPID
  5
236
  2
EZDXF
 70
0
  0
ENDTAB
  0
TABLE
  2
DIMSTYLE
 70
1
  0
DIMSTYLE
105
2B
  2
Standard
 70
0
  3

  4

  5

  6

  7

 40
1.0
 41
2.5
 42
0.625
 43
3.75
 44
1.25
 45
0.0
 46
0.0
 47
0.0
 48
0.0
140
2.5
141
2.5
142
0.0
143
0.03937007874
144
1.0
145
0.0
146
1.0
147
0.625
 71
0
 72
0
 73
0
 74
0
 75
0
 76
0
 77
1
 78
8
170
0
171
3
172
1
173
0
174
0
175
0
176
0
177
0
178
0
  0
ENDTAB
  0
ENDSEC
  0
SECTION
  2
BLOCKS
  0
BLOCK
  5
18
  8
0
  2
$Model_Space
 70
0
 10
0.0
 20
0.0
 30
0.0
  3
$Model_Space
  1

1001
EZDXF
1000
CREATED_BY_EZDXF
1000
1.4.4 @ 2026-08-11T14:36:55.825216+00:00
1000
WRITTEN_BY_EZDXF
1000
1.4.4 @ 2026-08-11T14:36:55.830216+00:00
  0
ENDBLK
  5
19
  8
0
  0
BLOCK
  5
1C
  8
0
  2
$Paper_Space
 70
0
 10
0.0
 20
0.0
 30
0.0
  3
$Paper_Space
  1

  0
ENDBLK
  5
1D
  8
0
  0
ENDSEC
  0
SECTION
  2
ENTITIES
  0
POLYLINE
  5
32
  8
1
 66
1
 10
0.0
 20
0.0
 30
0.0
 70
1
  0
VERTEX
  5
34
  8
1
 10
-3009.506531
 20
-1253.252563
 30
0.0
 70
0
  0
VERTEX
  5
35
  8
1
 10
-3009.376526
 20
-1253.258133
 30
0.0
 70
0
  0
VERTEX
  5
36
  8
1
 10
-3012.493372
 20
-1253.125106
 30
0.0
 70
0
  0
VERTEX
  5
37
  8
1
 10
-3027.285838
 20
-1252.487427
 30
0.0
 70
0
  0
VERTEX
  5
38
  8
1
 10
-3042.326322
 20
-1251.828835
 30
0.0
 70
0
  0
VERTEX
  5
39
  8
1
 10
-3057.707616
 20
-1251.141316
 30
0.0
 70
0
  0
VERTEX
  5
3A
  8
1
 10
-3073.190512
 20
-1250.435068
 30
0.0
 70
0
  0
VERTEX
  5
3B
  8
1
 10
-3088.232389
 20
-1249.738904
 30
0.0
 70
0
  0
VERTEX
  5
3C
  8
1
 10
-3103.714474
 20
-1249.012597
 30
0.0
 70
0
  0
VERTEX
  5
3D
  8
1
 10
-3118.748982
 20
-1248.296535
 30
0.0
 70
0
  0
VERTEX
  5
3E
  8
1
 10
-3134.229874
 20
-1247.547769
 30
0.0
 70
0
  0
VERTEX
  5
3F
  8
1
 10
-3149.620434
 20
-1246.792039
 30
0.0
 70
0
  0
VERTEX
  5
40
  8
1
 10
-3165.100218
 20
-1246.020226
 30
0.0
 70
0
  0
VERTEX
  5
41
  8
1
 10
-3180.560601
 20
-1245.237078
 30
0.0
 70
0
  0
VERTEX
  5
42
  8
1
 10
-3196.039221
 20
-1244.440094
 30
0.0
 70
0
  0
VERTEX
  5
43
  8
1
 10
-3211.38442
 20
-1243.636625
 30
0.0
 70
0
  0
VERTEX
  5
44
  8
1
 10
-3226.861526
 20
-1242.812077
 30
0.0
 70
0
  0
VERTEX
  5
45
  8
1
 10
-3242.197529
 20
-1241.9802
 30
0.0
 70
0
  0
VERTEX
  5
46
  8
1
 10
-3257.672892
 20
-1241.124534
 30
0.0
 70
0
  0
VERTEX
  5
47
  8
1
 10
-3272.726666
 20
-1240.275327
 30
0.0
 70
0
  0
VERTEX
  5
48
  8
1
 10
-3288.200129
 20
-1239.385154
 30
0.0
 70
0
  0
VERTEX
  5
49
  8
1
 10
-3303.402544
 20
-1238.494147
 30
0.0
 70
0
  0
VERTEX
  5
4A
  8
1
 10
-3318.87414
 20
-1237.571955
 30
0.0
 70
0
  0
VERTEX
  5
4B
  8
1
 10
-3334.186967
 20
-1236.645383
 30
0.0
 70
0
  0
VERTEX
  5
4C
  8
1
 10
-3349.656881
 20
-1235.696102
 30
0.0
 70
0
  0
VERTEX
  5
4D
  8
1
 10
-3364.919689
 20
-1234.747063
 30
0.0
 70
0
  0
VERTEX
  5
4E
  8
1
 10
-3380.3881
 20
-1233.773462
 30
0.0
 70
0
  0
VERTEX
  5
4F
  8
1
 10
-3395.649082
 20
-1232.802127
 30
0.0
 70
0
  0
VERTEX
  5
50
  8
1
 10
-3411.116113
 20
-1231.806867
 30
0.0
 70
0
  0
VERTEX
  5
51
  8
1
 10
-3426.230382
 20
-1230.82341
 30
0.0
 70
0
  0
VERTEX
  5
52
  8
1
 10
-3441.695838
 20
-1229.80421
 30
0.0
 70
0
  0
VERTEX
  5
53
  8
1
 10
-3456.89775
 20
-1228.788865
 30
0.0
 70
0
  0
VERTEX
  5
54
  8
1
 10
-3471.695251
 20
-1227.792969
 30
0.0
 70
0
  0
VERTEX
  5
55
  8
1
 10
-3472.361842
 20
-1227.748138
 30
0.0
 70
0
  0
VERTEX
  5
56
  8
1
 10
-3487.723717
 20
-1226.713136
 30
0.0
 70
0
  0
VERTEX
  5
57
  8
1
 10
-3503.438416
 20
-1225.654602
 30
0.0
 70
0
  0
VERTEX
  5
58
  8
1
 10
-3503.387542
 20
-1210.086099
 30
0.0
 70
0
  0
VERTEX
  5
59
  8
1
 10
-3503.338241
 20
-1195.01077
 30
0.0
 70
0
  0
VERTEX
  5
5A
  8
1
 10
-3503.288412
 20
-1179.776889
 30
0.0
 70
0
  0
VERTEX
  5
5B
  8
1
 10
-3503.23911
 20
-1164.701568
 30
0.0
 70
0
  0
VERTEX
  5
5C
  8
1
 10
-3503.190552
 20
-1149.864642
 30
0.0
 70
0
  0
VERTEX
  5
5D
  8
1
 10
-3503.139681
 20
-1134.345951
 30
0.0
 70
0
  0
VERTEX
  5
5E
  8
1
 10
-3503.090198
 20
-1119.270636
 30
0.0
 70
0
  0
VERTEX
  5
5F
  8
1
 10
-3503.039908
 20
-1103.961933
 30
0.0
 70
0
  0
VERTEX
  5
60
  8
1
 10
-3502.990349
 20
-1088.886605
 30
0.0
 70
0
  0
VERTEX
  5
61
  8
1
 10
-3502.940233
 20
-1073.653795
 30
0.0
 70
0
  0
VERTEX
  5
62
  8
1
 10
-3502.890594
 20
-1058.578475
 30
0.0
 70
0
  0
VERTEX
  5
63
  8
1
 10
-3502.839927
 20
-1043.204724
 30
0.0
 70
0
  0
VERTEX
  5
64
  8
1
 10
-3502.790201
 20
-1028.129412
 30
0.0
 70
0
  0
VERTEX
  5
65
  8
1
 10
-3502.739398
 20
-1012.738343
 30
0.0
 70
0
  0
VERTEX
  5
66
  8
1
 10
-3502.689599
 20
-997.663039
 30
0.0
 70
0
  0
VERTEX
  5
67
  8
1
 10
-3502.63878
 20
-982.300398
 30
0.0
 70
0
  0
VERTEX
  5
68
  8
1
 10
-3502.588812
 20
-967.225088
 30
0.0
 70
0
  0
VERTEX
  5
69
  8
1
 10
-3502.540588
 20
-952.705688
 30
0.0
 70
0
  0
VERTEX
  5
6A
  8
1
 10
-3486.847054
 20
-951.884423
 30
0.0
 70
0
  0
VERTEX
  5
6B
  8
1
 10
-3471.669214
 20
-951.090148
 30
0.0
 70
0
  0
VERTEX
  5
6C
  8
1
 10
-3470.784912
 20
-951.043854
 30
0.0
 70
0
  0
VERTEX
  5
6D
  8
1
 10
-3456.19522
 20
-950.280378
 30
0.0
 70
0
  0
VERTEX
  5
6E
  8
1
 10
-3440.899707
 20
-949.479944
 30
0.0
 70
0
  0
VERTEX
  5
6F
  8
1
 10
-3425.572144
 20
-948.677824
 30
0.0
 70
0
  0
VERTEX
  5
70
  8
1
 10
-3410.276691
 20
-947.877383
 30
0.0
 70
0
  0
VERTEX
  5
71
  8
1
 10
-3395.277206
 20
-947.092441
 30
0.0
 70
0
  0
VERTEX
  5
72
  8
1
 10
-3379.981678
 20
-946.292012
 30
0.0
 70
0
  0
VERTEX
  5
73
  8
1
 10
-3364.798158
 20
-945.497442
 30
0.0
 70
0
  0
VERTEX
  5
74
  8
1
 10
-3349.502719
 20
-944.697016
 30
0.0
 70
0
  0
VERTEX
  5
75
  8
1
 10
-3334.181853
 20
-943.895264
 30
0.0
 70
0
  0
VERTEX
  5
76
  8
1
 10
-3318.886336
 20
-943.094835
 30
0.0
 70
0
  0
VERTEX
  5
77
  8
1
 10
-3303.558756
 20
-942.292712
 30
0.0
 70
0
  0
VERTEX
  5
78
  8
1
 10
-3288.263318
 20
-941.492264
 30
0.0
 70
0
  0
VERTEX
  5
79
  8
1
 10
-3272.956304
 20
-940.691219
 30
0.0
 70
0
  0
VERTEX
  5
7A
  8
1
 10
-3257.660841
 20
-939.890786
 30
0.0
 70
0
  0
VERTEX
  5
7B
  8
1
 10
-3242.475737
 20
-939.096128
 30
0.0
 70
0
  0
VERTEX
  5
7C
  8
1
 10
-3227.180178
 20
-938.295691
 30
0.0
 70
0
  0
VERTEX
  5
7D
  8
1
 10
-3211.715393
 20
-937.486402
 30
0.0
 70
0
  0
VERTEX
  5
7E
  8
1
 10
-3196.419898
 20
-936.685974
 30
0.0
 70
0
  0
VERTEX
  5
7F
  8
1
 10
-3181.092295
 20
-935.883863
 30
0.0
 70
0
  0
VERTEX
  5
80
  8
1
 10
-3165.796837
 20
-935.083434
 30
0.0
 70
0
  0
VERTEX
  5
81
  8
1
 10
-3150.557766
 20
-934.285957
 30
0.0
 70
0
  0
VERTEX
  5
82
  8
1
 10
-3135.262298
 20
-933.485528
 30
0.0
 70
0
  0
VERTEX
  5
83
  8
1
 10
-3119.959858
 20
-932.684725
 30
0.0
 70
0
  0
VERTEX
  5
84
  8
1
 10
-3104.664346
 20
-931.884282
 30
0.0
 70
0
  0
VERTEX
  5
85
  8
1
 10
-3089.294065
 20
-931.079935
 30
0.0
 70
0
  0
VERTEX
  5
86
  8
1
 10
-3073.99863
 20
-930.279515
 30
0.0
 70
0
  0
VERTEX
  5
87
  8
1
 10
-3058.668568
 20
-929.477284
 30
0.0
 70
0
  0
VERTEX
  5
88
  8
1
 10
-3043.373083
 20
-928.676862
 30
0.0
 70
0
  0
VERTEX
  5
89
  8
1
 10
-3028.082049
 20
-927.876672
 30
0.0
 70
0
  0
VERTEX
  5
8A
  8
1
 10
-3013.234574
 20
-927.099693
 30
0.0
 70
0
  0
VERTEX
  5
8B
  8
1
 10
-3009.495544
 20
-926.903992
 30
0.0
 70
0
  0
VERTEX
  5
8C
  8
1
 10
-3010.17395
 20
-926.941757
 30
0.0
 70
0
  0
VERTEX
  5
8D
  8
1
 10
-2994.82814
 20
-924.473705
 30
0.0
 70
0
  0
VERTEX
  5
8E
  8
1
 10
-2979.738701
 20
-921.948725
 30
0.0
 70
0
  0
VERTEX
  5
8F
  8
1
 10
-2964.89918
 20
-919.33632
 30
0.0
 70
0
  0
VERTEX
  5
90
  8
1
 10
-2949.714855
 20
-916.52738
 30
0.0
 70
0
  0
VERTEX
  5
91
  8
1
 10
-2934.510216
 20
-913.581941
 30
0.0
 70
0
  0
VERTEX
  5
92
  8
1
 10
-2919.732521
 20
-910.57103
 30
0.0
 70
0
  0
VERTEX
  5
93
  8
1
 10
-2904.637109
 20
-907.317838
 30
0.0
 70
0
  0
VERTEX
  5
94
  8
1
 10
-2889.72711
 20
-903.90786
 30
0.0
 70
0
  0
VERTEX
  5
95
  8
1
 10
-2874.721832
 20
-900.261444
 30
0.0
 70
0
  0
VERTEX
  5
96
  8
1
 10
-2859.856801
 20
-896.429541
 30
0.0
 70
0
  0
VERTEX
  5
97
  8
1
 10
-2844.959592
 20
-892.363415
 30
0.0
 70
0
  0
VERTEX
  5
98
  8
1
 10
-2830.134518
 20
-888.07939
 30
0.0
 70
0
  0
VERTEX
  5
99
  8
1
 10
-2815.36655
 20
-883.56651
 30
0.0
 70
0
  0
VERTEX
  5
9A
  8
1
 10
-2800.701195
 20
-878.849968
 30
0.0
 70
0
  0
VERTEX
  5
9B
  8
1
 10
-2786.065476
 20
-873.925895
 30
0.0
 70
0
  0
VERTEX
  5
9C
  8
1
 10
-2771.576391
 20
-868.870221
 30
0.0
 70
0
  0
VERTEX
  5
9D
  8
1
 10
-2757.046543
 20
-863.641595
 30
0.0
 70
0
  0
VERTEX
  5
9E
  8
1
 10
-2742.603017
 20
-858.269029
 30
0.0
 70
0
  0
VERTEX
  5
9F
  8
1
 10
-2728.188805
 20
-852.730184
 30
0.0
 70
0
  0
VERTEX
  5
A0
  8
1
 10
-2718.741455
 20
-849.017258
 30
0.0
 70
0
  0
VERTEX
  5
A1
  8
1
 10
-2713.808933
 20
-847.078816
 30
0.0
 70
0
  0
VERTEX
  5
A2
  8
1
 10
-2699.952263
 20
-841.567053
 30
0.0
 70
0
  0
VERTEX
  5
A3
  8
1
 10
-2697.702026
 20
-840.666885
 30
0.0
 70
0
  0
VERTEX
  5
A4
  8
1
 10
-2690.215759
 20
-844.45282
 30
0.0
 70
0
  0
VERTEX
  5
A5
  8
1
 10
-2688.472919
 20
-851.9801
 30
0.0
 70
0
  0
VERTEX
  5
A6
  8
1
 10
-2686.612007
 20
-858.899732
 30
0.0
 70
0
  0
VERTEX
  5
A7
  8
1
 10
-2684.79481
 20
-864.77506
 30
0.0
 70
0
  0
VERTEX
  5
A8
  8
1
 10
-2682.862855
 20
-870.187335
 30
0.0
 70
0
  0
VERTEX
  5
A9
  8
1
 10
-2680.740693
 20
-875.410473
 30
0.0
 70
0
  0
VERTEX
  5
AA
  8
1
 10
-2678.473961
 20
-880.362312
 30
0.0
 70
0
  0
VERTEX
  5
AB
  8
1
 10
-2676.092452
 20
-884.990925
 30
0.0
 70
0
  0
VERTEX
  5
AC
  8
1
 10
-2673.584028
 20
-889.334965
 30
0.0
 70
0
  0
VERTEX
  5
AD
  8
1
 10
-2671.022818
 20
-893.292297
 30
0.0
 70
0
  0
VERTEX
  5
AE
  8
1
 10
-2668.359025
 20
-896.960665
 30
0.0
 70
0
  0
VERTEX
  5
AF
  8
1
 10
-2665.69521
 20
-900.224575
 30
0.0
 70
0
  0
VERTEX
  5
B0
  8
1
 10
-2662.945989
 20
-903.211858
 30
0.0
 70
0
  0
VERTEX
  5
B1
  8
1
 10
-2660.137778
 20
-905.900098
 30
0.0
 70
0
  0
VERTEX
  5
B2
  8
1
 10
-2657.297833
 20
-908.276727
 30
0.0
 70
0
  0
VERTEX
  5
B3
  8
1
 10
-2654.223393
 20
-910.50951
 30
0.0
 70
0
  0
VERTEX
  5
B4
  8
1
 10
-2650.77893
 20
-912.686376
 30
0.0
 70
0
  0
VERTEX
  5
B5
  8
1
 10
-2646.906308
 20
-914.821257
 30
0.0
 70
0
  0
VERTEX
  5
B6
  8
1
 10
-2642.682042
 20
-916.857025
 30
0.0
 70
0
  0
VERTEX
  5
B7
  8
1
 10
-2637.964019
 20
-918.845595
 30
0.0
 70
0
  0
VERTEX
  5
B8
  8
1
 10
-2632.712579
 20
-920.780072
 30
0.0
 70
0
  0
VERTEX
  5
B9
  8
1
 10
-2626.839729
 20
-922.669467
 30
0.0
 70
0
  0
VERTEX
  5
BA
  8
1
 10
-2620.287223
 20
-924.510671
 30
0.0
 70
0
  0
VERTEX
  5
BB
  8
1
 10
-2612.916228
 20
-926.313488
 30
0.0
 70
0
  0
VERTEX
  5
BC
  8
1
 10
-2604.032767
 20
-928.21109
 30
0.0
 70
0
  0
VERTEX
  5
BD
  8
1
 10
-2594.180682
 20
-930.060258
 30
0.0
 70
0
  0
VERTEX
  5
BE
  8
1
 10
-2592.207947
 20
-930.397339
 30
0.0
 70
0
  0
VERTEX
  5
BF
  8
1
 10
-2576.839378
 20
-933.608191
 30
0.0
 70
0
  0
VERTEX
  5
C0
  8
1
 10
-2561.722984
 20
-936.768247
 30
0.0
 70
0
  0
VERTEX
  5
C1
  8
1
 10
-2546.787872
 20
-939.892907
 30
0.0
 70
0
  0
VERTEX
  5
C2
  8
1
 10
-2531.884534
 20
-943.01373
 30
0.0
 70
0
  0
VERTEX
  5
C3
  8
1
 10
-2517.053403
 20
-946.122267
 30
0.0
 70
0
  0
VERTEX
  5
C4
  8
1
 10
-2502.151212
 20
-949.248788
 30
0.0
 70
0
  0
VERTEX
  5
C5
  8
1
 10
-2487.348119
 20
-952.357885
 30
0.0
 70
0
  0
VERTEX
  5
C6
  8
1
 10
-2472.447295
 20
-955.490777
 30
0.0
 70
0
  0
VERTEX
  5
C7
  8
1
 10
-2457.478568
 20
-958.640835
 30
0.0
 70
0
  0
VERTEX
  5
C8
  8
1
 10
-2442.578797
 20
-961.778754
 30
0.0
 70
0
  0
VERTEX
  5
C9
  8
1
 10
-2428.765259
 20
-964.68956
 30
0.0
 70
0
  0
VERTEX
  5
CA
  8
1
 10
-2427.679376
 20
-964.918391
 30
0.0
 70
0
  0
VERTEX
  5
CB
  8
1
 10
-2416.168823
 20
-967.344742
 30
0.0
 70
0
  0
VERTEX
  5
CC
  8
1
 10
-2416.841175
 20
-982.903802
 30
0.0
 70
0
  0
VERTEX
  5
CD
  8
1
 10
-2416.869049
 20
-983.550873
 30
0.0
 70
0
  0
VERTEX
  5
CE
  8
1
 10
-2417.503796
 20
-998.246836
 30
0.0
 70
0
  0
VERTEX
  5
CF
  8
1
 10
-2418.164199
 20
-1013.589957
 30
0.0
 70
0
  0
VERTEX
  5
D0
  8
1
 10
-2418.825097
 20
-1029.035301
 30
0.0
 70
0
  0
VERTEX
  5
D1
  8
1
 10
-2419.478111
 20
-1044.378762
 30
0.0
 70
0
  0
VERTEX
  5
D2
  8
1
 10
-2420.120787
 20
-1059.542193
 30
0.0
 70
0
  0
VERTEX
  5
D3
  8
1
 10
-2420.768404
 20
-1074.885888
 30
0.0
 70
0
  0
VERTEX
  5
D4
  8
1
 10
-2421.410415
 20
-1090.167237
 30
0.0
 70
0
  0
VERTEX
  5
D5
  8
1
 10
-2422.051921
 20
-1105.511167
 30
0.0
 70
0
  0
VERTEX
  5
D6
  8
1
 10
-2422.675834
 20
-1120.508976
 30
0.0
 70
0
  0
VERTEX
  5
D7
  8
1
 10
-2423.310793
 20
-1135.853188
 30
0.0
 70
0
  0
VERTEX
  5
D8
  8
1
 10
-2423.928047
 20
-1150.85511
 30
0.0
 70
0
  0
VERTEX
  5
D9
  8
1
 10
-2424.555518
 20
-1166.199635
 30
0.0
 70
0
  0
VERTEX
  5
DA
  8
1
 10
-2425.178811
 20
-1181.544327
 30
0.0
 70
0
  0
VERTEX
  5
DB
  8
1
 10
-2425.545807
 20
-1190.629501
 30
0.0
 70
0
  0
VERTEX
  5
DC
  8
1
 10
-2425.784881
 20
-1196.570753
 30
0.0
 70
0
  0
VERTEX
  5
DD
  8
1
 10
-2426.399495
 20
-1211.915785
 30
0.0
 70
0
  0
VERTEX
  5
DE
  8
1
 10
-2427.004265
 20
-1227.109486
 30
0.0
 70
0
  0
VERTEX
  5
DF
  8
1
 10
-2427.611871
 20
-1242.454788
 30
0.0
 70
0
  0
VERTEX
  5
E0
  8
1
 10
-2428.217097
 20
-1257.800198
 30
0.0
 70
0
  0
VERTEX
  5
E1
  8
1
 10
-2428.753052
 20
-1271.421204
 30
0.0
 70
0
  0
VERTEX
  5
E2
  8
1
 10
-2433.10848
 20
-1271.749497
 30
0.0
 70
0
  0
VERTEX
  5
E3
  8
1
 10
-2441.499023
 20
-1272.356033
 30
0.0
 70
0
  0
VERTEX
  5
E4
  8
1
 10
-2447.980888
 20
-1272.824537
 30
0.0
 70
0
  0
VERTEX
  5
E5
  8
1
 10
-2463.313618
 20
-1273.848962
 30
0.0
 70
0
  0
VERTEX
  5
E6
  8
1
 10
-2478.385288
 20
-1274.747073
 30
0.0
 70
0
  0
VERTEX
  5
E7
  8
1
 10
-2493.404149
 20
-1275.53612
 30
0.0
 70
0
  0
VERTEX
  5
E8
  8
1
 10
-2508.487407
 20
-1276.215724
 30
0.0
 70
0
  0
VERTEX
  5
E9
  8
1
 10
-2523.687198
 20
-1276.760159
 30
0.0
 70
0
  0
VERTEX
  5
EA
  8
1
 10
-2538.780757
 20
-1277.147009
 30
0.0
 70
0
  0
VERTEX
  5
EB
  8
1
 10
-2553.952095
 20
-1277.391816
 30
0.0
 70
0
  0
VERTEX
  5
EC
  8
1
 10
-2569.050048
 20
-1277.504218
 30
0.0
 70
0
  0
VERTEX
  5
ED
  8
1
 10
-2584.183593
 20
-1277.49614
 30
0.0
 70
0
  0
VERTEX
  5
EE
  8
1
 10
-2599.28156
 20
-1277.379028
 30
0.0
 70
0
  0
VERTEX
  5
EF
  8
1
 10
-2614.442753
 20
-1277.165596
 30
0.0
 70
0
  0
VERTEX
  5
F0
  8
1
 10
-2629.538171
 20
-1276.86817
 30
0.0
 70
0
  0
VERTEX
  5
F1
  8
1
 10
-2644.742313
 20
-1276.484868
 30
0.0
 70
0
  0
VERTEX
  5
F2
  8
1
 10
-2659.833489
 20
-1276.012099
 30
0.0
 70
0
  0
VERTEX
  5
F3
  8
1
 10
-2675.205922
 20
-1275.399464
 30
0.0
 70
0
  0
VERTEX
  5
F4
  8
1
 10
-2690.285401
 20
-1274.643098
 30
0.0
 70
0
  0
VERTEX
  5
F5
  8
1
 10
-2705.528052
 20
-1273.733202
 30
0.0
 70
0
  0
VERTEX
  5
F6
  8
1
 10
-2720.592209
 20
-1272.718214
 30
0.0
 70
0
  0
VERTEX
  5
F7
  8
1
 10
-2735.731271
 20
-1271.640052
 30
0.0
 70
0
  0
VERTEX
  5
F8
  8
1
 10
-2750.791053
 20
-1270.56059
 30
0.0
 70
0
  0
VERTEX
  5
F9
  8
1
 10
-2765.786667
 20
-1269.494654
 30
0.0
 70
0
  0
VERTEX
  5
FA
  8
1
 10
-2780.848023
 20
-1268.439178
 30
0.0
 70
0
  0
VERTEX
  5
FB
  8
1
 10
-2796.296796
 20
-1267.367235
 30
0.0
 70
0
  0
VERTEX
  5
FC
  8
1
 10
-2811.359149
 20
-1266.327171
 30
0.0
 70
0
  0
VERTEX
  5
FD
  8
1
 10
-2826.414878
 20
-1265.293705
 30
0.0
 70
0
  0
VERTEX
  5
FE
  8
1
 10
-2841.478361
 20
-1264.26766
 30
0.0
 70
0
  0
VERTEX
  5
FF
  8
1
 10
-2856.87335
 20
-1263.226468
 30
0.0
 70
0
  0
VERTEX
  5
100
  8
1
 10
-2871.937712
 20
-1262.21383
 30
0.0
 70
0
  0
VERTEX
  5
101
  8
1
 10
-2887.002439
 20
-1261.207254
 30
0.0
 70
0
  0
VERTEX
  5
102
  8
1
 10
-2902.017886
 20
-1260.210165
 30
0.0
 70
0
  0
VERTEX
  5
103
  8
1
 10
-2917.585617
 20
-1259.182789
 30
0.0
 70
0
  0
VERTEX
  5
104
  8
1
 10
-2932.54591
 20
-1258.201426
 30
0.0
 70
0
  0
VERTEX
  5
105
  8
1
 10
-2948.114477
 20
-1257.186156
 30
0.0
 70
0
  0
VERTEX
  5
106
  8
1
 10
-2963.042146
 20
-1256.218562
 30
0.0
 70
0
  0
VERTEX
  5
107
  8
1
 10
-2978.611569
 20
-1255.216961
 30
0.0
 70
0
  0
VERTEX
  5
108
  8
1
 10
-2993.714625
 20
-1254.253482
 30
0.0
 70
0
  0
SEQEND
  5
33
  8
1
  0
POLYLINE
  5
109
  8
14
 66
1
 10
0.0
 20
0.0
 30
0.0
 70
1
  0
VERTEX
  5
10B
  8
14
 10
-3008.834839
 20
-1240.569611
 30
0.0
 70
0
  0
VERTEX
  5
10C
  8
14
 10
-3008.834839
 20
-1240.569611
 30
0.0
 70
0
  0
VERTEX
  5
10D
  8
14
 10
-3019.792987
 20
-1240.103003
 30
0.0
 70
0
  0
VERTEX
  5
10E
  8
14
 10
-3034.654059
 20
-1239.455468
 30
0.0
 70
0
  0
VERTEX
  5
10F
  8
14
 10
-3051.691574
 20
-1238.69788
 30
0.0
 70
0
  0
VERTEX
  5
110
  8
14
 10
-3068.579731
 20
-1237.932761
 30
0.0
 70
0
  0
VERTEX
  5
111
  8
14
 10
-3083.664871
 20
-1237.238018
 30
0.0
 70
0
  0
VERTEX
  5
112
  8
14
 10
-3100.006191
 20
-1236.473607
 30
0.0
 70
0
  0
VERTEX
  5
113
  8
14
 10
-3117.471246
 20
-1235.643031
 30
0.0
 70
0
  0
VERTEX
  5
114
  8
14
 10
-3135.927593
 20
-1234.749795
 30
0.0
 70
0
  0
VERTEX
  5
115
  8
14
 10
-3155.242787
 20
-1233.797403
 30
0.0
 70
0
  0
VERTEX
  5
116
  8
14
 10
-3170.21312
 20
-1233.046395
 30
0.0
 70
0
  0
VERTEX
  5
117
  8
14
 10
-3185.536179
 20
-1232.265562
 30
0.0
 70
0
  0
VERTEX
  5
118
  8
14
 10
-3201.156091
 20
-1231.456381
 30
0.0
 70
0
  0
VERTEX
  5
119
  8
14
 10
-3217.01698
 20
-1230.62033
 30
0.0
 70
0
  0
VERTEX
  5
11A
  8
14
 10
-3233.06301
 20
-1229.758885
 30
0.0
 70
0
  0
VERTEX
  5
11B
  8
14
 10
-3249.23823
 20
-1228.87353
 30
0.0
 70
0
  0
VERTEX
  5
11C
  8
14
 10
-3270.909632
 20
-1227.658413
 30
0.0
 70
0
  0
VERTEX
  5
11D
  8
14
 10
-3284.688803
 20
-1226.86749
 30
0.0
 70
0
  0
VERTEX
  5
11E
  8
14
 10
-3300.866578
 20
-1225.921723
 30
0.0
 70
0
  0
VERTEX
  5
11F
  8
14
 10
-3316.868052
 20
-1224.969552
 30
0.0
 70
0
  0
VERTEX
  5
120
  8
14
 10
-3332.598441
 20
-1224.018586
 30
0.0
 70
0
  0
VERTEX
  5
121
  8
14
 10
-3347.962904
 20
-1223.076439
 30
0.0
 70
0
  0
VERTEX
  5
122
  8
14
 10
-3367.715822
 20
-1221.847109
 30
0.0
 70
0
  0
VERTEX
  5
123
  8
14
 10
-3386.424982
 20
-1220.665022
 30
0.0
 70
0
  0
VERTEX
  5
124
  8
14
 10
-3403.865658
 20
-1219.548216
 30
0.0
 70
0
  0
VERTEX
  5
125
  8
14
 10
-3419.813146
 20
-1218.51473
 30
0.0
 70
0
  0
VERTEX
  5
126
  8
14
 10
-3437.305357
 20
-1217.367522
 30
0.0
 70
0
  0
VERTEX
  5
127
  8
14
 10
-3454.134835
 20
-1216.249532
 30
0.0
 70
0
  0
VERTEX
  5
128
  8
14
 10
-3471.653748
 20
-1215.067062
 30
0.0
 70
0
  0
VERTEX
  5
129
  8
14
 10
-3471.653748
 20
-1215.067062
 30
0.0
 70
0
  0
VERTEX
  5
12A
  8
14
 10
-3471.598102
 20
-1198.035675
 30
0.0
 70
0
  0
VERTEX
  5
12B
  8
14
 10
-3471.543079
 20
-1181.210887
 30
0.0
 70
0
  0
VERTEX
  5
12C
  8
14
 10
-3471.490785
 20
-1165.233935
 30
0.0
 70
0
  0
VERTEX
  5
12D
  8
14
 10
-3471.440782
 20
-1149.968638
 30
0.0
 70
0
  0
VERTEX
  5
12E
  8
14
 10
-3471.38714
 20
-1133.606252
 30
0.0
 70
0
  0
VERTEX
  5
12F
  8
14
 10
-3471.330942
 20
-1116.481082
 30
0.0
 70
0
  0
VERTEX
  5
130
  8
14
 10
-3471.273272
 20
-1098.927413
 30
0.0
 70
0
  0
VERTEX
  5
131
  8
14
 10
-3471.218187
 20
-1082.18271
 30
0.0
 70
0
  0
VERTEX
  5
132
  8
14
 10
-3471.160674
 20
-1064.721891
 30
0.0
 70
0
  0
VERTEX
  5
133
  8
14
 10
-3471.104688
 20
-1047.743337
 30
0.0
 70
0
  0
VERTEX
  5
134
  8
14
 10
-3471.051196
 20
-1031.53636
 30
0.0
 70
0
  0
VERTEX
  5
135
  8
14
 10
-3471.001165
 20
-1016.390343
 30
0.0
 70
0
  0
VERTEX
  5
136
  8
14
 10
-3470.948459
 20
-1000.446919
 30
0.0
 70
0
  0
VERTEX
  5
137
  8
14
 10
-3470.897574
 20
-985.065758
 30
0.0
 70
0
  0
VERTEX
  5
138
  8
14
 10
-3470.847943
 20
-970.076031
 30
0.0
 70
0
  0
VERTEX
  5
139
  8
14
 10
-3470.827026
 20
-963.763504
 30
0.0
 70
0
  0
VERTEX
  5
13A
  8
14
 10
-3470.827026
 20
-963.763504
 30
0.0
 70
0
  0
VERTEX
  5
13B
  8
14
 10
-3450.97566
 20
-962.724654
 30
0.0
 70
0
  0
VERTEX
  5
13C
  8
14
 10
-3428.191709
 20
-961.532338
 30
0.0
 70
0
  0
VERTEX
  5
13D
  8
14
 10
-3406.588547
 20
-960.401813
 30
0.0
 70
0
  0
VERTEX
  5
13E
  8
14
 10
-3390.353576
 20
-959.552214
 30
0.0
 70
0
  0
VERTEX
  5
13F
  8
14
 10
-3372.849682
 20
-958.636211
 30
0.0
 70
0
  0
VERTEX
  5
140
  8
14
 10
-3354.246084
 20
-957.662658
 30
0.0
 70
0
  0
VERTEX
  5
141
  8
14
 10
-3334.711936
 20
-956.640409
 30
0.0
 70
0
  0
VERTEX
  5
142
  8
14
 10
-3314.416461
 20
-955.578318
 30
0.0
 70
0
  0
VERTEX
  5
143
  8
14
 10
-3293.528829
 20
-954.485238
 30
0.0
 70
0
  0
VERTEX
  5
144
  8
14
 10
-3272.21821
 20
-953.370024
 30
0.0
 70
0
  0
VERTEX
  5
145
  8
14
 10
-3250.653847
 20
-952.24153
 30
0.0
 70
0
  0
VERTEX
  5
146
  8
14
 10
-3229.004853
 20
-951.108608
 30
0.0
 70
0
  0
VERTEX
  5
147
  8
14
 10
-3207.440454
 20
-949.980112
 30
0.0
 70
0
  0
VERTEX
  5
148
  8
14
 10
-3186.129874
 20
-948.864899
 30
0.0
 70
0
  0
VERTEX
  5
149
  8
14
 10
-3165.242227
 20
-947.771819
 30
0.0
 70
0
  0
VERTEX
  5
14A
  8
14
 10
-3144.946738
 20
-946.709727
 30
0.0
 70
0
  0
VERTEX
  5
14B
  8
14
 10
-3125.412596
 20
-945.687478
 30
0.0
 70
0
  0
VERTEX
  5
14C
  8
14
 10
-3106.809021
 20
-944.713927
 30
0.0
 70
0
  0
VERTEX
  5
14D
  8
14
 10
-3089.305134
 20
-943.797924
 30
0.0
 70
0
  0
VERTEX
  5
14E
  8
14
 10
-3073.070158
 20
-942.948324
 30
0.0
 70
0
  0
VERTEX
  5
14F
  8
14
 10
-3058.273305
 20
-942.173984
 30
0.0
 70
0
  0
VERTEX
  5
150
  8
14
 10
-3039.144529
 20
-941.172948
 30
0.0
 70
0
  0
VERTEX
  5
151
  8
14
 10
-3024.203152
 20
-940.391045
 30
0.0
 70
0
  0
VERTEX
  5
152
  8
14
 10
-3010.157079
 20
-939.655994
 30
0.0
 70
0
  0
VERTEX
  5
153
  8
14
 10
-3008.831787
 20
-939.586639
 30
0.0
 70
0
  0
VERTEX
  5
154
  8
14
 10
-3008.831787
 20
-939.586639
 30
0.0
 70
0
  0
VERTEX
  5
155
  8
14
 10
-2991.91827
 20
-936.888065
 30
0.0
 70
0
  0
VERTEX
  5
156
  8
14
 10
-2975.811249
 20
-934.160259
 30
0.0
 70
0
  0
VERTEX
  5
157
  8
14
 10
-2959.859638
 20
-931.324463
 30
0.0
 70
0
  0
VERTEX
  5
158
  8
14
 10
-2944.133106
 20
-928.392677
 30
0.0
 70
0
  0
VERTEX
  5
159
  8
14
 10
-2927.41074
 20
-925.112019
 30
0.0
 70
0
  0
VERTEX
  5
15A
  8
14
 10
-2912.309265
 20
-921.98395
 30
0.0
 70
0
  0
VERTEX
  5
15B
  8
14
 10
-2897.163272
 20
-918.660532
 30
0.0
 70
0
  0
VERTEX
  5
15C
  8
14
 10
-2881.963218
 20
-915.114782
 30
0.0
 70
0
  0
VERTEX
  5
15D
  8
14
 10
-2866.811409
 20
-911.36157
 30
0.0
 70
0
  0
VERTEX
  5
15E
  8
14
 10
-2851.713918
 20
-907.396298
 30
0.0
 70
0
  0
VERTEX
  5
15F
  8
14
 10
-2836.676746
 20
-903.21435
 30
0.0
 70
0
  0
VERTEX
  5
160
  8
14
 10
-2821.705949
 20
-898.811126
 30
0.0
 70
0
  0
VERTEX
  5
161
  8
14
 10
-2805.339594
 20
-893.712835
 30
0.0
 70
0
  0
VERTEX
  5
162
  8
14
 10
-2790.633642
 20
-888.888089
 30
0.0
 70
0
  0
VERTEX
  5
163
  8
14
 10
-2776.332744
 20
-884.002819
 30
0.0
 70
0
  0
VERTEX
  5
164
  8
14
 10
-2760.779853
 20
-878.496783
 30
0.0
 70
0
  0
VERTEX
  5
165
  8
14
 10
-2746.399742
 20
-873.241699
 30
0.0
 70
0
  0
VERTEX
  5
166
  8
14
 10
-2732.051393
 20
-867.848825
 30
0.0
 70
0
  0
VERTEX
  5
167
  8
14
 10
-2717.833348
 20
-862.356889
 30
0.0
 70
0
  0
VERTEX
  5
168
  8
14
 10
-2704.65898
 20
-857.115006
 30
0.0
 70
0
  0
VERTEX
  5
169
  8
14
 10
-2703.61145
 20
-856.688232
 30
0.0
 70
0
  0
VERTEX
  5
16A
  8
14
 10
-2703.61145
 20
-856.688232
 30
0.0
 70
0
  0
VERTEX
  5
16B
  8
14
 10
-2702.190826
 20
-862.50149
 30
0.0
 70
0
  0
VERTEX
  5
16C
  8
14
 10
-2700.456925
 20
-868.336005
 30
0.0
 70
0
  0
VERTEX
  5
16D
  8
14
 10
-2698.453734
 20
-874.171293
 30
0.0
 70
0
  0
VERTEX
  5
16E
  8
14
 10
-2696.193815
 20
-879.958108
 30
0.0
 70
0
  0
VERTEX
  5
16F
  8
14
 10
-2693.451143
 20
-886.13962
 30
0.0
 70
0
  0
VERTEX
  5
170
  8
14
 10
-2690.631419
 20
-891.743988
 30
0.0
 70
0
  0
VERTEX
  5
171
  8
14
 10
-2687.886403
 20
-896.606016
 30
0.0
 70
0
  0
VERTEX
  5
172
  8
14
 10
-2684.82499
 20
-901.449208
 30
0.0
 70
0
  0
VERTEX
  5
173
  8
14
 10
-2681.434368
 20
-906.204747
 30
0.0
 70
0
  0
VERTEX
  5
174
  8
14
 10
-2678.348121
 20
-910.051099
 30
0.0
 70
0
  0
VERTEX
  5
175
  8
14
 10
-2675.016941
 20
-913.748971
 30
0.0
 70
0
  0
VERTEX
  5
176
  8
14
 10
-2671.433419
 20
-917.258534
 30
0.0
 70
0
  0
VERTEX
  5
177
  8
14
 10
-2667.590126
 20
-920.539977
 30
0.0
 70
0
  0
VERTEX
  5
178
  8
14
 10
-2663.390625
 20
-923.626895
 30
0.0
 70
0
  0
VERTEX
  5
179
  8
14
 10
-2659.043213
 20
-926.389834
 30
0.0
 70
0
  0
VERTEX
  5
17A
  8
14
 10
-2654.48886
 20
-928.915
 30
0.0
 70
0
  0
VERTEX
  5
17B
  8
14
 10
-2649.757779
 20
-931.21792
 30
0.0
 70
0
  0
VERTEX
  5
17C
  8
14
 10
-2643.889737
 20
-933.709925
 30
0.0
 70
0
  0
VERTEX
  5
17D
  8
14
 10
-2637.862891
 20
-935.931108
 30
0.0
 70
0
  0
VERTEX
  5
17E
  8
14
 10
-2631.729454
 20
-937.908299
 30
0.0
 70
0
  0
VERTEX
  5
17F
  8
14
 10
-2624.50868
 20
-939.942458
 30
0.0
 70
0
  0
VERTEX
  5
180
  8
14
 10
-2616.462721
 20
-941.917281
 30
0.0
 70
0
  0
VERTEX
  5
181
  8
14
 10
-2607.022792
 20
-943.944317
 30
0.0
 70
0
  0
VERTEX
  5
182
  8
14
 10
-2597.570757
 20
-945.718504
 30
0.0
 70
0
  0
VERTEX
  5
183
  8
14
 10
-2595.21637
 20
-946.116257
 30
0.0
 70
0
  0
VERTEX
  5
184
  8
14
 10
-2578.198998
 20
-949.671342
 30
0.0
 70
0
  0
VERTEX
  5
185
  8
14
 10
-2562.912186
 20
-952.867729
 30
0.0
 70
0
  0
VERTEX
  5
186
  8
14
 10
-2548.015003
 20
-955.985012
 30
0.0
 70
0
  0
VERTEX
  5
187
  8
14
 10
-2531.640385
 20
-959.414356
 30
0.0
 70
0
  0
VERTEX
  5
188
  8
14
 10
-2516.351714
 20
-962.619416
 30
0.0
 70
0
  0
VERTEX
  5
189
  8
14
 10
-2500.399768
 20
-965.967399
 30
0.0
 70
0
  0
VERTEX
  5
18A
  8
14
 10
-2485.153368
 20
-969.170985
 30
0.0
 70
0
  0
VERTEX
  5
18B
  8
14
 10
-2468.994053
 20
-972.569632
 30
0.0
 70
0
  0
VERTEX
  5
18C
  8
14
 10
-2453.171112
 20
-975.900336
 30
0.0
 70
0
  0
VERTEX
  5
18D
  8
14
 10
-2438.57963
 20
-978.974158
 30
0.0
 70
0
  0
VERTEX
  5
18E
  8
14
 10
-2429.466248
 20
-980.895309
 30
0.0
 70
0
  0
VERTEX
  5
18F
  8
14
 10
-2429.465027
 20
-980.870132
 30
0.0
 70
0
  0
VERTEX
  5
190
  8
14
 10
-2429.466248
 20
-980.895309
 30
0.0
 70
0
  0
VERTEX
  5
191
  8
14
 10
-2430.180607
 20
-997.413611
 30
0.0
 70
0
  0
VERTEX
  5
192
  8
14
 10
-2430.878081
 20
-1013.643056
 30
0.0
 70
0
  0
VERTEX
  5
193
  8
14
 10
-2431.572099
 20
-1029.874022
 30
0.0
 70
0
  0
VERTEX
  5
194
  8
14
 10
-2432.264088
 20
-1046.134633
 30
0.0
 70
0
  0
VERTEX
  5
195
  8
14
 10
-2432.911127
 20
-1061.408424
 30
0.0
 70
0
  0
VERTEX
  5
196
  8
14
 10
-2433.600384
 20
-1077.754347
 30
0.0
 70
0
  0
VERTEX
  5
197
  8
14
 10
-2434.324712
 20
-1095.019625
 30
0.0
 70
0
  0
VERTEX
  5
198
  8
14
 10
-2435.076966
 20
-1113.051526
 30
0.0
 70
0
  0
VERTEX
  5
199
  8
14
 10
-2435.720023
 20
-1128.553536
 30
0.0
 70
0
  0
VERTEX
  5
19A
  8
14
 10
-2436.373376
 20
-1144.393455
 30
0.0
 70
0
  0
VERTEX
  5
19B
  8
14
 10
-2437.03289
 20
-1160.482866
 30
0.0
 70
0
  0
VERTEX
  5
19C
  8
14
 10
-2437.694432
 20
-1176.733414
 30
0.0
 70
0
  0
VERTEX
  5
19D
  8
14
 10
-2438.235474
 20
-1190.118637
 30
0.0
 70
0
  0
VERTEX
  5
19E
  8
14
 10
-2438.2356
 20
-1190.119391
 30
0.0
 70
0
  0
VERTEX
  5
19F
  8
14
 10
-2439.012491
 20
-1209.48627
 30
0.0
 70
0
  0
VERTEX
  5
1A0
  8
14
 10
-2439.615689
 20
-1224.625069
 30
0.0
 70
0
  0
VERTEX
  5
1A1
  8
14
 10
-2440.24068
 20
-1240.390703
 30
0.0
 70
0
  0
VERTEX
  5
1A2
  8
14
 10
-2440.819409
 20
-1255.06014
 30
0.0
 70
0
  0
VERTEX
  5
1A3
  8
14
 10
-2440.997162
 20
-1259.582977
 30
0.0
 70
0
  0
VERTEX
  5
1A4
  8
14
 10
-2440.997162
 20
-1259.582977
 30
0.0
 70
0
  0
VERTEX
  5
1A5
  8
14
 10
-2446.908815
 20
-1260.013031
 30
0.0
 70
0
  0
VERTEX
  5
1A6
  8
14
 10
-2461.77569
 20
-1261.013521
 30
0.0
 70
0
  0
VERTEX
  5
1A7
  8
14
 10
-2476.658459
 20
-1261.91989
 30
0.0
 70
0
  0
VERTEX
  5
1A8
  8
14
 10
-2491.558135
 20
-1262.728629
 30
0.0
 70
0
  0
VERTEX
  5
1A9
  8
14
 10
-2507.471774
 20
-1263.466848
 30
0.0
 70
0
  0
VERTEX
  5
1AA
  8
14
 10
-2524.384734
 20
-1264.076593
 30
0.0
 70
0
  0
VERTEX
  5
1AB
  8
14
 10
-2540.645588
 20
-1264.481543
 30
0.0
 70
0
  0
VERTEX
  5
1AC
  8
14
 10
-2556.911408
 20
-1264.722377
 30
0.0
 70
0
  0
VERTEX
  5
1AD
  8
14
 10
-2573.180569
 20
-1264.813049
 30
0.0
 70
0
  0
VERTEX
  5
1AE
  8
14
 10
-2589.451598
 20
-1264.767515
 30
0.0
 70
0
  0
VERTEX
  5
1AF
  8
14
 10
-2605.722909
 20
-1264.59973
 30
0.0
 70
0
  0
VERTEX
  5
1B0
  8
14
 10
-2621.992915
 20
-1264.323651
 30
0.0
 70
0
  0
VERTEX
  5
1B1
  8
14
 10
-2638.791313
 20
-1263.938963
 30
0.0
 70
0
  0
VERTEX
  5
1B2
  8
14
 10
-2655.053781
 20
-1263.462951
 30
0.0
 70
0
  0
VERTEX
  5
1B3
  8
14
 10
-2671.309768
 20
-1262.854753
 30
0.0
 70
0
  0
VERTEX
  5
1B4
  8
14
 10
-2687.557308
 20
-1262.083012
 30
0.0
 70
0
  0
VERTEX
  5
1B5
  8
14
 10
-2703.013416
 20
-1261.173588
 30
0.0
 70
0
  0
VERTEX
  5
1B6
  8
14
 10
-2719.243601
 20
-1260.076531
 30
0.0
 70
0
  0
VERTEX
  5
1B7
  8
14
 10
-2736.274729
 20
-1258.860231
 30
0.0
 70
0
  0
VERTEX
  5
1B8
  8
14
 10
-2752.487649
 20
-1257.705422
 30
0.0
 70
0
  0
VERTEX
  5
1B9
  8
14
 10
-2768.641549
 20
-1256.565351
 30
0.0
 70
0
  0
VERTEX
  5
1BA
  8
14
 10
-2784.686348
 20
-1255.442699
 30
0.0
 70
0
  0
VERTEX
  5
1BB
  8
14
 10
-2800.571966
 20
-1254.340148
 30
0.0
 70
0
  0
VERTEX
  5
1BC
  8
14
 10
-2816.248436
 20
-1253.260371
 30
0.0
 70
0
  0
VERTEX
  5
1BD
  8
14
 10
-2831.665658
 20
-1252.206051
 30
0.0
 70
0
  0
VERTEX
  5
1BE
  8
14
 10
-2846.77361
 20
-1251.179864
 30
0.0
 70
0
  0
VERTEX
  5
1BF
  8
14
 10
-2863.596953
 20
-1250.044964
 30
0.0
 70
0
  0
VERTEX
  5
1C0
  8
14
 10
-2879.876288
 20
-1248.954306
 30
0.0
 70
0
  0
VERTEX
  5
1C1
  8
14
 10
-2895.536916
 20
-1247.911889
 30
0.0
 70
0
  0
VERTEX
  5
1C2
  8
14
 10
-2912.322555
 20
-1246.801812
 30
0.0
 70
0
  0
VERTEX
  5
1C3
  8
14
 10
-2928.124258
 20
-1245.763542
 30
0.0
 70
0
  0
VERTEX
  5
1C4
  8
14
 10
-2944.398317
 20
-1244.701053
 30
0.0
 70
0
  0
VERTEX
  5
1C5
  8
14
 10
-2960.570952
 20
-1243.652146
 30
0.0
 70
0
  0
VERTEX
  5
1C6
  8
14
 10
-2975.926743
 20
-1242.662912
 30
0.0
 70
0
  0
VERTEX
  5
1C7
  8
14
 10
-2992.263903
 20
-1241.618315
 30
0.0
 70
0
  0
SEQEND
  5
10A
  8
14
  0
POLYLINE
  5
1C8
  8
8
 66
1
 10
0.0
 20
0.0
 30
0.0
 70
0
  0
VERTEX
  5
1CA
  8
8
 10
-2467.157745
 20
-1033.260727
 30
0.0
 70
0
  0
VERTEX
  5
1CB
  8
8
 10
-2468.430026
 20
-1052.577697
 30
0.0
 70
0
  0
VERTEX
  5
1CC
  8
8
 10
-2469.564249
 20
-1069.798548
 30
0.0
 70
0
  0
VERTEX
  5
1CD
  8
8
 10
-2470.670527
 20
-1086.595123
 30
0.0
 70
0
  0
VERTEX
  5
1CE
  8
8
 10
-2471.859926
 20
-1104.653703
 30
0.0
 70
0
  0
VERTEX
  5
1CF
  8
8
 10
-2473.073072
 20
-1123.072843
 30
0.0
 70
0
  0
VERTEX
  5
1D0
  8
8
 10
-2474.250596
 20
-1140.951135
 30
0.0
 70
0
  0
VERTEX
  5
1D1
  8
8
 10
-2475.333126
 20
-1157.387133
 30
0.0
 70
0
  0
VERTEX
  5
1D2
  8
8
 10
-2476.423176
 20
-1173.937307
 30
0.0
 70
0
  0
VERTEX
  5
1D3
  8
8
 10
-2477.353478
 20
-1188.062043
 30
0.0
 70
0
  0
VERTEX
  5
1D4
  8
8
 10
-2477.533569
 20
-1190.796356
 30
0.0
 70
0
  0
SEQEND
  5
1C9
  8
8
  0
POLYLINE
  5
1D5
  8
8
 66
1
 10
0.0
 20
0.0
 30
0.0
 70
0
  0
VERTEX
  5
1D7
  8
8
 10
-2606.329041
 20
-970.297089
 30
0.0
 70
0
  0
VERTEX
  5
1D8
  8
8
 10
-2630.411987
 20
-1264.096527
 30
0.0
 70
0
  0
SEQEND
  5
1D6
  8
8
  0
POLYLINE
  5
1D9
  8
8
 66
1
 10
0.0
 20
0.0
 30
0.0
 70
0
  0
VERTEX
  5
1DB
  8
8
 10
-3471.24054
 20
-1093.18367
 30
0.0
 70
0
  0
VERTEX
  5
1DC
  8
8
 10
-3453.269896
 20
-1093.174254
 30
0.0
 70
0
  0
VERTEX
  5
1DD
  8
8
 10
-3436.12746
 20
-1093.165569
 30
0.0
 70
0
  0
VERTEX
  5
1DE
  8
8
 10
-3418.823066
 20
-1093.157021
 30
0.0
 70
0
  0
VERTEX
  5
1DF
  8
8
 10
-3398.601519
 20
-1093.147281
 30
0.0
 70
0
  0
VERTEX
  5
1E0
  8
8
 10
-3381.673341
 20
-1093.13932
 30
0.0
 70
0
  0
VERTEX
  5
1E1
  8
8
 10
-3363.353552
 20
-1093.130897
 30
0.0
 70
0
  0
VERTEX
  5
1E2
  8
8
 10
-3343.749021
 20
-1093.122101
 30
0.0
 70
0
  0
VERTEX
  5
1E3
  8
8
 10
-3322.96656
 20
-1093.11302
 30
0.0
 70
0
  0
VERTEX
  5
1E4
  8
8
 10
-3301.11304
 20
-1093.103746
 30
0.0
 70
0
  0
VERTEX
  5
1E5
  8
8
 10
-3278.295256
 20
-1093.094366
 30
0.0
 70
0
  0
VERTEX
  5
1E6
  8
8
 10
-3262.600521
 20
-1093.088098
 30
0.0
 70
0
  0
VERTEX
  5
1E7
  8
8
 10
-3246.556347
 20
-1093.081849
 30
0.0
 70
0
  0
VERTEX
  5
1E8
  8
8
 10
-3230.194424
 20
-1093.075647
 30
0.0
 70
0
  0
VERTEX
  5
1E9
  8
8
 10
-3213.546408
 20
-1093.069517
 30
0.0
 70
0
  0
VERTEX
  5
1EA
  8
8
 10
-3196.643956
 20
-1093.063485
 30
0.0
 70
0
  0
VERTEX
  5
1EB
  8
8
 10
-3179.518726
 20
-1093.057579
 30
0.0
 70
0
  0
VERTEX
  5
1EC
  8
8
 10
-3162.202373
 20
-1093.051825
 30
0.0
 70
0
  0
VERTEX
  5
1ED
  8
8
 10
-3144.726593
 20
-1093.046248
 30
0.0
 70
0
  0
VERTEX
  5
1EE
  8
8
 10
-3127.122967
 20
-1093.040877
 30
0.0
 70
0
  0
VERTEX
  5
1EF
  8
8
 10
-3109.423189
 20
-1093.035736
 30
0.0
 70
0
  0
VERTEX
  5
1F0
  8
8
 10
-3091.658915
 20
-1093.030853
 30
0.0
 70
0
  0
VERTEX
  5
1F1
  8
8
 10
-3073.861804
 20
-1093.026254
 30
0.0
 70
0
  0
VERTEX
  5
1F2
  8
8
 10
-3055.401059
 20
-1093.021806
 30
0.0
 70
0
  0
VERTEX
  5
1F3
  8
8
 10
-3037.64286
 20
-1093.017824
 30
0.0
 70
0
  0
VERTEX
  5
1F4
  8
8
 10
-3019.961361
 20
-1093.014131
 30
0.0
 70
0
  0
VERTEX
  5
1F5
  8
8
 10
-3002.394932
 20
-1093.010718
 30
0.0
 70
0
  0
VERTEX
  5
1F6
  8
8
 10
-2984.982055
 20
-1093.007572
 30
0.0
 70
0
  0
VERTEX
  5
1F7
  8
8
 10
-2967.761025
 20
-1093.004683
 30
0.0
 70
0
  0
VERTEX
  5
1F8
  8
8
 10
-2950.770138
 20
-1093.002041
 30
0.0
 70
0
  0
VERTEX
  5
1F9
  8
8
 10
-2934.047909
 20
-1092.999634
 30
0.0
 70
0
  0
VERTEX
  5
1FA
  8
8
 10
-2917.632565
 20
-1092.997451
 30
0.0
 70
0
  0
VERTEX
  5
1FB
  8
8
 10
-2901.562615
 20
-1092.995482
 30
0.0
 70
0
  0
VERTEX
  5
1FC
  8
8
 10
-2885.876292
 20
-1092.993715
 30
0.0
 70
0
  0
VERTEX
  5
1FD
  8
8
 10
-2870.612099
 20
-1092.99214
 30
0.0
 70
0
  0
VERTEX
  5
1FE
  8
8
 10
-2855.808339
 20
-1092.990746
 30
0.0
 70
0
  0
VERTEX
  5
1FF
  8
8
 10
-2834.549851
 20
-1092.988969
 30
0.0
 70
0
  0
VERTEX
  5
200
  8
8
 10
-2814.54323
 20
-1092.987539
 30
0.0
 70
0
  0
VERTEX
  5
201
  8
8
 10
-2795.917908
 20
-1092.986417
 30
0.0
 70
0
  0
VERTEX
  5
202
  8
8
 10
-2778.803383
 20
-1092.985568
 30
0.0
 70
0
  0
VERTEX
  5
203
  8
8
 10
-2763.329152
 20
-1092.984954
 30
0.0
 70
0
  0
VERTEX
  5
204
  8
8
 10
-2745.472222
 20
-1092.984437
 30
0.0
 70
0
  0
VERTEX
  5
205
  8
8
 10
-2731.068548
 20
-1092.984187
 30
0.0
 70
0
  0
VERTEX
  5
206
  8
8
 10
-2716.609366
 20
-1092.98412
 30
0.0
 70
0
  0
VERTEX
  5
207
  8
8
 10
-2711.645813
 20
-1092.984161
 30
0.0
 70
0
  0
SEQEND
  5
1DA
  8
8
  0
POLYLINE
  5
208
  8
8
 66
1
 10
0.0
 20
0.0
 30
0.0
 70
0
  0
VERTEX
  5
20A
  8
8
 10
-3008.831787
 20
-939.586639
 30
0.0
 70
0
  0
VERTEX
  5
20B
  8
8
 10
-3008.831787
 20
-957.397666
 30
0.0
 70
0
  0
VERTEX
  5
20C
  8
8
 10
-3008.831787
 20
-973.904159
 30
0.0
 70
0
  0
VERTEX
  5
20D
  8
8
 10
-3008.831787
 20
-991.715827
 30
0.0
 70
0
  0
VERTEX
  5
20E
  8
8
 10
-3008.831787
 20
-1009.021887
 30
0.0
 70
0
  0
VERTEX
  5
20F
  8
8
 10
-3008.831787
 20
-1024.601212
 30
0.0
 70
0
  0
VERTEX
  5
210
  8
8
 10
-3008.831787
 20
-1041.006591
 30
0.0
 70
0
  0
VERTEX
  5
211
  8
8
 10
-3008.831787
 20
-1058.025856
 30
0.0
 70
0
  0
VERTEX
  5
212
  8
8
 10
-3008.831787
 20
-1075.44682
 30
0.0
 70
0
  0
VERTEX
  5
213
  8
8
 10
-3008.831787
 20
-1091.174011
 30
0.0
 70
0
  0
VERTEX
  5
214
  8
8
 10
-3008.831787
 20
-1108.773311
 30
0.0
 70
0
  0
VERTEX
  5
215
  8
8
 10
-3008.831787
 20
-1126.15418
 30
0.0
 70
0
  0
VERTEX
  5
216
  8
8
 10
-3008.831787
 20
-1143.098149
 30
0.0
 70
0
  0
VERTEX
  5
217
  8
8
 10
-3008.831787
 20
-1159.386769
 30
0.0
 70
0
  0
VERTEX
  5
218
  8
8
 10
-3008.831787
 20
-1174.801573
 30
0.0
 70
0
  0
VERTEX
  5
219
  8
8
 10
-3008.831787
 20
-1191.838366
 30
0.0
 70
0
  0
VERTEX
  5
21A
  8
8
 10
-3008.831787
 20
-1206.924838
 30
0.0
 70
0
  0
VERTEX
  5
21B
  8
8
 10
-3008.831787
 20
-1221.557133
 30
0.0
 70
0
  0
VERTEX
  5
21C
  8
8
 10
-3008.831787
 20
-1235.775835
 30
0.0
 70
0
  0
VERTEX
  5
21D
  8
8
 10
-3008.831787
 20
-1240.569611
 30
0.0
 70
0
  0
SEQEND
  5
209
  8
8
  0
POLYLINE
  5
21E
  8
8
 66
1
 10
0.0
 20
0.0
 30
0.0
 70
0
  0
VERTEX
  5
220
  8
8
 10
-2704.065552
 20
-880.864716
 30
0.0
 70
0
  0
VERTEX
  5
221
  8
8
 10
-2692.174988
 20
-1261.809235
 30
0.0
 70
0
  0
SEQEND
  5
21F
  8
8
  0
POINT
  5
222
  8
4
 10
-3009.376526
 20
-1253.258133
 30
0.0
  0
POINT
  5
223
  8
4
 10
-3471.695251
 20
-1227.792969
 30
0.0
  0
POINT
  5
224
  8
4
 10
-3470.784912
 20
-951.043854
 30
0.0
  0
POINT
  5
225
  8
4
 10
-3009.495544
 20
-926.903992
 30
0.0
  0
POINT
  5
226
  8
4
 10
-2718.741455
 20
-849.017258
 30
0.0
  0
POINT
  5
227
  8
4
 10
-2428.765259
 20
-964.68956
 30
0.0
  0
POINT
  5
228
  8
4
 10
-2416.869049
 20
-983.550873
 30
0.0
  0
POINT
  5
229
  8
4
 10
-2425.545807
 20
-1190.629501
 30
0.0
  0
POINT
  5
22A
  8
4
 10
-2441.499023
 20
-1272.356033
 30
0.0
  0
POINT
  5
22B
  8
4
 10
-3008.834839
 20
-1240.569611
 30
0.0
  0
POINT
  5
22C
  8
4
 10
-3471.653748
 20
-1215.067062
 30
0.0
  0
POINT
  5
22D
  8
4
 10
-3470.827026
 20
-963.763504
 30
0.0
  0
POINT
  5
22E
  8
4
 10
-3008.831787
 20
-939.586639
 30
0.0
  0
POINT
  5
22F
  8
4
 10
-2703.61145
 20
-856.688232
 30
0.0
  0
POINT
  5
230
  8
4
 10
-2429.466248
 20
-980.895309
 30
0.0
  0
POINT
  5
231
  8
4
 10
-2429.466248
 20
-980.895309
 30
0.0
  0
POINT
  5
232
  8
4
 10
-2438.235474
 20
-1190.118637
 30
0.0
  0
POINT
  5
233
  8
4
 10
-2440.997162
 20
-1259.582977
 30
0.0
  0
LINE
  5
234
  8
7
 10
-3387.257385
 20
-1086.681671
 30
0.0
 11
-2519.147034
 21
-1086.681671
 31
0.0
  0
ENDSEC
  0
EOF
