  0
SECTION
  2
HEADER
  9
$ACADVER
  1
AC1009
  9
$DWGCODEPAGE
  3
ANSI_1252
  9
$INSBASE
 10
0.0
 20
0.0
 30
0.0
  9
$EXTMIN
 10
1e+20
 20
1e+20
 30
1e+20
  9
$EXTMAX
 10
-1e+20
 20
-1e+20
 30
-1e+20
  9
$LIMMIN
 10
0.0
 20
0.0
  9
$LIMMAX
 10
420.0
 20
297.0
  9
$ORTHOMODE
 70
0
  9
$REGENMODE
 70
1
  9
$FILLMODE
 70
1
  9
$DRAGMODE
 70
2
  9
$QTEXTMODE
 70
0
  9
$MIRRTEXT
 70
1
  9
$OSMODE
 70
20583
  9
$LTSCALE
 40
1.0
  9
$ATTMODE
 70
1
  9
$TEXTSIZE
 40
2.5
  9
$TRACEWID
 40
1.0
  9
$TEXTSTYLE
  7
Standard
  9
$CLAYER
  8
0
  9
$CELTYPE
  6
ByLayer
  9
$CECOLOR
 62
256
  9
$DIMSCALE
 40
1.0
  9
$DIMASZ
 40
2.5
  9
$DIMEXO
 40
0.625
  9
$DIMDLI
 40
3.75
  9
$DIMRND
 40
0.0
  9
$DIMDLE
 40
0.0
  9
$DIMEXE
 40
1.25
  9
$DIMTP
 40
0.0
  9
$DIMTM
 40
0.0
  9
$DIMTXT
 40
2.5
  9
$DIMCEN
 40
2.5
  9
$DIMTSZ
 40
0.0
  9
$DIMTOL
 70
0
  9
$DIMLIM
 70
0
  9
$DIMTIH
 70
0
  9
$DIMTOH
 70
0
  9
$DIMSE1
 70
0
  9
$DIMSE2
 70
0
  9
$DIMTAD
 70
1
  9
$DIMZIN
 70
8
  9
$DIMBLK
  1

  9
$DIMASO
 70
1
  9
$DIMSHO
 70
1
  9
$DIMPOST
  1

  9
$DIMAPOST
  1

  9
$DIMALT
 70
0
  9
$DIMALTD
 70
3
  9
$DIMALTF
 40
0.03937007874
  9
$DIMLFAC
 40
1.0
  9
$DIMTOFL
 70
1
  9
$DIMTVP
 40
0.0
  9
$DIMTIX
 70
0
  9
$DIMSOXD
 70
0
  9
$DIMSAH
 70
0
  9
$DIMBLK1
  1

  9
$DIMBLK2
  1

  9
$DIMSTYLE
  2
ISO-25
  9
$DIMCLRD
 70
0
  9
$DIMCLRE
 70
0
  9
$DIMCLRT
 70
0
  9
$DIMTFAC
 40
1.0
  9
$DIMGAP
 40
0.625
  9
$COORDS
 70
1
  9
$ATTDIA
 70
0
  9
$ATTREQ
 70
1
  9
$HANDLING
 70
1
  9
$LUNITS
 70
2
  9
$LUPREC
 70
4
  9
$SKETCHINC
 40
1.0
  9
$FILLETRAD
 40
10.0
  9
$AUNITS
 70
0
  9
$AUPREC
 70
2
  9
$MENU
  1
.
  9
$ELEVATION
 40
0.0
  9
$PELEVATION
 40
0.0
  9
$THICKNESS
 40
0.0
  9
$LIMCHECK
 70
0
  9
$CHAMFERA
 40
0.0
  9
$CHAMFERB
 40
0.0
  9
$SKPOLY
 70
0
  9
$TDCREATE
 40
2461264.9423032408
  9
$TDUPDATE
 40
2461264.9423032408
  9
$TDINDWG
 40
0.0
  9
$TDUSRTIMER
 40
0.0
  9
$USRTIMER
 70
1
  9
$ANGBASE
 50
0.0
  9
$ANGDIR
 70
0
  9
$PDMODE
 70
0
  9
$PDSIZE
 40
0.0
  9
$PLINEWID
 40
0.0
  9
$SPLFRAME
 70
0
  9
$SPLINETYPE
 70
6
  9
$SPLINESEGS
 70
8
  9
$HANDSEED
  5
219
  9
$SURFTAB1
 70
6
  9
$SURFTAB2
 70
6
  9
$SURFTYPE
 70
6
  9
$SURFU
 70
6
  9
$SURFV
 70
6
  9
$UCSNAME
  2

  9
$UCSORG
 10
0.0
 20
0.0
 30
0.0
  9
$UCSXDIR
 10
1.0
 20
0.0
 30
0.0
  9
$UCSYDIR
 10
0.0
 20
1.0
 30
0.0
  9
$PUCSNAME
  2

  9
$PUCSORG
 10
0.0
 20
0.0
 30
0.0
  9
$PUCSXDIR
 10
1.0
 20
0.0
 30
0.0
  9
$PUCSYDIR
 10
0.0
 20
1.0
 30
0.0
  9
$USERI1
 70
0
  9
$USERI2
 70
0
  9
$USERI3
 70
0
  9
$USERI4
 70
0
  9
$USERI5
 70
0
  9
$USERR1
 40
0.0
  9
$USERR2
 40
0.0
  9
$USERR3
 40
0.0
  9
$USERR4
 40
0.0
  9
$USERR5
 40
0.0
  9
$WORLDVIEW
 70
1
  9
$SHADEDGE
 70
3
  9
$SHADEDIF
 70
70
  9
$TILEMODE
 70
1
  9
$MAXACTVP
 70
64
  9
$PLIMCHECK
 70
0
  9
$PEXTMIN
 10
1e+20
 20
1e+20
 30
1e+20
  9
$PEXTMAX
 10
-1e+20
 20
-1e+20
 30
-1e+20
  9
$PLIMMIN
 10
0.0
 20
0.0
  9
$PLIMMAX
 10
420.0
 20
297.0
  9
$UNITMODE
 70
0
  9
$VISRETAIN
 70
1
  9
$PLINEGEN
 70
0
  9
$PSLTSCALE
 70
1
  0
ENDSEC
  0
SECTION
  2
TABLES
  0
TABLE
  2
VPORT
 70
1
  0
VPORT
  5
23
  2
*Active
 70
0
 10
0.0
 20
0.0
 11
1.0
 21
1.0
 12
0.0
 22
0.0
 13
0.0
 23
0.0
 14
0.5
 24
0.5
 15
0.5
 25
0.5
 16
0.0
 26
0.0
 36
1.0
 17
0.0
 27
0.0
 37
0.0
 40
1000.0
 41
1.34
 42
50.0
 43
0.0
 44
0.0
 50
0.0
 51
0.0
 71
0
 72
1000
 73
1
 74
3
 75
0
 76
0
 77
0
 78
0
  0
ENDTAB
  0
TABLE
  2
LTYPE
 70
3
  0
LTYPE
  5
24
  2
ByBlock
 70
0
  3

 72
65
 73
0
 40
0.0
  0
LTYPE
  5
25
  2
ByLayer
 70
0
  3

 72
65
 73
0
 40
0.0
  0
LTYPE
  5
26
  2
Continuous
 70
0
  3

 72
65
 73
0
 40
0.0
  0
ENDTAB
  0
TABLE
  2
LAYER
 70
7
  0
LAYER
  5
27
  2
0
 70
0
 62
7
  6
Continuous
  0
LAYER
  5
28
  2
Defpoints
 70
0
 62
7
  6
Continuous
  0
LAYER
  5
2D
  2
1
 70
0
 62
1
  6
Continuous
  0
LAYER
  5
2E
  2
7
 70
0
 62
7
  6
Continuous
  0
LAYER
  5
2F
  2
14
 70
0
 62
3
  6
Continuous
  0
LAYER
  5
30
  2
8
 70
0
 62
6
  6
Continuous
  0
LAYER
  5
31
  2
4
 70
0
 62
2
  6
Continuous
  0
ENDTAB
  0
TABLE
  2
STYLE
 70
1
  0
STYLE
  5
29
  2
Standard
 70
0
 40
0.0
 41
1.0
 50
0.0
 71
0
 42
2.5
  3
txt
  4

  0
ENDTAB
  0
TABLE
  2
VIEW
 70
0
  0
ENDTAB
  0
TABLE
  2
UCS
 70
0
  0
ENDTAB
  0
TABLE
  2
APPID
 70
3
  0
APPID
  5
2A
  2
ACAD
 70
0
  0
APPID
  5
217
  2
HATCHBACKGROUNDCOLOR
 70
0
  0
APPID
  5
218
  2
EZDXF
 70
0
  0
ENDTAB
  0
TABLE
  2
DIMSTYLE
 70
1
  0
DIMSTYLE
105
2B
  2
Standard
 70
0
  3

  4

  5

  6

  7

 40
1.0
 41
2.5
 42
0.625
 43
3.75
 44
1.25
 45
0.0
 46
0.0
 47
0.0
 48
0.0
140
2.5
141
2.5
142
0.0
143
0.03937007874
144
1.0
145
0.0
146
1.0
147
0.625
 71
0
 72
0
 73
0
 74
0
 75
0
 76
0
 77
1
 78
8
170
0
171
3
172
1
173
0
174
0
175
0
176
0
177
0
178
0
  0
ENDTAB
  0
ENDSEC
  0
SECTION
  2
BLOCKS
  0
BLOCK
  5
18
  8
0
  2
$Model_Space
 70
0
 10
0.0
 20
0.0
 30
0.0
  3
$Model_Space
  1

1001
EZDXF
1000
CREATED_BY_EZDXF
1000
1.4.4 @ 2026-08-11T14:36:55.119176+00:00
1000
WRITTEN_BY_EZDXF
1000
1.4.4 @ 2026-08-11T14:36:55.124175+00:00
  0
ENDBLK
  5
19
  8
0
  0
BLOCK
  5
1C
  8
0
  2
$Paper_Space
 70
0
 10
0.0
 20
0.0
 30
0.0
  3
$Paper_Space
  1

  0
ENDBLK
  5
1D
  8
0
  0
ENDSEC
  0
SECTION
  2
ENTITIES
  0
POLYLINE
  5
32
  8
1
 66
1
 10
0.0
 20
0.0
 30
0.0
 70
1
  0
VERTEX
  5
34
  8
1
 10
-3009.333801
 20
-1232.940216
 30
0.0
 70
0
  0
VERTEX
  5
35
  8
1
 10
-3009.239807
 20
-1232.943192
 30
0.0
 70
0
  0
VERTEX
  5
36
  8
1
 10
-3014.045017
 20
-1232.789924
 30
0.0
 70
0
  0
VERTEX
  5
37
  8
1
 10
-3028.97472
 20
-1232.308362
 30
0.0
 70
0
  0
VERTEX
  5
38
  8
1
 10
-3044.028117
 20
-1231.81134
 30
0.0
 70
0
  0
VERTEX
  5
39
  8
1
 10
-3059.158401
 20
-1231.29841
 30
0.0
 70
0
  0
VERTEX
  5
3A
  8
1
 10
-3074.210833
 20
-1230.774723
 30
0.0
 70
0
  0
VERTEX
  5
3B
  8
1
 10
-3089.319234
 20
-1230.237748
 30
0.0
 70
0
  0
VERTEX
  5
3C
  8
1
 10
-3104.370988
 20
-1229.692872
 30
0.0
 70
0
  0
VERTEX
  5
3D
  8
1
 10
-3119.573789
 20
-1229.131663
 30
0.0
 70
0
  0
VERTEX
  5
3E
  8
1
 10
-3134.624705
 20
-1228.56449
 30
0.0
 70
0
  0
VERTEX
  5
3F
  8
1
 10
-3149.999888
 20
-1227.973112
 30
0.0
 70
0
  0
VERTEX
  5
40
  8
1
 10
-3165.049968
 20
-1227.382339
 30
0.0
 70
0
  0
VERTEX
  5
41
  8
1
 10
-3180.271367
 20
-1226.772213
 30
0.0
 70
0
  0
VERTEX
  5
42
  8
1
 10
-3195.320328
 20
-1226.155837
 30
0.0
 70
0
  0
VERTEX
  5
43
  8
1
 10
-3210.620901
 20
-1225.515164
 30
0.0
 70
0
  0
VERTEX
  5
44
  8
1
 10
-3225.668714
 20
-1224.870542
 30
0.0
 70
0
  0
VERTEX
  5
45
  8
1
 10
-3240.683227
 20
-1224.21161
 30
0.0
 70
0
  0
VERTEX
  5
46
  8
1
 10
-3255.729645
 20
-1223.534356
 30
0.0
 70
0
  0
VERTEX
  5
47
  8
1
 10
-3270.872946
 20
-1222.835347
 30
0.0
 70
0
  0
VERTEX
  5
48
  8
1
 10
-3285.917728
 20
-1222.12383
 30
0.0
 70
0
  0
VERTEX
  5
49
  8
1
 10
-3300.90738
 20
-1221.39932
 30
0.0
 70
0
  0
VERTEX
  5
4A
  8
1
 10
-3315.950767
 20
-1220.657914
 30
0.0
 70
0
  0
VERTEX
  5
4B
  8
1
 10
-3331.102693
 20
-1219.897543
 30
0.0
 70
0
  0
VERTEX
  5
4C
  8
1
 10
-3346.144681
 20
-1219.129973
 30
0.0
 70
0
  0
VERTEX
  5
4D
  8
1
 10
-3361.288749
 20
-1218.345388
 30
0.0
 70
0
  0
VERTEX
  5
4E
  8
1
 10
-3376.329555
 20
-1217.555228
 30
0.0
 70
0
  0
VERTEX
  5
4F
  8
1
 10
-3391.85496
 20
-1216.728125
 30
0.0
 70
0
  0
VERTEX
  5
50
  8
1
 10
-3406.687679
 20
-1215.926534
 30
0.0
 70
0
  0
VERTEX
  5
51
  8
1
 10
-3422.211738
 20
-1215.074161
 30
0.0
 70
0
  0
VERTEX
  5
52
  8
1
 10
-3436.97649
 20
-1214.250529
 30
0.0
 70
0
  0
VERTEX
  5
53
  8
1
 10
-3451.381226
 20
-1213.440094
 30
0.0
 70
0
  0
VERTEX
  5
54
  8
1
 10
-3452.014323
 20
-1213.404444
 30
0.0
 70
0
  0
VERTEX
  5
55
  8
1
 10
-3467.302245
 20
-1212.543175
 30
0.0
 70
0
  0
VERTEX
  5
56
  8
1
 10
-3483.124695
 20
-1211.651993
 30
0.0
 70
0
  0
VERTEX
  5
57
  8
1
 10
-3483.067205
 20
-1196.163034
 30
0.0
 70
0
  0
VERTEX
  5
58
  8
1
 10
-3483.011148
 20
-1181.061114
 30
0.0
 70
0
  0
VERTEX
  5
59
  8
1
 10
-3482.954197
 20
-1165.718802
 30
0.0
 70
0
  0
VERTEX
  5
5A
  8
1
 10
-3482.898145
 20
-1150.616861
 30
0.0
 70
0
  0
VERTEX
  5
5B
  8
1
 10
-3482.842114
 20
-1135.514924
 30
0.0
 70
0
  0
VERTEX
  5
5C
  8
1
 10
-3482.785308
 20
-1120.195233
 30
0.0
 70
0
  0
VERTEX
  5
5D
  8
1
 10
-3482.729329
 20
-1105.093312
 30
0.0
 70
0
  0
VERTEX
  5
5E
  8
1
 10
-3482.67245
 20
-1089.749372
 30
0.0
 70
0
  0
VERTEX
  5
5F
  8
1
 10
-3482.616452
 20
-1074.647458
 30
0.0
 70
0
  0
VERTEX
  5
60
  8
1
 10
-3482.559711
 20
-1059.351173
 30
0.0
 70
0
  0
VERTEX
  5
61
  8
1
 10
-3482.503692
 20
-1044.249229
 30
0.0
 70
0
  0
VERTEX
  5
62
  8
1
 10
-3482.446894
 20
-1028.924488
 30
0.0
 70
0
  0
VERTEX
  5
63
  8
1
 10
-3482.390977
 20
-1013.822551
 30
0.0
 70
0
  0
VERTEX
  5
64
  8
1
 10
-3482.334542
 20
-998.575306
 30
0.0
 70
0
  0
VERTEX
  5
65
  8
1
 10
-3482.278617
 20
-983.473359
 30
0.0
 70
0
  0
VERTEX
  5
66
  8
1
 10
-3482.223415
 20
-968.587302
 30
0.0
 70
0
  0
VERTEX
  5
67
  8
1
 10
-3482.216797
 20
-966.80397
 30
0.0
 70
0
  0
VERTEX
  5
68
  8
1
 10
-3466.306932
 20
-965.974018
 30
0.0
 70
0
  0
VERTEX
  5
69
  8
1
 10
-3451.324662
 20
-965.192449
 30
0.0
 70
0
  0
VERTEX
  5
6A
  8
1
 10
-3450.46051
 20
-965.147324
 30
0.0
 70
0
  0
VERTEX
  5
6B
  8
1
 10
-3435.939516
 20
-964.389858
 30
0.0
 70
0
  0
VERTEX
  5
6C
  8
1
 10
-3420.616918
 20
-963.590526
 30
0.0
 70
0
  0
VERTEX
  5
6D
  8
1
 10
-3405.23178
 20
-962.787934
 30
0.0
 70
0
  0
VERTEX
  5
6E
  8
1
 10
-3389.846649
 20
-961.985351
 30
0.0
 70
0
  0
VERTEX
  5
6F
  8
1
 10
-3374.459974
 20
-961.182699
 30
0.0
 70
0
  0
VERTEX
  5
70
  8
1
 10
-3359.546799
 20
-960.404745
 30
0.0
 70
0
  0
VERTEX
  5
71
  8
1
 10
-3343.631111
 20
-959.574484
 30
0.0
 70
0
  0
VERTEX
  5
72
  8
1
 10
-3328.716791
 20
-958.79646
 30
0.0
 70
0
  0
VERTEX
  5
73
  8
1
 10
-3312.801126
 20
-957.966212
 30
0.0
 70
0
  0
VERTEX
  5
74
  8
1
 10
-3297.63395
 20
-957.175013
 30
0.0
 70
0
  0
VERTEX
  5
75
  8
1
 10
-3282.248792
 20
-956.372438
 30
0.0
 70
0
  0
VERTEX
  5
76
  8
1
 10
-3267.094307
 20
-955.581895
 30
0.0
 70
0
  0
VERTEX
  5
77
  8
1
 10
-3251.709142
 20
-954.77932
 30
0.0
 70
0
  0
VERTEX
  5
78
  8
1
 10
-3236.376346
 20
-953.979468
 30
0.0
 70
0
  0
VERTEX
  5
79
  8
1
 10
-3220.991241
 20
-953.17687
 30
0.0
 70
0
  0
VERTEX
  5
7A
  8
1
 10
-3206.129567
 20
-952.401577
 30
0.0
 70
0
  0
VERTEX
  5
7B
  8
1
 10
-3190.213858
 20
-951.571315
 30
0.0
 70
0
  0
VERTEX
  5
7C
  8
1
 10
-3175.046639
 20
-950.780108
 30
0.0
 70
0
  0
VERTEX
  5
7D
  8
1
 10
-3159.661456
 20
-949.977529
 30
0.0
 70
0
  0
VERTEX
  5
7E
  8
1
 10
-3144.32864
 20
-949.177682
 30
0.0
 70
0
  0
VERTEX
  5
7F
  8
1
 10
-3128.943523
 20
-948.375109
 30
0.0
 70
0
  0
VERTEX
  5
80
  8
1
 10
-3113.789034
 20
-947.584566
 30
0.0
 70
0
  0
VERTEX
  5
81
  8
1
 10
-3098.403922
 20
-946.781988
 30
0.0
 70
0
  0
VERTEX
  5
82
  8
1
 10
-3083.48965
 20
-946.003969
 30
0.0
 70
0
  0
VERTEX
  5
83
  8
1
 10
-3067.574046
 20
-945.173711
 30
0.0
 70
0
  0
VERTEX
  5
84
  8
1
 10
-3052.545377
 20
-944.389724
 30
0.0
 70
0
  0
VERTEX
  5
85
  8
1
 10
-3037.481148
 20
-943.603888
 30
0.0
 70
0
  0
VERTEX
  5
86
  8
1
 10
-3022.23797
 20
-942.808722
 30
0.0
 70
0
  0
VERTEX
  5
87
  8
1
 10
-3009.493408
 20
-942.14386
 30
0.0
 70
0
  0
VERTEX
  5
88
  8
1
 10
-3009.932861
 20
-942.16835
 30
0.0
 70
0
  0
VERTEX
  5
89
  8
1
 10
-2994.18831
 20
-940.243571
 30
0.0
 70
0
  0
VERTEX
  5
8A
  8
1
 10
-2978.769362
 20
-938.255424
 30
0.0
 70
0
  0
VERTEX
  5
8B
  8
1
 10
-2963.652098
 20
-936.171436
 30
0.0
 70
0
  0
VERTEX
  5
8C
  8
1
 10
-2948.539036
 20
-933.953992
 30
0.0
 70
0
  0
VERTEX
  5
8D
  8
1
 10
-2933.459428
 20
-931.611283
 30
0.0
 70
0
  0
VERTEX
  5
8E
  8
1
 10
-2918.369767
 20
-929.113983
 30
0.0
 70
0
  0
VERTEX
  5
8F
  8
1
 10
-2903.343782
 20
-926.448785
 30
0.0
 70
0
  0
VERTEX
  5
90
  8
1
 10
-2888.207585
 20
-923.563513
 30
0.0
 70
0
  0
VERTEX
  5
91
  8
1
 10
-2873.257505
 20
-920.500356
 30
0.0
 70
0
  0
VERTEX
  5
92
  8
1
 10
-2858.485776
 20
-917.259567
 30
0.0
 70
0
  0
VERTEX
  5
93
  8
1
 10
-2843.627394
 20
-913.778335
 30
0.0
 70
0
  0
VERTEX
  5
94
  8
1
 10
-2828.90752
 20
-910.097751
 30
0.0
 70
0
  0
VERTEX
  5
95
  8
1
 10
-2814.160779
 20
-906.170974
 30
0.0
 70
0
  0
VERTEX
  5
96
  8
1
 10
-2799.4713
 20
-902.029851
 30
0.0
 70
0
  0
VERTEX
  5
97
  8
1
 10
-2784.839496
 20
-897.695042
 30
0.0
 70
0
  0
VERTEX
  5
98
  8
1
 10
-2770.286927
 20
-893.20928
 30
0.0
 70
0
  0
VERTEX
  5
99
  8
1
 10
-2755.747132
 20
-888.574623
 30
0.0
 70
0
  0
VERTEX
  5
9A
  8
1
 10
-2741.34761
 20
-883.816582
 30
0.0
 70
0
  0
VERTEX
  5
9B
  8
1
 10
-2726.910002
 20
-878.873859
 30
0.0
 70
0
  0
VERTEX
  5
9C
  8
1
 10
-2718.771667
 20
-876.016464
 30
0.0
 70
0
  0
VERTEX
  5
9D
  8
1
 10
-2712.542479
 20
-873.829315
 30
0.0
 70
0
  0
VERTEX
  5
9E
  8
1
 10
-2698.551958
 20
-868.847106
 30
0.0
 70
0
  0
VERTEX
  5
9F
  8
1
 10
-2697.338562
 20
-868.41156
 30
0.0
 70
0
  0
VERTEX
  5
A0
  8
1
 10
-2690.127563
 20
-872.490921
 30
0.0
 70
0
  0
VERTEX
  5
A1
  8
1
 10
-2688.858111
 20
-879.955065
 30
0.0
 70
0
  0
VERTEX
  5
A2
  8
1
 10
-2687.446092
 20
-886.784559
 30
0.0
 70
0
  0
VERTEX
  5
A3
  8
1
 10
-2685.974829
 20
-892.758834
 30
0.0
 70
0
  0
VERTEX
  5
A4
  8
1
 10
-2684.433355
 20
-898.021426
 30
0.0
 70
0
  0
VERTEX
  5
A5
  8
1
 10
-2682.705986
 20
-903.069018
 30
0.0
 70
0
  0
VERTEX
  5
A6
  8
1
 10
-2680.741913
 20
-908.045289
 30
0.0
 70
0
  0
VERTEX
  5
A7
  8
1
 10
-2678.707085
 20
-912.563658
 30
0.0
 70
0
  0
VERTEX
  5
A8
  8
1
 10
-2676.546912
 20
-916.77203
 30
0.0
 70
0
  0
VERTEX
  5
A9
  8
1
 10
-2674.287806
 20
-920.650341
 30
0.0
 70
0
  0
VERTEX
  5
AA
  8
1
 10
-2671.934022
 20
-924.211601
 30
0.0
 70
0
  0
VERTEX
  5
AB
  8
1
 10
-2669.52902
 20
-927.415853
 30
0.0
 70
0
  0
VERTEX
  5
AC
  8
1
 10
-2667.027715
 20
-930.340948
 30
0.0
 70
0
  0
VERTEX
  5
AD
  8
1
 10
-2664.46917
 20
-932.951708
 30
0.0
 70
0
  0
VERTEX
  5
AE
  8
1
 10
-2661.837268
 20
-935.281213
 30
0.0
 70
0
  0
VERTEX
  5
AF
  8
1
 10
-2658.93615
 20
-937.511766
 30
0.0
 70
0
  0
VERTEX
  5
B0
  8
1
 10
-2655.656282
 20
-939.719337
 30
0.0
 70
0
  0
VERTEX
  5
B1
  8
1
 10
-2651.877082
 20
-941.951706
 30
0.0
 70
0
  0
VERTEX
  5
B2
  8
1
 10
-2647.706462
 20
-944.120052
 30
0.0
 70
0
  0
VERTEX
  5
B3
  8
1
 10
-2642.960294
 20
-946.295856
 30
0.0
 70
0
  0
VERTEX
  5
B4
  8
1
 10
-2637.635485
 20
-948.452376
 30
0.0
 70
0
  0
VERTEX
  5
B5
  8
1
 10
-2631.67315
 20
-950.589716
 30
0.0
 70
0
  0
VERTEX
  5
B6
  8
1
 10
-2624.955703
 20
-952.729991
 30
0.0
 70
0
  0
VERTEX
  5
B7
  8
1
 10
-2617.188555
 20
-954.9306
 30
0.0
 70
0
  0
VERTEX
  5
B8
  8
1
 10
-2607.145987
 20
-957.48346
 30
0.0
 70
0
  0
VERTEX
  5
B9
  8
1
 10
-2604.122314
 20
-958.205261
 30
0.0
 70
0
  0
VERTEX
  5
BA
  8
1
 10
-2588.371872
 20
-962.188765
 30
0.0
 70
0
  0
VERTEX
  5
BB
  8
1
 10
-2573.515255
 20
-965.948462
 30
0.0
 70
0
  0
VERTEX
  5
BC
  8
1
 10
-2558.405228
 20
-969.775397
 30
0.0
 70
0
  0
VERTEX
  5
BD
  8
1
 10
-2543.555611
 20
-973.540064
 30
0.0
 70
0
  0
VERTEX
  5
BE
  8
1
 10
-2528.803667
 20
-977.283911
 30
0.0
 70
0
  0
VERTEX
  5
BF
  8
1
 10
-2513.955936
 20
-981.056027
 30
0.0
 70
0
  0
VERTEX
  5
C0
  8
1
 10
-2498.934902
 20
-984.875974
 30
0.0
 70
0
  0
VERTEX
  5
C1
  8
1
 10
-2484.222564
 20
-988.620419
 30
0.0
 70
0
  0
VERTEX
  5
C2
  8
1
 10
-2469.444826
 20
-992.383892
 30
0.0
 70
0
  0
VERTEX
  5
C3
  8
1
 10
-2469.141388
 20
-992.461243
 30
0.0
 70
0
  0
VERTEX
  5
C4
  8
1
 10
-2456.582794
 20
-995.661392
 30
0.0
 70
0
  0
VERTEX
  5
C5
  8
1
 10
-2457.344552
 20
-1011.173019
 30
0.0
 70
0
  0
VERTEX
  5
C6
  8
1
 10
-2457.383728
 20
-1011.970139
 30
0.0
 70
0
  0
VERTEX
  5
C7
  8
1
 10
-2458.098309
 20
-1026.513213
 30
0.0
 70
0
  0
VERTEX
  5
C8
  8
1
 10
-2458.853954
 20
-1041.853304
 30
0.0
 70
0
  0
VERTEX
  5
C9
  8
1
 10
-2459.608305
 20
-1057.101629
 30
0.0
 70
0
  0
VERTEX
  5
CA
  8
1
 10
-2460.370237
 20
-1072.441434
 30
0.0
 70
0
  0
VERTEX
  5
CB
  8
1
 10
-2461.127267
 20
-1087.633451
 30
0.0
 70
0
  0
VERTEX
  5
CC
  8
1
 10
-2461.894128
 20
-1102.97299
 30
0.0
 70
0
  0
VERTEX
  5
CD
  8
1
 10
-2462.662241
 20
-1118.283102
 30
0.0
 70
0
  0
VERTEX
  5
CE
  8
1
 10
-2463.434731
 20
-1133.622367
 30
0.0
 70
0
  0
VERTEX
  5
CF
  8
1
 10
-2464.213277
 20
-1149.020508
 30
0.0
 70
0
  0
VERTEX
  5
D0
  8
1
 10
-2464.992185
 20
-1164.359469
 30
0.0
 70
0
  0
VERTEX
  5
D1
  8
1
 10
-2465.760817
 20
-1179.424075
 30
0.0
 70
0
  0
VERTEX
  5
D2
  8
1
 10
-2466.191559
 20
-1187.834854
 30
0.0
 70
0
  0
VERTEX
  5
D3
  8
1
 10
-2466.547283
 20
-1194.762629
 30
0.0
 70
0
  0
VERTEX
  5
D4
  8
1
 10
-2467.339275
 20
-1210.137014
 30
0.0
 70
0
  0
VERTEX
  5
D5
  8
1
 10
-2468.132303
 20
-1225.475201
 30
0.0
 70
0
  0
VERTEX
  5
D6
  8
1
 10
-2468.903323
 20
-1240.364854
 30
0.0
 70
0
  0
VERTEX
  5
D7
  8
1
 10
-2469.044037
 20
-1243.081589
 30
0.0
 70
0
  0
VERTEX
  5
D8
  8
1
 10
-2474.056689
 20
-1243.469295
 30
0.0
 70
0
  0
VERTEX
  5
D9
  8
1
 10
-2481.81076
 20
-1244.042969
 30
0.0
 70
0
  0
VERTEX
  5
DA
  8
1
 10
-2488.875221
 20
-1244.565595
 30
0.0
 70
0
  0
VERTEX
  5
DB
  8
1
 10
-2503.907057
 20
-1245.6032
 30
0.0
 70
0
  0
VERTEX
  5
DC
  8
1
 10
-2519.039248
 20
-1246.546483
 30
0.0
 70
0
  0
VERTEX
  5
DD
  8
1
 10
-2534.372247
 20
-1247.379304
 30
0.0
 70
0
  0
VERTEX
  5
DE
  8
1
 10
-2549.422499
 20
-1248.07056
 30
0.0
 70
0
  0
VERTEX
  5
DF
  8
1
 10
-2564.767766
 20
-1248.632748
 30
0.0
 70
0
  0
VERTEX
  5
E0
  8
1
 10
-2579.804049
 20
-1249.02734
 30
0.0
 70
0
  0
VERTEX
  5
E1
  8
1
 10
-2595.157692
 20
-1249.274357
 30
0.0
 70
0
  0
VERTEX
  5
E2
  8
1
 10
-2610.435136
 20
-1249.379825
 30
0.0
 70
0
  0
VERTEX
  5
E3
  8
1
 10
-2625.790611
 20
-1249.354922
 30
0.0
 70
0
  0
VERTEX
  5
E4
  8
1
 10
-2641.080599
 20
-1249.206207
 30
0.0
 70
0
  0
VERTEX
  5
E5
  8
1
 10
-2656.433851
 20
-1248.940894
 30
0.0
 70
0
  0
VERTEX
  5
E6
  8
1
 10
-2671.862627
 20
-1248.566773
 30
0.0
 70
0
  0
VERTEX
  5
E7
  8
1
 10
-2687.210969
 20
-1248.096639
 30
0.0
 70
0
  0
VERTEX
  5
E8
  8
1
 10
-2702.491457
 20
-1247.540181
 30
0.0
 70
0
  0
VERTEX
  5
E9
  8
1
 10
-2717.833594
 20
-1246.902341
 30
0.0
 70
0
  0
VERTEX
  5
EA
  8
1
 10
-2733.220732
 20
-1246.194886
 30
0.0
 70
0
  0
VERTEX
  5
EB
  8
1
 10
-2748.558056
 20
-1245.448667
 30
0.0
 70
0
  0
VERTEX
  5
EC
  8
1
 10
-2763.816637
 20
-1244.69641
 30
0.0
 70
0
  0
VERTEX
  5
ED
  8
1
 10
-2779.153451
 20
-1243.941283
 30
0.0
 70
0
  0
VERTEX
  5
EE
  8
1
 10
-2794.490417
 20
-1243.18883
 30
0.0
 70
0
  0
VERTEX
  5
EF
  8
1
 10
-2809.660595
 20
-1242.44852
 30
0.0
 70
0
  0
VERTEX
  5
F0
  8
1
 10
-2824.997984
 20
-1241.703574
 30
0.0
 70
0
  0
VERTEX
  5
F1
  8
1
 10
-2840.050839
 20
-1240.974903
 30
0.0
 70
0
  0
VERTEX
  5
F2
  8
1
 10
-2855.388494
 20
-1240.234838
 30
0.0
 70
0
  0
VERTEX
  5
F3
  8
1
 10
-2870.845729
 20
-1239.491643
 30
0.0
 70
0
  0
VERTEX
  5
F4
  8
1
 10
-2886.183561
 20
-1238.756702
 30
0.0
 70
0
  0
VERTEX
  5
F5
  8
1
 10
-2901.601949
 20
-1238.02023
 30
0.0
 70
0
  0
VERTEX
  5
F6
  8
1
 10
-2916.93996
 20
-1237.289879
 30
0.0
 70
0
  0
VERTEX
  5
F7
  8
1
 10
-2931.951751
 20
-1236.577263
 30
0.0
 70
0
  0
VERTEX
  5
F8
  8
1
 10
-2947.290046
 20
-1235.85131
 30
0.0
 70
0
  0
VERTEX
  5
F9
  8
1
 10
-2962.697743
 20
-1235.124258
 30
0.0
 70
0
  0
VERTEX
  5
FA
  8
1
 10
-2978.565082
 20
-1234.378331
 30
0.0
 70
0
  0
VERTEX
  5
FB
  8
1
 10
-2993.460768
 20
-1233.68096
 30
0.0
 70
0
  0
SEQEND
  5
33
  8
1
  0
POLYLINE
  5
FC
  8
14
 66
1
 10
0.0
 20
0.0
 30
0.0
 70
1
  0
VERTEX
  5
FE
  8
14
 10
-3008.834839
 20
-1220.249634
 30
0.0
 70
0
  0
VERTEX
  5
FF
  8
14
 10
-3008.834839
 20
-1220.249634
 30
0.0
 70
0
  0
VERTEX
  5
100
  8
14
 10
-3013.757448
 20
-1220.095505
 30
0.0
 70
0
  0
VERTEX
  5
101
  8
14
 10
-3028.904746
 20
-1219.606948
 30
0.0
 70
0
  0
VERTEX
  5
102
  8
14
 10
-3043.983004
 20
-1219.106131
 30
0.0
 70
0
  0
VERTEX
  5
103
  8
14
 10
-3059.228963
 20
-1218.587392
 30
0.0
 70
0
  0
VERTEX
  5
104
  8
14
 10
-3076.648232
 20
-1217.980569
 30
0.0
 70
0
  0
VERTEX
  5
105
  8
14
 10
-3091.982282
 20
-1217.434266
 30
0.0
 70
0
  0
VERTEX
  5
106
  8
14
 10
-3108.422424
 20
-1216.836005
 30
0.0
 70
0
  0
VERTEX
  5
107
  8
14
 10
-3125.842068
 20
-1216.18775
 30
0.0
 70
0
  0
VERTEX
  5
108
  8
14
 10
-3144.114624
 20
-1215.491463
 30
0.0
 70
0
  0
VERTEX
  5
109
  8
14
 10
-3163.113502
 20
-1214.749107
 30
0.0
 70
0
  0
VERTEX
  5
10A
  8
14
 10
-3182.712114
 20
-1213.962644
 30
0.0
 70
0
  0
VERTEX
  5
10B
  8
14
 10
-3197.728495
 20
-1213.345033
 30
0.0
 70
0
  0
VERTEX
  5
10C
  8
14
 10
-3212.957615
 20
-1212.704545
 30
0.0
 70
0
  0
VERTEX
  5
10D
  8
14
 10
-3228.346086
 20
-1212.042006
 30
0.0
 70
0
  0
VERTEX
  5
10E
  8
14
 10
-3243.840467
 20
-1211.358246
 30
0.0
 70
0
  0
VERTEX
  5
10F
  8
14
 10
-3262.20107
 20
-1210.52461
 30
0.0
 70
0
  0
VERTEX
  5
110
  8
14
 10
-3277.731037
 20
-1209.798932
 30
0.0
 70
0
  0
VERTEX
  5
111
  8
14
 10
-3293.153056
 20
-1209.061105
 30
0.0
 70
0
  0
VERTEX
  5
112
  8
14
 10
-3308.376461
 20
-1208.317408
 30
0.0
 70
0
  0
VERTEX
  5
113
  8
14
 10
-3328.208672
 20
-1207.327536
 30
0.0
 70
0
  0
VERTEX
  5
114
  8
14
 10
-3347.311696
 20
-1206.353279
 30
0.0
 70
0
  0
VERTEX
  5
115
  8
14
 10
-3365.470623
 20
-1205.409524
 30
0.0
 70
0
  0
VERTEX
  5
116
  8
14
 10
-3382.470541
 20
-1204.511157
 30
0.0
 70
0
  0
VERTEX
  5
117
  8
14
 10
-3398.096539
 20
-1203.673062
 30
0.0
 70
0
  0
VERTEX
  5
118
  8
14
 10
-3415.369558
 20
-1202.73288
 30
0.0
 70
0
  0
VERTEX
  5
119
  8
14
 10
-3432.22921
 20
-1201.800614
 30
0.0
 70
0
  0
VERTEX
  5
11A
  8
14
 10
-3451.333923
 20
-1200.722656
 30
0.0
 70
0
  0
VERTEX
  5
11B
  8
14
 10
-3451.333923
 20
-1200.722656
 30
0.0
 70
0
  0
VERTEX
  5
11C
  8
14
 10
-3451.272212
 20
-1184.102795
 30
0.0
 70
0
  0
VERTEX
  5
11D
  8
14
 10
-3451.2077
 20
-1166.725007
 30
0.0
 70
0
  0
VERTEX
  5
11E
  8
14
 10
-3451.144597
 20
-1149.72374
 30
0.0
 70
0
  0
VERTEX
  5
11F
  8
14
 10
-3451.083255
 20
-1133.194137
 30
0.0
 70
0
  0
VERTEX
  5
120
  8
14
 10
-3451.018048
 20
-1115.619175
 30
0.0
 70
0
  0
VERTEX
  5
121
  8
14
 10
-3450.96042
 20
-1100.083169
 30
0.0
 70
0
  0
VERTEX
  5
122
  8
14
 10
-3450.89853
 20
-1083.394071
 30
0.0
 70
0
  0
VERTEX
  5
123
  8
14
 10
-3450.841117
 20
-1067.908226
 30
0.0
 70
0
  0
VERTEX
  5
124
  8
14
 10
-3450.785287
 20
-1052.846259
 30
0.0
 70
0
  0
VERTEX
  5
125
  8
14
 10
-3450.723408
 20
-1036.148986
 30
0.0
 70
0
  0
VERTEX
  5
126
  8
14
 10
-3450.666456
 20
-1020.77869
 30
0.0
 70
0
  0
VERTEX
  5
127
  8
14
 10
-3450.609319
 20
-1005.355574
 30
0.0
 70
0
  0
VERTEX
  5
128
  8
14
 10
-3450.553086
 20
-990.174193
 30
0.0
 70
0
  0
VERTEX
  5
129
  8
14
 10
-3450.507507
 20
-977.86705
 30
0.0
 70
0
  0
VERTEX
  5
12A
  8
14
 10
-3450.507507
 20
-977.86705
 30
0.0
 70
0
  0
VERTEX
  5
12B
  8
14
 10
-3426.761105
 20
-976.628299
 30
0.0
 70
0
  0
VERTEX
  5
12C
  8
14
 10
-3409.7474
 20
-975.740764
 30
0.0
 70
0
  0
VERTEX
  5
12D
  8
14
 10
-3389.094401
 20
-974.663383
 30
0.0
 70
0
  0
VERTEX
  5
12E
  8
14
 10
-3365.347994
 20
-973.424632
 30
0.0
 70
0
  0
VERTEX
  5
12F
  8
14
 10
-3348.068081
 20
-972.52321
 30
0.0
 70
0
  0
VERTEX
  5
130
  8
14
 10
-3329.81769
 20
-971.571163
 30
0.0
 70
0
  0
VERTEX
  5
131
  8
14
 10
-3310.758567
 20
-970.576928
 30
0.0
 70
0
  0
VERTEX
  5
132
  8
14
 10
-3291.052458
 20
-969.548942
 30
0.0
 70
0
  0
VERTEX
  5
133
  8
14
 10
-3270.861109
 20
-968.495643
 30
0.0
 70
0
  0
VERTEX
  5
134
  8
14
 10
-3250.346268
 20
-967.425469
 30
0.0
 70
0
  0
VERTEX
  5
135
  8
14
 10
-3229.66966
 20
-966.346856
 30
0.0
 70
0
  0
VERTEX
  5
136
  8
14
 10
-3208.993072
 20
-965.268244
 30
0.0
 70
0
  0
VERTEX
  5
137
  8
14
 10
-3188.47823
 20
-964.19807
 30
0.0
 70
0
  0
VERTEX
  5
138
  8
14
 10
-3168.28688
 20
-963.144771
 30
0.0
 70
0
  0
VERTEX
  5
139
  8
14
 10
-3148.58077
 20
-962.116785
 30
0.0
 70
0
  0
VERTEX
  5
13A
  8
14
 10
-3129.521645
 20
-961.122549
 30
0.0
 70
0
  0
VERTEX
  5
13B
  8
14
 10
-3111.271252
 20
-960.170502
 30
0.0
 70
0
  0
VERTEX
  5
13C
  8
14
 10
-3093.991337
 20
-959.269081
 30
0.0
 70
0
  0
VERTEX
  5
13D
  8
14
 10
-3077.843647
 20
-958.426723
 30
0.0
 70
0
  0
VERTEX
  5
13E
  8
14
 10
-3062.989929
 20
-957.651866
 30
0.0
 70
0
  0
VERTEX
  5
13F
  8
14
 10
-3043.489356
 20
-956.634602
 30
0.0
 70
0
  0
VERTEX
  5
140
  8
14
 10
-3027.810063
 20
-955.816678
 30
0.0
 70
0
  0
VERTEX
  5
141
  8
14
 10
-3013.792026
 20
-955.085415
 30
0.0
 70
0
  0
VERTEX
  5
142
  8
14
 10
-3008.831787
 20
-954.82666
 30
0.0
 70
0
  0
VERTEX
  5
143
  8
14
 10
-3008.831787
 20
-954.82666
 30
0.0
 70
0
  0
VERTEX
  5
144
  8
14
 10
-2992.017848
 20
-952.792219
 30
0.0
 70
0
  0
VERTEX
  5
145
  8
14
 10
-2975.99976
 20
-950.698751
 30
0.0
 70
0
  0
VERTEX
  5
146
  8
14
 10
-2960.131211
 20
-948.492763
 30
0.0
 70
0
  0
VERTEX
  5
147
  8
14
 10
-2944.481493
 20
-946.183513
 30
0.0
 70
0
  0
VERTEX
  5
148
  8
14
 10
-2927.83469
 20
-943.566741
 30
0.0
 70
0
  0
VERTEX
  5
149
  8
14
 10
-2912.795282
 20
-941.04017
 30
0.0
 70
0
  0
VERTEX
  5
14A
  8
14
 10
-2897.704604
 20
-938.322232
 30
0.0
 70
0
  0
VERTEX
  5
14B
  8
14
 10
-2882.552184
 20
-935.386615
 30
0.0
 70
0
  0
VERTEX
  5
14C
  8
14
 10
-2867.439686
 20
-932.244191
 30
0.0
 70
0
  0
VERTEX
  5
14D
  8
14
 10
-2852.372939
 20
-928.890191
 30
0.0
 70
0
  0
VERTEX
  5
14E
  8
14
 10
-2837.357697
 20
-925.319829
 30
0.0
 70
0
  0
VERTEX
  5
14F
  8
14
 10
-2822.399789
 20
-921.528337
 30
0.0
 70
0
  0
VERTEX
  5
150
  8
14
 10
-2806.036852
 20
-917.102169
 30
0.0
 70
0
  0
VERTEX
  5
151
  8
14
 10
-2791.32489
 20
-912.884255
 30
0.0
 70
0
  0
VERTEX
  5
152
  8
14
 10
-2777.010897
 20
-908.59139
 30
0.0
 70
0
  0
VERTEX
  5
153
  8
14
 10
-2761.43654
 20
-903.731909
 30
0.0
 70
0
  0
VERTEX
  5
154
  8
14
 10
-2747.030442
 20
-899.076574
 30
0.0
 70
0
  0
VERTEX
  5
155
  8
14
 10
-2732.65061
 20
-894.283906
 30
0.0
 70
0
  0
VERTEX
  5
156
  8
14
 10
-2718.395792
 20
-889.388466
 30
0.0
 70
0
  0
VERTEX
  5
157
  8
14
 10
-2704.130554
 20
-884.318542
 30
0.0
 70
0
  0
VERTEX
  5
158
  8
14
 10
-2704.130554
 20
-884.318542
 30
0.0
 70
0
  0
VERTEX
  5
159
  8
14
 10
-2703.125736
 20
-889.821634
 30
0.0
 70
0
  0
VERTEX
  5
15A
  8
14
 10
-2701.680644
 20
-895.938406
 30
0.0
 70
0
  0
VERTEX
  5
15B
  8
14
 10
-2699.873299
 20
-902.253582
 30
0.0
 70
0
  0
VERTEX
  5
15C
  8
14
 10
-2697.980147
 20
-907.891176
 30
0.0
 70
0
  0
VERTEX
  5
15D
  8
14
 10
-2695.648956
 20
-913.886093
 30
0.0
 70
0
  0
VERTEX
  5
15E
  8
14
 10
-2693.220476
 20
-919.306422
 30
0.0
 70
0
  0
VERTEX
  5
15F
  8
14
 10
-2690.830268
 20
-924.001982
 30
0.0
 70
0
  0
VERTEX
  5
160
  8
14
 10
-2688.138519
 20
-928.67626
 30
0.0
 70
0
  0
VERTEX
  5
161
  8
14
 10
-2685.129471
 20
-933.265747
 30
0.0
 70
0
  0
VERTEX
  5
162
  8
14
 10
-2682.368184
 20
-936.979734
 30
0.0
 70
0
  0
VERTEX
  5
163
  8
14
 10
-2679.366497
 20
-940.553976
 30
0.0
 70
0
  0
VERTEX
  5
164
  8
14
 10
-2676.115281
 20
-943.951737
 30
0.0
 70
0
  0
VERTEX
  5
165
  8
14
 10
-2672.524091
 20
-947.205465
 30
0.0
 70
0
  0
VERTEX
  5
166
  8
14
 10
-2668.757412
 20
-950.156107
 30
0.0
 70
0
  0
VERTEX
  5
167
  8
14
 10
-2664.767078
 20
-952.888589
 30
0.0
 70
0
  0
VERTEX
  5
168
  8
14
 10
-2660.582137
 20
-955.415738
 30
0.0
 70
0
  0
VERTEX
  5
169
  8
14
 10
-2655.344226
 20
-958.195334
 30
0.0
 70
0
  0
VERTEX
  5
16A
  8
14
 10
-2649.918088
 20
-960.71989
 30
0.0
 70
0
  0
VERTEX
  5
16B
  8
14
 10
-2644.35393
 20
-963.011565
 30
0.0
 70
0
  0
VERTEX
  5
16C
  8
14
 10
-2637.754905
 20
-965.420429
 30
0.0
 70
0
  0
VERTEX
  5
16D
  8
14
 10
-2630.315767
 20
-967.82292
 30
0.0
 70
0
  0
VERTEX
  5
16E
  8
14
 10
-2622.129952
 20
-970.18347
 30
0.0
 70
0
  0
VERTEX
  5
16F
  8
14
 10
-2613.16808
 20
-972.509622
 30
0.0
 70
0
  0
VERTEX
  5
170
  8
14
 10
-2607.916565
 20
-973.751526
 30
0.0
 70
0
  0
VERTEX
  5
171
  8
14
 10
-2591.674221
 20
-977.859018
 30
0.0
 70
0
  0
VERTEX
  5
172
  8
14
 10
-2575.6985
 20
-981.902612
 30
0.0
 70
0
  0
VERTEX
  5
173
  8
14
 10
-2559.640968
 20
-985.970317
 30
0.0
 70
0
  0
VERTEX
  5
174
  8
14
 10
-2543.875074
 20
-989.967945
 30
0.0
 70
0
  0
VERTEX
  5
175
  8
14
 10
-2528.987409
 20
-993.747118
 30
0.0
 70
0
  0
VERTEX
  5
176
  8
14
 10
-2513.210898
 20
-997.756459
 30
0.0
 70
0
  0
VERTEX
  5
177
  8
14
 10
-2498.660748
 20
-1001.457495
 30
0.0
 70
0
  0
VERTEX
  5
178
  8
14
 10
-2484.051408
 20
-1005.176401
 30
0.0
 70
0
  0
VERTEX
  5
179
  8
14
 10
-2469.941864
 20
-1008.770828
 30
0.0
 70
0
  0
VERTEX
  5
17A
  8
14
 10
-2469.940643
 20
-1008.745651
 30
0.0
 70
0
  0
VERTEX
  5
17B
  8
14
 10
-2469.941864
 20
-1008.770828
 30
0.0
 70
0
  0
VERTEX
  5
17C
  8
14
 10
-2470.769824
 20
-1025.639841
 30
0.0
 70
0
  0
VERTEX
  5
17D
  8
14
 10
-2471.600797
 20
-1042.48833
 30
0.0
 70
0
  0
VERTEX
  5
17E
  8
14
 10
-2472.37606
 20
-1058.148211
 30
0.0
 70
0
  0
VERTEX
  5
17F
  8
14
 10
-2473.159485
 20
-1073.918402
 30
0.0
 70
0
  0
VERTEX
  5
180
  8
14
 10
-2474.019416
 20
-1091.166063
 30
0.0
 70
0
  0
VERTEX
  5
181
  8
14
 10
-2474.82537
 20
-1107.270526
 30
0.0
 70
0
  0
VERTEX
  5
182
  8
14
 10
-2475.673019
 20
-1124.142376
 30
0.0
 70
0
  0
VERTEX
  5
183
  8
14
 10
-2476.554485
 20
-1141.611839
 30
0.0
 70
0
  0
VERTEX
  5
184
  8
14
 10
-2477.330971
 20
-1156.93262
 30
0.0
 70
0
  0
VERTEX
  5
185
  8
14
 10
-2478.121554
 20
-1172.460819
 30
0.0
 70
0
  0
VERTEX
  5
186
  8
14
 10
-2478.874817
 20
-1187.184372
 30
0.0
 70
0
  0
VERTEX
  5
187
  8
14
 10
-2478.874883
 20
-1187.185239
 30
0.0
 70
0
  0
VERTEX
  5
188
  8
14
 10
-2479.789676
 20
-1204.971886
 30
0.0
 70
0
  0
VERTEX
  5
189
  8
14
 10
-2480.564394
 20
-1219.974453
 30
0.0
 70
0
  0
VERTEX
  5
18A
  8
14
 10
-2481.147919
 20
-1231.241608
 30
0.0
 70
0
  0
VERTEX
  5
18B
  8
14
 10
-2481.147919
 20
-1231.241608
 30
0.0
 70
0
  0
VERTEX
  5
18C
  8
14
 10
-2491.559836
 20
-1232.014514
 30
0.0
 70
0
  0
VERTEX
  5
18D
  8
14
 10
-2506.24491
 20
-1233.014855
 30
0.0
 70
0
  0
VERTEX
  5
18E
  8
14
 10
-2521.016688
 20
-1233.925924
 30
0.0
 70
0
  0
VERTEX
  5
18F
  8
14
 10
-2537.452463
 20
-1234.816015
 30
0.0
 70
0
  0
VERTEX
  5
190
  8
14
 10
-2552.618164
 20
-1235.497431
 30
0.0
 70
0
  0
VERTEX
  5
191
  8
14
 10
-2567.695668
 20
-1236.016755
 30
0.0
 70
0
  0
VERTEX
  5
192
  8
14
 10
-2582.779013
 20
-1236.382142
 30
0.0
 70
0
  0
VERTEX
  5
193
  8
14
 10
-2597.866535
 20
-1236.602158
 30
0.0
 70
0
  0
VERTEX
  5
194
  8
14
 10
-2612.956573
 20
-1236.685369
 30
0.0
 70
0
  0
VERTEX
  5
195
  8
14
 10
-2628.047464
 20
-1236.640339
 30
0.0
 70
0
  0
VERTEX
  5
196
  8
14
 10
-2643.137546
 20
-1236.475635
 30
0.0
 70
0
  0
VERTEX
  5
197
  8
14
 10
-2660.380246
 20
-1236.151847
 30
0.0
 70
0
  0
VERTEX
  5
198
  8
14
 10
-2674.686428
 20
-1235.782122
 30
0.0
 70
0
  0
VERTEX
  5
199
  8
14
 10
-2689.765787
 20
-1235.301884
 30
0.0
 70
0
  0
VERTEX
  5
19A
  8
14
 10
-2704.841629
 20
-1234.737475
 30
0.0
 70
0
  0
VERTEX
  5
19B
  8
14
 10
-2720.965179
 20
-1234.050537
 30
0.0
 70
0
  0
VERTEX
  5
19C
  8
14
 10
-2736.035339
 20
-1233.345728
 30
0.0
 70
0
  0
VERTEX
  5
19D
  8
14
 10
-2751.104176
 20
-1232.607777
 30
0.0
 70
0
  0
VERTEX
  5
19E
  8
14
 10
-2767.417264
 20
-1231.802216
 30
0.0
 70
0
  0
VERTEX
  5
19F
  8
14
 10
-2782.444173
 20
-1231.063628
 30
0.0
 70
0
  0
VERTEX
  5
1A0
  8
14
 10
-2799.510966
 20
-1230.228617
 30
0.0
 70
0
  0
VERTEX
  5
1A1
  8
14
 10
-2816.396021
 20
-1229.40624
 30
0.0
 70
0
  0
VERTEX
  5
1A2
  8
14
 10
-2833.028642
 20
-1228.599563
 30
0.0
 70
0
  0
VERTEX
  5
1A3
  8
14
 10
-2849.338119
 20
-1227.811651
 30
0.0
 70
0
  0
VERTEX
  5
1A4
  8
14
 10
-2865.253739
 20
-1227.04557
 30
0.0
 70
0
  0
VERTEX
  5
1A5
  8
14
 10
-2880.704789
 20
-1226.304385
 30
0.0
 70
0
  0
VERTEX
  5
1A6
  8
14
 10
-2897.443869
 20
-1225.504128
 30
0.0
 70
0
  0
VERTEX
  5
1A7
  8
14
 10
-2913.404802
 20
-1224.743624
 30
0.0
 70
0
  0
VERTEX
  5
1A8
  8
14
 10
-2930.104085
 20
-1223.950554
 30
0.0
 70
0
  0
VERTEX
  5
1A9
  8
14
 10
-2945.580269
 20
-1223.21794
 30
0.0
 70
0
  0
VERTEX
  5
1AA
  8
14
 10
-2961.026582
 20
-1222.489035
 30
0.0
 70
0
  0
VERTEX
  5
1AB
  8
14
 10
-2976.906489
 20
-1221.742151
 30
0.0
 70
0
  0
VERTEX
  5
1AC
  8
14
 10
-2992.491986
 20
-1221.011782
 30
0.0
 70
0
  0
SEQEND
  5
FD
  8
14
  0
POLYLINE
  5
1AD
  8
8
 66
1
 10
0.0
 20
0.0
 30
0.0
 70
0
  0
VERTEX
  5
1AF
  8
8
 10
-2507.796936
 20
-1036.676483
 30
0.0
 70
0
  0
VERTEX
  5
1B0
  8
8
 10
-2509.069234
 20
-1055.21481
 30
0.0
 70
0
  0
VERTEX
  5
1B1
  8
8
 10
-2510.203473
 20
-1071.74151
 30
0.0
 70
0
  0
VERTEX
  5
1B2
  8
8
 10
-2511.309767
 20
-1087.861043
 30
0.0
 70
0
  0
VERTEX
  5
1B3
  8
8
 10
-2512.499182
 20
-1105.1917
 30
0.0
 70
0
  0
VERTEX
  5
1B4
  8
8
 10
-2513.712346
 20
-1122.868404
 30
0.0
 70
0
  0
VERTEX
  5
1B5
  8
8
 10
-2514.889887
 20
-1140.026045
 30
0.0
 70
0
  0
VERTEX
  5
1B6
  8
8
 10
-2515.972433
 20
-1155.79955
 30
0.0
 70
0
  0
VERTEX
  5
1B7
  8
8
 10
-2517.0625
 20
-1171.682629
 30
0.0
 70
0
  0
VERTEX
  5
1B8
  8
8
 10
-2518.056385
 20
-1186.16427
 30
0.0
 70
0
  0
VERTEX
  5
1B9
  8
8
 10
-2518.172913
 20
-1187.862167
 30
0.0
 70
0
  0
SEQEND
  5
1AE
  8
8
  0
POLYLINE
  5
1BA
  8
8
 66
1
 10
0.0
 20
0.0
 30
0.0
 70
0
  0
VERTEX
  5
1BC
  8
8
 10
-2606.329041
 20
-970.297089
 30
0.0
 70
0
  0
VERTEX
  5
1BD
  8
8
 10
-2630.575867
 20
-1236.461792
 30
0.0
 70
0
  0
SEQEND
  5
1BB
  8
8
  0
POLYLINE
  5
1BE
  8
8
 66
1
 10
0.0
 20
0.0
 30
0.0
 70
0
  0
VERTEX
  5
1C0
  8
8
 10
-3450.920715
 20
-1093.063278
 30
0.0
 70
0
  0
VERTEX
  5
1C1
  8
8
 10
-3430.502818
 20
-1093.05579
 30
0.0
 70
0
  0
VERTEX
  5
1C2
  8
8
 10
-3412.816183
 20
-1093.04963
 30
0.0
 70
0
  0
VERTEX
  5
1C3
  8
8
 10
-3395.241795
 20
-1093.043736
 30
0.0
 70
0
  0
VERTEX
  5
1C4
  8
8
 10
-3374.889915
 20
-1093.037164
 30
0.0
 70
0
  0
VERTEX
  5
1C5
  8
8
 10
-3357.951554
 20
-1093.031892
 30
0.0
 70
0
  0
VERTEX
  5
1C6
  8
8
 10
-3339.693469
 20
-1093.026405
 30
0.0
 70
0
  0
VERTEX
  5
1C7
  8
8
 10
-3320.21967
 20
-1093.020772
 30
0.0
 70
0
  0
VERTEX
  5
1C8
  8
8
 10
-3299.634113
 20
-1093.015065
 30
0.0
 70
0
  0
VERTEX
  5
1C9
  8
8
 10
-3278.040826
 20
-1093.009354
 30
0.0
 70
0
  0
VERTEX
  5
1CA
  8
8
 10
-3255.543731
 20
-1093.003711
 30
0.0
 70
0
  0
VERTEX
  5
1CB
  8
8
 10
-3240.094907
 20
-1093.000021
 30
0.0
 70
0
  0
VERTEX
  5
1CC
  8
8
 10
-3224.321464
 20
-1092.996413
 30
0.0
 70
0
  0
VERTEX
  5
1CD
  8
8
 10
-3208.254178
 20
-1092.992909
 30
0.0
 70
0
  0
VERTEX
  5
1CE
  8
8
 10
-3191.923822
 20
-1092.989529
 30
0.0
 70
0
  0
VERTEX
  5
1CF
  8
8
 10
-3175.361279
 20
-1092.986294
 30
0.0
 70
0
  0
VERTEX
  5
1D0
  8
8
 10
-3158.597285
 20
-1092.983225
 30
0.0
 70
0
  0
VERTEX
  5
1D1
  8
8
 10
-3141.662724
 20
-1092.980343
 30
0.0
 70
0
  0
VERTEX
  5
1D2
  8
8
 10
-3124.588331
 20
-1092.97767
 30
0.0
 70
0
  0
VERTEX
  5
1D3
  8
8
 10
-3107.404993
 20
-1092.975225
 30
0.0
 70
0
  0
VERTEX
  5
1D4
  8
8
 10
-3090.143442
 20
-1092.97303
 30
0.0
 70
0
  0
VERTEX
  5
1D5
  8
8
 10
-3072.834565
 20
-1092.971107
 30
0.0
 70
0
  0
VERTEX
  5
1D6
  8
8
 10
-3063.525593
 20
-1092.970192
 30
0.0
 70
0
  0
VERTEX
  5
1D7
  8
8
 10
-3037.556494
 20
-1092.968092
 30
0.0
 70
0
  0
VERTEX
  5
1D8
  8
8
 10
-3020.305963
 20
-1092.967044
 30
0.0
 70
0
  0
VERTEX
  5
1D9
  8
8
 10
-3003.148789
 20
-1092.966258
 30
0.0
 70
0
  0
VERTEX
  5
1DA
  8
8
 10
-2986.122354
 20
-1092.965717
 30
0.0
 70
0
  0
VERTEX
  5
1DB
  8
8
 10
-2969.263963
 20
-1092.965406
 30
0.0
 70
0
  0
VERTEX
  5
1DC
  8
8
 10
-2952.610958
 20
-1092.965308
 30
0.0
 70
0
  0
VERTEX
  5
1DD
  8
8
 10
-2936.200684
 20
-1092.965407
 30
0.0
 70
0
  0
VERTEX
  5
1DE
  8
8
 10
-2920.070411
 20
-1092.965685
 30
0.0
 70
0
  0
VERTEX
  5
1DF
  8
8
 10
-2904.257626
 20
-1092.966127
 30
0.0
 70
0
  0
VERTEX
  5
1E0
  8
8
 10
-2888.7996
 20
-1092.966717
 30
0.0
 70
0
  0
VERTEX
  5
1E1
  8
8
 10
-2873.733676
 20
-1092.967437
 30
0.0
 70
0
  0
VERTEX
  5
1E2
  8
8
 10
-2851.951637
 20
-1092.968727
 30
0.0
 70
0
  0
VERTEX
  5
1E3
  8
8
 10
-2831.261884
 20
-1092.970219
 30
0.0
 70
0
  0
VERTEX
  5
1E4
  8
8
 10
-2811.790451
 20
-1092.971858
 30
0.0
 70
0
  0
VERTEX
  5
1E5
  8
8
 10
-2793.663371
 20
-1092.973588
 30
0.0
 70
0
  0
VERTEX
  5
1E6
  8
8
 10
-2777.006677
 20
-1092.975355
 30
0.0
 70
0
  0
VERTEX
  5
1E7
  8
8
 10
-2761.946443
 20
-1092.977102
 30
0.0
 70
0
  0
VERTEX
  5
1E8
  8
8
 10
-2744.567211
 20
-1092.979305
 30
0.0
 70
0
  0
VERTEX
  5
1E9
  8
8
 10
-2727.604445
 20
-1092.981672
 30
0.0
 70
0
  0
VERTEX
  5
1EA
  8
8
 10
-2713.789835
 20
-1092.983803
 30
0.0
 70
0
  0
VERTEX
  5
1EB
  8
8
 10
-2711.645813
 20
-1092.984161
 30
0.0
 70
0
  0
SEQEND
  5
1BF
  8
8
  0
POLYLINE
  5
1EC
  8
8
 66
1
 10
0.0
 20
0.0
 30
0.0
 70
0
  0
VERTEX
  5
1EE
  8
8
 10
-3008.831787
 20
-954.82666
 30
0.0
 70
0
  0
VERTEX
  5
1EF
  8
8
 10
-3008.831787
 20
-972.130438
 30
0.0
 70
0
  0
VERTEX
  5
1F0
  8
8
 10
-3008.831787
 20
-989.319532
 30
0.0
 70
0
  0
VERTEX
  5
1F1
  8
8
 10
-3008.831787
 20
-1005.717674
 30
0.0
 70
0
  0
VERTEX
  5
1F2
  8
8
 10
-3008.831787
 20
-1021.454477
 30
0.0
 70
0
  0
VERTEX
  5
1F3
  8
8
 10
-3008.831787
 20
-1038.401935
 30
0.0
 70
0
  0
VERTEX
  5
1F4
  8
8
 10
-3008.831787
 20
-1056.236711
 30
0.0
 70
0
  0
VERTEX
  5
1F5
  8
8
 10
-3008.831787
 20
-1071.543562
 30
0.0
 70
0
  0
VERTEX
  5
1F6
  8
8
 10
-3008.831787
 20
-1087.054965
 30
0.0
 70
0
  0
VERTEX
  5
1F7
  8
8
 10
-3008.831787
 20
-1104.024576
 30
0.0
 70
0
  0
VERTEX
  5
1F8
  8
8
 10
-3008.831787
 20
-1119.351949
 30
0.0
 70
0
  0
VERTEX
  5
1F9
  8
8
 10
-3008.831787
 20
-1134.294059
 30
0.0
 70
0
  0
VERTEX
  5
1FA
  8
8
 10
-3008.831787
 20
-1151.444763
 30
0.0
 70
0
  0
VERTEX
  5
1FB
  8
8
 10
-3008.831787
 20
-1167.430377
 30
0.0
 70
0
  0
VERTEX
  5
1FC
  8
8
 10
-3008.831787
 20
-1184.163616
 30
0.0
 70
0
  0
VERTEX
  5
1FD
  8
8
 10
-3008.831787
 20
-1200.112601
 30
0.0
 70
0
  0
VERTEX
  5
1FE
  8
8
 10
-3008.831787
 20
-1215.117416
 30
0.0
 70
0
  0
VERTEX
  5
1FF
  8
8
 10
-3008.831787
 20
-1220.249634
 30
0.0
 70
0
  0
SEQEND
  5
1ED
  8
8
  0
POLYLINE
  5
200
  8
8
 66
1
 10
0.0
 20
0.0
 30
0.0
 70
0
  0
VERTEX
  5
202
  8
8
 10
-2704.065552
 20
-880.864716
 30
0.0
 70
0
  0
VERTEX
  5
203
  8
8
 10
-2717.738647
 20
-1234.174576
 30
0.0
 70
0
  0
SEQEND
  5
201
  8
8
  0
POINT
  5
204
  8
4
 10
-3009.239807
 20
-1232.943192
 30
0.0
  0
POINT
  5
205
  8
4
 10
-3451.381226
 20
-1213.440094
 30
0.0
  0
POINT
  5
206
  8
4
 10
-3450.46051
 20
-965.147324
 30
0.0
  0
POINT
  5
207
  8
4
 10
-3009.493408
 20
-942.14386
 30
0.0
  0
POINT
  5
208
  8
4
 10
-2718.771667
 20
-876.016464
 30
0.0
  0
POINT
  5
209
  8
4
 10
-2469.141388
 20
-992.461243
 30
0.0
  0
POINT
  5
20A
  8
4
 10
-2457.383728
 20
-1011.970139
 30
0.0
  0
POINT
  5
20B
  8
4
 10
-2466.191559
 20
-1187.834854
 30
0.0
  0
POINT
  5
20C
  8
4
 10
-2481.81076
 20
-1244.042969
 30
0.0
  0
POINT
  5
20D
  8
4
 10
-3008.834839
 20
-1220.249634
 30
0.0
  0
POINT
  5
20E
  8
4
 10
-3451.333923
 20
-1200.722656
 30
0.0
  0
POINT
  5
20F
  8
4
 10
-3450.507507
 20
-977.86705
 30
0.0
  0
POINT
  5
210
  8
4
 10
-3008.831787
 20
-954.82666
 30
0.0
  0
POINT
  5
211
  8
4
 10
-2704.130554
 20
-884.318542
 30
0.0
  0
POINT
  5
212
  8
4
 10
-2469.941864
 20
-1008.770828
 30
0.0
  0
POINT
  5
213
  8
4
 10
-2469.941864
 20
-1008.770828
 30
0.0
  0
POINT
  5
214
  8
4
 10
-2478.874817
 20
-1187.184372
 30
0.0
  0
POINT
  5
215
  8
4
 10
-2481.147919
 20
-1231.241608
 30
0.0
  0
LINE
  5
216
  8
7
 10
-3387.257385
 20
-1086.681671
 30
0.0
 11
-2519.147034
 21
-1086.681671
 31
0.0
  0
ENDSEC
  0
EOF
