  0
SECTION
  2
HEADER
  9
$ACADVER
  1
AC1009
  9
$DWGCODEPAGE
  3
ANSI_1252
  9
$INSBASE
 10
0.0
 20
0.0
 30
0.0
  9
$EXTMIN
 10
1e+20
 20
1e+20
 30
1e+20
  9
$EXTMAX
 10
-1e+20
 20
-1e+20
 30
-1e+20
  9
$LIMMIN
 10
0.0
 20
0.0
  9
$LIMMAX
 10
420.0
 20
297.0
  9
$ORTHOMODE
 70
0
  9
$REGENMODE
 70
1
  9
$FILLMODE
 70
1
  9
$DRAGMODE
 70
2
  9
$QTEXTMODE
 70
0
  9
$MIRRTEXT
 70
1
  9
$OSMODE
 70
20583
  9
$LTSCALE
 40
1.0
  9
$ATTMODE
 70
1
  9
$TEXTSIZE
 40
2.5
  9
$TRACEWID
 40
1.0
  9
$TEXTSTYLE
  7
Standard
  9
$CLAYER
  8
0
  9
$CELTYPE
  6
ByLayer
  9
$CECOLOR
 62
256
  9
$DIMSCALE
 40
1.0
  9
$DIMASZ
 40
2.5
  9
$DIMEXO
 40
0.625
  9
$DIMDLI
 40
3.75
  9
$DIMRND
 40
0.0
  9
$DIMDLE
 40
0.0
  9
$DIMEXE
 40
1.25
  9
$DIMTP
 40
0.0
  9
$DIMTM
 40
0.0
  9
$DIMTXT
 40
2.5
  9
$DIMCEN
 40
2.5
  9
$DIMTSZ
 40
0.0
  9
$DIMTOL
 70
0
  9
$DIMLIM
 70
0
  9
$DIMTIH
 70
0
  9
$DIMTOH
 70
0
  9
$DIMSE1
 70
0
  9
$DIMSE2
 70
0
  9
$DIMTAD
 70
1
  9
$DIMZIN
 70
8
  9
$DIMBLK
  1

  9
$DIMASO
 70
1
  9
$DIMSHO
 70
1
  9
$DIMPOST
  1

  9
$DIMAPOST
  1

  9
$DIMALT
 70
0
  9
$DIMALTD
 70
3
  9
$DIMALTF
 40
0.03937007874
  9
$DIMLFAC
 40
1.0
  9
$DIMTOFL
 70
1
  9
$DIMTVP
 40
0.0
  9
$DIMTIX
 70
0
  9
$DIMSOXD
 70
0
  9
$DIMSAH
 70
0
  9
$DIMBLK1
  1

  9
$DIMBLK2
  1

  9
$DIMSTYLE
  2
ISO-25
  9
$DIMCLRD
 70
0
  9
$DIMCLRE
 70
0
  9
$DIMCLRT
 70
0
  9
$DIMTFAC
 40
1.0
  9
$DIMGAP
 40
0.625
  9
$COORDS
 70
1
  9
$ATTDIA
 70
0
  9
$ATTREQ
 70
1
  9
$HANDLING
 70
1
  9
$LUNITS
 70
2
  9
$LUPREC
 70
4
  9
$SKETCHINC
 40
1.0
  9
$FILLETRAD
 40
10.0
  9
$AUNITS
 70
0
  9
$AUPREC
 70
2
  9
$MENU
  1
.
  9
$ELEVATION
 40
0.0
  9
$PELEVATION
 40
0.0
  9
$THICKNESS
 40
0.0
  9
$LIMCHECK
 70
0
  9
$CHAMFERA
 40
0.0
  9
$CHAMFERB
 40
0.0
  9
$SKPOLY
 70
0
  9
$TDCREATE
 40
2461259.4353935183
  9
$TDUPDATE
 40
2461259.4353935183
  9
$TDINDWG
 40
0.0
  9
$TDUSRTIMER
 40
0.0
  9
$USRTIMER
 70
1
  9
$ANGBASE
 50
0.0
  9
$ANGDIR
 70
0
  9
$PDMODE
 70
0
  9
$PDSIZE
 40
0.0
  9
$PLINEWID
 40
0.0
  9
$SPLFRAME
 70
0
  9
$SPLINETYPE
 70
6
  9
$SPLINESEGS
 70
8
  9
$HANDSEED
  5
106
  9
$SURFTAB1
 70
6
  9
$SURFTAB2
 70
6
  9
$SURFTYPE
 70
6
  9
$SURFU
 70
6
  9
$SURFV
 70
6
  9
$UCSNAME
  2

  9
$UCSORG
 10
0.0
 20
0.0
 30
0.0
  9
$UCSXDIR
 10
1.0
 20
0.0
 30
0.0
  9
$UCSYDIR
 10
0.0
 20
1.0
 30
0.0
  9
$PUCSNAME
  2

  9
$PUCSORG
 10
0.0
 20
0.0
 30
0.0
  9
$PUCSXDIR
 10
1.0
 20
0.0
 30
0.0
  9
$PUCSYDIR
 10
0.0
 20
1.0
 30
0.0
  9
$USERI1
 70
0
  9
$USERI2
 70
0
  9
$USERI3
 70
0
  9
$USERI4
 70
0
  9
$USERI5
 70
0
  9
$USERR1
 40
0.0
  9
$USERR2
 40
0.0
  9
$USERR3
 40
0.0
  9
$USERR4
 40
0.0
  9
$USERR5
 40
0.0
  9
$WORLDVIEW
 70
1
  9
$SHADEDGE
 70
3
  9
$SHADEDIF
 70
70
  9
$TILEMODE
 70
1
  9
$MAXACTVP
 70
64
  9
$PLIMCHECK
 70
0
  9
$PEXTMIN
 10
1e+20
 20
1e+20
 30
1e+20
  9
$PEXTMAX
 10
-1e+20
 20
-1e+20
 30
-1e+20
  9
$PLIMMIN
 10
0.0
 20
0.0
  9
$PLIMMAX
 10
420.0
 20
297.0
  9
$UNITMODE
 70
0
  9
$VISRETAIN
 70
1
  9
$PLINEGEN
 70
0
  9
$PSLTSCALE
 70
1
  0
ENDSEC
  0
SECTION
  2
TABLES
  0
TABLE
  2
VPORT
 70
1
  0
VPORT
  5
23
  2
*Active
 70
0
 10
0.0
 20
0.0
 11
1.0
 21
1.0
 12
0.0
 22
0.0
 13
0.0
 23
0.0
 14
0.5
 24
0.5
 15
0.5
 25
0.5
 16
0.0
 26
0.0
 36
1.0
 17
0.0
 27
0.0
 37
0.0
 40
1000.0
 41
1.34
 42
50.0
 43
0.0
 44
0.0
 50
0.0
 51
0.0
 71
0
 72
1000
 73
1
 74
3
 75
0
 76
0
 77
0
 78
0
  0
ENDTAB
  0
TABLE
  2
LTYPE
 70
3
  0
LTYPE
  5
24
  2
ByBlock
 70
0
  3

 72
65
 73
0
 40
0.0
  0
LTYPE
  5
25
  2
ByLayer
 70
0
  3

 72
65
 73
0
 40
0.0
  0
LTYPE
  5
26
  2
Continuous
 70
0
  3

 72
65
 73
0
 40
0.0
  0
ENDTAB
  0
TABLE
  2
LAYER
 70
4
  0
LAYER
  5
27
  2
0
 70
0
 62
7
  6
Continuous
  0
LAYER
  5
28
  2
Defpoints
 70
0
 62
7
  6
Continuous
  0
LAYER
  5
2D
  2
1
 70
0
 62
1
  6
Continuous
  0
LAYER
  5
2E
  2
7
 70
0
 62
7
  6
Continuous
  0
ENDTAB
  0
TABLE
  2
STYLE
 70
1
  0
STYLE
  5
29
  2
Standard
 70
0
 40
0.0
 41
1.0
 50
0.0
 71
0
 42
2.5
  3
txt
  4

  0
ENDTAB
  0
TABLE
  2
VIEW
 70
0
  0
ENDTAB
  0
TABLE
  2
UCS
 70
0
  0
ENDTAB
  0
TABLE
  2
APPID
 70
3
  0
APPID
  5
2A
  2
ACAD
 70
0
  0
APPID
  5
104
  2
HATCHBACKGROUNDCOLOR
 70
0
  0
APPID
  5
105
  2
EZDXF
 70
0
  0
ENDTAB
  0
TABLE
  2
DIMSTYLE
 70
1
  0
DIMSTYLE
105
2B
  2
Standard
 70
0
  3

  4

  5

  6

  7

 40
1.0
 41
2.5
 42
0.625
 43
3.75
 44
1.25
 45
0.0
 46
0.0
 47
0.0
 48
0.0
140
2.5
141
2.5
142
0.0
143
0.03937007874
144
1.0
145
0.0
146
1.0
147
0.625
 71
0
 72
0
 73
0
 74
0
 75
0
 76
0
 77
1
 78
8
170
0
171
3
172
1
173
0
174
0
175
0
176
0
177
0
178
0
  0
ENDTAB
  0
ENDSEC
  0
SECTION
  2
BLOCKS
  0
BLOCK
  5
18
  8
0
  2
$Model_Space
 70
0
 10
0.0
 20
0.0
 30
0.0
  3
$Model_Space
  1

1001
EZDXF
1000
CREATED_BY_EZDXF
1000
1.4.4 @ 2026-08-06T02:26:58.103009+00:00
1000
WRITTEN_BY_EZDXF
1000
1.4.4 @ 2026-08-06T02:26:58.105009+00:00
  0
ENDBLK
  5
19
  8
0
  0
BLOCK
  5
1C
  8
0
  2
$Paper_Space
 70
0
 10
0.0
 20
0.0
 30
0.0
  3
$Paper_Space
  1

  0
ENDBLK
  5
1D
  8
0
  0
ENDSEC
  0
SECTION
  2
ENTITIES
  0
POLYLINE
  5
2F
  8
1
 66
1
 10
0.0
 20
0.0
 30
0.0
 70
1
  0
VERTEX
  5
31
  8
1
 10
-3009.46106
 20
-1248.17482
 30
0.0
 70
0
  0
VERTEX
  5
32
  8
1
 10
-3009.334717
 20
-1248.179779
 30
0.0
 70
0
  0
VERTEX
  5
33
  8
1
 10
-3012.446324
 20
-1248.057252
 30
0.0
 70
0
  0
VERTEX
  5
34
  8
1
 10
-3027.238209
 20
-1247.468262
 30
0.0
 70
0
  0
VERTEX
  5
35
  8
1
 10
-3042.27917
 20
-1246.859129
 30
0.0
 70
0
  0
VERTEX
  5
36
  8
1
 10
-3057.65865
 20
-1246.222279
 30
0.0
 70
0
  0
VERTEX
  5
37
  8
1
 10
-3073.142261
 20
-1245.56693
 30
0.0
 70
0
  0
VERTEX
  5
38
  8
1
 10
-3088.181519
 20
-1244.920366
 30
0.0
 70
0
  0
VERTEX
  5
39
  8
1
 10
-3103.664269
 20
-1244.244979
 30
0.0
 70
0
  0
VERTEX
  5
3A
  8
1
 10
-3118.696483
 20
-1243.578502
 30
0.0
 70
0
  0
VERTEX
  5
3B
  8
1
 10
-3134.178152
 20
-1242.880658
 30
0.0
 70
0
  0
VERTEX
  5
3C
  8
1
 10
-3149.572949
 20
-1242.175391
 30
0.0
 70
0
  0
VERTEX
  5
3D
  8
1
 10
-3165.053646
 20
-1241.45449
 30
0.0
 70
0
  0
VERTEX
  5
3E
  8
1
 10
-3180.512586
 20
-1240.722317
 30
0.0
 70
0
  0
VERTEX
  5
3F
  8
1
 10
-3195.992138
 20
-1239.976255
 30
0.0
 70
0
  0
VERTEX
  5
40
  8
1
 10
-3211.335752
 20
-1239.223375
 30
0.0
 70
0
  0
VERTEX
  5
41
  8
1
 10
-3226.813866
 20
-1238.449715
 30
0.0
 70
0
  0
VERTEX
  5
42
  8
1
 10
-3242.147286
 20
-1237.668466
 30
0.0
 70
0
  0
VERTEX
  5
43
  8
1
 10
-3257.623814
 20
-1236.863706
 30
0.0
 70
0
  0
VERTEX
  5
44
  8
1
 10
-3272.676623
 20
-1236.064117
 30
0.0
 70
0
  0
VERTEX
  5
45
  8
1
 10
-3288.151384
 20
-1235.224825
 30
0.0
 70
0
  0
VERTEX
  5
46
  8
1
 10
-3303.352677
 20
-1234.383964
 30
0.0
 70
0
  0
VERTEX
  5
47
  8
1
 10
-3318.825697
 20
-1233.512685
 30
0.0
 70
0
  0
VERTEX
  5
48
  8
1
 10
-3334.136748
 20
-1232.636688
 30
0.0
 70
0
  0
VERTEX
  5
49
  8
1
 10
-3349.608076
 20
-1231.738308
 30
0.0
 70
0
  0
VERTEX
  5
4A
  8
1
 10
-3364.869009
 20
-1230.839662
 30
0.0
 70
0
  0
VERTEX
  5
4B
  8
1
 10
-3380.338999
 20
-1229.916928
 30
0.0
 70
0
  0
VERTEX
  5
4C
  8
1
 10
-3395.598712
 20
-1228.995969
 30
0.0
 70
0
  0
VERTEX
  5
4D
  8
1
 10
-3411.067412
 20
-1228.051599
 30
0.0
 70
0
  0
VERTEX
  5
4E
  8
1
 10
-3426.180414
 20
-1227.118052
 30
0.0
 70
0
  0
VERTEX
  5
4F
  8
1
 10
-3441.647653
 20
-1226.149738
 30
0.0
 70
0
  0
VERTEX
  5
50
  8
1
 10
-3456.908667
 20
-1225.180763
 30
0.0
 70
0
  0
VERTEX
  5
51
  8
1
 10
-3471.696472
 20
-1224.234314
 30
0.0
 70
0
  0
VERTEX
  5
52
  8
1
 10
-3472.374467
 20
-1224.190912
 30
0.0
 70
0
  0
VERTEX
  5
53
  8
1
 10
-3487.718068
 20
-1223.207731
 30
0.0
 70
0
  0
VERTEX
  5
54
  8
1
 10
-3503.439941
 20
-1222.200546
 30
0.0
 70
0
  0
VERTEX
  5
55
  8
1
 10
-3503.387488
 20
-1206.645993
 30
0.0
 70
0
  0
VERTEX
  5
56
  8
1
 10
-3503.336462
 20
-1191.50643
 30
0.0
 70
0
  0
VERTEX
  5
57
  8
1
 10
-3503.285239
 20
-1176.313963
 30
0.0
 70
0
  0
VERTEX
  5
58
  8
1
 10
-3503.234153
 20
-1161.174418
 30
0.0
 70
0
  0
VERTEX
  5
59
  8
1
 10
-3503.183066
 20
-1146.034876
 30
0.0
 70
0
  0
VERTEX
  5
5A
  8
1
 10
-3503.131714
 20
-1130.806054
 30
0.0
 70
0
  0
VERTEX
  5
5B
  8
1
 10
-3503.080643
 20
-1115.666494
 30
0.0
 70
0
  0
VERTEX
  5
5C
  8
1
 10
-3503.029771
 20
-1100.611377
 30
0.0
 70
0
  0
VERTEX
  5
5D
  8
1
 10
-3502.978534
 20
-1085.47183
 30
0.0
 70
0
  0
VERTEX
  5
5E
  8
1
 10
-3502.926277
 20
-1070.043398
 30
0.0
 70
0
  0
VERTEX
  5
5F
  8
1
 10
-3502.874969
 20
-1054.903832
 30
0.0
 70
0
  0
VERTEX
  5
60
  8
1
 10
-3502.823636
 20
-1039.768295
 30
0.0
 70
0
  0
VERTEX
  5
61
  8
1
 10
-3502.772241
 20
-1024.628736
 30
0.0
 70
0
  0
VERTEX
  5
62
  8
1
 10
-3502.720857
 20
-1009.511825
 30
0.0
 70
0
  0
VERTEX
  5
63
  8
1
 10
-3502.669349
 20
-994.372267
 30
0.0
 70
0
  0
VERTEX
  5
64
  8
1
 10
-3502.61692
 20
-978.953881
 30
0.0
 70
0
  0
VERTEX
  5
65
  8
1
 10
-3502.565404
 20
-963.801994
 30
0.0
 70
0
  0
VERTEX
  5
66
  8
1
 10
-3502.539673
 20
-956.244583
 30
0.0
 70
0
  0
VERTEX
  5
67
  8
1
 10
-3486.843366
 20
-955.431797
 30
0.0
 70
0
  0
VERTEX
  5
68
  8
1
 10
-3471.662818
 20
-954.645717
 30
0.0
 70
0
  0
VERTEX
  5
69
  8
1
 10
-3470.783997
 20
-954.60022
 30
0.0
 70
0
  0
VERTEX
  5
6A
  8
1
 10
-3456.185489
 20
-953.844271
 30
0.0
 70
0
  0
VERTEX
  5
6B
  8
1
 10
-3440.887246
 20
-953.052108
 30
0.0
 70
0
  0
VERTEX
  5
6C
  8
1
 10
-3425.547193
 20
-952.257791
 30
0.0
 70
0
  0
VERTEX
  5
6D
  8
1
 10
-3410.249039
 20
-951.46564
 30
0.0
 70
0
  0
VERTEX
  5
6E
  8
1
 10
-3395.258277
 20
-950.689384
 30
0.0
 70
0
  0
VERTEX
  5
6F
  8
1
 10
-3379.960097
 20
-949.897206
 30
0.0
 70
0
  0
VERTEX
  5
70
  8
1
 10
-3364.782663
 20
-949.111296
 30
0.0
 70
0
  0
VERTEX
  5
71
  8
1
 10
-3349.484352
 20
-948.319137
 30
0.0
 70
0
  0
VERTEX
  5
72
  8
1
 10
-3334.168689
 20
-947.526076
 30
0.0
 70
0
  0
VERTEX
  5
73
  8
1
 10
-3318.870469
 20
-946.733908
 30
0.0
 70
0
  0
VERTEX
  5
74
  8
1
 10
-3303.53043
 20
-945.939568
 30
0.0
 70
0
  0
VERTEX
  5
75
  8
1
 10
-3288.232262
 20
-945.147398
 30
0.0
 70
0
  0
VERTEX
  5
76
  8
1
 10
-3272.932327
 20
-944.355149
 30
0.0
 70
0
  0
VERTEX
  5
77
  8
1
 10
-3257.634131
 20
-943.562991
 30
0.0
 70
0
  0
VERTEX
  5
78
  8
1
 10
-3242.457458
 20
-942.777114
 30
0.0
 70
0
  0
VERTEX
  5
79
  8
1
 10
-3227.159337
 20
-941.984944
 30
0.0
 70
0
  0
VERTEX
  5
7A
  8
1
 10
-3211.703541
 20
-941.184624
 30
0.0
 70
0
  0
VERTEX
  5
7B
  8
1
 10
-3196.405333
 20
-940.392477
 30
0.0
 70
0
  0
VERTEX
  5
7C
  8
1
 10
-3181.065176
 20
-939.598157
 30
0.0
 70
0
  0
VERTEX
  5
7D
  8
1
 10
-3165.766899
 20
-938.805995
 30
0.0
 70
0
  0
VERTEX
  5
7E
  8
1
 10
-3150.536341
 20
-938.017321
 30
0.0
 70
0
  0
VERTEX
  5
7F
  8
1
 10
-3135.238142
 20
-937.225138
 30
0.0
 70
0
  0
VERTEX
  5
80
  8
1
 10
-3119.943675
 20
-936.433162
 30
0.0
 70
0
  0
VERTEX
  5
81
  8
1
 10
-3104.645458
 20
-935.641001
 30
0.0
 70
0
  0
VERTEX
  5
82
  8
1
 10
-3089.28152
 20
-934.845431
 30
0.0
 70
0
  0
VERTEX
  5
83
  8
1
 10
-3073.98329
 20
-934.053261
 30
0.0
 70
0
  0
VERTEX
  5
84
  8
1
 10
-3058.657424
 20
-933.259671
 30
0.0
 70
0
  0
VERTEX
  5
85
  8
1
 10
-3043.359216
 20
-932.467518
 30
0.0
 70
0
  0
VERTEX
  5
86
  8
1
 10
-3028.071773
 20
-931.675907
 30
0.0
 70
0
  0
VERTEX
  5
87
  8
1
 10
-3013.203843
 20
-930.906003
 30
0.0
 70
0
  0
VERTEX
  5
88
  8
1
 10
-3009.488525
 20
-930.713654
 30
0.0
 70
0
  0
VERTEX
  5
89
  8
1
 10
-3010.110779
 20
-930.74791
 30
0.0
 70
0
  0
VERTEX
  5
8A
  8
1
 10
-2994.545544
 20
-928.39373
 30
0.0
 70
0
  0
VERTEX
  5
8B
  8
1
 10
-2979.536074
 20
-926.025333
 30
0.0
 70
0
  0
VERTEX
  5
8C
  8
1
 10
-2964.205094
 20
-923.470508
 30
0.0
 70
0
  0
VERTEX
  5
8D
  8
1
 10
-2949.632848
 20
-920.912779
 30
0.0
 70
0
  0
VERTEX
  5
8E
  8
1
 10
-2934.347018
 20
-918.099137
 30
0.0
 70
0
  0
VERTEX
  5
8F
  8
1
 10
-2919.729303
 20
-915.262572
 30
0.0
 70
0
  0
VERTEX
  5
90
  8
1
 10
-2904.505605
 20
-912.129754
 30
0.0
 70
0
  0
VERTEX
  5
91
  8
1
 10
-2889.796925
 20
-908.909816
 30
0.0
 70
0
  0
VERTEX
  5
92
  8
1
 10
-2875.0869
 20
-905.483457
 30
0.0
 70
0
  0
VERTEX
  5
93
  8
1
 10
-2860.470316
 20
-901.867819
 30
0.0
 70
0
  0
VERTEX
  5
94
  8
1
 10
-2845.812251
 20
-898.02462
 30
0.0
 70
0
  0
VERTEX
  5
95
  8
1
 10
-2831.304479
 20
-893.994624
 30
0.0
 70
0
  0
VERTEX
  5
96
  8
1
 10
-2816.694359
 20
-889.69841
 30
0.0
 70
0
  0
VERTEX
  5
97
  8
1
 10
-2802.311622
 20
-885.242575
 30
0.0
 70
0
  0
VERTEX
  5
98
  8
1
 10
-2787.851733
 20
-880.551004
 30
0.0
 70
0
  0
VERTEX
  5
99
  8
1
 10
-2773.583456
 20
-875.741578
 30
0.0
 70
0
  0
VERTEX
  5
9A
  8
1
 10
-2759.276342
 20
-870.765208
 30
0.0
 70
0
  0
VERTEX
  5
9B
  8
1
 10
-2745.105833
 20
-865.675498
 30
0.0
 70
0
  0
VERTEX
  5
9C
  8
1
 10
-2730.849184
 20
-860.38243
 30
0.0
 70
0
  0
VERTEX
  5
9D
  8
1
 10
-2718.74176
 20
-855.771866
 30
0.0
 70
0
  0
VERTEX
  5
9E
  8
1
 10
-2716.777792
 20
-855.024074
 30
0.0
 70
0
  0
VERTEX
  5
9F
  8
1
 10
-2702.733946
 20
-849.593937
 30
0.0
 70
0
  0
VERTEX
  5
A0
  8
1
 10
-2697.622375
 20
-847.606659
 30
0.0
 70
0
  0
VERTEX
  5
A1
  8
1
 10
-2690.197449
 20
-851.469345
 30
0.0
 70
0
  0
VERTEX
  5
A2
  8
1
 10
-2688.570159
 20
-858.980789
 30
0.0
 70
0
  0
VERTEX
  5
A3
  8
1
 10
-2686.811899
 20
-865.901673
 30
0.0
 70
0
  0
VERTEX
  5
A4
  8
1
 10
-2685.068496
 20
-871.821024
 30
0.0
 70
0
  0
VERTEX
  5
A5
  8
1
 10
-2683.248179
 20
-877.144101
 30
0.0
 70
0
  0
VERTEX
  5
A6
  8
1
 10
-2681.196268
 20
-882.388214
 30
0.0
 70
0
  0
VERTEX
  5
A7
  8
1
 10
-2678.974316
 20
-887.396903
 30
0.0
 70
0
  0
VERTEX
  5
A8
  8
1
 10
-2676.661091
 20
-892.013994
 30
0.0
 70
0
  0
VERTEX
  5
A9
  8
1
 10
-2674.271107
 20
-896.255279
 30
0.0
 70
0
  0
VERTEX
  5
AA
  8
1
 10
-2671.745232
 20
-900.242932
 30
0.0
 70
0
  0
VERTEX
  5
AB
  8
1
 10
-2669.182149
 20
-903.83951
 30
0.0
 70
0
  0
VERTEX
  5
AC
  8
1
 10
-2666.590182
 20
-907.070252
 30
0.0
 70
0
  0
VERTEX
  5
AD
  8
1
 10
-2663.923433
 20
-910.01291
 30
0.0
 70
0
  0
VERTEX
  5
AE
  8
1
 10
-2661.195847
 20
-912.661118
 30
0.0
 70
0
  0
VERTEX
  5
AF
  8
1
 10
-2658.455193
 20
-914.986459
 30
0.0
 70
0
  0
VERTEX
  5
B0
  8
1
 10
-2655.493297
 20
-917.172413
 30
0.0
 70
0
  0
VERTEX
  5
B1
  8
1
 10
-2652.072653
 20
-919.374054
 30
0.0
 70
0
  0
VERTEX
  5
B2
  8
1
 10
-2648.271758
 20
-921.511553
 30
0.0
 70
0
  0
VERTEX
  5
B3
  8
1
 10
-2644.020683
 20
-923.604536
 30
0.0
 70
0
  0
VERTEX
  5
B4
  8
1
 10
-2639.338476
 20
-925.622841
 30
0.0
 70
0
  0
VERTEX
  5
B5
  8
1
 10
-2634.074687
 20
-927.610392
 30
0.0
 70
0
  0
VERTEX
  5
B6
  8
1
 10
-2628.108532
 20
-929.58414
 30
0.0
 70
0
  0
VERTEX
  5
B7
  8
1
 10
-2621.425472
 20
-931.524404
 30
0.0
 70
0
  0
VERTEX
  5
B8
  8
1
 10
-2614.014488
 20
-933.406398
 30
0.0
 70
0
  0
VERTEX
  5
B9
  8
1
 10
-2605.100956
 20
-935.394332
 30
0.0
 70
0
  0
VERTEX
  5
BA
  8
1
 10
-2595.056458
 20
-937.374268
 30
0.0
 70
0
  0
VERTEX
  5
BB
  8
1
 10
-2579.810782
 20
-940.705136
 30
0.0
 70
0
  0
VERTEX
  5
BC
  8
1
 10
-2564.807762
 20
-943.984919
 30
0.0
 70
0
  0
VERTEX
  5
BD
  8
1
 10
-2549.658856
 20
-947.299245
 30
0.0
 70
0
  0
VERTEX
  5
BE
  8
1
 10
-2534.81558
 20
-950.549711
 30
0.0
 70
0
  0
VERTEX
  5
BF
  8
1
 10
-2520.045296
 20
-953.787272
 30
0.0
 70
0
  0
VERTEX
  5
C0
  8
1
 10
-2505.203362
 20
-957.043786
 30
0.0
 70
0
  0
VERTEX
  5
C1
  8
1
 10
-2490.523766
 20
-960.268031
 30
0.0
 70
0
  0
VERTEX
  5
C2
  8
1
 10
-2475.683219
 20
-963.530904
 30
0.0
 70
0
  0
VERTEX
  5
C3
  8
1
 10
-2460.793023
 20
-966.807705
 30
0.0
 70
0
  0
VERTEX
  5
C4
  8
1
 10
-2445.953551
 20
-970.075628
 30
0.0
 70
0
  0
VERTEX
  5
C5
  8
1
 10
-2438.866272
 20
-971.636963
 30
0.0
 70
0
  0
VERTEX
  5
C6
  8
1
 10
-2430.946091
 20
-973.381776
 30
0.0
 70
0
  0
VERTEX
  5
C7
  8
1
 10
-2426.277008
 20
-974.410477
 30
0.0
 70
0
  0
VERTEX
  5
C8
  8
1
 10
-2426.980163
 20
-990.292412
 30
0.0
 70
0
  0
VERTEX
  5
C9
  8
1
 10
-2426.995544
 20
-990.639114
 30
0.0
 70
0
  0
VERTEX
  5
CA
  8
1
 10
-2427.64985
 20
-1005.422675
 30
0.0
 70
0
  0
VERTEX
  5
CB
  8
1
 10
-2428.318264
 20
-1020.552991
 30
0.0
 70
0
  0
VERTEX
  5
CC
  8
1
 10
-2428.994902
 20
-1035.920954
 30
0.0
 70
0
  0
VERTEX
  5
CD
  8
1
 10
-2429.659098
 20
-1051.051449
 30
0.0
 70
0
  0
VERTEX
  5
CE
  8
1
 10
-2430.333253
 20
-1066.444203
 30
0.0
 70
0
  0
VERTEX
  5
CF
  8
1
 10
-2430.994375
 20
-1081.574848
 30
0.0
 70
0
  0
VERTEX
  5
D0
  8
1
 10
-2431.657102
 20
-1096.781384
 30
0.0
 70
0
  0
VERTEX
  5
D1
  8
1
 10
-2432.314727
 20
-1111.912183
 30
0.0
 70
0
  0
VERTEX
  5
D2
  8
1
 10
-2432.976131
 20
-1127.173594
 30
0.0
 70
0
  0
VERTEX
  5
D3
  8
1
 10
-2433.629901
 20
-1142.304551
 30
0.0
 70
0
  0
VERTEX
  5
D4
  8
1
 10
-2434.292311
 20
-1157.685056
 30
0.0
 70
0
  0
VERTEX
  5
D5
  8
1
 10
-2434.941695
 20
-1172.816194
 30
0.0
 70
0
  0
VERTEX
  5
D6
  8
1
 10
-2435.590656
 20
-1187.996237
 30
0.0
 70
0
  0
VERTEX
  5
D7
  8
1
 10
-2435.70694
 20
-1190.720673
 30
0.0
 70
0
  0
VERTEX
  5
D8
  8
1
 10
-2436.234995
 20
-1203.127588
 30
0.0
 70
0
  0
VERTEX
  5
D9
  8
1
 10
-2436.873948
 20
-1218.185705
 30
0.0
 70
0
  0
VERTEX
  5
DA
  8
1
 10
-2437.514102
 20
-1233.317267
 30
0.0
 70
0
  0
VERTEX
  5
DB
  8
1
 10
-2438.152815
 20
-1248.44888
 30
0.0
 70
0
  0
VERTEX
  5
DC
  8
1
 10
-2438.8237
 20
-1264.366379
 30
0.0
 70
0
  0
VERTEX
  5
DD
  8
1
 10
-2446.091872
 20
-1264.881998
 30
0.0
 70
0
  0
VERTEX
  5
DE
  8
1
 10
-2451.572723
 20
-1265.262909
 30
0.0
 70
0
  0
VERTEX
  5
DF
  8
1
 10
-2461.350467
 20
-1265.942274
 30
0.0
 70
0
  0
VERTEX
  5
E0
  8
1
 10
-2476.517631
 20
-1266.944176
 30
0.0
 70
0
  0
VERTEX
  5
E1
  8
1
 10
-2491.928627
 20
-1267.872692
 30
0.0
 70
0
  0
VERTEX
  5
E2
  8
1
 10
-2507.108126
 20
-1268.668028
 30
0.0
 70
0
  0
VERTEX
  5
E3
  8
1
 10
-2522.557609
 20
-1269.334316
 30
0.0
 70
0
  0
VERTEX
  5
E4
  8
1
 10
-2537.749696
 20
-1269.836256
 30
0.0
 70
0
  0
VERTEX
  5
E5
  8
1
 10
-2553.176002
 20
-1270.193454
 30
0.0
 70
0
  0
VERTEX
  5
E6
  8
1
 10
-2568.374947
 20
-1270.401874
 30
0.0
 70
0
  0
VERTEX
  5
E7
  8
1
 10
-2583.769026
 20
-1270.478706
 30
0.0
 70
0
  0
VERTEX
  5
E8
  8
1
 10
-2598.969145
 20
-1270.433548
 30
0.0
 70
0
  0
VERTEX
  5
E9
  8
1
 10
-2614.082308
 20
-1270.281457
 30
0.0
 70
0
  0
VERTEX
  5
EA
  8
1
 10
-2629.280395
 20
-1270.031731
 30
0.0
 70
0
  0
VERTEX
  5
EB
  8
1
 10
-2644.698128
 20
-1269.688082
 30
0.0
 70
0
  0
VERTEX
  5
EC
  8
1
 10
-2659.89236
 20
-1269.259453
 30
0.0
 70
0
  0
VERTEX
  5
ED
  8
1
 10
-2674.964463
 20
-1268.72474
 30
0.0
 70
0
  0
VERTEX
  5
EE
  8
1
 10
-2690.150142
 20
-1268.057551
 30
0.0
 70
0
  0
VERTEX
  5
EF
  8
1
 10
-2705.209685
 20
-1267.264436
 30
0.0
 70
0
  0
VERTEX
  5
F0
  8
1
 10
-2720.38201
 20
-1266.345679
 30
0.0
 70
0
  0
VERTEX
  5
F1
  8
1
 10
-2735.379984
 20
-1265.3691
 30
0.0
 70
0
  0
VERTEX
  5
F2
  8
1
 10
-2750.546655
 20
-1264.360238
 30
0.0
 70
0
  0
VERTEX
  5
F3
  8
1
 10
-2765.984067
 20
-1263.336287
 30
0.0
 70
0
  0
VERTEX
  5
F4
  8
1
 10
-2781.151977
 20
-1262.346642
 30
0.0
 70
0
  0
VERTEX
  5
F5
  8
1
 10
-2796.230126
 20
-1261.372934
 30
0.0
 70
0
  0
VERTEX
  5
F6
  8
1
 10
-2811.398943
 20
-1260.39672
 30
0.0
 70
0
  0
VERTEX
  5
F7
  8
1
 10
-2826.850259
 20
-1259.407521
 30
0.0
 70
0
  0
VERTEX
  5
F8
  8
1
 10
-2842.019807
 20
-1258.443774
 30
0.0
 70
0
  0
VERTEX
  5
F9
  8
1
 10
-2857.393418
 20
-1257.473623
 30
0.0
 70
0
  0
VERTEX
  5
FA
  8
1
 10
-2872.563668
 20
-1256.521604
 30
0.0
 70
0
  0
VERTEX
  5
FB
  8
1
 10
-2887.672214
 20
-1255.57873
 30
0.0
 70
0
  0
VERTEX
  5
FC
  8
1
 10
-2902.843216
 20
-1254.637434
 30
0.0
 70
0
  0
VERTEX
  5
FD
  8
1
 10
-2918.169865
 20
-1253.69189
 30
0.0
 70
0
  0
VERTEX
  5
FE
  8
1
 10
-2933.341505
 20
-1252.761051
 30
0.0
 70
0
  0
VERTEX
  5
FF
  8
1
 10
-2948.380291
 20
-1251.843266
 30
0.0
 70
0
  0
VERTEX
  5
100
  8
1
 10
-2963.552506
 20
-1250.922441
 30
0.0
 70
0
  0
VERTEX
  5
101
  8
1
 10
-2978.82019
 20
-1250.00223
 30
0.0
 70
0
  0
VERTEX
  5
102
  8
1
 10
-2993.869035
 20
-1249.102071
 30
0.0
 70
0
  0
SEQEND
  5
30
  8
1
  0
LINE
  5
103
  8
7
 10
-3387.257385
 20
-1086.681671
 30
0.0
 11
-2519.147034
 21
-1086.681671
 31
0.0
  0
ENDSEC
  0
EOF
