  0
SECTION
  2
HEADER
  9
$ACADVER
  1
AC1009
  9
$DWGCODEPAGE
  3
ANSI_1252
  9
$INSBASE
 10
0.0
 20
0.0
 30
0.0
  9
$EXTMIN
 10
1e+20
 20
1e+20
 30
1e+20
  9
$EXTMAX
 10
-1e+20
 20
-1e+20
 30
-1e+20
  9
$LIMMIN
 10
0.0
 20
0.0
  9
$LIMMAX
 10
420.0
 20
297.0
  9
$ORTHOMODE
 70
0
  9
$REGENMODE
 70
1
  9
$FILLMODE
 70
1
  9
$DRAGMODE
 70
2
  9
$QTEXTMODE
 70
0
  9
$MIRRTEXT
 70
1
  9
$OSMODE
 70
20583
  9
$LTSCALE
 40
1.0
  9
$ATTMODE
 70
1
  9
$TEXTSIZE
 40
2.5
  9
$TRACEWID
 40
1.0
  9
$TEXTSTYLE
  7
Standard
  9
$CLAYER
  8
0
  9
$CELTYPE
  6
ByLayer
  9
$CECOLOR
 62
256
  9
$DIMSCALE
 40
1.0
  9
$DIMASZ
 40
2.5
  9
$DIMEXO
 40
0.625
  9
$DIMDLI
 40
3.75
  9
$DIMRND
 40
0.0
  9
$DIMDLE
 40
0.0
  9
$DIMEXE
 40
1.25
  9
$DIMTP
 40
0.0
  9
$DIMTM
 40
0.0
  9
$DIMTXT
 40
2.5
  9
$DIMCEN
 40
2.5
  9
$DIMTSZ
 40
0.0
  9
$DIMTOL
 70
0
  9
$DIMLIM
 70
0
  9
$DIMTIH
 70
0
  9
$DIMTOH
 70
0
  9
$DIMSE1
 70
0
  9
$DIMSE2
 70
0
  9
$DIMTAD
 70
1
  9
$DIMZIN
 70
8
  9
$DIMBLK
  1

  9
$DIMASO
 70
1
  9
$DIMSHO
 70
1
  9
$DIMPOST
  1

  9
$DIMAPOST
  1

  9
$DIMALT
 70
0
  9
$DIMALTD
 70
3
  9
$DIMALTF
 40
0.03937007874
  9
$DIMLFAC
 40
1.0
  9
$DIMTOFL
 70
1
  9
$DIMTVP
 40
0.0
  9
$DIMTIX
 70
0
  9
$DIMSOXD
 70
0
  9
$DIMSAH
 70
0
  9
$DIMBLK1
  1

  9
$DIMBLK2
  1

  9
$DIMSTYLE
  2
ISO-25
  9
$DIMCLRD
 70
0
  9
$DIMCLRE
 70
0
  9
$DIMCLRT
 70
0
  9
$DIMTFAC
 40
1.0
  9
$DIMGAP
 40
0.625
  9
$COORDS
 70
1
  9
$ATTDIA
 70
0
  9
$ATTREQ
 70
1
  9
$HANDLING
 70
1
  9
$LUNITS
 70
2
  9
$LUPREC
 70
4
  9
$SKETCHINC
 40
1.0
  9
$FILLETRAD
 40
10.0
  9
$AUNITS
 70
0
  9
$AUPREC
 70
2
  9
$MENU
  1
.
  9
$ELEVATION
 40
0.0
  9
$PELEVATION
 40
0.0
  9
$THICKNESS
 40
0.0
  9
$LIMCHECK
 70
0
  9
$CHAMFERA
 40
0.0
  9
$CHAMFERB
 40
0.0
  9
$SKPOLY
 70
0
  9
$TDCREATE
 40
2461259.4353819443
  9
$TDUPDATE
 40
2461259.4353819443
  9
$TDINDWG
 40
0.0
  9
$TDUSRTIMER
 40
0.0
  9
$USRTIMER
 70
1
  9
$ANGBASE
 50
0.0
  9
$ANGDIR
 70
0
  9
$PDMODE
 70
0
  9
$PDSIZE
 40
0.0
  9
$PLINEWID
 40
0.0
  9
$SPLFRAME
 70
0
  9
$SPLINETYPE
 70
6
  9
$SPLINESEGS
 70
8
  9
$HANDSEED
  5
F9
  9
$SURFTAB1
 70
6
  9
$SURFTAB2
 70
6
  9
$SURFTYPE
 70
6
  9
$SURFU
 70
6
  9
$SURFV
 70
6
  9
$UCSNAME
  2

  9
$UCSORG
 10
0.0
 20
0.0
 30
0.0
  9
$UCSXDIR
 10
1.0
 20
0.0
 30
0.0
  9
$UCSYDIR
 10
0.0
 20
1.0
 30
0.0
  9
$PUCSNAME
  2

  9
$PUCSORG
 10
0.0
 20
0.0
 30
0.0
  9
$PUCSXDIR
 10
1.0
 20
0.0
 30
0.0
  9
$PUCSYDIR
 10
0.0
 20
1.0
 30
0.0
  9
$USERI1
 70
0
  9
$USERI2
 70
0
  9
$USERI3
 70
0
  9
$USERI4
 70
0
  9
$USERI5
 70
0
  9
$USERR1
 40
0.0
  9
$USERR2
 40
0.0
  9
$USERR3
 40
0.0
  9
$USERR4
 40
0.0
  9
$USERR5
 40
0.0
  9
$WORLDVIEW
 70
1
  9
$SHADEDGE
 70
3
  9
$SHADEDIF
 70
70
  9
$TILEMODE
 70
1
  9
$MAXACTVP
 70
64
  9
$PLIMCHECK
 70
0
  9
$PEXTMIN
 10
1e+20
 20
1e+20
 30
1e+20
  9
$PEXTMAX
 10
-1e+20
 20
-1e+20
 30
-1e+20
  9
$PLIMMIN
 10
0.0
 20
0.0
  9
$PLIMMAX
 10
420.0
 20
297.0
  9
$UNITMODE
 70
0
  9
$VISRETAIN
 70
1
  9
$PLINEGEN
 70
0
  9
$PSLTSCALE
 70
1
  0
ENDSEC
  0
SECTION
  2
TABLES
  0
TABLE
  2
VPORT
 70
1
  0
VPORT
  5
23
  2
*Active
 70
0
 10
0.0
 20
0.0
 11
1.0
 21
1.0
 12
0.0
 22
0.0
 13
0.0
 23
0.0
 14
0.5
 24
0.5
 15
0.5
 25
0.5
 16
0.0
 26
0.0
 36
1.0
 17
0.0
 27
0.0
 37
0.0
 40
1000.0
 41
1.34
 42
50.0
 43
0.0
 44
0.0
 50
0.0
 51
0.0
 71
0
 72
1000
 73
1
 74
3
 75
0
 76
0
 77
0
 78
0
  0
ENDTAB
  0
TABLE
  2
LTYPE
 70
3
  0
LTYPE
  5
24
  2
ByBlock
 70
0
  3

 72
65
 73
0
 40
0.0
  0
LTYPE
  5
25
  2
ByLayer
 70
0
  3

 72
65
 73
0
 40
0.0
  0
LTYPE
  5
26
  2
Continuous
 70
0
  3

 72
65
 73
0
 40
0.0
  0
ENDTAB
  0
TABLE
  2
LAYER
 70
4
  0
LAYER
  5
27
  2
0
 70
0
 62
7
  6
Continuous
  0
LAYER
  5
28
  2
Defpoints
 70
0
 62
7
  6
Continuous
  0
LAYER
  5
2D
  2
1
 70
0
 62
1
  6
Continuous
  0
LAYER
  5
2E
  2
7
 70
0
 62
7
  6
Continuous
  0
ENDTAB
  0
TABLE
  2
STYLE
 70
1
  0
STYLE
  5
29
  2
Standard
 70
0
 40
0.0
 41
1.0
 50
0.0
 71
0
 42
2.5
  3
txt
  4

  0
ENDTAB
  0
TABLE
  2
VIEW
 70
0
  0
ENDTAB
  0
TABLE
  2
UCS
 70
0
  0
ENDTAB
  0
TABLE
  2
APPID
 70
3
  0
APPID
  5
2A
  2
ACAD
 70
0
  0
APPID
  5
F7
  2
HATCHBACKGROUNDCOLOR
 70
0
  0
APPID
  5
F8
  2
EZDXF
 70
0
  0
ENDTAB
  0
TABLE
  2
DIMSTYLE
 70
1
  0
DIMSTYLE
105
2B
  2
Standard
 70
0
  3

  4

  5

  6

  7

 40
1.0
 41
2.5
 42
0.625
 43
3.75
 44
1.25
 45
0.0
 46
0.0
 47
0.0
 48
0.0
140
2.5
141
2.5
142
0.0
143
0.03937007874
144
1.0
145
0.0
146
1.0
147
0.625
 71
0
 72
0
 73
0
 74
0
 75
0
 76
0
 77
1
 78
8
170
0
171
3
172
1
173
0
174
0
175
0
176
0
177
0
178
0
  0
ENDTAB
  0
ENDSEC
  0
SECTION
  2
BLOCKS
  0
BLOCK
  5
18
  8
0
  2
$Model_Space
 70
0
 10
0.0
 20
0.0
 30
0.0
  3
$Model_Space
  1

1001
EZDXF
1000
CREATED_BY_EZDXF
1000
1.4.4 @ 2026-08-06T02:26:57.772153+00:00
1000
WRITTEN_BY_EZDXF
1000
1.4.4 @ 2026-08-06T02:26:57.774153+00:00
  0
ENDBLK
  5
19
  8
0
  0
BLOCK
  5
1C
  8
0
  2
$Paper_Space
 70
0
 10
0.0
 20
0.0
 30
0.0
  3
$Paper_Space
  1

  0
ENDBLK
  5
1D
  8
0
  0
ENDSEC
  0
SECTION
  2
ENTITIES
  0
POLYLINE
  5
2F
  8
1
 66
1
 10
0.0
 20
0.0
 30
0.0
 70
1
  0
VERTEX
  5
31
  8
1
 10
-3009.311829
 20
-1230.401001
 30
0.0
 70
0
  0
VERTEX
  5
32
  8
1
 10
-3009.226685
 20
-1230.403595
 30
0.0
 70
0
  0
VERTEX
  5
33
  8
1
 10
-3019.46264
 20
-1230.087665
 30
0.0
 70
0
  0
VERTEX
  5
34
  8
1
 10
-3034.39253
 20
-1229.618535
 30
0.0
 70
0
  0
VERTEX
  5
35
  8
1
 10
-3049.702335
 20
-1229.126509
 30
0.0
 70
0
  0
VERTEX
  5
36
  8
1
 10
-3065.142399
 20
-1228.61561
 30
0.0
 70
0
  0
VERTEX
  5
37
  8
1
 10
-3080.425079
 20
-1228.096191
 30
0.0
 70
0
  0
VERTEX
  5
38
  8
1
 10
-3095.822978
 20
-1227.561881
 30
0.0
 70
0
  0
VERTEX
  5
39
  8
1
 10
-3111.104831
 20
-1227.0208
 30
0.0
 70
0
  0
VERTEX
  5
3A
  8
1
 10
-3126.506903
 20
-1226.463729
 30
0.0
 70
0
  0
VERTEX
  5
3B
  8
1
 10
-3141.787877
 20
-1225.899025
 30
0.0
 70
0
  0
VERTEX
  5
3C
  8
1
 10
-3156.79887
 20
-1225.332418
 30
0.0
 70
0
  0
VERTEX
  5
3D
  8
1
 10
-3172.079001
 20
-1224.743072
 30
0.0
 70
0
  0
VERTEX
  5
3E
  8
1
 10
-3187.508085
 20
-1224.134487
 30
0.0
 70
0
  0
VERTEX
  5
3F
  8
1
 10
-3202.787187
 20
-1223.517741
 30
0.0
 70
0
  0
VERTEX
  5
40
  8
1
 10
-3217.881736
 20
-1222.893905
 30
0.0
 70
0
  0
VERTEX
  5
41
  8
1
 10
-3233.159553
 20
-1222.246674
 30
0.0
 70
0
  0
VERTEX
  5
42
  8
1
 10
-3248.248011
 20
-1221.590714
 30
0.0
 70
0
  0
VERTEX
  5
43
  8
1
 10
-3263.524234
 20
-1220.908836
 30
0.0
 70
0
  0
VERTEX
  5
44
  8
1
 10
-3278.957945
 20
-1220.201419
 30
0.0
 70
0
  0
VERTEX
  5
45
  8
1
 10
-3294.232597
 20
-1219.484349
 30
0.0
 70
0
  0
VERTEX
  5
46
  8
1
 10
-3309.630662
 20
-1218.746233
 30
0.0
 70
0
  0
VERTEX
  5
47
  8
1
 10
-3324.903943
 20
-1217.999919
 30
0.0
 70
0
  0
VERTEX
  5
48
  8
1
 10
-3340.186976
 20
-1217.239741
 30
0.0
 70
0
  0
VERTEX
  5
49
  8
1
 10
-3355.458992
 20
-1216.467738
 30
0.0
 70
0
  0
VERTEX
  5
4A
  8
1
 10
-3370.844855
 20
-1215.678401
 30
0.0
 70
0
  0
VERTEX
  5
4B
  8
1
 10
-3386.642195
 20
-1214.855972
 30
0.0
 70
0
  0
VERTEX
  5
4C
  8
1
 10
-3401.516502
 20
-1214.070075
 30
0.0
 70
0
  0
VERTEX
  5
4D
  8
1
 10
-3416.786021
 20
-1213.250026
 30
0.0
 70
0
  0
VERTEX
  5
4E
  8
1
 10
-3431.863735
 20
-1212.426735
 30
0.0
 70
0
  0
VERTEX
  5
4F
  8
1
 10
-3446.302185
 20
-1211.631165
 30
0.0
 70
0
  0
VERTEX
  5
50
  8
1
 10
-3447.171249
 20
-1211.583285
 30
0.0
 70
0
  0
VERTEX
  5
51
  8
1
 10
-3462.350577
 20
-1210.745765
 30
0.0
 70
0
  0
VERTEX
  5
52
  8
1
 10
-3478.045654
 20
-1209.879913
 30
0.0
 70
0
  0
VERTEX
  5
53
  8
1
 10
-3477.987383
 20
-1194.413927
 30
0.0
 70
0
  0
VERTEX
  5
54
  8
1
 10
-3477.92951
 20
-1179.081333
 30
0.0
 70
0
  0
VERTEX
  5
55
  8
1
 10
-3477.872553
 20
-1164.007021
 30
0.0
 70
0
  0
VERTEX
  5
56
  8
1
 10
-3477.814613
 20
-1148.674415
 30
0.0
 70
0
  0
VERTEX
  5
57
  8
1
 10
-3477.756705
 20
-1133.341801
 30
0.0
 70
0
  0
VERTEX
  5
58
  8
1
 10
-3477.699936
 20
-1118.29496
 30
0.0
 70
0
  0
VERTEX
  5
59
  8
1
 10
-3477.64213
 20
-1102.96233
 30
0.0
 70
0
  0
VERTEX
  5
5A
  8
1
 10
-3477.585346
 20
-1087.897261
 30
0.0
 70
0
  0
VERTEX
  5
5B
  8
1
 10
-3477.527567
 20
-1072.564633
 30
0.0
 70
0
  0
VERTEX
  5
5C
  8
1
 10
-3477.469769
 20
-1057.22005
 30
0.0
 70
0
  0
VERTEX
  5
5D
  8
1
 10
-3477.412052
 20
-1041.887433
 30
0.0
 70
0
  0
VERTEX
  5
5E
  8
1
 10
-3477.355232
 20
-1026.781116
 30
0.0
 70
0
  0
VERTEX
  5
5F
  8
1
 10
-3477.297592
 20
-1011.448514
 30
0.0
 70
0
  0
VERTEX
  5
60
  8
1
 10
-3477.240002
 20
-996.130664
 30
0.0
 70
0
  0
VERTEX
  5
61
  8
1
 10
-3477.182317
 20
-980.798025
 30
0.0
 70
0
  0
VERTEX
  5
62
  8
1
 10
-3477.13623
 20
-968.559494
 30
0.0
 70
0
  0
VERTEX
  5
63
  8
1
 10
-3461.575787
 20
-967.743905
 30
0.0
 70
0
  0
VERTEX
  5
64
  8
1
 10
-3446.482899
 20
-966.952831
 30
0.0
 70
0
  0
VERTEX
  5
65
  8
1
 10
-3445.379944
 20
-966.895065
 30
0.0
 70
0
  0
VERTEX
  5
66
  8
1
 10
-3431.453636
 20
-966.165102
 30
0.0
 70
0
  0
VERTEX
  5
67
  8
1
 10
-3416.244382
 20
-965.367947
 30
0.0
 70
0
  0
VERTEX
  5
68
  8
1
 10
-3401.169729
 20
-964.577849
 30
0.0
 70
0
  0
VERTEX
  5
69
  8
1
 10
-3385.960448
 20
-963.780692
 30
0.0
 70
0
  0
VERTEX
  5
6A
  8
1
 10
-3370.763887
 20
-962.984195
 30
0.0
 70
0
  0
VERTEX
  5
6B
  8
1
 10
-3355.55459
 20
-962.187023
 30
0.0
 70
0
  0
VERTEX
  5
6C
  8
1
 10
-3340.249539
 20
-961.384826
 30
0.0
 70
0
  0
VERTEX
  5
6D
  8
1
 10
-3325.040208
 20
-960.587653
 30
0.0
 70
0
  0
VERTEX
  5
6E
  8
1
 10
-3309.779753
 20
-959.787815
 30
0.0
 70
0
  0
VERTEX
  5
6F
  8
1
 10
-3294.570433
 20
-958.99066
 30
0.0
 70
0
  0
VERTEX
  5
70
  8
1
 10
-3279.541839
 20
-958.202967
 30
0.0
 70
0
  0
VERTEX
  5
71
  8
1
 10
-3264.332549
 20
-957.405798
 30
0.0
 70
0
  0
VERTEX
  5
72
  8
1
 10
-3248.839004
 20
-956.593736
 30
0.0
 70
0
  0
VERTEX
  5
73
  8
1
 10
-3233.695802
 20
-955.800036
 30
0.0
 70
0
  0
VERTEX
  5
74
  8
1
 10
-3218.486598
 20
-955.002872
 30
0.0
 70
0
  0
VERTEX
  5
75
  8
1
 10
-3203.285317
 20
-954.206122
 30
0.0
 70
0
  0
VERTEX
  5
76
  8
1
 10
-3188.075993
 20
-953.408952
 30
0.0
 70
0
  0
VERTEX
  5
77
  8
1
 10
-3173.047334
 20
-952.621252
 30
0.0
 70
0
  0
VERTEX
  5
78
  8
1
 10
-3157.837966
 20
-951.824076
 30
0.0
 70
0
  0
VERTEX
  5
79
  8
1
 10
-3142.694667
 20
-951.030361
 30
0.0
 70
0
  0
VERTEX
  5
7A
  8
1
 10
-3127.485316
 20
-950.233186
 30
0.0
 70
0
  0
VERTEX
  5
7B
  8
1
 10
-3112.516165
 20
-949.448609
 30
0.0
 70
0
  0
VERTEX
  5
7C
  8
1
 10
-3096.7824
 20
-948.62397
 30
0.0
 70
0
  0
VERTEX
  5
7D
  8
1
 10
-3082.046471
 20
-947.851633
 30
0.0
 70
0
  0
VERTEX
  5
7E
  8
1
 10
-3066.312747
 20
-947.026991
 30
0.0
 70
0
  0
VERTEX
  5
7F
  8
1
 10
-3051.401687
 20
-946.24546
 30
0.0
 70
0
  0
VERTEX
  5
80
  8
1
 10
-3036.003066
 20
-945.438369
 30
0.0
 70
0
  0
VERTEX
  5
81
  8
1
 10
-3021.089775
 20
-944.656712
 30
0.0
 70
0
  0
VERTEX
  5
82
  8
1
 10
-3009.49646
 20
-944.049072
 30
0.0
 70
0
  0
VERTEX
  5
83
  8
1
 10
-3009.904175
 20
-944.071808
 30
0.0
 70
0
  0
VERTEX
  5
84
  8
1
 10
-2994.364497
 20
-942.248276
 30
0.0
 70
0
  0
VERTEX
  5
85
  8
1
 10
-2979.366768
 20
-940.390748
 30
0.0
 70
0
  0
VERTEX
  5
86
  8
1
 10
-2964.082877
 20
-938.363594
 30
0.0
 70
0
  0
VERTEX
  5
87
  8
1
 10
-2949.462491
 20
-936.295356
 30
0.0
 70
0
  0
VERTEX
  5
88
  8
1
 10
-2933.90045
 20
-933.960307
 30
0.0
 70
0
  0
VERTEX
  5
89
  8
1
 10
-2919.291325
 20
-931.621764
 30
0.0
 70
0
  0
VERTEX
  5
8A
  8
1
 10
-2903.782514
 20
-928.956048
 30
0.0
 70
0
  0
VERTEX
  5
8B
  8
1
 10
-2888.656645
 20
-926.153715
 30
0.0
 70
0
  0
VERTEX
  5
8C
  8
1
 10
-2873.706642
 20
-923.17135
 30
0.0
 70
0
  0
VERTEX
  5
8D
  8
1
 10
-2858.94311
 20
-920.012457
 30
0.0
 70
0
  0
VERTEX
  5
8E
  8
1
 10
-2844.082419
 20
-916.612021
 30
0.0
 70
0
  0
VERTEX
  5
8F
  8
1
 10
-2829.367135
 20
-913.014473
 30
0.0
 70
0
  0
VERTEX
  5
90
  8
1
 10
-2814.61536
 20
-909.169133
 30
0.0
 70
0
  0
VERTEX
  5
91
  8
1
 10
-2799.935315
 20
-905.112787
 30
0.0
 70
0
  0
VERTEX
  5
92
  8
1
 10
-2785.297134
 20
-900.85662
 30
0.0
 70
0
  0
VERTEX
  5
93
  8
1
 10
-2770.74539
 20
-896.45154
 30
0.0
 70
0
  0
VERTEX
  5
94
  8
1
 10
-2756.196155
 20
-891.899953
 30
0.0
 70
0
  0
VERTEX
  5
95
  8
1
 10
-2741.794263
 20
-887.231473
 30
0.0
 70
0
  0
VERTEX
  5
96
  8
1
 10
-2727.345394
 20
-882.371778
 30
0.0
 70
0
  0
VERTEX
  5
97
  8
1
 10
-2718.69751
 20
-879.37912
 30
0.0
 70
0
  0
VERTEX
  5
98
  8
1
 10
-2712.956698
 20
-877.392386
 30
0.0
 70
0
  0
VERTEX
  5
99
  8
1
 10
-2698.927446
 20
-872.450689
 30
0.0
 70
0
  0
VERTEX
  5
9A
  8
1
 10
-2697.154541
 20
-871.821671
 30
0.0
 70
0
  0
VERTEX
  5
9B
  8
1
 10
-2690.020142
 20
-875.925751
 30
0.0
 70
0
  0
VERTEX
  5
9C
  8
1
 10
-2688.938911
 20
-883.064311
 30
0.0
 70
0
  0
VERTEX
  5
9D
  8
1
 10
-2687.684226
 20
-889.673573
 30
0.0
 70
0
  0
VERTEX
  5
9E
  8
1
 10
-2686.372046
 20
-895.365195
 30
0.0
 70
0
  0
VERTEX
  5
9F
  8
1
 10
-2684.923484
 20
-900.569737
 30
0.0
 70
0
  0
VERTEX
  5
A0
  8
1
 10
-2683.197806
 20
-905.842142
 30
0.0
 70
0
  0
VERTEX
  5
A1
  8
1
 10
-2681.321483
 20
-910.818174
 30
0.0
 70
0
  0
VERTEX
  5
A2
  8
1
 10
-2679.331223
 20
-915.404734
 30
0.0
 70
0
  0
VERTEX
  5
A3
  8
1
 10
-2677.223181
 20
-919.65361
 30
0.0
 70
0
  0
VERTEX
  5
A4
  8
1
 10
-2674.978519
 20
-923.628882
 30
0.0
 70
0
  0
VERTEX
  5
A5
  8
1
 10
-2672.687836
 20
-927.196232
 30
0.0
 70
0
  0
VERTEX
  5
A6
  8
1
 10
-2670.344437
 20
-930.40869
 30
0.0
 70
0
  0
VERTEX
  5
A7
  8
1
 10
-2667.885241
 20
-933.366154
 30
0.0
 70
0
  0
VERTEX
  5
A8
  8
1
 10
-2665.355082
 20
-936.020179
 30
0.0
 70
0
  0
VERTEX
  5
A9
  8
1
 10
-2662.793011
 20
-938.349914
 30
0.0
 70
0
  0
VERTEX
  5
AA
  8
1
 10
-2659.945575
 20
-940.599397
 30
0.0
 70
0
  0
VERTEX
  5
AB
  8
1
 10
-2656.599024
 20
-942.906031
 30
0.0
 70
0
  0
VERTEX
  5
AC
  8
1
 10
-2652.99567
 20
-945.085335
 30
0.0
 70
0
  0
VERTEX
  5
AD
  8
1
 10
-2648.784253
 20
-947.329994
 30
0.0
 70
0
  0
VERTEX
  5
AE
  8
1
 10
-2644.129234
 20
-949.516332
 30
0.0
 70
0
  0
VERTEX
  5
AF
  8
1
 10
-2638.888095
 20
-951.69323
 30
0.0
 70
0
  0
VERTEX
  5
B0
  8
1
 10
-2632.955847
 20
-953.879588
 30
0.0
 70
0
  0
VERTEX
  5
B1
  8
1
 10
-2625.971343
 20
-956.174155
 30
0.0
 70
0
  0
VERTEX
  5
B2
  8
1
 10
-2618.46872
 20
-958.369666
 30
0.0
 70
0
  0
VERTEX
  5
B3
  8
1
 10
-2608.861463
 20
-960.88631
 30
0.0
 70
0
  0
VERTEX
  5
B4
  8
1
 10
-2605.582275
 20
-961.691589
 30
0.0
 70
0
  0
VERTEX
  5
B5
  8
1
 10
-2590.302121
 20
-965.659611
 30
0.0
 70
0
  0
VERTEX
  5
B6
  8
1
 10
-2575.154372
 20
-969.59562
 30
0.0
 70
0
  0
VERTEX
  5
B7
  8
1
 10
-2560.360424
 20
-973.442865
 30
0.0
 70
0
  0
VERTEX
  5
B8
  8
1
 10
-2545.208427
 20
-977.387123
 30
0.0
 70
0
  0
VERTEX
  5
B9
  8
1
 10
-2530.054009
 20
-981.33629
 30
0.0
 70
0
  0
VERTEX
  5
BA
  8
1
 10
-2514.90405
 20
-985.288512
 30
0.0
 70
0
  0
VERTEX
  5
BB
  8
1
 10
-2500.202249
 20
-989.127573
 30
0.0
 70
0
  0
VERTEX
  5
BC
  8
1
 10
-2485.461687
 20
-992.979689
 30
0.0
 70
0
  0
VERTEX
  5
BD
  8
1
 10
-2474.202728
 20
-995.923767
 30
0.0
 70
0
  0
VERTEX
  5
BE
  8
1
 10
-2470.872436
 20
-996.794594
 30
0.0
 70
0
  0
VERTEX
  5
BF
  8
1
 10
-2461.647034
 20
-999.208145
 30
0.0
 70
0
  0
VERTEX
  5
C0
  8
1
 10
-2462.422646
 20
-1015.044467
 30
0.0
 70
0
  0
VERTEX
  5
C1
  8
1
 10
-2462.446899
 20
-1015.539017
 30
0.0
 70
0
  0
VERTEX
  5
C2
  8
1
 10
-2463.175792
 20
-1030.403397
 30
0.0
 70
0
  0
VERTEX
  5
C3
  8
1
 10
-2463.927035
 20
-1045.629909
 30
0.0
 70
0
  0
VERTEX
  5
C4
  8
1
 10
-2464.692517
 20
-1060.98822
 30
0.0
 70
0
  0
VERTEX
  5
C5
  8
1
 10
-2465.464994
 20
-1076.346186
 30
0.0
 70
0
  0
VERTEX
  5
C6
  8
1
 10
-2466.228513
 20
-1091.416261
 30
0.0
 70
0
  0
VERTEX
  5
C7
  8
1
 10
-2467.012416
 20
-1106.773657
 30
0.0
 70
0
  0
VERTEX
  5
C8
  8
1
 10
-2467.797521
 20
-1122.028056
 30
0.0
 70
0
  0
VERTEX
  5
C9
  8
1
 10
-2468.594828
 20
-1137.384771
 30
0.0
 70
0
  0
VERTEX
  5
CA
  8
1
 10
-2469.395605
 20
-1152.66825
 30
0.0
 70
0
  0
VERTEX
  5
CB
  8
1
 10
-2470.208181
 20
-1168.024162
 30
0.0
 70
0
  0
VERTEX
  5
CC
  8
1
 10
-2471.025911
 20
-1183.309922
 30
0.0
 70
0
  0
VERTEX
  5
CD
  8
1
 10
-2471.273193
 20
-1187.898483
 30
0.0
 70
0
  0
VERTEX
  5
CE
  8
1
 10
-2471.856432
 20
-1198.664861
 30
0.0
 70
0
  0
VERTEX
  5
CF
  8
1
 10
-2472.691164
 20
-1213.941368
 30
0.0
 70
0
  0
VERTEX
  5
D0
  8
1
 10
-2473.53415
 20
-1229.274558
 30
0.0
 70
0
  0
VERTEX
  5
D1
  8
1
 10
-2474.098816
 20
-1239.542999
 30
0.0
 70
0
  0
VERTEX
  5
D2
  8
1
 10
-2479.531149
 20
-1239.945499
 30
0.0
 70
0
  0
VERTEX
  5
D3
  8
1
 10
-2486.871338
 20
-1240.480957
 30
0.0
 70
0
  0
VERTEX
  5
D4
  8
1
 10
-2494.720907
 20
-1241.053543
 30
0.0
 70
0
  0
VERTEX
  5
D5
  8
1
 10
-2509.724656
 20
-1242.097579
 30
0.0
 70
0
  0
VERTEX
  5
D6
  8
1
 10
-2524.809775
 20
-1243.05396
 30
0.0
 70
0
  0
VERTEX
  5
D7
  8
1
 10
-2539.827035
 20
-1243.881671
 30
0.0
 70
0
  0
VERTEX
  5
D8
  8
1
 10
-2554.902727
 20
-1244.574471
 30
0.0
 70
0
  0
VERTEX
  5
D9
  8
1
 10
-2569.933005
 20
-1245.118706
 30
0.0
 70
0
  0
VERTEX
  5
DA
  8
1
 10
-2585.225542
 20
-1245.518635
 30
0.0
 70
0
  0
VERTEX
  5
DB
  8
1
 10
-2600.263671
 20
-1245.762144
 30
0.0
 70
0
  0
VERTEX
  5
DC
  8
1
 10
-2615.554173
 20
-1245.867775
 30
0.0
 70
0
  0
VERTEX
  5
DD
  8
1
 10
-2630.594287
 20
-1245.841591
 30
0.0
 70
0
  0
VERTEX
  5
DE
  8
1
 10
-2645.69489
 20
-1245.69246
 30
0.0
 70
0
  0
VERTEX
  5
DF
  8
1
 10
-2660.732586
 20
-1245.429406
 30
0.0
 70
0
  0
VERTEX
  5
E0
  8
1
 10
-2675.910788
 20
-1245.058394
 30
0.0
 70
0
  0
VERTEX
  5
E1
  8
1
 10
-2690.943747
 20
-1244.597494
 30
0.0
 70
0
  0
VERTEX
  5
E2
  8
1
 10
-2706.40318
 20
-1244.039139
 30
0.0
 70
0
  0
VERTEX
  5
E3
  8
1
 10
-2721.430755
 20
-1243.428841
 30
0.0
 70
0
  0
VERTEX
  5
E4
  8
1
 10
-2736.546233
 20
-1242.767202
 30
0.0
 70
0
  0
VERTEX
  5
E5
  8
1
 10
-2751.570435
 20
-1242.08116
 30
0.0
 70
0
  0
VERTEX
  5
E6
  8
1
 10
-2766.633089
 20
-1241.3822
 30
0.0
 70
0
  0
VERTEX
  5
E7
  8
1
 10
-2781.656921
 20
-1240.686679
 30
0.0
 70
0
  0
VERTEX
  5
E8
  8
1
 10
-2796.744949
 20
-1239.991393
 30
0.0
 70
0
  0
VERTEX
  5
E9
  8
1
 10
-2811.769016
 20
-1239.301839
 30
0.0
 70
0
  0
VERTEX
  5
EA
  8
1
 10
-2826.830313
 20
-1238.612746
 30
0.0
 70
0
  0
VERTEX
  5
EB
  8
1
 10
-2841.854591
 20
-1237.927032
 30
0.0
 70
0
  0
VERTEX
  5
EC
  8
1
 10
-2857.197087
 20
-1237.228624
 30
0.0
 70
0
  0
VERTEX
  5
ED
  8
1
 10
-2872.221583
 20
-1236.546618
 30
0.0
 70
0
  0
VERTEX
  5
EE
  8
1
 10
-2887.558234
 20
-1235.852272
 30
0.0
 70
0
  0
VERTEX
  5
EF
  8
1
 10
-2902.582858
 20
-1235.173695
 30
0.0
 70
0
  0
VERTEX
  5
F0
  8
1
 10
-2917.616414
 20
-1234.496334
 30
0.0
 70
0
  0
VERTEX
  5
F1
  8
1
 10
-2932.641176
 20
-1233.820984
 30
0.0
 70
0
  0
VERTEX
  5
F2
  8
1
 10
-2947.799766
 20
-1233.141168
 30
0.0
 70
0
  0
VERTEX
  5
F3
  8
1
 10
-2962.824707
 20
-1232.468874
 30
0.0
 70
0
  0
VERTEX
  5
F4
  8
1
 10
-2978.334403
 20
-1231.776881
 30
0.0
 70
0
  0
VERTEX
  5
F5
  8
1
 10
-2993.640882
 20
-1231.096149
 30
0.0
 70
0
  0
SEQEND
  5
30
  8
1
  0
LINE
  5
F6
  8
7
 10
-3387.257385
 20
-1086.681671
 30
0.0
 11
-2519.147034
 21
-1086.681671
 31
0.0
  0
ENDSEC
  0
EOF
