  0
SECTION
  2
HEADER
  9
$ACADVER
  1
AC1009
  9
$DWGCODEPAGE
  3
ANSI_1252
  9
$INSBASE
 10
0.0
 20
0.0
 30
0.0
  9
$EXTMIN
 10
1e+20
 20
1e+20
 30
1e+20
  9
$EXTMAX
 10
-1e+20
 20
-1e+20
 30
-1e+20
  9
$LIMMIN
 10
0.0
 20
0.0
  9
$LIMMAX
 10
420.0
 20
297.0
  9
$ORTHOMODE
 70
0
  9
$REGENMODE
 70
1
  9
$FILLMODE
 70
1
  9
$DRAGMODE
 70
2
  9
$QTEXTMODE
 70
0
  9
$MIRRTEXT
 70
1
  9
$OSMODE
 70
20583
  9
$LTSCALE
 40
1.0
  9
$ATTMODE
 70
1
  9
$TEXTSIZE
 40
2.5
  9
$TRACEWID
 40
1.0
  9
$TEXTSTYLE
  7
Standard
  9
$CLAYER
  8
0
  9
$CELTYPE
  6
ByLayer
  9
$CECOLOR
 62
256
  9
$DIMSCALE
 40
1.0
  9
$DIMASZ
 40
2.5
  9
$DIMEXO
 40
0.625
  9
$DIMDLI
 40
3.75
  9
$DIMRND
 40
0.0
  9
$DIMDLE
 40
0.0
  9
$DIMEXE
 40
1.25
  9
$DIMTP
 40
0.0
  9
$DIMTM
 40
0.0
  9
$DIMTXT
 40
2.5
  9
$DIMCEN
 40
2.5
  9
$DIMTSZ
 40
0.0
  9
$DIMTOL
 70
0
  9
$DIMLIM
 70
0
  9
$DIMTIH
 70
0
  9
$DIMTOH
 70
0
  9
$DIMSE1
 70
0
  9
$DIMSE2
 70
0
  9
$DIMTAD
 70
1
  9
$DIMZIN
 70
8
  9
$DIMBLK
  1

  9
$DIMASO
 70
1
  9
$DIMSHO
 70
1
  9
$DIMPOST
  1

  9
$DIMAPOST
  1

  9
$DIMALT
 70
0
  9
$DIMALTD
 70
3
  9
$DIMALTF
 40
0.03937007874
  9
$DIMLFAC
 40
1.0
  9
$DIMTOFL
 70
1
  9
$DIMTVP
 40
0.0
  9
$DIMTIX
 70
0
  9
$DIMSOXD
 70
0
  9
$DIMSAH
 70
0
  9
$DIMBLK1
  1

  9
$DIMBLK2
  1

  9
$DIMSTYLE
  2
ISO-25
  9
$DIMCLRD
 70
0
  9
$DIMCLRE
 70
0
  9
$DIMCLRT
 70
0
  9
$DIMTFAC
 40
1.0
  9
$DIMGAP
 40
0.625
  9
$COORDS
 70
1
  9
$ATTDIA
 70
0
  9
$ATTREQ
 70
1
  9
$HANDLING
 70
1
  9
$LUNITS
 70
2
  9
$LUPREC
 70
4
  9
$SKETCHINC
 40
1.0
  9
$FILLETRAD
 40
10.0
  9
$AUNITS
 70
0
  9
$AUPREC
 70
2
  9
$MENU
  1
.
  9
$ELEVATION
 40
0.0
  9
$PELEVATION
 40
0.0
  9
$THICKNESS
 40
0.0
  9
$LIMCHECK
 70
0
  9
$CHAMFERA
 40
0.0
  9
$CHAMFERB
 40
0.0
  9
$SKPOLY
 70
0
  9
$TDCREATE
 40
2461264.9423032408
  9
$TDUPDATE
 40
2461264.9423032408
  9
$TDINDWG
 40
0.0
  9
$TDUSRTIMER
 40
0.0
  9
$USRTIMER
 70
1
  9
$ANGBASE
 50
0.0
  9
$ANGDIR
 70
0
  9
$PDMODE
 70
0
  9
$PDSIZE
 40
0.0
  9
$PLINEWID
 40
0.0
  9
$SPLFRAME
 70
0
  9
$SPLINETYPE
 70
6
  9
$SPLINESEGS
 70
8
  9
$HANDSEED
  5
22D
  9
$SURFTAB1
 70
6
  9
$SURFTAB2
 70
6
  9
$SURFTYPE
 70
6
  9
$SURFU
 70
6
  9
$SURFV
 70
6
  9
$UCSNAME
  2

  9
$UCSORG
 10
0.0
 20
0.0
 30
0.0
  9
$UCSXDIR
 10
1.0
 20
0.0
 30
0.0
  9
$UCSYDIR
 10
0.0
 20
1.0
 30
0.0
  9
$PUCSNAME
  2

  9
$PUCSORG
 10
0.0
 20
0.0
 30
0.0
  9
$PUCSXDIR
 10
1.0
 20
0.0
 30
0.0
  9
$PUCSYDIR
 10
0.0
 20
1.0
 30
0.0
  9
$USERI1
 70
0
  9
$USERI2
 70
0
  9
$USERI3
 70
0
  9
$USERI4
 70
0
  9
$USERI5
 70
0
  9
$USERR1
 40
0.0
  9
$USERR2
 40
0.0
  9
$USERR3
 40
0.0
  9
$USERR4
 40
0.0
  9
$USERR5
 40
0.0
  9
$WORLDVIEW
 70
1
  9
$SHADEDGE
 70
3
  9
$SHADEDIF
 70
70
  9
$TILEMODE
 70
1
  9
$MAXACTVP
 70
64
  9
$PLIMCHECK
 70
0
  9
$PEXTMIN
 10
1e+20
 20
1e+20
 30
1e+20
  9
$PEXTMAX
 10
-1e+20
 20
-1e+20
 30
-1e+20
  9
$PLIMMIN
 10
0.0
 20
0.0
  9
$PLIMMAX
 10
420.0
 20
297.0
  9
$UNITMODE
 70
0
  9
$VISRETAIN
 70
1
  9
$PLINEGEN
 70
0
  9
$PSLTSCALE
 70
1
  0
ENDSEC
  0
SECTION
  2
TABLES
  0
TABLE
  2
VPORT
 70
1
  0
VPORT
  5
23
  2
*Active
 70
0
 10
0.0
 20
0.0
 11
1.0
 21
1.0
 12
0.0
 22
0.0
 13
0.0
 23
0.0
 14
0.5
 24
0.5
 15
0.5
 25
0.5
 16
0.0
 26
0.0
 36
1.0
 17
0.0
 27
0.0
 37
0.0
 40
1000.0
 41
1.34
 42
50.0
 43
0.0
 44
0.0
 50
0.0
 51
0.0
 71
0
 72
1000
 73
1
 74
3
 75
0
 76
0
 77
0
 78
0
  0
ENDTAB
  0
TABLE
  2
LTYPE
 70
3
  0
LTYPE
  5
24
  2
ByBlock
 70
0
  3

 72
65
 73
0
 40
0.0
  0
LTYPE
  5
25
  2
ByLayer
 70
0
  3

 72
65
 73
0
 40
0.0
  0
LTYPE
  5
26
  2
Continuous
 70
0
  3

 72
65
 73
0
 40
0.0
  0
ENDTAB
  0
TABLE
  2
LAYER
 70
7
  0
LAYER
  5
27
  2
0
 70
0
 62
7
  6
Continuous
  0
LAYER
  5
28
  2
Defpoints
 70
0
 62
7
  6
Continuous
  0
LAYER
  5
2D
  2
1
 70
0
 62
1
  6
Continuous
  0
LAYER
  5
2E
  2
7
 70
0
 62
7
  6
Continuous
  0
LAYER
  5
2F
  2
14
 70
0
 62
3
  6
Continuous
  0
LAYER
  5
30
  2
8
 70
0
 62
6
  6
Continuous
  0
LAYER
  5
31
  2
4
 70
0
 62
2
  6
Continuous
  0
ENDTAB
  0
TABLE
  2
STYLE
 70
1
  0
STYLE
  5
29
  2
Standard
 70
0
 40
0.0
 41
1.0
 50
0.0
 71
0
 42
2.5
  3
txt
  4

  0
ENDTAB
  0
TABLE
  2
VIEW
 70
0
  0
ENDTAB
  0
TABLE
  2
UCS
 70
0
  0
ENDTAB
  0
TABLE
  2
APPID
 70
3
  0
APPID
  5
2A
  2
ACAD
 70
0
  0
APPID
  5
22B
  2
HATCHBACKGROUNDCOLOR
 70
0
  0
APPID
  5
22C
  2
EZDXF
 70
0
  0
ENDTAB
  0
TABLE
  2
DIMSTYLE
 70
1
  0
DIMSTYLE
105
2B
  2
Standard
 70
0
  3

  4

  5

  6

  7

 40
1.0
 41
2.5
 42
0.625
 43
3.75
 44
1.25
 45
0.0
 46
0.0
 47
0.0
 48
0.0
140
2.5
141
2.5
142
0.0
143
0.03937007874
144
1.0
145
0.0
146
1.0
147
0.625
 71
0
 72
0
 73
0
 74
0
 75
0
 76
0
 77
1
 78
8
170
0
171
3
172
1
173
0
174
0
175
0
176
0
177
0
178
0
  0
ENDTAB
  0
ENDSEC
  0
SECTION
  2
BLOCKS
  0
BLOCK
  5
18
  8
0
  2
$Model_Space
 70
0
 10
0.0
 20
0.0
 30
0.0
  3
$Model_Space
  1

1001
EZDXF
1000
CREATED_BY_EZDXF
1000
1.4.4 @ 2026-08-11T14:36:55.556575+00:00
1000
WRITTEN_BY_EZDXF
1000
1.4.4 @ 2026-08-11T14:36:55.561575+00:00
  0
ENDBLK
  5
19
  8
0
  0
BLOCK
  5
1C
  8
0
  2
$Paper_Space
 70
0
 10
0.0
 20
0.0
 30
0.0
  3
$Paper_Space
  1

  0
ENDBLK
  5
1D
  8
0
  0
ENDSEC
  0
SECTION
  2
ENTITIES
  0
POLYLINE
  5
32
  8
1
 66
1
 10
0.0
 20
0.0
 30
0.0
 70
1
  0
VERTEX
  5
34
  8
1
 10
-3009.434509
 20
-1245.636139
 30
0.0
 70
0
  0
VERTEX
  5
35
  8
1
 10
-3009.309387
 20
-1245.640793
 30
0.0
 70
0
  0
VERTEX
  5
36
  8
1
 10
-3021.948027
 20
-1245.168339
 30
0.0
 70
0
  0
VERTEX
  5
37
  8
1
 10
-3037.001552
 20
-1244.596487
 30
0.0
 70
0
  0
VERTEX
  5
38
  8
1
 10
-3052.41408
 20
-1243.99871
 30
0.0
 70
0
  0
VERTEX
  5
39
  8
1
 10
-3067.545778
 20
-1243.397385
 30
0.0
 70
0
  0
VERTEX
  5
3A
  8
1
 10
-3082.742176
 20
-1242.78212
 30
0.0
 70
0
  0
VERTEX
  5
3B
  8
1
 10
-3097.873059
 20
-1242.160347
 30
0.0
 70
0
  0
VERTEX
  5
3C
  8
1
 10
-3113.064759
 20
-1241.525935
 30
0.0
 70
0
  0
VERTEX
  5
3D
  8
1
 10
-3128.194728
 20
-1240.883137
 30
0.0
 70
0
  0
VERTEX
  5
3E
  8
1
 10
-3143.279103
 20
-1240.231459
 30
0.0
 70
0
  0
VERTEX
  5
3F
  8
1
 10
-3158.408132
 20
-1239.567009
 30
0.0
 70
0
  0
VERTEX
  5
40
  8
1
 10
-3173.514136
 20
-1238.892265
 30
0.0
 70
0
  0
VERTEX
  5
41
  8
1
 10
-3188.642122
 20
-1238.204671
 30
0.0
 70
0
  0
VERTEX
  5
42
  8
1
 10
-3203.630254
 20
-1237.51117
 30
0.0
 70
0
  0
VERTEX
  5
43
  8
1
 10
-3218.757038
 20
-1236.798292
 30
0.0
 70
0
  0
VERTEX
  5
44
  8
1
 10
-3234.248308
 20
-1236.054047
 30
0.0
 70
0
  0
VERTEX
  5
45
  8
1
 10
-3249.3738
 20
-1235.312679
 30
0.0
 70
0
  0
VERTEX
  5
46
  8
1
 10
-3264.592956
 20
-1234.550778
 30
0.0
 70
0
  0
VERTEX
  5
47
  8
1
 10
-3279.716788
 20
-1233.776853
 30
0.0
 70
0
  0
VERTEX
  5
48
  8
1
 10
-3295.056686
 20
-1232.975105
 30
0.0
 70
0
  0
VERTEX
  5
49
  8
1
 10
-3310.178874
 20
-1232.168966
 30
0.0
 70
0
  0
VERTEX
  5
4A
  8
1
 10
-3325.651756
 20
-1231.329298
 30
0.0
 70
0
  0
VERTEX
  5
4B
  8
1
 10
-3340.772428
 20
-1230.495524
 30
0.0
 70
0
  0
VERTEX
  5
4C
  8
1
 10
-3356.19317
 20
-1229.632397
 30
0.0
 70
0
  0
VERTEX
  5
4D
  8
1
 10
-3371.312462
 20
-1228.774156
 30
0.0
 70
0
  0
VERTEX
  5
4E
  8
1
 10
-3386.735694
 20
-1227.887281
 30
0.0
 70
0
  0
VERTEX
  5
4F
  8
1
 10
-3401.853688
 20
-1227.0075
 30
0.0
 70
0
  0
VERTEX
  5
50
  8
1
 10
-3417.100737
 20
-1226.1098
 30
0.0
 70
0
  0
VERTEX
  5
51
  8
1
 10
-3432.21752
 20
-1225.208999
 30
0.0
 70
0
  0
VERTEX
  5
52
  8
1
 10
-3447.288488
 20
-1224.298422
 30
0.0
 70
0
  0
VERTEX
  5
53
  8
1
 10
-3462.403809
 20
-1223.372203
 30
0.0
 70
0
  0
VERTEX
  5
54
  8
1
 10
-3476.777039
 20
-1222.484665
 30
0.0
 70
0
  0
VERTEX
  5
55
  8
1
 10
-3477.634751
 20
-1222.431687
 30
0.0
 70
0
  0
VERTEX
  5
56
  8
1
 10
-3492.668263
 20
-1221.502267
 30
0.0
 70
0
  0
VERTEX
  5
57
  8
1
 10
-3508.520508
 20
-1220.522308
 30
0.0
 70
0
  0
VERTEX
  5
58
  8
1
 10
-3508.467077
 20
-1204.907643
 30
0.0
 70
0
  0
VERTEX
  5
59
  8
1
 10
-3508.41513
 20
-1189.717534
 30
0.0
 70
0
  0
VERTEX
  5
5A
  8
1
 10
-3508.36365
 20
-1174.662575
 30
0.0
 70
0
  0
VERTEX
  5
5B
  8
1
 10
-3508.311682
 20
-1159.472435
 30
0.0
 70
0
  0
VERTEX
  5
5C
  8
1
 10
-3508.259665
 20
-1144.282292
 30
0.0
 70
0
  0
VERTEX
  5
5D
  8
1
 10
-3508.206674
 20
-1128.829228
 30
0.0
 70
0
  0
VERTEX
  5
5E
  8
1
 10
-3508.154528
 20
-1113.639124
 30
0.0
 70
0
  0
VERTEX
  5
5F
  8
1
 10
-3508.101471
 20
-1098.193665
 30
0.0
 70
0
  0
VERTEX
  5
60
  8
1
 10
-3508.04928
 20
-1083.003551
 30
0.0
 70
0
  0
VERTEX
  5
61
  8
1
 10
-3507.99766
 20
-1067.976443
 30
0.0
 70
0
  0
VERTEX
  5
62
  8
1
 10
-3507.945477
 20
-1052.786314
 30
0.0
 70
0
  0
VERTEX
  5
63
  8
1
 10
-3507.893636
 20
-1037.70727
 30
0.0
 70
0
  0
VERTEX
  5
64
  8
1
 10
-3507.841355
 20
-1022.517128
 30
0.0
 70
0
  0
VERTEX
  5
65
  8
1
 10
-3507.788253
 20
-1007.103489
 30
0.0
 70
0
  0
VERTEX
  5
66
  8
1
 10
-3507.735882
 20
-991.913358
 30
0.0
 70
0
  0
VERTEX
  5
67
  8
1
 10
-3507.683493
 20
-976.723253
 30
0.0
 70
0
  0
VERTEX
  5
68
  8
1
 10
-3507.63131
 20
-961.592947
 30
0.0
 70
0
  0
VERTEX
  5
69
  8
1
 10
-3507.619019
 20
-958.028717
 30
0.0
 70
0
  0
VERTEX
  5
6A
  8
1
 10
-3491.755289
 20
-957.21948
 30
0.0
 70
0
  0
VERTEX
  5
6B
  8
1
 10
-3476.708648
 20
-956.451934
 30
0.0
 70
0
  0
VERTEX
  5
6C
  8
1
 10
-3475.863342
 20
-956.408844
 30
0.0
 70
0
  0
VERTEX
  5
6D
  8
1
 10
-3461.44737
 20
-955.67345
 30
0.0
 70
0
  0
VERTEX
  5
6E
  8
1
 10
-3446.343415
 20
-954.902996
 30
0.0
 70
0
  0
VERTEX
  5
6F
  8
1
 10
-3431.214075
 20
-954.131247
 30
0.0
 70
0
  0
VERTEX
  5
70
  8
1
 10
-3416.084756
 20
-953.35949
 30
0.0
 70
0
  0
VERTEX
  5
71
  8
1
 10
-3400.857387
 20
-952.582717
 30
0.0
 70
0
  0
VERTEX
  5
72
  8
1
 10
-3385.754971
 20
-951.812313
 30
0.0
 70
0
  0
VERTEX
  5
73
  8
1
 10
-3370.625577
 20
-951.040537
 30
0.0
 70
0
  0
VERTEX
  5
74
  8
1
 10
-3355.544299
 20
-950.271224
 30
0.0
 70
0
  0
VERTEX
  5
75
  8
1
 10
-3340.4149
 20
-949.499463
 30
0.0
 70
0
  0
VERTEX
  5
76
  8
1
 10
-3325.333643
 20
-948.73016
 30
0.0
 70
0
  0
VERTEX
  5
77
  8
1
 10
-3310.204325
 20
-947.958404
 30
0.0
 70
0
  0
VERTEX
  5
78
  8
1
 10
-3295.136401
 20
-947.189778
 30
0.0
 70
0
  0
VERTEX
  5
79
  8
1
 10
-3280.007026
 20
-946.418021
 30
0.0
 70
0
  0
VERTEX
  5
7A
  8
1
 10
-3264.877594
 20
-945.646263
 30
0.0
 70
0
  0
VERTEX
  5
7B
  8
1
 10
-3249.824753
 20
-944.878412
 30
0.0
 70
0
  0
VERTEX
  5
7C
  8
1
 10
-3234.695348
 20
-944.106655
 30
0.0
 70
0
  0
VERTEX
  5
7D
  8
1
 10
-3219.614082
 20
-943.33735
 30
0.0
 70
0
  0
VERTEX
  5
7E
  8
1
 10
-3204.484725
 20
-942.565585
 30
0.0
 70
0
  0
VERTEX
  5
7F
  8
1
 10
-3189.142747
 20
-941.782966
 30
0.0
 70
0
  0
VERTEX
  5
80
  8
1
 10
-3174.013398
 20
-941.011198
 30
0.0
 70
0
  0
VERTEX
  5
81
  8
1
 10
-3159.013467
 20
-940.246045
 30
0.0
 70
0
  0
VERTEX
  5
82
  8
1
 10
-3143.884066
 20
-939.474287
 30
0.0
 70
0
  0
VERTEX
  5
83
  8
1
 10
-3128.70645
 20
-938.700051
 30
0.0
 70
0
  0
VERTEX
  5
84
  8
1
 10
-3113.577079
 20
-937.928271
 30
0.0
 70
0
  0
VERTEX
  5
85
  8
1
 10
-3098.495827
 20
-937.158959
 30
0.0
 70
0
  0
VERTEX
  5
86
  8
1
 10
-3083.366458
 20
-936.387202
 30
0.0
 70
0
  0
VERTEX
  5
87
  8
1
 10
-3068.120778
 20
-935.609518
 30
0.0
 70
0
  0
VERTEX
  5
88
  8
1
 10
-3052.991418
 20
-934.837765
 30
0.0
 70
0
  0
VERTEX
  5
89
  8
1
 10
-3037.552096
 20
-934.050194
 30
0.0
 70
0
  0
VERTEX
  5
8A
  8
1
 10
-3022.464864
 20
-933.280578
 30
0.0
 70
0
  0
VERTEX
  5
8B
  8
1
 10
-3009.47876
 20
-932.618103
 30
0.0
 70
0
  0
VERTEX
  5
8C
  8
1
 10
-3010.075989
 20
-932.650604
 30
0.0
 70
0
  0
VERTEX
  5
8D
  8
1
 10
-2994.791652
 20
-930.413417
 30
0.0
 70
0
  0
VERTEX
  5
8E
  8
1
 10
-2979.976718
 20
-928.149985
 30
0.0
 70
0
  0
VERTEX
  5
8F
  8
1
 10
-2964.661695
 20
-925.676153
 30
0.0
 70
0
  0
VERTEX
  5
90
  8
1
 10
-2949.846345
 20
-923.15076
 30
0.0
 70
0
  0
VERTEX
  5
91
  8
1
 10
-2934.817439
 20
-920.460792
 30
0.0
 70
0
  0
VERTEX
  5
92
  8
1
 10
-2920.049635
 20
-917.671399
 30
0.0
 70
0
  0
VERTEX
  5
93
  8
1
 10
-2904.989267
 20
-914.651019
 30
0.0
 70
0
  0
VERTEX
  5
94
  8
1
 10
-2890.291599
 20
-911.512383
 30
0.0
 70
0
  0
VERTEX
  5
95
  8
1
 10
-2875.579196
 20
-908.165205
 30
0.0
 70
0
  0
VERTEX
  5
96
  8
1
 10
-2860.971435
 20
-904.631493
 30
0.0
 70
0
  0
VERTEX
  5
97
  8
1
 10
-2846.308547
 20
-900.867849
 30
0.0
 70
0
  0
VERTEX
  5
98
  8
1
 10
-2831.807027
 20
-896.920509
 30
0.0
 70
0
  0
VERTEX
  5
99
  8
1
 10
-2817.190127
 20
-892.704554
 30
0.0
 70
0
  0
VERTEX
  5
9A
  8
1
 10
-2802.811308
 20
-888.331097
 30
0.0
 70
0
  0
VERTEX
  5
9B
  8
1
 10
-2788.342729
 20
-883.718339
 30
0.0
 70
0
  0
VERTEX
  5
9C
  8
1
 10
-2774.076882
 20
-878.989703
 30
0.0
 70
0
  0
VERTEX
  5
9D
  8
1
 10
-2759.759826
 20
-874.090206
 30
0.0
 70
0
  0
VERTEX
  5
9E
  8
1
 10
-2745.590267
 20
-869.08147
 30
0.0
 70
0
  0
VERTEX
  5
9F
  8
1
 10
-2731.322218
 20
-863.865657
 30
0.0
 70
0
  0
VERTEX
  5
A0
  8
1
 10
-2718.742065
 20
-859.146042
 30
0.0
 70
0
  0
VERTEX
  5
A1
  8
1
 10
-2717.250859
 20
-858.586544
 30
0.0
 70
0
  0
VERTEX
  5
A2
  8
1
 10
-2703.207019
 20
-853.234198
 30
0.0
 70
0
  0
VERTEX
  5
A3
  8
1
 10
-2697.581787
 20
-851.077881
 30
0.0
 70
0
  0
VERTEX
  5
A4
  8
1
 10
-2690.190125
 20
-854.980927
 30
0.0
 70
0
  0
VERTEX
  5
A5
  8
1
 10
-2688.608433
 20
-862.522016
 30
0.0
 70
0
  0
VERTEX
  5
A6
  8
1
 10
-2686.924005
 20
-869.346966
 30
0.0
 70
0
  0
VERTEX
  5
A7
  8
1
 10
-2685.211361
 20
-875.319737
 30
0.0
 70
0
  0
VERTEX
  5
A8
  8
1
 10
-2683.405273
 20
-880.721249
 30
0.0
 70
0
  0
VERTEX
  5
A9
  8
1
 10
-2681.415171
 20
-885.904923
 30
0.0
 70
0
  0
VERTEX
  5
AA
  8
1
 10
-2679.254564
 20
-890.859556
 30
0.0
 70
0
  0
VERTEX
  5
AB
  8
1
 10
-2676.964247
 20
-895.499961
 30
0.0
 70
0
  0
VERTEX
  5
AC
  8
1
 10
-2674.565109
 20
-899.807659
 30
0.0
 70
0
  0
VERTEX
  5
AD
  8
1
 10
-2672.099862
 20
-903.737182
 30
0.0
 70
0
  0
VERTEX
  5
AE
  8
1
 10
-2669.588194
 20
-907.294193
 30
0.0
 70
0
  0
VERTEX
  5
AF
  8
1
 10
-2666.938261
 20
-910.617744
 30
0.0
 70
0
  0
VERTEX
  5
B0
  8
1
 10
-2664.302855
 20
-913.533916
 30
0.0
 70
0
  0
VERTEX
  5
B1
  8
1
 10
-2661.604907
 20
-916.156971
 30
0.0
 70
0
  0
VERTEX
  5
B2
  8
1
 10
-2658.875792
 20
-918.472235
 30
0.0
 70
0
  0
VERTEX
  5
B3
  8
1
 10
-2655.864203
 20
-920.691658
 30
0.0
 70
0
  0
VERTEX
  5
B4
  8
1
 10
-2652.493815
 20
-922.859882
 30
0.0
 70
0
  0
VERTEX
  5
B5
  8
1
 10
-2648.625109
 20
-925.036429
 30
0.0
 70
0
  0
VERTEX
  5
B6
  8
1
 10
-2644.432999
 20
-927.104037
 30
0.0
 70
0
  0
VERTEX
  5
B7
  8
1
 10
-2639.696915
 20
-929.152647
 30
0.0
 70
0
  0
VERTEX
  5
B8
  8
1
 10
-2634.370471
 20
-931.171522
 30
0.0
 70
0
  0
VERTEX
  5
B9
  8
1
 10
-2628.349608
 20
-933.174697
 30
0.0
 70
0
  0
VERTEX
  5
BA
  8
1
 10
-2621.621755
 20
-935.146478
 30
0.0
 70
0
  0
VERTEX
  5
BB
  8
1
 10
-2614.259559
 20
-937.041192
 30
0.0
 70
0
  0
VERTEX
  5
BC
  8
1
 10
-2605.245691
 20
-939.083437
 30
0.0
 70
0
  0
VERTEX
  5
BD
  8
1
 10
-2596.645508
 20
-940.827713
 30
0.0
 70
0
  0
VERTEX
  5
BE
  8
1
 10
-2581.294228
 20
-944.259898
 30
0.0
 70
0
  0
VERTEX
  5
BF
  8
1
 10
-2566.531815
 20
-947.562354
 30
0.0
 70
0
  0
VERTEX
  5
C0
  8
1
 10
-2551.653852
 20
-950.893287
 30
0.0
 70
0
  0
VERTEX
  5
C1
  8
1
 10
-2536.62405
 20
-954.26134
 30
0.0
 70
0
  0
VERTEX
  5
C2
  8
1
 10
-2521.722288
 20
-957.603967
 30
0.0
 70
0
  0
VERTEX
  5
C3
  8
1
 10
-2506.693955
 20
-960.978413
 30
0.0
 70
0
  0
VERTEX
  5
C4
  8
1
 10
-2492.016814
 20
-964.277415
 30
0.0
 70
0
  0
VERTEX
  5
C5
  8
1
 10
-2476.98996
 20
-967.658369
 30
0.0
 70
0
  0
VERTEX
  5
C6
  8
1
 10
-2462.244501
 20
-970.978981
 30
0.0
 70
0
  0
VERTEX
  5
C7
  8
1
 10
-2447.218745
 20
-974.36495
 30
0.0
 70
0
  0
VERTEX
  5
C8
  8
1
 10
-2443.918152
 20
-975.108948
 30
0.0
 70
0
  0
VERTEX
  5
C9
  8
1
 10
-2432.575853
 20
-977.665766
 30
0.0
 70
0
  0
VERTEX
  5
CA
  8
1
 10
-2431.332397
 20
-977.946091
 30
0.0
 70
0
  0
VERTEX
  5
CB
  8
1
 10
-2432.038723
 20
-993.737792
 30
0.0
 70
0
  0
VERTEX
  5
CC
  8
1
 10
-2432.058868
 20
-994.187088
 30
0.0
 70
0
  0
VERTEX
  5
CD
  8
1
 10
-2432.720046
 20
-1008.973745
 30
0.0
 70
0
  0
VERTEX
  5
CE
  8
1
 10
-2433.400778
 20
-1024.209728
 30
0.0
 70
0
  0
VERTEX
  5
CF
  8
1
 10
-2434.070052
 20
-1039.210904
 30
0.0
 70
0
  0
VERTEX
  5
D0
  8
1
 10
-2434.748917
 20
-1054.446959
 30
0.0
 70
0
  0
VERTEX
  5
D1
  8
1
 10
-2435.427382
 20
-1069.689424
 30
0.0
 70
0
  0
VERTEX
  5
D2
  8
1
 10
-2436.104881
 20
-1084.925558
 30
0.0
 70
0
  0
VERTEX
  5
D3
  8
1
 10
-2436.78207
 20
-1100.172138
 30
0.0
 70
0
  0
VERTEX
  5
D4
  8
1
 10
-2437.457979
 20
-1115.408329
 30
0.0
 70
0
  0
VERTEX
  5
D5
  8
1
 10
-2438.126864
 20
-1130.504713
 30
0.0
 70
0
  0
VERTEX
  5
D6
  8
1
 10
-2438.801067
 20
-1145.740972
 30
0.0
 70
0
  0
VERTEX
  5
D7
  8
1
 10
-2439.476273
 20
-1161.021899
 30
0.0
 70
0
  0
VERTEX
  5
D8
  8
1
 10
-2440.14846
 20
-1176.258272
 30
0.0
 70
0
  0
VERTEX
  5
D9
  8
1
 10
-2440.787659
 20
-1190.768356
 30
0.0
 70
0
  0
VERTEX
  5
DA
  8
1
 10
-2440.828207
 20
-1191.691546
 30
0.0
 70
0
  0
VERTEX
  5
DB
  8
1
 10
-2441.498153
 20
-1206.927995
 30
0.0
 70
0
  0
VERTEX
  5
DC
  8
1
 10
-2442.167071
 20
-1222.164487
 30
0.0
 70
0
  0
VERTEX
  5
DD
  8
1
 10
-2442.836004
 20
-1237.421094
 30
0.0
 70
0
  0
VERTEX
  5
DE
  8
1
 10
-2443.505698
 20
-1252.70359
 30
0.0
 70
0
  0
VERTEX
  5
DF
  8
1
 10
-2443.861084
 20
-1260.813141
 30
0.0
 70
0
  0
VERTEX
  5
E0
  8
1
 10
-2447.782078
 20
-1261.096359
 30
0.0
 70
0
  0
VERTEX
  5
E1
  8
1
 10
-2456.612854
 20
-1261.722336
 30
0.0
 70
0
  0
VERTEX
  5
E2
  8
1
 10
-2462.871672
 20
-1262.165953
 30
0.0
 70
0
  0
VERTEX
  5
E3
  8
1
 10
-2477.896768
 20
-1263.180612
 30
0.0
 70
0
  0
VERTEX
  5
E4
  8
1
 10
-2493.22294
 20
-1264.131521
 30
0.0
 70
0
  0
VERTEX
  5
E5
  8
1
 10
-2508.25994
 20
-1264.953133
 30
0.0
 70
0
  0
VERTEX
  5
E6
  8
1
 10
-2523.568903
 20
-1265.653873
 30
0.0
 70
0
  0
VERTEX
  5
E7
  8
1
 10
-2538.618636
 20
-1266.193692
 30
0.0
 70
0
  0
VERTEX
  5
E8
  8
1
 10
-2553.906512
 20
-1266.590902
 30
0.0
 70
0
  0
VERTEX
  5
E9
  8
1
 10
-2568.96385
 20
-1266.838026
 30
0.0
 70
0
  0
VERTEX
  5
EA
  8
1
 10
-2584.222077
 20
-1266.95259
 30
0.0
 70
0
  0
VERTEX
  5
EB
  8
1
 10
-2599.281381
 20
-1266.942464
 30
0.0
 70
0
  0
VERTEX
  5
EC
  8
1
 10
-2614.370791
 20
-1266.820704
 30
0.0
 70
0
  0
VERTEX
  5
ED
  8
1
 10
-2629.428449
 20
-1266.598566
 30
0.0
 70
0
  0
VERTEX
  5
EE
  8
1
 10
-2644.690179
 20
-1266.280561
 30
0.0
 70
0
  0
VERTEX
  5
EF
  8
1
 10
-2659.744121
 20
-1265.879177
 30
0.0
 70
0
  0
VERTEX
  5
F0
  8
1
 10
-2674.856331
 20
-1265.37324
 30
0.0
 70
0
  0
VERTEX
  5
F1
  8
1
 10
-2689.902884
 20
-1264.750986
 30
0.0
 70
0
  0
VERTEX
  5
F2
  8
1
 10
-2705.331871
 20
-1263.986655
 30
0.0
 70
0
  0
VERTEX
  5
F3
  8
1
 10
-2720.366543
 20
-1263.127262
 30
0.0
 70
0
  0
VERTEX
  5
F4
  8
1
 10
-2735.719793
 20
-1262.176162
 30
0.0
 70
0
  0
VERTEX
  5
F5
  8
1
 10
-2750.748563
 20
-1261.218238
 30
0.0
 70
0
  0
VERTEX
  5
F6
  8
1
 10
-2766.056662
 20
-1260.241604
 30
0.0
 70
0
  0
VERTEX
  5
F7
  8
1
 10
-2781.086334
 20
-1259.297752
 30
0.0
 70
0
  0
VERTEX
  5
F8
  8
1
 10
-2796.527578
 20
-1258.33875
 30
0.0
 70
0
  0
VERTEX
  5
F9
  8
1
 10
-2811.557988
 20
-1257.40835
 30
0.0
 70
0
  0
VERTEX
  5
FA
  8
1
 10
-2826.888148
 20
-1256.463783
 30
0.0
 70
0
  0
VERTEX
  5
FB
  8
1
 10
-2841.919239
 20
-1255.54435
 30
0.0
 70
0
  0
VERTEX
  5
FC
  8
1
 10
-2857.176136
 20
-1254.617151
 30
0.0
 70
0
  0
VERTEX
  5
FD
  8
1
 10
-2872.207961
 20
-1253.708409
 30
0.0
 70
0
  0
VERTEX
  5
FE
  8
1
 10
-2887.240077
 20
-1252.804374
 30
0.0
 70
0
  0
VERTEX
  5
FF
  8
1
 10
-2902.2381
 20
-1251.907282
 30
0.0
 70
0
  0
VERTEX
  5
100
  8
1
 10
-2917.755689
 20
-1250.984137
 30
0.0
 70
0
  0
VERTEX
  5
101
  8
1
 10
-2932.488809
 20
-1250.112208
 30
0.0
 70
0
  0
VERTEX
  5
102
  8
1
 10
-2948.006934
 20
-1249.198458
 30
0.0
 70
0
  0
VERTEX
  5
103
  8
1
 10
-2962.934016
 20
-1248.324094
 30
0.0
 70
0
  0
VERTEX
  5
104
  8
1
 10
-2978.452806
 20
-1247.420974
 30
0.0
 70
0
  0
VERTEX
  5
105
  8
1
 10
-2993.749069
 20
-1246.537257
 30
0.0
 70
0
  0
SEQEND
  5
33
  8
1
  0
POLYLINE
  5
106
  8
14
 66
1
 10
0.0
 20
0.0
 30
0.0
 70
1
  0
VERTEX
  5
108
  8
14
 10
-3008.834839
 20
-1232.9496
 30
0.0
 70
0
  0
VERTEX
  5
109
  8
14
 10
-3008.834839
 20
-1232.9496
 30
0.0
 70
0
  0
VERTEX
  5
10A
  8
14
 10
-3021.699246
 20
-1232.472099
 30
0.0
 70
0
  0
VERTEX
  5
10B
  8
14
 10
-3037.541661
 20
-1231.867518
 30
0.0
 70
0
  0
VERTEX
  5
10C
  8
14
 10
-3052.159264
 20
-1231.297568
 30
0.0
 70
0
  0
VERTEX
  5
10D
  8
14
 10
-3069.231853
 20
-1230.61873
 30
0.0
 70
0
  0
VERTEX
  5
10E
  8
14
 10
-3084.481801
 20
-1230.000936
 30
0.0
 70
0
  0
VERTEX
  5
10F
  8
14
 10
-3101.001719
 20
-1229.319755
 30
0.0
 70
0
  0
VERTEX
  5
110
  8
14
 10
-3118.657729
 20
-1228.577988
 30
0.0
 70
0
  0
VERTEX
  5
111
  8
14
 10
-3137.315956
 20
-1227.778436
 30
0.0
 70
0
  0
VERTEX
  5
112
  8
14
 10
-3156.842524
 20
-1226.923899
 30
0.0
 70
0
  0
VERTEX
  5
113
  8
14
 10
-3171.976762
 20
-1226.248598
 30
0.0
 70
0
  0
VERTEX
  5
114
  8
14
 10
-3187.467658
 20
-1225.545125
 30
0.0
 70
0
  0
VERTEX
  5
115
  8
14
 10
-3203.258732
 20
-1224.814661
 30
0.0
 70
0
  0
VERTEX
  5
116
  8
14
 10
-3219.293505
 20
-1224.058389
 30
0.0
 70
0
  0
VERTEX
  5
117
  8
14
 10
-3235.515497
 20
-1223.27749
 30
0.0
 70
0
  0
VERTEX
  5
118
  8
14
 10
-3251.86823
 20
-1222.473145
 30
0.0
 70
0
  0
VERTEX
  5
119
  8
14
 10
-3273.777631
 20
-1221.366256
 30
0.0
 70
0
  0
VERTEX
  5
11A
  8
14
 10
-3287.708217
 20
-1220.643952
 30
0.0
 70
0
  0
VERTEX
  5
11B
  8
14
 10
-3304.063871
 20
-1219.778565
 30
0.0
 70
0
  0
VERTEX
  5
11C
  8
14
 10
-3320.24138
 20
-1218.905719
 30
0.0
 70
0
  0
VERTEX
  5
11D
  8
14
 10
-3336.144886
 20
-1218.032577
 30
0.0
 70
0
  0
VERTEX
  5
11E
  8
14
 10
-3351.678533
 20
-1217.1663
 30
0.0
 70
0
  0
VERTEX
  5
11F
  8
14
 10
-3371.649047
 20
-1216.034319
 30
0.0
 70
0
  0
VERTEX
  5
120
  8
14
 10
-3390.564404
 20
-1214.944247
 30
0.0
 70
0
  0
VERTEX
  5
121
  8
14
 10
-3408.197388
 20
-1213.913058
 30
0.0
 70
0
  0
VERTEX
  5
122
  8
14
 10
-3424.320782
 20
-1212.957728
 30
0.0
 70
0
  0
VERTEX
  5
123
  8
14
 10
-3442.006015
 20
-1211.896102
 30
0.0
 70
0
  0
VERTEX
  5
124
  8
14
 10
-3459.021285
 20
-1210.860298
 30
0.0
 70
0
  0
VERTEX
  5
125
  8
14
 10
-3476.733704
 20
-1209.763184
 30
0.0
 70
0
  0
VERTEX
  5
126
  8
14
 10
-3476.733704
 20
-1209.763184
 30
0.0
 70
0
  0
VERTEX
  5
127
  8
14
 10
-3476.672476
 20
-1191.8662
 30
0.0
 70
0
  0
VERTEX
  5
128
  8
14
 10
-3476.61558
 20
-1175.245979
 30
0.0
 70
0
  0
VERTEX
  5
129
  8
14
 10
-3476.562107
 20
-1159.633424
 30
0.0
 70
0
  0
VERTEX
  5
12A
  8
14
 10
-3476.502465
 20
-1142.229441
 30
0.0
 70
0
  0
VERTEX
  5
12B
  8
14
 10
-3476.44775
 20
-1126.27249
 30
0.0
 70
0
  0
VERTEX
  5
12C
  8
14
 10
-3476.390872
 20
-1109.695221
 30
0.0
 70
0
  0
VERTEX
  5
12D
  8
14
 10
-3476.336907
 20
-1093.97836
 30
0.0
 70
0
  0
VERTEX
  5
12E
  8
14
 10
-3476.278922
 20
-1077.104711
 30
0.0
 70
0
  0
VERTEX
  5
12F
  8
14
 10
-3476.221843
 20
-1060.507273
 30
0.0
 70
0
  0
VERTEX
  5
130
  8
14
 10
-3476.166629
 20
-1044.462259
 30
0.0
 70
0
  0
VERTEX
  5
131
  8
14
 10
-3476.114236
 20
-1029.245879
 30
0.0
 70
0
  0
VERTEX
  5
132
  8
14
 10
-3476.057957
 20
-1012.909224
 30
0.0
 70
0
  0
VERTEX
  5
133
  8
14
 10
-3476.001892
 20
-996.642831
 30
0.0
 70
0
  0
VERTEX
  5
134
  8
14
 10
-3475.947516
 20
-980.875003
 30
0.0
 70
0
  0
VERTEX
  5
135
  8
14
 10
-3475.906982
 20
-969.127579
 30
0.0
 70
0
  0
VERTEX
  5
136
  8
14
 10
-3475.906982
 20
-969.127579
 30
0.0
 70
0
  0
VERTEX
  5
137
  8
14
 10
-3455.837341
 20
-968.103809
 30
0.0
 70
0
  0
VERTEX
  5
138
  8
14
 10
-3439.256366
 20
-967.257999
 30
0.0
 70
0
  0
VERTEX
  5
139
  8
14
 10
-3418.634381
 20
-966.206053
 30
0.0
 70
0
  0
VERTEX
  5
13A
  8
14
 10
-3394.54868
 20
-964.977421
 30
0.0
 70
0
  0
VERTEX
  5
13B
  8
14
 10
-3376.852325
 20
-964.074714
 30
0.0
 70
0
  0
VERTEX
  5
13C
  8
14
 10
-3358.044174
 20
-963.115294
 30
0.0
 70
0
  0
VERTEX
  5
13D
  8
14
 10
-3338.295243
 20
-962.107884
 30
0.0
 70
0
  0
VERTEX
  5
13E
  8
14
 10
-3317.776594
 20
-961.06121
 30
0.0
 70
0
  0
VERTEX
  5
13F
  8
14
 10
-3296.659296
 20
-959.983998
 30
0.0
 70
0
  0
VERTEX
  5
140
  8
14
 10
-3275.114359
 20
-958.884972
 30
0.0
 70
0
  0
VERTEX
  5
141
  8
14
 10
-3253.31285
 20
-957.772858
 30
0.0
 70
0
  0
VERTEX
  5
142
  8
14
 10
-3231.425837
 20
-956.656383
 30
0.0
 70
0
  0
VERTEX
  5
143
  8
14
 10
-3209.624347
 20
-955.54427
 30
0.0
 70
0
  0
VERTEX
  5
144
  8
14
 10
-3188.079393
 20
-954.445243
 30
0.0
 70
0
  0
VERTEX
  5
145
  8
14
 10
-3166.962097
 20
-953.368031
 30
0.0
 70
0
  0
VERTEX
  5
146
  8
14
 10
-3146.443468
 20
-952.321358
 30
0.0
 70
0
  0
VERTEX
  5
147
  8
14
 10
-3126.694522
 20
-951.313947
 30
0.0
 70
0
  0
VERTEX
  5
148
  8
14
 10
-3107.886375
 20
-950.354527
 30
0.0
 70
0
  0
VERTEX
  5
149
  8
14
 10
-3090.19004
 20
-949.451822
 30
0.0
 70
0
  0
VERTEX
  5
14A
  8
14
 10
-3073.776564
 20
-948.614556
 30
0.0
 70
0
  0
VERTEX
  5
14B
  8
14
 10
-3058.816971
 20
-947.851454
 30
0.0
 70
0
  0
VERTEX
  5
14C
  8
14
 10
-3039.477867
 20
-946.864949
 30
0.0
 70
0
  0
VERTEX
  5
14D
  8
14
 10
-3024.372185
 20
-946.094395
 30
0.0
 70
0
  0
VERTEX
  5
14E
  8
14
 10
-3010.171652
 20
-945.370014
 30
0.0
 70
0
  0
VERTEX
  5
14F
  8
14
 10
-3008.831787
 20
-945.301666
 30
0.0
 70
0
  0
VERTEX
  5
150
  8
14
 10
-3008.831787
 20
-945.301666
 30
0.0
 70
0
  0
VERTEX
  5
151
  8
14
 10
-2991.955614
 20
-942.852144
 30
0.0
 70
0
  0
VERTEX
  5
152
  8
14
 10
-2975.881944
 20
-940.362217
 30
0.0
 70
0
  0
VERTEX
  5
153
  8
14
 10
-2959.96148
 20
-937.7626
 30
0.0
 70
0
  0
VERTEX
  5
154
  8
14
 10
-2944.263751
 20
-935.064267
 30
0.0
 70
0
  0
VERTEX
  5
155
  8
14
 10
-2927.569713
 20
-932.032567
 30
0.0
 70
0
  0
VERTEX
  5
156
  8
14
 10
-2912.491507
 20
-929.13006
 30
0.0
 70
0
  0
VERTEX
  5
157
  8
14
 10
-2897.36625
 20
-926.033699
 30
0.0
 70
0
  0
VERTEX
  5
158
  8
14
 10
-2882.18403
 20
-922.716745
 30
0.0
 70
0
  0
VERTEX
  5
159
  8
14
 10
-2867.04697
 20
-919.192582
 30
0.0
 70
0
  0
VERTEX
  5
15A
  8
14
 10
-2851.96098
 20
-915.456532
 30
0.0
 70
0
  0
VERTEX
  5
15B
  8
14
 10
-2836.932043
 20
-911.503932
 30
0.0
 70
0
  0
VERTEX
  5
15C
  8
14
 10
-2821.966069
 20
-907.330102
 30
0.0
 70
0
  0
VERTEX
  5
15D
  8
14
 10
-2805.601002
 20
-902.483855
 30
0.0
 70
0
  0
VERTEX
  5
15E
  8
14
 10
-2790.892796
 20
-897.886665
 30
0.0
 70
0
  0
VERTEX
  5
15F
  8
14
 10
-2776.58698
 20
-893.223535
 30
0.0
 70
0
  0
VERTEX
  5
160
  8
14
 10
-2761.026077
 20
-887.959958
 30
0.0
 70
0
  0
VERTEX
  5
161
  8
14
 10
-2746.636228
 20
-882.929768
 30
0.0
 70
0
  0
VERTEX
  5
162
  8
14
 10
-2732.2761
 20
-877.761966
 30
0.0
 70
0
  0
VERTEX
  5
163
  8
14
 10
-2718.044285
 20
-872.493706
 30
0.0
 70
0
  0
VERTEX
  5
164
  8
14
 10
-2703.806152
 20
-867.049561
 30
0.0
 70
0
  0
VERTEX
  5
165
  8
14
 10
-2703.806152
 20
-867.049561
 30
0.0
 70
0
  0
VERTEX
  5
166
  8
14
 10
-2702.541446
 20
-872.746507
 30
0.0
 70
0
  0
VERTEX
  5
167
  8
14
 10
-2700.793559
 20
-879.065796
 30
0.0
 70
0
  0
VERTEX
  5
168
  8
14
 10
-2698.903268
 20
-884.885207
 30
0.0
 70
0
  0
VERTEX
  5
169
  8
14
 10
-2696.763751
 20
-890.631758
 30
0.0
 70
0
  0
VERTEX
  5
16A
  8
14
 10
-2694.157627
 20
-896.753306
 30
0.0
 70
0
  0
VERTEX
  5
16B
  8
14
 10
-2691.468574
 20
-902.292745
 30
0.0
 70
0
  0
VERTEX
  5
16C
  8
14
 10
-2688.842477
 20
-907.09239
 30
0.0
 70
0
  0
VERTEX
  5
16D
  8
14
 10
-2685.905207
 20
-911.869079
 30
0.0
 70
0
  0
VERTEX
  5
16E
  8
14
 10
-2682.642845
 20
-916.555991
 30
0.0
 70
0
  0
VERTEX
  5
16F
  8
14
 10
-2679.665834
 20
-920.344963
 30
0.0
 70
0
  0
VERTEX
  5
170
  8
14
 10
-2676.445346
 20
-923.986511
 30
0.0
 70
0
  0
VERTEX
  5
171
  8
14
 10
-2672.973327
 20
-927.441966
 30
0.0
 70
0
  0
VERTEX
  5
172
  8
14
 10
-2669.923673
 20
-930.117095
 30
0.0
 70
0
  0
VERTEX
  5
173
  8
14
 10
-2665.160559
 20
-933.718445
 30
0.0
 70
0
  0
VERTEX
  5
174
  8
14
 10
-2660.935581
 20
-936.455442
 30
0.0
 70
0
  0
VERTEX
  5
175
  8
14
 10
-2656.509889
 20
-938.967806
 30
0.0
 70
0
  0
VERTEX
  5
176
  8
14
 10
-2651.913254
 20
-941.270056
 30
0.0
 70
0
  0
VERTEX
  5
177
  8
14
 10
-2646.213566
 20
-943.775847
 30
0.0
 70
0
  0
VERTEX
  5
178
  8
14
 10
-2640.362034
 20
-946.025067
 30
0.0
 70
0
  0
VERTEX
  5
179
  8
14
 10
-2633.411957
 20
-948.358352
 30
0.0
 70
0
  0
VERTEX
  5
17A
  8
14
 10
-2626.557619
 20
-950.374747
 30
0.0
 70
0
  0
VERTEX
  5
17B
  8
14
 10
-2617.719353
 20
-952.65947
 30
0.0
 70
0
  0
VERTEX
  5
17C
  8
14
 10
-2608.273722
 20
-954.810209
 30
0.0
 70
0
  0
VERTEX
  5
17D
  8
14
 10
-2599.978943
 20
-956.479492
 30
0.0
 70
0
  0
VERTEX
  5
17E
  8
14
 10
-2584.030763
 20
-960.044756
 30
0.0
 70
0
  0
VERTEX
  5
17F
  8
14
 10
-2568.239854
 20
-963.577934
 30
0.0
 70
0
  0
VERTEX
  5
180
  8
14
 10
-2552.432122
 20
-967.117717
 30
0.0
 70
0
  0
VERTEX
  5
181
  8
14
 10
-2536.858536
 20
-970.608113
 30
0.0
 70
0
  0
VERTEX
  5
182
  8
14
 10
-2520.618554
 20
-974.251649
 30
0.0
 70
0
  0
VERTEX
  5
183
  8
14
 10
-2505.705314
 20
-977.601533
 30
0.0
 70
0
  0
VERTEX
  5
184
  8
14
 10
-2489.940311
 20
-981.146471
 30
0.0
 70
0
  0
VERTEX
  5
185
  8
14
 10
-2475.45317
 20
-984.406877
 30
0.0
 70
0
  0
VERTEX
  5
186
  8
14
 10
-2460.52963
 20
-987.768013
 30
0.0
 70
0
  0
VERTEX
  5
187
  8
14
 10
-2446.379067
 20
-990.957495
 30
0.0
 70
0
  0
VERTEX
  5
188
  8
14
 10
-2444.644623
 20
-991.348648
 30
0.0
 70
0
  0
VERTEX
  5
189
  8
14
 10
-2444.643402
 20
-991.323471
 30
0.0
 70
0
  0
VERTEX
  5
18A
  8
14
 10
-2444.644623
 20
-991.348648
 30
0.0
 70
0
  0
VERTEX
  5
18B
  8
14
 10
-2445.425547
 20
-1008.808684
 30
0.0
 70
0
  0
VERTEX
  5
18C
  8
14
 10
-2446.118833
 20
-1024.331984
 30
0.0
 70
0
  0
VERTEX
  5
18D
  8
14
 10
-2446.800879
 20
-1039.621625
 30
0.0
 70
0
  0
VERTEX
  5
18E
  8
14
 10
-2447.580543
 20
-1057.120279
 30
0.0
 70
0
  0
VERTEX
  5
18F
  8
14
 10
-2448.331477
 20
-1073.994786
 30
0.0
 70
0
  0
VERTEX
  5
190
  8
14
 10
-2449.018492
 20
-1089.451067
 30
0.0
 70
0
  0
VERTEX
  5
191
  8
14
 10
-2449.739099
 20
-1105.682429
 30
0.0
 70
0
  0
VERTEX
  5
192
  8
14
 10
-2450.487205
 20
-1122.555288
 30
0.0
 70
0
  0
VERTEX
  5
193
  8
14
 10
-2451.256722
 20
-1139.93611
 30
0.0
 70
0
  0
VERTEX
  5
194
  8
14
 10
-2452.041558
 20
-1157.691309
 30
0.0
 70
0
  0
VERTEX
  5
195
  8
14
 10
-2452.835622
 20
-1175.6873
 30
0.0
 70
0
  0
VERTEX
  5
196
  8
14
 10
-2453.475189
 20
-1190.208817
 30
0.0
 70
0
  0
VERTEX
  5
197
  8
14
 10
-2453.475272
 20
-1190.209726
 30
0.0
 70
0
  0
VERTEX
  5
198
  8
14
 10
-2454.26049
 20
-1208.069512
 30
0.0
 70
0
  0
VERTEX
  5
199
  8
14
 10
-2454.977294
 20
-1224.398191
 30
0.0
 70
0
  0
VERTEX
  5
19A
  8
14
 10
-2455.638163
 20
-1239.47041
 30
0.0
 70
0
  0
VERTEX
  5
19B
  8
14
 10
-2456.053619
 20
-1248.954926
 30
0.0
 70
0
  0
VERTEX
  5
19C
  8
14
 10
-2456.053619
 20
-1248.954926
 30
0.0
 70
0
  0
VERTEX
  5
19D
  8
14
 10
-2467.746031
 20
-1249.797812
 30
0.0
 70
0
  0
VERTEX
  5
19E
  8
14
 10
-2483.532683
 20
-1250.832805
 30
0.0
 70
0
  0
VERTEX
  5
19F
  8
14
 10
-2499.254895
 20
-1251.756187
 30
0.0
 70
0
  0
VERTEX
  5
1A0
  8
14
 10
-2514.402854
 20
-1252.533571
 30
0.0
 70
0
  0
VERTEX
  5
1A1
  8
14
 10
-2531.428161
 20
-1253.247391
 30
0.0
 70
0
  0
VERTEX
  5
1A2
  8
14
 10
-2547.243645
 20
-1253.733319
 30
0.0
 70
0
  0
VERTEX
  5
1A3
  8
14
 10
-2563.064697
 20
-1254.055781
 30
0.0
 70
0
  0
VERTEX
  5
1A4
  8
14
 10
-2578.889791
 20
-1254.226706
 30
0.0
 70
0
  0
VERTEX
  5
1A5
  8
14
 10
-2594.717286
 20
-1254.25802
 30
0.0
 70
0
  0
VERTEX
  5
1A6
  8
14
 10
-2610.545542
 20
-1254.161652
 30
0.0
 70
0
  0
VERTEX
  5
1A7
  8
14
 10
-2626.373034
 20
-1253.949529
 30
0.0
 70
0
  0
VERTEX
  5
1A8
  8
14
 10
-2643.048298
 20
-1253.613893
 30
0.0
 70
0
  0
VERTEX
  5
1A9
  8
14
 10
-2658.86925
 20
-1253.195946
 30
0.0
 70
0
  0
VERTEX
  5
1AA
  8
14
 10
-2674.685173
 20
-1252.668965
 30
0.0
 70
0
  0
VERTEX
  5
1AB
  8
14
 10
-2690.495208
 20
-1252.016687
 30
0.0
 70
0
  0
VERTEX
  5
1AC
  8
14
 10
-2707.653053
 20
-1251.14836
 30
0.0
 70
0
  0
VERTEX
  5
1AD
  8
14
 10
-2723.449448
 20
-1250.21638
 30
0.0
 70
0
  0
VERTEX
  5
1AE
  8
14
 10
-2739.24261
 20
-1249.219468
 30
0.0
 70
0
  0
VERTEX
  5
1AF
  8
14
 10
-2754.382216
 20
-1248.256516
 30
0.0
 70
0
  0
VERTEX
  5
1B0
  8
14
 10
-2770.130903
 20
-1247.262694
 30
0.0
 70
0
  0
VERTEX
  5
1B1
  8
14
 10
-2785.790989
 20
-1246.281916
 30
0.0
 70
0
  0
VERTEX
  5
1B2
  8
14
 10
-2801.313361
 20
-1245.316633
 30
0.0
 70
0
  0
VERTEX
  5
1B3
  8
14
 10
-2816.649054
 20
-1244.369291
 30
0.0
 70
0
  0
VERTEX
  5
1B4
  8
14
 10
-2831.748974
 20
-1243.442341
 30
0.0
 70
0
  0
VERTEX
  5
1B5
  8
14
 10
-2848.654454
 20
-1242.411079
 30
0.0
 70
0
  0
VERTEX
  5
1B6
  8
14
 10
-2865.114758
 20
-1241.413302
 30
0.0
 70
0
  0
VERTEX
  5
1B7
  8
14
 10
-2881.05667
 20
-1240.452667
 30
0.0
 70
0
  0
VERTEX
  5
1B8
  8
14
 10
-2896.407022
 20
-1239.532828
 30
0.0
 70
0
  0
VERTEX
  5
1B9
  8
14
 10
-2912.877886
 20
-1238.551324
 30
0.0
 70
0
  0
VERTEX
  5
1BA
  8
14
 10
-2928.403182
 20
-1237.631281
 30
0.0
 70
0
  0
VERTEX
  5
1BB
  8
14
 10
-2944.417737
 20
-1236.687425
 30
0.0
 70
0
  0
VERTEX
  5
1BC
  8
14
 10
-2960.366146
 20
-1235.752766
 30
0.0
 70
0
  0
VERTEX
  5
1BD
  8
14
 10
-2976.709183
 20
-1234.800689
 30
0.0
 70
0
  0
VERTEX
  5
1BE
  8
14
 10
-2992.655921
 20
-1233.877811
 30
0.0
 70
0
  0
SEQEND
  5
107
  8
14
  0
POLYLINE
  5
1BF
  8
8
 66
1
 10
0.0
 20
0.0
 30
0.0
 70
0
  0
VERTEX
  5
1C1
  8
8
 10
-2482.397461
 20
-1033.350983
 30
0.0
 70
0
  0
VERTEX
  5
1C2
  8
8
 10
-2483.669759
 20
-1052.667942
 30
0.0
 70
0
  0
VERTEX
  5
1C3
  8
8
 10
-2484.803997
 20
-1069.888787
 30
0.0
 70
0
  0
VERTEX
  5
1C4
  8
8
 10
-2485.910291
 20
-1086.685357
 30
0.0
 70
0
  0
VERTEX
  5
1C5
  8
8
 10
-2487.099707
 20
-1104.743933
 30
0.0
 70
0
  0
VERTEX
  5
1C6
  8
8
 10
-2488.31287
 20
-1123.163072
 30
0.0
 70
0
  0
VERTEX
  5
1C7
  8
8
 10
-2489.490411
 20
-1141.041367
 30
0.0
 70
0
  0
VERTEX
  5
1C8
  8
8
 10
-2490.572957
 20
-1157.477373
 30
0.0
 70
0
  0
VERTEX
  5
1C9
  8
8
 10
-2491.663023
 20
-1174.027564
 30
0.0
 70
0
  0
VERTEX
  5
1CA
  8
8
 10
-2492.593342
 20
-1188.152339
 30
0.0
 70
0
  0
VERTEX
  5
1CB
  8
8
 10
-2492.773438
 20
-1190.886688
 30
0.0
 70
0
  0
SEQEND
  5
1C0
  8
8
  0
POLYLINE
  5
1CC
  8
8
 66
1
 10
0.0
 20
0.0
 30
0.0
 70
0
  0
VERTEX
  5
1CE
  8
8
 10
-2606.329041
 20
-970.297089
 30
0.0
 70
0
  0
VERTEX
  5
1CF
  8
8
 10
-2630.473328
 20
-1253.733521
 30
0.0
 70
0
  0
SEQEND
  5
1CD
  8
8
  0
POLYLINE
  5
1D0
  8
8
 66
1
 10
0.0
 20
0.0
 30
0.0
 70
0
  0
VERTEX
  5
1D2
  8
8
 10
-3476.32019
 20
-1093.21373
 30
0.0
 70
0
  0
VERTEX
  5
1D3
  8
8
 10
-3458.229364
 20
-1093.203572
 30
0.0
 70
0
  0
VERTEX
  5
1D4
  8
8
 10
-3440.972279
 20
-1093.194182
 30
0.0
 70
0
  0
VERTEX
  5
1D5
  8
8
 10
-3423.55216
 20
-1093.184924
 30
0.0
 70
0
  0
VERTEX
  5
1D6
  8
8
 10
-3403.19538
 20
-1093.174354
 30
0.0
 70
0
  0
VERTEX
  5
1D7
  8
8
 10
-3386.153981
 20
-1093.165701
 30
0.0
 70
0
  0
VERTEX
  5
1D8
  8
8
 10
-3367.711677
 20
-1093.156529
 30
0.0
 70
0
  0
VERTEX
  5
1D9
  8
8
 10
-3347.976025
 20
-1093.146934
 30
0.0
 70
0
  0
VERTEX
  5
1DA
  8
8
 10
-3327.054594
 20
-1093.137008
 30
0.0
 70
0
  0
VERTEX
  5
1DB
  8
8
 10
-3305.054913
 20
-1093.126845
 30
0.0
 70
0
  0
VERTEX
  5
1DC
  8
8
 10
-3289.842552
 20
-1093.119985
 30
0.0
 70
0
  0
VERTEX
  5
1DD
  8
8
 10
-3274.230646
 20
-1093.11309
 30
0.0
 70
0
  0
VERTEX
  5
1DE
  8
8
 10
-3258.251064
 20
-1093.106187
 30
0.0
 70
0
  0
VERTEX
  5
1DF
  8
8
 10
-3241.935673
 20
-1093.099304
 30
0.0
 70
0
  0
VERTEX
  5
1E0
  8
8
 10
-3225.316342
 20
-1093.092469
 30
0.0
 70
0
  0
VERTEX
  5
1E1
  8
8
 10
-3208.42494
 20
-1093.08571
 30
0.0
 70
0
  0
VERTEX
  5
1E2
  8
8
 10
-3191.293336
 20
-1093.079055
 30
0.0
 70
0
  0
VERTEX
  5
1E3
  8
8
 10
-3173.953396
 20
-1093.072531
 30
0.0
 70
0
  0
VERTEX
  5
1E4
  8
8
 10
-3156.436991
 20
-1093.066167
 30
0.0
 70
0
  0
VERTEX
  5
1E5
  8
8
 10
-3138.775989
 20
-1093.05999
 30
0.0
 70
0
  0
VERTEX
  5
1E6
  8
8
 10
-3121.002257
 20
-1093.054028
 30
0.0
 70
0
  0
VERTEX
  5
1E7
  8
8
 10
-3103.147666
 20
-1093.048308
 30
0.0
 70
0
  0
VERTEX
  5
1E8
  8
8
 10
-3085.244082
 20
-1093.04286
 30
0.0
 70
0
  0
VERTEX
  5
1E9
  8
8
 10
-3075.615313
 20
-1093.040054
 30
0.0
 70
0
  0
VERTEX
  5
1EA
  8
8
 10
-3048.753954
 20
-1093.032692
 30
0.0
 70
0
  0
VERTEX
  5
1EB
  8
8
 10
-3030.910719
 20
-1093.02816
 30
0.0
 70
0
  0
VERTEX
  5
1EC
  8
8
 10
-3013.164088
 20
-1093.023917
 30
0.0
 70
0
  0
VERTEX
  5
1ED
  8
8
 10
-2995.552722
 20
-1093.019955
 30
0.0
 70
0
  0
VERTEX
  5
1EE
  8
8
 10
-2978.115098
 20
-1093.016264
 30
0.0
 70
0
  0
VERTEX
  5
1EF
  8
8
 10
-2960.889918
 20
-1093.012834
 30
0.0
 70
0
  0
VERTEX
  5
1F0
  8
8
 10
-2943.915807
 20
-1093.009655
 30
0.0
 70
0
  0
VERTEX
  5
1F1
  8
8
 10
-2927.231392
 20
-1093.006719
 30
0.0
 70
0
  0
VERTEX
  5
1F2
  8
8
 10
-2910.875298
 20
-1093.004016
 30
0.0
 70
0
  0
VERTEX
  5
1F3
  8
8
 10
-2894.886153
 20
-1093.001535
 30
0.0
 70
0
  0
VERTEX
  5
1F4
  8
8
 10
-2879.302582
 20
-1092.999269
 30
0.0
 70
0
  0
VERTEX
  5
1F5
  8
8
 10
-2864.163211
 20
-1092.997206
 30
0.0
 70
0
  0
VERTEX
  5
1F6
  8
8
 10
-2842.371525
 20
-1092.994475
 30
0.0
 70
0
  0
VERTEX
  5
1F7
  8
8
 10
-2821.796563
 20
-1092.992149
 30
0.0
 70
0
  0
VERTEX
  5
1F8
  8
8
 10
-2802.568686
 20
-1092.990197
 30
0.0
 70
0
  0
VERTEX
  5
1F9
  8
8
 10
-2784.81826
 20
-1092.988587
 30
0.0
 70
0
  0
VERTEX
  5
1FA
  8
8
 10
-2768.675646
 20
-1092.987287
 30
0.0
 70
0
  0
VERTEX
  5
1FB
  8
8
 10
-2749.878523
 20
-1092.985979
 30
0.0
 70
0
  0
VERTEX
  5
1FC
  8
8
 10
-2734.4805
 20
-1092.985089
 30
0.0
 70
0
  0
VERTEX
  5
1FD
  8
8
 10
-2720.483713
 20
-1092.984448
 30
0.0
 70
0
  0
VERTEX
  5
1FE
  8
8
 10
-2711.645813
 20
-1092.984161
 30
0.0
 70
0
  0
SEQEND
  5
1D1
  8
8
  0
POLYLINE
  5
1FF
  8
8
 66
1
 10
0.0
 20
0.0
 30
0.0
 70
0
  0
VERTEX
  5
201
  8
8
 10
-3008.831787
 20
-945.301666
 30
0.0
 70
0
  0
VERTEX
  5
202
  8
8
 10
-3008.831787
 20
-962.323585
 30
0.0
 70
0
  0
VERTEX
  5
203
  8
8
 10
-3008.831787
 20
-978.098768
 30
0.0
 70
0
  0
VERTEX
  5
204
  8
8
 10
-3008.831787
 20
-995.121302
 30
0.0
 70
0
  0
VERTEX
  5
205
  8
8
 10
-3008.831787
 20
-1011.660619
 30
0.0
 70
0
  0
VERTEX
  5
206
  8
8
 10
-3008.831787
 20
-1029.628753
 30
0.0
 70
0
  0
VERTEX
  5
207
  8
8
 10
-3008.831787
 20
-1045.440858
 30
0.0
 70
0
  0
VERTEX
  5
208
  8
8
 10
-3008.831787
 20
-1061.799094
 30
0.0
 70
0
  0
VERTEX
  5
209
  8
8
 10
-3008.831787
 20
-1078.500657
 30
0.0
 70
0
  0
VERTEX
  5
20A
  8
8
 10
-3008.831787
 20
-1093.543614
 30
0.0
 70
0
  0
VERTEX
  5
20B
  8
8
 10
-3008.831787
 20
-1110.338127
 30
0.0
 70
0
  0
VERTEX
  5
20C
  8
8
 10
-3008.831787
 20
-1126.882134
 30
0.0
 70
0
  0
VERTEX
  5
20D
  8
8
 10
-3008.831787
 20
-1142.966824
 30
0.0
 70
0
  0
VERTEX
  5
20E
  8
8
 10
-3008.831787
 20
-1158.383462
 30
0.0
 70
0
  0
VERTEX
  5
20F
  8
8
 10
-3008.831787
 20
-1175.707626
 30
0.0
 70
0
  0
VERTEX
  5
210
  8
8
 10
-3008.831787
 20
-1191.408367
 30
0.0
 70
0
  0
VERTEX
  5
211
  8
8
 10
-3008.831787
 20
-1207.192809
 30
0.0
 70
0
  0
VERTEX
  5
212
  8
8
 10
-3008.831787
 20
-1222.596836
 30
0.0
 70
0
  0
VERTEX
  5
213
  8
8
 10
-3008.831787
 20
-1232.9496
 30
0.0
 70
0
  0
SEQEND
  5
200
  8
8
  0
POLYLINE
  5
214
  8
8
 66
1
 10
0.0
 20
0.0
 30
0.0
 70
0
  0
VERTEX
  5
216
  8
8
 10
-2704.065552
 20
-880.864716
 30
0.0
 70
0
  0
VERTEX
  5
217
  8
8
 10
-2701.761169
 20
-1251.446228
 30
0.0
 70
0
  0
SEQEND
  5
215
  8
8
  0
POINT
  5
218
  8
4
 10
-3009.309387
 20
-1245.640793
 30
0.0
  0
POINT
  5
219
  8
4
 10
-3476.777039
 20
-1222.484665
 30
0.0
  0
POINT
  5
21A
  8
4
 10
-3475.863342
 20
-956.408844
 30
0.0
  0
POINT
  5
21B
  8
4
 10
-3009.47876
 20
-932.618103
 30
0.0
  0
POINT
  5
21C
  8
4
 10
-2718.742065
 20
-859.146042
 30
0.0
  0
POINT
  5
21D
  8
4
 10
-2443.918152
 20
-975.108948
 30
0.0
  0
POINT
  5
21E
  8
4
 10
-2432.058868
 20
-994.187088
 30
0.0
  0
POINT
  5
21F
  8
4
 10
-2440.787659
 20
-1190.768356
 30
0.0
  0
POINT
  5
220
  8
4
 10
-2456.612854
 20
-1261.722336
 30
0.0
  0
POINT
  5
221
  8
4
 10
-3008.834839
 20
-1232.9496
 30
0.0
  0
POINT
  5
222
  8
4
 10
-3476.733704
 20
-1209.763184
 30
0.0
  0
POINT
  5
223
  8
4
 10
-3475.906982
 20
-969.127579
 30
0.0
  0
POINT
  5
224
  8
4
 10
-3008.831787
 20
-945.301666
 30
0.0
  0
POINT
  5
225
  8
4
 10
-2703.806152
 20
-867.049561
 30
0.0
  0
POINT
  5
226
  8
4
 10
-2444.644623
 20
-991.348648
 30
0.0
  0
POINT
  5
227
  8
4
 10
-2444.644623
 20
-991.348648
 30
0.0
  0
POINT
  5
228
  8
4
 10
-2453.475189
 20
-1190.208817
 30
0.0
  0
POINT
  5
229
  8
4
 10
-2456.053619
 20
-1248.954926
 30
0.0
  0
LINE
  5
22A
  8
7
 10
-3387.257385
 20
-1086.681671
 30
0.0
 11
-2519.147034
 21
-1086.681671
 31
0.0
  0
ENDSEC
  0
EOF
