  0
SECTION
  2
HEADER
  9
$ACADVER
  1
AC1009
  9
$DWGCODEPAGE
  3
ANSI_1252
  9
$INSBASE
 10
0.0
 20
0.0
 30
0.0
  9
$EXTMIN
 10
1e+20
 20
1e+20
 30
1e+20
  9
$EXTMAX
 10
-1e+20
 20
-1e+20
 30
-1e+20
  9
$LIMMIN
 10
0.0
 20
0.0
  9
$LIMMAX
 10
420.0
 20
297.0
  9
$ORTHOMODE
 70
0
  9
$REGENMODE
 70
1
  9
$FILLMODE
 70
1
  9
$DRAGMODE
 70
2
  9
$QTEXTMODE
 70
0
  9
$MIRRTEXT
 70
1
  9
$OSMODE
 70
20583
  9
$LTSCALE
 40
1.0
  9
$ATTMODE
 70
1
  9
$TEXTSIZE
 40
2.5
  9
$TRACEWID
 40
1.0
  9
$TEXTSTYLE
  7
Standard
  9
$CLAYER
  8
0
  9
$CELTYPE
  6
ByLayer
  9
$CECOLOR
 62
256
  9
$DIMSCALE
 40
1.0
  9
$DIMASZ
 40
2.5
  9
$DIMEXO
 40
0.625
  9
$DIMDLI
 40
3.75
  9
$DIMRND
 40
0.0
  9
$DIMDLE
 40
0.0
  9
$DIMEXE
 40
1.25
  9
$DIMTP
 40
0.0
  9
$DIMTM
 40
0.0
  9
$DIMTXT
 40
2.5
  9
$DIMCEN
 40
2.5
  9
$DIMTSZ
 40
0.0
  9
$DIMTOL
 70
0
  9
$DIMLIM
 70
0
  9
$DIMTIH
 70
0
  9
$DIMTOH
 70
0
  9
$DIMSE1
 70
0
  9
$DIMSE2
 70
0
  9
$DIMTAD
 70
1
  9
$DIMZIN
 70
8
  9
$DIMBLK
  1

  9
$DIMASO
 70
1
  9
$DIMSHO
 70
1
  9
$DIMPOST
  1

  9
$DIMAPOST
  1

  9
$DIMALT
 70
0
  9
$DIMALTD
 70
3
  9
$DIMALTF
 40
0.03937007874
  9
$DIMLFAC
 40
1.0
  9
$DIMTOFL
 70
1
  9
$DIMTVP
 40
0.0
  9
$DIMTIX
 70
0
  9
$DIMSOXD
 70
0
  9
$DIMSAH
 70
0
  9
$DIMBLK1
  1

  9
$DIMBLK2
  1

  9
$DIMSTYLE
  2
ISO-25
  9
$DIMCLRD
 70
0
  9
$DIMCLRE
 70
0
  9
$DIMCLRT
 70
0
  9
$DIMTFAC
 40
1.0
  9
$DIMGAP
 40
0.625
  9
$COORDS
 70
1
  9
$ATTDIA
 70
0
  9
$ATTREQ
 70
1
  9
$HANDLING
 70
1
  9
$LUNITS
 70
2
  9
$LUPREC
 70
4
  9
$SKETCHINC
 40
1.0
  9
$FILLETRAD
 40
10.0
  9
$AUNITS
 70
0
  9
$AUPREC
 70
2
  9
$MENU
  1
.
  9
$ELEVATION
 40
0.0
  9
$PELEVATION
 40
0.0
  9
$THICKNESS
 40
0.0
  9
$LIMCHECK
 70
0
  9
$CHAMFERA
 40
0.0
  9
$CHAMFERB
 40
0.0
  9
$SKPOLY
 70
0
  9
$TDCREATE
 40
2461259.4353935183
  9
$TDUPDATE
 40
2461259.4353935183
  9
$TDINDWG
 40
0.0
  9
$TDUSRTIMER
 40
0.0
  9
$USRTIMER
 70
1
  9
$ANGBASE
 50
0.0
  9
$ANGDIR
 70
0
  9
$PDMODE
 70
0
  9
$PDSIZE
 40
0.0
  9
$PLINEWID
 40
0.0
  9
$SPLFRAME
 70
0
  9
$SPLINETYPE
 70
6
  9
$SPLINESEGS
 70
8
  9
$HANDSEED
  5
106
  9
$SURFTAB1
 70
6
  9
$SURFTAB2
 70
6
  9
$SURFTYPE
 70
6
  9
$SURFU
 70
6
  9
$SURFV
 70
6
  9
$UCSNAME
  2

  9
$UCSORG
 10
0.0
 20
0.0
 30
0.0
  9
$UCSXDIR
 10
1.0
 20
0.0
 30
0.0
  9
$UCSYDIR
 10
0.0
 20
1.0
 30
0.0
  9
$PUCSNAME
  2

  9
$PUCSORG
 10
0.0
 20
0.0
 30
0.0
  9
$PUCSXDIR
 10
1.0
 20
0.0
 30
0.0
  9
$PUCSYDIR
 10
0.0
 20
1.0
 30
0.0
  9
$USERI1
 70
0
  9
$USERI2
 70
0
  9
$USERI3
 70
0
  9
$USERI4
 70
0
  9
$USERI5
 70
0
  9
$USERR1
 40
0.0
  9
$USERR2
 40
0.0
  9
$USERR3
 40
0.0
  9
$USERR4
 40
0.0
  9
$USERR5
 40
0.0
  9
$WORLDVIEW
 70
1
  9
$SHADEDGE
 70
3
  9
$SHADEDIF
 70
70
  9
$TILEMODE
 70
1
  9
$MAXACTVP
 70
64
  9
$PLIMCHECK
 70
0
  9
$PEXTMIN
 10
1e+20
 20
1e+20
 30
1e+20
  9
$PEXTMAX
 10
-1e+20
 20
-1e+20
 30
-1e+20
  9
$PLIMMIN
 10
0.0
 20
0.0
  9
$PLIMMAX
 10
420.0
 20
297.0
  9
$UNITMODE
 70
0
  9
$VISRETAIN
 70
1
  9
$PLINEGEN
 70
0
  9
$PSLTSCALE
 70
1
  0
ENDSEC
  0
SECTION
  2
TABLES
  0
TABLE
  2
VPORT
 70
1
  0
VPORT
  5
23
  2
*Active
 70
0
 10
0.0
 20
0.0
 11
1.0
 21
1.0
 12
0.0
 22
0.0
 13
0.0
 23
0.0
 14
0.5
 24
0.5
 15
0.5
 25
0.5
 16
0.0
 26
0.0
 36
1.0
 17
0.0
 27
0.0
 37
0.0
 40
1000.0
 41
1.34
 42
50.0
 43
0.0
 44
0.0
 50
0.0
 51
0.0
 71
0
 72
1000
 73
1
 74
3
 75
0
 76
0
 77
0
 78
0
  0
ENDTAB
  0
TABLE
  2
LTYPE
 70
3
  0
LTYPE
  5
24
  2
ByBlock
 70
0
  3

 72
65
 73
0
 40
0.0
  0
LTYPE
  5
25
  2
ByLayer
 70
0
  3

 72
65
 73
0
 40
0.0
  0
LTYPE
  5
26
  2
Continuous
 70
0
  3

 72
65
 73
0
 40
0.0
  0
ENDTAB
  0
TABLE
  2
LAYER
 70
4
  0
LAYER
  5
27
  2
0
 70
0
 62
7
  6
Continuous
  0
LAYER
  5
28
  2
Defpoints
 70
0
 62
7
  6
Continuous
  0
LAYER
  5
2D
  2
1
 70
0
 62
1
  6
Continuous
  0
LAYER
  5
2E
  2
7
 70
0
 62
7
  6
Continuous
  0
ENDTAB
  0
TABLE
  2
STYLE
 70
1
  0
STYLE
  5
29
  2
Standard
 70
0
 40
0.0
 41
1.0
 50
0.0
 71
0
 42
2.5
  3
txt
  4

  0
ENDTAB
  0
TABLE
  2
VIEW
 70
0
  0
ENDTAB
  0
TABLE
  2
UCS
 70
0
  0
ENDTAB
  0
TABLE
  2
APPID
 70
3
  0
APPID
  5
2A
  2
ACAD
 70
0
  0
APPID
  5
104
  2
HATCHBACKGROUNDCOLOR
 70
0
  0
APPID
  5
105
  2
EZDXF
 70
0
  0
ENDTAB
  0
TABLE
  2
DIMSTYLE
 70
1
  0
DIMSTYLE
105
2B
  2
Standard
 70
0
  3

  4

  5

  6

  7

 40
1.0
 41
2.5
 42
0.625
 43
3.75
 44
1.25
 45
0.0
 46
0.0
 47
0.0
 48
0.0
140
2.5
141
2.5
142
0.0
143
0.03937007874
144
1.0
145
0.0
146
1.0
147
0.625
 71
0
 72
0
 73
0
 74
0
 75
0
 76
0
 77
1
 78
8
170
0
171
3
172
1
173
0
174
0
175
0
176
0
177
0
178
0
  0
ENDTAB
  0
ENDSEC
  0
SECTION
  2
BLOCKS
  0
BLOCK
  5
18
  8
0
  2
$Model_Space
 70
0
 10
0.0
 20
0.0
 30
0.0
  3
$Model_Space
  1

1001
EZDXF
1000
CREATED_BY_EZDXF
1000
1.4.4 @ 2026-08-06T02:26:58.057009+00:00
1000
WRITTEN_BY_EZDXF
1000
1.4.4 @ 2026-08-06T02:26:58.059009+00:00
  0
ENDBLK
  5
19
  8
0
  0
BLOCK
  5
1C
  8
0
  2
$Paper_Space
 70
0
 10
0.0
 20
0.0
 30
0.0
  3
$Paper_Space
  1

  0
ENDBLK
  5
1D
  8
0
  0
ENDSEC
  0
SECTION
  2
ENTITIES
  0
POLYLINE
  5
2F
  8
1
 66
1
 10
0.0
 20
0.0
 30
0.0
 70
1
  0
VERTEX
  5
31
  8
1
 10
-3009.434509
 20
-1245.636139
 30
0.0
 70
0
  0
VERTEX
  5
32
  8
1
 10
-3009.309387
 20
-1245.640793
 30
0.0
 70
0
  0
VERTEX
  5
33
  8
1
 10
-3021.948027
 20
-1245.168339
 30
0.0
 70
0
  0
VERTEX
  5
34
  8
1
 10
-3037.001552
 20
-1244.596487
 30
0.0
 70
0
  0
VERTEX
  5
35
  8
1
 10
-3052.41408
 20
-1243.99871
 30
0.0
 70
0
  0
VERTEX
  5
36
  8
1
 10
-3067.545778
 20
-1243.397385
 30
0.0
 70
0
  0
VERTEX
  5
37
  8
1
 10
-3082.742176
 20
-1242.78212
 30
0.0
 70
0
  0
VERTEX
  5
38
  8
1
 10
-3097.873059
 20
-1242.160347
 30
0.0
 70
0
  0
VERTEX
  5
39
  8
1
 10
-3113.064759
 20
-1241.525935
 30
0.0
 70
0
  0
VERTEX
  5
3A
  8
1
 10
-3128.194728
 20
-1240.883137
 30
0.0
 70
0
  0
VERTEX
  5
3B
  8
1
 10
-3143.279103
 20
-1240.231459
 30
0.0
 70
0
  0
VERTEX
  5
3C
  8
1
 10
-3158.408132
 20
-1239.567009
 30
0.0
 70
0
  0
VERTEX
  5
3D
  8
1
 10
-3173.514136
 20
-1238.892265
 30
0.0
 70
0
  0
VERTEX
  5
3E
  8
1
 10
-3188.642122
 20
-1238.204671
 30
0.0
 70
0
  0
VERTEX
  5
3F
  8
1
 10
-3203.630254
 20
-1237.51117
 30
0.0
 70
0
  0
VERTEX
  5
40
  8
1
 10
-3218.757038
 20
-1236.798292
 30
0.0
 70
0
  0
VERTEX
  5
41
  8
1
 10
-3234.248308
 20
-1236.054047
 30
0.0
 70
0
  0
VERTEX
  5
42
  8
1
 10
-3249.3738
 20
-1235.312679
 30
0.0
 70
0
  0
VERTEX
  5
43
  8
1
 10
-3264.592956
 20
-1234.550778
 30
0.0
 70
0
  0
VERTEX
  5
44
  8
1
 10
-3279.716788
 20
-1233.776853
 30
0.0
 70
0
  0
VERTEX
  5
45
  8
1
 10
-3295.056686
 20
-1232.975105
 30
0.0
 70
0
  0
VERTEX
  5
46
  8
1
 10
-3310.178874
 20
-1232.168966
 30
0.0
 70
0
  0
VERTEX
  5
47
  8
1
 10
-3325.651756
 20
-1231.329298
 30
0.0
 70
0
  0
VERTEX
  5
48
  8
1
 10
-3340.772428
 20
-1230.495524
 30
0.0
 70
0
  0
VERTEX
  5
49
  8
1
 10
-3356.19317
 20
-1229.632397
 30
0.0
 70
0
  0
VERTEX
  5
4A
  8
1
 10
-3371.312462
 20
-1228.774156
 30
0.0
 70
0
  0
VERTEX
  5
4B
  8
1
 10
-3386.735694
 20
-1227.887281
 30
0.0
 70
0
  0
VERTEX
  5
4C
  8
1
 10
-3401.853688
 20
-1227.0075
 30
0.0
 70
0
  0
VERTEX
  5
4D
  8
1
 10
-3417.100737
 20
-1226.1098
 30
0.0
 70
0
  0
VERTEX
  5
4E
  8
1
 10
-3432.21752
 20
-1225.208999
 30
0.0
 70
0
  0
VERTEX
  5
4F
  8
1
 10
-3447.288488
 20
-1224.298422
 30
0.0
 70
0
  0
VERTEX
  5
50
  8
1
 10
-3462.403809
 20
-1223.372203
 30
0.0
 70
0
  0
VERTEX
  5
51
  8
1
 10
-3476.777039
 20
-1222.484665
 30
0.0
 70
0
  0
VERTEX
  5
52
  8
1
 10
-3477.634751
 20
-1222.431687
 30
0.0
 70
0
  0
VERTEX
  5
53
  8
1
 10
-3492.668263
 20
-1221.502267
 30
0.0
 70
0
  0
VERTEX
  5
54
  8
1
 10
-3508.520508
 20
-1220.522308
 30
0.0
 70
0
  0
VERTEX
  5
55
  8
1
 10
-3508.467077
 20
-1204.907643
 30
0.0
 70
0
  0
VERTEX
  5
56
  8
1
 10
-3508.41513
 20
-1189.717534
 30
0.0
 70
0
  0
VERTEX
  5
57
  8
1
 10
-3508.36365
 20
-1174.662575
 30
0.0
 70
0
  0
VERTEX
  5
58
  8
1
 10
-3508.311682
 20
-1159.472435
 30
0.0
 70
0
  0
VERTEX
  5
59
  8
1
 10
-3508.259665
 20
-1144.282292
 30
0.0
 70
0
  0
VERTEX
  5
5A
  8
1
 10
-3508.206674
 20
-1128.829228
 30
0.0
 70
0
  0
VERTEX
  5
5B
  8
1
 10
-3508.154528
 20
-1113.639124
 30
0.0
 70
0
  0
VERTEX
  5
5C
  8
1
 10
-3508.101471
 20
-1098.193665
 30
0.0
 70
0
  0
VERTEX
  5
5D
  8
1
 10
-3508.04928
 20
-1083.003551
 30
0.0
 70
0
  0
VERTEX
  5
5E
  8
1
 10
-3507.99766
 20
-1067.976443
 30
0.0
 70
0
  0
VERTEX
  5
5F
  8
1
 10
-3507.945477
 20
-1052.786314
 30
0.0
 70
0
  0
VERTEX
  5
60
  8
1
 10
-3507.893636
 20
-1037.70727
 30
0.0
 70
0
  0
VERTEX
  5
61
  8
1
 10
-3507.841355
 20
-1022.517128
 30
0.0
 70
0
  0
VERTEX
  5
62
  8
1
 10
-3507.788253
 20
-1007.103489
 30
0.0
 70
0
  0
VERTEX
  5
63
  8
1
 10
-3507.735882
 20
-991.913358
 30
0.0
 70
0
  0
VERTEX
  5
64
  8
1
 10
-3507.683493
 20
-976.723253
 30
0.0
 70
0
  0
VERTEX
  5
65
  8
1
 10
-3507.63131
 20
-961.592947
 30
0.0
 70
0
  0
VERTEX
  5
66
  8
1
 10
-3507.619019
 20
-958.028717
 30
0.0
 70
0
  0
VERTEX
  5
67
  8
1
 10
-3491.755289
 20
-957.21948
 30
0.0
 70
0
  0
VERTEX
  5
68
  8
1
 10
-3476.708648
 20
-956.451934
 30
0.0
 70
0
  0
VERTEX
  5
69
  8
1
 10
-3475.863342
 20
-956.408844
 30
0.0
 70
0
  0
VERTEX
  5
6A
  8
1
 10
-3461.44737
 20
-955.67345
 30
0.0
 70
0
  0
VERTEX
  5
6B
  8
1
 10
-3446.343415
 20
-954.902996
 30
0.0
 70
0
  0
VERTEX
  5
6C
  8
1
 10
-3431.214075
 20
-954.131247
 30
0.0
 70
0
  0
VERTEX
  5
6D
  8
1
 10
-3416.084756
 20
-953.35949
 30
0.0
 70
0
  0
VERTEX
  5
6E
  8
1
 10
-3400.857387
 20
-952.582717
 30
0.0
 70
0
  0
VERTEX
  5
6F
  8
1
 10
-3385.754971
 20
-951.812313
 30
0.0
 70
0
  0
VERTEX
  5
70
  8
1
 10
-3370.625577
 20
-951.040537
 30
0.0
 70
0
  0
VERTEX
  5
71
  8
1
 10
-3355.544299
 20
-950.271224
 30
0.0
 70
0
  0
VERTEX
  5
72
  8
1
 10
-3340.4149
 20
-949.499463
 30
0.0
 70
0
  0
VERTEX
  5
73
  8
1
 10
-3325.333643
 20
-948.73016
 30
0.0
 70
0
  0
VERTEX
  5
74
  8
1
 10
-3310.204325
 20
-947.958404
 30
0.0
 70
0
  0
VERTEX
  5
75
  8
1
 10
-3295.136401
 20
-947.189778
 30
0.0
 70
0
  0
VERTEX
  5
76
  8
1
 10
-3280.007026
 20
-946.418021
 30
0.0
 70
0
  0
VERTEX
  5
77
  8
1
 10
-3264.877594
 20
-945.646263
 30
0.0
 70
0
  0
VERTEX
  5
78
  8
1
 10
-3249.824753
 20
-944.878412
 30
0.0
 70
0
  0
VERTEX
  5
79
  8
1
 10
-3234.695348
 20
-944.106655
 30
0.0
 70
0
  0
VERTEX
  5
7A
  8
1
 10
-3219.614082
 20
-943.33735
 30
0.0
 70
0
  0
VERTEX
  5
7B
  8
1
 10
-3204.484725
 20
-942.565585
 30
0.0
 70
0
  0
VERTEX
  5
7C
  8
1
 10
-3189.142747
 20
-941.782966
 30
0.0
 70
0
  0
VERTEX
  5
7D
  8
1
 10
-3174.013398
 20
-941.011198
 30
0.0
 70
0
  0
VERTEX
  5
7E
  8
1
 10
-3159.013467
 20
-940.246045
 30
0.0
 70
0
  0
VERTEX
  5
7F
  8
1
 10
-3143.884066
 20
-939.474287
 30
0.0
 70
0
  0
VERTEX
  5
80
  8
1
 10
-3128.70645
 20
-938.700051
 30
0.0
 70
0
  0
VERTEX
  5
81
  8
1
 10
-3113.577079
 20
-937.928271
 30
0.0
 70
0
  0
VERTEX
  5
82
  8
1
 10
-3098.495827
 20
-937.158959
 30
0.0
 70
0
  0
VERTEX
  5
83
  8
1
 10
-3083.366458
 20
-936.387202
 30
0.0
 70
0
  0
VERTEX
  5
84
  8
1
 10
-3068.120778
 20
-935.609518
 30
0.0
 70
0
  0
VERTEX
  5
85
  8
1
 10
-3052.991418
 20
-934.837765
 30
0.0
 70
0
  0
VERTEX
  5
86
  8
1
 10
-3037.552096
 20
-934.050194
 30
0.0
 70
0
  0
VERTEX
  5
87
  8
1
 10
-3022.464864
 20
-933.280578
 30
0.0
 70
0
  0
VERTEX
  5
88
  8
1
 10
-3009.47876
 20
-932.618103
 30
0.0
 70
0
  0
VERTEX
  5
89
  8
1
 10
-3010.075989
 20
-932.650604
 30
0.0
 70
0
  0
VERTEX
  5
8A
  8
1
 10
-2994.791652
 20
-930.413417
 30
0.0
 70
0
  0
VERTEX
  5
8B
  8
1
 10
-2979.976718
 20
-928.149985
 30
0.0
 70
0
  0
VERTEX
  5
8C
  8
1
 10
-2964.661695
 20
-925.676153
 30
0.0
 70
0
  0
VERTEX
  5
8D
  8
1
 10
-2949.846345
 20
-923.15076
 30
0.0
 70
0
  0
VERTEX
  5
8E
  8
1
 10
-2934.817439
 20
-920.460792
 30
0.0
 70
0
  0
VERTEX
  5
8F
  8
1
 10
-2920.049635
 20
-917.671399
 30
0.0
 70
0
  0
VERTEX
  5
90
  8
1
 10
-2904.989267
 20
-914.651019
 30
0.0
 70
0
  0
VERTEX
  5
91
  8
1
 10
-2890.291599
 20
-911.512383
 30
0.0
 70
0
  0
VERTEX
  5
92
  8
1
 10
-2875.579196
 20
-908.165205
 30
0.0
 70
0
  0
VERTEX
  5
93
  8
1
 10
-2860.971435
 20
-904.631493
 30
0.0
 70
0
  0
VERTEX
  5
94
  8
1
 10
-2846.308547
 20
-900.867849
 30
0.0
 70
0
  0
VERTEX
  5
95
  8
1
 10
-2831.807027
 20
-896.920509
 30
0.0
 70
0
  0
VERTEX
  5
96
  8
1
 10
-2817.190127
 20
-892.704554
 30
0.0
 70
0
  0
VERTEX
  5
97
  8
1
 10
-2802.811308
 20
-888.331097
 30
0.0
 70
0
  0
VERTEX
  5
98
  8
1
 10
-2788.342729
 20
-883.718339
 30
0.0
 70
0
  0
VERTEX
  5
99
  8
1
 10
-2774.076882
 20
-878.989703
 30
0.0
 70
0
  0
VERTEX
  5
9A
  8
1
 10
-2759.759826
 20
-874.090206
 30
0.0
 70
0
  0
VERTEX
  5
9B
  8
1
 10
-2745.590267
 20
-869.08147
 30
0.0
 70
0
  0
VERTEX
  5
9C
  8
1
 10
-2731.322218
 20
-863.865657
 30
0.0
 70
0
  0
VERTEX
  5
9D
  8
1
 10
-2718.742065
 20
-859.146042
 30
0.0
 70
0
  0
VERTEX
  5
9E
  8
1
 10
-2717.250859
 20
-858.586544
 30
0.0
 70
0
  0
VERTEX
  5
9F
  8
1
 10
-2703.207019
 20
-853.234198
 30
0.0
 70
0
  0
VERTEX
  5
A0
  8
1
 10
-2697.581787
 20
-851.077881
 30
0.0
 70
0
  0
VERTEX
  5
A1
  8
1
 10
-2690.190125
 20
-854.980927
 30
0.0
 70
0
  0
VERTEX
  5
A2
  8
1
 10
-2688.608433
 20
-862.522016
 30
0.0
 70
0
  0
VERTEX
  5
A3
  8
1
 10
-2686.924005
 20
-869.346966
 30
0.0
 70
0
  0
VERTEX
  5
A4
  8
1
 10
-2685.211361
 20
-875.319737
 30
0.0
 70
0
  0
VERTEX
  5
A5
  8
1
 10
-2683.405273
 20
-880.721249
 30
0.0
 70
0
  0
VERTEX
  5
A6
  8
1
 10
-2681.415171
 20
-885.904923
 30
0.0
 70
0
  0
VERTEX
  5
A7
  8
1
 10
-2679.254564
 20
-890.859556
 30
0.0
 70
0
  0
VERTEX
  5
A8
  8
1
 10
-2676.964247
 20
-895.499961
 30
0.0
 70
0
  0
VERTEX
  5
A9
  8
1
 10
-2674.565109
 20
-899.807659
 30
0.0
 70
0
  0
VERTEX
  5
AA
  8
1
 10
-2672.099862
 20
-903.737182
 30
0.0
 70
0
  0
VERTEX
  5
AB
  8
1
 10
-2669.588194
 20
-907.294193
 30
0.0
 70
0
  0
VERTEX
  5
AC
  8
1
 10
-2666.938261
 20
-910.617744
 30
0.0
 70
0
  0
VERTEX
  5
AD
  8
1
 10
-2664.302855
 20
-913.533916
 30
0.0
 70
0
  0
VERTEX
  5
AE
  8
1
 10
-2661.604907
 20
-916.156971
 30
0.0
 70
0
  0
VERTEX
  5
AF
  8
1
 10
-2658.875792
 20
-918.472235
 30
0.0
 70
0
  0
VERTEX
  5
B0
  8
1
 10
-2655.864203
 20
-920.691658
 30
0.0
 70
0
  0
VERTEX
  5
B1
  8
1
 10
-2652.493815
 20
-922.859882
 30
0.0
 70
0
  0
VERTEX
  5
B2
  8
1
 10
-2648.625109
 20
-925.036429
 30
0.0
 70
0
  0
VERTEX
  5
B3
  8
1
 10
-2644.432999
 20
-927.104037
 30
0.0
 70
0
  0
VERTEX
  5
B4
  8
1
 10
-2639.696915
 20
-929.152647
 30
0.0
 70
0
  0
VERTEX
  5
B5
  8
1
 10
-2634.370471
 20
-931.171522
 30
0.0
 70
0
  0
VERTEX
  5
B6
  8
1
 10
-2628.349608
 20
-933.174697
 30
0.0
 70
0
  0
VERTEX
  5
B7
  8
1
 10
-2621.621755
 20
-935.146478
 30
0.0
 70
0
  0
VERTEX
  5
B8
  8
1
 10
-2614.259559
 20
-937.041192
 30
0.0
 70
0
  0
VERTEX
  5
B9
  8
1
 10
-2605.245691
 20
-939.083437
 30
0.0
 70
0
  0
VERTEX
  5
BA
  8
1
 10
-2596.645508
 20
-940.827713
 30
0.0
 70
0
  0
VERTEX
  5
BB
  8
1
 10
-2581.294228
 20
-944.259898
 30
0.0
 70
0
  0
VERTEX
  5
BC
  8
1
 10
-2566.531815
 20
-947.562354
 30
0.0
 70
0
  0
VERTEX
  5
BD
  8
1
 10
-2551.653852
 20
-950.893287
 30
0.0
 70
0
  0
VERTEX
  5
BE
  8
1
 10
-2536.62405
 20
-954.26134
 30
0.0
 70
0
  0
VERTEX
  5
BF
  8
1
 10
-2521.722288
 20
-957.603967
 30
0.0
 70
0
  0
VERTEX
  5
C0
  8
1
 10
-2506.693955
 20
-960.978413
 30
0.0
 70
0
  0
VERTEX
  5
C1
  8
1
 10
-2492.016814
 20
-964.277415
 30
0.0
 70
0
  0
VERTEX
  5
C2
  8
1
 10
-2476.98996
 20
-967.658369
 30
0.0
 70
0
  0
VERTEX
  5
C3
  8
1
 10
-2462.244501
 20
-970.978981
 30
0.0
 70
0
  0
VERTEX
  5
C4
  8
1
 10
-2447.218745
 20
-974.36495
 30
0.0
 70
0
  0
VERTEX
  5
C5
  8
1
 10
-2443.918152
 20
-975.108948
 30
0.0
 70
0
  0
VERTEX
  5
C6
  8
1
 10
-2432.575853
 20
-977.665766
 30
0.0
 70
0
  0
VERTEX
  5
C7
  8
1
 10
-2431.332397
 20
-977.946091
 30
0.0
 70
0
  0
VERTEX
  5
C8
  8
1
 10
-2432.038723
 20
-993.737792
 30
0.0
 70
0
  0
VERTEX
  5
C9
  8
1
 10
-2432.058868
 20
-994.187088
 30
0.0
 70
0
  0
VERTEX
  5
CA
  8
1
 10
-2432.720046
 20
-1008.973745
 30
0.0
 70
0
  0
VERTEX
  5
CB
  8
1
 10
-2433.400778
 20
-1024.209728
 30
0.0
 70
0
  0
VERTEX
  5
CC
  8
1
 10
-2434.070052
 20
-1039.210904
 30
0.0
 70
0
  0
VERTEX
  5
CD
  8
1
 10
-2434.748917
 20
-1054.446959
 30
0.0
 70
0
  0
VERTEX
  5
CE
  8
1
 10
-2435.427382
 20
-1069.689424
 30
0.0
 70
0
  0
VERTEX
  5
CF
  8
1
 10
-2436.104881
 20
-1084.925558
 30
0.0
 70
0
  0
VERTEX
  5
D0
  8
1
 10
-2436.78207
 20
-1100.172138
 30
0.0
 70
0
  0
VERTEX
  5
D1
  8
1
 10
-2437.457979
 20
-1115.408329
 30
0.0
 70
0
  0
VERTEX
  5
D2
  8
1
 10
-2438.126864
 20
-1130.504713
 30
0.0
 70
0
  0
VERTEX
  5
D3
  8
1
 10
-2438.801067
 20
-1145.740972
 30
0.0
 70
0
  0
VERTEX
  5
D4
  8
1
 10
-2439.476273
 20
-1161.021899
 30
0.0
 70
0
  0
VERTEX
  5
D5
  8
1
 10
-2440.14846
 20
-1176.258272
 30
0.0
 70
0
  0
VERTEX
  5
D6
  8
1
 10
-2440.787659
 20
-1190.768356
 30
0.0
 70
0
  0
VERTEX
  5
D7
  8
1
 10
-2440.828207
 20
-1191.691546
 30
0.0
 70
0
  0
VERTEX
  5
D8
  8
1
 10
-2441.498153
 20
-1206.927995
 30
0.0
 70
0
  0
VERTEX
  5
D9
  8
1
 10
-2442.167071
 20
-1222.164487
 30
0.0
 70
0
  0
VERTEX
  5
DA
  8
1
 10
-2442.836004
 20
-1237.421094
 30
0.0
 70
0
  0
VERTEX
  5
DB
  8
1
 10
-2443.505698
 20
-1252.70359
 30
0.0
 70
0
  0
VERTEX
  5
DC
  8
1
 10
-2443.861084
 20
-1260.813141
 30
0.0
 70
0
  0
VERTEX
  5
DD
  8
1
 10
-2447.782078
 20
-1261.096359
 30
0.0
 70
0
  0
VERTEX
  5
DE
  8
1
 10
-2456.612854
 20
-1261.722336
 30
0.0
 70
0
  0
VERTEX
  5
DF
  8
1
 10
-2462.871672
 20
-1262.165953
 30
0.0
 70
0
  0
VERTEX
  5
E0
  8
1
 10
-2477.896768
 20
-1263.180612
 30
0.0
 70
0
  0
VERTEX
  5
E1
  8
1
 10
-2493.22294
 20
-1264.131521
 30
0.0
 70
0
  0
VERTEX
  5
E2
  8
1
 10
-2508.25994
 20
-1264.953133
 30
0.0
 70
0
  0
VERTEX
  5
E3
  8
1
 10
-2523.568903
 20
-1265.653873
 30
0.0
 70
0
  0
VERTEX
  5
E4
  8
1
 10
-2538.618636
 20
-1266.193692
 30
0.0
 70
0
  0
VERTEX
  5
E5
  8
1
 10
-2553.906512
 20
-1266.590902
 30
0.0
 70
0
  0
VERTEX
  5
E6
  8
1
 10
-2568.96385
 20
-1266.838026
 30
0.0
 70
0
  0
VERTEX
  5
E7
  8
1
 10
-2584.222077
 20
-1266.95259
 30
0.0
 70
0
  0
VERTEX
  5
E8
  8
1
 10
-2599.281381
 20
-1266.942464
 30
0.0
 70
0
  0
VERTEX
  5
E9
  8
1
 10
-2614.370791
 20
-1266.820704
 30
0.0
 70
0
  0
VERTEX
  5
EA
  8
1
 10
-2629.428449
 20
-1266.598566
 30
0.0
 70
0
  0
VERTEX
  5
EB
  8
1
 10
-2644.690179
 20
-1266.280561
 30
0.0
 70
0
  0
VERTEX
  5
EC
  8
1
 10
-2659.744121
 20
-1265.879177
 30
0.0
 70
0
  0
VERTEX
  5
ED
  8
1
 10
-2674.856331
 20
-1265.37324
 30
0.0
 70
0
  0
VERTEX
  5
EE
  8
1
 10
-2689.902884
 20
-1264.750986
 30
0.0
 70
0
  0
VERTEX
  5
EF
  8
1
 10
-2705.331871
 20
-1263.986655
 30
0.0
 70
0
  0
VERTEX
  5
F0
  8
1
 10
-2720.366543
 20
-1263.127262
 30
0.0
 70
0
  0
VERTEX
  5
F1
  8
1
 10
-2735.719793
 20
-1262.176162
 30
0.0
 70
0
  0
VERTEX
  5
F2
  8
1
 10
-2750.748563
 20
-1261.218238
 30
0.0
 70
0
  0
VERTEX
  5
F3
  8
1
 10
-2766.056662
 20
-1260.241604
 30
0.0
 70
0
  0
VERTEX
  5
F4
  8
1
 10
-2781.086334
 20
-1259.297752
 30
0.0
 70
0
  0
VERTEX
  5
F5
  8
1
 10
-2796.527578
 20
-1258.33875
 30
0.0
 70
0
  0
VERTEX
  5
F6
  8
1
 10
-2811.557988
 20
-1257.40835
 30
0.0
 70
0
  0
VERTEX
  5
F7
  8
1
 10
-2826.888148
 20
-1256.463783
 30
0.0
 70
0
  0
VERTEX
  5
F8
  8
1
 10
-2841.919239
 20
-1255.54435
 30
0.0
 70
0
  0
VERTEX
  5
F9
  8
1
 10
-2857.176136
 20
-1254.617151
 30
0.0
 70
0
  0
VERTEX
  5
FA
  8
1
 10
-2872.207961
 20
-1253.708409
 30
0.0
 70
0
  0
VERTEX
  5
FB
  8
1
 10
-2887.240077
 20
-1252.804374
 30
0.0
 70
0
  0
VERTEX
  5
FC
  8
1
 10
-2902.2381
 20
-1251.907282
 30
0.0
 70
0
  0
VERTEX
  5
FD
  8
1
 10
-2917.755689
 20
-1250.984137
 30
0.0
 70
0
  0
VERTEX
  5
FE
  8
1
 10
-2932.488809
 20
-1250.112208
 30
0.0
 70
0
  0
VERTEX
  5
FF
  8
1
 10
-2948.006934
 20
-1249.198458
 30
0.0
 70
0
  0
VERTEX
  5
100
  8
1
 10
-2962.934016
 20
-1248.324094
 30
0.0
 70
0
  0
VERTEX
  5
101
  8
1
 10
-2978.452806
 20
-1247.420974
 30
0.0
 70
0
  0
VERTEX
  5
102
  8
1
 10
-2993.749069
 20
-1246.537257
 30
0.0
 70
0
  0
SEQEND
  5
30
  8
1
  0
LINE
  5
103
  8
7
 10
-3387.257385
 20
-1086.681671
 30
0.0
 11
-2519.147034
 21
-1086.681671
 31
0.0
  0
ENDSEC
  0
EOF
