  0
SECTION
  2
HEADER
  9
$ACADVER
  1
AC1009
  9
$DWGCODEPAGE
  3
ANSI_1252
  9
$INSBASE
 10
0.0
 20
0.0
 30
0.0
  9
$EXTMIN
 10
1e+20
 20
1e+20
 30
1e+20
  9
$EXTMAX
 10
-1e+20
 20
-1e+20
 30
-1e+20
  9
$LIMMIN
 10
0.0
 20
0.0
  9
$LIMMAX
 10
420.0
 20
297.0
  9
$ORTHOMODE
 70
0
  9
$REGENMODE
 70
1
  9
$FILLMODE
 70
1
  9
$DRAGMODE
 70
2
  9
$QTEXTMODE
 70
0
  9
$MIRRTEXT
 70
1
  9
$OSMODE
 70
20583
  9
$LTSCALE
 40
1.0
  9
$ATTMODE
 70
1
  9
$TEXTSIZE
 40
2.5
  9
$TRACEWID
 40
1.0
  9
$TEXTSTYLE
  7
Standard
  9
$CLAYER
  8
0
  9
$CELTYPE
  6
ByLayer
  9
$CECOLOR
 62
256
  9
$DIMSCALE
 40
1.0
  9
$DIMASZ
 40
2.5
  9
$DIMEXO
 40
0.625
  9
$DIMDLI
 40
3.75
  9
$DIMRND
 40
0.0
  9
$DIMDLE
 40
0.0
  9
$DIMEXE
 40
1.25
  9
$DIMTP
 40
0.0
  9
$DIMTM
 40
0.0
  9
$DIMTXT
 40
2.5
  9
$DIMCEN
 40
2.5
  9
$DIMTSZ
 40
0.0
  9
$DIMTOL
 70
0
  9
$DIMLIM
 70
0
  9
$DIMTIH
 70
0
  9
$DIMTOH
 70
0
  9
$DIMSE1
 70
0
  9
$DIMSE2
 70
0
  9
$DIMTAD
 70
1
  9
$DIMZIN
 70
8
  9
$DIMBLK
  1

  9
$DIMASO
 70
1
  9
$DIMSHO
 70
1
  9
$DIMPOST
  1

  9
$DIMAPOST
  1

  9
$DIMALT
 70
0
  9
$DIMALTD
 70
3
  9
$DIMALTF
 40
0.03937007874
  9
$DIMLFAC
 40
1.0
  9
$DIMTOFL
 70
1
  9
$DIMTVP
 40
0.0
  9
$DIMTIX
 70
0
  9
$DIMSOXD
 70
0
  9
$DIMSAH
 70
0
  9
$DIMBLK1
  1

  9
$DIMBLK2
  1

  9
$DIMSTYLE
  2
ISO-25
  9
$DIMCLRD
 70
0
  9
$DIMCLRE
 70
0
  9
$DIMCLRT
 70
0
  9
$DIMTFAC
 40
1.0
  9
$DIMGAP
 40
0.625
  9
$COORDS
 70
1
  9
$ATTDIA
 70
0
  9
$ATTREQ
 70
1
  9
$HANDLING
 70
1
  9
$LUNITS
 70
2
  9
$LUPREC
 70
4
  9
$SKETCHINC
 40
1.0
  9
$FILLETRAD
 40
10.0
  9
$AUNITS
 70
0
  9
$AUPREC
 70
2
  9
$MENU
  1
.
  9
$ELEVATION
 40
0.0
  9
$PELEVATION
 40
0.0
  9
$THICKNESS
 40
0.0
  9
$LIMCHECK
 70
0
  9
$CHAMFERA
 40
0.0
  9
$CHAMFERB
 40
0.0
  9
$SKPOLY
 70
0
  9
$TDCREATE
 40
2461259.4353935183
  9
$TDUPDATE
 40
2461259.4353935183
  9
$TDINDWG
 40
0.0
  9
$TDUSRTIMER
 40
0.0
  9
$USRTIMER
 70
1
  9
$ANGBASE
 50
0.0
  9
$ANGDIR
 70
0
  9
$PDMODE
 70
0
  9
$PDSIZE
 40
0.0
  9
$PLINEWID
 40
0.0
  9
$SPLFRAME
 70
0
  9
$SPLINETYPE
 70
6
  9
$SPLINESEGS
 70
8
  9
$HANDSEED
  5
101
  9
$SURFTAB1
 70
6
  9
$SURFTAB2
 70
6
  9
$SURFTYPE
 70
6
  9
$SURFU
 70
6
  9
$SURFV
 70
6
  9
$UCSNAME
  2

  9
$UCSORG
 10
0.0
 20
0.0
 30
0.0
  9
$UCSXDIR
 10
1.0
 20
0.0
 30
0.0
  9
$UCSYDIR
 10
0.0
 20
1.0
 30
0.0
  9
$PUCSNAME
  2

  9
$PUCSORG
 10
0.0
 20
0.0
 30
0.0
  9
$PUCSXDIR
 10
1.0
 20
0.0
 30
0.0
  9
$PUCSYDIR
 10
0.0
 20
1.0
 30
0.0
  9
$USERI1
 70
0
  9
$USERI2
 70
0
  9
$USERI3
 70
0
  9
$USERI4
 70
0
  9
$USERI5
 70
0
  9
$USERR1
 40
0.0
  9
$USERR2
 40
0.0
  9
$USERR3
 40
0.0
  9
$USERR4
 40
0.0
  9
$USERR5
 40
0.0
  9
$WORLDVIEW
 70
1
  9
$SHADEDGE
 70
3
  9
$SHADEDIF
 70
70
  9
$TILEMODE
 70
1
  9
$MAXACTVP
 70
64
  9
$PLIMCHECK
 70
0
  9
$PEXTMIN
 10
1e+20
 20
1e+20
 30
1e+20
  9
$PEXTMAX
 10
-1e+20
 20
-1e+20
 30
-1e+20
  9
$PLIMMIN
 10
0.0
 20
0.0
  9
$PLIMMAX
 10
420.0
 20
297.0
  9
$UNITMODE
 70
0
  9
$VISRETAIN
 70
1
  9
$PLINEGEN
 70
0
  9
$PSLTSCALE
 70
1
  0
ENDSEC
  0
SECTION
  2
TABLES
  0
TABLE
  2
VPORT
 70
1
  0
VPORT
  5
23
  2
*Active
 70
0
 10
0.0
 20
0.0
 11
1.0
 21
1.0
 12
0.0
 22
0.0
 13
0.0
 23
0.0
 14
0.5
 24
0.5
 15
0.5
 25
0.5
 16
0.0
 26
0.0
 36
1.0
 17
0.0
 27
0.0
 37
0.0
 40
1000.0
 41
1.34
 42
50.0
 43
0.0
 44
0.0
 50
0.0
 51
0.0
 71
0
 72
1000
 73
1
 74
3
 75
0
 76
0
 77
0
 78
0
  0
ENDTAB
  0
TABLE
  2
LTYPE
 70
3
  0
LTYPE
  5
24
  2
ByBlock
 70
0
  3

 72
65
 73
0
 40
0.0
  0
LTYPE
  5
25
  2
ByLayer
 70
0
  3

 72
65
 73
0
 40
0.0
  0
LTYPE
  5
26
  2
Continuous
 70
0
  3

 72
65
 73
0
 40
0.0
  0
ENDTAB
  0
TABLE
  2
LAYER
 70
4
  0
LAYER
  5
27
  2
0
 70
0
 62
7
  6
Continuous
  0
LAYER
  5
28
  2
Defpoints
 70
0
 62
7
  6
Continuous
  0
LAYER
  5
2D
  2
1
 70
0
 62
1
  6
Continuous
  0
LAYER
  5
2E
  2
7
 70
0
 62
7
  6
Continuous
  0
ENDTAB
  0
TABLE
  2
STYLE
 70
1
  0
STYLE
  5
29
  2
Standard
 70
0
 40
0.0
 41
1.0
 50
0.0
 71
0
 42
2.5
  3
txt
  4

  0
ENDTAB
  0
TABLE
  2
VIEW
 70
0
  0
ENDTAB
  0
TABLE
  2
UCS
 70
0
  0
ENDTAB
  0
TABLE
  2
APPID
 70
3
  0
APPID
  5
2A
  2
ACAD
 70
0
  0
APPID
  5
FF
  2
HATCHBACKGROUNDCOLOR
 70
0
  0
APPID
  5
100
  2
EZDXF
 70
0
  0
ENDTAB
  0
TABLE
  2
DIMSTYLE
 70
1
  0
DIMSTYLE
105
2B
  2
Standard
 70
0
  3

  4

  5

  6

  7

 40
1.0
 41
2.5
 42
0.625
 43
3.75
 44
1.25
 45
0.0
 46
0.0
 47
0.0
 48
0.0
140
2.5
141
2.5
142
0.0
143
0.03937007874
144
1.0
145
0.0
146
1.0
147
0.625
 71
0
 72
0
 73
0
 74
0
 75
0
 76
0
 77
1
 78
8
170
0
171
3
172
1
173
0
174
0
175
0
176
0
177
0
178
0
  0
ENDTAB
  0
ENDSEC
  0
SECTION
  2
BLOCKS
  0
BLOCK
  5
18
  8
0
  2
$Model_Space
 70
0
 10
0.0
 20
0.0
 30
0.0
  3
$Model_Space
  1

1001
EZDXF
1000
CREATED_BY_EZDXF
1000
1.4.4 @ 2026-08-06T02:26:58.011385+00:00
1000
WRITTEN_BY_EZDXF
1000
1.4.4 @ 2026-08-06T02:26:58.014007+00:00
  0
ENDBLK
  5
19
  8
0
  0
BLOCK
  5
1C
  8
0
  2
$Paper_Space
 70
0
 10
0.0
 20
0.0
 30
0.0
  3
$Paper_Space
  1

  0
ENDBLK
  5
1D
  8
0
  0
ENDSEC
  0
SECTION
  2
ENTITIES
  0
POLYLINE
  5
2F
  8
1
 66
1
 10
0.0
 20
0.0
 30
0.0
 70
1
  0
VERTEX
  5
31
  8
1
 10
-3009.414673
 20
-1243.097
 30
0.0
 70
0
  0
VERTEX
  5
32
  8
1
 10
-3009.292908
 20
-1243.101349
 30
0.0
 70
0
  0
VERTEX
  5
33
  8
1
 10
-3012.398552
 20
-1242.989306
 30
0.0
 70
0
  0
VERTEX
  5
34
  8
1
 10
-3027.189916
 20
-1242.44901
 30
0.0
 70
0
  0
VERTEX
  5
35
  8
1
 10
-3042.231338
 20
-1241.889347
 30
0.0
 70
0
  0
VERTEX
  5
36
  8
1
 10
-3057.608878
 20
-1241.303165
 30
0.0
 70
0
  0
VERTEX
  5
37
  8
1
 10
-3073.093221
 20
-1240.698723
 30
0.0
 70
0
  0
VERTEX
  5
38
  8
1
 10
-3088.129686
 20
-1240.101754
 30
0.0
 70
0
  0
VERTEX
  5
39
  8
1
 10
-3103.61327
 20
-1239.477282
 30
0.0
 70
0
  0
VERTEX
  5
3A
  8
1
 10
-3118.643258
 20
-1238.860355
 30
0.0
 70
0
  0
VERTEX
  5
3B
  8
1
 10
-3134.125915
 20
-1238.213404
 30
0.0
 70
0
  0
VERTEX
  5
3C
  8
1
 10
-3149.525523
 20
-1237.558586
 30
0.0
 70
0
  0
VERTEX
  5
3D
  8
1
 10
-3165.007158
 20
-1236.888588
 30
0.0
 70
0
  0
VERTEX
  5
3E
  8
1
 10
-3180.464484
 20
-1236.207361
 30
0.0
 70
0
  0
VERTEX
  5
3F
  8
1
 10
-3195.944985
 20
-1235.512208
 30
0.0
 70
0
  0
VERTEX
  5
40
  8
1
 10
-3211.286974
 20
-1234.809918
 30
0.0
 70
0
  0
VERTEX
  5
41
  8
1
 10
-3226.766268
 20
-1234.087169
 30
0.0
 70
0
  0
VERTEX
  5
42
  8
1
 10
-3242.096926
 20
-1233.356537
 30
0.0
 70
0
  0
VERTEX
  5
43
  8
1
 10
-3257.574656
 20
-1232.602684
 30
0.0
 70
0
  0
VERTEX
  5
44
  8
1
 10
-3272.626411
 20
-1231.852745
 30
0.0
 70
0
  0
VERTEX
  5
45
  8
1
 10
-3288.102494
 20
-1231.064382
 30
0.0
 70
0
  0
VERTEX
  5
46
  8
1
 10
-3303.302491
 20
-1230.273668
 30
0.0
 70
0
  0
VERTEX
  5
47
  8
1
 10
-3318.776949
 20
-1229.453275
 30
0.0
 70
0
  0
VERTEX
  5
48
  8
1
 10
-3334.086162
 20
-1228.627812
 30
0.0
 70
0
  0
VERTEX
  5
49
  8
1
 10
-3349.559125
 20
-1227.780322
 30
0.0
 70
0
  0
VERTEX
  5
4A
  8
1
 10
-3364.818061
 20
-1226.932097
 30
0.0
 70
0
  0
VERTEX
  5
4B
  8
1
 10
-3380.289672
 20
-1226.060275
 30
0.0
 70
0
  0
VERTEX
  5
4C
  8
1
 10
-3395.547973
 20
-1225.189691
 30
0.0
 70
0
  0
VERTEX
  5
4D
  8
1
 10
-3411.018333
 20
-1224.296207
 30
0.0
 70
0
  0
VERTEX
  5
4E
  8
1
 10
-3426.129777
 20
-1223.412583
 30
0.0
 70
0
  0
VERTEX
  5
4F
  8
1
 10
-3441.598724
 20
-1222.495184
 30
0.0
 70
0
  0
VERTEX
  5
50
  8
1
 10
-3456.918683
 20
-1221.572974
 30
0.0
 70
0
  0
VERTEX
  5
51
  8
1
 10
-3471.697693
 20
-1220.675735
 30
0.0
 70
0
  0
VERTEX
  5
52
  8
1
 10
-3472.386344
 20
-1220.633987
 30
0.0
 70
0
  0
VERTEX
  5
53
  8
1
 10
-3487.712754
 20
-1219.702425
 30
0.0
 70
0
  0
VERTEX
  5
54
  8
1
 10
-3503.441467
 20
-1218.746643
 30
0.0
 70
0
  0
VERTEX
  5
55
  8
1
 10
-3503.387158
 20
-1203.158883
 30
0.0
 70
0
  0
VERTEX
  5
56
  8
1
 10
-3503.333431
 20
-1187.695593
 30
0.0
 70
0
  0
VERTEX
  5
57
  8
1
 10
-3503.280367
 20
-1172.415661
 30
0.0
 70
0
  0
VERTEX
  5
58
  8
1
 10
-3503.226589
 20
-1156.952365
 30
0.0
 70
0
  0
VERTEX
  5
59
  8
1
 10
-3503.172738
 20
-1141.48907
 30
0.0
 70
0
  0
VERTEX
  5
5A
  8
1
 10
-3503.119754
 20
-1126.287209
 30
0.0
 70
0
  0
VERTEX
  5
5B
  8
1
 10
-3503.065854
 20
-1110.823928
 30
0.0
 70
0
  0
VERTEX
  5
5C
  8
1
 10
-3503.012929
 20
-1095.633587
 30
0.0
 70
0
  0
VERTEX
  5
5D
  8
1
 10
-3502.959056
 20
-1080.17032
 30
0.0
 70
0
  0
VERTEX
  5
5E
  8
1
 10
-3502.906274
 20
-1065.03
 30
0.0
 70
0
  0
VERTEX
  5
5F
  8
1
 10
-3502.852326
 20
-1049.566719
 30
0.0
 70
0
  0
VERTEX
  5
60
  8
1
 10
-3502.798946
 20
-1034.274275
 30
0.0
 70
0
  0
VERTEX
  5
61
  8
1
 10
-3502.744934
 20
-1018.810961
 30
0.0
 70
0
  0
VERTEX
  5
62
  8
1
 10
-3502.691934
 20
-1003.650495
 30
0.0
 70
0
  0
VERTEX
  5
63
  8
1
 10
-3502.637837
 20
-988.187208
 30
0.0
 70
0
  0
VERTEX
  5
64
  8
1
 10
-3502.583728
 20
-972.723913
 30
0.0
 70
0
  0
VERTEX
  5
65
  8
1
 10
-3502.538452
 20
-959.783478
 30
0.0
 70
0
  0
VERTEX
  5
66
  8
1
 10
-3486.839422
 20
-958.979177
 30
0.0
 70
0
  0
VERTEX
  5
67
  8
1
 10
-3471.656194
 20
-958.201307
 30
0.0
 70
0
  0
VERTEX
  5
68
  8
1
 10
-3470.782776
 20
-958.156509
 30
0.0
 70
0
  0
VERTEX
  5
69
  8
1
 10
-3456.175641
 20
-957.408211
 30
0.0
 70
0
  0
VERTEX
  5
6A
  8
1
 10
-3440.874684
 20
-956.624319
 30
0.0
 70
0
  0
VERTEX
  5
6B
  8
1
 10
-3425.521483
 20
-955.837748
 30
0.0
 70
0
  0
VERTEX
  5
6C
  8
1
 10
-3410.220589
 20
-955.053848
 30
0.0
 70
0
  0
VERTEX
  5
6D
  8
1
 10
-3395.238693
 20
-954.286284
 30
0.0
 70
0
  0
VERTEX
  5
6E
  8
1
 10
-3379.937791
 20
-953.502379
 30
0.0
 70
0
  0
VERTEX
  5
6F
  8
1
 10
-3364.766767
 20
-952.725145
 30
0.0
 70
0
  0
VERTEX
  5
70
  8
1
 10
-3349.465818
 20
-951.941261
 30
0.0
 70
0
  0
VERTEX
  5
71
  8
1
 10
-3334.155535
 20
-951.15689
 30
0.0
 70
0
  0
VERTEX
  5
72
  8
1
 10
-3318.854584
 20
-950.372989
 30
0.0
 70
0
  0
VERTEX
  5
73
  8
1
 10
-3303.501418
 20
-949.586412
 30
0.0
 70
0
  0
VERTEX
  5
74
  8
1
 10
-3288.200534
 20
-948.802514
 30
0.0
 70
0
  0
VERTEX
  5
75
  8
1
 10
-3272.907867
 20
-948.019037
 30
0.0
 70
0
  0
VERTEX
  5
76
  8
1
 10
-3257.6069
 20
-947.235137
 30
0.0
 70
0
  0
VERTEX
  5
77
  8
1
 10
-3242.438709
 20
-946.458048
 30
0.0
 70
0
  0
VERTEX
  5
78
  8
1
 10
-3227.137765
 20
-945.674163
 30
0.0
 70
0
  0
VERTEX
  5
79
  8
1
 10
-3211.691028
 20
-944.882809
 30
0.0
 70
0
  0
VERTEX
  5
7A
  8
1
 10
-3196.390088
 20
-944.098923
 30
0.0
 70
0
  0
VERTEX
  5
7B
  8
1
 10
-3181.036842
 20
-943.31236
 30
0.0
 70
0
  0
VERTEX
  5
7C
  8
1
 10
-3165.735912
 20
-942.528476
 30
0.0
 70
0
  0
VERTEX
  5
7D
  8
1
 10
-3150.514319
 20
-941.748652
 30
0.0
 70
0
  0
VERTEX
  5
7E
  8
1
 10
-3135.213406
 20
-940.964756
 30
0.0
 70
0
  0
VERTEX
  5
7F
  8
1
 10
-3119.92705
 20
-940.181596
 30
0.0
 70
0
  0
VERTEX
  5
80
  8
1
 10
-3104.626088
 20
-939.397683
 30
0.0
 70
0
  0
VERTEX
  5
81
  8
1
 10
-3089.268696
 20
-938.610883
 30
0.0
 70
0
  0
VERTEX
  5
82
  8
1
 10
-3073.967784
 20
-937.826987
 30
0.0
 70
0
  0
VERTEX
  5
83
  8
1
 10
-3058.646317
 20
-937.042051
 30
0.0
 70
0
  0
VERTEX
  5
84
  8
1
 10
-3043.345359
 20
-936.258174
 30
0.0
 70
0
  0
VERTEX
  5
85
  8
1
 10
-3028.061451
 20
-935.475171
 30
0.0
 70
0
  0
VERTEX
  5
86
  8
1
 10
-3013.172988
 20
-934.712423
 30
0.0
 70
0
  0
VERTEX
  5
87
  8
1
 10
-3009.481506
 20
-934.523239
 30
0.0
 70
0
  0
VERTEX
  5
88
  8
1
 10
-3010.047302
 20
-934.554138
 30
0.0
 70
0
  0
VERTEX
  5
89
  8
1
 10
-2994.389638
 20
-932.336761
 30
0.0
 70
0
  0
VERTEX
  5
8A
  8
1
 10
-2979.452522
 20
-930.123599
 30
0.0
 70
0
  0
VERTEX
  5
8B
  8
1
 10
-2964.163262
 20
-927.72343
 30
0.0
 70
0
  0
VERTEX
  5
8C
  8
1
 10
-2949.111089
 20
-925.225665
 30
0.0
 70
0
  0
VERTEX
  5
8D
  8
1
 10
-2933.865029
 20
-922.563307
 30
0.0
 70
0
  0
VERTEX
  5
8E
  8
1
 10
-2918.768151
 20
-919.773147
 30
0.0
 70
0
  0
VERTEX
  5
8F
  8
1
 10
-2903.5826
 20
-916.785034
 30
0.0
 70
0
  0
VERTEX
  5
90
  8
1
 10
-2888.822576
 20
-913.686173
 30
0.0
 70
0
  0
VERTEX
  5
91
  8
1
 10
-2873.720613
 20
-910.300606
 30
0.0
 70
0
  0
VERTEX
  5
92
  8
1
 10
-2859.002809
 20
-906.785513
 30
0.0
 70
0
  0
VERTEX
  5
93
  8
1
 10
-2844.001812
 20
-902.976941
 30
0.0
 70
0
  0
VERTEX
  5
94
  8
1
 10
-2829.321412
 20
-899.016026
 30
0.0
 70
0
  0
VERTEX
  5
95
  8
1
 10
-2814.442096
 20
-894.756673
 30
0.0
 70
0
  0
VERTEX
  5
96
  8
1
 10
-2799.905118
 20
-890.366635
 30
0.0
 70
0
  0
VERTEX
  5
97
  8
1
 10
-2785.149819
 20
-885.69692
 30
0.0
 70
0
  0
VERTEX
  5
98
  8
1
 10
-2770.781223
 20
-880.972155
 30
0.0
 70
0
  0
VERTEX
  5
99
  8
1
 10
-2756.126593
 20
-875.994772
 30
0.0
 70
0
  0
VERTEX
  5
9A
  8
1
 10
-2741.79453
 20
-870.959755
 30
0.0
 70
0
  0
VERTEX
  5
9B
  8
1
 10
-2727.247664
 20
-865.676867
 30
0.0
 70
0
  0
VERTEX
  5
9C
  8
1
 10
-2718.750916
 20
-862.516251
 30
0.0
 70
0
  0
VERTEX
  5
9D
  8
1
 10
-2712.741843
 20
-860.281061
 30
0.0
 70
0
  0
VERTEX
  5
9E
  8
1
 10
-2697.53418
 20
-854.547195
 30
0.0
 70
0
  0
VERTEX
  5
9F
  8
1
 10
-2690.177307
 20
-858.487625
 30
0.0
 70
0
  0
VERTEX
  5
A0
  8
1
 10
-2688.659795
 20
-866.004656
 30
0.0
 70
0
  0
VERTEX
  5
A1
  8
1
 10
-2687.01513
 20
-872.883954
 30
0.0
 70
0
  0
VERTEX
  5
A2
  8
1
 10
-2685.36437
 20
-878.799647
 30
0.0
 70
0
  0
VERTEX
  5
A3
  8
1
 10
-2683.61991
 20
-884.147053
 30
0.0
 70
0
  0
VERTEX
  5
A4
  8
1
 10
-2681.63545
 20
-889.424706
 30
0.0
 70
0
  0
VERTEX
  5
A5
  8
1
 10
-2679.532865
 20
-894.331454
 30
0.0
 70
0
  0
VERTEX
  5
A6
  8
1
 10
-2677.295306
 20
-898.938337
 30
0.0
 70
0
  0
VERTEX
  5
A7
  8
1
 10
-2674.985622
 20
-903.151106
 30
0.0
 70
0
  0
VERTEX
  5
A8
  8
1
 10
-2672.535342
 20
-907.115172
 30
0.0
 70
0
  0
VERTEX
  5
A9
  8
1
 10
-2669.987907
 20
-910.762936
 30
0.0
 70
0
  0
VERTEX
  5
AA
  8
1
 10
-2667.419843
 20
-914.013452
 30
0.0
 70
0
  0
VERTEX
  5
AB
  8
1
 10
-2664.769527
 20
-916.969641
 30
0.0
 70
0
  0
VERTEX
  5
AC
  8
1
 10
-2662.055961
 20
-919.619768
 30
0.0
 70
0
  0
VERTEX
  5
AD
  8
1
 10
-2659.334295
 20
-921.932705
 30
0.0
 70
0
  0
VERTEX
  5
AE
  8
1
 10
-2656.351386
 20
-924.135639
 30
0.0
 70
0
  0
VERTEX
  5
AF
  8
1
 10
-2652.899046
 20
-926.360598
 30
0.0
 70
0
  0
VERTEX
  5
B0
  8
1
 10
-2649.072431
 20
-928.517748
 30
0.0
 70
0
  0
VERTEX
  5
B1
  8
1
 10
-2644.805545
 20
-930.628421
 30
0.0
 70
0
  0
VERTEX
  5
B2
  8
1
 10
-2640.127872
 20
-932.660286
 30
0.0
 70
0
  0
VERTEX
  5
B3
  8
1
 10
-2634.872692
 20
-934.667584
 30
0.0
 70
0
  0
VERTEX
  5
B4
  8
1
 10
-2628.803428
 20
-936.70851
 30
0.0
 70
0
  0
VERTEX
  5
B5
  8
1
 10
-2622.028061
 20
-938.721399
 30
0.0
 70
0
  0
VERTEX
  5
B6
  8
1
 10
-2614.497944
 20
-940.689463
 30
0.0
 70
0
  0
VERTEX
  5
B7
  8
1
 10
-2605.301616
 20
-942.80794
 30
0.0
 70
0
  0
VERTEX
  5
B8
  8
1
 10
-2598.147278
 20
-944.30069
 30
0.0
 70
0
  0
VERTEX
  5
B9
  8
1
 10
-2583.001712
 20
-947.767634
 30
0.0
 70
0
  0
VERTEX
  5
BA
  8
1
 10
-2567.944904
 20
-951.216267
 30
0.0
 70
0
  0
VERTEX
  5
BB
  8
1
 10
-2553.265686
 20
-954.581044
 30
0.0
 70
0
  0
VERTEX
  5
BC
  8
1
 10
-2538.576513
 20
-957.951206
 30
0.0
 70
0
  0
VERTEX
  5
BD
  8
1
 10
-2523.517453
 20
-961.40967
 30
0.0
 70
0
  0
VERTEX
  5
BE
  8
1
 10
-2508.829728
 20
-964.78629
 30
0.0
 70
0
  0
VERTEX
  5
BF
  8
1
 10
-2493.746798
 20
-968.257305
 30
0.0
 70
0
  0
VERTEX
  5
C0
  8
1
 10
-2479.060513
 20
-971.640286
 30
0.0
 70
0
  0
VERTEX
  5
C1
  8
1
 10
-2464.011784
 20
-975.109671
 30
0.0
 70
0
  0
VERTEX
  5
C2
  8
1
 10
-2449.153657
 20
-978.537293
 30
0.0
 70
0
  0
VERTEX
  5
C3
  8
1
 10
-2448.971252
 20
-978.579407
 30
0.0
 70
0
  0
VERTEX
  5
C4
  8
1
 10
-2436.38916
 20
-981.483307
 30
0.0
 70
0
  0
VERTEX
  5
C5
  8
1
 10
-2437.097063
 20
-997.182254
 30
0.0
 70
0
  0
VERTEX
  5
C6
  8
1
 10
-2437.12204
 20
-997.736664
 30
0.0
 70
0
  0
VERTEX
  5
C7
  8
1
 10
-2437.787906
 20
-1012.501766
 30
0.0
 70
0
  0
VERTEX
  5
C8
  8
1
 10
-2438.479111
 20
-1027.821255
 30
0.0
 70
0
  0
VERTEX
  5
C9
  8
1
 10
-2439.159841
 20
-1042.894506
 30
0.0
 70
0
  0
VERTEX
  5
CA
  8
1
 10
-2439.852298
 20
-1058.21391
 30
0.0
 70
0
  0
VERTEX
  5
CB
  8
1
 10
-2440.535193
 20
-1073.311291
 30
0.0
 70
0
  0
VERTEX
  5
CC
  8
1
 10
-2441.228585
 20
-1088.630676
 30
0.0
 70
0
  0
VERTEX
  5
CD
  8
1
 10
-2441.918206
 20
-1103.855695
 30
0.0
 70
0
  0
VERTEX
  5
CE
  8
1
 10
-2442.612638
 20
-1119.175036
 30
0.0
 70
0
  0
VERTEX
  5
CF
  8
1
 10
-2443.308615
 20
-1134.515936
 30
0.0
 70
0
  0
VERTEX
  5
D0
  8
1
 10
-2444.004218
 20
-1149.835227
 30
0.0
 70
0
  0
VERTEX
  5
D1
  8
1
 10
-2444.703739
 20
-1165.226166
 30
0.0
 70
0
  0
VERTEX
  5
D2
  8
1
 10
-2445.400699
 20
-1180.545388
 30
0.0
 70
0
  0
VERTEX
  5
D3
  8
1
 10
-2445.86853
 20
-1190.819244
 30
0.0
 70
0
  0
VERTEX
  5
D4
  8
1
 10
-2446.098355
 20
-1195.864595
 30
0.0
 70
0
  0
VERTEX
  5
D5
  8
1
 10
-2446.792858
 20
-1211.099708
 30
0.0
 70
0
  0
VERTEX
  5
D6
  8
1
 10
-2447.491824
 20
-1226.418845
 30
0.0
 70
0
  0
VERTEX
  5
D7
  8
1
 10
-2448.191366
 20
-1241.737966
 30
0.0
 70
0
  0
VERTEX
  5
D8
  8
1
 10
-2448.900604
 20
-1257.262955
 30
0.0
 70
0
  0
VERTEX
  5
D9
  8
1
 10
-2461.656647
 20
-1258.197632
 30
0.0
 70
0
  0
VERTEX
  5
DA
  8
1
 10
-2462.286589
 20
-1258.243791
 30
0.0
 70
0
  0
VERTEX
  5
DB
  8
1
 10
-2477.378463
 20
-1259.288541
 30
0.0
 70
0
  0
VERTEX
  5
DC
  8
1
 10
-2492.701914
 20
-1260.274241
 30
0.0
 70
0
  0
VERTEX
  5
DD
  8
1
 10
-2507.750163
 20
-1261.141321
 30
0.0
 70
0
  0
VERTEX
  5
DE
  8
1
 10
-2523.022666
 20
-1261.893475
 30
0.0
 70
0
  0
VERTEX
  5
DF
  8
1
 10
-2538.084113
 20
-1262.490499
 30
0.0
 70
0
  0
VERTEX
  5
E0
  8
1
 10
-2553.584037
 20
-1262.950612
 30
0.0
 70
0
  0
VERTEX
  5
E1
  8
1
 10
-2568.654335
 20
-1263.249316
 30
0.0
 70
0
  0
VERTEX
  5
E2
  8
1
 10
-2584.128001
 20
-1263.412658
 30
0.0
 70
0
  0
VERTEX
  5
E3
  8
1
 10
-2599.201147
 20
-1263.442685
 30
0.0
 70
0
  0
VERTEX
  5
E4
  8
1
 10
-2614.595274
 20
-1263.352839
 30
0.0
 70
0
  0
VERTEX
  5
E5
  8
1
 10
-2629.667223
 20
-1263.157545
 30
0.0
 70
0
  0
VERTEX
  5
E6
  8
1
 10
-2645.121547
 20
-1262.858013
 30
0.0
 70
0
  0
VERTEX
  5
E7
  8
1
 10
-2660.189842
 20
-1262.475539
 30
0.0
 70
0
  0
VERTEX
  5
E8
  8
1
 10
-2675.434473
 20
-1261.987932
 30
0.0
 70
0
  0
VERTEX
  5
E9
  8
1
 10
-2690.49606
 20
-1261.395472
 30
0.0
 70
0
  0
VERTEX
  5
EA
  8
1
 10
-2705.88264
 20
-1260.673513
 30
0.0
 70
0
  0
VERTEX
  5
EB
  8
1
 10
-2720.93375
 20
-1259.859754
 30
0.0
 70
0
  0
VERTEX
  5
EC
  8
1
 10
-2736.021998
 20
-1258.972568
 30
0.0
 70
0
  0
VERTEX
  5
ED
  8
1
 10
-2751.067231
 20
-1258.055765
 30
0.0
 70
0
  0
VERTEX
  5
EE
  8
1
 10
-2766.142932
 20
-1257.132768
 30
0.0
 70
0
  0
VERTEX
  5
EF
  8
1
 10
-2781.188717
 20
-1256.226352
 30
0.0
 70
0
  0
VERTEX
  5
F0
  8
1
 10
-2796.494699
 20
-1255.314798
 30
0.0
 70
0
  0
VERTEX
  5
F1
  8
1
 10
-2811.541302
 20
-1254.421055
 30
0.0
 70
0
  0
VERTEX
  5
F2
  8
1
 10
-2826.59584
 20
-1253.530407
 30
0.0
 70
0
  0
VERTEX
  5
F3
  8
1
 10
-2841.642971
 20
-1252.646363
 30
0.0
 70
0
  0
VERTEX
  5
F4
  8
1
 10
-2857.131466
 20
-1251.742094
 30
0.0
 70
0
  0
VERTEX
  5
F5
  8
1
 10
-2872.179144
 20
-1250.867891
 30
0.0
 70
0
  0
VERTEX
  5
F6
  8
1
 10
-2887.391848
 20
-1249.988438
 30
0.0
 70
0
  0
VERTEX
  5
F7
  8
1
 10
-2902.440122
 20
-1249.122987
 30
0.0
 70
0
  0
VERTEX
  5
F8
  8
1
 10
-2917.897594
 20
-1248.238534
 30
0.0
 70
0
  0
VERTEX
  5
F9
  8
1
 10
-2932.946341
 20
-1247.381689
 30
0.0
 70
0
  0
VERTEX
  5
FA
  8
1
 10
-2948.154912
 20
-1246.51981
 30
0.0
 70
0
  0
VERTEX
  5
FB
  8
1
 10
-2963.204097
 20
-1245.671072
 30
0.0
 70
0
  0
VERTEX
  5
FC
  8
1
 10
-2978.288126
 20
-1244.825489
 30
0.0
 70
0
  0
VERTEX
  5
FD
  8
1
 10
-2993.736439
 20
-1243.965324
 30
0.0
 70
0
  0
SEQEND
  5
30
  8
1
  0
LINE
  5
FE
  8
7
 10
-3387.257385
 20
-1086.681671
 30
0.0
 11
-2519.147034
 21
-1086.681671
 31
0.0
  0
ENDSEC
  0
EOF
