  0
SECTION
  2
HEADER
  9
$ACADVER
  1
AC1009
  9
$DWGCODEPAGE
  3
ANSI_1252
  9
$INSBASE
 10
0.0
 20
0.0
 30
0.0
  9
$EXTMIN
 10
1e+20
 20
1e+20
 30
1e+20
  9
$EXTMAX
 10
-1e+20
 20
-1e+20
 30
-1e+20
  9
$LIMMIN
 10
0.0
 20
0.0
  9
$LIMMAX
 10
420.0
 20
297.0
  9
$ORTHOMODE
 70
0
  9
$REGENMODE
 70
1
  9
$FILLMODE
 70
1
  9
$DRAGMODE
 70
2
  9
$QTEXTMODE
 70
0
  9
$MIRRTEXT
 70
1
  9
$OSMODE
 70
20583
  9
$LTSCALE
 40
1.0
  9
$ATTMODE
 70
1
  9
$TEXTSIZE
 40
2.5
  9
$TRACEWID
 40
1.0
  9
$TEXTSTYLE
  7
Standard
  9
$CLAYER
  8
0
  9
$CELTYPE
  6
ByLayer
  9
$CECOLOR
 62
256
  9
$DIMSCALE
 40
1.0
  9
$DIMASZ
 40
2.5
  9
$DIMEXO
 40
0.625
  9
$DIMDLI
 40
3.75
  9
$DIMRND
 40
0.0
  9
$DIMDLE
 40
0.0
  9
$DIMEXE
 40
1.25
  9
$DIMTP
 40
0.0
  9
$DIMTM
 40
0.0
  9
$DIMTXT
 40
2.5
  9
$DIMCEN
 40
2.5
  9
$DIMTSZ
 40
0.0
  9
$DIMTOL
 70
0
  9
$DIMLIM
 70
0
  9
$DIMTIH
 70
0
  9
$DIMTOH
 70
0
  9
$DIMSE1
 70
0
  9
$DIMSE2
 70
0
  9
$DIMTAD
 70
1
  9
$DIMZIN
 70
8
  9
$DIMBLK
  1

  9
$DIMASO
 70
1
  9
$DIMSHO
 70
1
  9
$DIMPOST
  1

  9
$DIMAPOST
  1

  9
$DIMALT
 70
0
  9
$DIMALTD
 70
3
  9
$DIMALTF
 40
0.03937007874
  9
$DIMLFAC
 40
1.0
  9
$DIMTOFL
 70
1
  9
$DIMTVP
 40
0.0
  9
$DIMTIX
 70
0
  9
$DIMSOXD
 70
0
  9
$DIMSAH
 70
0
  9
$DIMBLK1
  1

  9
$DIMBLK2
  1

  9
$DIMSTYLE
  2
ISO-25
  9
$DIMCLRD
 70
0
  9
$DIMCLRE
 70
0
  9
$DIMCLRT
 70
0
  9
$DIMTFAC
 40
1.0
  9
$DIMGAP
 40
0.625
  9
$COORDS
 70
1
  9
$ATTDIA
 70
0
  9
$ATTREQ
 70
1
  9
$HANDLING
 70
1
  9
$LUNITS
 70
2
  9
$LUPREC
 70
4
  9
$SKETCHINC
 40
1.0
  9
$FILLETRAD
 40
10.0
  9
$AUNITS
 70
0
  9
$AUPREC
 70
2
  9
$MENU
  1
.
  9
$ELEVATION
 40
0.0
  9
$PELEVATION
 40
0.0
  9
$THICKNESS
 40
0.0
  9
$LIMCHECK
 70
0
  9
$CHAMFERA
 40
0.0
  9
$CHAMFERB
 40
0.0
  9
$SKPOLY
 70
0
  9
$TDCREATE
 40
2461264.9423032408
  9
$TDUPDATE
 40
2461264.9423032408
  9
$TDINDWG
 40
0.0
  9
$TDUSRTIMER
 40
0.0
  9
$USRTIMER
 70
1
  9
$ANGBASE
 50
0.0
  9
$ANGDIR
 70
0
  9
$PDMODE
 70
0
  9
$PDSIZE
 40
0.0
  9
$PLINEWID
 40
0.0
  9
$SPLFRAME
 70
0
  9
$SPLINETYPE
 70
6
  9
$SPLINESEGS
 70
8
  9
$HANDSEED
  5
214
  9
$SURFTAB1
 70
6
  9
$SURFTAB2
 70
6
  9
$SURFTYPE
 70
6
  9
$SURFU
 70
6
  9
$SURFV
 70
6
  9
$UCSNAME
  2

  9
$UCSORG
 10
0.0
 20
0.0
 30
0.0
  9
$UCSXDIR
 10
1.0
 20
0.0
 30
0.0
  9
$UCSYDIR
 10
0.0
 20
1.0
 30
0.0
  9
$PUCSNAME
  2

  9
$PUCSORG
 10
0.0
 20
0.0
 30
0.0
  9
$PUCSXDIR
 10
1.0
 20
0.0
 30
0.0
  9
$PUCSYDIR
 10
0.0
 20
1.0
 30
0.0
  9
$USERI1
 70
0
  9
$USERI2
 70
0
  9
$USERI3
 70
0
  9
$USERI4
 70
0
  9
$USERI5
 70
0
  9
$USERR1
 40
0.0
  9
$USERR2
 40
0.0
  9
$USERR3
 40
0.0
  9
$USERR4
 40
0.0
  9
$USERR5
 40
0.0
  9
$WORLDVIEW
 70
1
  9
$SHADEDGE
 70
3
  9
$SHADEDIF
 70
70
  9
$TILEMODE
 70
1
  9
$MAXACTVP
 70
64
  9
$PLIMCHECK
 70
0
  9
$PEXTMIN
 10
1e+20
 20
1e+20
 30
1e+20
  9
$PEXTMAX
 10
-1e+20
 20
-1e+20
 30
-1e+20
  9
$PLIMMIN
 10
0.0
 20
0.0
  9
$PLIMMAX
 10
420.0
 20
297.0
  9
$UNITMODE
 70
0
  9
$VISRETAIN
 70
1
  9
$PLINEGEN
 70
0
  9
$PSLTSCALE
 70
1
  0
ENDSEC
  0
SECTION
  2
TABLES
  0
TABLE
  2
VPORT
 70
1
  0
VPORT
  5
23
  2
*Active
 70
0
 10
0.0
 20
0.0
 11
1.0
 21
1.0
 12
0.0
 22
0.0
 13
0.0
 23
0.0
 14
0.5
 24
0.5
 15
0.5
 25
0.5
 16
0.0
 26
0.0
 36
1.0
 17
0.0
 27
0.0
 37
0.0
 40
1000.0
 41
1.34
 42
50.0
 43
0.0
 44
0.0
 50
0.0
 51
0.0
 71
0
 72
1000
 73
1
 74
3
 75
0
 76
0
 77
0
 78
0
  0
ENDTAB
  0
TABLE
  2
LTYPE
 70
3
  0
LTYPE
  5
24
  2
ByBlock
 70
0
  3

 72
65
 73
0
 40
0.0
  0
LTYPE
  5
25
  2
ByLayer
 70
0
  3

 72
65
 73
0
 40
0.0
  0
LTYPE
  5
26
  2
Continuous
 70
0
  3

 72
65
 73
0
 40
0.0
  0
ENDTAB
  0
TABLE
  2
LAYER
 70
7
  0
LAYER
  5
27
  2
0
 70
0
 62
7
  6
Continuous
  0
LAYER
  5
28
  2
Defpoints
 70
0
 62
7
  6
Continuous
  0
LAYER
  5
2D
  2
1
 70
0
 62
1
  6
Continuous
  0
LAYER
  5
2E
  2
7
 70
0
 62
7
  6
Continuous
  0
LAYER
  5
2F
  2
14
 70
0
 62
3
  6
Continuous
  0
LAYER
  5
30
  2
8
 70
0
 62
6
  6
Continuous
  0
LAYER
  5
31
  2
4
 70
0
 62
2
  6
Continuous
  0
ENDTAB
  0
TABLE
  2
STYLE
 70
1
  0
STYLE
  5
29
  2
Standard
 70
0
 40
0.0
 41
1.0
 50
0.0
 71
0
 42
2.5
  3
txt
  4

  0
ENDTAB
  0
TABLE
  2
VIEW
 70
0
  0
ENDTAB
  0
TABLE
  2
UCS
 70
0
  0
ENDTAB
  0
TABLE
  2
APPID
 70
3
  0
APPID
  5
2A
  2
ACAD
 70
0
  0
APPID
  5
212
  2
HATCHBACKGROUNDCOLOR
 70
0
  0
APPID
  5
213
  2
EZDXF
 70
0
  0
ENDTAB
  0
TABLE
  2
DIMSTYLE
 70
1
  0
DIMSTYLE
105
2B
  2
Standard
 70
0
  3

  4

  5

  6

  7

 40
1.0
 41
2.5
 42
0.625
 43
3.75
 44
1.25
 45
0.0
 46
0.0
 47
0.0
 48
0.0
140
2.5
141
2.5
142
0.0
143
0.03937007874
144
1.0
145
0.0
146
1.0
147
0.625
 71
0
 72
0
 73
0
 74
0
 75
0
 76
0
 77
1
 78
8
170
0
171
3
172
1
173
0
174
0
175
0
176
0
177
0
178
0
  0
ENDTAB
  0
ENDSEC
  0
SECTION
  2
BLOCKS
  0
BLOCK
  5
18
  8
0
  2
$Model_Space
 70
0
 10
0.0
 20
0.0
 30
0.0
  3
$Model_Space
  1

1001
EZDXF
1000
CREATED_BY_EZDXF
1000
1.4.4 @ 2026-08-11T14:36:55.037682+00:00
1000
WRITTEN_BY_EZDXF
1000
1.4.4 @ 2026-08-11T14:36:55.042682+00:00
  0
ENDBLK
  5
19
  8
0
  0
BLOCK
  5
1C
  8
0
  2
$Paper_Space
 70
0
 10
0.0
 20
0.0
 30
0.0
  3
$Paper_Space
  1

  0
ENDBLK
  5
1D
  8
0
  0
ENDSEC
  0
SECTION
  2
ENTITIES
  0
POLYLINE
  5
32
  8
1
 66
1
 10
0.0
 20
0.0
 30
0.0
 70
1
  0
VERTEX
  5
34
  8
1
 10
-3009.311829
 20
-1230.401001
 30
0.0
 70
0
  0
VERTEX
  5
35
  8
1
 10
-3009.226685
 20
-1230.403595
 30
0.0
 70
0
  0
VERTEX
  5
36
  8
1
 10
-3019.46264
 20
-1230.087665
 30
0.0
 70
0
  0
VERTEX
  5
37
  8
1
 10
-3034.39253
 20
-1229.618535
 30
0.0
 70
0
  0
VERTEX
  5
38
  8
1
 10
-3049.702335
 20
-1229.126509
 30
0.0
 70
0
  0
VERTEX
  5
39
  8
1
 10
-3065.142399
 20
-1228.61561
 30
0.0
 70
0
  0
VERTEX
  5
3A
  8
1
 10
-3080.425079
 20
-1228.096191
 30
0.0
 70
0
  0
VERTEX
  5
3B
  8
1
 10
-3095.822978
 20
-1227.561881
 30
0.0
 70
0
  0
VERTEX
  5
3C
  8
1
 10
-3111.104831
 20
-1227.0208
 30
0.0
 70
0
  0
VERTEX
  5
3D
  8
1
 10
-3126.506903
 20
-1226.463729
 30
0.0
 70
0
  0
VERTEX
  5
3E
  8
1
 10
-3141.787877
 20
-1225.899025
 30
0.0
 70
0
  0
VERTEX
  5
3F
  8
1
 10
-3156.79887
 20
-1225.332418
 30
0.0
 70
0
  0
VERTEX
  5
40
  8
1
 10
-3172.079001
 20
-1224.743072
 30
0.0
 70
0
  0
VERTEX
  5
41
  8
1
 10
-3187.508085
 20
-1224.134487
 30
0.0
 70
0
  0
VERTEX
  5
42
  8
1
 10
-3202.787187
 20
-1223.517741
 30
0.0
 70
0
  0
VERTEX
  5
43
  8
1
 10
-3217.881736
 20
-1222.893905
 30
0.0
 70
0
  0
VERTEX
  5
44
  8
1
 10
-3233.159553
 20
-1222.246674
 30
0.0
 70
0
  0
VERTEX
  5
45
  8
1
 10
-3248.248011
 20
-1221.590714
 30
0.0
 70
0
  0
VERTEX
  5
46
  8
1
 10
-3263.524234
 20
-1220.908836
 30
0.0
 70
0
  0
VERTEX
  5
47
  8
1
 10
-3278.957945
 20
-1220.201419
 30
0.0
 70
0
  0
VERTEX
  5
48
  8
1
 10
-3294.232597
 20
-1219.484349
 30
0.0
 70
0
  0
VERTEX
  5
49
  8
1
 10
-3309.630662
 20
-1218.746233
 30
0.0
 70
0
  0
VERTEX
  5
4A
  8
1
 10
-3324.903943
 20
-1217.999919
 30
0.0
 70
0
  0
VERTEX
  5
4B
  8
1
 10
-3340.186976
 20
-1217.239741
 30
0.0
 70
0
  0
VERTEX
  5
4C
  8
1
 10
-3355.458992
 20
-1216.467738
 30
0.0
 70
0
  0
VERTEX
  5
4D
  8
1
 10
-3370.844855
 20
-1215.678401
 30
0.0
 70
0
  0
VERTEX
  5
4E
  8
1
 10
-3386.642195
 20
-1214.855972
 30
0.0
 70
0
  0
VERTEX
  5
4F
  8
1
 10
-3401.516502
 20
-1214.070075
 30
0.0
 70
0
  0
VERTEX
  5
50
  8
1
 10
-3416.786021
 20
-1213.250026
 30
0.0
 70
0
  0
VERTEX
  5
51
  8
1
 10
-3431.863735
 20
-1212.426735
 30
0.0
 70
0
  0
VERTEX
  5
52
  8
1
 10
-3446.302185
 20
-1211.631165
 30
0.0
 70
0
  0
VERTEX
  5
53
  8
1
 10
-3447.171249
 20
-1211.583285
 30
0.0
 70
0
  0
VERTEX
  5
54
  8
1
 10
-3462.350577
 20
-1210.745765
 30
0.0
 70
0
  0
VERTEX
  5
55
  8
1
 10
-3478.045654
 20
-1209.879913
 30
0.0
 70
0
  0
VERTEX
  5
56
  8
1
 10
-3477.987383
 20
-1194.413927
 30
0.0
 70
0
  0
VERTEX
  5
57
  8
1
 10
-3477.92951
 20
-1179.081333
 30
0.0
 70
0
  0
VERTEX
  5
58
  8
1
 10
-3477.872553
 20
-1164.007021
 30
0.0
 70
0
  0
VERTEX
  5
59
  8
1
 10
-3477.814613
 20
-1148.674415
 30
0.0
 70
0
  0
VERTEX
  5
5A
  8
1
 10
-3477.756705
 20
-1133.341801
 30
0.0
 70
0
  0
VERTEX
  5
5B
  8
1
 10
-3477.699936
 20
-1118.29496
 30
0.0
 70
0
  0
VERTEX
  5
5C
  8
1
 10
-3477.64213
 20
-1102.96233
 30
0.0
 70
0
  0
VERTEX
  5
5D
  8
1
 10
-3477.585346
 20
-1087.897261
 30
0.0
 70
0
  0
VERTEX
  5
5E
  8
1
 10
-3477.527567
 20
-1072.564633
 30
0.0
 70
0
  0
VERTEX
  5
5F
  8
1
 10
-3477.469769
 20
-1057.22005
 30
0.0
 70
0
  0
VERTEX
  5
60
  8
1
 10
-3477.412052
 20
-1041.887433
 30
0.0
 70
0
  0
VERTEX
  5
61
  8
1
 10
-3477.355232
 20
-1026.781116
 30
0.0
 70
0
  0
VERTEX
  5
62
  8
1
 10
-3477.297592
 20
-1011.448514
 30
0.0
 70
0
  0
VERTEX
  5
63
  8
1
 10
-3477.240002
 20
-996.130664
 30
0.0
 70
0
  0
VERTEX
  5
64
  8
1
 10
-3477.182317
 20
-980.798025
 30
0.0
 70
0
  0
VERTEX
  5
65
  8
1
 10
-3477.13623
 20
-968.559494
 30
0.0
 70
0
  0
VERTEX
  5
66
  8
1
 10
-3461.575787
 20
-967.743905
 30
0.0
 70
0
  0
VERTEX
  5
67
  8
1
 10
-3446.482899
 20
-966.952831
 30
0.0
 70
0
  0
VERTEX
  5
68
  8
1
 10
-3445.379944
 20
-966.895065
 30
0.0
 70
0
  0
VERTEX
  5
69
  8
1
 10
-3431.453636
 20
-966.165102
 30
0.0
 70
0
  0
VERTEX
  5
6A
  8
1
 10
-3416.244382
 20
-965.367947
 30
0.0
 70
0
  0
VERTEX
  5
6B
  8
1
 10
-3401.169729
 20
-964.577849
 30
0.0
 70
0
  0
VERTEX
  5
6C
  8
1
 10
-3385.960448
 20
-963.780692
 30
0.0
 70
0
  0
VERTEX
  5
6D
  8
1
 10
-3370.763887
 20
-962.984195
 30
0.0
 70
0
  0
VERTEX
  5
6E
  8
1
 10
-3355.55459
 20
-962.187023
 30
0.0
 70
0
  0
VERTEX
  5
6F
  8
1
 10
-3340.249539
 20
-961.384826
 30
0.0
 70
0
  0
VERTEX
  5
70
  8
1
 10
-3325.040208
 20
-960.587653
 30
0.0
 70
0
  0
VERTEX
  5
71
  8
1
 10
-3309.779753
 20
-959.787815
 30
0.0
 70
0
  0
VERTEX
  5
72
  8
1
 10
-3294.570433
 20
-958.99066
 30
0.0
 70
0
  0
VERTEX
  5
73
  8
1
 10
-3279.541839
 20
-958.202967
 30
0.0
 70
0
  0
VERTEX
  5
74
  8
1
 10
-3264.332549
 20
-957.405798
 30
0.0
 70
0
  0
VERTEX
  5
75
  8
1
 10
-3248.839004
 20
-956.593736
 30
0.0
 70
0
  0
VERTEX
  5
76
  8
1
 10
-3233.695802
 20
-955.800036
 30
0.0
 70
0
  0
VERTEX
  5
77
  8
1
 10
-3218.486598
 20
-955.002872
 30
0.0
 70
0
  0
VERTEX
  5
78
  8
1
 10
-3203.285317
 20
-954.206122
 30
0.0
 70
0
  0
VERTEX
  5
79
  8
1
 10
-3188.075993
 20
-953.408952
 30
0.0
 70
0
  0
VERTEX
  5
7A
  8
1
 10
-3173.047334
 20
-952.621252
 30
0.0
 70
0
  0
VERTEX
  5
7B
  8
1
 10
-3157.837966
 20
-951.824076
 30
0.0
 70
0
  0
VERTEX
  5
7C
  8
1
 10
-3142.694667
 20
-951.030361
 30
0.0
 70
0
  0
VERTEX
  5
7D
  8
1
 10
-3127.485316
 20
-950.233186
 30
0.0
 70
0
  0
VERTEX
  5
7E
  8
1
 10
-3112.516165
 20
-949.448609
 30
0.0
 70
0
  0
VERTEX
  5
7F
  8
1
 10
-3096.7824
 20
-948.62397
 30
0.0
 70
0
  0
VERTEX
  5
80
  8
1
 10
-3082.046471
 20
-947.851633
 30
0.0
 70
0
  0
VERTEX
  5
81
  8
1
 10
-3066.312747
 20
-947.026991
 30
0.0
 70
0
  0
VERTEX
  5
82
  8
1
 10
-3051.401687
 20
-946.24546
 30
0.0
 70
0
  0
VERTEX
  5
83
  8
1
 10
-3036.003066
 20
-945.438369
 30
0.0
 70
0
  0
VERTEX
  5
84
  8
1
 10
-3021.089775
 20
-944.656712
 30
0.0
 70
0
  0
VERTEX
  5
85
  8
1
 10
-3009.49646
 20
-944.049072
 30
0.0
 70
0
  0
VERTEX
  5
86
  8
1
 10
-3009.904175
 20
-944.071808
 30
0.0
 70
0
  0
VERTEX
  5
87
  8
1
 10
-2994.364497
 20
-942.248276
 30
0.0
 70
0
  0
VERTEX
  5
88
  8
1
 10
-2979.366768
 20
-940.390748
 30
0.0
 70
0
  0
VERTEX
  5
89
  8
1
 10
-2964.082877
 20
-938.363594
 30
0.0
 70
0
  0
VERTEX
  5
8A
  8
1
 10
-2949.462491
 20
-936.295356
 30
0.0
 70
0
  0
VERTEX
  5
8B
  8
1
 10
-2933.90045
 20
-933.960307
 30
0.0
 70
0
  0
VERTEX
  5
8C
  8
1
 10
-2919.291325
 20
-931.621764
 30
0.0
 70
0
  0
VERTEX
  5
8D
  8
1
 10
-2903.782514
 20
-928.956048
 30
0.0
 70
0
  0
VERTEX
  5
8E
  8
1
 10
-2888.656645
 20
-926.153715
 30
0.0
 70
0
  0
VERTEX
  5
8F
  8
1
 10
-2873.706642
 20
-923.17135
 30
0.0
 70
0
  0
VERTEX
  5
90
  8
1
 10
-2858.94311
 20
-920.012457
 30
0.0
 70
0
  0
VERTEX
  5
91
  8
1
 10
-2844.082419
 20
-916.612021
 30
0.0
 70
0
  0
VERTEX
  5
92
  8
1
 10
-2829.367135
 20
-913.014473
 30
0.0
 70
0
  0
VERTEX
  5
93
  8
1
 10
-2814.61536
 20
-909.169133
 30
0.0
 70
0
  0
VERTEX
  5
94
  8
1
 10
-2799.935315
 20
-905.112787
 30
0.0
 70
0
  0
VERTEX
  5
95
  8
1
 10
-2785.297134
 20
-900.85662
 30
0.0
 70
0
  0
VERTEX
  5
96
  8
1
 10
-2770.74539
 20
-896.45154
 30
0.0
 70
0
  0
VERTEX
  5
97
  8
1
 10
-2756.196155
 20
-891.899953
 30
0.0
 70
0
  0
VERTEX
  5
98
  8
1
 10
-2741.794263
 20
-887.231473
 30
0.0
 70
0
  0
VERTEX
  5
99
  8
1
 10
-2727.345394
 20
-882.371778
 30
0.0
 70
0
  0
VERTEX
  5
9A
  8
1
 10
-2718.69751
 20
-879.37912
 30
0.0
 70
0
  0
VERTEX
  5
9B
  8
1
 10
-2712.956698
 20
-877.392386
 30
0.0
 70
0
  0
VERTEX
  5
9C
  8
1
 10
-2698.927446
 20
-872.450689
 30
0.0
 70
0
  0
VERTEX
  5
9D
  8
1
 10
-2697.154541
 20
-871.821671
 30
0.0
 70
0
  0
VERTEX
  5
9E
  8
1
 10
-2690.020142
 20
-875.925751
 30
0.0
 70
0
  0
VERTEX
  5
9F
  8
1
 10
-2688.938911
 20
-883.064311
 30
0.0
 70
0
  0
VERTEX
  5
A0
  8
1
 10
-2687.684226
 20
-889.673573
 30
0.0
 70
0
  0
VERTEX
  5
A1
  8
1
 10
-2686.372046
 20
-895.365195
 30
0.0
 70
0
  0
VERTEX
  5
A2
  8
1
 10
-2684.923484
 20
-900.569737
 30
0.0
 70
0
  0
VERTEX
  5
A3
  8
1
 10
-2683.197806
 20
-905.842142
 30
0.0
 70
0
  0
VERTEX
  5
A4
  8
1
 10
-2681.321483
 20
-910.818174
 30
0.0
 70
0
  0
VERTEX
  5
A5
  8
1
 10
-2679.331223
 20
-915.404734
 30
0.0
 70
0
  0
VERTEX
  5
A6
  8
1
 10
-2677.223181
 20
-919.65361
 30
0.0
 70
0
  0
VERTEX
  5
A7
  8
1
 10
-2674.978519
 20
-923.628882
 30
0.0
 70
0
  0
VERTEX
  5
A8
  8
1
 10
-2672.687836
 20
-927.196232
 30
0.0
 70
0
  0
VERTEX
  5
A9
  8
1
 10
-2670.344437
 20
-930.40869
 30
0.0
 70
0
  0
VERTEX
  5
AA
  8
1
 10
-2667.885241
 20
-933.366154
 30
0.0
 70
0
  0
VERTEX
  5
AB
  8
1
 10
-2665.355082
 20
-936.020179
 30
0.0
 70
0
  0
VERTEX
  5
AC
  8
1
 10
-2662.793011
 20
-938.349914
 30
0.0
 70
0
  0
VERTEX
  5
AD
  8
1
 10
-2659.945575
 20
-940.599397
 30
0.0
 70
0
  0
VERTEX
  5
AE
  8
1
 10
-2656.599024
 20
-942.906031
 30
0.0
 70
0
  0
VERTEX
  5
AF
  8
1
 10
-2652.99567
 20
-945.085335
 30
0.0
 70
0
  0
VERTEX
  5
B0
  8
1
 10
-2648.784253
 20
-947.329994
 30
0.0
 70
0
  0
VERTEX
  5
B1
  8
1
 10
-2644.129234
 20
-949.516332
 30
0.0
 70
0
  0
VERTEX
  5
B2
  8
1
 10
-2638.888095
 20
-951.69323
 30
0.0
 70
0
  0
VERTEX
  5
B3
  8
1
 10
-2632.955847
 20
-953.879588
 30
0.0
 70
0
  0
VERTEX
  5
B4
  8
1
 10
-2625.971343
 20
-956.174155
 30
0.0
 70
0
  0
VERTEX
  5
B5
  8
1
 10
-2618.46872
 20
-958.369666
 30
0.0
 70
0
  0
VERTEX
  5
B6
  8
1
 10
-2608.861463
 20
-960.88631
 30
0.0
 70
0
  0
VERTEX
  5
B7
  8
1
 10
-2605.582275
 20
-961.691589
 30
0.0
 70
0
  0
VERTEX
  5
B8
  8
1
 10
-2590.302121
 20
-965.659611
 30
0.0
 70
0
  0
VERTEX
  5
B9
  8
1
 10
-2575.154372
 20
-969.59562
 30
0.0
 70
0
  0
VERTEX
  5
BA
  8
1
 10
-2560.360424
 20
-973.442865
 30
0.0
 70
0
  0
VERTEX
  5
BB
  8
1
 10
-2545.208427
 20
-977.387123
 30
0.0
 70
0
  0
VERTEX
  5
BC
  8
1
 10
-2530.054009
 20
-981.33629
 30
0.0
 70
0
  0
VERTEX
  5
BD
  8
1
 10
-2514.90405
 20
-985.288512
 30
0.0
 70
0
  0
VERTEX
  5
BE
  8
1
 10
-2500.202249
 20
-989.127573
 30
0.0
 70
0
  0
VERTEX
  5
BF
  8
1
 10
-2485.461687
 20
-992.979689
 30
0.0
 70
0
  0
VERTEX
  5
C0
  8
1
 10
-2474.202728
 20
-995.923767
 30
0.0
 70
0
  0
VERTEX
  5
C1
  8
1
 10
-2470.872436
 20
-996.794594
 30
0.0
 70
0
  0
VERTEX
  5
C2
  8
1
 10
-2461.647034
 20
-999.208145
 30
0.0
 70
0
  0
VERTEX
  5
C3
  8
1
 10
-2462.422646
 20
-1015.044467
 30
0.0
 70
0
  0
VERTEX
  5
C4
  8
1
 10
-2462.446899
 20
-1015.539017
 30
0.0
 70
0
  0
VERTEX
  5
C5
  8
1
 10
-2463.175792
 20
-1030.403397
 30
0.0
 70
0
  0
VERTEX
  5
C6
  8
1
 10
-2463.927035
 20
-1045.629909
 30
0.0
 70
0
  0
VERTEX
  5
C7
  8
1
 10
-2464.692517
 20
-1060.98822
 30
0.0
 70
0
  0
VERTEX
  5
C8
  8
1
 10
-2465.464994
 20
-1076.346186
 30
0.0
 70
0
  0
VERTEX
  5
C9
  8
1
 10
-2466.228513
 20
-1091.416261
 30
0.0
 70
0
  0
VERTEX
  5
CA
  8
1
 10
-2467.012416
 20
-1106.773657
 30
0.0
 70
0
  0
VERTEX
  5
CB
  8
1
 10
-2467.797521
 20
-1122.028056
 30
0.0
 70
0
  0
VERTEX
  5
CC
  8
1
 10
-2468.594828
 20
-1137.384771
 30
0.0
 70
0
  0
VERTEX
  5
CD
  8
1
 10
-2469.395605
 20
-1152.66825
 30
0.0
 70
0
  0
VERTEX
  5
CE
  8
1
 10
-2470.208181
 20
-1168.024162
 30
0.0
 70
0
  0
VERTEX
  5
CF
  8
1
 10
-2471.025911
 20
-1183.309922
 30
0.0
 70
0
  0
VERTEX
  5
D0
  8
1
 10
-2471.273193
 20
-1187.898483
 30
0.0
 70
0
  0
VERTEX
  5
D1
  8
1
 10
-2471.856432
 20
-1198.664861
 30
0.0
 70
0
  0
VERTEX
  5
D2
  8
1
 10
-2472.691164
 20
-1213.941368
 30
0.0
 70
0
  0
VERTEX
  5
D3
  8
1
 10
-2473.53415
 20
-1229.274558
 30
0.0
 70
0
  0
VERTEX
  5
D4
  8
1
 10
-2474.098816
 20
-1239.542999
 30
0.0
 70
0
  0
VERTEX
  5
D5
  8
1
 10
-2479.531149
 20
-1239.945499
 30
0.0
 70
0
  0
VERTEX
  5
D6
  8
1
 10
-2486.871338
 20
-1240.480957
 30
0.0
 70
0
  0
VERTEX
  5
D7
  8
1
 10
-2494.720907
 20
-1241.053543
 30
0.0
 70
0
  0
VERTEX
  5
D8
  8
1
 10
-2509.724656
 20
-1242.097579
 30
0.0
 70
0
  0
VERTEX
  5
D9
  8
1
 10
-2524.809775
 20
-1243.05396
 30
0.0
 70
0
  0
VERTEX
  5
DA
  8
1
 10
-2539.827035
 20
-1243.881671
 30
0.0
 70
0
  0
VERTEX
  5
DB
  8
1
 10
-2554.902727
 20
-1244.574471
 30
0.0
 70
0
  0
VERTEX
  5
DC
  8
1
 10
-2569.933005
 20
-1245.118706
 30
0.0
 70
0
  0
VERTEX
  5
DD
  8
1
 10
-2585.225542
 20
-1245.518635
 30
0.0
 70
0
  0
VERTEX
  5
DE
  8
1
 10
-2600.263671
 20
-1245.762144
 30
0.0
 70
0
  0
VERTEX
  5
DF
  8
1
 10
-2615.554173
 20
-1245.867775
 30
0.0
 70
0
  0
VERTEX
  5
E0
  8
1
 10
-2630.594287
 20
-1245.841591
 30
0.0
 70
0
  0
VERTEX
  5
E1
  8
1
 10
-2645.69489
 20
-1245.69246
 30
0.0
 70
0
  0
VERTEX
  5
E2
  8
1
 10
-2660.732586
 20
-1245.429406
 30
0.0
 70
0
  0
VERTEX
  5
E3
  8
1
 10
-2675.910788
 20
-1245.058394
 30
0.0
 70
0
  0
VERTEX
  5
E4
  8
1
 10
-2690.943747
 20
-1244.597494
 30
0.0
 70
0
  0
VERTEX
  5
E5
  8
1
 10
-2706.40318
 20
-1244.039139
 30
0.0
 70
0
  0
VERTEX
  5
E6
  8
1
 10
-2721.430755
 20
-1243.428841
 30
0.0
 70
0
  0
VERTEX
  5
E7
  8
1
 10
-2736.546233
 20
-1242.767202
 30
0.0
 70
0
  0
VERTEX
  5
E8
  8
1
 10
-2751.570435
 20
-1242.08116
 30
0.0
 70
0
  0
VERTEX
  5
E9
  8
1
 10
-2766.633089
 20
-1241.3822
 30
0.0
 70
0
  0
VERTEX
  5
EA
  8
1
 10
-2781.656921
 20
-1240.686679
 30
0.0
 70
0
  0
VERTEX
  5
EB
  8
1
 10
-2796.744949
 20
-1239.991393
 30
0.0
 70
0
  0
VERTEX
  5
EC
  8
1
 10
-2811.769016
 20
-1239.301839
 30
0.0
 70
0
  0
VERTEX
  5
ED
  8
1
 10
-2826.830313
 20
-1238.612746
 30
0.0
 70
0
  0
VERTEX
  5
EE
  8
1
 10
-2841.854591
 20
-1237.927032
 30
0.0
 70
0
  0
VERTEX
  5
EF
  8
1
 10
-2857.197087
 20
-1237.228624
 30
0.0
 70
0
  0
VERTEX
  5
F0
  8
1
 10
-2872.221583
 20
-1236.546618
 30
0.0
 70
0
  0
VERTEX
  5
F1
  8
1
 10
-2887.558234
 20
-1235.852272
 30
0.0
 70
0
  0
VERTEX
  5
F2
  8
1
 10
-2902.582858
 20
-1235.173695
 30
0.0
 70
0
  0
VERTEX
  5
F3
  8
1
 10
-2917.616414
 20
-1234.496334
 30
0.0
 70
0
  0
VERTEX
  5
F4
  8
1
 10
-2932.641176
 20
-1233.820984
 30
0.0
 70
0
  0
VERTEX
  5
F5
  8
1
 10
-2947.799766
 20
-1233.141168
 30
0.0
 70
0
  0
VERTEX
  5
F6
  8
1
 10
-2962.824707
 20
-1232.468874
 30
0.0
 70
0
  0
VERTEX
  5
F7
  8
1
 10
-2978.334403
 20
-1231.776881
 30
0.0
 70
0
  0
VERTEX
  5
F8
  8
1
 10
-2993.640882
 20
-1231.096149
 30
0.0
 70
0
  0
SEQEND
  5
33
  8
1
  0
POLYLINE
  5
F9
  8
14
 66
1
 10
0.0
 20
0.0
 30
0.0
 70
1
  0
VERTEX
  5
FB
  8
14
 10
-3008.834839
 20
-1217.709656
 30
0.0
 70
0
  0
VERTEX
  5
FC
  8
14
 10
-3008.834839
 20
-1217.709656
 30
0.0
 70
0
  0
VERTEX
  5
FD
  8
14
 10
-3017.636958
 20
-1217.442238
 30
0.0
 70
0
  0
VERTEX
  5
FE
  8
14
 10
-3033.233446
 20
-1216.952575
 30
0.0
 70
0
  0
VERTEX
  5
FF
  8
14
 10
-3049.333834
 20
-1216.431846
 30
0.0
 70
0
  0
VERTEX
  5
100
  8
14
 10
-3065.293258
 20
-1215.902295
 30
0.0
 70
0
  0
VERTEX
  5
101
  8
14
 10
-3083.303249
 20
-1215.289568
 30
0.0
 70
0
  0
VERTEX
  5
102
  8
14
 10
-3099.023461
 20
-1214.741854
 30
0.0
 70
0
  0
VERTEX
  5
103
  8
14
 10
-3115.774474
 20
-1214.144947
 30
0.0
 70
0
  0
VERTEX
  5
104
  8
14
 10
-3133.431219
 20
-1213.500639
 30
0.0
 70
0
  0
VERTEX
  5
105
  8
14
 10
-3151.868498
 20
-1212.810729
 30
0.0
 70
0
  0
VERTEX
  5
106
  8
14
 10
-3170.961247
 20
-1212.077009
 30
0.0
 70
0
  0
VERTEX
  5
107
  8
14
 10
-3190.584263
 20
-1211.301277
 30
0.0
 70
0
  0
VERTEX
  5
108
  8
14
 10
-3205.574298
 20
-1210.692986
 30
0.0
 70
0
  0
VERTEX
  5
109
  8
14
 10
-3220.739415
 20
-1210.06283
 30
0.0
 70
0
  0
VERTEX
  5
10A
  8
14
 10
-3236.026859
 20
-1209.411567
 30
0.0
 70
0
  0
VERTEX
  5
10B
  8
14
 10
-3256.509184
 20
-1208.511689
 30
0.0
 70
0
  0
VERTEX
  5
10C
  8
14
 10
-3269.532509
 20
-1207.92222
 30
0.0
 70
0
  0
VERTEX
  5
10D
  8
14
 10
-3284.823078
 20
-1207.213926
 30
0.0
 70
0
  0
VERTEX
  5
10E
  8
14
 10
-3304.93608
 20
-1206.258047
 30
0.0
 70
0
  0
VERTEX
  5
10F
  8
14
 10
-3324.540757
 20
-1205.302299
 30
0.0
 70
0
  0
VERTEX
  5
110
  8
14
 10
-3343.42464
 20
-1204.361151
 30
0.0
 70
0
  0
VERTEX
  5
111
  8
14
 10
-3361.375277
 20
-1203.449072
 30
0.0
 70
0
  0
VERTEX
  5
112
  8
14
 10
-3378.180218
 20
-1202.580529
 30
0.0
 70
0
  0
VERTEX
  5
113
  8
14
 10
-3393.627012
 20
-1201.769992
 30
0.0
 70
0
  0
VERTEX
  5
114
  8
14
 10
-3410.701952
 20
-1200.86043
 30
0.0
 70
0
  0
VERTEX
  5
115
  8
14
 10
-3427.368288
 20
-1199.958218
 30
0.0
 70
0
  0
VERTEX
  5
116
  8
14
 10
-3446.253967
 20
-1198.914566
 30
0.0
 70
0
  0
VERTEX
  5
117
  8
14
 10
-3446.253967
 20
-1198.914566
 30
0.0
 70
0
  0
VERTEX
  5
118
  8
14
 10
-3446.186571
 20
-1181.064599
 30
0.0
 70
0
  0
VERTEX
  5
119
  8
14
 10
-3446.127599
 20
-1165.441022
 30
0.0
 70
0
  0
VERTEX
  5
11A
  8
14
 10
-3446.064441
 20
-1148.704144
 30
0.0
 70
0
  0
VERTEX
  5
11B
  8
14
 10
-3446.003058
 20
-1132.433047
 30
0.0
 70
0
  0
VERTEX
  5
11C
  8
14
 10
-3445.93782
 20
-1115.134681
 30
0.0
 70
0
  0
VERTEX
  5
11D
  8
14
 10
-3445.880177
 20
-1099.8449
 30
0.0
 70
0
  0
VERTEX
  5
11E
  8
14
 10
-3445.818694
 20
-1083.53042
 30
0.0
 70
0
  0
VERTEX
  5
11F
  8
14
 10
-3445.761287
 20
-1068.291453
 30
0.0
 70
0
  0
VERTEX
  5
120
  8
14
 10
-3445.696383
 20
-1051.056701
 30
0.0
 70
0
  0
VERTEX
  5
121
  8
14
 10
-3445.635129
 20
-1034.785903
 30
0.0
 70
0
  0
VERTEX
  5
122
  8
14
 10
-3445.579012
 20
-1019.875955
 30
0.0
 70
0
  0
VERTEX
  5
123
  8
14
 10
-3445.52308
 20
-1005.011518
 30
0.0
 70
0
  0
VERTEX
  5
124
  8
14
 10
-3445.464389
 20
-989.409955
 30
0.0
 70
0
  0
VERTEX
  5
125
  8
14
 10
-3445.427551
 20
-979.614944
 30
0.0
 70
0
  0
VERTEX
  5
126
  8
14
 10
-3445.427551
 20
-979.614944
 30
0.0
 70
0
  0
VERTEX
  5
127
  8
14
 10
-3421.954266
 20
-978.384639
 30
0.0
 70
0
  0
VERTEX
  5
128
  8
14
 10
-3405.13624
 20
-977.503155
 30
0.0
 70
0
  0
VERTEX
  5
129
  8
14
 10
-3384.720775
 20
-976.433119
 30
0.0
 70
0
  0
VERTEX
  5
12A
  8
14
 10
-3361.247494
 20
-975.202814
 30
0.0
 70
0
  0
VERTEX
  5
12B
  8
14
 10
-3344.166317
 20
-974.307538
 30
0.0
 70
0
  0
VERTEX
  5
12C
  8
14
 10
-3326.125839
 20
-973.361982
 30
0.0
 70
0
  0
VERTEX
  5
12D
  8
14
 10
-3307.285914
 20
-972.374525
 30
0.0
 70
0
  0
VERTEX
  5
12E
  8
14
 10
-3287.806461
 20
-971.353548
 30
0.0
 70
0
  0
VERTEX
  5
12F
  8
14
 10
-3267.847333
 20
-970.30743
 30
0.0
 70
0
  0
VERTEX
  5
130
  8
14
 10
-3247.568431
 20
-969.244551
 30
0.0
 70
0
  0
VERTEX
  5
131
  8
14
 10
-3227.129644
 20
-968.173293
 30
0.0
 70
0
  0
VERTEX
  5
132
  8
14
 10
-3206.690875
 20
-967.102035
 30
0.0
 70
0
  0
VERTEX
  5
133
  8
14
 10
-3186.411993
 20
-966.039158
 30
0.0
 70
0
  0
VERTEX
  5
134
  8
14
 10
-3166.452883
 20
-964.993041
 30
0.0
 70
0
  0
VERTEX
  5
135
  8
14
 10
-3146.973394
 20
-963.972062
 30
0.0
 70
0
  0
VERTEX
  5
136
  8
14
 10
-3128.133487
 20
-962.984606
 30
0.0
 70
0
  0
VERTEX
  5
137
  8
14
 10
-3110.09301
 20
-962.03905
 30
0.0
 70
0
  0
VERTEX
  5
138
  8
14
 10
-3093.011818
 20
-961.143773
 30
0.0
 70
0
  0
VERTEX
  5
139
  8
14
 10
-3077.049861
 20
-960.307159
 30
0.0
 70
0
  0
VERTEX
  5
13A
  8
14
 10
-3062.366991
 20
-959.537585
 30
0.0
 70
0
  0
VERTEX
  5
13B
  8
14
 10
-3043.090717
 20
-958.527258
 30
0.0
 70
0
  0
VERTEX
  5
13C
  8
14
 10
-3027.591754
 20
-957.71491
 30
0.0
 70
0
  0
VERTEX
  5
13D
  8
14
 10
-3013.734954
 20
-956.988633
 30
0.0
 70
0
  0
VERTEX
  5
13E
  8
14
 10
-3008.831787
 20
-956.731644
 30
0.0
 70
0
  0
VERTEX
  5
13F
  8
14
 10
-3008.831787
 20
-956.731644
 30
0.0
 70
0
  0
VERTEX
  5
140
  8
14
 10
-2992.030326
 20
-954.780228
 30
0.0
 70
0
  0
VERTEX
  5
141
  8
14
 10
-2976.023378
 20
-952.76606
 30
0.0
 70
0
  0
VERTEX
  5
142
  8
14
 10
-2960.165227
 20
-950.638805
 30
0.0
 70
0
  0
VERTEX
  5
143
  8
14
 10
-2944.525127
 20
-948.407377
 30
0.0
 70
0
  0
VERTEX
  5
144
  8
14
 10
-2927.887784
 20
-945.873598
 30
0.0
 70
0
  0
VERTEX
  5
145
  8
14
 10
-2912.856144
 20
-943.42222
 30
0.0
 70
0
  0
VERTEX
  5
146
  8
14
 10
-2897.772384
 20
-940.779971
 30
0.0
 70
0
  0
VERTEX
  5
147
  8
14
 10
-2882.625891
 20
-937.920619
 30
0.0
 70
0
  0
VERTEX
  5
148
  8
14
 10
-2867.518314
 20
-934.854549
 30
0.0
 70
0
  0
VERTEX
  5
149
  8
14
 10
-2852.455397
 20
-931.576959
 30
0.0
 70
0
  0
VERTEX
  5
14A
  8
14
 10
-2837.442901
 20
-928.083052
 30
0.0
 70
0
  0
VERTEX
  5
14B
  8
14
 10
-2822.486587
 20
-924.368029
 30
0.0
 70
0
  0
VERTEX
  5
14C
  8
14
 10
-2806.124088
 20
-920.025888
 30
0.0
 70
0
  0
VERTEX
  5
14D
  8
14
 10
-2791.411355
 20
-915.883832
 30
0.0
 70
0
  0
VERTEX
  5
14E
  8
14
 10
-2775.096544
 20
-911.062286
 30
0.0
 70
0
  0
VERTEX
  5
14F
  8
14
 10
-2759.646524
 20
-906.299712
 30
0.0
 70
0
  0
VERTEX
  5
150
  8
14
 10
-2745.407461
 20
-901.755332
 30
0.0
 70
0
  0
VERTEX
  5
151
  8
14
 10
-2731.266945
 20
-897.101951
 30
0.0
 70
0
  0
VERTEX
  5
152
  8
14
 10
-2717.379236
 20
-892.393831
 30
0.0
 70
0
  0
VERTEX
  5
153
  8
14
 10
-2704.195251
 20
-887.772369
 30
0.0
 70
0
  0
VERTEX
  5
154
  8
14
 10
-2704.195251
 20
-887.772369
 30
0.0
 70
0
  0
VERTEX
  5
155
  8
14
 10
-2703.153598
 20
-893.671255
 30
0.0
 70
0
  0
VERTEX
  5
156
  8
14
 10
-2701.709229
 20
-899.896672
 30
0.0
 70
0
  0
VERTEX
  5
157
  8
14
 10
-2699.909011
 20
-906.26481
 30
0.0
 70
0
  0
VERTEX
  5
158
  8
14
 10
-2698.024605
 20
-911.922388
 30
0.0
 70
0
  0
VERTEX
  5
159
  8
14
 10
-2695.70392
 20
-917.919093
 30
0.0
 70
0
  0
VERTEX
  5
15A
  8
14
 10
-2693.285391
 20
-923.327293
 30
0.0
 70
0
  0
VERTEX
  5
15B
  8
14
 10
-2690.903811
 20
-928.003125
 30
0.0
 70
0
  0
VERTEX
  5
15C
  8
14
 10
-2688.220389
 20
-932.649763
 30
0.0
 70
0
  0
VERTEX
  5
15D
  8
14
 10
-2685.219005
 20
-937.204354
 30
0.0
 70
0
  0
VERTEX
  5
15E
  8
14
 10
-2682.463331
 20
-940.884197
 30
0.0
 70
0
  0
VERTEX
  5
15F
  8
14
 10
-2679.466321
 20
-944.420111
 30
0.0
 70
0
  0
VERTEX
  5
160
  8
14
 10
-2676.218637
 20
-947.775733
 30
0.0
 70
0
  0
VERTEX
  5
161
  8
14
 10
-2672.630627
 20
-950.984066
 30
0.0
 70
0
  0
VERTEX
  5
162
  8
14
 10
-2668.872201
 20
-953.895486
 30
0.0
 70
0
  0
VERTEX
  5
163
  8
14
 10
-2664.896076
 20
-956.594862
 30
0.0
 70
0
  0
VERTEX
  5
164
  8
14
 10
-2660.731154
 20
-959.094681
 30
0.0
 70
0
  0
VERTEX
  5
165
  8
14
 10
-2655.52472
 20
-961.848637
 30
0.0
 70
0
  0
VERTEX
  5
166
  8
14
 10
-2650.137974
 20
-964.354796
 30
0.0
 70
0
  0
VERTEX
  5
167
  8
14
 10
-2644.620863
 20
-966.634735
 30
0.0
 70
0
  0
VERTEX
  5
168
  8
14
 10
-2638.086074
 20
-969.037546
 30
0.0
 70
0
  0
VERTEX
  5
169
  8
14
 10
-2630.73611
 20
-971.440363
 30
0.0
 70
0
  0
VERTEX
  5
16A
  8
14
 10
-2621.895099
 20
-974.023611
 30
0.0
 70
0
  0
VERTEX
  5
16B
  8
14
 10
-2613.037058
 20
-976.351752
 30
0.0
 70
0
  0
VERTEX
  5
16C
  8
14
 10
-2609.504089
 20
-977.205887
 30
0.0
 70
0
  0
VERTEX
  5
16D
  8
14
 10
-2593.670415
 20
-981.317264
 30
0.0
 70
0
  0
VERTEX
  5
16E
  8
14
 10
-2578.09667
 20
-985.364598
 30
0.0
 70
0
  0
VERTEX
  5
16F
  8
14
 10
-2562.443186
 20
-989.43598
 30
0.0
 70
0
  0
VERTEX
  5
170
  8
14
 10
-2547.074003
 20
-993.437133
 30
0.0
 70
0
  0
VERTEX
  5
171
  8
14
 10
-2530.993536
 20
-997.6283
 30
0.0
 70
0
  0
VERTEX
  5
172
  8
14
 10
-2515.695197
 20
-1001.620179
 30
0.0
 70
0
  0
VERTEX
  5
173
  8
14
 10
-2500.379213
 20
-1005.620246
 30
0.0
 70
0
  0
VERTEX
  5
174
  8
14
 10
-2485.829005
 20
-1009.423239
 30
0.0
 70
0
  0
VERTEX
  5
175
  8
14
 10
-2475.001373
 20
-1012.255325
 30
0.0
 70
0
  0
VERTEX
  5
176
  8
14
 10
-2475.000153
 20
-1012.230072
 30
0.0
 70
0
  0
VERTEX
  5
177
  8
14
 10
-2475.001373
 20
-1012.255325
 30
0.0
 70
0
  0
VERTEX
  5
178
  8
14
 10
-2475.791159
 20
-1028.407808
 30
0.0
 70
0
  0
VERTEX
  5
179
  8
14
 10
-2476.589728
 20
-1044.561161
 30
0.0
 70
0
  0
VERTEX
  5
17A
  8
14
 10
-2477.429427
 20
-1061.395658
 30
0.0
 70
0
  0
VERTEX
  5
17B
  8
14
 10
-2478.200835
 20
-1076.734589
 30
0.0
 70
0
  0
VERTEX
  5
17C
  8
14
 10
-2479.049733
 20
-1093.477569
 30
0.0
 70
0
  0
VERTEX
  5
17D
  8
14
 10
-2479.848042
 20
-1109.09123
 30
0.0
 70
0
  0
VERTEX
  5
17E
  8
14
 10
-2480.69099
 20
-1125.436176
 30
0.0
 70
0
  0
VERTEX
  5
17F
  8
14
 10
-2481.571723
 20
-1142.35202
 30
0.0
 70
0
  0
VERTEX
  5
180
  8
14
 10
-2482.483385
 20
-1159.678371
 30
0.0
 70
0
  0
VERTEX
  5
181
  8
14
 10
-2483.28423
 20
-1174.734681
 30
0.0
 70
0
  0
VERTEX
  5
182
  8
14
 10
-2483.954773
 20
-1187.214432
 30
0.0
 70
0
  0
VERTEX
  5
183
  8
14
 10
-2484.091127
 20
-1189.738551
 30
0.0
 70
0
  0
VERTEX
  5
184
  8
14
 10
-2485.01176
 20
-1206.66805
 30
0.0
 70
0
  0
VERTEX
  5
185
  8
14
 10
-2485.833343
 20
-1221.65187
 30
0.0
 70
0
  0
VERTEX
  5
186
  8
14
 10
-2486.166687
 20
-1227.698975
 30
0.0
 70
0
  0
VERTEX
  5
187
  8
14
 10
-2486.166687
 20
-1227.698975
 30
0.0
 70
0
  0
VERTEX
  5
188
  8
14
 10
-2489.039579
 20
-1227.920405
 30
0.0
 70
0
  0
VERTEX
  5
189
  8
14
 10
-2503.245918
 20
-1228.944089
 30
0.0
 70
0
  0
VERTEX
  5
18A
  8
14
 10
-2518.202078
 20
-1229.924143
 30
0.0
 70
0
  0
VERTEX
  5
18B
  8
14
 10
-2533.77622
 20
-1230.83706
 30
0.0
 70
0
  0
VERTEX
  5
18C
  8
14
 10
-2550.525367
 20
-1231.675854
 30
0.0
 70
0
  0
VERTEX
  5
18D
  8
14
 10
-2565.837371
 20
-1232.281581
 30
0.0
 70
0
  0
VERTEX
  5
18E
  8
14
 10
-2582.904985
 20
-1232.764824
 30
0.0
 70
0
  0
VERTEX
  5
18F
  8
14
 10
-2599.978698
 20
-1233.057248
 30
0.0
 70
0
  0
VERTEX
  5
190
  8
14
 10
-2617.055946
 20
-1233.170634
 30
0.0
 70
0
  0
VERTEX
  5
191
  8
14
 10
-2634.134278
 20
-1233.116769
 30
0.0
 70
0
  0
VERTEX
  5
192
  8
14
 10
-2651.211205
 20
-1232.907435
 30
0.0
 70
0
  0
VERTEX
  5
193
  8
14
 10
-2667.633162
 20
-1232.570389
 30
0.0
 70
0
  0
VERTEX
  5
194
  8
14
 10
-2684.701129
 20
-1232.092887
 30
0.0
 70
0
  0
VERTEX
  5
195
  8
14
 10
-2701.764572
 20
-1231.505503
 30
0.0
 70
0
  0
VERTEX
  5
196
  8
14
 10
-2718.824405
 20
-1230.828842
 30
0.0
 70
0
  0
VERTEX
  5
197
  8
14
 10
-2734.739796
 20
-1230.136124
 30
0.0
 70
0
  0
VERTEX
  5
198
  8
14
 10
-2751.795702
 20
-1229.355383
 30
0.0
 70
0
  0
VERTEX
  5
199
  8
14
 10
-2767.445334
 20
-1228.62989
 30
0.0
 70
0
  0
VERTEX
  5
19A
  8
14
 10
-2784.459881
 20
-1227.843946
 30
0.0
 70
0
  0
VERTEX
  5
19B
  8
14
 10
-2801.366233
 20
-1227.065985
 30
0.0
 70
0
  0
VERTEX
  5
19C
  8
14
 10
-2818.094192
 20
-1226.298951
 30
0.0
 70
0
  0
VERTEX
  5
19D
  8
14
 10
-2834.573504
 20
-1225.545789
 30
0.0
 70
0
  0
VERTEX
  5
19E
  8
14
 10
-2850.73399
 20
-1224.809444
 30
0.0
 70
0
  0
VERTEX
  5
19F
  8
14
 10
-2866.505399
 20
-1224.092862
 30
0.0
 70
0
  0
VERTEX
  5
1A0
  8
14
 10
-2881.817549
 20
-1223.398987
 30
0.0
 70
0
  0
VERTEX
  5
1A1
  8
14
 10
-2898.407292
 20
-1222.649186
 30
0.0
 70
0
  0
VERTEX
  5
1A2
  8
14
 10
-2914.226938
 20
-1221.936044
 30
0.0
 70
0
  0
VERTEX
  5
1A3
  8
14
 10
-2930.779502
 20
-1221.191759
 30
0.0
 70
0
  0
VERTEX
  5
1A4
  8
14
 10
-2946.120726
 20
-1220.503661
 30
0.0
 70
0
  0
VERTEX
  5
1A5
  8
14
 10
-2961.433327
 20
-1219.818512
 30
0.0
 70
0
  0
VERTEX
  5
1A6
  8
14
 10
-2977.176827
 20
-1219.115883
 30
0.0
 70
0
  0
VERTEX
  5
1A7
  8
14
 10
-2992.629589
 20
-1218.428166
 30
0.0
 70
0
  0
SEQEND
  5
FA
  8
14
  0
POLYLINE
  5
1A8
  8
8
 66
1
 10
0.0
 20
0.0
 30
0.0
 70
0
  0
VERTEX
  5
1AA
  8
8
 10
-2512.876892
 20
-1036.706619
 30
0.0
 70
0
  0
VERTEX
  5
1AB
  8
8
 10
-2514.149191
 20
-1055.244954
 30
0.0
 70
0
  0
VERTEX
  5
1AC
  8
8
 10
-2515.283431
 20
-1071.771659
 30
0.0
 70
0
  0
VERTEX
  5
1AD
  8
8
 10
-2516.389726
 20
-1087.891196
 30
0.0
 70
0
  0
VERTEX
  5
1AE
  8
8
 10
-2517.579142
 20
-1105.221855
 30
0.0
 70
0
  0
VERTEX
  5
1AF
  8
8
 10
-2518.792307
 20
-1122.898558
 30
0.0
 70
0
  0
VERTEX
  5
1B0
  8
8
 10
-2519.969848
 20
-1140.056196
 30
0.0
 70
0
  0
VERTEX
  5
1B1
  8
8
 10
-2521.052394
 20
-1155.829693
 30
0.0
 70
0
  0
VERTEX
  5
1B2
  8
8
 10
-2522.14246
 20
-1171.712756
 30
0.0
 70
0
  0
VERTEX
  5
1B3
  8
8
 10
-2523.136343
 20
-1186.194356
 30
0.0
 70
0
  0
VERTEX
  5
1B4
  8
8
 10
-2523.252869
 20
-1187.892227
 30
0.0
 70
0
  0
SEQEND
  5
1A9
  8
8
  0
POLYLINE
  5
1B5
  8
8
 66
1
 10
0.0
 20
0.0
 30
0.0
 70
0
  0
VERTEX
  5
1B7
  8
8
 10
-2606.329041
 20
-970.297089
 30
0.0
 70
0
  0
VERTEX
  5
1B8
  8
8
 10
-2630.596313
 20
-1233.007431
 30
0.0
 70
0
  0
SEQEND
  5
1B6
  8
8
  0
POLYLINE
  5
1B9
  8
8
 66
1
 10
0.0
 20
0.0
 30
0.0
 70
0
  0
VERTEX
  5
1BB
  8
8
 10
-3445.840759
 20
-1093.033142
 30
0.0
 70
0
  0
VERTEX
  5
1BC
  8
8
 10
-3425.563161
 20
-1093.026524
 30
0.0
 70
0
  0
VERTEX
  5
1BD
  8
8
 10
-3407.998052
 20
-1093.021114
 30
0.0
 70
0
  0
VERTEX
  5
1BE
  8
8
 10
-3390.544425
 20
-1093.015965
 30
0.0
 70
0
  0
VERTEX
  5
1BF
  8
8
 10
-3370.332396
 20
-1093.010254
 30
0.0
 70
0
  0
VERTEX
  5
1C0
  8
8
 10
-3353.510421
 20
-1093.005696
 30
0.0
 70
0
  0
VERTEX
  5
1C1
  8
8
 10
-3335.377803
 20
-1093.000977
 30
0.0
 70
0
  0
VERTEX
  5
1C2
  8
8
 10
-3316.037797
 20
-1092.996163
 30
0.0
 70
0
  0
VERTEX
  5
1C3
  8
8
 10
-3295.593701
 20
-1092.99132
 30
0.0
 70
0
  0
VERTEX
  5
1C4
  8
8
 10
-3274.148769
 20
-1092.986513
 30
0.0
 70
0
  0
VERTEX
  5
1C5
  8
8
 10
-3251.806271
 20
-1092.98181
 30
0.0
 70
0
  0
VERTEX
  5
1C6
  8
8
 10
-3236.463632
 20
-1092.978764
 30
0.0
 70
0
  0
VERTEX
  5
1C7
  8
8
 10
-3220.798537
 20
-1092.975813
 30
0.0
 70
0
  0
VERTEX
  5
1C8
  8
8
 10
-3204.841652
 20
-1092.972976
 30
0.0
 70
0
  0
VERTEX
  5
1C9
  8
8
 10
-3188.623541
 20
-1092.970273
 30
0.0
 70
0
  0
VERTEX
  5
1CA
  8
8
 10
-3172.174765
 20
-1092.967723
 30
0.0
 70
0
  0
VERTEX
  5
1CB
  8
8
 10
-3155.525997
 20
-1092.965347
 30
0.0
 70
0
  0
VERTEX
  5
1CC
  8
8
 10
-3138.707797
 20
-1092.963163
 30
0.0
 70
0
  0
VERTEX
  5
1CD
  8
8
 10
-3121.750727
 20
-1092.961191
 30
0.0
 70
0
  0
VERTEX
  5
1CE
  8
8
 10
-3104.685459
 20
-1092.959451
 30
0.0
 70
0
  0
VERTEX
  5
1CF
  8
8
 10
-3087.542554
 20
-1092.957963
 30
0.0
 70
0
  0
VERTEX
  5
1D0
  8
8
 10
-3070.352573
 20
-1092.956745
 30
0.0
 70
0
  0
VERTEX
  5
1D1
  8
8
 10
-3061.107606
 20
-1092.95621
 30
0.0
 70
0
  0
VERTEX
  5
1D2
  8
8
 10
-3035.316929
 20
-1092.955164
 30
0.0
 70
0
  0
VERTEX
  5
1D3
  8
8
 10
-3018.18493
 20
-1092.954813
 30
0.0
 70
0
  0
VERTEX
  5
1D4
  8
8
 10
-3001.145686
 20
-1092.954719
 30
0.0
 70
0
  0
VERTEX
  5
1D5
  8
8
 10
-2984.236208
 20
-1092.954863
 30
0.0
 70
0
  0
VERTEX
  5
1D6
  8
8
 10
-2967.493693
 20
-1092.955229
 30
0.0
 70
0
  0
VERTEX
  5
1D7
  8
8
 10
-2950.955081
 20
-1092.955798
 30
0.0
 70
0
  0
VERTEX
  5
1D8
  8
8
 10
-2934.657531
 20
-1092.956552
 30
0.0
 70
0
  0
VERTEX
  5
1D9
  8
8
 10
-2918.638202
 20
-1092.957474
 30
0.0
 70
0
  0
VERTEX
  5
1DA
  8
8
 10
-2902.934038
 20
-1092.958546
 30
0.0
 70
0
  0
VERTEX
  5
1DB
  8
8
 10
-2887.582196
 20
-1092.95975
 30
0.0
 70
0
  0
VERTEX
  5
1DC
  8
8
 10
-2872.619829
 20
-1092.961068
 30
0.0
 70
0
  0
VERTEX
  5
1DD
  8
8
 10
-2850.987479
 20
-1092.963221
 30
0.0
 70
0
  0
VERTEX
  5
1DE
  8
8
 10
-2830.43991
 20
-1092.965531
 30
0.0
 70
0
  0
VERTEX
  5
1DF
  8
8
 10
-2811.102231
 20
-1092.967937
 30
0.0
 70
0
  0
VERTEX
  5
1E0
  8
8
 10
-2793.099726
 20
-1092.970381
 30
0.0
 70
0
  0
VERTEX
  5
1E1
  8
8
 10
-2776.557502
 20
-1092.972801
 30
0.0
 70
0
  0
VERTEX
  5
1E2
  8
8
 10
-2761.600726
 20
-1092.975138
 30
0.0
 70
0
  0
VERTEX
  5
1E3
  8
8
 10
-2744.34096
 20
-1092.978021
 30
0.0
 70
0
  0
VERTEX
  5
1E4
  8
8
 10
-2727.494754
 20
-1092.98105
 30
0.0
 70
0
  0
VERTEX
  5
1E5
  8
8
 10
-2713.775092
 20
-1092.98372
 30
0.0
 70
0
  0
VERTEX
  5
1E6
  8
8
 10
-2711.645813
 20
-1092.984161
 30
0.0
 70
0
  0
SEQEND
  5
1BA
  8
8
  0
POLYLINE
  5
1E7
  8
8
 66
1
 10
0.0
 20
0.0
 30
0.0
 70
0
  0
VERTEX
  5
1E9
  8
8
 10
-3008.831787
 20
-956.731644
 30
0.0
 70
0
  0
VERTEX
  5
1EA
  8
8
 10
-3008.831787
 20
-973.745633
 30
0.0
 70
0
  0
VERTEX
  5
1EB
  8
8
 10
-3008.831787
 20
-990.646865
 30
0.0
 70
0
  0
VERTEX
  5
1EC
  8
8
 10
-3008.831787
 20
-1006.770381
 30
0.0
 70
0
  0
VERTEX
  5
1ED
  8
8
 10
-3008.831787
 20
-1022.243641
 30
0.0
 70
0
  0
VERTEX
  5
1EE
  8
8
 10
-3008.831787
 20
-1038.907281
 30
0.0
 70
0
  0
VERTEX
  5
1EF
  8
8
 10
-3008.831787
 20
-1056.443371
 30
0.0
 70
0
  0
VERTEX
  5
1F0
  8
8
 10
-3008.831787
 20
-1074.534009
 30
0.0
 70
0
  0
VERTEX
  5
1F1
  8
8
 10
-3008.831787
 20
-1088.170834
 30
0.0
 70
0
  0
VERTEX
  5
1F2
  8
8
 10
-3008.831787
 20
-1106.466293
 30
0.0
 70
0
  0
VERTEX
  5
1F3
  8
8
 10
-3008.831787
 20
-1121.476388
 30
0.0
 70
0
  0
VERTEX
  5
1F4
  8
8
 10
-3008.831787
 20
-1138.921756
 30
0.0
 70
0
  0
VERTEX
  5
1F5
  8
8
 10
-3008.831787
 20
-1155.439752
 30
0.0
 70
0
  0
VERTEX
  5
1F6
  8
8
 10
-3008.831787
 20
-1170.703067
 30
0.0
 70
0
  0
VERTEX
  5
1F7
  8
8
 10
-3008.831787
 20
-1186.487829
 30
0.0
 70
0
  0
VERTEX
  5
1F8
  8
8
 10
-3008.831787
 20
-1201.224171
 30
0.0
 70
0
  0
VERTEX
  5
1F9
  8
8
 10
-3008.831787
 20
-1215.725005
 30
0.0
 70
0
  0
VERTEX
  5
1FA
  8
8
 10
-3008.831787
 20
-1217.709656
 30
0.0
 70
0
  0
SEQEND
  5
1E8
  8
8
  0
POLYLINE
  5
1FB
  8
8
 66
1
 10
0.0
 20
0.0
 30
0.0
 70
0
  0
VERTEX
  5
1FD
  8
8
 10
-2704.065552
 20
-880.864716
 30
0.0
 70
0
  0
VERTEX
  5
1FE
  8
8
 10
-2720.934143
 20
-1230.720215
 30
0.0
 70
0
  0
SEQEND
  5
1FC
  8
8
  0
POINT
  5
1FF
  8
4
 10
-3009.226685
 20
-1230.403595
 30
0.0
  0
POINT
  5
200
  8
4
 10
-3446.302185
 20
-1211.631165
 30
0.0
  0
POINT
  5
201
  8
4
 10
-3445.379944
 20
-966.895065
 30
0.0
  0
POINT
  5
202
  8
4
 10
-3009.49646
 20
-944.049072
 30
0.0
  0
POINT
  5
203
  8
4
 10
-2718.69751
 20
-879.37912
 30
0.0
  0
POINT
  5
204
  8
4
 10
-2474.202728
 20
-995.923767
 30
0.0
  0
POINT
  5
205
  8
4
 10
-2462.446899
 20
-1015.539017
 30
0.0
  0
POINT
  5
206
  8
4
 10
-2471.273193
 20
-1187.898483
 30
0.0
  0
POINT
  5
207
  8
4
 10
-2486.871338
 20
-1240.480957
 30
0.0
  0
POINT
  5
208
  8
4
 10
-3008.834839
 20
-1217.709656
 30
0.0
  0
POINT
  5
209
  8
4
 10
-3446.253967
 20
-1198.914566
 30
0.0
  0
POINT
  5
20A
  8
4
 10
-3445.427551
 20
-979.614944
 30
0.0
  0
POINT
  5
20B
  8
4
 10
-3008.831787
 20
-956.731644
 30
0.0
  0
POINT
  5
20C
  8
4
 10
-2704.195251
 20
-887.772369
 30
0.0
  0
POINT
  5
20D
  8
4
 10
-2475.001373
 20
-1012.255325
 30
0.0
  0
POINT
  5
20E
  8
4
 10
-2475.001373
 20
-1012.255325
 30
0.0
  0
POINT
  5
20F
  8
4
 10
-2483.954773
 20
-1187.214432
 30
0.0
  0
POINT
  5
210
  8
4
 10
-2486.166687
 20
-1227.698975
 30
0.0
  0
LINE
  5
211
  8
7
 10
-3387.257385
 20
-1086.681671
 30
0.0
 11
-2519.147034
 21
-1086.681671
 31
0.0
  0
ENDSEC
  0
EOF
