  0
SECTION
  2
HEADER
  9
$ACADVER
  1
AC1009
  9
$DWGCODEPAGE
  3
ANSI_1252
  9
$INSBASE
 10
0.0
 20
0.0
 30
0.0
  9
$EXTMIN
 10
1e+20
 20
1e+20
 30
1e+20
  9
$EXTMAX
 10
-1e+20
 20
-1e+20
 30
-1e+20
  9
$LIMMIN
 10
0.0
 20
0.0
  9
$LIMMAX
 10
420.0
 20
297.0
  9
$ORTHOMODE
 70
0
  9
$REGENMODE
 70
1
  9
$FILLMODE
 70
1
  9
$DRAGMODE
 70
2
  9
$QTEXTMODE
 70
0
  9
$MIRRTEXT
 70
1
  9
$OSMODE
 70
20583
  9
$LTSCALE
 40
1.0
  9
$ATTMODE
 70
1
  9
$TEXTSIZE
 40
2.5
  9
$TRACEWID
 40
1.0
  9
$TEXTSTYLE
  7
Standard
  9
$CLAYER
  8
0
  9
$CELTYPE
  6
ByLayer
  9
$CECOLOR
 62
256
  9
$DIMSCALE
 40
1.0
  9
$DIMASZ
 40
2.5
  9
$DIMEXO
 40
0.625
  9
$DIMDLI
 40
3.75
  9
$DIMRND
 40
0.0
  9
$DIMDLE
 40
0.0
  9
$DIMEXE
 40
1.25
  9
$DIMTP
 40
0.0
  9
$DIMTM
 40
0.0
  9
$DIMTXT
 40
2.5
  9
$DIMCEN
 40
2.5
  9
$DIMTSZ
 40
0.0
  9
$DIMTOL
 70
0
  9
$DIMLIM
 70
0
  9
$DIMTIH
 70
0
  9
$DIMTOH
 70
0
  9
$DIMSE1
 70
0
  9
$DIMSE2
 70
0
  9
$DIMTAD
 70
1
  9
$DIMZIN
 70
8
  9
$DIMBLK
  1

  9
$DIMASO
 70
1
  9
$DIMSHO
 70
1
  9
$DIMPOST
  1

  9
$DIMAPOST
  1

  9
$DIMALT
 70
0
  9
$DIMALTD
 70
3
  9
$DIMALTF
 40
0.03937007874
  9
$DIMLFAC
 40
1.0
  9
$DIMTOFL
 70
1
  9
$DIMTVP
 40
0.0
  9
$DIMTIX
 70
0
  9
$DIMSOXD
 70
0
  9
$DIMSAH
 70
0
  9
$DIMBLK1
  1

  9
$DIMBLK2
  1

  9
$DIMSTYLE
  2
ISO-25
  9
$DIMCLRD
 70
0
  9
$DIMCLRE
 70
0
  9
$DIMCLRT
 70
0
  9
$DIMTFAC
 40
1.0
  9
$DIMGAP
 40
0.625
  9
$COORDS
 70
1
  9
$ATTDIA
 70
0
  9
$ATTREQ
 70
1
  9
$HANDLING
 70
1
  9
$LUNITS
 70
2
  9
$LUPREC
 70
4
  9
$SKETCHINC
 40
1.0
  9
$FILLETRAD
 40
10.0
  9
$AUNITS
 70
0
  9
$AUPREC
 70
2
  9
$MENU
  1
.
  9
$ELEVATION
 40
0.0
  9
$PELEVATION
 40
0.0
  9
$THICKNESS
 40
0.0
  9
$LIMCHECK
 70
0
  9
$CHAMFERA
 40
0.0
  9
$CHAMFERB
 40
0.0
  9
$SKPOLY
 70
0
  9
$TDCREATE
 40
2461264.9423032408
  9
$TDUPDATE
 40
2461264.9423032408
  9
$TDINDWG
 40
0.0
  9
$TDUSRTIMER
 40
0.0
  9
$USRTIMER
 70
1
  9
$ANGBASE
 50
0.0
  9
$ANGDIR
 70
0
  9
$PDMODE
 70
0
  9
$PDSIZE
 40
0.0
  9
$PLINEWID
 40
0.0
  9
$SPLFRAME
 70
0
  9
$SPLINETYPE
 70
6
  9
$SPLINESEGS
 70
8
  9
$HANDSEED
  5
227
  9
$SURFTAB1
 70
6
  9
$SURFTAB2
 70
6
  9
$SURFTYPE
 70
6
  9
$SURFU
 70
6
  9
$SURFV
 70
6
  9
$UCSNAME
  2

  9
$UCSORG
 10
0.0
 20
0.0
 30
0.0
  9
$UCSXDIR
 10
1.0
 20
0.0
 30
0.0
  9
$UCSYDIR
 10
0.0
 20
1.0
 30
0.0
  9
$PUCSNAME
  2

  9
$PUCSORG
 10
0.0
 20
0.0
 30
0.0
  9
$PUCSXDIR
 10
1.0
 20
0.0
 30
0.0
  9
$PUCSYDIR
 10
0.0
 20
1.0
 30
0.0
  9
$USERI1
 70
0
  9
$USERI2
 70
0
  9
$USERI3
 70
0
  9
$USERI4
 70
0
  9
$USERI5
 70
0
  9
$USERR1
 40
0.0
  9
$USERR2
 40
0.0
  9
$USERR3
 40
0.0
  9
$USERR4
 40
0.0
  9
$USERR5
 40
0.0
  9
$WORLDVIEW
 70
1
  9
$SHADEDGE
 70
3
  9
$SHADEDIF
 70
70
  9
$TILEMODE
 70
1
  9
$MAXACTVP
 70
64
  9
$PLIMCHECK
 70
0
  9
$PEXTMIN
 10
1e+20
 20
1e+20
 30
1e+20
  9
$PEXTMAX
 10
-1e+20
 20
-1e+20
 30
-1e+20
  9
$PLIMMIN
 10
0.0
 20
0.0
  9
$PLIMMAX
 10
420.0
 20
297.0
  9
$UNITMODE
 70
0
  9
$VISRETAIN
 70
1
  9
$PLINEGEN
 70
0
  9
$PSLTSCALE
 70
1
  0
ENDSEC
  0
SECTION
  2
TABLES
  0
TABLE
  2
VPORT
 70
1
  0
VPORT
  5
23
  2
*Active
 70
0
 10
0.0
 20
0.0
 11
1.0
 21
1.0
 12
0.0
 22
0.0
 13
0.0
 23
0.0
 14
0.5
 24
0.5
 15
0.5
 25
0.5
 16
0.0
 26
0.0
 36
1.0
 17
0.0
 27
0.0
 37
0.0
 40
1000.0
 41
1.34
 42
50.0
 43
0.0
 44
0.0
 50
0.0
 51
0.0
 71
0
 72
1000
 73
1
 74
3
 75
0
 76
0
 77
0
 78
0
  0
ENDTAB
  0
TABLE
  2
LTYPE
 70
3
  0
LTYPE
  5
24
  2
ByBlock
 70
0
  3

 72
65
 73
0
 40
0.0
  0
LTYPE
  5
25
  2
ByLayer
 70
0
  3

 72
65
 73
0
 40
0.0
  0
LTYPE
  5
26
  2
Continuous
 70
0
  3

 72
65
 73
0
 40
0.0
  0
ENDTAB
  0
TABLE
  2
LAYER
 70
7
  0
LAYER
  5
27
  2
0
 70
0
 62
7
  6
Continuous
  0
LAYER
  5
28
  2
Defpoints
 70
0
 62
7
  6
Continuous
  0
LAYER
  5
2D
  2
1
 70
0
 62
1
  6
Continuous
  0
LAYER
  5
2E
  2
7
 70
0
 62
7
  6
Continuous
  0
LAYER
  5
2F
  2
14
 70
0
 62
3
  6
Continuous
  0
LAYER
  5
30
  2
8
 70
0
 62
6
  6
Continuous
  0
LAYER
  5
31
  2
4
 70
0
 62
2
  6
Continuous
  0
ENDTAB
  0
TABLE
  2
STYLE
 70
1
  0
STYLE
  5
29
  2
Standard
 70
0
 40
0.0
 41
1.0
 50
0.0
 71
0
 42
2.5
  3
txt
  4

  0
ENDTAB
  0
TABLE
  2
VIEW
 70
0
  0
ENDTAB
  0
TABLE
  2
UCS
 70
0
  0
ENDTAB
  0
TABLE
  2
APPID
 70
3
  0
APPID
  5
2A
  2
ACAD
 70
0
  0
APPID
  5
225
  2
HATCHBACKGROUNDCOLOR
 70
0
  0
APPID
  5
226
  2
EZDXF
 70
0
  0
ENDTAB
  0
TABLE
  2
DIMSTYLE
 70
1
  0
DIMSTYLE
105
2B
  2
Standard
 70
0
  3

  4

  5

  6

  7

 40
1.0
 41
2.5
 42
0.625
 43
3.75
 44
1.25
 45
0.0
 46
0.0
 47
0.0
 48
0.0
140
2.5
141
2.5
142
0.0
143
0.03937007874
144
1.0
145
0.0
146
1.0
147
0.625
 71
0
 72
0
 73
0
 74
0
 75
0
 76
0
 77
1
 78
8
170
0
171
3
172
1
173
0
174
0
175
0
176
0
177
0
178
0
  0
ENDTAB
  0
ENDSEC
  0
SECTION
  2
BLOCKS
  0
BLOCK
  5
18
  8
0
  2
$Model_Space
 70
0
 10
0.0
 20
0.0
 30
0.0
  3
$Model_Space
  1

1001
EZDXF
1000
CREATED_BY_EZDXF
1000
1.4.4 @ 2026-08-11T14:36:55.471576+00:00
1000
WRITTEN_BY_EZDXF
1000
1.4.4 @ 2026-08-11T14:36:55.476576+00:00
  0
ENDBLK
  5
19
  8
0
  0
BLOCK
  5
1C
  8
0
  2
$Paper_Space
 70
0
 10
0.0
 20
0.0
 30
0.0
  3
$Paper_Space
  1

  0
ENDBLK
  5
1D
  8
0
  0
ENDSEC
  0
SECTION
  2
ENTITIES
  0
POLYLINE
  5
32
  8
1
 66
1
 10
0.0
 20
0.0
 30
0.0
 70
1
  0
VERTEX
  5
34
  8
1
 10
-3009.414673
 20
-1243.097
 30
0.0
 70
0
  0
VERTEX
  5
35
  8
1
 10
-3009.292908
 20
-1243.101349
 30
0.0
 70
0
  0
VERTEX
  5
36
  8
1
 10
-3012.398552
 20
-1242.989306
 30
0.0
 70
0
  0
VERTEX
  5
37
  8
1
 10
-3027.189916
 20
-1242.44901
 30
0.0
 70
0
  0
VERTEX
  5
38
  8
1
 10
-3042.231338
 20
-1241.889347
 30
0.0
 70
0
  0
VERTEX
  5
39
  8
1
 10
-3057.608878
 20
-1241.303165
 30
0.0
 70
0
  0
VERTEX
  5
3A
  8
1
 10
-3073.093221
 20
-1240.698723
 30
0.0
 70
0
  0
VERTEX
  5
3B
  8
1
 10
-3088.129686
 20
-1240.101754
 30
0.0
 70
0
  0
VERTEX
  5
3C
  8
1
 10
-3103.61327
 20
-1239.477282
 30
0.0
 70
0
  0
VERTEX
  5
3D
  8
1
 10
-3118.643258
 20
-1238.860355
 30
0.0
 70
0
  0
VERTEX
  5
3E
  8
1
 10
-3134.125915
 20
-1238.213404
 30
0.0
 70
0
  0
VERTEX
  5
3F
  8
1
 10
-3149.525523
 20
-1237.558586
 30
0.0
 70
0
  0
VERTEX
  5
40
  8
1
 10
-3165.007158
 20
-1236.888588
 30
0.0
 70
0
  0
VERTEX
  5
41
  8
1
 10
-3180.464484
 20
-1236.207361
 30
0.0
 70
0
  0
VERTEX
  5
42
  8
1
 10
-3195.944985
 20
-1235.512208
 30
0.0
 70
0
  0
VERTEX
  5
43
  8
1
 10
-3211.286974
 20
-1234.809918
 30
0.0
 70
0
  0
VERTEX
  5
44
  8
1
 10
-3226.766268
 20
-1234.087169
 30
0.0
 70
0
  0
VERTEX
  5
45
  8
1
 10
-3242.096926
 20
-1233.356537
 30
0.0
 70
0
  0
VERTEX
  5
46
  8
1
 10
-3257.574656
 20
-1232.602684
 30
0.0
 70
0
  0
VERTEX
  5
47
  8
1
 10
-3272.626411
 20
-1231.852745
 30
0.0
 70
0
  0
VERTEX
  5
48
  8
1
 10
-3288.102494
 20
-1231.064382
 30
0.0
 70
0
  0
VERTEX
  5
49
  8
1
 10
-3303.302491
 20
-1230.273668
 30
0.0
 70
0
  0
VERTEX
  5
4A
  8
1
 10
-3318.776949
 20
-1229.453275
 30
0.0
 70
0
  0
VERTEX
  5
4B
  8
1
 10
-3334.086162
 20
-1228.627812
 30
0.0
 70
0
  0
VERTEX
  5
4C
  8
1
 10
-3349.559125
 20
-1227.780322
 30
0.0
 70
0
  0
VERTEX
  5
4D
  8
1
 10
-3364.818061
 20
-1226.932097
 30
0.0
 70
0
  0
VERTEX
  5
4E
  8
1
 10
-3380.289672
 20
-1226.060275
 30
0.0
 70
0
  0
VERTEX
  5
4F
  8
1
 10
-3395.547973
 20
-1225.189691
 30
0.0
 70
0
  0
VERTEX
  5
50
  8
1
 10
-3411.018333
 20
-1224.296207
 30
0.0
 70
0
  0
VERTEX
  5
51
  8
1
 10
-3426.129777
 20
-1223.412583
 30
0.0
 70
0
  0
VERTEX
  5
52
  8
1
 10
-3441.598724
 20
-1222.495184
 30
0.0
 70
0
  0
VERTEX
  5
53
  8
1
 10
-3456.918683
 20
-1221.572974
 30
0.0
 70
0
  0
VERTEX
  5
54
  8
1
 10
-3471.697693
 20
-1220.675735
 30
0.0
 70
0
  0
VERTEX
  5
55
  8
1
 10
-3472.386344
 20
-1220.633987
 30
0.0
 70
0
  0
VERTEX
  5
56
  8
1
 10
-3487.712754
 20
-1219.702425
 30
0.0
 70
0
  0
VERTEX
  5
57
  8
1
 10
-3503.441467
 20
-1218.746643
 30
0.0
 70
0
  0
VERTEX
  5
58
  8
1
 10
-3503.387158
 20
-1203.158883
 30
0.0
 70
0
  0
VERTEX
  5
59
  8
1
 10
-3503.333431
 20
-1187.695593
 30
0.0
 70
0
  0
VERTEX
  5
5A
  8
1
 10
-3503.280367
 20
-1172.415661
 30
0.0
 70
0
  0
VERTEX
  5
5B
  8
1
 10
-3503.226589
 20
-1156.952365
 30
0.0
 70
0
  0
VERTEX
  5
5C
  8
1
 10
-3503.172738
 20
-1141.48907
 30
0.0
 70
0
  0
VERTEX
  5
5D
  8
1
 10
-3503.119754
 20
-1126.287209
 30
0.0
 70
0
  0
VERTEX
  5
5E
  8
1
 10
-3503.065854
 20
-1110.823928
 30
0.0
 70
0
  0
VERTEX
  5
5F
  8
1
 10
-3503.012929
 20
-1095.633587
 30
0.0
 70
0
  0
VERTEX
  5
60
  8
1
 10
-3502.959056
 20
-1080.17032
 30
0.0
 70
0
  0
VERTEX
  5
61
  8
1
 10
-3502.906274
 20
-1065.03
 30
0.0
 70
0
  0
VERTEX
  5
62
  8
1
 10
-3502.852326
 20
-1049.566719
 30
0.0
 70
0
  0
VERTEX
  5
63
  8
1
 10
-3502.798946
 20
-1034.274275
 30
0.0
 70
0
  0
VERTEX
  5
64
  8
1
 10
-3502.744934
 20
-1018.810961
 30
0.0
 70
0
  0
VERTEX
  5
65
  8
1
 10
-3502.691934
 20
-1003.650495
 30
0.0
 70
0
  0
VERTEX
  5
66
  8
1
 10
-3502.637837
 20
-988.187208
 30
0.0
 70
0
  0
VERTEX
  5
67
  8
1
 10
-3502.583728
 20
-972.723913
 30
0.0
 70
0
  0
VERTEX
  5
68
  8
1
 10
-3502.538452
 20
-959.783478
 30
0.0
 70
0
  0
VERTEX
  5
69
  8
1
 10
-3486.839422
 20
-958.979177
 30
0.0
 70
0
  0
VERTEX
  5
6A
  8
1
 10
-3471.656194
 20
-958.201307
 30
0.0
 70
0
  0
VERTEX
  5
6B
  8
1
 10
-3470.782776
 20
-958.156509
 30
0.0
 70
0
  0
VERTEX
  5
6C
  8
1
 10
-3456.175641
 20
-957.408211
 30
0.0
 70
0
  0
VERTEX
  5
6D
  8
1
 10
-3440.874684
 20
-956.624319
 30
0.0
 70
0
  0
VERTEX
  5
6E
  8
1
 10
-3425.521483
 20
-955.837748
 30
0.0
 70
0
  0
VERTEX
  5
6F
  8
1
 10
-3410.220589
 20
-955.053848
 30
0.0
 70
0
  0
VERTEX
  5
70
  8
1
 10
-3395.238693
 20
-954.286284
 30
0.0
 70
0
  0
VERTEX
  5
71
  8
1
 10
-3379.937791
 20
-953.502379
 30
0.0
 70
0
  0
VERTEX
  5
72
  8
1
 10
-3364.766767
 20
-952.725145
 30
0.0
 70
0
  0
VERTEX
  5
73
  8
1
 10
-3349.465818
 20
-951.941261
 30
0.0
 70
0
  0
VERTEX
  5
74
  8
1
 10
-3334.155535
 20
-951.15689
 30
0.0
 70
0
  0
VERTEX
  5
75
  8
1
 10
-3318.854584
 20
-950.372989
 30
0.0
 70
0
  0
VERTEX
  5
76
  8
1
 10
-3303.501418
 20
-949.586412
 30
0.0
 70
0
  0
VERTEX
  5
77
  8
1
 10
-3288.200534
 20
-948.802514
 30
0.0
 70
0
  0
VERTEX
  5
78
  8
1
 10
-3272.907867
 20
-948.019037
 30
0.0
 70
0
  0
VERTEX
  5
79
  8
1
 10
-3257.6069
 20
-947.235137
 30
0.0
 70
0
  0
VERTEX
  5
7A
  8
1
 10
-3242.438709
 20
-946.458048
 30
0.0
 70
0
  0
VERTEX
  5
7B
  8
1
 10
-3227.137765
 20
-945.674163
 30
0.0
 70
0
  0
VERTEX
  5
7C
  8
1
 10
-3211.691028
 20
-944.882809
 30
0.0
 70
0
  0
VERTEX
  5
7D
  8
1
 10
-3196.390088
 20
-944.098923
 30
0.0
 70
0
  0
VERTEX
  5
7E
  8
1
 10
-3181.036842
 20
-943.31236
 30
0.0
 70
0
  0
VERTEX
  5
7F
  8
1
 10
-3165.735912
 20
-942.528476
 30
0.0
 70
0
  0
VERTEX
  5
80
  8
1
 10
-3150.514319
 20
-941.748652
 30
0.0
 70
0
  0
VERTEX
  5
81
  8
1
 10
-3135.213406
 20
-940.964756
 30
0.0
 70
0
  0
VERTEX
  5
82
  8
1
 10
-3119.92705
 20
-940.181596
 30
0.0
 70
0
  0
VERTEX
  5
83
  8
1
 10
-3104.626088
 20
-939.397683
 30
0.0
 70
0
  0
VERTEX
  5
84
  8
1
 10
-3089.268696
 20
-938.610883
 30
0.0
 70
0
  0
VERTEX
  5
85
  8
1
 10
-3073.967784
 20
-937.826987
 30
0.0
 70
0
  0
VERTEX
  5
86
  8
1
 10
-3058.646317
 20
-937.042051
 30
0.0
 70
0
  0
VERTEX
  5
87
  8
1
 10
-3043.345359
 20
-936.258174
 30
0.0
 70
0
  0
VERTEX
  5
88
  8
1
 10
-3028.061451
 20
-935.475171
 30
0.0
 70
0
  0
VERTEX
  5
89
  8
1
 10
-3013.172988
 20
-934.712423
 30
0.0
 70
0
  0
VERTEX
  5
8A
  8
1
 10
-3009.481506
 20
-934.523239
 30
0.0
 70
0
  0
VERTEX
  5
8B
  8
1
 10
-3010.047302
 20
-934.554138
 30
0.0
 70
0
  0
VERTEX
  5
8C
  8
1
 10
-2994.389638
 20
-932.336761
 30
0.0
 70
0
  0
VERTEX
  5
8D
  8
1
 10
-2979.452522
 20
-930.123599
 30
0.0
 70
0
  0
VERTEX
  5
8E
  8
1
 10
-2964.163262
 20
-927.72343
 30
0.0
 70
0
  0
VERTEX
  5
8F
  8
1
 10
-2949.111089
 20
-925.225665
 30
0.0
 70
0
  0
VERTEX
  5
90
  8
1
 10
-2933.865029
 20
-922.563307
 30
0.0
 70
0
  0
VERTEX
  5
91
  8
1
 10
-2918.768151
 20
-919.773147
 30
0.0
 70
0
  0
VERTEX
  5
92
  8
1
 10
-2903.5826
 20
-916.785034
 30
0.0
 70
0
  0
VERTEX
  5
93
  8
1
 10
-2888.822576
 20
-913.686173
 30
0.0
 70
0
  0
VERTEX
  5
94
  8
1
 10
-2873.720613
 20
-910.300606
 30
0.0
 70
0
  0
VERTEX
  5
95
  8
1
 10
-2859.002809
 20
-906.785513
 30
0.0
 70
0
  0
VERTEX
  5
96
  8
1
 10
-2844.001812
 20
-902.976941
 30
0.0
 70
0
  0
VERTEX
  5
97
  8
1
 10
-2829.321412
 20
-899.016026
 30
0.0
 70
0
  0
VERTEX
  5
98
  8
1
 10
-2814.442096
 20
-894.756673
 30
0.0
 70
0
  0
VERTEX
  5
99
  8
1
 10
-2799.905118
 20
-890.366635
 30
0.0
 70
0
  0
VERTEX
  5
9A
  8
1
 10
-2785.149819
 20
-885.69692
 30
0.0
 70
0
  0
VERTEX
  5
9B
  8
1
 10
-2770.781223
 20
-880.972155
 30
0.0
 70
0
  0
VERTEX
  5
9C
  8
1
 10
-2756.126593
 20
-875.994772
 30
0.0
 70
0
  0
VERTEX
  5
9D
  8
1
 10
-2741.79453
 20
-870.959755
 30
0.0
 70
0
  0
VERTEX
  5
9E
  8
1
 10
-2727.247664
 20
-865.676867
 30
0.0
 70
0
  0
VERTEX
  5
9F
  8
1
 10
-2718.750916
 20
-862.516251
 30
0.0
 70
0
  0
VERTEX
  5
A0
  8
1
 10
-2712.741843
 20
-860.281061
 30
0.0
 70
0
  0
VERTEX
  5
A1
  8
1
 10
-2697.53418
 20
-854.547195
 30
0.0
 70
0
  0
VERTEX
  5
A2
  8
1
 10
-2690.177307
 20
-858.487625
 30
0.0
 70
0
  0
VERTEX
  5
A3
  8
1
 10
-2688.659795
 20
-866.004656
 30
0.0
 70
0
  0
VERTEX
  5
A4
  8
1
 10
-2687.01513
 20
-872.883954
 30
0.0
 70
0
  0
VERTEX
  5
A5
  8
1
 10
-2685.36437
 20
-878.799647
 30
0.0
 70
0
  0
VERTEX
  5
A6
  8
1
 10
-2683.61991
 20
-884.147053
 30
0.0
 70
0
  0
VERTEX
  5
A7
  8
1
 10
-2681.63545
 20
-889.424706
 30
0.0
 70
0
  0
VERTEX
  5
A8
  8
1
 10
-2679.532865
 20
-894.331454
 30
0.0
 70
0
  0
VERTEX
  5
A9
  8
1
 10
-2677.295306
 20
-898.938337
 30
0.0
 70
0
  0
VERTEX
  5
AA
  8
1
 10
-2674.985622
 20
-903.151106
 30
0.0
 70
0
  0
VERTEX
  5
AB
  8
1
 10
-2672.535342
 20
-907.115172
 30
0.0
 70
0
  0
VERTEX
  5
AC
  8
1
 10
-2669.987907
 20
-910.762936
 30
0.0
 70
0
  0
VERTEX
  5
AD
  8
1
 10
-2667.419843
 20
-914.013452
 30
0.0
 70
0
  0
VERTEX
  5
AE
  8
1
 10
-2664.769527
 20
-916.969641
 30
0.0
 70
0
  0
VERTEX
  5
AF
  8
1
 10
-2662.055961
 20
-919.619768
 30
0.0
 70
0
  0
VERTEX
  5
B0
  8
1
 10
-2659.334295
 20
-921.932705
 30
0.0
 70
0
  0
VERTEX
  5
B1
  8
1
 10
-2656.351386
 20
-924.135639
 30
0.0
 70
0
  0
VERTEX
  5
B2
  8
1
 10
-2652.899046
 20
-926.360598
 30
0.0
 70
0
  0
VERTEX
  5
B3
  8
1
 10
-2649.072431
 20
-928.517748
 30
0.0
 70
0
  0
VERTEX
  5
B4
  8
1
 10
-2644.805545
 20
-930.628421
 30
0.0
 70
0
  0
VERTEX
  5
B5
  8
1
 10
-2640.127872
 20
-932.660286
 30
0.0
 70
0
  0
VERTEX
  5
B6
  8
1
 10
-2634.872692
 20
-934.667584
 30
0.0
 70
0
  0
VERTEX
  5
B7
  8
1
 10
-2628.803428
 20
-936.70851
 30
0.0
 70
0
  0
VERTEX
  5
B8
  8
1
 10
-2622.028061
 20
-938.721399
 30
0.0
 70
0
  0
VERTEX
  5
B9
  8
1
 10
-2614.497944
 20
-940.689463
 30
0.0
 70
0
  0
VERTEX
  5
BA
  8
1
 10
-2605.301616
 20
-942.80794
 30
0.0
 70
0
  0
VERTEX
  5
BB
  8
1
 10
-2598.147278
 20
-944.30069
 30
0.0
 70
0
  0
VERTEX
  5
BC
  8
1
 10
-2583.001712
 20
-947.767634
 30
0.0
 70
0
  0
VERTEX
  5
BD
  8
1
 10
-2567.944904
 20
-951.216267
 30
0.0
 70
0
  0
VERTEX
  5
BE
  8
1
 10
-2553.265686
 20
-954.581044
 30
0.0
 70
0
  0
VERTEX
  5
BF
  8
1
 10
-2538.576513
 20
-957.951206
 30
0.0
 70
0
  0
VERTEX
  5
C0
  8
1
 10
-2523.517453
 20
-961.40967
 30
0.0
 70
0
  0
VERTEX
  5
C1
  8
1
 10
-2508.829728
 20
-964.78629
 30
0.0
 70
0
  0
VERTEX
  5
C2
  8
1
 10
-2493.746798
 20
-968.257305
 30
0.0
 70
0
  0
VERTEX
  5
C3
  8
1
 10
-2479.060513
 20
-971.640286
 30
0.0
 70
0
  0
VERTEX
  5
C4
  8
1
 10
-2464.011784
 20
-975.109671
 30
0.0
 70
0
  0
VERTEX
  5
C5
  8
1
 10
-2449.153657
 20
-978.537293
 30
0.0
 70
0
  0
VERTEX
  5
C6
  8
1
 10
-2448.971252
 20
-978.579407
 30
0.0
 70
0
  0
VERTEX
  5
C7
  8
1
 10
-2436.38916
 20
-981.483307
 30
0.0
 70
0
  0
VERTEX
  5
C8
  8
1
 10
-2437.097063
 20
-997.182254
 30
0.0
 70
0
  0
VERTEX
  5
C9
  8
1
 10
-2437.12204
 20
-997.736664
 30
0.0
 70
0
  0
VERTEX
  5
CA
  8
1
 10
-2437.787906
 20
-1012.501766
 30
0.0
 70
0
  0
VERTEX
  5
CB
  8
1
 10
-2438.479111
 20
-1027.821255
 30
0.0
 70
0
  0
VERTEX
  5
CC
  8
1
 10
-2439.159841
 20
-1042.894506
 30
0.0
 70
0
  0
VERTEX
  5
CD
  8
1
 10
-2439.852298
 20
-1058.21391
 30
0.0
 70
0
  0
VERTEX
  5
CE
  8
1
 10
-2440.535193
 20
-1073.311291
 30
0.0
 70
0
  0
VERTEX
  5
CF
  8
1
 10
-2441.228585
 20
-1088.630676
 30
0.0
 70
0
  0
VERTEX
  5
D0
  8
1
 10
-2441.918206
 20
-1103.855695
 30
0.0
 70
0
  0
VERTEX
  5
D1
  8
1
 10
-2442.612638
 20
-1119.175036
 30
0.0
 70
0
  0
VERTEX
  5
D2
  8
1
 10
-2443.308615
 20
-1134.515936
 30
0.0
 70
0
  0
VERTEX
  5
D3
  8
1
 10
-2444.004218
 20
-1149.835227
 30
0.0
 70
0
  0
VERTEX
  5
D4
  8
1
 10
-2444.703739
 20
-1165.226166
 30
0.0
 70
0
  0
VERTEX
  5
D5
  8
1
 10
-2445.400699
 20
-1180.545388
 30
0.0
 70
0
  0
VERTEX
  5
D6
  8
1
 10
-2445.86853
 20
-1190.819244
 30
0.0
 70
0
  0
VERTEX
  5
D7
  8
1
 10
-2446.098355
 20
-1195.864595
 30
0.0
 70
0
  0
VERTEX
  5
D8
  8
1
 10
-2446.792858
 20
-1211.099708
 30
0.0
 70
0
  0
VERTEX
  5
D9
  8
1
 10
-2447.491824
 20
-1226.418845
 30
0.0
 70
0
  0
VERTEX
  5
DA
  8
1
 10
-2448.191366
 20
-1241.737966
 30
0.0
 70
0
  0
VERTEX
  5
DB
  8
1
 10
-2448.900604
 20
-1257.262955
 30
0.0
 70
0
  0
VERTEX
  5
DC
  8
1
 10
-2461.656647
 20
-1258.197632
 30
0.0
 70
0
  0
VERTEX
  5
DD
  8
1
 10
-2462.286589
 20
-1258.243791
 30
0.0
 70
0
  0
VERTEX
  5
DE
  8
1
 10
-2477.378463
 20
-1259.288541
 30
0.0
 70
0
  0
VERTEX
  5
DF
  8
1
 10
-2492.701914
 20
-1260.274241
 30
0.0
 70
0
  0
VERTEX
  5
E0
  8
1
 10
-2507.750163
 20
-1261.141321
 30
0.0
 70
0
  0
VERTEX
  5
E1
  8
1
 10
-2523.022666
 20
-1261.893475
 30
0.0
 70
0
  0
VERTEX
  5
E2
  8
1
 10
-2538.084113
 20
-1262.490499
 30
0.0
 70
0
  0
VERTEX
  5
E3
  8
1
 10
-2553.584037
 20
-1262.950612
 30
0.0
 70
0
  0
VERTEX
  5
E4
  8
1
 10
-2568.654335
 20
-1263.249316
 30
0.0
 70
0
  0
VERTEX
  5
E5
  8
1
 10
-2584.128001
 20
-1263.412658
 30
0.0
 70
0
  0
VERTEX
  5
E6
  8
1
 10
-2599.201147
 20
-1263.442685
 30
0.0
 70
0
  0
VERTEX
  5
E7
  8
1
 10
-2614.595274
 20
-1263.352839
 30
0.0
 70
0
  0
VERTEX
  5
E8
  8
1
 10
-2629.667223
 20
-1263.157545
 30
0.0
 70
0
  0
VERTEX
  5
E9
  8
1
 10
-2645.121547
 20
-1262.858013
 30
0.0
 70
0
  0
VERTEX
  5
EA
  8
1
 10
-2660.189842
 20
-1262.475539
 30
0.0
 70
0
  0
VERTEX
  5
EB
  8
1
 10
-2675.434473
 20
-1261.987932
 30
0.0
 70
0
  0
VERTEX
  5
EC
  8
1
 10
-2690.49606
 20
-1261.395472
 30
0.0
 70
0
  0
VERTEX
  5
ED
  8
1
 10
-2705.88264
 20
-1260.673513
 30
0.0
 70
0
  0
VERTEX
  5
EE
  8
1
 10
-2720.93375
 20
-1259.859754
 30
0.0
 70
0
  0
VERTEX
  5
EF
  8
1
 10
-2736.021998
 20
-1258.972568
 30
0.0
 70
0
  0
VERTEX
  5
F0
  8
1
 10
-2751.067231
 20
-1258.055765
 30
0.0
 70
0
  0
VERTEX
  5
F1
  8
1
 10
-2766.142932
 20
-1257.132768
 30
0.0
 70
0
  0
VERTEX
  5
F2
  8
1
 10
-2781.188717
 20
-1256.226352
 30
0.0
 70
0
  0
VERTEX
  5
F3
  8
1
 10
-2796.494699
 20
-1255.314798
 30
0.0
 70
0
  0
VERTEX
  5
F4
  8
1
 10
-2811.541302
 20
-1254.421055
 30
0.0
 70
0
  0
VERTEX
  5
F5
  8
1
 10
-2826.59584
 20
-1253.530407
 30
0.0
 70
0
  0
VERTEX
  5
F6
  8
1
 10
-2841.642971
 20
-1252.646363
 30
0.0
 70
0
  0
VERTEX
  5
F7
  8
1
 10
-2857.131466
 20
-1251.742094
 30
0.0
 70
0
  0
VERTEX
  5
F8
  8
1
 10
-2872.179144
 20
-1250.867891
 30
0.0
 70
0
  0
VERTEX
  5
F9
  8
1
 10
-2887.391848
 20
-1249.988438
 30
0.0
 70
0
  0
VERTEX
  5
FA
  8
1
 10
-2902.440122
 20
-1249.122987
 30
0.0
 70
0
  0
VERTEX
  5
FB
  8
1
 10
-2917.897594
 20
-1248.238534
 30
0.0
 70
0
  0
VERTEX
  5
FC
  8
1
 10
-2932.946341
 20
-1247.381689
 30
0.0
 70
0
  0
VERTEX
  5
FD
  8
1
 10
-2948.154912
 20
-1246.51981
 30
0.0
 70
0
  0
VERTEX
  5
FE
  8
1
 10
-2963.204097
 20
-1245.671072
 30
0.0
 70
0
  0
VERTEX
  5
FF
  8
1
 10
-2978.288126
 20
-1244.825489
 30
0.0
 70
0
  0
VERTEX
  5
100
  8
1
 10
-2993.736439
 20
-1243.965324
 30
0.0
 70
0
  0
SEQEND
  5
33
  8
1
  0
POLYLINE
  5
101
  8
14
 66
1
 10
0.0
 20
0.0
 30
0.0
 70
1
  0
VERTEX
  5
103
  8
14
 10
-3008.834839
 20
-1230.409622
 30
0.0
 70
0
  0
VERTEX
  5
104
  8
14
 10
-3008.834839
 20
-1230.409622
 30
0.0
 70
0
  0
VERTEX
  5
105
  8
14
 10
-3019.792089
 20
-1230.015131
 30
0.0
 70
0
  0
VERTEX
  5
106
  8
14
 10
-3034.652041
 20
-1229.465402
 30
0.0
 70
0
  0
VERTEX
  5
107
  8
14
 10
-3051.688362
 20
-1228.81995
 30
0.0
 70
0
  0
VERTEX
  5
108
  8
14
 10
-3068.57544
 20
-1228.16599
 30
0.0
 70
0
  0
VERTEX
  5
109
  8
14
 10
-3083.659679
 20
-1227.570542
 30
0.0
 70
0
  0
VERTEX
  5
10A
  8
14
 10
-3100.000101
 20
-1226.9137
 30
0.0
 70
0
  0
VERTEX
  5
10B
  8
14
 10
-3117.464285
 20
-1226.198095
 30
0.0
 70
0
  0
VERTEX
  5
10C
  8
14
 10
-3135.919812
 20
-1225.426362
 30
0.0
 70
0
  0
VERTEX
  5
10D
  8
14
 10
-3155.234265
 20
-1224.601132
 30
0.0
 70
0
  0
VERTEX
  5
10E
  8
14
 10
-3170.204125
 20
-1223.948688
 30
0.0
 70
0
  0
VERTEX
  5
10F
  8
14
 10
-3185.52678
 20
-1223.268744
 30
0.0
 70
0
  0
VERTEX
  5
110
  8
14
 10
-3201.146366
 20
-1222.562411
 30
0.0
 70
0
  0
VERTEX
  5
111
  8
14
 10
-3217.00702
 20
-1221.830801
 30
0.0
 70
0
  0
VERTEX
  5
112
  8
14
 10
-3233.052876
 20
-1221.075025
 30
0.0
 70
0
  0
VERTEX
  5
113
  8
14
 10
-3249.228071
 20
-1220.296193
 30
0.0
 70
0
  0
VERTEX
  5
114
  8
14
 10
-3270.899602
 20
-1219.223808
 30
0.0
 70
0
  0
VERTEX
  5
115
  8
14
 10
-3284.67897
 20
-1218.523644
 30
0.0
 70
0
  0
VERTEX
  5
116
  8
14
 10
-3300.857114
 20
-1217.68444
 30
0.0
 70
0
  0
VERTEX
  5
117
  8
14
 10
-3316.859063
 20
-1216.837677
 30
0.0
 70
0
  0
VERTEX
  5
118
  8
14
 10
-3332.589979
 20
-1215.990341
 30
0.0
 70
0
  0
VERTEX
  5
119
  8
14
 10
-3347.955082
 20
-1215.149416
 30
0.0
 70
0
  0
VERTEX
  5
11A
  8
14
 10
-3367.708916
 20
-1214.050229
 30
0.0
 70
0
  0
VERTEX
  5
11B
  8
14
 10
-3386.419061
 20
-1212.991414
 30
0.0
 70
0
  0
VERTEX
  5
11C
  8
14
 10
-3403.860767
 20
-1211.989527
 30
0.0
 70
0
  0
VERTEX
  5
11D
  8
14
 10
-3419.809272
 20
-1211.061126
 30
0.0
 70
0
  0
VERTEX
  5
11E
  8
14
 10
-3437.302679
 20
-1210.029187
 30
0.0
 70
0
  0
VERTEX
  5
11F
  8
14
 10
-3454.133411
 20
-1209.022105
 30
0.0
 70
0
  0
VERTEX
  5
120
  8
14
 10
-3471.653748
 20
-1207.955093
 30
0.0
 70
0
  0
VERTEX
  5
121
  8
14
 10
-3471.653748
 20
-1207.955093
 30
0.0
 70
0
  0
VERTEX
  5
122
  8
14
 10
-3471.592409
 20
-1190.313562
 30
0.0
 70
0
  0
VERTEX
  5
123
  8
14
 10
-3471.535426
 20
-1173.931878
 30
0.0
 70
0
  0
VERTEX
  5
124
  8
14
 10
-3471.481882
 20
-1158.544409
 30
0.0
 70
0
  0
VERTEX
  5
125
  8
14
 10
-3471.422176
 20
-1141.392501
 30
0.0
 70
0
  0
VERTEX
  5
126
  8
14
 10
-3471.367416
 20
-1125.667832
 30
0.0
 70
0
  0
VERTEX
  5
127
  8
14
 10
-3471.310507
 20
-1109.33321
 30
0.0
 70
0
  0
VERTEX
  5
128
  8
14
 10
-3471.25688
 20
-1093.948315
 30
0.0
 70
0
  0
VERTEX
  5
129
  8
14
 10
-3471.198899
 20
-1077.323971
 30
0.0
 70
0
  0
VERTEX
  5
12A
  8
14
 10
-3471.141837
 20
-1060.971441
 30
0.0
 70
0
  0
VERTEX
  5
12B
  8
14
 10
-3471.086647
 20
-1045.162595
 30
0.0
 70
0
  0
VERTEX
  5
12C
  8
14
 10
-3471.034284
 20
-1030.169232
 30
0.0
 70
0
  0
VERTEX
  5
12D
  8
14
 10
-3470.978039
 20
-1014.070343
 30
0.0
 70
0
  0
VERTEX
  5
12E
  8
14
 10
-3470.922006
 20
-998.037581
 30
0.0
 70
0
  0
VERTEX
  5
12F
  8
14
 10
-3470.867647
 20
-982.489421
 30
0.0
 70
0
  0
VERTEX
  5
130
  8
14
 10
-3470.827026
 20
-970.875473
 30
0.0
 70
0
  0
VERTEX
  5
131
  8
14
 10
-3470.827026
 20
-970.875473
 30
0.0
 70
0
  0
VERTEX
  5
132
  8
14
 10
-3450.975662
 20
-969.858453
 30
0.0
 70
0
  0
VERTEX
  5
133
  8
14
 10
-3428.19171
 20
-968.691191
 30
0.0
 70
0
  0
VERTEX
  5
134
  8
14
 10
-3406.588543
 20
-967.584423
 30
0.0
 70
0
  0
VERTEX
  5
135
  8
14
 10
-3390.353564
 20
-966.752677
 30
0.0
 70
0
  0
VERTEX
  5
136
  8
14
 10
-3372.849692
 20
-965.855923
 30
0.0
 70
0
  0
VERTEX
  5
137
  8
14
 10
-3354.246085
 20
-964.902828
 30
0.0
 70
0
  0
VERTEX
  5
138
  8
14
 10
-3334.711944
 20
-963.90206
 30
0.0
 70
0
  0
VERTEX
  5
139
  8
14
 10
-3314.416459
 20
-962.862286
 30
0.0
 70
0
  0
VERTEX
  5
13A
  8
14
 10
-3293.528817
 20
-961.792176
 30
0.0
 70
0
  0
VERTEX
  5
13B
  8
14
 10
-3272.218225
 20
-960.700397
 30
0.0
 70
0
  0
VERTEX
  5
13C
  8
14
 10
-3250.653832
 20
-959.595616
 30
0.0
 70
0
  0
VERTEX
  5
13D
  8
14
 10
-3229.004828
 20
-958.486499
 30
0.0
 70
0
  0
VERTEX
  5
13E
  8
14
 10
-3207.440455
 20
-957.381719
 30
0.0
 70
0
  0
VERTEX
  5
13F
  8
14
 10
-3186.129865
 20
-956.28994
 30
0.0
 70
0
  0
VERTEX
  5
140
  8
14
 10
-3165.242208
 20
-955.219829
 30
0.0
 70
0
  0
VERTEX
  5
141
  8
14
 10
-3144.946745
 20
-954.180057
 30
0.0
 70
0
  0
VERTEX
  5
142
  8
14
 10
-3125.412627
 20
-953.17929
 30
0.0
 70
0
  0
VERTEX
  5
143
  8
14
 10
-3106.809009
 20
-952.226194
 30
0.0
 70
0
  0
VERTEX
  5
144
  8
14
 10
-3089.305145
 20
-951.32944
 30
0.0
 70
0
  0
VERTEX
  5
145
  8
14
 10
-3073.07016
 20
-950.497694
 30
0.0
 70
0
  0
VERTEX
  5
146
  8
14
 10
-3058.2733
 20
-949.739625
 30
0.0
 70
0
  0
VERTEX
  5
147
  8
14
 10
-3039.144516
 20
-948.759624
 30
0.0
 70
0
  0
VERTEX
  5
148
  8
14
 10
-3024.203151
 20
-947.994152
 30
0.0
 70
0
  0
VERTEX
  5
149
  8
14
 10
-3010.157076
 20
-947.274547
 30
0.0
 70
0
  0
VERTEX
  5
14A
  8
14
 10
-3008.831787
 20
-947.20665
 30
0.0
 70
0
  0
VERTEX
  5
14B
  8
14
 10
-3008.831787
 20
-947.20665
 30
0.0
 70
0
  0
VERTEX
  5
14C
  8
14
 10
-2991.968093
 20
-944.840154
 30
0.0
 70
0
  0
VERTEX
  5
14D
  8
14
 10
-2975.90557
 20
-942.429527
 30
0.0
 70
0
  0
VERTEX
  5
14E
  8
14
 10
-2959.995517
 20
-939.908644
 30
0.0
 70
0
  0
VERTEX
  5
14F
  8
14
 10
-2944.307414
 20
-937.288134
 30
0.0
 70
0
  0
VERTEX
  5
150
  8
14
 10
-2927.622849
 20
-934.339426
 30
0.0
 70
0
  0
VERTEX
  5
151
  8
14
 10
-2912.552425
 20
-931.512112
 30
0.0
 70
0
  0
VERTEX
  5
152
  8
14
 10
-2897.434095
 20
-928.491438
 30
0.0
 70
0
  0
VERTEX
  5
153
  8
14
 10
-2882.25787
 20
-925.250758
 30
0.0
 70
0
  0
VERTEX
  5
154
  8
14
 10
-2867.125726
 20
-921.802943
 30
0.0
 70
0
  0
VERTEX
  5
155
  8
14
 10
-2852.043597
 20
-918.143305
 30
0.0
 70
0
  0
VERTEX
  5
156
  8
14
 10
-2837.017414
 20
-914.267158
 30
0.0
 70
0
  0
VERTEX
  5
157
  8
14
 10
-2822.053054
 20
-910.1698
 30
0.0
 70
0
  0
VERTEX
  5
158
  8
14
 10
-2805.688398
 20
-905.407571
 30
0.0
 70
0
  0
VERTEX
  5
159
  8
14
 10
-2790.979423
 20
-900.88624
 30
0.0
 70
0
  0
VERTEX
  5
15A
  8
14
 10
-2776.671962
 20
-896.297173
 30
0.0
 70
0
  0
VERTEX
  5
15B
  8
14
 10
-2761.108317
 20
-891.114413
 30
0.0
 70
0
  0
VERTEX
  5
15C
  8
14
 10
-2746.715169
 20
-886.159196
 30
0.0
 70
0
  0
VERTEX
  5
15D
  8
14
 10
-2732.351025
 20
-881.066414
 30
0.0
 70
0
  0
VERTEX
  5
15E
  8
14
 10
-2718.114564
 20
-875.872723
 30
0.0
 70
0
  0
VERTEX
  5
15F
  8
14
 10
-2703.87085
 20
-870.503387
 30
0.0
 70
0
  0
VERTEX
  5
160
  8
14
 10
-2703.87085
 20
-870.503387
 30
0.0
 70
0
  0
VERTEX
  5
161
  8
14
 10
-2702.658142
 20
-876.161571
 30
0.0
 70
0
  0
VERTEX
  5
162
  8
14
 10
-2700.970837
 20
-882.440362
 30
0.0
 70
0
  0
VERTEX
  5
163
  8
14
 10
-2699.138696
 20
-888.224517
 30
0.0
 70
0
  0
VERTEX
  5
164
  8
14
 10
-2697.058897
 20
-893.938232
 30
0.0
 70
0
  0
VERTEX
  5
165
  8
14
 10
-2694.519139
 20
-900.02717
 30
0.0
 70
0
  0
VERTEX
  5
166
  8
14
 10
-2691.89292
 20
-905.539507
 30
0.0
 70
0
  0
VERTEX
  5
167
  8
14
 10
-2689.323761
 20
-910.31781
 30
0.0
 70
0
  0
VERTEX
  5
168
  8
14
 10
-2686.445876
 20
-915.075614
 30
0.0
 70
0
  0
VERTEX
  5
169
  8
14
 10
-2683.244986
 20
-919.746748
 30
0.0
 70
0
  0
VERTEX
  5
16A
  8
14
 10
-2680.320521
 20
-923.525435
 30
0.0
 70
0
  0
VERTEX
  5
16B
  8
14
 10
-2677.153562
 20
-927.159699
 30
0.0
 70
0
  0
VERTEX
  5
16C
  8
14
 10
-2673.735837
 20
-930.61126
 30
0.0
 70
0
  0
VERTEX
  5
16D
  8
14
 10
-2670.731259
 20
-933.285998
 30
0.0
 70
0
  0
VERTEX
  5
16E
  8
14
 10
-2666.034363
 20
-936.891591
 30
0.0
 70
0
  0
VERTEX
  5
16F
  8
14
 10
-2661.864798
 20
-939.636204
 30
0.0
 70
0
  0
VERTEX
  5
170
  8
14
 10
-2657.494569
 20
-942.159536
 30
0.0
 70
0
  0
VERTEX
  5
171
  8
14
 10
-2652.953318
 20
-944.475757
 30
0.0
 70
0
  0
VERTEX
  5
172
  8
14
 10
-2647.319763
 20
-947.001811
 30
0.0
 70
0
  0
VERTEX
  5
173
  8
14
 10
-2641.533785
 20
-949.274551
 30
0.0
 70
0
  0
VERTEX
  5
174
  8
14
 10
-2634.659112
 20
-951.638615
 30
0.0
 70
0
  0
VERTEX
  5
175
  8
14
 10
-2627.877052
 20
-953.687763
 30
0.0
 70
0
  0
VERTEX
  5
176
  8
14
 10
-2619.129712
 20
-956.017363
 30
0.0
 70
0
  0
VERTEX
  5
177
  8
14
 10
-2609.779134
 20
-958.218509
 30
0.0
 70
0
  0
VERTEX
  5
178
  8
14
 10
-2601.566467
 20
-959.933853
 30
0.0
 70
0
  0
VERTEX
  5
179
  8
14
 10
-2584.847992
 20
-963.760526
 30
0.0
 70
0
  0
VERTEX
  5
17A
  8
14
 10
-2569.081794
 20
-967.372423
 30
0.0
 70
0
  0
VERTEX
  5
17B
  8
14
 10
-2553.44053
 20
-970.958575
 30
0.0
 70
0
  0
VERTEX
  5
17C
  8
14
 10
-2538.114268
 20
-974.475579
 30
0.0
 70
0
  0
VERTEX
  5
17D
  8
14
 10
-2522.200331
 20
-978.131256
 30
0.0
 70
0
  0
VERTEX
  5
17E
  8
14
 10
-2505.902786
 20
-981.879697
 30
0.0
 70
0
  0
VERTEX
  5
17F
  8
14
 10
-2490.707128
 20
-985.378336
 30
0.0
 70
0
  0
VERTEX
  5
180
  8
14
 10
-2475.501817
 20
-988.88213
 30
0.0
 70
0
  0
VERTEX
  5
181
  8
14
 10
-2460.901758
 20
-992.248983
 30
0.0
 70
0
  0
VERTEX
  5
182
  8
14
 10
-2449.703979
 20
-994.833145
 30
0.0
 70
0
  0
VERTEX
  5
183
  8
14
 10
-2449.702911
 20
-994.807892
 30
0.0
 70
0
  0
VERTEX
  5
184
  8
14
 10
-2449.703979
 20
-994.833145
 30
0.0
 70
0
  0
VERTEX
  5
185
  8
14
 10
-2450.462754
 20
-1011.661006
 30
0.0
 70
0
  0
VERTEX
  5
186
  8
14
 10
-2451.216155
 20
-1028.353851
 30
0.0
 70
0
  0
VERTEX
  5
187
  8
14
 10
-2451.987627
 20
-1045.43284
 30
0.0
 70
0
  0
VERTEX
  5
188
  8
14
 10
-2452.773871
 20
-1062.824933
 30
0.0
 70
0
  0
VERTEX
  5
189
  8
14
 10
-2453.528397
 20
-1079.50228
 30
0.0
 70
0
  0
VERTEX
  5
18A
  8
14
 10
-2454.217413
 20
-1094.720222
 30
0.0
 70
0
  0
VERTEX
  5
18B
  8
14
 10
-2454.939472
 20
-1110.655835
 30
0.0
 70
0
  0
VERTEX
  5
18C
  8
14
 10
-2455.688905
 20
-1127.181804
 30
0.0
 70
0
  0
VERTEX
  5
18D
  8
14
 10
-2456.460042
 20
-1144.170761
 30
0.0
 70
0
  0
VERTEX
  5
18E
  8
14
 10
-2457.247214
 20
-1161.495391
 30
0.0
 70
0
  0
VERTEX
  5
18F
  8
14
 10
-2458.04475
 20
-1179.028362
 30
0.0
 70
0
  0
VERTEX
  5
190
  8
14
 10
-2458.555298
 20
-1190.240555
 30
0.0
 70
0
  0
VERTEX
  5
191
  8
14
 10
-2458.822417
 20
-1196.103424
 30
0.0
 70
0
  0
VERTEX
  5
192
  8
14
 10
-2459.597512
 20
-1213.102612
 30
0.0
 70
0
  0
VERTEX
  5
193
  8
14
 10
-2460.276044
 20
-1227.971692
 30
0.0
 70
0
  0
VERTEX
  5
194
  8
14
 10
-2460.952588
 20
-1242.78688
 30
0.0
 70
0
  0
VERTEX
  5
195
  8
14
 10
-2461.07254
 20
-1245.412292
 30
0.0
 70
0
  0
VERTEX
  5
196
  8
14
 10
-2461.07254
 20
-1245.412292
 30
0.0
 70
0
  0
VERTEX
  5
197
  8
14
 10
-2468.076535
 20
-1245.928995
 30
0.0
 70
0
  0
VERTEX
  5
198
  8
14
 10
-2483.200277
 20
-1246.958946
 30
0.0
 70
0
  0
VERTEX
  5
199
  8
14
 10
-2497.915105
 20
-1247.865974
 30
0.0
 70
0
  0
VERTEX
  5
19A
  8
14
 10
-2514.636137
 20
-1248.775755
 30
0.0
 70
0
  0
VERTEX
  5
19B
  8
14
 10
-2532.365196
 20
-1249.572483
 30
0.0
 70
0
  0
VERTEX
  5
19C
  8
14
 10
-2547.28838
 20
-1250.079392
 30
0.0
 70
0
  0
VERTEX
  5
19D
  8
14
 10
-2562.960504
 20
-1250.451118
 30
0.0
 70
0
  0
VERTEX
  5
19E
  8
14
 10
-2578.637084
 20
-1250.669599
 30
0.0
 70
0
  0
VERTEX
  5
19F
  8
14
 10
-2594.316539
 20
-1250.746087
 30
0.0
 70
0
  0
VERTEX
  5
1A0
  8
14
 10
-2609.997177
 20
-1250.691835
 30
0.0
 70
0
  0
VERTEX
  5
1A1
  8
14
 10
-2625.677417
 20
-1250.518098
 30
0.0
 70
0
  0
VERTEX
  5
1A2
  8
14
 10
-2641.355643
 20
-1250.236127
 30
0.0
 70
0
  0
VERTEX
  5
1A3
  8
14
 10
-2657.986237
 20
-1249.829426
 30
0.0
 70
0
  0
VERTEX
  5
1A4
  8
14
 10
-2673.656051
 20
-1249.340656
 30
0.0
 70
0
  0
VERTEX
  5
1A5
  8
14
 10
-2689.32065
 20
-1248.73817
 30
0.0
 70
0
  0
VERTEX
  5
1A6
  8
14
 10
-2706.273279
 20
-1247.944675
 30
0.0
 70
0
  0
VERTEX
  5
1A7
  8
14
 10
-2721.925696
 20
-1247.083765
 30
0.0
 70
0
  0
VERTEX
  5
1A8
  8
14
 10
-2737.574581
 20
-1246.148658
 30
0.0
 70
0
  0
VERTEX
  5
1A9
  8
14
 10
-2754.324042
 20
-1245.127908
 30
0.0
 70
0
  0
VERTEX
  5
1AA
  8
14
 10
-2769.938598
 20
-1244.183131
 30
0.0
 70
0
  0
VERTEX
  5
1AB
  8
14
 10
-2785.473542
 20
-1243.249859
 30
0.0
 70
0
  0
VERTEX
  5
1AC
  8
14
 10
-2800.88017
 20
-1242.330461
 30
0.0
 70
0
  0
VERTEX
  5
1AD
  8
14
 10
-2816.109777
 20
-1241.427309
 30
0.0
 70
0
  0
VERTEX
  5
1AE
  8
14
 10
-2833.235805
 20
-1240.41807
 30
0.0
 70
0
  0
VERTEX
  5
1AF
  8
14
 10
-2849.994306
 20
-1239.436684
 30
0.0
 70
0
  0
VERTEX
  5
1B0
  8
14
 10
-2866.312579
 20
-1238.486691
 30
0.0
 70
0
  0
VERTEX
  5
1B1
  8
14
 10
-2882.117922
 20
-1237.57163
 30
0.0
 70
0
  0
VERTEX
  5
1B2
  8
14
 10
-2897.337632
 20
-1236.695039
 30
0.0
 70
0
  0
VERTEX
  5
1B3
  8
14
 10
-2913.669271
 20
-1235.759265
 30
0.0
 70
0
  0
VERTEX
  5
1B4
  8
14
 10
-2929.064204
 20
-1234.881696
 30
0.0
 70
0
  0
VERTEX
  5
1B5
  8
14
 10
-2944.945144
 20
-1233.981016
 30
0.0
 70
0
  0
VERTEX
  5
1B6
  8
14
 10
-2960.761409
 20
-1233.0887
 30
0.0
 70
0
  0
VERTEX
  5
1B7
  8
14
 10
-2976.969997
 20
-1232.179312
 30
0.0
 70
0
  0
VERTEX
  5
1B8
  8
14
 10
-2992.786589
 20
-1231.297334
 30
0.0
 70
0
  0
SEQEND
  5
102
  8
14
  0
POLYLINE
  5
1B9
  8
8
 66
1
 10
0.0
 20
0.0
 30
0.0
 70
0
  0
VERTEX
  5
1BB
  8
8
 10
-2487.477417
 20
-1033.381119
 30
0.0
 70
0
  0
VERTEX
  5
1BC
  8
8
 10
-2488.749697
 20
-1052.698088
 30
0.0
 70
0
  0
VERTEX
  5
1BD
  8
8
 10
-2489.88392
 20
-1069.91894
 30
0.0
 70
0
  0
VERTEX
  5
1BE
  8
8
 10
-2490.990199
 20
-1086.715515
 30
0.0
 70
0
  0
VERTEX
  5
1BF
  8
8
 10
-2492.179597
 20
-1104.774095
 30
0.0
 70
0
  0
VERTEX
  5
1C0
  8
8
 10
-2493.392744
 20
-1123.193235
 30
0.0
 70
0
  0
VERTEX
  5
1C1
  8
8
 10
-2494.570268
 20
-1141.071526
 30
0.0
 70
0
  0
VERTEX
  5
1C2
  8
8
 10
-2495.652798
 20
-1157.507525
 30
0.0
 70
0
  0
VERTEX
  5
1C3
  8
8
 10
-2496.742848
 20
-1174.057699
 30
0.0
 70
0
  0
VERTEX
  5
1C4
  8
8
 10
-2497.67315
 20
-1188.182434
 30
0.0
 70
0
  0
VERTEX
  5
1C5
  8
8
 10
-2497.853241
 20
-1190.916748
 30
0.0
 70
0
  0
SEQEND
  5
1BA
  8
8
  0
POLYLINE
  5
1C6
  8
8
 66
1
 10
0.0
 20
0.0
 30
0.0
 70
0
  0
VERTEX
  5
1C8
  8
8
 10
-2606.329041
 20
-970.297089
 30
0.0
 70
0
  0
VERTEX
  5
1C9
  8
8
 10
-2630.493774
 20
-1250.27916
 30
0.0
 70
0
  0
SEQEND
  5
1C7
  8
8
  0
POLYLINE
  5
1CA
  8
8
 66
1
 10
0.0
 20
0.0
 30
0.0
 70
0
  0
VERTEX
  5
1CC
  8
8
 10
-3471.24054
 20
-1093.18367
 30
0.0
 70
0
  0
VERTEX
  5
1CD
  8
8
 10
-3453.269896
 20
-1093.174254
 30
0.0
 70
0
  0
VERTEX
  5
1CE
  8
8
 10
-3436.12746
 20
-1093.165569
 30
0.0
 70
0
  0
VERTEX
  5
1CF
  8
8
 10
-3418.823066
 20
-1093.157021
 30
0.0
 70
0
  0
VERTEX
  5
1D0
  8
8
 10
-3398.601519
 20
-1093.147281
 30
0.0
 70
0
  0
VERTEX
  5
1D1
  8
8
 10
-3381.673341
 20
-1093.13932
 30
0.0
 70
0
  0
VERTEX
  5
1D2
  8
8
 10
-3363.353552
 20
-1093.130897
 30
0.0
 70
0
  0
VERTEX
  5
1D3
  8
8
 10
-3343.749021
 20
-1093.122101
 30
0.0
 70
0
  0
VERTEX
  5
1D4
  8
8
 10
-3322.96656
 20
-1093.11302
 30
0.0
 70
0
  0
VERTEX
  5
1D5
  8
8
 10
-3301.11304
 20
-1093.103746
 30
0.0
 70
0
  0
VERTEX
  5
1D6
  8
8
 10
-3278.295256
 20
-1093.094366
 30
0.0
 70
0
  0
VERTEX
  5
1D7
  8
8
 10
-3262.600521
 20
-1093.088098
 30
0.0
 70
0
  0
VERTEX
  5
1D8
  8
8
 10
-3246.556347
 20
-1093.081849
 30
0.0
 70
0
  0
VERTEX
  5
1D9
  8
8
 10
-3230.194424
 20
-1093.075647
 30
0.0
 70
0
  0
VERTEX
  5
1DA
  8
8
 10
-3213.546408
 20
-1093.069517
 30
0.0
 70
0
  0
VERTEX
  5
1DB
  8
8
 10
-3196.643956
 20
-1093.063485
 30
0.0
 70
0
  0
VERTEX
  5
1DC
  8
8
 10
-3179.518726
 20
-1093.057579
 30
0.0
 70
0
  0
VERTEX
  5
1DD
  8
8
 10
-3162.202373
 20
-1093.051825
 30
0.0
 70
0
  0
VERTEX
  5
1DE
  8
8
 10
-3144.726593
 20
-1093.046248
 30
0.0
 70
0
  0
VERTEX
  5
1DF
  8
8
 10
-3127.122967
 20
-1093.040877
 30
0.0
 70
0
  0
VERTEX
  5
1E0
  8
8
 10
-3109.423189
 20
-1093.035736
 30
0.0
 70
0
  0
VERTEX
  5
1E1
  8
8
 10
-3091.658915
 20
-1093.030853
 30
0.0
 70
0
  0
VERTEX
  5
1E2
  8
8
 10
-3073.861804
 20
-1093.026254
 30
0.0
 70
0
  0
VERTEX
  5
1E3
  8
8
 10
-3055.401059
 20
-1093.021806
 30
0.0
 70
0
  0
VERTEX
  5
1E4
  8
8
 10
-3037.64286
 20
-1093.017824
 30
0.0
 70
0
  0
VERTEX
  5
1E5
  8
8
 10
-3019.961361
 20
-1093.014131
 30
0.0
 70
0
  0
VERTEX
  5
1E6
  8
8
 10
-3002.394932
 20
-1093.010718
 30
0.0
 70
0
  0
VERTEX
  5
1E7
  8
8
 10
-2984.982055
 20
-1093.007572
 30
0.0
 70
0
  0
VERTEX
  5
1E8
  8
8
 10
-2967.761025
 20
-1093.004683
 30
0.0
 70
0
  0
VERTEX
  5
1E9
  8
8
 10
-2950.770138
 20
-1093.002041
 30
0.0
 70
0
  0
VERTEX
  5
1EA
  8
8
 10
-2934.047909
 20
-1092.999634
 30
0.0
 70
0
  0
VERTEX
  5
1EB
  8
8
 10
-2917.632565
 20
-1092.997451
 30
0.0
 70
0
  0
VERTEX
  5
1EC
  8
8
 10
-2901.562615
 20
-1092.995482
 30
0.0
 70
0
  0
VERTEX
  5
1ED
  8
8
 10
-2885.876292
 20
-1092.993715
 30
0.0
 70
0
  0
VERTEX
  5
1EE
  8
8
 10
-2870.612099
 20
-1092.99214
 30
0.0
 70
0
  0
VERTEX
  5
1EF
  8
8
 10
-2855.808339
 20
-1092.990746
 30
0.0
 70
0
  0
VERTEX
  5
1F0
  8
8
 10
-2834.549851
 20
-1092.988969
 30
0.0
 70
0
  0
VERTEX
  5
1F1
  8
8
 10
-2814.54323
 20
-1092.987539
 30
0.0
 70
0
  0
VERTEX
  5
1F2
  8
8
 10
-2795.917908
 20
-1092.986417
 30
0.0
 70
0
  0
VERTEX
  5
1F3
  8
8
 10
-2778.803383
 20
-1092.985568
 30
0.0
 70
0
  0
VERTEX
  5
1F4
  8
8
 10
-2763.329152
 20
-1092.984954
 30
0.0
 70
0
  0
VERTEX
  5
1F5
  8
8
 10
-2745.472222
 20
-1092.984437
 30
0.0
 70
0
  0
VERTEX
  5
1F6
  8
8
 10
-2731.068548
 20
-1092.984187
 30
0.0
 70
0
  0
VERTEX
  5
1F7
  8
8
 10
-2716.609366
 20
-1092.98412
 30
0.0
 70
0
  0
VERTEX
  5
1F8
  8
8
 10
-2711.645813
 20
-1092.984161
 30
0.0
 70
0
  0
SEQEND
  5
1CB
  8
8
  0
POLYLINE
  5
1F9
  8
8
 66
1
 10
0.0
 20
0.0
 30
0.0
 70
0
  0
VERTEX
  5
1FB
  8
8
 10
-3008.831787
 20
-947.20665
 30
0.0
 70
0
  0
VERTEX
  5
1FC
  8
8
 10
-3008.831787
 20
-963.965528
 30
0.0
 70
0
  0
VERTEX
  5
1FD
  8
8
 10
-3008.831787
 20
-981.724404
 30
0.0
 70
0
  0
VERTEX
  5
1FE
  8
8
 10
-3008.831787
 20
-998.858042
 30
0.0
 70
0
  0
VERTEX
  5
1FF
  8
8
 10
-3008.831787
 20
-1015.400191
 30
0.0
 70
0
  0
VERTEX
  5
200
  8
8
 10
-3008.831787
 20
-1033.29158
 30
0.0
 70
0
  0
VERTEX
  5
201
  8
8
 10
-3008.831787
 20
-1048.982858
 30
0.0
 70
0
  0
VERTEX
  5
202
  8
8
 10
-3008.831787
 20
-1065.171873
 30
0.0
 70
0
  0
VERTEX
  5
203
  8
8
 10
-3008.831787
 20
-1081.659017
 30
0.0
 70
0
  0
VERTEX
  5
204
  8
8
 10
-3008.831787
 20
-1099.788247
 30
0.0
 70
0
  0
VERTEX
  5
205
  8
8
 10
-3008.831787
 20
-1116.24926
 30
0.0
 70
0
  0
VERTEX
  5
206
  8
8
 10
-3008.831787
 20
-1132.381382
 30
0.0
 70
0
  0
VERTEX
  5
207
  8
8
 10
-3008.831787
 20
-1147.979104
 30
0.0
 70
0
  0
VERTEX
  5
208
  8
8
 10
-3008.831787
 20
-1162.836845
 30
0.0
 70
0
  0
VERTEX
  5
209
  8
8
 10
-3008.831787
 20
-1179.399996
 30
0.0
 70
0
  0
VERTEX
  5
20A
  8
8
 10
-3008.831787
 20
-1194.246432
 30
0.0
 70
0
  0
VERTEX
  5
20B
  8
8
 10
-3008.831787
 20
-1208.923663
 30
0.0
 70
0
  0
VERTEX
  5
20C
  8
8
 10
-3008.831787
 20
-1223.881026
 30
0.0
 70
0
  0
VERTEX
  5
20D
  8
8
 10
-3008.831787
 20
-1230.409622
 30
0.0
 70
0
  0
SEQEND
  5
1FA
  8
8
  0
POLYLINE
  5
20E
  8
8
 66
1
 10
0.0
 20
0.0
 30
0.0
 70
0
  0
VERTEX
  5
210
  8
8
 10
-2704.065552
 20
-880.864716
 30
0.0
 70
0
  0
VERTEX
  5
211
  8
8
 10
-2704.956665
 20
-1247.991867
 30
0.0
 70
0
  0
SEQEND
  5
20F
  8
8
  0
POINT
  5
212
  8
4
 10
-3009.292908
 20
-1243.101349
 30
0.0
  0
POINT
  5
213
  8
4
 10
-3471.697693
 20
-1220.675735
 30
0.0
  0
POINT
  5
214
  8
4
 10
-3470.782776
 20
-958.156509
 30
0.0
  0
POINT
  5
215
  8
4
 10
-3009.481506
 20
-934.523239
 30
0.0
  0
POINT
  5
216
  8
4
 10
-2718.750916
 20
-862.516251
 30
0.0
  0
POINT
  5
217
  8
4
 10
-2448.971252
 20
-978.579407
 30
0.0
  0
POINT
  5
218
  8
4
 10
-2437.12204
 20
-997.736664
 30
0.0
  0
POINT
  5
219
  8
4
 10
-2445.86853
 20
-1190.819244
 30
0.0
  0
POINT
  5
21A
  8
4
 10
-2461.656647
 20
-1258.197632
 30
0.0
  0
POINT
  5
21B
  8
4
 10
-3008.834839
 20
-1230.409622
 30
0.0
  0
POINT
  5
21C
  8
4
 10
-3471.653748
 20
-1207.955093
 30
0.0
  0
POINT
  5
21D
  8
4
 10
-3470.827026
 20
-970.875473
 30
0.0
  0
POINT
  5
21E
  8
4
 10
-3008.831787
 20
-947.20665
 30
0.0
  0
POINT
  5
21F
  8
4
 10
-2703.87085
 20
-870.503387
 30
0.0
  0
POINT
  5
220
  8
4
 10
-2449.703979
 20
-994.833145
 30
0.0
  0
POINT
  5
221
  8
4
 10
-2449.703979
 20
-994.833145
 30
0.0
  0
POINT
  5
222
  8
4
 10
-2458.555298
 20
-1190.240555
 30
0.0
  0
POINT
  5
223
  8
4
 10
-2461.07254
 20
-1245.412292
 30
0.0
  0
LINE
  5
224
  8
7
 10
-3387.257385
 20
-1086.681671
 30
0.0
 11
-2519.147034
 21
-1086.681671
 31
0.0
  0
ENDSEC
  0
EOF
