  0
SECTION
  2
HEADER
  9
$ACADVER
  1
AC1009
  9
$DWGCODEPAGE
  3
ANSI_1252
  9
$INSBASE
 10
0.0
 20
0.0
 30
0.0
  9
$EXTMIN
 10
1e+20
 20
1e+20
 30
1e+20
  9
$EXTMAX
 10
-1e+20
 20
-1e+20
 30
-1e+20
  9
$LIMMIN
 10
0.0
 20
0.0
  9
$LIMMAX
 10
420.0
 20
297.0
  9
$ORTHOMODE
 70
0
  9
$REGENMODE
 70
1
  9
$FILLMODE
 70
1
  9
$DRAGMODE
 70
2
  9
$QTEXTMODE
 70
0
  9
$MIRRTEXT
 70
1
  9
$OSMODE
 70
20583
  9
$LTSCALE
 40
1.0
  9
$ATTMODE
 70
1
  9
$TEXTSIZE
 40
2.5
  9
$TRACEWID
 40
1.0
  9
$TEXTSTYLE
  7
Standard
  9
$CLAYER
  8
0
  9
$CELTYPE
  6
ByLayer
  9
$CECOLOR
 62
256
  9
$DIMSCALE
 40
1.0
  9
$DIMASZ
 40
2.5
  9
$DIMEXO
 40
0.625
  9
$DIMDLI
 40
3.75
  9
$DIMRND
 40
0.0
  9
$DIMDLE
 40
0.0
  9
$DIMEXE
 40
1.25
  9
$DIMTP
 40
0.0
  9
$DIMTM
 40
0.0
  9
$DIMTXT
 40
2.5
  9
$DIMCEN
 40
2.5
  9
$DIMTSZ
 40
0.0
  9
$DIMTOL
 70
0
  9
$DIMLIM
 70
0
  9
$DIMTIH
 70
0
  9
$DIMTOH
 70
0
  9
$DIMSE1
 70
0
  9
$DIMSE2
 70
0
  9
$DIMTAD
 70
1
  9
$DIMZIN
 70
8
  9
$DIMBLK
  1

  9
$DIMASO
 70
1
  9
$DIMSHO
 70
1
  9
$DIMPOST
  1

  9
$DIMAPOST
  1

  9
$DIMALT
 70
0
  9
$DIMALTD
 70
3
  9
$DIMALTF
 40
0.03937007874
  9
$DIMLFAC
 40
1.0
  9
$DIMTOFL
 70
1
  9
$DIMTVP
 40
0.0
  9
$DIMTIX
 70
0
  9
$DIMSOXD
 70
0
  9
$DIMSAH
 70
0
  9
$DIMBLK1
  1

  9
$DIMBLK2
  1

  9
$DIMSTYLE
  2
ISO-25
  9
$DIMCLRD
 70
0
  9
$DIMCLRE
 70
0
  9
$DIMCLRT
 70
0
  9
$DIMTFAC
 40
1.0
  9
$DIMGAP
 40
0.625
  9
$COORDS
 70
1
  9
$ATTDIA
 70
0
  9
$ATTREQ
 70
1
  9
$HANDLING
 70
1
  9
$LUNITS
 70
2
  9
$LUPREC
 70
4
  9
$SKETCHINC
 40
1.0
  9
$FILLETRAD
 40
10.0
  9
$AUNITS
 70
0
  9
$AUPREC
 70
2
  9
$MENU
  1
.
  9
$ELEVATION
 40
0.0
  9
$PELEVATION
 40
0.0
  9
$THICKNESS
 40
0.0
  9
$LIMCHECK
 70
0
  9
$CHAMFERA
 40
0.0
  9
$CHAMFERB
 40
0.0
  9
$SKPOLY
 70
0
  9
$TDCREATE
 40
2461259.4353935183
  9
$TDUPDATE
 40
2461259.4353935183
  9
$TDINDWG
 40
0.0
  9
$TDUSRTIMER
 40
0.0
  9
$USRTIMER
 70
1
  9
$ANGBASE
 50
0.0
  9
$ANGDIR
 70
0
  9
$PDMODE
 70
0
  9
$PDSIZE
 40
0.0
  9
$PLINEWID
 40
0.0
  9
$SPLFRAME
 70
0
  9
$SPLINETYPE
 70
6
  9
$SPLINESEGS
 70
8
  9
$HANDSEED
  5
107
  9
$SURFTAB1
 70
6
  9
$SURFTAB2
 70
6
  9
$SURFTYPE
 70
6
  9
$SURFU
 70
6
  9
$SURFV
 70
6
  9
$UCSNAME
  2

  9
$UCSORG
 10
0.0
 20
0.0
 30
0.0
  9
$UCSXDIR
 10
1.0
 20
0.0
 30
0.0
  9
$UCSYDIR
 10
0.0
 20
1.0
 30
0.0
  9
$PUCSNAME
  2

  9
$PUCSORG
 10
0.0
 20
0.0
 30
0.0
  9
$PUCSXDIR
 10
1.0
 20
0.0
 30
0.0
  9
$PUCSYDIR
 10
0.0
 20
1.0
 30
0.0
  9
$USERI1
 70
0
  9
$USERI2
 70
0
  9
$USERI3
 70
0
  9
$USERI4
 70
0
  9
$USERI5
 70
0
  9
$USERR1
 40
0.0
  9
$USERR2
 40
0.0
  9
$USERR3
 40
0.0
  9
$USERR4
 40
0.0
  9
$USERR5
 40
0.0
  9
$WORLDVIEW
 70
1
  9
$SHADEDGE
 70
3
  9
$SHADEDIF
 70
70
  9
$TILEMODE
 70
1
  9
$MAXACTVP
 70
64
  9
$PLIMCHECK
 70
0
  9
$PEXTMIN
 10
1e+20
 20
1e+20
 30
1e+20
  9
$PEXTMAX
 10
-1e+20
 20
-1e+20
 30
-1e+20
  9
$PLIMMIN
 10
0.0
 20
0.0
  9
$PLIMMAX
 10
420.0
 20
297.0
  9
$UNITMODE
 70
0
  9
$VISRETAIN
 70
1
  9
$PLINEGEN
 70
0
  9
$PSLTSCALE
 70
1
  0
ENDSEC
  0
SECTION
  2
TABLES
  0
TABLE
  2
VPORT
 70
1
  0
VPORT
  5
23
  2
*Active
 70
0
 10
0.0
 20
0.0
 11
1.0
 21
1.0
 12
0.0
 22
0.0
 13
0.0
 23
0.0
 14
0.5
 24
0.5
 15
0.5
 25
0.5
 16
0.0
 26
0.0
 36
1.0
 17
0.0
 27
0.0
 37
0.0
 40
1000.0
 41
1.34
 42
50.0
 43
0.0
 44
0.0
 50
0.0
 51
0.0
 71
0
 72
1000
 73
1
 74
3
 75
0
 76
0
 77
0
 78
0
  0
ENDTAB
  0
TABLE
  2
LTYPE
 70
3
  0
LTYPE
  5
24
  2
ByBlock
 70
0
  3

 72
65
 73
0
 40
0.0
  0
LTYPE
  5
25
  2
ByLayer
 70
0
  3

 72
65
 73
0
 40
0.0
  0
LTYPE
  5
26
  2
Continuous
 70
0
  3

 72
65
 73
0
 40
0.0
  0
ENDTAB
  0
TABLE
  2
LAYER
 70
4
  0
LAYER
  5
27
  2
0
 70
0
 62
7
  6
Continuous
  0
LAYER
  5
28
  2
Defpoints
 70
0
 62
7
  6
Continuous
  0
LAYER
  5
2D
  2
1
 70
0
 62
1
  6
Continuous
  0
LAYER
  5
2E
  2
7
 70
0
 62
7
  6
Continuous
  0
ENDTAB
  0
TABLE
  2
STYLE
 70
1
  0
STYLE
  5
29
  2
Standard
 70
0
 40
0.0
 41
1.0
 50
0.0
 71
0
 42
2.5
  3
txt
  4

  0
ENDTAB
  0
TABLE
  2
VIEW
 70
0
  0
ENDTAB
  0
TABLE
  2
UCS
 70
0
  0
ENDTAB
  0
TABLE
  2
APPID
 70
3
  0
APPID
  5
2A
  2
ACAD
 70
0
  0
APPID
  5
105
  2
HATCHBACKGROUNDCOLOR
 70
0
  0
APPID
  5
106
  2
EZDXF
 70
0
  0
ENDTAB
  0
TABLE
  2
DIMSTYLE
 70
1
  0
DIMSTYLE
105
2B
  2
Standard
 70
0
  3

  4

  5

  6

  7

 40
1.0
 41
2.5
 42
0.625
 43
3.75
 44
1.25
 45
0.0
 46
0.0
 47
0.0
 48
0.0
140
2.5
141
2.5
142
0.0
143
0.03937007874
144
1.0
145
0.0
146
1.0
147
0.625
 71
0
 72
0
 73
0
 74
0
 75
0
 76
0
 77
1
 78
8
170
0
171
3
172
1
173
0
174
0
175
0
176
0
177
0
178
0
  0
ENDTAB
  0
ENDSEC
  0
SECTION
  2
BLOCKS
  0
BLOCK
  5
18
  8
0
  2
$Model_Space
 70
0
 10
0.0
 20
0.0
 30
0.0
  3
$Model_Space
  1

1001
EZDXF
1000
CREATED_BY_EZDXF
1000
1.4.4 @ 2026-08-06T02:26:58.150015+00:00
1000
WRITTEN_BY_EZDXF
1000
1.4.4 @ 2026-08-06T02:26:58.152014+00:00
  0
ENDBLK
  5
19
  8
0
  0
BLOCK
  5
1C
  8
0
  2
$Paper_Space
 70
0
 10
0.0
 20
0.0
 30
0.0
  3
$Paper_Space
  1

  0
ENDBLK
  5
1D
  8
0
  0
ENDSEC
  0
SECTION
  2
ENTITIES
  0
POLYLINE
  5
2F
  8
1
 66
1
 10
0.0
 20
0.0
 30
0.0
 70
1
  0
VERTEX
  5
31
  8
1
 10
-3009.480591
 20
-1250.713959
 30
0.0
 70
0
  0
VERTEX
  5
32
  8
1
 10
-3009.350586
 20
-1250.719223
 30
0.0
 70
0
  0
VERTEX
  5
33
  8
1
 10
-3021.996721
 20
-1250.205318
 30
0.0
 70
0
  0
VERTEX
  5
34
  8
1
 10
-3037.049343
 20
-1249.584506
 30
0.0
 70
0
  0
VERTEX
  5
35
  8
1
 10
-3052.464604
 20
-1248.936455
 30
0.0
 70
0
  0
VERTEX
  5
36
  8
1
 10
-3067.594951
 20
-1248.285947
 30
0.0
 70
0
  0
VERTEX
  5
37
  8
1
 10
-3082.794865
 20
-1247.621073
 30
0.0
 70
0
  0
VERTEX
  5
38
  8
1
 10
-3097.92426
 20
-1246.950109
 30
0.0
 70
0
  0
VERTEX
  5
39
  8
1
 10
-3113.119038
 20
-1246.266099
 30
0.0
 70
0
  0
VERTEX
  5
3A
  8
1
 10
-3128.247387
 20
-1245.574117
 30
0.0
 70
0
  0
VERTEX
  5
3B
  8
1
 10
-3143.32788
 20
-1244.873509
 30
0.0
 70
0
  0
VERTEX
  5
3C
  8
1
 10
-3158.455363
 20
-1244.159874
 30
0.0
 70
0
  0
VERTEX
  5
3D
  8
1
 10
-3173.563811
 20
-1243.435833
 30
0.0
 70
0
  0
VERTEX
  5
3E
  8
1
 10
-3188.690164
 20
-1242.699073
 30
0.0
 70
0
  0
VERTEX
  5
3F
  8
1
 10
-3203.680776
 20
-1241.956652
 30
0.0
 70
0
  0
VERTEX
  5
40
  8
1
 10
-3218.805827
 20
-1241.194597
 30
0.0
 70
0
  0
VERTEX
  5
41
  8
1
 10
-3234.300577
 20
-1240.399712
 30
0.0
 70
0
  0
VERTEX
  5
42
  8
1
 10
-3249.424096
 20
-1239.609179
 30
0.0
 70
0
  0
VERTEX
  5
43
  8
1
 10
-3264.644993
 20
-1238.79761
 30
0.0
 70
0
  0
VERTEX
  5
44
  8
1
 10
-3279.766849
 20
-1237.974521
 30
0.0
 70
0
  0
VERTEX
  5
45
  8
1
 10
-3295.108822
 20
-1237.122671
 30
0.0
 70
0
  0
VERTEX
  5
46
  8
1
 10
-3310.228894
 20
-1236.26736
 30
0.0
 70
0
  0
VERTEX
  5
47
  8
1
 10
-3325.704371
 20
-1235.377108
 30
0.0
 70
0
  0
VERTEX
  5
48
  8
1
 10
-3340.822892
 20
-1234.494182
 30
0.0
 70
0
  0
VERTEX
  5
49
  8
1
 10
-3356.246402
 20
-1233.580632
 30
0.0
 70
0
  0
VERTEX
  5
4A
  8
1
 10
-3371.363443
 20
-1232.673234
 30
0.0
 70
0
  0
VERTEX
  5
4B
  8
1
 10
-3386.788827
 20
-1231.735935
 30
0.0
 70
0
  0
VERTEX
  5
4C
  8
1
 10
-3401.90456
 20
-1230.806995
 30
0.0
 70
0
  0
VERTEX
  5
4D
  8
1
 10
-3417.154002
 20
-1229.859439
 30
0.0
 70
0
  0
VERTEX
  5
4E
  8
1
 10
-3432.268442
 20
-1228.909517
 30
0.0
 70
0
  0
VERTEX
  5
4F
  8
1
 10
-3447.334715
 20
-1227.950111
 30
0.0
 70
0
  0
VERTEX
  5
50
  8
1
 10
-3462.447502
 20
-1226.974756
 30
0.0
 70
0
  0
VERTEX
  5
51
  8
1
 10
-3476.775818
 20
-1226.043243
 30
0.0
 70
0
  0
VERTEX
  5
52
  8
1
 10
-3477.619587
 20
-1225.988378
 30
0.0
 70
0
  0
VERTEX
  5
53
  8
1
 10
-3492.655573
 20
-1225.009752
 30
0.0
 70
0
  0
VERTEX
  5
54
  8
1
 10
-3508.518982
 20
-1223.977356
 30
0.0
 70
0
  0
VERTEX
  5
55
  8
1
 10
-3508.467383
 20
-1208.395211
 30
0.0
 70
0
  0
VERTEX
  5
56
  8
1
 10
-3508.416517
 20
-1193.063175
 30
0.0
 70
0
  0
VERTEX
  5
57
  8
1
 10
-3508.365274
 20
-1177.631707
 30
0.0
 70
0
  0
VERTEX
  5
58
  8
1
 10
-3508.314355
 20
-1162.299694
 30
0.0
 70
0
  0
VERTEX
  5
59
  8
1
 10
-3508.263415
 20
-1146.967681
 30
0.0
 70
0
  0
VERTEX
  5
5A
  8
1
 10
-3508.213423
 20
-1131.933086
 30
0.0
 70
0
  0
VERTEX
  5
5B
  8
1
 10
-3508.162396
 20
-1116.60106
 30
0.0
 70
0
  0
VERTEX
  5
5C
  8
1
 10
-3508.111425
 20
-1101.300027
 30
0.0
 70
0
  0
VERTEX
  5
5D
  8
1
 10
-3508.060291
 20
-1085.967976
 30
0.0
 70
0
  0
VERTEX
  5
5E
  8
1
 10
-3508.009034
 20
-1070.622157
 30
0.0
 70
0
  0
VERTEX
  5
5F
  8
1
 10
-3507.957758
 20
-1055.290118
 30
0.0
 70
0
  0
VERTEX
  5
60
  8
1
 10
-3507.906265
 20
-1039.901668
 30
0.0
 70
0
  0
VERTEX
  5
61
  8
1
 10
-3507.854953
 20
-1024.569651
 30
0.0
 70
0
  0
VERTEX
  5
62
  8
1
 10
-3507.803529
 20
-1009.205607
 30
0.0
 70
0
  0
VERTEX
  5
63
  8
1
 10
-3507.752183
 20
-993.873592
 30
0.0
 70
0
  0
VERTEX
  5
64
  8
1
 10
-3507.70113
 20
-978.656561
 30
0.0
 70
0
  0
VERTEX
  5
65
  8
1
 10
-3507.649483
 20
-963.287575
 30
0.0
 70
0
  0
VERTEX
  5
66
  8
1
 10
-3507.619934
 20
-954.48967
 30
0.0
 70
0
  0
VERTEX
  5
67
  8
1
 10
-3491.737499
 20
-953.670855
 30
0.0
 70
0
  0
VERTEX
  5
68
  8
1
 10
-3476.680256
 20
-952.894579
 30
0.0
 70
0
  0
VERTEX
  5
69
  8
1
 10
-3475.864258
 20
-952.852478
 30
0.0
 70
0
  0
VERTEX
  5
6A
  8
1
 10
-3461.462321
 20
-952.110016
 30
0.0
 70
0
  0
VERTEX
  5
6B
  8
1
 10
-3446.365137
 20
-951.331682
 30
0.0
 70
0
  0
VERTEX
  5
6C
  8
1
 10
-3431.229562
 20
-950.551379
 30
0.0
 70
0
  0
VERTEX
  5
6D
  8
1
 10
-3416.093991
 20
-949.771081
 30
0.0
 70
0
  0
VERTEX
  5
6E
  8
1
 10
-3400.869688
 20
-948.986206
 30
0.0
 70
0
  0
VERTEX
  5
6F
  8
1
 10
-3385.766252
 20
-948.207551
 30
0.0
 70
0
  0
VERTEX
  5
70
  8
1
 10
-3370.630653
 20
-947.42722
 30
0.0
 70
0
  0
VERTEX
  5
71
  8
1
 10
-3355.552481
 20
-946.649847
 30
0.0
 70
0
  0
VERTEX
  5
72
  8
1
 10
-3340.416936
 20
-945.869526
 30
0.0
 70
0
  0
VERTEX
  5
73
  8
1
 10
-3325.356981
 20
-945.09311
 30
0.0
 70
0
  0
VERTEX
  5
74
  8
1
 10
-3310.221385
 20
-944.312797
 30
0.0
 70
0
  0
VERTEX
  5
75
  8
1
 10
-3295.154559
 20
-943.536031
 30
0.0
 70
0
  0
VERTEX
  5
76
  8
1
 10
-3280.018953
 20
-942.755718
 30
0.0
 70
0
  0
VERTEX
  5
77
  8
1
 10
-3265.073809
 20
-941.985224
 30
0.0
 70
0
  0
VERTEX
  5
78
  8
1
 10
-3249.416375
 20
-941.178007
 30
0.0
 70
0
  0
VERTEX
  5
79
  8
1
 10
-3234.356421
 20
-940.401599
 30
0.0
 70
0
  0
VERTEX
  5
7A
  8
1
 10
-3219.220777
 20
-939.621299
 30
0.0
 70
0
  0
VERTEX
  5
7B
  8
1
 10
-3204.400245
 20
-938.857242
 30
0.0
 70
0
  0
VERTEX
  5
7C
  8
1
 10
-3188.742806
 20
-938.050025
 30
0.0
 70
0
  0
VERTEX
  5
7D
  8
1
 10
-3173.742588
 20
-937.276689
 30
0.0
 70
0
  0
VERTEX
  5
7E
  8
1
 10
-3158.607022
 20
-936.496383
 30
0.0
 70
0
  0
VERTEX
  5
7F
  8
1
 10
-3143.951904
 20
-935.74085
 30
0.0
 70
0
  0
VERTEX
  5
80
  8
1
 10
-3128.294427
 20
-934.933636
 30
0.0
 70
0
  0
VERTEX
  5
81
  8
1
 10
-3113.234465
 20
-934.157225
 30
0.0
 70
0
  0
VERTEX
  5
82
  8
1
 10
-3098.0989
 20
-933.376918
 30
0.0
 70
0
  0
VERTEX
  5
83
  8
1
 10
-3083.377259
 20
-932.617952
 30
0.0
 70
0
  0
VERTEX
  5
84
  8
1
 10
-3067.719711
 20
-931.810735
 30
0.0
 70
0
  0
VERTEX
  5
85
  8
1
 10
-3053.041778
 20
-931.054016
 30
0.0
 70
0
  0
VERTEX
  5
86
  8
1
 10
-3037.203254
 20
-930.237453
 30
0.0
 70
0
  0
VERTEX
  5
87
  8
1
 10
-3022.259769
 20
-929.467027
 30
0.0
 70
0
  0
VERTEX
  5
88
  8
1
 10
-3009.485779
 20
-928.808517
 30
0.0
 70
0
  0
VERTEX
  5
89
  8
1
 10
-3010.13916
 20
-928.844376
 30
0.0
 70
0
  0
VERTEX
  5
8A
  8
1
 10
-2994.806892
 20
-926.452203
 30
0.0
 70
0
  0
VERTEX
  5
8B
  8
1
 10
-2979.725951
 20
-924.001306
 30
0.0
 70
0
  0
VERTEX
  5
8C
  8
1
 10
-2964.861566
 20
-921.456212
 30
0.0
 70
0
  0
VERTEX
  5
8D
  8
1
 10
-2949.681784
 20
-918.72136
 30
0.0
 70
0
  0
VERTEX
  5
8E
  8
1
 10
-2934.493182
 20
-915.852558
 30
0.0
 70
0
  0
VERTEX
  5
8F
  8
1
 10
-2919.728606
 20
-912.916123
 30
0.0
 70
0
  0
VERTEX
  5
90
  8
1
 10
-2904.635571
 20
-909.73719
 30
0.0
 70
0
  0
VERTEX
  5
91
  8
1
 10
-2889.736837
 20
-906.402995
 30
0.0
 70
0
  0
VERTEX
  5
92
  8
1
 10
-2874.731977
 20
-902.830881
 30
0.0
 70
0
  0
VERTEX
  5
93
  8
1
 10
-2859.876199
 20
-899.075316
 30
0.0
 70
0
  0
VERTEX
  5
94
  8
1
 10
-2844.977406
 20
-895.083443
 30
0.0
 70
0
  0
VERTEX
  5
95
  8
1
 10
-2830.159471
 20
-890.87636
 30
0.0
 70
0
  0
VERTEX
  5
96
  8
1
 10
-2815.3877
 20
-886.43765
 30
0.0
 70
0
  0
VERTEX
  5
97
  8
1
 10
-2800.727194
 20
-881.798131
 30
0.0
 70
0
  0
VERTEX
  5
98
  8
1
 10
-2786.085621
 20
-876.948136
 30
0.0
 70
0
  0
VERTEX
  5
99
  8
1
 10
-2771.599633
 20
-871.969383
 30
0.0
 70
0
  0
VERTEX
  5
9A
  8
1
 10
-2757.062241
 20
-866.814692
 30
0.0
 70
0
  0
VERTEX
  5
9B
  8
1
 10
-2742.61991
 20
-861.519283
 30
0.0
 70
0
  0
VERTEX
  5
9C
  8
1
 10
-2728.196671
 20
-856.054129
 30
0.0
 70
0
  0
VERTEX
  5
9D
  8
1
 10
-2718.743591
 20
-852.389832
 30
0.0
 70
0
  0
VERTEX
  5
9E
  8
1
 10
-2713.816503
 20
-850.479894
 30
0.0
 70
0
  0
VERTEX
  5
9F
  8
1
 10
-2699.936918
 20
-845.033651
 30
0.0
 70
0
  0
VERTEX
  5
A0
  8
1
 10
-2697.659607
 20
-844.134827
 30
0.0
 70
0
  0
VERTEX
  5
A1
  8
1
 10
-2690.205994
 20
-847.960587
 30
0.0
 70
0
  0
VERTEX
  5
A2
  8
1
 10
-2688.494725
 20
-855.583967
 30
0.0
 70
0
  0
VERTEX
  5
A3
  8
1
 10
-2686.698426
 20
-862.443485
 30
0.0
 70
0
  0
VERTEX
  5
A4
  8
1
 10
-2684.909647
 20
-868.361957
 30
0.0
 70
0
  0
VERTEX
  5
A5
  8
1
 10
-2683.037043
 20
-873.714726
 30
0.0
 70
0
  0
VERTEX
  5
A6
  8
1
 10
-2680.933841
 20
-878.980813
 30
0.0
 70
0
  0
VERTEX
  5
A7
  8
1
 10
-2678.658555
 20
-884.013677
 30
0.0
 70
0
  0
VERTEX
  5
A8
  8
1
 10
-2676.286826
 20
-888.665532
 30
0.0
 70
0
  0
VERTEX
  5
A9
  8
1
 10
-2673.795767
 20
-893.009907
 30
0.0
 70
0
  0
VERTEX
  5
AA
  8
1
 10
-2671.244938
 20
-896.968848
 30
0.0
 70
0
  0
VERTEX
  5
AB
  8
1
 10
-2668.628806
 20
-900.58255
 30
0.0
 70
0
  0
VERTEX
  5
AC
  8
1
 10
-2665.985235
 20
-903.827552
 30
0.0
 70
0
  0
VERTEX
  5
AD
  8
1
 10
-2663.268803
 20
-906.780092
 30
0.0
 70
0
  0
VERTEX
  5
AE
  8
1
 10
-2660.492116
 20
-909.435507
 30
0.0
 70
0
  0
VERTEX
  5
AF
  8
1
 10
-2657.681753
 20
-911.782035
 30
0.0
 70
0
  0
VERTEX
  5
B0
  8
1
 10
-2654.69406
 20
-913.951271
 30
0.0
 70
0
  0
VERTEX
  5
B1
  8
1
 10
-2651.346161
 20
-916.075851
 30
0.0
 70
0
  0
VERTEX
  5
B2
  8
1
 10
-2647.494305
 20
-918.214015
 30
0.0
 70
0
  0
VERTEX
  5
B3
  8
1
 10
-2643.197061
 20
-920.299157
 30
0.0
 70
0
  0
VERTEX
  5
B4
  8
1
 10
-2638.449754
 20
-922.312152
 30
0.0
 70
0
  0
VERTEX
  5
B5
  8
1
 10
-2633.131697
 20
-924.283091
 30
0.0
 70
0
  0
VERTEX
  5
B6
  8
1
 10
-2627.089241
 20
-926.240177
 30
0.0
 70
0
  0
VERTEX
  5
B7
  8
1
 10
-2620.484414
 20
-928.114155
 30
0.0
 70
0
  0
VERTEX
  5
B8
  8
1
 10
-2613.114001
 20
-929.94045
 30
0.0
 70
0
  0
VERTEX
  5
B9
  8
1
 10
-2604.232623
 20
-931.866813
 30
0.0
 70
0
  0
VERTEX
  5
BA
  8
1
 10
-2593.699341
 20
-933.87085
 30
0.0
 70
0
  0
VERTEX
  5
BB
  8
1
 10
-2578.172407
 20
-937.187424
 30
0.0
 70
0
  0
VERTEX
  5
BC
  8
1
 10
-2563.368182
 20
-940.35148
 30
0.0
 70
0
  0
VERTEX
  5
BD
  8
1
 10
-2548.66995
 20
-943.495305
 30
0.0
 70
0
  0
VERTEX
  5
BE
  8
1
 10
-2533.501225
 20
-946.742741
 30
0.0
 70
0
  0
VERTEX
  5
BF
  8
1
 10
-2518.409096
 20
-949.976908
 30
0.0
 70
0
  0
VERTEX
  5
C0
  8
1
 10
-2503.241667
 20
-953.230506
 30
0.0
 70
0
  0
VERTEX
  5
C1
  8
1
 10
-2488.242085
 20
-956.451498
 30
0.0
 70
0
  0
VERTEX
  5
C2
  8
1
 10
-2473.076086
 20
-959.711614
 30
0.0
 70
0
  0
VERTEX
  5
C3
  8
1
 10
-2457.962184
 20
-962.963673
 30
0.0
 70
0
  0
VERTEX
  5
C4
  8
1
 10
-2442.797297
 20
-966.22908
 30
0.0
 70
0
  0
VERTEX
  5
C5
  8
1
 10
-2433.81546
 20
-968.163757
 30
0.0
 70
0
  0
VERTEX
  5
C6
  8
1
 10
-2427.68381
 20
-969.484584
 30
0.0
 70
0
  0
VERTEX
  5
C7
  8
1
 10
-2421.222534
 20
-970.876465
 30
0.0
 70
0
  0
VERTEX
  5
C8
  8
1
 10
-2421.900277
 20
-986.36203
 30
0.0
 70
0
  0
VERTEX
  5
C9
  8
1
 10
-2421.93222
 20
-987.093658
 30
0.0
 70
0
  0
VERTEX
  5
CA
  8
1
 10
-2422.556512
 20
-1001.363414
 30
0.0
 70
0
  0
VERTEX
  5
CB
  8
1
 10
-2423.211071
 20
-1016.364867
 30
0.0
 70
0
  0
VERTEX
  5
CC
  8
1
 10
-2423.868115
 20
-1031.492618
 30
0.0
 70
0
  0
VERTEX
  5
CD
  8
1
 10
-2424.516845
 20
-1046.494338
 30
0.0
 70
0
  0
VERTEX
  5
CE
  8
1
 10
-2425.167403
 20
-1061.58919
 30
0.0
 70
0
  0
VERTEX
  5
CF
  8
1
 10
-2425.81184
 20
-1076.591103
 30
0.0
 70
0
  0
VERTEX
  5
D0
  8
1
 10
-2426.469476
 20
-1091.956699
 30
0.0
 70
0
  0
VERTEX
  5
D1
  8
1
 10
-2427.109036
 20
-1106.958793
 30
0.0
 70
0
  0
VERTEX
  5
D2
  8
1
 10
-2427.762308
 20
-1122.344935
 30
0.0
 70
0
  0
VERTEX
  5
D3
  8
1
 10
-2428.396581
 20
-1137.347259
 30
0.0
 70
0
  0
VERTEX
  5
D4
  8
1
 10
-2429.037402
 20
-1152.573951
 30
0.0
 70
0
  0
VERTEX
  5
D5
  8
1
 10
-2429.665666
 20
-1167.576528
 30
0.0
 70
0
  0
VERTEX
  5
D6
  8
1
 10
-2430.29609
 20
-1182.712343
 30
0.0
 70
0
  0
VERTEX
  5
D7
  8
1
 10
-2430.626373
 20
-1190.675278
 30
0.0
 70
0
  0
VERTEX
  5
D8
  8
1
 10
-2430.917415
 20
-1197.71522
 30
0.0
 70
0
  0
VERTEX
  5
D9
  8
1
 10
-2431.529717
 20
-1212.580948
 30
0.0
 70
0
  0
VERTEX
  5
DA
  8
1
 10
-2432.16442
 20
-1228.068051
 30
0.0
 70
0
  0
VERTEX
  5
DB
  8
1
 10
-2432.776987
 20
-1243.071281
 30
0.0
 70
0
  0
VERTEX
  5
DC
  8
1
 10
-2433.404855
 20
-1258.484054
 30
0.0
 70
0
  0
VERTEX
  5
DD
  8
1
 10
-2433.788452
 20
-1267.908478
 30
0.0
 70
0
  0
VERTEX
  5
DE
  8
1
 10
-2443.184937
 20
-1268.592162
 30
0.0
 70
0
  0
VERTEX
  5
DF
  8
1
 10
-2446.53595
 20
-1268.825684
 30
0.0
 70
0
  0
VERTEX
  5
E0
  8
1
 10
-2458.148645
 20
-1269.634795
 30
0.0
 70
0
  0
VERTEX
  5
E1
  8
1
 10
-2473.534155
 20
-1270.626795
 30
0.0
 70
0
  0
VERTEX
  5
E2
  8
1
 10
-2488.954013
 20
-1271.518922
 30
0.0
 70
0
  0
VERTEX
  5
E3
  8
1
 10
-2503.950865
 20
-1272.277092
 30
0.0
 70
0
  0
VERTEX
  5
E4
  8
1
 10
-2519.382904
 20
-1272.923824
 30
0.0
 70
0
  0
VERTEX
  5
E5
  8
1
 10
-2534.465088
 20
-1273.404605
 30
0.0
 70
0
  0
VERTEX
  5
E6
  8
1
 10
-2549.90709
 20
-1273.743148
 30
0.0
 70
0
  0
VERTEX
  5
E7
  8
1
 10
-2564.960785
 20
-1273.933611
 30
0.0
 70
0
  0
VERTEX
  5
E8
  8
1
 10
-2580.406239
 20
-1273.996965
 30
0.0
 70
0
  0
VERTEX
  5
E9
  8
1
 10
-2595.423049
 20
-1273.941481
 30
0.0
 70
0
  0
VERTEX
  5
EA
  8
1
 10
-2610.867747
 20
-1273.776947
 30
0.0
 70
0
  0
VERTEX
  5
EB
  8
1
 10
-2626.014805
 20
-1273.522068
 30
0.0
 70
0
  0
VERTEX
  5
EC
  8
1
 10
-2641.456492
 20
-1273.173523
 30
0.0
 70
0
  0
VERTEX
  5
ED
  8
1
 10
-2656.518021
 20
-1272.747583
 30
0.0
 70
0
  0
VERTEX
  5
EE
  8
1
 10
-2671.953811
 20
-1272.197606
 30
0.0
 70
0
  0
VERTEX
  5
EF
  8
1
 10
-2687.140059
 20
-1271.51372
 30
0.0
 70
0
  0
VERTEX
  5
F0
  8
1
 10
-2702.562936
 20
-1270.674254
 30
0.0
 70
0
  0
VERTEX
  5
F1
  8
1
 10
-2717.69341
 20
-1269.72592
 30
0.0
 70
0
  0
VERTEX
  5
F2
  8
1
 10
-2733.103696
 20
-1268.6819
 30
0.0
 70
0
  0
VERTEX
  5
F3
  8
1
 10
-2748.157573
 20
-1267.641138
 30
0.0
 70
0
  0
VERTEX
  5
F4
  8
1
 10
-2763.566516
 20
-1266.580139
 30
0.0
 70
0
  0
VERTEX
  5
F5
  8
1
 10
-2779.009314
 20
-1265.53208
 30
0.0
 70
0
  0
VERTEX
  5
F6
  8
1
 10
-2794.420102
 20
-1264.498455
 30
0.0
 70
0
  0
VERTEX
  5
F7
  8
1
 10
-2809.510886
 20
-1263.491132
 30
0.0
 70
0
  0
VERTEX
  5
F8
  8
1
 10
-2824.922407
 20
-1262.467593
 30
0.0
 70
0
  0
VERTEX
  5
F9
  8
1
 10
-2840.374559
 20
-1261.449183
 30
0.0
 70
0
  0
VERTEX
  5
FA
  8
1
 10
-2855.787112
 20
-1260.440738
 30
0.0
 70
0
  0
VERTEX
  5
FB
  8
1
 10
-2871.081019
 20
-1259.446004
 30
0.0
 70
0
  0
VERTEX
  5
FC
  8
1
 10
-2886.494305
 20
-1258.449354
 30
0.0
 70
0
  0
VERTEX
  5
FD
  8
1
 10
-2901.912791
 20
-1257.458437
 30
0.0
 70
0
  0
VERTEX
  5
FE
  8
1
 10
-2917.326929
 20
-1256.473762
 30
0.0
 70
0
  0
VERTEX
  5
FF
  8
1
 10
-2932.693882
 20
-1255.497842
 30
0.0
 70
0
  0
VERTEX
  5
100
  8
1
 10
-2948.10871
 20
-1254.524457
 30
0.0
 70
0
  0
VERTEX
  5
101
  8
1
 10
-2963.431965
 20
-1253.562515
 30
0.0
 70
0
  0
VERTEX
  5
102
  8
1
 10
-2978.797271
 20
-1252.604976
 30
0.0
 70
0
  0
VERTEX
  5
103
  8
1
 10
-2994.041138
 20
-1251.662583
 30
0.0
 70
0
  0
SEQEND
  5
30
  8
1
  0
LINE
  5
104
  8
7
 10
-3387.257385
 20
-1086.681671
 30
0.0
 11
-2519.147034
 21
-1086.681671
 31
0.0
  0
ENDSEC
  0
EOF
