  0
SECTION
  2
HEADER
  9
$ACADVER
  1
AC1009
  9
$DWGCODEPAGE
  3
ANSI_1252
  9
$INSBASE
 10
0.0
 20
0.0
 30
0.0
  9
$EXTMIN
 10
1e+20
 20
1e+20
 30
1e+20
  9
$EXTMAX
 10
-1e+20
 20
-1e+20
 30
-1e+20
  9
$LIMMIN
 10
0.0
 20
0.0
  9
$LIMMAX
 10
420.0
 20
297.0
  9
$ORTHOMODE
 70
0
  9
$REGENMODE
 70
1
  9
$FILLMODE
 70
1
  9
$DRAGMODE
 70
2
  9
$QTEXTMODE
 70
0
  9
$MIRRTEXT
 70
1
  9
$OSMODE
 70
20583
  9
$LTSCALE
 40
1.0
  9
$ATTMODE
 70
1
  9
$TEXTSIZE
 40
2.5
  9
$TRACEWID
 40
1.0
  9
$TEXTSTYLE
  7
Standard
  9
$CLAYER
  8
0
  9
$CELTYPE
  6
ByLayer
  9
$CECOLOR
 62
256
  9
$DIMSCALE
 40
1.0
  9
$DIMASZ
 40
2.5
  9
$DIMEXO
 40
0.625
  9
$DIMDLI
 40
3.75
  9
$DIMRND
 40
0.0
  9
$DIMDLE
 40
0.0
  9
$DIMEXE
 40
1.25
  9
$DIMTP
 40
0.0
  9
$DIMTM
 40
0.0
  9
$DIMTXT
 40
2.5
  9
$DIMCEN
 40
2.5
  9
$DIMTSZ
 40
0.0
  9
$DIMTOL
 70
0
  9
$DIMLIM
 70
0
  9
$DIMTIH
 70
0
  9
$DIMTOH
 70
0
  9
$DIMSE1
 70
0
  9
$DIMSE2
 70
0
  9
$DIMTAD
 70
1
  9
$DIMZIN
 70
8
  9
$DIMBLK
  1

  9
$DIMASO
 70
1
  9
$DIMSHO
 70
1
  9
$DIMPOST
  1

  9
$DIMAPOST
  1

  9
$DIMALT
 70
0
  9
$DIMALTD
 70
3
  9
$DIMALTF
 40
0.03937007874
  9
$DIMLFAC
 40
1.0
  9
$DIMTOFL
 70
1
  9
$DIMTVP
 40
0.0
  9
$DIMTIX
 70
0
  9
$DIMSOXD
 70
0
  9
$DIMSAH
 70
0
  9
$DIMBLK1
  1

  9
$DIMBLK2
  1

  9
$DIMSTYLE
  2
ISO-25
  9
$DIMCLRD
 70
0
  9
$DIMCLRE
 70
0
  9
$DIMCLRT
 70
0
  9
$DIMTFAC
 40
1.0
  9
$DIMGAP
 40
0.625
  9
$COORDS
 70
1
  9
$ATTDIA
 70
0
  9
$ATTREQ
 70
1
  9
$HANDLING
 70
1
  9
$LUNITS
 70
2
  9
$LUPREC
 70
4
  9
$SKETCHINC
 40
1.0
  9
$FILLETRAD
 40
10.0
  9
$AUNITS
 70
0
  9
$AUPREC
 70
2
  9
$MENU
  1
.
  9
$ELEVATION
 40
0.0
  9
$PELEVATION
 40
0.0
  9
$THICKNESS
 40
0.0
  9
$LIMCHECK
 70
0
  9
$CHAMFERA
 40
0.0
  9
$CHAMFERB
 40
0.0
  9
$SKPOLY
 70
0
  9
$TDCREATE
 40
2461264.9423032408
  9
$TDUPDATE
 40
2461264.9423032408
  9
$TDINDWG
 40
0.0
  9
$TDUSRTIMER
 40
0.0
  9
$USRTIMER
 70
1
  9
$ANGBASE
 50
0.0
  9
$ANGDIR
 70
0
  9
$PDMODE
 70
0
  9
$PDSIZE
 40
0.0
  9
$PLINEWID
 40
0.0
  9
$SPLFRAME
 70
0
  9
$SPLINETYPE
 70
6
  9
$SPLINESEGS
 70
8
  9
$HANDSEED
  5
223
  9
$SURFTAB1
 70
6
  9
$SURFTAB2
 70
6
  9
$SURFTYPE
 70
6
  9
$SURFU
 70
6
  9
$SURFV
 70
6
  9
$UCSNAME
  2

  9
$UCSORG
 10
0.0
 20
0.0
 30
0.0
  9
$UCSXDIR
 10
1.0
 20
0.0
 30
0.0
  9
$UCSYDIR
 10
0.0
 20
1.0
 30
0.0
  9
$PUCSNAME
  2

  9
$PUCSORG
 10
0.0
 20
0.0
 30
0.0
  9
$PUCSXDIR
 10
1.0
 20
0.0
 30
0.0
  9
$PUCSYDIR
 10
0.0
 20
1.0
 30
0.0
  9
$USERI1
 70
0
  9
$USERI2
 70
0
  9
$USERI3
 70
0
  9
$USERI4
 70
0
  9
$USERI5
 70
0
  9
$USERR1
 40
0.0
  9
$USERR2
 40
0.0
  9
$USERR3
 40
0.0
  9
$USERR4
 40
0.0
  9
$USERR5
 40
0.0
  9
$WORLDVIEW
 70
1
  9
$SHADEDGE
 70
3
  9
$SHADEDIF
 70
70
  9
$TILEMODE
 70
1
  9
$MAXACTVP
 70
64
  9
$PLIMCHECK
 70
0
  9
$PEXTMIN
 10
1e+20
 20
1e+20
 30
1e+20
  9
$PEXTMAX
 10
-1e+20
 20
-1e+20
 30
-1e+20
  9
$PLIMMIN
 10
0.0
 20
0.0
  9
$PLIMMAX
 10
420.0
 20
297.0
  9
$UNITMODE
 70
0
  9
$VISRETAIN
 70
1
  9
$PLINEGEN
 70
0
  9
$PSLTSCALE
 70
1
  0
ENDSEC
  0
SECTION
  2
TABLES
  0
TABLE
  2
VPORT
 70
1
  0
VPORT
  5
23
  2
*Active
 70
0
 10
0.0
 20
0.0
 11
1.0
 21
1.0
 12
0.0
 22
0.0
 13
0.0
 23
0.0
 14
0.5
 24
0.5
 15
0.5
 25
0.5
 16
0.0
 26
0.0
 36
1.0
 17
0.0
 27
0.0
 37
0.0
 40
1000.0
 41
1.34
 42
50.0
 43
0.0
 44
0.0
 50
0.0
 51
0.0
 71
0
 72
1000
 73
1
 74
3
 75
0
 76
0
 77
0
 78
0
  0
ENDTAB
  0
TABLE
  2
LTYPE
 70
3
  0
LTYPE
  5
24
  2
ByBlock
 70
0
  3

 72
65
 73
0
 40
0.0
  0
LTYPE
  5
25
  2
ByLayer
 70
0
  3

 72
65
 73
0
 40
0.0
  0
LTYPE
  5
26
  2
Continuous
 70
0
  3

 72
65
 73
0
 40
0.0
  0
ENDTAB
  0
TABLE
  2
LAYER
 70
7
  0
LAYER
  5
27
  2
0
 70
0
 62
7
  6
Continuous
  0
LAYER
  5
28
  2
Defpoints
 70
0
 62
7
  6
Continuous
  0
LAYER
  5
2D
  2
1
 70
0
 62
1
  6
Continuous
  0
LAYER
  5
2E
  2
7
 70
0
 62
7
  6
Continuous
  0
LAYER
  5
2F
  2
14
 70
0
 62
3
  6
Continuous
  0
LAYER
  5
30
  2
8
 70
0
 62
6
  6
Continuous
  0
LAYER
  5
31
  2
4
 70
0
 62
2
  6
Continuous
  0
ENDTAB
  0
TABLE
  2
STYLE
 70
1
  0
STYLE
  5
29
  2
Standard
 70
0
 40
0.0
 41
1.0
 50
0.0
 71
0
 42
2.5
  3
txt
  4

  0
ENDTAB
  0
TABLE
  2
VIEW
 70
0
  0
ENDTAB
  0
TABLE
  2
UCS
 70
0
  0
ENDTAB
  0
TABLE
  2
APPID
 70
3
  0
APPID
  5
2A
  2
ACAD
 70
0
  0
APPID
  5
221
  2
HATCHBACKGROUNDCOLOR
 70
0
  0
APPID
  5
222
  2
EZDXF
 70
0
  0
ENDTAB
  0
TABLE
  2
DIMSTYLE
 70
1
  0
DIMSTYLE
105
2B
  2
Standard
 70
0
  3

  4

  5

  6

  7

 40
1.0
 41
2.5
 42
0.625
 43
3.75
 44
1.25
 45
0.0
 46
0.0
 47
0.0
 48
0.0
140
2.5
141
2.5
142
0.0
143
0.03937007874
144
1.0
145
0.0
146
1.0
147
0.625
 71
0
 72
0
 73
0
 74
0
 75
0
 76
0
 77
1
 78
8
170
0
171
3
172
1
173
0
174
0
175
0
176
0
177
0
178
0
  0
ENDTAB
  0
ENDSEC
  0
SECTION
  2
BLOCKS
  0
BLOCK
  5
18
  8
0
  2
$Model_Space
 70
0
 10
0.0
 20
0.0
 30
0.0
  3
$Model_Space
  1

1001
EZDXF
1000
CREATED_BY_EZDXF
1000
1.4.4 @ 2026-08-11T14:36:55.305177+00:00
1000
WRITTEN_BY_EZDXF
1000
1.4.4 @ 2026-08-11T14:36:55.309177+00:00
  0
ENDBLK
  5
19
  8
0
  0
BLOCK
  5
1C
  8
0
  2
$Paper_Space
 70
0
 10
0.0
 20
0.0
 30
0.0
  3
$Paper_Space
  1

  0
ENDBLK
  5
1D
  8
0
  0
ENDSEC
  0
SECTION
  2
ENTITIES
  0
POLYLINE
  5
32
  8
1
 66
1
 10
0.0
 20
0.0
 30
0.0
 70
1
  0
VERTEX
  5
34
  8
1
 10
-3009.373474
 20
-1238.018723
 30
0.0
 70
0
  0
VERTEX
  5
35
  8
1
 10
-3009.268188
 20
-1238.022308
 30
0.0
 70
0
  0
VERTEX
  5
36
  8
1
 10
-3024.607925
 20
-1237.498684
 30
0.0
 70
0
  0
VERTEX
  5
37
  8
1
 10
-3039.809463
 20
-1236.966816
 30
0.0
 70
0
  0
VERTEX
  5
38
  8
1
 10
-3054.817677
 20
-1236.426177
 30
0.0
 70
0
  0
VERTEX
  5
39
  8
1
 10
-3070.276999
 20
-1235.857055
 30
0.0
 70
0
  0
VERTEX
  5
3A
  8
1
 10
-3085.284493
 20
-1235.295123
 30
0.0
 70
0
  0
VERTEX
  5
3B
  8
1
 10
-3100.312827
 20
-1234.722055
 30
0.0
 70
0
  0
VERTEX
  5
3C
  8
1
 10
-3115.319553
 20
-1234.13871
 30
0.0
 70
0
  0
VERTEX
  5
3D
  8
1
 10
-3130.370623
 20
-1233.542715
 30
0.0
 70
0
  0
VERTEX
  5
3E
  8
1
 10
-3145.37632
 20
-1232.93766
 30
0.0
 70
0
  0
VERTEX
  5
3F
  8
1
 10
-3160.603647
 20
-1232.312119
 30
0.0
 70
0
  0
VERTEX
  5
40
  8
1
 10
-3175.608477
 20
-1231.68381
 30
0.0
 70
0
  0
VERTEX
  5
41
  8
1
 10
-3190.682884
 20
-1231.040125
 30
0.0
 70
0
  0
VERTEX
  5
42
  8
1
 10
-3205.68666
 20
-1230.386485
 30
0.0
 70
0
  0
VERTEX
  5
43
  8
1
 10
-3220.819356
 20
-1229.713526
 30
0.0
 70
0
  0
VERTEX
  5
44
  8
1
 10
-3235.821746
 20
-1229.031942
 30
0.0
 70
0
  0
VERTEX
  5
45
  8
1
 10
-3251.292261
 20
-1228.312574
 30
0.0
 70
0
  0
VERTEX
  5
46
  8
1
 10
-3266.293203
 20
-1227.597962
 30
0.0
 70
0
  0
VERTEX
  5
47
  8
1
 10
-3281.497992
 20
-1226.856582
 30
0.0
 70
0
  0
VERTEX
  5
48
  8
1
 10
-3296.497289
 20
-1226.108956
 30
0.0
 70
0
  0
VERTEX
  5
49
  8
1
 10
-3311.515915
 20
-1225.345466
 30
0.0
 70
0
  0
VERTEX
  5
4A
  8
1
 10
-3326.513807
 20
-1224.56938
 30
0.0
 70
0
  0
VERTEX
  5
4B
  8
1
 10
-3341.747326
 20
-1223.767883
 30
0.0
 70
0
  0
VERTEX
  5
4C
  8
1
 10
-3356.743881
 20
-1222.966567
 30
0.0
 70
0
  0
VERTEX
  5
4D
  8
1
 10
-3371.769607
 20
-1222.152454
 30
0.0
 70
0
  0
VERTEX
  5
4E
  8
1
 10
-3386.765065
 20
-1221.329524
 30
0.0
 70
0
  0
VERTEX
  5
4F
  8
1
 10
-3401.772761
 20
-1220.495227
 30
0.0
 70
0
  0
VERTEX
  5
50
  8
1
 10
-3416.766926
 20
-1219.650381
 30
0.0
 70
0
  0
VERTEX
  5
51
  8
1
 10
-3432.260121
 20
-1218.764238
 30
0.0
 70
0
  0
VERTEX
  5
52
  8
1
 10
-3447.033366
 20
-1217.906737
 30
0.0
 70
0
  0
VERTEX
  5
53
  8
1
 10
-3461.539612
 20
-1217.057877
 30
0.0
 70
0
  0
VERTEX
  5
54
  8
1
 10
-3462.525427
 20
-1217.00021
 30
0.0
 70
0
  0
VERTEX
  5
55
  8
1
 10
-3477.577001
 20
-1216.118284
 30
0.0
 70
0
  0
VERTEX
  5
56
  8
1
 10
-3493.283081
 20
-1215.198059
 30
0.0
 70
0
  0
VERTEX
  5
57
  8
1
 10
-3493.227309
 20
-1199.661154
 30
0.0
 70
0
  0
VERTEX
  5
58
  8
1
 10
-3493.173215
 20
-1184.60072
 30
0.0
 70
0
  0
VERTEX
  5
59
  8
1
 10
-3493.118479
 20
-1169.364073
 30
0.0
 70
0
  0
VERTEX
  5
5A
  8
1
 10
-3493.064384
 20
-1154.303646
 30
0.0
 70
0
  0
VERTEX
  5
5B
  8
1
 10
-3493.010291
 20
-1139.243216
 30
0.0
 70
0
  0
VERTEX
  5
5C
  8
1
 10
-3492.955104
 20
-1123.880145
 30
0.0
 70
0
  0
VERTEX
  5
5D
  8
1
 10
-3492.901004
 20
-1108.819696
 30
0.0
 70
0
  0
VERTEX
  5
5E
  8
1
 10
-3492.845966
 20
-1093.495556
 30
0.0
 70
0
  0
VERTEX
  5
5F
  8
1
 10
-3492.791867
 20
-1078.435126
 30
0.0
 70
0
  0
VERTEX
  5
60
  8
1
 10
-3492.737073
 20
-1063.190907
 30
0.0
 70
0
  0
VERTEX
  5
61
  8
1
 10
-3492.682914
 20
-1048.13049
 30
0.0
 70
0
  0
VERTEX
  5
62
  8
1
 10
-3492.627889
 20
-1032.828089
 30
0.0
 70
0
  0
VERTEX
  5
63
  8
1
 10
-3492.57374
 20
-1017.767641
 30
0.0
 70
0
  0
VERTEX
  5
64
  8
1
 10
-3492.518345
 20
-1002.366253
 30
0.0
 70
0
  0
VERTEX
  5
65
  8
1
 10
-3492.46414
 20
-987.305806
 30
0.0
 70
0
  0
VERTEX
  5
66
  8
1
 10
-3492.40897
 20
-971.989854
 30
0.0
 70
0
  0
VERTEX
  5
67
  8
1
 10
-3492.377625
 20
-963.293381
 30
0.0
 70
0
  0
VERTEX
  5
68
  8
1
 10
-3476.82127
 20
-962.489297
 30
0.0
 70
0
  0
VERTEX
  5
69
  8
1
 10
-3461.518367
 20
-961.698319
 30
0.0
 70
0
  0
VERTEX
  5
6A
  8
1
 10
-3460.621643
 20
-961.651993
 30
0.0
 70
0
  0
VERTEX
  5
6B
  8
1
 10
-3446.521586
 20
-960.92317
 30
0.0
 70
0
  0
VERTEX
  5
6C
  8
1
 10
-3431.082658
 20
-960.125161
 30
0.0
 70
0
  0
VERTEX
  5
6D
  8
1
 10
-3415.827569
 20
-959.336638
 30
0.0
 70
0
  0
VERTEX
  5
6E
  8
1
 10
-3400.388668
 20
-958.538613
 30
0.0
 70
0
  0
VERTEX
  5
6F
  8
1
 10
-3385.129387
 20
-957.749889
 30
0.0
 70
0
  0
VERTEX
  5
70
  8
1
 10
-3369.786186
 20
-956.956833
 30
0.0
 70
0
  0
VERTEX
  5
71
  8
1
 10
-3354.347354
 20
-956.158825
 30
0.0
 70
0
  0
VERTEX
  5
72
  8
1
 10
-3339.361537
 20
-955.384227
 30
0.0
 70
0
  0
VERTEX
  5
73
  8
1
 10
-3323.922646
 20
-954.58621
 30
0.0
 70
0
  0
VERTEX
  5
74
  8
1
 10
-3308.807293
 20
-953.804917
 30
0.0
 70
0
  0
VERTEX
  5
75
  8
1
 10
-3293.368422
 20
-953.006904
 30
0.0
 70
0
  0
VERTEX
  5
76
  8
1
 10
-3278.408798
 20
-952.233665
 30
0.0
 70
0
  0
VERTEX
  5
77
  8
1
 10
-3262.471856
 20
-951.409917
 30
0.0
 70
0
  0
VERTEX
  5
78
  8
1
 10
-3247.14195
 20
-950.61755
 30
0.0
 70
0
  0
VERTEX
  5
79
  8
1
 10
-3231.702996
 20
-949.819548
 30
0.0
 70
0
  0
VERTEX
  5
7A
  8
1
 10
-3216.489426
 20
-949.033191
 30
0.0
 70
0
  0
VERTEX
  5
7B
  8
1
 10
-3201.050556
 20
-948.235178
 30
0.0
 70
0
  0
VERTEX
  5
7C
  8
1
 10
-3185.935212
 20
-947.453878
 30
0.0
 70
0
  0
VERTEX
  5
7D
  8
1
 10
-3170.496326
 20
-946.655851
 30
0.0
 70
0
  0
VERTEX
  5
7E
  8
1
 10
-3155.115668
 20
-945.860841
 30
0.0
 70
0
  0
VERTEX
  5
7F
  8
1
 10
-3139.676818
 20
-945.062837
 30
0.0
 70
0
  0
VERTEX
  5
80
  8
1
 10
-3124.615695
 20
-944.284357
 30
0.0
 70
0
  0
VERTEX
  5
81
  8
1
 10
-3109.17681
 20
-943.486344
 30
0.0
 70
0
  0
VERTEX
  5
82
  8
1
 10
-3094.038581
 20
-942.703874
 30
0.0
 70
0
  0
VERTEX
  5
83
  8
1
 10
-3078.599674
 20
-941.905872
 30
0.0
 70
0
  0
VERTEX
  5
84
  8
1
 10
-3063.485952
 20
-941.12468
 30
0.0
 70
0
  0
VERTEX
  5
85
  8
1
 10
-3048.047015
 20
-940.326671
 30
0.0
 70
0
  0
VERTEX
  5
86
  8
1
 10
-3032.77119
 20
-939.53709
 30
0.0
 70
0
  0
VERTEX
  5
87
  8
1
 10
-3017.784471
 20
-938.762456
 30
0.0
 70
0
  0
VERTEX
  5
88
  8
1
 10
-3009.487305
 20
-938.333588
 30
0.0
 70
0
  0
VERTEX
  5
89
  8
1
 10
-3009.990234
 20
-938.361282
 30
0.0
 70
0
  0
VERTEX
  5
8A
  8
1
 10
-2994.335571
 20
-936.29584
 30
0.0
 70
0
  0
VERTEX
  5
8B
  8
1
 10
-2979.358031
 20
-934.22163
 30
0.0
 70
0
  0
VERTEX
  5
8C
  8
1
 10
-2964.200222
 20
-931.989516
 30
0.0
 70
0
  0
VERTEX
  5
8D
  8
1
 10
-2949.081038
 20
-929.627837
 30
0.0
 70
0
  0
VERTEX
  5
8E
  8
1
 10
-2933.963531
 20
-927.135979
 30
0.0
 70
0
  0
VERTEX
  5
8F
  8
1
 10
-2918.868435
 20
-924.495222
 30
0.0
 70
0
  0
VERTEX
  5
90
  8
1
 10
-2903.807438
 20
-921.681636
 30
0.0
 70
0
  0
VERTEX
  5
91
  8
1
 10
-2888.675702
 20
-918.654263
 30
0.0
 70
0
  0
VERTEX
  5
92
  8
1
 10
-2873.694513
 20
-915.442722
 30
0.0
 70
0
  0
VERTEX
  5
93
  8
1
 10
-2858.931894
 20
-912.06318
 30
0.0
 70
0
  0
VERTEX
  5
94
  8
1
 10
-2844.046396
 20
-908.432926
 30
0.0
 70
0
  0
VERTEX
  5
95
  8
1
 10
-2829.337559
 20
-904.613616
 30
0.0
 70
0
  0
VERTEX
  5
96
  8
1
 10
-2814.56793
 20
-900.537602
 30
0.0
 70
0
  0
VERTEX
  5
97
  8
1
 10
-2799.895006
 20
-896.25681
 30
0.0
 70
0
  0
VERTEX
  5
98
  8
1
 10
-2785.245301
 20
-891.769982
 30
0.0
 70
0
  0
VERTEX
  5
99
  8
1
 10
-2770.705779
 20
-887.142044
 30
0.0
 70
0
  0
VERTEX
  5
9A
  8
1
 10
-2756.150745
 20
-882.356275
 30
0.0
 70
0
  0
VERTEX
  5
9B
  8
1
 10
-2741.773311
 20
-877.456724
 30
0.0
 70
0
  0
VERTEX
  5
9C
  8
1
 10
-2727.326036
 20
-872.355994
 30
0.0
 70
0
  0
VERTEX
  5
9D
  8
1
 10
-2718.763123
 20
-869.260941
 30
0.0
 70
0
  0
VERTEX
  5
9E
  8
1
 10
-2712.980697
 20
-867.170851
 30
0.0
 70
0
  0
VERTEX
  5
9F
  8
1
 10
-2699.094284
 20
-862.092959
 30
0.0
 70
0
  0
VERTEX
  5
A0
  8
1
 10
-2697.43988
 20
-861.48468
 30
0.0
 70
0
  0
VERTEX
  5
A1
  8
1
 10
-2690.153198
 20
-865.498581
 30
0.0
 70
0
  0
VERTEX
  5
A2
  8
1
 10
-2688.758826
 20
-872.981221
 30
0.0
 70
0
  0
VERTEX
  5
A3
  8
1
 10
-2687.204468
 20
-879.938293
 30
0.0
 70
0
  0
VERTEX
  5
A4
  8
1
 10
-2685.630423
 20
-885.910332
 30
0.0
 70
0
  0
VERTEX
  5
A5
  8
1
 10
-2683.968941
 20
-891.254231
 30
0.0
 70
0
  0
VERTEX
  5
A6
  8
1
 10
-2682.128562
 20
-896.352429
 30
0.0
 70
0
  0
VERTEX
  5
A7
  8
1
 10
-2680.095981
 20
-901.269836
 30
0.0
 70
0
  0
VERTEX
  5
A8
  8
1
 10
-2677.950914
 20
-905.843391
 30
0.0
 70
0
  0
VERTEX
  5
A9
  8
1
 10
-2675.67673
 20
-910.11076
 30
0.0
 70
0
  0
VERTEX
  5
AA
  8
1
 10
-2673.311472
 20
-914.03074
 30
0.0
 70
0
  0
VERTEX
  5
AB
  8
1
 10
-2670.85345
 20
-917.627733
 30
0.0
 70
0
  0
VERTEX
  5
AC
  8
1
 10
-2668.34723
 20
-920.861705
 30
0.0
 70
0
  0
VERTEX
  5
AD
  8
1
 10
-2665.747476
 20
-923.809001
 30
0.0
 70
0
  0
VERTEX
  5
AE
  8
1
 10
-2663.175303
 20
-926.359822
 30
0.0
 70
0
  0
VERTEX
  5
AF
  8
1
 10
-2660.469815
 20
-928.692951
 30
0.0
 70
0
  0
VERTEX
  5
B0
  8
1
 10
-2657.469288
 20
-930.938584
 30
0.0
 70
0
  0
VERTEX
  5
B1
  8
1
 10
-2654.087906
 20
-933.149008
 30
0.0
 70
0
  0
VERTEX
  5
B2
  8
1
 10
-2650.329135
 20
-935.304708
 30
0.0
 70
0
  0
VERTEX
  5
B3
  8
1
 10
-2646.045767
 20
-937.464201
 30
0.0
 70
0
  0
VERTEX
  5
B4
  8
1
 10
-2641.280412
 20
-939.577056
 30
0.0
 70
0
  0
VERTEX
  5
B5
  8
1
 10
-2635.944008
 20
-941.662975
 30
0.0
 70
0
  0
VERTEX
  5
B6
  8
1
 10
-2629.963647
 20
-943.725574
 30
0.0
 70
0
  0
VERTEX
  5
B7
  8
1
 10
-2623.209507
 20
-945.786593
 30
0.0
 70
0
  0
VERTEX
  5
B8
  8
1
 10
-2615.466882
 20
-947.876545
 30
0.0
 70
0
  0
VERTEX
  5
B9
  8
1
 10
-2605.57378
 20
-950.258582
 30
0.0
 70
0
  0
VERTEX
  5
BA
  8
1
 10
-2601.141968
 20
-951.250076
 30
0.0
 70
0
  0
VERTEX
  5
BB
  8
1
 10
-2585.881952
 20
-954.917573
 30
0.0
 70
0
  0
VERTEX
  5
BC
  8
1
 10
-2570.931041
 20
-958.512902
 30
0.0
 70
0
  0
VERTEX
  5
BD
  8
1
 10
-2556.090852
 20
-962.084489
 30
0.0
 70
0
  0
VERTEX
  5
BE
  8
1
 10
-2541.024924
 20
-965.713869
 30
0.0
 70
0
  0
VERTEX
  5
BF
  8
1
 10
-2526.023554
 20
-969.331409
 30
0.0
 70
0
  0
VERTEX
  5
C0
  8
1
 10
-2510.959249
 20
-972.967885
 30
0.0
 70
0
  0
VERTEX
  5
C1
  8
1
 10
-2495.870767
 20
-976.613884
 30
0.0
 70
0
  0
VERTEX
  5
C2
  8
1
 10
-2480.808133
 20
-980.256957
 30
0.0
 70
0
  0
VERTEX
  5
C3
  8
1
 10
-2465.992483
 20
-983.843004
 30
0.0
 70
0
  0
VERTEX
  5
C4
  8
1
 10
-2459.029694
 20
-985.529175
 30
0.0
 70
0
  0
VERTEX
  5
C5
  8
1
 10
-2451.395664
 20
-987.377929
 30
0.0
 70
0
  0
VERTEX
  5
C6
  8
1
 10
-2446.463318
 20
-988.572769
 30
0.0
 70
0
  0
VERTEX
  5
C7
  8
1
 10
-2447.229604
 20
-1004.298783
 30
0.0
 70
0
  0
VERTEX
  5
C8
  8
1
 10
-2447.256165
 20
-1004.846115
 30
0.0
 70
0
  0
VERTEX
  5
C9
  8
1
 10
-2447.971376
 20
-1019.528174
 30
0.0
 70
0
  0
VERTEX
  5
CA
  8
1
 10
-2448.711735
 20
-1034.75763
 30
0.0
 70
0
  0
VERTEX
  5
CB
  8
1
 10
-2449.443206
 20
-1049.853223
 30
0.0
 70
0
  0
VERTEX
  5
CC
  8
1
 10
-2450.178921
 20
-1065.082904
 30
0.0
 70
0
  0
VERTEX
  5
CD
  8
1
 10
-2450.917763
 20
-1080.415518
 30
0.0
 70
0
  0
VERTEX
  5
CE
  8
1
 10
-2451.649852
 20
-1095.645381
 30
0.0
 70
0
  0
VERTEX
  5
CF
  8
1
 10
-2452.377369
 20
-1110.820622
 30
0.0
 70
0
  0
VERTEX
  5
D0
  8
1
 10
-2453.105437
 20
-1126.050664
 30
0.0
 70
0
  0
VERTEX
  5
D1
  8
1
 10
-2453.831269
 20
-1141.279702
 30
0.0
 70
0
  0
VERTEX
  5
D2
  8
1
 10
-2454.554768
 20
-1156.509964
 30
0.0
 70
0
  0
VERTEX
  5
D3
  8
1
 10
-2455.284158
 20
-1171.921394
 30
0.0
 70
0
  0
VERTEX
  5
D4
  8
1
 10
-2456.002154
 20
-1187.151916
 30
0.0
 70
0
  0
VERTEX
  5
D5
  8
1
 10
-2456.029053
 20
-1187.722931
 30
0.0
 70
0
  0
VERTEX
  5
D6
  8
1
 10
-2456.724692
 20
-1202.539401
 30
0.0
 70
0
  0
VERTEX
  5
D7
  8
1
 10
-2457.437299
 20
-1217.77016
 30
0.0
 70
0
  0
VERTEX
  5
D8
  8
1
 10
-2458.14809
 20
-1233.001014
 30
0.0
 70
0
  0
VERTEX
  5
D9
  8
1
 10
-2458.84924
 20
-1248.047008
 30
0.0
 70
0
  0
VERTEX
  5
DA
  8
1
 10
-2458.948364
 20
-1250.175018
 30
0.0
 70
0
  0
VERTEX
  5
DB
  8
1
 10
-2462.452841
 20
-1250.435723
 30
0.0
 70
0
  0
VERTEX
  5
DC
  8
1
 10
-2471.705475
 20
-1251.104584
 30
0.0
 70
0
  0
VERTEX
  5
DD
  8
1
 10
-2477.253353
 20
-1251.505659
 30
0.0
 70
0
  0
VERTEX
  5
DE
  8
1
 10
-2492.30377
 20
-1252.539752
 30
0.0
 70
0
  0
VERTEX
  5
DF
  8
1
 10
-2507.433555
 20
-1253.497212
 30
0.0
 70
0
  0
VERTEX
  5
E0
  8
1
 10
-2522.478175
 20
-1254.337039
 30
0.0
 70
0
  0
VERTEX
  5
E1
  8
1
 10
-2537.621785
 20
-1255.044792
 30
0.0
 70
0
  0
VERTEX
  5
E2
  8
1
 10
-2552.959013
 20
-1255.611648
 30
0.0
 70
0
  0
VERTEX
  5
E3
  8
1
 10
-2568.113674
 20
-1256.019848
 30
0.0
 70
0
  0
VERTEX
  5
E4
  8
1
 10
-2583.430538
 20
-1256.283451
 30
0.0
 70
0
  0
VERTEX
  5
E5
  8
1
 10
-2598.590116
 20
-1256.404041
 30
0.0
 70
0
  0
VERTEX
  5
E6
  8
1
 10
-2614.058996
 20
-1256.394481
 30
0.0
 70
0
  0
VERTEX
  5
E7
  8
1
 10
-2629.218536
 20
-1256.266435
 30
0.0
 70
0
  0
VERTEX
  5
E8
  8
1
 10
-2644.489488
 20
-1256.028535
 30
0.0
 70
0
  0
VERTEX
  5
E9
  8
1
 10
-2659.645764
 20
-1255.69215
 30
0.0
 70
0
  0
VERTEX
  5
EA
  8
1
 10
-2675.091848
 20
-1255.249236
 30
0.0
 70
0
  0
VERTEX
  5
EB
  8
1
 10
-2690.242548
 20
-1254.717348
 30
0.0
 70
0
  0
VERTEX
  5
EC
  8
1
 10
-2705.478554
 20
-1254.08323
 30
0.0
 70
0
  0
VERTEX
  5
ED
  8
1
 10
-2720.621215
 20
-1253.358588
 30
0.0
 70
0
  0
VERTEX
  5
EE
  8
1
 10
-2736.098938
 20
-1252.547266
 30
0.0
 70
0
  0
VERTEX
  5
EF
  8
1
 10
-2751.235965
 20
-1251.714821
 30
0.0
 70
0
  0
VERTEX
  5
F0
  8
1
 10
-2766.261571
 20
-1250.878865
 30
0.0
 70
0
  0
VERTEX
  5
F1
  8
1
 10
-2781.398681
 20
-1250.04805
 30
0.0
 70
0
  0
VERTEX
  5
F2
  8
1
 10
-2796.74696
 20
-1249.214024
 30
0.0
 70
0
  0
VERTEX
  5
F3
  8
1
 10
-2811.884776
 20
-1248.393457
 30
0.0
 70
0
  0
VERTEX
  5
F4
  8
1
 10
-2827.067985
 20
-1247.573364
 30
0.0
 70
0
  0
VERTEX
  5
F5
  8
1
 10
-2842.20616
 20
-1246.76045
 30
0.0
 70
0
  0
VERTEX
  5
F6
  8
1
 10
-2857.185601
 20
-1245.960214
 30
0.0
 70
0
  0
VERTEX
  5
F7
  8
1
 10
-2872.324143
 20
-1245.154849
 30
0.0
 70
0
  0
VERTEX
  5
F8
  8
1
 10
-2887.671236
 20
-1244.341811
 30
0.0
 70
0
  0
VERTEX
  5
F9
  8
1
 10
-2902.810154
 20
-1243.543279
 30
0.0
 70
0
  0
VERTEX
  5
FA
  8
1
 10
-2918.046035
 20
-1242.743027
 30
0.0
 70
0
  0
VERTEX
  5
FB
  8
1
 10
-2933.185264
 20
-1241.951101
 30
0.0
 70
0
  0
VERTEX
  5
FC
  8
1
 10
-2948.582476
 20
-1241.148908
 30
0.0
 70
0
  0
VERTEX
  5
FD
  8
1
 10
-2963.722026
 20
-1240.363401
 30
0.0
 70
0
  0
VERTEX
  5
FE
  8
1
 10
-2978.861793
 20
-1239.581837
 30
0.0
 70
0
  0
VERTEX
  5
FF
  8
1
 10
-2993.757825
 20
-1238.817042
 30
0.0
 70
0
  0
SEQEND
  5
33
  8
1
  0
POLYLINE
  5
100
  8
14
 66
1
 10
0.0
 20
0.0
 30
0.0
 70
1
  0
VERTEX
  5
102
  8
14
 10
-3008.834839
 20
-1225.32959
 30
0.0
 70
0
  0
VERTEX
  5
103
  8
14
 10
-3008.834839
 20
-1225.32959
 30
0.0
 70
0
  0
VERTEX
  5
104
  8
14
 10
-3023.127449
 20
-1224.843372
 30
0.0
 70
0
  0
VERTEX
  5
105
  8
14
 10
-3039.231604
 20
-1224.277838
 30
0.0
 70
0
  0
VERTEX
  5
106
  8
14
 10
-3053.867838
 20
-1223.751516
 30
0.0
 70
0
  0
VERTEX
  5
107
  8
14
 10
-3070.828496
 20
-1223.128305
 30
0.0
 70
0
  0
VERTEX
  5
108
  8
14
 10
-3085.900602
 20
-1222.562993
 30
0.0
 70
0
  0
VERTEX
  5
109
  8
14
 10
-3102.168938
 20
-1221.940844
 30
0.0
 70
0
  0
VERTEX
  5
10A
  8
14
 10
-3119.504034
 20
-1221.264152
 30
0.0
 70
0
  0
VERTEX
  5
10B
  8
14
 10
-3137.776322
 20
-1220.53522
 30
0.0
 70
0
  0
VERTEX
  5
10C
  8
14
 10
-3156.856329
 20
-1219.756344
 30
0.0
 70
0
  0
VERTEX
  5
10D
  8
14
 10
-3176.61455
 20
-1218.929822
 30
0.0
 70
0
  0
VERTEX
  5
10E
  8
14
 10
-3191.800399
 20
-1218.280044
 30
0.0
 70
0
  0
VERTEX
  5
10F
  8
14
 10
-3207.240263
 20
-1217.605727
 30
0.0
 70
0
  0
VERTEX
  5
110
  8
14
 10
-3222.879507
 20
-1216.90784
 30
0.0
 70
0
  0
VERTEX
  5
111
  8
14
 10
-3238.663498
 20
-1216.187354
 30
0.0
 70
0
  0
VERTEX
  5
112
  8
14
 10
-3254.5376
 20
-1215.445236
 30
0.0
 70
0
  0
VERTEX
  5
113
  8
14
 10
-3273.323738
 20
-1214.542476
 30
0.0
 70
0
  0
VERTEX
  5
114
  8
14
 10
-3289.183671
 20
-1213.759696
 30
0.0
 70
0
  0
VERTEX
  5
115
  8
14
 10
-3304.902206
 20
-1212.966944
 30
0.0
 70
0
  0
VERTEX
  5
116
  8
14
 10
-3320.38664
 20
-1212.170853
 30
0.0
 70
0
  0
VERTEX
  5
117
  8
14
 10
-3335.54421
 20
-1211.378054
 30
0.0
 70
0
  0
VERTEX
  5
118
  8
14
 10
-3355.08556
 20
-1210.337575
 30
0.0
 70
0
  0
VERTEX
  5
119
  8
14
 10
-3373.661094
 20
-1209.330463
 30
0.0
 70
0
  0
VERTEX
  5
11A
  8
14
 10
-3391.051004
 20
-1208.37244
 30
0.0
 70
0
  0
VERTEX
  5
11B
  8
14
 10
-3407.035448
 20
-1207.479226
 30
0.0
 70
0
  0
VERTEX
  5
11C
  8
14
 10
-3424.704661
 20
-1206.477798
 30
0.0
 70
0
  0
VERTEX
  5
11D
  8
14
 10
-3441.950996
 20
-1205.485414
 30
0.0
 70
0
  0
VERTEX
  5
11E
  8
14
 10
-3461.493835
 20
-1204.338837
 30
0.0
 70
0
  0
VERTEX
  5
11F
  8
14
 10
-3461.493835
 20
-1204.338837
 30
0.0
 70
0
  0
VERTEX
  5
120
  8
14
 10
-3461.432354
 20
-1187.208158
 30
0.0
 70
0
  0
VERTEX
  5
121
  8
14
 10
-3461.375262
 20
-1171.303516
 30
0.0
 70
0
  0
VERTEX
  5
122
  8
14
 10
-3461.313429
 20
-1154.081238
 30
0.0
 70
0
  0
VERTEX
  5
123
  8
14
 10
-3461.252914
 20
-1137.229048
 30
0.0
 70
0
  0
VERTEX
  5
124
  8
14
 10
-3461.197677
 20
-1121.849364
 30
0.0
 70
0
  0
VERTEX
  5
125
  8
14
 10
-3461.140496
 20
-1105.931783
 30
0.0
 70
0
  0
VERTEX
  5
126
  8
14
 10
-3461.077859
 20
-1088.499814
 30
0.0
 70
0
  0
VERTEX
  5
127
  8
14
 10
-3461.02011
 20
-1072.432525
 30
0.0
 70
0
  0
VERTEX
  5
128
  8
14
 10
-3460.96361
 20
-1056.716009
 30
0.0
 70
0
  0
VERTEX
  5
129
  8
14
 10
-3460.909306
 20
-1041.613345
 30
0.0
 70
0
  0
VERTEX
  5
12A
  8
14
 10
-3460.849993
 20
-1025.120386
 30
0.0
 70
0
  0
VERTEX
  5
12B
  8
14
 10
-3460.796466
 20
-1010.23879
 30
0.0
 70
0
  0
VERTEX
  5
12C
  8
14
 10
-3460.73857
 20
-994.145342
 30
0.0
 70
0
  0
VERTEX
  5
12D
  8
14
 10
-3460.685659
 20
-979.439791
 30
0.0
 70
0
  0
VERTEX
  5
12E
  8
14
 10
-3460.667419
 20
-974.371262
 30
0.0
 70
0
  0
VERTEX
  5
12F
  8
14
 10
-3460.667419
 20
-974.371262
 30
0.0
 70
0
  0
VERTEX
  5
130
  8
14
 10
-3441.252615
 20
-973.367742
 30
0.0
 70
0
  0
VERTEX
  5
131
  8
14
 10
-3418.969718
 20
-972.215976
 30
0.0
 70
0
  0
VERTEX
  5
132
  8
14
 10
-3397.84164
 20
-971.1239
 30
0.0
 70
0
  0
VERTEX
  5
133
  8
14
 10
-3381.9637
 20
-970.303195
 30
0.0
 70
0
  0
VERTEX
  5
134
  8
14
 10
-3364.844742
 20
-969.418344
 30
0.0
 70
0
  0
VERTEX
  5
135
  8
14
 10
-3346.650262
 20
-968.477901
 30
0.0
 70
0
  0
VERTEX
  5
136
  8
14
 10
-3327.545714
 20
-967.490418
 30
0.0
 70
0
  0
VERTEX
  5
137
  8
14
 10
-3307.696546
 20
-966.464447
 30
0.0
 70
0
  0
VERTEX
  5
138
  8
14
 10
-3287.26826
 20
-965.408543
 30
0.0
 70
0
  0
VERTEX
  5
139
  8
14
 10
-3266.426306
 20
-964.331256
 30
0.0
 70
0
  0
VERTEX
  5
13A
  8
14
 10
-3245.336152
 20
-963.241141
 30
0.0
 70
0
  0
VERTEX
  5
13B
  8
14
 10
-3224.163244
 20
-962.146748
 30
0.0
 70
0
  0
VERTEX
  5
13C
  8
14
 10
-3203.073069
 20
-961.056631
 30
0.0
 70
0
  0
VERTEX
  5
13D
  8
14
 10
-3182.231131
 20
-959.979345
 30
0.0
 70
0
  0
VERTEX
  5
13E
  8
14
 10
-3161.802823
 20
-958.923439
 30
0.0
 70
0
  0
VERTEX
  5
13F
  8
14
 10
-3141.953649
 20
-957.897468
 30
0.0
 70
0
  0
VERTEX
  5
140
  8
14
 10
-3122.849111
 20
-956.909986
 30
0.0
 70
0
  0
VERTEX
  5
141
  8
14
 10
-3104.654607
 20
-955.969542
 30
0.0
 70
0
  0
VERTEX
  5
142
  8
14
 10
-3087.535639
 20
-955.08469
 30
0.0
 70
0
  0
VERTEX
  5
143
  8
14
 10
-3071.657702
 20
-954.263986
 30
0.0
 70
0
  0
VERTEX
  5
144
  8
14
 10
-3057.186206
 20
-953.515978
 30
0.0
 70
0
  0
VERTEX
  5
145
  8
14
 10
-3038.478063
 20
-952.548984
 30
0.0
 70
0
  0
VERTEX
  5
146
  8
14
 10
-3023.865228
 20
-951.793671
 30
0.0
 70
0
  0
VERTEX
  5
147
  8
14
 10
-3010.12797
 20
-951.083614
 30
0.0
 70
0
  0
VERTEX
  5
148
  8
14
 10
-3008.831787
 20
-951.016617
 30
0.0
 70
0
  0
VERTEX
  5
149
  8
14
 10
-3008.831787
 20
-951.016617
 30
0.0
 70
0
  0
VERTEX
  5
14A
  8
14
 10
-2991.992962
 20
-948.81616
 30
0.0
 70
0
  0
VERTEX
  5
14B
  8
14
 10
-2975.95265
 20
-946.564122
 30
0.0
 70
0
  0
VERTEX
  5
14C
  8
14
 10
-2960.063344
 20
-944.200695
 30
0.0
 70
0
  0
VERTEX
  5
14D
  8
14
 10
-2944.394432
 20
-941.735822
 30
0.0
 70
0
  0
VERTEX
  5
14E
  8
14
 10
-2927.728745
 20
-938.953087
 30
0.0
 70
0
  0
VERTEX
  5
14F
  8
14
 10
-2912.673827
 20
-936.276146
 30
0.0
 70
0
  0
VERTEX
  5
150
  8
14
 10
-2897.569322
 20
-933.40684
 30
0.0
 70
0
  0
VERTEX
  5
151
  8
14
 10
-2882.405002
 20
-930.318689
 30
0.0
 70
0
  0
VERTEX
  5
152
  8
14
 10
-2867.282703
 20
-927.02357
 30
0.0
 70
0
  0
VERTEX
  5
153
  8
14
 10
-2852.208259
 20
-923.516746
 30
0.0
 70
0
  0
VERTEX
  5
154
  8
14
 10
-2837.187559
 20
-919.793489
 30
0.0
 70
0
  0
VERTEX
  5
155
  8
14
 10
-2822.226437
 20
-915.849064
 30
0.0
 70
0
  0
VERTEX
  5
156
  8
14
 10
-2805.862639
 20
-911.254864
 30
0.0
 70
0
  0
VERTEX
  5
157
  8
14
 10
-2791.152178
 20
-906.885247
 30
0.0
 70
0
  0
VERTEX
  5
158
  8
14
 10
-2776.841432
 20
-902.44428
 30
0.0
 70
0
  0
VERTEX
  5
159
  8
14
 10
-2761.27244
 20
-897.42317
 30
0.0
 70
0
  0
VERTEX
  5
15A
  8
14
 10
-2746.872813
 20
-892.617902
 30
0.0
 70
0
  0
VERTEX
  5
15B
  8
14
 10
-2732.500823
 20
-887.675188
 30
0.0
 70
0
  0
VERTEX
  5
15C
  8
14
 10
-2718.255138
 20
-882.63062
 30
0.0
 70
0
  0
VERTEX
  5
15D
  8
14
 10
-2704.000549
 20
-877.410965
 30
0.0
 70
0
  0
VERTEX
  5
15E
  8
14
 10
-2704.000549
 20
-877.410965
 30
0.0
 70
0
  0
VERTEX
  5
15F
  8
14
 10
-2702.891813
 20
-882.991618
 30
0.0
 70
0
  0
VERTEX
  5
160
  8
14
 10
-2701.325642
 20
-889.189418
 30
0.0
 70
0
  0
VERTEX
  5
161
  8
14
 10
-2699.387936
 20
-895.583267
 30
0.0
 70
0
  0
VERTEX
  5
162
  8
14
 10
-2697.373661
 20
-901.286675
 30
0.0
 70
0
  0
VERTEX
  5
163
  8
14
 10
-2694.908271
 20
-907.346554
 30
0.0
 70
0
  0
VERTEX
  5
164
  8
14
 10
-2692.35301
 20
-912.82055
 30
0.0
 70
0
  0
VERTEX
  5
165
  8
14
 10
-2689.848111
 20
-917.558078
 30
0.0
 70
0
  0
VERTEX
  5
166
  8
14
 10
-2687.036886
 20
-922.269198
 30
0.0
 70
0
  0
VERTEX
  5
167
  8
14
 10
-2683.904313
 20
-926.88908
 30
0.0
 70
0
  0
VERTEX
  5
168
  8
14
 10
-2681.037529
 20
-930.622504
 30
0.0
 70
0
  0
VERTEX
  5
169
  8
14
 10
-2677.928464
 20
-934.210021
 30
0.0
 70
0
  0
VERTEX
  5
16A
  8
14
 10
-2674.568425
 20
-937.614111
 30
0.0
 70
0
  0
VERTEX
  5
16B
  8
14
 10
-2670.864915
 20
-940.866355
 30
0.0
 70
0
  0
VERTEX
  5
16C
  8
14
 10
-2666.987714
 20
-943.807602
 30
0.0
 70
0
  0
VERTEX
  5
16D
  8
14
 10
-2662.886514
 20
-946.523448
 30
0.0
 70
0
  0
VERTEX
  5
16E
  8
14
 10
-2658.590644
 20
-949.027404
 30
0.0
 70
0
  0
VERTEX
  5
16F
  8
14
 10
-2653.219942
 20
-951.771465
 30
0.0
 70
0
  0
VERTEX
  5
170
  8
14
 10
-2647.66184
 20
-954.253187
 30
0.0
 70
0
  0
VERTEX
  5
171
  8
14
 10
-2641.967038
 20
-956.495897
 30
0.0
 70
0
  0
VERTEX
  5
172
  8
14
 10
-2635.217961
 20
-958.841438
 30
0.0
 70
0
  0
VERTEX
  5
173
  8
14
 10
-2627.614591
 20
-961.167232
 30
0.0
 70
0
  0
VERTEX
  5
174
  8
14
 10
-2619.252528
 20
-963.438579
 30
0.0
 70
0
  0
VERTEX
  5
175
  8
14
 10
-2610.101753
 20
-965.66269
 30
0.0
 70
0
  0
VERTEX
  5
176
  8
14
 10
-2604.741516
 20
-966.842728
 30
0.0
 70
0
  0
VERTEX
  5
177
  8
14
 10
-2588.787347
 20
-970.676657
 30
0.0
 70
0
  0
VERTEX
  5
178
  8
14
 10
-2573.741948
 20
-974.295264
 30
0.0
 70
0
  0
VERTEX
  5
179
  8
14
 10
-2558.815808
 20
-977.88795
 30
0.0
 70
0
  0
VERTEX
  5
17A
  8
14
 10
-2542.520586
 20
-981.813665
 30
0.0
 70
0
  0
VERTEX
  5
17B
  8
14
 10
-2528.623549
 20
-985.165056
 30
0.0
 70
0
  0
VERTEX
  5
17C
  8
14
 10
-2511.795102
 20
-989.228198
 30
0.0
 70
0
  0
VERTEX
  5
17D
  8
14
 10
-2495.887066
 20
-993.073187
 30
0.0
 70
0
  0
VERTEX
  5
17E
  8
14
 10
-2480.548243
 20
-996.783726
 30
0.0
 70
0
  0
VERTEX
  5
17F
  8
14
 10
-2466.175304
 20
-1000.263236
 30
0.0
 70
0
  0
VERTEX
  5
180
  8
14
 10
-2459.822998
 20
-1001.801987
 30
0.0
 70
0
  0
VERTEX
  5
181
  8
14
 10
-2459.821777
 20
-1001.77681
 30
0.0
 70
0
  0
VERTEX
  5
182
  8
14
 10
-2459.822998
 20
-1001.801987
 30
0.0
 70
0
  0
VERTEX
  5
183
  8
14
 10
-2460.6538
 20
-1018.845509
 30
0.0
 70
0
  0
VERTEX
  5
184
  8
14
 10
-2461.436472
 20
-1034.960346
 30
0.0
 70
0
  0
VERTEX
  5
185
  8
14
 10
-2462.228666
 20
-1051.317956
 30
0.0
 70
0
  0
VERTEX
  5
186
  8
14
 10
-2463.029781
 20
-1067.905487
 30
0.0
 70
0
  0
VERTEX
  5
187
  8
14
 10
-2463.793843
 20
-1083.768871
 30
0.0
 70
0
  0
VERTEX
  5
188
  8
14
 10
-2464.606724
 20
-1100.693573
 30
0.0
 70
0
  0
VERTEX
  5
189
  8
14
 10
-2465.335055
 20
-1115.901901
 30
0.0
 70
0
  0
VERTEX
  5
18A
  8
14
 10
-2466.08615
 20
-1131.632069
 30
0.0
 70
0
  0
VERTEX
  5
18B
  8
14
 10
-2466.85396
 20
-1147.765045
 30
0.0
 70
0
  0
VERTEX
  5
18C
  8
14
 10
-2467.632437
 20
-1164.181798
 30
0.0
 70
0
  0
VERTEX
  5
18D
  8
14
 10
-2468.415534
 20
-1180.763295
 30
0.0
 70
0
  0
VERTEX
  5
18E
  8
14
 10
-2468.715057
 20
-1187.125397
 30
0.0
 70
0
  0
VERTEX
  5
18F
  8
14
 10
-2469.232284
 20
-1198.136712
 30
0.0
 70
0
  0
VERTEX
  5
190
  8
14
 10
-2469.958485
 20
-1213.642976
 30
0.0
 70
0
  0
VERTEX
  5
191
  8
14
 10
-2470.644763
 20
-1228.337473
 30
0.0
 70
0
  0
VERTEX
  5
192
  8
14
 10
-2471.110229
 20
-1238.32695
 30
0.0
 70
0
  0
VERTEX
  5
193
  8
14
 10
-2471.110229
 20
-1238.32695
 30
0.0
 70
0
  0
VERTEX
  5
194
  8
14
 10
-2475.375488
 20
-1238.6486
 30
0.0
 70
0
  0
VERTEX
  5
195
  8
14
 10
-2489.865205
 20
-1239.665941
 30
0.0
 70
0
  0
VERTEX
  5
196
  8
14
 10
-2505.588717
 20
-1240.665352
 30
0.0
 70
0
  0
VERTEX
  5
197
  8
14
 10
-2521.812347
 20
-1241.578701
 30
0.0
 70
0
  0
VERTEX
  5
198
  8
14
 10
-2536.946008
 20
-1242.304442
 30
0.0
 70
0
  0
VERTEX
  5
199
  8
14
 10
-2552.023113
 20
-1242.878046
 30
0.0
 70
0
  0
VERTEX
  5
19A
  8
14
 10
-2567.398791
 20
-1243.301973
 30
0.0
 70
0
  0
VERTEX
  5
19B
  8
14
 10
-2582.779414
 20
-1243.573183
 30
0.0
 70
0
  0
VERTEX
  5
19C
  8
14
 10
-2598.163261
 20
-1243.701581
 30
0.0
 70
0
  0
VERTEX
  5
19D
  8
14
 10
-2613.548765
 20
-1243.697074
 30
0.0
 70
0
  0
VERTEX
  5
19E
  8
14
 10
-2628.934208
 20
-1243.569572
 30
0.0
 70
0
  0
VERTEX
  5
19F
  8
14
 10
-2644.317984
 20
-1243.32898
 30
0.0
 70
0
  0
VERTEX
  5
1A0
  8
14
 10
-2660.865827
 20
-1242.95494
 30
0.0
 70
0
  0
VERTEX
  5
1A1
  8
14
 10
-2676.241757
 20
-1242.505144
 30
0.0
 70
0
  0
VERTEX
  5
1A2
  8
14
 10
-2691.61334
 20
-1241.956009
 30
0.0
 70
0
  0
VERTEX
  5
1A3
  8
14
 10
-2706.980548
 20
-1241.306324
 30
0.0
 70
0
  0
VERTEX
  5
1A4
  8
14
 10
-2723.515339
 20
-1240.496977
 30
0.0
 70
0
  0
VERTEX
  5
1A5
  8
14
 10
-2738.874852
 20
-1239.673327
 30
0.0
 70
0
  0
VERTEX
  5
1A6
  8
14
 10
-2754.331247
 20
-1238.818999
 30
0.0
 70
0
  0
VERTEX
  5
1A7
  8
14
 10
-2769.672742
 20
-1237.973925
 30
0.0
 70
0
  0
VERTEX
  5
1A8
  8
14
 10
-2784.952374
 20
-1237.13734
 30
0.0
 70
0
  0
VERTEX
  5
1A9
  8
14
 10
-2800.122181
 20
-1236.311455
 30
0.0
 70
0
  0
VERTEX
  5
1AA
  8
14
 10
-2815.13405
 20
-1235.498486
 30
0.0
 70
0
  0
VERTEX
  5
1AB
  8
14
 10
-2832.035511
 20
-1234.588033
 30
0.0
 70
0
  0
VERTEX
  5
1AC
  8
14
 10
-2848.596304
 20
-1233.700642
 30
0.0
 70
0
  0
VERTEX
  5
1AD
  8
14
 10
-2864.744688
 20
-1232.83962
 30
0.0
 70
0
  0
VERTEX
  5
1AE
  8
14
 10
-2880.408992
 20
-1232.008269
 30
0.0
 70
0
  0
VERTEX
  5
1AF
  8
14
 10
-2897.363392
 20
-1231.112581
 30
0.0
 70
0
  0
VERTEX
  5
1B0
  8
14
 10
-2913.512256
 20
-1230.263332
 30
0.0
 70
0
  0
VERTEX
  5
1B1
  8
14
 10
-2928.753489
 20
-1229.465228
 30
0.0
 70
0
  0
VERTEX
  5
1B2
  8
14
 10
-2944.499512
 20
-1228.644152
 30
0.0
 70
0
  0
VERTEX
  5
1B3
  8
14
 10
-2960.213185
 20
-1227.828306
 30
0.0
 70
0
  0
VERTEX
  5
1B4
  8
14
 10
-2976.365857
 20
-1226.993498
 30
0.0
 70
0
  0
VERTEX
  5
1B5
  8
14
 10
-2992.216791
 20
-1226.178405
 30
0.0
 70
0
  0
SEQEND
  5
101
  8
14
  0
POLYLINE
  5
1B6
  8
8
 66
1
 10
0.0
 20
0.0
 30
0.0
 70
0
  0
VERTEX
  5
1B8
  8
8
 10
-2497.637177
 20
-1036.616287
 30
0.0
 70
0
  0
VERTEX
  5
1B9
  8
8
 10
-2498.909475
 20
-1055.154614
 30
0.0
 70
0
  0
VERTEX
  5
1BA
  8
8
 10
-2500.043713
 20
-1071.681314
 30
0.0
 70
0
  0
VERTEX
  5
1BB
  8
8
 10
-2501.150008
 20
-1087.800847
 30
0.0
 70
0
  0
VERTEX
  5
1BC
  8
8
 10
-2502.339423
 20
-1105.131504
 30
0.0
 70
0
  0
VERTEX
  5
1BD
  8
8
 10
-2503.552587
 20
-1122.808208
 30
0.0
 70
0
  0
VERTEX
  5
1BE
  8
8
 10
-2504.730127
 20
-1139.965849
 30
0.0
 70
0
  0
VERTEX
  5
1BF
  8
8
 10
-2505.812674
 20
-1155.739354
 30
0.0
 70
0
  0
VERTEX
  5
1C0
  8
8
 10
-2506.90274
 20
-1171.622433
 30
0.0
 70
0
  0
VERTEX
  5
1C1
  8
8
 10
-2507.896625
 20
-1186.104074
 30
0.0
 70
0
  0
VERTEX
  5
1C2
  8
8
 10
-2508.013153
 20
-1187.801971
 30
0.0
 70
0
  0
SEQEND
  5
1B7
  8
8
  0
POLYLINE
  5
1C3
  8
8
 66
1
 10
0.0
 20
0.0
 30
0.0
 70
0
  0
VERTEX
  5
1C5
  8
8
 10
-2606.329041
 20
-970.297089
 30
0.0
 70
0
  0
VERTEX
  5
1C6
  8
8
 10
-2630.534973
 20
-1243.370514
 30
0.0
 70
0
  0
SEQEND
  5
1C4
  8
8
  0
POLYLINE
  5
1C7
  8
8
 66
1
 10
0.0
 20
0.0
 30
0.0
 70
0
  0
VERTEX
  5
1C9
  8
8
 10
-3461.080627
 20
-1093.123474
 30
0.0
 70
0
  0
VERTEX
  5
1CA
  8
8
 10
-3440.382136
 20
-1093.114251
 30
0.0
 70
0
  0
VERTEX
  5
1CB
  8
8
 10
-3422.452436
 20
-1093.106593
 30
0.0
 70
0
  0
VERTEX
  5
1CC
  8
8
 10
-3404.636537
 20
-1093.099213
 30
0.0
 70
0
  0
VERTEX
  5
1CD
  8
8
 10
-3384.004966
 20
-1093.090924
 30
0.0
 70
0
  0
VERTEX
  5
1CE
  8
8
 10
-3366.833822
 20
-1093.084226
 30
0.0
 70
0
  0
VERTEX
  5
1CF
  8
8
 10
-3348.32483
 20
-1093.077203
 30
0.0
 70
0
  0
VERTEX
  5
1D0
  8
8
 10
-3328.583403
 20
-1093.069936
 30
0.0
 70
0
  0
VERTEX
  5
1D1
  8
8
 10
-3307.714938
 20
-1093.062505
 30
0.0
 70
0
  0
VERTEX
  5
1D2
  8
8
 10
-3285.824909
 20
-1093.05499
 30
0.0
 70
0
  0
VERTEX
  5
1D3
  8
8
 10
-3263.018652
 20
-1093.047471
 30
0.0
 70
0
  0
VERTEX
  5
1D4
  8
8
 10
-3247.357527
 20
-1093.042495
 30
0.0
 70
0
  0
VERTEX
  5
1D5
  8
8
 10
-3231.367285
 20
-1093.037577
 30
0.0
 70
0
  0
VERTEX
  5
1D6
  8
8
 10
-3215.079196
 20
-1093.03274
 30
0.0
 70
0
  0
VERTEX
  5
1D7
  8
8
 10
-3198.524423
 20
-1093.028008
 30
0.0
 70
0
  0
VERTEX
  5
1D8
  8
8
 10
-3181.734234
 20
-1093.023404
 30
0.0
 70
0
  0
VERTEX
  5
1D9
  8
8
 10
-3164.739899
 20
-1093.018953
 30
0.0
 70
0
  0
VERTEX
  5
1DA
  8
8
 10
-3147.572579
 20
-1093.014678
 30
0.0
 70
0
  0
VERTEX
  5
1DB
  8
8
 10
-3130.263543
 20
-1093.010602
 30
0.0
 70
0
  0
VERTEX
  5
1DC
  8
8
 10
-3112.844063
 20
-1093.00675
 30
0.0
 70
0
  0
VERTEX
  5
1DD
  8
8
 10
-3095.345296
 20
-1093.003146
 30
0.0
 70
0
  0
VERTEX
  5
1DE
  8
8
 10
-3077.798514
 20
-1092.999812
 30
0.0
 70
0
  0
VERTEX
  5
1DF
  8
8
 10
-3068.361646
 20
-1092.99814
 30
0.0
 70
0
  0
VERTEX
  5
1E0
  8
8
 10
-3042.035628
 20
-1092.993935
 30
0.0
 70
0
  0
VERTEX
  5
1E1
  8
8
 10
-3024.54803
 20
-1092.991493
 30
0.0
 70
0
  0
VERTEX
  5
1E2
  8
8
 10
-3007.155072
 20
-1092.989324
 30
0.0
 70
0
  0
VERTEX
  5
1E3
  8
8
 10
-2989.894649
 20
-1092.987415
 30
0.0
 70
0
  0
VERTEX
  5
1E4
  8
8
 10
-2972.804579
 20
-1092.985751
 30
0.0
 70
0
  0
VERTEX
  5
1E5
  8
8
 10
-2955.922644
 20
-1092.98432
 30
0.0
 70
0
  0
VERTEX
  5
1E6
  8
8
 10
-2939.286848
 20
-1092.983108
 30
0.0
 70
0
  0
VERTEX
  5
1E7
  8
8
 10
-2922.934973
 20
-1092.9821
 30
0.0
 70
0
  0
VERTEX
  5
1E8
  8
8
 10
-2906.904807
 20
-1092.981284
 30
0.0
 70
0
  0
VERTEX
  5
1E9
  8
8
 10
-2891.234345
 20
-1092.980645
 30
0.0
 70
0
  0
VERTEX
  5
1EA
  8
8
 10
-2875.961372
 20
-1092.980171
 30
0.0
 70
0
  0
VERTEX
  5
1EB
  8
8
 10
-2861.123682
 20
-1092.979846
 30
0.0
 70
0
  0
VERTEX
  5
1EC
  8
8
 10
-2839.766329
 20
-1092.979612
 30
0.0
 70
0
  0
VERTEX
  5
1ED
  8
8
 10
-2819.601389
 20
-1092.979639
 30
0.0
 70
0
  0
VERTEX
  5
1EE
  8
8
 10
-2800.756743
 20
-1092.979882
 30
0.0
 70
0
  0
VERTEX
  5
1EF
  8
8
 10
-2783.360048
 20
-1092.980294
 30
0.0
 70
0
  0
VERTEX
  5
1F0
  8
8
 10
-2767.53917
 20
-1092.98083
 30
0.0
 70
0
  0
VERTEX
  5
1F1
  8
8
 10
-2749.116643
 20
-1092.981656
 30
0.0
 70
0
  0
VERTEX
  5
1F2
  8
8
 10
-2734.025505
 20
-1092.98251
 30
0.0
 70
0
  0
VERTEX
  5
1F3
  8
8
 10
-2718.297533
 20
-1092.983605
 30
0.0
 70
0
  0
VERTEX
  5
1F4
  8
8
 10
-2711.645813
 20
-1092.984161
 30
0.0
 70
0
  0
SEQEND
  5
1C8
  8
8
  0
POLYLINE
  5
1F5
  8
8
 66
1
 10
0.0
 20
0.0
 30
0.0
 70
0
  0
VERTEX
  5
1F7
  8
8
 10
-3008.831787
 20
-951.016617
 30
0.0
 70
0
  0
VERTEX
  5
1F8
  8
8
 10
-3008.831787
 20
-968.899964
 30
0.0
 70
0
  0
VERTEX
  5
1F9
  8
8
 10
-3008.831787
 20
-984.450823
 30
0.0
 70
0
  0
VERTEX
  5
1FA
  8
8
 10
-3008.831787
 20
-1001.04662
 30
0.0
 70
0
  0
VERTEX
  5
1FB
  8
8
 10
-3008.831787
 20
-1017.069496
 30
0.0
 70
0
  0
VERTEX
  5
1FC
  8
8
 10
-3008.831787
 20
-1034.39925
 30
0.0
 70
0
  0
VERTEX
  5
1FD
  8
8
 10
-3008.831787
 20
-1049.597966
 30
0.0
 70
0
  0
VERTEX
  5
1FE
  8
8
 10
-3008.831787
 20
-1065.278794
 30
0.0
 70
0
  0
VERTEX
  5
1FF
  8
8
 10
-3008.831787
 20
-1081.248393
 30
0.0
 70
0
  0
VERTEX
  5
200
  8
8
 10
-3008.831787
 20
-1098.808541
 30
0.0
 70
0
  0
VERTEX
  5
201
  8
8
 10
-3008.831787
 20
-1114.752811
 30
0.0
 70
0
  0
VERTEX
  5
202
  8
8
 10
-3008.831787
 20
-1130.378551
 30
0.0
 70
0
  0
VERTEX
  5
203
  8
8
 10
-3008.831787
 20
-1145.48663
 30
0.0
 70
0
  0
VERTEX
  5
204
  8
8
 10
-3008.831787
 20
-1162.65272
 30
0.0
 70
0
  0
VERTEX
  5
205
  8
8
 10
-3008.831787
 20
-1178.442695
 30
0.0
 70
0
  0
VERTEX
  5
206
  8
8
 10
-3008.831787
 20
-1194.666065
 30
0.0
 70
0
  0
VERTEX
  5
207
  8
8
 10
-3008.831787
 20
-1209.639326
 30
0.0
 70
0
  0
VERTEX
  5
208
  8
8
 10
-3008.831787
 20
-1223.825077
 30
0.0
 70
0
  0
VERTEX
  5
209
  8
8
 10
-3008.831787
 20
-1225.32959
 30
0.0
 70
0
  0
SEQEND
  5
1F6
  8
8
  0
POLYLINE
  5
20A
  8
8
 66
1
 10
0.0
 20
0.0
 30
0.0
 70
0
  0
VERTEX
  5
20C
  8
8
 10
-2704.065552
 20
-880.864716
 30
0.0
 70
0
  0
VERTEX
  5
20D
  8
8
 10
-2711.347656
 20
-1241.083221
 30
0.0
 70
0
  0
SEQEND
  5
20B
  8
8
  0
POINT
  5
20E
  8
4
 10
-3009.268188
 20
-1238.022308
 30
0.0
  0
POINT
  5
20F
  8
4
 10
-3461.539612
 20
-1217.057877
 30
0.0
  0
POINT
  5
210
  8
4
 10
-3460.621643
 20
-961.651993
 30
0.0
  0
POINT
  5
211
  8
4
 10
-3009.487305
 20
-938.333588
 30
0.0
  0
POINT
  5
212
  8
4
 10
-2718.763123
 20
-869.260941
 30
0.0
  0
POINT
  5
213
  8
4
 10
-2459.029694
 20
-985.529175
 30
0.0
  0
POINT
  5
214
  8
4
 10
-2447.256165
 20
-1004.846115
 30
0.0
  0
POINT
  5
215
  8
4
 10
-2456.029053
 20
-1187.722931
 30
0.0
  0
POINT
  5
216
  8
4
 10
-2471.705475
 20
-1251.104584
 30
0.0
  0
POINT
  5
217
  8
4
 10
-3008.834839
 20
-1225.32959
 30
0.0
  0
POINT
  5
218
  8
4
 10
-3461.493835
 20
-1204.338837
 30
0.0
  0
POINT
  5
219
  8
4
 10
-3460.667419
 20
-974.371262
 30
0.0
  0
POINT
  5
21A
  8
4
 10
-3008.831787
 20
-951.016617
 30
0.0
  0
POINT
  5
21B
  8
4
 10
-2704.000549
 20
-877.410965
 30
0.0
  0
POINT
  5
21C
  8
4
 10
-2459.822998
 20
-1001.801987
 30
0.0
  0
POINT
  5
21D
  8
4
 10
-2459.822998
 20
-1001.801987
 30
0.0
  0
POINT
  5
21E
  8
4
 10
-2468.715057
 20
-1187.125397
 30
0.0
  0
POINT
  5
21F
  8
4
 10
-2471.110229
 20
-1238.32695
 30
0.0
  0
LINE
  5
220
  8
7
 10
-3387.257385
 20
-1086.681671
 30
0.0
 11
-2519.147034
 21
-1086.681671
 31
0.0
  0
ENDSEC
  0
EOF
