  0
SECTION
  2
HEADER
  9
$ACADVER
  1
AC1009
  9
$DWGCODEPAGE
  3
ANSI_1252
  9
$INSBASE
 10
0.0
 20
0.0
 30
0.0
  9
$EXTMIN
 10
1e+20
 20
1e+20
 30
1e+20
  9
$EXTMAX
 10
-1e+20
 20
-1e+20
 30
-1e+20
  9
$LIMMIN
 10
0.0
 20
0.0
  9
$LIMMAX
 10
420.0
 20
297.0
  9
$ORTHOMODE
 70
0
  9
$REGENMODE
 70
1
  9
$FILLMODE
 70
1
  9
$DRAGMODE
 70
2
  9
$QTEXTMODE
 70
0
  9
$MIRRTEXT
 70
1
  9
$OSMODE
 70
20583
  9
$LTSCALE
 40
1.0
  9
$ATTMODE
 70
1
  9
$TEXTSIZE
 40
2.5
  9
$TRACEWID
 40
1.0
  9
$TEXTSTYLE
  7
Standard
  9
$CLAYER
  8
0
  9
$CELTYPE
  6
ByLayer
  9
$CECOLOR
 62
256
  9
$DIMSCALE
 40
1.0
  9
$DIMASZ
 40
2.5
  9
$DIMEXO
 40
0.625
  9
$DIMDLI
 40
3.75
  9
$DIMRND
 40
0.0
  9
$DIMDLE
 40
0.0
  9
$DIMEXE
 40
1.25
  9
$DIMTP
 40
0.0
  9
$DIMTM
 40
0.0
  9
$DIMTXT
 40
2.5
  9
$DIMCEN
 40
2.5
  9
$DIMTSZ
 40
0.0
  9
$DIMTOL
 70
0
  9
$DIMLIM
 70
0
  9
$DIMTIH
 70
0
  9
$DIMTOH
 70
0
  9
$DIMSE1
 70
0
  9
$DIMSE2
 70
0
  9
$DIMTAD
 70
1
  9
$DIMZIN
 70
8
  9
$DIMBLK
  1

  9
$DIMASO
 70
1
  9
$DIMSHO
 70
1
  9
$DIMPOST
  1

  9
$DIMAPOST
  1

  9
$DIMALT
 70
0
  9
$DIMALTD
 70
3
  9
$DIMALTF
 40
0.03937007874
  9
$DIMLFAC
 40
1.0
  9
$DIMTOFL
 70
1
  9
$DIMTVP
 40
0.0
  9
$DIMTIX
 70
0
  9
$DIMSOXD
 70
0
  9
$DIMSAH
 70
0
  9
$DIMBLK1
  1

  9
$DIMBLK2
  1

  9
$DIMSTYLE
  2
ISO-25
  9
$DIMCLRD
 70
0
  9
$DIMCLRE
 70
0
  9
$DIMCLRT
 70
0
  9
$DIMTFAC
 40
1.0
  9
$DIMGAP
 40
0.625
  9
$COORDS
 70
1
  9
$ATTDIA
 70
0
  9
$ATTREQ
 70
1
  9
$HANDLING
 70
1
  9
$LUNITS
 70
2
  9
$LUPREC
 70
4
  9
$SKETCHINC
 40
1.0
  9
$FILLETRAD
 40
10.0
  9
$AUNITS
 70
0
  9
$AUPREC
 70
2
  9
$MENU
  1
.
  9
$ELEVATION
 40
0.0
  9
$PELEVATION
 40
0.0
  9
$THICKNESS
 40
0.0
  9
$LIMCHECK
 70
0
  9
$CHAMFERA
 40
0.0
  9
$CHAMFERB
 40
0.0
  9
$SKPOLY
 70
0
  9
$TDCREATE
 40
2461264.9423032408
  9
$TDUPDATE
 40
2461264.9423032408
  9
$TDINDWG
 40
0.0
  9
$TDUSRTIMER
 40
0.0
  9
$USRTIMER
 70
1
  9
$ANGBASE
 50
0.0
  9
$ANGDIR
 70
0
  9
$PDMODE
 70
0
  9
$PDSIZE
 40
0.0
  9
$PLINEWID
 40
0.0
  9
$SPLFRAME
 70
0
  9
$SPLINETYPE
 70
6
  9
$SPLINESEGS
 70
8
  9
$HANDSEED
  5
11F
  9
$SURFTAB1
 70
6
  9
$SURFTAB2
 70
6
  9
$SURFTYPE
 70
6
  9
$SURFU
 70
6
  9
$SURFV
 70
6
  9
$UCSNAME
  2

  9
$UCSORG
 10
0.0
 20
0.0
 30
0.0
  9
$UCSXDIR
 10
1.0
 20
0.0
 30
0.0
  9
$UCSYDIR
 10
0.0
 20
1.0
 30
0.0
  9
$PUCSNAME
  2

  9
$PUCSORG
 10
0.0
 20
0.0
 30
0.0
  9
$PUCSXDIR
 10
1.0
 20
0.0
 30
0.0
  9
$PUCSYDIR
 10
0.0
 20
1.0
 30
0.0
  9
$USERI1
 70
0
  9
$USERI2
 70
0
  9
$USERI3
 70
0
  9
$USERI4
 70
0
  9
$USERI5
 70
0
  9
$USERR1
 40
0.0
  9
$USERR2
 40
0.0
  9
$USERR3
 40
0.0
  9
$USERR4
 40
0.0
  9
$USERR5
 40
0.0
  9
$WORLDVIEW
 70
1
  9
$SHADEDGE
 70
3
  9
$SHADEDIF
 70
70
  9
$TILEMODE
 70
1
  9
$MAXACTVP
 70
64
  9
$PLIMCHECK
 70
0
  9
$PEXTMIN
 10
1e+20
 20
1e+20
 30
1e+20
  9
$PEXTMAX
 10
-1e+20
 20
-1e+20
 30
-1e+20
  9
$PLIMMIN
 10
0.0
 20
0.0
  9
$PLIMMAX
 10
420.0
 20
297.0
  9
$UNITMODE
 70
0
  9
$VISRETAIN
 70
1
  9
$PLINEGEN
 70
0
  9
$PSLTSCALE
 70
1
  0
ENDSEC
  0
SECTION
  2
TABLES
  0
TABLE
  2
VPORT
 70
1
  0
VPORT
  5
23
  2
*Active
 70
0
 10
0.0
 20
0.0
 11
1.0
 21
1.0
 12
0.0
 22
0.0
 13
0.0
 23
0.0
 14
0.5
 24
0.5
 15
0.5
 25
0.5
 16
0.0
 26
0.0
 36
1.0
 17
0.0
 27
0.0
 37
0.0
 40
1000.0
 41
1.34
 42
50.0
 43
0.0
 44
0.0
 50
0.0
 51
0.0
 71
0
 72
1000
 73
1
 74
3
 75
0
 76
0
 77
0
 78
0
  0
ENDTAB
  0
TABLE
  2
LTYPE
 70
3
  0
LTYPE
  5
24
  2
ByBlock
 70
0
  3

 72
65
 73
0
 40
0.0
  0
LTYPE
  5
25
  2
ByLayer
 70
0
  3

 72
65
 73
0
 40
0.0
  0
LTYPE
  5
26
  2
Continuous
 70
0
  3

 72
65
 73
0
 40
0.0
  0
ENDTAB
  0
TABLE
  2
LAYER
 70
7
  0
LAYER
  5
27
  2
0
 70
0
 62
7
  6
Continuous
  0
LAYER
  5
28
  2
Defpoints
 70
0
 62
7
  6
Continuous
  0
LAYER
  5
2D
  2
1
 70
0
 62
1
  6
Continuous
  0
LAYER
  5
2E
  2
7
 70
0
 62
7
  6
Continuous
  0
LAYER
  5
2F
  2
14
 70
0
 62
3
  6
Continuous
  0
LAYER
  5
30
  2
8
 70
0
 62
6
  6
Continuous
  0
LAYER
  5
31
  2
4
 70
0
 62
2
  6
Continuous
  0
ENDTAB
  0
TABLE
  2
STYLE
 70
1
  0
STYLE
  5
29
  2
Standard
 70
0
 40
0.0
 41
1.0
 50
0.0
 71
0
 42
2.5
  3
txt
  4

  0
ENDTAB
  0
TABLE
  2
VIEW
 70
0
  0
ENDTAB
  0
TABLE
  2
UCS
 70
0
  0
ENDTAB
  0
TABLE
  2
APPID
 70
3
  0
APPID
  5
2A
  2
ACAD
 70
0
  0
APPID
  5
11D
  2
HATCHBACKGROUNDCOLOR
 70
0
  0
APPID
  5
11E
  2
EZDXF
 70
0
  0
ENDTAB
  0
TABLE
  2
DIMSTYLE
 70
1
  0
DIMSTYLE
105
2B
  2
Standard
 70
0
  3

  4

  5

  6

  7

 40
1.0
 41
2.5
 42
0.625
 43
3.75
 44
1.25
 45
0.0
 46
0.0
 47
0.0
 48
0.0
140
2.5
141
2.5
142
0.0
143
0.03937007874
144
1.0
145
0.0
146
1.0
147
0.625
 71
0
 72
0
 73
0
 74
0
 75
0
 76
0
 77
1
 78
8
170
0
171
3
172
1
173
0
174
0
175
0
176
0
177
0
178
0
  0
ENDTAB
  0
ENDSEC
  0
SECTION
  2
BLOCKS
  0
BLOCK
  5
18
  8
0
  2
$Model_Space
 70
0
 10
0.0
 20
0.0
 30
0.0
  3
$Model_Space
  1

1001
EZDXF
1000
CREATED_BY_EZDXF
1000
1.4.4 @ 2026-08-11T14:36:55.624939+00:00
1000
WRITTEN_BY_EZDXF
1000
1.4.4 @ 2026-08-11T14:36:55.627941+00:00
  0
ENDBLK
  5
19
  8
0
  0
BLOCK
  5
1C
  8
0
  2
$Paper_Space
 70
0
 10
0.0
 20
0.0
 30
0.0
  3
$Paper_Space
  1

  0
ENDBLK
  5
1D
  8
0
  0
ENDSEC
  0
SECTION
  2
ENTITIES
  0
POLYLINE
  5
32
  8
1
 66
1
 10
0.0
 20
0.0
 30
0.0
 70
1
  0
VERTEX
  5
34
  8
1
 10
-2163.905029
 20
-558.615074
 30
0.0
 70
0
  0
VERTEX
  5
35
  8
1
 10
-2178.522859
 20
-553.605878
 30
0.0
 70
0
  0
VERTEX
  5
36
  8
1
 10
-2193.183418
 20
-548.582039
 30
0.0
 70
0
  0
VERTEX
  5
37
  8
1
 10
-2207.664234
 20
-543.619793
 30
0.0
 70
0
  0
VERTEX
  5
38
  8
1
 10
-2221.935861
 20
-538.729231
 30
0.0
 70
0
  0
VERTEX
  5
39
  8
1
 10
-2236.207477
 20
-533.838673
 30
0.0
 70
0
  0
VERTEX
  5
3A
  8
1
 10
-2250.62734
 20
-528.897322
 30
0.0
 70
0
  0
VERTEX
  5
3B
  8
1
 10
-2258.334808
 20
-526.25618
 30
0.0
 70
0
  0
VERTEX
  5
3C
  8
1
 10
-2259.973578
 20
-510.751678
 30
0.0
 70
0
  0
VERTEX
  5
3D
  8
1
 10
-2261.570459
 20
-495.239898
 30
0.0
 70
0
  0
VERTEX
  5
3E
  8
1
 10
-2263.10186
 20
-479.870826
 30
0.0
 70
0
  0
VERTEX
  5
3F
  8
1
 10
-2264.572959
 20
-464.406312
 30
0.0
 70
0
  0
VERTEX
  5
40
  8
1
 10
-2265.916056
 20
-449.439489
 30
0.0
 70
0
  0
VERTEX
  5
41
  8
1
 10
-2267.215005
 20
-433.959608
 30
0.0
 70
0
  0
VERTEX
  5
42
  8
1
 10
-2268.434421
 20
-418.473183
 30
0.0
 70
0
  0
VERTEX
  5
43
  8
1
 10
-2269.55455
 20
-403.415978
 30
0.0
 70
0
  0
VERTEX
  5
44
  8
1
 10
-2270.639295
 20
-387.91965
 30
0.0
 70
0
  0
VERTEX
  5
45
  8
1
 10
-2271.640258
 20
-372.691717
 30
0.0
 70
0
  0
VERTEX
  5
46
  8
1
 10
-2272.558002
 20
-358.0551
 30
0.0
 70
0
  0
VERTEX
  5
47
  8
1
 10
-2272.644043
 20
-356.644249
 30
0.0
 70
0
  0
VERTEX
  5
48
  8
1
 10
-2272.644043
 20
-356.644249
 30
0.0
 70
0
  0
VERTEX
  5
49
  8
1
 10
-2271.837716
 20
-343.693851
 30
0.0
 70
0
  0
VERTEX
  5
4A
  8
1
 10
-2270.816803
 20
-328.069382
 30
0.0
 70
0
  0
VERTEX
  5
4B
  8
1
 10
-2255.550995
 20
-328.070412
 30
0.0
 70
0
  0
VERTEX
  5
4C
  8
1
 10
-2255.151103
 20
-328.070439
 30
0.0
 70
0
  0
VERTEX
  5
4D
  8
1
 10
-2240.047812
 20
-328.071467
 30
0.0
 70
0
  0
VERTEX
  5
4E
  8
1
 10
-2224.944526
 20
-328.072501
 30
0.0
 70
0
  0
VERTEX
  5
4F
  8
1
 10
-2209.801992
 20
-328.073541
 30
0.0
 70
0
  0
VERTEX
  5
50
  8
1
 10
-2194.698694
 20
-328.074579
 30
0.0
 70
0
  0
VERTEX
  5
51
  8
1
 10
-2179.4583
 20
-328.075624
 30
0.0
 70
0
  0
VERTEX
  5
52
  8
1
 10
-2164.355031
 20
-328.076659
 30
0.0
 70
0
  0
VERTEX
  5
53
  8
1
 10
-2149.088548
 20
-328.077705
 30
0.0
 70
0
  0
VERTEX
  5
54
  8
1
 10
-2133.985276
 20
-328.07874
 30
0.0
 70
0
  0
VERTEX
  5
55
  8
1
 10
-2118.882008
 20
-328.07978
 30
0.0
 70
0
  0
VERTEX
  5
56
  8
1
 10
-2103.480614
 20
-328.080846
 30
0.0
 70
0
  0
VERTEX
  5
57
  8
1
 10
-2088.377322
 20
-328.08189
 30
0.0
 70
0
  0
VERTEX
  5
58
  8
1
 10
-2073.351463
 20
-328.082918
 30
0.0
 70
0
  0
VERTEX
  5
59
  8
1
 10
-2072.17514
 20
-328.083
 30
0.0
 70
0
  0
VERTEX
  5
5A
  8
1
 10
-2058.404325
 20
-328.08393
 30
0.0
 70
0
  0
VERTEX
  5
5B
  8
1
 10
-2056.912079
 20
-328.083534
 30
0.0
 70
0
  0
VERTEX
  5
5C
  8
1
 10
-2056.00015
 20
-343.708362
 30
0.0
 70
0
  0
VERTEX
  5
5D
  8
1
 10
-2055.291901
 20
-356.659164
 30
0.0
 70
0
  0
VERTEX
  5
5E
  8
1
 10
-2055.291901
 20
-356.659164
 30
0.0
 70
0
  0
VERTEX
  5
5F
  8
1
 10
-2055.393552
 20
-358.572268
 30
0.0
 70
0
  0
VERTEX
  5
60
  8
1
 10
-2056.211399
 20
-373.333187
 30
0.0
 70
0
  0
VERTEX
  5
61
  8
1
 10
-2057.116604
 20
-388.568336
 30
0.0
 70
0
  0
VERTEX
  5
62
  8
1
 10
-2058.122056
 20
-404.007253
 30
0.0
 70
0
  0
VERTEX
  5
63
  8
1
 10
-2059.224881
 20
-419.439623
 30
0.0
 70
0
  0
VERTEX
  5
64
  8
1
 10
-2060.394812
 20
-434.445191
 30
0.0
 70
0
  0
VERTEX
  5
65
  8
1
 10
-2061.704744
 20
-449.861321
 30
0.0
 70
0
  0
VERTEX
  5
66
  8
1
 10
-2063.103294
 20
-464.992393
 30
0.0
 70
0
  0
VERTEX
  5
67
  8
1
 10
-2064.6323
 20
-480.388382
 30
0.0
 70
0
  0
VERTEX
  5
68
  8
1
 10
-2066.202787
 20
-495.328748
 30
0.0
 70
0
  0
VERTEX
  5
69
  8
1
 10
-2067.852184
 20
-510.407831
 30
0.0
 70
0
  0
VERTEX
  5
6A
  8
1
 10
-2069.645844
 20
-526.288681
 30
0.0
 70
0
  0
VERTEX
  5
6B
  8
1
 10
-2084.372966
 20
-531.339398
 30
0.0
 70
0
  0
VERTEX
  5
6C
  8
1
 10
-2098.927012
 20
-536.330737
 30
0.0
 70
0
  0
VERTEX
  5
6D
  8
1
 10
-2113.31123
 20
-541.263826
 30
0.0
 70
0
  0
VERTEX
  5
6E
  8
1
 10
-2127.865295
 20
-546.255166
 30
0.0
 70
0
  0
VERTEX
  5
6F
  8
1
 10
-2142.419366
 20
-551.246512
 30
0.0
 70
0
  0
VERTEX
  5
70
  8
1
 10
-2156.910259
 20
-556.216198
 30
0.0
 70
0
  0
SEQEND
  5
33
  8
1
  0
POLYLINE
  5
71
  8
14
 66
1
 10
0.0
 20
0.0
 30
0.0
 70
1
  0
VERTEX
  5
73
  8
14
 10
-2163.907013
 20
-543.309937
 30
0.0
 70
0
  0
VERTEX
  5
74
  8
14
 10
-2180.914457
 20
-537.48188
 30
0.0
 70
0
  0
VERTEX
  5
75
  8
14
 10
-2196.525677
 20
-532.132277
 30
0.0
 70
0
  0
VERTEX
  5
76
  8
14
 10
-2211.484057
 20
-527.006386
 30
0.0
 70
0
  0
VERTEX
  5
77
  8
14
 10
-2225.502653
 20
-522.202539
 30
0.0
 70
0
  0
VERTEX
  5
78
  8
14
 10
-2239.791084
 20
-517.306224
 30
0.0
 70
0
  0
VERTEX
  5
79
  8
14
 10
-2244.102783
 20
-515.828705
 30
0.0
 70
0
  0
VERTEX
  5
7A
  8
14
 10
-2245.908043
 20
-498.638071
 30
0.0
 70
0
  0
VERTEX
  5
7B
  8
14
 10
-2247.555792
 20
-482.243694
 30
0.0
 70
0
  0
VERTEX
  5
7C
  8
14
 10
-2249.060433
 20
-466.597434
 30
0.0
 70
0
  0
VERTEX
  5
7D
  8
14
 10
-2250.565712
 20
-450.041825
 30
0.0
 70
0
  0
VERTEX
  5
7E
  8
14
 10
-2251.976529
 20
-433.334992
 30
0.0
 70
0
  0
VERTEX
  5
7F
  8
14
 10
-2253.254696
 20
-417.103333
 30
0.0
 70
0
  0
VERTEX
  5
80
  8
14
 10
-2254.386334
 20
-401.832209
 30
0.0
 70
0
  0
VERTEX
  5
81
  8
14
 10
-2255.454977
 20
-386.581142
 30
0.0
 70
0
  0
VERTEX
  5
82
  8
14
 10
-2256.449142
 20
-371.573503
 30
0.0
 70
0
  0
VERTEX
  5
83
  8
14
 10
-2257.374115
 20
-356.645279
 30
0.0
 70
0
  0
VERTEX
  5
84
  8
14
 10
-2257.374115
 20
-356.645279
 30
0.0
 70
0
  0
VERTEX
  5
85
  8
14
 10
-2257.374115
 20
-356.645279
 30
0.0
 70
0
  0
VERTEX
  5
86
  8
14
 10
-2237.381204
 20
-356.646651
 30
0.0
 70
0
  0
VERTEX
  5
87
  8
14
 10
-2221.353523
 20
-356.64775
 30
0.0
 70
0
  0
VERTEX
  5
88
  8
14
 10
-2202.332676
 20
-356.649055
 30
0.0
 70
0
  0
VERTEX
  5
89
  8
14
 10
-2185.679274
 20
-356.650198
 30
0.0
 70
0
  0
VERTEX
  5
8A
  8
14
 10
-2168.341728
 20
-356.651387
 30
0.0
 70
0
  0
VERTEX
  5
8B
  8
14
 10
-2150.867341
 20
-356.652586
 30
0.0
 70
0
  0
VERTEX
  5
8C
  8
14
 10
-2133.803453
 20
-356.653757
 30
0.0
 70
0
  0
VERTEX
  5
8D
  8
14
 10
-2117.697376
 20
-356.654862
 30
0.0
 70
0
  0
VERTEX
  5
8E
  8
14
 10
-2103.096415
 20
-356.655864
 30
0.0
 70
0
  0
VERTEX
  5
8F
  8
14
 10
-2087.795638
 20
-356.656913
 30
0.0
 70
0
  0
VERTEX
  5
90
  8
14
 10
-2073.797581
 20
-356.657874
 30
0.0
 70
0
  0
VERTEX
  5
91
  8
14
 10
-2070.554962
 20
-356.658096
 30
0.0
 70
0
  0
VERTEX
  5
92
  8
14
 10
-2070.554962
 20
-356.658096
 30
0.0
 70
0
  0
VERTEX
  5
93
  8
14
 10
-2070.554962
 20
-356.658096
 30
0.0
 70
0
  0
VERTEX
  5
94
  8
14
 10
-2071.336639
 20
-371.093319
 30
0.0
 70
0
  0
VERTEX
  5
95
  8
14
 10
-2072.269193
 20
-386.683339
 30
0.0
 70
0
  0
VERTEX
  5
96
  8
14
 10
-2073.303097
 20
-402.542222
 30
0.0
 70
0
  0
VERTEX
  5
97
  8
14
 10
-2074.423176
 20
-418.311949
 30
0.0
 70
0
  0
VERTEX
  5
98
  8
14
 10
-2075.714267
 20
-434.873383
 30
0.0
 70
0
  0
VERTEX
  5
99
  8
14
 10
-2077.112093
 20
-451.054465
 30
0.0
 70
0
  0
VERTEX
  5
9A
  8
14
 10
-2078.645646
 20
-467.322593
 30
0.0
 70
0
  0
VERTEX
  5
9B
  8
14
 10
-2080.321355
 20
-483.944706
 30
0.0
 70
0
  0
VERTEX
  5
9C
  8
14
 10
-2081.955665
 20
-499.298676
 30
0.0
 70
0
  0
VERTEX
  5
9D
  8
14
 10
-2083.814087
 20
-515.84198
 30
0.0
 70
0
  0
VERTEX
  5
9E
  8
14
 10
-2100.799688
 20
-521.667221
 30
0.0
 70
0
  0
VERTEX
  5
9F
  8
14
 10
-2116.390855
 20
-527.01424
 30
0.0
 70
0
  0
VERTEX
  5
A0
  8
14
 10
-2131.330026
 20
-532.137654
 30
0.0
 70
0
  0
VERTEX
  5
A1
  8
14
 10
-2145.330619
 20
-536.939182
 30
0.0
 70
0
  0
VERTEX
  5
A2
  8
14
 10
-2159.600696
 20
-541.83313
 30
0.0
 70
0
  0
SEQEND
  5
72
  8
14
  0
POLYLINE
  5
A3
  8
8
 66
1
 10
0.0
 20
0.0
 30
0.0
 70
0
  0
VERTEX
  5
A5
  8
8
 10
-2163.907013
 20
-541.620483
 30
0.0
 70
0
  0
VERTEX
  5
A6
  8
8
 10
-2242.611542
 20
-514.682312
 30
0.0
 70
0
  0
SEQEND
  5
A4
  8
8
  0
POLYLINE
  5
A7
  8
8
 66
1
 10
0.0
 20
0.0
 30
0.0
 70
0
  0
VERTEX
  5
A9
  8
8
 10
-2163.907013
 20
-541.620483
 30
0.0
 70
0
  0
VERTEX
  5
AA
  8
8
 10
-2147.232425
 20
-535.898568
 30
0.0
 70
0
  0
VERTEX
  5
AB
  8
8
 10
-2131.926736
 20
-530.646392
 30
0.0
 70
0
  0
VERTEX
  5
AC
  8
8
 10
-2117.261105
 20
-525.613854
 30
0.0
 70
0
  0
VERTEX
  5
AD
  8
8
 10
-2101.955403
 20
-520.361674
 30
0.0
 70
0
  0
VERTEX
  5
AE
  8
8
 10
-2087.896822
 20
-515.537446
 30
0.0
 70
0
  0
VERTEX
  5
AF
  8
8
 10
-2085.280762
 20
-514.63974
 30
0.0
 70
0
  0
SEQEND
  5
A8
  8
8
  0
POLYLINE
  5
B0
  8
8
 66
1
 10
0.0
 20
0.0
 30
0.0
 70
0
  0
VERTEX
  5
B2
  8
8
 10
-2163.910065
 20
-534.815979
 30
0.0
 70
0
  0
VERTEX
  5
B3
  8
8
 10
-2180.781786
 20
-529.099751
 30
0.0
 70
0
  0
VERTEX
  5
B4
  8
8
 10
-2196.876526
 20
-523.646768
 30
0.0
 70
0
  0
VERTEX
  5
B5
  8
8
 10
-2212.026118
 20
-518.514006
 30
0.0
 70
0
  0
VERTEX
  5
B6
  8
8
 10
-2226.539147
 20
-513.596915
 30
0.0
 70
0
  0
VERTEX
  5
B7
  8
8
 10
-2236.6539
 20
-510.169983
 30
0.0
 70
0
  0
SEQEND
  5
B1
  8
8
  0
POLYLINE
  5
B8
  8
8
 66
1
 10
0.0
 20
0.0
 30
0.0
 70
0
  0
VERTEX
  5
BA
  8
8
 10
-2163.910065
 20
-534.815979
 30
0.0
 70
0
  0
VERTEX
  5
BB
  8
8
 10
-2147.047013
 20
-529.087718
 30
0.0
 70
0
  0
VERTEX
  5
BC
  8
8
 10
-2130.960547
 20
-523.623257
 30
0.0
 70
0
  0
VERTEX
  5
BD
  8
8
 10
-2115.818741
 20
-518.479691
 30
0.0
 70
0
  0
VERTEX
  5
BE
  8
8
 10
-2101.313167
 20
-513.552248
 30
0.0
 70
0
  0
VERTEX
  5
BF
  8
8
 10
-2091.203613
 20
-510.118103
 30
0.0
 70
0
  0
SEQEND
  5
B9
  8
8
  0
POLYLINE
  5
C0
  8
8
 66
1
 10
0.0
 20
0.0
 30
0.0
 70
0
  0
VERTEX
  5
C2
  8
8
 10
-2163.96347
 20
-359.826698
 30
0.0
 70
0
  0
VERTEX
  5
C3
  8
8
 10
-2163.958575
 20
-377.342548
 30
0.0
 70
0
  0
VERTEX
  5
C4
  8
8
 10
-2163.953858
 20
-393.885618
 30
0.0
 70
0
  0
VERTEX
  5
C5
  8
8
 10
-2163.949142
 20
-410.152073
 30
0.0
 70
0
  0
VERTEX
  5
C6
  8
8
 10
-2163.944445
 20
-426.070529
 30
0.0
 70
0
  0
VERTEX
  5
C7
  8
8
 10
-2163.939395
 20
-442.85478
 30
0.0
 70
0
  0
VERTEX
  5
C8
  8
8
 10
-2163.934638
 20
-458.320179
 30
0.0
 70
0
  0
VERTEX
  5
C9
  8
8
 10
-2163.929262
 20
-475.380538
 30
0.0
 70
0
  0
VERTEX
  5
CA
  8
8
 10
-2163.923992
 20
-491.770596
 30
0.0
 70
0
  0
VERTEX
  5
CB
  8
8
 10
-2163.919049
 20
-506.894512
 30
0.0
 70
0
  0
VERTEX
  5
CC
  8
8
 10
-2163.91416
 20
-521.653649
 30
0.0
 70
0
  0
VERTEX
  5
CD
  8
8
 10
-2163.909276
 20
-536.200497
 30
0.0
 70
0
  0
VERTEX
  5
CE
  8
8
 10
-2163.90686
 20
-543.309937
 30
0.0
 70
0
  0
SEQEND
  5
C1
  8
8
  0
POLYLINE
  5
CF
  8
8
 66
1
 10
0.0
 20
0.0
 30
0.0
 70
0
  0
VERTEX
  5
D1
  8
8
 10
-2085.280762
 20
-514.63974
 30
0.0
 70
0
  0
VERTEX
  5
D2
  8
8
 10
-2082.965234
 20
-496.595283
 30
0.0
 70
0
  0
VERTEX
  5
D3
  8
8
 10
-2081.063515
 20
-480.380611
 30
0.0
 70
0
  0
VERTEX
  5
D4
  8
8
 10
-2079.341407
 20
-463.870097
 30
0.0
 70
0
  0
VERTEX
  5
D5
  8
8
 10
-2077.839189
 20
-447.686635
 30
0.0
 70
0
  0
VERTEX
  5
D6
  8
8
 10
-2076.544435
 20
-432.073106
 30
0.0
 70
0
  0
VERTEX
  5
D7
  8
8
 10
-2075.334028
 20
-415.688593
 30
0.0
 70
0
  0
VERTEX
  5
D8
  8
8
 10
-2074.347364
 20
-400.640719
 30
0.0
 70
0
  0
VERTEX
  5
D9
  8
8
 10
-2073.434705
 20
-384.816736
 30
0.0
 70
0
  0
VERTEX
  5
DA
  8
8
 10
-2072.667569
 20
-369.295173
 30
0.0
 70
0
  0
VERTEX
  5
DB
  8
8
 10
-2072.158356
 20
-356.657944
 30
0.0
 70
0
  0
SEQEND
  5
D0
  8
8
  0
POLYLINE
  5
DC
  8
8
 66
1
 10
0.0
 20
0.0
 30
0.0
 70
0
  0
VERTEX
  5
DE
  8
8
 10
-2242.611542
 20
-514.682312
 30
0.0
 70
0
  0
VERTEX
  5
DF
  8
8
 10
-2244.330603
 20
-497.460186
 30
0.0
 70
0
  0
VERTEX
  5
E0
  8
8
 10
-2245.805341
 20
-482.178691
 30
0.0
 70
0
  0
VERTEX
  5
E1
  8
8
 10
-2247.281918
 20
-466.332287
 30
0.0
 70
0
  0
VERTEX
  5
E2
  8
8
 10
-2248.70464
 20
-450.334337
 30
0.0
 70
0
  0
VERTEX
  5
E3
  8
8
 10
-2250.093034
 20
-433.830282
 30
0.0
 70
0
  0
VERTEX
  5
E4
  8
8
 10
-2251.369407
 20
-417.878552
 30
0.0
 70
0
  0
VERTEX
  5
E5
  8
8
 10
-2252.516941
 20
-402.899139
 30
0.0
 70
0
  0
VERTEX
  5
E6
  8
8
 10
-2253.620417
 20
-387.90655
 30
0.0
 70
0
  0
VERTEX
  5
E7
  8
8
 10
-2254.674737
 20
-372.995599
 30
0.0
 70
0
  0
VERTEX
  5
E8
  8
8
 10
-2255.649174
 20
-358.577439
 30
0.0
 70
0
  0
VERTEX
  5
E9
  8
8
 10
-2255.774841
 20
-356.645432
 30
0.0
 70
0
  0
SEQEND
  5
DD
  8
8
  0
POLYLINE
  5
EA
  8
8
 66
1
 10
0.0
 20
0.0
 30
0.0
 70
0
  0
VERTEX
  5
EC
  8
8
 10
-2236.6539
 20
-510.169983
 30
0.0
 70
0
  0
VERTEX
  5
ED
  8
8
 10
-2238.175469
 20
-493.850609
 30
0.0
 70
0
  0
VERTEX
  5
EE
  8
8
 10
-2239.651286
 20
-477.65446
 30
0.0
 70
0
  0
VERTEX
  5
EF
  8
8
 10
-2241.019401
 20
-462.279707
 30
0.0
 70
0
  0
VERTEX
  5
F0
  8
8
 10
-2242.439884
 20
-445.817839
 30
0.0
 70
0
  0
VERTEX
  5
F1
  8
8
 10
-2243.77384
 20
-429.790389
 30
0.0
 70
0
  0
VERTEX
  5
F2
  8
8
 10
-2245.022002
 20
-414.3227
 30
0.0
 70
0
  0
VERTEX
  5
F3
  8
8
 10
-2246.279178
 20
-398.307664
 30
0.0
 70
0
  0
VERTEX
  5
F4
  8
8
 10
-2247.466579
 20
-382.785719
 30
0.0
 70
0
  0
VERTEX
  5
F5
  8
8
 10
-2248.614724
 20
-367.389474
 30
0.0
 70
0
  0
VERTEX
  5
F6
  8
8
 10
-2249.395142
 20
-356.645889
 30
0.0
 70
0
  0
SEQEND
  5
EB
  8
8
  0
POLYLINE
  5
F7
  8
8
 66
1
 10
0.0
 20
0.0
 30
0.0
 70
0
  0
VERTEX
  5
F9
  8
8
 10
-2091.18103
 20
-510.127411
 30
0.0
 70
0
  0
VERTEX
  5
FA
  8
8
 10
-2089.707561
 20
-493.860165
 30
0.0
 70
0
  0
VERTEX
  5
FB
  8
8
 10
-2088.32161
 20
-478.269977
 30
0.0
 70
0
  0
VERTEX
  5
FC
  8
8
 10
-2086.866388
 20
-461.580808
 30
0.0
 70
0
  0
VERTEX
  5
FD
  8
8
 10
-2085.502098
 20
-445.554237
 30
0.0
 70
0
  0
VERTEX
  5
FE
  8
8
 10
-2084.128732
 20
-428.935002
 30
0.0
 70
0
  0
VERTEX
  5
FF
  8
8
 10
-2082.871163
 20
-413.302713
 30
0.0
 70
0
  0
VERTEX
  5
100
  8
8
 10
-2081.596125
 20
-397.084502
 30
0.0
 70
0
  0
VERTEX
  5
101
  8
8
 10
-2080.389555
 20
-381.409937
 30
0.0
 70
0
  0
VERTEX
  5
102
  8
8
 10
-2079.234513
 20
-366.095747
 30
0.0
 70
0
  0
VERTEX
  5
103
  8
8
 10
-2078.531952
 20
-356.594162
 30
0.0
 70
0
  0
SEQEND
  5
F8
  8
8
  0
POLYLINE
  5
104
  8
8
 66
1
 10
0.0
 20
0.0
 30
0.0
 70
0
  0
VERTEX
  5
106
  8
8
 10
-2256.907349
 20
-369.358063
 30
0.0
 70
0
  0
VERTEX
  5
107
  8
8
 10
-2241.420543
 20
-369.359131
 30
0.0
 70
0
  0
VERTEX
  5
108
  8
8
 10
-2225.932261
 20
-369.360198
 30
0.0
 70
0
  0
VERTEX
  5
109
  8
8
 10
-2210.717998
 20
-369.361243
 30
0.0
 70
0
  0
VERTEX
  5
10A
  8
8
 10
-2195.589743
 20
-369.362281
 30
0.0
 70
0
  0
VERTEX
  5
10B
  8
8
 10
-2180.544548
 20
-369.363311
 30
0.0
 70
0
  0
VERTEX
  5
10C
  8
8
 10
-2165.416293
 20
-369.36435
 30
0.0
 70
0
  0
VERTEX
  5
10D
  8
8
 10
-2150.087624
 20
-369.365413
 30
0.0
 70
0
  0
VERTEX
  5
10E
  8
8
 10
-2134.959355
 20
-369.366458
 30
0.0
 70
0
  0
VERTEX
  5
10F
  8
8
 10
-2119.67524
 20
-369.36749
 30
0.0
 70
0
  0
VERTEX
  5
110
  8
8
 10
-2104.547016
 20
-369.368497
 30
0.0
 70
0
  0
VERTEX
  5
111
  8
8
 10
-2089.460715
 20
-369.369518
 30
0.0
 70
0
  0
VERTEX
  5
112
  8
8
 10
-2074.492057
 20
-369.370556
 30
0.0
 70
0
  0
VERTEX
  5
113
  8
8
 10
-2070.960846
 20
-369.370804
 30
0.0
 70
0
  0
SEQEND
  5
105
  8
8
  0
POINT
  5
114
  8
4
 10
-2272.644043
 20
-356.644249
 30
0.0
  0
POINT
  5
115
  8
4
 10
-2255.550995
 20
-328.070412
 30
0.0
  0
POINT
  5
116
  8
4
 10
-2072.17514
 20
-328.083
 30
0.0
  0
POINT
  5
117
  8
4
 10
-2055.291901
 20
-356.659164
 30
0.0
  0
POINT
  5
118
  8
4
 10
-2257.374115
 20
-356.645279
 30
0.0
  0
POINT
  5
119
  8
4
 10
-2257.374115
 20
-356.645279
 30
0.0
  0
POINT
  5
11A
  8
4
 10
-2070.554962
 20
-356.658096
 30
0.0
  0
POINT
  5
11B
  8
4
 10
-2070.554962
 20
-356.658096
 30
0.0
  0
LINE
  5
11C
  8
7
 10
-2172.134857
 20
-375.838623
 30
0.0
 11
-2172.134857
 21
-518.840256
 31
0.0
  0
ENDSEC
  0
EOF
