  0
SECTION
  2
HEADER
  9
$ACADVER
  1
AC1009
  9
$DWGCODEPAGE
  3
ANSI_1252
  9
$INSBASE
 10
0.0
 20
0.0
 30
0.0
  9
$EXTMIN
 10
1e+20
 20
1e+20
 30
1e+20
  9
$EXTMAX
 10
-1e+20
 20
-1e+20
 30
-1e+20
  9
$LIMMIN
 10
0.0
 20
0.0
  9
$LIMMAX
 10
420.0
 20
297.0
  9
$ORTHOMODE
 70
0
  9
$REGENMODE
 70
1
  9
$FILLMODE
 70
1
  9
$DRAGMODE
 70
2
  9
$QTEXTMODE
 70
0
  9
$MIRRTEXT
 70
1
  9
$OSMODE
 70
20583
  9
$LTSCALE
 40
1.0
  9
$ATTMODE
 70
1
  9
$TEXTSIZE
 40
2.5
  9
$TRACEWID
 40
1.0
  9
$TEXTSTYLE
  7
Standard
  9
$CLAYER
  8
0
  9
$CELTYPE
  6
ByLayer
  9
$CECOLOR
 62
256
  9
$DIMSCALE
 40
1.0
  9
$DIMASZ
 40
2.5
  9
$DIMEXO
 40
0.625
  9
$DIMDLI
 40
3.75
  9
$DIMRND
 40
0.0
  9
$DIMDLE
 40
0.0
  9
$DIMEXE
 40
1.25
  9
$DIMTP
 40
0.0
  9
$DIMTM
 40
0.0
  9
$DIMTXT
 40
2.5
  9
$DIMCEN
 40
2.5
  9
$DIMTSZ
 40
0.0
  9
$DIMTOL
 70
0
  9
$DIMLIM
 70
0
  9
$DIMTIH
 70
0
  9
$DIMTOH
 70
0
  9
$DIMSE1
 70
0
  9
$DIMSE2
 70
0
  9
$DIMTAD
 70
1
  9
$DIMZIN
 70
8
  9
$DIMBLK
  1

  9
$DIMASO
 70
1
  9
$DIMSHO
 70
1
  9
$DIMPOST
  1

  9
$DIMAPOST
  1

  9
$DIMALT
 70
0
  9
$DIMALTD
 70
3
  9
$DIMALTF
 40
0.03937007874
  9
$DIMLFAC
 40
1.0
  9
$DIMTOFL
 70
1
  9
$DIMTVP
 40
0.0
  9
$DIMTIX
 70
0
  9
$DIMSOXD
 70
0
  9
$DIMSAH
 70
0
  9
$DIMBLK1
  1

  9
$DIMBLK2
  1

  9
$DIMSTYLE
  2
ISO-25
  9
$DIMCLRD
 70
0
  9
$DIMCLRE
 70
0
  9
$DIMCLRT
 70
0
  9
$DIMTFAC
 40
1.0
  9
$DIMGAP
 40
0.625
  9
$COORDS
 70
1
  9
$ATTDIA
 70
0
  9
$ATTREQ
 70
1
  9
$HANDLING
 70
1
  9
$LUNITS
 70
2
  9
$LUPREC
 70
4
  9
$SKETCHINC
 40
1.0
  9
$FILLETRAD
 40
10.0
  9
$AUNITS
 70
0
  9
$AUPREC
 70
2
  9
$MENU
  1
.
  9
$ELEVATION
 40
0.0
  9
$PELEVATION
 40
0.0
  9
$THICKNESS
 40
0.0
  9
$LIMCHECK
 70
0
  9
$CHAMFERA
 40
0.0
  9
$CHAMFERB
 40
0.0
  9
$SKPOLY
 70
0
  9
$TDCREATE
 40
2461264.9423032408
  9
$TDUPDATE
 40
2461264.9423032408
  9
$TDINDWG
 40
0.0
  9
$TDUSRTIMER
 40
0.0
  9
$USRTIMER
 70
1
  9
$ANGBASE
 50
0.0
  9
$ANGDIR
 70
0
  9
$PDMODE
 70
0
  9
$PDSIZE
 40
0.0
  9
$PLINEWID
 40
0.0
  9
$SPLFRAME
 70
0
  9
$SPLINETYPE
 70
6
  9
$SPLINESEGS
 70
8
  9
$HANDSEED
  5
119
  9
$SURFTAB1
 70
6
  9
$SURFTAB2
 70
6
  9
$SURFTYPE
 70
6
  9
$SURFU
 70
6
  9
$SURFV
 70
6
  9
$UCSNAME
  2

  9
$UCSORG
 10
0.0
 20
0.0
 30
0.0
  9
$UCSXDIR
 10
1.0
 20
0.0
 30
0.0
  9
$UCSYDIR
 10
0.0
 20
1.0
 30
0.0
  9
$PUCSNAME
  2

  9
$PUCSORG
 10
0.0
 20
0.0
 30
0.0
  9
$PUCSXDIR
 10
1.0
 20
0.0
 30
0.0
  9
$PUCSYDIR
 10
0.0
 20
1.0
 30
0.0
  9
$USERI1
 70
0
  9
$USERI2
 70
0
  9
$USERI3
 70
0
  9
$USERI4
 70
0
  9
$USERI5
 70
0
  9
$USERR1
 40
0.0
  9
$USERR2
 40
0.0
  9
$USERR3
 40
0.0
  9
$USERR4
 40
0.0
  9
$USERR5
 40
0.0
  9
$WORLDVIEW
 70
1
  9
$SHADEDGE
 70
3
  9
$SHADEDIF
 70
70
  9
$TILEMODE
 70
1
  9
$MAXACTVP
 70
64
  9
$PLIMCHECK
 70
0
  9
$PEXTMIN
 10
1e+20
 20
1e+20
 30
1e+20
  9
$PEXTMAX
 10
-1e+20
 20
-1e+20
 30
-1e+20
  9
$PLIMMIN
 10
0.0
 20
0.0
  9
$PLIMMAX
 10
420.0
 20
297.0
  9
$UNITMODE
 70
0
  9
$VISRETAIN
 70
1
  9
$PLINEGEN
 70
0
  9
$PSLTSCALE
 70
1
  0
ENDSEC
  0
SECTION
  2
TABLES
  0
TABLE
  2
VPORT
 70
1
  0
VPORT
  5
23
  2
*Active
 70
0
 10
0.0
 20
0.0
 11
1.0
 21
1.0
 12
0.0
 22
0.0
 13
0.0
 23
0.0
 14
0.5
 24
0.5
 15
0.5
 25
0.5
 16
0.0
 26
0.0
 36
1.0
 17
0.0
 27
0.0
 37
0.0
 40
1000.0
 41
1.34
 42
50.0
 43
0.0
 44
0.0
 50
0.0
 51
0.0
 71
0
 72
1000
 73
1
 74
3
 75
0
 76
0
 77
0
 78
0
  0
ENDTAB
  0
TABLE
  2
LTYPE
 70
3
  0
LTYPE
  5
24
  2
ByBlock
 70
0
  3

 72
65
 73
0
 40
0.0
  0
LTYPE
  5
25
  2
ByLayer
 70
0
  3

 72
65
 73
0
 40
0.0
  0
LTYPE
  5
26
  2
Continuous
 70
0
  3

 72
65
 73
0
 40
0.0
  0
ENDTAB
  0
TABLE
  2
LAYER
 70
7
  0
LAYER
  5
27
  2
0
 70
0
 62
7
  6
Continuous
  0
LAYER
  5
28
  2
Defpoints
 70
0
 62
7
  6
Continuous
  0
LAYER
  5
2D
  2
1
 70
0
 62
1
  6
Continuous
  0
LAYER
  5
2E
  2
7
 70
0
 62
7
  6
Continuous
  0
LAYER
  5
2F
  2
14
 70
0
 62
3
  6
Continuous
  0
LAYER
  5
30
  2
8
 70
0
 62
6
  6
Continuous
  0
LAYER
  5
31
  2
4
 70
0
 62
2
  6
Continuous
  0
ENDTAB
  0
TABLE
  2
STYLE
 70
1
  0
STYLE
  5
29
  2
Standard
 70
0
 40
0.0
 41
1.0
 50
0.0
 71
0
 42
2.5
  3
txt
  4

  0
ENDTAB
  0
TABLE
  2
VIEW
 70
0
  0
ENDTAB
  0
TABLE
  2
UCS
 70
0
  0
ENDTAB
  0
TABLE
  2
APPID
 70
3
  0
APPID
  5
2A
  2
ACAD
 70
0
  0
APPID
  5
117
  2
HATCHBACKGROUNDCOLOR
 70
0
  0
APPID
  5
118
  2
EZDXF
 70
0
  0
ENDTAB
  0
TABLE
  2
DIMSTYLE
 70
1
  0
DIMSTYLE
105
2B
  2
Standard
 70
0
  3

  4

  5

  6

  7

 40
1.0
 41
2.5
 42
0.625
 43
3.75
 44
1.25
 45
0.0
 46
0.0
 47
0.0
 48
0.0
140
2.5
141
2.5
142
0.0
143
0.03937007874
144
1.0
145
0.0
146
1.0
147
0.625
 71
0
 72
0
 73
0
 74
0
 75
0
 76
0
 77
1
 78
8
170
0
171
3
172
1
173
0
174
0
175
0
176
0
177
0
178
0
  0
ENDTAB
  0
ENDSEC
  0
SECTION
  2
BLOCKS
  0
BLOCK
  5
18
  8
0
  2
$Model_Space
 70
0
 10
0.0
 20
0.0
 30
0.0
  3
$Model_Space
  1

1001
EZDXF
1000
CREATED_BY_EZDXF
1000
1.4.4 @ 2026-08-11T14:36:55.369575+00:00
1000
WRITTEN_BY_EZDXF
1000
1.4.4 @ 2026-08-11T14:36:55.371575+00:00
  0
ENDBLK
  5
19
  8
0
  0
BLOCK
  5
1C
  8
0
  2
$Paper_Space
 70
0
 10
0.0
 20
0.0
 30
0.0
  3
$Paper_Space
  1

  0
ENDBLK
  5
1D
  8
0
  0
ENDSEC
  0
SECTION
  2
ENTITIES
  0
POLYLINE
  5
32
  8
1
 66
1
 10
0.0
 20
0.0
 30
0.0
 70
1
  0
VERTEX
  5
34
  8
1
 10
-2163.904877
 20
-555.507698
 30
0.0
 70
0
  0
VERTEX
  5
35
  8
1
 10
-2178.925621
 20
-550.148224
 30
0.0
 70
0
  0
VERTEX
  5
36
  8
1
 10
-2193.595851
 20
-544.913827
 30
0.0
 70
0
  0
VERTEX
  5
37
  8
1
 10
-2207.740772
 20
-539.866874
 30
0.0
 70
0
  0
VERTEX
  5
38
  8
1
 10
-2222.386214
 20
-534.641342
 30
0.0
 70
0
  0
VERTEX
  5
39
  8
1
 10
-2237.000347
 20
-529.426973
 30
0.0
 70
0
  0
VERTEX
  5
3A
  8
1
 10
-2251.233787
 20
-524.348425
 30
0.0
 70
0
  0
VERTEX
  5
3B
  8
1
 10
-2255.196228
 20
-522.934608
 30
0.0
 70
0
  0
VERTEX
  5
3C
  8
1
 10
-2256.805577
 20
-507.353192
 30
0.0
 70
0
  0
VERTEX
  5
3D
  8
1
 10
-2258.360054
 20
-491.872308
 30
0.0
 70
0
  0
VERTEX
  5
3E
  8
1
 10
-2259.864443
 20
-476.341709
 30
0.0
 70
0
  0
VERTEX
  5
3F
  8
1
 10
-2261.276879
 20
-460.998238
 30
0.0
 70
0
  0
VERTEX
  5
40
  8
1
 10
-2262.579751
 20
-445.912531
 30
0.0
 70
0
  0
VERTEX
  5
41
  8
1
 10
-2263.81371
 20
-430.553758
 30
0.0
 70
0
  0
VERTEX
  5
42
  8
1
 10
-2264.949657
 20
-415.452815
 30
0.0
 70
0
  0
VERTEX
  5
43
  8
1
 10
-2266.038632
 20
-400.083021
 30
0.0
 70
0
  0
VERTEX
  5
44
  8
1
 10
-2267.041271
 20
-384.967616
 30
0.0
 70
0
  0
VERTEX
  5
45
  8
1
 10
-2267.971272
 20
-369.996572
 30
0.0
 70
0
  0
VERTEX
  5
46
  8
1
 10
-2268.577118
 20
-359.819183
 30
0.0
 70
0
  0
VERTEX
  5
47
  8
1
 10
-2268.577118
 20
-359.819183
 30
0.0
 70
0
  0
VERTEX
  5
48
  8
1
 10
-2267.802802
 20
-346.868103
 30
0.0
 70
0
  0
VERTEX
  5
49
  8
1
 10
-2266.813965
 20
-331.244316
 30
0.0
 70
0
  0
VERTEX
  5
4A
  8
1
 10
-2251.55304
 20
-331.245422
 30
0.0
 70
0
  0
VERTEX
  5
4B
  8
1
 10
-2250.858245
 20
-331.245473
 30
0.0
 70
0
  0
VERTEX
  5
4C
  8
1
 10
-2235.670225
 20
-331.246565
 30
0.0
 70
0
  0
VERTEX
  5
4D
  8
1
 10
-2220.482211
 20
-331.247651
 30
0.0
 70
0
  0
VERTEX
  5
4E
  8
1
 10
-2205.123451
 20
-331.248747
 30
0.0
 70
0
  0
VERTEX
  5
4F
  8
1
 10
-2189.935431
 20
-331.249832
 30
0.0
 70
0
  0
VERTEX
  5
50
  8
1
 10
-2174.748138
 20
-331.250924
 30
0.0
 70
0
  0
VERTEX
  5
51
  8
1
 10
-2159.560141
 20
-331.25202
 30
0.0
 70
0
  0
VERTEX
  5
52
  8
1
 10
-2144.357681
 20
-331.253115
 30
0.0
 70
0
  0
VERTEX
  5
53
  8
1
 10
-2129.169677
 20
-331.254202
 30
0.0
 70
0
  0
VERTEX
  5
54
  8
1
 10
-2114.101516
 20
-331.255276
 30
0.0
 70
0
  0
VERTEX
  5
55
  8
1
 10
-2098.913546
 20
-331.256358
 30
0.0
 70
0
  0
VERTEX
  5
56
  8
1
 10
-2083.725576
 20
-331.257442
 30
0.0
 70
0
  0
VERTEX
  5
57
  8
1
 10
-2076.174164
 20
-331.258011
 30
0.0
 70
0
  0
VERTEX
  5
58
  8
1
 10
-2068.451841
 20
-331.258537
 30
0.0
 70
0
  0
VERTEX
  5
59
  8
1
 10
-2060.913696
 20
-331.258545
 30
0.0
 70
0
  0
VERTEX
  5
5A
  8
1
 10
-2060.034899
 20
-346.881934
 30
0.0
 70
0
  0
VERTEX
  5
5B
  8
1
 10
-2059.358521
 20
-359.834213
 30
0.0
 70
0
  0
VERTEX
  5
5C
  8
1
 10
-2059.358521
 20
-359.834213
 30
0.0
 70
0
  0
VERTEX
  5
5D
  8
1
 10
-2059.833937
 20
-369.022133
 30
0.0
 70
0
  0
VERTEX
  5
5E
  8
1
 10
-2060.674834
 20
-384.307054
 30
0.0
 70
0
  0
VERTEX
  5
5F
  8
1
 10
-2061.581758
 20
-399.309282
 30
0.0
 70
0
  0
VERTEX
  5
60
  8
1
 10
-2062.615197
 20
-414.786492
 30
0.0
 70
0
  0
VERTEX
  5
61
  8
1
 10
-2063.750766
 20
-430.280063
 30
0.0
 70
0
  0
VERTEX
  5
62
  8
1
 10
-2064.996376
 20
-445.741596
 30
0.0
 70
0
  0
VERTEX
  5
63
  8
1
 10
-2066.326058
 20
-460.768013
 30
0.0
 70
0
  0
VERTEX
  5
64
  8
1
 10
-2067.805914
 20
-476.208968
 30
0.0
 70
0
  0
VERTEX
  5
65
  8
1
 10
-2069.380312
 20
-491.634647
 30
0.0
 70
0
  0
VERTEX
  5
66
  8
1
 10
-2071.032159
 20
-507.123334
 30
0.0
 70
0
  0
VERTEX
  5
67
  8
1
 10
-2072.78244
 20
-522.96711
 30
0.0
 70
0
  0
VERTEX
  5
68
  8
1
 10
-2087.465811
 20
-528.210669
 30
0.0
 70
0
  0
VERTEX
  5
69
  8
1
 10
-2102.174667
 20
-533.463327
 30
0.0
 70
0
  0
VERTEX
  5
6A
  8
1
 10
-2116.583075
 20
-538.608689
 30
0.0
 70
0
  0
VERTEX
  5
6B
  8
1
 10
-2131.200491
 20
-543.828688
 30
0.0
 70
0
  0
VERTEX
  5
6C
  8
1
 10
-2145.892562
 20
-549.075348
 30
0.0
 70
0
  0
VERTEX
  5
6D
  8
1
 10
-2159.90149
 20
-554.078054
 30
0.0
 70
0
  0
SEQEND
  5
33
  8
1
  0
POLYLINE
  5
6E
  8
14
 66
1
 10
0.0
 20
0.0
 30
0.0
 70
1
  0
VERTEX
  5
70
  8
14
 10
-2163.907013
 20
-540.134926
 30
0.0
 70
0
  0
VERTEX
  5
71
  8
14
 10
-2180.241127
 20
-534.306863
 30
0.0
 70
0
  0
VERTEX
  5
72
  8
14
 10
-2195.234287
 20
-528.957258
 30
0.0
 70
0
  0
VERTEX
  5
73
  8
14
 10
-2209.600456
 20
-523.831364
 30
0.0
 70
0
  0
VERTEX
  5
74
  8
14
 10
-2224.593621
 20
-518.481756
 30
0.0
 70
0
  0
VERTEX
  5
75
  8
14
 10
-2238.365119
 20
-513.568043
 30
0.0
 70
0
  0
VERTEX
  5
76
  8
14
 10
-2240.927734
 20
-512.653694
 30
0.0
 70
0
  0
VERTEX
  5
77
  8
14
 10
-2242.622089
 20
-496.147988
 30
0.0
 70
0
  0
VERTEX
  5
78
  8
14
 10
-2244.167029
 20
-480.406974
 30
0.0
 70
0
  0
VERTEX
  5
79
  8
14
 10
-2245.735248
 20
-463.640683
 30
0.0
 70
0
  0
VERTEX
  5
7A
  8
14
 10
-2247.136255
 20
-447.698629
 30
0.0
 70
0
  0
VERTEX
  5
7B
  8
14
 10
-2248.439626
 20
-431.685919
 30
0.0
 70
0
  0
VERTEX
  5
7C
  8
14
 10
-2249.615368
 20
-416.181403
 30
0.0
 70
0
  0
VERTEX
  5
7D
  8
14
 10
-2250.757181
 20
-400.116902
 30
0.0
 70
0
  0
VERTEX
  5
7E
  8
14
 10
-2251.793717
 20
-384.597778
 30
0.0
 70
0
  0
VERTEX
  5
7F
  8
14
 10
-2252.746173
 20
-369.41141
 30
0.0
 70
0
  0
VERTEX
  5
80
  8
14
 10
-2253.310089
 20
-359.82029
 30
0.0
 70
0
  0
VERTEX
  5
81
  8
14
 10
-2253.310089
 20
-359.82029
 30
0.0
 70
0
  0
VERTEX
  5
82
  8
14
 10
-2253.310089
 20
-359.82029
 30
0.0
 70
0
  0
VERTEX
  5
83
  8
14
 10
-2234.18701
 20
-359.821661
 30
0.0
 70
0
  0
VERTEX
  5
84
  8
14
 10
-2215.414301
 20
-359.823008
 30
0.0
 70
0
  0
VERTEX
  5
85
  8
14
 10
-2196.771108
 20
-359.824345
 30
0.0
 70
0
  0
VERTEX
  5
86
  8
14
 10
-2180.629578
 20
-359.825503
 30
0.0
 70
0
  0
VERTEX
  5
87
  8
14
 10
-2163.964539
 20
-359.826698
 30
0.0
 70
0
  0
VERTEX
  5
88
  8
14
 10
-2147.2995
 20
-359.827894
 30
0.0
 70
0
  0
VERTEX
  5
89
  8
14
 10
-2131.15797
 20
-359.829051
 30
0.0
 70
0
  0
VERTEX
  5
8A
  8
14
 10
-2116.063449
 20
-359.830134
 30
0.0
 70
0
  0
VERTEX
  5
8B
  8
14
 10
-2099.465215
 20
-359.831325
 30
0.0
 70
0
  0
VERTEX
  5
8C
  8
14
 10
-2084.226201
 20
-359.832418
 30
0.0
 70
0
  0
VERTEX
  5
8D
  8
14
 10
-2074.618988
 20
-359.833107
 30
0.0
 70
0
  0
VERTEX
  5
8E
  8
14
 10
-2074.618988
 20
-359.833107
 30
0.0
 70
0
  0
VERTEX
  5
8F
  8
14
 10
-2074.618988
 20
-359.833107
 30
0.0
 70
0
  0
VERTEX
  5
90
  8
14
 10
-2075.172637
 20
-370.661851
 30
0.0
 70
0
  0
VERTEX
  5
91
  8
14
 10
-2076.03147
 20
-385.88212
 30
0.0
 70
0
  0
VERTEX
  5
92
  8
14
 10
-2076.945487
 20
-400.681368
 30
0.0
 70
0
  0
VERTEX
  5
93
  8
14
 10
-2077.948252
 20
-415.573843
 30
0.0
 70
0
  0
VERTEX
  5
94
  8
14
 10
-2079.114865
 20
-431.355491
 30
0.0
 70
0
  0
VERTEX
  5
95
  8
14
 10
-2080.390382
 20
-446.90251
 30
0.0
 70
0
  0
VERTEX
  5
96
  8
14
 10
-2081.815444
 20
-462.684891
 30
0.0
 70
0
  0
VERTEX
  5
97
  8
14
 10
-2083.402158
 20
-479.009211
 30
0.0
 70
0
  0
VERTEX
  5
98
  8
14
 10
-2085.115926
 20
-495.595855
 30
0.0
 70
0
  0
VERTEX
  5
99
  8
14
 10
-2086.989136
 20
-512.666969
 30
0.0
 70
0
  0
VERTEX
  5
9A
  8
14
 10
-2103.301407
 20
-518.492217
 30
0.0
 70
0
  0
VERTEX
  5
9B
  8
14
 10
-2118.274518
 20
-523.839238
 30
0.0
 70
0
  0
VERTEX
  5
9C
  8
14
 10
-2132.621479
 20
-528.962657
 30
0.0
 70
0
  0
VERTEX
  5
9D
  8
14
 10
-2147.594591
 20
-534.30968
 30
0.0
 70
0
  0
VERTEX
  5
9E
  8
14
 10
-2161.34767
 20
-539.221018
 30
0.0
 70
0
  0
SEQEND
  5
6F
  8
14
  0
POLYLINE
  5
9F
  8
8
 66
1
 10
0.0
 20
0.0
 30
0.0
 70
0
  0
VERTEX
  5
A1
  8
8
 10
-2163.907013
 20
-538.445473
 30
0.0
 70
0
  0
VERTEX
  5
A2
  8
8
 10
-2239.436493
 20
-511.507301
 30
0.0
 70
0
  0
SEQEND
  5
A0
  8
8
  0
POLYLINE
  5
A3
  8
8
 66
1
 10
0.0
 20
0.0
 30
0.0
 70
0
  0
VERTEX
  5
A5
  8
8
 10
-2163.907013
 20
-538.445473
 30
0.0
 70
0
  0
VERTEX
  5
A6
  8
8
 10
-2147.905754
 20
-532.723551
 30
0.0
 70
0
  0
VERTEX
  5
A7
  8
8
 10
-2133.218121
 20
-527.471372
 30
0.0
 70
0
  0
VERTEX
  5
A8
  8
8
 10
-2117.411432
 20
-521.819027
 30
0.0
 70
0
  0
VERTEX
  5
A9
  8
8
 10
-2103.00356
 20
-516.666888
 30
0.0
 70
0
  0
VERTEX
  5
AA
  8
8
 10
-2089.765407
 20
-511.93303
 30
0.0
 70
0
  0
VERTEX
  5
AB
  8
8
 10
-2088.455811
 20
-511.464729
 30
0.0
 70
0
  0
SEQEND
  5
A4
  8
8
  0
POLYLINE
  5
AC
  8
8
 66
1
 10
0.0
 20
0.0
 30
0.0
 70
0
  0
VERTEX
  5
AE
  8
8
 10
-2163.910065
 20
-531.640968
 30
0.0
 70
0
  0
VERTEX
  5
AF
  8
8
 10
-2180.045404
 20
-525.924734
 30
0.0
 70
0
  0
VERTEX
  5
B0
  8
8
 10
-2195.437666
 20
-520.471747
 30
0.0
 70
0
  0
VERTEX
  5
B1
  8
8
 10
-2209.926033
 20
-515.338982
 30
0.0
 70
0
  0
VERTEX
  5
B2
  8
8
 10
-2223.805611
 20
-510.421892
 30
0.0
 70
0
  0
VERTEX
  5
B3
  8
8
 10
-2233.478851
 20
-506.994972
 30
0.0
 70
0
  0
SEQEND
  5
AD
  8
8
  0
POLYLINE
  5
B4
  8
8
 66
1
 10
0.0
 20
0.0
 30
0.0
 70
0
  0
VERTEX
  5
B6
  8
8
 10
-2163.910065
 20
-531.640968
 30
0.0
 70
0
  0
VERTEX
  5
B7
  8
8
 10
-2147.783396
 20
-525.912701
 30
0.0
 70
0
  0
VERTEX
  5
B8
  8
8
 10
-2132.399406
 20
-520.448237
 30
0.0
 70
0
  0
VERTEX
  5
B9
  8
8
 10
-2117.918824
 20
-515.304667
 30
0.0
 70
0
  0
VERTEX
  5
BA
  8
8
 10
-2104.046703
 20
-510.377225
 30
0.0
 70
0
  0
VERTEX
  5
BB
  8
8
 10
-2094.378662
 20
-506.943092
 30
0.0
 70
0
  0
SEQEND
  5
B5
  8
8
  0
POLYLINE
  5
BC
  8
8
 66
1
 10
0.0
 20
0.0
 30
0.0
 70
0
  0
VERTEX
  5
BE
  8
8
 10
-2163.96347
 20
-359.826698
 30
0.0
 70
0
  0
VERTEX
  5
BF
  8
8
 10
-2163.95855
 20
-377.039457
 30
0.0
 70
0
  0
VERTEX
  5
C0
  8
8
 10
-2163.953815
 20
-393.296271
 30
0.0
 70
0
  0
VERTEX
  5
C1
  8
8
 10
-2163.949083
 20
-409.281249
 30
0.0
 70
0
  0
VERTEX
  5
C2
  8
8
 10
-2163.944376
 20
-424.924248
 30
0.0
 70
0
  0
VERTEX
  5
C3
  8
8
 10
-2163.93932
 20
-441.41807
 30
0.0
 70
0
  0
VERTEX
  5
C4
  8
8
 10
-2163.934562
 20
-456.615851
 30
0.0
 70
0
  0
VERTEX
  5
C5
  8
8
 10
-2163.929192
 20
-473.381002
 30
0.0
 70
0
  0
VERTEX
  5
C6
  8
8
 10
-2163.923932
 20
-489.487439
 30
0.0
 70
0
  0
VERTEX
  5
C7
  8
8
 10
-2163.919003
 20
-504.34966
 30
0.0
 70
0
  0
VERTEX
  5
C8
  8
8
 10
-2163.913645
 20
-520.285766
 30
0.0
 70
0
  0
VERTEX
  5
C9
  8
8
 10
-2163.908682
 20
-534.847944
 30
0.0
 70
0
  0
VERTEX
  5
CA
  8
8
 10
-2163.90686
 20
-540.134926
 30
0.0
 70
0
  0
SEQEND
  5
BD
  8
8
  0
POLYLINE
  5
CB
  8
8
 66
1
 10
0.0
 20
0.0
 30
0.0
 70
0
  0
VERTEX
  5
CD
  8
8
 10
-2088.455811
 20
-511.464729
 30
0.0
 70
0
  0
VERTEX
  5
CE
  8
8
 10
-2086.274801
 20
-494.143711
 30
0.0
 70
0
  0
VERTEX
  5
CF
  8
8
 10
-2084.48673
 20
-478.57952
 30
0.0
 70
0
  0
VERTEX
  5
D0
  8
8
 10
-2082.871689
 20
-462.731837
 30
0.0
 70
0
  0
VERTEX
  5
D1
  8
8
 10
-2081.466917
 20
-447.198507
 30
0.0
 70
0
  0
VERTEX
  5
D2
  8
8
 10
-2080.259935
 20
-432.212561
 30
0.0
 70
0
  0
VERTEX
  5
D3
  8
8
 10
-2079.135646
 20
-416.486962
 30
0.0
 70
0
  0
VERTEX
  5
D4
  8
8
 10
-2078.142747
 20
-400.683169
 30
0.0
 70
0
  0
VERTEX
  5
D5
  8
8
 10
-2077.324921
 20
-385.71341
 30
0.0
 70
0
  0
VERTEX
  5
D6
  8
8
 10
-2076.615337
 20
-370.370468
 30
0.0
 70
0
  0
VERTEX
  5
D7
  8
8
 10
-2076.222382
 20
-359.832954
 30
0.0
 70
0
  0
SEQEND
  5
CC
  8
8
  0
POLYLINE
  5
D8
  8
8
 66
1
 10
0.0
 20
0.0
 30
0.0
 70
0
  0
VERTEX
  5
DA
  8
8
 10
-2239.436493
 20
-511.507301
 30
0.0
 70
0
  0
VERTEX
  5
DB
  8
8
 10
-2241.047179
 20
-494.97652
 30
0.0
 70
0
  0
VERTEX
  5
DC
  8
8
 10
-2242.577395
 20
-478.689682
 30
0.0
 70
0
  0
VERTEX
  5
DD
  8
8
 10
-2243.964507
 20
-463.343065
 30
0.0
 70
0
  0
VERTEX
  5
DE
  8
8
 10
-2245.286657
 20
-447.969438
 30
0.0
 70
0
  0
VERTEX
  5
DF
  8
8
 10
-2246.570604
 20
-432.167507
 30
0.0
 70
0
  0
VERTEX
  5
E0
  8
8
 10
-2247.746616
 20
-416.940646
 30
0.0
 70
0
  0
VERTEX
  5
E1
  8
8
 10
-2248.908233
 20
-401.186628
 30
0.0
 70
0
  0
VERTEX
  5
E2
  8
8
 10
-2249.985577
 20
-385.911886
 30
0.0
 70
0
  0
VERTEX
  5
E3
  8
8
 10
-2251.010517
 20
-370.713335
 30
0.0
 70
0
  0
VERTEX
  5
E4
  8
8
 10
-2251.710815
 20
-359.820442
 30
0.0
 70
0
  0
SEQEND
  5
D9
  8
8
  0
POLYLINE
  5
E5
  8
8
 66
1
 10
0.0
 20
0.0
 30
0.0
 70
0
  0
VERTEX
  5
E7
  8
8
 10
-2233.478851
 20
-506.994972
 30
0.0
 70
0
  0
VERTEX
  5
E8
  8
8
 10
-2235.011274
 20
-490.096842
 30
0.0
 70
0
  0
VERTEX
  5
E9
  8
8
 10
-2236.412952
 20
-474.253651
 30
0.0
 70
0
  0
VERTEX
  5
EA
  8
8
 10
-2237.840758
 20
-457.675271
 30
0.0
 70
0
  0
VERTEX
  5
EB
  8
8
 10
-2239.155386
 20
-441.863523
 30
0.0
 70
0
  0
VERTEX
  5
EC
  8
8
 10
-2240.380287
 20
-426.583194
 30
0.0
 70
0
  0
VERTEX
  5
ED
  8
8
 10
-2241.639723
 20
-410.357879
 30
0.0
 70
0
  0
VERTEX
  5
EE
  8
8
 10
-2242.763209
 20
-395.462986
 30
0.0
 70
0
  0
VERTEX
  5
EF
  8
8
 10
-2243.889642
 20
-380.128852
 30
0.0
 70
0
  0
VERTEX
  5
F0
  8
8
 10
-2244.930014
 20
-365.572237
 30
0.0
 70
0
  0
VERTEX
  5
F1
  8
8
 10
-2245.331116
 20
-359.8209
 30
0.0
 70
0
  0
SEQEND
  5
E6
  8
8
  0
POLYLINE
  5
F2
  8
8
 66
1
 10
0.0
 20
0.0
 30
0.0
 70
0
  0
VERTEX
  5
F4
  8
8
 10
-2094.356079
 20
-506.9524
 30
0.0
 70
0
  0
VERTEX
  5
F5
  8
8
 10
-2092.877358
 20
-490.152777
 30
0.0
 70
0
  0
VERTEX
  5
F6
  8
8
 10
-2091.561047
 20
-474.894428
 30
0.0
 70
0
  0
VERTEX
  5
F7
  8
8
 10
-2090.195191
 20
-458.733786
 30
0.0
 70
0
  0
VERTEX
  5
F8
  8
8
 10
-2089.026368
 20
-444.563017
 30
0.0
 70
0
  0
VERTEX
  5
F9
  8
8
 10
-2087.655239
 20
-427.420901
 30
0.0
 70
0
  0
VERTEX
  5
FA
  8
8
 10
-2086.496296
 20
-412.514955
 30
0.0
 70
0
  0
VERTEX
  5
FB
  8
8
 10
-2085.326624
 20
-397.116671
 30
0.0
 70
0
  0
VERTEX
  5
FC
  8
8
 10
-2084.227043
 20
-382.327943
 30
0.0
 70
0
  0
VERTEX
  5
FD
  8
8
 10
-2083.131659
 20
-367.278176
 30
0.0
 70
0
  0
VERTEX
  5
FE
  8
8
 10
-2082.595978
 20
-359.769173
 30
0.0
 70
0
  0
SEQEND
  5
F3
  8
8
  0
POLYLINE
  5
FF
  8
8
 66
1
 10
0.0
 20
0.0
 30
0.0
 70
0
  0
VERTEX
  5
101
  8
8
 10
-2252.843323
 20
-372.533073
 30
0.0
 70
0
  0
VERTEX
  5
102
  8
8
 10
-2237.093172
 20
-372.534206
 30
0.0
 70
0
  0
VERTEX
  5
103
  8
8
 10
-2222.06833
 20
-372.535281
 30
0.0
 70
0
  0
VERTEX
  5
104
  8
8
 10
-2206.529704
 20
-372.536387
 30
0.0
 70
0
  0
VERTEX
  5
105
  8
8
 10
-2191.07052
 20
-372.53749
 30
0.0
 70
0
  0
VERTEX
  5
106
  8
8
 10
-2176.067738
 20
-372.538572
 30
0.0
 70
0
  0
VERTEX
  5
107
  8
8
 10
-2161.409132
 20
-372.539639
 30
0.0
 70
0
  0
VERTEX
  5
108
  8
8
 10
-2145.870516
 20
-372.540772
 30
0.0
 70
0
  0
VERTEX
  5
109
  8
8
 10
-2130.867702
 20
-372.541845
 30
0.0
 70
0
  0
VERTEX
  5
10A
  8
8
 10
-2115.715835
 20
-372.542894
 30
0.0
 70
0
  0
VERTEX
  5
10B
  8
8
 10
-2100.713045
 20
-372.543937
 30
0.0
 70
0
  0
VERTEX
  5
10C
  8
8
 10
-2085.462188
 20
-372.545039
 30
0.0
 70
0
  0
VERTEX
  5
10D
  8
8
 10
-2075.024872
 20
-372.545815
 30
0.0
 70
0
  0
SEQEND
  5
100
  8
8
  0
POINT
  5
10E
  8
4
 10
-2268.577118
 20
-359.819183
 30
0.0
  0
POINT
  5
10F
  8
4
 10
-2251.55304
 20
-331.245422
 30
0.0
  0
POINT
  5
110
  8
4
 10
-2076.174164
 20
-331.258011
 30
0.0
  0
POINT
  5
111
  8
4
 10
-2059.358521
 20
-359.834213
 30
0.0
  0
POINT
  5
112
  8
4
 10
-2253.310089
 20
-359.82029
 30
0.0
  0
POINT
  5
113
  8
4
 10
-2253.310089
 20
-359.82029
 30
0.0
  0
POINT
  5
114
  8
4
 10
-2074.618988
 20
-359.833107
 30
0.0
  0
POINT
  5
115
  8
4
 10
-2074.618988
 20
-359.833107
 30
0.0
  0
LINE
  5
116
  8
7
 10
-2172.134857
 20
-375.838623
 30
0.0
 11
-2172.134857
 21
-518.840256
 31
0.0
  0
ENDSEC
  0
EOF
