  0
SECTION
  2
HEADER
  9
$ACADVER
  1
AC1009
  9
$DWGCODEPAGE
  3
ANSI_1252
  9
$INSBASE
 10
0.0
 20
0.0
 30
0.0
  9
$EXTMIN
 10
1e+20
 20
1e+20
 30
1e+20
  9
$EXTMAX
 10
-1e+20
 20
-1e+20
 30
-1e+20
  9
$LIMMIN
 10
0.0
 20
0.0
  9
$LIMMAX
 10
420.0
 20
297.0
  9
$ORTHOMODE
 70
0
  9
$REGENMODE
 70
1
  9
$FILLMODE
 70
1
  9
$DRAGMODE
 70
2
  9
$QTEXTMODE
 70
0
  9
$MIRRTEXT
 70
1
  9
$OSMODE
 70
20583
  9
$LTSCALE
 40
1.0
  9
$ATTMODE
 70
1
  9
$TEXTSIZE
 40
2.5
  9
$TRACEWID
 40
1.0
  9
$TEXTSTYLE
  7
Standard
  9
$CLAYER
  8
0
  9
$CELTYPE
  6
ByLayer
  9
$CECOLOR
 62
256
  9
$DIMSCALE
 40
1.0
  9
$DIMASZ
 40
2.5
  9
$DIMEXO
 40
0.625
  9
$DIMDLI
 40
3.75
  9
$DIMRND
 40
0.0
  9
$DIMDLE
 40
0.0
  9
$DIMEXE
 40
1.25
  9
$DIMTP
 40
0.0
  9
$DIMTM
 40
0.0
  9
$DIMTXT
 40
2.5
  9
$DIMCEN
 40
2.5
  9
$DIMTSZ
 40
0.0
  9
$DIMTOL
 70
0
  9
$DIMLIM
 70
0
  9
$DIMTIH
 70
0
  9
$DIMTOH
 70
0
  9
$DIMSE1
 70
0
  9
$DIMSE2
 70
0
  9
$DIMTAD
 70
1
  9
$DIMZIN
 70
8
  9
$DIMBLK
  1

  9
$DIMASO
 70
1
  9
$DIMSHO
 70
1
  9
$DIMPOST
  1

  9
$DIMAPOST
  1

  9
$DIMALT
 70
0
  9
$DIMALTD
 70
3
  9
$DIMALTF
 40
0.03937007874
  9
$DIMLFAC
 40
1.0
  9
$DIMTOFL
 70
1
  9
$DIMTVP
 40
0.0
  9
$DIMTIX
 70
0
  9
$DIMSOXD
 70
0
  9
$DIMSAH
 70
0
  9
$DIMBLK1
  1

  9
$DIMBLK2
  1

  9
$DIMSTYLE
  2
ISO-25
  9
$DIMCLRD
 70
0
  9
$DIMCLRE
 70
0
  9
$DIMCLRT
 70
0
  9
$DIMTFAC
 40
1.0
  9
$DIMGAP
 40
0.625
  9
$COORDS
 70
1
  9
$ATTDIA
 70
0
  9
$ATTREQ
 70
1
  9
$HANDLING
 70
1
  9
$LUNITS
 70
2
  9
$LUPREC
 70
4
  9
$SKETCHINC
 40
1.0
  9
$FILLETRAD
 40
10.0
  9
$AUNITS
 70
0
  9
$AUPREC
 70
2
  9
$MENU
  1
.
  9
$ELEVATION
 40
0.0
  9
$PELEVATION
 40
0.0
  9
$THICKNESS
 40
0.0
  9
$LIMCHECK
 70
0
  9
$CHAMFERA
 40
0.0
  9
$CHAMFERB
 40
0.0
  9
$SKPOLY
 70
0
  9
$TDCREATE
 40
2461264.9423032408
  9
$TDUPDATE
 40
2461264.9423032408
  9
$TDINDWG
 40
0.0
  9
$TDUSRTIMER
 40
0.0
  9
$USRTIMER
 70
1
  9
$ANGBASE
 50
0.0
  9
$ANGDIR
 70
0
  9
$PDMODE
 70
0
  9
$PDSIZE
 40
0.0
  9
$PLINEWID
 40
0.0
  9
$SPLFRAME
 70
0
  9
$SPLINETYPE
 70
6
  9
$SPLINESEGS
 70
8
  9
$HANDSEED
  5
B2
  9
$SURFTAB1
 70
6
  9
$SURFTAB2
 70
6
  9
$SURFTYPE
 70
6
  9
$SURFU
 70
6
  9
$SURFV
 70
6
  9
$UCSNAME
  2

  9
$UCSORG
 10
0.0
 20
0.0
 30
0.0
  9
$UCSXDIR
 10
1.0
 20
0.0
 30
0.0
  9
$UCSYDIR
 10
0.0
 20
1.0
 30
0.0
  9
$PUCSNAME
  2

  9
$PUCSORG
 10
0.0
 20
0.0
 30
0.0
  9
$PUCSXDIR
 10
1.0
 20
0.0
 30
0.0
  9
$PUCSYDIR
 10
0.0
 20
1.0
 30
0.0
  9
$USERI1
 70
0
  9
$USERI2
 70
0
  9
$USERI3
 70
0
  9
$USERI4
 70
0
  9
$USERI5
 70
0
  9
$USERR1
 40
0.0
  9
$USERR2
 40
0.0
  9
$USERR3
 40
0.0
  9
$USERR4
 40
0.0
  9
$USERR5
 40
0.0
  9
$WORLDVIEW
 70
1
  9
$SHADEDGE
 70
3
  9
$SHADEDIF
 70
70
  9
$TILEMODE
 70
1
  9
$MAXACTVP
 70
64
  9
$PLIMCHECK
 70
0
  9
$PEXTMIN
 10
1e+20
 20
1e+20
 30
1e+20
  9
$PEXTMAX
 10
-1e+20
 20
-1e+20
 30
-1e+20
  9
$PLIMMIN
 10
0.0
 20
0.0
  9
$PLIMMAX
 10
420.0
 20
297.0
  9
$UNITMODE
 70
0
  9
$VISRETAIN
 70
1
  9
$PLINEGEN
 70
0
  9
$PSLTSCALE
 70
1
  0
ENDSEC
  0
SECTION
  2
TABLES
  0
TABLE
  2
VPORT
 70
1
  0
VPORT
  5
23
  2
*Active
 70
0
 10
0.0
 20
0.0
 11
1.0
 21
1.0
 12
0.0
 22
0.0
 13
0.0
 23
0.0
 14
0.5
 24
0.5
 15
0.5
 25
0.5
 16
0.0
 26
0.0
 36
1.0
 17
0.0
 27
0.0
 37
0.0
 40
1000.0
 41
1.34
 42
50.0
 43
0.0
 44
0.0
 50
0.0
 51
0.0
 71
0
 72
1000
 73
1
 74
3
 75
0
 76
0
 77
0
 78
0
  0
ENDTAB
  0
TABLE
  2
LTYPE
 70
3
  0
LTYPE
  5
24
  2
ByBlock
 70
0
  3

 72
65
 73
0
 40
0.0
  0
LTYPE
  5
25
  2
ByLayer
 70
0
  3

 72
65
 73
0
 40
0.0
  0
LTYPE
  5
26
  2
Continuous
 70
0
  3

 72
65
 73
0
 40
0.0
  0
ENDTAB
  0
TABLE
  2
LAYER
 70
7
  0
LAYER
  5
27
  2
0
 70
0
 62
7
  6
Continuous
  0
LAYER
  5
28
  2
Defpoints
 70
0
 62
7
  6
Continuous
  0
LAYER
  5
2D
  2
1
 70
0
 62
1
  6
Continuous
  0
LAYER
  5
2E
  2
7
 70
0
 62
7
  6
Continuous
  0
LAYER
  5
2F
  2
14
 70
0
 62
3
  6
Continuous
  0
LAYER
  5
30
  2
8
 70
0
 62
6
  6
Continuous
  0
LAYER
  5
31
  2
4
 70
0
 62
2
  6
Continuous
  0
ENDTAB
  0
TABLE
  2
STYLE
 70
1
  0
STYLE
  5
29
  2
Standard
 70
0
 40
0.0
 41
1.0
 50
0.0
 71
0
 42
2.5
  3
txt
  4

  0
ENDTAB
  0
TABLE
  2
VIEW
 70
0
  0
ENDTAB
  0
TABLE
  2
UCS
 70
0
  0
ENDTAB
  0
TABLE
  2
APPID
 70
3
  0
APPID
  5
2A
  2
ACAD
 70
0
  0
APPID
  5
B0
  2
HATCHBACKGROUNDCOLOR
 70
0
  0
APPID
  5
B1
  2
EZDXF
 70
0
  0
ENDTAB
  0
TABLE
  2
DIMSTYLE
 70
1
  0
DIMSTYLE
105
2B
  2
Standard
 70
0
  3

  4

  5

  6

  7

 40
1.0
 41
2.5
 42
0.625
 43
3.75
 44
1.25
 45
0.0
 46
0.0
 47
0.0
 48
0.0
140
2.5
141
2.5
142
0.0
143
0.03937007874
144
1.0
145
0.0
146
1.0
147
0.625
 71
0
 72
0
 73
0
 74
0
 75
0
 76
0
 77
1
 78
8
170
0
171
3
172
1
173
0
174
0
175
0
176
0
177
0
178
0
  0
ENDTAB
  0
ENDSEC
  0
SECTION
  2
BLOCKS
  0
BLOCK
  5
18
  8
0
  2
$Model_Space
 70
0
 10
0.0
 20
0.0
 30
0.0
  3
$Model_Space
  1

1001
EZDXF
1000
CREATED_BY_EZDXF
1000
1.4.4 @ 2026-08-11T14:36:55.947217+00:00
1000
WRITTEN_BY_EZDXF
1000
1.4.4 @ 2026-08-11T14:36:55.949216+00:00
  0
ENDBLK
  5
19
  8
0
  0
BLOCK
  5
1C
  8
0
  2
$Paper_Space
 70
0
 10
0.0
 20
0.0
 30
0.0
  3
$Paper_Space
  1

  0
ENDBLK
  5
1D
  8
0
  0
ENDSEC
  0
SECTION
  2
ENTITIES
  0
POLYLINE
  5
32
  8
1
 66
1
 10
0.0
 20
0.0
 30
0.0
 70
1
  0
VERTEX
  5
34
  8
1
 10
-2384.990997
 20
-1345.045471
 30
0.0
 70
0
  0
VERTEX
  5
35
  8
1
 10
-2397.49939
 20
-1344.008331
 30
0.0
 70
0
  0
VERTEX
  5
36
  8
1
 10
-2396.995288
 20
-1331.633213
 30
0.0
 70
0
  0
VERTEX
  5
37
  8
1
 10
-2396.375254
 20
-1316.393355
 30
0.0
 70
0
  0
VERTEX
  5
38
  8
1
 10
-2395.764352
 20
-1301.355545
 30
0.0
 70
0
  0
VERTEX
  5
39
  8
1
 10
-2395.143214
 20
-1286.03623
 30
0.0
 70
0
  0
VERTEX
  5
3A
  8
1
 10
-2394.519392
 20
-1270.623648
 30
0.0
 70
0
  0
VERTEX
  5
3B
  8
1
 10
-2393.904605
 20
-1255.413527
 30
0.0
 70
0
  0
VERTEX
  5
3C
  8
1
 10
-2393.282586
 20
-1240.000857
 30
0.0
 70
0
  0
VERTEX
  5
3D
  8
1
 10
-2392.668413
 20
-1224.754149
 30
0.0
 70
0
  0
VERTEX
  5
3E
  8
1
 10
-2392.048801
 20
-1209.34139
 30
0.0
 70
0
  0
VERTEX
  5
3F
  8
1
 10
-2391.428417
 20
-1193.876401
 30
0.0
 70
0
  0
VERTEX
  5
40
  8
1
 10
-2390.81159
 20
-1178.463535
 30
0.0
 70
0
  0
VERTEX
  5
41
  8
1
 10
-2390.209592
 20
-1163.382732
 30
0.0
 70
0
  0
VERTEX
  5
42
  8
1
 10
-2389.595827
 20
-1147.969738
 30
0.0
 70
0
  0
VERTEX
  5
43
  8
1
 10
-2388.97956
 20
-1132.459148
 30
0.0
 70
0
  0
VERTEX
  5
44
  8
1
 10
-2388.368446
 20
-1117.046045
 30
0.0
 70
0
  0
VERTEX
  5
45
  8
1
 10
-2387.76478
 20
-1101.791406
 30
0.0
 70
0
  0
VERTEX
  5
46
  8
1
 10
-2387.134151
 20
-1085.827754
 30
0.0
 70
0
  0
VERTEX
  5
47
  8
1
 10
-2386.545932
 20
-1070.914212
 30
0.0
 70
0
  0
VERTEX
  5
48
  8
1
 10
-2385.939107
 20
-1055.500934
 30
0.0
 70
0
  0
VERTEX
  5
49
  8
1
 10
-2385.341386
 20
-1040.287577
 30
0.0
 70
0
  0
VERTEX
  5
4A
  8
1
 10
-2384.736798
 20
-1024.874216
 30
0.0
 70
0
  0
VERTEX
  5
4B
  8
1
 10
-2384.176025
 20
-1010.563889
 30
0.0
 70
0
  0
VERTEX
  5
4C
  8
1
 10
-2384.136173
 20
-1009.545604
 30
0.0
 70
0
  0
VERTEX
  5
4D
  8
1
 10
-2383.529358
 20
-994.048157
 30
0.0
 70
0
  0
VERTEX
  5
4E
  8
1
 10
-2363.613739
 20
-992.813034
 30
0.0
 70
0
  0
VERTEX
  5
4F
  8
1
 10
-2363.15033
 20
-992.933426
 30
0.0
 70
0
  0
VERTEX
  5
50
  8
1
 10
-2348.2913
 20
-996.794119
 30
0.0
 70
0
  0
VERTEX
  5
51
  8
1
 10
-2333.223129
 20
-1000.709147
 30
0.0
 70
0
  0
VERTEX
  5
52
  8
1
 10
-2318.655206
 20
-1004.494209
 30
0.0
 70
0
  0
VERTEX
  5
53
  8
1
 10
-2304.201941
 20
-1008.249491
 30
0.0
 70
0
  0
VERTEX
  5
54
  8
1
 10
-2289.666876
 20
-1012.026038
 30
0.0
 70
0
  0
VERTEX
  5
55
  8
1
 10
-2284.697266
 20
-1013.317261
 30
0.0
 70
0
  0
VERTEX
  5
56
  8
1
 10
-2285.172082
 20
-1016.539686
 30
0.0
 70
0
  0
VERTEX
  5
57
  8
1
 10
-2287.039185
 20
-1029.242096
 30
0.0
 70
0
  0
VERTEX
  5
58
  8
1
 10
-2287.365503
 20
-1031.462728
 30
0.0
 70
0
  0
VERTEX
  5
59
  8
1
 10
-2289.582678
 20
-1046.692227
 30
0.0
 70
0
  0
VERTEX
  5
5A
  8
1
 10
-2291.717558
 20
-1061.683128
 30
0.0
 70
0
  0
VERTEX
  5
5B
  8
1
 10
-2293.819285
 20
-1076.928953
 30
0.0
 70
0
  0
VERTEX
  5
5C
  8
1
 10
-2295.858443
 20
-1092.183324
 30
0.0
 70
0
  0
VERTEX
  5
5D
  8
1
 10
-2297.825914
 20
-1107.293855
 30
0.0
 70
0
  0
VERTEX
  5
5E
  8
1
 10
-2299.759439
 20
-1122.561931
 30
0.0
 70
0
  0
VERTEX
  5
5F
  8
1
 10
-2301.616504
 20
-1137.693188
 30
0.0
 70
0
  0
VERTEX
  5
60
  8
1
 10
-2303.42899
 20
-1152.97616
 30
0.0
 70
0
  0
VERTEX
  5
61
  8
1
 10
-2305.180904
 20
-1168.310231
 30
0.0
 70
0
  0
VERTEX
  5
62
  8
1
 10
-2306.855828
 20
-1183.608909
 30
0.0
 70
0
  0
VERTEX
  5
63
  8
1
 10
-2308.44861
 20
-1198.906308
 30
0.0
 70
0
  0
VERTEX
  5
64
  8
1
 10
-2309.956917
 20
-1214.222303
 30
0.0
 70
0
  0
VERTEX
  5
65
  8
1
 10
-2311.367718
 20
-1229.381007
 30
0.0
 70
0
  0
VERTEX
  5
66
  8
1
 10
-2312.717164
 20
-1244.711744
 30
0.0
 70
0
  0
VERTEX
  5
67
  8
1
 10
-2314.00073
 20
-1260.048191
 30
0.0
 70
0
  0
VERTEX
  5
68
  8
1
 10
-2315.230815
 20
-1275.425649
 30
0.0
 70
0
  0
VERTEX
  5
69
  8
1
 10
-2316.395977
 20
-1290.771509
 30
0.0
 70
0
  0
VERTEX
  5
6A
  8
1
 10
-2317.492785
 20
-1306.118391
 30
0.0
 70
0
  0
VERTEX
  5
6B
  8
1
 10
-2318.544522
 20
-1321.472442
 30
0.0
 70
0
  0
VERTEX
  5
6C
  8
1
 10
-2319.613037
 20
-1337.265167
 30
0.0
 70
0
  0
VERTEX
  5
6D
  8
1
 10
-2323.494336
 20
-1337.727068
 30
0.0
 70
0
  0
VERTEX
  5
6E
  8
1
 10
-2338.373328
 20
-1339.497762
 30
0.0
 70
0
  0
VERTEX
  5
6F
  8
1
 10
-2353.884615
 20
-1341.34369
 30
0.0
 70
0
  0
VERTEX
  5
70
  8
1
 10
-2368.986607
 20
-1343.140893
 30
0.0
 70
0
  0
VERTEX
  5
71
  8
1
 10
-2377.167358
 20
-1344.11438
 30
0.0
 70
0
  0
SEQEND
  5
33
  8
1
  0
POLYLINE
  5
72
  8
14
 66
1
 10
0.0
 20
0.0
 30
0.0
 70
1
  0
VERTEX
  5
74
  8
14
 10
-2376.643677
 20
-1331.262817
 30
0.0
 70
0
  0
VERTEX
  5
75
  8
14
 10
-2376.550971
 20
-1328.987658
 30
0.0
 70
0
  0
VERTEX
  5
76
  8
14
 10
-2375.972392
 20
-1314.765724
 30
0.0
 70
0
  0
VERTEX
  5
77
  8
14
 10
-2375.37105
 20
-1299.95695
 30
0.0
 70
0
  0
VERTEX
  5
78
  8
14
 10
-2374.737443
 20
-1284.32801
 30
0.0
 70
0
  0
VERTEX
  5
79
  8
14
 10
-2374.139948
 20
-1269.56649
 30
0.0
 70
0
  0
VERTEX
  5
7A
  8
14
 10
-2373.490463
 20
-1253.494351
 30
0.0
 70
0
  0
VERTEX
  5
7B
  8
14
 10
-2372.799472
 20
-1236.363633
 30
0.0
 70
0
  0
VERTEX
  5
7C
  8
14
 10
-2372.077456
 20
-1218.426344
 30
0.0
 70
0
  0
VERTEX
  5
7D
  8
14
 10
-2371.334899
 20
-1199.934505
 30
0.0
 70
0
  0
VERTEX
  5
7E
  8
14
 10
-2370.733108
 20
-1184.911109
 30
0.0
 70
0
  0
VERTEX
  5
7F
  8
14
 10
-2370.006721
 20
-1166.727085
 30
0.0
 70
0
  0
VERTEX
  5
80
  8
14
 10
-2369.260448
 20
-1147.988741
 30
0.0
 70
0
  0
VERTEX
  5
81
  8
14
 10
-2368.529312
 20
-1129.580823
 30
0.0
 70
0
  0
VERTEX
  5
82
  8
14
 10
-2367.821376
 20
-1111.714596
 30
0.0
 70
0
  0
VERTEX
  5
83
  8
14
 10
-2367.144703
 20
-1094.601326
 30
0.0
 70
0
  0
VERTEX
  5
84
  8
14
 10
-2366.50736
 20
-1078.452322
 30
0.0
 70
0
  0
VERTEX
  5
85
  8
14
 10
-2365.805817
 20
-1060.64383
 30
0.0
 70
0
  0
VERTEX
  5
86
  8
14
 10
-2365.186456
 20
-1044.893206
 30
0.0
 70
0
  0
VERTEX
  5
87
  8
14
 10
-2364.512566
 20
-1027.724547
 30
0.0
 70
0
  0
VERTEX
  5
88
  8
14
 10
-2363.791199
 20
-1009.300232
 30
0.0
 70
0
  0
VERTEX
  5
89
  8
14
 10
-2363.792877
 20
-1009.299774
 30
0.0
 70
0
  0
VERTEX
  5
8A
  8
14
 10
-2363.791199
 20
-1009.300232
 30
0.0
 70
0
  0
VERTEX
  5
8B
  8
14
 10
-2347.544921
 20
-1013.521354
 30
0.0
 70
0
  0
VERTEX
  5
8C
  8
14
 10
-2331.598589
 20
-1017.664565
 30
0.0
 70
0
  0
VERTEX
  5
8D
  8
14
 10
-2316.998761
 20
-1021.457925
 30
0.0
 70
0
  0
VERTEX
  5
8E
  8
14
 10
-2302.866106
 20
-1025.129903
 30
0.0
 70
0
  0
VERTEX
  5
8F
  8
14
 10
-2299.404297
 20
-1026.029358
 30
0.0
 70
0
  0
VERTEX
  5
90
  8
14
 10
-2299.404297
 20
-1026.029358
 30
0.0
 70
0
  0
VERTEX
  5
91
  8
14
 10
-2299.948868
 20
-1029.66204
 30
0.0
 70
0
  0
VERTEX
  5
92
  8
14
 10
-2302.104963
 20
-1044.440801
 30
0.0
 70
0
  0
VERTEX
  5
93
  8
14
 10
-2304.263397
 20
-1059.697564
 30
0.0
 70
0
  0
VERTEX
  5
94
  8
14
 10
-2306.510952
 20
-1076.041156
 30
0.0
 70
0
  0
VERTEX
  5
95
  8
14
 10
-2308.638039
 20
-1091.954689
 30
0.0
 70
0
  0
VERTEX
  5
96
  8
14
 10
-2310.89518
 20
-1109.359834
 30
0.0
 70
0
  0
VERTEX
  5
97
  8
14
 10
-2312.837789
 20
-1124.821242
 30
0.0
 70
0
  0
VERTEX
  5
98
  8
14
 10
-2314.804215
 20
-1140.996857
 30
0.0
 70
0
  0
VERTEX
  5
99
  8
14
 10
-2316.764228
 20
-1157.740469
 30
0.0
 70
0
  0
VERTEX
  5
9A
  8
14
 10
-2318.687604
 20
-1174.905882
 30
0.0
 70
0
  0
VERTEX
  5
9B
  8
14
 10
-2320.544115
 20
-1192.3469
 30
0.0
 70
0
  0
VERTEX
  5
9C
  8
14
 10
-2322.259076
 20
-1209.457707
 30
0.0
 70
0
  0
VERTEX
  5
9D
  8
14
 10
-2323.900457
 20
-1226.96096
 30
0.0
 70
0
  0
VERTEX
  5
9E
  8
14
 10
-2325.409409
 20
-1244.07488
 30
0.0
 70
0
  0
VERTEX
  5
9F
  8
14
 10
-2326.77643
 20
-1260.457222
 30
0.0
 70
0
  0
VERTEX
  5
A0
  8
14
 10
-2327.992016
 20
-1275.76571
 30
0.0
 70
0
  0
VERTEX
  5
A1
  8
14
 10
-2329.237443
 20
-1292.236499
 30
0.0
 70
0
  0
VERTEX
  5
A2
  8
14
 10
-2330.375623
 20
-1308.086055
 30
0.0
 70
0
  0
VERTEX
  5
A3
  8
14
 10
-2331.573181
 20
-1325.898895
 30
0.0
 70
0
  0
VERTEX
  5
A4
  8
14
 10
-2344.854024
 20
-1327.479372
 30
0.0
 70
0
  0
VERTEX
  5
A5
  8
14
 10
-2360.376483
 20
-1329.326611
 30
0.0
 70
0
  0
VERTEX
  5
A6
  8
14
 10
-2376.643677
 20
-1331.262512
 30
0.0
 70
0
  0
SEQEND
  5
73
  8
14
  0
POINT
  5
A7
  8
4
 10
-2384.176025
 20
-1010.563889
 30
0.0
  0
POINT
  5
A8
  8
4
 10
-2363.15033
 20
-992.933426
 30
0.0
  0
POINT
  5
A9
  8
4
 10
-2287.039185
 20
-1029.242096
 30
0.0
  0
POINT
  5
AA
  8
4
 10
-2377.167358
 20
-1344.11438
 30
0.0
  0
POINT
  5
AB
  8
4
 10
-2363.791199
 20
-1009.300232
 30
0.0
  0
POINT
  5
AC
  8
4
 10
-2363.791199
 20
-1009.300232
 30
0.0
  0
POINT
  5
AD
  8
4
 10
-2299.404297
 20
-1026.029358
 30
0.0
  0
POINT
  5
AE
  8
4
 10
-2376.643677
 20
-1331.262512
 30
0.0
  0
LINE
  5
AF
  8
7
 10
-2361.838989
 20
-1105.005035
 30
0.0
 11
-2316.123657
 21
-1105.544739
 31
0.0
  0
ENDSEC
  0
EOF
