  0
SECTION
  2
HEADER
  9
$ACADVER
  1
AC1009
  9
$DWGCODEPAGE
  3
ANSI_1252
  9
$INSBASE
 10
0.0
 20
0.0
 30
0.0
  9
$EXTMIN
 10
1e+20
 20
1e+20
 30
1e+20
  9
$EXTMAX
 10
-1e+20
 20
-1e+20
 30
-1e+20
  9
$LIMMIN
 10
0.0
 20
0.0
  9
$LIMMAX
 10
420.0
 20
297.0
  9
$ORTHOMODE
 70
0
  9
$REGENMODE
 70
1
  9
$FILLMODE
 70
1
  9
$DRAGMODE
 70
2
  9
$QTEXTMODE
 70
0
  9
$MIRRTEXT
 70
1
  9
$OSMODE
 70
20583
  9
$LTSCALE
 40
1.0
  9
$ATTMODE
 70
1
  9
$TEXTSIZE
 40
2.5
  9
$TRACEWID
 40
1.0
  9
$TEXTSTYLE
  7
Standard
  9
$CLAYER
  8
0
  9
$CELTYPE
  6
ByLayer
  9
$CECOLOR
 62
256
  9
$DIMSCALE
 40
1.0
  9
$DIMASZ
 40
2.5
  9
$DIMEXO
 40
0.625
  9
$DIMDLI
 40
3.75
  9
$DIMRND
 40
0.0
  9
$DIMDLE
 40
0.0
  9
$DIMEXE
 40
1.25
  9
$DIMTP
 40
0.0
  9
$DIMTM
 40
0.0
  9
$DIMTXT
 40
2.5
  9
$DIMCEN
 40
2.5
  9
$DIMTSZ
 40
0.0
  9
$DIMTOL
 70
0
  9
$DIMLIM
 70
0
  9
$DIMTIH
 70
0
  9
$DIMTOH
 70
0
  9
$DIMSE1
 70
0
  9
$DIMSE2
 70
0
  9
$DIMTAD
 70
1
  9
$DIMZIN
 70
8
  9
$DIMBLK
  1

  9
$DIMASO
 70
1
  9
$DIMSHO
 70
1
  9
$DIMPOST
  1

  9
$DIMAPOST
  1

  9
$DIMALT
 70
0
  9
$DIMALTD
 70
3
  9
$DIMALTF
 40
0.03937007874
  9
$DIMLFAC
 40
1.0
  9
$DIMTOFL
 70
1
  9
$DIMTVP
 40
0.0
  9
$DIMTIX
 70
0
  9
$DIMSOXD
 70
0
  9
$DIMSAH
 70
0
  9
$DIMBLK1
  1

  9
$DIMBLK2
  1

  9
$DIMSTYLE
  2
ISO-25
  9
$DIMCLRD
 70
0
  9
$DIMCLRE
 70
0
  9
$DIMCLRT
 70
0
  9
$DIMTFAC
 40
1.0
  9
$DIMGAP
 40
0.625
  9
$COORDS
 70
1
  9
$ATTDIA
 70
0
  9
$ATTREQ
 70
1
  9
$HANDLING
 70
1
  9
$LUNITS
 70
2
  9
$LUPREC
 70
4
  9
$SKETCHINC
 40
1.0
  9
$FILLETRAD
 40
10.0
  9
$AUNITS
 70
0
  9
$AUPREC
 70
2
  9
$MENU
  1
.
  9
$ELEVATION
 40
0.0
  9
$PELEVATION
 40
0.0
  9
$THICKNESS
 40
0.0
  9
$LIMCHECK
 70
0
  9
$CHAMFERA
 40
0.0
  9
$CHAMFERB
 40
0.0
  9
$SKPOLY
 70
0
  9
$TDCREATE
 40
2461259.4353935183
  9
$TDUPDATE
 40
2461259.4353935183
  9
$TDINDWG
 40
0.0
  9
$TDUSRTIMER
 40
0.0
  9
$USRTIMER
 70
1
  9
$ANGBASE
 50
0.0
  9
$ANGDIR
 70
0
  9
$PDMODE
 70
0
  9
$PDSIZE
 40
0.0
  9
$PLINEWID
 40
0.0
  9
$SPLFRAME
 70
0
  9
$SPLINETYPE
 70
6
  9
$SPLINESEGS
 70
8
  9
$HANDSEED
  5
71
  9
$SURFTAB1
 70
6
  9
$SURFTAB2
 70
6
  9
$SURFTYPE
 70
6
  9
$SURFU
 70
6
  9
$SURFV
 70
6
  9
$UCSNAME
  2

  9
$UCSORG
 10
0.0
 20
0.0
 30
0.0
  9
$UCSXDIR
 10
1.0
 20
0.0
 30
0.0
  9
$UCSYDIR
 10
0.0
 20
1.0
 30
0.0
  9
$PUCSNAME
  2

  9
$PUCSORG
 10
0.0
 20
0.0
 30
0.0
  9
$PUCSXDIR
 10
1.0
 20
0.0
 30
0.0
  9
$PUCSYDIR
 10
0.0
 20
1.0
 30
0.0
  9
$USERI1
 70
0
  9
$USERI2
 70
0
  9
$USERI3
 70
0
  9
$USERI4
 70
0
  9
$USERI5
 70
0
  9
$USERR1
 40
0.0
  9
$USERR2
 40
0.0
  9
$USERR3
 40
0.0
  9
$USERR4
 40
0.0
  9
$USERR5
 40
0.0
  9
$WORLDVIEW
 70
1
  9
$SHADEDGE
 70
3
  9
$SHADEDIF
 70
70
  9
$TILEMODE
 70
1
  9
$MAXACTVP
 70
64
  9
$PLIMCHECK
 70
0
  9
$PEXTMIN
 10
1e+20
 20
1e+20
 30
1e+20
  9
$PEXTMAX
 10
-1e+20
 20
-1e+20
 30
-1e+20
  9
$PLIMMIN
 10
0.0
 20
0.0
  9
$PLIMMAX
 10
420.0
 20
297.0
  9
$UNITMODE
 70
0
  9
$VISRETAIN
 70
1
  9
$PLINEGEN
 70
0
  9
$PSLTSCALE
 70
1
  0
ENDSEC
  0
SECTION
  2
TABLES
  0
TABLE
  2
VPORT
 70
1
  0
VPORT
  5
23
  2
*Active
 70
0
 10
0.0
 20
0.0
 11
1.0
 21
1.0
 12
0.0
 22
0.0
 13
0.0
 23
0.0
 14
0.5
 24
0.5
 15
0.5
 25
0.5
 16
0.0
 26
0.0
 36
1.0
 17
0.0
 27
0.0
 37
0.0
 40
1000.0
 41
1.34
 42
50.0
 43
0.0
 44
0.0
 50
0.0
 51
0.0
 71
0
 72
1000
 73
1
 74
3
 75
0
 76
0
 77
0
 78
0
  0
ENDTAB
  0
TABLE
  2
LTYPE
 70
3
  0
LTYPE
  5
24
  2
ByBlock
 70
0
  3

 72
65
 73
0
 40
0.0
  0
LTYPE
  5
25
  2
ByLayer
 70
0
  3

 72
65
 73
0
 40
0.0
  0
LTYPE
  5
26
  2
Continuous
 70
0
  3

 72
65
 73
0
 40
0.0
  0
ENDTAB
  0
TABLE
  2
LAYER
 70
4
  0
LAYER
  5
27
  2
0
 70
0
 62
7
  6
Continuous
  0
LAYER
  5
28
  2
Defpoints
 70
0
 62
7
  6
Continuous
  0
LAYER
  5
2D
  2
1
 70
0
 62
1
  6
Continuous
  0
LAYER
  5
2E
  2
7
 70
0
 62
7
  6
Continuous
  0
ENDTAB
  0
TABLE
  2
STYLE
 70
1
  0
STYLE
  5
29
  2
Standard
 70
0
 40
0.0
 41
1.0
 50
0.0
 71
0
 42
2.5
  3
txt
  4

  0
ENDTAB
  0
TABLE
  2
VIEW
 70
0
  0
ENDTAB
  0
TABLE
  2
UCS
 70
0
  0
ENDTAB
  0
TABLE
  2
APPID
 70
3
  0
APPID
  5
2A
  2
ACAD
 70
0
  0
APPID
  5
6F
  2
HATCHBACKGROUNDCOLOR
 70
0
  0
APPID
  5
70
  2
EZDXF
 70
0
  0
ENDTAB
  0
TABLE
  2
DIMSTYLE
 70
1
  0
DIMSTYLE
105
2B
  2
Standard
 70
0
  3

  4

  5

  6

  7

 40
1.0
 41
2.5
 42
0.625
 43
3.75
 44
1.25
 45
0.0
 46
0.0
 47
0.0
 48
0.0
140
2.5
141
2.5
142
0.0
143
0.03937007874
144
1.0
145
0.0
146
1.0
147
0.625
 71
0
 72
0
 73
0
 74
0
 75
0
 76
0
 77
1
 78
8
170
0
171
3
172
1
173
0
174
0
175
0
176
0
177
0
178
0
  0
ENDTAB
  0
ENDSEC
  0
SECTION
  2
BLOCKS
  0
BLOCK
  5
18
  8
0
  2
$Model_Space
 70
0
 10
0.0
 20
0.0
 30
0.0
  3
$Model_Space
  1

1001
EZDXF
1000
CREATED_BY_EZDXF
1000
1.4.4 @ 2026-08-06T02:26:58.166014+00:00
1000
WRITTEN_BY_EZDXF
1000
1.4.4 @ 2026-08-06T02:26:58.166014+00:00
  0
ENDBLK
  5
19
  8
0
  0
BLOCK
  5
1C
  8
0
  2
$Paper_Space
 70
0
 10
0.0
 20
0.0
 30
0.0
  3
$Paper_Space
  1

  0
ENDBLK
  5
1D
  8
0
  0
ENDSEC
  0
SECTION
  2
ENTITIES
  0
POLYLINE
  5
2F
  8
1
 66
1
 10
0.0
 20
0.0
 30
0.0
 70
1
  0
VERTEX
  5
31
  8
1
 10
-2384.928284
 20
-1338.139496
 30
0.0
 70
0
  0
VERTEX
  5
32
  8
1
 10
-2397.433167
 20
-1337.101898
 30
0.0
 70
0
  0
VERTEX
  5
33
  8
1
 10
-2397.380071
 20
-1335.836777
 30
0.0
 70
0
  0
VERTEX
  5
34
  8
1
 10
-2396.760376
 20
-1321.063661
 30
0.0
 70
0
  0
VERTEX
  5
35
  8
1
 10
-2396.133257
 20
-1306.100913
 30
0.0
 70
0
  0
VERTEX
  5
36
  8
1
 10
-2395.501011
 20
-1290.99748
 30
0.0
 70
0
  0
VERTEX
  5
37
  8
1
 10
-2394.867599
 20
-1275.841302
 30
0.0
 70
0
  0
VERTEX
  5
38
  8
1
 10
-2394.222792
 20
-1260.382314
 30
0.0
 70
0
  0
VERTEX
  5
39
  8
1
 10
-2393.59174
 20
-1245.226057
 30
0.0
 70
0
  0
VERTEX
  5
3A
  8
1
 10
-2392.951629
 20
-1229.828227
 30
0.0
 70
0
  0
VERTEX
  5
3B
  8
1
 10
-2392.322684
 20
-1214.671861
 30
0.0
 70
0
  0
VERTEX
  5
3C
  8
1
 10
-2391.686029
 20
-1199.296745
 30
0.0
 70
0
  0
VERTEX
  5
3D
  8
1
 10
-2391.059909
 20
-1184.140294
 30
0.0
 70
0
  0
VERTEX
  5
3E
  8
1
 10
-2390.421415
 20
-1168.645303
 30
0.0
 70
0
  0
VERTEX
  5
3F
  8
1
 10
-2389.776951
 20
-1152.966066
 30
0.0
 70
0
  0
VERTEX
  5
40
  8
1
 10
-2389.16482
 20
-1138.0384
 30
0.0
 70
0
  0
VERTEX
  5
41
  8
1
 10
-2388.54357
 20
-1122.855701
 30
0.0
 70
0
  0
VERTEX
  5
42
  8
1
 10
-2387.924606
 20
-1107.698965
 30
0.0
 70
0
  0
VERTEX
  5
43
  8
1
 10
-2387.304106
 20
-1092.478656
 30
0.0
 70
0
  0
VERTEX
  5
44
  8
1
 10
-2386.687145
 20
-1077.321815
 30
0.0
 70
0
  0
VERTEX
  5
45
  8
1
 10
-2386.071316
 20
-1062.164929
 30
0.0
 70
0
  0
VERTEX
  5
46
  8
1
 10
-2385.462458
 20
-1047.148329
 30
0.0
 70
0
  0
VERTEX
  5
47
  8
1
 10
-2384.847818
 20
-1031.964174
 30
0.0
 70
0
  0
VERTEX
  5
48
  8
1
 10
-2384.26178
 20
-1017.471161
 30
0.0
 70
0
  0
VERTEX
  5
49
  8
1
 10
-2384.219258
 20
-1016.419642
 30
0.0
 70
0
  0
VERTEX
  5
4A
  8
1
 10
-2383.594666
 20
-1000.962372
 30
0.0
 70
0
  0
VERTEX
  5
4B
  8
1
 10
-2363.671265
 20
-999.727936
 30
0.0
 70
0
  0
VERTEX
  5
4C
  8
1
 10
-2363.213196
 20
-999.846954
 30
0.0
 70
0
  0
VERTEX
  5
4D
  8
1
 10
-2348.330715
 20
-1003.713773
 30
0.0
 70
0
  0
VERTEX
  5
4E
  8
1
 10
-2333.280346
 20
-1007.624211
 30
0.0
 70
0
  0
VERTEX
  5
4F
  8
1
 10
-2318.702406
 20
-1011.411894
 30
0.0
 70
0
  0
VERTEX
  5
50
  8
1
 10
-2304.262134
 20
-1015.163794
 30
0.0
 70
0
  0
VERTEX
  5
51
  8
1
 10
-2289.711009
 20
-1018.944477
 30
0.0
 70
0
  0
VERTEX
  5
52
  8
1
 10
-2284.708252
 20
-1020.244293
 30
0.0
 70
0
  0
VERTEX
  5
53
  8
1
 10
-2285.80308
 20
-1027.430617
 30
0.0
 70
0
  0
VERTEX
  5
54
  8
1
 10
-2287.128296
 20
-1036.148834
 30
0.0
 70
0
  0
VERTEX
  5
55
  8
1
 10
-2288.063192
 20
-1042.298887
 30
0.0
 70
0
  0
VERTEX
  5
56
  8
1
 10
-2290.318778
 20
-1057.356691
 30
0.0
 70
0
  0
VERTEX
  5
57
  8
1
 10
-2292.501896
 20
-1072.411365
 30
0.0
 70
0
  0
VERTEX
  5
58
  8
1
 10
-2294.62061
 20
-1087.489145
 30
0.0
 70
0
  0
VERTEX
  5
59
  8
1
 10
-2296.701078
 20
-1102.68778
 30
0.0
 70
0
  0
VERTEX
  5
5A
  8
1
 10
-2298.71199
 20
-1117.780257
 30
0.0
 70
0
  0
VERTEX
  5
5B
  8
1
 10
-2300.684877
 20
-1133.045674
 30
0.0
 70
0
  0
VERTEX
  5
5C
  8
1
 10
-2302.573503
 20
-1148.153949
 30
0.0
 70
0
  0
VERTEX
  5
5D
  8
1
 10
-2304.409202
 20
-1163.374838
 30
0.0
 70
0
  0
VERTEX
  5
5E
  8
1
 10
-2306.160456
 20
-1178.499657
 30
0.0
 70
0
  0
VERTEX
  5
5F
  8
1
 10
-2307.814783
 20
-1193.478116
 30
0.0
 70
0
  0
VERTEX
  5
60
  8
1
 10
-2309.401429
 20
-1208.621161
 30
0.0
 70
0
  0
VERTEX
  5
61
  8
1
 10
-2310.918196
 20
-1223.947149
 30
0.0
 70
0
  0
VERTEX
  5
62
  8
1
 10
-2312.335277
 20
-1239.106912
 30
0.0
 70
0
  0
VERTEX
  5
63
  8
1
 10
-2313.673378
 20
-1254.144666
 30
0.0
 70
0
  0
VERTEX
  5
64
  8
1
 10
-2314.963947
 20
-1269.31579
 30
0.0
 70
0
  0
VERTEX
  5
65
  8
1
 10
-2316.188928
 20
-1284.492268
 30
0.0
 70
0
  0
VERTEX
  5
66
  8
1
 10
-2317.343825
 20
-1299.652949
 30
0.0
 70
0
  0
VERTEX
  5
67
  8
1
 10
-2318.456172
 20
-1314.838132
 30
0.0
 70
0
  0
VERTEX
  5
68
  8
1
 10
-2319.579773
 20
-1330.362854
 30
0.0
 70
0
  0
VERTEX
  5
69
  8
1
 10
-2323.447493
 20
-1330.823131
 30
0.0
 70
0
  0
VERTEX
  5
6A
  8
1
 10
-2338.313637
 20
-1332.592262
 30
0.0
 70
0
  0
VERTEX
  5
6B
  8
1
 10
-2353.817337
 20
-1334.437251
 30
0.0
 70
0
  0
VERTEX
  5
6C
  8
1
 10
-2368.938129
 20
-1336.236653
 30
0.0
 70
0
  0
VERTEX
  5
6D
  8
1
 10
-2377.100067
 20
-1337.207947
 30
0.0
 70
0
  0
SEQEND
  5
30
  8
1
  0
LINE
  5
6E
  8
7
 10
-2361.718445
 20
-1105.006485
 30
0.0
 11
-2315.664368
 21
-1105.550156
 31
0.0
  0
ENDSEC
  0
EOF
