  0
SECTION
  2
HEADER
  9
$ACADVER
  1
AC1009
  9
$DWGCODEPAGE
  3
ANSI_1252
  9
$INSBASE
 10
0.0
 20
0.0
 30
0.0
  9
$EXTMIN
 10
1e+20
 20
1e+20
 30
1e+20
  9
$EXTMAX
 10
-1e+20
 20
-1e+20
 30
-1e+20
  9
$LIMMIN
 10
0.0
 20
0.0
  9
$LIMMAX
 10
420.0
 20
297.0
  9
$ORTHOMODE
 70
0
  9
$REGENMODE
 70
1
  9
$FILLMODE
 70
1
  9
$DRAGMODE
 70
2
  9
$QTEXTMODE
 70
0
  9
$MIRRTEXT
 70
1
  9
$OSMODE
 70
20583
  9
$LTSCALE
 40
1.0
  9
$ATTMODE
 70
1
  9
$TEXTSIZE
 40
2.5
  9
$TRACEWID
 40
1.0
  9
$TEXTSTYLE
  7
Standard
  9
$CLAYER
  8
0
  9
$CELTYPE
  6
ByLayer
  9
$CECOLOR
 62
256
  9
$DIMSCALE
 40
1.0
  9
$DIMASZ
 40
2.5
  9
$DIMEXO
 40
0.625
  9
$DIMDLI
 40
3.75
  9
$DIMRND
 40
0.0
  9
$DIMDLE
 40
0.0
  9
$DIMEXE
 40
1.25
  9
$DIMTP
 40
0.0
  9
$DIMTM
 40
0.0
  9
$DIMTXT
 40
2.5
  9
$DIMCEN
 40
2.5
  9
$DIMTSZ
 40
0.0
  9
$DIMTOL
 70
0
  9
$DIMLIM
 70
0
  9
$DIMTIH
 70
0
  9
$DIMTOH
 70
0
  9
$DIMSE1
 70
0
  9
$DIMSE2
 70
0
  9
$DIMTAD
 70
1
  9
$DIMZIN
 70
8
  9
$DIMBLK
  1

  9
$DIMASO
 70
1
  9
$DIMSHO
 70
1
  9
$DIMPOST
  1

  9
$DIMAPOST
  1

  9
$DIMALT
 70
0
  9
$DIMALTD
 70
3
  9
$DIMALTF
 40
0.03937007874
  9
$DIMLFAC
 40
1.0
  9
$DIMTOFL
 70
1
  9
$DIMTVP
 40
0.0
  9
$DIMTIX
 70
0
  9
$DIMSOXD
 70
0
  9
$DIMSAH
 70
0
  9
$DIMBLK1
  1

  9
$DIMBLK2
  1

  9
$DIMSTYLE
  2
ISO-25
  9
$DIMCLRD
 70
0
  9
$DIMCLRE
 70
0
  9
$DIMCLRT
 70
0
  9
$DIMTFAC
 40
1.0
  9
$DIMGAP
 40
0.625
  9
$COORDS
 70
1
  9
$ATTDIA
 70
0
  9
$ATTREQ
 70
1
  9
$HANDLING
 70
1
  9
$LUNITS
 70
2
  9
$LUPREC
 70
4
  9
$SKETCHINC
 40
1.0
  9
$FILLETRAD
 40
10.0
  9
$AUNITS
 70
0
  9
$AUPREC
 70
2
  9
$MENU
  1
.
  9
$ELEVATION
 40
0.0
  9
$PELEVATION
 40
0.0
  9
$THICKNESS
 40
0.0
  9
$LIMCHECK
 70
0
  9
$CHAMFERA
 40
0.0
  9
$CHAMFERB
 40
0.0
  9
$SKPOLY
 70
0
  9
$TDCREATE
 40
2461264.9423032408
  9
$TDUPDATE
 40
2461264.9423032408
  9
$TDINDWG
 40
0.0
  9
$TDUSRTIMER
 40
0.0
  9
$USRTIMER
 70
1
  9
$ANGBASE
 50
0.0
  9
$ANGDIR
 70
0
  9
$PDMODE
 70
0
  9
$PDSIZE
 40
0.0
  9
$PLINEWID
 40
0.0
  9
$SPLFRAME
 70
0
  9
$SPLINETYPE
 70
6
  9
$SPLINESEGS
 70
8
  9
$HANDSEED
  5
A6
  9
$SURFTAB1
 70
6
  9
$SURFTAB2
 70
6
  9
$SURFTYPE
 70
6
  9
$SURFU
 70
6
  9
$SURFV
 70
6
  9
$UCSNAME
  2

  9
$UCSORG
 10
0.0
 20
0.0
 30
0.0
  9
$UCSXDIR
 10
1.0
 20
0.0
 30
0.0
  9
$UCSYDIR
 10
0.0
 20
1.0
 30
0.0
  9
$PUCSNAME
  2

  9
$PUCSORG
 10
0.0
 20
0.0
 30
0.0
  9
$PUCSXDIR
 10
1.0
 20
0.0
 30
0.0
  9
$PUCSYDIR
 10
0.0
 20
1.0
 30
0.0
  9
$USERI1
 70
0
  9
$USERI2
 70
0
  9
$USERI3
 70
0
  9
$USERI4
 70
0
  9
$USERI5
 70
0
  9
$USERR1
 40
0.0
  9
$USERR2
 40
0.0
  9
$USERR3
 40
0.0
  9
$USERR4
 40
0.0
  9
$USERR5
 40
0.0
  9
$WORLDVIEW
 70
1
  9
$SHADEDGE
 70
3
  9
$SHADEDIF
 70
70
  9
$TILEMODE
 70
1
  9
$MAXACTVP
 70
64
  9
$PLIMCHECK
 70
0
  9
$PEXTMIN
 10
1e+20
 20
1e+20
 30
1e+20
  9
$PEXTMAX
 10
-1e+20
 20
-1e+20
 30
-1e+20
  9
$PLIMMIN
 10
0.0
 20
0.0
  9
$PLIMMAX
 10
420.0
 20
297.0
  9
$UNITMODE
 70
0
  9
$VISRETAIN
 70
1
  9
$PLINEGEN
 70
0
  9
$PSLTSCALE
 70
1
  0
ENDSEC
  0
SECTION
  2
TABLES
  0
TABLE
  2
VPORT
 70
1
  0
VPORT
  5
23
  2
*Active
 70
0
 10
0.0
 20
0.0
 11
1.0
 21
1.0
 12
0.0
 22
0.0
 13
0.0
 23
0.0
 14
0.5
 24
0.5
 15
0.5
 25
0.5
 16
0.0
 26
0.0
 36
1.0
 17
0.0
 27
0.0
 37
0.0
 40
1000.0
 41
1.34
 42
50.0
 43
0.0
 44
0.0
 50
0.0
 51
0.0
 71
0
 72
1000
 73
1
 74
3
 75
0
 76
0
 77
0
 78
0
  0
ENDTAB
  0
TABLE
  2
LTYPE
 70
3
  0
LTYPE
  5
24
  2
ByBlock
 70
0
  3

 72
65
 73
0
 40
0.0
  0
LTYPE
  5
25
  2
ByLayer
 70
0
  3

 72
65
 73
0
 40
0.0
  0
LTYPE
  5
26
  2
Continuous
 70
0
  3

 72
65
 73
0
 40
0.0
  0
ENDTAB
  0
TABLE
  2
LAYER
 70
7
  0
LAYER
  5
27
  2
0
 70
0
 62
7
  6
Continuous
  0
LAYER
  5
28
  2
Defpoints
 70
0
 62
7
  6
Continuous
  0
LAYER
  5
2D
  2
1
 70
0
 62
1
  6
Continuous
  0
LAYER
  5
2E
  2
7
 70
0
 62
7
  6
Continuous
  0
LAYER
  5
2F
  2
14
 70
0
 62
3
  6
Continuous
  0
LAYER
  5
30
  2
8
 70
0
 62
6
  6
Continuous
  0
LAYER
  5
31
  2
4
 70
0
 62
2
  6
Continuous
  0
ENDTAB
  0
TABLE
  2
STYLE
 70
1
  0
STYLE
  5
29
  2
Standard
 70
0
 40
0.0
 41
1.0
 50
0.0
 71
0
 42
2.5
  3
txt
  4

  0
ENDTAB
  0
TABLE
  2
VIEW
 70
0
  0
ENDTAB
  0
TABLE
  2
UCS
 70
0
  0
ENDTAB
  0
TABLE
  2
APPID
 70
3
  0
APPID
  5
2A
  2
ACAD
 70
0
  0
APPID
  5
A4
  2
HATCHBACKGROUNDCOLOR
 70
0
  0
APPID
  5
A5
  2
EZDXF
 70
0
  0
ENDTAB
  0
TABLE
  2
DIMSTYLE
 70
1
  0
DIMSTYLE
105
2B
  2
Standard
 70
0
  3

  4

  5

  6

  7

 40
1.0
 41
2.5
 42
0.625
 43
3.75
 44
1.25
 45
0.0
 46
0.0
 47
0.0
 48
0.0
140
2.5
141
2.5
142
0.0
143
0.03937007874
144
1.0
145
0.0
146
1.0
147
0.625
 71
0
 72
0
 73
0
 74
0
 75
0
 76
0
 77
1
 78
8
170
0
171
3
172
1
173
0
174
0
175
0
176
0
177
0
178
0
  0
ENDTAB
  0
ENDSEC
  0
SECTION
  2
BLOCKS
  0
BLOCK
  5
18
  8
0
  2
$Model_Space
 70
0
 10
0.0
 20
0.0
 30
0.0
  3
$Model_Space
  1

1001
EZDXF
1000
CREATED_BY_EZDXF
1000
1.4.4 @ 2026-08-11T14:36:55.336575+00:00
1000
WRITTEN_BY_EZDXF
1000
1.4.4 @ 2026-08-11T14:36:55.337575+00:00
  0
ENDBLK
  5
19
  8
0
  0
BLOCK
  5
1C
  8
0
  2
$Paper_Space
 70
0
 10
0.0
 20
0.0
 30
0.0
  3
$Paper_Space
  1

  0
ENDBLK
  5
1D
  8
0
  0
ENDSEC
  0
SECTION
  2
ENTITIES
  0
POLYLINE
  5
32
  8
1
 66
1
 10
0.0
 20
0.0
 30
0.0
 70
1
  0
VERTEX
  5
34
  8
1
 10
-2384.77951
 20
-1320.875854
 30
0.0
 70
0
  0
VERTEX
  5
35
  8
1
 10
-2397.275696
 20
-1319.839478
 30
0.0
 70
0
  0
VERTEX
  5
36
  8
1
 10
-2396.819724
 20
-1309.840736
 30
0.0
 70
0
  0
VERTEX
  5
37
  8
1
 10
-2396.133753
 20
-1294.79309
 30
0.0
 70
0
  0
VERTEX
  5
38
  8
1
 10
-2395.430139
 20
-1279.34711
 30
0.0
 70
0
  0
VERTEX
  5
39
  8
1
 10
-2394.727542
 20
-1263.901093
 30
0.0
 70
0
  0
VERTEX
  5
3A
  8
1
 10
-2394.034745
 20
-1248.639469
 30
0.0
 70
0
  0
VERTEX
  5
3B
  8
1
 10
-2393.334944
 20
-1233.19332
 30
0.0
 70
0
  0
VERTEX
  5
3C
  8
1
 10
-2392.644414
 20
-1217.924389
 30
0.0
 70
0
  0
VERTEX
  5
3D
  8
1
 10
-2391.947258
 20
-1202.478113
 30
0.0
 70
0
  0
VERTEX
  5
3E
  8
1
 10
-2391.255746
 20
-1187.121814
 30
0.0
 70
0
  0
VERTEX
  5
3F
  8
1
 10
-2390.561922
 20
-1171.675396
 30
0.0
 70
0
  0
VERTEX
  5
40
  8
1
 10
-2389.888372
 20
-1156.640886
 30
0.0
 70
0
  0
VERTEX
  5
41
  8
1
 10
-2389.198075
 20
-1141.194323
 30
0.0
 70
0
  0
VERTEX
  5
42
  8
1
 10
-2388.52974
 20
-1126.20576
 30
0.0
 70
0
  0
VERTEX
  5
43
  8
1
 10
-2387.842292
 20
-1110.759048
 30
0.0
 70
0
  0
VERTEX
  5
44
  8
1
 10
-2387.163342
 20
-1095.477382
 30
0.0
 70
0
  0
VERTEX
  5
45
  8
1
 10
-2386.455571
 20
-1079.515675
 30
0.0
 70
0
  0
VERTEX
  5
46
  8
1
 10
-2385.794756
 20
-1064.580781
 30
0.0
 70
0
  0
VERTEX
  5
47
  8
1
 10
-2385.112427
 20
-1049.13385
 30
0.0
 70
0
  0
VERTEX
  5
48
  8
1
 10
-2384.477386
 20
-1034.741058
 30
0.0
 70
0
  0
VERTEX
  5
49
  8
1
 10
-2384.436754
 20
-1033.821054
 30
0.0
 70
0
  0
VERTEX
  5
4A
  8
1
 10
-2383.750305
 20
-1018.252945
 30
0.0
 70
0
  0
VERTEX
  5
4B
  8
1
 10
-2363.803406
 20
-1017.018356
 30
0.0
 70
0
  0
VERTEX
  5
4C
  8
1
 10
-2363.361359
 20
-1017.133179
 30
0.0
 70
0
  0
VERTEX
  5
4D
  8
1
 10
-2348.728308
 20
-1020.935189
 30
0.0
 70
0
  0
VERTEX
  5
4E
  8
1
 10
-2334.288291
 20
-1024.687021
 30
0.0
 70
0
  0
VERTEX
  5
4F
  8
1
 10
-2319.118051
 20
-1028.628592
 30
0.0
 70
0
  0
VERTEX
  5
50
  8
1
 10
-2304.525906
 20
-1032.41996
 30
0.0
 70
0
  0
VERTEX
  5
51
  8
1
 10
-2289.966247
 20
-1036.20288
 30
0.0
 70
0
  0
VERTEX
  5
52
  8
1
 10
-2284.71344
 20
-1037.567673
 30
0.0
 70
0
  0
VERTEX
  5
53
  8
1
 10
-2284.960303
 20
-1039.045785
 30
0.0
 70
0
  0
VERTEX
  5
54
  8
1
 10
-2287.353668
 20
-1053.414993
 30
0.0
 70
0
  0
VERTEX
  5
55
  8
1
 10
-2287.400871
 20
-1053.698288
 30
0.0
 70
0
  0
VERTEX
  5
56
  8
1
 10
-2289.907701
 20
-1068.924617
 30
0.0
 70
0
  0
VERTEX
  5
57
  8
1
 10
-2292.305141
 20
-1083.935343
 30
0.0
 70
0
  0
VERTEX
  5
58
  8
1
 10
-2294.661135
 20
-1099.185764
 30
0.0
 70
0
  0
VERTEX
  5
59
  8
1
 10
-2296.909604
 20
-1114.151263
 30
0.0
 70
0
  0
VERTEX
  5
5A
  8
1
 10
-2299.139755
 20
-1129.420543
 30
0.0
 70
0
  0
VERTEX
  5
5B
  8
1
 10
-2301.288407
 20
-1144.613193
 30
0.0
 70
0
  0
VERTEX
  5
5C
  8
1
 10
-2303.374439
 20
-1159.902892
 30
0.0
 70
0
  0
VERTEX
  5
5D
  8
1
 10
-2305.351594
 20
-1174.98093
 30
0.0
 70
0
  0
VERTEX
  5
5E
  8
1
 10
-2307.269971
 20
-1190.292664
 30
0.0
 70
0
  0
VERTEX
  5
5F
  8
1
 10
-2309.083389
 20
-1205.575419
 30
0.0
 70
0
  0
VERTEX
  5
60
  8
1
 10
-2310.797824
 20
-1220.911194
 30
0.0
 70
0
  0
VERTEX
  5
61
  8
1
 10
-2312.423865
 20
-1236.256705
 30
0.0
 70
0
  0
VERTEX
  5
62
  8
1
 10
-2313.943855
 20
-1251.281399
 30
0.0
 70
0
  0
VERTEX
  5
63
  8
1
 10
-2315.421537
 20
-1266.641772
 30
0.0
 70
0
  0
VERTEX
  5
64
  8
1
 10
-2316.818128
 20
-1282.005235
 30
0.0
 70
0
  0
VERTEX
  5
65
  8
1
 10
-2318.160389
 20
-1297.378083
 30
0.0
 70
0
  0
VERTEX
  5
66
  8
1
 10
-2319.517822
 20
-1313.109436
 30
0.0
 70
0
  0
VERTEX
  5
67
  8
1
 10
-2323.346
 20
-1313.565006
 30
0.0
 70
0
  0
VERTEX
  5
68
  8
1
 10
-2338.17429
 20
-1315.329639
 30
0.0
 70
0
  0
VERTEX
  5
69
  8
1
 10
-2353.65557
 20
-1317.171978
 30
0.0
 70
0
  0
VERTEX
  5
6A
  8
1
 10
-2368.830882
 20
-1318.977903
 30
0.0
 70
0
  0
VERTEX
  5
6B
  8
1
 10
-2376.939545
 20
-1319.94278
 30
0.0
 70
0
  0
SEQEND
  5
33
  8
1
  0
POLYLINE
  5
6C
  8
14
 66
1
 10
0.0
 20
0.0
 30
0.0
 70
1
  0
VERTEX
  5
6E
  8
14
 10
-2376.352844
 20
-1307.08374
 30
0.0
 70
0
  0
VERTEX
  5
6F
  8
14
 10
-2375.71328
 20
-1293.064343
 30
0.0
 70
0
  0
VERTEX
  5
70
  8
14
 10
-2375.046265
 20
-1278.414544
 30
0.0
 70
0
  0
VERTEX
  5
71
  8
14
 10
-2374.315074
 20
-1262.327535
 30
0.0
 70
0
  0
VERTEX
  5
72
  8
14
 10
-2373.600488
 20
-1246.57842
 30
0.0
 70
0
  0
VERTEX
  5
73
  8
14
 10
-2372.822984
 20
-1229.410497
 30
0.0
 70
0
  0
VERTEX
  5
74
  8
14
 10
-2372.139421
 20
-1214.287071
 30
0.0
 70
0
  0
VERTEX
  5
75
  8
14
 10
-2371.434087
 20
-1198.649555
 30
0.0
 70
0
  0
VERTEX
  5
76
  8
14
 10
-2370.716943
 20
-1182.712085
 30
0.0
 70
0
  0
VERTEX
  5
77
  8
14
 10
-2370.023479
 20
-1167.259023
 30
0.0
 70
0
  0
VERTEX
  5
78
  8
14
 10
-2369.310794
 20
-1151.334891
 30
0.0
 70
0
  0
VERTEX
  5
79
  8
14
 10
-2368.612353
 20
-1135.691518
 30
0.0
 70
0
  0
VERTEX
  5
7A
  8
14
 10
-2367.803925
 20
-1117.542922
 30
0.0
 70
0
  0
VERTEX
  5
7B
  8
14
 10
-2367.040526
 20
-1100.367469
 30
0.0
 70
0
  0
VERTEX
  5
7C
  8
14
 10
-2366.335529
 20
-1084.47543
 30
0.0
 70
0
  0
VERTEX
  5
7D
  8
14
 10
-2365.604684
 20
-1067.970733
 30
0.0
 70
0
  0
VERTEX
  5
7E
  8
14
 10
-2364.842747
 20
-1050.73068
 30
0.0
 70
0
  0
VERTEX
  5
7F
  8
14
 10
-2364.082031
 20
-1033.479233
 30
0.0
 70
0
  0
VERTEX
  5
80
  8
14
 10
-2364.08371
 20
-1033.478851
 30
0.0
 70
0
  0
VERTEX
  5
81
  8
14
 10
-2364.082031
 20
-1033.479233
 30
0.0
 70
0
  0
VERTEX
  5
82
  8
14
 10
-2347.835753
 20
-1037.700431
 30
0.0
 70
0
  0
VERTEX
  5
83
  8
14
 10
-2331.889422
 20
-1041.843643
 30
0.0
 70
0
  0
VERTEX
  5
84
  8
14
 10
-2317.289594
 20
-1045.637002
 30
0.0
 70
0
  0
VERTEX
  5
85
  8
14
 10
-2303.156939
 20
-1049.30898
 30
0.0
 70
0
  0
VERTEX
  5
86
  8
14
 10
-2299.695129
 20
-1050.208435
 30
0.0
 70
0
  0
VERTEX
  5
87
  8
14
 10
-2299.695129
 20
-1050.208435
 30
0.0
 70
0
  0
VERTEX
  5
88
  8
14
 10
-2300.584004
 20
-1055.510184
 30
0.0
 70
0
  0
VERTEX
  5
89
  8
14
 10
-2302.955113
 20
-1070.047373
 30
0.0
 70
0
  0
VERTEX
  5
8A
  8
14
 10
-2305.476538
 20
-1085.993589
 30
0.0
 70
0
  0
VERTEX
  5
8B
  8
14
 10
-2307.762504
 20
-1100.873045
 30
0.0
 70
0
  0
VERTEX
  5
8C
  8
14
 10
-2310.24971
 20
-1117.551892
 30
0.0
 70
0
  0
VERTEX
  5
8D
  8
14
 10
-2312.48432
 20
-1133.025624
 30
0.0
 70
0
  0
VERTEX
  5
8E
  8
14
 10
-2314.763366
 20
-1149.363097
 30
0.0
 70
0
  0
VERTEX
  5
8F
  8
14
 10
-2317.039121
 20
-1166.352826
 30
0.0
 70
0
  0
VERTEX
  5
90
  8
14
 10
-2319.263853
 20
-1183.783271
 30
0.0
 70
0
  0
VERTEX
  5
91
  8
14
 10
-2321.389833
 20
-1201.442943
 30
0.0
 70
0
  0
VERTEX
  5
92
  8
14
 10
-2323.332024
 20
-1218.69228
 30
0.0
 70
0
  0
VERTEX
  5
93
  8
14
 10
-2325.150347
 20
-1235.858815
 30
0.0
 70
0
  0
VERTEX
  5
94
  8
14
 10
-2326.77712
 20
-1252.060337
 30
0.0
 70
0
  0
VERTEX
  5
95
  8
14
 10
-2328.402531
 20
-1269.079718
 30
0.0
 70
0
  0
VERTEX
  5
96
  8
14
 10
-2329.856517
 20
-1285.082203
 30
0.0
 70
0
  0
VERTEX
  5
97
  8
14
 10
-2331.282349
 20
-1301.719818
 30
0.0
 70
0
  0
VERTEX
  5
98
  8
14
 10
-2344.563191
 20
-1303.300295
 30
0.0
 70
0
  0
VERTEX
  5
99
  8
14
 10
-2360.08565
 20
-1305.147534
 30
0.0
 70
0
  0
VERTEX
  5
9A
  8
14
 10
-2376.352844
 20
-1307.083435
 30
0.0
 70
0
  0
SEQEND
  5
6D
  8
14
  0
POINT
  5
9B
  8
4
 10
-2384.477386
 20
-1034.741058
 30
0.0
  0
POINT
  5
9C
  8
4
 10
-2363.361359
 20
-1017.133179
 30
0.0
  0
POINT
  5
9D
  8
4
 10
-2287.353668
 20
-1053.414993
 30
0.0
  0
POINT
  5
9E
  8
4
 10
-2376.939545
 20
-1319.94278
 30
0.0
  0
POINT
  5
9F
  8
4
 10
-2364.082031
 20
-1033.479233
 30
0.0
  0
POINT
  5
A0
  8
4
 10
-2364.082031
 20
-1033.479233
 30
0.0
  0
POINT
  5
A1
  8
4
 10
-2299.695129
 20
-1050.208435
 30
0.0
  0
POINT
  5
A2
  8
4
 10
-2376.352844
 20
-1307.083435
 30
0.0
  0
LINE
  5
A3
  8
7
 10
-2361.36673
 20
-1105.010681
 30
0.0
 11
-2314.34967
 21
-1105.565643
 31
0.0
  0
ENDSEC
  0
EOF
