  0
SECTION
  2
HEADER
  9
$ACADVER
  1
AC1009
  9
$DWGCODEPAGE
  3
ANSI_1252
  9
$INSBASE
 10
0.0
 20
0.0
 30
0.0
  9
$EXTMIN
 10
1e+20
 20
1e+20
 30
1e+20
  9
$EXTMAX
 10
-1e+20
 20
-1e+20
 30
-1e+20
  9
$LIMMIN
 10
0.0
 20
0.0
  9
$LIMMAX
 10
420.0
 20
297.0
  9
$ORTHOMODE
 70
0
  9
$REGENMODE
 70
1
  9
$FILLMODE
 70
1
  9
$DRAGMODE
 70
2
  9
$QTEXTMODE
 70
0
  9
$MIRRTEXT
 70
1
  9
$OSMODE
 70
20583
  9
$LTSCALE
 40
1.0
  9
$ATTMODE
 70
1
  9
$TEXTSIZE
 40
2.5
  9
$TRACEWID
 40
1.0
  9
$TEXTSTYLE
  7
Standard
  9
$CLAYER
  8
0
  9
$CELTYPE
  6
ByLayer
  9
$CECOLOR
 62
256
  9
$DIMSCALE
 40
1.0
  9
$DIMASZ
 40
2.5
  9
$DIMEXO
 40
0.625
  9
$DIMDLI
 40
3.75
  9
$DIMRND
 40
0.0
  9
$DIMDLE
 40
0.0
  9
$DIMEXE
 40
1.25
  9
$DIMTP
 40
0.0
  9
$DIMTM
 40
0.0
  9
$DIMTXT
 40
2.5
  9
$DIMCEN
 40
2.5
  9
$DIMTSZ
 40
0.0
  9
$DIMTOL
 70
0
  9
$DIMLIM
 70
0
  9
$DIMTIH
 70
0
  9
$DIMTOH
 70
0
  9
$DIMSE1
 70
0
  9
$DIMSE2
 70
0
  9
$DIMTAD
 70
1
  9
$DIMZIN
 70
8
  9
$DIMBLK
  1

  9
$DIMASO
 70
1
  9
$DIMSHO
 70
1
  9
$DIMPOST
  1

  9
$DIMAPOST
  1

  9
$DIMALT
 70
0
  9
$DIMALTD
 70
3
  9
$DIMALTF
 40
0.03937007874
  9
$DIMLFAC
 40
1.0
  9
$DIMTOFL
 70
1
  9
$DIMTVP
 40
0.0
  9
$DIMTIX
 70
0
  9
$DIMSOXD
 70
0
  9
$DIMSAH
 70
0
  9
$DIMBLK1
  1

  9
$DIMBLK2
  1

  9
$DIMSTYLE
  2
ISO-25
  9
$DIMCLRD
 70
0
  9
$DIMCLRE
 70
0
  9
$DIMCLRT
 70
0
  9
$DIMTFAC
 40
1.0
  9
$DIMGAP
 40
0.625
  9
$COORDS
 70
1
  9
$ATTDIA
 70
0
  9
$ATTREQ
 70
1
  9
$HANDLING
 70
1
  9
$LUNITS
 70
2
  9
$LUPREC
 70
4
  9
$SKETCHINC
 40
1.0
  9
$FILLETRAD
 40
10.0
  9
$AUNITS
 70
0
  9
$AUPREC
 70
2
  9
$MENU
  1
.
  9
$ELEVATION
 40
0.0
  9
$PELEVATION
 40
0.0
  9
$THICKNESS
 40
0.0
  9
$LIMCHECK
 70
0
  9
$CHAMFERA
 40
0.0
  9
$CHAMFERB
 40
0.0
  9
$SKPOLY
 70
0
  9
$TDCREATE
 40
2461264.9423032408
  9
$TDUPDATE
 40
2461264.9423032408
  9
$TDINDWG
 40
0.0
  9
$TDUSRTIMER
 40
0.0
  9
$USRTIMER
 70
1
  9
$ANGBASE
 50
0.0
  9
$ANGDIR
 70
0
  9
$PDMODE
 70
0
  9
$PDSIZE
 40
0.0
  9
$PLINEWID
 40
0.0
  9
$SPLFRAME
 70
0
  9
$SPLINETYPE
 70
6
  9
$SPLINESEGS
 70
8
  9
$HANDSEED
  5
A1
  9
$SURFTAB1
 70
6
  9
$SURFTAB2
 70
6
  9
$SURFTYPE
 70
6
  9
$SURFU
 70
6
  9
$SURFV
 70
6
  9
$UCSNAME
  2

  9
$UCSORG
 10
0.0
 20
0.0
 30
0.0
  9
$UCSXDIR
 10
1.0
 20
0.0
 30
0.0
  9
$UCSYDIR
 10
0.0
 20
1.0
 30
0.0
  9
$PUCSNAME
  2

  9
$PUCSORG
 10
0.0
 20
0.0
 30
0.0
  9
$PUCSXDIR
 10
1.0
 20
0.0
 30
0.0
  9
$PUCSYDIR
 10
0.0
 20
1.0
 30
0.0
  9
$USERI1
 70
0
  9
$USERI2
 70
0
  9
$USERI3
 70
0
  9
$USERI4
 70
0
  9
$USERI5
 70
0
  9
$USERR1
 40
0.0
  9
$USERR2
 40
0.0
  9
$USERR3
 40
0.0
  9
$USERR4
 40
0.0
  9
$USERR5
 40
0.0
  9
$WORLDVIEW
 70
1
  9
$SHADEDGE
 70
3
  9
$SHADEDIF
 70
70
  9
$TILEMODE
 70
1
  9
$MAXACTVP
 70
64
  9
$PLIMCHECK
 70
0
  9
$PEXTMIN
 10
1e+20
 20
1e+20
 30
1e+20
  9
$PEXTMAX
 10
-1e+20
 20
-1e+20
 30
-1e+20
  9
$PLIMMIN
 10
0.0
 20
0.0
  9
$PLIMMAX
 10
420.0
 20
297.0
  9
$UNITMODE
 70
0
  9
$VISRETAIN
 70
1
  9
$PLINEGEN
 70
0
  9
$PSLTSCALE
 70
1
  0
ENDSEC
  0
SECTION
  2
TABLES
  0
TABLE
  2
VPORT
 70
1
  0
VPORT
  5
23
  2
*Active
 70
0
 10
0.0
 20
0.0
 11
1.0
 21
1.0
 12
0.0
 22
0.0
 13
0.0
 23
0.0
 14
0.5
 24
0.5
 15
0.5
 25
0.5
 16
0.0
 26
0.0
 36
1.0
 17
0.0
 27
0.0
 37
0.0
 40
1000.0
 41
1.34
 42
50.0
 43
0.0
 44
0.0
 50
0.0
 51
0.0
 71
0
 72
1000
 73
1
 74
3
 75
0
 76
0
 77
0
 78
0
  0
ENDTAB
  0
TABLE
  2
LTYPE
 70
3
  0
LTYPE
  5
24
  2
ByBlock
 70
0
  3

 72
65
 73
0
 40
0.0
  0
LTYPE
  5
25
  2
ByLayer
 70
0
  3

 72
65
 73
0
 40
0.0
  0
LTYPE
  5
26
  2
Continuous
 70
0
  3

 72
65
 73
0
 40
0.0
  0
ENDTAB
  0
TABLE
  2
LAYER
 70
7
  0
LAYER
  5
27
  2
0
 70
0
 62
7
  6
Continuous
  0
LAYER
  5
28
  2
Defpoints
 70
0
 62
7
  6
Continuous
  0
LAYER
  5
2D
  2
1
 70
0
 62
1
  6
Continuous
  0
LAYER
  5
2E
  2
7
 70
0
 62
7
  6
Continuous
  0
LAYER
  5
2F
  2
14
 70
0
 62
3
  6
Continuous
  0
LAYER
  5
30
  2
8
 70
0
 62
6
  6
Continuous
  0
LAYER
  5
31
  2
4
 70
0
 62
2
  6
Continuous
  0
ENDTAB
  0
TABLE
  2
STYLE
 70
1
  0
STYLE
  5
29
  2
Standard
 70
0
 40
0.0
 41
1.0
 50
0.0
 71
0
 42
2.5
  3
txt
  4

  0
ENDTAB
  0
TABLE
  2
VIEW
 70
0
  0
ENDTAB
  0
TABLE
  2
UCS
 70
0
  0
ENDTAB
  0
TABLE
  2
APPID
 70
3
  0
APPID
  5
2A
  2
ACAD
 70
0
  0
APPID
  5
9F
  2
HATCHBACKGROUNDCOLOR
 70
0
  0
APPID
  5
A0
  2
EZDXF
 70
0
  0
ENDTAB
  0
TABLE
  2
DIMSTYLE
 70
1
  0
DIMSTYLE
105
2B
  2
Standard
 70
0
  3

  4

  5

  6

  7

 40
1.0
 41
2.5
 42
0.625
 43
3.75
 44
1.25
 45
0.0
 46
0.0
 47
0.0
 48
0.0
140
2.5
141
2.5
142
0.0
143
0.03937007874
144
1.0
145
0.0
146
1.0
147
0.625
 71
0
 72
0
 73
0
 74
0
 75
0
 76
0
 77
1
 78
8
170
0
171
3
172
1
173
0
174
0
175
0
176
0
177
0
178
0
  0
ENDTAB
  0
ENDSEC
  0
SECTION
  2
BLOCKS
  0
BLOCK
  5
18
  8
0
  2
$Model_Space
 70
0
 10
0.0
 20
0.0
 30
0.0
  3
$Model_Space
  1

1001
EZDXF
1000
CREATED_BY_EZDXF
1000
1.4.4 @ 2026-08-11T14:36:55.070177+00:00
1000
WRITTEN_BY_EZDXF
1000
1.4.4 @ 2026-08-11T14:36:55.071176+00:00
  0
ENDBLK
  5
19
  8
0
  0
BLOCK
  5
1C
  8
0
  2
$Paper_Space
 70
0
 10
0.0
 20
0.0
 30
0.0
  3
$Paper_Space
  1

  0
ENDBLK
  5
1D
  8
0
  0
ENDSEC
  0
SECTION
  2
ENTITIES
  0
POLYLINE
  5
32
  8
1
 66
1
 10
0.0
 20
0.0
 30
0.0
 70
1
  0
VERTEX
  5
34
  8
1
 10
-2384.700317
 20
-1310.518799
 30
0.0
 70
0
  0
VERTEX
  5
35
  8
1
 10
-2397.188568
 20
-1309.482574
 30
0.0
 70
0
  0
VERTEX
  5
36
  8
1
 10
-2396.93101
 20
-1304.156775
 30
0.0
 70
0
  0
VERTEX
  5
37
  8
1
 10
-2396.215837
 20
-1289.355737
 30
0.0
 70
0
  0
VERTEX
  5
38
  8
1
 10
-2395.450417
 20
-1273.493205
 30
0.0
 70
0
  0
VERTEX
  5
39
  8
1
 10
-2394.73835
 20
-1258.709372
 30
0.0
 70
0
  0
VERTEX
  5
3A
  8
1
 10
-2393.97784
 20
-1242.890977
 30
0.0
 70
0
  0
VERTEX
  5
3B
  8
1
 10
-2393.261433
 20
-1227.964589
 30
0.0
 70
0
  0
VERTEX
  5
3C
  8
1
 10
-2392.503594
 20
-1212.146068
 30
0.0
 70
0
  0
VERTEX
  5
3D
  8
1
 10
-2391.799055
 20
-1197.410093
 30
0.0
 70
0
  0
VERTEX
  5
3E
  8
1
 10
-2391.07053
 20
-1182.136896
 30
0.0
 70
0
  0
VERTEX
  5
3F
  8
1
 10
-2390.345433
 20
-1166.895172
 30
0.0
 70
0
  0
VERTEX
  5
40
  8
1
 10
-2389.620748
 20
-1151.621793
 30
0.0
 70
0
  0
VERTEX
  5
41
  8
1
 10
-2388.905221
 20
-1136.504032
 30
0.0
 70
0
  0
VERTEX
  5
42
  8
1
 10
-2388.158073
 20
-1120.685016
 30
0.0
 70
0
  0
VERTEX
  5
43
  8
1
 10
-2387.455525
 20
-1105.784625
 30
0.0
 70
0
  0
VERTEX
  5
44
  8
1
 10
-2386.711122
 20
-1089.96545
 30
0.0
 70
0
  0
VERTEX
  5
45
  8
1
 10
-2386.014874
 20
-1075.137159
 30
0.0
 70
0
  0
VERTEX
  5
46
  8
1
 10
-2385.273394
 20
-1059.317865
 30
0.0
 70
0
  0
VERTEX
  5
47
  8
1
 10
-2384.607849
 20
-1045.101547
 30
0.0
 70
0
  0
VERTEX
  5
48
  8
1
 10
-2384.57569
 20
-1044.415372
 30
0.0
 70
0
  0
VERTEX
  5
49
  8
1
 10
-2383.837128
 20
-1028.628235
 30
0.0
 70
0
  0
VERTEX
  5
4A
  8
1
 10
-2363.873749
 20
-1027.394867
 30
0.0
 70
0
  0
VERTEX
  5
4B
  8
1
 10
-2363.442535
 20
-1027.506943
 30
0.0
 70
0
  0
VERTEX
  5
4C
  8
1
 10
-2348.768491
 20
-1031.319548
 30
0.0
 70
0
  0
VERTEX
  5
4D
  8
1
 10
-2334.376581
 20
-1035.05889
 30
0.0
 70
0
  0
VERTEX
  5
4E
  8
1
 10
-2319.192571
 20
-1039.004041
 30
0.0
 70
0
  0
VERTEX
  5
4F
  8
1
 10
-2304.617881
 20
-1042.790879
 30
0.0
 70
0
  0
VERTEX
  5
50
  8
1
 10
-2290.034236
 20
-1046.580041
 30
0.0
 70
0
  0
VERTEX
  5
51
  8
1
 10
-2284.72229
 20
-1047.960205
 30
0.0
 70
0
  0
VERTEX
  5
52
  8
1
 10
-2286.673014
 20
-1059.118073
 30
0.0
 70
0
  0
VERTEX
  5
53
  8
1
 10
-2287.486267
 20
-1063.775406
 30
0.0
 70
0
  0
VERTEX
  5
54
  8
1
 10
-2289.315017
 20
-1074.247988
 30
0.0
 70
0
  0
VERTEX
  5
55
  8
1
 10
-2291.890997
 20
-1089.234698
 30
0.0
 70
0
  0
VERTEX
  5
56
  8
1
 10
-2294.426849
 20
-1104.48776
 30
0.0
 70
0
  0
VERTEX
  5
57
  8
1
 10
-2296.878262
 20
-1119.75477
 30
0.0
 70
0
  0
VERTEX
  5
58
  8
1
 10
-2299.23895
 20
-1134.933753
 30
0.0
 70
0
  0
VERTEX
  5
59
  8
1
 10
-2301.544761
 20
-1150.223299
 30
0.0
 70
0
  0
VERTEX
  5
5A
  8
1
 10
-2303.747605
 20
-1165.356216
 30
0.0
 70
0
  0
VERTEX
  5
5B
  8
1
 10
-2305.884841
 20
-1180.670335
 30
0.0
 70
0
  0
VERTEX
  5
5C
  8
1
 10
-2307.859473
 20
-1195.550435
 30
0.0
 70
0
  0
VERTEX
  5
5D
  8
1
 10
-2309.781517
 20
-1210.892933
 30
0.0
 70
0
  0
VERTEX
  5
5E
  8
1
 10
-2311.602579
 20
-1226.247838
 30
0.0
 70
0
  0
VERTEX
  5
5F
  8
1
 10
-2313.296689
 20
-1241.242671
 30
0.0
 70
0
  0
VERTEX
  5
60
  8
1
 10
-2314.946418
 20
-1256.61681
 30
0.0
 70
0
  0
VERTEX
  5
61
  8
1
 10
-2316.467518
 20
-1271.586924
 30
0.0
 70
0
  0
VERTEX
  5
62
  8
1
 10
-2317.974119
 20
-1286.975791
 30
0.0
 70
0
  0
VERTEX
  5
63
  8
1
 10
-2319.501801
 20
-1302.759857
 30
0.0
 70
0
  0
VERTEX
  5
64
  8
1
 10
-2323.299761
 20
-1303.21184
 30
0.0
 70
0
  0
VERTEX
  5
65
  8
1
 10
-2338.09974
 20
-1304.973129
 30
0.0
 70
0
  0
VERTEX
  5
66
  8
1
 10
-2353.564669
 20
-1306.813538
 30
0.0
 70
0
  0
VERTEX
  5
67
  8
1
 10
-2368.782802
 20
-1308.624561
 30
0.0
 70
0
  0
VERTEX
  5
68
  8
1
 10
-2376.850128
 20
-1309.584656
 30
0.0
 70
0
  0
SEQEND
  5
33
  8
1
  0
POLYLINE
  5
69
  8
14
 66
1
 10
0.0
 20
0.0
 30
0.0
 70
1
  0
VERTEX
  5
6B
  8
14
 10
-2376.228333
 20
-1296.721344
 30
0.0
 70
0
  0
VERTEX
  5
6C
  8
14
 10
-2375.999143
 20
-1291.980833
 30
0.0
 70
0
  0
VERTEX
  5
6D
  8
14
 10
-2375.300184
 20
-1277.500377
 30
0.0
 70
0
  0
VERTEX
  5
6E
  8
14
 10
-2374.55502
 20
-1262.034387
 30
0.0
 70
0
  0
VERTEX
  5
6F
  8
14
 10
-2373.774862
 20
-1245.813296
 30
0.0
 70
0
  0
VERTEX
  5
70
  8
14
 10
-2373.032241
 20
-1230.344773
 30
0.0
 70
0
  0
VERTEX
  5
71
  8
14
 10
-2372.239162
 20
-1213.79294
 30
0.0
 70
0
  0
VERTEX
  5
72
  8
14
 10
-2371.41246
 20
-1196.499872
 30
0.0
 70
0
  0
VERTEX
  5
73
  8
14
 10
-2370.568965
 20
-1178.807588
 30
0.0
 70
0
  0
VERTEX
  5
74
  8
14
 10
-2369.750131
 20
-1161.579104
 30
0.0
 70
0
  0
VERTEX
  5
75
  8
14
 10
-2368.91951
 20
-1144.051897
 30
0.0
 70
0
  0
VERTEX
  5
76
  8
14
 10
-2368.115421
 20
-1127.041778
 30
0.0
 70
0
  0
VERTEX
  5
77
  8
14
 10
-2367.350994
 20
-1110.835505
 30
0.0
 70
0
  0
VERTEX
  5
78
  8
14
 10
-2366.526808
 20
-1093.326736
 30
0.0
 70
0
  0
VERTEX
  5
79
  8
14
 10
-2365.795331
 20
-1077.757796
 30
0.0
 70
0
  0
VERTEX
  5
7A
  8
14
 10
-2365.024639
 20
-1061.323801
 30
0.0
 70
0
  0
VERTEX
  5
7B
  8
14
 10
-2364.206696
 20
-1043.841705
 30
0.0
 70
0
  0
VERTEX
  5
7C
  8
14
 10
-2364.208221
 20
-1043.841248
 30
0.0
 70
0
  0
VERTEX
  5
7D
  8
14
 10
-2364.206696
 20
-1043.841705
 30
0.0
 70
0
  0
VERTEX
  5
7E
  8
14
 10
-2347.960265
 20
-1048.062828
 30
0.0
 70
0
  0
VERTEX
  5
7F
  8
14
 10
-2332.013933
 20
-1052.206039
 30
0.0
 70
0
  0
VERTEX
  5
80
  8
14
 10
-2317.414105
 20
-1055.999399
 30
0.0
 70
0
  0
VERTEX
  5
81
  8
14
 10
-2303.28145
 20
-1059.671376
 30
0.0
 70
0
  0
VERTEX
  5
82
  8
14
 10
-2299.819641
 20
-1060.570831
 30
0.0
 70
0
  0
VERTEX
  5
83
  8
14
 10
-2299.819641
 20
-1060.570831
 30
0.0
 70
0
  0
VERTEX
  5
84
  8
14
 10
-2301.683391
 20
-1071.138799
 30
0.0
 70
0
  0
VERTEX
  5
85
  8
14
 10
-2304.301042
 20
-1086.455661
 30
0.0
 70
0
  0
VERTEX
  5
86
  8
14
 10
-2306.710648
 20
-1100.97507
 30
0.0
 70
0
  0
VERTEX
  5
87
  8
14
 10
-2309.07202
 20
-1115.605943
 30
0.0
 70
0
  0
VERTEX
  5
88
  8
14
 10
-2311.593299
 20
-1131.712216
 30
0.0
 70
0
  0
VERTEX
  5
89
  8
14
 10
-2313.826538
 20
-1146.458524
 30
0.0
 70
0
  0
VERTEX
  5
8A
  8
14
 10
-2316.078029
 20
-1161.868752
 30
0.0
 70
0
  0
VERTEX
  5
8B
  8
14
 10
-2318.301966
 20
-1177.748983
 30
0.0
 70
0
  0
VERTEX
  5
8C
  8
14
 10
-2320.452552
 20
-1193.905362
 30
0.0
 70
0
  0
VERTEX
  5
8D
  8
14
 10
-2322.442258
 20
-1209.779228
 30
0.0
 70
0
  0
VERTEX
  5
8E
  8
14
 10
-2324.326964
 20
-1225.727886
 30
0.0
 70
0
  0
VERTEX
  5
8F
  8
14
 10
-2326.035294
 20
-1240.94377
 30
0.0
 70
0
  0
VERTEX
  5
90
  8
14
 10
-2327.771396
 20
-1257.16087
 30
0.0
 70
0
  0
VERTEX
  5
91
  8
14
 10
-2329.534573
 20
-1274.467637
 30
0.0
 70
0
  0
VERTEX
  5
92
  8
14
 10
-2331.157837
 20
-1291.357422
 30
0.0
 70
0
  0
VERTEX
  5
93
  8
14
 10
-2344.438679
 20
-1292.937899
 30
0.0
 70
0
  0
VERTEX
  5
94
  8
14
 10
-2359.961138
 20
-1294.785137
 30
0.0
 70
0
  0
VERTEX
  5
95
  8
14
 10
-2376.22818
 20
-1296.721039
 30
0.0
 70
0
  0
SEQEND
  5
6A
  8
14
  0
POINT
  5
96
  8
4
 10
-2384.607849
 20
-1045.101547
 30
0.0
  0
POINT
  5
97
  8
4
 10
-2363.442535
 20
-1027.506943
 30
0.0
  0
POINT
  5
98
  8
4
 10
-2287.486267
 20
-1063.775406
 30
0.0
  0
POINT
  5
99
  8
4
 10
-2376.850128
 20
-1309.584656
 30
0.0
  0
POINT
  5
9A
  8
4
 10
-2364.206696
 20
-1043.841705
 30
0.0
  0
POINT
  5
9B
  8
4
 10
-2364.206696
 20
-1043.841705
 30
0.0
  0
POINT
  5
9C
  8
4
 10
-2299.819641
 20
-1060.570831
 30
0.0
  0
POINT
  5
9D
  8
4
 10
-2376.22818
 20
-1296.721039
 30
0.0
  0
LINE
  5
9E
  8
7
 10
-2363.338165
 20
-1104.987488
 30
0.0
 11
-2295.490265
 21
-1105.788193
 31
0.0
  0
ENDSEC
  0
EOF
