  0
SECTION
  2
HEADER
  9
$ACADVER
  1
AC1009
  9
$DWGCODEPAGE
  3
ANSI_1252
  9
$INSBASE
 10
0.0
 20
0.0
 30
0.0
  9
$EXTMIN
 10
1e+20
 20
1e+20
 30
1e+20
  9
$EXTMAX
 10
-1e+20
 20
-1e+20
 30
-1e+20
  9
$LIMMIN
 10
0.0
 20
0.0
  9
$LIMMAX
 10
420.0
 20
297.0
  9
$ORTHOMODE
 70
0
  9
$REGENMODE
 70
1
  9
$FILLMODE
 70
1
  9
$DRAGMODE
 70
2
  9
$QTEXTMODE
 70
0
  9
$MIRRTEXT
 70
1
  9
$OSMODE
 70
20583
  9
$LTSCALE
 40
1.0
  9
$ATTMODE
 70
1
  9
$TEXTSIZE
 40
2.5
  9
$TRACEWID
 40
1.0
  9
$TEXTSTYLE
  7
Standard
  9
$CLAYER
  8
0
  9
$CELTYPE
  6
ByLayer
  9
$CECOLOR
 62
256
  9
$DIMSCALE
 40
1.0
  9
$DIMASZ
 40
2.5
  9
$DIMEXO
 40
0.625
  9
$DIMDLI
 40
3.75
  9
$DIMRND
 40
0.0
  9
$DIMDLE
 40
0.0
  9
$DIMEXE
 40
1.25
  9
$DIMTP
 40
0.0
  9
$DIMTM
 40
0.0
  9
$DIMTXT
 40
2.5
  9
$DIMCEN
 40
2.5
  9
$DIMTSZ
 40
0.0
  9
$DIMTOL
 70
0
  9
$DIMLIM
 70
0
  9
$DIMTIH
 70
0
  9
$DIMTOH
 70
0
  9
$DIMSE1
 70
0
  9
$DIMSE2
 70
0
  9
$DIMTAD
 70
1
  9
$DIMZIN
 70
8
  9
$DIMBLK
  1

  9
$DIMASO
 70
1
  9
$DIMSHO
 70
1
  9
$DIMPOST
  1

  9
$DIMAPOST
  1

  9
$DIMALT
 70
0
  9
$DIMALTD
 70
3
  9
$DIMALTF
 40
0.03937007874
  9
$DIMLFAC
 40
1.0
  9
$DIMTOFL
 70
1
  9
$DIMTVP
 40
0.0
  9
$DIMTIX
 70
0
  9
$DIMSOXD
 70
0
  9
$DIMSAH
 70
0
  9
$DIMBLK1
  1

  9
$DIMBLK2
  1

  9
$DIMSTYLE
  2
ISO-25
  9
$DIMCLRD
 70
0
  9
$DIMCLRE
 70
0
  9
$DIMCLRT
 70
0
  9
$DIMTFAC
 40
1.0
  9
$DIMGAP
 40
0.625
  9
$COORDS
 70
1
  9
$ATTDIA
 70
0
  9
$ATTREQ
 70
1
  9
$HANDLING
 70
1
  9
$LUNITS
 70
2
  9
$LUPREC
 70
4
  9
$SKETCHINC
 40
1.0
  9
$FILLETRAD
 40
10.0
  9
$AUNITS
 70
0
  9
$AUPREC
 70
2
  9
$MENU
  1
.
  9
$ELEVATION
 40
0.0
  9
$PELEVATION
 40
0.0
  9
$THICKNESS
 40
0.0
  9
$LIMCHECK
 70
0
  9
$CHAMFERA
 40
0.0
  9
$CHAMFERB
 40
0.0
  9
$SKPOLY
 70
0
  9
$TDCREATE
 40
2461259.4353935183
  9
$TDUPDATE
 40
2461259.4353935183
  9
$TDINDWG
 40
0.0
  9
$TDUSRTIMER
 40
0.0
  9
$USRTIMER
 70
1
  9
$ANGBASE
 50
0.0
  9
$ANGDIR
 70
0
  9
$PDMODE
 70
0
  9
$PDSIZE
 40
0.0
  9
$PLINEWID
 40
0.0
  9
$SPLFRAME
 70
0
  9
$SPLINETYPE
 70
6
  9
$SPLINESEGS
 70
8
  9
$HANDSEED
  5
6F
  9
$SURFTAB1
 70
6
  9
$SURFTAB2
 70
6
  9
$SURFTYPE
 70
6
  9
$SURFU
 70
6
  9
$SURFV
 70
6
  9
$UCSNAME
  2

  9
$UCSORG
 10
0.0
 20
0.0
 30
0.0
  9
$UCSXDIR
 10
1.0
 20
0.0
 30
0.0
  9
$UCSYDIR
 10
0.0
 20
1.0
 30
0.0
  9
$PUCSNAME
  2

  9
$PUCSORG
 10
0.0
 20
0.0
 30
0.0
  9
$PUCSXDIR
 10
1.0
 20
0.0
 30
0.0
  9
$PUCSYDIR
 10
0.0
 20
1.0
 30
0.0
  9
$USERI1
 70
0
  9
$USERI2
 70
0
  9
$USERI3
 70
0
  9
$USERI4
 70
0
  9
$USERI5
 70
0
  9
$USERR1
 40
0.0
  9
$USERR2
 40
0.0
  9
$USERR3
 40
0.0
  9
$USERR4
 40
0.0
  9
$USERR5
 40
0.0
  9
$WORLDVIEW
 70
1
  9
$SHADEDGE
 70
3
  9
$SHADEDIF
 70
70
  9
$TILEMODE
 70
1
  9
$MAXACTVP
 70
64
  9
$PLIMCHECK
 70
0
  9
$PEXTMIN
 10
1e+20
 20
1e+20
 30
1e+20
  9
$PEXTMAX
 10
-1e+20
 20
-1e+20
 30
-1e+20
  9
$PLIMMIN
 10
0.0
 20
0.0
  9
$PLIMMAX
 10
420.0
 20
297.0
  9
$UNITMODE
 70
0
  9
$VISRETAIN
 70
1
  9
$PLINEGEN
 70
0
  9
$PSLTSCALE
 70
1
  0
ENDSEC
  0
SECTION
  2
TABLES
  0
TABLE
  2
VPORT
 70
1
  0
VPORT
  5
23
  2
*Active
 70
0
 10
0.0
 20
0.0
 11
1.0
 21
1.0
 12
0.0
 22
0.0
 13
0.0
 23
0.0
 14
0.5
 24
0.5
 15
0.5
 25
0.5
 16
0.0
 26
0.0
 36
1.0
 17
0.0
 27
0.0
 37
0.0
 40
1000.0
 41
1.34
 42
50.0
 43
0.0
 44
0.0
 50
0.0
 51
0.0
 71
0
 72
1000
 73
1
 74
3
 75
0
 76
0
 77
0
 78
0
  0
ENDTAB
  0
TABLE
  2
LTYPE
 70
3
  0
LTYPE
  5
24
  2
ByBlock
 70
0
  3

 72
65
 73
0
 40
0.0
  0
LTYPE
  5
25
  2
ByLayer
 70
0
  3

 72
65
 73
0
 40
0.0
  0
LTYPE
  5
26
  2
Continuous
 70
0
  3

 72
65
 73
0
 40
0.0
  0
ENDTAB
  0
TABLE
  2
LAYER
 70
4
  0
LAYER
  5
27
  2
0
 70
0
 62
7
  6
Continuous
  0
LAYER
  5
28
  2
Defpoints
 70
0
 62
7
  6
Continuous
  0
LAYER
  5
2D
  2
1
 70
0
 62
1
  6
Continuous
  0
LAYER
  5
2E
  2
7
 70
0
 62
7
  6
Continuous
  0
ENDTAB
  0
TABLE
  2
STYLE
 70
1
  0
STYLE
  5
29
  2
Standard
 70
0
 40
0.0
 41
1.0
 50
0.0
 71
0
 42
2.5
  3
txt
  4

  0
ENDTAB
  0
TABLE
  2
VIEW
 70
0
  0
ENDTAB
  0
TABLE
  2
UCS
 70
0
  0
ENDTAB
  0
TABLE
  2
APPID
 70
3
  0
APPID
  5
2A
  2
ACAD
 70
0
  0
APPID
  5
6D
  2
HATCHBACKGROUNDCOLOR
 70
0
  0
APPID
  5
6E
  2
EZDXF
 70
0
  0
ENDTAB
  0
TABLE
  2
DIMSTYLE
 70
1
  0
DIMSTYLE
105
2B
  2
Standard
 70
0
  3

  4

  5

  6

  7

 40
1.0
 41
2.5
 42
0.625
 43
3.75
 44
1.25
 45
0.0
 46
0.0
 47
0.0
 48
0.0
140
2.5
141
2.5
142
0.0
143
0.03937007874
144
1.0
145
0.0
146
1.0
147
0.625
 71
0
 72
0
 73
0
 74
0
 75
0
 76
0
 77
1
 78
8
170
0
171
3
172
1
173
0
174
0
175
0
176
0
177
0
178
0
  0
ENDTAB
  0
ENDSEC
  0
SECTION
  2
BLOCKS
  0
BLOCK
  5
18
  8
0
  2
$Model_Space
 70
0
 10
0.0
 20
0.0
 30
0.0
  3
$Model_Space
  1

1001
EZDXF
1000
CREATED_BY_EZDXF
1000
1.4.4 @ 2026-08-06T02:26:58.073009+00:00
1000
WRITTEN_BY_EZDXF
1000
1.4.4 @ 2026-08-06T02:26:58.074009+00:00
  0
ENDBLK
  5
19
  8
0
  0
BLOCK
  5
1C
  8
0
  2
$Paper_Space
 70
0
 10
0.0
 20
0.0
 30
0.0
  3
$Paper_Space
  1

  0
ENDBLK
  5
1D
  8
0
  0
ENDSEC
  0
SECTION
  2
ENTITIES
  0
POLYLINE
  5
2F
  8
1
 66
1
 10
0.0
 20
0.0
 30
0.0
 70
1
  0
VERTEX
  5
31
  8
1
 10
-2384.868011
 20
-1331.233978
 30
0.0
 70
0
  0
VERTEX
  5
32
  8
1
 10
-2397.368927
 20
-1330.197144
 30
0.0
 70
0
  0
VERTEX
  5
33
  8
1
 10
-2397.262632
 20
-1327.743761
 30
0.0
 70
0
  0
VERTEX
  5
34
  8
1
 10
-2396.617231
 20
-1312.843621
 30
0.0
 70
0
  0
VERTEX
  5
35
  8
1
 10
-2395.958424
 20
-1297.62273
 30
0.0
 70
0
  0
VERTEX
  5
36
  8
1
 10
-2395.294676
 20
-1282.265017
 30
0.0
 70
0
  0
VERTEX
  5
37
  8
1
 10
-2394.638164
 20
-1267.044033
 30
0.0
 70
0
  0
VERTEX
  5
38
  8
1
 10
-2393.975362
 20
-1251.649116
 30
0.0
 70
0
  0
VERTEX
  5
39
  8
1
 10
-2393.32109
 20
-1236.428012
 30
0.0
 70
0
  0
VERTEX
  5
3A
  8
1
 10
-2392.665035
 20
-1221.139094
 30
0.0
 70
0
  0
VERTEX
  5
3B
  8
1
 10
-2392.013155
 20
-1205.917886
 30
0.0
 70
0
  0
VERTEX
  5
3C
  8
1
 10
-2391.371531
 20
-1190.90286
 30
0.0
 70
0
  0
VERTEX
  5
3D
  8
1
 10
-2390.722693
 20
-1175.681517
 30
0.0
 70
0
  0
VERTEX
  5
3E
  8
1
 10
-2390.074285
 20
-1160.431863
 30
0.0
 70
0
  0
VERTEX
  5
3F
  8
1
 10
-2389.428674
 20
-1145.210388
 30
0.0
 70
0
  0
VERTEX
  5
40
  8
1
 10
-2388.782618
 20
-1129.943765
 30
0.0
 70
0
  0
VERTEX
  5
41
  8
1
 10
-2388.13978
 20
-1114.722174
 30
0.0
 70
0
  0
VERTEX
  5
42
  8
1
 10
-2387.494515
 20
-1099.415649
 30
0.0
 70
0
  0
VERTEX
  5
43
  8
1
 10
-2386.85389
 20
-1084.193968
 30
0.0
 70
0
  0
VERTEX
  5
44
  8
1
 10
-2386.221424
 20
-1069.138178
 30
0.0
 70
0
  0
VERTEX
  5
45
  8
1
 10
-2385.583273
 20
-1053.91639
 30
0.0
 70
0
  0
VERTEX
  5
46
  8
1
 10
-2384.94327
 20
-1038.625163
 30
0.0
 70
0
  0
VERTEX
  5
47
  8
1
 10
-2384.347687
 20
-1024.378357
 30
0.0
 70
0
  0
VERTEX
  5
48
  8
1
 10
-2384.311999
 20
-1023.525492
 30
0.0
 70
0
  0
VERTEX
  5
49
  8
1
 10
-2383.658295
 20
-1007.877197
 30
0.0
 70
0
  0
VERTEX
  5
4A
  8
1
 10
-2363.726349
 20
-1006.643524
 30
0.0
 70
0
  0
VERTEX
  5
4B
  8
1
 10
-2363.274078
 20
-1006.761017
 30
0.0
 70
0
  0
VERTEX
  5
4C
  8
1
 10
-2348.366888
 20
-1010.634265
 30
0.0
 70
0
  0
VERTEX
  5
4D
  8
1
 10
-2333.337217
 20
-1014.539318
 30
0.0
 70
0
  0
VERTEX
  5
4E
  8
1
 10
-2318.749256
 20
-1018.329602
 30
0.0
 70
0
  0
VERTEX
  5
4F
  8
1
 10
-2304.321973
 20
-1022.07813
 30
0.0
 70
0
  0
VERTEX
  5
50
  8
1
 10
-2289.75447
 20
-1025.863079
 30
0.0
 70
0
  0
VERTEX
  5
51
  8
1
 10
-2284.716644
 20
-1027.172012
 30
0.0
 70
0
  0
VERTEX
  5
52
  8
1
 10
-2286.351081
 20
-1037.543967
 30
0.0
 70
0
  0
VERTEX
  5
53
  8
1
 10
-2287.217712
 20
-1043.055496
 30
0.0
 70
0
  0
VERTEX
  5
54
  8
1
 10
-2288.681919
 20
-1052.365716
 30
0.0
 70
0
  0
VERTEX
  5
55
  8
1
 10
-2291.006346
 20
-1067.498314
 30
0.0
 70
0
  0
VERTEX
  5
56
  8
1
 10
-2293.211338
 20
-1082.359401
 30
0.0
 70
0
  0
VERTEX
  5
57
  8
1
 10
-2295.413583
 20
-1097.622711
 30
0.0
 70
0
  0
VERTEX
  5
58
  8
1
 10
-2297.505122
 20
-1112.500147
 30
0.0
 70
0
  0
VERTEX
  5
59
  8
1
 10
-2299.583674
 20
-1127.723158
 30
0.0
 70
0
  0
VERTEX
  5
5A
  8
1
 10
-2301.553048
 20
-1142.617299
 30
0.0
 70
0
  0
VERTEX
  5
5B
  8
1
 10
-2303.486773
 20
-1157.754027
 30
0.0
 70
0
  0
VERTEX
  5
5C
  8
1
 10
-2305.320001
 20
-1172.665533
 30
0.0
 70
0
  0
VERTEX
  5
5D
  8
1
 10
-2307.085836
 20
-1187.681484
 30
0.0
 70
0
  0
VERTEX
  5
5E
  8
1
 10
-2308.755147
 20
-1202.612287
 30
0.0
 70
0
  0
VERTEX
  5
5F
  8
1
 10
-2310.354399
 20
-1217.738818
 30
0.0
 70
0
  0
VERTEX
  5
60
  8
1
 10
-2311.846769
 20
-1232.688288
 30
0.0
 70
0
  0
VERTEX
  5
61
  8
1
 10
-2313.291445
 20
-1247.90284
 30
0.0
 70
0
  0
VERTEX
  5
62
  8
1
 10
-2314.649204
 20
-1262.865179
 30
0.0
 70
0
  0
VERTEX
  5
63
  8
1
 10
-2315.938989
 20
-1277.833437
 30
0.0
 70
0
  0
VERTEX
  5
64
  8
1
 10
-2317.158194
 20
-1292.794593
 30
0.0
 70
0
  0
VERTEX
  5
65
  8
1
 10
-2318.334147
 20
-1307.772279
 30
0.0
 70
0
  0
VERTEX
  5
66
  8
1
 10
-2319.551392
 20
-1323.460999
 30
0.0
 70
0
  0
VERTEX
  5
67
  8
1
 10
-2323.403917
 20
-1323.919476
 30
0.0
 70
0
  0
VERTEX
  5
68
  8
1
 10
-2338.255799
 20
-1325.686943
 30
0.0
 70
0
  0
VERTEX
  5
69
  8
1
 10
-2353.751219
 20
-1327.530979
 30
0.0
 70
0
  0
VERTEX
  5
6A
  8
1
 10
-2368.893476
 20
-1329.332965
 30
0.0
 70
0
  0
VERTEX
  5
6B
  8
1
 10
-2377.034302
 20
-1330.301666
 30
0.0
 70
0
  0
SEQEND
  5
30
  8
1
  0
LINE
  5
6C
  8
7
 10
-2361.586914
 20
-1105.008011
 30
0.0
 11
-2315.167542
 21
-1105.55603
 31
0.0
  0
ENDSEC
  0
EOF
