  0
SECTION
  2
HEADER
  9
$ACADVER
  1
AC1009
  9
$DWGCODEPAGE
  3
ANSI_1252
  9
$INSBASE
 10
0.0
 20
0.0
 30
0.0
  9
$EXTMIN
 10
1e+20
 20
1e+20
 30
1e+20
  9
$EXTMAX
 10
-1e+20
 20
-1e+20
 30
-1e+20
  9
$LIMMIN
 10
0.0
 20
0.0
  9
$LIMMAX
 10
420.0
 20
297.0
  9
$ORTHOMODE
 70
0
  9
$REGENMODE
 70
1
  9
$FILLMODE
 70
1
  9
$DRAGMODE
 70
2
  9
$QTEXTMODE
 70
0
  9
$MIRRTEXT
 70
1
  9
$OSMODE
 70
20583
  9
$LTSCALE
 40
1.0
  9
$ATTMODE
 70
1
  9
$TEXTSIZE
 40
2.5
  9
$TRACEWID
 40
1.0
  9
$TEXTSTYLE
  7
Standard
  9
$CLAYER
  8
0
  9
$CELTYPE
  6
ByLayer
  9
$CECOLOR
 62
256
  9
$DIMSCALE
 40
1.0
  9
$DIMASZ
 40
2.5
  9
$DIMEXO
 40
0.625
  9
$DIMDLI
 40
3.75
  9
$DIMRND
 40
0.0
  9
$DIMDLE
 40
0.0
  9
$DIMEXE
 40
1.25
  9
$DIMTP
 40
0.0
  9
$DIMTM
 40
0.0
  9
$DIMTXT
 40
2.5
  9
$DIMCEN
 40
2.5
  9
$DIMTSZ
 40
0.0
  9
$DIMTOL
 70
0
  9
$DIMLIM
 70
0
  9
$DIMTIH
 70
0
  9
$DIMTOH
 70
0
  9
$DIMSE1
 70
0
  9
$DIMSE2
 70
0
  9
$DIMTAD
 70
1
  9
$DIMZIN
 70
8
  9
$DIMBLK
  1

  9
$DIMASO
 70
1
  9
$DIMSHO
 70
1
  9
$DIMPOST
  1

  9
$DIMAPOST
  1

  9
$DIMALT
 70
0
  9
$DIMALTD
 70
3
  9
$DIMALTF
 40
0.03937007874
  9
$DIMLFAC
 40
1.0
  9
$DIMTOFL
 70
1
  9
$DIMTVP
 40
0.0
  9
$DIMTIX
 70
0
  9
$DIMSOXD
 70
0
  9
$DIMSAH
 70
0
  9
$DIMBLK1
  1

  9
$DIMBLK2
  1

  9
$DIMSTYLE
  2
ISO-25
  9
$DIMCLRD
 70
0
  9
$DIMCLRE
 70
0
  9
$DIMCLRT
 70
0
  9
$DIMTFAC
 40
1.0
  9
$DIMGAP
 40
0.625
  9
$COORDS
 70
1
  9
$ATTDIA
 70
0
  9
$ATTREQ
 70
1
  9
$HANDLING
 70
1
  9
$LUNITS
 70
2
  9
$LUPREC
 70
4
  9
$SKETCHINC
 40
1.0
  9
$FILLETRAD
 40
10.0
  9
$AUNITS
 70
0
  9
$AUPREC
 70
2
  9
$MENU
  1
.
  9
$ELEVATION
 40
0.0
  9
$PELEVATION
 40
0.0
  9
$THICKNESS
 40
0.0
  9
$LIMCHECK
 70
0
  9
$CHAMFERA
 40
0.0
  9
$CHAMFERB
 40
0.0
  9
$SKPOLY
 70
0
  9
$TDCREATE
 40
2461259.4353935183
  9
$TDUPDATE
 40
2461259.4353935183
  9
$TDINDWG
 40
0.0
  9
$TDUSRTIMER
 40
0.0
  9
$USRTIMER
 70
1
  9
$ANGBASE
 50
0.0
  9
$ANGDIR
 70
0
  9
$PDMODE
 70
0
  9
$PDSIZE
 40
0.0
  9
$PLINEWID
 40
0.0
  9
$SPLFRAME
 70
0
  9
$SPLINETYPE
 70
6
  9
$SPLINESEGS
 70
8
  9
$HANDSEED
  5
6F
  9
$SURFTAB1
 70
6
  9
$SURFTAB2
 70
6
  9
$SURFTYPE
 70
6
  9
$SURFU
 70
6
  9
$SURFV
 70
6
  9
$UCSNAME
  2

  9
$UCSORG
 10
0.0
 20
0.0
 30
0.0
  9
$UCSXDIR
 10
1.0
 20
0.0
 30
0.0
  9
$UCSYDIR
 10
0.0
 20
1.0
 30
0.0
  9
$PUCSNAME
  2

  9
$PUCSORG
 10
0.0
 20
0.0
 30
0.0
  9
$PUCSXDIR
 10
1.0
 20
0.0
 30
0.0
  9
$PUCSYDIR
 10
0.0
 20
1.0
 30
0.0
  9
$USERI1
 70
0
  9
$USERI2
 70
0
  9
$USERI3
 70
0
  9
$USERI4
 70
0
  9
$USERI5
 70
0
  9
$USERR1
 40
0.0
  9
$USERR2
 40
0.0
  9
$USERR3
 40
0.0
  9
$USERR4
 40
0.0
  9
$USERR5
 40
0.0
  9
$WORLDVIEW
 70
1
  9
$SHADEDGE
 70
3
  9
$SHADEDIF
 70
70
  9
$TILEMODE
 70
1
  9
$MAXACTVP
 70
64
  9
$PLIMCHECK
 70
0
  9
$PEXTMIN
 10
1e+20
 20
1e+20
 30
1e+20
  9
$PEXTMAX
 10
-1e+20
 20
-1e+20
 30
-1e+20
  9
$PLIMMIN
 10
0.0
 20
0.0
  9
$PLIMMAX
 10
420.0
 20
297.0
  9
$UNITMODE
 70
0
  9
$VISRETAIN
 70
1
  9
$PLINEGEN
 70
0
  9
$PSLTSCALE
 70
1
  0
ENDSEC
  0
SECTION
  2
TABLES
  0
TABLE
  2
VPORT
 70
1
  0
VPORT
  5
23
  2
*Active
 70
0
 10
0.0
 20
0.0
 11
1.0
 21
1.0
 12
0.0
 22
0.0
 13
0.0
 23
0.0
 14
0.5
 24
0.5
 15
0.5
 25
0.5
 16
0.0
 26
0.0
 36
1.0
 17
0.0
 27
0.0
 37
0.0
 40
1000.0
 41
1.34
 42
50.0
 43
0.0
 44
0.0
 50
0.0
 51
0.0
 71
0
 72
1000
 73
1
 74
3
 75
0
 76
0
 77
0
 78
0
  0
ENDTAB
  0
TABLE
  2
LTYPE
 70
3
  0
LTYPE
  5
24
  2
ByBlock
 70
0
  3

 72
65
 73
0
 40
0.0
  0
LTYPE
  5
25
  2
ByLayer
 70
0
  3

 72
65
 73
0
 40
0.0
  0
LTYPE
  5
26
  2
Continuous
 70
0
  3

 72
65
 73
0
 40
0.0
  0
ENDTAB
  0
TABLE
  2
LAYER
 70
4
  0
LAYER
  5
27
  2
0
 70
0
 62
7
  6
Continuous
  0
LAYER
  5
28
  2
Defpoints
 70
0
 62
7
  6
Continuous
  0
LAYER
  5
2D
  2
1
 70
0
 62
1
  6
Continuous
  0
LAYER
  5
2E
  2
7
 70
0
 62
7
  6
Continuous
  0
ENDTAB
  0
TABLE
  2
STYLE
 70
1
  0
STYLE
  5
29
  2
Standard
 70
0
 40
0.0
 41
1.0
 50
0.0
 71
0
 42
2.5
  3
txt
  4

  0
ENDTAB
  0
TABLE
  2
VIEW
 70
0
  0
ENDTAB
  0
TABLE
  2
UCS
 70
0
  0
ENDTAB
  0
TABLE
  2
APPID
 70
3
  0
APPID
  5
2A
  2
ACAD
 70
0
  0
APPID
  5
6D
  2
HATCHBACKGROUNDCOLOR
 70
0
  0
APPID
  5
6E
  2
EZDXF
 70
0
  0
ENDTAB
  0
TABLE
  2
DIMSTYLE
 70
1
  0
DIMSTYLE
105
2B
  2
Standard
 70
0
  3

  4

  5

  6

  7

 40
1.0
 41
2.5
 42
0.625
 43
3.75
 44
1.25
 45
0.0
 46
0.0
 47
0.0
 48
0.0
140
2.5
141
2.5
142
0.0
143
0.03937007874
144
1.0
145
0.0
146
1.0
147
0.625
 71
0
 72
0
 73
0
 74
0
 75
0
 76
0
 77
1
 78
8
170
0
171
3
172
1
173
0
174
0
175
0
176
0
177
0
178
0
  0
ENDTAB
  0
ENDSEC
  0
SECTION
  2
BLOCKS
  0
BLOCK
  5
18
  8
0
  2
$Model_Space
 70
0
 10
0.0
 20
0.0
 30
0.0
  3
$Model_Space
  1

1001
EZDXF
1000
CREATED_BY_EZDXF
1000
1.4.4 @ 2026-08-06T02:26:58.119009+00:00
1000
WRITTEN_BY_EZDXF
1000
1.4.4 @ 2026-08-06T02:26:58.120009+00:00
  0
ENDBLK
  5
19
  8
0
  0
BLOCK
  5
1C
  8
0
  2
$Paper_Space
 70
0
 10
0.0
 20
0.0
 30
0.0
  3
$Paper_Space
  1

  0
ENDBLK
  5
1D
  8
0
  0
ENDSEC
  0
SECTION
  2
ENTITIES
  0
POLYLINE
  5
2F
  8
1
 66
1
 10
0.0
 20
0.0
 30
0.0
 70
1
  0
VERTEX
  5
31
  8
1
 10
-2384.898376
 20
-1334.686737
 30
0.0
 70
0
  0
VERTEX
  5
32
  8
1
 10
-2397.400665
 20
-1333.649597
 30
0.0
 70
0
  0
VERTEX
  5
33
  8
1
 10
-2396.982259
 20
-1323.829235
 30
0.0
 70
0
  0
VERTEX
  5
34
  8
1
 10
-2396.345006
 20
-1308.866782
 30
0.0
 70
0
  0
VERTEX
  5
35
  8
1
 10
-2395.698155
 20
-1293.667257
 30
0.0
 70
0
  0
VERTEX
  5
36
  8
1
 10
-2395.043136
 20
-1278.252475
 30
0.0
 70
0
  0
VERTEX
  5
37
  8
1
 10
-2394.398615
 20
-1263.052838
 30
0.0
 70
0
  0
VERTEX
  5
38
  8
1
 10
-2393.753427
 20
-1247.808781
 30
0.0
 70
0
  0
VERTEX
  5
39
  8
1
 10
-2393.111142
 20
-1232.609054
 30
0.0
 70
0
  0
VERTEX
  5
3A
  8
1
 10
-2392.474648
 20
-1217.520398
 30
0.0
 70
0
  0
VERTEX
  5
3B
  8
1
 10
-2391.834722
 20
-1202.32056
 30
0.0
 70
0
  0
VERTEX
  5
3C
  8
1
 10
-2391.197305
 20
-1187.145854
 30
0.0
 70
0
  0
VERTEX
  5
3D
  8
1
 10
-2390.560436
 20
-1171.945897
 30
0.0
 70
0
  0
VERTEX
  5
3E
  8
1
 10
-2389.92191
 20
-1156.667983
 30
0.0
 70
0
  0
VERTEX
  5
3F
  8
1
 10
-2389.288167
 20
-1141.467875
 30
0.0
 70
0
  0
VERTEX
  5
40
  8
1
 10
-2388.655266
 20
-1126.254136
 30
0.0
 70
0
  0
VERTEX
  5
41
  8
1
 10
-2388.024194
 20
-1111.053924
 30
0.0
 70
0
  0
VERTEX
  5
42
  8
1
 10
-2387.394225
 20
-1095.853681
 30
0.0
 70
0
  0
VERTEX
  5
43
  8
1
 10
-2386.769949
 20
-1080.766941
 30
0.0
 70
0
  0
VERTEX
  5
44
  8
1
 10
-2386.142132
 20
-1065.566624
 30
0.0
 70
0
  0
VERTEX
  5
45
  8
1
 10
-2385.517973
 20
-1050.42374
 30
0.0
 70
0
  0
VERTEX
  5
46
  8
1
 10
-2384.888514
 20
-1035.127266
 30
0.0
 70
0
  0
VERTEX
  5
47
  8
1
 10
-2384.304657
 20
-1020.925446
 30
0.0
 70
0
  0
VERTEX
  5
48
  8
1
 10
-2384.268174
 20
-1020.036361
 30
0.0
 70
0
  0
VERTEX
  5
49
  8
1
 10
-2383.626709
 20
-1004.420547
 30
0.0
 70
0
  0
VERTEX
  5
4A
  8
1
 10
-2363.69873
 20
-1003.185806
 30
0.0
 70
0
  0
VERTEX
  5
4B
  8
1
 10
-2363.243866
 20
-1003.303986
 30
0.0
 70
0
  0
VERTEX
  5
4C
  8
1
 10
-2348.349148
 20
-1007.173953
 30
0.0
 70
0
  0
VERTEX
  5
4D
  8
1
 10
-2333.309796
 20
-1011.081495
 30
0.0
 70
0
  0
VERTEX
  5
4E
  8
1
 10
-2318.727309
 20
-1014.870332
 30
0.0
 70
0
  0
VERTEX
  5
4F
  8
1
 10
-2304.292933
 20
-1018.620688
 30
0.0
 70
0
  0
VERTEX
  5
50
  8
1
 10
-2289.734178
 20
-1022.403363
 30
0.0
 70
0
  0
VERTEX
  5
51
  8
1
 10
-2284.714508
 20
-1023.707581
 30
0.0
 70
0
  0
VERTEX
  5
52
  8
1
 10
-2286.773134
 20
-1037.022225
 30
0.0
 70
0
  0
VERTEX
  5
53
  8
1
 10
-2287.173462
 20
-1039.602051
 30
0.0
 70
0
  0
VERTEX
  5
54
  8
1
 10
-2289.132735
 20
-1052.228573
 30
0.0
 70
0
  0
VERTEX
  5
55
  8
1
 10
-2291.402861
 20
-1067.41539
 30
0.0
 70
0
  0
VERTEX
  5
56
  8
1
 10
-2293.601625
 20
-1082.612816
 30
0.0
 70
0
  0
VERTEX
  5
57
  8
1
 10
-2295.752472
 20
-1097.867176
 30
0.0
 70
0
  0
VERTEX
  5
58
  8
1
 10
-2297.843047
 20
-1113.079666
 30
0.0
 70
0
  0
VERTEX
  5
59
  8
1
 10
-2299.872791
 20
-1128.295848
 30
0.0
 70
0
  0
VERTEX
  5
5A
  8
1
 10
-2301.838736
 20
-1143.525022
 30
0.0
 70
0
  0
VERTEX
  5
5B
  8
1
 10
-2303.724131
 20
-1158.649566
 30
0.0
 70
0
  0
VERTEX
  5
5C
  8
1
 10
-2305.551819
 20
-1173.895932
 30
0.0
 70
0
  0
VERTEX
  5
5D
  8
1
 10
-2307.270586
 20
-1188.897581
 30
0.0
 70
0
  0
VERTEX
  5
5E
  8
1
 10
-2308.932091
 20
-1204.162979
 30
0.0
 70
0
  0
VERTEX
  5
5F
  8
1
 10
-2310.486191
 20
-1219.27472
 30
0.0
 70
0
  0
VERTEX
  5
60
  8
1
 10
-2311.969589
 20
-1234.558376
 30
0.0
 70
0
  0
VERTEX
  5
61
  8
1
 10
-2313.372802
 20
-1249.763954
 30
0.0
 70
0
  0
VERTEX
  5
62
  8
1
 10
-2314.721057
 20
-1265.060184
 30
0.0
 70
0
  0
VERTEX
  5
63
  8
1
 10
-2316.007722
 20
-1280.456773
 30
0.0
 70
0
  0
VERTEX
  5
64
  8
1
 10
-2317.215474
 20
-1295.764681
 30
0.0
 70
0
  0
VERTEX
  5
65
  8
1
 10
-2318.378091
 20
-1311.076153
 30
0.0
 70
0
  0
VERTEX
  5
66
  8
1
 10
-2319.565735
 20
-1326.911926
 30
0.0
 70
0
  0
VERTEX
  5
67
  8
1
 10
-2323.425731
 20
-1327.371287
 30
0.0
 70
0
  0
VERTEX
  5
68
  8
1
 10
-2338.28469
 20
-1329.139577
 30
0.0
 70
0
  0
VERTEX
  5
69
  8
1
 10
-2353.784262
 20
-1330.984088
 30
0.0
 70
0
  0
VERTEX
  5
6A
  8
1
 10
-2368.916071
 20
-1332.784815
 30
0.0
 70
0
  0
VERTEX
  5
6B
  8
1
 10
-2377.067261
 20
-1333.754883
 30
0.0
 70
0
  0
SEQEND
  5
30
  8
1
  0
LINE
  5
6C
  8
7
 10
-2361.653748
 20
-1105.007248
 30
0.0
 11
-2315.41748
 21
-1105.553055
 31
0.0
  0
ENDSEC
  0
EOF
