  0
SECTION
  2
HEADER
  9
$ACADVER
  1
AC1009
  9
$DWGCODEPAGE
  3
ANSI_1252
  9
$INSBASE
 10
0.0
 20
0.0
 30
0.0
  9
$EXTMIN
 10
1e+20
 20
1e+20
 30
1e+20
  9
$EXTMAX
 10
-1e+20
 20
-1e+20
 30
-1e+20
  9
$LIMMIN
 10
0.0
 20
0.0
  9
$LIMMAX
 10
420.0
 20
297.0
  9
$ORTHOMODE
 70
0
  9
$REGENMODE
 70
1
  9
$FILLMODE
 70
1
  9
$DRAGMODE
 70
2
  9
$QTEXTMODE
 70
0
  9
$MIRRTEXT
 70
1
  9
$OSMODE
 70
20583
  9
$LTSCALE
 40
1.0
  9
$ATTMODE
 70
1
  9
$TEXTSIZE
 40
2.5
  9
$TRACEWID
 40
1.0
  9
$TEXTSTYLE
  7
Standard
  9
$CLAYER
  8
0
  9
$CELTYPE
  6
ByLayer
  9
$CECOLOR
 62
256
  9
$DIMSCALE
 40
1.0
  9
$DIMASZ
 40
2.5
  9
$DIMEXO
 40
0.625
  9
$DIMDLI
 40
3.75
  9
$DIMRND
 40
0.0
  9
$DIMDLE
 40
0.0
  9
$DIMEXE
 40
1.25
  9
$DIMTP
 40
0.0
  9
$DIMTM
 40
0.0
  9
$DIMTXT
 40
2.5
  9
$DIMCEN
 40
2.5
  9
$DIMTSZ
 40
0.0
  9
$DIMTOL
 70
0
  9
$DIMLIM
 70
0
  9
$DIMTIH
 70
0
  9
$DIMTOH
 70
0
  9
$DIMSE1
 70
0
  9
$DIMSE2
 70
0
  9
$DIMTAD
 70
1
  9
$DIMZIN
 70
8
  9
$DIMBLK
  1

  9
$DIMASO
 70
1
  9
$DIMSHO
 70
1
  9
$DIMPOST
  1

  9
$DIMAPOST
  1

  9
$DIMALT
 70
0
  9
$DIMALTD
 70
3
  9
$DIMALTF
 40
0.03937007874
  9
$DIMLFAC
 40
1.0
  9
$DIMTOFL
 70
1
  9
$DIMTVP
 40
0.0
  9
$DIMTIX
 70
0
  9
$DIMSOXD
 70
0
  9
$DIMSAH
 70
0
  9
$DIMBLK1
  1

  9
$DIMBLK2
  1

  9
$DIMSTYLE
  2
ISO-25
  9
$DIMCLRD
 70
0
  9
$DIMCLRE
 70
0
  9
$DIMCLRT
 70
0
  9
$DIMTFAC
 40
1.0
  9
$DIMGAP
 40
0.625
  9
$COORDS
 70
1
  9
$ATTDIA
 70
0
  9
$ATTREQ
 70
1
  9
$HANDLING
 70
1
  9
$LUNITS
 70
2
  9
$LUPREC
 70
4
  9
$SKETCHINC
 40
1.0
  9
$FILLETRAD
 40
10.0
  9
$AUNITS
 70
0
  9
$AUPREC
 70
2
  9
$MENU
  1
.
  9
$ELEVATION
 40
0.0
  9
$PELEVATION
 40
0.0
  9
$THICKNESS
 40
0.0
  9
$LIMCHECK
 70
0
  9
$CHAMFERA
 40
0.0
  9
$CHAMFERB
 40
0.0
  9
$SKPOLY
 70
0
  9
$TDCREATE
 40
2461264.9423032408
  9
$TDUPDATE
 40
2461264.9423032408
  9
$TDINDWG
 40
0.0
  9
$TDUSRTIMER
 40
0.0
  9
$USRTIMER
 70
1
  9
$ANGBASE
 50
0.0
  9
$ANGDIR
 70
0
  9
$PDMODE
 70
0
  9
$PDSIZE
 40
0.0
  9
$PLINEWID
 40
0.0
  9
$SPLFRAME
 70
0
  9
$SPLINETYPE
 70
6
  9
$SPLINESEGS
 70
8
  9
$HANDSEED
  5
185
  9
$SURFTAB1
 70
6
  9
$SURFTAB2
 70
6
  9
$SURFTYPE
 70
6
  9
$SURFU
 70
6
  9
$SURFV
 70
6
  9
$UCSNAME
  2

  9
$UCSORG
 10
0.0
 20
0.0
 30
0.0
  9
$UCSXDIR
 10
1.0
 20
0.0
 30
0.0
  9
$UCSYDIR
 10
0.0
 20
1.0
 30
0.0
  9
$PUCSNAME
  2

  9
$PUCSORG
 10
0.0
 20
0.0
 30
0.0
  9
$PUCSXDIR
 10
1.0
 20
0.0
 30
0.0
  9
$PUCSYDIR
 10
0.0
 20
1.0
 30
0.0
  9
$USERI1
 70
0
  9
$USERI2
 70
0
  9
$USERI3
 70
0
  9
$USERI4
 70
0
  9
$USERI5
 70
0
  9
$USERR1
 40
0.0
  9
$USERR2
 40
0.0
  9
$USERR3
 40
0.0
  9
$USERR4
 40
0.0
  9
$USERR5
 40
0.0
  9
$WORLDVIEW
 70
1
  9
$SHADEDGE
 70
3
  9
$SHADEDIF
 70
70
  9
$TILEMODE
 70
1
  9
$MAXACTVP
 70
64
  9
$PLIMCHECK
 70
0
  9
$PEXTMIN
 10
1e+20
 20
1e+20
 30
1e+20
  9
$PEXTMAX
 10
-1e+20
 20
-1e+20
 30
-1e+20
  9
$PLIMMIN
 10
0.0
 20
0.0
  9
$PLIMMAX
 10
420.0
 20
297.0
  9
$UNITMODE
 70
0
  9
$VISRETAIN
 70
1
  9
$PLINEGEN
 70
0
  9
$PSLTSCALE
 70
1
  0
ENDSEC
  0
SECTION
  2
TABLES
  0
TABLE
  2
VPORT
 70
1
  0
VPORT
  5
23
  2
*Active
 70
0
 10
0.0
 20
0.0
 11
1.0
 21
1.0
 12
0.0
 22
0.0
 13
0.0
 23
0.0
 14
0.5
 24
0.5
 15
0.5
 25
0.5
 16
0.0
 26
0.0
 36
1.0
 17
0.0
 27
0.0
 37
0.0
 40
1000.0
 41
1.34
 42
50.0
 43
0.0
 44
0.0
 50
0.0
 51
0.0
 71
0
 72
1000
 73
1
 74
3
 75
0
 76
0
 77
0
 78
0
  0
ENDTAB
  0
TABLE
  2
LTYPE
 70
3
  0
LTYPE
  5
24
  2
ByBlock
 70
0
  3

 72
65
 73
0
 40
0.0
  0
LTYPE
  5
25
  2
ByLayer
 70
0
  3

 72
65
 73
0
 40
0.0
  0
LTYPE
  5
26
  2
Continuous
 70
0
  3

 72
65
 73
0
 40
0.0
  0
ENDTAB
  0
TABLE
  2
LAYER
 70
7
  0
LAYER
  5
27
  2
0
 70
0
 62
7
  6
Continuous
  0
LAYER
  5
28
  2
Defpoints
 70
0
 62
7
  6
Continuous
  0
LAYER
  5
2D
  2
1
 70
0
 62
1
  6
Continuous
  0
LAYER
  5
2E
  2
7
 70
0
 62
7
  6
Continuous
  0
LAYER
  5
2F
  2
14
 70
0
 62
3
  6
Continuous
  0
LAYER
  5
30
  2
8
 70
0
 62
6
  6
Continuous
  0
LAYER
  5
31
  2
4
 70
0
 62
2
  6
Continuous
  0
ENDTAB
  0
TABLE
  2
STYLE
 70
1
  0
STYLE
  5
29
  2
Standard
 70
0
 40
0.0
 41
1.0
 50
0.0
 71
0
 42
2.5
  3
txt
  4

  0
ENDTAB
  0
TABLE
  2
VIEW
 70
0
  0
ENDTAB
  0
TABLE
  2
UCS
 70
0
  0
ENDTAB
  0
TABLE
  2
APPID
 70
3
  0
APPID
  5
2A
  2
ACAD
 70
0
  0
APPID
  5
183
  2
HATCHBACKGROUNDCOLOR
 70
0
  0
APPID
  5
184
  2
EZDXF
 70
0
  0
ENDTAB
  0
TABLE
  2
DIMSTYLE
 70
1
  0
DIMSTYLE
105
2B
  2
Standard
 70
0
  3

  4

  5

  6

  7

 40
1.0
 41
2.5
 42
0.625
 43
3.75
 44
1.25
 45
0.0
 46
0.0
 47
0.0
 48
0.0
140
2.5
141
2.5
142
0.0
143
0.03937007874
144
1.0
145
0.0
146
1.0
147
0.625
 71
0
 72
0
 73
0
 74
0
 75
0
 76
0
 77
1
 78
8
170
0
171
3
172
1
173
0
174
0
175
0
176
0
177
0
178
0
  0
ENDTAB
  0
ENDSEC
  0
SECTION
  2
BLOCKS
  0
BLOCK
  5
18
  8
0
  2
$Model_Space
 70
0
 10
0.0
 20
0.0
 30
0.0
  3
$Model_Space
  1

1001
EZDXF
1000
CREATED_BY_EZDXF
1000
1.4.4 @ 2026-08-11T14:36:55.613940+00:00
1000
WRITTEN_BY_EZDXF
1000
1.4.4 @ 2026-08-11T14:36:55.616939+00:00
  0
ENDBLK
  5
19
  8
0
  0
BLOCK
  5
1C
  8
0
  2
$Paper_Space
 70
0
 10
0.0
 20
0.0
 30
0.0
  3
$Paper_Space
  1

  0
ENDBLK
  5
1D
  8
0
  0
ENDSEC
  0
SECTION
  2
ENTITIES
  0
POLYLINE
  5
32
  8
1
 66
1
 10
0.0
 20
0.0
 30
0.0
 70
1
  0
VERTEX
  5
34
  8
1
 10
-2724.414673
 20
-196.668682
 30
0.0
 70
0
  0
VERTEX
  5
35
  8
1
 10
-2724.296875
 20
-196.667709
 30
0.0
 70
0
  0
VERTEX
  5
36
  8
1
 10
-2736.238976
 20
-196.766053
 30
0.0
 70
0
  0
VERTEX
  5
37
  8
1
 10
-2751.474556
 20
-196.713801
 30
0.0
 70
0
  0
VERTEX
  5
38
  8
1
 10
-2766.881529
 20
-196.466695
 30
0.0
 70
0
  0
VERTEX
  5
39
  8
1
 10
-2782.036913
 20
-196.099833
 30
0.0
 70
0
  0
VERTEX
  5
3A
  8
1
 10
-2797.437643
 20
-195.61385
 30
0.0
 70
0
  0
VERTEX
  5
3B
  8
1
 10
-2812.69062
 20
-195.009188
 30
0.0
 70
0
  0
VERTEX
  5
3C
  8
1
 10
-2828.081543
 20
-194.271713
 30
0.0
 70
0
  0
VERTEX
  5
3D
  8
1
 10
-2843.370853
 20
-193.412815
 30
0.0
 70
0
  0
VERTEX
  5
3E
  8
1
 10
-2858.747507
 20
-192.420598
 30
0.0
 70
0
  0
VERTEX
  5
3F
  8
1
 10
-2873.939496
 20
-191.31131
 30
0.0
 70
0
  0
VERTEX
  5
40
  8
1
 10
-2889.296792
 20
-190.054983
 30
0.0
 70
0
  0
VERTEX
  5
41
  8
1
 10
-2904.475177
 20
-188.674479
 30
0.0
 70
0
  0
VERTEX
  5
42
  8
1
 10
-2919.806531
 20
-187.133894
 30
0.0
 70
0
  0
VERTEX
  5
43
  8
1
 10
-2934.8686
 20
-185.470872
 30
0.0
 70
0
  0
VERTEX
  5
44
  8
1
 10
-2950.165848
 20
-183.621933
 30
0.0
 70
0
  0
VERTEX
  5
45
  8
1
 10
-2965.225786
 20
-181.635133
 30
0.0
 70
0
  0
VERTEX
  5
46
  8
1
 10
-2980.477811
 20
-179.443633
 30
0.0
 70
0
  0
VERTEX
  5
47
  8
1
 10
-2995.394433
 20
-177.114242
 30
0.0
 70
0
  0
VERTEX
  5
48
  8
1
 10
-3010.586511
 20
-174.539677
 30
0.0
 70
0
  0
VERTEX
  5
49
  8
1
 10
-3025.45717
 20
-171.810067
 30
0.0
 70
0
  0
VERTEX
  5
4A
  8
1
 10
-3040.572606
 20
-168.817392
 30
0.0
 70
0
  0
VERTEX
  5
4B
  8
1
 10
-3055.498069
 20
-165.642241
 30
0.0
 70
0
  0
VERTEX
  5
4C
  8
1
 10
-3070.521705
 20
-162.218357
 30
0.0
 70
0
  0
VERTEX
  5
4D
  8
1
 10
-3085.409941
 20
-158.593054
 30
0.0
 70
0
  0
VERTEX
  5
4E
  8
1
 10
-3100.325986
 20
-154.727416
 30
0.0
 70
0
  0
VERTEX
  5
4F
  8
1
 10
-3114.840906
 20
-150.743645
 30
0.0
 70
0
  0
VERTEX
  5
50
  8
1
 10
-3129.645114
 20
-146.469791
 30
0.0
 70
0
  0
VERTEX
  5
51
  8
1
 10
-3144.204952
 20
-142.078842
 30
0.0
 70
0
  0
VERTEX
  5
52
  8
1
 10
-3158.642457
 20
-137.566331
 30
0.0
 70
0
  0
VERTEX
  5
53
  8
1
 10
-3173.308148
 20
-132.838822
 30
0.0
 70
0
  0
VERTEX
  5
54
  8
1
 10
-3187.680318
 20
-128.046248
 30
0.0
 70
0
  0
VERTEX
  5
55
  8
1
 10
-3202.243216
 20
-123.011879
 30
0.0
 70
0
  0
VERTEX
  5
56
  8
1
 10
-3216.444087
 20
-117.957795
 30
0.0
 70
0
  0
VERTEX
  5
57
  8
1
 10
-3230.927748
 20
-112.699944
 30
0.0
 70
0
  0
VERTEX
  5
58
  8
1
 10
-3233.621521
 20
-111.714048
 30
0.0
 70
0
  0
VERTEX
  5
59
  8
1
 10
-3234.385071
 20
-111.436014
 30
0.0
 70
0
  0
VERTEX
  5
5A
  8
1
 10
-3245.079957
 20
-107.520456
 30
0.0
 70
0
  0
VERTEX
  5
5B
  8
1
 10
-3259.552346
 20
-102.231973
 30
0.0
 70
0
  0
VERTEX
  5
5C
  8
1
 10
-3273.653811
 20
-97.086636
 30
0.0
 70
0
  0
VERTEX
  5
5D
  8
1
 10
-3287.997438
 20
-91.850731
 30
0.0
 70
0
  0
VERTEX
  5
5E
  8
1
 10
-3302.876587
 20
-86.416092
 30
0.0
 70
0
  0
VERTEX
  5
5F
  8
1
 10
-3298.557186
 20
-78.030133
 30
0.0
 70
0
  0
VERTEX
  5
60
  8
1
 10
-3291.685998
 20
-64.689925
 30
0.0
 70
0
  0
VERTEX
  5
61
  8
1
 10
-3284.683336
 20
-51.094369
 30
0.0
 70
0
  0
VERTEX
  5
62
  8
1
 10
-3277.764586
 20
-37.661613
 30
0.0
 70
0
  0
VERTEX
  5
63
  8
1
 10
-3276.376343
 20
-34.966199
 30
0.0
 70
0
  0
VERTEX
  5
64
  8
1
 10
-3270.507813
 20
-23.572481
 30
0.0
 70
0
  0
VERTEX
  5
65
  8
1
 10
-3255.801389
 20
-28.90103
 30
0.0
 70
0
  0
VERTEX
  5
66
  8
1
 10
-3241.644159
 20
-34.027667
 30
0.0
 70
0
  0
VERTEX
  5
67
  8
1
 10
-3227.115531
 20
-39.287374
 30
0.0
 70
0
  0
VERTEX
  5
68
  8
1
 10
-3212.831126
 20
-44.469893
 30
0.0
 70
0
  0
VERTEX
  5
69
  8
1
 10
-3198.309118
 20
-49.747973
 30
0.0
 70
0
  0
VERTEX
  5
6A
  8
1
 10
-3184.073177
 20
-54.860469
 30
0.0
 70
0
  0
VERTEX
  5
6B
  8
1
 10
-3169.486792
 20
-59.958291
 30
0.0
 70
0
  0
VERTEX
  5
6C
  8
1
 10
-3155.259855
 20
-64.766775
 30
0.0
 70
0
  0
VERTEX
  5
6D
  8
1
 10
-3140.568015
 20
-69.552105
 30
0.0
 70
0
  0
VERTEX
  5
6E
  8
1
 10
-3125.982848
 20
-74.129562
 30
0.0
 70
0
  0
VERTEX
  5
6F
  8
1
 10
-3111.192088
 20
-78.600382
 30
0.0
 70
0
  0
VERTEX
  5
70
  8
1
 10
-3096.674834
 20
-82.796928
 30
0.0
 70
0
  0
VERTEX
  5
71
  8
1
 10
-3081.772015
 20
-86.879233
 30
0.0
 70
0
  0
VERTEX
  5
72
  8
1
 10
-3067.12651
 20
-90.653327
 30
0.0
 70
0
  0
VERTEX
  5
73
  8
1
 10
-3052.104253
 20
-94.271408
 30
0.0
 70
0
  0
VERTEX
  5
74
  8
1
 10
-3037.297615
 20
-97.593557
 30
0.0
 70
0
  0
VERTEX
  5
75
  8
1
 10
-3022.17131
 20
-100.748306
 30
0.0
 70
0
  0
VERTEX
  5
76
  8
1
 10
-3007.139255
 20
-103.657055
 30
0.0
 70
0
  0
VERTEX
  5
77
  8
1
 10
-2991.929936
 20
-106.382889
 30
0.0
 70
0
  0
VERTEX
  5
78
  8
1
 10
-2977.13405
 20
-108.83246
 30
0.0
 70
0
  0
VERTEX
  5
79
  8
1
 10
-2961.348745
 20
-111.232972
 30
0.0
 70
0
  0
VERTEX
  5
7A
  8
1
 10
-2946.548966
 20
-113.290529
 30
0.0
 70
0
  0
VERTEX
  5
7B
  8
1
 10
-2930.708369
 20
-115.292948
 30
0.0
 70
0
  0
VERTEX
  5
7C
  8
1
 10
-2915.380473
 20
-117.041495
 30
0.0
 70
0
  0
VERTEX
  5
7D
  8
1
 10
-2900.009253
 20
-118.615153
 30
0.0
 70
0
  0
VERTEX
  5
7E
  8
1
 10
-2884.906304
 20
-119.989855
 30
0.0
 70
0
  0
VERTEX
  5
7F
  8
1
 10
-2869.503832
 20
-121.221097
 30
0.0
 70
0
  0
VERTEX
  5
80
  8
1
 10
-2854.260454
 20
-122.277836
 30
0.0
 70
0
  0
VERTEX
  5
81
  8
1
 10
-2838.835928
 20
-123.193037
 30
0.0
 70
0
  0
VERTEX
  5
82
  8
1
 10
-2823.493893
 20
-123.962372
 30
0.0
 70
0
  0
VERTEX
  5
83
  8
1
 10
-2808.056094
 20
-124.609643
 30
0.0
 70
0
  0
VERTEX
  5
84
  8
1
 10
-2792.791235
 20
-125.144555
 30
0.0
 70
0
  0
VERTEX
  5
85
  8
1
 10
-2777.346095
 20
-125.592624
 30
0.0
 70
0
  0
VERTEX
  5
86
  8
1
 10
-2762.128761
 20
-125.92645
 30
0.0
 70
0
  0
VERTEX
  5
87
  8
1
 10
-2747.103553
 20
-126.143011
 30
0.0
 70
0
  0
VERTEX
  5
88
  8
1
 10
-2732.102969
 20
-126.274224
 30
0.0
 70
0
  0
VERTEX
  5
89
  8
1
 10
-2724.955139
 20
-126.30784
 30
0.0
 70
0
  0
VERTEX
  5
8A
  8
1
 10
-2710.155402
 20
-126.477024
 30
0.0
 70
0
  0
VERTEX
  5
8B
  8
1
 10
-2697.66598
 20
-126.395508
 30
0.0
 70
0
  0
VERTEX
  5
8C
  8
1
 10
-2682.595152
 20
-125.996762
 30
0.0
 70
0
  0
VERTEX
  5
8D
  8
1
 10
-2667.526381
 20
-125.432697
 30
0.0
 70
0
  0
VERTEX
  5
8E
  8
1
 10
-2652.39581
 20
-124.883442
 30
0.0
 70
0
  0
VERTEX
  5
8F
  8
1
 10
-2637.327067
 20
-124.38516
 30
0.0
 70
0
  0
VERTEX
  5
90
  8
1
 10
-2621.836008
 20
-123.793556
 30
0.0
 70
0
  0
VERTEX
  5
91
  8
1
 10
-2606.776398
 20
-123.060444
 30
0.0
 70
0
  0
VERTEX
  5
92
  8
1
 10
-2591.795014
 20
-122.150875
 30
0.0
 70
0
  0
VERTEX
  5
93
  8
1
 10
-2576.757377
 20
-121.057689
 30
0.0
 70
0
  0
VERTEX
  5
94
  8
1
 10
-2561.646553
 20
-119.800374
 30
0.0
 70
0
  0
VERTEX
  5
95
  8
1
 10
-2546.634318
 20
-118.400761
 30
0.0
 70
0
  0
VERTEX
  5
96
  8
1
 10
-2531.691555
 20
-116.8499
 30
0.0
 70
0
  0
VERTEX
  5
97
  8
1
 10
-2516.713013
 20
-115.126729
 30
0.0
 70
0
  0
VERTEX
  5
98
  8
1
 10
-2501.471315
 20
-113.187878
 30
0.0
 70
0
  0
VERTEX
  5
99
  8
1
 10
-2486.539145
 20
-111.09979
 30
0.0
 70
0
  0
VERTEX
  5
9A
  8
1
 10
-2471.322036
 20
-108.77673
 30
0.0
 70
0
  0
VERTEX
  5
9B
  8
1
 10
-2456.447785
 20
-106.309899
 30
0.0
 70
0
  0
VERTEX
  5
9C
  8
1
 10
-2441.463609
 20
-103.620231
 30
0.0
 70
0
  0
VERTEX
  5
9D
  8
1
 10
-2426.661197
 20
-100.753287
 30
0.0
 70
0
  0
VERTEX
  5
9E
  8
1
 10
-2411.618285
 20
-97.617528
 30
0.0
 70
0
  0
VERTEX
  5
9F
  8
1
 10
-2396.905488
 20
-94.321369
 30
0.0
 70
0
  0
VERTEX
  5
A0
  8
1
 10
-2381.875628
 20
-90.703739
 30
0.0
 70
0
  0
VERTEX
  5
A1
  8
1
 10
-2367.274397
 20
-86.943804
 30
0.0
 70
0
  0
VERTEX
  5
A2
  8
1
 10
-2352.275972
 20
-82.838586
 30
0.0
 70
0
  0
VERTEX
  5
A3
  8
1
 10
-2337.790347
 20
-78.655662
 30
0.0
 70
0
  0
VERTEX
  5
A4
  8
1
 10
-2322.918513
 20
-74.160241
 30
0.0
 70
0
  0
VERTEX
  5
A5
  8
1
 10
-2308.534807
 20
-69.639716
 30
0.0
 70
0
  0
VERTEX
  5
A6
  8
1
 10
-2293.890183
 20
-64.881277
 30
0.0
 70
0
  0
VERTEX
  5
A7
  8
1
 10
-2279.600689
 20
-60.071454
 30
0.0
 70
0
  0
VERTEX
  5
A8
  8
1
 10
-2265.011999
 20
-54.961874
 30
0.0
 70
0
  0
VERTEX
  5
A9
  8
1
 10
-2250.825683
 20
-49.855534
 30
0.0
 70
0
  0
VERTEX
  5
AA
  8
1
 10
-2236.299328
 20
-44.588406
 30
0.0
 70
0
  0
VERTEX
  5
AB
  8
1
 10
-2222.044745
 20
-39.421158
 30
0.0
 70
0
  0
VERTEX
  5
AC
  8
1
 10
-2207.48364
 20
-34.144443
 30
0.0
 70
0
  0
VERTEX
  5
AD
  8
1
 10
-2192.910015
 20
-28.864664
 30
0.0
 70
0
  0
VERTEX
  5
AE
  8
1
 10
-2178.295288
 20
-23.571544
 30
0.0
 70
0
  0
VERTEX
  5
AF
  8
1
 10
-2172.430267
 20
-34.958429
 30
0.0
 70
0
  0
VERTEX
  5
B0
  8
1
 10
-2171.058128
 20
-37.622527
 30
0.0
 70
0
  0
VERTEX
  5
B1
  8
1
 10
-2164.093526
 20
-51.144291
 30
0.0
 70
0
  0
VERTEX
  5
B2
  8
1
 10
-2157.095611
 20
-64.7307
 30
0.0
 70
0
  0
VERTEX
  5
B3
  8
1
 10
-2150.250732
 20
-78.02002
 30
0.0
 70
0
  0
VERTEX
  5
B4
  8
1
 10
-2145.9552
 20
-86.359806
 30
0.0
 70
0
  0
VERTEX
  5
B5
  8
1
 10
-2160.803368
 20
-91.797786
 30
0.0
 70
0
  0
VERTEX
  5
B6
  8
1
 10
-2175.151978
 20
-97.049375
 30
0.0
 70
0
  0
VERTEX
  5
B7
  8
1
 10
-2189.244196
 20
-102.204744
 30
0.0
 70
0
  0
VERTEX
  5
B8
  8
1
 10
-2203.334082
 20
-107.366435
 30
0.0
 70
0
  0
VERTEX
  5
B9
  8
1
 10
-2216.67511
 20
-112.261505
 30
0.0
 70
0
  0
VERTEX
  5
BA
  8
1
 10
-2217.731708
 20
-112.648456
 30
0.0
 70
0
  0
VERTEX
  5
BB
  8
1
 10
-2231.832391
 20
-117.780665
 30
0.0
 70
0
  0
VERTEX
  5
BC
  8
1
 10
-2246.299956
 20
-122.944513
 30
0.0
 70
0
  0
VERTEX
  5
BD
  8
1
 10
-2260.477862
 20
-127.859384
 30
0.0
 70
0
  0
VERTEX
  5
BE
  8
1
 10
-2275.161372
 20
-132.765771
 30
0.0
 70
0
  0
VERTEX
  5
BF
  8
1
 10
-2289.441747
 20
-137.375449
 30
0.0
 70
0
  0
VERTEX
  5
C0
  8
1
 10
-2304.122845
 20
-141.968872
 30
0.0
 70
0
  0
VERTEX
  5
C1
  8
1
 10
-2318.489301
 20
-146.302153
 30
0.0
 70
0
  0
VERTEX
  5
C2
  8
1
 10
-2333.298136
 20
-150.573948
 30
0.0
 70
0
  0
VERTEX
  5
C3
  8
1
 10
-2347.770454
 20
-154.540066
 30
0.0
 70
0
  0
VERTEX
  5
C4
  8
1
 10
-2362.386323
 20
-158.323779
 30
0.0
 70
0
  0
VERTEX
  5
C5
  8
1
 10
-2376.966195
 20
-161.874442
 30
0.0
 70
0
  0
VERTEX
  5
C6
  8
1
 10
-2391.935027
 20
-165.290419
 30
0.0
 70
0
  0
VERTEX
  5
C7
  8
1
 10
-2406.60974
 20
-168.426118
 30
0.0
 70
0
  0
VERTEX
  5
C8
  8
1
 10
-2421.571447
 20
-171.420699
 30
0.0
 70
0
  0
VERTEX
  5
C9
  8
1
 10
-2436.320854
 20
-174.183267
 30
0.0
 70
0
  0
VERTEX
  5
CA
  8
1
 10
-2451.332453
 20
-176.81054
 30
0.0
 70
0
  0
VERTEX
  5
CB
  8
1
 10
-2466.1426
 20
-179.226147
 30
0.0
 70
0
  0
VERTEX
  5
CC
  8
1
 10
-2481.095945
 20
-181.492017
 30
0.0
 70
0
  0
VERTEX
  5
CD
  8
1
 10
-2495.956482
 20
-183.575171
 30
0.0
 70
0
  0
VERTEX
  5
CE
  8
1
 10
-2511.099926
 20
-185.52833
 30
0.0
 70
0
  0
VERTEX
  5
CF
  8
1
 10
-2526.002376
 20
-187.286498
 30
0.0
 70
0
  0
VERTEX
  5
D0
  8
1
 10
-2541.131815
 20
-188.908417
 30
0.0
 70
0
  0
VERTEX
  5
D1
  8
1
 10
-2556.068076
 20
-190.351656
 30
0.0
 70
0
  0
VERTEX
  5
D2
  8
1
 10
-2571.223688
 20
-191.658783
 30
0.0
 70
0
  0
VERTEX
  5
D3
  8
1
 10
-2586.186319
 20
-192.796689
 30
0.0
 70
0
  0
VERTEX
  5
D4
  8
1
 10
-2601.359446
 20
-193.798564
 30
0.0
 70
0
  0
VERTEX
  5
D5
  8
1
 10
-2616.341554
 20
-194.640368
 30
0.0
 70
0
  0
VERTEX
  5
D6
  8
1
 10
-2631.522244
 20
-195.346712
 30
0.0
 70
0
  0
VERTEX
  5
D7
  8
1
 10
-2646.517749
 20
-195.90251
 30
0.0
 70
0
  0
VERTEX
  5
D8
  8
1
 10
-2661.695249
 20
-196.324288
 30
0.0
 70
0
  0
VERTEX
  5
D9
  8
1
 10
-2676.698519
 20
-196.60132
 30
0.0
 70
0
  0
VERTEX
  5
DA
  8
1
 10
-2691.80112
 20
-196.738442
 30
0.0
 70
0
  0
VERTEX
  5
DB
  8
1
 10
-2707.005657
 20
-196.758968
 30
0.0
 70
0
  0
VERTEX
  5
DC
  8
1
 10
-2721.928913
 20
-196.689058
 30
0.0
 70
0
  0
VERTEX
  5
DD
  8
1
 10
-2724.511414
 20
-196.666737
 30
0.0
 70
0
  0
SEQEND
  5
33
  8
1
  0
POLYLINE
  5
DE
  8
14
 66
1
 10
0.0
 20
0.0
 30
0.0
 70
1
  0
VERTEX
  5
E0
  8
14
 10
-2724.40155
 20
-183.967209
 30
0.0
 70
0
  0
VERTEX
  5
E1
  8
14
 10
-2724.40155
 20
-183.967209
 30
0.0
 70
0
  0
VERTEX
  5
E2
  8
14
 10
-2727.431354
 20
-184.006979
 30
0.0
 70
0
  0
VERTEX
  5
E3
  8
14
 10
-2741.971429
 20
-184.04581
 30
0.0
 70
0
  0
VERTEX
  5
E4
  8
14
 10
-2756.956346
 20
-183.917608
 30
0.0
 70
0
  0
VERTEX
  5
E5
  8
14
 10
-2773.540664
 20
-183.614834
 30
0.0
 70
0
  0
VERTEX
  5
E6
  8
14
 10
-2790.309474
 20
-183.151417
 30
0.0
 70
0
  0
VERTEX
  5
E7
  8
14
 10
-2806.188988
 20
-182.57249
 30
0.0
 70
0
  0
VERTEX
  5
E8
  8
14
 10
-2823.3162
 20
-181.797215
 30
0.0
 70
0
  0
VERTEX
  5
E9
  8
14
 10
-2838.44452
 20
-180.981604
 30
0.0
 70
0
  0
VERTEX
  5
EA
  8
14
 10
-2854.267268
 20
-179.995127
 30
0.0
 70
0
  0
VERTEX
  5
EB
  8
14
 10
-2870.706241
 20
-178.822093
 30
0.0
 70
0
  0
VERTEX
  5
EC
  8
14
 10
-2887.683269
 20
-177.446814
 30
0.0
 70
0
  0
VERTEX
  5
ED
  8
14
 10
-2905.120079
 20
-175.853605
 30
0.0
 70
0
  0
VERTEX
  5
EE
  8
14
 10
-2922.938503
 20
-174.026776
 30
0.0
 70
0
  0
VERTEX
  5
EF
  8
14
 10
-2941.060336
 20
-171.95064
 30
0.0
 70
0
  0
VERTEX
  5
F0
  8
14
 10
-2959.407374
 20
-169.609508
 30
0.0
 70
0
  0
VERTEX
  5
F1
  8
14
 10
-2977.901415
 20
-166.987692
 30
0.0
 70
0
  0
VERTEX
  5
F2
  8
14
 10
-2992.749939
 20
-164.677604
 30
0.0
 70
0
  0
VERTEX
  5
F3
  8
14
 10
-3009.00516
 20
-161.922316
 30
0.0
 70
0
  0
VERTEX
  5
F4
  8
14
 10
-3023.829636
 20
-159.191193
 30
0.0
 70
0
  0
VERTEX
  5
F5
  8
14
 10
-3038.619774
 20
-156.253231
 30
0.0
 70
0
  0
VERTEX
  5
F6
  8
14
 10
-3053.369403
 20
-153.106118
 30
0.0
 70
0
  0
VERTEX
  5
F7
  8
14
 10
-3068.07235
 20
-149.747545
 30
0.0
 70
0
  0
VERTEX
  5
F8
  8
14
 10
-3082.722444
 20
-146.175203
 30
0.0
 70
0
  0
VERTEX
  5
F9
  8
14
 10
-3097.50592
 20
-142.33537
 30
0.0
 70
0
  0
VERTEX
  5
FA
  8
14
 10
-3115.574704
 20
-137.330487
 30
0.0
 70
0
  0
VERTEX
  5
FB
  8
14
 10
-3133.214492
 20
-132.151318
 30
0.0
 70
0
  0
VERTEX
  5
FC
  8
14
 10
-3150.153105
 20
-126.935013
 30
0.0
 70
0
  0
VERTEX
  5
FD
  8
14
 10
-3166.118346
 20
-121.818729
 30
0.0
 70
0
  0
VERTEX
  5
FE
  8
14
 10
-3180.838018
 20
-116.93962
 30
0.0
 70
0
  0
VERTEX
  5
FF
  8
14
 10
-3196.474222
 20
-111.590877
 30
0.0
 70
0
  0
VERTEX
  5
100
  8
14
 10
-3211.326616
 20
-106.348153
 30
0.0
 70
0
  0
VERTEX
  5
101
  8
14
 10
-3227.756042
 20
-100.326405
 30
0.0
 70
0
  0
VERTEX
  5
102
  8
14
 10
-3227.756042
 20
-100.326405
 30
0.0
 70
0
  0
VERTEX
  5
103
  8
14
 10
-3227.756042
 20
-100.326405
 30
0.0
 70
0
  0
VERTEX
  5
104
  8
14
 10
-3221.224003
 20
-87.644553
 30
0.0
 70
0
  0
VERTEX
  5
105
  8
14
 10
-3214.265595
 20
-74.134894
 30
0.0
 70
0
  0
VERTEX
  5
106
  8
14
 10
-3207.027893
 20
-60.082965
 30
0.0
 70
0
  0
VERTEX
  5
107
  8
14
 10
-3207.027893
 20
-60.082965
 30
0.0
 70
0
  0
VERTEX
  5
108
  8
14
 10
-3191.746642
 20
-65.61755
 30
0.0
 70
0
  0
VERTEX
  5
109
  8
14
 10
-3177.138807
 20
-70.76731
 30
0.0
 70
0
  0
VERTEX
  5
10A
  8
14
 10
-3162.511748
 20
-75.74216
 30
0.0
 70
0
  0
VERTEX
  5
10B
  8
14
 10
-3147.709306
 20
-80.588842
 30
0.0
 70
0
  0
VERTEX
  5
10C
  8
14
 10
-3133.172895
 20
-85.192977
 30
0.0
 70
0
  0
VERTEX
  5
10D
  8
14
 10
-3118.277681
 20
-89.74544
 30
0.0
 70
0
  0
VERTEX
  5
10E
  8
14
 10
-3103.545792
 20
-94.051797
 30
0.0
 70
0
  0
VERTEX
  5
10F
  8
14
 10
-3088.535627
 20
-98.214954
 30
0.0
 70
0
  0
VERTEX
  5
110
  8
14
 10
-3073.465371
 20
-102.15489
 30
0.0
 70
0
  0
VERTEX
  5
111
  8
14
 10
-3058.461668
 20
-105.827876
 30
0.0
 70
0
  0
VERTEX
  5
112
  8
14
 10
-3043.27522
 20
-109.288713
 30
0.0
 70
0
  0
VERTEX
  5
113
  8
14
 10
-3028.037582
 20
-112.516624
 30
0.0
 70
0
  0
VERTEX
  5
114
  8
14
 10
-3012.553767
 20
-115.562148
 30
0.0
 70
0
  0
VERTEX
  5
115
  8
14
 10
-2997.230206
 20
-118.353128
 30
0.0
 70
0
  0
VERTEX
  5
116
  8
14
 10
-2982.327215
 20
-120.862119
 30
0.0
 70
0
  0
VERTEX
  5
117
  8
14
 10
-2966.935447
 20
-123.248368
 30
0.0
 70
0
  0
VERTEX
  5
118
  8
14
 10
-2952.021602
 20
-125.368847
 30
0.0
 70
0
  0
VERTEX
  5
119
  8
14
 10
-2936.575417
 20
-127.372731
 30
0.0
 70
0
  0
VERTEX
  5
11A
  8
14
 10
-2921.342769
 20
-129.163192
 30
0.0
 70
0
  0
VERTEX
  5
11B
  8
14
 10
-2905.853671
 20
-130.801022
 30
0.0
 70
0
  0
VERTEX
  5
11C
  8
14
 10
-2890.487463
 20
-132.250515
 30
0.0
 70
0
  0
VERTEX
  5
11D
  8
14
 10
-2874.965198
 20
-133.543279
 30
0.0
 70
0
  0
VERTEX
  5
11E
  8
14
 10
-2859.430844
 20
-134.667972
 30
0.0
 70
0
  0
VERTEX
  5
11F
  8
14
 10
-2843.960178
 20
-135.625874
 30
0.0
 70
0
  0
VERTEX
  5
120
  8
14
 10
-2828.610785
 20
-136.43385
 30
0.0
 70
0
  0
VERTEX
  5
121
  8
14
 10
-2813.61518
 20
-137.102036
 30
0.0
 70
0
  0
VERTEX
  5
122
  8
14
 10
-2798.417035
 20
-137.668936
 30
0.0
 70
0
  0
VERTEX
  5
123
  8
14
 10
-2783.34023
 20
-138.130189
 30
0.0
 70
0
  0
VERTEX
  5
124
  8
14
 10
-2768.156067
 20
-138.498737
 30
0.0
 70
0
  0
VERTEX
  5
125
  8
14
 10
-2753.06702
 20
-138.772062
 30
0.0
 70
0
  0
VERTEX
  5
126
  8
14
 10
-2738.19943
 20
-138.948113
 30
0.0
 70
0
  0
VERTEX
  5
127
  8
14
 10
-2724.755554
 20
-139.010611
 30
0.0
 70
0
  0
VERTEX
  5
128
  8
14
 10
-2717.553057
 20
-139.117643
 30
0.0
 70
0
  0
VERTEX
  5
129
  8
14
 10
-2702.404441
 20
-139.157144
 30
0.0
 70
0
  0
VERTEX
  5
12A
  8
14
 10
-2689.558434
 20
-138.96665
 30
0.0
 70
0
  0
VERTEX
  5
12B
  8
14
 10
-2674.387745
 20
-138.450432
 30
0.0
 70
0
  0
VERTEX
  5
12C
  8
14
 10
-2659.21854
 20
-137.827694
 30
0.0
 70
0
  0
VERTEX
  5
12D
  8
14
 10
-2644.223148
 20
-137.305206
 30
0.0
 70
0
  0
VERTEX
  5
12E
  8
14
 10
-2629.051679
 20
-136.796412
 30
0.0
 70
0
  0
VERTEX
  5
12F
  8
14
 10
-2613.913778
 20
-136.153738
 30
0.0
 70
0
  0
VERTEX
  5
130
  8
14
 10
-2598.755399
 20
-135.320405
 30
0.0
 70
0
  0
VERTEX
  5
131
  8
14
 10
-2583.606789
 20
-134.308611
 30
0.0
 70
0
  0
VERTEX
  5
132
  8
14
 10
-2568.469776
 20
-133.130631
 30
0.0
 70
0
  0
VERTEX
  5
133
  8
14
 10
-2553.213994
 20
-131.78643
 30
0.0
 70
0
  0
VERTEX
  5
134
  8
14
 10
-2538.105661
 20
-130.304071
 30
0.0
 70
0
  0
VERTEX
  5
135
  8
14
 10
-2523.014851
 20
-128.659181
 30
0.0
 70
0
  0
VERTEX
  5
136
  8
14
 10
-2507.908648
 20
-126.833096
 30
0.0
 70
0
  0
VERTEX
  5
137
  8
14
 10
-2492.860595
 20
-124.829714
 30
0.0
 70
0
  0
VERTEX
  5
138
  8
14
 10
-2477.448177
 20
-122.583853
 30
0.0
 70
0
  0
VERTEX
  5
139
  8
14
 10
-2462.455054
 20
-120.204671
 30
0.0
 70
0
  0
VERTEX
  5
13A
  8
14
 10
-2447.05777
 20
-117.553516
 30
0.0
 70
0
  0
VERTEX
  5
13B
  8
14
 10
-2432.133353
 20
-114.775162
 30
0.0
 70
0
  0
VERTEX
  5
13C
  8
14
 10
-2416.963091
 20
-111.733183
 30
0.0
 70
0
  0
VERTEX
  5
13D
  8
14
 10
-2402.123015
 20
-108.53466
 30
0.0
 70
0
  0
VERTEX
  5
13E
  8
14
 10
-2387.423842
 20
-105.133757
 30
0.0
 70
0
  0
VERTEX
  5
13F
  8
14
 10
-2372.688598
 20
-101.480371
 30
0.0
 70
0
  0
VERTEX
  5
140
  8
14
 10
-2358.009915
 20
-97.603962
 30
0.0
 70
0
  0
VERTEX
  5
141
  8
14
 10
-2343.3884
 20
-93.517484
 30
0.0
 70
0
  0
VERTEX
  5
142
  8
14
 10
-2328.779962
 20
-89.221845
 30
0.0
 70
0
  0
VERTEX
  5
143
  8
14
 10
-2314.267558
 20
-84.767848
 30
0.0
 70
0
  0
VERTEX
  5
144
  8
14
 10
-2299.850293
 20
-80.188348
 30
0.0
 70
0
  0
VERTEX
  5
145
  8
14
 10
-2285.426727
 20
-75.453727
 30
0.0
 70
0
  0
VERTEX
  5
146
  8
14
 10
-2271.211003
 20
-70.610176
 30
0.0
 70
0
  0
VERTEX
  5
147
  8
14
 10
-2256.627012
 20
-65.464219
 30
0.0
 70
0
  0
VERTEX
  5
148
  8
14
 10
-2241.720428
 20
-60.188251
 30
0.0
 70
0
  0
VERTEX
  5
149
  8
14
 10
-2241.77475
 20
-60.082984
 30
0.0
 70
0
  0
VERTEX
  5
14A
  8
14
 10
-2234.256703
 20
-74.679043
 30
0.0
 70
0
  0
VERTEX
  5
14B
  8
14
 10
-2227.137614
 20
-88.500726
 30
0.0
 70
0
  0
VERTEX
  5
14C
  8
14
 10
-2221.0466
 20
-100.326405
 30
0.0
 70
0
  0
VERTEX
  5
14D
  8
14
 10
-2221.0466
 20
-100.326405
 30
0.0
 70
0
  0
VERTEX
  5
14E
  8
14
 10
-2237.045319
 20
-106.209358
 30
0.0
 70
0
  0
VERTEX
  5
14F
  8
14
 10
-2252.840653
 20
-111.79551
 30
0.0
 70
0
  0
VERTEX
  5
150
  8
14
 10
-2267.40617
 20
-116.784933
 30
0.0
 70
0
  0
VERTEX
  5
151
  8
14
 10
-2281.967128
 20
-121.621507
 30
0.0
 70
0
  0
VERTEX
  5
152
  8
14
 10
-2297.768934
 20
-126.694825
 30
0.0
 70
0
  0
VERTEX
  5
153
  8
14
 10
-2312.403535
 20
-131.221637
 30
0.0
 70
0
  0
VERTEX
  5
154
  8
14
 10
-2327.604941
 20
-135.735149
 30
0.0
 70
0
  0
VERTEX
  5
155
  8
14
 10
-2343.194352
 20
-140.144578
 30
0.0
 70
0
  0
VERTEX
  5
156
  8
14
 10
-2359.656755
 20
-144.530326
 30
0.0
 70
0
  0
VERTEX
  5
157
  8
14
 10
-2375.543363
 20
-148.480712
 30
0.0
 70
0
  0
VERTEX
  5
158
  8
14
 10
-2391.495492
 20
-152.180927
 30
0.0
 70
0
  0
VERTEX
  5
159
  8
14
 10
-2407.506611
 20
-155.641366
 30
0.0
 70
0
  0
VERTEX
  5
15A
  8
14
 10
-2423.570137
 20
-158.872412
 30
0.0
 70
0
  0
VERTEX
  5
15B
  8
14
 10
-2439.679558
 20
-161.884461
 30
0.0
 70
0
  0
VERTEX
  5
15C
  8
14
 10
-2456.450804
 20
-164.791335
 30
0.0
 70
0
  0
VERTEX
  5
15D
  8
14
 10
-2472.636356
 20
-167.383428
 30
0.0
 70
0
  0
VERTEX
  5
15E
  8
14
 10
-2488.854227
 20
-169.775526
 30
0.0
 70
0
  0
VERTEX
  5
15F
  8
14
 10
-2505.101597
 20
-171.970695
 30
0.0
 70
0
  0
VERTEX
  5
160
  8
14
 10
-2521.375663
 20
-173.972001
 30
0.0
 70
0
  0
VERTEX
  5
161
  8
14
 10
-2537.673511
 20
-175.782496
 30
0.0
 70
0
  0
VERTEX
  5
162
  8
14
 10
-2553.992337
 20
-177.405246
 30
0.0
 70
0
  0
VERTEX
  5
163
  8
14
 10
-2570.329302
 20
-178.843313
 30
0.0
 70
0
  0
VERTEX
  5
164
  8
14
 10
-2586.681605
 20
-180.099762
 30
0.0
 70
0
  0
VERTEX
  5
165
  8
14
 10
-2603.046328
 20
-181.177647
 30
0.0
 70
0
  0
VERTEX
  5
166
  8
14
 10
-2619.420672
 20
-182.080035
 30
0.0
 70
0
  0
VERTEX
  5
167
  8
14
 10
-2635.801795
 20
-182.809986
 30
0.0
 70
0
  0
VERTEX
  5
168
  8
14
 10
-2652.186895
 20
-183.370563
 30
0.0
 70
0
  0
VERTEX
  5
169
  8
14
 10
-2668.573058
 20
-183.764825
 30
0.0
 70
0
  0
VERTEX
  5
16A
  8
14
 10
-2684.95748
 20
-183.995836
 30
0.0
 70
0
  0
VERTEX
  5
16B
  8
14
 10
-2700.590958
 20
-184.068082
 30
0.0
 70
0
  0
VERTEX
  5
16C
  8
14
 10
-2716.69462
 20
-184.023113
 30
0.0
 70
0
  0
VERTEX
  5
16D
  8
14
 10
-2724.40155
 20
-183.967209
 30
0.0
 70
0
  0
SEQEND
  5
DF
  8
14
  0
POLYLINE
  5
16E
  8
8
 66
1
 10
0.0
 20
0.0
 30
0.0
 70
0
  0
VERTEX
  5
170
  8
8
 10
-2724.40155
 20
-138.985529
 30
0.0
 70
0
  0
VERTEX
  5
171
  8
8
 10
-2724.40155
 20
-154.718216
 30
0.0
 70
0
  0
VERTEX
  5
172
  8
8
 10
-2724.40155
 20
-169.734132
 30
0.0
 70
0
  0
VERTEX
  5
173
  8
8
 10
-2724.40155
 20
-183.967209
 30
0.0
 70
0
  0
SEQEND
  5
16F
  8
8
  0
POINT
  5
174
  8
4
 10
-2724.296875
 20
-196.667709
 30
0.0
  0
POINT
  5
175
  8
4
 10
-3233.621521
 20
-111.714048
 30
0.0
  0
POINT
  5
176
  8
4
 10
-3234.385071
 20
-111.436014
 30
0.0
  0
POINT
  5
177
  8
4
 10
-3276.376343
 20
-34.966199
 30
0.0
  0
POINT
  5
178
  8
4
 10
-2172.430267
 20
-34.958429
 30
0.0
  0
POINT
  5
179
  8
4
 10
-2216.67511
 20
-112.261505
 30
0.0
  0
POINT
  5
17A
  8
4
 10
-2724.511414
 20
-196.666737
 30
0.0
  0
POINT
  5
17B
  8
4
 10
-2724.40155
 20
-183.967209
 30
0.0
  0
POINT
  5
17C
  8
4
 10
-3227.756042
 20
-100.326405
 30
0.0
  0
POINT
  5
17D
  8
4
 10
-3227.756042
 20
-100.326405
 30
0.0
  0
POINT
  5
17E
  8
4
 10
-3207.027893
 20
-60.082965
 30
0.0
  0
POINT
  5
17F
  8
4
 10
-2241.77475
 20
-60.082984
 30
0.0
  0
POINT
  5
180
  8
4
 10
-2221.0466
 20
-100.326405
 30
0.0
  0
POINT
  5
181
  8
4
 10
-2724.40155
 20
-183.967209
 30
0.0
  0
LINE
  5
182
  8
7
 10
-2722.257385
 20
-132.500181
 30
0.0
 11
-2722.257385
 21
-194.629478
 31
0.0
  0
ENDSEC
  0
EOF
