  0
SECTION
  2
HEADER
  9
$ACADVER
  1
AC1009
  9
$DWGCODEPAGE
  3
ANSI_1252
  9
$INSBASE
 10
0.0
 20
0.0
 30
0.0
  9
$EXTMIN
 10
1e+20
 20
1e+20
 30
1e+20
  9
$EXTMAX
 10
-1e+20
 20
-1e+20
 30
-1e+20
  9
$LIMMIN
 10
0.0
 20
0.0
  9
$LIMMAX
 10
420.0
 20
297.0
  9
$ORTHOMODE
 70
0
  9
$REGENMODE
 70
1
  9
$FILLMODE
 70
1
  9
$DRAGMODE
 70
2
  9
$QTEXTMODE
 70
0
  9
$MIRRTEXT
 70
1
  9
$OSMODE
 70
20583
  9
$LTSCALE
 40
1.0
  9
$ATTMODE
 70
1
  9
$TEXTSIZE
 40
2.5
  9
$TRACEWID
 40
1.0
  9
$TEXTSTYLE
  7
Standard
  9
$CLAYER
  8
0
  9
$CELTYPE
  6
ByLayer
  9
$CECOLOR
 62
256
  9
$DIMSCALE
 40
1.0
  9
$DIMASZ
 40
2.5
  9
$DIMEXO
 40
0.625
  9
$DIMDLI
 40
3.75
  9
$DIMRND
 40
0.0
  9
$DIMDLE
 40
0.0
  9
$DIMEXE
 40
1.25
  9
$DIMTP
 40
0.0
  9
$DIMTM
 40
0.0
  9
$DIMTXT
 40
2.5
  9
$DIMCEN
 40
2.5
  9
$DIMTSZ
 40
0.0
  9
$DIMTOL
 70
0
  9
$DIMLIM
 70
0
  9
$DIMTIH
 70
0
  9
$DIMTOH
 70
0
  9
$DIMSE1
 70
0
  9
$DIMSE2
 70
0
  9
$DIMTAD
 70
1
  9
$DIMZIN
 70
8
  9
$DIMBLK
  1

  9
$DIMASO
 70
1
  9
$DIMSHO
 70
1
  9
$DIMPOST
  1

  9
$DIMAPOST
  1

  9
$DIMALT
 70
0
  9
$DIMALTD
 70
3
  9
$DIMALTF
 40
0.03937007874
  9
$DIMLFAC
 40
1.0
  9
$DIMTOFL
 70
1
  9
$DIMTVP
 40
0.0
  9
$DIMTIX
 70
0
  9
$DIMSOXD
 70
0
  9
$DIMSAH
 70
0
  9
$DIMBLK1
  1

  9
$DIMBLK2
  1

  9
$DIMSTYLE
  2
ISO-25
  9
$DIMCLRD
 70
0
  9
$DIMCLRE
 70
0
  9
$DIMCLRT
 70
0
  9
$DIMTFAC
 40
1.0
  9
$DIMGAP
 40
0.625
  9
$COORDS
 70
1
  9
$ATTDIA
 70
0
  9
$ATTREQ
 70
1
  9
$HANDLING
 70
1
  9
$LUNITS
 70
2
  9
$LUPREC
 70
4
  9
$SKETCHINC
 40
1.0
  9
$FILLETRAD
 40
10.0
  9
$AUNITS
 70
0
  9
$AUPREC
 70
2
  9
$MENU
  1
.
  9
$ELEVATION
 40
0.0
  9
$PELEVATION
 40
0.0
  9
$THICKNESS
 40
0.0
  9
$LIMCHECK
 70
0
  9
$CHAMFERA
 40
0.0
  9
$CHAMFERB
 40
0.0
  9
$SKPOLY
 70
0
  9
$TDCREATE
 40
2461259.4353935183
  9
$TDUPDATE
 40
2461259.4353935183
  9
$TDINDWG
 40
0.0
  9
$TDUSRTIMER
 40
0.0
  9
$USRTIMER
 70
1
  9
$ANGBASE
 50
0.0
  9
$ANGDIR
 70
0
  9
$PDMODE
 70
0
  9
$PDSIZE
 40
0.0
  9
$PLINEWID
 40
0.0
  9
$SPLFRAME
 70
0
  9
$SPLINETYPE
 70
6
  9
$SPLINESEGS
 70
8
  9
$HANDSEED
  5
E9
  9
$SURFTAB1
 70
6
  9
$SURFTAB2
 70
6
  9
$SURFTYPE
 70
6
  9
$SURFU
 70
6
  9
$SURFV
 70
6
  9
$UCSNAME
  2

  9
$UCSORG
 10
0.0
 20
0.0
 30
0.0
  9
$UCSXDIR
 10
1.0
 20
0.0
 30
0.0
  9
$UCSYDIR
 10
0.0
 20
1.0
 30
0.0
  9
$PUCSNAME
  2

  9
$PUCSORG
 10
0.0
 20
0.0
 30
0.0
  9
$PUCSXDIR
 10
1.0
 20
0.0
 30
0.0
  9
$PUCSYDIR
 10
0.0
 20
1.0
 30
0.0
  9
$USERI1
 70
0
  9
$USERI2
 70
0
  9
$USERI3
 70
0
  9
$USERI4
 70
0
  9
$USERI5
 70
0
  9
$USERR1
 40
0.0
  9
$USERR2
 40
0.0
  9
$USERR3
 40
0.0
  9
$USERR4
 40
0.0
  9
$USERR5
 40
0.0
  9
$WORLDVIEW
 70
1
  9
$SHADEDGE
 70
3
  9
$SHADEDIF
 70
70
  9
$TILEMODE
 70
1
  9
$MAXACTVP
 70
64
  9
$PLIMCHECK
 70
0
  9
$PEXTMIN
 10
1e+20
 20
1e+20
 30
1e+20
  9
$PEXTMAX
 10
-1e+20
 20
-1e+20
 30
-1e+20
  9
$PLIMMIN
 10
0.0
 20
0.0
  9
$PLIMMAX
 10
420.0
 20
297.0
  9
$UNITMODE
 70
0
  9
$VISRETAIN
 70
1
  9
$PLINEGEN
 70
0
  9
$PSLTSCALE
 70
1
  0
ENDSEC
  0
SECTION
  2
TABLES
  0
TABLE
  2
VPORT
 70
1
  0
VPORT
  5
23
  2
*Active
 70
0
 10
0.0
 20
0.0
 11
1.0
 21
1.0
 12
0.0
 22
0.0
 13
0.0
 23
0.0
 14
0.5
 24
0.5
 15
0.5
 25
0.5
 16
0.0
 26
0.0
 36
1.0
 17
0.0
 27
0.0
 37
0.0
 40
1000.0
 41
1.34
 42
50.0
 43
0.0
 44
0.0
 50
0.0
 51
0.0
 71
0
 72
1000
 73
1
 74
3
 75
0
 76
0
 77
0
 78
0
  0
ENDTAB
  0
TABLE
  2
LTYPE
 70
3
  0
LTYPE
  5
24
  2
ByBlock
 70
0
  3

 72
65
 73
0
 40
0.0
  0
LTYPE
  5
25
  2
ByLayer
 70
0
  3

 72
65
 73
0
 40
0.0
  0
LTYPE
  5
26
  2
Continuous
 70
0
  3

 72
65
 73
0
 40
0.0
  0
ENDTAB
  0
TABLE
  2
LAYER
 70
4
  0
LAYER
  5
27
  2
0
 70
0
 62
7
  6
Continuous
  0
LAYER
  5
28
  2
Defpoints
 70
0
 62
7
  6
Continuous
  0
LAYER
  5
2D
  2
1
 70
0
 62
1
  6
Continuous
  0
LAYER
  5
2E
  2
7
 70
0
 62
7
  6
Continuous
  0
ENDTAB
  0
TABLE
  2
STYLE
 70
1
  0
STYLE
  5
29
  2
Standard
 70
0
 40
0.0
 41
1.0
 50
0.0
 71
0
 42
2.5
  3
txt
  4

  0
ENDTAB
  0
TABLE
  2
VIEW
 70
0
  0
ENDTAB
  0
TABLE
  2
UCS
 70
0
  0
ENDTAB
  0
TABLE
  2
APPID
 70
3
  0
APPID
  5
2A
  2
ACAD
 70
0
  0
APPID
  5
E7
  2
HATCHBACKGROUNDCOLOR
 70
0
  0
APPID
  5
E8
  2
EZDXF
 70
0
  0
ENDTAB
  0
TABLE
  2
DIMSTYLE
 70
1
  0
DIMSTYLE
105
2B
  2
Standard
 70
0
  3

  4

  5

  6

  7

 40
1.0
 41
2.5
 42
0.625
 43
3.75
 44
1.25
 45
0.0
 46
0.0
 47
0.0
 48
0.0
140
2.5
141
2.5
142
0.0
143
0.03937007874
144
1.0
145
0.0
146
1.0
147
0.625
 71
0
 72
0
 73
0
 74
0
 75
0
 76
0
 77
1
 78
8
170
0
171
3
172
1
173
0
174
0
175
0
176
0
177
0
178
0
  0
ENDTAB
  0
ENDSEC
  0
SECTION
  2
BLOCKS
  0
BLOCK
  5
18
  8
0
  2
$Model_Space
 70
0
 10
0.0
 20
0.0
 30
0.0
  3
$Model_Space
  1

1001
EZDXF
1000
CREATED_BY_EZDXF
1000
1.4.4 @ 2026-08-06T02:26:58.227015+00:00
1000
WRITTEN_BY_EZDXF
1000
1.4.4 @ 2026-08-06T02:26:58.229014+00:00
  0
ENDBLK
  5
19
  8
0
  0
BLOCK
  5
1C
  8
0
  2
$Paper_Space
 70
0
 10
0.0
 20
0.0
 30
0.0
  3
$Paper_Space
  1

  0
ENDBLK
  5
1D
  8
0
  0
ENDSEC
  0
SECTION
  2
ENTITIES
  0
POLYLINE
  5
2F
  8
1
 66
1
 10
0.0
 20
0.0
 30
0.0
 70
1
  0
VERTEX
  5
31
  8
1
 10
-2724.398804
 20
-202.383537
 30
0.0
 70
0
  0
VERTEX
  5
32
  8
1
 10
-2724.256287
 20
-202.381897
 30
0.0
 70
0
  0
VERTEX
  5
33
  8
1
 10
-2733.86021
 20
-202.491844
 30
0.0
 70
0
  0
VERTEX
  5
34
  8
1
 10
-2748.99065
 20
-202.56644
 30
0.0
 70
0
  0
VERTEX
  5
35
  8
1
 10
-2764.21297
 20
-202.484393
 30
0.0
 70
0
  0
VERTEX
  5
36
  8
1
 10
-2779.577187
 20
-202.259436
 30
0.0
 70
0
  0
VERTEX
  5
37
  8
1
 10
-2794.795726
 20
-201.915039
 30
0.0
 70
0
  0
VERTEX
  5
38
  8
1
 10
-2809.993585
 20
-201.458209
 30
0.0
 70
0
  0
VERTEX
  5
39
  8
1
 10
-2825.205574
 20
-200.890954
 30
0.0
 70
0
  0
VERTEX
  5
3A
  8
1
 10
-2840.397412
 20
-200.211079
 30
0.0
 70
0
  0
VERTEX
  5
3B
  8
1
 10
-2855.599031
 20
-199.414387
 30
0.0
 70
0
  0
VERTEX
  5
3C
  8
1
 10
-2870.635883
 20
-198.51118
 30
0.0
 70
0
  0
VERTEX
  5
3D
  8
1
 10
-2885.823595
 20
-197.480998
 30
0.0
 70
0
  0
VERTEX
  5
3E
  8
1
 10
-2901.22468
 20
-196.311013
 30
0.0
 70
0
  0
VERTEX
  5
3F
  8
1
 10
-2916.393342
 20
-195.03063
 30
0.0
 70
0
  0
VERTEX
  5
40
  8
1
 10
-2931.547859
 20
-193.619638
 30
0.0
 70
0
  0
VERTEX
  5
41
  8
1
 10
-2946.691595
 20
-192.072613
 30
0.0
 70
0
  0
VERTEX
  5
42
  8
1
 10
-2961.768906
 20
-190.389818
 30
0.0
 70
0
  0
VERTEX
  5
43
  8
1
 10
-2976.880305
 20
-188.553229
 30
0.0
 70
0
  0
VERTEX
  5
44
  8
1
 10
-2991.936717
 20
-186.565338
 30
0.0
 70
0
  0
VERTEX
  5
45
  8
1
 10
-3007.005718
 20
-184.408381
 30
0.0
 70
0
  0
VERTEX
  5
46
  8
1
 10
-3022.181004
 20
-182.055799
 30
0.0
 70
0
  0
VERTEX
  5
47
  8
1
 10
-3037.19434
 20
-179.539717
 30
0.0
 70
0
  0
VERTEX
  5
48
  8
1
 10
-3052.320935
 20
-176.806942
 30
0.0
 70
0
  0
VERTEX
  5
49
  8
1
 10
-3067.264713
 20
-173.90598
 30
0.0
 70
0
  0
VERTEX
  5
4A
  8
1
 10
-3082.05946
 20
-170.833949
 30
0.0
 70
0
  0
VERTEX
  5
4B
  8
1
 10
-3096.922417
 20
-167.543351
 30
0.0
 70
0
  0
VERTEX
  5
4C
  8
1
 10
-3111.573373
 20
-164.091104
 30
0.0
 70
0
  0
VERTEX
  5
4D
  8
1
 10
-3126.340973
 20
-160.396728
 30
0.0
 70
0
  0
VERTEX
  5
4E
  8
1
 10
-3141.071465
 20
-156.504315
 30
0.0
 70
0
  0
VERTEX
  5
4F
  8
1
 10
-3155.739708
 20
-152.433199
 30
0.0
 70
0
  0
VERTEX
  5
50
  8
1
 10
-3170.573078
 20
-148.131684
 30
0.0
 70
0
  0
VERTEX
  5
51
  8
1
 10
-3185.14828
 20
-143.739933
 30
0.0
 70
0
  0
VERTEX
  5
52
  8
1
 10
-3199.938478
 20
-139.138608
 30
0.0
 70
0
  0
VERTEX
  5
53
  8
1
 10
-3214.437069
 20
-134.499547
 30
0.0
 70
0
  0
VERTEX
  5
54
  8
1
 10
-3228.771099
 20
-129.764838
 30
0.0
 70
0
  0
VERTEX
  5
55
  8
1
 10
-3243.175003
 20
-124.840386
 30
0.0
 70
0
  0
VERTEX
  5
56
  8
1
 10
-3257.770772
 20
-119.713825
 30
0.0
 70
0
  0
VERTEX
  5
57
  8
1
 10
-3272.105711
 20
-114.592047
 30
0.0
 70
0
  0
VERTEX
  5
58
  8
1
 10
-3274.727478
 20
-113.648729
 30
0.0
 70
0
  0
VERTEX
  5
59
  8
1
 10
-3275.426941
 20
-113.398438
 30
0.0
 70
0
  0
VERTEX
  5
5A
  8
1
 10
-3286.483667
 20
-109.419002
 30
0.0
 70
0
  0
VERTEX
  5
5B
  8
1
 10
-3300.80885
 20
-104.270048
 30
0.0
 70
0
  0
VERTEX
  5
5C
  8
1
 10
-3315.233684
 20
-99.090447
 30
0.0
 70
0
  0
VERTEX
  5
5D
  8
1
 10
-3329.441659
 20
-93.985895
 30
0.0
 70
0
  0
VERTEX
  5
5E
  8
1
 10
-3344.159851
 20
-88.694639
 30
0.0
 70
0
  0
VERTEX
  5
5F
  8
1
 10
-3339.862317
 20
-80.350993
 30
0.0
 70
0
  0
VERTEX
  5
60
  8
1
 10
-3333.017704
 20
-67.062291
 30
0.0
 70
0
  0
VERTEX
  5
61
  8
1
 10
-3326.01287
 20
-53.462626
 30
0.0
 70
0
  0
VERTEX
  5
62
  8
1
 10
-3318.903647
 20
-39.66021
 30
0.0
 70
0
  0
VERTEX
  5
63
  8
1
 10
-3317.652588
 20
-37.231374
 30
0.0
 70
0
  0
VERTEX
  5
64
  8
1
 10
-3311.782227
 20
-25.833986
 30
0.0
 70
0
  0
VERTEX
  5
65
  8
1
 10
-3297.174646
 20
-31.042106
 30
0.0
 70
0
  0
VERTEX
  5
66
  8
1
 10
-3282.671814
 20
-36.210197
 30
0.0
 70
0
  0
VERTEX
  5
67
  8
1
 10
-3268.39067
 20
-41.297874
 30
0.0
 70
0
  0
VERTEX
  5
68
  8
1
 10
-3254.112397
 20
-46.393716
 30
0.0
 70
0
  0
VERTEX
  5
69
  8
1
 10
-3239.622021
 20
-51.573289
 30
0.0
 70
0
  0
VERTEX
  5
6A
  8
1
 10
-3225.329334
 20
-56.628827
 30
0.0
 70
0
  0
VERTEX
  5
6B
  8
1
 10
-3210.844171
 20
-61.630004
 30
0.0
 70
0
  0
VERTEX
  5
6C
  8
1
 10
-3196.467418
 20
-66.441571
 30
0.0
 70
0
  0
VERTEX
  5
6D
  8
1
 10
-3181.891805
 20
-71.150559
 30
0.0
 70
0
  0
VERTEX
  5
6E
  8
1
 10
-3167.420309
 20
-75.669495
 30
0.0
 70
0
  0
VERTEX
  5
6F
  8
1
 10
-3153.032208
 20
-80.019288
 30
0.0
 70
0
  0
VERTEX
  5
70
  8
1
 10
-3138.476078
 20
-84.257092
 30
0.0
 70
0
  0
VERTEX
  5
71
  8
1
 10
-3123.67576
 20
-88.373782
 30
0.0
 70
0
  0
VERTEX
  5
72
  8
1
 10
-3109.016957
 20
-92.242677
 30
0.0
 70
0
  0
VERTEX
  5
73
  8
1
 10
-3094.076395
 20
-95.959306
 30
0.0
 70
0
  0
VERTEX
  5
74
  8
1
 10
-3079.312496
 20
-99.405565
 30
0.0
 70
0
  0
VERTEX
  5
75
  8
1
 10
-3064.380637
 20
-102.665204
 30
0.0
 70
0
  0
VERTEX
  5
76
  8
1
 10
-3049.525342
 20
-105.693344
 30
0.0
 70
0
  0
VERTEX
  5
77
  8
1
 10
-3034.362677
 20
-108.575318
 30
0.0
 70
0
  0
VERTEX
  5
78
  8
1
 10
-3019.433671
 20
-111.215441
 30
0.0
 70
0
  0
VERTEX
  5
79
  8
1
 10
-3004.608539
 20
-113.650533
 30
0.0
 70
0
  0
VERTEX
  5
7A
  8
1
 10
-2989.620135
 20
-115.929343
 30
0.0
 70
0
  0
VERTEX
  5
7B
  8
1
 10
-2974.560632
 20
-118.039098
 30
0.0
 70
0
  0
VERTEX
  5
7C
  8
1
 10
-2959.523477
 20
-119.971059
 30
0.0
 70
0
  0
VERTEX
  5
7D
  8
1
 10
-2944.281523
 20
-121.756512
 30
0.0
 70
0
  0
VERTEX
  5
7E
  8
1
 10
-2929.205618
 20
-123.357323
 30
0.0
 70
0
  0
VERTEX
  5
7F
  8
1
 10
-2914.106036
 20
-124.801735
 30
0.0
 70
0
  0
VERTEX
  5
80
  8
1
 10
-2899.000419
 20
-126.091169
 30
0.0
 70
0
  0
VERTEX
  5
81
  8
1
 10
-2883.627057
 20
-127.246956
 30
0.0
 70
0
  0
VERTEX
  5
82
  8
1
 10
-2868.498717
 20
-128.235816
 30
0.0
 70
0
  0
VERTEX
  5
83
  8
1
 10
-2853.474762
 20
-129.079016
 30
0.0
 70
0
  0
VERTEX
  5
84
  8
1
 10
-2838.331383
 20
-129.799839
 30
0.0
 70
0
  0
VERTEX
  5
85
  8
1
 10
-2823.021676
 20
-130.409839
 30
0.0
 70
0
  0
VERTEX
  5
86
  8
1
 10
-2807.869442
 20
-130.910449
 30
0.0
 70
0
  0
VERTEX
  5
87
  8
1
 10
-2792.868758
 20
-131.317578
 30
0.0
 70
0
  0
VERTEX
  5
88
  8
1
 10
-2777.711645
 20
-131.636828
 30
0.0
 70
0
  0
VERTEX
  5
89
  8
1
 10
-2762.606831
 20
-131.855189
 30
0.0
 70
0
  0
VERTEX
  5
8A
  8
1
 10
-2747.446903
 20
-131.97976
 30
0.0
 70
0
  0
VERTEX
  5
8B
  8
1
 10
-2732.217264
 20
-132.02501
 30
0.0
 70
0
  0
VERTEX
  5
8C
  8
1
 10
-2724.60083
 20
-132.026234
 30
0.0
 70
0
  0
VERTEX
  5
8D
  8
1
 10
-2716.371125
 20
-132.190496
 30
0.0
 70
0
  0
VERTEX
  5
8E
  8
1
 10
-2701.460946
 20
-132.316975
 30
0.0
 70
0
  0
VERTEX
  5
8F
  8
1
 10
-2688.251129
 20
-132.213109
 30
0.0
 70
0
  0
VERTEX
  5
90
  8
1
 10
-2672.934976
 20
-131.814984
 30
0.0
 70
0
  0
VERTEX
  5
91
  8
1
 10
-2657.620174
 20
-131.274875
 30
0.0
 70
0
  0
VERTEX
  5
92
  8
1
 10
-2642.262257
 20
-130.772738
 30
0.0
 70
0
  0
VERTEX
  5
93
  8
1
 10
-2626.945223
 20
-130.356585
 30
0.0
 70
0
  0
VERTEX
  5
94
  8
1
 10
-2611.85522
 20
-129.870337
 30
0.0
 70
0
  0
VERTEX
  5
95
  8
1
 10
-2596.547174
 20
-129.196371
 30
0.0
 70
0
  0
VERTEX
  5
96
  8
1
 10
-2581.403985
 20
-128.355767
 30
0.0
 70
0
  0
VERTEX
  5
97
  8
1
 10
-2566.1146
 20
-127.344573
 30
0.0
 70
0
  0
VERTEX
  5
98
  8
1
 10
-2550.827299
 20
-126.182442
 30
0.0
 70
0
  0
VERTEX
  5
99
  8
1
 10
-2535.560234
 20
-124.876504
 30
0.0
 70
0
  0
VERTEX
  5
9A
  8
1
 10
-2520.438754
 20
-123.437297
 30
0.0
 70
0
  0
VERTEX
  5
9B
  8
1
 10
-2505.200258
 20
-121.831798
 30
0.0
 70
0
  0
VERTEX
  5
9C
  8
1
 10
-2489.745157
 20
-120.03
 30
0.0
 70
0
  0
VERTEX
  5
9D
  8
1
 10
-2474.546812
 20
-118.080289
 30
0.0
 70
0
  0
VERTEX
  5
9E
  8
1
 10
-2459.569193
 20
-115.985307
 30
0.0
 70
0
  0
VERTEX
  5
9F
  8
1
 10
-2444.419724
 20
-113.686411
 30
0.0
 70
0
  0
VERTEX
  5
A0
  8
1
 10
-2429.603933
 20
-111.255575
 30
0.0
 70
0
  0
VERTEX
  5
A1
  8
1
 10
-2414.514904
 20
-108.588263
 30
0.0
 70
0
  0
VERTEX
  5
A2
  8
1
 10
-2399.386997
 20
-105.714878
 30
0.0
 70
0
  0
VERTEX
  5
A3
  8
1
 10
-2384.372541
 20
-102.65566
 30
0.0
 70
0
  0
VERTEX
  5
A4
  8
1
 10
-2369.653556
 20
-99.442643
 30
0.0
 70
0
  0
VERTEX
  5
A5
  8
1
 10
-2354.731366
 20
-95.960655
 30
0.0
 70
0
  0
VERTEX
  5
A6
  8
1
 10
-2340.095989
 20
-92.322112
 30
0.0
 70
0
  0
VERTEX
  5
A7
  8
1
 10
-2325.279189
 20
-88.416236
 30
0.0
 70
0
  0
VERTEX
  5
A8
  8
1
 10
-2310.65881
 20
-84.352137
 30
0.0
 70
0
  0
VERTEX
  5
A9
  8
1
 10
-2295.946071
 20
-80.071091
 30
0.0
 70
0
  0
VERTEX
  5
AA
  8
1
 10
-2281.456192
 20
-75.691782
 30
0.0
 70
0
  0
VERTEX
  5
AB
  8
1
 10
-2266.831289
 20
-71.120133
 30
0.0
 70
0
  0
VERTEX
  5
AC
  8
1
 10
-2252.491852
 20
-66.493107
 30
0.0
 70
0
  0
VERTEX
  5
AD
  8
1
 10
-2237.957231
 20
-61.641993
 30
0.0
 70
0
  0
VERTEX
  5
AE
  8
1
 10
-2223.654727
 20
-56.692958
 30
0.0
 70
0
  0
VERTEX
  5
AF
  8
1
 10
-2209.212362
 20
-51.573776
 30
0.0
 70
0
  0
VERTEX
  5
B0
  8
1
 10
-2195.036011
 20
-46.516995
 30
0.0
 70
0
  0
VERTEX
  5
B1
  8
1
 10
-2180.53336
 20
-41.344959
 30
0.0
 70
0
  0
VERTEX
  5
B2
  8
1
 10
-2166.204396
 20
-36.236144
 30
0.0
 70
0
  0
VERTEX
  5
B3
  8
1
 10
-2151.757209
 20
-31.086315
 30
0.0
 70
0
  0
VERTEX
  5
B4
  8
1
 10
-2137.020111
 20
-25.834379
 30
0.0
 70
0
  0
VERTEX
  5
B5
  8
1
 10
-2131.151123
 20
-37.229099
 30
0.0
 70
0
  0
VERTEX
  5
B6
  8
1
 10
-2129.92209
 20
-39.615266
 30
0.0
 70
0
  0
VERTEX
  5
B7
  8
1
 10
-2122.99078
 20
-53.072381
 30
0.0
 70
0
  0
VERTEX
  5
B8
  8
1
 10
-2115.993178
 20
-66.658135
 30
0.0
 70
0
  0
VERTEX
  5
B9
  8
1
 10
-2109.137118
 20
-79.96915
 30
0.0
 70
0
  0
VERTEX
  5
BA
  8
1
 10
-2104.681396
 20
-88.619957
 30
0.0
 70
0
  0
VERTEX
  5
BB
  8
1
 10
-2119.48542
 20
-93.958161
 30
0.0
 70
0
  0
VERTEX
  5
BC
  8
1
 10
-2133.639973
 20
-99.059456
 30
0.0
 70
0
  0
VERTEX
  5
BD
  8
1
 10
-2148.001224
 20
-104.233502
 30
0.0
 70
0
  0
VERTEX
  5
BE
  8
1
 10
-2162.274102
 20
-109.383496
 30
0.0
 70
0
  0
VERTEX
  5
BF
  8
1
 10
-2175.629425
 20
-114.21031
 30
0.0
 70
0
  0
VERTEX
  5
C0
  8
1
 10
-2176.630352
 20
-114.57141
 30
0.0
 70
0
  0
VERTEX
  5
C1
  8
1
 10
-2190.947942
 20
-119.705884
 30
0.0
 70
0
  0
VERTEX
  5
C2
  8
1
 10
-2205.347269
 20
-124.773822
 30
0.0
 70
0
  0
VERTEX
  5
C3
  8
1
 10
-2219.789693
 20
-129.716993
 30
0.0
 70
0
  0
VERTEX
  5
C4
  8
1
 10
-2234.312202
 20
-134.518174
 30
0.0
 70
0
  0
VERTEX
  5
C5
  8
1
 10
-2248.615892
 20
-139.099511
 30
0.0
 70
0
  0
VERTEX
  5
C6
  8
1
 10
-2263.190732
 20
-143.638064
 30
0.0
 70
0
  0
VERTEX
  5
C7
  8
1
 10
-2277.80638
 20
-148.04276
 30
0.0
 70
0
  0
VERTEX
  5
C8
  8
1
 10
-2292.646925
 20
-152.342487
 30
0.0
 70
0
  0
VERTEX
  5
C9
  8
1
 10
-2307.357965
 20
-156.418032
 30
0.0
 70
0
  0
VERTEX
  5
CA
  8
1
 10
-2322.253413
 20
-160.342598
 30
0.0
 70
0
  0
VERTEX
  5
CB
  8
1
 10
-2336.772099
 20
-163.961182
 30
0.0
 70
0
  0
VERTEX
  5
CC
  8
1
 10
-2352.114065
 20
-167.556618
 30
0.0
 70
0
  0
VERTEX
  5
CD
  8
1
 10
-2366.683531
 20
-170.765036
 30
0.0
 70
0
  0
VERTEX
  5
CE
  8
1
 10
-2382.114008
 20
-173.959113
 30
0.0
 70
0
  0
VERTEX
  5
CF
  8
1
 10
-2396.747837
 20
-176.80331
 30
0.0
 70
0
  0
VERTEX
  5
D0
  8
1
 10
-2412.250059
 20
-179.628171
 30
0.0
 70
0
  0
VERTEX
  5
D1
  8
1
 10
-2427.238695
 20
-182.183936
 30
0.0
 70
0
  0
VERTEX
  5
D2
  8
1
 10
-2442.313341
 20
-184.587742
 30
0.0
 70
0
  0
VERTEX
  5
D3
  8
1
 10
-2457.268762
 20
-186.810784
 30
0.0
 70
0
  0
VERTEX
  5
D4
  8
1
 10
-2472.390566
 20
-188.89737
 30
0.0
 70
0
  0
VERTEX
  5
D5
  8
1
 10
-2487.15011
 20
-190.780648
 30
0.0
 70
0
  0
VERTEX
  5
D6
  8
1
 10
-2502.800443
 20
-192.615385
 30
0.0
 70
0
  0
VERTEX
  5
D7
  8
1
 10
-2517.592468
 20
-194.198823
 30
0.0
 70
0
  0
VERTEX
  5
D8
  8
1
 10
-2533.276274
 20
-195.720685
 30
0.0
 70
0
  0
VERTEX
  5
D9
  8
1
 10
-2548.093039
 20
-197.012589
 30
0.0
 70
0
  0
VERTEX
  5
DA
  8
1
 10
-2563.80336
 20
-198.230429
 30
0.0
 70
0
  0
VERTEX
  5
DB
  8
1
 10
-2578.636709
 20
-199.23918
 30
0.0
 70
0
  0
VERTEX
  5
DC
  8
1
 10
-2594.367153
 20
-200.161779
 30
0.0
 70
0
  0
VERTEX
  5
DD
  8
1
 10
-2609.208327
 20
-200.895675
 30
0.0
 70
0
  0
VERTEX
  5
DE
  8
1
 10
-2624.952947
 20
-201.53181
 30
0.0
 70
0
  0
VERTEX
  5
DF
  8
1
 10
-2639.792558
 20
-201.999492
 30
0.0
 70
0
  0
VERTEX
  5
E0
  8
1
 10
-2655.545889
 20
-202.358105
 30
0.0
 70
0
  0
VERTEX
  5
E1
  8
1
 10
-2670.374236
 20
-202.566721
 30
0.0
 70
0
  0
VERTEX
  5
E2
  8
1
 10
-2686.131396
 20
-202.653921
 30
0.0
 70
0
  0
VERTEX
  5
E3
  8
1
 10
-2700.978238
 20
-202.61883
 30
0.0
 70
0
  0
VERTEX
  5
E4
  8
1
 10
-2716.452487
 20
-202.482162
 30
0.0
 70
0
  0
VERTEX
  5
E5
  8
1
 10
-2724.559326
 20
-202.381516
 30
0.0
 70
0
  0
SEQEND
  5
30
  8
1
  0
LINE
  5
E6
  8
7
 10
-2722.257385
 20
-132.500181
 30
0.0
 11
-2722.257385
 21
-194.629478
 31
0.0
  0
ENDSEC
  0
EOF
