  0
SECTION
  2
HEADER
  9
$ACADVER
  1
AC1009
  9
$DWGCODEPAGE
  3
ANSI_1252
  9
$INSBASE
 10
0.0
 20
0.0
 30
0.0
  9
$EXTMIN
 10
1e+20
 20
1e+20
 30
1e+20
  9
$EXTMAX
 10
-1e+20
 20
-1e+20
 30
-1e+20
  9
$LIMMIN
 10
0.0
 20
0.0
  9
$LIMMAX
 10
420.0
 20
297.0
  9
$ORTHOMODE
 70
0
  9
$REGENMODE
 70
1
  9
$FILLMODE
 70
1
  9
$DRAGMODE
 70
2
  9
$QTEXTMODE
 70
0
  9
$MIRRTEXT
 70
1
  9
$OSMODE
 70
20583
  9
$LTSCALE
 40
1.0
  9
$ATTMODE
 70
1
  9
$TEXTSIZE
 40
2.5
  9
$TRACEWID
 40
1.0
  9
$TEXTSTYLE
  7
Standard
  9
$CLAYER
  8
0
  9
$CELTYPE
  6
ByLayer
  9
$CECOLOR
 62
256
  9
$DIMSCALE
 40
1.0
  9
$DIMASZ
 40
2.5
  9
$DIMEXO
 40
0.625
  9
$DIMDLI
 40
3.75
  9
$DIMRND
 40
0.0
  9
$DIMDLE
 40
0.0
  9
$DIMEXE
 40
1.25
  9
$DIMTP
 40
0.0
  9
$DIMTM
 40
0.0
  9
$DIMTXT
 40
2.5
  9
$DIMCEN
 40
2.5
  9
$DIMTSZ
 40
0.0
  9
$DIMTOL
 70
0
  9
$DIMLIM
 70
0
  9
$DIMTIH
 70
0
  9
$DIMTOH
 70
0
  9
$DIMSE1
 70
0
  9
$DIMSE2
 70
0
  9
$DIMTAD
 70
1
  9
$DIMZIN
 70
8
  9
$DIMBLK
  1

  9
$DIMASO
 70
1
  9
$DIMSHO
 70
1
  9
$DIMPOST
  1

  9
$DIMAPOST
  1

  9
$DIMALT
 70
0
  9
$DIMALTD
 70
3
  9
$DIMALTF
 40
0.03937007874
  9
$DIMLFAC
 40
1.0
  9
$DIMTOFL
 70
1
  9
$DIMTVP
 40
0.0
  9
$DIMTIX
 70
0
  9
$DIMSOXD
 70
0
  9
$DIMSAH
 70
0
  9
$DIMBLK1
  1

  9
$DIMBLK2
  1

  9
$DIMSTYLE
  2
ISO-25
  9
$DIMCLRD
 70
0
  9
$DIMCLRE
 70
0
  9
$DIMCLRT
 70
0
  9
$DIMTFAC
 40
1.0
  9
$DIMGAP
 40
0.625
  9
$COORDS
 70
1
  9
$ATTDIA
 70
0
  9
$ATTREQ
 70
1
  9
$HANDLING
 70
1
  9
$LUNITS
 70
2
  9
$LUPREC
 70
4
  9
$SKETCHINC
 40
1.0
  9
$FILLETRAD
 40
10.0
  9
$AUNITS
 70
0
  9
$AUPREC
 70
2
  9
$MENU
  1
.
  9
$ELEVATION
 40
0.0
  9
$PELEVATION
 40
0.0
  9
$THICKNESS
 40
0.0
  9
$LIMCHECK
 70
0
  9
$CHAMFERA
 40
0.0
  9
$CHAMFERB
 40
0.0
  9
$SKPOLY
 70
0
  9
$TDCREATE
 40
2461264.9423032408
  9
$TDUPDATE
 40
2461264.9423032408
  9
$TDINDWG
 40
0.0
  9
$TDUSRTIMER
 40
0.0
  9
$USRTIMER
 70
1
  9
$ANGBASE
 50
0.0
  9
$ANGDIR
 70
0
  9
$PDMODE
 70
0
  9
$PDSIZE
 40
0.0
  9
$PLINEWID
 40
0.0
  9
$SPLFRAME
 70
0
  9
$SPLINETYPE
 70
6
  9
$SPLINESEGS
 70
8
  9
$HANDSEED
  5
15D
  9
$SURFTAB1
 70
6
  9
$SURFTAB2
 70
6
  9
$SURFTYPE
 70
6
  9
$SURFU
 70
6
  9
$SURFV
 70
6
  9
$UCSNAME
  2

  9
$UCSORG
 10
0.0
 20
0.0
 30
0.0
  9
$UCSXDIR
 10
1.0
 20
0.0
 30
0.0
  9
$UCSYDIR
 10
0.0
 20
1.0
 30
0.0
  9
$PUCSNAME
  2

  9
$PUCSORG
 10
0.0
 20
0.0
 30
0.0
  9
$PUCSXDIR
 10
1.0
 20
0.0
 30
0.0
  9
$PUCSYDIR
 10
0.0
 20
1.0
 30
0.0
  9
$USERI1
 70
0
  9
$USERI2
 70
0
  9
$USERI3
 70
0
  9
$USERI4
 70
0
  9
$USERI5
 70
0
  9
$USERR1
 40
0.0
  9
$USERR2
 40
0.0
  9
$USERR3
 40
0.0
  9
$USERR4
 40
0.0
  9
$USERR5
 40
0.0
  9
$WORLDVIEW
 70
1
  9
$SHADEDGE
 70
3
  9
$SHADEDIF
 70
70
  9
$TILEMODE
 70
1
  9
$MAXACTVP
 70
64
  9
$PLIMCHECK
 70
0
  9
$PEXTMIN
 10
1e+20
 20
1e+20
 30
1e+20
  9
$PEXTMAX
 10
-1e+20
 20
-1e+20
 30
-1e+20
  9
$PLIMMIN
 10
0.0
 20
0.0
  9
$PLIMMAX
 10
420.0
 20
297.0
  9
$UNITMODE
 70
0
  9
$VISRETAIN
 70
1
  9
$PLINEGEN
 70
0
  9
$PSLTSCALE
 70
1
  0
ENDSEC
  0
SECTION
  2
TABLES
  0
TABLE
  2
VPORT
 70
1
  0
VPORT
  5
23
  2
*Active
 70
0
 10
0.0
 20
0.0
 11
1.0
 21
1.0
 12
0.0
 22
0.0
 13
0.0
 23
0.0
 14
0.5
 24
0.5
 15
0.5
 25
0.5
 16
0.0
 26
0.0
 36
1.0
 17
0.0
 27
0.0
 37
0.0
 40
1000.0
 41
1.34
 42
50.0
 43
0.0
 44
0.0
 50
0.0
 51
0.0
 71
0
 72
1000
 73
1
 74
3
 75
0
 76
0
 77
0
 78
0
  0
ENDTAB
  0
TABLE
  2
LTYPE
 70
3
  0
LTYPE
  5
24
  2
ByBlock
 70
0
  3

 72
65
 73
0
 40
0.0
  0
LTYPE
  5
25
  2
ByLayer
 70
0
  3

 72
65
 73
0
 40
0.0
  0
LTYPE
  5
26
  2
Continuous
 70
0
  3

 72
65
 73
0
 40
0.0
  0
ENDTAB
  0
TABLE
  2
LAYER
 70
7
  0
LAYER
  5
27
  2
0
 70
0
 62
7
  6
Continuous
  0
LAYER
  5
28
  2
Defpoints
 70
0
 62
7
  6
Continuous
  0
LAYER
  5
2D
  2
1
 70
0
 62
1
  6
Continuous
  0
LAYER
  5
2E
  2
7
 70
0
 62
7
  6
Continuous
  0
LAYER
  5
2F
  2
14
 70
0
 62
3
  6
Continuous
  0
LAYER
  5
30
  2
8
 70
0
 62
6
  6
Continuous
  0
LAYER
  5
31
  2
4
 70
0
 62
2
  6
Continuous
  0
ENDTAB
  0
TABLE
  2
STYLE
 70
1
  0
STYLE
  5
29
  2
Standard
 70
0
 40
0.0
 41
1.0
 50
0.0
 71
0
 42
2.5
  3
txt
  4

  0
ENDTAB
  0
TABLE
  2
VIEW
 70
0
  0
ENDTAB
  0
TABLE
  2
UCS
 70
0
  0
ENDTAB
  0
TABLE
  2
APPID
 70
3
  0
APPID
  5
2A
  2
ACAD
 70
0
  0
APPID
  5
15B
  2
HATCHBACKGROUNDCOLOR
 70
0
  0
APPID
  5
15C
  2
EZDXF
 70
0
  0
ENDTAB
  0
TABLE
  2
DIMSTYLE
 70
1
  0
DIMSTYLE
105
2B
  2
Standard
 70
0
  3

  4

  5

  6

  7

 40
1.0
 41
2.5
 42
0.625
 43
3.75
 44
1.25
 45
0.0
 46
0.0
 47
0.0
 48
0.0
140
2.5
141
2.5
142
0.0
143
0.03937007874
144
1.0
145
0.0
146
1.0
147
0.625
 71
0
 72
0
 73
0
 74
0
 75
0
 76
0
 77
1
 78
8
170
0
171
3
172
1
173
0
174
0
175
0
176
0
177
0
178
0
  0
ENDTAB
  0
ENDSEC
  0
SECTION
  2
BLOCKS
  0
BLOCK
  5
18
  8
0
  2
$Model_Space
 70
0
 10
0.0
 20
0.0
 30
0.0
  3
$Model_Space
  1

1001
EZDXF
1000
CREATED_BY_EZDXF
1000
1.4.4 @ 2026-08-11T14:36:55.091175+00:00
1000
WRITTEN_BY_EZDXF
1000
1.4.4 @ 2026-08-11T14:36:55.094176+00:00
  0
ENDBLK
  5
19
  8
0
  0
BLOCK
  5
1C
  8
0
  2
$Paper_Space
 70
0
 10
0.0
 20
0.0
 30
0.0
  3
$Paper_Space
  1

  0
ENDBLK
  5
1D
  8
0
  0
ENDSEC
  0
SECTION
  2
ENTITIES
  0
POLYLINE
  5
32
  8
1
 66
1
 10
0.0
 20
0.0
 30
0.0
 70
1
  0
VERTEX
  5
34
  8
1
 10
-2724.421082
 20
-185.237637
 30
0.0
 70
0
  0
VERTEX
  5
35
  8
1
 10
-2724.501038
 20
-185.237045
 30
0.0
 70
0
  0
VERTEX
  5
36
  8
1
 10
-2732.101439
 20
-185.152089
 30
0.0
 70
0
  0
VERTEX
  5
37
  8
1
 10
-2746.983534
 20
-184.891514
 30
0.0
 70
0
  0
VERTEX
  5
38
  8
1
 10
-2762.29401
 20
-184.485857
 30
0.0
 70
0
  0
VERTEX
  5
39
  8
1
 10
-2777.662299
 20
-183.893186
 30
0.0
 70
0
  0
VERTEX
  5
3A
  8
1
 10
-2792.848661
 20
-183.133057
 30
0.0
 70
0
  0
VERTEX
  5
3B
  8
1
 10
-2808.020186
 20
-182.23207
 30
0.0
 70
0
  0
VERTEX
  5
3C
  8
1
 10
-2823.189528
 20
-181.192286
 30
0.0
 70
0
  0
VERTEX
  5
3D
  8
1
 10
-2838.552069
 20
-179.986958
 30
0.0
 70
0
  0
VERTEX
  5
3E
  8
1
 10
-2853.69755
 20
-178.641851
 30
0.0
 70
0
  0
VERTEX
  5
3F
  8
1
 10
-2868.942834
 20
-177.126484
 30
0.0
 70
0
  0
VERTEX
  5
40
  8
1
 10
-2884.056125
 20
-175.457724
 30
0.0
 70
0
  0
VERTEX
  5
41
  8
1
 10
-2899.330481
 20
-173.59261
 30
0.0
 70
0
  0
VERTEX
  5
42
  8
1
 10
-2914.399906
 20
-171.565504
 30
0.0
 70
0
  0
VERTEX
  5
43
  8
1
 10
-2929.648261
 20
-169.312261
 30
0.0
 70
0
  0
VERTEX
  5
44
  8
1
 10
-2944.658079
 20
-166.880868
 30
0.0
 70
0
  0
VERTEX
  5
45
  8
1
 10
-2959.629813
 20
-164.226029
 30
0.0
 70
0
  0
VERTEX
  5
46
  8
1
 10
-2974.831715
 20
-161.277396
 30
0.0
 70
0
  0
VERTEX
  5
47
  8
1
 10
-2989.708991
 20
-158.135818
 30
0.0
 70
0
  0
VERTEX
  5
48
  8
1
 10
-3004.307035
 20
-154.800091
 30
0.0
 70
0
  0
VERTEX
  5
49
  8
1
 10
-3018.456608
 20
-151.31737
 30
0.0
 70
0
  0
VERTEX
  5
4A
  8
1
 10
-3032.426613
 20
-147.628484
 30
0.0
 70
0
  0
VERTEX
  5
4B
  8
1
 10
-3047.06136
 20
-143.501574
 30
0.0
 70
0
  0
VERTEX
  5
4C
  8
1
 10
-3061.828011
 20
-139.078191
 30
0.0
 70
0
  0
VERTEX
  5
4D
  8
1
 10
-3076.329723
 20
-134.506531
 30
0.0
 70
0
  0
VERTEX
  5
4E
  8
1
 10
-3091.123921
 20
-129.646161
 30
0.0
 70
0
  0
VERTEX
  5
4F
  8
1
 10
-3105.514532
 20
-124.735435
 30
0.0
 70
0
  0
VERTEX
  5
50
  8
1
 10
-3119.805116
 20
-119.653965
 30
0.0
 70
0
  0
VERTEX
  5
51
  8
1
 10
-3134.066822
 20
-114.38308
 30
0.0
 70
0
  0
VERTEX
  5
52
  8
1
 10
-3148.292119
 20
-109.012638
 30
0.0
 70
0
  0
VERTEX
  5
53
  8
1
 10
-3151.403198
 20
-107.832861
 30
0.0
 70
0
  0
VERTEX
  5
54
  8
1
 10
-3152.312927
 20
-107.487974
 30
0.0
 70
0
  0
VERTEX
  5
55
  8
1
 10
-3162.855566
 20
-103.48985
 30
0.0
 70
0
  0
VERTEX
  5
56
  8
1
 10
-3177.092148
 20
-98.090702
 30
0.0
 70
0
  0
VERTEX
  5
57
  8
1
 10
-3191.219918
 20
-92.73259
 30
0.0
 70
0
  0
VERTEX
  5
58
  8
1
 10
-3205.675249
 20
-87.250033
 30
0.0
 70
0
  0
VERTEX
  5
59
  8
1
 10
-3220.241394
 20
-81.725216
 30
0.0
 70
0
  0
VERTEX
  5
5A
  8
1
 10
-3215.946216
 20
-73.386325
 30
0.0
 70
0
  0
VERTEX
  5
5B
  8
1
 10
-3209.032496
 20
-59.96362
 30
0.0
 70
0
  0
VERTEX
  5
5C
  8
1
 10
-3202.026746
 20
-46.362168
 30
0.0
 70
0
  0
VERTEX
  5
5D
  8
1
 10
-3194.943064
 20
-32.609304
 30
0.0
 70
0
  0
VERTEX
  5
5E
  8
1
 10
-3193.713074
 20
-30.22105
 30
0.0
 70
0
  0
VERTEX
  5
5F
  8
1
 10
-3187.859802
 20
-18.857167
 30
0.0
 70
0
  0
VERTEX
  5
60
  8
1
 10
-3173.243745
 20
-24.373592
 30
0.0
 70
0
  0
VERTEX
  5
61
  8
1
 10
-3159.095225
 20
-29.709826
 30
0.0
 70
0
  0
VERTEX
  5
62
  8
1
 10
-3144.739139
 20
-35.122524
 30
0.0
 70
0
  0
VERTEX
  5
63
  8
1
 10
-3130.504661
 20
-40.503889
 30
0.0
 70
0
  0
VERTEX
  5
64
  8
1
 10
-3116.169568
 20
-45.936204
 30
0.0
 70
0
  0
VERTEX
  5
65
  8
1
 10
-3101.913706
 20
-51.260485
 30
0.0
 70
0
  0
VERTEX
  5
66
  8
1
 10
-3087.332691
 20
-56.527236
 30
0.0
 70
0
  0
VERTEX
  5
67
  8
1
 10
-3072.956647
 20
-61.519249
 30
0.0
 70
0
  0
VERTEX
  5
68
  8
1
 10
-3058.621632
 20
-66.292654
 30
0.0
 70
0
  0
VERTEX
  5
69
  8
1
 10
-3044.11823
 20
-70.902268
 30
0.0
 70
0
  0
VERTEX
  5
6A
  8
1
 10
-3029.307816
 20
-75.365632
 30
0.0
 70
0
  0
VERTEX
  5
6B
  8
1
 10
-3015.171041
 20
-79.37553
 30
0.0
 70
0
  0
VERTEX
  5
6C
  8
1
 10
-3001.475114
 20
-83.007173
 30
0.0
 70
0
  0
VERTEX
  5
6D
  8
1
 10
-2987.634685
 20
-86.411434
 30
0.0
 70
0
  0
VERTEX
  5
6E
  8
1
 10
-2973.30555
 20
-89.668243
 30
0.0
 70
0
  0
VERTEX
  5
6F
  8
1
 10
-2958.730319
 20
-92.72238
 30
0.0
 70
0
  0
VERTEX
  5
70
  8
1
 10
-2943.270596
 20
-95.696945
 30
0.0
 70
0
  0
VERTEX
  5
71
  8
1
 10
-2928.753667
 20
-98.251585
 30
0.0
 70
0
  0
VERTEX
  5
72
  8
1
 10
-2913.208672
 20
-100.739737
 30
0.0
 70
0
  0
VERTEX
  5
73
  8
1
 10
-2898.633288
 20
-102.85041
 30
0.0
 70
0
  0
VERTEX
  5
74
  8
1
 10
-2883.022179
 20
-104.883399
 30
0.0
 70
0
  0
VERTEX
  5
75
  8
1
 10
-2868.145376
 20
-106.610167
 30
0.0
 70
0
  0
VERTEX
  5
76
  8
1
 10
-2852.484449
 20
-108.2142
 30
0.0
 70
0
  0
VERTEX
  5
77
  8
1
 10
-2837.462411
 20
-109.553638
 30
0.0
 70
0
  0
VERTEX
  5
78
  8
1
 10
-2822.289108
 20
-110.718285
 30
0.0
 70
0
  0
VERTEX
  5
79
  8
1
 10
-2807.20856
 20
-111.710463
 30
0.0
 70
0
  0
VERTEX
  5
7A
  8
1
 10
-2792.014724
 20
-112.566377
 30
0.0
 70
0
  0
VERTEX
  5
7B
  8
1
 10
-2776.814093
 20
-113.291805
 30
0.0
 70
0
  0
VERTEX
  5
7C
  8
1
 10
-2761.771953
 20
-113.889295
 30
0.0
 70
0
  0
VERTEX
  5
7D
  8
1
 10
-2746.561709
 20
-114.369711
 30
0.0
 70
0
  0
VERTEX
  5
7E
  8
1
 10
-2731.580393
 20
-114.72912
 30
0.0
 70
0
  0
VERTEX
  5
7F
  8
1
 10
-2723.941345
 20
-114.884081
 30
0.0
 70
0
  0
VERTEX
  5
80
  8
1
 10
-2716.424211
 20
-114.870346
 30
0.0
 70
0
  0
VERTEX
  5
81
  8
1
 10
-2704.557296
 20
-114.649758
 30
0.0
 70
0
  0
VERTEX
  5
82
  8
1
 10
-2689.084168
 20
-114.069025
 30
0.0
 70
0
  0
VERTEX
  5
83
  8
1
 10
-2673.615823
 20
-113.325708
 30
0.0
 70
0
  0
VERTEX
  5
84
  8
1
 10
-2658.416212
 20
-112.573253
 30
0.0
 70
0
  0
VERTEX
  5
85
  8
1
 10
-2642.955678
 20
-111.753279
 30
0.0
 70
0
  0
VERTEX
  5
86
  8
1
 10
-2627.701236
 20
-110.817544
 30
0.0
 70
0
  0
VERTEX
  5
87
  8
1
 10
-2612.260283
 20
-109.674859
 30
0.0
 70
0
  0
VERTEX
  5
88
  8
1
 10
-2596.98487
 20
-108.303864
 30
0.0
 70
0
  0
VERTEX
  5
89
  8
1
 10
-2581.583921
 20
-106.706299
 30
0.0
 70
0
  0
VERTEX
  5
8A
  8
1
 10
-2566.39993
 20
-104.951422
 30
0.0
 70
0
  0
VERTEX
  5
8B
  8
1
 10
-2551.043795
 20
-102.972753
 30
0.0
 70
0
  0
VERTEX
  5
8C
  8
1
 10
-2535.734222
 20
-100.765176
 30
0.0
 70
0
  0
VERTEX
  5
8D
  8
1
 10
-2520.445301
 20
-98.318718
 30
0.0
 70
0
  0
VERTEX
  5
8E
  8
1
 10
-2505.629037
 20
-95.714022
 30
0.0
 70
0
  0
VERTEX
  5
8F
  8
1
 10
-2490.423514
 20
-92.792761
 30
0.0
 70
0
  0
VERTEX
  5
90
  8
1
 10
-2476.031792
 20
-89.785066
 30
0.0
 70
0
  0
VERTEX
  5
91
  8
1
 10
-2461.936339
 20
-86.593115
 30
0.0
 70
0
  0
VERTEX
  5
92
  8
1
 10
-2447.899779
 20
-83.153291
 30
0.0
 70
0
  0
VERTEX
  5
93
  8
1
 10
-2434.904512
 20
-79.724098
 30
0.0
 70
0
  0
VERTEX
  5
94
  8
1
 10
-2420.498586
 20
-75.659525
 30
0.0
 70
0
  0
VERTEX
  5
95
  8
1
 10
-2405.894189
 20
-71.27718
 30
0.0
 70
0
  0
VERTEX
  5
96
  8
1
 10
-2391.13353
 20
-66.601773
 30
0.0
 70
0
  0
VERTEX
  5
97
  8
1
 10
-2376.493685
 20
-61.738257
 30
0.0
 70
0
  0
VERTEX
  5
98
  8
1
 10
-2361.864219
 20
-56.667448
 30
0.0
 70
0
  0
VERTEX
  5
99
  8
1
 10
-2347.401308
 20
-51.450139
 30
0.0
 70
0
  0
VERTEX
  5
9A
  8
1
 10
-2332.896253
 20
-46.035151
 30
0.0
 70
0
  0
VERTEX
  5
9B
  8
1
 10
-2318.44939
 20
-40.560938
 30
0.0
 70
0
  0
VERTEX
  5
9C
  8
1
 10
-2303.966413
 20
-35.086811
 30
0.0
 70
0
  0
VERTEX
  5
9D
  8
1
 10
-2289.890359
 20
-29.780535
 30
0.0
 70
0
  0
VERTEX
  5
9E
  8
1
 10
-2275.518921
 20
-24.361103
 30
0.0
 70
0
  0
VERTEX
  5
9F
  8
1
 10
-2260.941162
 20
-18.860118
 30
0.0
 70
0
  0
VERTEX
  5
A0
  8
1
 10
-2255.089722
 20
-30.22079
 30
0.0
 70
0
  0
VERTEX
  5
A1
  8
1
 10
-2253.67516
 20
-32.967079
 30
0.0
 70
0
  0
VERTEX
  5
A2
  8
1
 10
-2246.750595
 20
-46.411102
 30
0.0
 70
0
  0
VERTEX
  5
A3
  8
1
 10
-2239.75305
 20
-59.996788
 30
0.0
 70
0
  0
VERTEX
  5
A4
  8
1
 10
-2232.864364
 20
-73.371168
 30
0.0
 70
0
  0
VERTEX
  5
A5
  8
1
 10
-2228.6026
 20
-81.645403
 30
0.0
 70
0
  0
VERTEX
  5
A6
  8
1
 10
-2243.113567
 20
-87.167646
 30
0.0
 70
0
  0
VERTEX
  5
A7
  8
1
 10
-2257.518017
 20
-92.649837
 30
0.0
 70
0
  0
VERTEX
  5
A8
  8
1
 10
-2271.599573
 20
-98.009578
 30
0.0
 70
0
  0
VERTEX
  5
A9
  8
1
 10
-2285.793502
 20
-103.41258
 30
0.0
 70
0
  0
VERTEX
  5
AA
  8
1
 10
-2298.733673
 20
-108.338833
 30
0.0
 70
0
  0
VERTEX
  5
AB
  8
1
 10
-2299.895869
 20
-108.7813
 30
0.0
 70
0
  0
VERTEX
  5
AC
  8
1
 10
-2314.085117
 20
-114.160456
 30
0.0
 70
0
  0
VERTEX
  5
AD
  8
1
 10
-2328.312656
 20
-119.435483
 30
0.0
 70
0
  0
VERTEX
  5
AE
  8
1
 10
-2343.034976
 20
-124.675184
 30
0.0
 70
0
  0
VERTEX
  5
AF
  8
1
 10
-2357.395666
 20
-129.578951
 30
0.0
 70
0
  0
VERTEX
  5
B0
  8
1
 10
-2371.896465
 20
-134.351363
 30
0.0
 70
0
  0
VERTEX
  5
B1
  8
1
 10
-2386.368207
 20
-138.915434
 30
0.0
 70
0
  0
VERTEX
  5
B2
  8
1
 10
-2401.267539
 20
-143.36952
 30
0.0
 70
0
  0
VERTEX
  5
B3
  8
1
 10
-2415.876693
 20
-147.47832
 30
0.0
 70
0
  0
VERTEX
  5
B4
  8
1
 10
-2430.552521
 20
-151.340854
 30
0.0
 70
0
  0
VERTEX
  5
B5
  8
1
 10
-2444.736725
 20
-154.8165
 30
0.0
 70
0
  0
VERTEX
  5
B6
  8
1
 10
-2459.532752
 20
-158.185206
 30
0.0
 70
0
  0
VERTEX
  5
B7
  8
1
 10
-2474.590069
 20
-161.368113
 30
0.0
 70
0
  0
VERTEX
  5
B8
  8
1
 10
-2489.480936
 20
-164.289042
 30
0.0
 70
0
  0
VERTEX
  5
B9
  8
1
 10
-2504.498581
 20
-167.016869
 30
0.0
 70
0
  0
VERTEX
  5
BA
  8
1
 10
-2519.464401
 20
-169.525234
 30
0.0
 70
0
  0
VERTEX
  5
BB
  8
1
 10
-2534.630988
 20
-171.858491
 30
0.0
 70
0
  0
VERTEX
  5
BC
  8
1
 10
-2549.658226
 20
-173.967989
 30
0.0
 70
0
  0
VERTEX
  5
BD
  8
1
 10
-2564.87376
 20
-175.903793
 30
0.0
 70
0
  0
VERTEX
  5
BE
  8
1
 10
-2579.949991
 20
-177.628099
 30
0.0
 70
0
  0
VERTEX
  5
BF
  8
1
 10
-2595.201328
 20
-179.180948
 30
0.0
 70
0
  0
VERTEX
  5
C0
  8
1
 10
-2610.315343
 20
-180.534116
 30
0.0
 70
0
  0
VERTEX
  5
C1
  8
1
 10
-2625.587945
 20
-181.717346
 30
0.0
 70
0
  0
VERTEX
  5
C2
  8
1
 10
-2640.72967
 20
-182.711848
 30
0.0
 70
0
  0
VERTEX
  5
C3
  8
1
 10
-2655.376265
 20
-183.510336
 30
0.0
 70
0
  0
VERTEX
  5
C4
  8
1
 10
-2671.168348
 20
-184.19544
 30
0.0
 70
0
  0
VERTEX
  5
C5
  8
1
 10
-2686.335037
 20
-184.677412
 30
0.0
 70
0
  0
VERTEX
  5
C6
  8
1
 10
-2701.866535
 20
-184.998578
 30
0.0
 70
0
  0
VERTEX
  5
C7
  8
1
 10
-2716.979627
 20
-185.186534
 30
0.0
 70
0
  0
VERTEX
  5
C8
  8
1
 10
-2724.349976
 20
-185.23737
 30
0.0
 70
0
  0
SEQEND
  5
33
  8
1
  0
POLYLINE
  5
C9
  8
14
 66
1
 10
0.0
 20
0.0
 30
0.0
 70
1
  0
VERTEX
  5
CB
  8
14
 10
-2724.40155
 20
-172.537212
 30
0.0
 70
0
  0
VERTEX
  5
CC
  8
14
 10
-2724.40155
 20
-172.537212
 30
0.0
 70
0
  0
VERTEX
  5
CD
  8
14
 10
-2733.699534
 20
-172.477928
 30
0.0
 70
0
  0
VERTEX
  5
CE
  8
14
 10
-2748.616637
 20
-172.193595
 30
0.0
 70
0
  0
VERTEX
  5
CF
  8
14
 10
-2763.738484
 20
-171.731573
 30
0.0
 70
0
  0
VERTEX
  5
D0
  8
14
 10
-2779.665093
 20
-171.077531
 30
0.0
 70
0
  0
VERTEX
  5
D1
  8
14
 10
-2795.298454
 20
-170.276242
 30
0.0
 70
0
  0
VERTEX
  5
D2
  8
14
 10
-2812.327144
 20
-169.226045
 30
0.0
 70
0
  0
VERTEX
  5
D3
  8
14
 10
-2827.896922
 20
-168.102313
 30
0.0
 70
0
  0
VERTEX
  5
D4
  8
14
 10
-2844.245631
 20
-166.749893
 30
0.0
 70
0
  0
VERTEX
  5
D5
  8
14
 10
-2861.259556
 20
-165.147645
 30
0.0
 70
0
  0
VERTEX
  5
D6
  8
14
 10
-2878.825079
 20
-163.274424
 30
0.0
 70
0
  0
VERTEX
  5
D7
  8
14
 10
-2893.80237
 20
-161.491159
 30
0.0
 70
0
  0
VERTEX
  5
D8
  8
14
 10
-2909.01806
 20
-159.492792
 30
0.0
 70
0
  0
VERTEX
  5
D9
  8
14
 10
-2924.406305
 20
-157.267098
 30
0.0
 70
0
  0
VERTEX
  5
DA
  8
14
 10
-2939.901393
 20
-154.801831
 30
0.0
 70
0
  0
VERTEX
  5
DB
  8
14
 10
-2958.543912
 20
-151.510048
 30
0.0
 70
0
  0
VERTEX
  5
DC
  8
14
 10
-2972.125132
 20
-148.868125
 30
0.0
 70
0
  0
VERTEX
  5
DD
  8
14
 10
-2987.591487
 20
-145.597834
 30
0.0
 70
0
  0
VERTEX
  5
DE
  8
14
 10
-3003.000914
 20
-142.054224
 30
0.0
 70
0
  0
VERTEX
  5
DF
  8
14
 10
-3018.343253
 20
-138.233651
 30
0.0
 70
0
  0
VERTEX
  5
E0
  8
14
 10
-3033.769619
 20
-134.08751
 30
0.0
 70
0
  0
VERTEX
  5
E1
  8
14
 10
-3048.909072
 20
-129.720022
 30
0.0
 70
0
  0
VERTEX
  5
E2
  8
14
 10
-3063.732051
 20
-125.187769
 30
0.0
 70
0
  0
VERTEX
  5
E3
  8
14
 10
-3080.782739
 20
-119.698039
 30
0.0
 70
0
  0
VERTEX
  5
E4
  8
14
 10
-3096.659638
 20
-114.345591
 30
0.0
 70
0
  0
VERTEX
  5
E5
  8
14
 10
-3113.176611
 20
-108.547133
 30
0.0
 70
0
  0
VERTEX
  5
E6
  8
14
 10
-3128.646207
 20
-102.90578
 30
0.0
 70
0
  0
VERTEX
  5
E7
  8
14
 10
-3145.550537
 20
-96.469889
 30
0.0
 70
0
  0
VERTEX
  5
E8
  8
14
 10
-3145.550537
 20
-96.469889
 30
0.0
 70
0
  0
VERTEX
  5
E9
  8
14
 10
-3145.550537
 20
-96.469889
 30
0.0
 70
0
  0
VERTEX
  5
EA
  8
14
 10
-3139.018371
 20
-83.788042
 30
0.0
 70
0
  0
VERTEX
  5
EB
  8
14
 10
-3132.059955
 20
-70.278383
 30
0.0
 70
0
  0
VERTEX
  5
EC
  8
14
 10
-3124.822388
 20
-56.226454
 30
0.0
 70
0
  0
VERTEX
  5
ED
  8
14
 10
-3124.822388
 20
-56.226454
 30
0.0
 70
0
  0
VERTEX
  5
EE
  8
14
 10
-3109.922477
 20
-61.850989
 30
0.0
 70
0
  0
VERTEX
  5
EF
  8
14
 10
-3095.696894
 20
-67.049386
 30
0.0
 70
0
  0
VERTEX
  5
F0
  8
14
 10
-3081.538255
 20
-72.006494
 30
0.0
 70
0
  0
VERTEX
  5
F1
  8
14
 10
-3066.931075
 20
-76.919236
 30
0.0
 70
0
  0
VERTEX
  5
F2
  8
14
 10
-3052.657722
 20
-81.535956
 30
0.0
 70
0
  0
VERTEX
  5
F3
  8
14
 10
-3037.848671
 20
-86.093683
 30
0.0
 70
0
  0
VERTEX
  5
F4
  8
14
 10
-3023.438801
 20
-90.269789
 30
0.0
 70
0
  0
VERTEX
  5
F5
  8
14
 10
-3009.61824
 20
-94.021185
 30
0.0
 70
0
  0
VERTEX
  5
F6
  8
14
 10
-2995.838946
 20
-97.502739
 30
0.0
 70
0
  0
VERTEX
  5
F7
  8
14
 10
-2981.896552
 20
-100.768782
 30
0.0
 70
0
  0
VERTEX
  5
F8
  8
14
 10
-2967.068319
 20
-103.980454
 30
0.0
 70
0
  0
VERTEX
  5
F9
  8
14
 10
-2952.356548
 20
-106.915492
 30
0.0
 70
0
  0
VERTEX
  5
FA
  8
14
 10
-2937.308026
 20
-109.669524
 30
0.0
 70
0
  0
VERTEX
  5
FB
  8
14
 10
-2922.511708
 20
-112.143049
 30
0.0
 70
0
  0
VERTEX
  5
FC
  8
14
 10
-2907.427157
 20
-114.435715
 30
0.0
 70
0
  0
VERTEX
  5
FD
  8
14
 10
-2892.761421
 20
-116.451456
 30
0.0
 70
0
  0
VERTEX
  5
FE
  8
14
 10
-2877.195843
 20
-118.369701
 30
0.0
 70
0
  0
VERTEX
  5
FF
  8
14
 10
-2861.721923
 20
-120.060792
 30
0.0
 70
0
  0
VERTEX
  5
100
  8
14
 10
-2846.78888
 20
-121.49683
 30
0.0
 70
0
  0
VERTEX
  5
101
  8
14
 10
-2831.200628
 20
-122.795677
 30
0.0
 70
0
  0
VERTEX
  5
102
  8
14
 10
-2815.659282
 20
-123.901764
 30
0.0
 70
0
  0
VERTEX
  5
103
  8
14
 10
-2800.463102
 20
-124.826584
 30
0.0
 70
0
  0
VERTEX
  5
104
  8
14
 10
-2785.271429
 20
-125.615281
 30
0.0
 70
0
  0
VERTEX
  5
105
  8
14
 10
-2769.937537
 20
-126.28683
 30
0.0
 70
0
  0
VERTEX
  5
106
  8
14
 10
-2754.687426
 20
-126.838506
 30
0.0
 70
0
  0
VERTEX
  5
107
  8
14
 10
-2739.643377
 20
-127.270367
 30
0.0
 70
0
  0
VERTEX
  5
108
  8
14
 10
-2724.755554
 20
-127.580614
 30
0.0
 70
0
  0
VERTEX
  5
109
  8
14
 10
-2718.060836
 20
-127.581658
 30
0.0
 70
0
  0
VERTEX
  5
10A
  8
14
 10
-2704.648302
 20
-127.40622
 30
0.0
 70
0
  0
VERTEX
  5
10B
  8
14
 10
-2693.379223
 20
-127.041795
 30
0.0
 70
0
  0
VERTEX
  5
10C
  8
14
 10
-2678.141544
 20
-126.256984
 30
0.0
 70
0
  0
VERTEX
  5
10D
  8
14
 10
-2663.050317
 20
-125.458682
 30
0.0
 70
0
  0
VERTEX
  5
10E
  8
14
 10
-2647.809606
 20
-124.738806
 30
0.0
 70
0
  0
VERTEX
  5
10F
  8
14
 10
-2632.599339
 20
-123.894535
 30
0.0
 70
0
  0
VERTEX
  5
110
  8
14
 10
-2617.3783
 20
-122.821559
 30
0.0
 70
0
  0
VERTEX
  5
111
  8
14
 10
-2602.172661
 20
-121.535148
 30
0.0
 70
0
  0
VERTEX
  5
112
  8
14
 10
-2586.984668
 20
-120.05334
 30
0.0
 70
0
  0
VERTEX
  5
113
  8
14
 10
-2571.707206
 20
-118.37756
 30
0.0
 70
0
  0
VERTEX
  5
114
  8
14
 10
-2556.04132
 20
-116.451481
 30
0.0
 70
0
  0
VERTEX
  5
115
  8
14
 10
-2541.417047
 20
-114.442675
 30
0.0
 70
0
  0
VERTEX
  5
116
  8
14
 10
-2526.52766
 20
-112.180726
 30
0.0
 70
0
  0
VERTEX
  5
117
  8
14
 10
-2511.478046
 20
-109.666417
 30
0.0
 70
0
  0
VERTEX
  5
118
  8
14
 10
-2496.623877
 20
-106.949526
 30
0.0
 70
0
  0
VERTEX
  5
119
  8
14
 10
-2481.660353
 20
-103.965119
 30
0.0
 70
0
  0
VERTEX
  5
11A
  8
14
 10
-2467.025112
 20
-100.795589
 30
0.0
 70
0
  0
VERTEX
  5
11B
  8
14
 10
-2452.681596
 20
-97.434069
 30
0.0
 70
0
  0
VERTEX
  5
11C
  8
14
 10
-2438.984657
 20
-93.968851
 30
0.0
 70
0
  0
VERTEX
  5
11D
  8
14
 10
-2425.274658
 20
-90.244821
 30
0.0
 70
0
  0
VERTEX
  5
11E
  8
14
 10
-2411.123586
 20
-86.144396
 30
0.0
 70
0
  0
VERTEX
  5
11F
  8
14
 10
-2396.502332
 20
-81.64892
 30
0.0
 70
0
  0
VERTEX
  5
120
  8
14
 10
-2381.983882
 20
-76.956281
 30
0.0
 70
0
  0
VERTEX
  5
121
  8
14
 10
-2367.563119
 20
-72.108849
 30
0.0
 70
0
  0
VERTEX
  5
122
  8
14
 10
-2353.161448
 20
-67.069328
 30
0.0
 70
0
  0
VERTEX
  5
123
  8
14
 10
-2338.869324
 20
-61.846975
 30
0.0
 70
0
  0
VERTEX
  5
124
  8
14
 10
-2323.926086
 20
-56.331739
 30
0.0
 70
0
  0
VERTEX
  5
125
  8
14
 10
-2323.980255
 20
-56.226473
 30
0.0
 70
0
  0
VERTEX
  5
126
  8
14
 10
-2316.46236
 20
-70.822532
 30
0.0
 70
0
  0
VERTEX
  5
127
  8
14
 10
-2309.34327
 20
-84.644215
 30
0.0
 70
0
  0
VERTEX
  5
128
  8
14
 10
-2303.252258
 20
-96.469889
 30
0.0
 70
0
  0
VERTEX
  5
129
  8
14
 10
-2303.252258
 20
-96.469889
 30
0.0
 70
0
  0
VERTEX
  5
12A
  8
14
 10
-2318.529204
 20
-102.314784
 30
0.0
 70
0
  0
VERTEX
  5
12B
  8
14
 10
-2333.636483
 20
-107.857699
 30
0.0
 70
0
  0
VERTEX
  5
12C
  8
14
 10
-2349.400556
 20
-113.4291
 30
0.0
 70
0
  0
VERTEX
  5
12D
  8
14
 10
-2363.901142
 20
-118.362527
 30
0.0
 70
0
  0
VERTEX
  5
12E
  8
14
 10
-2379.50426
 20
-123.454845
 30
0.0
 70
0
  0
VERTEX
  5
12F
  8
14
 10
-2394.04343
 20
-127.9803
 30
0.0
 70
0
  0
VERTEX
  5
130
  8
14
 10
-2408.981397
 20
-132.3831
 30
0.0
 70
0
  0
VERTEX
  5
131
  8
14
 10
-2422.763207
 20
-136.193861
 30
0.0
 70
0
  0
VERTEX
  5
132
  8
14
 10
-2437.960817
 20
-140.1074
 30
0.0
 70
0
  0
VERTEX
  5
133
  8
14
 10
-2453.230919
 20
-143.752756
 30
0.0
 70
0
  0
VERTEX
  5
134
  8
14
 10
-2468.565114
 20
-147.142817
 30
0.0
 70
0
  0
VERTEX
  5
135
  8
14
 10
-2483.95502
 20
-150.290475
 30
0.0
 70
0
  0
VERTEX
  5
136
  8
14
 10
-2499.913102
 20
-153.302692
 30
0.0
 70
0
  0
VERTEX
  5
137
  8
14
 10
-2515.393677
 20
-155.991007
 30
0.0
 70
0
  0
VERTEX
  5
138
  8
14
 10
-2530.912295
 20
-158.461228
 30
0.0
 70
0
  0
VERTEX
  5
139
  8
14
 10
-2546.465348
 20
-160.717137
 30
0.0
 70
0
  0
VERTEX
  5
13A
  8
14
 10
-2562.049207
 20
-162.762515
 30
0.0
 70
0
  0
VERTEX
  5
13B
  8
14
 10
-2577.660321
 20
-164.601153
 30
0.0
 70
0
  0
VERTEX
  5
13C
  8
14
 10
-2593.295005
 20
-166.236823
 30
0.0
 70
0
  0
VERTEX
  5
13D
  8
14
 10
-2608.949727
 20
-167.673318
 30
0.0
 70
0
  0
VERTEX
  5
13E
  8
14
 10
-2624.620801
 20
-168.914412
 30
0.0
 70
0
  0
VERTEX
  5
13F
  8
14
 10
-2640.304658
 20
-169.963893
 30
0.0
 70
0
  0
VERTEX
  5
140
  8
14
 10
-2655.997727
 20
-170.825544
 30
0.0
 70
0
  0
VERTEX
  5
141
  8
14
 10
-2671.696322
 20
-171.503146
 30
0.0
 70
0
  0
VERTEX
  5
142
  8
14
 10
-2687.396911
 20
-172.000483
 30
0.0
 70
0
  0
VERTEX
  5
143
  8
14
 10
-2702.501704
 20
-172.312681
 30
0.0
 70
0
  0
VERTEX
  5
144
  8
14
 10
-2717.937599
 20
-172.49341
 30
0.0
 70
0
  0
VERTEX
  5
145
  8
14
 10
-2724.40155
 20
-172.537212
 30
0.0
 70
0
  0
SEQEND
  5
CA
  8
14
  0
POLYLINE
  5
146
  8
8
 66
1
 10
0.0
 20
0.0
 30
0.0
 70
0
  0
VERTEX
  5
148
  8
8
 10
-2724.40155
 20
-127.555532
 30
0.0
 70
0
  0
VERTEX
  5
149
  8
8
 10
-2724.40155
 20
-143.288219
 30
0.0
 70
0
  0
VERTEX
  5
14A
  8
8
 10
-2724.40155
 20
-158.304135
 30
0.0
 70
0
  0
VERTEX
  5
14B
  8
8
 10
-2724.40155
 20
-172.537212
 30
0.0
 70
0
  0
SEQEND
  5
147
  8
8
  0
POINT
  5
14C
  8
4
 10
-2724.501038
 20
-185.237045
 30
0.0
  0
POINT
  5
14D
  8
4
 10
-3151.403198
 20
-107.832861
 30
0.0
  0
POINT
  5
14E
  8
4
 10
-3152.312927
 20
-107.487974
 30
0.0
  0
POINT
  5
14F
  8
4
 10
-3193.713074
 20
-30.22105
 30
0.0
  0
POINT
  5
150
  8
4
 10
-2255.089722
 20
-30.22079
 30
0.0
  0
POINT
  5
151
  8
4
 10
-2298.733673
 20
-108.338833
 30
0.0
  0
POINT
  5
152
  8
4
 10
-2724.349976
 20
-185.23737
 30
0.0
  0
POINT
  5
153
  8
4
 10
-2724.40155
 20
-172.537212
 30
0.0
  0
POINT
  5
154
  8
4
 10
-3145.550537
 20
-96.469889
 30
0.0
  0
POINT
  5
155
  8
4
 10
-3145.550537
 20
-96.469889
 30
0.0
  0
POINT
  5
156
  8
4
 10
-3124.822388
 20
-56.226454
 30
0.0
  0
POINT
  5
157
  8
4
 10
-2323.980255
 20
-56.226473
 30
0.0
  0
POINT
  5
158
  8
4
 10
-2303.252258
 20
-96.469889
 30
0.0
  0
POINT
  5
159
  8
4
 10
-2724.40155
 20
-172.537212
 30
0.0
  0
LINE
  5
15A
  8
7
 10
-2722.257385
 20
-132.075167
 30
0.0
 11
-2722.257385
 21
-168.028526
 31
0.0
  0
ENDSEC
  0
EOF
