  0
SECTION
  2
HEADER
  9
$ACADVER
  1
AC1009
  9
$DWGCODEPAGE
  3
ANSI_1252
  9
$INSBASE
 10
0.0
 20
0.0
 30
0.0
  9
$EXTMIN
 10
1e+20
 20
1e+20
 30
1e+20
  9
$EXTMAX
 10
-1e+20
 20
-1e+20
 30
-1e+20
  9
$LIMMIN
 10
0.0
 20
0.0
  9
$LIMMAX
 10
420.0
 20
297.0
  9
$ORTHOMODE
 70
0
  9
$REGENMODE
 70
1
  9
$FILLMODE
 70
1
  9
$DRAGMODE
 70
2
  9
$QTEXTMODE
 70
0
  9
$MIRRTEXT
 70
1
  9
$OSMODE
 70
20583
  9
$LTSCALE
 40
1.0
  9
$ATTMODE
 70
1
  9
$TEXTSIZE
 40
2.5
  9
$TRACEWID
 40
1.0
  9
$TEXTSTYLE
  7
Standard
  9
$CLAYER
  8
0
  9
$CELTYPE
  6
ByLayer
  9
$CECOLOR
 62
256
  9
$DIMSCALE
 40
1.0
  9
$DIMASZ
 40
2.5
  9
$DIMEXO
 40
0.625
  9
$DIMDLI
 40
3.75
  9
$DIMRND
 40
0.0
  9
$DIMDLE
 40
0.0
  9
$DIMEXE
 40
1.25
  9
$DIMTP
 40
0.0
  9
$DIMTM
 40
0.0
  9
$DIMTXT
 40
2.5
  9
$DIMCEN
 40
2.5
  9
$DIMTSZ
 40
0.0
  9
$DIMTOL
 70
0
  9
$DIMLIM
 70
0
  9
$DIMTIH
 70
0
  9
$DIMTOH
 70
0
  9
$DIMSE1
 70
0
  9
$DIMSE2
 70
0
  9
$DIMTAD
 70
1
  9
$DIMZIN
 70
8
  9
$DIMBLK
  1

  9
$DIMASO
 70
1
  9
$DIMSHO
 70
1
  9
$DIMPOST
  1

  9
$DIMAPOST
  1

  9
$DIMALT
 70
0
  9
$DIMALTD
 70
3
  9
$DIMALTF
 40
0.03937007874
  9
$DIMLFAC
 40
1.0
  9
$DIMTOFL
 70
1
  9
$DIMTVP
 40
0.0
  9
$DIMTIX
 70
0
  9
$DIMSOXD
 70
0
  9
$DIMSAH
 70
0
  9
$DIMBLK1
  1

  9
$DIMBLK2
  1

  9
$DIMSTYLE
  2
ISO-25
  9
$DIMCLRD
 70
0
  9
$DIMCLRE
 70
0
  9
$DIMCLRT
 70
0
  9
$DIMTFAC
 40
1.0
  9
$DIMGAP
 40
0.625
  9
$COORDS
 70
1
  9
$ATTDIA
 70
0
  9
$ATTREQ
 70
1
  9
$HANDLING
 70
1
  9
$LUNITS
 70
2
  9
$LUPREC
 70
4
  9
$SKETCHINC
 40
1.0
  9
$FILLETRAD
 40
10.0
  9
$AUNITS
 70
0
  9
$AUPREC
 70
2
  9
$MENU
  1
.
  9
$ELEVATION
 40
0.0
  9
$PELEVATION
 40
0.0
  9
$THICKNESS
 40
0.0
  9
$LIMCHECK
 70
0
  9
$CHAMFERA
 40
0.0
  9
$CHAMFERB
 40
0.0
  9
$SKPOLY
 70
0
  9
$TDCREATE
 40
2461259.4353935183
  9
$TDUPDATE
 40
2461259.4353935183
  9
$TDINDWG
 40
0.0
  9
$TDUSRTIMER
 40
0.0
  9
$USRTIMER
 70
1
  9
$ANGBASE
 50
0.0
  9
$ANGDIR
 70
0
  9
$PDMODE
 70
0
  9
$PDSIZE
 40
0.0
  9
$PLINEWID
 40
0.0
  9
$SPLFRAME
 70
0
  9
$SPLINETYPE
 70
6
  9
$SPLINESEGS
 70
8
  9
$HANDSEED
  5
DC
  9
$SURFTAB1
 70
6
  9
$SURFTAB2
 70
6
  9
$SURFTYPE
 70
6
  9
$SURFU
 70
6
  9
$SURFV
 70
6
  9
$UCSNAME
  2

  9
$UCSORG
 10
0.0
 20
0.0
 30
0.0
  9
$UCSXDIR
 10
1.0
 20
0.0
 30
0.0
  9
$UCSYDIR
 10
0.0
 20
1.0
 30
0.0
  9
$PUCSNAME
  2

  9
$PUCSORG
 10
0.0
 20
0.0
 30
0.0
  9
$PUCSXDIR
 10
1.0
 20
0.0
 30
0.0
  9
$PUCSYDIR
 10
0.0
 20
1.0
 30
0.0
  9
$USERI1
 70
0
  9
$USERI2
 70
0
  9
$USERI3
 70
0
  9
$USERI4
 70
0
  9
$USERI5
 70
0
  9
$USERR1
 40
0.0
  9
$USERR2
 40
0.0
  9
$USERR3
 40
0.0
  9
$USERR4
 40
0.0
  9
$USERR5
 40
0.0
  9
$WORLDVIEW
 70
1
  9
$SHADEDGE
 70
3
  9
$SHADEDIF
 70
70
  9
$TILEMODE
 70
1
  9
$MAXACTVP
 70
64
  9
$PLIMCHECK
 70
0
  9
$PEXTMIN
 10
1e+20
 20
1e+20
 30
1e+20
  9
$PEXTMAX
 10
-1e+20
 20
-1e+20
 30
-1e+20
  9
$PLIMMIN
 10
0.0
 20
0.0
  9
$PLIMMAX
 10
420.0
 20
297.0
  9
$UNITMODE
 70
0
  9
$VISRETAIN
 70
1
  9
$PLINEGEN
 70
0
  9
$PSLTSCALE
 70
1
  0
ENDSEC
  0
SECTION
  2
TABLES
  0
TABLE
  2
VPORT
 70
1
  0
VPORT
  5
23
  2
*Active
 70
0
 10
0.0
 20
0.0
 11
1.0
 21
1.0
 12
0.0
 22
0.0
 13
0.0
 23
0.0
 14
0.5
 24
0.5
 15
0.5
 25
0.5
 16
0.0
 26
0.0
 36
1.0
 17
0.0
 27
0.0
 37
0.0
 40
1000.0
 41
1.34
 42
50.0
 43
0.0
 44
0.0
 50
0.0
 51
0.0
 71
0
 72
1000
 73
1
 74
3
 75
0
 76
0
 77
0
 78
0
  0
ENDTAB
  0
TABLE
  2
LTYPE
 70
3
  0
LTYPE
  5
24
  2
ByBlock
 70
0
  3

 72
65
 73
0
 40
0.0
  0
LTYPE
  5
25
  2
ByLayer
 70
0
  3

 72
65
 73
0
 40
0.0
  0
LTYPE
  5
26
  2
Continuous
 70
0
  3

 72
65
 73
0
 40
0.0
  0
ENDTAB
  0
TABLE
  2
LAYER
 70
4
  0
LAYER
  5
27
  2
0
 70
0
 62
7
  6
Continuous
  0
LAYER
  5
28
  2
Defpoints
 70
0
 62
7
  6
Continuous
  0
LAYER
  5
2D
  2
1
 70
0
 62
1
  6
Continuous
  0
LAYER
  5
2E
  2
7
 70
0
 62
7
  6
Continuous
  0
ENDTAB
  0
TABLE
  2
STYLE
 70
1
  0
STYLE
  5
29
  2
Standard
 70
0
 40
0.0
 41
1.0
 50
0.0
 71
0
 42
2.5
  3
txt
  4

  0
ENDTAB
  0
TABLE
  2
VIEW
 70
0
  0
ENDTAB
  0
TABLE
  2
UCS
 70
0
  0
ENDTAB
  0
TABLE
  2
APPID
 70
3
  0
APPID
  5
2A
  2
ACAD
 70
0
  0
APPID
  5
DA
  2
HATCHBACKGROUNDCOLOR
 70
0
  0
APPID
  5
DB
  2
EZDXF
 70
0
  0
ENDTAB
  0
TABLE
  2
DIMSTYLE
 70
1
  0
DIMSTYLE
105
2B
  2
Standard
 70
0
  3

  4

  5

  6

  7

 40
1.0
 41
2.5
 42
0.625
 43
3.75
 44
1.25
 45
0.0
 46
0.0
 47
0.0
 48
0.0
140
2.5
141
2.5
142
0.0
143
0.03937007874
144
1.0
145
0.0
146
1.0
147
0.625
 71
0
 72
0
 73
0
 74
0
 75
0
 76
0
 77
1
 78
8
170
0
171
3
172
1
173
0
174
0
175
0
176
0
177
0
178
0
  0
ENDTAB
  0
ENDSEC
  0
SECTION
  2
BLOCKS
  0
BLOCK
  5
18
  8
0
  2
$Model_Space
 70
0
 10
0.0
 20
0.0
 30
0.0
  3
$Model_Space
  1

1001
EZDXF
1000
CREATED_BY_EZDXF
1000
1.4.4 @ 2026-08-06T02:26:58.041009+00:00
1000
WRITTEN_BY_EZDXF
1000
1.4.4 @ 2026-08-06T02:26:58.043008+00:00
  0
ENDBLK
  5
19
  8
0
  0
BLOCK
  5
1C
  8
0
  2
$Paper_Space
 70
0
 10
0.0
 20
0.0
 30
0.0
  3
$Paper_Space
  1

  0
ENDBLK
  5
1D
  8
0
  0
ENDSEC
  0
SECTION
  2
ENTITIES
  0
POLYLINE
  5
2F
  8
1
 66
1
 10
0.0
 20
0.0
 30
0.0
 70
1
  0
VERTEX
  5
31
  8
1
 10
-2724.429321
 20
-194.762764
 30
0.0
 70
0
  0
VERTEX
  5
32
  8
1
 10
-2724.336548
 20
-194.762287
 30
0.0
 70
0
  0
VERTEX
  5
33
  8
1
 10
-2728.533077
 20
-194.783761
 30
0.0
 70
0
  0
VERTEX
  5
34
  8
1
 10
-2743.36026
 20
-194.779386
 30
0.0
 70
0
  0
VERTEX
  5
35
  8
1
 10
-2758.687838
 20
-194.625283
 30
0.0
 70
0
  0
VERTEX
  5
36
  8
1
 10
-2773.714965
 20
-194.29705
 30
0.0
 70
0
  0
VERTEX
  5
37
  8
1
 10
-2789.156005
 20
-193.820086
 30
0.0
 70
0
  0
VERTEX
  5
38
  8
1
 10
-2804.175579
 20
-193.245037
 30
0.0
 70
0
  0
VERTEX
  5
39
  8
1
 10
-2819.470264
 20
-192.535497
 30
0.0
 70
0
  0
VERTEX
  5
3A
  8
1
 10
-2834.478254
 20
-191.710055
 30
0.0
 70
0
  0
VERTEX
  5
3B
  8
1
 10
-2849.491062
 20
-190.758254
 30
0.0
 70
0
  0
VERTEX
  5
3C
  8
1
 10
-2864.483113
 20
-189.681609
 30
0.0
 70
0
  0
VERTEX
  5
3D
  8
1
 10
-2879.462859
 20
-188.474925
 30
0.0
 70
0
  0
VERTEX
  5
3E
  8
1
 10
-2894.433492
 20
-187.132728
 30
0.0
 70
0
  0
VERTEX
  5
3F
  8
1
 10
-2909.673582
 20
-185.620621
 30
0.0
 70
0
  0
VERTEX
  5
40
  8
1
 10
-2924.615524
 20
-183.988963
 30
0.0
 70
0
  0
VERTEX
  5
41
  8
1
 10
-2939.537432
 20
-182.204745
 30
0.0
 70
0
  0
VERTEX
  5
42
  8
1
 10
-2954.441766
 20
-180.259496
 30
0.0
 70
0
  0
VERTEX
  5
43
  8
1
 10
-2969.738533
 20
-178.081545
 30
0.0
 70
0
  0
VERTEX
  5
44
  8
1
 10
-2984.591895
 20
-175.778699
 30
0.0
 70
0
  0
VERTEX
  5
45
  8
1
 10
-2999.758619
 20
-173.223474
 30
0.0
 70
0
  0
VERTEX
  5
46
  8
1
 10
-3014.544979
 20
-170.522991
 30
0.0
 70
0
  0
VERTEX
  5
47
  8
1
 10
-3029.352295
 20
-167.603228
 30
0.0
 70
0
  0
VERTEX
  5
48
  8
1
 10
-3044.055933
 20
-164.483603
 30
0.0
 70
0
  0
VERTEX
  5
49
  8
1
 10
-3058.710903
 20
-161.151247
 30
0.0
 70
0
  0
VERTEX
  5
4A
  8
1
 10
-3073.317313
 20
-157.603679
 30
0.0
 70
0
  0
VERTEX
  5
4B
  8
1
 10
-3087.865075
 20
-153.840512
 30
0.0
 70
0
  0
VERTEX
  5
4C
  8
1
 10
-3102.360072
 20
-149.86288
 30
0.0
 70
0
  0
VERTEX
  5
4D
  8
1
 10
-3116.79172
 20
-145.691755
 30
0.0
 70
0
  0
VERTEX
  5
4E
  8
1
 10
-3131.17981
 20
-141.344016
 30
0.0
 70
0
  0
VERTEX
  5
4F
  8
1
 10
-3145.811639
 20
-136.756637
 30
0.0
 70
0
  0
VERTEX
  5
50
  8
1
 10
-3160.112151
 20
-132.128179
 30
0.0
 70
0
  0
VERTEX
  5
51
  8
1
 10
-3174.60305
 20
-127.270295
 30
0.0
 70
0
  0
VERTEX
  5
52
  8
1
 10
-3188.79924
 20
-122.332188
 30
0.0
 70
0
  0
VERTEX
  5
53
  8
1
 10
-3203.210297
 20
-117.172432
 30
0.0
 70
0
  0
VERTEX
  5
54
  8
1
 10
-3217.33029
 20
-112.020494
 30
0.0
 70
0
  0
VERTEX
  5
55
  8
1
 10
-3219.919128
 20
-111.06864
 30
0.0
 70
0
  0
VERTEX
  5
56
  8
1
 10
-3220.706482
 20
-110.780592
 30
0.0
 70
0
  0
VERTEX
  5
57
  8
1
 10
-3231.733296
 20
-106.724762
 30
0.0
 70
0
  0
VERTEX
  5
58
  8
1
 10
-3245.842644
 20
-101.54373
 30
0.0
 70
0
  0
VERTEX
  5
59
  8
1
 10
-3259.96027
 20
-96.366072
 30
0.0
 70
0
  0
VERTEX
  5
5A
  8
1
 10
-3274.417002
 20
-91.061315
 30
0.0
 70
0
  0
VERTEX
  5
5B
  8
1
 10
-3289.118958
 20
-85.663061
 30
0.0
 70
0
  0
VERTEX
  5
5C
  8
1
 10
-3284.853972
 20
-77.382783
 30
0.0
 70
0
  0
VERTEX
  5
5D
  8
1
 10
-3277.987633
 20
-64.052103
 30
0.0
 70
0
  0
VERTEX
  5
5E
  8
1
 10
-3270.98294
 20
-50.452773
 30
0.0
 70
0
  0
VERTEX
  5
5F
  8
1
 10
-3263.9754
 20
-36.847702
 30
0.0
 70
0
  0
VERTEX
  5
60
  8
1
 10
-3262.606201
 20
-34.189503
 30
0.0
 70
0
  0
VERTEX
  5
61
  8
1
 10
-3256.741943
 20
-22.803791
 30
0.0
 70
0
  0
VERTEX
  5
62
  8
1
 10
-3242.110231
 20
-28.137708
 30
0.0
 70
0
  0
VERTEX
  5
63
  8
1
 10
-3227.717966
 20
-33.381169
 30
0.0
 70
0
  0
VERTEX
  5
64
  8
1
 10
-3213.160478
 20
-38.683242
 30
0.0
 70
0
  0
VERTEX
  5
65
  8
1
 10
-3198.983539
 20
-43.858295
 30
0.0
 70
0
  0
VERTEX
  5
66
  8
1
 10
-3184.470975
 20
-49.165436
 30
0.0
 70
0
  0
VERTEX
  5
67
  8
1
 10
-3170.240032
 20
-54.30457
 30
0.0
 70
0
  0
VERTEX
  5
68
  8
1
 10
-3155.659565
 20
-59.42254
 30
0.0
 70
0
  0
VERTEX
  5
69
  8
1
 10
-3141.042209
 20
-64.377446
 30
0.0
 70
0
  0
VERTEX
  5
6A
  8
1
 10
-3126.351894
 20
-69.170846
 30
0.0
 70
0
  0
VERTEX
  5
6B
  8
1
 10
-3111.60547
 20
-73.801254
 30
0.0
 70
0
  0
VERTEX
  5
6C
  8
1
 10
-3096.81144
 20
-78.264967
 30
0.0
 70
0
  0
VERTEX
  5
6D
  8
1
 10
-3082.364874
 20
-82.421675
 30
0.0
 70
0
  0
VERTEX
  5
6E
  8
1
 10
-3067.452945
 20
-86.474633
 30
0.0
 70
0
  0
VERTEX
  5
6F
  8
1
 10
-3052.879661
 20
-90.18945
 30
0.0
 70
0
  0
VERTEX
  5
70
  8
1
 10
-3037.845218
 20
-93.761517
 30
0.0
 70
0
  0
VERTEX
  5
71
  8
1
 10
-3022.867562
 20
-97.067727
 30
0.0
 70
0
  0
VERTEX
  5
72
  8
1
 10
-3007.72871
 20
-100.167
 30
0.0
 70
0
  0
VERTEX
  5
73
  8
1
 10
-2992.85858
 20
-102.986589
 30
0.0
 70
0
  0
VERTEX
  5
74
  8
1
 10
-2977.637718
 20
-105.653467
 30
0.0
 70
0
  0
VERTEX
  5
75
  8
1
 10
-2962.818708
 20
-108.04432
 30
0.0
 70
0
  0
VERTEX
  5
76
  8
1
 10
-2947.532205
 20
-110.304981
 30
0.0
 70
0
  0
VERTEX
  5
77
  8
1
 10
-2932.335771
 20
-112.352131
 30
0.0
 70
0
  0
VERTEX
  5
78
  8
1
 10
-2916.996771
 20
-114.223287
 30
0.0
 70
0
  0
VERTEX
  5
79
  8
1
 10
-2901.782228
 20
-115.893732
 30
0.0
 70
0
  0
VERTEX
  5
7A
  8
1
 10
-2886.403258
 20
-117.401128
 30
0.0
 70
0
  0
VERTEX
  5
7B
  8
1
 10
-2871.370236
 20
-118.701384
 30
0.0
 70
0
  0
VERTEX
  5
7C
  8
1
 10
-2855.961327
 20
-119.861645
 30
0.0
 70
0
  0
VERTEX
  5
7D
  8
1
 10
-2840.545273
 20
-120.859648
 30
0.0
 70
0
  0
VERTEX
  5
7E
  8
1
 10
-2825.116017
 20
-121.708875
 30
0.0
 70
0
  0
VERTEX
  5
7F
  8
1
 10
-2809.635544
 20
-122.425079
 30
0.0
 70
0
  0
VERTEX
  5
80
  8
1
 10
-2794.194539
 20
-123.019773
 30
0.0
 70
0
  0
VERTEX
  5
81
  8
1
 10
-2779.081349
 20
-123.503421
 30
0.0
 70
0
  0
VERTEX
  5
82
  8
1
 10
-2763.633841
 20
-123.901425
 30
0.0
 70
0
  0
VERTEX
  5
83
  8
1
 10
-2748.578378
 20
-124.175622
 30
0.0
 70
0
  0
VERTEX
  5
84
  8
1
 10
-2733.433882
 20
-124.34375
 30
0.0
 70
0
  0
VERTEX
  5
85
  8
1
 10
-2725.186157
 20
-124.397593
 30
0.0
 70
0
  0
VERTEX
  5
86
  8
1
 10
-2723.226034
 20
-124.429082
 30
0.0
 70
0
  0
VERTEX
  5
87
  8
1
 10
-2710.260768
 20
-124.513637
 30
0.0
 70
0
  0
VERTEX
  5
88
  8
1
 10
-2695.720941
 20
-124.336115
 30
0.0
 70
0
  0
VERTEX
  5
89
  8
1
 10
-2680.645575
 20
-123.922581
 30
0.0
 70
0
  0
VERTEX
  5
8A
  8
1
 10
-2665.601293
 20
-123.361987
 30
0.0
 70
0
  0
VERTEX
  5
8B
  8
1
 10
-2650.535412
 20
-122.747215
 30
0.0
 70
0
  0
VERTEX
  5
8C
  8
1
 10
-2635.150687
 20
-122.152947
 30
0.0
 70
0
  0
VERTEX
  5
8D
  8
1
 10
-2620.084534
 20
-121.534251
 30
0.0
 70
0
  0
VERTEX
  5
8E
  8
1
 10
-2604.751129
 20
-120.710281
 30
0.0
 70
0
  0
VERTEX
  5
8F
  8
1
 10
-2589.706835
 20
-119.683677
 30
0.0
 70
0
  0
VERTEX
  5
90
  8
1
 10
-2574.229939
 20
-118.451277
 30
0.0
 70
0
  0
VERTEX
  5
91
  8
1
 10
-2559.211733
 20
-117.100509
 30
0.0
 70
0
  0
VERTEX
  5
92
  8
1
 10
-2543.88954
 20
-115.560546
 30
0.0
 70
0
  0
VERTEX
  5
93
  8
1
 10
-2528.904026
 20
-113.884261
 30
0.0
 70
0
  0
VERTEX
  5
94
  8
1
 10
-2513.907725
 20
-112.022604
 30
0.0
 70
0
  0
VERTEX
  5
95
  8
1
 10
-2498.968015
 20
-109.977493
 30
0.0
 70
0
  0
VERTEX
  5
96
  8
1
 10
-2483.81354
 20
-107.706187
 30
0.0
 70
0
  0
VERTEX
  5
97
  8
1
 10
-2468.931554
 20
-105.276229
 30
0.0
 70
0
  0
VERTEX
  5
98
  8
1
 10
-2454.043257
 20
-102.638319
 30
0.0
 70
0
  0
VERTEX
  5
99
  8
1
 10
-2439.233401
 20
-99.801482
 30
0.0
 70
0
  0
VERTEX
  5
9A
  8
1
 10
-2424.072137
 20
-96.669855
 30
0.0
 70
0
  0
VERTEX
  5
9B
  8
1
 10
-2409.352994
 20
-93.394802
 30
0.0
 70
0
  0
VERTEX
  5
9C
  8
1
 10
-2394.604611
 20
-89.863591
 30
0.0
 70
0
  0
VERTEX
  5
9D
  8
1
 10
-2379.998218
 20
-86.116968
 30
0.0
 70
0
  0
VERTEX
  5
9E
  8
1
 10
-2365.195308
 20
-82.072863
 30
0.0
 70
0
  0
VERTEX
  5
9F
  8
1
 10
-2350.708304
 20
-77.888713
 30
0.0
 70
0
  0
VERTEX
  5
A0
  8
1
 10
-2336.028284
 20
-73.440669
 30
0.0
 70
0
  0
VERTEX
  5
A1
  8
1
 10
-2321.647857
 20
-68.904219
 30
0.0
 70
0
  0
VERTEX
  5
A2
  8
1
 10
-2307.183741
 20
-64.185171
 30
0.0
 70
0
  0
VERTEX
  5
A3
  8
1
 10
-2292.899543
 20
-59.354562
 30
0.0
 70
0
  0
VERTEX
  5
A4
  8
1
 10
-2278.555759
 20
-54.303044
 30
0.0
 70
0
  0
VERTEX
  5
A5
  8
1
 10
-2264.377706
 20
-49.168966
 30
0.0
 70
0
  0
VERTEX
  5
A6
  8
1
 10
-2249.79021
 20
-43.84717
 30
0.0
 70
0
  0
VERTEX
  5
A7
  8
1
 10
-2235.573794
 20
-38.662043
 30
0.0
 70
0
  0
VERTEX
  5
A8
  8
1
 10
-2221.107378
 20
-33.387293
 30
0.0
 70
0
  0
VERTEX
  5
A9
  8
1
 10
-2206.692472
 20
-28.132709
 30
0.0
 70
0
  0
VERTEX
  5
AA
  8
1
 10
-2192.062073
 20
-22.801054
 30
0.0
 70
0
  0
VERTEX
  5
AB
  8
1
 10
-2186.195526
 20
-34.190946
 30
0.0
 70
0
  0
VERTEX
  5
AC
  8
1
 10
-2184.84987
 20
-36.803519
 30
0.0
 70
0
  0
VERTEX
  5
AD
  8
1
 10
-2177.794107
 20
-50.502255
 30
0.0
 70
0
  0
VERTEX
  5
AE
  8
1
 10
-2170.795073
 20
-64.090849
 30
0.0
 70
0
  0
VERTEX
  5
AF
  8
1
 10
-2163.954928
 20
-77.370955
 30
0.0
 70
0
  0
VERTEX
  5
B0
  8
1
 10
-2159.717255
 20
-85.598373
 30
0.0
 70
0
  0
VERTEX
  5
B1
  8
1
 10
-2174.44544
 20
-91.020528
 30
0.0
 70
0
  0
VERTEX
  5
B2
  8
1
 10
-2188.774933
 20
-96.292876
 30
0.0
 70
0
  0
VERTEX
  5
B3
  8
1
 10
-2203.349037
 20
-101.653303
 30
0.0
 70
0
  0
VERTEX
  5
B4
  8
1
 10
-2217.450222
 20
-106.848384
 30
0.0
 70
0
  0
VERTEX
  5
B5
  8
1
 10
-2230.35141
 20
-111.610308
 30
0.0
 70
0
  0
VERTEX
  5
B6
  8
1
 10
-2231.825876
 20
-112.153499
 30
0.0
 70
0
  0
VERTEX
  5
B7
  8
1
 10
-2245.938384
 20
-117.317879
 30
0.0
 70
0
  0
VERTEX
  5
B8
  8
1
 10
-2260.482578
 20
-122.530649
 30
0.0
 70
0
  0
VERTEX
  5
B9
  8
1
 10
-2274.676711
 20
-127.466381
 30
0.0
 70
0
  0
VERTEX
  5
BA
  8
1
 10
-2289.197763
 20
-132.330954
 30
0.0
 70
0
  0
VERTEX
  5
BB
  8
1
 10
-2303.497054
 20
-136.954072
 30
0.0
 70
0
  0
VERTEX
  5
BC
  8
1
 10
-2317.985863
 20
-141.489443
 30
0.0
 70
0
  0
VERTEX
  5
BD
  8
1
 10
-2332.374344
 20
-145.826247
 30
0.0
 70
0
  0
VERTEX
  5
BE
  8
1
 10
-2346.836209
 20
-149.988821
 30
0.0
 70
0
  0
VERTEX
  5
BF
  8
1
 10
-2361.334191
 20
-153.945076
 30
0.0
 70
0
  0
VERTEX
  5
C0
  8
1
 10
-2375.99264
 20
-157.711117
 30
0.0
 70
0
  0
VERTEX
  5
C1
  8
1
 10
-2390.602265
 20
-161.233275
 30
0.0
 70
0
  0
VERTEX
  5
C2
  8
1
 10
-2405.373295
 20
-164.568648
 30
0.0
 70
0
  0
VERTEX
  5
C3
  8
1
 10
-2420.076763
 20
-167.675477
 30
0.0
 70
0
  0
VERTEX
  5
C4
  8
1
 10
-2434.813669
 20
-170.588666
 30
0.0
 70
0
  0
VERTEX
  5
C5
  8
1
 10
-2449.591599
 20
-173.318789
 30
0.0
 70
0
  0
VERTEX
  5
C6
  8
1
 10
-2464.397032
 20
-175.8711
 30
0.0
 70
0
  0
VERTEX
  5
C7
  8
1
 10
-2479.235369
 20
-178.250911
 30
0.0
 70
0
  0
VERTEX
  5
C8
  8
1
 10
-2494.208403
 20
-180.475271
 30
0.0
 70
0
  0
VERTEX
  5
C9
  8
1
 10
-2509.097388
 20
-182.514479
 30
0.0
 70
0
  0
VERTEX
  5
CA
  8
1
 10
-2523.996363
 20
-184.386311
 30
0.0
 70
0
  0
VERTEX
  5
CB
  8
1
 10
-2538.926723
 20
-186.09618
 30
0.0
 70
0
  0
VERTEX
  5
CC
  8
1
 10
-2554.327073
 20
-187.689346
 30
0.0
 70
0
  0
VERTEX
  5
CD
  8
1
 10
-2569.291021
 20
-189.074848
 30
0.0
 70
0
  0
VERTEX
  5
CE
  8
1
 10
-2584.717359
 20
-190.338898
 30
0.0
 70
0
  0
VERTEX
  5
CF
  8
1
 10
-2599.707095
 20
-191.410334
 30
0.0
 70
0
  0
VERTEX
  5
D0
  8
1
 10
-2615.14986
 20
-192.355305
 30
0.0
 70
0
  0
VERTEX
  5
D1
  8
1
 10
-2630.158148
 20
-193.122527
 30
0.0
 70
0
  0
VERTEX
  5
D2
  8
1
 10
-2645.606671
 20
-193.76027
 30
0.0
 70
0
  0
VERTEX
  5
D3
  8
1
 10
-2660.627032
 20
-194.234387
 30
0.0
 70
0
  0
VERTEX
  5
D4
  8
1
 10
-2676.06998
 20
-194.572961
 30
0.0
 70
0
  0
VERTEX
  5
D5
  8
1
 10
-2691.096646
 20
-194.76131
 30
0.0
 70
0
  0
VERTEX
  5
D6
  8
1
 10
-2706.307683
 20
-194.819458
 30
0.0
 70
0
  0
VERTEX
  5
D7
  8
1
 10
-2721.32788
 20
-194.781035
 30
0.0
 70
0
  0
VERTEX
  5
D8
  8
1
 10
-2724.478149
 20
-194.76202
 30
0.0
 70
0
  0
SEQEND
  5
30
  8
1
  0
LINE
  5
D9
  8
7
 10
-2722.257385
 20
-141.633129
 30
0.0
 11
-2722.257385
 21
-177.582321
 31
0.0
  0
ENDSEC
  0
EOF
