  0
SECTION
  2
HEADER
  9
$ACADVER
  1
AC1009
  9
$DWGCODEPAGE
  3
ANSI_1252
  9
$INSBASE
 10
0.0
 20
0.0
 30
0.0
  9
$EXTMIN
 10
1e+20
 20
1e+20
 30
1e+20
  9
$EXTMAX
 10
-1e+20
 20
-1e+20
 30
-1e+20
  9
$LIMMIN
 10
0.0
 20
0.0
  9
$LIMMAX
 10
420.0
 20
297.0
  9
$ORTHOMODE
 70
0
  9
$REGENMODE
 70
1
  9
$FILLMODE
 70
1
  9
$DRAGMODE
 70
2
  9
$QTEXTMODE
 70
0
  9
$MIRRTEXT
 70
1
  9
$OSMODE
 70
20583
  9
$LTSCALE
 40
1.0
  9
$ATTMODE
 70
1
  9
$TEXTSIZE
 40
2.5
  9
$TRACEWID
 40
1.0
  9
$TEXTSTYLE
  7
Standard
  9
$CLAYER
  8
0
  9
$CELTYPE
  6
ByLayer
  9
$CECOLOR
 62
256
  9
$DIMSCALE
 40
1.0
  9
$DIMASZ
 40
2.5
  9
$DIMEXO
 40
0.625
  9
$DIMDLI
 40
3.75
  9
$DIMRND
 40
0.0
  9
$DIMDLE
 40
0.0
  9
$DIMEXE
 40
1.25
  9
$DIMTP
 40
0.0
  9
$DIMTM
 40
0.0
  9
$DIMTXT
 40
2.5
  9
$DIMCEN
 40
2.5
  9
$DIMTSZ
 40
0.0
  9
$DIMTOL
 70
0
  9
$DIMLIM
 70
0
  9
$DIMTIH
 70
0
  9
$DIMTOH
 70
0
  9
$DIMSE1
 70
0
  9
$DIMSE2
 70
0
  9
$DIMTAD
 70
1
  9
$DIMZIN
 70
8
  9
$DIMBLK
  1

  9
$DIMASO
 70
1
  9
$DIMSHO
 70
1
  9
$DIMPOST
  1

  9
$DIMAPOST
  1

  9
$DIMALT
 70
0
  9
$DIMALTD
 70
3
  9
$DIMALTF
 40
0.03937007874
  9
$DIMLFAC
 40
1.0
  9
$DIMTOFL
 70
1
  9
$DIMTVP
 40
0.0
  9
$DIMTIX
 70
0
  9
$DIMSOXD
 70
0
  9
$DIMSAH
 70
0
  9
$DIMBLK1
  1

  9
$DIMBLK2
  1

  9
$DIMSTYLE
  2
ISO-25
  9
$DIMCLRD
 70
0
  9
$DIMCLRE
 70
0
  9
$DIMCLRT
 70
0
  9
$DIMTFAC
 40
1.0
  9
$DIMGAP
 40
0.625
  9
$COORDS
 70
1
  9
$ATTDIA
 70
0
  9
$ATTREQ
 70
1
  9
$HANDLING
 70
1
  9
$LUNITS
 70
2
  9
$LUPREC
 70
4
  9
$SKETCHINC
 40
1.0
  9
$FILLETRAD
 40
10.0
  9
$AUNITS
 70
0
  9
$AUPREC
 70
2
  9
$MENU
  1
.
  9
$ELEVATION
 40
0.0
  9
$PELEVATION
 40
0.0
  9
$THICKNESS
 40
0.0
  9
$LIMCHECK
 70
0
  9
$CHAMFERA
 40
0.0
  9
$CHAMFERB
 40
0.0
  9
$SKPOLY
 70
0
  9
$TDCREATE
 40
2461259.4353935183
  9
$TDUPDATE
 40
2461259.4353935183
  9
$TDINDWG
 40
0.0
  9
$TDUSRTIMER
 40
0.0
  9
$USRTIMER
 70
1
  9
$ANGBASE
 50
0.0
  9
$ANGDIR
 70
0
  9
$PDMODE
 70
0
  9
$PDSIZE
 40
0.0
  9
$PLINEWID
 40
0.0
  9
$SPLFRAME
 70
0
  9
$SPLINETYPE
 70
6
  9
$SPLINESEGS
 70
8
  9
$HANDSEED
  5
ED
  9
$SURFTAB1
 70
6
  9
$SURFTAB2
 70
6
  9
$SURFTYPE
 70
6
  9
$SURFU
 70
6
  9
$SURFV
 70
6
  9
$UCSNAME
  2

  9
$UCSORG
 10
0.0
 20
0.0
 30
0.0
  9
$UCSXDIR
 10
1.0
 20
0.0
 30
0.0
  9
$UCSYDIR
 10
0.0
 20
1.0
 30
0.0
  9
$PUCSNAME
  2

  9
$PUCSORG
 10
0.0
 20
0.0
 30
0.0
  9
$PUCSXDIR
 10
1.0
 20
0.0
 30
0.0
  9
$PUCSYDIR
 10
0.0
 20
1.0
 30
0.0
  9
$USERI1
 70
0
  9
$USERI2
 70
0
  9
$USERI3
 70
0
  9
$USERI4
 70
0
  9
$USERI5
 70
0
  9
$USERR1
 40
0.0
  9
$USERR2
 40
0.0
  9
$USERR3
 40
0.0
  9
$USERR4
 40
0.0
  9
$USERR5
 40
0.0
  9
$WORLDVIEW
 70
1
  9
$SHADEDGE
 70
3
  9
$SHADEDIF
 70
70
  9
$TILEMODE
 70
1
  9
$MAXACTVP
 70
64
  9
$PLIMCHECK
 70
0
  9
$PEXTMIN
 10
1e+20
 20
1e+20
 30
1e+20
  9
$PEXTMAX
 10
-1e+20
 20
-1e+20
 30
-1e+20
  9
$PLIMMIN
 10
0.0
 20
0.0
  9
$PLIMMAX
 10
420.0
 20
297.0
  9
$UNITMODE
 70
0
  9
$VISRETAIN
 70
1
  9
$PLINEGEN
 70
0
  9
$PSLTSCALE
 70
1
  0
ENDSEC
  0
SECTION
  2
TABLES
  0
TABLE
  2
VPORT
 70
1
  0
VPORT
  5
23
  2
*Active
 70
0
 10
0.0
 20
0.0
 11
1.0
 21
1.0
 12
0.0
 22
0.0
 13
0.0
 23
0.0
 14
0.5
 24
0.5
 15
0.5
 25
0.5
 16
0.0
 26
0.0
 36
1.0
 17
0.0
 27
0.0
 37
0.0
 40
1000.0
 41
1.34
 42
50.0
 43
0.0
 44
0.0
 50
0.0
 51
0.0
 71
0
 72
1000
 73
1
 74
3
 75
0
 76
0
 77
0
 78
0
  0
ENDTAB
  0
TABLE
  2
LTYPE
 70
3
  0
LTYPE
  5
24
  2
ByBlock
 70
0
  3

 72
65
 73
0
 40
0.0
  0
LTYPE
  5
25
  2
ByLayer
 70
0
  3

 72
65
 73
0
 40
0.0
  0
LTYPE
  5
26
  2
Continuous
 70
0
  3

 72
65
 73
0
 40
0.0
  0
ENDTAB
  0
TABLE
  2
LAYER
 70
4
  0
LAYER
  5
27
  2
0
 70
0
 62
7
  6
Continuous
  0
LAYER
  5
28
  2
Defpoints
 70
0
 62
7
  6
Continuous
  0
LAYER
  5
2D
  2
1
 70
0
 62
1
  6
Continuous
  0
LAYER
  5
2E
  2
7
 70
0
 62
7
  6
Continuous
  0
ENDTAB
  0
TABLE
  2
STYLE
 70
1
  0
STYLE
  5
29
  2
Standard
 70
0
 40
0.0
 41
1.0
 50
0.0
 71
0
 42
2.5
  3
txt
  4

  0
ENDTAB
  0
TABLE
  2
VIEW
 70
0
  0
ENDTAB
  0
TABLE
  2
UCS
 70
0
  0
ENDTAB
  0
TABLE
  2
APPID
 70
3
  0
APPID
  5
2A
  2
ACAD
 70
0
  0
APPID
  5
EB
  2
HATCHBACKGROUNDCOLOR
 70
0
  0
APPID
  5
EC
  2
EZDXF
 70
0
  0
ENDTAB
  0
TABLE
  2
DIMSTYLE
 70
1
  0
DIMSTYLE
105
2B
  2
Standard
 70
0
  3

  4

  5

  6

  7

 40
1.0
 41
2.5
 42
0.625
 43
3.75
 44
1.25
 45
0.0
 46
0.0
 47
0.0
 48
0.0
140
2.5
141
2.5
142
0.0
143
0.03937007874
144
1.0
145
0.0
146
1.0
147
0.625
 71
0
 72
0
 73
0
 74
0
 75
0
 76
0
 77
1
 78
8
170
0
171
3
172
1
173
0
174
0
175
0
176
0
177
0
178
0
  0
ENDTAB
  0
ENDSEC
  0
SECTION
  2
BLOCKS
  0
BLOCK
  5
18
  8
0
  2
$Model_Space
 70
0
 10
0.0
 20
0.0
 30
0.0
  3
$Model_Space
  1

1001
EZDXF
1000
CREATED_BY_EZDXF
1000
1.4.4 @ 2026-08-06T02:26:58.281014+00:00
1000
WRITTEN_BY_EZDXF
1000
1.4.4 @ 2026-08-06T02:26:58.283014+00:00
  0
ENDBLK
  5
19
  8
0
  0
BLOCK
  5
1C
  8
0
  2
$Paper_Space
 70
0
 10
0.0
 20
0.0
 30
0.0
  3
$Paper_Space
  1

  0
ENDBLK
  5
1D
  8
0
  0
ENDSEC
  0
SECTION
  2
ENTITIES
  0
POLYLINE
  5
2F
  8
1
 66
1
 10
0.0
 20
0.0
 30
0.0
 70
1
  0
VERTEX
  5
31
  8
1
 10
-2724.413452
 20
-204.288807
 30
0.0
 70
0
  0
VERTEX
  5
32
  8
1
 10
-2724.246216
 20
-204.286766
 30
0.0
 70
0
  0
VERTEX
  5
33
  8
1
 10
-2732.511355
 20
-204.387875
 30
0.0
 70
0
  0
VERTEX
  5
34
  8
1
 10
-2747.590005
 20
-204.490028
 30
0.0
 70
0
  0
VERTEX
  5
35
  8
1
 10
-2762.95595
 20
-204.474458
 30
0.0
 70
0
  0
VERTEX
  5
36
  8
1
 10
-2777.934188
 20
-204.308319
 30
0.0
 70
0
  0
VERTEX
  5
37
  8
1
 10
-2793.179703
 20
-204.005316
 30
0.0
 70
0
  0
VERTEX
  5
38
  8
1
 10
-2808.350169
 20
-203.59958
 30
0.0
 70
0
  0
VERTEX
  5
39
  8
1
 10
-2823.63112
 20
-203.08483
 30
0.0
 70
0
  0
VERTEX
  5
3A
  8
1
 10
-2838.866434
 20
-202.458483
 30
0.0
 70
0
  0
VERTEX
  5
3B
  8
1
 10
-2854.105643
 20
-201.718342
 30
0.0
 70
0
  0
VERTEX
  5
3C
  8
1
 10
-2869.33006
 20
-200.865716
 30
0.0
 70
0
  0
VERTEX
  5
3D
  8
1
 10
-2884.547553
 20
-199.897863
 30
0.0
 70
0
  0
VERTEX
  5
3E
  8
1
 10
-2899.645865
 20
-198.819999
 30
0.0
 70
0
  0
VERTEX
  5
3F
  8
1
 10
-2914.846254
 20
-197.612596
 30
0.0
 70
0
  0
VERTEX
  5
40
  8
1
 10
-2929.875754
 20
-196.293901
 30
0.0
 70
0
  0
VERTEX
  5
41
  8
1
 10
-2945.12219
 20
-194.823973
 30
0.0
 70
0
  0
VERTEX
  5
42
  8
1
 10
-2960.286384
 20
-193.224112
 30
0.0
 70
0
  0
VERTEX
  5
43
  8
1
 10
-2975.434892
 20
-191.482155
 30
0.0
 70
0
  0
VERTEX
  5
44
  8
1
 10
-2990.542554
 20
-189.594623
 30
0.0
 70
0
  0
VERTEX
  5
45
  8
1
 10
-3005.652835
 20
-187.547397
 30
0.0
 70
0
  0
VERTEX
  5
46
  8
1
 10
-3020.693851
 20
-185.341403
 30
0.0
 70
0
  0
VERTEX
  5
47
  8
1
 10
-3035.976802
 20
-182.917676
 30
0.0
 70
0
  0
VERTEX
  5
48
  8
1
 10
-3051.006705
 20
-180.345341
 30
0.0
 70
0
  0
VERTEX
  5
49
  8
1
 10
-3066.237142
 20
-177.541444
 30
0.0
 70
0
  0
VERTEX
  5
4A
  8
1
 10
-3081.197044
 20
-174.58899
 30
0.0
 70
0
  0
VERTEX
  5
4B
  8
1
 10
-3096.117902
 20
-171.444873
 30
0.0
 70
0
  0
VERTEX
  5
4C
  8
1
 10
-3110.771345
 20
-168.159353
 30
0.0
 70
0
  0
VERTEX
  5
4D
  8
1
 10
-3125.60485
 20
-164.626515
 30
0.0
 70
0
  0
VERTEX
  5
4E
  8
1
 10
-3140.319319
 20
-160.911616
 30
0.0
 70
0
  0
VERTEX
  5
4F
  8
1
 10
-3155.055285
 20
-156.991336
 30
0.0
 70
0
  0
VERTEX
  5
50
  8
1
 10
-3169.557989
 20
-152.950946
 30
0.0
 70
0
  0
VERTEX
  5
51
  8
1
 10
-3184.201594
 20
-148.699519
 30
0.0
 70
0
  0
VERTEX
  5
52
  8
1
 10
-3198.707267
 20
-144.330886
 30
0.0
 70
0
  0
VERTEX
  5
53
  8
1
 10
-3213.434194
 20
-139.756352
 30
0.0
 70
0
  0
VERTEX
  5
54
  8
1
 10
-3227.960782
 20
-135.120198
 30
0.0
 70
0
  0
VERTEX
  5
55
  8
1
 10
-3242.552428
 20
-130.317087
 30
0.0
 70
0
  0
VERTEX
  5
56
  8
1
 10
-3256.986921
 20
-125.402408
 30
0.0
 70
0
  0
VERTEX
  5
57
  8
1
 10
-3271.380527
 20
-120.368699
 30
0.0
 70
0
  0
VERTEX
  5
58
  8
1
 10
-3285.627299
 20
-115.298165
 30
0.0
 70
0
  0
VERTEX
  5
59
  8
1
 10
-3288.429565
 20
-114.293556
 30
0.0
 70
0
  0
VERTEX
  5
5A
  8
1
 10
-3289.118042
 20
-114.048061
 30
0.0
 70
0
  0
VERTEX
  5
5B
  8
1
 10
-3300.223178
 20
-110.065721
 30
0.0
 70
0
  0
VERTEX
  5
5C
  8
1
 10
-3314.578948
 20
-104.925848
 30
0.0
 70
0
  0
VERTEX
  5
5D
  8
1
 10
-3328.936747
 20
-99.79159
 30
0.0
 70
0
  0
VERTEX
  5
5E
  8
1
 10
-3343.112305
 20
-94.720385
 30
0.0
 70
0
  0
VERTEX
  5
5F
  8
1
 10
-3357.905884
 20
-89.425116
 30
0.0
 70
0
  0
VERTEX
  5
60
  8
1
 10
-3353.564961
 20
-80.997215
 30
0.0
 70
0
  0
VERTEX
  5
61
  8
1
 10
-3346.716206
 20
-67.700423
 30
0.0
 70
0
  0
VERTEX
  5
62
  8
1
 10
-3339.713122
 20
-54.104101
 30
0.0
 70
0
  0
VERTEX
  5
63
  8
1
 10
-3332.675387
 20
-40.44056
 30
0.0
 70
0
  0
VERTEX
  5
64
  8
1
 10
-3331.403198
 20
-37.970676
 30
0.0
 70
0
  0
VERTEX
  5
65
  8
1
 10
-3325.535278
 20
-26.578286
 30
0.0
 70
0
  0
VERTEX
  5
66
  8
1
 10
-3310.679554
 20
-31.848586
 30
0.0
 70
0
  0
VERTEX
  5
67
  8
1
 10
-3296.553066
 20
-36.857704
 30
0.0
 70
0
  0
VERTEX
  5
68
  8
1
 10
-3281.921878
 20
-42.044477
 30
0.0
 70
0
  0
VERTEX
  5
69
  8
1
 10
-3267.765419
 20
-47.071699
 30
0.0
 70
0
  0
VERTEX
  5
6A
  8
1
 10
-3253.491933
 20
-52.147798
 30
0.0
 70
0
  0
VERTEX
  5
6B
  8
1
 10
-3239.322343
 20
-57.137632
 30
0.0
 70
0
  0
VERTEX
  5
6C
  8
1
 10
-3225.005064
 20
-62.066142
 30
0.0
 70
0
  0
VERTEX
  5
6D
  8
1
 10
-3210.756509
 20
-66.826324
 30
0.0
 70
0
  0
VERTEX
  5
6E
  8
1
 10
-3196.06878
 20
-71.565018
 30
0.0
 70
0
  0
VERTEX
  5
6F
  8
1
 10
-3181.728037
 20
-76.040173
 30
0.0
 70
0
  0
VERTEX
  5
70
  8
1
 10
-3167.331262
 20
-80.396077
 30
0.0
 70
0
  0
VERTEX
  5
71
  8
1
 10
-3152.910716
 20
-84.606559
 30
0.0
 70
0
  0
VERTEX
  5
72
  8
1
 10
-3138.08686
 20
-88.752678
 30
0.0
 70
0
  0
VERTEX
  5
73
  8
1
 10
-3123.569502
 20
-92.61691
 30
0.0
 70
0
  0
VERTEX
  5
74
  8
1
 10
-3108.600205
 20
-96.384089
 30
0.0
 70
0
  0
VERTEX
  5
75
  8
1
 10
-3093.981624
 20
-99.845893
 30
0.0
 70
0
  0
VERTEX
  5
76
  8
1
 10
-3079.201419
 20
-103.128109
 30
0.0
 70
0
  0
VERTEX
  5
77
  8
1
 10
-3064.492846
 20
-106.18543
 30
0.0
 70
0
  0
VERTEX
  5
78
  8
1
 10
-3049.305255
 20
-109.134644
 30
0.0
 70
0
  0
VERTEX
  5
79
  8
1
 10
-3034.522967
 20
-111.811871
 30
0.0
 70
0
  0
VERTEX
  5
7A
  8
1
 10
-3019.410252
 20
-114.36028
 30
0.0
 70
0
  0
VERTEX
  5
7B
  8
1
 10
-3004.568112
 20
-116.682993
 30
0.0
 70
0
  0
VERTEX
  5
7C
  8
1
 10
-2989.708639
 20
-118.834397
 30
0.0
 70
0
  0
VERTEX
  5
7D
  8
1
 10
-2974.817769
 20
-120.820939
 30
0.0
 70
0
  0
VERTEX
  5
7E
  8
1
 10
-2959.791283
 20
-122.659053
 30
0.0
 70
0
  0
VERTEX
  5
7F
  8
1
 10
-2944.861161
 20
-124.324619
 30
0.0
 70
0
  0
VERTEX
  5
80
  8
1
 10
-2929.446398
 20
-125.881106
 30
0.0
 70
0
  0
VERTEX
  5
81
  8
1
 10
-2914.4851
 20
-127.238251
 30
0.0
 70
0
  0
VERTEX
  5
82
  8
1
 10
-2899.088739
 20
-128.481702
 30
0.0
 70
0
  0
VERTEX
  5
83
  8
1
 10
-2884.103729
 20
-129.545288
 30
0.0
 70
0
  0
VERTEX
  5
84
  8
1
 10
-2869.063901
 20
-130.470254
 30
0.0
 70
0
  0
VERTEX
  5
85
  8
1
 10
-2854.061815
 20
-131.2606
 30
0.0
 70
0
  0
VERTEX
  5
86
  8
1
 10
-2839.053841
 20
-131.931526
 30
0.0
 70
0
  0
VERTEX
  5
87
  8
1
 10
-2823.675908
 20
-132.507112
 30
0.0
 70
0
  0
VERTEX
  5
88
  8
1
 10
-2808.6604
 20
-132.968449
 30
0.0
 70
0
  0
VERTEX
  5
89
  8
1
 10
-2793.414741
 20
-133.342686
 30
0.0
 70
0
  0
VERTEX
  5
8A
  8
1
 10
-2778.394798
 20
-133.626895
 30
0.0
 70
0
  0
VERTEX
  5
8B
  8
1
 10
-2763.10435
 20
-133.835828
 30
0.0
 70
0
  0
VERTEX
  5
8C
  8
1
 10
-2748.082206
 20
-133.948932
 30
0.0
 70
0
  0
VERTEX
  5
8D
  8
1
 10
-2732.824304
 20
-133.96012
 30
0.0
 70
0
  0
VERTEX
  5
8E
  8
1
 10
-2724.53125
 20
-133.932486
 30
0.0
 70
0
  0
VERTEX
  5
8F
  8
1
 10
-2716.131744
 20
-134.115001
 30
0.0
 70
0
  0
VERTEX
  5
90
  8
1
 10
-2701.604885
 20
-134.24053
 30
0.0
 70
0
  0
VERTEX
  5
91
  8
1
 10
-2686.506397
 20
-134.119503
 30
0.0
 70
0
  0
VERTEX
  5
92
  8
1
 10
-2671.31583
 20
-133.784886
 30
0.0
 70
0
  0
VERTEX
  5
93
  8
1
 10
-2656.225532
 20
-133.306616
 30
0.0
 70
0
  0
VERTEX
  5
94
  8
1
 10
-2641.06276
 20
-132.815463
 30
0.0
 70
0
  0
VERTEX
  5
95
  8
1
 10
-2625.970696
 20
-132.412394
 30
0.0
 70
0
  0
VERTEX
  5
96
  8
1
 10
-2610.879476
 20
-131.977664
 30
0.0
 70
0
  0
VERTEX
  5
97
  8
1
 10
-2595.858476
 20
-131.374199
 30
0.0
 70
0
  0
VERTEX
  5
98
  8
1
 10
-2580.780967
 20
-130.588626
 30
0.0
 70
0
  0
VERTEX
  5
99
  8
1
 10
-2565.739536
 20
-129.650725
 30
0.0
 70
0
  0
VERTEX
  5
9A
  8
1
 10
-2550.680792
 20
-128.568969
 30
0.0
 70
0
  0
VERTEX
  5
9B
  8
1
 10
-2535.498147
 20
-127.339481
 30
0.0
 70
0
  0
VERTEX
  5
9C
  8
1
 10
-2520.461696
 20
-125.981838
 30
0.0
 70
0
  0
VERTEX
  5
9D
  8
1
 10
-2505.450688
 20
-124.481473
 30
0.0
 70
0
  0
VERTEX
  5
9E
  8
1
 10
-2490.443926
 20
-122.826916
 30
0.0
 70
0
  0
VERTEX
  5
9F
  8
1
 10
-2475.243858
 20
-120.982878
 30
0.0
 70
0
  0
VERTEX
  5
A0
  8
1
 10
-2460.277215
 20
-118.998097
 30
0.0
 70
0
  0
VERTEX
  5
A1
  8
1
 10
-2445.409725
 20
-116.858878
 30
0.0
 70
0
  0
VERTEX
  5
A2
  8
1
 10
-2430.491339
 20
-114.538774
 30
0.0
 70
0
  0
VERTEX
  5
A3
  8
1
 10
-2415.36821
 20
-112.001898
 30
0.0
 70
0
  0
VERTEX
  5
A4
  8
1
 10
-2400.510015
 20
-109.32299
 30
0.0
 70
0
  0
VERTEX
  5
A5
  8
1
 10
-2385.637945
 20
-106.451529
 30
0.0
 70
0
  0
VERTEX
  5
A6
  8
1
 10
-2370.852331
 20
-103.397266
 30
0.0
 70
0
  0
VERTEX
  5
A7
  8
1
 10
-2355.82389
 20
-100.075513
 30
0.0
 70
0
  0
VERTEX
  5
A8
  8
1
 10
-2341.129113
 20
-96.609903
 30
0.0
 70
0
  0
VERTEX
  5
A9
  8
1
 10
-2326.074152
 20
-92.834609
 30
0.0
 70
0
  0
VERTEX
  5
AA
  8
1
 10
-2311.481182
 20
-88.962868
 30
0.0
 70
0
  0
VERTEX
  5
AB
  8
1
 10
-2296.957368
 20
-84.910974
 30
0.0
 70
0
  0
VERTEX
  5
AC
  8
1
 10
-2282.461862
 20
-80.689385
 30
0.0
 70
0
  0
VERTEX
  5
AD
  8
1
 10
-2268.067448
 20
-76.345122
 30
0.0
 70
0
  0
VERTEX
  5
AE
  8
1
 10
-2253.65381
 20
-71.852399
 30
0.0
 70
0
  0
VERTEX
  5
AF
  8
1
 10
-2239.015362
 20
-67.143785
 30
0.0
 70
0
  0
VERTEX
  5
B0
  8
1
 10
-2224.689072
 20
-62.379691
 30
0.0
 70
0
  0
VERTEX
  5
B1
  8
1
 10
-2210.028719
 20
-57.329691
 30
0.0
 70
0
  0
VERTEX
  5
B2
  8
1
 10
-2195.790711
 20
-52.307905
 30
0.0
 70
0
  0
VERTEX
  5
B3
  8
1
 10
-2181.300644
 20
-47.165431
 30
0.0
 70
0
  0
VERTEX
  5
B4
  8
1
 10
-2167.014964
 20
-42.096785
 30
0.0
 70
0
  0
VERTEX
  5
B5
  8
1
 10
-2152.473489
 20
-36.938865
 30
0.0
 70
0
  0
VERTEX
  5
B6
  8
1
 10
-2137.97972
 20
-31.799185
 30
0.0
 70
0
  0
VERTEX
  5
B7
  8
1
 10
-2123.264923
 20
-26.582537
 30
0.0
 70
0
  0
VERTEX
  5
B8
  8
1
 10
-2117.399139
 20
-37.97106
 30
0.0
 70
0
  0
VERTEX
  5
B9
  8
1
 10
-2116.147934
 20
-40.400123
 30
0.0
 70
0
  0
VERTEX
  5
BA
  8
1
 10
-2109.064822
 20
-54.151977
 30
0.0
 70
0
  0
VERTEX
  5
BB
  8
1
 10
-2102.069247
 20
-67.73389
 30
0.0
 70
0
  0
VERTEX
  5
BC
  8
1
 10
-2095.059347
 20
-81.343556
 30
0.0
 70
0
  0
VERTEX
  5
BD
  8
1
 10
-2090.934296
 20
-89.352283
 30
0.0
 70
0
  0
VERTEX
  5
BE
  8
1
 10
-2105.609797
 20
-94.622062
 30
0.0
 70
0
  0
VERTEX
  5
BF
  8
1
 10
-2119.79044
 20
-99.711373
 30
0.0
 70
0
  0
VERTEX
  5
C0
  8
1
 10
-2134.146411
 20
-104.861818
 30
0.0
 70
0
  0
VERTEX
  5
C1
  8
1
 10
-2148.426473
 20
-109.993062
 30
0.0
 70
0
  0
VERTEX
  5
C2
  8
1
 10
-2161.943817
 20
-114.859047
 30
0.0
 70
0
  0
VERTEX
  5
C3
  8
1
 10
-2162.55436
 20
-115.078493
 30
0.0
 70
0
  0
VERTEX
  5
C4
  8
1
 10
-2176.843776
 20
-120.183767
 30
0.0
 70
0
  0
VERTEX
  5
C5
  8
1
 10
-2191.026668
 20
-125.157219
 30
0.0
 70
0
  0
VERTEX
  5
C6
  8
1
 10
-2205.386971
 20
-130.059646
 30
0.0
 70
0
  0
VERTEX
  5
C7
  8
1
 10
-2219.731764
 20
-134.797988
 30
0.0
 70
0
  0
VERTEX
  5
C8
  8
1
 10
-2234.183446
 20
-139.424564
 30
0.0
 70
0
  0
VERTEX
  5
C9
  8
1
 10
-2248.921683
 20
-144.012357
 30
0.0
 70
0
  0
VERTEX
  5
CA
  8
1
 10
-2263.448921
 20
-148.395492
 30
0.0
 70
0
  0
VERTEX
  5
CB
  8
1
 10
-2278.290554
 20
-152.709766
 30
0.0
 70
0
  0
VERTEX
  5
CC
  8
1
 10
-2292.908103
 20
-156.782384
 30
0.0
 70
0
  0
VERTEX
  5
CD
  8
1
 10
-2307.711563
 20
-160.715827
 30
0.0
 70
0
  0
VERTEX
  5
CE
  8
1
 10
-2322.425973
 20
-164.423299
 30
0.0
 70
0
  0
VERTEX
  5
CF
  8
1
 10
-2337.238507
 20
-167.942368
 30
0.0
 70
0
  0
VERTEX
  5
D0
  8
1
 10
-2352.04714
 20
-171.253944
 30
0.0
 70
0
  0
VERTEX
  5
D1
  8
1
 10
-2366.898278
 20
-174.381408
 30
0.0
 70
0
  0
VERTEX
  5
D2
  8
1
 10
-2381.783123
 20
-177.330976
 30
0.0
 70
0
  0
VERTEX
  5
D3
  8
1
 10
-2396.693453
 20
-180.107387
 30
0.0
 70
0
  0
VERTEX
  5
D4
  8
1
 10
-2411.641109
 20
-182.719726
 30
0.0
 70
0
  0
VERTEX
  5
D5
  8
1
 10
-2426.595001
 20
-185.169712
 30
0.0
 70
0
  0
VERTEX
  5
D6
  8
1
 10
-2441.594196
 20
-187.467546
 30
0.0
 70
0
  0
VERTEX
  5
D7
  8
1
 10
-2456.710433
 20
-189.624379
 30
0.0
 70
0
  0
VERTEX
  5
D8
  8
1
 10
-2471.753476
 20
-191.61522
 30
0.0
 70
0
  0
VERTEX
  5
D9
  8
1
 10
-2486.778883
 20
-193.451703
 30
0.0
 70
0
  0
VERTEX
  5
DA
  8
1
 10
-2501.858304
 20
-195.144792
 30
0.0
 70
0
  0
VERTEX
  5
DB
  8
1
 10
-2516.914151
 20
-196.687971
 30
0.0
 70
0
  0
VERTEX
  5
DC
  8
1
 10
-2532.023285
 20
-198.091266
 30
0.0
 70
0
  0
VERTEX
  5
DD
  8
1
 10
-2547.102416
 20
-199.349106
 30
0.0
 70
0
  0
VERTEX
  5
DE
  8
1
 10
-2562.23501
 20
-200.470558
 30
0.0
 70
0
  0
VERTEX
  5
DF
  8
1
 10
-2577.329773
 20
-201.450999
 30
0.0
 70
0
  0
VERTEX
  5
E0
  8
1
 10
-2592.480284
 20
-202.29854
 30
0.0
 70
0
  0
VERTEX
  5
E1
  8
1
 10
-2607.582416
 20
-203.009442
 30
0.0
 70
0
  0
VERTEX
  5
E2
  8
1
 10
-2622.745456
 20
-203.590897
 30
0.0
 70
0
  0
VERTEX
  5
E3
  8
1
 10
-2637.845938
 20
-204.040401
 30
0.0
 70
0
  0
VERTEX
  5
E4
  8
1
 10
-2653.016637
 20
-204.363673
 30
0.0
 70
0
  0
VERTEX
  5
E5
  8
1
 10
-2668.106159
 20
-204.559122
 30
0.0
 70
0
  0
VERTEX
  5
E6
  8
1
 10
-2683.280148
 20
-204.63135
 30
0.0
 70
0
  0
VERTEX
  5
E7
  8
1
 10
-2698.693771
 20
-204.581562
 30
0.0
 70
0
  0
VERTEX
  5
E8
  8
1
 10
-2713.685195
 20
-204.437137
 30
0.0
 70
0
  0
VERTEX
  5
E9
  8
1
 10
-2724.577332
 20
-204.286461
 30
0.0
 70
0
  0
SEQEND
  5
30
  8
1
  0
LINE
  5
EA
  8
7
 10
-2722.257385
 20
-151.177826
 30
0.0
 11
-2722.257385
 21
-187.126846
 31
0.0
  0
ENDSEC
  0
EOF
