  0
SECTION
  2
HEADER
  9
$ACADVER
  1
AC1009
  9
$DWGCODEPAGE
  3
ANSI_1252
  9
$INSBASE
 10
0.0
 20
0.0
 30
0.0
  9
$EXTMIN
 10
1e+20
 20
1e+20
 30
1e+20
  9
$EXTMAX
 10
-1e+20
 20
-1e+20
 30
-1e+20
  9
$LIMMIN
 10
0.0
 20
0.0
  9
$LIMMAX
 10
420.0
 20
297.0
  9
$ORTHOMODE
 70
0
  9
$REGENMODE
 70
1
  9
$FILLMODE
 70
1
  9
$DRAGMODE
 70
2
  9
$QTEXTMODE
 70
0
  9
$MIRRTEXT
 70
1
  9
$OSMODE
 70
20583
  9
$LTSCALE
 40
1.0
  9
$ATTMODE
 70
1
  9
$TEXTSIZE
 40
2.5
  9
$TRACEWID
 40
1.0
  9
$TEXTSTYLE
  7
Standard
  9
$CLAYER
  8
0
  9
$CELTYPE
  6
ByLayer
  9
$CECOLOR
 62
256
  9
$DIMSCALE
 40
1.0
  9
$DIMASZ
 40
2.5
  9
$DIMEXO
 40
0.625
  9
$DIMDLI
 40
3.75
  9
$DIMRND
 40
0.0
  9
$DIMDLE
 40
0.0
  9
$DIMEXE
 40
1.25
  9
$DIMTP
 40
0.0
  9
$DIMTM
 40
0.0
  9
$DIMTXT
 40
2.5
  9
$DIMCEN
 40
2.5
  9
$DIMTSZ
 40
0.0
  9
$DIMTOL
 70
0
  9
$DIMLIM
 70
0
  9
$DIMTIH
 70
0
  9
$DIMTOH
 70
0
  9
$DIMSE1
 70
0
  9
$DIMSE2
 70
0
  9
$DIMTAD
 70
1
  9
$DIMZIN
 70
8
  9
$DIMBLK
  1

  9
$DIMASO
 70
1
  9
$DIMSHO
 70
1
  9
$DIMPOST
  1

  9
$DIMAPOST
  1

  9
$DIMALT
 70
0
  9
$DIMALTD
 70
3
  9
$DIMALTF
 40
0.03937007874
  9
$DIMLFAC
 40
1.0
  9
$DIMTOFL
 70
1
  9
$DIMTVP
 40
0.0
  9
$DIMTIX
 70
0
  9
$DIMSOXD
 70
0
  9
$DIMSAH
 70
0
  9
$DIMBLK1
  1

  9
$DIMBLK2
  1

  9
$DIMSTYLE
  2
ISO-25
  9
$DIMCLRD
 70
0
  9
$DIMCLRE
 70
0
  9
$DIMCLRT
 70
0
  9
$DIMTFAC
 40
1.0
  9
$DIMGAP
 40
0.625
  9
$COORDS
 70
1
  9
$ATTDIA
 70
0
  9
$ATTREQ
 70
1
  9
$HANDLING
 70
1
  9
$LUNITS
 70
2
  9
$LUPREC
 70
4
  9
$SKETCHINC
 40
1.0
  9
$FILLETRAD
 40
10.0
  9
$AUNITS
 70
0
  9
$AUPREC
 70
2
  9
$MENU
  1
.
  9
$ELEVATION
 40
0.0
  9
$PELEVATION
 40
0.0
  9
$THICKNESS
 40
0.0
  9
$LIMCHECK
 70
0
  9
$CHAMFERA
 40
0.0
  9
$CHAMFERB
 40
0.0
  9
$SKPOLY
 70
0
  9
$TDCREATE
 40
2461264.9423032408
  9
$TDUPDATE
 40
2461264.9423032408
  9
$TDINDWG
 40
0.0
  9
$TDUSRTIMER
 40
0.0
  9
$USRTIMER
 70
1
  9
$ANGBASE
 50
0.0
  9
$ANGDIR
 70
0
  9
$PDMODE
 70
0
  9
$PDSIZE
 40
0.0
  9
$PLINEWID
 40
0.0
  9
$SPLFRAME
 70
0
  9
$SPLINETYPE
 70
6
  9
$SPLINESEGS
 70
8
  9
$HANDSEED
  5
16B
  9
$SURFTAB1
 70
6
  9
$SURFTAB2
 70
6
  9
$SURFTYPE
 70
6
  9
$SURFU
 70
6
  9
$SURFV
 70
6
  9
$UCSNAME
  2

  9
$UCSORG
 10
0.0
 20
0.0
 30
0.0
  9
$UCSXDIR
 10
1.0
 20
0.0
 30
0.0
  9
$UCSYDIR
 10
0.0
 20
1.0
 30
0.0
  9
$PUCSNAME
  2

  9
$PUCSORG
 10
0.0
 20
0.0
 30
0.0
  9
$PUCSXDIR
 10
1.0
 20
0.0
 30
0.0
  9
$PUCSYDIR
 10
0.0
 20
1.0
 30
0.0
  9
$USERI1
 70
0
  9
$USERI2
 70
0
  9
$USERI3
 70
0
  9
$USERI4
 70
0
  9
$USERI5
 70
0
  9
$USERR1
 40
0.0
  9
$USERR2
 40
0.0
  9
$USERR3
 40
0.0
  9
$USERR4
 40
0.0
  9
$USERR5
 40
0.0
  9
$WORLDVIEW
 70
1
  9
$SHADEDGE
 70
3
  9
$SHADEDIF
 70
70
  9
$TILEMODE
 70
1
  9
$MAXACTVP
 70
64
  9
$PLIMCHECK
 70
0
  9
$PEXTMIN
 10
1e+20
 20
1e+20
 30
1e+20
  9
$PEXTMAX
 10
-1e+20
 20
-1e+20
 30
-1e+20
  9
$PLIMMIN
 10
0.0
 20
0.0
  9
$PLIMMAX
 10
420.0
 20
297.0
  9
$UNITMODE
 70
0
  9
$VISRETAIN
 70
1
  9
$PLINEGEN
 70
0
  9
$PSLTSCALE
 70
1
  0
ENDSEC
  0
SECTION
  2
TABLES
  0
TABLE
  2
VPORT
 70
1
  0
VPORT
  5
23
  2
*Active
 70
0
 10
0.0
 20
0.0
 11
1.0
 21
1.0
 12
0.0
 22
0.0
 13
0.0
 23
0.0
 14
0.5
 24
0.5
 15
0.5
 25
0.5
 16
0.0
 26
0.0
 36
1.0
 17
0.0
 27
0.0
 37
0.0
 40
1000.0
 41
1.34
 42
50.0
 43
0.0
 44
0.0
 50
0.0
 51
0.0
 71
0
 72
1000
 73
1
 74
3
 75
0
 76
0
 77
0
 78
0
  0
ENDTAB
  0
TABLE
  2
LTYPE
 70
3
  0
LTYPE
  5
24
  2
ByBlock
 70
0
  3

 72
65
 73
0
 40
0.0
  0
LTYPE
  5
25
  2
ByLayer
 70
0
  3

 72
65
 73
0
 40
0.0
  0
LTYPE
  5
26
  2
Continuous
 70
0
  3

 72
65
 73
0
 40
0.0
  0
ENDTAB
  0
TABLE
  2
LAYER
 70
7
  0
LAYER
  5
27
  2
0
 70
0
 62
7
  6
Continuous
  0
LAYER
  5
28
  2
Defpoints
 70
0
 62
7
  6
Continuous
  0
LAYER
  5
2D
  2
1
 70
0
 62
1
  6
Continuous
  0
LAYER
  5
2E
  2
7
 70
0
 62
7
  6
Continuous
  0
LAYER
  5
2F
  2
14
 70
0
 62
3
  6
Continuous
  0
LAYER
  5
30
  2
8
 70
0
 62
6
  6
Continuous
  0
LAYER
  5
31
  2
4
 70
0
 62
2
  6
Continuous
  0
ENDTAB
  0
TABLE
  2
STYLE
 70
1
  0
STYLE
  5
29
  2
Standard
 70
0
 40
0.0
 41
1.0
 50
0.0
 71
0
 42
2.5
  3
txt
  4

  0
ENDTAB
  0
TABLE
  2
VIEW
 70
0
  0
ENDTAB
  0
TABLE
  2
UCS
 70
0
  0
ENDTAB
  0
TABLE
  2
APPID
 70
3
  0
APPID
  5
2A
  2
ACAD
 70
0
  0
APPID
  5
169
  2
HATCHBACKGROUNDCOLOR
 70
0
  0
APPID
  5
16A
  2
EZDXF
 70
0
  0
ENDTAB
  0
TABLE
  2
DIMSTYLE
 70
1
  0
DIMSTYLE
105
2B
  2
Standard
 70
0
  3

  4

  5

  6

  7

 40
1.0
 41
2.5
 42
0.625
 43
3.75
 44
1.25
 45
0.0
 46
0.0
 47
0.0
 48
0.0
140
2.5
141
2.5
142
0.0
143
0.03937007874
144
1.0
145
0.0
146
1.0
147
0.625
 71
0
 72
0
 73
0
 74
0
 75
0
 76
0
 77
1
 78
8
170
0
171
3
172
1
173
0
174
0
175
0
176
0
177
0
178
0
  0
ENDTAB
  0
ENDSEC
  0
SECTION
  2
BLOCKS
  0
BLOCK
  5
18
  8
0
  2
$Model_Space
 70
0
 10
0.0
 20
0.0
 30
0.0
  3
$Model_Space
  1

1001
EZDXF
1000
CREATED_BY_EZDXF
1000
1.4.4 @ 2026-08-11T14:36:55.277176+00:00
1000
WRITTEN_BY_EZDXF
1000
1.4.4 @ 2026-08-11T14:36:55.280176+00:00
  0
ENDBLK
  5
19
  8
0
  0
BLOCK
  5
1C
  8
0
  2
$Paper_Space
 70
0
 10
0.0
 20
0.0
 30
0.0
  3
$Paper_Space
  1

  0
ENDBLK
  5
1D
  8
0
  0
ENDSEC
  0
SECTION
  2
ENTITIES
  0
POLYLINE
  5
32
  8
1
 66
1
 10
0.0
 20
0.0
 30
0.0
 70
1
  0
VERTEX
  5
34
  8
1
 10
-2724.324341
 20
-189.046974
 30
0.0
 70
0
  0
VERTEX
  5
35
  8
1
 10
-2724.415894
 20
-189.046898
 30
0.0
 70
0
  0
VERTEX
  5
36
  8
1
 10
-2739.536017
 20
-188.951175
 30
0.0
 70
0
  0
VERTEX
  5
37
  8
1
 10
-2754.840621
 20
-188.718273
 30
0.0
 70
0
  0
VERTEX
  5
38
  8
1
 10
-2770.03167
 20
-188.306974
 30
0.0
 70
0
  0
VERTEX
  5
39
  8
1
 10
-2786.029496
 20
-187.695784
 30
0.0
 70
0
  0
VERTEX
  5
3A
  8
1
 10
-2800.933857
 20
-186.995003
 30
0.0
 70
0
  0
VERTEX
  5
3B
  8
1
 10
-2816.303358
 20
-186.139827
 30
0.0
 70
0
  0
VERTEX
  5
3C
  8
1
 10
-2831.516155
 20
-185.152863
 30
0.0
 70
0
  0
VERTEX
  5
3D
  8
1
 10
-2846.867282
 20
-184.011521
 30
0.0
 70
0
  0
VERTEX
  5
3E
  8
1
 10
-2862.331743
 20
-182.711882
 30
0.0
 70
0
  0
VERTEX
  5
3F
  8
1
 10
-2877.657529
 20
-181.270281
 30
0.0
 70
0
  0
VERTEX
  5
40
  8
1
 10
-2892.777028
 20
-179.690824
 30
0.0
 70
0
  0
VERTEX
  5
41
  8
1
 10
-2908.069112
 20
-177.926029
 30
0.0
 70
0
  0
VERTEX
  5
42
  8
1
 10
-2923.545187
 20
-175.959135
 30
0.0
 70
0
  0
VERTEX
  5
43
  8
1
 10
-2938.791141
 20
-173.831872
 30
0.0
 70
0
  0
VERTEX
  5
44
  8
1
 10
-2954.16662
 20
-171.481687
 30
0.0
 70
0
  0
VERTEX
  5
45
  8
1
 10
-2969.349838
 20
-168.944078
 30
0.0
 70
0
  0
VERTEX
  5
46
  8
1
 10
-2984.710778
 20
-166.141064
 30
0.0
 70
0
  0
VERTEX
  5
47
  8
1
 10
-2999.809269
 20
-163.140586
 30
0.0
 70
0
  0
VERTEX
  5
48
  8
1
 10
-3014.858462
 20
-159.901341
 30
0.0
 70
0
  0
VERTEX
  5
49
  8
1
 10
-3029.491918
 20
-156.508315
 30
0.0
 70
0
  0
VERTEX
  5
4A
  8
1
 10
-3044.429659
 20
-152.788406
 30
0.0
 70
0
  0
VERTEX
  5
4B
  8
1
 10
-3058.884797
 20
-148.932878
 30
0.0
 70
0
  0
VERTEX
  5
4C
  8
1
 10
-3073.693587
 20
-144.729406
 30
0.0
 70
0
  0
VERTEX
  5
4D
  8
1
 10
-3088.447219
 20
-140.307949
 30
0.0
 70
0
  0
VERTEX
  5
4E
  8
1
 10
-3103.134484
 20
-135.699123
 30
0.0
 70
0
  0
VERTEX
  5
4F
  8
1
 10
-3117.594576
 20
-130.98622
 30
0.0
 70
0
  0
VERTEX
  5
50
  8
1
 10
-3132.180322
 20
-126.064304
 30
0.0
 70
0
  0
VERTEX
  5
51
  8
1
 10
-3146.799156
 20
-120.933822
 30
0.0
 70
0
  0
VERTEX
  5
52
  8
1
 10
-3161.261271
 20
-115.661893
 30
0.0
 70
0
  0
VERTEX
  5
53
  8
1
 10
-3175.687745
 20
-110.291296
 30
0.0
 70
0
  0
VERTEX
  5
54
  8
1
 10
-3178.808289
 20
-109.12447
 30
0.0
 70
0
  0
VERTEX
  5
55
  8
1
 10
-3179.665527
 20
-108.803997
 30
0.0
 70
0
  0
VERTEX
  5
56
  8
1
 10
-3190.083423
 20
-104.908544
 30
0.0
 70
0
  0
VERTEX
  5
57
  8
1
 10
-3204.503102
 20
-99.516456
 30
0.0
 70
0
  0
VERTEX
  5
58
  8
1
 10
-3218.763654
 20
-94.183598
 30
0.0
 70
0
  0
VERTEX
  5
59
  8
1
 10
-3233.247832
 20
-88.766863
 30
0.0
 70
0
  0
VERTEX
  5
5A
  8
1
 10
-3247.803955
 20
-83.322954
 30
0.0
 70
0
  0
VERTEX
  5
5B
  8
1
 10
-3243.548308
 20
-75.060683
 30
0.0
 70
0
  0
VERTEX
  5
5C
  8
1
 10
-3236.659825
 20
-61.686944
 30
0.0
 70
0
  0
VERTEX
  5
5D
  8
1
 10
-3229.65443
 20
-48.086313
 30
0.0
 70
0
  0
VERTEX
  5
5E
  8
1
 10
-3222.571818
 20
-34.335404
 30
0.0
 70
0
  0
VERTEX
  5
5F
  8
1
 10
-3221.283264
 20
-31.833494
 30
0.0
 70
0
  0
VERTEX
  5
60
  8
1
 10
-3215.4245
 20
-20.458448
 30
0.0
 70
0
  0
VERTEX
  5
61
  8
1
 10
-3201.00834
 20
-25.816488
 30
0.0
 70
0
  0
VERTEX
  5
62
  8
1
 10
-3186.433499
 20
-31.235243
 30
0.0
 70
0
  0
VERTEX
  5
63
  8
1
 10
-3171.926615
 20
-36.630386
 30
0.0
 70
0
  0
VERTEX
  5
64
  8
1
 10
-3157.769574
 20
-41.897218
 30
0.0
 70
0
  0
VERTEX
  5
65
  8
1
 10
-3143.469965
 20
-47.218707
 30
0.0
 70
0
  0
VERTEX
  5
66
  8
1
 10
-3129.390536
 20
-52.417321
 30
0.0
 70
0
  0
VERTEX
  5
67
  8
1
 10
-3115.083548
 20
-57.543223
 30
0.0
 70
0
  0
VERTEX
  5
68
  8
1
 10
-3100.886012
 20
-62.409726
 30
0.0
 70
0
  0
VERTEX
  5
69
  8
1
 10
-3086.124166
 20
-67.276448
 30
0.0
 70
0
  0
VERTEX
  5
6A
  8
1
 10
-3071.820299
 20
-71.820748
 30
0.0
 70
0
  0
VERTEX
  5
6B
  8
1
 10
-3057.288713
 20
-76.226864
 30
0.0
 70
0
  0
VERTEX
  5
6C
  8
1
 10
-3042.859272
 20
-80.360164
 30
0.0
 70
0
  0
VERTEX
  5
6D
  8
1
 10
-3028.363926
 20
-84.255992
 30
0.0
 70
0
  0
VERTEX
  5
6E
  8
1
 10
-3014.425584
 20
-87.749197
 30
0.0
 70
0
  0
VERTEX
  5
6F
  8
1
 10
-2999.80647
 20
-91.146628
 30
0.0
 70
0
  0
VERTEX
  5
70
  8
1
 10
-2984.974679
 20
-94.334725
 30
0.0
 70
0
  0
VERTEX
  5
71
  8
1
 10
-2970.253479
 20
-97.258517
 30
0.0
 70
0
  0
VERTEX
  5
72
  8
1
 10
-2955.021848
 20
-100.041704
 30
0.0
 70
0
  0
VERTEX
  5
73
  8
1
 10
-2940.219303
 20
-102.51981
 30
0.0
 70
0
  0
VERTEX
  5
74
  8
1
 10
-2924.930582
 20
-104.854373
 30
0.0
 70
0
  0
VERTEX
  5
75
  8
1
 10
-2910.063974
 20
-106.913937
 30
0.0
 70
0
  0
VERTEX
  5
76
  8
1
 10
-2895.170761
 20
-108.776712
 30
0.0
 70
0
  0
VERTEX
  5
77
  8
1
 10
-2880.255686
 20
-110.448462
 30
0.0
 70
0
  0
VERTEX
  5
78
  8
1
 10
-2865.213059
 20
-111.945396
 30
0.0
 70
0
  0
VERTEX
  5
79
  8
1
 10
-2850.261469
 20
-113.251957
 30
0.0
 70
0
  0
VERTEX
  5
7A
  8
1
 10
-2835.088682
 20
-114.3997
 30
0.0
 70
0
  0
VERTEX
  5
7B
  8
1
 10
-2820.111542
 20
-115.368365
 30
0.0
 70
0
  0
VERTEX
  5
7C
  8
1
 10
-2805.096738
 20
-116.196135
 30
0.0
 70
0
  0
VERTEX
  5
7D
  8
1
 10
-2790.104929
 20
-116.898418
 30
0.0
 70
0
  0
VERTEX
  5
7E
  8
1
 10
-2774.645762
 20
-117.50828
 30
0.0
 70
0
  0
VERTEX
  5
7F
  8
1
 10
-2759.645169
 20
-117.993683
 30
0.0
 70
0
  0
VERTEX
  5
80
  8
1
 10
-2744.089105
 20
-118.371285
 30
0.0
 70
0
  0
VERTEX
  5
81
  8
1
 10
-2729.081022
 20
-118.625188
 30
0.0
 70
0
  0
VERTEX
  5
82
  8
1
 10
-2723.188782
 20
-118.705597
 30
0.0
 70
0
  0
VERTEX
  5
83
  8
1
 10
-2721.081127
 20
-118.718211
 30
0.0
 70
0
  0
VERTEX
  5
84
  8
1
 10
-2707.132714
 20
-118.664365
 30
0.0
 70
0
  0
VERTEX
  5
85
  8
1
 10
-2694.7626
 20
-118.371218
 30
0.0
 70
0
  0
VERTEX
  5
86
  8
1
 10
-2679.325025
 20
-117.74207
 30
0.0
 70
0
  0
VERTEX
  5
87
  8
1
 10
-2663.889755
 20
-117.006835
 30
0.0
 70
0
  0
VERTEX
  5
88
  8
1
 10
-2648.83853
 20
-116.344173
 30
0.0
 70
0
  0
VERTEX
  5
89
  8
1
 10
-2633.405279
 20
-115.63734
 30
0.0
 70
0
  0
VERTEX
  5
8A
  8
1
 10
-2618.28694
 20
-114.757128
 30
0.0
 70
0
  0
VERTEX
  5
8B
  8
1
 10
-2602.876731
 20
-113.637876
 30
0.0
 70
0
  0
VERTEX
  5
8C
  8
1
 10
-2587.67714
 20
-112.337788
 30
0.0
 70
0
  0
VERTEX
  5
8D
  8
1
 10
-2572.299994
 20
-110.837421
 30
0.0
 70
0
  0
VERTEX
  5
8E
  8
1
 10
-2557.26179
 20
-109.195592
 30
0.0
 70
0
  0
VERTEX
  5
8F
  8
1
 10
-2541.924588
 20
-107.329155
 30
0.0
 70
0
  0
VERTEX
  5
90
  8
1
 10
-2526.689153
 20
-105.262383
 30
0.0
 70
0
  0
VERTEX
  5
91
  8
1
 10
-2511.409972
 20
-102.968428
 30
0.0
 70
0
  0
VERTEX
  5
92
  8
1
 10
-2496.23417
 20
-100.466721
 30
0.0
 70
0
  0
VERTEX
  5
93
  8
1
 10
-2481.028405
 20
-97.728078
 30
0.0
 70
0
  0
VERTEX
  5
94
  8
1
 10
-2466.022724
 20
-94.786851
 30
0.0
 70
0
  0
VERTEX
  5
95
  8
1
 10
-2450.910271
 20
-91.572226
 30
0.0
 70
0
  0
VERTEX
  5
96
  8
1
 10
-2436.194761
 20
-88.184655
 30
0.0
 70
0
  0
VERTEX
  5
97
  8
1
 10
-2422.198798
 20
-84.711264
 30
0.0
 70
0
  0
VERTEX
  5
98
  8
1
 10
-2407.816799
 20
-80.874735
 30
0.0
 70
0
  0
VERTEX
  5
99
  8
1
 10
-2392.956193
 20
-76.642746
 30
0.0
 70
0
  0
VERTEX
  5
9A
  8
1
 10
-2378.161098
 20
-72.186261
 30
0.0
 70
0
  0
VERTEX
  5
9B
  8
1
 10
-2363.771395
 20
-67.642821
 30
0.0
 70
0
  0
VERTEX
  5
9C
  8
1
 10
-2349.097738
 20
-62.806589
 30
0.0
 70
0
  0
VERTEX
  5
9D
  8
1
 10
-2334.594262
 20
-57.829988
 30
0.0
 70
0
  0
VERTEX
  5
9E
  8
1
 10
-2320.039767
 20
-52.645447
 30
0.0
 70
0
  0
VERTEX
  5
9F
  8
1
 10
-2305.666097
 20
-47.358999
 30
0.0
 70
0
  0
VERTEX
  5
A0
  8
1
 10
-2290.708651
 20
-41.776776
 30
0.0
 70
0
  0
VERTEX
  5
A1
  8
1
 10
-2276.675211
 20
-36.550513
 30
0.0
 70
0
  0
VERTEX
  5
A2
  8
1
 10
-2262.19196
 20
-31.171034
 30
0.0
 70
0
  0
VERTEX
  5
A3
  8
1
 10
-2248.021482
 20
-25.906359
 30
0.0
 70
0
  0
VERTEX
  5
A4
  8
1
 10
-2233.376465
 20
-20.4619
 30
0.0
 70
0
  0
VERTEX
  5
A5
  8
1
 10
-2227.516632
 20
-31.838715
 30
0.0
 70
0
  0
VERTEX
  5
A6
  8
1
 10
-2226.25045
 20
-34.296954
 30
0.0
 70
0
  0
VERTEX
  5
A7
  8
1
 10
-2219.348448
 20
-47.697148
 30
0.0
 70
0
  0
VERTEX
  5
A8
  8
1
 10
-2212.349771
 20
-61.285082
 30
0.0
 70
0
  0
VERTEX
  5
A9
  8
1
 10
-2205.451956
 20
-74.677171
 30
0.0
 70
0
  0
VERTEX
  5
AA
  8
1
 10
-2201.03302
 20
-83.256502
 30
0.0
 70
0
  0
VERTEX
  5
AB
  8
1
 10
-2215.58839
 20
-88.715351
 30
0.0
 70
0
  0
VERTEX
  5
AC
  8
1
 10
-2230.070733
 20
-94.147142
 30
0.0
 70
0
  0
VERTEX
  5
AD
  8
1
 10
-2244.328475
 20
-99.494997
 30
0.0
 70
0
  0
VERTEX
  5
AE
  8
1
 10
-2258.744189
 20
-104.902446
 30
0.0
 70
0
  0
VERTEX
  5
AF
  8
1
 10
-2271.389465
 20
-109.646149
 30
0.0
 70
0
  0
VERTEX
  5
B0
  8
1
 10
-2273.098149
 20
-110.28711
 30
0.0
 70
0
  0
VERTEX
  5
B1
  8
1
 10
-2287.51906
 20
-115.672487
 30
0.0
 70
0
  0
VERTEX
  5
B2
  8
1
 10
-2301.977886
 20
-120.953235
 30
0.0
 70
0
  0
VERTEX
  5
B3
  8
1
 10
-2316.540983
 20
-126.066823
 30
0.0
 70
0
  0
VERTEX
  5
B4
  8
1
 10
-2331.126029
 20
-130.990767
 30
0.0
 70
0
  0
VERTEX
  5
B5
  8
1
 10
-2345.850702
 20
-135.789551
 30
0.0
 70
0
  0
VERTEX
  5
B6
  8
1
 10
-2360.539977
 20
-140.391748
 30
0.0
 70
0
  0
VERTEX
  5
B7
  8
1
 10
-2375.462815
 20
-144.85074
 30
0.0
 70
0
  0
VERTEX
  5
B8
  8
1
 10
-2390.276951
 20
-149.034921
 30
0.0
 70
0
  0
VERTEX
  5
B9
  8
1
 10
-2404.605254
 20
-152.830437
 30
0.0
 70
0
  0
VERTEX
  5
BA
  8
1
 10
-2419.548599
 20
-156.527873
 30
0.0
 70
0
  0
VERTEX
  5
BB
  8
1
 10
-2434.540559
 20
-159.984658
 30
0.0
 70
0
  0
VERTEX
  5
BC
  8
1
 10
-2449.59141
 20
-163.215621
 30
0.0
 70
0
  0
VERTEX
  5
BD
  8
1
 10
-2464.654651
 20
-166.224011
 30
0.0
 70
0
  0
VERTEX
  5
BE
  8
1
 10
-2479.789936
 20
-169.032276
 30
0.0
 70
0
  0
VERTEX
  5
BF
  8
1
 10
-2494.593679
 20
-171.579377
 30
0.0
 70
0
  0
VERTEX
  5
C0
  8
1
 10
-2509.79634
 20
-173.99656
 30
0.0
 70
0
  0
VERTEX
  5
C1
  8
1
 10
-2524.959118
 20
-176.211387
 30
0.0
 70
0
  0
VERTEX
  5
C2
  8
1
 10
-2540.217522
 20
-178.246662
 30
0.0
 70
0
  0
VERTEX
  5
C3
  8
1
 10
-2555.499683
 20
-180.094998
 30
0.0
 70
0
  0
VERTEX
  5
C4
  8
1
 10
-2570.727062
 20
-181.75188
 30
0.0
 70
0
  0
VERTEX
  5
C5
  8
1
 10
-2586.04879
 20
-183.236984
 30
0.0
 70
0
  0
VERTEX
  5
C6
  8
1
 10
-2601.302315
 20
-184.538038
 30
0.0
 70
0
  0
VERTEX
  5
C7
  8
1
 10
-2616.654033
 20
-185.6724
 30
0.0
 70
0
  0
VERTEX
  5
C8
  8
1
 10
-2631.919923
 20
-186.629695
 30
0.0
 70
0
  0
VERTEX
  5
C9
  8
1
 10
-2647.292856
 20
-187.425463
 30
0.0
 70
0
  0
VERTEX
  5
CA
  8
1
 10
-2662.555668
 20
-188.052749
 30
0.0
 70
0
  0
VERTEX
  5
CB
  8
1
 10
-2677.942082
 20
-188.523907
 30
0.0
 70
0
  0
VERTEX
  5
CC
  8
1
 10
-2693.184465
 20
-188.831131
 30
0.0
 70
0
  0
VERTEX
  5
CD
  8
1
 10
-2708.568647
 20
-188.99321
 30
0.0
 70
0
  0
VERTEX
  5
CE
  8
1
 10
-2723.287076
 20
-189.047444
 30
0.0
 70
0
  0
VERTEX
  5
CF
  8
1
 10
-2724.403992
 20
-189.047222
 30
0.0
 70
0
  0
SEQEND
  5
33
  8
1
  0
POLYLINE
  5
D0
  8
14
 66
1
 10
0.0
 20
0.0
 30
0.0
 70
1
  0
VERTEX
  5
D2
  8
14
 10
-2724.40155
 20
-176.347218
 30
0.0
 70
0
  0
VERTEX
  5
D3
  8
14
 10
-2724.40155
 20
-176.347218
 30
0.0
 70
0
  0
VERTEX
  5
D4
  8
14
 10
-2725.688006
 20
-176.355054
 30
0.0
 70
0
  0
VERTEX
  5
D5
  8
14
 10
-2740.08201
 20
-176.279535
 30
0.0
 70
0
  0
VERTEX
  5
D6
  8
14
 10
-2755.160343
 20
-176.008779
 30
0.0
 70
0
  0
VERTEX
  5
D7
  8
14
 10
-2770.27921
 20
-175.581501
 30
0.0
 70
0
  0
VERTEX
  5
D8
  8
14
 10
-2785.491974
 20
-175.007163
 30
0.0
 70
0
  0
VERTEX
  5
D9
  8
14
 10
-2802.355275
 20
-174.207239
 30
0.0
 70
0
  0
VERTEX
  5
DA
  8
14
 10
-2817.977812
 20
-173.314194
 30
0.0
 70
0
  0
VERTEX
  5
DB
  8
14
 10
-2834.55123
 20
-172.20529
 30
0.0
 70
0
  0
VERTEX
  5
DC
  8
14
 10
-2851.954682
 20
-170.857397
 30
0.0
 70
0
  0
VERTEX
  5
DD
  8
14
 10
-2867.004517
 20
-169.534898
 30
0.0
 70
0
  0
VERTEX
  5
DE
  8
14
 10
-2882.476942
 20
-168.016985
 30
0.0
 70
0
  0
VERTEX
  5
DF
  8
14
 10
-2898.302112
 20
-166.290263
 30
0.0
 70
0
  0
VERTEX
  5
E0
  8
14
 10
-2914.410041
 20
-164.341354
 30
0.0
 70
0
  0
VERTEX
  5
E1
  8
14
 10
-2930.730889
 20
-162.156862
 30
0.0
 70
0
  0
VERTEX
  5
E2
  8
14
 10
-2947.194684
 20
-159.723407
 30
0.0
 70
0
  0
VERTEX
  5
E3
  8
14
 10
-2963.731532
 20
-157.027599
 30
0.0
 70
0
  0
VERTEX
  5
E4
  8
14
 10
-2981.521317
 20
-153.819955
 30
0.0
 70
0
  0
VERTEX
  5
E5
  8
14
 10
-2998.017235
 20
-150.541771
 30
0.0
 70
0
  0
VERTEX
  5
E6
  8
14
 10
-3014.458418
 20
-146.974013
 30
0.0
 70
0
  0
VERTEX
  5
E7
  8
14
 10
-3030.834074
 20
-143.11275
 30
0.0
 70
0
  0
VERTEX
  5
E8
  8
14
 10
-3047.133414
 20
-138.954052
 30
0.0
 70
0
  0
VERTEX
  5
E9
  8
14
 10
-3063.508145
 20
-134.449977
 30
0.0
 70
0
  0
VERTEX
  5
EA
  8
14
 10
-3079.469262
 20
-129.765936
 30
0.0
 70
0
  0
VERTEX
  5
EB
  8
14
 10
-3094.949447
 20
-124.979533
 30
0.0
 70
0
  0
VERTEX
  5
EC
  8
14
 10
-3109.706859
 20
-120.215304
 30
0.0
 70
0
  0
VERTEX
  5
ED
  8
14
 10
-3126.12118
 20
-114.702849
 30
0.0
 70
0
  0
VERTEX
  5
EE
  8
14
 10
-3140.728559
 20
-109.616858
 30
0.0
 70
0
  0
VERTEX
  5
EF
  8
14
 10
-3156.67197
 20
-103.870873
 30
0.0
 70
0
  0
VERTEX
  5
F0
  8
14
 10
-3172.952271
 20
-97.755394
 30
0.0
 70
0
  0
VERTEX
  5
F1
  8
14
 10
-3172.952271
 20
-97.755394
 30
0.0
 70
0
  0
VERTEX
  5
F2
  8
14
 10
-3172.952271
 20
-97.755394
 30
0.0
 70
0
  0
VERTEX
  5
F3
  8
14
 10
-3166.420104
 20
-85.073547
 30
0.0
 70
0
  0
VERTEX
  5
F4
  8
14
 10
-3159.461689
 20
-71.563889
 30
0.0
 70
0
  0
VERTEX
  5
F5
  8
14
 10
-3152.224121
 20
-57.511959
 30
0.0
 70
0
  0
VERTEX
  5
F6
  8
14
 10
-3152.224121
 20
-57.511959
 30
0.0
 70
0
  0
VERTEX
  5
F7
  8
14
 10
-3137.509318
 20
-62.983418
 30
0.0
 70
0
  0
VERTEX
  5
F8
  8
14
 10
-3123.133752
 20
-68.17135
 30
0.0
 70
0
  0
VERTEX
  5
F9
  8
14
 10
-3108.692251
 20
-73.176007
 30
0.0
 70
0
  0
VERTEX
  5
FA
  8
14
 10
-3094.467398
 20
-77.916011
 30
0.0
 70
0
  0
VERTEX
  5
FB
  8
14
 10
-3079.222422
 20
-82.813097
 30
0.0
 70
0
  0
VERTEX
  5
FC
  8
14
 10
-3064.804855
 20
-87.241823
 30
0.0
 70
0
  0
VERTEX
  5
FD
  8
14
 10
-3050.128217
 20
-91.512806
 30
0.0
 70
0
  0
VERTEX
  5
FE
  8
14
 10
-3035.384103
 20
-95.545469
 30
0.0
 70
0
  0
VERTEX
  5
FF
  8
14
 10
-3021.391541
 20
-99.121678
 30
0.0
 70
0
  0
VERTEX
  5
100
  8
14
 10
-3007.229208
 20
-102.487878
 30
0.0
 70
0
  0
VERTEX
  5
101
  8
14
 10
-2992.124627
 20
-105.814187
 30
0.0
 70
0
  0
VERTEX
  5
102
  8
14
 10
-2977.147067
 20
-108.862241
 30
0.0
 70
0
  0
VERTEX
  5
103
  8
14
 10
-2961.812723
 20
-111.736277
 30
0.0
 70
0
  0
VERTEX
  5
104
  8
14
 10
-2946.749252
 20
-114.326202
 30
0.0
 70
0
  0
VERTEX
  5
105
  8
14
 10
-2931.379722
 20
-116.740129
 30
0.0
 70
0
  0
VERTEX
  5
106
  8
14
 10
-2916.248564
 20
-118.899904
 30
0.0
 70
0
  0
VERTEX
  5
107
  8
14
 10
-2901.299536
 20
-120.829999
 30
0.0
 70
0
  0
VERTEX
  5
108
  8
14
 10
-2886.11699
 20
-122.590582
 30
0.0
 70
0
  0
VERTEX
  5
109
  8
14
 10
-2871.038109
 20
-124.148146
 30
0.0
 70
0
  0
VERTEX
  5
10A
  8
14
 10
-2855.816251
 20
-125.534432
 30
0.0
 70
0
  0
VERTEX
  5
10B
  8
14
 10
-2840.6217
 20
-126.735947
 30
0.0
 70
0
  0
VERTEX
  5
10C
  8
14
 10
-2825.437036
 20
-127.765079
 30
0.0
 70
0
  0
VERTEX
  5
10D
  8
14
 10
-2809.806405
 20
-128.668668
 30
0.0
 70
0
  0
VERTEX
  5
10E
  8
14
 10
-2794.712092
 20
-129.40939
 30
0.0
 70
0
  0
VERTEX
  5
10F
  8
14
 10
-2779.158676
 20
-130.050492
 30
0.0
 70
0
  0
VERTEX
  5
110
  8
14
 10
-2763.760282
 20
-130.571842
 30
0.0
 70
0
  0
VERTEX
  5
111
  8
14
 10
-2748.408019
 20
-130.983231
 30
0.0
 70
0
  0
VERTEX
  5
112
  8
14
 10
-2733.345306
 20
-131.277403
 30
0.0
 70
0
  0
VERTEX
  5
113
  8
14
 10
-2724.755554
 20
-131.39061
 30
0.0
 70
0
  0
VERTEX
  5
114
  8
14
 10
-2722.806259
 20
-131.408951
 30
0.0
 70
0
  0
VERTEX
  5
115
  8
14
 10
-2708.567748
 20
-131.389498
 30
0.0
 70
0
  0
VERTEX
  5
116
  8
14
 10
-2696.079649
 20
-131.155089
 30
0.0
 70
0
  0
VERTEX
  5
117
  8
14
 10
-2682.286404
 20
-130.605429
 30
0.0
 70
0
  0
VERTEX
  5
118
  8
14
 10
-2667.14104
 20
-129.851008
 30
0.0
 70
0
  0
VERTEX
  5
119
  8
14
 10
-2652.148844
 20
-129.195744
 30
0.0
 70
0
  0
VERTEX
  5
11A
  8
14
 10
-2637.000753
 20
-128.540537
 30
0.0
 70
0
  0
VERTEX
  5
11B
  8
14
 10
-2621.886134
 20
-127.71278
 30
0.0
 70
0
  0
VERTEX
  5
11C
  8
14
 10
-2606.757711
 20
-126.674239
 30
0.0
 70
0
  0
VERTEX
  5
11D
  8
14
 10
-2591.642945
 20
-125.441601
 30
0.0
 70
0
  0
VERTEX
  5
11E
  8
14
 10
-2576.543881
 20
-124.030396
 30
0.0
 70
0
  0
VERTEX
  5
11F
  8
14
 10
-2561.345669
 20
-122.439035
 30
0.0
 70
0
  0
VERTEX
  5
120
  8
14
 10
-2546.285535
 20
-120.679834
 30
0.0
 70
0
  0
VERTEX
  5
121
  8
14
 10
-2531.218141
 20
-118.718784
 30
0.0
 70
0
  0
VERTEX
  5
122
  8
14
 10
-2516.209759
 20
-116.557897
 30
0.0
 70
0
  0
VERTEX
  5
123
  8
14
 10
-2500.887151
 20
-114.133475
 30
0.0
 70
0
  0
VERTEX
  5
124
  8
14
 10
-2485.946177
 20
-111.548381
 30
0.0
 70
0
  0
VERTEX
  5
125
  8
14
 10
-2470.658904
 20
-108.667005
 30
0.0
 70
0
  0
VERTEX
  5
126
  8
14
 10
-2455.254075
 20
-105.511664
 30
0.0
 70
0
  0
VERTEX
  5
127
  8
14
 10
-2440.745477
 20
-102.29785
 30
0.0
 70
0
  0
VERTEX
  5
128
  8
14
 10
-2426.543028
 20
-98.907151
 30
0.0
 70
0
  0
VERTEX
  5
129
  8
14
 10
-2412.479992
 20
-95.296763
 30
0.0
 70
0
  0
VERTEX
  5
12A
  8
14
 10
-2397.857044
 20
-91.281599
 30
0.0
 70
0
  0
VERTEX
  5
12B
  8
14
 10
-2383.261341
 20
-87.021027
 30
0.0
 70
0
  0
VERTEX
  5
12C
  8
14
 10
-2368.770118
 20
-82.558041
 30
0.0
 70
0
  0
VERTEX
  5
12D
  8
14
 10
-2354.335183
 20
-77.916012
 30
0.0
 70
0
  0
VERTEX
  5
12E
  8
14
 10
-2339.995085
 20
-73.136927
 30
0.0
 70
0
  0
VERTEX
  5
12F
  8
14
 10
-2325.668611
 20
-68.171349
 30
0.0
 70
0
  0
VERTEX
  5
130
  8
14
 10
-2311.557881
 20
-63.080494
 30
0.0
 70
0
  0
VERTEX
  5
131
  8
14
 10
-2296.5242
 20
-57.617245
 30
0.0
 70
0
  0
VERTEX
  5
132
  8
14
 10
-2296.578369
 20
-57.511978
 30
0.0
 70
0
  0
VERTEX
  5
133
  8
14
 10
-2289.060474
 20
-72.108037
 30
0.0
 70
0
  0
VERTEX
  5
134
  8
14
 10
-2281.941384
 20
-85.92972
 30
0.0
 70
0
  0
VERTEX
  5
135
  8
14
 10
-2275.850372
 20
-97.755394
 30
0.0
 70
0
  0
VERTEX
  5
136
  8
14
 10
-2275.850372
 20
-97.755394
 30
0.0
 70
0
  0
VERTEX
  5
137
  8
14
 10
-2291.095091
 20
-103.50517
 30
0.0
 70
0
  0
VERTEX
  5
138
  8
14
 10
-2306.850005
 20
-109.208419
 30
0.0
 70
0
  0
VERTEX
  5
139
  8
14
 10
-2321.807918
 20
-114.434833
 30
0.0
 70
0
  0
VERTEX
  5
13A
  8
14
 10
-2336.958132
 20
-119.543436
 30
0.0
 70
0
  0
VERTEX
  5
13B
  8
14
 10
-2351.484089
 20
-124.259318
 30
0.0
 70
0
  0
VERTEX
  5
13C
  8
14
 10
-2366.759815
 20
-129.01165
 30
0.0
 70
0
  0
VERTEX
  5
13D
  8
14
 10
-2382.548133
 20
-133.677387
 30
0.0
 70
0
  0
VERTEX
  5
13E
  8
14
 10
-2397.187313
 20
-137.751329
 30
0.0
 70
0
  0
VERTEX
  5
13F
  8
14
 10
-2413.349629
 20
-141.941538
 30
0.0
 70
0
  0
VERTEX
  5
140
  8
14
 10
-2429.590899
 20
-145.84082
 30
0.0
 70
0
  0
VERTEX
  5
141
  8
14
 10
-2445.902242
 20
-149.462929
 30
0.0
 70
0
  0
VERTEX
  5
142
  8
14
 10
-2462.274835
 20
-152.821636
 30
0.0
 70
0
  0
VERTEX
  5
143
  8
14
 10
-2477.197969
 20
-155.656777
 30
0.0
 70
0
  0
VERTEX
  5
144
  8
14
 10
-2493.664107
 20
-158.54864
 30
0.0
 70
0
  0
VERTEX
  5
145
  8
14
 10
-2510.17144
 20
-161.206206
 30
0.0
 70
0
  0
VERTEX
  5
146
  8
14
 10
-2526.716094
 20
-163.633512
 30
0.0
 70
0
  0
VERTEX
  5
147
  8
14
 10
-2543.294324
 20
-165.834614
 30
0.0
 70
0
  0
VERTEX
  5
148
  8
14
 10
-2559.902273
 20
-167.813553
 30
0.0
 70
0
  0
VERTEX
  5
149
  8
14
 10
-2576.536082
 20
-169.574369
 30
0.0
 70
0
  0
VERTEX
  5
14A
  8
14
 10
-2593.192009
 20
-171.121116
 30
0.0
 70
0
  0
VERTEX
  5
14B
  8
14
 10
-2609.866196
 20
-172.457835
 30
0.0
 70
0
  0
VERTEX
  5
14C
  8
14
 10
-2626.554785
 20
-173.588569
 30
0.0
 70
0
  0
VERTEX
  5
14D
  8
14
 10
-2643.254033
 20
-174.517368
 30
0.0
 70
0
  0
VERTEX
  5
14E
  8
14
 10
-2659.960044
 20
-175.248273
 30
0.0
 70
0
  0
VERTEX
  5
14F
  8
14
 10
-2676.669074
 20
-175.785333
 30
0.0
 70
0
  0
VERTEX
  5
150
  8
14
 10
-2693.377267
 20
-176.132592
 30
0.0
 70
0
  0
VERTEX
  5
151
  8
14
 10
-2709.077469
 20
-176.296685
 30
0.0
 70
0
  0
VERTEX
  5
152
  8
14
 10
-2723.020072
 20
-176.34709
 30
0.0
 70
0
  0
VERTEX
  5
153
  8
14
 10
-2724.40155
 20
-176.347218
 30
0.0
 70
0
  0
SEQEND
  5
D1
  8
14
  0
POLYLINE
  5
154
  8
8
 66
1
 10
0.0
 20
0.0
 30
0.0
 70
0
  0
VERTEX
  5
156
  8
8
 10
-2724.40155
 20
-131.365528
 30
0.0
 70
0
  0
VERTEX
  5
157
  8
8
 10
-2724.40155
 20
-147.098217
 30
0.0
 70
0
  0
VERTEX
  5
158
  8
8
 10
-2724.40155
 20
-162.114129
 30
0.0
 70
0
  0
VERTEX
  5
159
  8
8
 10
-2724.40155
 20
-176.347218
 30
0.0
 70
0
  0
SEQEND
  5
155
  8
8
  0
POINT
  5
15A
  8
4
 10
-2724.415894
 20
-189.046898
 30
0.0
  0
POINT
  5
15B
  8
4
 10
-3178.808289
 20
-109.12447
 30
0.0
  0
POINT
  5
15C
  8
4
 10
-3179.665527
 20
-108.803997
 30
0.0
  0
POINT
  5
15D
  8
4
 10
-3221.283264
 20
-31.833494
 30
0.0
  0
POINT
  5
15E
  8
4
 10
-2227.516632
 20
-31.838715
 30
0.0
  0
POINT
  5
15F
  8
4
 10
-2271.389465
 20
-109.646149
 30
0.0
  0
POINT
  5
160
  8
4
 10
-2724.403992
 20
-189.047222
 30
0.0
  0
POINT
  5
161
  8
4
 10
-2724.40155
 20
-176.347218
 30
0.0
  0
POINT
  5
162
  8
4
 10
-3172.952271
 20
-97.755394
 30
0.0
  0
POINT
  5
163
  8
4
 10
-3172.952271
 20
-97.755394
 30
0.0
  0
POINT
  5
164
  8
4
 10
-3152.224121
 20
-57.511959
 30
0.0
  0
POINT
  5
165
  8
4
 10
-2296.578369
 20
-57.511978
 30
0.0
  0
POINT
  5
166
  8
4
 10
-2275.850372
 20
-97.755394
 30
0.0
  0
POINT
  5
167
  8
4
 10
-2724.40155
 20
-176.347218
 30
0.0
  0
LINE
  5
168
  8
7
 10
-2722.257385
 20
-132.500181
 30
0.0
 11
-2722.257385
 21
-194.629478
 31
0.0
  0
ENDSEC
  0
EOF
