  0
SECTION
  2
HEADER
  9
$ACADVER
  1
AC1009
  9
$DWGCODEPAGE
  3
ANSI_1252
  9
$INSBASE
 10
0.0
 20
0.0
 30
0.0
  9
$EXTMIN
 10
1e+20
 20
1e+20
 30
1e+20
  9
$EXTMAX
 10
-1e+20
 20
-1e+20
 30
-1e+20
  9
$LIMMIN
 10
0.0
 20
0.0
  9
$LIMMAX
 10
420.0
 20
297.0
  9
$ORTHOMODE
 70
0
  9
$REGENMODE
 70
1
  9
$FILLMODE
 70
1
  9
$DRAGMODE
 70
2
  9
$QTEXTMODE
 70
0
  9
$MIRRTEXT
 70
1
  9
$OSMODE
 70
20583
  9
$LTSCALE
 40
1.0
  9
$ATTMODE
 70
1
  9
$TEXTSIZE
 40
2.5
  9
$TRACEWID
 40
1.0
  9
$TEXTSTYLE
  7
Standard
  9
$CLAYER
  8
0
  9
$CELTYPE
  6
ByLayer
  9
$CECOLOR
 62
256
  9
$DIMSCALE
 40
1.0
  9
$DIMASZ
 40
2.5
  9
$DIMEXO
 40
0.625
  9
$DIMDLI
 40
3.75
  9
$DIMRND
 40
0.0
  9
$DIMDLE
 40
0.0
  9
$DIMEXE
 40
1.25
  9
$DIMTP
 40
0.0
  9
$DIMTM
 40
0.0
  9
$DIMTXT
 40
2.5
  9
$DIMCEN
 40
2.5
  9
$DIMTSZ
 40
0.0
  9
$DIMTOL
 70
0
  9
$DIMLIM
 70
0
  9
$DIMTIH
 70
0
  9
$DIMTOH
 70
0
  9
$DIMSE1
 70
0
  9
$DIMSE2
 70
0
  9
$DIMTAD
 70
1
  9
$DIMZIN
 70
8
  9
$DIMBLK
  1

  9
$DIMASO
 70
1
  9
$DIMSHO
 70
1
  9
$DIMPOST
  1

  9
$DIMAPOST
  1

  9
$DIMALT
 70
0
  9
$DIMALTD
 70
3
  9
$DIMALTF
 40
0.03937007874
  9
$DIMLFAC
 40
1.0
  9
$DIMTOFL
 70
1
  9
$DIMTVP
 40
0.0
  9
$DIMTIX
 70
0
  9
$DIMSOXD
 70
0
  9
$DIMSAH
 70
0
  9
$DIMBLK1
  1

  9
$DIMBLK2
  1

  9
$DIMSTYLE
  2
ISO-25
  9
$DIMCLRD
 70
0
  9
$DIMCLRE
 70
0
  9
$DIMCLRT
 70
0
  9
$DIMTFAC
 40
1.0
  9
$DIMGAP
 40
0.625
  9
$COORDS
 70
1
  9
$ATTDIA
 70
0
  9
$ATTREQ
 70
1
  9
$HANDLING
 70
1
  9
$LUNITS
 70
2
  9
$LUPREC
 70
4
  9
$SKETCHINC
 40
1.0
  9
$FILLETRAD
 40
10.0
  9
$AUNITS
 70
0
  9
$AUPREC
 70
2
  9
$MENU
  1
.
  9
$ELEVATION
 40
0.0
  9
$PELEVATION
 40
0.0
  9
$THICKNESS
 40
0.0
  9
$LIMCHECK
 70
0
  9
$CHAMFERA
 40
0.0
  9
$CHAMFERB
 40
0.0
  9
$SKPOLY
 70
0
  9
$TDCREATE
 40
2461259.4353819443
  9
$TDUPDATE
 40
2461259.4353819443
  9
$TDINDWG
 40
0.0
  9
$TDUSRTIMER
 40
0.0
  9
$USRTIMER
 70
1
  9
$ANGBASE
 50
0.0
  9
$ANGDIR
 70
0
  9
$PDMODE
 70
0
  9
$PDSIZE
 40
0.0
  9
$PLINEWID
 40
0.0
  9
$SPLFRAME
 70
0
  9
$SPLINETYPE
 70
6
  9
$SPLINESEGS
 70
8
  9
$HANDSEED
  5
CC
  9
$SURFTAB1
 70
6
  9
$SURFTAB2
 70
6
  9
$SURFTYPE
 70
6
  9
$SURFU
 70
6
  9
$SURFV
 70
6
  9
$UCSNAME
  2

  9
$UCSORG
 10
0.0
 20
0.0
 30
0.0
  9
$UCSXDIR
 10
1.0
 20
0.0
 30
0.0
  9
$UCSYDIR
 10
0.0
 20
1.0
 30
0.0
  9
$PUCSNAME
  2

  9
$PUCSORG
 10
0.0
 20
0.0
 30
0.0
  9
$PUCSXDIR
 10
1.0
 20
0.0
 30
0.0
  9
$PUCSYDIR
 10
0.0
 20
1.0
 30
0.0
  9
$USERI1
 70
0
  9
$USERI2
 70
0
  9
$USERI3
 70
0
  9
$USERI4
 70
0
  9
$USERI5
 70
0
  9
$USERR1
 40
0.0
  9
$USERR2
 40
0.0
  9
$USERR3
 40
0.0
  9
$USERR4
 40
0.0
  9
$USERR5
 40
0.0
  9
$WORLDVIEW
 70
1
  9
$SHADEDGE
 70
3
  9
$SHADEDIF
 70
70
  9
$TILEMODE
 70
1
  9
$MAXACTVP
 70
64
  9
$PLIMCHECK
 70
0
  9
$PEXTMIN
 10
1e+20
 20
1e+20
 30
1e+20
  9
$PEXTMAX
 10
-1e+20
 20
-1e+20
 30
-1e+20
  9
$PLIMMIN
 10
0.0
 20
0.0
  9
$PLIMMAX
 10
420.0
 20
297.0
  9
$UNITMODE
 70
0
  9
$VISRETAIN
 70
1
  9
$PLINEGEN
 70
0
  9
$PSLTSCALE
 70
1
  0
ENDSEC
  0
SECTION
  2
TABLES
  0
TABLE
  2
VPORT
 70
1
  0
VPORT
  5
23
  2
*Active
 70
0
 10
0.0
 20
0.0
 11
1.0
 21
1.0
 12
0.0
 22
0.0
 13
0.0
 23
0.0
 14
0.5
 24
0.5
 15
0.5
 25
0.5
 16
0.0
 26
0.0
 36
1.0
 17
0.0
 27
0.0
 37
0.0
 40
1000.0
 41
1.34
 42
50.0
 43
0.0
 44
0.0
 50
0.0
 51
0.0
 71
0
 72
1000
 73
1
 74
3
 75
0
 76
0
 77
0
 78
0
  0
ENDTAB
  0
TABLE
  2
LTYPE
 70
3
  0
LTYPE
  5
24
  2
ByBlock
 70
0
  3

 72
65
 73
0
 40
0.0
  0
LTYPE
  5
25
  2
ByLayer
 70
0
  3

 72
65
 73
0
 40
0.0
  0
LTYPE
  5
26
  2
Continuous
 70
0
  3

 72
65
 73
0
 40
0.0
  0
ENDTAB
  0
TABLE
  2
LAYER
 70
4
  0
LAYER
  5
27
  2
0
 70
0
 62
7
  6
Continuous
  0
LAYER
  5
28
  2
Defpoints
 70
0
 62
7
  6
Continuous
  0
LAYER
  5
2D
  2
1
 70
0
 62
1
  6
Continuous
  0
LAYER
  5
2E
  2
7
 70
0
 62
7
  6
Continuous
  0
ENDTAB
  0
TABLE
  2
STYLE
 70
1
  0
STYLE
  5
29
  2
Standard
 70
0
 40
0.0
 41
1.0
 50
0.0
 71
0
 42
2.5
  3
txt
  4

  0
ENDTAB
  0
TABLE
  2
VIEW
 70
0
  0
ENDTAB
  0
TABLE
  2
UCS
 70
0
  0
ENDTAB
  0
TABLE
  2
APPID
 70
3
  0
APPID
  5
2A
  2
ACAD
 70
0
  0
APPID
  5
CA
  2
HATCHBACKGROUNDCOLOR
 70
0
  0
APPID
  5
CB
  2
EZDXF
 70
0
  0
ENDTAB
  0
TABLE
  2
DIMSTYLE
 70
1
  0
DIMSTYLE
105
2B
  2
Standard
 70
0
  3

  4

  5

  6

  7

 40
1.0
 41
2.5
 42
0.625
 43
3.75
 44
1.25
 45
0.0
 46
0.0
 47
0.0
 48
0.0
140
2.5
141
2.5
142
0.0
143
0.03937007874
144
1.0
145
0.0
146
1.0
147
0.625
 71
0
 72
0
 73
0
 74
0
 75
0
 76
0
 77
1
 78
8
170
0
171
3
172
1
173
0
174
0
175
0
176
0
177
0
178
0
  0
ENDTAB
  0
ENDSEC
  0
SECTION
  2
BLOCKS
  0
BLOCK
  5
18
  8
0
  2
$Model_Space
 70
0
 10
0.0
 20
0.0
 30
0.0
  3
$Model_Space
  1

1001
EZDXF
1000
CREATED_BY_EZDXF
1000
1.4.4 @ 2026-08-06T02:26:57.862763+00:00
1000
WRITTEN_BY_EZDXF
1000
1.4.4 @ 2026-08-06T02:26:57.864763+00:00
  0
ENDBLK
  5
19
  8
0
  0
BLOCK
  5
1C
  8
0
  2
$Paper_Space
 70
0
 10
0.0
 20
0.0
 30
0.0
  3
$Paper_Space
  1

  0
ENDBLK
  5
1D
  8
0
  0
ENDSEC
  0
SECTION
  2
ENTITIES
  0
POLYLINE
  5
2F
  8
1
 66
1
 10
0.0
 20
0.0
 30
0.0
 70
1
  0
VERTEX
  5
31
  8
1
 10
-2724.440308
 20
-187.142162
 30
0.0
 70
0
  0
VERTEX
  5
32
  8
1
 10
-2724.440308
 20
-187.142162
 30
0.0
 70
0
  0
VERTEX
  5
33
  8
1
 10
-2726.921994
 20
-187.131806
 30
0.0
 70
0
  0
VERTEX
  5
34
  8
1
 10
-2741.639491
 20
-186.992436
 30
0.0
 70
0
  0
VERTEX
  5
35
  8
1
 10
-2757.113439
 20
-186.67693
 30
0.0
 70
0
  0
VERTEX
  5
36
  8
1
 10
-2772.63549
 20
-186.163441
 30
0.0
 70
0
  0
VERTEX
  5
37
  8
1
 10
-2788.105436
 20
-185.497219
 30
0.0
 70
0
  0
VERTEX
  5
38
  8
1
 10
-2803.614768
 20
-184.691205
 30
0.0
 70
0
  0
VERTEX
  5
39
  8
1
 10
-2819.004382
 20
-183.746328
 30
0.0
 70
0
  0
VERTEX
  5
3A
  8
1
 10
-2834.495515
 20
-182.643983
 30
0.0
 70
0
  0
VERTEX
  5
3B
  8
1
 10
-2849.813099
 20
-181.403213
 30
0.0
 70
0
  0
VERTEX
  5
3C
  8
1
 10
-2865.279408
 20
-179.994132
 30
0.0
 70
0
  0
VERTEX
  5
3D
  8
1
 10
-2880.422469
 20
-178.455123
 30
0.0
 70
0
  0
VERTEX
  5
3E
  8
1
 10
-2895.855223
 20
-176.716036
 30
0.0
 70
0
  0
VERTEX
  5
3F
  8
1
 10
-2910.801358
 20
-174.858385
 30
0.0
 70
0
  0
VERTEX
  5
40
  8
1
 10
-2926.188929
 20
-172.756529
 30
0.0
 70
0
  0
VERTEX
  5
41
  8
1
 10
-2941.088779
 20
-170.525069
 30
0.0
 70
0
  0
VERTEX
  5
42
  8
1
 10
-2956.415106
 20
-168.013231
 30
0.0
 70
0
  0
VERTEX
  5
43
  8
1
 10
-2971.701859
 20
-165.27127
 30
0.0
 70
0
  0
VERTEX
  5
44
  8
1
 10
-2986.570012
 20
-162.36132
 30
0.0
 70
0
  0
VERTEX
  5
45
  8
1
 10
-3001.761428
 20
-159.132458
 30
0.0
 70
0
  0
VERTEX
  5
46
  8
1
 10
-3016.552109
 20
-155.734758
 30
0.0
 70
0
  0
VERTEX
  5
47
  8
1
 10
-3031.049436
 20
-152.151889
 30
0.0
 70
0
  0
VERTEX
  5
48
  8
1
 10
-3045.153523
 20
-148.416133
 30
0.0
 70
0
  0
VERTEX
  5
49
  8
1
 10
-3060.099147
 20
-144.193
 30
0.0
 70
0
  0
VERTEX
  5
4A
  8
1
 10
-3074.674001
 20
-139.831433
 30
0.0
 70
0
  0
VERTEX
  5
4B
  8
1
 10
-3089.490319
 20
-135.176474
 30
0.0
 70
0
  0
VERTEX
  5
4C
  8
1
 10
-3104.066702
 20
-130.410405
 30
0.0
 70
0
  0
VERTEX
  5
4D
  8
1
 10
-3118.774906
 20
-125.423106
 30
0.0
 70
0
  0
VERTEX
  5
4E
  8
1
 10
-3132.948617
 20
-120.422526
 30
0.0
 70
0
  0
VERTEX
  5
4F
  8
1
 10
-3147.52885
 20
-115.075109
 30
0.0
 70
0
  0
VERTEX
  5
50
  8
1
 10
-3162.070561
 20
-109.621867
 30
0.0
 70
0
  0
VERTEX
  5
51
  8
1
 10
-3165.105591
 20
-108.478479
 30
0.0
 70
0
  0
VERTEX
  5
52
  8
1
 10
-3165.993347
 20
-108.144054
 30
0.0
 70
0
  0
VERTEX
  5
53
  8
1
 10
-3176.306983
 20
-104.258731
 30
0.0
 70
0
  0
VERTEX
  5
54
  8
1
 10
-3190.821076
 20
-98.790957
 30
0.0
 70
0
  0
VERTEX
  5
55
  8
1
 10
-3205.127534
 20
-93.401399
 30
0.0
 70
0
  0
VERTEX
  5
56
  8
1
 10
-3219.55673
 20
-87.965598
 30
0.0
 70
0
  0
VERTEX
  5
57
  8
1
 10
-3234.019165
 20
-82.517271
 30
0.0
 70
0
  0
VERTEX
  5
58
  8
1
 10
-3229.650213
 20
-74.035147
 30
0.0
 70
0
  0
VERTEX
  5
59
  8
1
 10
-3222.730827
 20
-60.601423
 30
0.0
 70
0
  0
VERTEX
  5
5A
  8
1
 10
-3215.727141
 20
-47.003939
 30
0.0
 70
0
  0
VERTEX
  5
5B
  8
1
 10
-3208.759814
 20
-33.476924
 30
0.0
 70
0
  0
VERTEX
  5
5C
  8
1
 10
-3207.500916
 20
-31.032817
 30
0.0
 70
0
  0
VERTEX
  5
5D
  8
1
 10
-3201.646118
 20
-19.665636
 30
0.0
 70
0
  0
VERTEX
  5
5E
  8
1
 10
-3186.961031
 20
-25.165365
 30
0.0
 70
0
  0
VERTEX
  5
5F
  8
1
 10
-3172.720108
 20
-30.495079
 30
0.0
 70
0
  0
VERTEX
  5
60
  8
1
 10
-3158.245838
 20
-35.91028
 30
0.0
 70
0
  0
VERTEX
  5
61
  8
1
 10
-3144.091103
 20
-41.219688
 30
0.0
 70
0
  0
VERTEX
  5
62
  8
1
 10
-3129.779807
 20
-46.599603
 30
0.0
 70
0
  0
VERTEX
  5
63
  8
1
 10
-3115.443807
 20
-51.912744
 30
0.0
 70
0
  0
VERTEX
  5
64
  8
1
 10
-3100.948091
 20
-57.114259
 30
0.0
 70
0
  0
VERTEX
  5
65
  8
1
 10
-3086.49636
 20
-62.104859
 30
0.0
 70
0
  0
VERTEX
  5
66
  8
1
 10
-3071.968408
 20
-66.918483
 30
0.0
 70
0
  0
VERTEX
  5
67
  8
1
 10
-3057.542435
 20
-71.489188
 30
0.0
 70
0
  0
VERTEX
  5
68
  8
1
 10
-3042.903056
 20
-75.903748
 30
0.0
 70
0
  0
VERTEX
  5
69
  8
1
 10
-3028.196396
 20
-80.088419
 30
0.0
 70
0
  0
VERTEX
  5
6A
  8
1
 10
-3014.47715
 20
-83.743413
 30
0.0
 70
0
  0
VERTEX
  5
6B
  8
1
 10
-3000.471036
 20
-87.212038
 30
0.0
 70
0
  0
VERTEX
  5
6C
  8
1
 10
-2986.099522
 20
-90.507217
 30
0.0
 70
0
  0
VERTEX
  5
6D
  8
1
 10
-2971.3409
 20
-93.63252
 30
0.0
 70
0
  0
VERTEX
  5
6E
  8
1
 10
-2956.334127
 20
-96.559635
 30
0.0
 70
0
  0
VERTEX
  5
6F
  8
1
 10
-2941.639271
 20
-99.190996
 30
0.0
 70
0
  0
VERTEX
  5
70
  8
1
 10
-2926.011123
 20
-101.743623
 30
0.0
 70
0
  0
VERTEX
  5
71
  8
1
 10
-2910.718008
 20
-104.006493
 30
0.0
 70
0
  0
VERTEX
  5
72
  8
1
 10
-2895.563182
 20
-106.029472
 30
0.0
 70
0
  0
VERTEX
  5
73
  8
1
 10
-2880.501228
 20
-107.832441
 30
0.0
 70
0
  0
VERTEX
  5
74
  8
1
 10
-2865.297736
 20
-109.450332
 30
0.0
 70
0
  0
VERTEX
  5
75
  8
1
 10
-2850.086937
 20
-110.871573
 30
0.0
 70
0
  0
VERTEX
  5
76
  8
1
 10
-2834.84759
 20
-112.105198
 30
0.0
 70
0
  0
VERTEX
  5
77
  8
1
 10
-2819.53754
 20
-113.168928
 30
0.0
 70
0
  0
VERTEX
  5
78
  8
1
 10
-2804.275333
 20
-114.072556
 30
0.0
 70
0
  0
VERTEX
  5
79
  8
1
 10
-2789.136553
 20
-114.83472
 30
0.0
 70
0
  0
VERTEX
  5
7A
  8
1
 10
-2773.861159
 20
-115.483143
 30
0.0
 70
0
  0
VERTEX
  5
7B
  8
1
 10
-2758.390253
 20
-116.01094
 30
0.0
 70
0
  0
VERTEX
  5
7C
  8
1
 10
-2743.176242
 20
-116.409132
 30
0.0
 70
0
  0
VERTEX
  5
7D
  8
1
 10
-2728.262664
 20
-116.713642
 30
0.0
 70
0
  0
VERTEX
  5
7E
  8
1
 10
-2724.220276
 20
-116.782055
 30
0.0
 70
0
  0
VERTEX
  5
7F
  8
1
 10
-2717.085262
 20
-116.692853
 30
0.0
 70
0
  0
VERTEX
  5
80
  8
1
 10
-2702.086358
 20
-116.415195
 30
0.0
 70
0
  0
VERTEX
  5
81
  8
1
 10
-2687.035631
 20
-115.97365
 30
0.0
 70
0
  0
VERTEX
  5
82
  8
1
 10
-2671.924031
 20
-115.376817
 30
0.0
 70
0
  0
VERTEX
  5
83
  8
1
 10
-2656.884234
 20
-114.659235
 30
0.0
 70
0
  0
VERTEX
  5
84
  8
1
 10
-2641.803337
 20
-113.845751
 30
0.0
 70
0
  0
VERTEX
  5
85
  8
1
 10
-2626.771438
 20
-112.954225
 30
0.0
 70
0
  0
VERTEX
  5
86
  8
1
 10
-2611.748256
 20
-111.93506
 30
0.0
 70
0
  0
VERTEX
  5
87
  8
1
 10
-2596.585902
 20
-110.713998
 30
0.0
 70
0
  0
VERTEX
  5
88
  8
1
 10
-2581.597669
 20
-109.276012
 30
0.0
 70
0
  0
VERTEX
  5
89
  8
1
 10
-2566.542616
 20
-107.627218
 30
0.0
 70
0
  0
VERTEX
  5
8A
  8
1
 10
-2551.59472
 20
-105.813349
 30
0.0
 70
0
  0
VERTEX
  5
8B
  8
1
 10
-2536.299727
 20
-103.754789
 30
0.0
 70
0
  0
VERTEX
  5
8C
  8
1
 10
-2521.40757
 20
-101.529603
 30
0.0
 70
0
  0
VERTEX
  5
8D
  8
1
 10
-2506.165736
 20
-99.019496
 30
0.0
 70
0
  0
VERTEX
  5
8E
  8
1
 10
-2491.347138
 20
-96.348859
 30
0.0
 70
0
  0
VERTEX
  5
8F
  8
1
 10
-2476.171929
 20
-93.369335
 30
0.0
 70
0
  0
VERTEX
  5
90
  8
1
 10
-2461.444353
 20
-90.229066
 30
0.0
 70
0
  0
VERTEX
  5
91
  8
1
 10
-2447.295164
 20
-86.964721
 30
0.0
 70
0
  0
VERTEX
  5
92
  8
1
 10
-2433.655747
 20
-83.571649
 30
0.0
 70
0
  0
VERTEX
  5
93
  8
1
 10
-2419.628681
 20
-79.81961
 30
0.0
 70
0
  0
VERTEX
  5
94
  8
1
 10
-2405.149137
 20
-75.684208
 30
0.0
 70
0
  0
VERTEX
  5
95
  8
1
 10
-2390.681897
 20
-71.310531
 30
0.0
 70
0
  0
VERTEX
  5
96
  8
1
 10
-2376.330027
 20
-66.754757
 30
0.0
 70
0
  0
VERTEX
  5
97
  8
1
 10
-2361.885958
 20
-61.962214
 30
0.0
 70
0
  0
VERTEX
  5
98
  8
1
 10
-2347.654413
 20
-57.044181
 30
0.0
 70
0
  0
VERTEX
  5
99
  8
1
 10
-2333.481938
 20
-51.958662
 30
0.0
 70
0
  0
VERTEX
  5
9A
  8
1
 10
-2319.401769
 20
-46.741838
 30
0.0
 70
0
  0
VERTEX
  5
9B
  8
1
 10
-2304.804217
 20
-41.254169
 30
0.0
 70
0
  0
VERTEX
  5
9C
  8
1
 10
-2290.895426
 20
-36.036768
 30
0.0
 70
0
  0
VERTEX
  5
9D
  8
1
 10
-2276.289214
 20
-30.57271
 30
0.0
 70
0
  0
VERTEX
  5
9E
  8
1
 10
-2261.882989
 20
-25.1822
 30
0.0
 70
0
  0
VERTEX
  5
9F
  8
1
 10
-2247.155304
 20
-19.667909
 30
0.0
 70
0
  0
VERTEX
  5
A0
  8
1
 10
-2241.300201
 20
-31.035402
 30
0.0
 70
0
  0
VERTEX
  5
A1
  8
1
 10
-2240.061068
 20
-33.441314
 30
0.0
 70
0
  0
VERTEX
  5
A2
  8
1
 10
-2233.049538
 20
-47.054184
 30
0.0
 70
0
  0
VERTEX
  5
A3
  8
1
 10
-2226.05123
 20
-60.641407
 30
0.0
 70
0
  0
VERTEX
  5
A4
  8
1
 10
-2219.157756
 20
-74.025043
 30
0.0
 70
0
  0
VERTEX
  5
A5
  8
1
 10
-2214.813385
 20
-82.459583
 30
0.0
 70
0
  0
VERTEX
  5
A6
  8
1
 10
-2229.299139
 20
-87.931035
 30
0.0
 70
0
  0
VERTEX
  5
A7
  8
1
 10
-2243.748602
 20
-93.388708
 30
0.0
 70
0
  0
VERTEX
  5
A8
  8
1
 10
-2258.072363
 20
-98.798838
 30
0.0
 70
0
  0
VERTEX
  5
A9
  8
1
 10
-2272.600865
 20
-104.286224
 30
0.0
 70
0
  0
VERTEX
  5
AA
  8
1
 10
-2285.06485
 20
-108.993759
 30
0.0
 70
0
  0
VERTEX
  5
AB
  8
1
 10
-2286.723251
 20
-109.620107
 30
0.0
 70
0
  0
VERTEX
  5
AC
  8
1
 10
-2301.274258
 20
-115.090115
 30
0.0
 70
0
  0
VERTEX
  5
AD
  8
1
 10
-2315.865018
 20
-120.451013
 30
0.0
 70
0
  0
VERTEX
  5
AE
  8
1
 10
-2330.201306
 20
-125.511381
 30
0.0
 70
0
  0
VERTEX
  5
AF
  8
1
 10
-2344.923547
 20
-130.502643
 30
0.0
 70
0
  0
VERTEX
  5
B0
  8
1
 10
-2359.546625
 20
-135.282178
 30
0.0
 70
0
  0
VERTEX
  5
B1
  8
1
 10
-2374.37951
 20
-139.933003
 30
0.0
 70
0
  0
VERTEX
  5
B2
  8
1
 10
-2389.221623
 20
-144.357793
 30
0.0
 70
0
  0
VERTEX
  5
B3
  8
1
 10
-2404.18767
 20
-148.561503
 30
0.0
 70
0
  0
VERTEX
  5
B4
  8
1
 10
-2418.763432
 20
-152.386745
 30
0.0
 70
0
  0
VERTEX
  5
B5
  8
1
 10
-2433.282762
 20
-155.938922
 30
0.0
 70
0
  0
VERTEX
  5
B6
  8
1
 10
-2448.40564
 20
-159.383242
 30
0.0
 70
0
  0
VERTEX
  5
B7
  8
1
 10
-2463.614124
 20
-162.601166
 30
0.0
 70
0
  0
VERTEX
  5
B8
  8
1
 10
-2478.808237
 20
-165.585114
 30
0.0
 70
0
  0
VERTEX
  5
B9
  8
1
 10
-2494.102383
 20
-168.367361
 30
0.0
 70
0
  0
VERTEX
  5
BA
  8
1
 10
-2509.301361
 20
-170.92017
 30
0.0
 70
0
  0
VERTEX
  5
BB
  8
1
 10
-2524.664435
 20
-173.292187
 30
0.0
 70
0
  0
VERTEX
  5
BC
  8
1
 10
-2539.962009
 20
-175.450653
 30
0.0
 70
0
  0
VERTEX
  5
BD
  8
1
 10
-2555.381104
 20
-177.42543
 30
0.0
 70
0
  0
VERTEX
  5
BE
  8
1
 10
-2570.721661
 20
-179.194869
 30
0.0
 70
0
  0
VERTEX
  5
BF
  8
1
 10
-2586.185022
 20
-180.786033
 30
0.0
 70
0
  0
VERTEX
  5
C0
  8
1
 10
-2601.666522
 20
-182.189871
 30
0.0
 70
0
  0
VERTEX
  5
C1
  8
1
 10
-2617.052002
 20
-183.401615
 30
0.0
 70
0
  0
VERTEX
  5
C2
  8
1
 10
-2632.562146
 20
-184.442329
 30
0.0
 70
0
  0
VERTEX
  5
C3
  8
1
 10
-2647.957243
 20
-185.299734
 30
0.0
 70
0
  0
VERTEX
  5
C4
  8
1
 10
-2663.486876
 20
-185.990706
 30
0.0
 70
0
  0
VERTEX
  5
C5
  8
1
 10
-2678.875581
 20
-186.506238
 30
0.0
 70
0
  0
VERTEX
  5
C6
  8
1
 10
-2694.41645
 20
-186.860902
 30
0.0
 70
0
  0
VERTEX
  5
C7
  8
1
 10
-2709.517212
 20
-187.055597
 30
0.0
 70
0
  0
VERTEX
  5
C8
  8
1
 10
-2724.341431
 20
-187.142067
 30
0.0
 70
0
  0
SEQEND
  5
30
  8
1
  0
LINE
  5
C9
  8
7
 10
-2722.257385
 20
-133.993168
 30
0.0
 11
-2722.257385
 21
-169.93885
 31
0.0
  0
ENDSEC
  0
EOF
