  0
SECTION
  2
HEADER
  9
$ACADVER
  1
AC1009
  9
$DWGCODEPAGE
  3
ANSI_1252
  9
$INSBASE
 10
0.0
 20
0.0
 30
0.0
  9
$EXTMIN
 10
1e+20
 20
1e+20
 30
1e+20
  9
$EXTMAX
 10
-1e+20
 20
-1e+20
 30
-1e+20
  9
$LIMMIN
 10
0.0
 20
0.0
  9
$LIMMAX
 10
420.0
 20
297.0
  9
$ORTHOMODE
 70
0
  9
$REGENMODE
 70
1
  9
$FILLMODE
 70
1
  9
$DRAGMODE
 70
2
  9
$QTEXTMODE
 70
0
  9
$MIRRTEXT
 70
1
  9
$OSMODE
 70
20583
  9
$LTSCALE
 40
1.0
  9
$ATTMODE
 70
1
  9
$TEXTSIZE
 40
2.5
  9
$TRACEWID
 40
1.0
  9
$TEXTSTYLE
  7
Standard
  9
$CLAYER
  8
0
  9
$CELTYPE
  6
ByLayer
  9
$CECOLOR
 62
256
  9
$DIMSCALE
 40
1.0
  9
$DIMASZ
 40
2.5
  9
$DIMEXO
 40
0.625
  9
$DIMDLI
 40
3.75
  9
$DIMRND
 40
0.0
  9
$DIMDLE
 40
0.0
  9
$DIMEXE
 40
1.25
  9
$DIMTP
 40
0.0
  9
$DIMTM
 40
0.0
  9
$DIMTXT
 40
2.5
  9
$DIMCEN
 40
2.5
  9
$DIMTSZ
 40
0.0
  9
$DIMTOL
 70
0
  9
$DIMLIM
 70
0
  9
$DIMTIH
 70
0
  9
$DIMTOH
 70
0
  9
$DIMSE1
 70
0
  9
$DIMSE2
 70
0
  9
$DIMTAD
 70
1
  9
$DIMZIN
 70
8
  9
$DIMBLK
  1

  9
$DIMASO
 70
1
  9
$DIMSHO
 70
1
  9
$DIMPOST
  1

  9
$DIMAPOST
  1

  9
$DIMALT
 70
0
  9
$DIMALTD
 70
3
  9
$DIMALTF
 40
0.03937007874
  9
$DIMLFAC
 40
1.0
  9
$DIMTOFL
 70
1
  9
$DIMTVP
 40
0.0
  9
$DIMTIX
 70
0
  9
$DIMSOXD
 70
0
  9
$DIMSAH
 70
0
  9
$DIMBLK1
  1

  9
$DIMBLK2
  1

  9
$DIMSTYLE
  2
ISO-25
  9
$DIMCLRD
 70
0
  9
$DIMCLRE
 70
0
  9
$DIMCLRT
 70
0
  9
$DIMTFAC
 40
1.0
  9
$DIMGAP
 40
0.625
  9
$COORDS
 70
1
  9
$ATTDIA
 70
0
  9
$ATTREQ
 70
1
  9
$HANDLING
 70
1
  9
$LUNITS
 70
2
  9
$LUPREC
 70
4
  9
$SKETCHINC
 40
1.0
  9
$FILLETRAD
 40
10.0
  9
$AUNITS
 70
0
  9
$AUPREC
 70
2
  9
$MENU
  1
.
  9
$ELEVATION
 40
0.0
  9
$PELEVATION
 40
0.0
  9
$THICKNESS
 40
0.0
  9
$LIMCHECK
 70
0
  9
$CHAMFERA
 40
0.0
  9
$CHAMFERB
 40
0.0
  9
$SKPOLY
 70
0
  9
$TDCREATE
 40
2461259.4353935183
  9
$TDUPDATE
 40
2461259.4353935183
  9
$TDINDWG
 40
0.0
  9
$TDUSRTIMER
 40
0.0
  9
$USRTIMER
 70
1
  9
$ANGBASE
 50
0.0
  9
$ANGDIR
 70
0
  9
$PDMODE
 70
0
  9
$PDSIZE
 40
0.0
  9
$PLINEWID
 40
0.0
  9
$SPLFRAME
 70
0
  9
$SPLINETYPE
 70
6
  9
$SPLINESEGS
 70
8
  9
$HANDSEED
  5
DE
  9
$SURFTAB1
 70
6
  9
$SURFTAB2
 70
6
  9
$SURFTYPE
 70
6
  9
$SURFU
 70
6
  9
$SURFV
 70
6
  9
$UCSNAME
  2

  9
$UCSORG
 10
0.0
 20
0.0
 30
0.0
  9
$UCSXDIR
 10
1.0
 20
0.0
 30
0.0
  9
$UCSYDIR
 10
0.0
 20
1.0
 30
0.0
  9
$PUCSNAME
  2

  9
$PUCSORG
 10
0.0
 20
0.0
 30
0.0
  9
$PUCSXDIR
 10
1.0
 20
0.0
 30
0.0
  9
$PUCSYDIR
 10
0.0
 20
1.0
 30
0.0
  9
$USERI1
 70
0
  9
$USERI2
 70
0
  9
$USERI3
 70
0
  9
$USERI4
 70
0
  9
$USERI5
 70
0
  9
$USERR1
 40
0.0
  9
$USERR2
 40
0.0
  9
$USERR3
 40
0.0
  9
$USERR4
 40
0.0
  9
$USERR5
 40
0.0
  9
$WORLDVIEW
 70
1
  9
$SHADEDGE
 70
3
  9
$SHADEDIF
 70
70
  9
$TILEMODE
 70
1
  9
$MAXACTVP
 70
64
  9
$PLIMCHECK
 70
0
  9
$PEXTMIN
 10
1e+20
 20
1e+20
 30
1e+20
  9
$PEXTMAX
 10
-1e+20
 20
-1e+20
 30
-1e+20
  9
$PLIMMIN
 10
0.0
 20
0.0
  9
$PLIMMAX
 10
420.0
 20
297.0
  9
$UNITMODE
 70
0
  9
$VISRETAIN
 70
1
  9
$PLINEGEN
 70
0
  9
$PSLTSCALE
 70
1
  0
ENDSEC
  0
SECTION
  2
TABLES
  0
TABLE
  2
VPORT
 70
1
  0
VPORT
  5
23
  2
*Active
 70
0
 10
0.0
 20
0.0
 11
1.0
 21
1.0
 12
0.0
 22
0.0
 13
0.0
 23
0.0
 14
0.5
 24
0.5
 15
0.5
 25
0.5
 16
0.0
 26
0.0
 36
1.0
 17
0.0
 27
0.0
 37
0.0
 40
1000.0
 41
1.34
 42
50.0
 43
0.0
 44
0.0
 50
0.0
 51
0.0
 71
0
 72
1000
 73
1
 74
3
 75
0
 76
0
 77
0
 78
0
  0
ENDTAB
  0
TABLE
  2
LTYPE
 70
3
  0
LTYPE
  5
24
  2
ByBlock
 70
0
  3

 72
65
 73
0
 40
0.0
  0
LTYPE
  5
25
  2
ByLayer
 70
0
  3

 72
65
 73
0
 40
0.0
  0
LTYPE
  5
26
  2
Continuous
 70
0
  3

 72
65
 73
0
 40
0.0
  0
ENDTAB
  0
TABLE
  2
LAYER
 70
4
  0
LAYER
  5
27
  2
0
 70
0
 62
7
  6
Continuous
  0
LAYER
  5
28
  2
Defpoints
 70
0
 62
7
  6
Continuous
  0
LAYER
  5
2D
  2
1
 70
0
 62
1
  6
Continuous
  0
LAYER
  5
2E
  2
7
 70
0
 62
7
  6
Continuous
  0
ENDTAB
  0
TABLE
  2
STYLE
 70
1
  0
STYLE
  5
29
  2
Standard
 70
0
 40
0.0
 41
1.0
 50
0.0
 71
0
 42
2.5
  3
txt
  4

  0
ENDTAB
  0
TABLE
  2
VIEW
 70
0
  0
ENDTAB
  0
TABLE
  2
UCS
 70
0
  0
ENDTAB
  0
TABLE
  2
APPID
 70
3
  0
APPID
  5
2A
  2
ACAD
 70
0
  0
APPID
  5
DC
  2
HATCHBACKGROUNDCOLOR
 70
0
  0
APPID
  5
DD
  2
EZDXF
 70
0
  0
ENDTAB
  0
TABLE
  2
DIMSTYLE
 70
1
  0
DIMSTYLE
105
2B
  2
Standard
 70
0
  3

  4

  5

  6

  7

 40
1.0
 41
2.5
 42
0.625
 43
3.75
 44
1.25
 45
0.0
 46
0.0
 47
0.0
 48
0.0
140
2.5
141
2.5
142
0.0
143
0.03937007874
144
1.0
145
0.0
146
1.0
147
0.625
 71
0
 72
0
 73
0
 74
0
 75
0
 76
0
 77
1
 78
8
170
0
171
3
172
1
173
0
174
0
175
0
176
0
177
0
178
0
  0
ENDTAB
  0
ENDSEC
  0
SECTION
  2
BLOCKS
  0
BLOCK
  5
18
  8
0
  2
$Model_Space
 70
0
 10
0.0
 20
0.0
 30
0.0
  3
$Model_Space
  1

1001
EZDXF
1000
CREATED_BY_EZDXF
1000
1.4.4 @ 2026-08-06T02:26:58.087009+00:00
1000
WRITTEN_BY_EZDXF
1000
1.4.4 @ 2026-08-06T02:26:58.089009+00:00
  0
ENDBLK
  5
19
  8
0
  0
BLOCK
  5
1C
  8
0
  2
$Paper_Space
 70
0
 10
0.0
 20
0.0
 30
0.0
  3
$Paper_Space
  1

  0
ENDBLK
  5
1D
  8
0
  0
ENDSEC
  0
SECTION
  2
ENTITIES
  0
POLYLINE
  5
2F
  8
1
 66
1
 10
0.0
 20
0.0
 30
0.0
 70
1
  0
VERTEX
  5
31
  8
1
 10
-2724.414673
 20
-196.668682
 30
0.0
 70
0
  0
VERTEX
  5
32
  8
1
 10
-2724.296875
 20
-196.667709
 30
0.0
 70
0
  0
VERTEX
  5
33
  8
1
 10
-2736.238976
 20
-196.766053
 30
0.0
 70
0
  0
VERTEX
  5
34
  8
1
 10
-2751.474556
 20
-196.713801
 30
0.0
 70
0
  0
VERTEX
  5
35
  8
1
 10
-2766.881529
 20
-196.466695
 30
0.0
 70
0
  0
VERTEX
  5
36
  8
1
 10
-2782.036913
 20
-196.099833
 30
0.0
 70
0
  0
VERTEX
  5
37
  8
1
 10
-2797.437643
 20
-195.61385
 30
0.0
 70
0
  0
VERTEX
  5
38
  8
1
 10
-2812.69062
 20
-195.009188
 30
0.0
 70
0
  0
VERTEX
  5
39
  8
1
 10
-2828.081543
 20
-194.271713
 30
0.0
 70
0
  0
VERTEX
  5
3A
  8
1
 10
-2843.370853
 20
-193.412815
 30
0.0
 70
0
  0
VERTEX
  5
3B
  8
1
 10
-2858.747507
 20
-192.420598
 30
0.0
 70
0
  0
VERTEX
  5
3C
  8
1
 10
-2873.939496
 20
-191.31131
 30
0.0
 70
0
  0
VERTEX
  5
3D
  8
1
 10
-2889.296792
 20
-190.054983
 30
0.0
 70
0
  0
VERTEX
  5
3E
  8
1
 10
-2904.475177
 20
-188.674479
 30
0.0
 70
0
  0
VERTEX
  5
3F
  8
1
 10
-2919.806531
 20
-187.133894
 30
0.0
 70
0
  0
VERTEX
  5
40
  8
1
 10
-2934.8686
 20
-185.470872
 30
0.0
 70
0
  0
VERTEX
  5
41
  8
1
 10
-2950.165848
 20
-183.621933
 30
0.0
 70
0
  0
VERTEX
  5
42
  8
1
 10
-2965.225786
 20
-181.635133
 30
0.0
 70
0
  0
VERTEX
  5
43
  8
1
 10
-2980.477811
 20
-179.443633
 30
0.0
 70
0
  0
VERTEX
  5
44
  8
1
 10
-2995.394433
 20
-177.114242
 30
0.0
 70
0
  0
VERTEX
  5
45
  8
1
 10
-3010.586511
 20
-174.539677
 30
0.0
 70
0
  0
VERTEX
  5
46
  8
1
 10
-3025.45717
 20
-171.810067
 30
0.0
 70
0
  0
VERTEX
  5
47
  8
1
 10
-3040.572606
 20
-168.817392
 30
0.0
 70
0
  0
VERTEX
  5
48
  8
1
 10
-3055.498069
 20
-165.642241
 30
0.0
 70
0
  0
VERTEX
  5
49
  8
1
 10
-3070.521705
 20
-162.218357
 30
0.0
 70
0
  0
VERTEX
  5
4A
  8
1
 10
-3085.409941
 20
-158.593054
 30
0.0
 70
0
  0
VERTEX
  5
4B
  8
1
 10
-3100.325986
 20
-154.727416
 30
0.0
 70
0
  0
VERTEX
  5
4C
  8
1
 10
-3114.840906
 20
-150.743645
 30
0.0
 70
0
  0
VERTEX
  5
4D
  8
1
 10
-3129.645114
 20
-146.469791
 30
0.0
 70
0
  0
VERTEX
  5
4E
  8
1
 10
-3144.204952
 20
-142.078842
 30
0.0
 70
0
  0
VERTEX
  5
4F
  8
1
 10
-3158.642457
 20
-137.566331
 30
0.0
 70
0
  0
VERTEX
  5
50
  8
1
 10
-3173.308148
 20
-132.838822
 30
0.0
 70
0
  0
VERTEX
  5
51
  8
1
 10
-3187.680318
 20
-128.046248
 30
0.0
 70
0
  0
VERTEX
  5
52
  8
1
 10
-3202.243216
 20
-123.011879
 30
0.0
 70
0
  0
VERTEX
  5
53
  8
1
 10
-3216.444087
 20
-117.957795
 30
0.0
 70
0
  0
VERTEX
  5
54
  8
1
 10
-3230.927748
 20
-112.699944
 30
0.0
 70
0
  0
VERTEX
  5
55
  8
1
 10
-3233.621521
 20
-111.714048
 30
0.0
 70
0
  0
VERTEX
  5
56
  8
1
 10
-3234.385071
 20
-111.436014
 30
0.0
 70
0
  0
VERTEX
  5
57
  8
1
 10
-3245.079957
 20
-107.520456
 30
0.0
 70
0
  0
VERTEX
  5
58
  8
1
 10
-3259.552346
 20
-102.231973
 30
0.0
 70
0
  0
VERTEX
  5
59
  8
1
 10
-3273.653811
 20
-97.086636
 30
0.0
 70
0
  0
VERTEX
  5
5A
  8
1
 10
-3287.997438
 20
-91.850731
 30
0.0
 70
0
  0
VERTEX
  5
5B
  8
1
 10
-3302.876587
 20
-86.416092
 30
0.0
 70
0
  0
VERTEX
  5
5C
  8
1
 10
-3298.557186
 20
-78.030133
 30
0.0
 70
0
  0
VERTEX
  5
5D
  8
1
 10
-3291.685998
 20
-64.689925
 30
0.0
 70
0
  0
VERTEX
  5
5E
  8
1
 10
-3284.683336
 20
-51.094369
 30
0.0
 70
0
  0
VERTEX
  5
5F
  8
1
 10
-3277.764586
 20
-37.661613
 30
0.0
 70
0
  0
VERTEX
  5
60
  8
1
 10
-3276.376343
 20
-34.966199
 30
0.0
 70
0
  0
VERTEX
  5
61
  8
1
 10
-3270.507813
 20
-23.572481
 30
0.0
 70
0
  0
VERTEX
  5
62
  8
1
 10
-3255.801389
 20
-28.90103
 30
0.0
 70
0
  0
VERTEX
  5
63
  8
1
 10
-3241.644159
 20
-34.027667
 30
0.0
 70
0
  0
VERTEX
  5
64
  8
1
 10
-3227.115531
 20
-39.287374
 30
0.0
 70
0
  0
VERTEX
  5
65
  8
1
 10
-3212.831126
 20
-44.469893
 30
0.0
 70
0
  0
VERTEX
  5
66
  8
1
 10
-3198.309118
 20
-49.747973
 30
0.0
 70
0
  0
VERTEX
  5
67
  8
1
 10
-3184.073177
 20
-54.860469
 30
0.0
 70
0
  0
VERTEX
  5
68
  8
1
 10
-3169.486792
 20
-59.958291
 30
0.0
 70
0
  0
VERTEX
  5
69
  8
1
 10
-3155.259855
 20
-64.766775
 30
0.0
 70
0
  0
VERTEX
  5
6A
  8
1
 10
-3140.568015
 20
-69.552105
 30
0.0
 70
0
  0
VERTEX
  5
6B
  8
1
 10
-3125.982848
 20
-74.129562
 30
0.0
 70
0
  0
VERTEX
  5
6C
  8
1
 10
-3111.192088
 20
-78.600382
 30
0.0
 70
0
  0
VERTEX
  5
6D
  8
1
 10
-3096.674834
 20
-82.796928
 30
0.0
 70
0
  0
VERTEX
  5
6E
  8
1
 10
-3081.772015
 20
-86.879233
 30
0.0
 70
0
  0
VERTEX
  5
6F
  8
1
 10
-3067.12651
 20
-90.653327
 30
0.0
 70
0
  0
VERTEX
  5
70
  8
1
 10
-3052.104253
 20
-94.271408
 30
0.0
 70
0
  0
VERTEX
  5
71
  8
1
 10
-3037.297615
 20
-97.593557
 30
0.0
 70
0
  0
VERTEX
  5
72
  8
1
 10
-3022.17131
 20
-100.748306
 30
0.0
 70
0
  0
VERTEX
  5
73
  8
1
 10
-3007.139255
 20
-103.657055
 30
0.0
 70
0
  0
VERTEX
  5
74
  8
1
 10
-2991.929936
 20
-106.382889
 30
0.0
 70
0
  0
VERTEX
  5
75
  8
1
 10
-2977.13405
 20
-108.83246
 30
0.0
 70
0
  0
VERTEX
  5
76
  8
1
 10
-2961.348745
 20
-111.232972
 30
0.0
 70
0
  0
VERTEX
  5
77
  8
1
 10
-2946.548966
 20
-113.290529
 30
0.0
 70
0
  0
VERTEX
  5
78
  8
1
 10
-2930.708369
 20
-115.292948
 30
0.0
 70
0
  0
VERTEX
  5
79
  8
1
 10
-2915.380473
 20
-117.041495
 30
0.0
 70
0
  0
VERTEX
  5
7A
  8
1
 10
-2900.009253
 20
-118.615153
 30
0.0
 70
0
  0
VERTEX
  5
7B
  8
1
 10
-2884.906304
 20
-119.989855
 30
0.0
 70
0
  0
VERTEX
  5
7C
  8
1
 10
-2869.503832
 20
-121.221097
 30
0.0
 70
0
  0
VERTEX
  5
7D
  8
1
 10
-2854.260454
 20
-122.277836
 30
0.0
 70
0
  0
VERTEX
  5
7E
  8
1
 10
-2838.835928
 20
-123.193037
 30
0.0
 70
0
  0
VERTEX
  5
7F
  8
1
 10
-2823.493893
 20
-123.962372
 30
0.0
 70
0
  0
VERTEX
  5
80
  8
1
 10
-2808.056094
 20
-124.609643
 30
0.0
 70
0
  0
VERTEX
  5
81
  8
1
 10
-2792.791235
 20
-125.144555
 30
0.0
 70
0
  0
VERTEX
  5
82
  8
1
 10
-2777.346095
 20
-125.592624
 30
0.0
 70
0
  0
VERTEX
  5
83
  8
1
 10
-2762.128761
 20
-125.92645
 30
0.0
 70
0
  0
VERTEX
  5
84
  8
1
 10
-2747.103553
 20
-126.143011
 30
0.0
 70
0
  0
VERTEX
  5
85
  8
1
 10
-2732.102969
 20
-126.274224
 30
0.0
 70
0
  0
VERTEX
  5
86
  8
1
 10
-2724.955139
 20
-126.30784
 30
0.0
 70
0
  0
VERTEX
  5
87
  8
1
 10
-2710.155402
 20
-126.477024
 30
0.0
 70
0
  0
VERTEX
  5
88
  8
1
 10
-2697.66598
 20
-126.395508
 30
0.0
 70
0
  0
VERTEX
  5
89
  8
1
 10
-2682.595152
 20
-125.996762
 30
0.0
 70
0
  0
VERTEX
  5
8A
  8
1
 10
-2667.526381
 20
-125.432697
 30
0.0
 70
0
  0
VERTEX
  5
8B
  8
1
 10
-2652.39581
 20
-124.883442
 30
0.0
 70
0
  0
VERTEX
  5
8C
  8
1
 10
-2637.327067
 20
-124.38516
 30
0.0
 70
0
  0
VERTEX
  5
8D
  8
1
 10
-2621.836008
 20
-123.793556
 30
0.0
 70
0
  0
VERTEX
  5
8E
  8
1
 10
-2606.776398
 20
-123.060444
 30
0.0
 70
0
  0
VERTEX
  5
8F
  8
1
 10
-2591.795014
 20
-122.150875
 30
0.0
 70
0
  0
VERTEX
  5
90
  8
1
 10
-2576.757377
 20
-121.057689
 30
0.0
 70
0
  0
VERTEX
  5
91
  8
1
 10
-2561.646553
 20
-119.800374
 30
0.0
 70
0
  0
VERTEX
  5
92
  8
1
 10
-2546.634318
 20
-118.400761
 30
0.0
 70
0
  0
VERTEX
  5
93
  8
1
 10
-2531.691555
 20
-116.8499
 30
0.0
 70
0
  0
VERTEX
  5
94
  8
1
 10
-2516.713013
 20
-115.126729
 30
0.0
 70
0
  0
VERTEX
  5
95
  8
1
 10
-2501.471315
 20
-113.187878
 30
0.0
 70
0
  0
VERTEX
  5
96
  8
1
 10
-2486.539145
 20
-111.09979
 30
0.0
 70
0
  0
VERTEX
  5
97
  8
1
 10
-2471.322036
 20
-108.77673
 30
0.0
 70
0
  0
VERTEX
  5
98
  8
1
 10
-2456.447785
 20
-106.309899
 30
0.0
 70
0
  0
VERTEX
  5
99
  8
1
 10
-2441.463609
 20
-103.620231
 30
0.0
 70
0
  0
VERTEX
  5
9A
  8
1
 10
-2426.661197
 20
-100.753287
 30
0.0
 70
0
  0
VERTEX
  5
9B
  8
1
 10
-2411.618285
 20
-97.617528
 30
0.0
 70
0
  0
VERTEX
  5
9C
  8
1
 10
-2396.905488
 20
-94.321369
 30
0.0
 70
0
  0
VERTEX
  5
9D
  8
1
 10
-2381.875628
 20
-90.703739
 30
0.0
 70
0
  0
VERTEX
  5
9E
  8
1
 10
-2367.274397
 20
-86.943804
 30
0.0
 70
0
  0
VERTEX
  5
9F
  8
1
 10
-2352.275972
 20
-82.838586
 30
0.0
 70
0
  0
VERTEX
  5
A0
  8
1
 10
-2337.790347
 20
-78.655662
 30
0.0
 70
0
  0
VERTEX
  5
A1
  8
1
 10
-2322.918513
 20
-74.160241
 30
0.0
 70
0
  0
VERTEX
  5
A2
  8
1
 10
-2308.534807
 20
-69.639716
 30
0.0
 70
0
  0
VERTEX
  5
A3
  8
1
 10
-2293.890183
 20
-64.881277
 30
0.0
 70
0
  0
VERTEX
  5
A4
  8
1
 10
-2279.600689
 20
-60.071454
 30
0.0
 70
0
  0
VERTEX
  5
A5
  8
1
 10
-2265.011999
 20
-54.961874
 30
0.0
 70
0
  0
VERTEX
  5
A6
  8
1
 10
-2250.825683
 20
-49.855534
 30
0.0
 70
0
  0
VERTEX
  5
A7
  8
1
 10
-2236.299328
 20
-44.588406
 30
0.0
 70
0
  0
VERTEX
  5
A8
  8
1
 10
-2222.044745
 20
-39.421158
 30
0.0
 70
0
  0
VERTEX
  5
A9
  8
1
 10
-2207.48364
 20
-34.144443
 30
0.0
 70
0
  0
VERTEX
  5
AA
  8
1
 10
-2192.910015
 20
-28.864664
 30
0.0
 70
0
  0
VERTEX
  5
AB
  8
1
 10
-2178.295288
 20
-23.571544
 30
0.0
 70
0
  0
VERTEX
  5
AC
  8
1
 10
-2172.430267
 20
-34.958429
 30
0.0
 70
0
  0
VERTEX
  5
AD
  8
1
 10
-2171.058128
 20
-37.622527
 30
0.0
 70
0
  0
VERTEX
  5
AE
  8
1
 10
-2164.093526
 20
-51.144291
 30
0.0
 70
0
  0
VERTEX
  5
AF
  8
1
 10
-2157.095611
 20
-64.7307
 30
0.0
 70
0
  0
VERTEX
  5
B0
  8
1
 10
-2150.250732
 20
-78.02002
 30
0.0
 70
0
  0
VERTEX
  5
B1
  8
1
 10
-2145.9552
 20
-86.359806
 30
0.0
 70
0
  0
VERTEX
  5
B2
  8
1
 10
-2160.803368
 20
-91.797786
 30
0.0
 70
0
  0
VERTEX
  5
B3
  8
1
 10
-2175.151978
 20
-97.049375
 30
0.0
 70
0
  0
VERTEX
  5
B4
  8
1
 10
-2189.244196
 20
-102.204744
 30
0.0
 70
0
  0
VERTEX
  5
B5
  8
1
 10
-2203.334082
 20
-107.366435
 30
0.0
 70
0
  0
VERTEX
  5
B6
  8
1
 10
-2216.67511
 20
-112.261505
 30
0.0
 70
0
  0
VERTEX
  5
B7
  8
1
 10
-2217.731708
 20
-112.648456
 30
0.0
 70
0
  0
VERTEX
  5
B8
  8
1
 10
-2231.832391
 20
-117.780665
 30
0.0
 70
0
  0
VERTEX
  5
B9
  8
1
 10
-2246.299956
 20
-122.944513
 30
0.0
 70
0
  0
VERTEX
  5
BA
  8
1
 10
-2260.477862
 20
-127.859384
 30
0.0
 70
0
  0
VERTEX
  5
BB
  8
1
 10
-2275.161372
 20
-132.765771
 30
0.0
 70
0
  0
VERTEX
  5
BC
  8
1
 10
-2289.441747
 20
-137.375449
 30
0.0
 70
0
  0
VERTEX
  5
BD
  8
1
 10
-2304.122845
 20
-141.968872
 30
0.0
 70
0
  0
VERTEX
  5
BE
  8
1
 10
-2318.489301
 20
-146.302153
 30
0.0
 70
0
  0
VERTEX
  5
BF
  8
1
 10
-2333.298136
 20
-150.573948
 30
0.0
 70
0
  0
VERTEX
  5
C0
  8
1
 10
-2347.770454
 20
-154.540066
 30
0.0
 70
0
  0
VERTEX
  5
C1
  8
1
 10
-2362.386323
 20
-158.323779
 30
0.0
 70
0
  0
VERTEX
  5
C2
  8
1
 10
-2376.966195
 20
-161.874442
 30
0.0
 70
0
  0
VERTEX
  5
C3
  8
1
 10
-2391.935027
 20
-165.290419
 30
0.0
 70
0
  0
VERTEX
  5
C4
  8
1
 10
-2406.60974
 20
-168.426118
 30
0.0
 70
0
  0
VERTEX
  5
C5
  8
1
 10
-2421.571447
 20
-171.420699
 30
0.0
 70
0
  0
VERTEX
  5
C6
  8
1
 10
-2436.320854
 20
-174.183267
 30
0.0
 70
0
  0
VERTEX
  5
C7
  8
1
 10
-2451.332453
 20
-176.81054
 30
0.0
 70
0
  0
VERTEX
  5
C8
  8
1
 10
-2466.1426
 20
-179.226147
 30
0.0
 70
0
  0
VERTEX
  5
C9
  8
1
 10
-2481.095945
 20
-181.492017
 30
0.0
 70
0
  0
VERTEX
  5
CA
  8
1
 10
-2495.956482
 20
-183.575171
 30
0.0
 70
0
  0
VERTEX
  5
CB
  8
1
 10
-2511.099926
 20
-185.52833
 30
0.0
 70
0
  0
VERTEX
  5
CC
  8
1
 10
-2526.002376
 20
-187.286498
 30
0.0
 70
0
  0
VERTEX
  5
CD
  8
1
 10
-2541.131815
 20
-188.908417
 30
0.0
 70
0
  0
VERTEX
  5
CE
  8
1
 10
-2556.068076
 20
-190.351656
 30
0.0
 70
0
  0
VERTEX
  5
CF
  8
1
 10
-2571.223688
 20
-191.658783
 30
0.0
 70
0
  0
VERTEX
  5
D0
  8
1
 10
-2586.186319
 20
-192.796689
 30
0.0
 70
0
  0
VERTEX
  5
D1
  8
1
 10
-2601.359446
 20
-193.798564
 30
0.0
 70
0
  0
VERTEX
  5
D2
  8
1
 10
-2616.341554
 20
-194.640368
 30
0.0
 70
0
  0
VERTEX
  5
D3
  8
1
 10
-2631.522244
 20
-195.346712
 30
0.0
 70
0
  0
VERTEX
  5
D4
  8
1
 10
-2646.517749
 20
-195.90251
 30
0.0
 70
0
  0
VERTEX
  5
D5
  8
1
 10
-2661.695249
 20
-196.324288
 30
0.0
 70
0
  0
VERTEX
  5
D6
  8
1
 10
-2676.698519
 20
-196.60132
 30
0.0
 70
0
  0
VERTEX
  5
D7
  8
1
 10
-2691.80112
 20
-196.738442
 30
0.0
 70
0
  0
VERTEX
  5
D8
  8
1
 10
-2707.005657
 20
-196.758968
 30
0.0
 70
0
  0
VERTEX
  5
D9
  8
1
 10
-2721.928913
 20
-196.689058
 30
0.0
 70
0
  0
VERTEX
  5
DA
  8
1
 10
-2724.511414
 20
-196.666737
 30
0.0
 70
0
  0
SEQEND
  5
30
  8
1
  0
LINE
  5
DB
  8
7
 10
-2722.257385
 20
-132.500181
 30
0.0
 11
-2722.257385
 21
-194.629478
 31
0.0
  0
ENDSEC
  0
EOF
