  0
SECTION
  2
HEADER
  9
$ACADVER
  1
AC1009
  9
$DWGCODEPAGE
  3
ANSI_1252
  9
$INSBASE
 10
0.0
 20
0.0
 30
0.0
  9
$EXTMIN
 10
1e+20
 20
1e+20
 30
1e+20
  9
$EXTMAX
 10
-1e+20
 20
-1e+20
 30
-1e+20
  9
$LIMMIN
 10
0.0
 20
0.0
  9
$LIMMAX
 10
420.0
 20
297.0
  9
$ORTHOMODE
 70
0
  9
$REGENMODE
 70
1
  9
$FILLMODE
 70
1
  9
$DRAGMODE
 70
2
  9
$QTEXTMODE
 70
0
  9
$MIRRTEXT
 70
1
  9
$OSMODE
 70
20583
  9
$LTSCALE
 40
1.0
  9
$ATTMODE
 70
1
  9
$TEXTSIZE
 40
2.5
  9
$TRACEWID
 40
1.0
  9
$TEXTSTYLE
  7
Standard
  9
$CLAYER
  8
0
  9
$CELTYPE
  6
ByLayer
  9
$CECOLOR
 62
256
  9
$DIMSCALE
 40
1.0
  9
$DIMASZ
 40
2.5
  9
$DIMEXO
 40
0.625
  9
$DIMDLI
 40
3.75
  9
$DIMRND
 40
0.0
  9
$DIMDLE
 40
0.0
  9
$DIMEXE
 40
1.25
  9
$DIMTP
 40
0.0
  9
$DIMTM
 40
0.0
  9
$DIMTXT
 40
2.5
  9
$DIMCEN
 40
2.5
  9
$DIMTSZ
 40
0.0
  9
$DIMTOL
 70
0
  9
$DIMLIM
 70
0
  9
$DIMTIH
 70
0
  9
$DIMTOH
 70
0
  9
$DIMSE1
 70
0
  9
$DIMSE2
 70
0
  9
$DIMTAD
 70
1
  9
$DIMZIN
 70
8
  9
$DIMBLK
  1

  9
$DIMASO
 70
1
  9
$DIMSHO
 70
1
  9
$DIMPOST
  1

  9
$DIMAPOST
  1

  9
$DIMALT
 70
0
  9
$DIMALTD
 70
3
  9
$DIMALTF
 40
0.03937007874
  9
$DIMLFAC
 40
1.0
  9
$DIMTOFL
 70
1
  9
$DIMTVP
 40
0.0
  9
$DIMTIX
 70
0
  9
$DIMSOXD
 70
0
  9
$DIMSAH
 70
0
  9
$DIMBLK1
  1

  9
$DIMBLK2
  1

  9
$DIMSTYLE
  2
ISO-25
  9
$DIMCLRD
 70
0
  9
$DIMCLRE
 70
0
  9
$DIMCLRT
 70
0
  9
$DIMTFAC
 40
1.0
  9
$DIMGAP
 40
0.625
  9
$COORDS
 70
1
  9
$ATTDIA
 70
0
  9
$ATTREQ
 70
1
  9
$HANDLING
 70
1
  9
$LUNITS
 70
2
  9
$LUPREC
 70
4
  9
$SKETCHINC
 40
1.0
  9
$FILLETRAD
 40
10.0
  9
$AUNITS
 70
0
  9
$AUPREC
 70
2
  9
$MENU
  1
.
  9
$ELEVATION
 40
0.0
  9
$PELEVATION
 40
0.0
  9
$THICKNESS
 40
0.0
  9
$LIMCHECK
 70
0
  9
$CHAMFERA
 40
0.0
  9
$CHAMFERB
 40
0.0
  9
$SKPOLY
 70
0
  9
$TDCREATE
 40
2461264.9423032408
  9
$TDUPDATE
 40
2461264.9423032408
  9
$TDINDWG
 40
0.0
  9
$TDUSRTIMER
 40
0.0
  9
$USRTIMER
 70
1
  9
$ANGBASE
 50
0.0
  9
$ANGDIR
 70
0
  9
$PDMODE
 70
0
  9
$PDSIZE
 40
0.0
  9
$PLINEWID
 40
0.0
  9
$SPLFRAME
 70
0
  9
$SPLINETYPE
 70
6
  9
$SPLINESEGS
 70
8
  9
$HANDSEED
  5
19C
  9
$SURFTAB1
 70
6
  9
$SURFTAB2
 70
6
  9
$SURFTYPE
 70
6
  9
$SURFU
 70
6
  9
$SURFV
 70
6
  9
$UCSNAME
  2

  9
$UCSORG
 10
0.0
 20
0.0
 30
0.0
  9
$UCSXDIR
 10
1.0
 20
0.0
 30
0.0
  9
$UCSYDIR
 10
0.0
 20
1.0
 30
0.0
  9
$PUCSNAME
  2

  9
$PUCSORG
 10
0.0
 20
0.0
 30
0.0
  9
$PUCSXDIR
 10
1.0
 20
0.0
 30
0.0
  9
$PUCSYDIR
 10
0.0
 20
1.0
 30
0.0
  9
$USERI1
 70
0
  9
$USERI2
 70
0
  9
$USERI3
 70
0
  9
$USERI4
 70
0
  9
$USERI5
 70
0
  9
$USERR1
 40
0.0
  9
$USERR2
 40
0.0
  9
$USERR3
 40
0.0
  9
$USERR4
 40
0.0
  9
$USERR5
 40
0.0
  9
$WORLDVIEW
 70
1
  9
$SHADEDGE
 70
3
  9
$SHADEDIF
 70
70
  9
$TILEMODE
 70
1
  9
$MAXACTVP
 70
64
  9
$PLIMCHECK
 70
0
  9
$PEXTMIN
 10
1e+20
 20
1e+20
 30
1e+20
  9
$PEXTMAX
 10
-1e+20
 20
-1e+20
 30
-1e+20
  9
$PLIMMIN
 10
0.0
 20
0.0
  9
$PLIMMAX
 10
420.0
 20
297.0
  9
$UNITMODE
 70
0
  9
$VISRETAIN
 70
1
  9
$PLINEGEN
 70
0
  9
$PSLTSCALE
 70
1
  0
ENDSEC
  0
SECTION
  2
TABLES
  0
TABLE
  2
VPORT
 70
1
  0
VPORT
  5
23
  2
*Active
 70
0
 10
0.0
 20
0.0
 11
1.0
 21
1.0
 12
0.0
 22
0.0
 13
0.0
 23
0.0
 14
0.5
 24
0.5
 15
0.5
 25
0.5
 16
0.0
 26
0.0
 36
1.0
 17
0.0
 27
0.0
 37
0.0
 40
1000.0
 41
1.34
 42
50.0
 43
0.0
 44
0.0
 50
0.0
 51
0.0
 71
0
 72
1000
 73
1
 74
3
 75
0
 76
0
 77
0
 78
0
  0
ENDTAB
  0
TABLE
  2
LTYPE
 70
3
  0
LTYPE
  5
24
  2
ByBlock
 70
0
  3

 72
65
 73
0
 40
0.0
  0
LTYPE
  5
25
  2
ByLayer
 70
0
  3

 72
65
 73
0
 40
0.0
  0
LTYPE
  5
26
  2
Continuous
 70
0
  3

 72
65
 73
0
 40
0.0
  0
ENDTAB
  0
TABLE
  2
LAYER
 70
7
  0
LAYER
  5
27
  2
0
 70
0
 62
7
  6
Continuous
  0
LAYER
  5
28
  2
Defpoints
 70
0
 62
7
  6
Continuous
  0
LAYER
  5
2D
  2
1
 70
0
 62
1
  6
Continuous
  0
LAYER
  5
2E
  2
7
 70
0
 62
7
  6
Continuous
  0
LAYER
  5
2F
  2
14
 70
0
 62
3
  6
Continuous
  0
LAYER
  5
30
  2
8
 70
0
 62
6
  6
Continuous
  0
LAYER
  5
31
  2
4
 70
0
 62
2
  6
Continuous
  0
ENDTAB
  0
TABLE
  2
STYLE
 70
1
  0
STYLE
  5
29
  2
Standard
 70
0
 40
0.0
 41
1.0
 50
0.0
 71
0
 42
2.5
  3
txt
  4

  0
ENDTAB
  0
TABLE
  2
VIEW
 70
0
  0
ENDTAB
  0
TABLE
  2
UCS
 70
0
  0
ENDTAB
  0
TABLE
  2
APPID
 70
3
  0
APPID
  5
2A
  2
ACAD
 70
0
  0
APPID
  5
19A
  2
HATCHBACKGROUNDCOLOR
 70
0
  0
APPID
  5
19B
  2
EZDXF
 70
0
  0
ENDTAB
  0
TABLE
  2
DIMSTYLE
 70
1
  0
DIMSTYLE
105
2B
  2
Standard
 70
0
  3

  4

  5

  6

  7

 40
1.0
 41
2.5
 42
0.625
 43
3.75
 44
1.25
 45
0.0
 46
0.0
 47
0.0
 48
0.0
140
2.5
141
2.5
142
0.0
143
0.03937007874
144
1.0
145
0.0
146
1.0
147
0.625
 71
0
 72
0
 73
0
 74
0
 75
0
 76
0
 77
1
 78
8
170
0
171
3
172
1
173
0
174
0
175
0
176
0
177
0
178
0
  0
ENDTAB
  0
ENDSEC
  0
SECTION
  2
BLOCKS
  0
BLOCK
  5
18
  8
0
  2
$Model_Space
 70
0
 10
0.0
 20
0.0
 30
0.0
  3
$Model_Space
  1

1001
EZDXF
1000
CREATED_BY_EZDXF
1000
1.4.4 @ 2026-08-11T14:36:55.882216+00:00
1000
WRITTEN_BY_EZDXF
1000
1.4.4 @ 2026-08-11T14:36:55.886216+00:00
  0
ENDBLK
  5
19
  8
0
  0
BLOCK
  5
1C
  8
0
  2
$Paper_Space
 70
0
 10
0.0
 20
0.0
 30
0.0
  3
$Paper_Space
  1

  0
ENDBLK
  5
1D
  8
0
  0
ENDSEC
  0
SECTION
  2
ENTITIES
  0
POLYLINE
  5
32
  8
1
 66
1
 10
0.0
 20
0.0
 30
0.0
 70
1
  0
VERTEX
  5
34
  8
1
 10
-2724.398804
 20
-202.383537
 30
0.0
 70
0
  0
VERTEX
  5
35
  8
1
 10
-2724.256287
 20
-202.381897
 30
0.0
 70
0
  0
VERTEX
  5
36
  8
1
 10
-2733.86021
 20
-202.491844
 30
0.0
 70
0
  0
VERTEX
  5
37
  8
1
 10
-2748.99065
 20
-202.56644
 30
0.0
 70
0
  0
VERTEX
  5
38
  8
1
 10
-2764.21297
 20
-202.484393
 30
0.0
 70
0
  0
VERTEX
  5
39
  8
1
 10
-2779.577187
 20
-202.259436
 30
0.0
 70
0
  0
VERTEX
  5
3A
  8
1
 10
-2794.795726
 20
-201.915039
 30
0.0
 70
0
  0
VERTEX
  5
3B
  8
1
 10
-2809.993585
 20
-201.458209
 30
0.0
 70
0
  0
VERTEX
  5
3C
  8
1
 10
-2825.205574
 20
-200.890954
 30
0.0
 70
0
  0
VERTEX
  5
3D
  8
1
 10
-2840.397412
 20
-200.211079
 30
0.0
 70
0
  0
VERTEX
  5
3E
  8
1
 10
-2855.599031
 20
-199.414387
 30
0.0
 70
0
  0
VERTEX
  5
3F
  8
1
 10
-2870.635883
 20
-198.51118
 30
0.0
 70
0
  0
VERTEX
  5
40
  8
1
 10
-2885.823595
 20
-197.480998
 30
0.0
 70
0
  0
VERTEX
  5
41
  8
1
 10
-2901.22468
 20
-196.311013
 30
0.0
 70
0
  0
VERTEX
  5
42
  8
1
 10
-2916.393342
 20
-195.03063
 30
0.0
 70
0
  0
VERTEX
  5
43
  8
1
 10
-2931.547859
 20
-193.619638
 30
0.0
 70
0
  0
VERTEX
  5
44
  8
1
 10
-2946.691595
 20
-192.072613
 30
0.0
 70
0
  0
VERTEX
  5
45
  8
1
 10
-2961.768906
 20
-190.389818
 30
0.0
 70
0
  0
VERTEX
  5
46
  8
1
 10
-2976.880305
 20
-188.553229
 30
0.0
 70
0
  0
VERTEX
  5
47
  8
1
 10
-2991.936717
 20
-186.565338
 30
0.0
 70
0
  0
VERTEX
  5
48
  8
1
 10
-3007.005718
 20
-184.408381
 30
0.0
 70
0
  0
VERTEX
  5
49
  8
1
 10
-3022.181004
 20
-182.055799
 30
0.0
 70
0
  0
VERTEX
  5
4A
  8
1
 10
-3037.19434
 20
-179.539717
 30
0.0
 70
0
  0
VERTEX
  5
4B
  8
1
 10
-3052.320935
 20
-176.806942
 30
0.0
 70
0
  0
VERTEX
  5
4C
  8
1
 10
-3067.264713
 20
-173.90598
 30
0.0
 70
0
  0
VERTEX
  5
4D
  8
1
 10
-3082.05946
 20
-170.833949
 30
0.0
 70
0
  0
VERTEX
  5
4E
  8
1
 10
-3096.922417
 20
-167.543351
 30
0.0
 70
0
  0
VERTEX
  5
4F
  8
1
 10
-3111.573373
 20
-164.091104
 30
0.0
 70
0
  0
VERTEX
  5
50
  8
1
 10
-3126.340973
 20
-160.396728
 30
0.0
 70
0
  0
VERTEX
  5
51
  8
1
 10
-3141.071465
 20
-156.504315
 30
0.0
 70
0
  0
VERTEX
  5
52
  8
1
 10
-3155.739708
 20
-152.433199
 30
0.0
 70
0
  0
VERTEX
  5
53
  8
1
 10
-3170.573078
 20
-148.131684
 30
0.0
 70
0
  0
VERTEX
  5
54
  8
1
 10
-3185.14828
 20
-143.739933
 30
0.0
 70
0
  0
VERTEX
  5
55
  8
1
 10
-3199.938478
 20
-139.138608
 30
0.0
 70
0
  0
VERTEX
  5
56
  8
1
 10
-3214.437069
 20
-134.499547
 30
0.0
 70
0
  0
VERTEX
  5
57
  8
1
 10
-3228.771099
 20
-129.764838
 30
0.0
 70
0
  0
VERTEX
  5
58
  8
1
 10
-3243.175003
 20
-124.840386
 30
0.0
 70
0
  0
VERTEX
  5
59
  8
1
 10
-3257.770772
 20
-119.713825
 30
0.0
 70
0
  0
VERTEX
  5
5A
  8
1
 10
-3272.105711
 20
-114.592047
 30
0.0
 70
0
  0
VERTEX
  5
5B
  8
1
 10
-3274.727478
 20
-113.648729
 30
0.0
 70
0
  0
VERTEX
  5
5C
  8
1
 10
-3275.426941
 20
-113.398438
 30
0.0
 70
0
  0
VERTEX
  5
5D
  8
1
 10
-3286.483667
 20
-109.419002
 30
0.0
 70
0
  0
VERTEX
  5
5E
  8
1
 10
-3300.80885
 20
-104.270048
 30
0.0
 70
0
  0
VERTEX
  5
5F
  8
1
 10
-3315.233684
 20
-99.090447
 30
0.0
 70
0
  0
VERTEX
  5
60
  8
1
 10
-3329.441659
 20
-93.985895
 30
0.0
 70
0
  0
VERTEX
  5
61
  8
1
 10
-3344.159851
 20
-88.694639
 30
0.0
 70
0
  0
VERTEX
  5
62
  8
1
 10
-3339.862317
 20
-80.350993
 30
0.0
 70
0
  0
VERTEX
  5
63
  8
1
 10
-3333.017704
 20
-67.062291
 30
0.0
 70
0
  0
VERTEX
  5
64
  8
1
 10
-3326.01287
 20
-53.462626
 30
0.0
 70
0
  0
VERTEX
  5
65
  8
1
 10
-3318.903647
 20
-39.66021
 30
0.0
 70
0
  0
VERTEX
  5
66
  8
1
 10
-3317.652588
 20
-37.231374
 30
0.0
 70
0
  0
VERTEX
  5
67
  8
1
 10
-3311.782227
 20
-25.833986
 30
0.0
 70
0
  0
VERTEX
  5
68
  8
1
 10
-3297.174646
 20
-31.042106
 30
0.0
 70
0
  0
VERTEX
  5
69
  8
1
 10
-3282.671814
 20
-36.210197
 30
0.0
 70
0
  0
VERTEX
  5
6A
  8
1
 10
-3268.39067
 20
-41.297874
 30
0.0
 70
0
  0
VERTEX
  5
6B
  8
1
 10
-3254.112397
 20
-46.393716
 30
0.0
 70
0
  0
VERTEX
  5
6C
  8
1
 10
-3239.622021
 20
-51.573289
 30
0.0
 70
0
  0
VERTEX
  5
6D
  8
1
 10
-3225.329334
 20
-56.628827
 30
0.0
 70
0
  0
VERTEX
  5
6E
  8
1
 10
-3210.844171
 20
-61.630004
 30
0.0
 70
0
  0
VERTEX
  5
6F
  8
1
 10
-3196.467418
 20
-66.441571
 30
0.0
 70
0
  0
VERTEX
  5
70
  8
1
 10
-3181.891805
 20
-71.150559
 30
0.0
 70
0
  0
VERTEX
  5
71
  8
1
 10
-3167.420309
 20
-75.669495
 30
0.0
 70
0
  0
VERTEX
  5
72
  8
1
 10
-3153.032208
 20
-80.019288
 30
0.0
 70
0
  0
VERTEX
  5
73
  8
1
 10
-3138.476078
 20
-84.257092
 30
0.0
 70
0
  0
VERTEX
  5
74
  8
1
 10
-3123.67576
 20
-88.373782
 30
0.0
 70
0
  0
VERTEX
  5
75
  8
1
 10
-3109.016957
 20
-92.242677
 30
0.0
 70
0
  0
VERTEX
  5
76
  8
1
 10
-3094.076395
 20
-95.959306
 30
0.0
 70
0
  0
VERTEX
  5
77
  8
1
 10
-3079.312496
 20
-99.405565
 30
0.0
 70
0
  0
VERTEX
  5
78
  8
1
 10
-3064.380637
 20
-102.665204
 30
0.0
 70
0
  0
VERTEX
  5
79
  8
1
 10
-3049.525342
 20
-105.693344
 30
0.0
 70
0
  0
VERTEX
  5
7A
  8
1
 10
-3034.362677
 20
-108.575318
 30
0.0
 70
0
  0
VERTEX
  5
7B
  8
1
 10
-3019.433671
 20
-111.215441
 30
0.0
 70
0
  0
VERTEX
  5
7C
  8
1
 10
-3004.608539
 20
-113.650533
 30
0.0
 70
0
  0
VERTEX
  5
7D
  8
1
 10
-2989.620135
 20
-115.929343
 30
0.0
 70
0
  0
VERTEX
  5
7E
  8
1
 10
-2974.560632
 20
-118.039098
 30
0.0
 70
0
  0
VERTEX
  5
7F
  8
1
 10
-2959.523477
 20
-119.971059
 30
0.0
 70
0
  0
VERTEX
  5
80
  8
1
 10
-2944.281523
 20
-121.756512
 30
0.0
 70
0
  0
VERTEX
  5
81
  8
1
 10
-2929.205618
 20
-123.357323
 30
0.0
 70
0
  0
VERTEX
  5
82
  8
1
 10
-2914.106036
 20
-124.801735
 30
0.0
 70
0
  0
VERTEX
  5
83
  8
1
 10
-2899.000419
 20
-126.091169
 30
0.0
 70
0
  0
VERTEX
  5
84
  8
1
 10
-2883.627057
 20
-127.246956
 30
0.0
 70
0
  0
VERTEX
  5
85
  8
1
 10
-2868.498717
 20
-128.235816
 30
0.0
 70
0
  0
VERTEX
  5
86
  8
1
 10
-2853.474762
 20
-129.079016
 30
0.0
 70
0
  0
VERTEX
  5
87
  8
1
 10
-2838.331383
 20
-129.799839
 30
0.0
 70
0
  0
VERTEX
  5
88
  8
1
 10
-2823.021676
 20
-130.409839
 30
0.0
 70
0
  0
VERTEX
  5
89
  8
1
 10
-2807.869442
 20
-130.910449
 30
0.0
 70
0
  0
VERTEX
  5
8A
  8
1
 10
-2792.868758
 20
-131.317578
 30
0.0
 70
0
  0
VERTEX
  5
8B
  8
1
 10
-2777.711645
 20
-131.636828
 30
0.0
 70
0
  0
VERTEX
  5
8C
  8
1
 10
-2762.606831
 20
-131.855189
 30
0.0
 70
0
  0
VERTEX
  5
8D
  8
1
 10
-2747.446903
 20
-131.97976
 30
0.0
 70
0
  0
VERTEX
  5
8E
  8
1
 10
-2732.217264
 20
-132.02501
 30
0.0
 70
0
  0
VERTEX
  5
8F
  8
1
 10
-2724.60083
 20
-132.026234
 30
0.0
 70
0
  0
VERTEX
  5
90
  8
1
 10
-2716.371125
 20
-132.190496
 30
0.0
 70
0
  0
VERTEX
  5
91
  8
1
 10
-2701.460946
 20
-132.316975
 30
0.0
 70
0
  0
VERTEX
  5
92
  8
1
 10
-2688.251129
 20
-132.213109
 30
0.0
 70
0
  0
VERTEX
  5
93
  8
1
 10
-2672.934976
 20
-131.814984
 30
0.0
 70
0
  0
VERTEX
  5
94
  8
1
 10
-2657.620174
 20
-131.274875
 30
0.0
 70
0
  0
VERTEX
  5
95
  8
1
 10
-2642.262257
 20
-130.772738
 30
0.0
 70
0
  0
VERTEX
  5
96
  8
1
 10
-2626.945223
 20
-130.356585
 30
0.0
 70
0
  0
VERTEX
  5
97
  8
1
 10
-2611.85522
 20
-129.870337
 30
0.0
 70
0
  0
VERTEX
  5
98
  8
1
 10
-2596.547174
 20
-129.196371
 30
0.0
 70
0
  0
VERTEX
  5
99
  8
1
 10
-2581.403985
 20
-128.355767
 30
0.0
 70
0
  0
VERTEX
  5
9A
  8
1
 10
-2566.1146
 20
-127.344573
 30
0.0
 70
0
  0
VERTEX
  5
9B
  8
1
 10
-2550.827299
 20
-126.182442
 30
0.0
 70
0
  0
VERTEX
  5
9C
  8
1
 10
-2535.560234
 20
-124.876504
 30
0.0
 70
0
  0
VERTEX
  5
9D
  8
1
 10
-2520.438754
 20
-123.437297
 30
0.0
 70
0
  0
VERTEX
  5
9E
  8
1
 10
-2505.200258
 20
-121.831798
 30
0.0
 70
0
  0
VERTEX
  5
9F
  8
1
 10
-2489.745157
 20
-120.03
 30
0.0
 70
0
  0
VERTEX
  5
A0
  8
1
 10
-2474.546812
 20
-118.080289
 30
0.0
 70
0
  0
VERTEX
  5
A1
  8
1
 10
-2459.569193
 20
-115.985307
 30
0.0
 70
0
  0
VERTEX
  5
A2
  8
1
 10
-2444.419724
 20
-113.686411
 30
0.0
 70
0
  0
VERTEX
  5
A3
  8
1
 10
-2429.603933
 20
-111.255575
 30
0.0
 70
0
  0
VERTEX
  5
A4
  8
1
 10
-2414.514904
 20
-108.588263
 30
0.0
 70
0
  0
VERTEX
  5
A5
  8
1
 10
-2399.386997
 20
-105.714878
 30
0.0
 70
0
  0
VERTEX
  5
A6
  8
1
 10
-2384.372541
 20
-102.65566
 30
0.0
 70
0
  0
VERTEX
  5
A7
  8
1
 10
-2369.653556
 20
-99.442643
 30
0.0
 70
0
  0
VERTEX
  5
A8
  8
1
 10
-2354.731366
 20
-95.960655
 30
0.0
 70
0
  0
VERTEX
  5
A9
  8
1
 10
-2340.095989
 20
-92.322112
 30
0.0
 70
0
  0
VERTEX
  5
AA
  8
1
 10
-2325.279189
 20
-88.416236
 30
0.0
 70
0
  0
VERTEX
  5
AB
  8
1
 10
-2310.65881
 20
-84.352137
 30
0.0
 70
0
  0
VERTEX
  5
AC
  8
1
 10
-2295.946071
 20
-80.071091
 30
0.0
 70
0
  0
VERTEX
  5
AD
  8
1
 10
-2281.456192
 20
-75.691782
 30
0.0
 70
0
  0
VERTEX
  5
AE
  8
1
 10
-2266.831289
 20
-71.120133
 30
0.0
 70
0
  0
VERTEX
  5
AF
  8
1
 10
-2252.491852
 20
-66.493107
 30
0.0
 70
0
  0
VERTEX
  5
B0
  8
1
 10
-2237.957231
 20
-61.641993
 30
0.0
 70
0
  0
VERTEX
  5
B1
  8
1
 10
-2223.654727
 20
-56.692958
 30
0.0
 70
0
  0
VERTEX
  5
B2
  8
1
 10
-2209.212362
 20
-51.573776
 30
0.0
 70
0
  0
VERTEX
  5
B3
  8
1
 10
-2195.036011
 20
-46.516995
 30
0.0
 70
0
  0
VERTEX
  5
B4
  8
1
 10
-2180.53336
 20
-41.344959
 30
0.0
 70
0
  0
VERTEX
  5
B5
  8
1
 10
-2166.204396
 20
-36.236144
 30
0.0
 70
0
  0
VERTEX
  5
B6
  8
1
 10
-2151.757209
 20
-31.086315
 30
0.0
 70
0
  0
VERTEX
  5
B7
  8
1
 10
-2137.020111
 20
-25.834379
 30
0.0
 70
0
  0
VERTEX
  5
B8
  8
1
 10
-2131.151123
 20
-37.229099
 30
0.0
 70
0
  0
VERTEX
  5
B9
  8
1
 10
-2129.92209
 20
-39.615266
 30
0.0
 70
0
  0
VERTEX
  5
BA
  8
1
 10
-2122.99078
 20
-53.072381
 30
0.0
 70
0
  0
VERTEX
  5
BB
  8
1
 10
-2115.993178
 20
-66.658135
 30
0.0
 70
0
  0
VERTEX
  5
BC
  8
1
 10
-2109.137118
 20
-79.96915
 30
0.0
 70
0
  0
VERTEX
  5
BD
  8
1
 10
-2104.681396
 20
-88.619957
 30
0.0
 70
0
  0
VERTEX
  5
BE
  8
1
 10
-2119.48542
 20
-93.958161
 30
0.0
 70
0
  0
VERTEX
  5
BF
  8
1
 10
-2133.639973
 20
-99.059456
 30
0.0
 70
0
  0
VERTEX
  5
C0
  8
1
 10
-2148.001224
 20
-104.233502
 30
0.0
 70
0
  0
VERTEX
  5
C1
  8
1
 10
-2162.274102
 20
-109.383496
 30
0.0
 70
0
  0
VERTEX
  5
C2
  8
1
 10
-2175.629425
 20
-114.21031
 30
0.0
 70
0
  0
VERTEX
  5
C3
  8
1
 10
-2176.630352
 20
-114.57141
 30
0.0
 70
0
  0
VERTEX
  5
C4
  8
1
 10
-2190.947942
 20
-119.705884
 30
0.0
 70
0
  0
VERTEX
  5
C5
  8
1
 10
-2205.347269
 20
-124.773822
 30
0.0
 70
0
  0
VERTEX
  5
C6
  8
1
 10
-2219.789693
 20
-129.716993
 30
0.0
 70
0
  0
VERTEX
  5
C7
  8
1
 10
-2234.312202
 20
-134.518174
 30
0.0
 70
0
  0
VERTEX
  5
C8
  8
1
 10
-2248.615892
 20
-139.099511
 30
0.0
 70
0
  0
VERTEX
  5
C9
  8
1
 10
-2263.190732
 20
-143.638064
 30
0.0
 70
0
  0
VERTEX
  5
CA
  8
1
 10
-2277.80638
 20
-148.04276
 30
0.0
 70
0
  0
VERTEX
  5
CB
  8
1
 10
-2292.646925
 20
-152.342487
 30
0.0
 70
0
  0
VERTEX
  5
CC
  8
1
 10
-2307.357965
 20
-156.418032
 30
0.0
 70
0
  0
VERTEX
  5
CD
  8
1
 10
-2322.253413
 20
-160.342598
 30
0.0
 70
0
  0
VERTEX
  5
CE
  8
1
 10
-2336.772099
 20
-163.961182
 30
0.0
 70
0
  0
VERTEX
  5
CF
  8
1
 10
-2352.114065
 20
-167.556618
 30
0.0
 70
0
  0
VERTEX
  5
D0
  8
1
 10
-2366.683531
 20
-170.765036
 30
0.0
 70
0
  0
VERTEX
  5
D1
  8
1
 10
-2382.114008
 20
-173.959113
 30
0.0
 70
0
  0
VERTEX
  5
D2
  8
1
 10
-2396.747837
 20
-176.80331
 30
0.0
 70
0
  0
VERTEX
  5
D3
  8
1
 10
-2412.250059
 20
-179.628171
 30
0.0
 70
0
  0
VERTEX
  5
D4
  8
1
 10
-2427.238695
 20
-182.183936
 30
0.0
 70
0
  0
VERTEX
  5
D5
  8
1
 10
-2442.313341
 20
-184.587742
 30
0.0
 70
0
  0
VERTEX
  5
D6
  8
1
 10
-2457.268762
 20
-186.810784
 30
0.0
 70
0
  0
VERTEX
  5
D7
  8
1
 10
-2472.390566
 20
-188.89737
 30
0.0
 70
0
  0
VERTEX
  5
D8
  8
1
 10
-2487.15011
 20
-190.780648
 30
0.0
 70
0
  0
VERTEX
  5
D9
  8
1
 10
-2502.800443
 20
-192.615385
 30
0.0
 70
0
  0
VERTEX
  5
DA
  8
1
 10
-2517.592468
 20
-194.198823
 30
0.0
 70
0
  0
VERTEX
  5
DB
  8
1
 10
-2533.276274
 20
-195.720685
 30
0.0
 70
0
  0
VERTEX
  5
DC
  8
1
 10
-2548.093039
 20
-197.012589
 30
0.0
 70
0
  0
VERTEX
  5
DD
  8
1
 10
-2563.80336
 20
-198.230429
 30
0.0
 70
0
  0
VERTEX
  5
DE
  8
1
 10
-2578.636709
 20
-199.23918
 30
0.0
 70
0
  0
VERTEX
  5
DF
  8
1
 10
-2594.367153
 20
-200.161779
 30
0.0
 70
0
  0
VERTEX
  5
E0
  8
1
 10
-2609.208327
 20
-200.895675
 30
0.0
 70
0
  0
VERTEX
  5
E1
  8
1
 10
-2624.952947
 20
-201.53181
 30
0.0
 70
0
  0
VERTEX
  5
E2
  8
1
 10
-2639.792558
 20
-201.999492
 30
0.0
 70
0
  0
VERTEX
  5
E3
  8
1
 10
-2655.545889
 20
-202.358105
 30
0.0
 70
0
  0
VERTEX
  5
E4
  8
1
 10
-2670.374236
 20
-202.566721
 30
0.0
 70
0
  0
VERTEX
  5
E5
  8
1
 10
-2686.131396
 20
-202.653921
 30
0.0
 70
0
  0
VERTEX
  5
E6
  8
1
 10
-2700.978238
 20
-202.61883
 30
0.0
 70
0
  0
VERTEX
  5
E7
  8
1
 10
-2716.452487
 20
-202.482162
 30
0.0
 70
0
  0
VERTEX
  5
E8
  8
1
 10
-2724.559326
 20
-202.381516
 30
0.0
 70
0
  0
SEQEND
  5
33
  8
1
  0
POLYLINE
  5
E9
  8
14
 66
1
 10
0.0
 20
0.0
 30
0.0
 70
1
  0
VERTEX
  5
EB
  8
14
 10
-2724.40155
 20
-189.682217
 30
0.0
 70
0
  0
VERTEX
  5
EC
  8
14
 10
-2724.40155
 20
-189.682217
 30
0.0
 70
0
  0
VERTEX
  5
ED
  8
14
 10
-2735.160325
 20
-189.829854
 30
0.0
 70
0
  0
VERTEX
  5
EE
  8
14
 10
-2750.037895
 20
-189.869281
 30
0.0
 70
0
  0
VERTEX
  5
EF
  8
14
 10
-2765.935727
 20
-189.758599
 30
0.0
 70
0
  0
VERTEX
  5
F0
  8
14
 10
-2782.464488
 20
-189.497099
 30
0.0
 70
0
  0
VERTEX
  5
F1
  8
14
 10
-2798.392506
 20
-189.112611
 30
0.0
 70
0
  0
VERTEX
  5
F2
  8
14
 10
-2815.791638
 20
-188.54835
 30
0.0
 70
0
  0
VERTEX
  5
F3
  8
14
 10
-2831.309472
 20
-187.919093
 30
0.0
 70
0
  0
VERTEX
  5
F4
  8
14
 10
-2847.66316
 20
-187.126685
 30
0.0
 70
0
  0
VERTEX
  5
F5
  8
14
 10
-2864.768307
 20
-186.153708
 30
0.0
 70
0
  0
VERTEX
  5
F6
  8
14
 10
-2882.540492
 20
-184.982751
 30
0.0
 70
0
  0
VERTEX
  5
F7
  8
14
 10
-2900.895296
 20
-183.596398
 30
0.0
 70
0
  0
VERTEX
  5
F8
  8
14
 10
-2915.941899
 20
-182.320529
 30
0.0
 70
0
  0
VERTEX
  5
F9
  8
14
 10
-2931.264124
 20
-180.886745
 30
0.0
 70
0
  0
VERTEX
  5
FA
  8
14
 10
-2946.818748
 20
-179.286132
 30
0.0
 70
0
  0
VERTEX
  5
FB
  8
14
 10
-2962.562547
 20
-177.509773
 30
0.0
 70
0
  0
VERTEX
  5
FC
  8
14
 10
-2978.452297
 20
-175.548753
 30
0.0
 70
0
  0
VERTEX
  5
FD
  8
14
 10
-2994.444774
 20
-173.394155
 30
0.0
 70
0
  0
VERTEX
  5
FE
  8
14
 10
-3010.496754
 20
-171.037064
 30
0.0
 70
0
  0
VERTEX
  5
FF
  8
14
 10
-3028.082931
 20
-168.214556
 30
0.0
 70
0
  0
VERTEX
  5
100
  8
14
 10
-3044.127433
 20
-165.405843
 30
0.0
 70
0
  0
VERTEX
  5
101
  8
14
 10
-3060.137724
 20
-162.37403
 30
0.0
 70
0
  0
VERTEX
  5
102
  8
14
 10
-3076.107129
 20
-159.116587
 30
0.0
 70
0
  0
VERTEX
  5
103
  8
14
 10
-3092.028991
 20
-155.630982
 30
0.0
 70
0
  0
VERTEX
  5
104
  8
14
 10
-3107.896655
 20
-151.914682
 30
0.0
 70
0
  0
VERTEX
  5
105
  8
14
 10
-3123.912366
 20
-147.911272
 30
0.0
 70
0
  0
VERTEX
  5
106
  8
14
 10
-3139.625694
 20
-143.7363
 30
0.0
 70
0
  0
VERTEX
  5
107
  8
14
 10
-3155.118487
 20
-139.401631
 30
0.0
 70
0
  0
VERTEX
  5
108
  8
14
 10
-3170.239709
 20
-134.982342
 30
0.0
 70
0
  0
VERTEX
  5
109
  8
14
 10
-3184.838372
 20
-130.55349
 30
0.0
 70
0
  0
VERTEX
  5
10A
  8
14
 10
-3202.121757
 20
-125.11835
 30
0.0
 70
0
  0
VERTEX
  5
10B
  8
14
 10
-3218.057683
 20
-119.932194
 30
0.0
 70
0
  0
VERTEX
  5
10C
  8
14
 10
-3234.98684
 20
-114.243906
 30
0.0
 70
0
  0
VERTEX
  5
10D
  8
14
 10
-3251.06832
 20
-108.665581
 30
0.0
 70
0
  0
VERTEX
  5
10E
  8
14
 10
-3268.858643
 20
-102.254658
 30
0.0
 70
0
  0
VERTEX
  5
10F
  8
14
 10
-3268.858643
 20
-102.254658
 30
0.0
 70
0
  0
VERTEX
  5
110
  8
14
 10
-3268.858643
 20
-102.254658
 30
0.0
 70
0
  0
VERTEX
  5
111
  8
14
 10
-3262.326603
 20
-89.572806
 30
0.0
 70
0
  0
VERTEX
  5
112
  8
14
 10
-3255.368195
 20
-76.063147
 30
0.0
 70
0
  0
VERTEX
  5
113
  8
14
 10
-3248.130493
 20
-62.011218
 30
0.0
 70
0
  0
VERTEX
  5
114
  8
14
 10
-3248.130493
 20
-62.011218
 30
0.0
 70
0
  0
VERTEX
  5
115
  8
14
 10
-3232.953407
 20
-67.420847
 30
0.0
 70
0
  0
VERTEX
  5
116
  8
14
 10
-3218.168021
 20
-72.561795
 30
0.0
 70
0
  0
VERTEX
  5
117
  8
14
 10
-3203.153441
 20
-77.614723
 30
0.0
 70
0
  0
VERTEX
  5
118
  8
14
 10
-3188.782435
 20
-82.27845
 30
0.0
 70
0
  0
VERTEX
  5
119
  8
14
 10
-3173.859409
 20
-86.968399
 30
0.0
 70
0
  0
VERTEX
  5
11A
  8
14
 10
-3159.406552
 20
-91.371645
 30
0.0
 70
0
  0
VERTEX
  5
11B
  8
14
 10
-3144.909941
 20
-95.628408
 30
0.0
 70
0
  0
VERTEX
  5
11C
  8
14
 10
-3129.744013
 20
-99.884096
 30
0.0
 70
0
  0
VERTEX
  5
11D
  8
14
 10
-3115.143776
 20
-103.776156
 30
0.0
 70
0
  0
VERTEX
  5
11E
  8
14
 10
-3100.492604
 20
-107.471002
 30
0.0
 70
0
  0
VERTEX
  5
11F
  8
14
 10
-3085.061541
 20
-111.124984
 30
0.0
 70
0
  0
VERTEX
  5
120
  8
14
 10
-3070.309347
 20
-114.389407
 30
0.0
 70
0
  0
VERTEX
  5
121
  8
14
 10
-3055.513828
 20
-117.451433
 30
0.0
 70
0
  0
VERTEX
  5
122
  8
14
 10
-3040.461638
 20
-120.36184
 30
0.0
 70
0
  0
VERTEX
  5
123
  8
14
 10
-3025.592355
 20
-123.042153
 30
0.0
 70
0
  0
VERTEX
  5
124
  8
14
 10
-3010.309453
 20
-125.601711
 30
0.0
 70
0
  0
VERTEX
  5
125
  8
14
 10
-2995.379025
 20
-127.917152
 30
0.0
 70
0
  0
VERTEX
  5
126
  8
14
 10
-2980.972442
 20
-129.983543
 30
0.0
 70
0
  0
VERTEX
  5
127
  8
14
 10
-2965.111902
 20
-132.073953
 30
0.0
 70
0
  0
VERTEX
  5
128
  8
14
 10
-2950.111159
 20
-133.878204
 30
0.0
 70
0
  0
VERTEX
  5
129
  8
14
 10
-2934.464655
 20
-135.586273
 30
0.0
 70
0
  0
VERTEX
  5
12A
  8
14
 10
-2919.428573
 20
-137.06571
 30
0.0
 70
0
  0
VERTEX
  5
12B
  8
14
 10
-2903.645007
 20
-138.453808
 30
0.0
 70
0
  0
VERTEX
  5
12C
  8
14
 10
-2888.581305
 20
-139.625719
 30
0.0
 70
0
  0
VERTEX
  5
12D
  8
14
 10
-2873.507741
 20
-140.651595
 30
0.0
 70
0
  0
VERTEX
  5
12E
  8
14
 10
-2858.487908
 20
-141.531263
 30
0.0
 70
0
  0
VERTEX
  5
12F
  8
14
 10
-2842.647795
 20
-142.318845
 30
0.0
 70
0
  0
VERTEX
  5
130
  8
14
 10
-2827.095559
 20
-142.967901
 30
0.0
 70
0
  0
VERTEX
  5
131
  8
14
 10
-2812.002562
 20
-143.491582
 30
0.0
 70
0
  0
VERTEX
  5
132
  8
14
 10
-2796.758774
 20
-143.922868
 30
0.0
 70
0
  0
VERTEX
  5
133
  8
14
 10
-2781.6935
 20
-144.258767
 30
0.0
 70
0
  0
VERTEX
  5
134
  8
14
 10
-2766.559757
 20
-144.509549
 30
0.0
 70
0
  0
VERTEX
  5
135
  8
14
 10
-2751.576703
 20
-144.673161
 30
0.0
 70
0
  0
VERTEX
  5
136
  8
14
 10
-2736.541849
 20
-144.748328
 30
0.0
 70
0
  0
VERTEX
  5
137
  8
14
 10
-2724.755554
 20
-144.725609
 30
0.0
 70
0
  0
VERTEX
  5
138
  8
14
 10
-2721.19881
 20
-144.806958
 30
0.0
 70
0
  0
VERTEX
  5
139
  8
14
 10
-2706.221563
 20
-145.001171
 30
0.0
 70
0
  0
VERTEX
  5
13A
  8
14
 10
-2691.793364
 20
-144.966457
 30
0.0
 70
0
  0
VERTEX
  5
13B
  8
14
 10
-2677.686012
 20
-144.662365
 30
0.0
 70
0
  0
VERTEX
  5
13C
  8
14
 10
-2662.607756
 20
-144.145234
 30
0.0
 70
0
  0
VERTEX
  5
13D
  8
14
 10
-2647.034379
 20
-143.620941
 30
0.0
 70
0
  0
VERTEX
  5
13E
  8
14
 10
-2631.953543
 20
-143.204934
 30
0.0
 70
0
  0
VERTEX
  5
13F
  8
14
 10
-2616.87426
 20
-142.75772
 30
0.0
 70
0
  0
VERTEX
  5
140
  8
14
 10
-2601.830705
 20
-142.161697
 30
0.0
 70
0
  0
VERTEX
  5
141
  8
14
 10
-2586.762901
 20
-141.392721
 30
0.0
 70
0
  0
VERTEX
  5
142
  8
14
 10
-2571.703343
 20
-140.462058
 30
0.0
 70
0
  0
VERTEX
  5
143
  8
14
 10
-2556.653452
 20
-139.379942
 30
0.0
 70
0
  0
VERTEX
  5
144
  8
14
 10
-2541.471504
 20
-138.14431
 30
0.0
 70
0
  0
VERTEX
  5
145
  8
14
 10
-2526.445726
 20
-136.784759
 30
0.0
 70
0
  0
VERTEX
  5
146
  8
14
 10
-2511.434596
 20
-135.280715
 30
0.0
 70
0
  0
VERTEX
  5
147
  8
14
 10
-2496.401629
 20
-133.614641
 30
0.0
 70
0
  0
VERTEX
  5
148
  8
14
 10
-2481.425864
 20
-131.788088
 30
0.0
 70
0
  0
VERTEX
  5
149
  8
14
 10
-2466.047669
 20
-129.736553
 30
0.0
 70
0
  0
VERTEX
  5
14A
  8
14
 10
-2451.117165
 20
-127.570843
 30
0.0
 70
0
  0
VERTEX
  5
14B
  8
14
 10
-2436.212875
 20
-125.23206
 30
0.0
 70
0
  0
VERTEX
  5
14C
  8
14
 10
-2420.864392
 20
-122.631995
 30
0.0
 70
0
  0
VERTEX
  5
14D
  8
14
 10
-2406.022121
 20
-119.926613
 30
0.0
 70
0
  0
VERTEX
  5
14E
  8
14
 10
-2390.905407
 20
-116.971937
 30
0.0
 70
0
  0
VERTEX
  5
14F
  8
14
 10
-2376.138188
 20
-113.882758
 30
0.0
 70
0
  0
VERTEX
  5
150
  8
14
 10
-2361.414991
 20
-110.590107
 30
0.0
 70
0
  0
VERTEX
  5
151
  8
14
 10
-2346.172904
 20
-106.945572
 30
0.0
 70
0
  0
VERTEX
  5
152
  8
14
 10
-2331.550541
 20
-103.22693
 30
0.0
 70
0
  0
VERTEX
  5
153
  8
14
 10
-2316.979029
 20
-99.313193
 30
0.0
 70
0
  0
VERTEX
  5
154
  8
14
 10
-2302.410954
 20
-95.201408
 30
0.0
 70
0
  0
VERTEX
  5
155
  8
14
 10
-2287.940289
 20
-90.934867
 30
0.0
 70
0
  0
VERTEX
  5
156
  8
14
 10
-2273.512575
 20
-86.524836
 30
0.0
 70
0
  0
VERTEX
  5
157
  8
14
 10
-2259.17827
 20
-82.009441
 30
0.0
 70
0
  0
VERTEX
  5
158
  8
14
 10
-2244.830993
 20
-77.344368
 30
0.0
 70
0
  0
VERTEX
  5
159
  8
14
 10
-2230.07528
 20
-72.370008
 30
0.0
 70
0
  0
VERTEX
  5
15A
  8
14
 10
-2215.714659
 20
-67.373554
 30
0.0
 70
0
  0
VERTEX
  5
15B
  8
14
 10
-2200.617676
 20
-62.116504
 30
0.0
 70
0
  0
VERTEX
  5
15C
  8
14
 10
-2200.671844
 20
-62.011237
 30
0.0
 70
0
  0
VERTEX
  5
15D
  8
14
 10
-2193.153951
 20
-76.607296
 30
0.0
 70
0
  0
VERTEX
  5
15E
  8
14
 10
-2186.034861
 20
-90.428979
 30
0.0
 70
0
  0
VERTEX
  5
15F
  8
14
 10
-2179.943848
 20
-102.254658
 30
0.0
 70
0
  0
VERTEX
  5
160
  8
14
 10
-2179.943848
 20
-102.254658
 30
0.0
 70
0
  0
VERTEX
  5
161
  8
14
 10
-2196.072104
 20
-108.09464
 30
0.0
 70
0
  0
VERTEX
  5
162
  8
14
 10
-2211.187936
 20
-113.371242
 30
0.0
 70
0
  0
VERTEX
  5
163
  8
14
 10
-2226.443128
 20
-118.538854
 30
0.0
 70
0
  0
VERTEX
  5
164
  8
14
 10
-2241.826533
 20
-123.595205
 30
0.0
 70
0
  0
VERTEX
  5
165
  8
14
 10
-2256.457371
 20
-128.25806
 30
0.0
 70
0
  0
VERTEX
  5
166
  8
14
 10
-2271.977502
 20
-133.041868
 30
0.0
 70
0
  0
VERTEX
  5
167
  8
14
 10
-2288.193179
 20
-137.849577
 30
0.0
 70
0
  0
VERTEX
  5
168
  8
14
 10
-2304.91057
 20
-142.58411
 30
0.0
 70
0
  0
VERTEX
  5
169
  8
14
 10
-2319.492191
 20
-146.510466
 30
0.0
 70
0
  0
VERTEX
  5
16A
  8
14
 10
-2334.90151
 20
-150.430801
 30
0.0
 70
0
  0
VERTEX
  5
16B
  8
14
 10
-2349.650474
 20
-153.959275
 30
0.0
 70
0
  0
VERTEX
  5
16C
  8
14
 10
-2364.449642
 20
-157.29002
 30
0.0
 70
0
  0
VERTEX
  5
16D
  8
14
 10
-2379.294578
 20
-160.430128
 30
0.0
 70
0
  0
VERTEX
  5
16E
  8
14
 10
-2394.180903
 20
-163.386702
 30
0.0
 70
0
  0
VERTEX
  5
16F
  8
14
 10
-2409.10418
 20
-166.166833
 30
0.0
 70
0
  0
VERTEX
  5
170
  8
14
 10
-2422.237379
 20
-168.468546
 30
0.0
 70
0
  0
VERTEX
  5
171
  8
14
 10
-2439.718039
 20
-171.331089
 30
0.0
 70
0
  0
VERTEX
  5
172
  8
14
 10
-2454.730181
 20
-173.610509
 30
0.0
 70
0
  0
VERTEX
  5
173
  8
14
 10
-2469.766854
 20
-175.731356
 30
0.0
 70
0
  0
VERTEX
  5
174
  8
14
 10
-2484.826059
 20
-177.695715
 30
0.0
 70
0
  0
VERTEX
  5
175
  8
14
 10
-2499.905912
 20
-179.505684
 30
0.0
 70
0
  0
VERTEX
  5
176
  8
14
 10
-2515.004531
 20
-181.163362
 30
0.0
 70
0
  0
VERTEX
  5
177
  8
14
 10
-2530.119917
 20
-182.670835
 30
0.0
 70
0
  0
VERTEX
  5
178
  8
14
 10
-2545.250187
 20
-184.030201
 30
0.0
 70
0
  0
VERTEX
  5
179
  8
14
 10
-2560.393456
 20
-185.243557
 30
0.0
 70
0
  0
VERTEX
  5
17A
  8
14
 10
-2575.547728
 20
-186.312991
 30
0.0
 70
0
  0
VERTEX
  5
17B
  8
14
 10
-2590.711118
 20
-187.2406
 30
0.0
 70
0
  0
VERTEX
  5
17C
  8
14
 10
-2605.881743
 20
-188.028481
 30
0.0
 70
0
  0
VERTEX
  5
17D
  8
14
 10
-2621.057605
 20
-188.678723
 30
0.0
 70
0
  0
VERTEX
  5
17E
  8
14
 10
-2636.236821
 20
-189.193423
 30
0.0
 70
0
  0
VERTEX
  5
17F
  8
14
 10
-2651.417506
 20
-189.574676
 30
0.0
 70
0
  0
VERTEX
  5
180
  8
14
 10
-2666.597664
 20
-189.824573
 30
0.0
 70
0
  0
VERTEX
  5
181
  8
14
 10
-2681.775409
 20
-189.945211
 30
0.0
 70
0
  0
VERTEX
  5
182
  8
14
 10
-2698.670625
 20
-189.93131
 30
0.0
 70
0
  0
VERTEX
  5
183
  8
14
 10
-2714.261647
 20
-189.807691
 30
0.0
 70
0
  0
VERTEX
  5
184
  8
14
 10
-2724.40155
 20
-189.682217
 30
0.0
 70
0
  0
SEQEND
  5
EA
  8
14
  0
POLYLINE
  5
185
  8
8
 66
1
 10
0.0
 20
0.0
 30
0.0
 70
0
  0
VERTEX
  5
187
  8
8
 10
-2724.40155
 20
-144.700527
 30
0.0
 70
0
  0
VERTEX
  5
188
  8
8
 10
-2724.40155
 20
-160.433212
 30
0.0
 70
0
  0
VERTEX
  5
189
  8
8
 10
-2724.40155
 20
-175.449128
 30
0.0
 70
0
  0
VERTEX
  5
18A
  8
8
 10
-2724.40155
 20
-189.682217
 30
0.0
 70
0
  0
SEQEND
  5
186
  8
8
  0
POINT
  5
18B
  8
4
 10
-2724.256287
 20
-202.381897
 30
0.0
  0
POINT
  5
18C
  8
4
 10
-3274.727478
 20
-113.648729
 30
0.0
  0
POINT
  5
18D
  8
4
 10
-3275.426941
 20
-113.398438
 30
0.0
  0
POINT
  5
18E
  8
4
 10
-3317.652588
 20
-37.231374
 30
0.0
  0
POINT
  5
18F
  8
4
 10
-2131.151123
 20
-37.229099
 30
0.0
  0
POINT
  5
190
  8
4
 10
-2175.629425
 20
-114.21031
 30
0.0
  0
POINT
  5
191
  8
4
 10
-2724.559326
 20
-202.381516
 30
0.0
  0
POINT
  5
192
  8
4
 10
-2724.40155
 20
-189.682217
 30
0.0
  0
POINT
  5
193
  8
4
 10
-3268.858643
 20
-102.254658
 30
0.0
  0
POINT
  5
194
  8
4
 10
-3268.858643
 20
-102.254658
 30
0.0
  0
POINT
  5
195
  8
4
 10
-3248.130493
 20
-62.011218
 30
0.0
  0
POINT
  5
196
  8
4
 10
-2200.671844
 20
-62.011237
 30
0.0
  0
POINT
  5
197
  8
4
 10
-2179.943848
 20
-102.254658
 30
0.0
  0
POINT
  5
198
  8
4
 10
-2724.40155
 20
-189.682217
 30
0.0
  0
LINE
  5
199
  8
7
 10
-2722.257385
 20
-132.500181
 30
0.0
 11
-2722.257385
 21
-194.629478
 31
0.0
  0
ENDSEC
  0
EOF
