  0
SECTION
  2
HEADER
  9
$ACADVER
  1
AC1009
  9
$DWGCODEPAGE
  3
ANSI_1252
  9
$INSBASE
 10
0.0
 20
0.0
 30
0.0
  9
$EXTMIN
 10
1e+20
 20
1e+20
 30
1e+20
  9
$EXTMAX
 10
-1e+20
 20
-1e+20
 30
-1e+20
  9
$LIMMIN
 10
0.0
 20
0.0
  9
$LIMMAX
 10
420.0
 20
297.0
  9
$ORTHOMODE
 70
0
  9
$REGENMODE
 70
1
  9
$FILLMODE
 70
1
  9
$DRAGMODE
 70
2
  9
$QTEXTMODE
 70
0
  9
$MIRRTEXT
 70
1
  9
$OSMODE
 70
20583
  9
$LTSCALE
 40
1.0
  9
$ATTMODE
 70
1
  9
$TEXTSIZE
 40
2.5
  9
$TRACEWID
 40
1.0
  9
$TEXTSTYLE
  7
Standard
  9
$CLAYER
  8
0
  9
$CELTYPE
  6
ByLayer
  9
$CECOLOR
 62
256
  9
$DIMSCALE
 40
1.0
  9
$DIMASZ
 40
2.5
  9
$DIMEXO
 40
0.625
  9
$DIMDLI
 40
3.75
  9
$DIMRND
 40
0.0
  9
$DIMDLE
 40
0.0
  9
$DIMEXE
 40
1.25
  9
$DIMTP
 40
0.0
  9
$DIMTM
 40
0.0
  9
$DIMTXT
 40
2.5
  9
$DIMCEN
 40
2.5
  9
$DIMTSZ
 40
0.0
  9
$DIMTOL
 70
0
  9
$DIMLIM
 70
0
  9
$DIMTIH
 70
0
  9
$DIMTOH
 70
0
  9
$DIMSE1
 70
0
  9
$DIMSE2
 70
0
  9
$DIMTAD
 70
1
  9
$DIMZIN
 70
8
  9
$DIMBLK
  1

  9
$DIMASO
 70
1
  9
$DIMSHO
 70
1
  9
$DIMPOST
  1

  9
$DIMAPOST
  1

  9
$DIMALT
 70
0
  9
$DIMALTD
 70
3
  9
$DIMALTF
 40
0.03937007874
  9
$DIMLFAC
 40
1.0
  9
$DIMTOFL
 70
1
  9
$DIMTVP
 40
0.0
  9
$DIMTIX
 70
0
  9
$DIMSOXD
 70
0
  9
$DIMSAH
 70
0
  9
$DIMBLK1
  1

  9
$DIMBLK2
  1

  9
$DIMSTYLE
  2
ISO-25
  9
$DIMCLRD
 70
0
  9
$DIMCLRE
 70
0
  9
$DIMCLRT
 70
0
  9
$DIMTFAC
 40
1.0
  9
$DIMGAP
 40
0.625
  9
$COORDS
 70
1
  9
$ATTDIA
 70
0
  9
$ATTREQ
 70
1
  9
$HANDLING
 70
1
  9
$LUNITS
 70
2
  9
$LUPREC
 70
4
  9
$SKETCHINC
 40
1.0
  9
$FILLETRAD
 40
10.0
  9
$AUNITS
 70
0
  9
$AUPREC
 70
2
  9
$MENU
  1
.
  9
$ELEVATION
 40
0.0
  9
$PELEVATION
 40
0.0
  9
$THICKNESS
 40
0.0
  9
$LIMCHECK
 70
0
  9
$CHAMFERA
 40
0.0
  9
$CHAMFERB
 40
0.0
  9
$SKPOLY
 70
0
  9
$TDCREATE
 40
2461264.9423032408
  9
$TDUPDATE
 40
2461264.9423032408
  9
$TDINDWG
 40
0.0
  9
$TDUSRTIMER
 40
0.0
  9
$USRTIMER
 70
1
  9
$ANGBASE
 50
0.0
  9
$ANGDIR
 70
0
  9
$PDMODE
 70
0
  9
$PDSIZE
 40
0.0
  9
$PLINEWID
 40
0.0
  9
$SPLFRAME
 70
0
  9
$SPLINETYPE
 70
6
  9
$SPLINESEGS
 70
8
  9
$HANDSEED
  5
18C
  9
$SURFTAB1
 70
6
  9
$SURFTAB2
 70
6
  9
$SURFTYPE
 70
6
  9
$SURFU
 70
6
  9
$SURFV
 70
6
  9
$UCSNAME
  2

  9
$UCSORG
 10
0.0
 20
0.0
 30
0.0
  9
$UCSXDIR
 10
1.0
 20
0.0
 30
0.0
  9
$UCSYDIR
 10
0.0
 20
1.0
 30
0.0
  9
$PUCSNAME
  2

  9
$PUCSORG
 10
0.0
 20
0.0
 30
0.0
  9
$PUCSXDIR
 10
1.0
 20
0.0
 30
0.0
  9
$PUCSYDIR
 10
0.0
 20
1.0
 30
0.0
  9
$USERI1
 70
0
  9
$USERI2
 70
0
  9
$USERI3
 70
0
  9
$USERI4
 70
0
  9
$USERI5
 70
0
  9
$USERR1
 40
0.0
  9
$USERR2
 40
0.0
  9
$USERR3
 40
0.0
  9
$USERR4
 40
0.0
  9
$USERR5
 40
0.0
  9
$WORLDVIEW
 70
1
  9
$SHADEDGE
 70
3
  9
$SHADEDIF
 70
70
  9
$TILEMODE
 70
1
  9
$MAXACTVP
 70
64
  9
$PLIMCHECK
 70
0
  9
$PEXTMIN
 10
1e+20
 20
1e+20
 30
1e+20
  9
$PEXTMAX
 10
-1e+20
 20
-1e+20
 30
-1e+20
  9
$PLIMMIN
 10
0.0
 20
0.0
  9
$PLIMMAX
 10
420.0
 20
297.0
  9
$UNITMODE
 70
0
  9
$VISRETAIN
 70
1
  9
$PLINEGEN
 70
0
  9
$PSLTSCALE
 70
1
  0
ENDSEC
  0
SECTION
  2
TABLES
  0
TABLE
  2
VPORT
 70
1
  0
VPORT
  5
23
  2
*Active
 70
0
 10
0.0
 20
0.0
 11
1.0
 21
1.0
 12
0.0
 22
0.0
 13
0.0
 23
0.0
 14
0.5
 24
0.5
 15
0.5
 25
0.5
 16
0.0
 26
0.0
 36
1.0
 17
0.0
 27
0.0
 37
0.0
 40
1000.0
 41
1.34
 42
50.0
 43
0.0
 44
0.0
 50
0.0
 51
0.0
 71
0
 72
1000
 73
1
 74
3
 75
0
 76
0
 77
0
 78
0
  0
ENDTAB
  0
TABLE
  2
LTYPE
 70
3
  0
LTYPE
  5
24
  2
ByBlock
 70
0
  3

 72
65
 73
0
 40
0.0
  0
LTYPE
  5
25
  2
ByLayer
 70
0
  3

 72
65
 73
0
 40
0.0
  0
LTYPE
  5
26
  2
Continuous
 70
0
  3

 72
65
 73
0
 40
0.0
  0
ENDTAB
  0
TABLE
  2
LAYER
 70
7
  0
LAYER
  5
27
  2
0
 70
0
 62
7
  6
Continuous
  0
LAYER
  5
28
  2
Defpoints
 70
0
 62
7
  6
Continuous
  0
LAYER
  5
2D
  2
1
 70
0
 62
1
  6
Continuous
  0
LAYER
  5
2E
  2
7
 70
0
 62
7
  6
Continuous
  0
LAYER
  5
2F
  2
14
 70
0
 62
3
  6
Continuous
  0
LAYER
  5
30
  2
8
 70
0
 62
6
  6
Continuous
  0
LAYER
  5
31
  2
4
 70
0
 62
2
  6
Continuous
  0
ENDTAB
  0
TABLE
  2
STYLE
 70
1
  0
STYLE
  5
29
  2
Standard
 70
0
 40
0.0
 41
1.0
 50
0.0
 71
0
 42
2.5
  3
txt
  4

  0
ENDTAB
  0
TABLE
  2
VIEW
 70
0
  0
ENDTAB
  0
TABLE
  2
UCS
 70
0
  0
ENDTAB
  0
TABLE
  2
APPID
 70
3
  0
APPID
  5
2A
  2
ACAD
 70
0
  0
APPID
  5
18A
  2
HATCHBACKGROUNDCOLOR
 70
0
  0
APPID
  5
18B
  2
EZDXF
 70
0
  0
ENDTAB
  0
TABLE
  2
DIMSTYLE
 70
1
  0
DIMSTYLE
105
2B
  2
Standard
 70
0
  3

  4

  5

  6

  7

 40
1.0
 41
2.5
 42
0.625
 43
3.75
 44
1.25
 45
0.0
 46
0.0
 47
0.0
 48
0.0
140
2.5
141
2.5
142
0.0
143
0.03937007874
144
1.0
145
0.0
146
1.0
147
0.625
 71
0
 72
0
 73
0
 74
0
 75
0
 76
0
 77
1
 78
8
170
0
171
3
172
1
173
0
174
0
175
0
176
0
177
0
178
0
  0
ENDTAB
  0
ENDSEC
  0
SECTION
  2
BLOCKS
  0
BLOCK
  5
18
  8
0
  2
$Model_Space
 70
0
 10
0.0
 20
0.0
 30
0.0
  3
$Model_Space
  1

1001
EZDXF
1000
CREATED_BY_EZDXF
1000
1.4.4 @ 2026-08-11T14:36:55.708261+00:00
1000
WRITTEN_BY_EZDXF
1000
1.4.4 @ 2026-08-11T14:36:55.711216+00:00
  0
ENDBLK
  5
19
  8
0
  0
BLOCK
  5
1C
  8
0
  2
$Paper_Space
 70
0
 10
0.0
 20
0.0
 30
0.0
  3
$Paper_Space
  1

  0
ENDBLK
  5
1D
  8
0
  0
ENDSEC
  0
SECTION
  2
ENTITIES
  0
POLYLINE
  5
32
  8
1
 66
1
 10
0.0
 20
0.0
 30
0.0
 70
1
  0
VERTEX
  5
34
  8
1
 10
-2724.428711
 20
-198.573036
 30
0.0
 70
0
  0
VERTEX
  5
35
  8
1
 10
-2724.323425
 20
-198.572388
 30
0.0
 70
0
  0
VERTEX
  5
36
  8
1
 10
-2732.479879
 20
-198.622465
 30
0.0
 70
0
  0
VERTEX
  5
37
  8
1
 10
-2747.418076
 20
-198.637181
 30
0.0
 70
0
  0
VERTEX
  5
38
  8
1
 10
-2762.877984
 20
-198.516691
 30
0.0
 70
0
  0
VERTEX
  5
39
  8
1
 10
-2778.285619
 20
-198.240732
 30
0.0
 70
0
  0
VERTEX
  5
3A
  8
1
 10
-2793.375055
 20
-197.834562
 30
0.0
 70
0
  0
VERTEX
  5
3B
  8
1
 10
-2808.775366
 20
-197.293825
 30
0.0
 70
0
  0
VERTEX
  5
3C
  8
1
 10
-2824.078423
 20
-196.639641
 30
0.0
 70
0
  0
VERTEX
  5
3D
  8
1
 10
-2839.468631
 20
-195.863038
 30
0.0
 70
0
  0
VERTEX
  5
3E
  8
1
 10
-2854.93814
 20
-194.955424
 30
0.0
 70
0
  0
VERTEX
  5
3F
  8
1
 10
-2870.313489
 20
-193.924283
 30
0.0
 70
0
  0
VERTEX
  5
40
  8
1
 10
-2885.44437
 20
-192.782875
 30
0.0
 70
0
  0
VERTEX
  5
41
  8
1
 10
-2900.800083
 20
-191.491589
 30
0.0
 70
0
  0
VERTEX
  5
42
  8
1
 10
-2916.178152
 20
-190.058
 30
0.0
 70
0
  0
VERTEX
  5
43
  8
1
 10
-2931.507383
 20
-188.482752
 30
0.0
 70
0
  0
VERTEX
  5
44
  8
1
 10
-2946.840182
 20
-186.754435
 30
0.0
 70
0
  0
VERTEX
  5
45
  8
1
 10
-2962.134468
 20
-184.870014
 30
0.0
 70
0
  0
VERTEX
  5
46
  8
1
 10
-2977.384285
 20
-182.822179
 30
0.0
 70
0
  0
VERTEX
  5
47
  8
1
 10
-2992.63241
 20
-180.594696
 30
0.0
 70
0
  0
VERTEX
  5
48
  8
1
 10
-3007.747344
 20
-178.197243
 30
0.0
 70
0
  0
VERTEX
  5
49
  8
1
 10
-3022.934689
 20
-175.586799
 30
0.0
 70
0
  0
VERTEX
  5
4A
  8
1
 10
-3038.00019
 20
-172.787199
 30
0.0
 70
0
  0
VERTEX
  5
4B
  8
1
 10
-3053.110849
 20
-169.763942
 30
0.0
 70
0
  0
VERTEX
  5
4C
  8
1
 10
-3068.182402
 20
-166.530044
 30
0.0
 70
0
  0
VERTEX
  5
4D
  8
1
 10
-3083.201931
 20
-163.08303
 30
0.0
 70
0
  0
VERTEX
  5
4E
  8
1
 10
-3097.82637
 20
-159.504622
 30
0.0
 70
0
  0
VERTEX
  5
4F
  8
1
 10
-3112.741543
 20
-155.630184
 30
0.0
 70
0
  0
VERTEX
  5
50
  8
1
 10
-3127.534247
 20
-151.568277
 30
0.0
 70
0
  0
VERTEX
  5
51
  8
1
 10
-3142.340918
 20
-147.298288
 30
0.0
 70
0
  0
VERTEX
  5
52
  8
1
 10
-3157.020434
 20
-142.882297
 30
0.0
 70
0
  0
VERTEX
  5
53
  8
1
 10
-3171.732942
 20
-138.298504
 30
0.0
 70
0
  0
VERTEX
  5
54
  8
1
 10
-3186.300436
 20
-133.621964
 30
0.0
 70
0
  0
VERTEX
  5
55
  8
1
 10
-3200.92597
 20
-128.768453
 30
0.0
 70
0
  0
VERTEX
  5
56
  8
1
 10
-3215.396497
 20
-123.790334
 30
0.0
 70
0
  0
VERTEX
  5
57
  8
1
 10
-3230.390783
 20
-118.479352
 30
0.0
 70
0
  0
VERTEX
  5
58
  8
1
 10
-3244.494475
 20
-113.38808
 30
0.0
 70
0
  0
VERTEX
  5
59
  8
1
 10
-3247.323608
 20
-112.35898
 30
0.0
 70
0
  0
VERTEX
  5
5A
  8
1
 10
-3248.063965
 20
-112.091188
 30
0.0
 70
0
  0
VERTEX
  5
5B
  8
1
 10
-3258.975863
 20
-108.120471
 30
0.0
 70
0
  0
VERTEX
  5
5C
  8
1
 10
-3273.321383
 20
-102.909236
 30
0.0
 70
0
  0
VERTEX
  5
5D
  8
1
 10
-3287.80741
 20
-97.65424
 30
0.0
 70
0
  0
VERTEX
  5
5E
  8
1
 10
-3301.987432
 20
-92.508192
 30
0.0
 70
0
  0
VERTEX
  5
5F
  8
1
 10
-3316.643372
 20
-87.186422
 30
0.0
 70
0
  0
VERTEX
  5
60
  8
1
 10
-3312.451708
 20
-79.048536
 30
0.0
 70
0
  0
VERTEX
  5
61
  8
1
 10
-3305.614575
 20
-65.774494
 30
0.0
 70
0
  0
VERTEX
  5
62
  8
1
 10
-3298.610706
 20
-52.176564
 30
0.0
 70
0
  0
VERTEX
  5
63
  8
1
 10
-3291.553444
 20
-38.474901
 30
0.0
 70
0
  0
VERTEX
  5
64
  8
1
 10
-3290.136414
 20
-35.723746
 30
0.0
 70
0
  0
VERTEX
  5
65
  8
1
 10
-3284.269409
 20
-24.332945
 30
0.0
 70
0
  0
VERTEX
  5
66
  8
1
 10
-3269.413274
 20
-29.685148
 30
0.0
 70
0
  0
VERTEX
  5
67
  8
1
 10
-3255.24986
 20
-34.785026
 30
0.0
 70
0
  0
VERTEX
  5
68
  8
1
 10
-3240.846626
 20
-39.969948
 30
0.0
 70
0
  0
VERTEX
  5
69
  8
1
 10
-3226.588111
 20
-45.113373
 30
0.0
 70
0
  0
VERTEX
  5
6A
  8
1
 10
-3212.191089
 20
-50.315646
 30
0.0
 70
0
  0
VERTEX
  5
6B
  8
1
 10
-3198.001761
 20
-55.385215
 30
0.0
 70
0
  0
VERTEX
  5
6C
  8
1
 10
-3183.544727
 20
-60.418847
 30
0.0
 70
0
  0
VERTEX
  5
6D
  8
1
 10
-3169.08375
 20
-65.291963
 30
0.0
 70
0
  0
VERTEX
  5
6E
  8
1
 10
-3154.524636
 20
-70.02204
 30
0.0
 70
0
  0
VERTEX
  5
6F
  8
1
 10
-3140.066804
 20
-74.554138
 30
0.0
 70
0
  0
VERTEX
  5
70
  8
1
 10
-3125.414301
 20
-78.987148
 30
0.0
 70
0
  0
VERTEX
  5
71
  8
1
 10
-3110.729787
 20
-83.246212
 30
0.0
 70
0
  0
VERTEX
  5
72
  8
1
 10
-3095.971792
 20
-87.314773
 30
0.0
 70
0
  0
VERTEX
  5
73
  8
1
 10
-3081.15652
 20
-91.168475
 30
0.0
 70
0
  0
VERTEX
  5
74
  8
1
 10
-3066.283508
 20
-94.793919
 30
0.0
 70
0
  0
VERTEX
  5
75
  8
1
 10
-3051.472014
 20
-98.166174
 30
0.0
 70
0
  0
VERTEX
  5
76
  8
1
 10
-3036.496741
 20
-101.342626
 30
0.0
 70
0
  0
VERTEX
  5
77
  8
1
 10
-3021.730313
 20
-104.257486
 30
0.0
 70
0
  0
VERTEX
  5
78
  8
1
 10
-3006.673145
 20
-107.01967
 30
0.0
 70
0
  0
VERTEX
  5
79
  8
1
 10
-2991.580976
 20
-109.583345
 30
0.0
 70
0
  0
VERTEX
  5
7A
  8
1
 10
-2976.340289
 20
-111.970921
 30
0.0
 70
0
  0
VERTEX
  5
7B
  8
1
 10
-2961.422956
 20
-114.118467
 30
0.0
 70
0
  0
VERTEX
  5
7C
  8
1
 10
-2946.245695
 20
-116.117535
 30
0.0
 70
0
  0
VERTEX
  5
7D
  8
1
 10
-2931.312712
 20
-117.907113
 30
0.0
 70
0
  0
VERTEX
  5
7E
  8
1
 10
-2916.093471
 20
-119.55583
 30
0.0
 70
0
  0
VERTEX
  5
7F
  8
1
 10
-2900.856868
 20
-121.035882
 30
0.0
 70
0
  0
VERTEX
  5
80
  8
1
 10
-2885.579172
 20
-122.354479
 30
0.0
 70
0
  0
VERTEX
  5
81
  8
1
 10
-2870.477363
 20
-123.497411
 30
0.0
 70
0
  0
VERTEX
  5
82
  8
1
 10
-2855.201602
 20
-124.495222
 30
0.0
 70
0
  0
VERTEX
  5
83
  8
1
 10
-2839.972925
 20
-125.345759
 30
0.0
 70
0
  0
VERTEX
  5
84
  8
1
 10
-2824.681812
 20
-126.070276
 30
0.0
 70
0
  0
VERTEX
  5
85
  8
1
 10
-2809.385663
 20
-126.674672
 30
0.0
 70
0
  0
VERTEX
  5
86
  8
1
 10
-2793.988987
 20
-127.171756
 30
0.0
 70
0
  0
VERTEX
  5
87
  8
1
 10
-2778.94925
 20
-127.567958
 30
0.0
 70
0
  0
VERTEX
  5
88
  8
1
 10
-2763.644395
 20
-127.891901
 30
0.0
 70
0
  0
VERTEX
  5
89
  8
1
 10
-2748.337871
 20
-128.10966
 30
0.0
 70
0
  0
VERTEX
  5
8A
  8
1
 10
-2733.363088
 20
-128.203784
 30
0.0
 70
0
  0
VERTEX
  5
8B
  8
1
 10
-2724.615479
 20
-128.216238
 30
0.0
 70
0
  0
VERTEX
  5
8C
  8
1
 10
-2717.467391
 20
-128.339757
 30
0.0
 70
0
  0
VERTEX
  5
8D
  8
1
 10
-2702.552337
 20
-128.41861
 30
0.0
 70
0
  0
VERTEX
  5
8E
  8
1
 10
-2690.110982
 20
-128.257146
 30
0.0
 70
0
  0
VERTEX
  5
8F
  8
1
 10
-2674.641606
 20
-127.782746
 30
0.0
 70
0
  0
VERTEX
  5
90
  8
1
 10
-2659.173494
 20
-127.18965
 30
0.0
 70
0
  0
VERTEX
  5
91
  8
1
 10
-2644.065416
 20
-126.676276
 30
0.0
 70
0
  0
VERTEX
  5
92
  8
1
 10
-2628.595827
 20
-126.195638
 30
0.0
 70
0
  0
VERTEX
  5
93
  8
1
 10
-2613.214554
 20
-125.595116
 30
0.0
 70
0
  0
VERTEX
  5
94
  8
1
 10
-2597.757367
 20
-124.797228
 30
0.0
 70
0
  0
VERTEX
  5
95
  8
1
 10
-2582.321732
 20
-123.815603
 30
0.0
 70
0
  0
VERTEX
  5
96
  8
1
 10
-2566.887257
 20
-122.663087
 30
0.0
 70
0
  0
VERTEX
  5
97
  8
1
 10
-2551.399832
 20
-121.349235
 30
0.0
 70
0
  0
VERTEX
  5
98
  8
1
 10
-2535.991667
 20
-119.885529
 30
0.0
 70
0
  0
VERTEX
  5
99
  8
1
 10
-2520.605771
 20
-118.256614
 30
0.0
 70
0
  0
VERTEX
  5
9A
  8
1
 10
-2505.233725
 20
-116.451553
 30
0.0
 70
0
  0
VERTEX
  5
9B
  8
1
 10
-2490.177616
 20
-114.50219
 30
0.0
 70
0
  0
VERTEX
  5
9C
  8
1
 10
-2474.853561
 20
-112.327708
 30
0.0
 70
0
  0
VERTEX
  5
9D
  8
1
 10
-2459.820245
 20
-110.004067
 30
0.0
 70
0
  0
VERTEX
  5
9E
  8
1
 10
-2444.555557
 20
-107.445444
 30
0.0
 70
0
  0
VERTEX
  5
9F
  8
1
 10
-2429.75761
 20
-104.765623
 30
0.0
 70
0
  0
VERTEX
  5
A0
  8
1
 10
-2414.566393
 20
-101.801828
 30
0.0
 70
0
  0
VERTEX
  5
A1
  8
1
 10
-2399.637302
 20
-98.670148
 30
0.0
 70
0
  0
VERTEX
  5
A2
  8
1
 10
-2384.537822
 20
-95.269152
 30
0.0
 70
0
  0
VERTEX
  5
A3
  8
1
 10
-2369.612605
 20
-91.662225
 30
0.0
 70
0
  0
VERTEX
  5
A4
  8
1
 10
-2354.626007
 20
-87.794082
 30
0.0
 70
0
  0
VERTEX
  5
A5
  8
1
 10
-2339.794699
 20
-83.732205
 30
0.0
 70
0
  0
VERTEX
  5
A6
  8
1
 10
-2324.923307
 20
-79.442943
 30
0.0
 70
0
  0
VERTEX
  5
A7
  8
1
 10
-2310.149779
 20
-74.989839
 30
0.0
 70
0
  0
VERTEX
  5
A8
  8
1
 10
-2295.379222
 20
-70.365672
 30
0.0
 70
0
  0
VERTEX
  5
A9
  8
1
 10
-2280.844705
 20
-65.662168
 30
0.0
 70
0
  0
VERTEX
  5
AA
  8
1
 10
-2266.169084
 20
-60.744858
 30
0.0
 70
0
  0
VERTEX
  5
AB
  8
1
 10
-2251.804651
 20
-55.742122
 30
0.0
 70
0
  0
VERTEX
  5
AC
  8
1
 10
-2237.232139
 20
-50.527296
 30
0.0
 70
0
  0
VERTEX
  5
AD
  8
1
 10
-2222.858601
 20
-45.345117
 30
0.0
 70
0
  0
VERTEX
  5
AE
  8
1
 10
-2208.212682
 20
-40.0664
 30
0.0
 70
0
  0
VERTEX
  5
AF
  8
1
 10
-2193.742123
 20
-34.852794
 30
0.0
 70
0
  0
VERTEX
  5
B0
  8
1
 10
-2179.173176
 20
-29.60543
 30
0.0
 70
0
  0
VERTEX
  5
B1
  8
1
 10
-2164.532623
 20
-24.334066
 30
0.0
 70
0
  0
VERTEX
  5
B2
  8
1
 10
-2158.668823
 20
-35.718753
 30
0.0
 70
0
  0
VERTEX
  5
B3
  8
1
 10
-2157.271398
 20
-38.431756
 30
0.0
 70
0
  0
VERTEX
  5
B4
  8
1
 10
-2150.167069
 20
-52.224814
 30
0.0
 70
0
  0
VERTEX
  5
B5
  8
1
 10
-2143.169955
 20
-65.809688
 30
0.0
 70
0
  0
VERTEX
  5
B6
  8
1
 10
-2136.173387
 20
-79.393466
 30
0.0
 70
0
  0
VERTEX
  5
B7
  8
1
 10
-2132.19574
 20
-87.116022
 30
0.0
 70
0
  0
VERTEX
  5
B8
  8
1
 10
-2146.767543
 20
-92.424238
 30
0.0
 70
0
  0
VERTEX
  5
B9
  8
1
 10
-2161.126198
 20
-97.651731
 30
0.0
 70
0
  0
VERTEX
  5
BA
  8
1
 10
-2175.373056
 20
-102.836353
 30
0.0
 70
0
  0
VERTEX
  5
BB
  8
1
 10
-2189.872373
 20
-108.120856
 30
0.0
 70
0
  0
VERTEX
  5
BC
  8
1
 10
-2202.992706
 20
-112.911263
 30
0.0
 70
0
  0
VERTEX
  5
BD
  8
1
 10
-2204.155784
 20
-113.335193
 30
0.0
 70
0
  0
VERTEX
  5
BE
  8
1
 10
-2218.66627
 20
-118.589144
 30
0.0
 70
0
  0
VERTEX
  5
BF
  8
1
 10
-2232.983964
 20
-123.670067
 30
0.0
 70
0
  0
VERTEX
  5
C0
  8
1
 10
-2247.498387
 20
-128.672311
 30
0.0
 70
0
  0
VERTEX
  5
C1
  8
1
 10
-2262.142823
 20
-133.54035
 30
0.0
 70
0
  0
VERTEX
  5
C2
  8
1
 10
-2276.636197
 20
-138.19964
 30
0.0
 70
0
  0
VERTEX
  5
C3
  8
1
 10
-2291.36922
 20
-142.793403
 30
0.0
 70
0
  0
VERTEX
  5
C4
  8
1
 10
-2306.159839
 20
-147.240958
 30
0.0
 70
0
  0
VERTEX
  5
C5
  8
1
 10
-2320.99029
 20
-151.509816
 30
0.0
 70
0
  0
VERTEX
  5
C6
  8
1
 10
-2335.73397
 20
-155.547357
 30
0.0
 70
0
  0
VERTEX
  5
C7
  8
1
 10
-2350.673983
 20
-159.415873
 30
0.0
 70
0
  0
VERTEX
  5
C8
  8
1
 10
-2365.276804
 20
-162.975743
 30
0.0
 70
0
  0
VERTEX
  5
C9
  8
1
 10
-2380.321258
 20
-166.415327
 30
0.0
 70
0
  0
VERTEX
  5
CA
  8
1
 10
-2395.435159
 20
-169.651878
 30
0.0
 70
0
  0
VERTEX
  5
CB
  8
1
 10
-2410.566334
 20
-172.687303
 30
0.0
 70
0
  0
VERTEX
  5
CC
  8
1
 10
-2425.628757
 20
-175.515685
 30
0.0
 70
0
  0
VERTEX
  5
CD
  8
1
 10
-2440.829028
 20
-178.183166
 30
0.0
 70
0
  0
VERTEX
  5
CE
  8
1
 10
-2456.065575
 20
-180.675461
 30
0.0
 70
0
  0
VERTEX
  5
CF
  8
1
 10
-2471.322867
 20
-182.994558
 30
0.0
 70
0
  0
VERTEX
  5
D0
  8
1
 10
-2486.633933
 20
-185.147716
 30
0.0
 70
0
  0
VERTEX
  5
D1
  8
1
 10
-2501.938771
 20
-187.128922
 30
0.0
 70
0
  0
VERTEX
  5
D2
  8
1
 10
-2517.245337
 20
-188.942656
 30
0.0
 70
0
  0
VERTEX
  5
D3
  8
1
 10
-2532.589046
 20
-190.595789
 30
0.0
 70
0
  0
VERTEX
  5
D4
  8
1
 10
-2547.926412
 20
-192.086362
 30
0.0
 70
0
  0
VERTEX
  5
D5
  8
1
 10
-2563.301097
 20
-193.421243
 30
0.0
 70
0
  0
VERTEX
  5
D6
  8
1
 10
-2578.660613
 20
-194.598497
 30
0.0
 70
0
  0
VERTEX
  5
D7
  8
1
 10
-2594.058969
 20
-195.624773
 30
0.0
 70
0
  0
VERTEX
  5
D8
  8
1
 10
-2609.43073
 20
-196.498278
 30
0.0
 70
0
  0
VERTEX
  5
D9
  8
1
 10
-2624.846117
 20
-197.225506
 30
0.0
 70
0
  0
VERTEX
  5
DA
  8
1
 10
-2640.218804
 20
-197.805144
 30
0.0
 70
0
  0
VERTEX
  5
DB
  8
1
 10
-2655.645005
 20
-198.243047
 30
0.0
 70
0
  0
VERTEX
  5
DC
  8
1
 10
-2671.00647
 20
-198.537853
 30
0.0
 70
0
  0
VERTEX
  5
DD
  8
1
 10
-2686.43816
 20
-198.695109
 30
0.0
 70
0
  0
VERTEX
  5
DE
  8
1
 10
-2701.61455
 20
-198.719461
 30
0.0
 70
0
  0
VERTEX
  5
DF
  8
1
 10
-2716.720621
 20
-198.642695
 30
0.0
 70
0
  0
VERTEX
  5
E0
  8
1
 10
-2724.516907
 20
-198.571911
 30
0.0
 70
0
  0
SEQEND
  5
33
  8
1
  0
POLYLINE
  5
E1
  8
14
 66
1
 10
0.0
 20
0.0
 30
0.0
 70
1
  0
VERTEX
  5
E3
  8
14
 10
-2724.40155
 20
-185.872211
 30
0.0
 70
0
  0
VERTEX
  5
E4
  8
14
 10
-2724.40155
 20
-185.872211
 30
0.0
 70
0
  0
VERTEX
  5
E5
  8
14
 10
-2732.481923
 20
-185.964516
 30
0.0
 70
0
  0
VERTEX
  5
E6
  8
14
 10
-2747.10253
 20
-185.972645
 30
0.0
 70
0
  0
VERTEX
  5
E7
  8
14
 10
-2761.808039
 20
-185.834926
 30
0.0
 70
0
  0
VERTEX
  5
E8
  8
14
 10
-2777.196303
 20
-185.556005
 30
0.0
 70
0
  0
VERTEX
  5
E9
  8
14
 10
-2792.083628
 20
-185.16373
 30
0.0
 70
0
  0
VERTEX
  5
EA
  8
14
 10
-2808.391337
 20
-184.600375
 30
0.0
 70
0
  0
VERTEX
  5
EB
  8
14
 10
-2825.980712
 20
-183.837836
 30
0.0
 70
0
  0
VERTEX
  5
EC
  8
14
 10
-2841.517481
 20
-183.02996
 30
0.0
 70
0
  0
VERTEX
  5
ED
  8
14
 10
-2857.767721
 20
-182.04798
 30
0.0
 70
0
  0
VERTEX
  5
EE
  8
14
 10
-2874.651089
 20
-180.875639
 30
0.0
 70
0
  0
VERTEX
  5
EF
  8
14
 10
-2892.087376
 20
-179.496667
 30
0.0
 70
0
  0
VERTEX
  5
F0
  8
14
 10
-2909.996237
 20
-177.894808
 30
0.0
 70
0
  0
VERTEX
  5
F1
  8
14
 10
-2928.29743
 20
-176.053795
 30
0.0
 70
0
  0
VERTEX
  5
F2
  8
14
 10
-2943.166932
 20
-174.397863
 30
0.0
 70
0
  0
VERTEX
  5
F3
  8
14
 10
-2958.195049
 20
-172.570137
 30
0.0
 70
0
  0
VERTEX
  5
F4
  8
14
 10
-2973.340678
 20
-170.56229
 30
0.0
 70
0
  0
VERTEX
  5
F5
  8
14
 10
-2988.562719
 20
-168.365996
 30
0.0
 70
0
  0
VERTEX
  5
F6
  8
14
 10
-3003.82007
 20
-165.972927
 30
0.0
 70
0
  0
VERTEX
  5
F7
  8
14
 10
-3020.512495
 20
-163.118502
 30
0.0
 70
0
  0
VERTEX
  5
F8
  8
14
 10
-3035.732877
 20
-160.290108
 30
0.0
 70
0
  0
VERTEX
  5
F9
  8
14
 10
-3050.91682
 20
-157.248649
 30
0.0
 70
0
  0
VERTEX
  5
FA
  8
14
 10
-3066.05799
 20
-153.991738
 30
0.0
 70
0
  0
VERTEX
  5
FB
  8
14
 10
-3081.150055
 20
-150.516994
 30
0.0
 70
0
  0
VERTEX
  5
FC
  8
14
 10
-3096.186664
 20
-146.822035
 30
0.0
 70
0
  0
VERTEX
  5
FD
  8
14
 10
-3111.356319
 20
-142.852753
 30
0.0
 70
0
  0
VERTEX
  5
FE
  8
14
 10
-3126.186139
 20
-138.748397
 30
0.0
 70
0
  0
VERTEX
  5
FF
  8
14
 10
-3144.310471
 20
-133.464534
 30
0.0
 70
0
  0
VERTEX
  5
100
  8
14
 10
-3161.714836
 20
-128.141165
 30
0.0
 70
0
  0
VERTEX
  5
101
  8
14
 10
-3178.119464
 20
-122.918594
 30
0.0
 70
0
  0
VERTEX
  5
102
  8
14
 10
-3193.24456
 20
-117.937136
 30
0.0
 70
0
  0
VERTEX
  5
103
  8
14
 10
-3209.311748
 20
-112.475214
 30
0.0
 70
0
  0
VERTEX
  5
104
  8
14
 10
-3224.573844
 20
-107.120624
 30
0.0
 70
0
  0
VERTEX
  5
105
  8
14
 10
-3241.456909
 20
-100.969152
 30
0.0
 70
0
  0
VERTEX
  5
106
  8
14
 10
-3241.456909
 20
-100.969152
 30
0.0
 70
0
  0
VERTEX
  5
107
  8
14
 10
-3241.456909
 20
-100.969152
 30
0.0
 70
0
  0
VERTEX
  5
108
  8
14
 10
-3234.924872
 20
-88.287306
 30
0.0
 70
0
  0
VERTEX
  5
109
  8
14
 10
-3227.966463
 20
-74.777647
 30
0.0
 70
0
  0
VERTEX
  5
10A
  8
14
 10
-3220.72876
 20
-60.725718
 30
0.0
 70
0
  0
VERTEX
  5
10B
  8
14
 10
-3220.72876
 20
-60.725718
 30
0.0
 70
0
  0
VERTEX
  5
10C
  8
14
 10
-3205.686557
 20
-66.144217
 30
0.0
 70
0
  0
VERTEX
  5
10D
  8
14
 10
-3190.773211
 20
-71.377205
 30
0.0
 70
0
  0
VERTEX
  5
10E
  8
14
 10
-3176.532867
 20
-76.205356
 30
0.0
 70
0
  0
VERTEX
  5
10F
  8
14
 10
-3162.113768
 20
-80.918245
 30
0.0
 70
0
  0
VERTEX
  5
110
  8
14
 10
-3147.167571
 20
-85.645096
 30
0.0
 70
0
  0
VERTEX
  5
111
  8
14
 10
-3132.661081
 20
-90.080813
 30
0.0
 70
0
  0
VERTEX
  5
112
  8
14
 10
-3117.519975
 20
-94.520732
 30
0.0
 70
0
  0
VERTEX
  5
113
  8
14
 10
-3102.907079
 20
-98.596953
 30
0.0
 70
0
  0
VERTEX
  5
114
  8
14
 10
-3088.238937
 20
-102.470506
 30
0.0
 70
0
  0
VERTEX
  5
115
  8
14
 10
-3073.516173
 20
-106.12916
 30
0.0
 70
0
  0
VERTEX
  5
116
  8
14
 10
-3058.869688
 20
-109.533508
 30
0.0
 70
0
  0
VERTEX
  5
117
  8
14
 10
-3044.044441
 20
-112.748666
 30
0.0
 70
0
  0
VERTEX
  5
118
  8
14
 10
-3028.96888
 20
-115.79569
 30
0.0
 70
0
  0
VERTEX
  5
119
  8
14
 10
-3014.060499
 20
-118.599666
 30
0.0
 70
0
  0
VERTEX
  5
11A
  8
14
 10
-2998.754964
 20
-121.269307
 30
0.0
 70
0
  0
VERTEX
  5
11B
  8
14
 10
-2983.778601
 20
-123.683445
 30
0.0
 70
0
  0
VERTEX
  5
11C
  8
14
 10
-2968.773561
 20
-125.912507
 30
0.0
 70
0
  0
VERTEX
  5
11D
  8
14
 10
-2953.428947
 20
-128.002333
 30
0.0
 70
0
  0
VERTEX
  5
11E
  8
14
 10
-2938.374926
 20
-129.871923
 30
0.0
 70
0
  0
VERTEX
  5
11F
  8
14
 10
-2922.706077
 20
-131.63359
 30
0.0
 70
0
  0
VERTEX
  5
120
  8
14
 10
-2907.613389
 20
-133.158704
 30
0.0
 70
0
  0
VERTEX
  5
121
  8
14
 10
-2892.649747
 20
-134.510376
 30
0.0
 70
0
  0
VERTEX
  5
122
  8
14
 10
-2877.527893
 20
-135.718798
 30
0.0
 70
0
  0
VERTEX
  5
123
  8
14
 10
-2862.443262
 20
-136.769272
 30
0.0
 70
0
  0
VERTEX
  5
124
  8
14
 10
-2847.329925
 20
-137.672146
 30
0.0
 70
0
  0
VERTEX
  5
125
  8
14
 10
-2831.548422
 20
-138.472548
 30
0.0
 70
0
  0
VERTEX
  5
126
  8
14
 10
-2816.130942
 20
-139.129934
 30
0.0
 70
0
  0
VERTEX
  5
127
  8
14
 10
-2800.505431
 20
-139.682796
 30
0.0
 70
0
  0
VERTEX
  5
128
  8
14
 10
-2785.004827
 20
-140.127289
 30
0.0
 70
0
  0
VERTEX
  5
129
  8
14
 10
-2770.038725
 20
-140.463766
 30
0.0
 70
0
  0
VERTEX
  5
12A
  8
14
 10
-2754.983727
 20
-140.712834
 30
0.0
 70
0
  0
VERTEX
  5
12B
  8
14
 10
-2739.828649
 20
-140.870774
 30
0.0
 70
0
  0
VERTEX
  5
12C
  8
14
 10
-2725.064498
 20
-140.918525
 30
0.0
 70
0
  0
VERTEX
  5
12D
  8
14
 10
-2724.755554
 20
-140.915613
 30
0.0
 70
0
  0
VERTEX
  5
12E
  8
14
 10
-2711.079287
 20
-141.098453
 30
0.0
 70
0
  0
VERTEX
  5
12F
  8
14
 10
-2696.725442
 20
-141.074472
 30
0.0
 70
0
  0
VERTEX
  5
130
  8
14
 10
-2684.021763
 20
-140.82041
 30
0.0
 70
0
  0
VERTEX
  5
131
  8
14
 10
-2668.425559
 20
-140.260584
 30
0.0
 70
0
  0
VERTEX
  5
132
  8
14
 10
-2653.010518
 20
-139.673221
 30
0.0
 70
0
  0
VERTEX
  5
133
  8
14
 10
-2637.411846
 20
-139.182499
 30
0.0
 70
0
  0
VERTEX
  5
134
  8
14
 10
-2621.814881
 20
-138.663622
 30
0.0
 70
0
  0
VERTEX
  5
135
  8
14
 10
-2606.253286
 20
-137.97548
 30
0.0
 70
0
  0
VERTEX
  5
136
  8
14
 10
-2590.670789
 20
-137.093815
 30
0.0
 70
0
  0
VERTEX
  5
137
  8
14
 10
-2575.098549
 20
-136.032344
 30
0.0
 70
0
  0
VERTEX
  5
138
  8
14
 10
-2559.538414
 20
-134.803682
 30
0.0
 70
0
  0
VERTEX
  5
139
  8
14
 10
-2544.50383
 20
-133.467943
 30
0.0
 70
0
  0
VERTEX
  5
13A
  8
14
 10
-2528.972967
 20
-131.933531
 30
0.0
 70
0
  0
VERTEX
  5
13B
  8
14
 10
-2513.424001
 20
-130.223669
 30
0.0
 70
0
  0
VERTEX
  5
13C
  8
14
 10
-2497.932404
 20
-128.333773
 30
0.0
 70
0
  0
VERTEX
  5
13D
  8
14
 10
-2482.464539
 20
-126.256965
 30
0.0
 70
0
  0
VERTEX
  5
13E
  8
14
 10
-2467.265339
 20
-124.028018
 30
0.0
 70
0
  0
VERTEX
  5
13F
  8
14
 10
-2451.853545
 20
-121.570621
 30
0.0
 70
0
  0
VERTEX
  5
140
  8
14
 10
-2436.666725
 20
-118.946982
 30
0.0
 70
0
  0
VERTEX
  5
141
  8
14
 10
-2421.32476
 20
-116.085422
 30
0.0
 70
0
  0
VERTEX
  5
142
  8
14
 10
-2406.366934
 20
-113.084234
 30
0.0
 70
0
  0
VERTEX
  5
143
  8
14
 10
-2391.11034
 20
-109.797138
 30
0.0
 70
0
  0
VERTEX
  5
144
  8
14
 10
-2375.998942
 20
-106.300268
 30
0.0
 70
0
  0
VERTEX
  5
145
  8
14
 10
-2360.850398
 20
-102.54404
 30
0.0
 70
0
  0
VERTEX
  5
146
  8
14
 10
-2345.759664
 20
-98.560085
 30
0.0
 70
0
  0
VERTEX
  5
147
  8
14
 10
-2330.727396
 20
-94.361728
 30
0.0
 70
0
  0
VERTEX
  5
148
  8
14
 10
-2316.330732
 20
-90.137559
 30
0.0
 70
0
  0
VERTEX
  5
149
  8
14
 10
-2301.406586
 20
-85.57397
 30
0.0
 70
0
  0
VERTEX
  5
14A
  8
14
 10
-2286.579503
 20
-80.883114
 30
0.0
 70
0
  0
VERTEX
  5
14B
  8
14
 10
-2271.746347
 20
-76.031157
 30
0.0
 70
0
  0
VERTEX
  5
14C
  8
14
 10
-2257.13559
 20
-71.068141
 30
0.0
 70
0
  0
VERTEX
  5
14D
  8
14
 10
-2242.833711
 20
-66.043822
 30
0.0
 70
0
  0
VERTEX
  5
14E
  8
14
 10
-2228.019562
 20
-60.831003
 30
0.0
 70
0
  0
VERTEX
  5
14F
  8
14
 10
-2228.07373
 20
-60.725737
 30
0.0
 70
0
  0
VERTEX
  5
150
  8
14
 10
-2220.555836
 20
-75.321796
 30
0.0
 70
0
  0
VERTEX
  5
151
  8
14
 10
-2213.436746
 20
-89.143479
 30
0.0
 70
0
  0
VERTEX
  5
152
  8
14
 10
-2207.345734
 20
-100.969152
 30
0.0
 70
0
  0
VERTEX
  5
153
  8
14
 10
-2207.345734
 20
-100.969152
 30
0.0
 70
0
  0
VERTEX
  5
154
  8
14
 10
-2222.651371
 20
-106.572536
 30
0.0
 70
0
  0
VERTEX
  5
155
  8
14
 10
-2238.492328
 20
-112.15646
 30
0.0
 70
0
  0
VERTEX
  5
156
  8
14
 10
-2253.217402
 20
-117.185981
 30
0.0
 70
0
  0
VERTEX
  5
157
  8
14
 10
-2268.000825
 20
-122.084247
 30
0.0
 70
0
  0
VERTEX
  5
158
  8
14
 10
-2284.093212
 20
-127.240514
 30
0.0
 70
0
  0
VERTEX
  5
159
  8
14
 10
-2299.03212
 20
-131.854899
 30
0.0
 70
0
  0
VERTEX
  5
15A
  8
14
 10
-2314.57931
 20
-136.467783
 30
0.0
 70
0
  0
VERTEX
  5
15B
  8
14
 10
-2330.550996
 20
-140.986292
 30
0.0
 70
0
  0
VERTEX
  5
15C
  8
14
 10
-2345.120213
 20
-144.891242
 30
0.0
 70
0
  0
VERTEX
  5
15D
  8
14
 10
-2361.42151
 20
-148.992111
 30
0.0
 70
0
  0
VERTEX
  5
15E
  8
14
 10
-2377.791534
 20
-152.832905
 30
0.0
 70
0
  0
VERTEX
  5
15F
  8
14
 10
-2394.223545
 20
-156.424297
 30
0.0
 70
0
  0
VERTEX
  5
160
  8
14
 10
-2410.710874
 20
-159.776979
 30
0.0
 70
0
  0
VERTEX
  5
161
  8
14
 10
-2427.24678
 20
-162.901626
 30
0.0
 70
0
  0
VERTEX
  5
162
  8
14
 10
-2442.092682
 20
-165.515316
 30
0.0
 70
0
  0
VERTEX
  5
163
  8
14
 10
-2458.703657
 20
-168.234383
 30
0.0
 70
0
  0
VERTEX
  5
164
  8
14
 10
-2475.348693
 20
-170.746666
 30
0.0
 70
0
  0
VERTEX
  5
165
  8
14
 10
-2492.024843
 20
-173.05531
 30
0.0
 70
0
  0
VERTEX
  5
166
  8
14
 10
-2508.729271
 20
-175.163475
 30
0.0
 70
0
  0
VERTEX
  5
167
  8
14
 10
-2525.459031
 20
-177.074305
 30
0.0
 70
0
  0
VERTEX
  5
168
  8
14
 10
-2542.211172
 20
-178.790947
 30
0.0
 70
0
  0
VERTEX
  5
169
  8
14
 10
-2558.982862
 20
-180.316557
 30
0.0
 70
0
  0
VERTEX
  5
16A
  8
14
 10
-2575.771152
 20
-181.65428
 30
0.0
 70
0
  0
VERTEX
  5
16B
  8
14
 10
-2592.573094
 20
-182.807265
 30
0.0
 70
0
  0
VERTEX
  5
16C
  8
14
 10
-2609.385853
 20
-183.778666
 30
0.0
 70
0
  0
VERTEX
  5
16D
  8
14
 10
-2626.206482
 20
-184.57163
 30
0.0
 70
0
  0
VERTEX
  5
16E
  8
14
 10
-2643.03207
 20
-185.189305
 30
0.0
 70
0
  0
VERTEX
  5
16F
  8
14
 10
-2659.859669
 20
-185.634842
 30
0.0
 70
0
  0
VERTEX
  5
170
  8
14
 10
-2676.686445
 20
-185.911392
 30
0.0
 70
0
  0
VERTEX
  5
171
  8
14
 10
-2692.798284
 20
-186.020738
 30
0.0
 70
0
  0
VERTEX
  5
172
  8
14
 10
-2708.910685
 20
-185.992803
 30
0.0
 70
0
  0
VERTEX
  5
173
  8
14
 10
-2722.812065
 20
-185.889072
 30
0.0
 70
0
  0
VERTEX
  5
174
  8
14
 10
-2724.40155
 20
-185.872211
 30
0.0
 70
0
  0
SEQEND
  5
E2
  8
14
  0
POLYLINE
  5
175
  8
8
 66
1
 10
0.0
 20
0.0
 30
0.0
 70
0
  0
VERTEX
  5
177
  8
8
 10
-2724.40155
 20
-140.890532
 30
0.0
 70
0
  0
VERTEX
  5
178
  8
8
 10
-2724.40155
 20
-156.623218
 30
0.0
 70
0
  0
VERTEX
  5
179
  8
8
 10
-2724.40155
 20
-171.639134
 30
0.0
 70
0
  0
VERTEX
  5
17A
  8
8
 10
-2724.40155
 20
-185.872211
 30
0.0
 70
0
  0
SEQEND
  5
176
  8
8
  0
POINT
  5
17B
  8
4
 10
-2724.323425
 20
-198.572388
 30
0.0
  0
POINT
  5
17C
  8
4
 10
-3247.323608
 20
-112.35898
 30
0.0
  0
POINT
  5
17D
  8
4
 10
-3248.063965
 20
-112.091188
 30
0.0
  0
POINT
  5
17E
  8
4
 10
-3290.136414
 20
-35.723746
 30
0.0
  0
POINT
  5
17F
  8
4
 10
-2158.668823
 20
-35.718753
 30
0.0
  0
POINT
  5
180
  8
4
 10
-2202.992706
 20
-112.911263
 30
0.0
  0
POINT
  5
181
  8
4
 10
-2724.516907
 20
-198.571911
 30
0.0
  0
POINT
  5
182
  8
4
 10
-2724.40155
 20
-185.872211
 30
0.0
  0
POINT
  5
183
  8
4
 10
-3241.456909
 20
-100.969152
 30
0.0
  0
POINT
  5
184
  8
4
 10
-3241.456909
 20
-100.969152
 30
0.0
  0
POINT
  5
185
  8
4
 10
-3220.72876
 20
-60.725718
 30
0.0
  0
POINT
  5
186
  8
4
 10
-2228.07373
 20
-60.725737
 30
0.0
  0
POINT
  5
187
  8
4
 10
-2207.345734
 20
-100.969152
 30
0.0
  0
POINT
  5
188
  8
4
 10
-2724.40155
 20
-185.872211
 30
0.0
  0
LINE
  5
189
  8
7
 10
-2722.257385
 20
-132.500181
 30
0.0
 11
-2722.257385
 21
-194.629478
 31
0.0
  0
ENDSEC
  0
EOF
