  0
SECTION
  2
HEADER
  9
$ACADVER
  1
AC1009
  9
$DWGCODEPAGE
  3
ANSI_1252
  9
$INSBASE
 10
0.0
 20
0.0
 30
0.0
  9
$EXTMIN
 10
1e+20
 20
1e+20
 30
1e+20
  9
$EXTMAX
 10
-1e+20
 20
-1e+20
 30
-1e+20
  9
$LIMMIN
 10
0.0
 20
0.0
  9
$LIMMAX
 10
420.0
 20
297.0
  9
$ORTHOMODE
 70
0
  9
$REGENMODE
 70
1
  9
$FILLMODE
 70
1
  9
$DRAGMODE
 70
2
  9
$QTEXTMODE
 70
0
  9
$MIRRTEXT
 70
1
  9
$OSMODE
 70
20583
  9
$LTSCALE
 40
1.0
  9
$ATTMODE
 70
1
  9
$TEXTSIZE
 40
2.5
  9
$TRACEWID
 40
1.0
  9
$TEXTSTYLE
  7
Standard
  9
$CLAYER
  8
0
  9
$CELTYPE
  6
ByLayer
  9
$CECOLOR
 62
256
  9
$DIMSCALE
 40
1.0
  9
$DIMASZ
 40
2.5
  9
$DIMEXO
 40
0.625
  9
$DIMDLI
 40
3.75
  9
$DIMRND
 40
0.0
  9
$DIMDLE
 40
0.0
  9
$DIMEXE
 40
1.25
  9
$DIMTP
 40
0.0
  9
$DIMTM
 40
0.0
  9
$DIMTXT
 40
2.5
  9
$DIMCEN
 40
2.5
  9
$DIMTSZ
 40
0.0
  9
$DIMTOL
 70
0
  9
$DIMLIM
 70
0
  9
$DIMTIH
 70
0
  9
$DIMTOH
 70
0
  9
$DIMSE1
 70
0
  9
$DIMSE2
 70
0
  9
$DIMTAD
 70
1
  9
$DIMZIN
 70
8
  9
$DIMBLK
  1

  9
$DIMASO
 70
1
  9
$DIMSHO
 70
1
  9
$DIMPOST
  1

  9
$DIMAPOST
  1

  9
$DIMALT
 70
0
  9
$DIMALTD
 70
3
  9
$DIMALTF
 40
0.03937007874
  9
$DIMLFAC
 40
1.0
  9
$DIMTOFL
 70
1
  9
$DIMTVP
 40
0.0
  9
$DIMTIX
 70
0
  9
$DIMSOXD
 70
0
  9
$DIMSAH
 70
0
  9
$DIMBLK1
  1

  9
$DIMBLK2
  1

  9
$DIMSTYLE
  2
ISO-25
  9
$DIMCLRD
 70
0
  9
$DIMCLRE
 70
0
  9
$DIMCLRT
 70
0
  9
$DIMTFAC
 40
1.0
  9
$DIMGAP
 40
0.625
  9
$COORDS
 70
1
  9
$ATTDIA
 70
0
  9
$ATTREQ
 70
1
  9
$HANDLING
 70
1
  9
$LUNITS
 70
2
  9
$LUPREC
 70
4
  9
$SKETCHINC
 40
1.0
  9
$FILLETRAD
 40
10.0
  9
$AUNITS
 70
0
  9
$AUPREC
 70
2
  9
$MENU
  1
.
  9
$ELEVATION
 40
0.0
  9
$PELEVATION
 40
0.0
  9
$THICKNESS
 40
0.0
  9
$LIMCHECK
 70
0
  9
$CHAMFERA
 40
0.0
  9
$CHAMFERB
 40
0.0
  9
$SKPOLY
 70
0
  9
$TDCREATE
 40
2461259.4353819443
  9
$TDUPDATE
 40
2461259.4353819443
  9
$TDINDWG
 40
0.0
  9
$TDUSRTIMER
 40
0.0
  9
$USRTIMER
 70
1
  9
$ANGBASE
 50
0.0
  9
$ANGDIR
 70
0
  9
$PDMODE
 70
0
  9
$PDSIZE
 40
0.0
  9
$PLINEWID
 40
0.0
  9
$SPLFRAME
 70
0
  9
$SPLINETYPE
 70
6
  9
$SPLINESEGS
 70
8
  9
$HANDSEED
  5
D3
  9
$SURFTAB1
 70
6
  9
$SURFTAB2
 70
6
  9
$SURFTYPE
 70
6
  9
$SURFU
 70
6
  9
$SURFV
 70
6
  9
$UCSNAME
  2

  9
$UCSORG
 10
0.0
 20
0.0
 30
0.0
  9
$UCSXDIR
 10
1.0
 20
0.0
 30
0.0
  9
$UCSYDIR
 10
0.0
 20
1.0
 30
0.0
  9
$PUCSNAME
  2

  9
$PUCSORG
 10
0.0
 20
0.0
 30
0.0
  9
$PUCSXDIR
 10
1.0
 20
0.0
 30
0.0
  9
$PUCSYDIR
 10
0.0
 20
1.0
 30
0.0
  9
$USERI1
 70
0
  9
$USERI2
 70
0
  9
$USERI3
 70
0
  9
$USERI4
 70
0
  9
$USERI5
 70
0
  9
$USERR1
 40
0.0
  9
$USERR2
 40
0.0
  9
$USERR3
 40
0.0
  9
$USERR4
 40
0.0
  9
$USERR5
 40
0.0
  9
$WORLDVIEW
 70
1
  9
$SHADEDGE
 70
3
  9
$SHADEDIF
 70
70
  9
$TILEMODE
 70
1
  9
$MAXACTVP
 70
64
  9
$PLIMCHECK
 70
0
  9
$PEXTMIN
 10
1e+20
 20
1e+20
 30
1e+20
  9
$PEXTMAX
 10
-1e+20
 20
-1e+20
 30
-1e+20
  9
$PLIMMIN
 10
0.0
 20
0.0
  9
$PLIMMAX
 10
420.0
 20
297.0
  9
$UNITMODE
 70
0
  9
$VISRETAIN
 70
1
  9
$PLINEGEN
 70
0
  9
$PSLTSCALE
 70
1
  0
ENDSEC
  0
SECTION
  2
TABLES
  0
TABLE
  2
VPORT
 70
1
  0
VPORT
  5
23
  2
*Active
 70
0
 10
0.0
 20
0.0
 11
1.0
 21
1.0
 12
0.0
 22
0.0
 13
0.0
 23
0.0
 14
0.5
 24
0.5
 15
0.5
 25
0.5
 16
0.0
 26
0.0
 36
1.0
 17
0.0
 27
0.0
 37
0.0
 40
1000.0
 41
1.34
 42
50.0
 43
0.0
 44
0.0
 50
0.0
 51
0.0
 71
0
 72
1000
 73
1
 74
3
 75
0
 76
0
 77
0
 78
0
  0
ENDTAB
  0
TABLE
  2
LTYPE
 70
3
  0
LTYPE
  5
24
  2
ByBlock
 70
0
  3

 72
65
 73
0
 40
0.0
  0
LTYPE
  5
25
  2
ByLayer
 70
0
  3

 72
65
 73
0
 40
0.0
  0
LTYPE
  5
26
  2
Continuous
 70
0
  3

 72
65
 73
0
 40
0.0
  0
ENDTAB
  0
TABLE
  2
LAYER
 70
4
  0
LAYER
  5
27
  2
0
 70
0
 62
7
  6
Continuous
  0
LAYER
  5
28
  2
Defpoints
 70
0
 62
7
  6
Continuous
  0
LAYER
  5
2D
  2
1
 70
0
 62
1
  6
Continuous
  0
LAYER
  5
2E
  2
7
 70
0
 62
7
  6
Continuous
  0
ENDTAB
  0
TABLE
  2
STYLE
 70
1
  0
STYLE
  5
29
  2
Standard
 70
0
 40
0.0
 41
1.0
 50
0.0
 71
0
 42
2.5
  3
txt
  4

  0
ENDTAB
  0
TABLE
  2
VIEW
 70
0
  0
ENDTAB
  0
TABLE
  2
UCS
 70
0
  0
ENDTAB
  0
TABLE
  2
APPID
 70
3
  0
APPID
  5
2A
  2
ACAD
 70
0
  0
APPID
  5
D1
  2
HATCHBACKGROUNDCOLOR
 70
0
  0
APPID
  5
D2
  2
EZDXF
 70
0
  0
ENDTAB
  0
TABLE
  2
DIMSTYLE
 70
1
  0
DIMSTYLE
105
2B
  2
Standard
 70
0
  3

  4

  5

  6

  7

 40
1.0
 41
2.5
 42
0.625
 43
3.75
 44
1.25
 45
0.0
 46
0.0
 47
0.0
 48
0.0
140
2.5
141
2.5
142
0.0
143
0.03937007874
144
1.0
145
0.0
146
1.0
147
0.625
 71
0
 72
0
 73
0
 74
0
 75
0
 76
0
 77
1
 78
8
170
0
171
3
172
1
173
0
174
0
175
0
176
0
177
0
178
0
  0
ENDTAB
  0
ENDSEC
  0
SECTION
  2
BLOCKS
  0
BLOCK
  5
18
  8
0
  2
$Model_Space
 70
0
 10
0.0
 20
0.0
 30
0.0
  3
$Model_Space
  1

1001
EZDXF
1000
CREATED_BY_EZDXF
1000
1.4.4 @ 2026-08-06T02:26:57.950764+00:00
1000
WRITTEN_BY_EZDXF
1000
1.4.4 @ 2026-08-06T02:26:57.952764+00:00
  0
ENDBLK
  5
19
  8
0
  0
BLOCK
  5
1C
  8
0
  2
$Paper_Space
 70
0
 10
0.0
 20
0.0
 30
0.0
  3
$Paper_Space
  1

  0
ENDBLK
  5
1D
  8
0
  0
ENDSEC
  0
SECTION
  2
ENTITIES
  0
POLYLINE
  5
2F
  8
1
 66
1
 10
0.0
 20
0.0
 30
0.0
 70
1
  0
VERTEX
  5
31
  8
1
 10
-2724.361877
 20
-190.952148
 30
0.0
 70
0
  0
VERTEX
  5
32
  8
1
 10
-2724.393311
 20
-190.952187
 30
0.0
 70
0
  0
VERTEX
  5
33
  8
1
 10
-2726.505143
 20
-190.950675
 30
0.0
 70
0
  0
VERTEX
  5
34
  8
1
 10
-2741.443567
 20
-190.865525
 30
0.0
 70
0
  0
VERTEX
  5
35
  8
1
 10
-2756.876879
 20
-190.653135
 30
0.0
 70
0
  0
VERTEX
  5
36
  8
1
 10
-2772.355911
 20
-190.272658
 30
0.0
 70
0
  0
VERTEX
  5
37
  8
1
 10
-2787.549713
 20
-189.729178
 30
0.0
 70
0
  0
VERTEX
  5
38
  8
1
 10
-2803.153136
 20
-189.029437
 30
0.0
 70
0
  0
VERTEX
  5
39
  8
1
 10
-2818.33495
 20
-188.222807
 30
0.0
 70
0
  0
VERTEX
  5
3A
  8
1
 10
-2833.383843
 20
-187.292347
 30
0.0
 70
0
  0
VERTEX
  5
3B
  8
1
 10
-2848.549085
 20
-186.21675
 30
0.0
 70
0
  0
VERTEX
  5
3C
  8
1
 10
-2864.046314
 20
-184.972328
 30
0.0
 70
0
  0
VERTEX
  5
3D
  8
1
 10
-2879.188538
 20
-183.610927
 30
0.0
 70
0
  0
VERTEX
  5
3E
  8
1
 10
-2894.281355
 20
-182.104151
 30
0.0
 70
0
  0
VERTEX
  5
3F
  8
1
 10
-2909.393214
 20
-180.438135
 30
0.0
 70
0
  0
VERTEX
  5
40
  8
1
 10
-2925.114667
 20
-178.528643
 30
0.0
 70
0
  0
VERTEX
  5
41
  8
1
 10
-2939.876468
 20
-176.562669
 30
0.0
 70
0
  0
VERTEX
  5
42
  8
1
 10
-2954.921619
 20
-174.374242
 30
0.0
 70
0
  0
VERTEX
  5
43
  8
1
 10
-2969.822176
 20
-172.010012
 30
0.0
 70
0
  0
VERTEX
  5
44
  8
1
 10
-2984.803746
 20
-169.421485
 30
0.0
 70
0
  0
VERTEX
  5
45
  8
1
 10
-2999.999761
 20
-166.564535
 30
0.0
 70
0
  0
VERTEX
  5
46
  8
1
 10
-3014.897188
 20
-163.528198
 30
0.0
 70
0
  0
VERTEX
  5
47
  8
1
 10
-3030.020948
 20
-160.20236
 30
0.0
 70
0
  0
VERTEX
  5
48
  8
1
 10
-3044.817109
 20
-156.704948
 30
0.0
 70
0
  0
VERTEX
  5
49
  8
1
 10
-3060.16828
 20
-152.811584
 30
0.0
 70
0
  0
VERTEX
  5
4A
  8
1
 10
-3074.443345
 20
-148.943925
 30
0.0
 70
0
  0
VERTEX
  5
4B
  8
1
 10
-3089.057838
 20
-144.751911
 30
0.0
 70
0
  0
VERTEX
  5
4C
  8
1
 10
-3103.653303
 20
-140.351067
 30
0.0
 70
0
  0
VERTEX
  5
4D
  8
1
 10
-3118.156113
 20
-135.789296
 30
0.0
 70
0
  0
VERTEX
  5
4E
  8
1
 10
-3132.464288
 20
-131.127993
 30
0.0
 70
0
  0
VERTEX
  5
4F
  8
1
 10
-3146.87151
 20
-126.271925
 30
0.0
 70
0
  0
VERTEX
  5
50
  8
1
 10
-3161.3524
 20
-121.199065
 30
0.0
 70
0
  0
VERTEX
  5
51
  8
1
 10
-3175.643238
 20
-116.012318
 30
0.0
 70
0
  0
VERTEX
  5
52
  8
1
 10
-3189.90285
 20
-110.738597
 30
0.0
 70
0
  0
VERTEX
  5
53
  8
1
 10
-3192.510681
 20
-109.770441
 30
0.0
 70
0
  0
VERTEX
  5
54
  8
1
 10
-3193.339233
 20
-109.463024
 30
0.0
 70
0
  0
VERTEX
  5
55
  8
1
 10
-3204.125995
 20
-105.458434
 30
0.0
 70
0
  0
VERTEX
  5
56
  8
1
 10
-3218.388724
 20
-100.162813
 30
0.0
 70
0
  0
VERTEX
  5
57
  8
1
 10
-3232.536958
 20
-94.909077
 30
0.0
 70
0
  0
VERTEX
  5
58
  8
1
 10
-3247.008155
 20
-89.534837
 30
0.0
 70
0
  0
VERTEX
  5
59
  8
1
 10
-3261.584778
 20
-84.120817
 30
0.0
 70
0
  0
VERTEX
  5
5A
  8
1
 10
-3257.254799
 20
-75.714251
 30
0.0
 70
0
  0
VERTEX
  5
5B
  8
1
 10
-3250.361543
 20
-62.331136
 30
0.0
 70
0
  0
VERTEX
  5
5C
  8
1
 10
-3243.355639
 20
-48.729305
 30
0.0
 70
0
  0
VERTEX
  5
5D
  8
1
 10
-3236.382317
 20
-35.190686
 30
0.0
 70
0
  0
VERTEX
  5
5E
  8
1
 10
-3235.066528
 20
-32.635987
 30
0.0
 70
0
  0
VERTEX
  5
5F
  8
1
 10
-3229.202576
 20
-21.251256
 30
0.0
 70
0
  0
VERTEX
  5
60
  8
1
 10
-3214.669354
 20
-26.614468
 30
0.0
 70
0
  0
VERTEX
  5
61
  8
1
 10
-3200.479155
 20
-31.852754
 30
0.0
 70
0
  0
VERTEX
  5
62
  8
1
 10
-3186.046921
 20
-37.181988
 30
0.0
 70
0
  0
VERTEX
  5
63
  8
1
 10
-3171.448817
 20
-42.574327
 30
0.0
 70
0
  0
VERTEX
  5
64
  8
1
 10
-3157.061639
 20
-47.890374
 30
0.0
 70
0
  0
VERTEX
  5
65
  8
1
 10
-3142.533224
 20
-53.21575
 30
0.0
 70
0
  0
VERTEX
  5
66
  8
1
 10
-3128.344347
 20
-58.263652
 30
0.0
 70
0
  0
VERTEX
  5
67
  8
1
 10
-3113.697165
 20
-63.252654
 30
0.0
 70
0
  0
VERTEX
  5
68
  8
1
 10
-3098.975299
 20
-68.078176
 30
0.0
 70
0
  0
VERTEX
  5
69
  8
1
 10
-3084.220932
 20
-72.741027
 30
0.0
 70
0
  0
VERTEX
  5
6A
  8
1
 10
-3069.569929
 20
-77.165123
 30
0.0
 70
0
  0
VERTEX
  5
6B
  8
1
 10
-3054.691337
 20
-81.415527
 30
0.0
 70
0
  0
VERTEX
  5
6C
  8
1
 10
-3040.483625
 20
-85.226396
 30
0.0
 70
0
  0
VERTEX
  5
6D
  8
1
 10
-3026.050033
 20
-88.842231
 30
0.0
 70
0
  0
VERTEX
  5
6E
  8
1
 10
-3011.558942
 20
-92.221189
 30
0.0
 70
0
  0
VERTEX
  5
6F
  8
1
 10
-2996.75989
 20
-95.421051
 30
0.0
 70
0
  0
VERTEX
  5
70
  8
1
 10
-2981.585598
 20
-98.450473
 30
0.0
 70
0
  0
VERTEX
  5
71
  8
1
 10
-2966.2827
 20
-101.262763
 30
0.0
 70
0
  0
VERTEX
  5
72
  8
1
 10
-2951.024358
 20
-103.836077
 30
0.0
 70
0
  0
VERTEX
  5
73
  8
1
 10
-2936.076697
 20
-106.141464
 30
0.0
 70
0
  0
VERTEX
  5
74
  8
1
 10
-2920.753037
 20
-108.291155
 30
0.0
 70
0
  0
VERTEX
  5
75
  8
1
 10
-2905.771319
 20
-110.191118
 30
0.0
 70
0
  0
VERTEX
  5
76
  8
1
 10
-2890.397036
 20
-111.941695
 30
0.0
 70
0
  0
VERTEX
  5
77
  8
1
 10
-2875.105304
 20
-113.49129
 30
0.0
 70
0
  0
VERTEX
  5
78
  8
1
 10
-2859.692821
 20
-114.865407
 30
0.0
 70
0
  0
VERTEX
  5
79
  8
1
 10
-2844.26115
 20
-116.056239
 30
0.0
 70
0
  0
VERTEX
  5
7A
  8
1
 10
-2828.821078
 20
-117.075181
 30
0.0
 70
0
  0
VERTEX
  5
7B
  8
1
 10
-2813.834714
 20
-117.917401
 30
0.0
 70
0
  0
VERTEX
  5
7C
  8
1
 10
-2798.378767
 20
-118.653813
 30
0.0
 70
0
  0
VERTEX
  5
7D
  8
1
 10
-2782.800716
 20
-119.279233
 30
0.0
 70
0
  0
VERTEX
  5
7E
  8
1
 10
-2767.335328
 20
-119.788453
 30
0.0
 70
0
  0
VERTEX
  5
7F
  8
1
 10
-2751.866737
 20
-120.179797
 30
0.0
 70
0
  0
VERTEX
  5
80
  8
1
 10
-2736.502273
 20
-120.44986
 30
0.0
 70
0
  0
VERTEX
  5
81
  8
1
 10
-2721.840236
 20
-120.625118
 30
0.0
 70
0
  0
VERTEX
  5
82
  8
1
 10
-2720.747986
 20
-120.637245
 30
0.0
 70
0
  0
VERTEX
  5
83
  8
1
 10
-2707.493667
 20
-120.617407
 30
0.0
 70
0
  0
VERTEX
  5
84
  8
1
 10
-2694.535154
 20
-120.352994
 30
0.0
 70
0
  0
VERTEX
  5
85
  8
1
 10
-2679.233021
 20
-119.784773
 30
0.0
 70
0
  0
VERTEX
  5
86
  8
1
 10
-2663.933259
 20
-119.109487
 30
0.0
 70
0
  0
VERTEX
  5
87
  8
1
 10
-2648.460941
 20
-118.464221
 30
0.0
 70
0
  0
VERTEX
  5
88
  8
1
 10
-2633.163756
 20
-117.797958
 30
0.0
 70
0
  0
VERTEX
  5
89
  8
1
 10
-2618.129108
 20
-116.993531
 30
0.0
 70
0
  0
VERTEX
  5
8A
  8
1
 10
-2602.849846
 20
-115.981671
 30
0.0
 70
0
  0
VERTEX
  5
8B
  8
1
 10
-2587.705659
 20
-114.775551
 30
0.0
 70
0
  0
VERTEX
  5
8C
  8
1
 10
-2572.457329
 20
-113.374404
 30
0.0
 70
0
  0
VERTEX
  5
8D
  8
1
 10
-2557.480255
 20
-111.836201
 30
0.0
 70
0
  0
VERTEX
  5
8E
  8
1
 10
-2542.266938
 20
-110.097198
 30
0.0
 70
0
  0
VERTEX
  5
8F
  8
1
 10
-2527.06768
 20
-108.160667
 30
0.0
 70
0
  0
VERTEX
  5
90
  8
1
 10
-2511.905257
 20
-106.021176
 30
0.0
 70
0
  0
VERTEX
  5
91
  8
1
 10
-2496.745009
 20
-103.669053
 30
0.0
 70
0
  0
VERTEX
  5
92
  8
1
 10
-2481.648038
 20
-101.10849
 30
0.0
 70
0
  0
VERTEX
  5
93
  8
1
 10
-2466.67947
 20
-98.346889
 30
0.0
 70
0
  0
VERTEX
  5
94
  8
1
 10
-2451.180821
 20
-95.241794
 30
0.0
 70
0
  0
VERTEX
  5
95
  8
1
 10
-2436.677738
 20
-92.097201
 30
0.0
 70
0
  0
VERTEX
  5
96
  8
1
 10
-2421.767698
 20
-88.608521
 30
0.0
 70
0
  0
VERTEX
  5
97
  8
1
 10
-2407.69304
 20
-85.065319
 30
0.0
 70
0
  0
VERTEX
  5
98
  8
1
 10
-2393.383753
 20
-81.212912
 30
0.0
 70
0
  0
VERTEX
  5
99
  8
1
 10
-2378.958119
 20
-77.079937
 30
0.0
 70
0
  0
VERTEX
  5
9A
  8
1
 10
-2364.299258
 20
-72.65308
 30
0.0
 70
0
  0
VERTEX
  5
9B
  8
1
 10
-2349.571372
 20
-68.007012
 30
0.0
 70
0
  0
VERTEX
  5
9C
  8
1
 10
-2334.556054
 20
-63.069274
 30
0.0
 70
0
  0
VERTEX
  5
9D
  8
1
 10
-2320.421954
 20
-58.23315
 30
0.0
 70
0
  0
VERTEX
  5
9E
  8
1
 10
-2305.990468
 20
-53.114312
 30
0.0
 70
0
  0
VERTEX
  5
9F
  8
1
 10
-2291.644374
 20
-47.86948
 30
0.0
 70
0
  0
VERTEX
  5
A0
  8
1
 10
-2277.285922
 20
-42.549461
 30
0.0
 70
0
  0
VERTEX
  5
A1
  8
1
 10
-2262.991847
 20
-37.264076
 30
0.0
 70
0
  0
VERTEX
  5
A2
  8
1
 10
-2248.625776
 20
-31.965
 30
0.0
 70
0
  0
VERTEX
  5
A3
  8
1
 10
-2234.387199
 20
-26.711448
 30
0.0
 70
0
  0
VERTEX
  5
A4
  8
1
 10
-2219.599609
 20
-21.251915
 30
0.0
 70
0
  0
VERTEX
  5
A5
  8
1
 10
-2213.738251
 20
-32.631867
 30
0.0
 70
0
  0
VERTEX
  5
A6
  8
1
 10
-2212.443641
 20
-35.145201
 30
0.0
 70
0
  0
VERTEX
  5
A7
  8
1
 10
-2205.421817
 20
-48.778069
 30
0.0
 70
0
  0
VERTEX
  5
A8
  8
1
 10
-2198.423445
 20
-62.365427
 30
0.0
 70
0
  0
VERTEX
  5
A9
  8
1
 10
-2191.555501
 20
-75.699574
 30
0.0
 70
0
  0
VERTEX
  5
AA
  8
1
 10
-2187.257538
 20
-84.044094
 30
0.0
 70
0
  0
VERTEX
  5
AB
  8
1
 10
-2201.952544
 20
-89.518414
 30
0.0
 70
0
  0
VERTEX
  5
AC
  8
1
 10
-2216.378887
 20
-94.893412
 30
0.0
 70
0
  0
VERTEX
  5
AD
  8
1
 10
-2230.650325
 20
-100.211397
 30
0.0
 70
0
  0
VERTEX
  5
AE
  8
1
 10
-2245.116091
 20
-105.602589
 30
0.0
 70
0
  0
VERTEX
  5
AF
  8
1
 10
-2257.714386
 20
-110.298548
 30
0.0
 70
0
  0
VERTEX
  5
B0
  8
1
 10
-2259.366997
 20
-110.914617
 30
0.0
 70
0
  0
VERTEX
  5
B1
  8
1
 10
-2273.856244
 20
-116.291951
 30
0.0
 70
0
  0
VERTEX
  5
B2
  8
1
 10
-2288.383021
 20
-121.565194
 30
0.0
 70
0
  0
VERTEX
  5
B3
  8
1
 10
-2303.052414
 20
-126.687047
 30
0.0
 70
0
  0
VERTEX
  5
B4
  8
1
 10
-2317.702531
 20
-131.609897
 30
0.0
 70
0
  0
VERTEX
  5
B5
  8
1
 10
-2332.374155
 20
-136.374804
 30
0.0
 70
0
  0
VERTEX
  5
B6
  8
1
 10
-2347.124359
 20
-140.987594
 30
0.0
 70
0
  0
VERTEX
  5
B7
  8
1
 10
-2361.582361
 20
-145.312948
 30
0.0
 70
0
  0
VERTEX
  5
B8
  8
1
 10
-2376.450018
 20
-149.533175
 30
0.0
 70
0
  0
VERTEX
  5
B9
  8
1
 10
-2391.057354
 20
-153.431269
 30
0.0
 70
0
  0
VERTEX
  5
BA
  8
1
 10
-2406.052381
 20
-157.174361
 30
0.0
 70
0
  0
VERTEX
  5
BB
  8
1
 10
-2421.097952
 20
-160.679421
 30
0.0
 70
0
  0
VERTEX
  5
BC
  8
1
 10
-2436.200825
 20
-163.959141
 30
0.0
 70
0
  0
VERTEX
  5
BD
  8
1
 10
-2450.936141
 20
-166.942507
 30
0.0
 70
0
  0
VERTEX
  5
BE
  8
1
 10
-2466.123385
 20
-169.805987
 30
0.0
 70
0
  0
VERTEX
  5
BF
  8
1
 10
-2480.901821
 20
-172.396462
 30
0.0
 70
0
  0
VERTEX
  5
C0
  8
1
 10
-2496.156597
 20
-174.874958
 30
0.0
 70
0
  0
VERTEX
  5
C1
  8
1
 10
-2510.990991
 20
-177.098501
 30
0.0
 70
0
  0
VERTEX
  5
C2
  8
1
 10
-2526.301571
 20
-179.204509
 30
0.0
 70
0
  0
VERTEX
  5
C3
  8
1
 10
-2541.770436
 20
-181.141947
 30
0.0
 70
0
  0
VERTEX
  5
C4
  8
1
 10
-2557.127094
 20
-182.880342
 30
0.0
 70
0
  0
VERTEX
  5
C5
  8
1
 10
-2572.632201
 20
-184.452545
 30
0.0
 70
0
  0
VERTEX
  5
C6
  8
1
 10
-2588.024967
 20
-185.835418
 30
0.0
 70
0
  0
VERTEX
  5
C7
  8
1
 10
-2603.554693
 20
-187.054886
 30
0.0
 70
0
  0
VERTEX
  5
C8
  8
1
 10
-2618.974457
 20
-188.094445
 30
0.0
 70
0
  0
VERTEX
  5
C9
  8
1
 10
-2634.516208
 20
-188.972531
 30
0.0
 70
0
  0
VERTEX
  5
CA
  8
1
 10
-2649.954602
 20
-189.680598
 30
0.0
 70
0
  0
VERTEX
  5
CB
  8
1
 10
-2665.495392
 20
-190.233228
 30
0.0
 70
0
  0
VERTEX
  5
CC
  8
1
 10
-2680.945196
 20
-190.62193
 30
0.0
 70
0
  0
VERTEX
  5
CD
  8
1
 10
-2696.349255
 20
-190.84851
 30
0.0
 70
0
  0
VERTEX
  5
CE
  8
1
 10
-2711.544731
 20
-190.947811
 30
0.0
 70
0
  0
VERTEX
  5
CF
  8
1
 10
-2724.412537
 20
-190.952206
 30
0.0
 70
0
  0
SEQEND
  5
30
  8
1
  0
LINE
  5
D0
  8
7
 10
-2722.257385
 20
-137.799463
 30
0.0
 11
-2722.257385
 21
-173.759098
 31
0.0
  0
ENDSEC
  0
EOF
