  0
SECTION
  2
HEADER
  9
$ACADVER
  1
AC1009
  9
$DWGCODEPAGE
  3
ANSI_1252
  9
$INSBASE
 10
0.0
 20
0.0
 30
0.0
  9
$EXTMIN
 10
1e+20
 20
1e+20
 30
1e+20
  9
$EXTMAX
 10
-1e+20
 20
-1e+20
 30
-1e+20
  9
$LIMMIN
 10
0.0
 20
0.0
  9
$LIMMAX
 10
420.0
 20
297.0
  9
$ORTHOMODE
 70
0
  9
$REGENMODE
 70
1
  9
$FILLMODE
 70
1
  9
$DRAGMODE
 70
2
  9
$QTEXTMODE
 70
0
  9
$MIRRTEXT
 70
1
  9
$OSMODE
 70
20583
  9
$LTSCALE
 40
1.0
  9
$ATTMODE
 70
1
  9
$TEXTSIZE
 40
2.5
  9
$TRACEWID
 40
1.0
  9
$TEXTSTYLE
  7
Standard
  9
$CLAYER
  8
0
  9
$CELTYPE
  6
ByLayer
  9
$CECOLOR
 62
256
  9
$DIMSCALE
 40
1.0
  9
$DIMASZ
 40
2.5
  9
$DIMEXO
 40
0.625
  9
$DIMDLI
 40
3.75
  9
$DIMRND
 40
0.0
  9
$DIMDLE
 40
0.0
  9
$DIMEXE
 40
1.25
  9
$DIMTP
 40
0.0
  9
$DIMTM
 40
0.0
  9
$DIMTXT
 40
2.5
  9
$DIMCEN
 40
2.5
  9
$DIMTSZ
 40
0.0
  9
$DIMTOL
 70
0
  9
$DIMLIM
 70
0
  9
$DIMTIH
 70
0
  9
$DIMTOH
 70
0
  9
$DIMSE1
 70
0
  9
$DIMSE2
 70
0
  9
$DIMTAD
 70
1
  9
$DIMZIN
 70
8
  9
$DIMBLK
  1

  9
$DIMASO
 70
1
  9
$DIMSHO
 70
1
  9
$DIMPOST
  1

  9
$DIMAPOST
  1

  9
$DIMALT
 70
0
  9
$DIMALTD
 70
3
  9
$DIMALTF
 40
0.03937007874
  9
$DIMLFAC
 40
1.0
  9
$DIMTOFL
 70
1
  9
$DIMTVP
 40
0.0
  9
$DIMTIX
 70
0
  9
$DIMSOXD
 70
0
  9
$DIMSAH
 70
0
  9
$DIMBLK1
  1

  9
$DIMBLK2
  1

  9
$DIMSTYLE
  2
ISO-25
  9
$DIMCLRD
 70
0
  9
$DIMCLRE
 70
0
  9
$DIMCLRT
 70
0
  9
$DIMTFAC
 40
1.0
  9
$DIMGAP
 40
0.625
  9
$COORDS
 70
1
  9
$ATTDIA
 70
0
  9
$ATTREQ
 70
1
  9
$HANDLING
 70
1
  9
$LUNITS
 70
2
  9
$LUPREC
 70
4
  9
$SKETCHINC
 40
1.0
  9
$FILLETRAD
 40
10.0
  9
$AUNITS
 70
0
  9
$AUPREC
 70
2
  9
$MENU
  1
.
  9
$ELEVATION
 40
0.0
  9
$PELEVATION
 40
0.0
  9
$THICKNESS
 40
0.0
  9
$LIMCHECK
 70
0
  9
$CHAMFERA
 40
0.0
  9
$CHAMFERB
 40
0.0
  9
$SKPOLY
 70
0
  9
$TDCREATE
 40
2461264.9423032408
  9
$TDUPDATE
 40
2461264.9423032408
  9
$TDINDWG
 40
0.0
  9
$TDUSRTIMER
 40
0.0
  9
$USRTIMER
 70
1
  9
$ANGBASE
 50
0.0
  9
$ANGDIR
 70
0
  9
$PDMODE
 70
0
  9
$PDSIZE
 40
0.0
  9
$PLINEWID
 40
0.0
  9
$SPLFRAME
 70
0
  9
$SPLINETYPE
 70
6
  9
$SPLINESEGS
 70
8
  9
$HANDSEED
  5
193
  9
$SURFTAB1
 70
6
  9
$SURFTAB2
 70
6
  9
$SURFTYPE
 70
6
  9
$SURFU
 70
6
  9
$SURFV
 70
6
  9
$UCSNAME
  2

  9
$UCSORG
 10
0.0
 20
0.0
 30
0.0
  9
$UCSXDIR
 10
1.0
 20
0.0
 30
0.0
  9
$UCSYDIR
 10
0.0
 20
1.0
 30
0.0
  9
$PUCSNAME
  2

  9
$PUCSORG
 10
0.0
 20
0.0
 30
0.0
  9
$PUCSXDIR
 10
1.0
 20
0.0
 30
0.0
  9
$PUCSYDIR
 10
0.0
 20
1.0
 30
0.0
  9
$USERI1
 70
0
  9
$USERI2
 70
0
  9
$USERI3
 70
0
  9
$USERI4
 70
0
  9
$USERI5
 70
0
  9
$USERR1
 40
0.0
  9
$USERR2
 40
0.0
  9
$USERR3
 40
0.0
  9
$USERR4
 40
0.0
  9
$USERR5
 40
0.0
  9
$WORLDVIEW
 70
1
  9
$SHADEDGE
 70
3
  9
$SHADEDIF
 70
70
  9
$TILEMODE
 70
1
  9
$MAXACTVP
 70
64
  9
$PLIMCHECK
 70
0
  9
$PEXTMIN
 10
1e+20
 20
1e+20
 30
1e+20
  9
$PEXTMAX
 10
-1e+20
 20
-1e+20
 30
-1e+20
  9
$PLIMMIN
 10
0.0
 20
0.0
  9
$PLIMMAX
 10
420.0
 20
297.0
  9
$UNITMODE
 70
0
  9
$VISRETAIN
 70
1
  9
$PLINEGEN
 70
0
  9
$PSLTSCALE
 70
1
  0
ENDSEC
  0
SECTION
  2
TABLES
  0
TABLE
  2
VPORT
 70
1
  0
VPORT
  5
23
  2
*Active
 70
0
 10
0.0
 20
0.0
 11
1.0
 21
1.0
 12
0.0
 22
0.0
 13
0.0
 23
0.0
 14
0.5
 24
0.5
 15
0.5
 25
0.5
 16
0.0
 26
0.0
 36
1.0
 17
0.0
 27
0.0
 37
0.0
 40
1000.0
 41
1.34
 42
50.0
 43
0.0
 44
0.0
 50
0.0
 51
0.0
 71
0
 72
1000
 73
1
 74
3
 75
0
 76
0
 77
0
 78
0
  0
ENDTAB
  0
TABLE
  2
LTYPE
 70
3
  0
LTYPE
  5
24
  2
ByBlock
 70
0
  3

 72
65
 73
0
 40
0.0
  0
LTYPE
  5
25
  2
ByLayer
 70
0
  3

 72
65
 73
0
 40
0.0
  0
LTYPE
  5
26
  2
Continuous
 70
0
  3

 72
65
 73
0
 40
0.0
  0
ENDTAB
  0
TABLE
  2
LAYER
 70
7
  0
LAYER
  5
27
  2
0
 70
0
 62
7
  6
Continuous
  0
LAYER
  5
28
  2
Defpoints
 70
0
 62
7
  6
Continuous
  0
LAYER
  5
2D
  2
1
 70
0
 62
1
  6
Continuous
  0
LAYER
  5
2E
  2
7
 70
0
 62
7
  6
Continuous
  0
LAYER
  5
2F
  2
14
 70
0
 62
3
  6
Continuous
  0
LAYER
  5
30
  2
8
 70
0
 62
6
  6
Continuous
  0
LAYER
  5
31
  2
4
 70
0
 62
2
  6
Continuous
  0
ENDTAB
  0
TABLE
  2
STYLE
 70
1
  0
STYLE
  5
29
  2
Standard
 70
0
 40
0.0
 41
1.0
 50
0.0
 71
0
 42
2.5
  3
txt
  4

  0
ENDTAB
  0
TABLE
  2
VIEW
 70
0
  0
ENDTAB
  0
TABLE
  2
UCS
 70
0
  0
ENDTAB
  0
TABLE
  2
APPID
 70
3
  0
APPID
  5
2A
  2
ACAD
 70
0
  0
APPID
  5
191
  2
HATCHBACKGROUNDCOLOR
 70
0
  0
APPID
  5
192
  2
EZDXF
 70
0
  0
ENDTAB
  0
TABLE
  2
DIMSTYLE
 70
1
  0
DIMSTYLE
105
2B
  2
Standard
 70
0
  3

  4

  5

  6

  7

 40
1.0
 41
2.5
 42
0.625
 43
3.75
 44
1.25
 45
0.0
 46
0.0
 47
0.0
 48
0.0
140
2.5
141
2.5
142
0.0
143
0.03937007874
144
1.0
145
0.0
146
1.0
147
0.625
 71
0
 72
0
 73
0
 74
0
 75
0
 76
0
 77
1
 78
8
170
0
171
3
172
1
173
0
174
0
175
0
176
0
177
0
178
0
  0
ENDTAB
  0
ENDSEC
  0
SECTION
  2
BLOCKS
  0
BLOCK
  5
18
  8
0
  2
$Model_Space
 70
0
 10
0.0
 20
0.0
 30
0.0
  3
$Model_Space
  1

1001
EZDXF
1000
CREATED_BY_EZDXF
1000
1.4.4 @ 2026-08-11T14:36:55.795217+00:00
1000
WRITTEN_BY_EZDXF
1000
1.4.4 @ 2026-08-11T14:36:55.798216+00:00
  0
ENDBLK
  5
19
  8
0
  0
BLOCK
  5
1C
  8
0
  2
$Paper_Space
 70
0
 10
0.0
 20
0.0
 30
0.0
  3
$Paper_Space
  1

  0
ENDBLK
  5
1D
  8
0
  0
ENDSEC
  0
SECTION
  2
ENTITIES
  0
POLYLINE
  5
32
  8
1
 66
1
 10
0.0
 20
0.0
 30
0.0
 70
1
  0
VERTEX
  5
34
  8
1
 10
-2724.424438
 20
-200.478249
 30
0.0
 70
0
  0
VERTEX
  5
35
  8
1
 10
-2724.29718
 20
-200.4772
 30
0.0
 70
0
  0
VERTEX
  5
36
  8
1
 10
-2734.850695
 20
-200.563825
 30
0.0
 70
0
  0
VERTEX
  5
37
  8
1
 10
-2750.117182
 20
-200.593981
 30
0.0
 70
0
  0
VERTEX
  5
38
  8
1
 10
-2765.585571
 20
-200.48169
 30
0.0
 70
0
  0
VERTEX
  5
39
  8
1
 10
-2780.894224
 20
-200.209917
 30
0.0
 70
0
  0
VERTEX
  5
3A
  8
1
 10
-2795.976205
 20
-199.817776
 30
0.0
 70
0
  0
VERTEX
  5
3B
  8
1
 10
-2811.278709
 20
-199.309795
 30
0.0
 70
0
  0
VERTEX
  5
3C
  8
1
 10
-2826.482526
 20
-198.689977
 30
0.0
 70
0
  0
VERTEX
  5
3D
  8
1
 10
-2841.775357
 20
-197.947099
 30
0.0
 70
0
  0
VERTEX
  5
3E
  8
1
 10
-2857.188497
 20
-197.076787
 30
0.0
 70
0
  0
VERTEX
  5
3F
  8
1
 10
-2872.467733
 20
-196.091947
 30
0.0
 70
0
  0
VERTEX
  5
40
  8
1
 10
-2887.577126
 20
-194.995161
 30
0.0
 70
0
  0
VERTEX
  5
41
  8
1
 10
-2902.838104
 20
-193.759211
 30
0.0
 70
0
  0
VERTEX
  5
42
  8
1
 10
-2917.795721
 20
-192.418073
 30
0.0
 70
0
  0
VERTEX
  5
43
  8
1
 10
-2933.032642
 20
-190.914267
 30
0.0
 70
0
  0
VERTEX
  5
44
  8
1
 10
-2948.066338
 20
-189.288028
 30
0.0
 70
0
  0
VERTEX
  5
45
  8
1
 10
-2963.271699
 20
-187.492124
 30
0.0
 70
0
  0
VERTEX
  5
46
  8
1
 10
-2978.371684
 20
-185.550287
 30
0.0
 70
0
  0
VERTEX
  5
47
  8
1
 10
-2993.535477
 20
-183.43183
 30
0.0
 70
0
  0
VERTEX
  5
48
  8
1
 10
-3008.404431
 20
-181.179063
 30
0.0
 70
0
  0
VERTEX
  5
49
  8
1
 10
-3023.513637
 20
-178.70073
 30
0.0
 70
0
  0
VERTEX
  5
4A
  8
1
 10
-3038.371258
 20
-176.068659
 30
0.0
 70
0
  0
VERTEX
  5
4B
  8
1
 10
-3053.411217
 20
-173.199824
 30
0.0
 70
0
  0
VERTEX
  5
4C
  8
1
 10
-3068.399083
 20
-170.132114
 30
0.0
 70
0
  0
VERTEX
  5
4D
  8
1
 10
-3083.356134
 20
-166.858278
 30
0.0
 70
0
  0
VERTEX
  5
4E
  8
1
 10
-3098.41103
 20
-163.342222
 30
0.0
 70
0
  0
VERTEX
  5
4F
  8
1
 10
-3113.270422
 20
-159.650324
 30
0.0
 70
0
  0
VERTEX
  5
50
  8
1
 10
-3127.861881
 20
-155.812148
 30
0.0
 70
0
  0
VERTEX
  5
51
  8
1
 10
-3142.616797
 20
-151.722933
 30
0.0
 70
0
  0
VERTEX
  5
52
  8
1
 10
-3157.262266
 20
-147.473888
 30
0.0
 70
0
  0
VERTEX
  5
53
  8
1
 10
-3171.920526
 20
-143.051178
 30
0.0
 70
0
  0
VERTEX
  5
54
  8
1
 10
-3186.324655
 20
-138.561851
 30
0.0
 70
0
  0
VERTEX
  5
55
  8
1
 10
-3200.903824
 20
-133.884525
 30
0.0
 70
0
  0
VERTEX
  5
56
  8
1
 10
-3215.237952
 20
-129.132325
 30
0.0
 70
0
  0
VERTEX
  5
57
  8
1
 10
-3229.719679
 20
-124.16216
 30
0.0
 70
0
  0
VERTEX
  5
58
  8
1
 10
-3243.867332
 20
-119.17278
 30
0.0
 70
0
  0
VERTEX
  5
59
  8
1
 10
-3258.277232
 20
-113.998265
 30
0.0
 70
0
  0
VERTEX
  5
5A
  8
1
 10
-3261.025696
 20
-113.004007
 30
0.0
 70
0
  0
VERTEX
  5
5B
  8
1
 10
-3261.7453
 20
-112.744999
 30
0.0
 70
0
  0
VERTEX
  5
5C
  8
1
 10
-3272.793079
 20
-108.746973
 30
0.0
 70
0
  0
VERTEX
  5
5D
  8
1
 10
-3287.192893
 20
-103.544592
 30
0.0
 70
0
  0
VERTEX
  5
5E
  8
1
 10
-3301.365785
 20
-98.430078
 30
0.0
 70
0
  0
VERTEX
  5
5F
  8
1
 10
-3315.64835
 20
-93.27333
 30
0.0
 70
0
  0
VERTEX
  5
60
  8
1
 10
-3330.402832
 20
-87.942858
 30
0.0
 70
0
  0
VERTEX
  5
61
  8
1
 10
-3325.96811
 20
-79.333116
 30
0.0
 70
0
  0
VERTEX
  5
62
  8
1
 10
-3319.08972
 20
-65.979055
 30
0.0
 70
0
  0
VERTEX
  5
63
  8
1
 10
-3312.085587
 20
-52.380716
 30
0.0
 70
0
  0
VERTEX
  5
64
  8
1
 10
-3305.12625
 20
-38.869162
 30
0.0
 70
0
  0
VERTEX
  5
65
  8
1
 10
-3303.898926
 20
-36.486518
 30
0.0
 70
0
  0
VERTEX
  5
66
  8
1
 10
-3298.027954
 20
-25.087671
 30
0.0
 70
0
  0
VERTEX
  5
67
  8
1
 10
-3283.471418
 20
-30.30355
 30
0.0
 70
0
  0
VERTEX
  5
68
  8
1
 10
-3269.332134
 20
-35.367234
 30
0.0
 70
0
  0
VERTEX
  5
69
  8
1
 10
-3254.925189
 20
-40.525447
 30
0.0
 70
0
  0
VERTEX
  5
6A
  8
1
 10
-3240.645582
 20
-45.648296
 30
0.0
 70
0
  0
VERTEX
  5
6B
  8
1
 10
-3226.244702
 20
-50.823589
 30
0.0
 70
0
  0
VERTEX
  5
6C
  8
1
 10
-3211.826279
 20
-55.949685
 30
0.0
 70
0
  0
VERTEX
  5
6D
  8
1
 10
-3197.595117
 20
-60.885977
 30
0.0
 70
0
  0
VERTEX
  5
6E
  8
1
 10
-3183.089727
 20
-65.761077
 30
0.0
 70
0
  0
VERTEX
  5
6F
  8
1
 10
-3168.58984
 20
-70.462632
 30
0.0
 70
0
  0
VERTEX
  5
70
  8
1
 10
-3153.986052
 20
-75.034826
 30
0.0
 70
0
  0
VERTEX
  5
71
  8
1
 10
-3139.20231
 20
-79.507132
 30
0.0
 70
0
  0
VERTEX
  5
72
  8
1
 10
-3124.50746
 20
-83.777155
 30
0.0
 70
0
  0
VERTEX
  5
73
  8
1
 10
-3109.781251
 20
-87.855177
 30
0.0
 70
0
  0
VERTEX
  5
74
  8
1
 10
-3094.978093
 20
-91.733993
 30
0.0
 70
0
  0
VERTEX
  5
75
  8
1
 10
-3080.116171
 20
-95.393574
 30
0.0
 70
0
  0
VERTEX
  5
76
  8
1
 10
-3065.204131
 20
-98.830442
 30
0.0
 70
0
  0
VERTEX
  5
77
  8
1
 10
-3050.051905
 20
-102.087678
 30
0.0
 70
0
  0
VERTEX
  5
78
  8
1
 10
-3035.046766
 20
-105.09176
 30
0.0
 70
0
  0
VERTEX
  5
79
  8
1
 10
-3019.956842
 20
-107.902888
 30
0.0
 70
0
  0
VERTEX
  5
7A
  8
1
 10
-3004.877685
 20
-110.510041
 30
0.0
 70
0
  0
VERTEX
  5
7B
  8
1
 10
-2989.881531
 20
-112.909495
 30
0.0
 70
0
  0
VERTEX
  5
7C
  8
1
 10
-2974.742527
 20
-115.142625
 30
0.0
 70
0
  0
VERTEX
  5
7D
  8
1
 10
-2959.82269
 20
-117.16333
 30
0.0
 70
0
  0
VERTEX
  5
7E
  8
1
 10
-2944.635684
 20
-119.04204
 30
0.0
 70
0
  0
VERTEX
  5
7F
  8
1
 10
-2929.66956
 20
-120.722888
 30
0.0
 70
0
  0
VERTEX
  5
80
  8
1
 10
-2914.444722
 20
-122.265583
 30
0.0
 70
0
  0
VERTEX
  5
81
  8
1
 10
-2899.183133
 20
-123.648845
 30
0.0
 70
0
  0
VERTEX
  5
82
  8
1
 10
-2883.929271
 20
-124.870829
 30
0.0
 70
0
  0
VERTEX
  5
83
  8
1
 10
-2868.524417
 20
-125.944932
 30
0.0
 70
0
  0
VERTEX
  5
84
  8
1
 10
-2853.249181
 20
-126.860923
 30
0.0
 70
0
  0
VERTEX
  5
85
  8
1
 10
-2838.213178
 20
-127.628985
 30
0.0
 70
0
  0
VERTEX
  5
86
  8
1
 10
-2822.924644
 20
-128.285966
 30
0.0
 70
0
  0
VERTEX
  5
87
  8
1
 10
-2807.485376
 20
-128.835333
 30
0.0
 70
0
  0
VERTEX
  5
88
  8
1
 10
-2792.189268
 20
-129.281637
 30
0.0
 70
0
  0
VERTEX
  5
89
  8
1
 10
-2776.954002
 20
-129.639994
 30
0.0
 70
0
  0
VERTEX
  5
8A
  8
1
 10
-2761.653674
 20
-129.90037
 30
0.0
 70
0
  0
VERTEX
  5
8B
  8
1
 10
-2746.513193
 20
-130.049538
 30
0.0
 70
0
  0
VERTEX
  5
8C
  8
1
 10
-2731.511662
 20
-130.115792
 30
0.0
 70
0
  0
VERTEX
  5
8D
  8
1
 10
-2724.636841
 20
-130.12084
 30
0.0
 70
0
  0
VERTEX
  5
8E
  8
1
 10
-2715.308327
 20
-130.288308
 30
0.0
 70
0
  0
VERTEX
  5
8F
  8
1
 10
-2702.651732
 20
-130.346192
 30
0.0
 70
0
  0
VERTEX
  5
90
  8
1
 10
-2687.846479
 20
-130.13518
 30
0.0
 70
0
  0
VERTEX
  5
91
  8
1
 10
-2672.494512
 20
-129.713723
 30
0.0
 70
0
  0
VERTEX
  5
92
  8
1
 10
-2657.19606
 20
-129.22002
 30
0.0
 70
0
  0
VERTEX
  5
93
  8
1
 10
-2641.848931
 20
-128.719919
 30
0.0
 70
0
  0
VERTEX
  5
94
  8
1
 10
-2626.761286
 20
-128.230399
 30
0.0
 70
0
  0
VERTEX
  5
95
  8
1
 10
-2611.415509
 20
-127.67678
 30
0.0
 70
0
  0
VERTEX
  5
96
  8
1
 10
-2596.339628
 20
-126.968278
 30
0.0
 70
0
  0
VERTEX
  5
97
  8
1
 10
-2581.011532
 20
-126.044664
 30
0.0
 70
0
  0
VERTEX
  5
98
  8
1
 10
-2565.780399
 20
-124.960232
 30
0.0
 70
0
  0
VERTEX
  5
99
  8
1
 10
-2550.474625
 20
-123.722842
 30
0.0
 70
0
  0
VERTEX
  5
9A
  8
1
 10
-2535.426703
 20
-122.363072
 30
0.0
 70
0
  0
VERTEX
  5
9B
  8
1
 10
-2520.147732
 20
-120.829225
 30
0.0
 70
0
  0
VERTEX
  5
9C
  8
1
 10
-2505.123617
 20
-119.155371
 30
0.0
 70
0
  0
VERTEX
  5
9D
  8
1
 10
-2489.882699
 20
-117.280582
 30
0.0
 70
0
  0
VERTEX
  5
9E
  8
1
 10
-2474.651477
 20
-115.22619
 30
0.0
 70
0
  0
VERTEX
  5
9F
  8
1
 10
-2459.459008
 20
-112.99216
 30
0.0
 70
0
  0
VERTEX
  5
A0
  8
1
 10
-2444.250617
 20
-110.564081
 30
0.0
 70
0
  0
VERTEX
  5
A1
  8
1
 10
-2429.118656
 20
-107.951463
 30
0.0
 70
0
  0
VERTEX
  5
A2
  8
1
 10
-2414.151367
 20
-105.168092
 30
0.0
 70
0
  0
VERTEX
  5
A3
  8
1
 10
-2399.093246
 20
-102.158634
 30
0.0
 70
0
  0
VERTEX
  5
A4
  8
1
 10
-2383.989583
 20
-98.917404
 30
0.0
 70
0
  0
VERTEX
  5
A5
  8
1
 10
-2369.024418
 20
-95.475076
 30
0.0
 70
0
  0
VERTEX
  5
A6
  8
1
 10
-2354.444071
 20
-91.891368
 30
0.0
 70
0
  0
VERTEX
  5
A7
  8
1
 10
-2339.58719
 20
-88.008067
 30
0.0
 70
0
  0
VERTEX
  5
A8
  8
1
 10
-2325.025269
 20
-83.984437
 30
0.0
 70
0
  0
VERTEX
  5
A9
  8
1
 10
-2310.276837
 20
-79.708323
 30
0.0
 70
0
  0
VERTEX
  5
AA
  8
1
 10
-2295.839809
 20
-75.349593
 30
0.0
 70
0
  0
VERTEX
  5
AB
  8
1
 10
-2281.184252
 20
-70.765555
 30
0.0
 70
0
  0
VERTEX
  5
AC
  8
1
 10
-2266.472488
 20
-66.011106
 30
0.0
 70
0
  0
VERTEX
  5
AD
  8
1
 10
-2251.910004
 20
-61.139377
 30
0.0
 70
0
  0
VERTEX
  5
AE
  8
1
 10
-2237.252588
 20
-56.047661
 30
0.0
 70
0
  0
VERTEX
  5
AF
  8
1
 10
-2222.787524
 20
-50.893935
 30
0.0
 70
0
  0
VERTEX
  5
B0
  8
1
 10
-2208.248988
 20
-45.681005
 30
0.0
 70
0
  0
VERTEX
  5
B1
  8
1
 10
-2193.768834
 20
-40.490768
 30
0.0
 70
0
  0
VERTEX
  5
B2
  8
1
 10
-2179.521371
 20
-35.38566
 30
0.0
 70
0
  0
VERTEX
  5
B3
  8
1
 10
-2165.261811
 20
-30.277737
 30
0.0
 70
0
  0
VERTEX
  5
B4
  8
1
 10
-2150.773621
 20
-25.089555
 30
0.0
 70
0
  0
VERTEX
  5
B5
  8
1
 10
-2144.910736
 20
-36.47249
 30
0.0
 70
0
  0
VERTEX
  5
B6
  8
1
 10
-2143.49009
 20
-39.230518
 30
0.0
 70
0
  0
VERTEX
  5
B7
  8
1
 10
-2136.466495
 20
-52.866842
 30
0.0
 70
0
  0
VERTEX
  5
B8
  8
1
 10
-2129.470399
 20
-66.449777
 30
0.0
 70
0
  0
VERTEX
  5
B9
  8
1
 10
-2122.468939
 20
-80.04305
 30
0.0
 70
0
  0
VERTEX
  5
BA
  8
1
 10
-2118.440857
 20
-87.863503
 30
0.0
 70
0
  0
VERTEX
  5
BB
  8
1
 10
-2133.253981
 20
-93.233048
 30
0.0
 70
0
  0
VERTEX
  5
BC
  8
1
 10
-2147.585465
 20
-98.425056
 30
0.0
 70
0
  0
VERTEX
  5
BD
  8
1
 10
-2161.747577
 20
-103.553787
 30
0.0
 70
0
  0
VERTEX
  5
BE
  8
1
 10
-2176.190749
 20
-108.792726
 30
0.0
 70
0
  0
VERTEX
  5
BF
  8
1
 10
-2189.308167
 20
-113.560286
 30
0.0
 70
0
  0
VERTEX
  5
C0
  8
1
 10
-2190.698565
 20
-114.064703
 30
0.0
 70
0
  0
VERTEX
  5
C1
  8
1
 10
-2205.152749
 20
-119.273275
 30
0.0
 70
0
  0
VERTEX
  5
C2
  8
1
 10
-2219.603212
 20
-124.373966
 30
0.0
 70
0
  0
VERTEX
  5
C3
  8
1
 10
-2234.136683
 20
-129.357417
 30
0.0
 70
0
  0
VERTEX
  5
C4
  8
1
 10
-2248.682373
 20
-134.174783
 30
0.0
 70
0
  0
VERTEX
  5
C5
  8
1
 10
-2263.313332
 20
-138.864716
 30
0.0
 70
0
  0
VERTEX
  5
C6
  8
1
 10
-2277.755418
 20
-143.358887
 30
0.0
 70
0
  0
VERTEX
  5
C7
  8
1
 10
-2292.468714
 20
-147.782996
 30
0.0
 70
0
  0
VERTEX
  5
C8
  8
1
 10
-2306.920359
 20
-151.953771
 30
0.0
 70
0
  0
VERTEX
  5
C9
  8
1
 10
-2321.733268
 20
-156.03297
 30
0.0
 70
0
  0
VERTEX
  5
CA
  8
1
 10
-2336.652168
 20
-159.927912
 30
0.0
 70
0
  0
VERTEX
  5
CB
  8
1
 10
-2351.570952
 20
-163.601105
 30
0.0
 70
0
  0
VERTEX
  5
CC
  8
1
 10
-2366.435436
 20
-167.037718
 30
0.0
 70
0
  0
VERTEX
  5
CD
  8
1
 10
-2381.450621
 20
-170.294903
 30
0.0
 70
0
  0
VERTEX
  5
CE
  8
1
 10
-2396.353214
 20
-173.329546
 30
0.0
 70
0
  0
VERTEX
  5
CF
  8
1
 10
-2411.444712
 20
-176.211773
 30
0.0
 70
0
  0
VERTEX
  5
D0
  8
1
 10
-2426.275089
 20
-178.865223
 30
0.0
 70
0
  0
VERTEX
  5
D1
  8
1
 10
-2441.42874
 20
-181.400389
 30
0.0
 70
0
  0
VERTEX
  5
D2
  8
1
 10
-2456.43899
 20
-183.742107
 30
0.0
 70
0
  0
VERTEX
  5
D3
  8
1
 10
-2471.644318
 20
-185.946122
 30
0.0
 70
0
  0
VERTEX
  5
D4
  8
1
 10
-2486.718607
 20
-187.967082
 30
0.0
 70
0
  0
VERTEX
  5
D5
  8
1
 10
-2501.967219
 20
-189.848311
 30
0.0
 70
0
  0
VERTEX
  5
D6
  8
1
 10
-2517.037226
 20
-191.54935
 30
0.0
 70
0
  0
VERTEX
  5
D7
  8
1
 10
-2532.321228
 20
-193.11702
 30
0.0
 70
0
  0
VERTEX
  5
D8
  8
1
 10
-2547.418758
 20
-194.512757
 30
0.0
 70
0
  0
VERTEX
  5
D9
  8
1
 10
-2562.730907
 20
-195.77603
 30
0.0
 70
0
  0
VERTEX
  5
DA
  8
1
 10
-2577.848101
 20
-196.875423
 30
0.0
 70
0
  0
VERTEX
  5
DB
  8
1
 10
-2593.181775
 20
-197.84324
 30
0.0
 70
0
  0
VERTEX
  5
DC
  8
1
 10
-2608.309395
 20
-198.655209
 30
0.0
 70
0
  0
VERTEX
  5
DD
  8
1
 10
-2623.658442
 20
-199.33633
 30
0.0
 70
0
  0
VERTEX
  5
DE
  8
1
 10
-2638.785742
 20
-199.869212
 30
0.0
 70
0
  0
VERTEX
  5
DF
  8
1
 10
-2654.144525
 20
-200.272967
 30
0.0
 70
0
  0
VERTEX
  5
E0
  8
1
 10
-2669.260089
 20
-200.538032
 30
0.0
 70
0
  0
VERTEX
  5
E1
  8
1
 10
-2684.623586
 20
-200.671815
 30
0.0
 70
0
  0
VERTEX
  5
E2
  8
1
 10
-2699.930678
 20
-200.673881
 30
0.0
 70
0
  0
VERTEX
  5
E3
  8
1
 10
-2714.850114
 20
-200.581124
 30
0.0
 70
0
  0
VERTEX
  5
E4
  8
1
 10
-2724.538269
 20
-200.47678
 30
0.0
 70
0
  0
SEQEND
  5
33
  8
1
  0
POLYLINE
  5
E5
  8
14
 66
1
 10
0.0
 20
0.0
 30
0.0
 70
1
  0
VERTEX
  5
E7
  8
14
 10
-2724.40155
 20
-187.777214
 30
0.0
 70
0
  0
VERTEX
  5
E8
  8
14
 10
-2724.40155
 20
-187.777214
 30
0.0
 70
0
  0
VERTEX
  5
E9
  8
14
 10
-2728.284005
 20
-187.840329
 30
0.0
 70
0
  0
VERTEX
  5
EA
  8
14
 10
-2742.916082
 20
-187.928954
 30
0.0
 70
0
  0
VERTEX
  5
EB
  8
14
 10
-2758.707487
 20
-187.85263
 30
0.0
 70
0
  0
VERTEX
  5
EC
  8
14
 10
-2773.835497
 20
-187.642467
 30
0.0
 70
0
  0
VERTEX
  5
ED
  8
14
 10
-2788.595906
 20
-187.318777
 30
0.0
 70
0
  0
VERTEX
  5
EE
  8
14
 10
-2804.861632
 20
-186.831867
 30
0.0
 70
0
  0
VERTEX
  5
EF
  8
14
 10
-2822.490399
 20
-186.15264
 30
0.0
 70
0
  0
VERTEX
  5
F0
  8
14
 10
-2838.11958
 20
-185.418716
 30
0.0
 70
0
  0
VERTEX
  5
F1
  8
14
 10
-2854.514181
 20
-184.514193
 30
0.0
 70
0
  0
VERTEX
  5
F2
  8
14
 10
-2871.591792
 20
-183.422234
 30
0.0
 70
0
  0
VERTEX
  5
F3
  8
14
 10
-2889.27013
 20
-182.125996
 30
0.0
 70
0
  0
VERTEX
  5
F4
  8
14
 10
-2907.466777
 20
-180.608647
 30
0.0
 70
0
  0
VERTEX
  5
F5
  8
14
 10
-2922.341986
 20
-179.224248
 30
0.0
 70
0
  0
VERTEX
  5
F6
  8
14
 10
-2937.454069
 20
-177.678937
 30
0.0
 70
0
  0
VERTEX
  5
F7
  8
14
 10
-2952.760865
 20
-175.964094
 30
0.0
 70
0
  0
VERTEX
  5
F8
  8
14
 10
-2968.220173
 20
-174.0711
 30
0.0
 70
0
  0
VERTEX
  5
F9
  8
14
 10
-2983.789905
 20
-171.991327
 30
0.0
 70
0
  0
VERTEX
  5
FA
  8
14
 10
-2999.427862
 20
-169.716157
 30
0.0
 70
0
  0
VERTEX
  5
FB
  8
14
 10
-3019.007008
 20
-166.584285
 30
0.0
 70
0
  0
VERTEX
  5
FC
  8
14
 10
-3032.219915
 20
-164.280044
 30
0.0
 70
0
  0
VERTEX
  5
FD
  8
14
 10
-3047.835588
 20
-161.351428
 30
0.0
 70
0
  0
VERTEX
  5
FE
  8
14
 10
-3063.412658
 20
-158.203479
 30
0.0
 70
0
  0
VERTEX
  5
FF
  8
14
 10
-3078.944591
 20
-154.833746
 30
0.0
 70
0
  0
VERTEX
  5
100
  8
14
 10
-3094.424929
 20
-151.239763
 30
0.0
 70
0
  0
VERTEX
  5
101
  8
14
 10
-3113.692864
 20
-146.428196
 30
0.0
 70
0
  0
VERTEX
  5
102
  8
14
 10
-3125.397263
 20
-143.319674
 30
0.0
 70
0
  0
VERTEX
  5
103
  8
14
 10
-3140.564726
 20
-139.098852
 30
0.0
 70
0
  0
VERTEX
  5
104
  8
14
 10
-3155.406526
 20
-134.777769
 30
0.0
 70
0
  0
VERTEX
  5
105
  8
14
 10
-3173.276642
 20
-129.347334
 30
0.0
 70
0
  0
VERTEX
  5
106
  8
14
 10
-3190.120644
 20
-124.018477
 30
0.0
 70
0
  0
VERTEX
  5
107
  8
14
 10
-3205.651149
 20
-118.934669
 30
0.0
 70
0
  0
VERTEX
  5
108
  8
14
 10
-3222.14931
 20
-113.359563
 30
0.0
 70
0
  0
VERTEX
  5
109
  8
14
 10
-3237.821095
 20
-107.893101
 30
0.0
 70
0
  0
VERTEX
  5
10A
  8
14
 10
-3255.157776
 20
-101.6119
 30
0.0
 70
0
  0
VERTEX
  5
10B
  8
14
 10
-3255.157776
 20
-101.6119
 30
0.0
 70
0
  0
VERTEX
  5
10C
  8
14
 10
-3255.157776
 20
-101.6119
 30
0.0
 70
0
  0
VERTEX
  5
10D
  8
14
 10
-3248.62574
 20
-88.930058
 30
0.0
 70
0
  0
VERTEX
  5
10E
  8
14
 10
-3241.667332
 20
-75.4204
 30
0.0
 70
0
  0
VERTEX
  5
10F
  8
14
 10
-3234.429626
 20
-61.36847
 30
0.0
 70
0
  0
VERTEX
  5
110
  8
14
 10
-3234.429626
 20
-61.36847
 30
0.0
 70
0
  0
VERTEX
  5
111
  8
14
 10
-3218.966908
 20
-66.906794
 30
0.0
 70
0
  0
VERTEX
  5
112
  8
14
 10
-3204.449846
 20
-71.975316
 30
0.0
 70
0
  0
VERTEX
  5
113
  8
14
 10
-3189.820992
 20
-76.916079
 30
0.0
 70
0
  0
VERTEX
  5
114
  8
14
 10
-3175.002522
 20
-81.739138
 30
0.0
 70
0
  0
VERTEX
  5
115
  8
14
 10
-3160.468983
 20
-86.318301
 30
0.0
 70
0
  0
VERTEX
  5
116
  8
14
 10
-3145.563456
 20
-90.86486
 30
0.0
 70
0
  0
VERTEX
  5
117
  8
14
 10
-3130.839489
 20
-95.180495
 30
0.0
 70
0
  0
VERTEX
  5
118
  8
14
 10
-3115.829739
 20
-99.374185
 30
0.0
 70
0
  0
VERTEX
  5
119
  8
14
 10
-3100.763548
 20
-103.361668
 30
0.0
 70
0
  0
VERTEX
  5
11A
  8
14
 10
-3085.641579
 20
-107.130382
 30
0.0
 70
0
  0
VERTEX
  5
11B
  8
14
 10
-3070.598057
 20
-110.638726
 30
0.0
 70
0
  0
VERTEX
  5
11C
  8
14
 10
-3055.370362
 20
-113.950864
 30
0.0
 70
0
  0
VERTEX
  5
11D
  8
14
 10
-3039.88495
 20
-117.088325
 30
0.0
 70
0
  0
VERTEX
  5
11E
  8
14
 10
-3024.570874
 20
-119.974903
 30
0.0
 70
0
  0
VERTEX
  5
11F
  8
14
 10
-3009.702294
 20
-122.579001
 30
0.0
 70
0
  0
VERTEX
  5
120
  8
14
 10
-2994.319612
 20
-125.074071
 30
0.0
 70
0
  0
VERTEX
  5
121
  8
14
 10
-2978.907096
 20
-127.377806
 30
0.0
 70
0
  0
VERTEX
  5
122
  8
14
 10
-2964.00394
 20
-129.424979
 30
0.0
 70
0
  0
VERTEX
  5
123
  8
14
 10
-2948.541876
 20
-131.367224
 30
0.0
 70
0
  0
VERTEX
  5
124
  8
14
 10
-2933.308538
 20
-133.105013
 30
0.0
 70
0
  0
VERTEX
  5
125
  8
14
 10
-2917.806951
 20
-134.69999
 30
0.0
 70
0
  0
VERTEX
  5
126
  8
14
 10
-2902.437525
 20
-136.114726
 30
0.0
 70
0
  0
VERTEX
  5
127
  8
14
 10
-2886.904982
 20
-137.381447
 30
0.0
 70
0
  0
VERTEX
  5
128
  8
14
 10
-2871.360931
 20
-138.488345
 30
0.0
 70
0
  0
VERTEX
  5
129
  8
14
 10
-2855.86557
 20
-139.435314
 30
0.0
 70
0
  0
VERTEX
  5
12A
  8
14
 10
-2840.426025
 20
-140.23695
 30
0.0
 70
0
  0
VERTEX
  5
12B
  8
14
 10
-2825.257365
 20
-140.902467
 30
0.0
 70
0
  0
VERTEX
  5
12C
  8
14
 10
-2809.72442
 20
-141.471122
 30
0.0
 70
0
  0
VERTEX
  5
12D
  8
14
 10
-2794.117021
 20
-141.937121
 30
0.0
 70
0
  0
VERTEX
  5
12E
  8
14
 10
-2778.795992
 20
-142.298554
 30
0.0
 70
0
  0
VERTEX
  5
12F
  8
14
 10
-2763.578881
 20
-142.567295
 30
0.0
 70
0
  0
VERTEX
  5
130
  8
14
 10
-2748.257833
 20
-142.747506
 30
0.0
 70
0
  0
VERTEX
  5
131
  8
14
 10
-2733.364549
 20
-142.829686
 30
0.0
 70
0
  0
VERTEX
  5
132
  8
14
 10
-2724.755554
 20
-142.820606
 30
0.0
 70
0
  0
VERTEX
  5
133
  8
14
 10
-2723.157722
 20
-142.856791
 30
0.0
 70
0
  0
VERTEX
  5
134
  8
14
 10
-2708.455945
 20
-143.049437
 30
0.0
 70
0
  0
VERTEX
  5
135
  8
14
 10
-2693.976048
 20
-143.016321
 30
0.0
 70
0
  0
VERTEX
  5
136
  8
14
 10
-2680.239453
 20
-142.7215
 30
0.0
 70
0
  0
VERTEX
  5
137
  8
14
 10
-2664.884535
 20
-142.17652
 30
0.0
 70
0
  0
VERTEX
  5
138
  8
14
 10
-2649.715165
 20
-141.6353
 30
0.0
 70
0
  0
VERTEX
  5
139
  8
14
 10
-2634.357665
 20
-141.183771
 30
0.0
 70
0
  0
VERTEX
  5
13A
  8
14
 10
-2619.001833
 20
-140.699017
 30
0.0
 70
0
  0
VERTEX
  5
13B
  8
14
 10
-2603.681618
 20
-140.053429
 30
0.0
 70
0
  0
VERTEX
  5
13C
  8
14
 10
-2588.338807
 20
-139.224711
 30
0.0
 70
0
  0
VERTEX
  5
13D
  8
14
 10
-2573.005225
 20
-138.225346
 30
0.0
 70
0
  0
VERTEX
  5
13E
  8
14
 10
-2557.682501
 20
-137.066731
 30
0.0
 70
0
  0
VERTEX
  5
13F
  8
14
 10
-2542.23286
 20
-135.747628
 30
0.0
 70
0
  0
VERTEX
  5
140
  8
14
 10
-2526.937279
 20
-134.294635
 30
0.0
 70
0
  0
VERTEX
  5
141
  8
14
 10
-2511.658243
 20
-132.683292
 30
0.0
 70
0
  0
VERTEX
  5
142
  8
14
 10
-2496.360539
 20
-130.895805
 30
0.0
 70
0
  0
VERTEX
  5
143
  8
14
 10
-2481.121545
 20
-128.93655
 30
0.0
 70
0
  0
VERTEX
  5
144
  8
14
 10
-2466.155268
 20
-126.836159
 30
0.0
 70
0
  0
VERTEX
  5
145
  8
14
 10
-2450.966338
 20
-124.52097
 30
0.0
 70
0
  0
VERTEX
  5
146
  8
14
 10
-2436.004276
 20
-122.052629
 30
0.0
 70
0
  0
VERTEX
  5
147
  8
14
 10
-2420.877535
 20
-119.360729
 30
0.0
 70
0
  0
VERTEX
  5
148
  8
14
 10
-2405.787071
 20
-116.472054
 30
0.0
 70
0
  0
VERTEX
  5
149
  8
14
 10
-2391.089041
 20
-113.456212
 30
0.0
 70
0
  0
VERTEX
  5
14A
  8
14
 10
-2376.082605
 20
-110.158457
 30
0.0
 70
0
  0
VERTEX
  5
14B
  8
14
 10
-2361.222626
 20
-106.66078
 30
0.0
 70
0
  0
VERTEX
  5
14C
  8
14
 10
-2346.320075
 20
-102.918354
 30
0.0
 70
0
  0
VERTEX
  5
14D
  8
14
 10
-2331.471855
 20
-98.964644
 30
0.0
 70
0
  0
VERTEX
  5
14E
  8
14
 10
-2316.631826
 20
-94.798245
 30
0.0
 70
0
  0
VERTEX
  5
14F
  8
14
 10
-2301.892506
 20
-90.460994
 30
0.0
 70
0
  0
VERTEX
  5
150
  8
14
 10
-2287.200486
 20
-85.966158
 30
0.0
 70
0
  0
VERTEX
  5
151
  8
14
 10
-2272.603498
 20
-81.355787
 30
0.0
 70
0
  0
VERTEX
  5
152
  8
14
 10
-2257.997216
 20
-76.589514
 30
0.0
 70
0
  0
VERTEX
  5
153
  8
14
 10
-2243.621406
 20
-71.723509
 30
0.0
 70
0
  0
VERTEX
  5
154
  8
14
 10
-2229.017235
 20
-66.617226
 30
0.0
 70
0
  0
VERTEX
  5
155
  8
14
 10
-2214.318542
 20
-61.473756
 30
0.0
 70
0
  0
VERTEX
  5
156
  8
14
 10
-2214.372864
 20
-61.368489
 30
0.0
 70
0
  0
VERTEX
  5
157
  8
14
 10
-2206.854815
 20
-75.964549
 30
0.0
 70
0
  0
VERTEX
  5
158
  8
14
 10
-2199.735725
 20
-89.786231
 30
0.0
 70
0
  0
VERTEX
  5
159
  8
14
 10
-2193.644714
 20
-101.6119
 30
0.0
 70
0
  0
VERTEX
  5
15A
  8
14
 10
-2193.644714
 20
-101.6119
 30
0.0
 70
0
  0
VERTEX
  5
15B
  8
14
 10
-2209.361666
 20
-107.333578
 30
0.0
 70
0
  0
VERTEX
  5
15C
  8
14
 10
-2224.09234
 20
-112.504201
 30
0.0
 70
0
  0
VERTEX
  5
15D
  8
14
 10
-2238.959085
 20
-117.568781
 30
0.0
 70
0
  0
VERTEX
  5
15E
  8
14
 10
-2253.951043
 20
-122.525087
 30
0.0
 70
0
  0
VERTEX
  5
15F
  8
14
 10
-2270.321958
 20
-127.761439
 30
0.0
 70
0
  0
VERTEX
  5
160
  8
14
 10
-2285.556151
 20
-132.461532
 30
0.0
 70
0
  0
VERTEX
  5
161
  8
14
 10
-2301.441518
 20
-137.172519
 30
0.0
 70
0
  0
VERTEX
  5
162
  8
14
 10
-2317.789273
 20
-141.799432
 30
0.0
 70
0
  0
VERTEX
  5
163
  8
14
 10
-2334.410633
 20
-146.247304
 30
0.0
 70
0
  0
VERTEX
  5
164
  8
14
 10
-2349.450097
 20
-150.025879
 30
0.0
 70
0
  0
VERTEX
  5
165
  8
14
 10
-2366.246416
 20
-153.974299
 30
0.0
 70
0
  0
VERTEX
  5
166
  8
14
 10
-2383.106877
 20
-157.665107
 30
0.0
 70
0
  0
VERTEX
  5
167
  8
14
 10
-2400.024642
 20
-161.109282
 30
0.0
 70
0
  0
VERTEX
  5
168
  8
14
 10
-2416.992816
 20
-164.317791
 30
0.0
 70
0
  0
VERTEX
  5
169
  8
14
 10
-2432.227309
 20
-167.000381
 30
0.0
 70
0
  0
VERTEX
  5
16A
  8
14
 10
-2449.273196
 20
-169.790359
 30
0.0
 70
0
  0
VERTEX
  5
16B
  8
14
 10
-2466.354121
 20
-172.367617
 30
0.0
 70
0
  0
VERTEX
  5
16C
  8
14
 10
-2483.467063
 20
-174.735388
 30
0.0
 70
0
  0
VERTEX
  5
16D
  8
14
 10
-2500.609005
 20
-176.896903
 30
0.0
 70
0
  0
VERTEX
  5
16E
  8
14
 10
-2517.777042
 20
-178.855411
 30
0.0
 70
0
  0
VERTEX
  5
16F
  8
14
 10
-2534.968153
 20
-180.614143
 30
0.0
 70
0
  0
VERTEX
  5
170
  8
14
 10
-2552.17932
 20
-182.176334
 30
0.0
 70
0
  0
VERTEX
  5
171
  8
14
 10
-2569.407638
 20
-183.545228
 30
0.0
 70
0
  0
VERTEX
  5
172
  8
14
 10
-2586.650088
 20
-184.724059
 30
0.0
 70
0
  0
VERTEX
  5
173
  8
14
 10
-2603.90365
 20
-185.716062
 30
0.0
 70
0
  0
VERTEX
  5
174
  8
14
 10
-2621.165419
 20
-186.524479
 30
0.0
 70
0
  0
VERTEX
  5
175
  8
14
 10
-2638.432377
 20
-187.152546
 30
0.0
 70
0
  0
VERTEX
  5
176
  8
14
 10
-2655.701504
 20
-187.603498
 30
0.0
 70
0
  0
VERTEX
  5
177
  8
14
 10
-2672.969894
 20
-187.880576
 30
0.0
 70
0
  0
VERTEX
  5
178
  8
14
 10
-2690.23453
 20
-187.987016
 30
0.0
 70
0
  0
VERTEX
  5
179
  8
14
 10
-2706.30787
 20
-187.943937
 30
0.0
 70
0
  0
VERTEX
  5
17A
  8
14
 10
-2720.693464
 20
-187.821247
 30
0.0
 70
0
  0
VERTEX
  5
17B
  8
14
 10
-2724.40155
 20
-187.777214
 30
0.0
 70
0
  0
SEQEND
  5
E6
  8
14
  0
POLYLINE
  5
17C
  8
8
 66
1
 10
0.0
 20
0.0
 30
0.0
 70
0
  0
VERTEX
  5
17E
  8
8
 10
-2724.40155
 20
-142.795525
 30
0.0
 70
0
  0
VERTEX
  5
17F
  8
8
 10
-2724.40155
 20
-158.528209
 30
0.0
 70
0
  0
VERTEX
  5
180
  8
8
 10
-2724.40155
 20
-173.544126
 30
0.0
 70
0
  0
VERTEX
  5
181
  8
8
 10
-2724.40155
 20
-187.777214
 30
0.0
 70
0
  0
SEQEND
  5
17D
  8
8
  0
POINT
  5
182
  8
4
 10
-2724.29718
 20
-200.4772
 30
0.0
  0
POINT
  5
183
  8
4
 10
-3261.025696
 20
-113.004007
 30
0.0
  0
POINT
  5
184
  8
4
 10
-3261.7453
 20
-112.744999
 30
0.0
  0
POINT
  5
185
  8
4
 10
-3303.898926
 20
-36.486518
 30
0.0
  0
POINT
  5
186
  8
4
 10
-2144.910736
 20
-36.47249
 30
0.0
  0
POINT
  5
187
  8
4
 10
-2189.308167
 20
-113.560286
 30
0.0
  0
POINT
  5
188
  8
4
 10
-2724.538269
 20
-200.47678
 30
0.0
  0
POINT
  5
189
  8
4
 10
-2724.40155
 20
-187.777214
 30
0.0
  0
POINT
  5
18A
  8
4
 10
-3255.157776
 20
-101.6119
 30
0.0
  0
POINT
  5
18B
  8
4
 10
-3255.157776
 20
-101.6119
 30
0.0
  0
POINT
  5
18C
  8
4
 10
-3234.429626
 20
-61.36847
 30
0.0
  0
POINT
  5
18D
  8
4
 10
-2214.372864
 20
-61.368489
 30
0.0
  0
POINT
  5
18E
  8
4
 10
-2193.644714
 20
-101.6119
 30
0.0
  0
POINT
  5
18F
  8
4
 10
-2724.40155
 20
-187.777214
 30
0.0
  0
LINE
  5
190
  8
7
 10
-2722.257385
 20
-132.500181
 30
0.0
 11
-2722.257385
 21
-194.629478
 31
0.0
  0
ENDSEC
  0
EOF
