  0
SECTION
  2
HEADER
  9
$ACADVER
  1
AC1009
  9
$DWGCODEPAGE
  3
ANSI_1252
  9
$INSBASE
 10
0.0
 20
0.0
 30
0.0
  9
$EXTMIN
 10
1e+20
 20
1e+20
 30
1e+20
  9
$EXTMAX
 10
-1e+20
 20
-1e+20
 30
-1e+20
  9
$LIMMIN
 10
0.0
 20
0.0
  9
$LIMMAX
 10
420.0
 20
297.0
  9
$ORTHOMODE
 70
0
  9
$REGENMODE
 70
1
  9
$FILLMODE
 70
1
  9
$DRAGMODE
 70
2
  9
$QTEXTMODE
 70
0
  9
$MIRRTEXT
 70
1
  9
$OSMODE
 70
20583
  9
$LTSCALE
 40
1.0
  9
$ATTMODE
 70
1
  9
$TEXTSIZE
 40
2.5
  9
$TRACEWID
 40
1.0
  9
$TEXTSTYLE
  7
Standard
  9
$CLAYER
  8
0
  9
$CELTYPE
  6
ByLayer
  9
$CECOLOR
 62
256
  9
$DIMSCALE
 40
1.0
  9
$DIMASZ
 40
2.5
  9
$DIMEXO
 40
0.625
  9
$DIMDLI
 40
3.75
  9
$DIMRND
 40
0.0
  9
$DIMDLE
 40
0.0
  9
$DIMEXE
 40
1.25
  9
$DIMTP
 40
0.0
  9
$DIMTM
 40
0.0
  9
$DIMTXT
 40
2.5
  9
$DIMCEN
 40
2.5
  9
$DIMTSZ
 40
0.0
  9
$DIMTOL
 70
0
  9
$DIMLIM
 70
0
  9
$DIMTIH
 70
0
  9
$DIMTOH
 70
0
  9
$DIMSE1
 70
0
  9
$DIMSE2
 70
0
  9
$DIMTAD
 70
1
  9
$DIMZIN
 70
8
  9
$DIMBLK
  1

  9
$DIMASO
 70
1
  9
$DIMSHO
 70
1
  9
$DIMPOST
  1

  9
$DIMAPOST
  1

  9
$DIMALT
 70
0
  9
$DIMALTD
 70
3
  9
$DIMALTF
 40
0.03937007874
  9
$DIMLFAC
 40
1.0
  9
$DIMTOFL
 70
1
  9
$DIMTVP
 40
0.0
  9
$DIMTIX
 70
0
  9
$DIMSOXD
 70
0
  9
$DIMSAH
 70
0
  9
$DIMBLK1
  1

  9
$DIMBLK2
  1

  9
$DIMSTYLE
  2
ISO-25
  9
$DIMCLRD
 70
0
  9
$DIMCLRE
 70
0
  9
$DIMCLRT
 70
0
  9
$DIMTFAC
 40
1.0
  9
$DIMGAP
 40
0.625
  9
$COORDS
 70
1
  9
$ATTDIA
 70
0
  9
$ATTREQ
 70
1
  9
$HANDLING
 70
1
  9
$LUNITS
 70
2
  9
$LUPREC
 70
4
  9
$SKETCHINC
 40
1.0
  9
$FILLETRAD
 40
10.0
  9
$AUNITS
 70
0
  9
$AUPREC
 70
2
  9
$MENU
  1
.
  9
$ELEVATION
 40
0.0
  9
$PELEVATION
 40
0.0
  9
$THICKNESS
 40
0.0
  9
$LIMCHECK
 70
0
  9
$CHAMFERA
 40
0.0
  9
$CHAMFERB
 40
0.0
  9
$SKPOLY
 70
0
  9
$TDCREATE
 40
2461264.9423032408
  9
$TDUPDATE
 40
2461264.9423032408
  9
$TDINDWG
 40
0.0
  9
$TDUSRTIMER
 40
0.0
  9
$USRTIMER
 70
1
  9
$ANGBASE
 50
0.0
  9
$ANGDIR
 70
0
  9
$PDMODE
 70
0
  9
$PDSIZE
 40
0.0
  9
$PLINEWID
 40
0.0
  9
$SPLFRAME
 70
0
  9
$SPLINETYPE
 70
6
  9
$SPLINESEGS
 70
8
  9
$HANDSEED
  5
171
  9
$SURFTAB1
 70
6
  9
$SURFTAB2
 70
6
  9
$SURFTYPE
 70
6
  9
$SURFU
 70
6
  9
$SURFV
 70
6
  9
$UCSNAME
  2

  9
$UCSORG
 10
0.0
 20
0.0
 30
0.0
  9
$UCSXDIR
 10
1.0
 20
0.0
 30
0.0
  9
$UCSYDIR
 10
0.0
 20
1.0
 30
0.0
  9
$PUCSNAME
  2

  9
$PUCSORG
 10
0.0
 20
0.0
 30
0.0
  9
$PUCSXDIR
 10
1.0
 20
0.0
 30
0.0
  9
$PUCSYDIR
 10
0.0
 20
1.0
 30
0.0
  9
$USERI1
 70
0
  9
$USERI2
 70
0
  9
$USERI3
 70
0
  9
$USERI4
 70
0
  9
$USERI5
 70
0
  9
$USERR1
 40
0.0
  9
$USERR2
 40
0.0
  9
$USERR3
 40
0.0
  9
$USERR4
 40
0.0
  9
$USERR5
 40
0.0
  9
$WORLDVIEW
 70
1
  9
$SHADEDGE
 70
3
  9
$SHADEDIF
 70
70
  9
$TILEMODE
 70
1
  9
$MAXACTVP
 70
64
  9
$PLIMCHECK
 70
0
  9
$PEXTMIN
 10
1e+20
 20
1e+20
 30
1e+20
  9
$PEXTMAX
 10
-1e+20
 20
-1e+20
 30
-1e+20
  9
$PLIMMIN
 10
0.0
 20
0.0
  9
$PLIMMAX
 10
420.0
 20
297.0
  9
$UNITMODE
 70
0
  9
$VISRETAIN
 70
1
  9
$PLINEGEN
 70
0
  9
$PSLTSCALE
 70
1
  0
ENDSEC
  0
SECTION
  2
TABLES
  0
TABLE
  2
VPORT
 70
1
  0
VPORT
  5
23
  2
*Active
 70
0
 10
0.0
 20
0.0
 11
1.0
 21
1.0
 12
0.0
 22
0.0
 13
0.0
 23
0.0
 14
0.5
 24
0.5
 15
0.5
 25
0.5
 16
0.0
 26
0.0
 36
1.0
 17
0.0
 27
0.0
 37
0.0
 40
1000.0
 41
1.34
 42
50.0
 43
0.0
 44
0.0
 50
0.0
 51
0.0
 71
0
 72
1000
 73
1
 74
3
 75
0
 76
0
 77
0
 78
0
  0
ENDTAB
  0
TABLE
  2
LTYPE
 70
3
  0
LTYPE
  5
24
  2
ByBlock
 70
0
  3

 72
65
 73
0
 40
0.0
  0
LTYPE
  5
25
  2
ByLayer
 70
0
  3

 72
65
 73
0
 40
0.0
  0
LTYPE
  5
26
  2
Continuous
 70
0
  3

 72
65
 73
0
 40
0.0
  0
ENDTAB
  0
TABLE
  2
LAYER
 70
7
  0
LAYER
  5
27
  2
0
 70
0
 62
7
  6
Continuous
  0
LAYER
  5
28
  2
Defpoints
 70
0
 62
7
  6
Continuous
  0
LAYER
  5
2D
  2
1
 70
0
 62
1
  6
Continuous
  0
LAYER
  5
2E
  2
7
 70
0
 62
7
  6
Continuous
  0
LAYER
  5
2F
  2
14
 70
0
 62
3
  6
Continuous
  0
LAYER
  5
30
  2
8
 70
0
 62
6
  6
Continuous
  0
LAYER
  5
31
  2
4
 70
0
 62
2
  6
Continuous
  0
ENDTAB
  0
TABLE
  2
STYLE
 70
1
  0
STYLE
  5
29
  2
Standard
 70
0
 40
0.0
 41
1.0
 50
0.0
 71
0
 42
2.5
  3
txt
  4

  0
ENDTAB
  0
TABLE
  2
VIEW
 70
0
  0
ENDTAB
  0
TABLE
  2
UCS
 70
0
  0
ENDTAB
  0
TABLE
  2
APPID
 70
3
  0
APPID
  5
2A
  2
ACAD
 70
0
  0
APPID
  5
16F
  2
HATCHBACKGROUNDCOLOR
 70
0
  0
APPID
  5
170
  2
EZDXF
 70
0
  0
ENDTAB
  0
TABLE
  2
DIMSTYLE
 70
1
  0
DIMSTYLE
105
2B
  2
Standard
 70
0
  3

  4

  5

  6

  7

 40
1.0
 41
2.5
 42
0.625
 43
3.75
 44
1.25
 45
0.0
 46
0.0
 47
0.0
 48
0.0
140
2.5
141
2.5
142
0.0
143
0.03937007874
144
1.0
145
0.0
146
1.0
147
0.625
 71
0
 72
0
 73
0
 74
0
 75
0
 76
0
 77
1
 78
8
170
0
171
3
172
1
173
0
174
0
175
0
176
0
177
0
178
0
  0
ENDTAB
  0
ENDSEC
  0
SECTION
  2
BLOCKS
  0
BLOCK
  5
18
  8
0
  2
$Model_Space
 70
0
 10
0.0
 20
0.0
 30
0.0
  3
$Model_Space
  1

1001
EZDXF
1000
CREATED_BY_EZDXF
1000
1.4.4 @ 2026-08-11T14:36:55.358575+00:00
1000
WRITTEN_BY_EZDXF
1000
1.4.4 @ 2026-08-11T14:36:55.361575+00:00
  0
ENDBLK
  5
19
  8
0
  0
BLOCK
  5
1C
  8
0
  2
$Paper_Space
 70
0
 10
0.0
 20
0.0
 30
0.0
  3
$Paper_Space
  1

  0
ENDBLK
  5
1D
  8
0
  0
ENDSEC
  0
SECTION
  2
ENTITIES
  0
POLYLINE
  5
32
  8
1
 66
1
 10
0.0
 20
0.0
 30
0.0
 70
1
  0
VERTEX
  5
34
  8
1
 10
-2724.361877
 20
-190.952148
 30
0.0
 70
0
  0
VERTEX
  5
35
  8
1
 10
-2724.393311
 20
-190.952187
 30
0.0
 70
0
  0
VERTEX
  5
36
  8
1
 10
-2726.505143
 20
-190.950675
 30
0.0
 70
0
  0
VERTEX
  5
37
  8
1
 10
-2741.443567
 20
-190.865525
 30
0.0
 70
0
  0
VERTEX
  5
38
  8
1
 10
-2756.876879
 20
-190.653135
 30
0.0
 70
0
  0
VERTEX
  5
39
  8
1
 10
-2772.355911
 20
-190.272658
 30
0.0
 70
0
  0
VERTEX
  5
3A
  8
1
 10
-2787.549713
 20
-189.729178
 30
0.0
 70
0
  0
VERTEX
  5
3B
  8
1
 10
-2803.153136
 20
-189.029437
 30
0.0
 70
0
  0
VERTEX
  5
3C
  8
1
 10
-2818.33495
 20
-188.222807
 30
0.0
 70
0
  0
VERTEX
  5
3D
  8
1
 10
-2833.383843
 20
-187.292347
 30
0.0
 70
0
  0
VERTEX
  5
3E
  8
1
 10
-2848.549085
 20
-186.21675
 30
0.0
 70
0
  0
VERTEX
  5
3F
  8
1
 10
-2864.046314
 20
-184.972328
 30
0.0
 70
0
  0
VERTEX
  5
40
  8
1
 10
-2879.188538
 20
-183.610927
 30
0.0
 70
0
  0
VERTEX
  5
41
  8
1
 10
-2894.281355
 20
-182.104151
 30
0.0
 70
0
  0
VERTEX
  5
42
  8
1
 10
-2909.393214
 20
-180.438135
 30
0.0
 70
0
  0
VERTEX
  5
43
  8
1
 10
-2925.114667
 20
-178.528643
 30
0.0
 70
0
  0
VERTEX
  5
44
  8
1
 10
-2939.876468
 20
-176.562669
 30
0.0
 70
0
  0
VERTEX
  5
45
  8
1
 10
-2954.921619
 20
-174.374242
 30
0.0
 70
0
  0
VERTEX
  5
46
  8
1
 10
-2969.822176
 20
-172.010012
 30
0.0
 70
0
  0
VERTEX
  5
47
  8
1
 10
-2984.803746
 20
-169.421485
 30
0.0
 70
0
  0
VERTEX
  5
48
  8
1
 10
-2999.999761
 20
-166.564535
 30
0.0
 70
0
  0
VERTEX
  5
49
  8
1
 10
-3014.897188
 20
-163.528198
 30
0.0
 70
0
  0
VERTEX
  5
4A
  8
1
 10
-3030.020948
 20
-160.20236
 30
0.0
 70
0
  0
VERTEX
  5
4B
  8
1
 10
-3044.817109
 20
-156.704948
 30
0.0
 70
0
  0
VERTEX
  5
4C
  8
1
 10
-3060.16828
 20
-152.811584
 30
0.0
 70
0
  0
VERTEX
  5
4D
  8
1
 10
-3074.443345
 20
-148.943925
 30
0.0
 70
0
  0
VERTEX
  5
4E
  8
1
 10
-3089.057838
 20
-144.751911
 30
0.0
 70
0
  0
VERTEX
  5
4F
  8
1
 10
-3103.653303
 20
-140.351067
 30
0.0
 70
0
  0
VERTEX
  5
50
  8
1
 10
-3118.156113
 20
-135.789296
 30
0.0
 70
0
  0
VERTEX
  5
51
  8
1
 10
-3132.464288
 20
-131.127993
 30
0.0
 70
0
  0
VERTEX
  5
52
  8
1
 10
-3146.87151
 20
-126.271925
 30
0.0
 70
0
  0
VERTEX
  5
53
  8
1
 10
-3161.3524
 20
-121.199065
 30
0.0
 70
0
  0
VERTEX
  5
54
  8
1
 10
-3175.643238
 20
-116.012318
 30
0.0
 70
0
  0
VERTEX
  5
55
  8
1
 10
-3189.90285
 20
-110.738597
 30
0.0
 70
0
  0
VERTEX
  5
56
  8
1
 10
-3192.510681
 20
-109.770441
 30
0.0
 70
0
  0
VERTEX
  5
57
  8
1
 10
-3193.339233
 20
-109.463024
 30
0.0
 70
0
  0
VERTEX
  5
58
  8
1
 10
-3204.125995
 20
-105.458434
 30
0.0
 70
0
  0
VERTEX
  5
59
  8
1
 10
-3218.388724
 20
-100.162813
 30
0.0
 70
0
  0
VERTEX
  5
5A
  8
1
 10
-3232.536958
 20
-94.909077
 30
0.0
 70
0
  0
VERTEX
  5
5B
  8
1
 10
-3247.008155
 20
-89.534837
 30
0.0
 70
0
  0
VERTEX
  5
5C
  8
1
 10
-3261.584778
 20
-84.120817
 30
0.0
 70
0
  0
VERTEX
  5
5D
  8
1
 10
-3257.254799
 20
-75.714251
 30
0.0
 70
0
  0
VERTEX
  5
5E
  8
1
 10
-3250.361543
 20
-62.331136
 30
0.0
 70
0
  0
VERTEX
  5
5F
  8
1
 10
-3243.355639
 20
-48.729305
 30
0.0
 70
0
  0
VERTEX
  5
60
  8
1
 10
-3236.382317
 20
-35.190686
 30
0.0
 70
0
  0
VERTEX
  5
61
  8
1
 10
-3235.066528
 20
-32.635987
 30
0.0
 70
0
  0
VERTEX
  5
62
  8
1
 10
-3229.202576
 20
-21.251256
 30
0.0
 70
0
  0
VERTEX
  5
63
  8
1
 10
-3214.669354
 20
-26.614468
 30
0.0
 70
0
  0
VERTEX
  5
64
  8
1
 10
-3200.479155
 20
-31.852754
 30
0.0
 70
0
  0
VERTEX
  5
65
  8
1
 10
-3186.046921
 20
-37.181988
 30
0.0
 70
0
  0
VERTEX
  5
66
  8
1
 10
-3171.448817
 20
-42.574327
 30
0.0
 70
0
  0
VERTEX
  5
67
  8
1
 10
-3157.061639
 20
-47.890374
 30
0.0
 70
0
  0
VERTEX
  5
68
  8
1
 10
-3142.533224
 20
-53.21575
 30
0.0
 70
0
  0
VERTEX
  5
69
  8
1
 10
-3128.344347
 20
-58.263652
 30
0.0
 70
0
  0
VERTEX
  5
6A
  8
1
 10
-3113.697165
 20
-63.252654
 30
0.0
 70
0
  0
VERTEX
  5
6B
  8
1
 10
-3098.975299
 20
-68.078176
 30
0.0
 70
0
  0
VERTEX
  5
6C
  8
1
 10
-3084.220932
 20
-72.741027
 30
0.0
 70
0
  0
VERTEX
  5
6D
  8
1
 10
-3069.569929
 20
-77.165123
 30
0.0
 70
0
  0
VERTEX
  5
6E
  8
1
 10
-3054.691337
 20
-81.415527
 30
0.0
 70
0
  0
VERTEX
  5
6F
  8
1
 10
-3040.483625
 20
-85.226396
 30
0.0
 70
0
  0
VERTEX
  5
70
  8
1
 10
-3026.050033
 20
-88.842231
 30
0.0
 70
0
  0
VERTEX
  5
71
  8
1
 10
-3011.558942
 20
-92.221189
 30
0.0
 70
0
  0
VERTEX
  5
72
  8
1
 10
-2996.75989
 20
-95.421051
 30
0.0
 70
0
  0
VERTEX
  5
73
  8
1
 10
-2981.585598
 20
-98.450473
 30
0.0
 70
0
  0
VERTEX
  5
74
  8
1
 10
-2966.2827
 20
-101.262763
 30
0.0
 70
0
  0
VERTEX
  5
75
  8
1
 10
-2951.024358
 20
-103.836077
 30
0.0
 70
0
  0
VERTEX
  5
76
  8
1
 10
-2936.076697
 20
-106.141464
 30
0.0
 70
0
  0
VERTEX
  5
77
  8
1
 10
-2920.753037
 20
-108.291155
 30
0.0
 70
0
  0
VERTEX
  5
78
  8
1
 10
-2905.771319
 20
-110.191118
 30
0.0
 70
0
  0
VERTEX
  5
79
  8
1
 10
-2890.397036
 20
-111.941695
 30
0.0
 70
0
  0
VERTEX
  5
7A
  8
1
 10
-2875.105304
 20
-113.49129
 30
0.0
 70
0
  0
VERTEX
  5
7B
  8
1
 10
-2859.692821
 20
-114.865407
 30
0.0
 70
0
  0
VERTEX
  5
7C
  8
1
 10
-2844.26115
 20
-116.056239
 30
0.0
 70
0
  0
VERTEX
  5
7D
  8
1
 10
-2828.821078
 20
-117.075181
 30
0.0
 70
0
  0
VERTEX
  5
7E
  8
1
 10
-2813.834714
 20
-117.917401
 30
0.0
 70
0
  0
VERTEX
  5
7F
  8
1
 10
-2798.378767
 20
-118.653813
 30
0.0
 70
0
  0
VERTEX
  5
80
  8
1
 10
-2782.800716
 20
-119.279233
 30
0.0
 70
0
  0
VERTEX
  5
81
  8
1
 10
-2767.335328
 20
-119.788453
 30
0.0
 70
0
  0
VERTEX
  5
82
  8
1
 10
-2751.866737
 20
-120.179797
 30
0.0
 70
0
  0
VERTEX
  5
83
  8
1
 10
-2736.502273
 20
-120.44986
 30
0.0
 70
0
  0
VERTEX
  5
84
  8
1
 10
-2721.840236
 20
-120.625118
 30
0.0
 70
0
  0
VERTEX
  5
85
  8
1
 10
-2720.747986
 20
-120.637245
 30
0.0
 70
0
  0
VERTEX
  5
86
  8
1
 10
-2707.493667
 20
-120.617407
 30
0.0
 70
0
  0
VERTEX
  5
87
  8
1
 10
-2694.535154
 20
-120.352994
 30
0.0
 70
0
  0
VERTEX
  5
88
  8
1
 10
-2679.233021
 20
-119.784773
 30
0.0
 70
0
  0
VERTEX
  5
89
  8
1
 10
-2663.933259
 20
-119.109487
 30
0.0
 70
0
  0
VERTEX
  5
8A
  8
1
 10
-2648.460941
 20
-118.464221
 30
0.0
 70
0
  0
VERTEX
  5
8B
  8
1
 10
-2633.163756
 20
-117.797958
 30
0.0
 70
0
  0
VERTEX
  5
8C
  8
1
 10
-2618.129108
 20
-116.993531
 30
0.0
 70
0
  0
VERTEX
  5
8D
  8
1
 10
-2602.849846
 20
-115.981671
 30
0.0
 70
0
  0
VERTEX
  5
8E
  8
1
 10
-2587.705659
 20
-114.775551
 30
0.0
 70
0
  0
VERTEX
  5
8F
  8
1
 10
-2572.457329
 20
-113.374404
 30
0.0
 70
0
  0
VERTEX
  5
90
  8
1
 10
-2557.480255
 20
-111.836201
 30
0.0
 70
0
  0
VERTEX
  5
91
  8
1
 10
-2542.266938
 20
-110.097198
 30
0.0
 70
0
  0
VERTEX
  5
92
  8
1
 10
-2527.06768
 20
-108.160667
 30
0.0
 70
0
  0
VERTEX
  5
93
  8
1
 10
-2511.905257
 20
-106.021176
 30
0.0
 70
0
  0
VERTEX
  5
94
  8
1
 10
-2496.745009
 20
-103.669053
 30
0.0
 70
0
  0
VERTEX
  5
95
  8
1
 10
-2481.648038
 20
-101.10849
 30
0.0
 70
0
  0
VERTEX
  5
96
  8
1
 10
-2466.67947
 20
-98.346889
 30
0.0
 70
0
  0
VERTEX
  5
97
  8
1
 10
-2451.180821
 20
-95.241794
 30
0.0
 70
0
  0
VERTEX
  5
98
  8
1
 10
-2436.677738
 20
-92.097201
 30
0.0
 70
0
  0
VERTEX
  5
99
  8
1
 10
-2421.767698
 20
-88.608521
 30
0.0
 70
0
  0
VERTEX
  5
9A
  8
1
 10
-2407.69304
 20
-85.065319
 30
0.0
 70
0
  0
VERTEX
  5
9B
  8
1
 10
-2393.383753
 20
-81.212912
 30
0.0
 70
0
  0
VERTEX
  5
9C
  8
1
 10
-2378.958119
 20
-77.079937
 30
0.0
 70
0
  0
VERTEX
  5
9D
  8
1
 10
-2364.299258
 20
-72.65308
 30
0.0
 70
0
  0
VERTEX
  5
9E
  8
1
 10
-2349.571372
 20
-68.007012
 30
0.0
 70
0
  0
VERTEX
  5
9F
  8
1
 10
-2334.556054
 20
-63.069274
 30
0.0
 70
0
  0
VERTEX
  5
A0
  8
1
 10
-2320.421954
 20
-58.23315
 30
0.0
 70
0
  0
VERTEX
  5
A1
  8
1
 10
-2305.990468
 20
-53.114312
 30
0.0
 70
0
  0
VERTEX
  5
A2
  8
1
 10
-2291.644374
 20
-47.86948
 30
0.0
 70
0
  0
VERTEX
  5
A3
  8
1
 10
-2277.285922
 20
-42.549461
 30
0.0
 70
0
  0
VERTEX
  5
A4
  8
1
 10
-2262.991847
 20
-37.264076
 30
0.0
 70
0
  0
VERTEX
  5
A5
  8
1
 10
-2248.625776
 20
-31.965
 30
0.0
 70
0
  0
VERTEX
  5
A6
  8
1
 10
-2234.387199
 20
-26.711448
 30
0.0
 70
0
  0
VERTEX
  5
A7
  8
1
 10
-2219.599609
 20
-21.251915
 30
0.0
 70
0
  0
VERTEX
  5
A8
  8
1
 10
-2213.738251
 20
-32.631867
 30
0.0
 70
0
  0
VERTEX
  5
A9
  8
1
 10
-2212.443641
 20
-35.145201
 30
0.0
 70
0
  0
VERTEX
  5
AA
  8
1
 10
-2205.421817
 20
-48.778069
 30
0.0
 70
0
  0
VERTEX
  5
AB
  8
1
 10
-2198.423445
 20
-62.365427
 30
0.0
 70
0
  0
VERTEX
  5
AC
  8
1
 10
-2191.555501
 20
-75.699574
 30
0.0
 70
0
  0
VERTEX
  5
AD
  8
1
 10
-2187.257538
 20
-84.044094
 30
0.0
 70
0
  0
VERTEX
  5
AE
  8
1
 10
-2201.952544
 20
-89.518414
 30
0.0
 70
0
  0
VERTEX
  5
AF
  8
1
 10
-2216.378887
 20
-94.893412
 30
0.0
 70
0
  0
VERTEX
  5
B0
  8
1
 10
-2230.650325
 20
-100.211397
 30
0.0
 70
0
  0
VERTEX
  5
B1
  8
1
 10
-2245.116091
 20
-105.602589
 30
0.0
 70
0
  0
VERTEX
  5
B2
  8
1
 10
-2257.714386
 20
-110.298548
 30
0.0
 70
0
  0
VERTEX
  5
B3
  8
1
 10
-2259.366997
 20
-110.914617
 30
0.0
 70
0
  0
VERTEX
  5
B4
  8
1
 10
-2273.856244
 20
-116.291951
 30
0.0
 70
0
  0
VERTEX
  5
B5
  8
1
 10
-2288.383021
 20
-121.565194
 30
0.0
 70
0
  0
VERTEX
  5
B6
  8
1
 10
-2303.052414
 20
-126.687047
 30
0.0
 70
0
  0
VERTEX
  5
B7
  8
1
 10
-2317.702531
 20
-131.609897
 30
0.0
 70
0
  0
VERTEX
  5
B8
  8
1
 10
-2332.374155
 20
-136.374804
 30
0.0
 70
0
  0
VERTEX
  5
B9
  8
1
 10
-2347.124359
 20
-140.987594
 30
0.0
 70
0
  0
VERTEX
  5
BA
  8
1
 10
-2361.582361
 20
-145.312948
 30
0.0
 70
0
  0
VERTEX
  5
BB
  8
1
 10
-2376.450018
 20
-149.533175
 30
0.0
 70
0
  0
VERTEX
  5
BC
  8
1
 10
-2391.057354
 20
-153.431269
 30
0.0
 70
0
  0
VERTEX
  5
BD
  8
1
 10
-2406.052381
 20
-157.174361
 30
0.0
 70
0
  0
VERTEX
  5
BE
  8
1
 10
-2421.097952
 20
-160.679421
 30
0.0
 70
0
  0
VERTEX
  5
BF
  8
1
 10
-2436.200825
 20
-163.959141
 30
0.0
 70
0
  0
VERTEX
  5
C0
  8
1
 10
-2450.936141
 20
-166.942507
 30
0.0
 70
0
  0
VERTEX
  5
C1
  8
1
 10
-2466.123385
 20
-169.805987
 30
0.0
 70
0
  0
VERTEX
  5
C2
  8
1
 10
-2480.901821
 20
-172.396462
 30
0.0
 70
0
  0
VERTEX
  5
C3
  8
1
 10
-2496.156597
 20
-174.874958
 30
0.0
 70
0
  0
VERTEX
  5
C4
  8
1
 10
-2510.990991
 20
-177.098501
 30
0.0
 70
0
  0
VERTEX
  5
C5
  8
1
 10
-2526.301571
 20
-179.204509
 30
0.0
 70
0
  0
VERTEX
  5
C6
  8
1
 10
-2541.770436
 20
-181.141947
 30
0.0
 70
0
  0
VERTEX
  5
C7
  8
1
 10
-2557.127094
 20
-182.880342
 30
0.0
 70
0
  0
VERTEX
  5
C8
  8
1
 10
-2572.632201
 20
-184.452545
 30
0.0
 70
0
  0
VERTEX
  5
C9
  8
1
 10
-2588.024967
 20
-185.835418
 30
0.0
 70
0
  0
VERTEX
  5
CA
  8
1
 10
-2603.554693
 20
-187.054886
 30
0.0
 70
0
  0
VERTEX
  5
CB
  8
1
 10
-2618.974457
 20
-188.094445
 30
0.0
 70
0
  0
VERTEX
  5
CC
  8
1
 10
-2634.516208
 20
-188.972531
 30
0.0
 70
0
  0
VERTEX
  5
CD
  8
1
 10
-2649.954602
 20
-189.680598
 30
0.0
 70
0
  0
VERTEX
  5
CE
  8
1
 10
-2665.495392
 20
-190.233228
 30
0.0
 70
0
  0
VERTEX
  5
CF
  8
1
 10
-2680.945196
 20
-190.62193
 30
0.0
 70
0
  0
VERTEX
  5
D0
  8
1
 10
-2696.349255
 20
-190.84851
 30
0.0
 70
0
  0
VERTEX
  5
D1
  8
1
 10
-2711.544731
 20
-190.947811
 30
0.0
 70
0
  0
VERTEX
  5
D2
  8
1
 10
-2724.412537
 20
-190.952206
 30
0.0
 70
0
  0
SEQEND
  5
33
  8
1
  0
POLYLINE
  5
D3
  8
14
 66
1
 10
0.0
 20
0.0
 30
0.0
 70
1
  0
VERTEX
  5
D5
  8
14
 10
-2724.40155
 20
-178.25222
 30
0.0
 70
0
  0
VERTEX
  5
D6
  8
14
 10
-2724.40155
 20
-178.25222
 30
0.0
 70
0
  0
VERTEX
  5
D7
  8
14
 10
-2731.635984
 20
-178.274744
 30
0.0
 70
0
  0
VERTEX
  5
D8
  8
14
 10
-2746.210486
 20
-178.153054
 30
0.0
 70
0
  0
VERTEX
  5
D9
  8
14
 10
-2761.618756
 20
-177.853681
 30
0.0
 70
0
  0
VERTEX
  5
DA
  8
14
 10
-2778.15828
 20
-177.364401
 30
0.0
 70
0
  0
VERTEX
  5
DB
  8
14
 10
-2794.583652
 20
-176.717067
 30
0.0
 70
0
  0
VERTEX
  5
DC
  8
14
 10
-2809.956329
 20
-175.968872
 30
0.0
 70
0
  0
VERTEX
  5
DD
  8
14
 10
-2826.392011
 20
-175.016743
 30
0.0
 70
0
  0
VERTEX
  5
DE
  8
14
 10
-2843.766279
 20
-173.836554
 30
0.0
 70
0
  0
VERTEX
  5
DF
  8
14
 10
-2858.87205
 20
-172.661445
 30
0.0
 70
0
  0
VERTEX
  5
E0
  8
14
 10
-2874.471244
 20
-171.297245
 30
0.0
 70
0
  0
VERTEX
  5
E1
  8
14
 10
-2890.491876
 20
-169.729991
 30
0.0
 70
0
  0
VERTEX
  5
E2
  8
14
 10
-2906.861959
 20
-167.945721
 30
0.0
 70
0
  0
VERTEX
  5
E3
  8
14
 10
-2923.509506
 20
-165.930473
 30
0.0
 70
0
  0
VERTEX
  5
E4
  8
14
 10
-2940.362569
 20
-163.670279
 30
0.0
 70
0
  0
VERTEX
  5
E5
  8
14
 10
-2957.349086
 20
-161.151188
 30
0.0
 70
0
  0
VERTEX
  5
E6
  8
14
 10
-2974.397107
 20
-158.359231
 30
0.0
 70
0
  0
VERTEX
  5
E7
  8
14
 10
-2989.319457
 20
-155.679692
 30
0.0
 70
0
  0
VERTEX
  5
E8
  8
14
 10
-3006.320216
 20
-152.343411
 30
0.0
 70
0
  0
VERTEX
  5
E9
  8
14
 10
-3023.265304
 20
-148.708702
 30
0.0
 70
0
  0
VERTEX
  5
EA
  8
14
 10
-3040.143631
 20
-144.771485
 30
0.0
 70
0
  0
VERTEX
  5
EB
  8
14
 10
-3056.944051
 20
-140.52769
 30
0.0
 70
0
  0
VERTEX
  5
EC
  8
14
 10
-3073.822988
 20
-135.928299
 30
0.0
 70
0
  0
VERTEX
  5
ED
  8
14
 10
-3090.27628
 20
-131.142506
 30
0.0
 70
0
  0
VERTEX
  5
EE
  8
14
 10
-3106.234413
 20
-126.250079
 30
0.0
 70
0
  0
VERTEX
  5
EF
  8
14
 10
-3121.44795
 20
-121.378714
 30
0.0
 70
0
  0
VERTEX
  5
F0
  8
14
 10
-3138.370125
 20
-115.740668
 30
0.0
 70
0
  0
VERTEX
  5
F1
  8
14
 10
-3153.429897
 20
-110.537476
 30
0.0
 70
0
  0
VERTEX
  5
F2
  8
14
 10
-3169.867545
 20
-104.657707
 30
0.0
 70
0
  0
VERTEX
  5
F3
  8
14
 10
-3186.653137
 20
-98.398142
 30
0.0
 70
0
  0
VERTEX
  5
F4
  8
14
 10
-3186.653137
 20
-98.398142
 30
0.0
 70
0
  0
VERTEX
  5
F5
  8
14
 10
-3186.653137
 20
-98.398142
 30
0.0
 70
0
  0
VERTEX
  5
F6
  8
14
 10
-3180.121101
 20
-85.7163
 30
0.0
 70
0
  0
VERTEX
  5
F7
  8
14
 10
-3173.162692
 20
-72.206642
 30
0.0
 70
0
  0
VERTEX
  5
F8
  8
14
 10
-3165.924988
 20
-58.154712
 30
0.0
 70
0
  0
VERTEX
  5
F9
  8
14
 10
-3165.924988
 20
-58.154712
 30
0.0
 70
0
  0
VERTEX
  5
FA
  8
14
 10
-3150.732007
 20
-63.762143
 30
0.0
 70
0
  0
VERTEX
  5
FB
  8
14
 10
-3136.493169
 20
-68.865671
 30
0.0
 70
0
  0
VERTEX
  5
FC
  8
14
 10
-3121.691382
 20
-73.964708
 30
0.0
 70
0
  0
VERTEX
  5
FD
  8
14
 10
-3107.436827
 20
-78.686989
 30
0.0
 70
0
  0
VERTEX
  5
FE
  8
14
 10
-3092.705314
 20
-83.399745
 30
0.0
 70
0
  0
VERTEX
  5
FF
  8
14
 10
-3078.350171
 20
-87.805824
 30
0.0
 70
0
  0
VERTEX
  5
100
  8
14
 10
-3063.412282
 20
-92.160012
 30
0.0
 70
0
  0
VERTEX
  5
101
  8
14
 10
-3048.93144
 20
-96.13845
 30
0.0
 70
0
  0
VERTEX
  5
102
  8
14
 10
-3034.38852
 20
-99.881791
 30
0.0
 70
0
  0
VERTEX
  5
103
  8
14
 10
-3019.900369
 20
-103.351547
 30
0.0
 70
0
  0
VERTEX
  5
104
  8
14
 10
-3005.241831
 20
-106.610219
 30
0.0
 70
0
  0
VERTEX
  5
105
  8
14
 10
-2990.350979
 20
-109.679625
 30
0.0
 70
0
  0
VERTEX
  5
106
  8
14
 10
-2975.600438
 20
-112.492424
 30
0.0
 70
0
  0
VERTEX
  5
107
  8
14
 10
-2960.488852
 20
-115.147925
 30
0.0
 70
0
  0
VERTEX
  5
108
  8
14
 10
-2945.66415
 20
-117.539129
 30
0.0
 70
0
  0
VERTEX
  5
109
  8
14
 10
-2930.529447
 20
-119.770297
 30
0.0
 70
0
  0
VERTEX
  5
10A
  8
14
 10
-2915.646295
 20
-121.764732
 30
0.0
 70
0
  0
VERTEX
  5
10B
  8
14
 10
-2900.209879
 20
-123.63124
 30
0.0
 70
0
  0
VERTEX
  5
10C
  8
14
 10
-2885.281034
 20
-125.247971
 30
0.0
 70
0
  0
VERTEX
  5
10D
  8
14
 10
-2869.714902
 20
-126.744404
 30
0.0
 70
0
  0
VERTEX
  5
10E
  8
14
 10
-2854.751727
 20
-128.00601
 30
0.0
 70
0
  0
VERTEX
  5
10F
  8
14
 10
-2839.075934
 20
-129.146057
 30
0.0
 70
0
  0
VERTEX
  5
110
  8
14
 10
-2823.471571
 20
-130.112255
 30
0.0
 70
0
  0
VERTEX
  5
111
  8
14
 10
-2808.207189
 20
-130.915952
 30
0.0
 70
0
  0
VERTEX
  5
112
  8
14
 10
-2792.831439
 20
-131.599861
 30
0.0
 70
0
  0
VERTEX
  5
113
  8
14
 10
-2777.713162
 20
-132.160247
 30
0.0
 70
0
  0
VERTEX
  5
114
  8
14
 10
-2762.736995
 20
-132.612634
 30
0.0
 70
0
  0
VERTEX
  5
115
  8
14
 10
-2747.76523
 20
-132.965209
 30
0.0
 70
0
  0
VERTEX
  5
116
  8
14
 10
-2732.717783
 20
-133.213896
 30
0.0
 70
0
  0
VERTEX
  5
117
  8
14
 10
-2724.755554
 20
-133.295612
 30
0.0
 70
0
  0
VERTEX
  5
118
  8
14
 10
-2710.116775
 20
-133.347757
 30
0.0
 70
0
  0
VERTEX
  5
119
  8
14
 10
-2696.909119
 20
-133.167639
 30
0.0
 70
0
  0
VERTEX
  5
11A
  8
14
 10
-2683.837729
 20
-132.719828
 30
0.0
 70
0
  0
VERTEX
  5
11B
  8
14
 10
-2668.791055
 20
-132.013807
 30
0.0
 70
0
  0
VERTEX
  5
11C
  8
14
 10
-2653.324735
 20
-131.348201
 30
0.0
 70
0
  0
VERTEX
  5
11D
  8
14
 10
-2638.274765
 20
-130.751452
 30
0.0
 70
0
  0
VERTEX
  5
11E
  8
14
 10
-2623.256798
 20
-130.02414
 30
0.0
 70
0
  0
VERTEX
  5
11F
  8
14
 10
-2608.222615
 20
-129.092752
 30
0.0
 70
0
  0
VERTEX
  5
120
  8
14
 10
-2593.200359
 20
-127.970713
 30
0.0
 70
0
  0
VERTEX
  5
121
  8
14
 10
-2578.191976
 20
-126.672325
 30
0.0
 70
0
  0
VERTEX
  5
122
  8
14
 10
-2563.07862
 20
-125.198927
 30
0.0
 70
0
  0
VERTEX
  5
123
  8
14
 10
-2548.104461
 20
-123.572754
 30
0.0
 70
0
  0
VERTEX
  5
124
  8
14
 10
-2533.11901
 20
-121.760866
 30
0.0
 70
0
  0
VERTEX
  5
125
  8
14
 10
-2518.190186
 20
-119.759407
 30
0.0
 70
0
  0
VERTEX
  5
126
  8
14
 10
-2502.931811
 20
-117.507021
 30
0.0
 70
0
  0
VERTEX
  5
127
  8
14
 10
-2488.062092
 20
-115.105327
 30
0.0
 70
0
  0
VERTEX
  5
128
  8
14
 10
-2472.828082
 20
-112.423872
 30
0.0
 70
0
  0
VERTEX
  5
129
  8
14
 10
-2458.033344
 20
-109.596639
 30
0.0
 70
0
  0
VERTEX
  5
12A
  8
14
 10
-2443.021114
 20
-106.494487
 30
0.0
 70
0
  0
VERTEX
  5
12B
  8
14
 10
-2428.319488
 20
-103.216873
 30
0.0
 70
0
  0
VERTEX
  5
12C
  8
14
 10
-2413.756818
 20
-99.718263
 30
0.0
 70
0
  0
VERTEX
  5
12D
  8
14
 10
-2399.17207
 20
-95.952107
 30
0.0
 70
0
  0
VERTEX
  5
12E
  8
14
 10
-2384.649828
 20
-91.950107
 30
0.0
 70
0
  0
VERTEX
  5
12F
  8
14
 10
-2370.150264
 20
-87.715245
 30
0.0
 70
0
  0
VERTEX
  5
130
  8
14
 10
-2355.752308
 20
-83.291434
 30
0.0
 70
0
  0
VERTEX
  5
131
  8
14
 10
-2341.453517
 20
-78.715525
 30
0.0
 70
0
  0
VERTEX
  5
132
  8
14
 10
-2327.154886
 20
-73.979435
 30
0.0
 70
0
  0
VERTEX
  5
133
  8
14
 10
-2312.501092
 20
-68.933169
 30
0.0
 70
0
  0
VERTEX
  5
134
  8
14
 10
-2297.862946
 20
-63.686615
 30
0.0
 70
0
  0
VERTEX
  5
135
  8
14
 10
-2282.823334
 20
-58.259997
 30
0.0
 70
0
  0
VERTEX
  5
136
  8
14
 10
-2282.877502
 20
-58.154731
 30
0.0
 70
0
  0
VERTEX
  5
137
  8
14
 10
-2275.359606
 20
-72.750791
 30
0.0
 70
0
  0
VERTEX
  5
138
  8
14
 10
-2268.240516
 20
-86.572473
 30
0.0
 70
0
  0
VERTEX
  5
139
  8
14
 10
-2262.149506
 20
-98.398142
 30
0.0
 70
0
  0
VERTEX
  5
13A
  8
14
 10
-2262.149506
 20
-98.398142
 30
0.0
 70
0
  0
VERTEX
  5
13B
  8
14
 10
-2277.867463
 20
-104.283532
 30
0.0
 70
0
  0
VERTEX
  5
13C
  8
14
 10
-2292.698192
 20
-109.620637
 30
0.0
 70
0
  0
VERTEX
  5
13D
  8
14
 10
-2307.891227
 20
-114.906588
 30
0.0
 70
0
  0
VERTEX
  5
13E
  8
14
 10
-2323.345735
 20
-120.09788
 30
0.0
 70
0
  0
VERTEX
  5
13F
  8
14
 10
-2338.206995
 20
-124.90668
 30
0.0
 70
0
  0
VERTEX
  5
140
  8
14
 10
-2353.87125
 20
-129.766946
 30
0.0
 70
0
  0
VERTEX
  5
141
  8
14
 10
-2370.093913
 20
-134.552523
 30
0.0
 70
0
  0
VERTEX
  5
142
  8
14
 10
-2385.162564
 20
-138.743391
 30
0.0
 70
0
  0
VERTEX
  5
143
  8
14
 10
-2401.811201
 20
-143.058475
 30
0.0
 70
0
  0
VERTEX
  5
144
  8
14
 10
-2416.446113
 20
-146.586229
 30
0.0
 70
0
  0
VERTEX
  5
145
  8
14
 10
-2431.137501
 20
-149.892531
 30
0.0
 70
0
  0
VERTEX
  5
146
  8
14
 10
-2445.879322
 20
-152.986905
 30
0.0
 70
0
  0
VERTEX
  5
147
  8
14
 10
-2460.665478
 20
-155.878858
 30
0.0
 70
0
  0
VERTEX
  5
148
  8
14
 10
-2476.061285
 20
-158.67786
 30
0.0
 70
0
  0
VERTEX
  5
149
  8
14
 10
-2490.921111
 20
-161.182512
 30
0.0
 70
0
  0
VERTEX
  5
14A
  8
14
 10
-2505.8122
 20
-163.503095
 30
0.0
 70
0
  0
VERTEX
  5
14B
  8
14
 10
-2520.731962
 20
-165.642413
 30
0.0
 70
0
  0
VERTEX
  5
14C
  8
14
 10
-2535.677729
 20
-167.60326
 30
0.0
 70
0
  0
VERTEX
  5
14D
  8
14
 10
-2550.646928
 20
-169.388439
 30
0.0
 70
0
  0
VERTEX
  5
14E
  8
14
 10
-2565.636855
 20
-171.000739
 30
0.0
 70
0
  0
VERTEX
  5
14F
  8
14
 10
-2580.644919
 20
-172.442964
 30
0.0
 70
0
  0
VERTEX
  5
150
  8
14
 10
-2595.668527
 20
-173.717915
 30
0.0
 70
0
  0
VERTEX
  5
151
  8
14
 10
-2610.704974
 20
-174.828382
 30
0.0
 70
0
  0
VERTEX
  5
152
  8
14
 10
-2625.751708
 20
-175.77717
 30
0.0
 70
0
  0
VERTEX
  5
153
  8
14
 10
-2640.806022
 20
-176.56707
 30
0.0
 70
0
  0
VERTEX
  5
154
  8
14
 10
-2655.865326
 20
-177.200885
 30
0.0
 70
0
  0
VERTEX
  5
155
  8
14
 10
-2670.927028
 20
-177.681413
 30
0.0
 70
0
  0
VERTEX
  5
156
  8
14
 10
-2685.988422
 20
-178.011449
 30
0.0
 70
0
  0
VERTEX
  5
157
  8
14
 10
-2702.511604
 20
-178.204869
 30
0.0
 70
0
  0
VERTEX
  5
158
  8
14
 10
-2717.316172
 20
-178.258271
 30
0.0
 70
0
  0
VERTEX
  5
159
  8
14
 10
-2724.40155
 20
-178.25222
 30
0.0
 70
0
  0
SEQEND
  5
D4
  8
14
  0
POLYLINE
  5
15A
  8
8
 66
1
 10
0.0
 20
0.0
 30
0.0
 70
0
  0
VERTEX
  5
15C
  8
8
 10
-2724.40155
 20
-133.270531
 30
0.0
 70
0
  0
VERTEX
  5
15D
  8
8
 10
-2724.40155
 20
-149.003215
 30
0.0
 70
0
  0
VERTEX
  5
15E
  8
8
 10
-2724.40155
 20
-164.019132
 30
0.0
 70
0
  0
VERTEX
  5
15F
  8
8
 10
-2724.40155
 20
-178.25222
 30
0.0
 70
0
  0
SEQEND
  5
15B
  8
8
  0
POINT
  5
160
  8
4
 10
-2724.393311
 20
-190.952187
 30
0.0
  0
POINT
  5
161
  8
4
 10
-3192.510681
 20
-109.770441
 30
0.0
  0
POINT
  5
162
  8
4
 10
-3193.339233
 20
-109.463024
 30
0.0
  0
POINT
  5
163
  8
4
 10
-3235.066528
 20
-32.635987
 30
0.0
  0
POINT
  5
164
  8
4
 10
-2213.738251
 20
-32.631867
 30
0.0
  0
POINT
  5
165
  8
4
 10
-2257.714386
 20
-110.298548
 30
0.0
  0
POINT
  5
166
  8
4
 10
-2724.412537
 20
-190.952206
 30
0.0
  0
POINT
  5
167
  8
4
 10
-2724.40155
 20
-178.25222
 30
0.0
  0
POINT
  5
168
  8
4
 10
-3186.653137
 20
-98.398142
 30
0.0
  0
POINT
  5
169
  8
4
 10
-3186.653137
 20
-98.398142
 30
0.0
  0
POINT
  5
16A
  8
4
 10
-3165.924988
 20
-58.154712
 30
0.0
  0
POINT
  5
16B
  8
4
 10
-2282.877502
 20
-58.154731
 30
0.0
  0
POINT
  5
16C
  8
4
 10
-2262.149506
 20
-98.398142
 30
0.0
  0
POINT
  5
16D
  8
4
 10
-2724.40155
 20
-178.25222
 30
0.0
  0
LINE
  5
16E
  8
7
 10
-2722.257385
 20
-137.799463
 30
0.0
 11
-2722.257385
 21
-173.759098
 31
0.0
  0
ENDSEC
  0
EOF
