  0
SECTION
  2
HEADER
  9
$ACADVER
  1
AC1009
  9
$DWGCODEPAGE
  3
ANSI_1252
  9
$INSBASE
 10
0.0
 20
0.0
 30
0.0
  9
$EXTMIN
 10
1e+20
 20
1e+20
 30
1e+20
  9
$EXTMAX
 10
-1e+20
 20
-1e+20
 30
-1e+20
  9
$LIMMIN
 10
0.0
 20
0.0
  9
$LIMMAX
 10
420.0
 20
297.0
  9
$ORTHOMODE
 70
0
  9
$REGENMODE
 70
1
  9
$FILLMODE
 70
1
  9
$DRAGMODE
 70
2
  9
$QTEXTMODE
 70
0
  9
$MIRRTEXT
 70
1
  9
$OSMODE
 70
20583
  9
$LTSCALE
 40
1.0
  9
$ATTMODE
 70
1
  9
$TEXTSIZE
 40
2.5
  9
$TRACEWID
 40
1.0
  9
$TEXTSTYLE
  7
Standard
  9
$CLAYER
  8
0
  9
$CELTYPE
  6
ByLayer
  9
$CECOLOR
 62
256
  9
$DIMSCALE
 40
1.0
  9
$DIMASZ
 40
2.5
  9
$DIMEXO
 40
0.625
  9
$DIMDLI
 40
3.75
  9
$DIMRND
 40
0.0
  9
$DIMDLE
 40
0.0
  9
$DIMEXE
 40
1.25
  9
$DIMTP
 40
0.0
  9
$DIMTM
 40
0.0
  9
$DIMTXT
 40
2.5
  9
$DIMCEN
 40
2.5
  9
$DIMTSZ
 40
0.0
  9
$DIMTOL
 70
0
  9
$DIMLIM
 70
0
  9
$DIMTIH
 70
0
  9
$DIMTOH
 70
0
  9
$DIMSE1
 70
0
  9
$DIMSE2
 70
0
  9
$DIMTAD
 70
1
  9
$DIMZIN
 70
8
  9
$DIMBLK
  1

  9
$DIMASO
 70
1
  9
$DIMSHO
 70
1
  9
$DIMPOST
  1

  9
$DIMAPOST
  1

  9
$DIMALT
 70
0
  9
$DIMALTD
 70
3
  9
$DIMALTF
 40
0.03937007874
  9
$DIMLFAC
 40
1.0
  9
$DIMTOFL
 70
1
  9
$DIMTVP
 40
0.0
  9
$DIMTIX
 70
0
  9
$DIMSOXD
 70
0
  9
$DIMSAH
 70
0
  9
$DIMBLK1
  1

  9
$DIMBLK2
  1

  9
$DIMSTYLE
  2
ISO-25
  9
$DIMCLRD
 70
0
  9
$DIMCLRE
 70
0
  9
$DIMCLRT
 70
0
  9
$DIMTFAC
 40
1.0
  9
$DIMGAP
 40
0.625
  9
$COORDS
 70
1
  9
$ATTDIA
 70
0
  9
$ATTREQ
 70
1
  9
$HANDLING
 70
1
  9
$LUNITS
 70
2
  9
$LUPREC
 70
4
  9
$SKETCHINC
 40
1.0
  9
$FILLETRAD
 40
10.0
  9
$AUNITS
 70
0
  9
$AUPREC
 70
2
  9
$MENU
  1
.
  9
$ELEVATION
 40
0.0
  9
$PELEVATION
 40
0.0
  9
$THICKNESS
 40
0.0
  9
$LIMCHECK
 70
0
  9
$CHAMFERA
 40
0.0
  9
$CHAMFERB
 40
0.0
  9
$SKPOLY
 70
0
  9
$TDCREATE
 40
2461259.4353819443
  9
$TDUPDATE
 40
2461259.4353819443
  9
$TDINDWG
 40
0.0
  9
$TDUSRTIMER
 40
0.0
  9
$USRTIMER
 70
1
  9
$ANGBASE
 50
0.0
  9
$ANGDIR
 70
0
  9
$PDMODE
 70
0
  9
$PDSIZE
 40
0.0
  9
$PLINEWID
 40
0.0
  9
$SPLFRAME
 70
0
  9
$SPLINETYPE
 70
6
  9
$SPLINESEGS
 70
8
  9
$HANDSEED
  5
D0
  9
$SURFTAB1
 70
6
  9
$SURFTAB2
 70
6
  9
$SURFTYPE
 70
6
  9
$SURFU
 70
6
  9
$SURFV
 70
6
  9
$UCSNAME
  2

  9
$UCSORG
 10
0.0
 20
0.0
 30
0.0
  9
$UCSXDIR
 10
1.0
 20
0.0
 30
0.0
  9
$UCSYDIR
 10
0.0
 20
1.0
 30
0.0
  9
$PUCSNAME
  2

  9
$PUCSORG
 10
0.0
 20
0.0
 30
0.0
  9
$PUCSXDIR
 10
1.0
 20
0.0
 30
0.0
  9
$PUCSYDIR
 10
0.0
 20
1.0
 30
0.0
  9
$USERI1
 70
0
  9
$USERI2
 70
0
  9
$USERI3
 70
0
  9
$USERI4
 70
0
  9
$USERI5
 70
0
  9
$USERR1
 40
0.0
  9
$USERR2
 40
0.0
  9
$USERR3
 40
0.0
  9
$USERR4
 40
0.0
  9
$USERR5
 40
0.0
  9
$WORLDVIEW
 70
1
  9
$SHADEDGE
 70
3
  9
$SHADEDIF
 70
70
  9
$TILEMODE
 70
1
  9
$MAXACTVP
 70
64
  9
$PLIMCHECK
 70
0
  9
$PEXTMIN
 10
1e+20
 20
1e+20
 30
1e+20
  9
$PEXTMAX
 10
-1e+20
 20
-1e+20
 30
-1e+20
  9
$PLIMMIN
 10
0.0
 20
0.0
  9
$PLIMMAX
 10
420.0
 20
297.0
  9
$UNITMODE
 70
0
  9
$VISRETAIN
 70
1
  9
$PLINEGEN
 70
0
  9
$PSLTSCALE
 70
1
  0
ENDSEC
  0
SECTION
  2
TABLES
  0
TABLE
  2
VPORT
 70
1
  0
VPORT
  5
23
  2
*Active
 70
0
 10
0.0
 20
0.0
 11
1.0
 21
1.0
 12
0.0
 22
0.0
 13
0.0
 23
0.0
 14
0.5
 24
0.5
 15
0.5
 25
0.5
 16
0.0
 26
0.0
 36
1.0
 17
0.0
 27
0.0
 37
0.0
 40
1000.0
 41
1.34
 42
50.0
 43
0.0
 44
0.0
 50
0.0
 51
0.0
 71
0
 72
1000
 73
1
 74
3
 75
0
 76
0
 77
0
 78
0
  0
ENDTAB
  0
TABLE
  2
LTYPE
 70
3
  0
LTYPE
  5
24
  2
ByBlock
 70
0
  3

 72
65
 73
0
 40
0.0
  0
LTYPE
  5
25
  2
ByLayer
 70
0
  3

 72
65
 73
0
 40
0.0
  0
LTYPE
  5
26
  2
Continuous
 70
0
  3

 72
65
 73
0
 40
0.0
  0
ENDTAB
  0
TABLE
  2
LAYER
 70
4
  0
LAYER
  5
27
  2
0
 70
0
 62
7
  6
Continuous
  0
LAYER
  5
28
  2
Defpoints
 70
0
 62
7
  6
Continuous
  0
LAYER
  5
2D
  2
1
 70
0
 62
1
  6
Continuous
  0
LAYER
  5
2E
  2
7
 70
0
 62
7
  6
Continuous
  0
ENDTAB
  0
TABLE
  2
STYLE
 70
1
  0
STYLE
  5
29
  2
Standard
 70
0
 40
0.0
 41
1.0
 50
0.0
 71
0
 42
2.5
  3
txt
  4

  0
ENDTAB
  0
TABLE
  2
VIEW
 70
0
  0
ENDTAB
  0
TABLE
  2
UCS
 70
0
  0
ENDTAB
  0
TABLE
  2
APPID
 70
3
  0
APPID
  5
2A
  2
ACAD
 70
0
  0
APPID
  5
CE
  2
HATCHBACKGROUNDCOLOR
 70
0
  0
APPID
  5
CF
  2
EZDXF
 70
0
  0
ENDTAB
  0
TABLE
  2
DIMSTYLE
 70
1
  0
DIMSTYLE
105
2B
  2
Standard
 70
0
  3

  4

  5

  6

  7

 40
1.0
 41
2.5
 42
0.625
 43
3.75
 44
1.25
 45
0.0
 46
0.0
 47
0.0
 48
0.0
140
2.5
141
2.5
142
0.0
143
0.03937007874
144
1.0
145
0.0
146
1.0
147
0.625
 71
0
 72
0
 73
0
 74
0
 75
0
 76
0
 77
1
 78
8
170
0
171
3
172
1
173
0
174
0
175
0
176
0
177
0
178
0
  0
ENDTAB
  0
ENDSEC
  0
SECTION
  2
BLOCKS
  0
BLOCK
  5
18
  8
0
  2
$Model_Space
 70
0
 10
0.0
 20
0.0
 30
0.0
  3
$Model_Space
  1

1001
EZDXF
1000
CREATED_BY_EZDXF
1000
1.4.4 @ 2026-08-06T02:26:57.906763+00:00
1000
WRITTEN_BY_EZDXF
1000
1.4.4 @ 2026-08-06T02:26:57.908763+00:00
  0
ENDBLK
  5
19
  8
0
  0
BLOCK
  5
1C
  8
0
  2
$Paper_Space
 70
0
 10
0.0
 20
0.0
 30
0.0
  3
$Paper_Space
  1

  0
ENDBLK
  5
1D
  8
0
  0
ENDSEC
  0
SECTION
  2
ENTITIES
  0
POLYLINE
  5
2F
  8
1
 66
1
 10
0.0
 20
0.0
 30
0.0
 70
1
  0
VERTEX
  5
31
  8
1
 10
-2724.324341
 20
-189.046974
 30
0.0
 70
0
  0
VERTEX
  5
32
  8
1
 10
-2724.415894
 20
-189.046898
 30
0.0
 70
0
  0
VERTEX
  5
33
  8
1
 10
-2739.536017
 20
-188.951175
 30
0.0
 70
0
  0
VERTEX
  5
34
  8
1
 10
-2754.840621
 20
-188.718273
 30
0.0
 70
0
  0
VERTEX
  5
35
  8
1
 10
-2770.03167
 20
-188.306974
 30
0.0
 70
0
  0
VERTEX
  5
36
  8
1
 10
-2786.029496
 20
-187.695784
 30
0.0
 70
0
  0
VERTEX
  5
37
  8
1
 10
-2800.933857
 20
-186.995003
 30
0.0
 70
0
  0
VERTEX
  5
38
  8
1
 10
-2816.303358
 20
-186.139827
 30
0.0
 70
0
  0
VERTEX
  5
39
  8
1
 10
-2831.516155
 20
-185.152863
 30
0.0
 70
0
  0
VERTEX
  5
3A
  8
1
 10
-2846.867282
 20
-184.011521
 30
0.0
 70
0
  0
VERTEX
  5
3B
  8
1
 10
-2862.331743
 20
-182.711882
 30
0.0
 70
0
  0
VERTEX
  5
3C
  8
1
 10
-2877.657529
 20
-181.270281
 30
0.0
 70
0
  0
VERTEX
  5
3D
  8
1
 10
-2892.777028
 20
-179.690824
 30
0.0
 70
0
  0
VERTEX
  5
3E
  8
1
 10
-2908.069112
 20
-177.926029
 30
0.0
 70
0
  0
VERTEX
  5
3F
  8
1
 10
-2923.545187
 20
-175.959135
 30
0.0
 70
0
  0
VERTEX
  5
40
  8
1
 10
-2938.791141
 20
-173.831872
 30
0.0
 70
0
  0
VERTEX
  5
41
  8
1
 10
-2954.16662
 20
-171.481687
 30
0.0
 70
0
  0
VERTEX
  5
42
  8
1
 10
-2969.349838
 20
-168.944078
 30
0.0
 70
0
  0
VERTEX
  5
43
  8
1
 10
-2984.710778
 20
-166.141064
 30
0.0
 70
0
  0
VERTEX
  5
44
  8
1
 10
-2999.809269
 20
-163.140586
 30
0.0
 70
0
  0
VERTEX
  5
45
  8
1
 10
-3014.858462
 20
-159.901341
 30
0.0
 70
0
  0
VERTEX
  5
46
  8
1
 10
-3029.491918
 20
-156.508315
 30
0.0
 70
0
  0
VERTEX
  5
47
  8
1
 10
-3044.429659
 20
-152.788406
 30
0.0
 70
0
  0
VERTEX
  5
48
  8
1
 10
-3058.884797
 20
-148.932878
 30
0.0
 70
0
  0
VERTEX
  5
49
  8
1
 10
-3073.693587
 20
-144.729406
 30
0.0
 70
0
  0
VERTEX
  5
4A
  8
1
 10
-3088.447219
 20
-140.307949
 30
0.0
 70
0
  0
VERTEX
  5
4B
  8
1
 10
-3103.134484
 20
-135.699123
 30
0.0
 70
0
  0
VERTEX
  5
4C
  8
1
 10
-3117.594576
 20
-130.98622
 30
0.0
 70
0
  0
VERTEX
  5
4D
  8
1
 10
-3132.180322
 20
-126.064304
 30
0.0
 70
0
  0
VERTEX
  5
4E
  8
1
 10
-3146.799156
 20
-120.933822
 30
0.0
 70
0
  0
VERTEX
  5
4F
  8
1
 10
-3161.261271
 20
-115.661893
 30
0.0
 70
0
  0
VERTEX
  5
50
  8
1
 10
-3175.687745
 20
-110.291296
 30
0.0
 70
0
  0
VERTEX
  5
51
  8
1
 10
-3178.808289
 20
-109.12447
 30
0.0
 70
0
  0
VERTEX
  5
52
  8
1
 10
-3179.665527
 20
-108.803997
 30
0.0
 70
0
  0
VERTEX
  5
53
  8
1
 10
-3190.083423
 20
-104.908544
 30
0.0
 70
0
  0
VERTEX
  5
54
  8
1
 10
-3204.503102
 20
-99.516456
 30
0.0
 70
0
  0
VERTEX
  5
55
  8
1
 10
-3218.763654
 20
-94.183598
 30
0.0
 70
0
  0
VERTEX
  5
56
  8
1
 10
-3233.247832
 20
-88.766863
 30
0.0
 70
0
  0
VERTEX
  5
57
  8
1
 10
-3247.803955
 20
-83.322954
 30
0.0
 70
0
  0
VERTEX
  5
58
  8
1
 10
-3243.548308
 20
-75.060683
 30
0.0
 70
0
  0
VERTEX
  5
59
  8
1
 10
-3236.659825
 20
-61.686944
 30
0.0
 70
0
  0
VERTEX
  5
5A
  8
1
 10
-3229.65443
 20
-48.086313
 30
0.0
 70
0
  0
VERTEX
  5
5B
  8
1
 10
-3222.571818
 20
-34.335404
 30
0.0
 70
0
  0
VERTEX
  5
5C
  8
1
 10
-3221.283264
 20
-31.833494
 30
0.0
 70
0
  0
VERTEX
  5
5D
  8
1
 10
-3215.4245
 20
-20.458448
 30
0.0
 70
0
  0
VERTEX
  5
5E
  8
1
 10
-3201.00834
 20
-25.816488
 30
0.0
 70
0
  0
VERTEX
  5
5F
  8
1
 10
-3186.433499
 20
-31.235243
 30
0.0
 70
0
  0
VERTEX
  5
60
  8
1
 10
-3171.926615
 20
-36.630386
 30
0.0
 70
0
  0
VERTEX
  5
61
  8
1
 10
-3157.769574
 20
-41.897218
 30
0.0
 70
0
  0
VERTEX
  5
62
  8
1
 10
-3143.469965
 20
-47.218707
 30
0.0
 70
0
  0
VERTEX
  5
63
  8
1
 10
-3129.390536
 20
-52.417321
 30
0.0
 70
0
  0
VERTEX
  5
64
  8
1
 10
-3115.083548
 20
-57.543223
 30
0.0
 70
0
  0
VERTEX
  5
65
  8
1
 10
-3100.886012
 20
-62.409726
 30
0.0
 70
0
  0
VERTEX
  5
66
  8
1
 10
-3086.124166
 20
-67.276448
 30
0.0
 70
0
  0
VERTEX
  5
67
  8
1
 10
-3071.820299
 20
-71.820748
 30
0.0
 70
0
  0
VERTEX
  5
68
  8
1
 10
-3057.288713
 20
-76.226864
 30
0.0
 70
0
  0
VERTEX
  5
69
  8
1
 10
-3042.859272
 20
-80.360164
 30
0.0
 70
0
  0
VERTEX
  5
6A
  8
1
 10
-3028.363926
 20
-84.255992
 30
0.0
 70
0
  0
VERTEX
  5
6B
  8
1
 10
-3014.425584
 20
-87.749197
 30
0.0
 70
0
  0
VERTEX
  5
6C
  8
1
 10
-2999.80647
 20
-91.146628
 30
0.0
 70
0
  0
VERTEX
  5
6D
  8
1
 10
-2984.974679
 20
-94.334725
 30
0.0
 70
0
  0
VERTEX
  5
6E
  8
1
 10
-2970.253479
 20
-97.258517
 30
0.0
 70
0
  0
VERTEX
  5
6F
  8
1
 10
-2955.021848
 20
-100.041704
 30
0.0
 70
0
  0
VERTEX
  5
70
  8
1
 10
-2940.219303
 20
-102.51981
 30
0.0
 70
0
  0
VERTEX
  5
71
  8
1
 10
-2924.930582
 20
-104.854373
 30
0.0
 70
0
  0
VERTEX
  5
72
  8
1
 10
-2910.063974
 20
-106.913937
 30
0.0
 70
0
  0
VERTEX
  5
73
  8
1
 10
-2895.170761
 20
-108.776712
 30
0.0
 70
0
  0
VERTEX
  5
74
  8
1
 10
-2880.255686
 20
-110.448462
 30
0.0
 70
0
  0
VERTEX
  5
75
  8
1
 10
-2865.213059
 20
-111.945396
 30
0.0
 70
0
  0
VERTEX
  5
76
  8
1
 10
-2850.261469
 20
-113.251957
 30
0.0
 70
0
  0
VERTEX
  5
77
  8
1
 10
-2835.088682
 20
-114.3997
 30
0.0
 70
0
  0
VERTEX
  5
78
  8
1
 10
-2820.111542
 20
-115.368365
 30
0.0
 70
0
  0
VERTEX
  5
79
  8
1
 10
-2805.096738
 20
-116.196135
 30
0.0
 70
0
  0
VERTEX
  5
7A
  8
1
 10
-2790.104929
 20
-116.898418
 30
0.0
 70
0
  0
VERTEX
  5
7B
  8
1
 10
-2774.645762
 20
-117.50828
 30
0.0
 70
0
  0
VERTEX
  5
7C
  8
1
 10
-2759.645169
 20
-117.993683
 30
0.0
 70
0
  0
VERTEX
  5
7D
  8
1
 10
-2744.089105
 20
-118.371285
 30
0.0
 70
0
  0
VERTEX
  5
7E
  8
1
 10
-2729.081022
 20
-118.625188
 30
0.0
 70
0
  0
VERTEX
  5
7F
  8
1
 10
-2723.188782
 20
-118.705597
 30
0.0
 70
0
  0
VERTEX
  5
80
  8
1
 10
-2721.081127
 20
-118.718211
 30
0.0
 70
0
  0
VERTEX
  5
81
  8
1
 10
-2707.132714
 20
-118.664365
 30
0.0
 70
0
  0
VERTEX
  5
82
  8
1
 10
-2694.7626
 20
-118.371218
 30
0.0
 70
0
  0
VERTEX
  5
83
  8
1
 10
-2679.325025
 20
-117.74207
 30
0.0
 70
0
  0
VERTEX
  5
84
  8
1
 10
-2663.889755
 20
-117.006835
 30
0.0
 70
0
  0
VERTEX
  5
85
  8
1
 10
-2648.83853
 20
-116.344173
 30
0.0
 70
0
  0
VERTEX
  5
86
  8
1
 10
-2633.405279
 20
-115.63734
 30
0.0
 70
0
  0
VERTEX
  5
87
  8
1
 10
-2618.28694
 20
-114.757128
 30
0.0
 70
0
  0
VERTEX
  5
88
  8
1
 10
-2602.876731
 20
-113.637876
 30
0.0
 70
0
  0
VERTEX
  5
89
  8
1
 10
-2587.67714
 20
-112.337788
 30
0.0
 70
0
  0
VERTEX
  5
8A
  8
1
 10
-2572.299994
 20
-110.837421
 30
0.0
 70
0
  0
VERTEX
  5
8B
  8
1
 10
-2557.26179
 20
-109.195592
 30
0.0
 70
0
  0
VERTEX
  5
8C
  8
1
 10
-2541.924588
 20
-107.329155
 30
0.0
 70
0
  0
VERTEX
  5
8D
  8
1
 10
-2526.689153
 20
-105.262383
 30
0.0
 70
0
  0
VERTEX
  5
8E
  8
1
 10
-2511.409972
 20
-102.968428
 30
0.0
 70
0
  0
VERTEX
  5
8F
  8
1
 10
-2496.23417
 20
-100.466721
 30
0.0
 70
0
  0
VERTEX
  5
90
  8
1
 10
-2481.028405
 20
-97.728078
 30
0.0
 70
0
  0
VERTEX
  5
91
  8
1
 10
-2466.022724
 20
-94.786851
 30
0.0
 70
0
  0
VERTEX
  5
92
  8
1
 10
-2450.910271
 20
-91.572226
 30
0.0
 70
0
  0
VERTEX
  5
93
  8
1
 10
-2436.194761
 20
-88.184655
 30
0.0
 70
0
  0
VERTEX
  5
94
  8
1
 10
-2422.198798
 20
-84.711264
 30
0.0
 70
0
  0
VERTEX
  5
95
  8
1
 10
-2407.816799
 20
-80.874735
 30
0.0
 70
0
  0
VERTEX
  5
96
  8
1
 10
-2392.956193
 20
-76.642746
 30
0.0
 70
0
  0
VERTEX
  5
97
  8
1
 10
-2378.161098
 20
-72.186261
 30
0.0
 70
0
  0
VERTEX
  5
98
  8
1
 10
-2363.771395
 20
-67.642821
 30
0.0
 70
0
  0
VERTEX
  5
99
  8
1
 10
-2349.097738
 20
-62.806589
 30
0.0
 70
0
  0
VERTEX
  5
9A
  8
1
 10
-2334.594262
 20
-57.829988
 30
0.0
 70
0
  0
VERTEX
  5
9B
  8
1
 10
-2320.039767
 20
-52.645447
 30
0.0
 70
0
  0
VERTEX
  5
9C
  8
1
 10
-2305.666097
 20
-47.358999
 30
0.0
 70
0
  0
VERTEX
  5
9D
  8
1
 10
-2290.708651
 20
-41.776776
 30
0.0
 70
0
  0
VERTEX
  5
9E
  8
1
 10
-2276.675211
 20
-36.550513
 30
0.0
 70
0
  0
VERTEX
  5
9F
  8
1
 10
-2262.19196
 20
-31.171034
 30
0.0
 70
0
  0
VERTEX
  5
A0
  8
1
 10
-2248.021482
 20
-25.906359
 30
0.0
 70
0
  0
VERTEX
  5
A1
  8
1
 10
-2233.376465
 20
-20.4619
 30
0.0
 70
0
  0
VERTEX
  5
A2
  8
1
 10
-2227.516632
 20
-31.838715
 30
0.0
 70
0
  0
VERTEX
  5
A3
  8
1
 10
-2226.25045
 20
-34.296954
 30
0.0
 70
0
  0
VERTEX
  5
A4
  8
1
 10
-2219.348448
 20
-47.697148
 30
0.0
 70
0
  0
VERTEX
  5
A5
  8
1
 10
-2212.349771
 20
-61.285082
 30
0.0
 70
0
  0
VERTEX
  5
A6
  8
1
 10
-2205.451956
 20
-74.677171
 30
0.0
 70
0
  0
VERTEX
  5
A7
  8
1
 10
-2201.03302
 20
-83.256502
 30
0.0
 70
0
  0
VERTEX
  5
A8
  8
1
 10
-2215.58839
 20
-88.715351
 30
0.0
 70
0
  0
VERTEX
  5
A9
  8
1
 10
-2230.070733
 20
-94.147142
 30
0.0
 70
0
  0
VERTEX
  5
AA
  8
1
 10
-2244.328475
 20
-99.494997
 30
0.0
 70
0
  0
VERTEX
  5
AB
  8
1
 10
-2258.744189
 20
-104.902446
 30
0.0
 70
0
  0
VERTEX
  5
AC
  8
1
 10
-2271.389465
 20
-109.646149
 30
0.0
 70
0
  0
VERTEX
  5
AD
  8
1
 10
-2273.098149
 20
-110.28711
 30
0.0
 70
0
  0
VERTEX
  5
AE
  8
1
 10
-2287.51906
 20
-115.672487
 30
0.0
 70
0
  0
VERTEX
  5
AF
  8
1
 10
-2301.977886
 20
-120.953235
 30
0.0
 70
0
  0
VERTEX
  5
B0
  8
1
 10
-2316.540983
 20
-126.066823
 30
0.0
 70
0
  0
VERTEX
  5
B1
  8
1
 10
-2331.126029
 20
-130.990767
 30
0.0
 70
0
  0
VERTEX
  5
B2
  8
1
 10
-2345.850702
 20
-135.789551
 30
0.0
 70
0
  0
VERTEX
  5
B3
  8
1
 10
-2360.539977
 20
-140.391748
 30
0.0
 70
0
  0
VERTEX
  5
B4
  8
1
 10
-2375.462815
 20
-144.85074
 30
0.0
 70
0
  0
VERTEX
  5
B5
  8
1
 10
-2390.276951
 20
-149.034921
 30
0.0
 70
0
  0
VERTEX
  5
B6
  8
1
 10
-2404.605254
 20
-152.830437
 30
0.0
 70
0
  0
VERTEX
  5
B7
  8
1
 10
-2419.548599
 20
-156.527873
 30
0.0
 70
0
  0
VERTEX
  5
B8
  8
1
 10
-2434.540559
 20
-159.984658
 30
0.0
 70
0
  0
VERTEX
  5
B9
  8
1
 10
-2449.59141
 20
-163.215621
 30
0.0
 70
0
  0
VERTEX
  5
BA
  8
1
 10
-2464.654651
 20
-166.224011
 30
0.0
 70
0
  0
VERTEX
  5
BB
  8
1
 10
-2479.789936
 20
-169.032276
 30
0.0
 70
0
  0
VERTEX
  5
BC
  8
1
 10
-2494.593679
 20
-171.579377
 30
0.0
 70
0
  0
VERTEX
  5
BD
  8
1
 10
-2509.79634
 20
-173.99656
 30
0.0
 70
0
  0
VERTEX
  5
BE
  8
1
 10
-2524.959118
 20
-176.211387
 30
0.0
 70
0
  0
VERTEX
  5
BF
  8
1
 10
-2540.217522
 20
-178.246662
 30
0.0
 70
0
  0
VERTEX
  5
C0
  8
1
 10
-2555.499683
 20
-180.094998
 30
0.0
 70
0
  0
VERTEX
  5
C1
  8
1
 10
-2570.727062
 20
-181.75188
 30
0.0
 70
0
  0
VERTEX
  5
C2
  8
1
 10
-2586.04879
 20
-183.236984
 30
0.0
 70
0
  0
VERTEX
  5
C3
  8
1
 10
-2601.302315
 20
-184.538038
 30
0.0
 70
0
  0
VERTEX
  5
C4
  8
1
 10
-2616.654033
 20
-185.6724
 30
0.0
 70
0
  0
VERTEX
  5
C5
  8
1
 10
-2631.919923
 20
-186.629695
 30
0.0
 70
0
  0
VERTEX
  5
C6
  8
1
 10
-2647.292856
 20
-187.425463
 30
0.0
 70
0
  0
VERTEX
  5
C7
  8
1
 10
-2662.555668
 20
-188.052749
 30
0.0
 70
0
  0
VERTEX
  5
C8
  8
1
 10
-2677.942082
 20
-188.523907
 30
0.0
 70
0
  0
VERTEX
  5
C9
  8
1
 10
-2693.184465
 20
-188.831131
 30
0.0
 70
0
  0
VERTEX
  5
CA
  8
1
 10
-2708.568647
 20
-188.99321
 30
0.0
 70
0
  0
VERTEX
  5
CB
  8
1
 10
-2723.287076
 20
-189.047444
 30
0.0
 70
0
  0
VERTEX
  5
CC
  8
1
 10
-2724.403992
 20
-189.047222
 30
0.0
 70
0
  0
SEQEND
  5
30
  8
1
  0
LINE
  5
CD
  8
7
 10
-2722.257385
 20
-132.500181
 30
0.0
 11
-2722.257385
 21
-194.629478
 31
0.0
  0
ENDSEC
  0
EOF
