  0
SECTION
  2
HEADER
  9
$ACADVER
  1
AC1009
  9
$DWGCODEPAGE
  3
ANSI_1252
  9
$INSBASE
 10
0.0
 20
0.0
 30
0.0
  9
$EXTMIN
 10
1e+20
 20
1e+20
 30
1e+20
  9
$EXTMAX
 10
-1e+20
 20
-1e+20
 30
-1e+20
  9
$LIMMIN
 10
0.0
 20
0.0
  9
$LIMMAX
 10
420.0
 20
297.0
  9
$ORTHOMODE
 70
0
  9
$REGENMODE
 70
1
  9
$FILLMODE
 70
1
  9
$DRAGMODE
 70
2
  9
$QTEXTMODE
 70
0
  9
$MIRRTEXT
 70
1
  9
$OSMODE
 70
20583
  9
$LTSCALE
 40
1.0
  9
$ATTMODE
 70
1
  9
$TEXTSIZE
 40
2.5
  9
$TRACEWID
 40
1.0
  9
$TEXTSTYLE
  7
Standard
  9
$CLAYER
  8
0
  9
$CELTYPE
  6
ByLayer
  9
$CECOLOR
 62
256
  9
$DIMSCALE
 40
1.0
  9
$DIMASZ
 40
2.5
  9
$DIMEXO
 40
0.625
  9
$DIMDLI
 40
3.75
  9
$DIMRND
 40
0.0
  9
$DIMDLE
 40
0.0
  9
$DIMEXE
 40
1.25
  9
$DIMTP
 40
0.0
  9
$DIMTM
 40
0.0
  9
$DIMTXT
 40
2.5
  9
$DIMCEN
 40
2.5
  9
$DIMTSZ
 40
0.0
  9
$DIMTOL
 70
0
  9
$DIMLIM
 70
0
  9
$DIMTIH
 70
0
  9
$DIMTOH
 70
0
  9
$DIMSE1
 70
0
  9
$DIMSE2
 70
0
  9
$DIMTAD
 70
1
  9
$DIMZIN
 70
8
  9
$DIMBLK
  1

  9
$DIMASO
 70
1
  9
$DIMSHO
 70
1
  9
$DIMPOST
  1

  9
$DIMAPOST
  1

  9
$DIMALT
 70
0
  9
$DIMALTD
 70
3
  9
$DIMALTF
 40
0.03937007874
  9
$DIMLFAC
 40
1.0
  9
$DIMTOFL
 70
1
  9
$DIMTVP
 40
0.0
  9
$DIMTIX
 70
0
  9
$DIMSOXD
 70
0
  9
$DIMSAH
 70
0
  9
$DIMBLK1
  1

  9
$DIMBLK2
  1

  9
$DIMSTYLE
  2
ISO-25
  9
$DIMCLRD
 70
0
  9
$DIMCLRE
 70
0
  9
$DIMCLRT
 70
0
  9
$DIMTFAC
 40
1.0
  9
$DIMGAP
 40
0.625
  9
$COORDS
 70
1
  9
$ATTDIA
 70
0
  9
$ATTREQ
 70
1
  9
$HANDLING
 70
1
  9
$LUNITS
 70
2
  9
$LUPREC
 70
4
  9
$SKETCHINC
 40
1.0
  9
$FILLETRAD
 40
10.0
  9
$AUNITS
 70
0
  9
$AUPREC
 70
2
  9
$MENU
  1
.
  9
$ELEVATION
 40
0.0
  9
$PELEVATION
 40
0.0
  9
$THICKNESS
 40
0.0
  9
$LIMCHECK
 70
0
  9
$CHAMFERA
 40
0.0
  9
$CHAMFERB
 40
0.0
  9
$SKPOLY
 70
0
  9
$TDCREATE
 40
2461264.9423032408
  9
$TDUPDATE
 40
2461264.9423032408
  9
$TDINDWG
 40
0.0
  9
$TDUSRTIMER
 40
0.0
  9
$USRTIMER
 70
1
  9
$ANGBASE
 50
0.0
  9
$ANGDIR
 70
0
  9
$PDMODE
 70
0
  9
$PDSIZE
 40
0.0
  9
$PLINEWID
 40
0.0
  9
$SPLFRAME
 70
0
  9
$SPLINETYPE
 70
6
  9
$SPLINESEGS
 70
8
  9
$HANDSEED
  5
1A3
  9
$SURFTAB1
 70
6
  9
$SURFTAB2
 70
6
  9
$SURFTYPE
 70
6
  9
$SURFU
 70
6
  9
$SURFV
 70
6
  9
$UCSNAME
  2

  9
$UCSORG
 10
0.0
 20
0.0
 30
0.0
  9
$UCSXDIR
 10
1.0
 20
0.0
 30
0.0
  9
$UCSYDIR
 10
0.0
 20
1.0
 30
0.0
  9
$PUCSNAME
  2

  9
$PUCSORG
 10
0.0
 20
0.0
 30
0.0
  9
$PUCSXDIR
 10
1.0
 20
0.0
 30
0.0
  9
$PUCSYDIR
 10
0.0
 20
1.0
 30
0.0
  9
$USERI1
 70
0
  9
$USERI2
 70
0
  9
$USERI3
 70
0
  9
$USERI4
 70
0
  9
$USERI5
 70
0
  9
$USERR1
 40
0.0
  9
$USERR2
 40
0.0
  9
$USERR3
 40
0.0
  9
$USERR4
 40
0.0
  9
$USERR5
 40
0.0
  9
$WORLDVIEW
 70
1
  9
$SHADEDGE
 70
3
  9
$SHADEDIF
 70
70
  9
$TILEMODE
 70
1
  9
$MAXACTVP
 70
64
  9
$PLIMCHECK
 70
0
  9
$PEXTMIN
 10
1e+20
 20
1e+20
 30
1e+20
  9
$PEXTMAX
 10
-1e+20
 20
-1e+20
 30
-1e+20
  9
$PLIMMIN
 10
0.0
 20
0.0
  9
$PLIMMAX
 10
420.0
 20
297.0
  9
$UNITMODE
 70
0
  9
$VISRETAIN
 70
1
  9
$PLINEGEN
 70
0
  9
$PSLTSCALE
 70
1
  0
ENDSEC
  0
SECTION
  2
TABLES
  0
TABLE
  2
VPORT
 70
1
  0
VPORT
  5
23
  2
*Active
 70
0
 10
0.0
 20
0.0
 11
1.0
 21
1.0
 12
0.0
 22
0.0
 13
0.0
 23
0.0
 14
0.5
 24
0.5
 15
0.5
 25
0.5
 16
0.0
 26
0.0
 36
1.0
 17
0.0
 27
0.0
 37
0.0
 40
1000.0
 41
1.34
 42
50.0
 43
0.0
 44
0.0
 50
0.0
 51
0.0
 71
0
 72
1000
 73
1
 74
3
 75
0
 76
0
 77
0
 78
0
  0
ENDTAB
  0
TABLE
  2
LTYPE
 70
3
  0
LTYPE
  5
24
  2
ByBlock
 70
0
  3

 72
65
 73
0
 40
0.0
  0
LTYPE
  5
25
  2
ByLayer
 70
0
  3

 72
65
 73
0
 40
0.0
  0
LTYPE
  5
26
  2
Continuous
 70
0
  3

 72
65
 73
0
 40
0.0
  0
ENDTAB
  0
TABLE
  2
LAYER
 70
7
  0
LAYER
  5
27
  2
0
 70
0
 62
7
  6
Continuous
  0
LAYER
  5
28
  2
Defpoints
 70
0
 62
7
  6
Continuous
  0
LAYER
  5
2D
  2
1
 70
0
 62
1
  6
Continuous
  0
LAYER
  5
2E
  2
7
 70
0
 62
7
  6
Continuous
  0
LAYER
  5
2F
  2
14
 70
0
 62
3
  6
Continuous
  0
LAYER
  5
30
  2
8
 70
0
 62
6
  6
Continuous
  0
LAYER
  5
31
  2
4
 70
0
 62
2
  6
Continuous
  0
ENDTAB
  0
TABLE
  2
STYLE
 70
1
  0
STYLE
  5
29
  2
Standard
 70
0
 40
0.0
 41
1.0
 50
0.0
 71
0
 42
2.5
  3
txt
  4

  0
ENDTAB
  0
TABLE
  2
VIEW
 70
0
  0
ENDTAB
  0
TABLE
  2
UCS
 70
0
  0
ENDTAB
  0
TABLE
  2
APPID
 70
3
  0
APPID
  5
2A
  2
ACAD
 70
0
  0
APPID
  5
1A1
  2
HATCHBACKGROUNDCOLOR
 70
0
  0
APPID
  5
1A2
  2
EZDXF
 70
0
  0
ENDTAB
  0
TABLE
  2
DIMSTYLE
 70
1
  0
DIMSTYLE
105
2B
  2
Standard
 70
0
  3

  4

  5

  6

  7

 40
1.0
 41
2.5
 42
0.625
 43
3.75
 44
1.25
 45
0.0
 46
0.0
 47
0.0
 48
0.0
140
2.5
141
2.5
142
0.0
143
0.03937007874
144
1.0
145
0.0
146
1.0
147
0.625
 71
0
 72
0
 73
0
 74
0
 75
0
 76
0
 77
1
 78
8
170
0
171
3
172
1
173
0
174
0
175
0
176
0
177
0
178
0
  0
ENDTAB
  0
ENDSEC
  0
SECTION
  2
BLOCKS
  0
BLOCK
  5
18
  8
0
  2
$Model_Space
 70
0
 10
0.0
 20
0.0
 30
0.0
  3
$Model_Space
  1

1001
EZDXF
1000
CREATED_BY_EZDXF
1000
1.4.4 @ 2026-08-11T14:36:55.971216+00:00
1000
WRITTEN_BY_EZDXF
1000
1.4.4 @ 2026-08-11T14:36:55.975216+00:00
  0
ENDBLK
  5
19
  8
0
  0
BLOCK
  5
1C
  8
0
  2
$Paper_Space
 70
0
 10
0.0
 20
0.0
 30
0.0
  3
$Paper_Space
  1

  0
ENDBLK
  5
1D
  8
0
  0
ENDSEC
  0
SECTION
  2
ENTITIES
  0
POLYLINE
  5
32
  8
1
 66
1
 10
0.0
 20
0.0
 30
0.0
 70
1
  0
VERTEX
  5
34
  8
1
 10
-2724.413452
 20
-204.288807
 30
0.0
 70
0
  0
VERTEX
  5
35
  8
1
 10
-2724.246216
 20
-204.286766
 30
0.0
 70
0
  0
VERTEX
  5
36
  8
1
 10
-2732.511355
 20
-204.387875
 30
0.0
 70
0
  0
VERTEX
  5
37
  8
1
 10
-2747.590005
 20
-204.490028
 30
0.0
 70
0
  0
VERTEX
  5
38
  8
1
 10
-2762.95595
 20
-204.474458
 30
0.0
 70
0
  0
VERTEX
  5
39
  8
1
 10
-2777.934188
 20
-204.308319
 30
0.0
 70
0
  0
VERTEX
  5
3A
  8
1
 10
-2793.179703
 20
-204.005316
 30
0.0
 70
0
  0
VERTEX
  5
3B
  8
1
 10
-2808.350169
 20
-203.59958
 30
0.0
 70
0
  0
VERTEX
  5
3C
  8
1
 10
-2823.63112
 20
-203.08483
 30
0.0
 70
0
  0
VERTEX
  5
3D
  8
1
 10
-2838.866434
 20
-202.458483
 30
0.0
 70
0
  0
VERTEX
  5
3E
  8
1
 10
-2854.105643
 20
-201.718342
 30
0.0
 70
0
  0
VERTEX
  5
3F
  8
1
 10
-2869.33006
 20
-200.865716
 30
0.0
 70
0
  0
VERTEX
  5
40
  8
1
 10
-2884.547553
 20
-199.897863
 30
0.0
 70
0
  0
VERTEX
  5
41
  8
1
 10
-2899.645865
 20
-198.819999
 30
0.0
 70
0
  0
VERTEX
  5
42
  8
1
 10
-2914.846254
 20
-197.612596
 30
0.0
 70
0
  0
VERTEX
  5
43
  8
1
 10
-2929.875754
 20
-196.293901
 30
0.0
 70
0
  0
VERTEX
  5
44
  8
1
 10
-2945.12219
 20
-194.823973
 30
0.0
 70
0
  0
VERTEX
  5
45
  8
1
 10
-2960.286384
 20
-193.224112
 30
0.0
 70
0
  0
VERTEX
  5
46
  8
1
 10
-2975.434892
 20
-191.482155
 30
0.0
 70
0
  0
VERTEX
  5
47
  8
1
 10
-2990.542554
 20
-189.594623
 30
0.0
 70
0
  0
VERTEX
  5
48
  8
1
 10
-3005.652835
 20
-187.547397
 30
0.0
 70
0
  0
VERTEX
  5
49
  8
1
 10
-3020.693851
 20
-185.341403
 30
0.0
 70
0
  0
VERTEX
  5
4A
  8
1
 10
-3035.976802
 20
-182.917676
 30
0.0
 70
0
  0
VERTEX
  5
4B
  8
1
 10
-3051.006705
 20
-180.345341
 30
0.0
 70
0
  0
VERTEX
  5
4C
  8
1
 10
-3066.237142
 20
-177.541444
 30
0.0
 70
0
  0
VERTEX
  5
4D
  8
1
 10
-3081.197044
 20
-174.58899
 30
0.0
 70
0
  0
VERTEX
  5
4E
  8
1
 10
-3096.117902
 20
-171.444873
 30
0.0
 70
0
  0
VERTEX
  5
4F
  8
1
 10
-3110.771345
 20
-168.159353
 30
0.0
 70
0
  0
VERTEX
  5
50
  8
1
 10
-3125.60485
 20
-164.626515
 30
0.0
 70
0
  0
VERTEX
  5
51
  8
1
 10
-3140.319319
 20
-160.911616
 30
0.0
 70
0
  0
VERTEX
  5
52
  8
1
 10
-3155.055285
 20
-156.991336
 30
0.0
 70
0
  0
VERTEX
  5
53
  8
1
 10
-3169.557989
 20
-152.950946
 30
0.0
 70
0
  0
VERTEX
  5
54
  8
1
 10
-3184.201594
 20
-148.699519
 30
0.0
 70
0
  0
VERTEX
  5
55
  8
1
 10
-3198.707267
 20
-144.330886
 30
0.0
 70
0
  0
VERTEX
  5
56
  8
1
 10
-3213.434194
 20
-139.756352
 30
0.0
 70
0
  0
VERTEX
  5
57
  8
1
 10
-3227.960782
 20
-135.120198
 30
0.0
 70
0
  0
VERTEX
  5
58
  8
1
 10
-3242.552428
 20
-130.317087
 30
0.0
 70
0
  0
VERTEX
  5
59
  8
1
 10
-3256.986921
 20
-125.402408
 30
0.0
 70
0
  0
VERTEX
  5
5A
  8
1
 10
-3271.380527
 20
-120.368699
 30
0.0
 70
0
  0
VERTEX
  5
5B
  8
1
 10
-3285.627299
 20
-115.298165
 30
0.0
 70
0
  0
VERTEX
  5
5C
  8
1
 10
-3288.429565
 20
-114.293556
 30
0.0
 70
0
  0
VERTEX
  5
5D
  8
1
 10
-3289.118042
 20
-114.048061
 30
0.0
 70
0
  0
VERTEX
  5
5E
  8
1
 10
-3300.223178
 20
-110.065721
 30
0.0
 70
0
  0
VERTEX
  5
5F
  8
1
 10
-3314.578948
 20
-104.925848
 30
0.0
 70
0
  0
VERTEX
  5
60
  8
1
 10
-3328.936747
 20
-99.79159
 30
0.0
 70
0
  0
VERTEX
  5
61
  8
1
 10
-3343.112305
 20
-94.720385
 30
0.0
 70
0
  0
VERTEX
  5
62
  8
1
 10
-3357.905884
 20
-89.425116
 30
0.0
 70
0
  0
VERTEX
  5
63
  8
1
 10
-3353.564961
 20
-80.997215
 30
0.0
 70
0
  0
VERTEX
  5
64
  8
1
 10
-3346.716206
 20
-67.700423
 30
0.0
 70
0
  0
VERTEX
  5
65
  8
1
 10
-3339.713122
 20
-54.104101
 30
0.0
 70
0
  0
VERTEX
  5
66
  8
1
 10
-3332.675387
 20
-40.44056
 30
0.0
 70
0
  0
VERTEX
  5
67
  8
1
 10
-3331.403198
 20
-37.970676
 30
0.0
 70
0
  0
VERTEX
  5
68
  8
1
 10
-3325.535278
 20
-26.578286
 30
0.0
 70
0
  0
VERTEX
  5
69
  8
1
 10
-3310.679554
 20
-31.848586
 30
0.0
 70
0
  0
VERTEX
  5
6A
  8
1
 10
-3296.553066
 20
-36.857704
 30
0.0
 70
0
  0
VERTEX
  5
6B
  8
1
 10
-3281.921878
 20
-42.044477
 30
0.0
 70
0
  0
VERTEX
  5
6C
  8
1
 10
-3267.765419
 20
-47.071699
 30
0.0
 70
0
  0
VERTEX
  5
6D
  8
1
 10
-3253.491933
 20
-52.147798
 30
0.0
 70
0
  0
VERTEX
  5
6E
  8
1
 10
-3239.322343
 20
-57.137632
 30
0.0
 70
0
  0
VERTEX
  5
6F
  8
1
 10
-3225.005064
 20
-62.066142
 30
0.0
 70
0
  0
VERTEX
  5
70
  8
1
 10
-3210.756509
 20
-66.826324
 30
0.0
 70
0
  0
VERTEX
  5
71
  8
1
 10
-3196.06878
 20
-71.565018
 30
0.0
 70
0
  0
VERTEX
  5
72
  8
1
 10
-3181.728037
 20
-76.040173
 30
0.0
 70
0
  0
VERTEX
  5
73
  8
1
 10
-3167.331262
 20
-80.396077
 30
0.0
 70
0
  0
VERTEX
  5
74
  8
1
 10
-3152.910716
 20
-84.606559
 30
0.0
 70
0
  0
VERTEX
  5
75
  8
1
 10
-3138.08686
 20
-88.752678
 30
0.0
 70
0
  0
VERTEX
  5
76
  8
1
 10
-3123.569502
 20
-92.61691
 30
0.0
 70
0
  0
VERTEX
  5
77
  8
1
 10
-3108.600205
 20
-96.384089
 30
0.0
 70
0
  0
VERTEX
  5
78
  8
1
 10
-3093.981624
 20
-99.845893
 30
0.0
 70
0
  0
VERTEX
  5
79
  8
1
 10
-3079.201419
 20
-103.128109
 30
0.0
 70
0
  0
VERTEX
  5
7A
  8
1
 10
-3064.492846
 20
-106.18543
 30
0.0
 70
0
  0
VERTEX
  5
7B
  8
1
 10
-3049.305255
 20
-109.134644
 30
0.0
 70
0
  0
VERTEX
  5
7C
  8
1
 10
-3034.522967
 20
-111.811871
 30
0.0
 70
0
  0
VERTEX
  5
7D
  8
1
 10
-3019.410252
 20
-114.36028
 30
0.0
 70
0
  0
VERTEX
  5
7E
  8
1
 10
-3004.568112
 20
-116.682993
 30
0.0
 70
0
  0
VERTEX
  5
7F
  8
1
 10
-2989.708639
 20
-118.834397
 30
0.0
 70
0
  0
VERTEX
  5
80
  8
1
 10
-2974.817769
 20
-120.820939
 30
0.0
 70
0
  0
VERTEX
  5
81
  8
1
 10
-2959.791283
 20
-122.659053
 30
0.0
 70
0
  0
VERTEX
  5
82
  8
1
 10
-2944.861161
 20
-124.324619
 30
0.0
 70
0
  0
VERTEX
  5
83
  8
1
 10
-2929.446398
 20
-125.881106
 30
0.0
 70
0
  0
VERTEX
  5
84
  8
1
 10
-2914.4851
 20
-127.238251
 30
0.0
 70
0
  0
VERTEX
  5
85
  8
1
 10
-2899.088739
 20
-128.481702
 30
0.0
 70
0
  0
VERTEX
  5
86
  8
1
 10
-2884.103729
 20
-129.545288
 30
0.0
 70
0
  0
VERTEX
  5
87
  8
1
 10
-2869.063901
 20
-130.470254
 30
0.0
 70
0
  0
VERTEX
  5
88
  8
1
 10
-2854.061815
 20
-131.2606
 30
0.0
 70
0
  0
VERTEX
  5
89
  8
1
 10
-2839.053841
 20
-131.931526
 30
0.0
 70
0
  0
VERTEX
  5
8A
  8
1
 10
-2823.675908
 20
-132.507112
 30
0.0
 70
0
  0
VERTEX
  5
8B
  8
1
 10
-2808.6604
 20
-132.968449
 30
0.0
 70
0
  0
VERTEX
  5
8C
  8
1
 10
-2793.414741
 20
-133.342686
 30
0.0
 70
0
  0
VERTEX
  5
8D
  8
1
 10
-2778.394798
 20
-133.626895
 30
0.0
 70
0
  0
VERTEX
  5
8E
  8
1
 10
-2763.10435
 20
-133.835828
 30
0.0
 70
0
  0
VERTEX
  5
8F
  8
1
 10
-2748.082206
 20
-133.948932
 30
0.0
 70
0
  0
VERTEX
  5
90
  8
1
 10
-2732.824304
 20
-133.96012
 30
0.0
 70
0
  0
VERTEX
  5
91
  8
1
 10
-2724.53125
 20
-133.932486
 30
0.0
 70
0
  0
VERTEX
  5
92
  8
1
 10
-2716.131744
 20
-134.115001
 30
0.0
 70
0
  0
VERTEX
  5
93
  8
1
 10
-2701.604885
 20
-134.24053
 30
0.0
 70
0
  0
VERTEX
  5
94
  8
1
 10
-2686.506397
 20
-134.119503
 30
0.0
 70
0
  0
VERTEX
  5
95
  8
1
 10
-2671.31583
 20
-133.784886
 30
0.0
 70
0
  0
VERTEX
  5
96
  8
1
 10
-2656.225532
 20
-133.306616
 30
0.0
 70
0
  0
VERTEX
  5
97
  8
1
 10
-2641.06276
 20
-132.815463
 30
0.0
 70
0
  0
VERTEX
  5
98
  8
1
 10
-2625.970696
 20
-132.412394
 30
0.0
 70
0
  0
VERTEX
  5
99
  8
1
 10
-2610.879476
 20
-131.977664
 30
0.0
 70
0
  0
VERTEX
  5
9A
  8
1
 10
-2595.858476
 20
-131.374199
 30
0.0
 70
0
  0
VERTEX
  5
9B
  8
1
 10
-2580.780967
 20
-130.588626
 30
0.0
 70
0
  0
VERTEX
  5
9C
  8
1
 10
-2565.739536
 20
-129.650725
 30
0.0
 70
0
  0
VERTEX
  5
9D
  8
1
 10
-2550.680792
 20
-128.568969
 30
0.0
 70
0
  0
VERTEX
  5
9E
  8
1
 10
-2535.498147
 20
-127.339481
 30
0.0
 70
0
  0
VERTEX
  5
9F
  8
1
 10
-2520.461696
 20
-125.981838
 30
0.0
 70
0
  0
VERTEX
  5
A0
  8
1
 10
-2505.450688
 20
-124.481473
 30
0.0
 70
0
  0
VERTEX
  5
A1
  8
1
 10
-2490.443926
 20
-122.826916
 30
0.0
 70
0
  0
VERTEX
  5
A2
  8
1
 10
-2475.243858
 20
-120.982878
 30
0.0
 70
0
  0
VERTEX
  5
A3
  8
1
 10
-2460.277215
 20
-118.998097
 30
0.0
 70
0
  0
VERTEX
  5
A4
  8
1
 10
-2445.409725
 20
-116.858878
 30
0.0
 70
0
  0
VERTEX
  5
A5
  8
1
 10
-2430.491339
 20
-114.538774
 30
0.0
 70
0
  0
VERTEX
  5
A6
  8
1
 10
-2415.36821
 20
-112.001898
 30
0.0
 70
0
  0
VERTEX
  5
A7
  8
1
 10
-2400.510015
 20
-109.32299
 30
0.0
 70
0
  0
VERTEX
  5
A8
  8
1
 10
-2385.637945
 20
-106.451529
 30
0.0
 70
0
  0
VERTEX
  5
A9
  8
1
 10
-2370.852331
 20
-103.397266
 30
0.0
 70
0
  0
VERTEX
  5
AA
  8
1
 10
-2355.82389
 20
-100.075513
 30
0.0
 70
0
  0
VERTEX
  5
AB
  8
1
 10
-2341.129113
 20
-96.609903
 30
0.0
 70
0
  0
VERTEX
  5
AC
  8
1
 10
-2326.074152
 20
-92.834609
 30
0.0
 70
0
  0
VERTEX
  5
AD
  8
1
 10
-2311.481182
 20
-88.962868
 30
0.0
 70
0
  0
VERTEX
  5
AE
  8
1
 10
-2296.957368
 20
-84.910974
 30
0.0
 70
0
  0
VERTEX
  5
AF
  8
1
 10
-2282.461862
 20
-80.689385
 30
0.0
 70
0
  0
VERTEX
  5
B0
  8
1
 10
-2268.067448
 20
-76.345122
 30
0.0
 70
0
  0
VERTEX
  5
B1
  8
1
 10
-2253.65381
 20
-71.852399
 30
0.0
 70
0
  0
VERTEX
  5
B2
  8
1
 10
-2239.015362
 20
-67.143785
 30
0.0
 70
0
  0
VERTEX
  5
B3
  8
1
 10
-2224.689072
 20
-62.379691
 30
0.0
 70
0
  0
VERTEX
  5
B4
  8
1
 10
-2210.028719
 20
-57.329691
 30
0.0
 70
0
  0
VERTEX
  5
B5
  8
1
 10
-2195.790711
 20
-52.307905
 30
0.0
 70
0
  0
VERTEX
  5
B6
  8
1
 10
-2181.300644
 20
-47.165431
 30
0.0
 70
0
  0
VERTEX
  5
B7
  8
1
 10
-2167.014964
 20
-42.096785
 30
0.0
 70
0
  0
VERTEX
  5
B8
  8
1
 10
-2152.473489
 20
-36.938865
 30
0.0
 70
0
  0
VERTEX
  5
B9
  8
1
 10
-2137.97972
 20
-31.799185
 30
0.0
 70
0
  0
VERTEX
  5
BA
  8
1
 10
-2123.264923
 20
-26.582537
 30
0.0
 70
0
  0
VERTEX
  5
BB
  8
1
 10
-2117.399139
 20
-37.97106
 30
0.0
 70
0
  0
VERTEX
  5
BC
  8
1
 10
-2116.147934
 20
-40.400123
 30
0.0
 70
0
  0
VERTEX
  5
BD
  8
1
 10
-2109.064822
 20
-54.151977
 30
0.0
 70
0
  0
VERTEX
  5
BE
  8
1
 10
-2102.069247
 20
-67.73389
 30
0.0
 70
0
  0
VERTEX
  5
BF
  8
1
 10
-2095.059347
 20
-81.343556
 30
0.0
 70
0
  0
VERTEX
  5
C0
  8
1
 10
-2090.934296
 20
-89.352283
 30
0.0
 70
0
  0
VERTEX
  5
C1
  8
1
 10
-2105.609797
 20
-94.622062
 30
0.0
 70
0
  0
VERTEX
  5
C2
  8
1
 10
-2119.79044
 20
-99.711373
 30
0.0
 70
0
  0
VERTEX
  5
C3
  8
1
 10
-2134.146411
 20
-104.861818
 30
0.0
 70
0
  0
VERTEX
  5
C4
  8
1
 10
-2148.426473
 20
-109.993062
 30
0.0
 70
0
  0
VERTEX
  5
C5
  8
1
 10
-2161.943817
 20
-114.859047
 30
0.0
 70
0
  0
VERTEX
  5
C6
  8
1
 10
-2162.55436
 20
-115.078493
 30
0.0
 70
0
  0
VERTEX
  5
C7
  8
1
 10
-2176.843776
 20
-120.183767
 30
0.0
 70
0
  0
VERTEX
  5
C8
  8
1
 10
-2191.026668
 20
-125.157219
 30
0.0
 70
0
  0
VERTEX
  5
C9
  8
1
 10
-2205.386971
 20
-130.059646
 30
0.0
 70
0
  0
VERTEX
  5
CA
  8
1
 10
-2219.731764
 20
-134.797988
 30
0.0
 70
0
  0
VERTEX
  5
CB
  8
1
 10
-2234.183446
 20
-139.424564
 30
0.0
 70
0
  0
VERTEX
  5
CC
  8
1
 10
-2248.921683
 20
-144.012357
 30
0.0
 70
0
  0
VERTEX
  5
CD
  8
1
 10
-2263.448921
 20
-148.395492
 30
0.0
 70
0
  0
VERTEX
  5
CE
  8
1
 10
-2278.290554
 20
-152.709766
 30
0.0
 70
0
  0
VERTEX
  5
CF
  8
1
 10
-2292.908103
 20
-156.782384
 30
0.0
 70
0
  0
VERTEX
  5
D0
  8
1
 10
-2307.711563
 20
-160.715827
 30
0.0
 70
0
  0
VERTEX
  5
D1
  8
1
 10
-2322.425973
 20
-164.423299
 30
0.0
 70
0
  0
VERTEX
  5
D2
  8
1
 10
-2337.238507
 20
-167.942368
 30
0.0
 70
0
  0
VERTEX
  5
D3
  8
1
 10
-2352.04714
 20
-171.253944
 30
0.0
 70
0
  0
VERTEX
  5
D4
  8
1
 10
-2366.898278
 20
-174.381408
 30
0.0
 70
0
  0
VERTEX
  5
D5
  8
1
 10
-2381.783123
 20
-177.330976
 30
0.0
 70
0
  0
VERTEX
  5
D6
  8
1
 10
-2396.693453
 20
-180.107387
 30
0.0
 70
0
  0
VERTEX
  5
D7
  8
1
 10
-2411.641109
 20
-182.719726
 30
0.0
 70
0
  0
VERTEX
  5
D8
  8
1
 10
-2426.595001
 20
-185.169712
 30
0.0
 70
0
  0
VERTEX
  5
D9
  8
1
 10
-2441.594196
 20
-187.467546
 30
0.0
 70
0
  0
VERTEX
  5
DA
  8
1
 10
-2456.710433
 20
-189.624379
 30
0.0
 70
0
  0
VERTEX
  5
DB
  8
1
 10
-2471.753476
 20
-191.61522
 30
0.0
 70
0
  0
VERTEX
  5
DC
  8
1
 10
-2486.778883
 20
-193.451703
 30
0.0
 70
0
  0
VERTEX
  5
DD
  8
1
 10
-2501.858304
 20
-195.144792
 30
0.0
 70
0
  0
VERTEX
  5
DE
  8
1
 10
-2516.914151
 20
-196.687971
 30
0.0
 70
0
  0
VERTEX
  5
DF
  8
1
 10
-2532.023285
 20
-198.091266
 30
0.0
 70
0
  0
VERTEX
  5
E0
  8
1
 10
-2547.102416
 20
-199.349106
 30
0.0
 70
0
  0
VERTEX
  5
E1
  8
1
 10
-2562.23501
 20
-200.470558
 30
0.0
 70
0
  0
VERTEX
  5
E2
  8
1
 10
-2577.329773
 20
-201.450999
 30
0.0
 70
0
  0
VERTEX
  5
E3
  8
1
 10
-2592.480284
 20
-202.29854
 30
0.0
 70
0
  0
VERTEX
  5
E4
  8
1
 10
-2607.582416
 20
-203.009442
 30
0.0
 70
0
  0
VERTEX
  5
E5
  8
1
 10
-2622.745456
 20
-203.590897
 30
0.0
 70
0
  0
VERTEX
  5
E6
  8
1
 10
-2637.845938
 20
-204.040401
 30
0.0
 70
0
  0
VERTEX
  5
E7
  8
1
 10
-2653.016637
 20
-204.363673
 30
0.0
 70
0
  0
VERTEX
  5
E8
  8
1
 10
-2668.106159
 20
-204.559122
 30
0.0
 70
0
  0
VERTEX
  5
E9
  8
1
 10
-2683.280148
 20
-204.63135
 30
0.0
 70
0
  0
VERTEX
  5
EA
  8
1
 10
-2698.693771
 20
-204.581562
 30
0.0
 70
0
  0
VERTEX
  5
EB
  8
1
 10
-2713.685195
 20
-204.437137
 30
0.0
 70
0
  0
VERTEX
  5
EC
  8
1
 10
-2724.577332
 20
-204.286461
 30
0.0
 70
0
  0
SEQEND
  5
33
  8
1
  0
POLYLINE
  5
ED
  8
14
 66
1
 10
0.0
 20
0.0
 30
0.0
 70
1
  0
VERTEX
  5
EF
  8
14
 10
-2724.40155
 20
-191.587219
 30
0.0
 70
0
  0
VERTEX
  5
F0
  8
14
 10
-2724.40155
 20
-191.587219
 30
0.0
 70
0
  0
VERTEX
  5
F1
  8
14
 10
-2731.063632
 20
-191.705917
 30
0.0
 70
0
  0
VERTEX
  5
F2
  8
14
 10
-2745.477621
 20
-191.817109
 30
0.0
 70
0
  0
VERTEX
  5
F3
  8
14
 10
-2760.458848
 20
-191.787653
 30
0.0
 70
0
  0
VERTEX
  5
F4
  8
14
 10
-2776.360007
 20
-191.62019
 30
0.0
 70
0
  0
VERTEX
  5
F5
  8
14
 10
-2791.875156
 20
-191.332107
 30
0.0
 70
0
  0
VERTEX
  5
F6
  8
14
 10
-2808.973049
 20
-190.877787
 30
0.0
 70
0
  0
VERTEX
  5
F7
  8
14
 10
-2824.322551
 20
-190.349773
 30
0.0
 70
0
  0
VERTEX
  5
F8
  8
14
 10
-2840.580884
 20
-189.666742
 30
0.0
 70
0
  0
VERTEX
  5
F9
  8
14
 10
-2857.661581
 20
-188.810703
 30
0.0
 70
0
  0
VERTEX
  5
FA
  8
14
 10
-2875.478183
 20
-187.763666
 30
0.0
 70
0
  0
VERTEX
  5
FB
  8
14
 10
-2893.944131
 20
-186.507645
 30
0.0
 70
0
  0
VERTEX
  5
FC
  8
14
 10
-2909.126353
 20
-185.340268
 30
0.0
 70
0
  0
VERTEX
  5
FD
  8
14
 10
-2924.624502
 20
-184.018418
 30
0.0
 70
0
  0
VERTEX
  5
FE
  8
14
 10
-2940.394327
 20
-182.532884
 30
0.0
 70
0
  0
VERTEX
  5
FF
  8
14
 10
-2956.391545
 20
-180.874455
 30
0.0
 70
0
  0
VERTEX
  5
100
  8
14
 10
-2972.571908
 20
-179.033916
 30
0.0
 70
0
  0
VERTEX
  5
101
  8
14
 10
-2988.891057
 20
-177.002066
 30
0.0
 70
0
  0
VERTEX
  5
102
  8
14
 10
-3005.304744
 20
-174.769689
 30
0.0
 70
0
  0
VERTEX
  5
103
  8
14
 10
-3021.768723
 20
-172.327569
 30
0.0
 70
0
  0
VERTEX
  5
104
  8
14
 10
-3039.794198
 20
-169.403394
 30
0.0
 70
0
  0
VERTEX
  5
105
  8
14
 10
-3056.234804
 20
-166.494766
 30
0.0
 70
0
  0
VERTEX
  5
106
  8
14
 10
-3072.639018
 20
-163.356774
 30
0.0
 70
0
  0
VERTEX
  5
107
  8
14
 10
-3088.999985
 20
-159.986818
 30
0.0
 70
0
  0
VERTEX
  5
108
  8
14
 10
-3105.310926
 20
-156.382286
 30
0.0
 70
0
  0
VERTEX
  5
109
  8
14
 10
-3121.564986
 20
-152.540578
 30
0.0
 70
0
  0
VERTEX
  5
10A
  8
14
 10
-3137.968906
 20
-148.403642
 30
0.0
 70
0
  0
VERTEX
  5
10B
  8
14
 10
-3154.038503
 20
-144.102925
 30
0.0
 70
0
  0
VERTEX
  5
10C
  8
14
 10
-3169.843637
 20
-139.657333
 30
0.0
 70
0
  0
VERTEX
  5
10D
  8
14
 10
-3185.229383
 20
-135.143556
 30
0.0
 70
0
  0
VERTEX
  5
10E
  8
14
 10
-3200.040817
 20
-130.638284
 30
0.0
 70
0
  0
VERTEX
  5
10F
  8
14
 10
-3217.511532
 20
-125.135466
 30
0.0
 70
0
  0
VERTEX
  5
110
  8
14
 10
-3233.540308
 20
-119.915525
 30
0.0
 70
0
  0
VERTEX
  5
111
  8
14
 10
-3250.445499
 20
-114.235872
 30
0.0
 70
0
  0
VERTEX
  5
112
  8
14
 10
-3266.29577
 20
-108.742314
 30
0.0
 70
0
  0
VERTEX
  5
113
  8
14
 10
-3282.559814
 20
-102.897406
 30
0.0
 70
0
  0
VERTEX
  5
114
  8
14
 10
-3282.559814
 20
-102.897406
 30
0.0
 70
0
  0
VERTEX
  5
115
  8
14
 10
-3282.559814
 20
-102.897406
 30
0.0
 70
0
  0
VERTEX
  5
116
  8
14
 10
-3276.027648
 20
-90.215559
 30
0.0
 70
0
  0
VERTEX
  5
117
  8
14
 10
-3269.069233
 20
-76.7059
 30
0.0
 70
0
  0
VERTEX
  5
118
  8
14
 10
-3261.831665
 20
-62.653971
 30
0.0
 70
0
  0
VERTEX
  5
119
  8
14
 10
-3261.831665
 20
-62.653971
 30
0.0
 70
0
  0
VERTEX
  5
11A
  8
14
 10
-3246.966616
 20
-67.927928
 30
0.0
 70
0
  0
VERTEX
  5
11B
  8
14
 10
-3231.927511
 20
-73.136739
 30
0.0
 70
0
  0
VERTEX
  5
11C
  8
14
 10
-3217.396639
 20
-78.015927
 30
0.0
 70
0
  0
VERTEX
  5
11D
  8
14
 10
-3202.651587
 20
-82.793523
 30
0.0
 70
0
  0
VERTEX
  5
11E
  8
14
 10
-3188.21041
 20
-87.325923
 30
0.0
 70
0
  0
VERTEX
  5
11F
  8
14
 10
-3173.383316
 20
-91.842721
 30
0.0
 70
0
  0
VERTEX
  5
120
  8
14
 10
-3158.512787
 20
-96.213773
 30
0.0
 70
0
  0
VERTEX
  5
121
  8
14
 10
-3143.836197
 20
-100.346521
 30
0.0
 70
0
  0
VERTEX
  5
122
  8
14
 10
-3128.863945
 20
-104.360839
 30
0.0
 70
0
  0
VERTEX
  5
123
  8
14
 10
-3113.839617
 20
-108.175381
 30
0.0
 70
0
  0
VERTEX
  5
124
  8
14
 10
-3098.9041
 20
-111.746531
 30
0.0
 70
0
  0
VERTEX
  5
125
  8
14
 10
-3083.778655
 20
-115.1339
 30
0.0
 70
0
  0
VERTEX
  5
126
  8
14
 10
-3068.607565
 20
-118.310319
 30
0.0
 70
0
  0
VERTEX
  5
127
  8
14
 10
-3053.17213
 20
-121.328887
 30
0.0
 70
0
  0
VERTEX
  5
128
  8
14
 10
-3037.923632
 20
-124.109506
 30
0.0
 70
0
  0
VERTEX
  5
129
  8
14
 10
-3022.250275
 20
-126.765669
 30
0.0
 70
0
  0
VERTEX
  5
12A
  8
14
 10
-3006.937905
 20
-129.169223
 30
0.0
 70
0
  0
VERTEX
  5
12B
  8
14
 10
-2991.59843
 20
-131.393492
 30
0.0
 70
0
  0
VERTEX
  5
12C
  8
14
 10
-2975.894899
 20
-133.486408
 30
0.0
 70
0
  0
VERTEX
  5
12D
  8
14
 10
-2960.50889
 20
-135.361642
 30
0.0
 70
0
  0
VERTEX
  5
12E
  8
14
 10
-2945.366816
 20
-137.042392
 30
0.0
 70
0
  0
VERTEX
  5
12F
  8
14
 10
-2929.944772
 20
-138.591172
 30
0.0
 70
0
  0
VERTEX
  5
130
  8
14
 10
-2914.507448
 20
-139.982143
 30
0.0
 70
0
  0
VERTEX
  5
131
  8
14
 10
-2899.213534
 20
-141.208052
 30
0.0
 70
0
  0
VERTEX
  5
132
  8
14
 10
-2883.751901
 20
-142.296685
 30
0.0
 70
0
  0
VERTEX
  5
133
  8
14
 10
-2868.334723
 20
-143.233781
 30
0.0
 70
0
  0
VERTEX
  5
134
  8
14
 10
-2852.918238
 20
-144.031304
 30
0.0
 70
0
  0
VERTEX
  5
135
  8
14
 10
-2837.695598
 20
-144.697038
 30
0.0
 70
0
  0
VERTEX
  5
136
  8
14
 10
-2821.95345
 20
-145.271184
 30
0.0
 70
0
  0
VERTEX
  5
137
  8
14
 10
-2806.77063
 20
-145.724367
 30
0.0
 70
0
  0
VERTEX
  5
138
  8
14
 10
-2791.545375
 20
-146.086721
 30
0.0
 70
0
  0
VERTEX
  5
139
  8
14
 10
-2775.919486
 20
-146.367786
 30
0.0
 70
0
  0
VERTEX
  5
13A
  8
14
 10
-2760.573971
 20
-146.556836
 30
0.0
 70
0
  0
VERTEX
  5
13B
  8
14
 10
-2745.400572
 20
-146.658045
 30
0.0
 70
0
  0
VERTEX
  5
13C
  8
14
 10
-2730.335612
 20
-146.665199
 30
0.0
 70
0
  0
VERTEX
  5
13D
  8
14
 10
-2724.755554
 20
-146.630611
 30
0.0
 70
0
  0
VERTEX
  5
13E
  8
14
 10
-2715.806195
 20
-146.82259
 30
0.0
 70
0
  0
VERTEX
  5
13F
  8
14
 10
-2700.566542
 20
-146.968615
 30
0.0
 70
0
  0
VERTEX
  5
140
  8
14
 10
-2687.016461
 20
-146.882683
 30
0.0
 70
0
  0
VERTEX
  5
141
  8
14
 10
-2671.546022
 20
-146.496089
 30
0.0
 70
0
  0
VERTEX
  5
142
  8
14
 10
-2656.076697
 20
-145.970221
 30
0.0
 70
0
  0
VERTEX
  5
143
  8
14
 10
-2640.802014
 20
-145.513223
 30
0.0
 70
0
  0
VERTEX
  5
144
  8
14
 10
-2625.330281
 20
-145.116981
 30
0.0
 70
0
  0
VERTEX
  5
145
  8
14
 10
-2609.892748
 20
-144.651522
 30
0.0
 70
0
  0
VERTEX
  5
146
  8
14
 10
-2594.428783
 20
-144.015142
 30
0.0
 70
0
  0
VERTEX
  5
147
  8
14
 10
-2578.971793
 20
-143.205235
 30
0.0
 70
0
  0
VERTEX
  5
148
  8
14
 10
-2563.523373
 20
-142.232303
 30
0.0
 70
0
  0
VERTEX
  5
149
  8
14
 10
-2548.085117
 20
-141.106852
 30
0.0
 70
0
  0
VERTEX
  5
14A
  8
14
 10
-2532.511532
 20
-139.826555
 30
0.0
 70
0
  0
VERTEX
  5
14B
  8
14
 10
-2517.098475
 20
-138.417933
 30
0.0
 70
0
  0
VERTEX
  5
14C
  8
14
 10
-2501.700724
 20
-136.857303
 30
0.0
 70
0
  0
VERTEX
  5
14D
  8
14
 10
-2486.28092
 20
-135.127413
 30
0.0
 70
0
  0
VERTEX
  5
14E
  8
14
 10
-2470.920165
 20
-133.232351
 30
0.0
 70
0
  0
VERTEX
  5
14F
  8
14
 10
-2455.843695
 20
-131.203275
 30
0.0
 70
0
  0
VERTEX
  5
150
  8
14
 10
-2440.528939
 20
-128.966643
 30
0.0
 70
0
  0
VERTEX
  5
151
  8
14
 10
-2425.24145
 20
-126.551219
 30
0.0
 70
0
  0
VERTEX
  5
152
  8
14
 10
-2410.191529
 20
-123.988499
 30
0.0
 70
0
  0
VERTEX
  5
153
  8
14
 10
-2394.966899
 20
-121.203451
 30
0.0
 70
0
  0
VERTEX
  5
154
  8
14
 10
-2380.150564
 20
-118.301315
 30
0.0
 70
0
  0
VERTEX
  5
155
  8
14
 10
-2365.001807
 20
-115.129112
 30
0.0
 70
0
  0
VERTEX
  5
156
  8
14
 10
-2349.898594
 20
-111.746597
 30
0.0
 70
0
  0
VERTEX
  5
157
  8
14
 10
-2334.946209
 20
-108.171312
 30
0.0
 70
0
  0
VERTEX
  5
158
  8
14
 10
-2319.943908
 20
-104.362281
 30
0.0
 70
0
  0
VERTEX
  5
159
  8
14
 10
-2304.993501
 20
-100.354031
 30
0.0
 70
0
  0
VERTEX
  5
15A
  8
14
 10
-2290.0463
 20
-96.143651
 30
0.0
 70
0
  0
VERTEX
  5
15B
  8
14
 10
-2275.198269
 20
-91.776492
 30
0.0
 70
0
  0
VERTEX
  5
15C
  8
14
 10
-2260.393454
 20
-87.264416
 30
0.0
 70
0
  0
VERTEX
  5
15D
  8
14
 10
-2245.684262
 20
-82.644731
 30
0.0
 70
0
  0
VERTEX
  5
15E
  8
14
 10
-2230.962325
 20
-77.869581
 30
0.0
 70
0
  0
VERTEX
  5
15F
  8
14
 10
-2216.497282
 20
-73.007644
 30
0.0
 70
0
  0
VERTEX
  5
160
  8
14
 10
-2201.861965
 20
-67.937044
 30
0.0
 70
0
  0
VERTEX
  5
161
  8
14
 10
-2186.916809
 20
-62.759256
 30
0.0
 70
0
  0
VERTEX
  5
162
  8
14
 10
-2186.970978
 20
-62.65399
 30
0.0
 70
0
  0
VERTEX
  5
163
  8
14
 10
-2179.453083
 20
-77.250049
 30
0.0
 70
0
  0
VERTEX
  5
164
  8
14
 10
-2172.333993
 20
-91.071732
 30
0.0
 70
0
  0
VERTEX
  5
165
  8
14
 10
-2166.242981
 20
-102.897406
 30
0.0
 70
0
  0
VERTEX
  5
166
  8
14
 10
-2166.242981
 20
-102.897406
 30
0.0
 70
0
  0
VERTEX
  5
167
  8
14
 10
-2181.595112
 20
-108.436295
 30
0.0
 70
0
  0
VERTEX
  5
168
  8
14
 10
-2196.700208
 20
-113.695989
 30
0.0
 70
0
  0
VERTEX
  5
169
  8
14
 10
-2212.072093
 20
-118.892109
 30
0.0
 70
0
  0
VERTEX
  5
16A
  8
14
 10
-2227.644792
 20
-124.001917
 30
0.0
 70
0
  0
VERTEX
  5
16B
  8
14
 10
-2242.501221
 20
-128.730696
 30
0.0
 70
0
  0
VERTEX
  5
16C
  8
14
 10
-2258.297698
 20
-133.596115
 30
0.0
 70
0
  0
VERTEX
  5
16D
  8
14
 10
-2274.835456
 20
-138.499021
 30
0.0
 70
0
  0
VERTEX
  5
16E
  8
14
 10
-2289.449983
 20
-142.656183
 30
0.0
 70
0
  0
VERTEX
  5
16F
  8
14
 10
-2304.337899
 20
-146.705594
 30
0.0
 70
0
  0
VERTEX
  5
170
  8
14
 10
-2320.11062
 20
-150.769222
 30
0.0
 70
0
  0
VERTEX
  5
171
  8
14
 10
-2335.214647
 20
-154.429968
 30
0.0
 70
0
  0
VERTEX
  5
172
  8
14
 10
-2350.371284
 20
-157.885547
 30
0.0
 70
0
  0
VERTEX
  5
173
  8
14
 10
-2365.576034
 20
-161.143243
 30
0.0
 70
0
  0
VERTEX
  5
174
  8
14
 10
-2380.824381
 20
-164.210337
 30
0.0
 70
0
  0
VERTEX
  5
175
  8
14
 10
-2396.111809
 20
-167.094107
 30
0.0
 70
0
  0
VERTEX
  5
176
  8
14
 10
-2411.433804
 20
-169.801835
 30
0.0
 70
0
  0
VERTEX
  5
177
  8
14
 10
-2427.476161
 20
-172.45048
 30
0.0
 70
0
  0
VERTEX
  5
178
  8
14
 10
-2442.857153
 20
-174.816104
 30
0.0
 70
0
  0
VERTEX
  5
179
  8
14
 10
-2458.263637
 20
-177.018445
 30
0.0
 70
0
  0
VERTEX
  5
17A
  8
14
 10
-2473.693644
 20
-179.059652
 30
0.0
 70
0
  0
VERTEX
  5
17B
  8
14
 10
-2489.14521
 20
-180.941875
 30
0.0
 70
0
  0
VERTEX
  5
17C
  8
14
 10
-2504.616369
 20
-182.667264
 30
0.0
 70
0
  0
VERTEX
  5
17D
  8
14
 10
-2520.105154
 20
-184.237967
 30
0.0
 70
0
  0
VERTEX
  5
17E
  8
14
 10
-2535.6096
 20
-185.656135
 30
0.0
 70
0
  0
VERTEX
  5
17F
  8
14
 10
-2551.12774
 20
-186.923916
 30
0.0
 70
0
  0
VERTEX
  5
180
  8
14
 10
-2566.657647
 20
-188.043464
 30
0.0
 70
0
  0
VERTEX
  5
181
  8
14
 10
-2582.197278
 20
-189.016921
 30
0.0
 70
0
  0
VERTEX
  5
182
  8
14
 10
-2597.744706
 20
-189.846441
 30
0.0
 70
0
  0
VERTEX
  5
183
  8
14
 10
-2613.297965
 20
-190.534172
 30
0.0
 70
0
  0
VERTEX
  5
184
  8
14
 10
-2628.855087
 20
-191.082265
 30
0.0
 70
0
  0
VERTEX
  5
185
  8
14
 10
-2644.414109
 20
-191.492868
 30
0.0
 70
0
  0
VERTEX
  5
186
  8
14
 10
-2659.973063
 20
-191.768132
 30
0.0
 70
0
  0
VERTEX
  5
187
  8
14
 10
-2675.529983
 20
-191.910205
 30
0.0
 70
0
  0
VERTEX
  5
188
  8
14
 10
-2690.31588
 20
-191.923733
 30
0.0
 70
0
  0
VERTEX
  5
189
  8
14
 10
-2707.694199
 20
-191.803711
 30
0.0
 70
0
  0
VERTEX
  5
18A
  8
14
 10
-2721.695656
 20
-191.629197
 30
0.0
 70
0
  0
VERTEX
  5
18B
  8
14
 10
-2724.40155
 20
-191.587219
 30
0.0
 70
0
  0
SEQEND
  5
EE
  8
14
  0
POLYLINE
  5
18C
  8
8
 66
1
 10
0.0
 20
0.0
 30
0.0
 70
0
  0
VERTEX
  5
18E
  8
8
 10
-2724.40155
 20
-146.60553
 30
0.0
 70
0
  0
VERTEX
  5
18F
  8
8
 10
-2724.40155
 20
-162.338214
 30
0.0
 70
0
  0
VERTEX
  5
190
  8
8
 10
-2724.40155
 20
-177.354131
 30
0.0
 70
0
  0
VERTEX
  5
191
  8
8
 10
-2724.40155
 20
-191.587219
 30
0.0
 70
0
  0
SEQEND
  5
18D
  8
8
  0
POINT
  5
192
  8
4
 10
-2724.246216
 20
-204.286766
 30
0.0
  0
POINT
  5
193
  8
4
 10
-3288.429565
 20
-114.293556
 30
0.0
  0
POINT
  5
194
  8
4
 10
-3289.118042
 20
-114.048061
 30
0.0
  0
POINT
  5
195
  8
4
 10
-3331.403198
 20
-37.970676
 30
0.0
  0
POINT
  5
196
  8
4
 10
-2117.399139
 20
-37.97106
 30
0.0
  0
POINT
  5
197
  8
4
 10
-2161.943817
 20
-114.859047
 30
0.0
  0
POINT
  5
198
  8
4
 10
-2724.577332
 20
-204.286461
 30
0.0
  0
POINT
  5
199
  8
4
 10
-2724.40155
 20
-191.587219
 30
0.0
  0
POINT
  5
19A
  8
4
 10
-3282.559814
 20
-102.897406
 30
0.0
  0
POINT
  5
19B
  8
4
 10
-3282.559814
 20
-102.897406
 30
0.0
  0
POINT
  5
19C
  8
4
 10
-3261.831665
 20
-62.653971
 30
0.0
  0
POINT
  5
19D
  8
4
 10
-2186.970978
 20
-62.65399
 30
0.0
  0
POINT
  5
19E
  8
4
 10
-2166.242981
 20
-102.897406
 30
0.0
  0
POINT
  5
19F
  8
4
 10
-2724.40155
 20
-191.587219
 30
0.0
  0
LINE
  5
1A0
  8
7
 10
-2722.257385
 20
-151.177826
 30
0.0
 11
-2722.257385
 21
-187.126846
 31
0.0
  0
ENDSEC
  0
EOF
