  0
SECTION
  2
HEADER
  9
$ACADVER
  1
AC1009
  9
$DWGCODEPAGE
  3
ANSI_1252
  9
$INSBASE
 10
0.0
 20
0.0
 30
0.0
  9
$EXTMIN
 10
1e+20
 20
1e+20
 30
1e+20
  9
$EXTMAX
 10
-1e+20
 20
-1e+20
 30
-1e+20
  9
$LIMMIN
 10
0.0
 20
0.0
  9
$LIMMAX
 10
420.0
 20
297.0
  9
$ORTHOMODE
 70
0
  9
$REGENMODE
 70
1
  9
$FILLMODE
 70
1
  9
$DRAGMODE
 70
2
  9
$QTEXTMODE
 70
0
  9
$MIRRTEXT
 70
1
  9
$OSMODE
 70
20583
  9
$LTSCALE
 40
1.0
  9
$ATTMODE
 70
1
  9
$TEXTSIZE
 40
2.5
  9
$TRACEWID
 40
1.0
  9
$TEXTSTYLE
  7
Standard
  9
$CLAYER
  8
0
  9
$CELTYPE
  6
ByLayer
  9
$CECOLOR
 62
256
  9
$DIMSCALE
 40
1.0
  9
$DIMASZ
 40
2.5
  9
$DIMEXO
 40
0.625
  9
$DIMDLI
 40
3.75
  9
$DIMRND
 40
0.0
  9
$DIMDLE
 40
0.0
  9
$DIMEXE
 40
1.25
  9
$DIMTP
 40
0.0
  9
$DIMTM
 40
0.0
  9
$DIMTXT
 40
2.5
  9
$DIMCEN
 40
2.5
  9
$DIMTSZ
 40
0.0
  9
$DIMTOL
 70
0
  9
$DIMLIM
 70
0
  9
$DIMTIH
 70
0
  9
$DIMTOH
 70
0
  9
$DIMSE1
 70
0
  9
$DIMSE2
 70
0
  9
$DIMTAD
 70
1
  9
$DIMZIN
 70
8
  9
$DIMBLK
  1

  9
$DIMASO
 70
1
  9
$DIMSHO
 70
1
  9
$DIMPOST
  1

  9
$DIMAPOST
  1

  9
$DIMALT
 70
0
  9
$DIMALTD
 70
3
  9
$DIMALTF
 40
0.03937007874
  9
$DIMLFAC
 40
1.0
  9
$DIMTOFL
 70
1
  9
$DIMTVP
 40
0.0
  9
$DIMTIX
 70
0
  9
$DIMSOXD
 70
0
  9
$DIMSAH
 70
0
  9
$DIMBLK1
  1

  9
$DIMBLK2
  1

  9
$DIMSTYLE
  2
ISO-25
  9
$DIMCLRD
 70
0
  9
$DIMCLRE
 70
0
  9
$DIMCLRT
 70
0
  9
$DIMTFAC
 40
1.0
  9
$DIMGAP
 40
0.625
  9
$COORDS
 70
1
  9
$ATTDIA
 70
0
  9
$ATTREQ
 70
1
  9
$HANDLING
 70
1
  9
$LUNITS
 70
2
  9
$LUPREC
 70
4
  9
$SKETCHINC
 40
1.0
  9
$FILLETRAD
 40
10.0
  9
$AUNITS
 70
0
  9
$AUPREC
 70
2
  9
$MENU
  1
.
  9
$ELEVATION
 40
0.0
  9
$PELEVATION
 40
0.0
  9
$THICKNESS
 40
0.0
  9
$LIMCHECK
 70
0
  9
$CHAMFERA
 40
0.0
  9
$CHAMFERB
 40
0.0
  9
$SKPOLY
 70
0
  9
$TDCREATE
 40
2461264.9423032408
  9
$TDUPDATE
 40
2461264.9423032408
  9
$TDINDWG
 40
0.0
  9
$TDUSRTIMER
 40
0.0
  9
$USRTIMER
 70
1
  9
$ANGBASE
 50
0.0
  9
$ANGDIR
 70
0
  9
$PDMODE
 70
0
  9
$PDSIZE
 40
0.0
  9
$PLINEWID
 40
0.0
  9
$SPLFRAME
 70
0
  9
$SPLINETYPE
 70
6
  9
$SPLINESEGS
 70
8
  9
$HANDSEED
  5
177
  9
$SURFTAB1
 70
6
  9
$SURFTAB2
 70
6
  9
$SURFTYPE
 70
6
  9
$SURFU
 70
6
  9
$SURFV
 70
6
  9
$UCSNAME
  2

  9
$UCSORG
 10
0.0
 20
0.0
 30
0.0
  9
$UCSXDIR
 10
1.0
 20
0.0
 30
0.0
  9
$UCSYDIR
 10
0.0
 20
1.0
 30
0.0
  9
$PUCSNAME
  2

  9
$PUCSORG
 10
0.0
 20
0.0
 30
0.0
  9
$PUCSXDIR
 10
1.0
 20
0.0
 30
0.0
  9
$PUCSYDIR
 10
0.0
 20
1.0
 30
0.0
  9
$USERI1
 70
0
  9
$USERI2
 70
0
  9
$USERI3
 70
0
  9
$USERI4
 70
0
  9
$USERI5
 70
0
  9
$USERR1
 40
0.0
  9
$USERR2
 40
0.0
  9
$USERR3
 40
0.0
  9
$USERR4
 40
0.0
  9
$USERR5
 40
0.0
  9
$WORLDVIEW
 70
1
  9
$SHADEDGE
 70
3
  9
$SHADEDIF
 70
70
  9
$TILEMODE
 70
1
  9
$MAXACTVP
 70
64
  9
$PLIMCHECK
 70
0
  9
$PEXTMIN
 10
1e+20
 20
1e+20
 30
1e+20
  9
$PEXTMAX
 10
-1e+20
 20
-1e+20
 30
-1e+20
  9
$PLIMMIN
 10
0.0
 20
0.0
  9
$PLIMMAX
 10
420.0
 20
297.0
  9
$UNITMODE
 70
0
  9
$VISRETAIN
 70
1
  9
$PLINEGEN
 70
0
  9
$PSLTSCALE
 70
1
  0
ENDSEC
  0
SECTION
  2
TABLES
  0
TABLE
  2
VPORT
 70
1
  0
VPORT
  5
23
  2
*Active
 70
0
 10
0.0
 20
0.0
 11
1.0
 21
1.0
 12
0.0
 22
0.0
 13
0.0
 23
0.0
 14
0.5
 24
0.5
 15
0.5
 25
0.5
 16
0.0
 26
0.0
 36
1.0
 17
0.0
 27
0.0
 37
0.0
 40
1000.0
 41
1.34
 42
50.0
 43
0.0
 44
0.0
 50
0.0
 51
0.0
 71
0
 72
1000
 73
1
 74
3
 75
0
 76
0
 77
0
 78
0
  0
ENDTAB
  0
TABLE
  2
LTYPE
 70
3
  0
LTYPE
  5
24
  2
ByBlock
 70
0
  3

 72
65
 73
0
 40
0.0
  0
LTYPE
  5
25
  2
ByLayer
 70
0
  3

 72
65
 73
0
 40
0.0
  0
LTYPE
  5
26
  2
Continuous
 70
0
  3

 72
65
 73
0
 40
0.0
  0
ENDTAB
  0
TABLE
  2
LAYER
 70
7
  0
LAYER
  5
27
  2
0
 70
0
 62
7
  6
Continuous
  0
LAYER
  5
28
  2
Defpoints
 70
0
 62
7
  6
Continuous
  0
LAYER
  5
2D
  2
1
 70
0
 62
1
  6
Continuous
  0
LAYER
  5
2E
  2
7
 70
0
 62
7
  6
Continuous
  0
LAYER
  5
2F
  2
14
 70
0
 62
3
  6
Continuous
  0
LAYER
  5
30
  2
8
 70
0
 62
6
  6
Continuous
  0
LAYER
  5
31
  2
4
 70
0
 62
2
  6
Continuous
  0
ENDTAB
  0
TABLE
  2
STYLE
 70
1
  0
STYLE
  5
29
  2
Standard
 70
0
 40
0.0
 41
1.0
 50
0.0
 71
0
 42
2.5
  3
txt
  4

  0
ENDTAB
  0
TABLE
  2
VIEW
 70
0
  0
ENDTAB
  0
TABLE
  2
UCS
 70
0
  0
ENDTAB
  0
TABLE
  2
APPID
 70
3
  0
APPID
  5
2A
  2
ACAD
 70
0
  0
APPID
  5
175
  2
HATCHBACKGROUNDCOLOR
 70
0
  0
APPID
  5
176
  2
EZDXF
 70
0
  0
ENDTAB
  0
TABLE
  2
DIMSTYLE
 70
1
  0
DIMSTYLE
105
2B
  2
Standard
 70
0
  3

  4

  5

  6

  7

 40
1.0
 41
2.5
 42
0.625
 43
3.75
 44
1.25
 45
0.0
 46
0.0
 47
0.0
 48
0.0
140
2.5
141
2.5
142
0.0
143
0.03937007874
144
1.0
145
0.0
146
1.0
147
0.625
 71
0
 72
0
 73
0
 74
0
 75
0
 76
0
 77
1
 78
8
170
0
171
3
172
1
173
0
174
0
175
0
176
0
177
0
178
0
  0
ENDTAB
  0
ENDSEC
  0
SECTION
  2
BLOCKS
  0
BLOCK
  5
18
  8
0
  2
$Model_Space
 70
0
 10
0.0
 20
0.0
 30
0.0
  3
$Model_Space
  1

1001
EZDXF
1000
CREATED_BY_EZDXF
1000
1.4.4 @ 2026-08-11T14:36:55.442575+00:00
1000
WRITTEN_BY_EZDXF
1000
1.4.4 @ 2026-08-11T14:36:55.445575+00:00
  0
ENDBLK
  5
19
  8
0
  0
BLOCK
  5
1C
  8
0
  2
$Paper_Space
 70
0
 10
0.0
 20
0.0
 30
0.0
  3
$Paper_Space
  1

  0
ENDBLK
  5
1D
  8
0
  0
ENDSEC
  0
SECTION
  2
ENTITIES
  0
POLYLINE
  5
32
  8
1
 66
1
 10
0.0
 20
0.0
 30
0.0
 70
1
  0
VERTEX
  5
34
  8
1
 10
-2724.381104
 20
-192.857208
 30
0.0
 70
0
  0
VERTEX
  5
35
  8
1
 10
-2724.381104
 20
-192.857208
 30
0.0
 70
0
  0
VERTEX
  5
36
  8
1
 10
-2734.447091
 20
-192.841717
 30
0.0
 70
0
  0
VERTEX
  5
37
  8
1
 10
-2749.530078
 20
-192.722724
 30
0.0
 70
0
  0
VERTEX
  5
38
  8
1
 10
-2764.562918
 20
-192.484145
 30
0.0
 70
0
  0
VERTEX
  5
39
  8
1
 10
-2779.560382
 20
-192.090256
 30
0.0
 70
0
  0
VERTEX
  5
3A
  8
1
 10
-2795.188433
 20
-191.513851
 30
0.0
 70
0
  0
VERTEX
  5
3B
  8
1
 10
-2810.315973
 20
-190.826215
 30
0.0
 70
0
  0
VERTEX
  5
3C
  8
1
 10
-2825.93198
 20
-189.989421
 30
0.0
 70
0
  0
VERTEX
  5
3D
  8
1
 10
-2841.087457
 20
-189.045355
 30
0.0
 70
0
  0
VERTEX
  5
3E
  8
1
 10
-2856.686331
 20
-187.932506
 30
0.0
 70
0
  0
VERTEX
  5
3F
  8
1
 10
-2871.989412
 20
-186.699577
 30
0.0
 70
0
  0
VERTEX
  5
40
  8
1
 10
-2887.564902
 20
-185.296538
 30
0.0
 70
0
  0
VERTEX
  5
41
  8
1
 10
-2903.101083
 20
-183.741066
 30
0.0
 70
0
  0
VERTEX
  5
42
  8
1
 10
-2918.644746
 20
-182.021011
 30
0.0
 70
0
  0
VERTEX
  5
43
  8
1
 10
-2933.861749
 20
-180.16981
 30
0.0
 70
0
  0
VERTEX
  5
44
  8
1
 10
-2949.363402
 20
-178.103722
 30
0.0
 70
0
  0
VERTEX
  5
45
  8
1
 10
-2964.838423
 20
-175.846742
 30
0.0
 70
0
  0
VERTEX
  5
46
  8
1
 10
-2980.17301
 20
-173.405
 30
0.0
 70
0
  0
VERTEX
  5
47
  8
1
 10
-2995.581546
 20
-170.731176
 30
0.0
 70
0
  0
VERTEX
  5
48
  8
1
 10
-3010.579125
 20
-167.902838
 30
0.0
 70
0
  0
VERTEX
  5
49
  8
1
 10
-3025.902188
 20
-164.775252
 30
0.0
 70
0
  0
VERTEX
  5
4A
  8
1
 10
-3040.830423
 20
-161.49258
 30
0.0
 70
0
  0
VERTEX
  5
4B
  8
1
 10
-3056.051177
 20
-157.899346
 30
0.0
 70
0
  0
VERTEX
  5
4C
  8
1
 10
-3070.809067
 20
-154.168777
 30
0.0
 70
0
  0
VERTEX
  5
4D
  8
1
 10
-3085.908437
 20
-150.096569
 30
0.0
 70
0
  0
VERTEX
  5
4E
  8
1
 10
-3100.945817
 20
-145.800649
 30
0.0
 70
0
  0
VERTEX
  5
4F
  8
1
 10
-3115.352058
 20
-141.479706
 30
0.0
 70
0
  0
VERTEX
  5
50
  8
1
 10
-3130.278431
 20
-136.814111
 30
0.0
 70
0
  0
VERTEX
  5
51
  8
1
 10
-3145.017124
 20
-132.04256
 30
0.0
 70
0
  0
VERTEX
  5
52
  8
1
 10
-3159.845654
 20
-127.074002
 30
0.0
 70
0
  0
VERTEX
  5
53
  8
1
 10
-3174.150114
 20
-122.095056
 30
0.0
 70
0
  0
VERTEX
  5
54
  8
1
 10
-3188.862099
 20
-116.793148
 30
0.0
 70
0
  0
VERTEX
  5
55
  8
1
 10
-3203.542003
 20
-111.401268
 30
0.0
 70
0
  0
VERTEX
  5
56
  8
1
 10
-3206.213074
 20
-110.416164
 30
0.0
 70
0
  0
VERTEX
  5
57
  8
1
 10
-3207.015686
 20
-110.12043
 30
0.0
 70
0
  0
VERTEX
  5
58
  8
1
 10
-3217.670869
 20
-106.190919
 30
0.0
 70
0
  0
VERTEX
  5
59
  8
1
 10
-3231.779869
 20
-100.986118
 30
0.0
 70
0
  0
VERTEX
  5
5A
  8
1
 10
-3246.355125
 20
-95.607762
 30
0.0
 70
0
  0
VERTEX
  5
5B
  8
1
 10
-3260.786864
 20
-90.280971
 30
0.0
 70
0
  0
VERTEX
  5
5C
  8
1
 10
-3275.35675
 20
-84.901695
 30
0.0
 70
0
  0
VERTEX
  5
5D
  8
1
 10
-3271.149813
 20
-76.733892
 30
0.0
 70
0
  0
VERTEX
  5
5E
  8
1
 10
-3264.288462
 20
-63.412683
 30
0.0
 70
0
  0
VERTEX
  5
5F
  8
1
 10
-3257.282473
 20
-49.810836
 30
0.0
 70
0
  0
VERTEX
  5
60
  8
1
 10
-3250.183129
 20
-36.027598
 30
0.0
 70
0
  0
VERTEX
  5
61
  8
1
 10
-3248.838501
 20
-33.41697
 30
0.0
 70
0
  0
VERTEX
  5
62
  8
1
 10
-3242.974548
 20
-22.032053
 30
0.0
 70
0
  0
VERTEX
  5
63
  8
1
 10
-3228.428447
 20
-27.367373
 30
0.0
 70
0
  0
VERTEX
  5
64
  8
1
 10
-3214.062087
 20
-32.633629
 30
0.0
 70
0
  0
VERTEX
  5
65
  8
1
 10
-3199.366534
 20
-38.019108
 30
0.0
 70
0
  0
VERTEX
  5
66
  8
1
 10
-3185.204694
 20
-43.22118
 30
0.0
 70
0
  0
VERTEX
  5
67
  8
1
 10
-3171.006043
 20
-48.44678
 30
0.0
 70
0
  0
VERTEX
  5
68
  8
1
 10
-3156.817357
 20
-53.603248
 30
0.0
 70
0
  0
VERTEX
  5
69
  8
1
 10
-3142.551153
 20
-58.641708
 30
0.0
 70
0
  0
VERTEX
  5
6A
  8
1
 10
-3128.289306
 20
-63.505978
 30
0.0
 70
0
  0
VERTEX
  5
6B
  8
1
 10
-3113.914323
 20
-68.225022
 30
0.0
 70
0
  0
VERTEX
  5
6C
  8
1
 10
-3099.486646
 20
-72.780971
 30
0.0
 70
0
  0
VERTEX
  5
6D
  8
1
 10
-3084.739585
 20
-77.252457
 30
0.0
 70
0
  0
VERTEX
  5
6E
  8
1
 10
-3070.203247
 20
-81.448407
 30
0.0
 70
0
  0
VERTEX
  5
6F
  8
1
 10
-3055.510391
 20
-85.445366
 30
0.0
 70
0
  0
VERTEX
  5
70
  8
1
 10
-3040.848087
 20
-89.178829
 30
0.0
 70
0
  0
VERTEX
  5
71
  8
1
 10
-3026.02871
 20
-92.690875
 30
0.0
 70
0
  0
VERTEX
  5
72
  8
1
 10
-3011.252001
 20
-95.941619
 30
0.0
 70
0
  0
VERTEX
  5
73
  8
1
 10
-2996.28287
 20
-98.99248
 30
0.0
 70
0
  0
VERTEX
  5
74
  8
1
 10
-2981.48719
 20
-101.781418
 30
0.0
 70
0
  0
VERTEX
  5
75
  8
1
 10
-2966.581199
 20
-104.375016
 30
0.0
 70
0
  0
VERTEX
  5
76
  8
1
 10
-2951.745982
 20
-106.748206
 30
0.0
 70
0
  0
VERTEX
  5
77
  8
1
 10
-2936.775441
 20
-108.939056
 30
0.0
 70
0
  0
VERTEX
  5
78
  8
1
 10
-2921.777786
 20
-110.935904
 30
0.0
 70
0
  0
VERTEX
  5
79
  8
1
 10
-2906.682113
 20
-112.753282
 30
0.0
 70
0
  0
VERTEX
  5
7A
  8
1
 10
-2891.639861
 20
-114.379059
 30
0.0
 70
0
  0
VERTEX
  5
7B
  8
1
 10
-2876.434665
 20
-115.841076
 30
0.0
 70
0
  0
VERTEX
  5
7C
  8
1
 10
-2861.358678
 20
-117.115676
 30
0.0
 70
0
  0
VERTEX
  5
7D
  8
1
 10
-2846.013096
 20
-118.240139
 30
0.0
 70
0
  0
VERTEX
  5
7E
  8
1
 10
-2830.913013
 20
-119.187363
 30
0.0
 70
0
  0
VERTEX
  5
7F
  8
1
 10
-2815.445688
 20
-120.008671
 30
0.0
 70
0
  0
VERTEX
  5
80
  8
1
 10
-2800.331162
 20
-120.688493
 30
0.0
 70
0
  0
VERTEX
  5
81
  8
1
 10
-2785.10324
 20
-121.268893
 30
0.0
 70
0
  0
VERTEX
  5
82
  8
1
 10
-2770.087994
 20
-121.728734
 30
0.0
 70
0
  0
VERTEX
  5
83
  8
1
 10
-2754.735481
 20
-122.0776
 30
0.0
 70
0
  0
VERTEX
  5
84
  8
1
 10
-2739.564296
 20
-122.329095
 30
0.0
 70
0
  0
VERTEX
  5
85
  8
1
 10
-2726.178894
 20
-122.479439
 30
0.0
 70
0
  0
VERTEX
  5
86
  8
1
 10
-2723.538596
 20
-122.520787
 30
0.0
 70
0
  0
VERTEX
  5
87
  8
1
 10
-2709.392137
 20
-122.594714
 30
0.0
 70
0
  0
VERTEX
  5
88
  8
1
 10
-2697.352889
 20
-122.422316
 30
0.0
 70
0
  0
VERTEX
  5
89
  8
1
 10
-2682.061757
 20
-121.915046
 30
0.0
 70
0
  0
VERTEX
  5
8A
  8
1
 10
-2666.772667
 20
-121.272549
 30
0.0
 70
0
  0
VERTEX
  5
8B
  8
1
 10
-2651.783595
 20
-120.688979
 30
0.0
 70
0
  0
VERTEX
  5
8C
  8
1
 10
-2636.495083
 20
-120.111102
 30
0.0
 70
0
  0
VERTEX
  5
8D
  8
1
 10
-2621.129741
 20
-119.397128
 30
0.0
 70
0
  0
VERTEX
  5
8E
  8
1
 10
-2605.856131
 20
-118.493595
 30
0.0
 70
0
  0
VERTEX
  5
8F
  8
1
 10
-2590.436196
 20
-117.383405
 30
0.0
 70
0
  0
VERTEX
  5
90
  8
1
 10
-2575.189895
 20
-116.102137
 30
0.0
 70
0
  0
VERTEX
  5
91
  8
1
 10
-2559.699593
 20
-114.632231
 30
0.0
 70
0
  0
VERTEX
  5
92
  8
1
 10
-2544.484862
 20
-113.018769
 30
0.0
 70
0
  0
VERTEX
  5
93
  8
1
 10
-2529.142065
 20
-111.202446
 30
0.0
 70
0
  0
VERTEX
  5
94
  8
1
 10
-2513.972288
 20
-109.209308
 30
0.0
 70
0
  0
VERTEX
  5
95
  8
1
 10
-2498.947897
 20
-107.036294
 30
0.0
 70
0
  0
VERTEX
  5
96
  8
1
 10
-2483.835992
 20
-104.643759
 30
0.0
 70
0
  0
VERTEX
  5
97
  8
1
 10
-2468.855068
 20
-102.059209
 30
0.0
 70
0
  0
VERTEX
  5
98
  8
1
 10
-2453.81605
 20
-99.244164
 30
0.0
 70
0
  0
VERTEX
  5
99
  8
1
 10
-2439.08234
 20
-96.26448
 30
0.0
 70
0
  0
VERTEX
  5
9A
  8
1
 10
-2424.133875
 20
-93.002232
 30
0.0
 70
0
  0
VERTEX
  5
9B
  8
1
 10
-2409.327252
 20
-89.515363
 30
0.0
 70
0
  0
VERTEX
  5
9C
  8
1
 10
-2394.494713
 20
-85.760764
 30
0.0
 70
0
  0
VERTEX
  5
9D
  8
1
 10
-2379.622154
 20
-81.734693
 30
0.0
 70
0
  0
VERTEX
  5
9E
  8
1
 10
-2364.917015
 20
-77.508906
 30
0.0
 70
0
  0
VERTEX
  5
9F
  8
1
 10
-2350.170978
 20
-73.046027
 30
0.0
 70
0
  0
VERTEX
  5
A0
  8
1
 10
-2335.581482
 20
-68.43724
 30
0.0
 70
0
  0
VERTEX
  5
A1
  8
1
 10
-2321.038941
 20
-63.680856
 30
0.0
 70
0
  0
VERTEX
  5
A2
  8
1
 10
-2306.550997
 20
-58.76272
 30
0.0
 70
0
  0
VERTEX
  5
A3
  8
1
 10
-2292.180553
 20
-53.674017
 30
0.0
 70
0
  0
VERTEX
  5
A4
  8
1
 10
-2277.804985
 20
-48.43603
 30
0.0
 70
0
  0
VERTEX
  5
A5
  8
1
 10
-2263.503917
 20
-43.186662
 30
0.0
 70
0
  0
VERTEX
  5
A6
  8
1
 10
-2249.078442
 20
-37.893485
 30
0.0
 70
0
  0
VERTEX
  5
A7
  8
1
 10
-2234.83092
 20
-32.667522
 30
0.0
 70
0
  0
VERTEX
  5
A8
  8
1
 10
-2220.470475
 20
-27.401847
 30
0.0
 70
0
  0
VERTEX
  5
A9
  8
1
 10
-2205.826874
 20
-22.034194
 30
0.0
 70
0
  0
VERTEX
  5
AA
  8
1
 10
-2199.9646
 20
-33.415663
 30
0.0
 70
0
  0
VERTEX
  5
AB
  8
1
 10
-2198.643774
 20
-35.980215
 30
0.0
 70
0
  0
VERTEX
  5
AC
  8
1
 10
-2191.72129
 20
-49.420175
 30
0.0
 70
0
  0
VERTEX
  5
AD
  8
1
 10
-2184.723984
 20
-63.005365
 30
0.0
 70
0
  0
VERTEX
  5
AE
  8
1
 10
-2177.851213
 20
-76.348867
 30
0.0
 70
0
  0
VERTEX
  5
AF
  8
1
 10
-2173.48938
 20
-84.817429
 30
0.0
 70
0
  0
VERTEX
  5
B0
  8
1
 10
-2188.011374
 20
-90.195042
 30
0.0
 70
0
  0
VERTEX
  5
B1
  8
1
 10
-2202.354254
 20
-95.507183
 30
0.0
 70
0
  0
VERTEX
  5
B2
  8
1
 10
-2216.732093
 20
-100.833073
 30
0.0
 70
0
  0
VERTEX
  5
B3
  8
1
 10
-2230.880966
 20
-106.075021
 30
0.0
 70
0
  0
VERTEX
  5
B4
  8
1
 10
-2244.034576
 20
-110.949135
 30
0.0
 70
0
  0
VERTEX
  5
B5
  8
1
 10
-2245.068254
 20
-111.332233
 30
0.0
 70
0
  0
VERTEX
  5
B6
  8
1
 10
-2259.277845
 20
-116.578351
 30
0.0
 70
0
  0
VERTEX
  5
B7
  8
1
 10
-2273.520995
 20
-121.730955
 30
0.0
 70
0
  0
VERTEX
  5
B8
  8
1
 10
-2288.040667
 20
-126.792422
 30
0.0
 70
0
  0
VERTEX
  5
B9
  8
1
 10
-2302.399565
 20
-131.615373
 30
0.0
 70
0
  0
VERTEX
  5
BA
  8
1
 10
-2316.883857
 20
-136.324511
 30
0.0
 70
0
  0
VERTEX
  5
BB
  8
1
 10
-2331.335194
 20
-140.861792
 30
0.0
 70
0
  0
VERTEX
  5
BC
  8
1
 10
-2345.795222
 20
-145.220337
 30
0.0
 70
0
  0
VERTEX
  5
BD
  8
1
 10
-2360.353646
 20
-149.402146
 30
0.0
 70
0
  0
VERTEX
  5
BE
  8
1
 10
-2375.044849
 20
-153.387934
 30
0.0
 70
0
  0
VERTEX
  5
BF
  8
1
 10
-2389.723309
 20
-157.127349
 30
0.0
 70
0
  0
VERTEX
  5
C0
  8
1
 10
-2404.522735
 20
-160.657556
 30
0.0
 70
0
  0
VERTEX
  5
C1
  8
1
 10
-2419.30693
 20
-163.953422
 30
0.0
 70
0
  0
VERTEX
  5
C2
  8
1
 10
-2434.094384
 20
-167.033457
 30
0.0
 70
0
  0
VERTEX
  5
C3
  8
1
 10
-2448.962808
 20
-169.924908
 30
0.0
 70
0
  0
VERTEX
  5
C4
  8
1
 10
-2463.851481
 20
-172.624908
 30
0.0
 70
0
  0
VERTEX
  5
C5
  8
1
 10
-2478.78742
 20
-175.145098
 30
0.0
 70
0
  0
VERTEX
  5
C6
  8
1
 10
-2493.669368
 20
-177.47303
 30
0.0
 70
0
  0
VERTEX
  5
C7
  8
1
 10
-2508.660969
 20
-179.637402
 30
0.0
 70
0
  0
VERTEX
  5
C8
  8
1
 10
-2523.594003
 20
-181.616879
 30
0.0
 70
0
  0
VERTEX
  5
C9
  8
1
 10
-2538.631348
 20
-183.435998
 30
0.0
 70
0
  0
VERTEX
  5
CA
  8
1
 10
-2553.600571
 20
-185.076878
 30
0.0
 70
0
  0
VERTEX
  5
CB
  8
1
 10
-2568.674608
 20
-186.561378
 30
0.0
 70
0
  0
VERTEX
  5
CC
  8
1
 10
-2583.763888
 20
-187.882127
 30
0.0
 70
0
  0
VERTEX
  5
CD
  8
1
 10
-2598.772111
 20
-189.035061
 30
0.0
 70
0
  0
VERTEX
  5
CE
  8
1
 10
-2613.885881
 20
-190.03713
 30
0.0
 70
0
  0
VERTEX
  5
CF
  8
1
 10
-2628.904821
 20
-190.877827
 30
0.0
 70
0
  0
VERTEX
  5
D0
  8
1
 10
-2644.035821
 20
-191.571994
 30
0.0
 70
0
  0
VERTEX
  5
D1
  8
1
 10
-2659.053618
 20
-192.112592
 30
0.0
 70
0
  0
VERTEX
  5
D2
  8
1
 10
-2674.195371
 20
-192.508789
 30
0.0
 70
0
  0
VERTEX
  5
D3
  8
1
 10
-2689.199174
 20
-192.755037
 30
0.0
 70
0
  0
VERTEX
  5
D4
  8
1
 10
-2704.345604
 20
-192.869513
 30
0.0
 70
0
  0
VERTEX
  5
D5
  8
1
 10
-2719.467062
 20
-192.87282
 30
0.0
 70
0
  0
VERTEX
  5
D6
  8
1
 10
-2724.441528
 20
-192.857132
 30
0.0
 70
0
  0
SEQEND
  5
33
  8
1
  0
POLYLINE
  5
D7
  8
14
 66
1
 10
0.0
 20
0.0
 30
0.0
 70
1
  0
VERTEX
  5
D9
  8
14
 10
-2724.40155
 20
-180.157223
 30
0.0
 70
0
  0
VERTEX
  5
DA
  8
14
 10
-2724.40155
 20
-180.157223
 30
0.0
 70
0
  0
VERTEX
  5
DB
  8
14
 10
-2738.416723
 20
-180.179829
 30
0.0
 70
0
  0
VERTEX
  5
DC
  8
14
 10
-2753.440951
 20
-180.012477
 30
0.0
 70
0
  0
VERTEX
  5
DD
  8
14
 10
-2768.786931
 20
-179.687033
 30
0.0
 70
0
  0
VERTEX
  5
DE
  8
14
 10
-2784.381131
 20
-179.211706
 30
0.0
 70
0
  0
VERTEX
  5
DF
  8
14
 10
-2799.195183
 20
-178.630972
 30
0.0
 70
0
  0
VERTEX
  5
E0
  8
14
 10
-2815.210409
 20
-177.863744
 30
0.0
 70
0
  0
VERTEX
  5
E1
  8
14
 10
-2832.298865
 20
-176.884897
 30
0.0
 70
0
  0
VERTEX
  5
E2
  8
14
 10
-2847.266699
 20
-175.889419
 30
0.0
 70
0
  0
VERTEX
  5
E3
  8
14
 10
-2862.81688
 20
-174.715002
 30
0.0
 70
0
  0
VERTEX
  5
E4
  8
14
 10
-2878.875385
 20
-173.347106
 30
0.0
 70
0
  0
VERTEX
  5
E5
  8
14
 10
-2895.368083
 20
-171.7712
 30
0.0
 70
0
  0
VERTEX
  5
E6
  8
14
 10
-2912.220952
 20
-169.972743
 30
0.0
 70
0
  0
VERTEX
  5
E7
  8
14
 10
-2929.359931
 20
-167.937197
 30
0.0
 70
0
  0
VERTEX
  5
E8
  8
14
 10
-2946.710998
 20
-165.650021
 30
0.0
 70
0
  0
VERTEX
  5
E9
  8
14
 10
-2964.20002
 20
-163.096687
 30
0.0
 70
0
  0
VERTEX
  5
EA
  8
14
 10
-2981.752993
 20
-160.262648
 30
0.0
 70
0
  0
VERTEX
  5
EB
  8
14
 10
-2997.117847
 20
-157.539386
 30
0.0
 70
0
  0
VERTEX
  5
EC
  8
14
 10
-3014.623432
 20
-154.144997
 30
0.0
 70
0
  0
VERTEX
  5
ED
  8
14
 10
-3032.072389
 20
-150.443329
 30
0.0
 70
0
  0
VERTEX
  5
EE
  8
14
 10
-3049.453333
 20
-146.430153
 30
0.0
 70
0
  0
VERTEX
  5
EF
  8
14
 10
-3066.754803
 20
-142.101255
 30
0.0
 70
0
  0
VERTEX
  5
F0
  8
14
 10
-3084.137921
 20
-137.406545
 30
0.0
 70
0
  0
VERTEX
  5
F1
  8
14
 10
-3101.083369
 20
-132.519
 30
0.0
 70
0
  0
VERTEX
  5
F2
  8
14
 10
-3117.519436
 20
-127.520554
 30
0.0
 70
0
  0
VERTEX
  5
F3
  8
14
 10
-3133.189076
 20
-122.542062
 30
0.0
 70
0
  0
VERTEX
  5
F4
  8
14
 10
-3150.619093
 20
-116.778438
 30
0.0
 70
0
  0
VERTEX
  5
F5
  8
14
 10
-3166.131245
 20
-111.458063
 30
0.0
 70
0
  0
VERTEX
  5
F6
  8
14
 10
-3183.063129
 20
-105.444526
 30
0.0
 70
0
  0
VERTEX
  5
F7
  8
14
 10
-3200.354004
 20
-99.040899
 30
0.0
 70
0
  0
VERTEX
  5
F8
  8
14
 10
-3200.354004
 20
-99.040899
 30
0.0
 70
0
  0
VERTEX
  5
F9
  8
14
 10
-3200.354004
 20
-99.040899
 30
0.0
 70
0
  0
VERTEX
  5
FA
  8
14
 10
-3193.821966
 20
-86.359051
 30
0.0
 70
0
  0
VERTEX
  5
FB
  8
14
 10
-3186.863558
 20
-72.849392
 30
0.0
 70
0
  0
VERTEX
  5
FC
  8
14
 10
-3179.625854
 20
-58.797464
 30
0.0
 70
0
  0
VERTEX
  5
FD
  8
14
 10
-3179.625854
 20
-58.797464
 30
0.0
 70
0
  0
VERTEX
  5
FE
  8
14
 10
-3164.593167
 20
-64.310016
 30
0.0
 70
0
  0
VERTEX
  5
FF
  8
14
 10
-3149.998023
 20
-69.511763
 30
0.0
 70
0
  0
VERTEX
  5
100
  8
14
 10
-3135.468432
 20
-74.495336
 30
0.0
 70
0
  0
VERTEX
  5
101
  8
14
 10
-3120.771672
 20
-79.344345
 30
0.0
 70
0
  0
VERTEX
  5
102
  8
14
 10
-3106.321679
 20
-83.95145
 30
0.0
 70
0
  0
VERTEX
  5
103
  8
14
 10
-3091.525495
 20
-88.486832
 30
0.0
 70
0
  0
VERTEX
  5
104
  8
14
 10
-3076.874655
 20
-92.761919
 30
0.0
 70
0
  0
VERTEX
  5
105
  8
14
 10
-3061.953967
 20
-96.874758
 30
0.0
 70
0
  0
VERTEX
  5
106
  8
14
 10
-3046.96973
 20
-100.748237
 30
0.0
 70
0
  0
VERTEX
  5
107
  8
14
 10
-3032.041988
 20
-104.340811
 30
0.0
 70
0
  0
VERTEX
  5
108
  8
14
 10
-3016.937861
 20
-107.713015
 30
0.0
 70
0
  0
VERTEX
  5
109
  8
14
 10
-3001.593521
 20
-110.887589
 30
0.0
 70
0
  0
VERTEX
  5
10A
  8
14
 10
-2986.393351
 20
-113.796184
 30
0.0
 70
0
  0
VERTEX
  5
10B
  8
14
 10
-2971.583713
 20
-116.412435
 30
0.0
 70
0
  0
VERTEX
  5
10C
  8
14
 10
-2956.308156
 20
-118.89437
 30
0.0
 70
0
  0
VERTEX
  5
10D
  8
14
 10
-2940.712611
 20
-121.210039
 30
0.0
 70
0
  0
VERTEX
  5
10E
  8
14
 10
-2925.375855
 20
-123.280013
 30
0.0
 70
0
  0
VERTEX
  5
10F
  8
14
 10
-2910.237229
 20
-125.128365
 30
0.0
 70
0
  0
VERTEX
  5
110
  8
14
 10
-2894.853781
 20
-126.815273
 30
0.0
 70
0
  0
VERTEX
  5
111
  8
14
 10
-2879.583791
 20
-128.306478
 30
0.0
 70
0
  0
VERTEX
  5
112
  8
14
 10
-2864.164579
 20
-129.633224
 30
0.0
 70
0
  0
VERTEX
  5
113
  8
14
 10
-2848.776453
 20
-130.781614
 30
0.0
 70
0
  0
VERTEX
  5
114
  8
14
 10
-2833.386213
 20
-131.763568
 30
0.0
 70
0
  0
VERTEX
  5
115
  8
14
 10
-2818.222004
 20
-132.588158
 30
0.0
 70
0
  0
VERTEX
  5
116
  8
14
 10
-2802.766959
 20
-133.299645
 30
0.0
 70
0
  0
VERTEX
  5
117
  8
14
 10
-2787.343911
 20
-133.892495
 30
0.0
 70
0
  0
VERTEX
  5
118
  8
14
 10
-2772.351597
 20
-134.364969
 30
0.0
 70
0
  0
VERTEX
  5
119
  8
14
 10
-2757.182999
 20
-134.743609
 30
0.0
 70
0
  0
VERTEX
  5
11A
  8
14
 10
-2742.168502
 20
-135.019888
 30
0.0
 70
0
  0
VERTEX
  5
11B
  8
14
 10
-2727.210466
 20
-135.185666
 30
0.0
 70
0
  0
VERTEX
  5
11C
  8
14
 10
-2724.755554
 20
-135.200605
 30
0.0
 70
0
  0
VERTEX
  5
11D
  8
14
 10
-2720.127436
 20
-135.256678
 30
0.0
 70
0
  0
VERTEX
  5
11E
  8
14
 10
-2705.347763
 20
-135.265984
 30
0.0
 70
0
  0
VERTEX
  5
11F
  8
14
 10
-2692.726299
 20
-135.05397
 30
0.0
 70
0
  0
VERTEX
  5
120
  8
14
 10
-2677.215277
 20
-134.473441
 30
0.0
 70
0
  0
VERTEX
  5
121
  8
14
 10
-2661.706349
 20
-133.774915
 30
0.0
 70
0
  0
VERTEX
  5
122
  8
14
 10
-2646.360634
 20
-133.18646
 30
0.0
 70
0
  0
VERTEX
  5
123
  8
14
 10
-2630.849643
 20
-132.583423
 30
0.0
 70
0
  0
VERTEX
  5
124
  8
14
 10
-2615.373028
 20
-131.804661
 30
0.0
 70
0
  0
VERTEX
  5
125
  8
14
 10
-2599.879947
 20
-130.818032
 30
0.0
 70
0
  0
VERTEX
  5
126
  8
14
 10
-2584.39936
 20
-129.639422
 30
0.0
 70
0
  0
VERTEX
  5
127
  8
14
 10
-2568.933319
 20
-128.283571
 30
0.0
 70
0
  0
VERTEX
  5
128
  8
14
 10
-2553.953188
 20
-126.811329
 30
0.0
 70
0
  0
VERTEX
  5
129
  8
14
 10
-2538.522342
 20
-125.121993
 30
0.0
 70
0
  0
VERTEX
  5
12A
  8
14
 10
-2523.08026
 20
-123.236636
 30
0.0
 70
0
  0
VERTEX
  5
12B
  8
14
 10
-2507.696979
 20
-121.154819
 30
0.0
 70
0
  0
VERTEX
  5
12C
  8
14
 10
-2492.564561
 20
-118.905012
 30
0.0
 70
0
  0
VERTEX
  5
12D
  8
14
 10
-2477.241958
 20
-116.416232
 30
0.0
 70
0
  0
VERTEX
  5
12E
  8
14
 10
-2462.131539
 20
-113.745195
 30
0.0
 70
0
  0
VERTEX
  5
12F
  8
14
 10
-2446.885476
 20
-110.8232
 30
0.0
 70
0
  0
VERTEX
  5
130
  8
14
 10
-2431.999413
 20
-107.741941
 30
0.0
 70
0
  0
VERTEX
  5
131
  8
14
 10
-2416.848416
 20
-104.361173
 30
0.0
 70
0
  0
VERTEX
  5
132
  8
14
 10
-2402.420496
 20
-100.894784
 30
0.0
 70
0
  0
VERTEX
  5
133
  8
14
 10
-2387.387801
 20
-97.018743
 30
0.0
 70
0
  0
VERTEX
  5
134
  8
14
 10
-2372.419034
 20
-92.901285
 30
0.0
 70
0
  0
VERTEX
  5
135
  8
14
 10
-2357.473206
 20
-88.545569
 30
0.0
 70
0
  0
VERTEX
  5
136
  8
14
 10
-2342.630913
 20
-83.998399
 30
0.0
 70
0
  0
VERTEX
  5
137
  8
14
 10
-2327.889329
 20
-79.29841
 30
0.0
 70
0
  0
VERTEX
  5
138
  8
14
 10
-2313.147982
 20
-74.432749
 30
0.0
 70
0
  0
VERTEX
  5
139
  8
14
 10
-2298.605467
 20
-69.442057
 30
0.0
 70
0
  0
VERTEX
  5
13A
  8
14
 10
-2284.142216
 20
-64.285779
 30
0.0
 70
0
  0
VERTEX
  5
13B
  8
14
 10
-2269.122314
 20
-58.90275
 30
0.0
 70
0
  0
VERTEX
  5
13C
  8
14
 10
-2269.176483
 20
-58.797479
 30
0.0
 70
0
  0
VERTEX
  5
13D
  8
14
 10
-2261.658588
 20
-73.393543
 30
0.0
 70
0
  0
VERTEX
  5
13E
  8
14
 10
-2254.539498
 20
-87.215226
 30
0.0
 70
0
  0
VERTEX
  5
13F
  8
14
 10
-2248.448486
 20
-99.040899
 30
0.0
 70
0
  0
VERTEX
  5
140
  8
14
 10
-2248.448486
 20
-99.040899
 30
0.0
 70
0
  0
VERTEX
  5
141
  8
14
 10
-2263.563622
 20
-104.670184
 30
0.0
 70
0
  0
VERTEX
  5
142
  8
14
 10
-2278.487473
 20
-110.017832
 30
0.0
 70
0
  0
VERTEX
  5
143
  8
14
 10
-2293.897079
 20
-115.358283
 30
0.0
 70
0
  0
VERTEX
  5
144
  8
14
 10
-2309.641664
 20
-120.628768
 30
0.0
 70
0
  0
VERTEX
  5
145
  8
14
 10
-2324.827552
 20
-125.528205
 30
0.0
 70
0
  0
VERTEX
  5
146
  8
14
 10
-2340.871547
 20
-130.494912
 30
0.0
 70
0
  0
VERTEX
  5
147
  8
14
 10
-2355.415818
 20
-134.794332
 30
0.0
 70
0
  0
VERTEX
  5
148
  8
14
 10
-2370.255248
 20
-138.959664
 30
0.0
 70
0
  0
VERTEX
  5
149
  8
14
 10
-2385.857499
 20
-143.069162
 30
0.0
 70
0
  0
VERTEX
  5
14A
  8
14
 10
-2400.901891
 20
-146.766843
 30
0.0
 70
0
  0
VERTEX
  5
14B
  8
14
 10
-2416.006588
 20
-150.232267
 30
0.0
 70
0
  0
VERTEX
  5
14C
  8
14
 10
-2431.165355
 20
-153.475242
 30
0.0
 70
0
  0
VERTEX
  5
14D
  8
14
 10
-2446.371956
 20
-156.505574
 30
0.0
 70
0
  0
VERTEX
  5
14E
  8
14
 10
-2460.026996
 20
-159.047164
 30
0.0
 70
0
  0
VERTEX
  5
14F
  8
14
 10
-2477.493491
 20
-162.063488
 30
0.0
 70
0
  0
VERTEX
  5
150
  8
14
 10
-2492.812094
 20
-164.498242
 30
0.0
 70
0
  0
VERTEX
  5
151
  8
14
 10
-2508.160905
 20
-166.745123
 30
0.0
 70
0
  0
VERTEX
  5
152
  8
14
 10
-2523.537283
 20
-168.807025
 30
0.0
 70
0
  0
VERTEX
  5
153
  8
14
 10
-2538.938451
 20
-170.686822
 30
0.0
 70
0
  0
VERTEX
  5
154
  8
14
 10
-2554.361785
 20
-172.387411
 30
0.0
 70
0
  0
VERTEX
  5
155
  8
14
 10
-2569.804511
 20
-173.911668
 30
0.0
 70
0
  0
VERTEX
  5
156
  8
14
 10
-2585.263965
 20
-175.262484
 30
0.0
 70
0
  0
VERTEX
  5
157
  8
14
 10
-2600.737487
 20
-176.442747
 30
0.0
 70
0
  0
VERTEX
  5
158
  8
14
 10
-2616.222301
 20
-177.455337
 30
0.0
 70
0
  0
VERTEX
  5
159
  8
14
 10
-2631.715782
 20
-178.303145
 30
0.0
 70
0
  0
VERTEX
  5
15A
  8
14
 10
-2647.215155
 20
-178.989053
 30
0.0
 70
0
  0
VERTEX
  5
15B
  8
14
 10
-2662.717798
 20
-179.515949
 30
0.0
 70
0
  0
VERTEX
  5
15C
  8
14
 10
-2678.220932
 20
-179.886718
 30
0.0
 70
0
  0
VERTEX
  5
15D
  8
14
 10
-2693.721898
 20
-180.104246
 30
0.0
 70
0
  0
VERTEX
  5
15E
  8
14
 10
-2710.127234
 20
-180.181911
 30
0.0
 70
0
  0
VERTEX
  5
15F
  8
14
 10
-2724.40155
 20
-180.157223
 30
0.0
 70
0
  0
SEQEND
  5
D8
  8
14
  0
POLYLINE
  5
160
  8
8
 66
1
 10
0.0
 20
0.0
 30
0.0
 70
0
  0
VERTEX
  5
162
  8
8
 10
-2724.40155
 20
-135.175524
 30
0.0
 70
0
  0
VERTEX
  5
163
  8
8
 10
-2724.40155
 20
-150.908206
 30
0.0
 70
0
  0
VERTEX
  5
164
  8
8
 10
-2724.40155
 20
-165.924123
 30
0.0
 70
0
  0
VERTEX
  5
165
  8
8
 10
-2724.40155
 20
-180.157223
 30
0.0
 70
0
  0
SEQEND
  5
161
  8
8
  0
POINT
  5
166
  8
4
 10
-2724.381104
 20
-192.857208
 30
0.0
  0
POINT
  5
167
  8
4
 10
-3206.213074
 20
-110.416164
 30
0.0
  0
POINT
  5
168
  8
4
 10
-3207.015686
 20
-110.12043
 30
0.0
  0
POINT
  5
169
  8
4
 10
-3248.838501
 20
-33.41697
 30
0.0
  0
POINT
  5
16A
  8
4
 10
-2199.9646
 20
-33.415663
 30
0.0
  0
POINT
  5
16B
  8
4
 10
-2244.034576
 20
-110.949135
 30
0.0
  0
POINT
  5
16C
  8
4
 10
-2724.441528
 20
-192.857132
 30
0.0
  0
POINT
  5
16D
  8
4
 10
-2724.40155
 20
-180.157223
 30
0.0
  0
POINT
  5
16E
  8
4
 10
-3200.354004
 20
-99.040899
 30
0.0
  0
POINT
  5
16F
  8
4
 10
-3200.354004
 20
-99.040899
 30
0.0
  0
POINT
  5
170
  8
4
 10
-3179.625854
 20
-58.797464
 30
0.0
  0
POINT
  5
171
  8
4
 10
-2269.176483
 20
-58.797479
 30
0.0
  0
POINT
  5
172
  8
4
 10
-2248.448486
 20
-99.040899
 30
0.0
  0
POINT
  5
173
  8
4
 10
-2724.40155
 20
-180.157223
 30
0.0
  0
LINE
  5
174
  8
7
 10
-2722.257385
 20
-139.723883
 30
0.0
 11
-2722.257385
 21
-175.667915
 31
0.0
  0
ENDSEC
  0
EOF
