  0
SECTION
  2
HEADER
  9
$ACADVER
  1
AC1009
  9
$DWGCODEPAGE
  3
ANSI_1252
  9
$INSBASE
 10
0.0
 20
0.0
 30
0.0
  9
$EXTMIN
 10
1e+20
 20
1e+20
 30
1e+20
  9
$EXTMAX
 10
-1e+20
 20
-1e+20
 30
-1e+20
  9
$LIMMIN
 10
0.0
 20
0.0
  9
$LIMMAX
 10
420.0
 20
297.0
  9
$ORTHOMODE
 70
0
  9
$REGENMODE
 70
1
  9
$FILLMODE
 70
1
  9
$DRAGMODE
 70
2
  9
$QTEXTMODE
 70
0
  9
$MIRRTEXT
 70
1
  9
$OSMODE
 70
20583
  9
$LTSCALE
 40
1.0
  9
$ATTMODE
 70
1
  9
$TEXTSIZE
 40
2.5
  9
$TRACEWID
 40
1.0
  9
$TEXTSTYLE
  7
Standard
  9
$CLAYER
  8
0
  9
$CELTYPE
  6
ByLayer
  9
$CECOLOR
 62
256
  9
$DIMSCALE
 40
1.0
  9
$DIMASZ
 40
2.5
  9
$DIMEXO
 40
0.625
  9
$DIMDLI
 40
3.75
  9
$DIMRND
 40
0.0
  9
$DIMDLE
 40
0.0
  9
$DIMEXE
 40
1.25
  9
$DIMTP
 40
0.0
  9
$DIMTM
 40
0.0
  9
$DIMTXT
 40
2.5
  9
$DIMCEN
 40
2.5
  9
$DIMTSZ
 40
0.0
  9
$DIMTOL
 70
0
  9
$DIMLIM
 70
0
  9
$DIMTIH
 70
0
  9
$DIMTOH
 70
0
  9
$DIMSE1
 70
0
  9
$DIMSE2
 70
0
  9
$DIMTAD
 70
1
  9
$DIMZIN
 70
8
  9
$DIMBLK
  1

  9
$DIMASO
 70
1
  9
$DIMSHO
 70
1
  9
$DIMPOST
  1

  9
$DIMAPOST
  1

  9
$DIMALT
 70
0
  9
$DIMALTD
 70
3
  9
$DIMALTF
 40
0.03937007874
  9
$DIMLFAC
 40
1.0
  9
$DIMTOFL
 70
1
  9
$DIMTVP
 40
0.0
  9
$DIMTIX
 70
0
  9
$DIMSOXD
 70
0
  9
$DIMSAH
 70
0
  9
$DIMBLK1
  1

  9
$DIMBLK2
  1

  9
$DIMSTYLE
  2
ISO-25
  9
$DIMCLRD
 70
0
  9
$DIMCLRE
 70
0
  9
$DIMCLRT
 70
0
  9
$DIMTFAC
 40
1.0
  9
$DIMGAP
 40
0.625
  9
$COORDS
 70
1
  9
$ATTDIA
 70
0
  9
$ATTREQ
 70
1
  9
$HANDLING
 70
1
  9
$LUNITS
 70
2
  9
$LUPREC
 70
4
  9
$SKETCHINC
 40
1.0
  9
$FILLETRAD
 40
10.0
  9
$AUNITS
 70
0
  9
$AUPREC
 70
2
  9
$MENU
  1
.
  9
$ELEVATION
 40
0.0
  9
$PELEVATION
 40
0.0
  9
$THICKNESS
 40
0.0
  9
$LIMCHECK
 70
0
  9
$CHAMFERA
 40
0.0
  9
$CHAMFERB
 40
0.0
  9
$SKPOLY
 70
0
  9
$TDCREATE
 40
2461259.4353935183
  9
$TDUPDATE
 40
2461259.4353935183
  9
$TDINDWG
 40
0.0
  9
$TDUSRTIMER
 40
0.0
  9
$USRTIMER
 70
1
  9
$ANGBASE
 50
0.0
  9
$ANGDIR
 70
0
  9
$PDMODE
 70
0
  9
$PDSIZE
 40
0.0
  9
$PLINEWID
 40
0.0
  9
$SPLFRAME
 70
0
  9
$SPLINETYPE
 70
6
  9
$SPLINESEGS
 70
8
  9
$HANDSEED
  5
8F
  9
$SURFTAB1
 70
6
  9
$SURFTAB2
 70
6
  9
$SURFTYPE
 70
6
  9
$SURFU
 70
6
  9
$SURFV
 70
6
  9
$UCSNAME
  2

  9
$UCSORG
 10
0.0
 20
0.0
 30
0.0
  9
$UCSXDIR
 10
1.0
 20
0.0
 30
0.0
  9
$UCSYDIR
 10
0.0
 20
1.0
 30
0.0
  9
$PUCSNAME
  2

  9
$PUCSORG
 10
0.0
 20
0.0
 30
0.0
  9
$PUCSXDIR
 10
1.0
 20
0.0
 30
0.0
  9
$PUCSYDIR
 10
0.0
 20
1.0
 30
0.0
  9
$USERI1
 70
0
  9
$USERI2
 70
0
  9
$USERI3
 70
0
  9
$USERI4
 70
0
  9
$USERI5
 70
0
  9
$USERR1
 40
0.0
  9
$USERR2
 40
0.0
  9
$USERR3
 40
0.0
  9
$USERR4
 40
0.0
  9
$USERR5
 40
0.0
  9
$WORLDVIEW
 70
1
  9
$SHADEDGE
 70
3
  9
$SHADEDIF
 70
70
  9
$TILEMODE
 70
1
  9
$MAXACTVP
 70
64
  9
$PLIMCHECK
 70
0
  9
$PEXTMIN
 10
1e+20
 20
1e+20
 30
1e+20
  9
$PEXTMAX
 10
-1e+20
 20
-1e+20
 30
-1e+20
  9
$PLIMMIN
 10
0.0
 20
0.0
  9
$PLIMMAX
 10
420.0
 20
297.0
  9
$UNITMODE
 70
0
  9
$VISRETAIN
 70
1
  9
$PLINEGEN
 70
0
  9
$PSLTSCALE
 70
1
  0
ENDSEC
  0
SECTION
  2
TABLES
  0
TABLE
  2
VPORT
 70
1
  0
VPORT
  5
23
  2
*Active
 70
0
 10
0.0
 20
0.0
 11
1.0
 21
1.0
 12
0.0
 22
0.0
 13
0.0
 23
0.0
 14
0.5
 24
0.5
 15
0.5
 25
0.5
 16
0.0
 26
0.0
 36
1.0
 17
0.0
 27
0.0
 37
0.0
 40
1000.0
 41
1.34
 42
50.0
 43
0.0
 44
0.0
 50
0.0
 51
0.0
 71
0
 72
1000
 73
1
 74
3
 75
0
 76
0
 77
0
 78
0
  0
ENDTAB
  0
TABLE
  2
LTYPE
 70
3
  0
LTYPE
  5
24
  2
ByBlock
 70
0
  3

 72
65
 73
0
 40
0.0
  0
LTYPE
  5
25
  2
ByLayer
 70
0
  3

 72
65
 73
0
 40
0.0
  0
LTYPE
  5
26
  2
Continuous
 70
0
  3

 72
65
 73
0
 40
0.0
  0
ENDTAB
  0
TABLE
  2
LAYER
 70
4
  0
LAYER
  5
27
  2
0
 70
0
 62
7
  6
Continuous
  0
LAYER
  5
28
  2
Defpoints
 70
0
 62
7
  6
Continuous
  0
LAYER
  5
2D
  2
1
 70
0
 62
1
  6
Continuous
  0
LAYER
  5
2E
  2
7
 70
0
 62
7
  6
Continuous
  0
ENDTAB
  0
TABLE
  2
STYLE
 70
1
  0
STYLE
  5
29
  2
Standard
 70
0
 40
0.0
 41
1.0
 50
0.0
 71
0
 42
2.5
  3
txt
  4

  0
ENDTAB
  0
TABLE
  2
VIEW
 70
0
  0
ENDTAB
  0
TABLE
  2
UCS
 70
0
  0
ENDTAB
  0
TABLE
  2
APPID
 70
3
  0
APPID
  5
2A
  2
ACAD
 70
0
  0
APPID
  5
8D
  2
HATCHBACKGROUNDCOLOR
 70
0
  0
APPID
  5
8E
  2
EZDXF
 70
0
  0
ENDTAB
  0
TABLE
  2
DIMSTYLE
 70
1
  0
DIMSTYLE
105
2B
  2
Standard
 70
0
  3

  4

  5

  6

  7

 40
1.0
 41
2.5
 42
0.625
 43
3.75
 44
1.25
 45
0.0
 46
0.0
 47
0.0
 48
0.0
140
2.5
141
2.5
142
0.0
143
0.03937007874
144
1.0
145
0.0
146
1.0
147
0.625
 71
0
 72
0
 73
0
 74
0
 75
0
 76
0
 77
1
 78
8
170
0
171
3
172
1
173
0
174
0
175
0
176
0
177
0
178
0
  0
ENDTAB
  0
ENDSEC
  0
SECTION
  2
BLOCKS
  0
BLOCK
  5
18
  8
0
  2
$Model_Space
 70
0
 10
0.0
 20
0.0
 30
0.0
  3
$Model_Space
  1

1001
EZDXF
1000
CREATED_BY_EZDXF
1000
1.4.4 @ 2026-08-06T02:26:58.122009+00:00
1000
WRITTEN_BY_EZDXF
1000
1.4.4 @ 2026-08-06T02:26:58.124009+00:00
  0
ENDBLK
  5
19
  8
0
  0
BLOCK
  5
1C
  8
0
  2
$Paper_Space
 70
0
 10
0.0
 20
0.0
 30
0.0
  3
$Paper_Space
  1

  0
ENDBLK
  5
1D
  8
0
  0
ENDSEC
  0
SECTION
  2
ENTITIES
  0
POLYLINE
  5
2F
  8
1
 66
1
 10
0.0
 20
0.0
 30
0.0
 70
1
  0
VERTEX
  5
31
  8
1
 10
-1729.517975
 20
394.544334
 30
0.0
 70
0
  0
VERTEX
  5
32
  8
1
 10
-1729.517975
 20
424.43512
 30
0.0
 70
0
  0
VERTEX
  5
33
  8
1
 10
-1710.995809
 20
424.43512
 30
0.0
 70
0
  0
VERTEX
  5
34
  8
1
 10
-1693.377605
 20
424.43512
 30
0.0
 70
0
  0
VERTEX
  5
35
  8
1
 10
-1675.63006
 20
424.43512
 30
0.0
 70
0
  0
VERTEX
  5
36
  8
1
 10
-1654.932698
 20
424.43512
 30
0.0
 70
0
  0
VERTEX
  5
37
  8
1
 10
-1637.638916
 20
424.43512
 30
0.0
 70
0
  0
VERTEX
  5
38
  8
1
 10
-1618.955974
 20
424.43512
 30
0.0
 70
0
  0
VERTEX
  5
39
  8
1
 10
-1598.999649
 20
424.43512
 30
0.0
 70
0
  0
VERTEX
  5
3A
  8
1
 10
-1577.885693
 20
424.43512
 30
0.0
 70
0
  0
VERTEX
  5
3B
  8
1
 10
-1555.729854
 20
424.43512
 30
0.0
 70
0
  0
VERTEX
  5
3C
  8
1
 10
-1540.437645
 20
424.43512
 30
0.0
 70
0
  0
VERTEX
  5
3D
  8
1
 10
-1524.768134
 20
424.43512
 30
0.0
 70
0
  0
VERTEX
  5
3E
  8
1
 10
-1508.755622
 20
424.43512
 30
0.0
 70
0
  0
VERTEX
  5
3F
  8
1
 10
-1492.434409
 20
424.43512
 30
0.0
 70
0
  0
VERTEX
  5
40
  8
1
 10
-1475.838831
 20
424.43512
 30
0.0
 70
0
  0
VERTEX
  5
41
  8
1
 10
-1459.003118
 20
424.43512
 30
0.0
 70
0
  0
VERTEX
  5
42
  8
1
 10
-1441.961604
 20
424.43512
 30
0.0
 70
0
  0
VERTEX
  5
43
  8
1
 10
-1424.748591
 20
424.43512
 30
0.0
 70
0
  0
VERTEX
  5
44
  8
1
 10
-1407.398379
 20
424.43512
 30
0.0
 70
0
  0
VERTEX
  5
45
  8
1
 10
-1389.945269
 20
424.43512
 30
0.0
 70
0
  0
VERTEX
  5
46
  8
1
 10
-1372.42356
 20
424.43512
 30
0.0
 70
0
  0
VERTEX
  5
47
  8
1
 10
-1354.868965
 20
424.43512
 30
0.0
 70
0
  0
VERTEX
  5
48
  8
1
 10
-1337.31296
 20
424.43512
 30
0.0
 70
0
  0
VERTEX
  5
49
  8
1
 10
-1319.791255
 20
424.43512
 30
0.0
 70
0
  0
VERTEX
  5
4A
  8
1
 10
-1302.33815
 20
424.43512
 30
0.0
 70
0
  0
VERTEX
  5
4B
  8
1
 10
-1284.987945
 20
424.43512
 30
0.0
 70
0
  0
VERTEX
  5
4C
  8
1
 10
-1267.774978
 20
424.43512
 30
0.0
 70
0
  0
VERTEX
  5
4D
  8
1
 10
-1250.733473
 20
424.43512
 30
0.0
 70
0
  0
VERTEX
  5
4E
  8
1
 10
-1233.897769
 20
424.43512
 30
0.0
 70
0
  0
VERTEX
  5
4F
  8
1
 10
-1217.302165
 20
424.43512
 30
0.0
 70
0
  0
VERTEX
  5
50
  8
1
 10
-1200.980962
 20
424.43512
 30
0.0
 70
0
  0
VERTEX
  5
51
  8
1
 10
-1184.968459
 20
424.43512
 30
0.0
 70
0
  0
VERTEX
  5
52
  8
1
 10
-1169.298958
 20
424.43512
 30
0.0
 70
0
  0
VERTEX
  5
53
  8
1
 10
-1154.006757
 20
424.43512
 30
0.0
 70
0
  0
VERTEX
  5
54
  8
1
 10
-1139.126156
 20
424.43512
 30
0.0
 70
0
  0
VERTEX
  5
55
  8
1
 10
-1117.65207
 20
424.43512
 30
0.0
 70
0
  0
VERTEX
  5
56
  8
1
 10
-1097.29702
 20
424.43512
 30
0.0
 70
0
  0
VERTEX
  5
57
  8
1
 10
-1078.176715
 20
424.43512
 30
0.0
 70
0
  0
VERTEX
  5
58
  8
1
 10
-1060.40703
 20
424.43512
 30
0.0
 70
0
  0
VERTEX
  5
59
  8
1
 10
-1044.103623
 20
424.43512
 30
0.0
 70
0
  0
VERTEX
  5
5A
  8
1
 10
-1029.382352
 20
424.43512
 30
0.0
 70
0
  0
VERTEX
  5
5B
  8
1
 10
-1012.415075
 20
424.43512
 30
0.0
 70
0
  0
VERTEX
  5
5C
  8
1
 10
-995.868658
 20
424.43512
 30
0.0
 70
0
  0
VERTEX
  5
5D
  8
1
 10
-982.367701
 20
424.43512
 30
0.0
 70
0
  0
VERTEX
  5
5E
  8
1
 10
-980.218048
 20
424.43512
 30
0.0
 70
0
  0
VERTEX
  5
5F
  8
1
 10
-980.218048
 20
408.868157
 30
0.0
 70
0
  0
VERTEX
  5
60
  8
1
 10
-980.218048
 20
394.544334
 30
0.0
 70
0
  0
VERTEX
  5
61
  8
1
 10
-998.740193
 20
394.544334
 30
0.0
 70
0
  0
VERTEX
  5
62
  8
1
 10
-1016.358378
 20
394.544334
 30
0.0
 70
0
  0
VERTEX
  5
63
  8
1
 10
-1034.105905
 20
394.544334
 30
0.0
 70
0
  0
VERTEX
  5
64
  8
1
 10
-1054.803248
 20
394.544334
 30
0.0
 70
0
  0
VERTEX
  5
65
  8
1
 10
-1072.097014
 20
394.544334
 30
0.0
 70
0
  0
VERTEX
  5
66
  8
1
 10
-1090.77994
 20
394.544334
 30
0.0
 70
0
  0
VERTEX
  5
67
  8
1
 10
-1110.736249
 20
394.544334
 30
0.0
 70
0
  0
VERTEX
  5
68
  8
1
 10
-1131.850188
 20
394.544334
 30
0.0
 70
0
  0
VERTEX
  5
69
  8
1
 10
-1154.006013
 20
394.544334
 30
0.0
 70
0
  0
VERTEX
  5
6A
  8
1
 10
-1169.298212
 20
394.544334
 30
0.0
 70
0
  0
VERTEX
  5
6B
  8
1
 10
-1184.967713
 20
394.544334
 30
0.0
 70
0
  0
VERTEX
  5
6C
  8
1
 10
-1200.980216
 20
394.544334
 30
0.0
 70
0
  0
VERTEX
  5
6D
  8
1
 10
-1217.301421
 20
394.544334
 30
0.0
 70
0
  0
VERTEX
  5
6E
  8
1
 10
-1233.896991
 20
394.544334
 30
0.0
 70
0
  0
VERTEX
  5
6F
  8
1
 10
-1250.732698
 20
394.544334
 30
0.0
 70
0
  0
VERTEX
  5
70
  8
1
 10
-1267.774205
 20
394.544334
 30
0.0
 70
0
  0
VERTEX
  5
71
  8
1
 10
-1284.987213
 20
394.544334
 30
0.0
 70
0
  0
VERTEX
  5
72
  8
1
 10
-1302.33742
 20
394.544334
 30
0.0
 70
0
  0
VERTEX
  5
73
  8
1
 10
-1319.790528
 20
394.544334
 30
0.0
 70
0
  0
VERTEX
  5
74
  8
1
 10
-1337.312235
 20
394.544334
 30
0.0
 70
0
  0
VERTEX
  5
75
  8
1
 10
-1354.867439
 20
394.544334
 30
0.0
 70
0
  0
VERTEX
  5
76
  8
1
 10
-1372.423444
 20
394.544334
 30
0.0
 70
0
  0
VERTEX
  5
77
  8
1
 10
-1389.94515
 20
394.544334
 30
0.0
 70
0
  0
VERTEX
  5
78
  8
1
 10
-1407.398255
 20
394.544334
 30
0.0
 70
0
  0
VERTEX
  5
79
  8
1
 10
-1424.74846
 20
394.544334
 30
0.0
 70
0
  0
VERTEX
  5
7A
  8
1
 10
-1441.961427
 20
394.544334
 30
0.0
 70
0
  0
VERTEX
  5
7B
  8
1
 10
-1459.002931
 20
394.544334
 30
0.0
 70
0
  0
VERTEX
  5
7C
  8
1
 10
-1475.838634
 20
394.544334
 30
0.0
 70
0
  0
VERTEX
  5
7D
  8
1
 10
-1492.434237
 20
394.544334
 30
0.0
 70
0
  0
VERTEX
  5
7E
  8
1
 10
-1508.755438
 20
394.544334
 30
0.0
 70
0
  0
VERTEX
  5
7F
  8
1
 10
-1524.767939
 20
394.544334
 30
0.0
 70
0
  0
VERTEX
  5
80
  8
1
 10
-1540.437437
 20
394.544334
 30
0.0
 70
0
  0
VERTEX
  5
81
  8
1
 10
-1555.729634
 20
394.544334
 30
0.0
 70
0
  0
VERTEX
  5
82
  8
1
 10
-1570.61023
 20
394.544334
 30
0.0
 70
0
  0
VERTEX
  5
83
  8
1
 10
-1592.084308
 20
394.544334
 30
0.0
 70
0
  0
VERTEX
  5
84
  8
1
 10
-1612.439346
 20
394.544334
 30
0.0
 70
0
  0
VERTEX
  5
85
  8
1
 10
-1631.559637
 20
394.544334
 30
0.0
 70
0
  0
VERTEX
  5
86
  8
1
 10
-1649.329306
 20
394.544334
 30
0.0
 70
0
  0
VERTEX
  5
87
  8
1
 10
-1665.632692
 20
394.544334
 30
0.0
 70
0
  0
VERTEX
  5
88
  8
1
 10
-1680.353939
 20
394.544334
 30
0.0
 70
0
  0
VERTEX
  5
89
  8
1
 10
-1697.321179
 20
394.544334
 30
0.0
 70
0
  0
VERTEX
  5
8A
  8
1
 10
-1713.867539
 20
394.544334
 30
0.0
 70
0
  0
VERTEX
  5
8B
  8
1
 10
-1727.368394
 20
394.544334
 30
0.0
 70
0
  0
SEQEND
  5
30
  8
1
  0
LINE
  5
8C
  8
7
 10
-1551.534424
 20
411.350021
 30
0.0
 11
-1238.583679
 21
411.350021
 31
0.0
  0
ENDSEC
  0
EOF
