  0
SECTION
  2
HEADER
  9
$ACADVER
  1
AC1009
  9
$DWGCODEPAGE
  3
ANSI_1252
  9
$INSBASE
 10
0.0
 20
0.0
 30
0.0
  9
$EXTMIN
 10
1e+20
 20
1e+20
 30
1e+20
  9
$EXTMAX
 10
-1e+20
 20
-1e+20
 30
-1e+20
  9
$LIMMIN
 10
0.0
 20
0.0
  9
$LIMMAX
 10
420.0
 20
297.0
  9
$ORTHOMODE
 70
0
  9
$REGENMODE
 70
1
  9
$FILLMODE
 70
1
  9
$DRAGMODE
 70
2
  9
$QTEXTMODE
 70
0
  9
$MIRRTEXT
 70
1
  9
$OSMODE
 70
20583
  9
$LTSCALE
 40
1.0
  9
$ATTMODE
 70
1
  9
$TEXTSIZE
 40
2.5
  9
$TRACEWID
 40
1.0
  9
$TEXTSTYLE
  7
Standard
  9
$CLAYER
  8
0
  9
$CELTYPE
  6
ByLayer
  9
$CECOLOR
 62
256
  9
$DIMSCALE
 40
1.0
  9
$DIMASZ
 40
2.5
  9
$DIMEXO
 40
0.625
  9
$DIMDLI
 40
3.75
  9
$DIMRND
 40
0.0
  9
$DIMDLE
 40
0.0
  9
$DIMEXE
 40
1.25
  9
$DIMTP
 40
0.0
  9
$DIMTM
 40
0.0
  9
$DIMTXT
 40
2.5
  9
$DIMCEN
 40
2.5
  9
$DIMTSZ
 40
0.0
  9
$DIMTOL
 70
0
  9
$DIMLIM
 70
0
  9
$DIMTIH
 70
0
  9
$DIMTOH
 70
0
  9
$DIMSE1
 70
0
  9
$DIMSE2
 70
0
  9
$DIMTAD
 70
1
  9
$DIMZIN
 70
8
  9
$DIMBLK
  1

  9
$DIMASO
 70
1
  9
$DIMSHO
 70
1
  9
$DIMPOST
  1

  9
$DIMAPOST
  1

  9
$DIMALT
 70
0
  9
$DIMALTD
 70
3
  9
$DIMALTF
 40
0.03937007874
  9
$DIMLFAC
 40
1.0
  9
$DIMTOFL
 70
1
  9
$DIMTVP
 40
0.0
  9
$DIMTIX
 70
0
  9
$DIMSOXD
 70
0
  9
$DIMSAH
 70
0
  9
$DIMBLK1
  1

  9
$DIMBLK2
  1

  9
$DIMSTYLE
  2
ISO-25
  9
$DIMCLRD
 70
0
  9
$DIMCLRE
 70
0
  9
$DIMCLRT
 70
0
  9
$DIMTFAC
 40
1.0
  9
$DIMGAP
 40
0.625
  9
$COORDS
 70
1
  9
$ATTDIA
 70
0
  9
$ATTREQ
 70
1
  9
$HANDLING
 70
1
  9
$LUNITS
 70
2
  9
$LUPREC
 70
4
  9
$SKETCHINC
 40
1.0
  9
$FILLETRAD
 40
10.0
  9
$AUNITS
 70
0
  9
$AUPREC
 70
2
  9
$MENU
  1
.
  9
$ELEVATION
 40
0.0
  9
$PELEVATION
 40
0.0
  9
$THICKNESS
 40
0.0
  9
$LIMCHECK
 70
0
  9
$CHAMFERA
 40
0.0
  9
$CHAMFERB
 40
0.0
  9
$SKPOLY
 70
0
  9
$TDCREATE
 40
2461264.9423032408
  9
$TDUPDATE
 40
2461264.9423032408
  9
$TDINDWG
 40
0.0
  9
$TDUSRTIMER
 40
0.0
  9
$USRTIMER
 70
1
  9
$ANGBASE
 50
0.0
  9
$ANGDIR
 70
0
  9
$PDMODE
 70
0
  9
$PDSIZE
 40
0.0
  9
$PLINEWID
 40
0.0
  9
$SPLFRAME
 70
0
  9
$SPLINETYPE
 70
6
  9
$SPLINESEGS
 70
8
  9
$HANDSEED
  5
F7
  9
$SURFTAB1
 70
6
  9
$SURFTAB2
 70
6
  9
$SURFTYPE
 70
6
  9
$SURFU
 70
6
  9
$SURFV
 70
6
  9
$UCSNAME
  2

  9
$UCSORG
 10
0.0
 20
0.0
 30
0.0
  9
$UCSXDIR
 10
1.0
 20
0.0
 30
0.0
  9
$UCSYDIR
 10
0.0
 20
1.0
 30
0.0
  9
$PUCSNAME
  2

  9
$PUCSORG
 10
0.0
 20
0.0
 30
0.0
  9
$PUCSXDIR
 10
1.0
 20
0.0
 30
0.0
  9
$PUCSYDIR
 10
0.0
 20
1.0
 30
0.0
  9
$USERI1
 70
0
  9
$USERI2
 70
0
  9
$USERI3
 70
0
  9
$USERI4
 70
0
  9
$USERI5
 70
0
  9
$USERR1
 40
0.0
  9
$USERR2
 40
0.0
  9
$USERR3
 40
0.0
  9
$USERR4
 40
0.0
  9
$USERR5
 40
0.0
  9
$WORLDVIEW
 70
1
  9
$SHADEDGE
 70
3
  9
$SHADEDIF
 70
70
  9
$TILEMODE
 70
1
  9
$MAXACTVP
 70
64
  9
$PLIMCHECK
 70
0
  9
$PEXTMIN
 10
1e+20
 20
1e+20
 30
1e+20
  9
$PEXTMAX
 10
-1e+20
 20
-1e+20
 30
-1e+20
  9
$PLIMMIN
 10
0.0
 20
0.0
  9
$PLIMMAX
 10
420.0
 20
297.0
  9
$UNITMODE
 70
0
  9
$VISRETAIN
 70
1
  9
$PLINEGEN
 70
0
  9
$PSLTSCALE
 70
1
  0
ENDSEC
  0
SECTION
  2
TABLES
  0
TABLE
  2
VPORT
 70
1
  0
VPORT
  5
23
  2
*Active
 70
0
 10
0.0
 20
0.0
 11
1.0
 21
1.0
 12
0.0
 22
0.0
 13
0.0
 23
0.0
 14
0.5
 24
0.5
 15
0.5
 25
0.5
 16
0.0
 26
0.0
 36
1.0
 17
0.0
 27
0.0
 37
0.0
 40
1000.0
 41
1.34
 42
50.0
 43
0.0
 44
0.0
 50
0.0
 51
0.0
 71
0
 72
1000
 73
1
 74
3
 75
0
 76
0
 77
0
 78
0
  0
ENDTAB
  0
TABLE
  2
LTYPE
 70
3
  0
LTYPE
  5
24
  2
ByBlock
 70
0
  3

 72
65
 73
0
 40
0.0
  0
LTYPE
  5
25
  2
ByLayer
 70
0
  3

 72
65
 73
0
 40
0.0
  0
LTYPE
  5
26
  2
Continuous
 70
0
  3

 72
65
 73
0
 40
0.0
  0
ENDTAB
  0
TABLE
  2
LAYER
 70
7
  0
LAYER
  5
27
  2
0
 70
0
 62
7
  6
Continuous
  0
LAYER
  5
28
  2
Defpoints
 70
0
 62
7
  6
Continuous
  0
LAYER
  5
2D
  2
1
 70
0
 62
1
  6
Continuous
  0
LAYER
  5
2E
  2
7
 70
0
 62
7
  6
Continuous
  0
LAYER
  5
2F
  2
14
 70
0
 62
3
  6
Continuous
  0
LAYER
  5
30
  2
8
 70
0
 62
6
  6
Continuous
  0
LAYER
  5
31
  2
4
 70
0
 62
2
  6
Continuous
  0
ENDTAB
  0
TABLE
  2
STYLE
 70
1
  0
STYLE
  5
29
  2
Standard
 70
0
 40
0.0
 41
1.0
 50
0.0
 71
0
 42
2.5
  3
txt
  4

  0
ENDTAB
  0
TABLE
  2
VIEW
 70
0
  0
ENDTAB
  0
TABLE
  2
UCS
 70
0
  0
ENDTAB
  0
TABLE
  2
APPID
 70
3
  0
APPID
  5
2A
  2
ACAD
 70
0
  0
APPID
  5
F5
  2
HATCHBACKGROUNDCOLOR
 70
0
  0
APPID
  5
F6
  2
EZDXF
 70
0
  0
ENDTAB
  0
TABLE
  2
DIMSTYLE
 70
1
  0
DIMSTYLE
105
2B
  2
Standard
 70
0
  3

  4

  5

  6

  7

 40
1.0
 41
2.5
 42
0.625
 43
3.75
 44
1.25
 45
0.0
 46
0.0
 47
0.0
 48
0.0
140
2.5
141
2.5
142
0.0
143
0.03937007874
144
1.0
145
0.0
146
1.0
147
0.625
 71
0
 72
0
 73
0
 74
0
 75
0
 76
0
 77
1
 78
8
170
0
171
3
172
1
173
0
174
0
175
0
176
0
177
0
178
0
  0
ENDTAB
  0
ENDSEC
  0
SECTION
  2
BLOCKS
  0
BLOCK
  5
18
  8
0
  2
$Model_Space
 70
0
 10
0.0
 20
0.0
 30
0.0
  3
$Model_Space
  1

1001
EZDXF
1000
CREATED_BY_EZDXF
1000
1.4.4 @ 2026-08-11T14:36:55.863216+00:00
1000
WRITTEN_BY_EZDXF
1000
1.4.4 @ 2026-08-11T14:36:55.865216+00:00
  0
ENDBLK
  5
19
  8
0
  0
BLOCK
  5
1C
  8
0
  2
$Paper_Space
 70
0
 10
0.0
 20
0.0
 30
0.0
  3
$Paper_Space
  1

  0
ENDBLK
  5
1D
  8
0
  0
ENDSEC
  0
SECTION
  2
ENTITIES
  0
POLYLINE
  5
32
  8
1
 66
1
 10
0.0
 20
0.0
 30
0.0
 70
1
  0
VERTEX
  5
34
  8
1
 10
-1729.517975
 20
394.544334
 30
0.0
 70
0
  0
VERTEX
  5
35
  8
1
 10
-1729.517975
 20
424.43512
 30
0.0
 70
0
  0
VERTEX
  5
36
  8
1
 10
-1709.112197
 20
424.43512
 30
0.0
 70
0
  0
VERTEX
  5
37
  8
1
 10
-1689.702308
 20
424.43512
 30
0.0
 70
0
  0
VERTEX
  5
38
  8
1
 10
-1670.149921
 20
424.43512
 30
0.0
 70
0
  0
VERTEX
  5
39
  8
1
 10
-1653.336421
 20
424.43512
 30
0.0
 70
0
  0
VERTEX
  5
3A
  8
1
 10
-1634.82243
 20
424.43512
 30
0.0
 70
0
  0
VERTEX
  5
3B
  8
1
 10
-1614.735508
 20
424.43512
 30
0.0
 70
0
  0
VERTEX
  5
3C
  8
1
 10
-1593.203182
 20
424.43512
 30
0.0
 70
0
  0
VERTEX
  5
3D
  8
1
 10
-1570.352986
 20
424.43512
 30
0.0
 70
0
  0
VERTEX
  5
3E
  8
1
 10
-1554.450322
 20
424.43512
 30
0.0
 70
0
  0
VERTEX
  5
3F
  8
1
 10
-1538.05644
 20
424.43512
 30
0.0
 70
0
  0
VERTEX
  5
40
  8
1
 10
-1521.209099
 20
424.43512
 30
0.0
 70
0
  0
VERTEX
  5
41
  8
1
 10
-1503.946087
 20
424.43512
 30
0.0
 70
0
  0
VERTEX
  5
42
  8
1
 10
-1486.305192
 20
424.43512
 30
0.0
 70
0
  0
VERTEX
  5
43
  8
1
 10
-1468.324203
 20
424.43512
 30
0.0
 70
0
  0
VERTEX
  5
44
  8
1
 10
-1450.04091
 20
424.43512
 30
0.0
 70
0
  0
VERTEX
  5
45
  8
1
 10
-1431.493062
 20
424.43512
 30
0.0
 70
0
  0
VERTEX
  5
46
  8
1
 10
-1412.718523
 20
424.43512
 30
0.0
 70
0
  0
VERTEX
  5
47
  8
1
 10
-1393.755043
 20
424.43512
 30
0.0
 70
0
  0
VERTEX
  5
48
  8
1
 10
-1374.640413
 20
424.43512
 30
0.0
 70
0
  0
VERTEX
  5
49
  8
1
 10
-1355.412421
 20
424.43512
 30
0.0
 70
0
  0
VERTEX
  5
4A
  8
1
 10
-1336.108854
 20
424.43512
 30
0.0
 70
0
  0
VERTEX
  5
4B
  8
1
 10
-1316.769028
 20
424.43512
 30
0.0
 70
0
  0
VERTEX
  5
4C
  8
1
 10
-1297.427639
 20
424.43512
 30
0.0
 70
0
  0
VERTEX
  5
4D
  8
1
 10
-1278.124115
 20
424.43512
 30
0.0
 70
0
  0
VERTEX
  5
4E
  8
1
 10
-1258.896091
 20
424.43512
 30
0.0
 70
0
  0
VERTEX
  5
4F
  8
1
 10
-1239.781433
 20
424.43512
 30
0.0
 70
0
  0
VERTEX
  5
50
  8
1
 10
-1220.818003
 20
424.43512
 30
0.0
 70
0
  0
VERTEX
  5
51
  8
1
 10
-1202.043439
 20
424.43512
 30
0.0
 70
0
  0
VERTEX
  5
52
  8
1
 10
-1183.495678
 20
424.43512
 30
0.0
 70
0
  0
VERTEX
  5
53
  8
1
 10
-1165.212362
 20
424.43512
 30
0.0
 70
0
  0
VERTEX
  5
54
  8
1
 10
-1147.231423
 20
424.43512
 30
0.0
 70
0
  0
VERTEX
  5
55
  8
1
 10
-1129.590507
 20
424.43512
 30
0.0
 70
0
  0
VERTEX
  5
56
  8
1
 10
-1112.327542
 20
424.43512
 30
0.0
 70
0
  0
VERTEX
  5
57
  8
1
 10
-1095.48018
 20
424.43512
 30
0.0
 70
0
  0
VERTEX
  5
58
  8
1
 10
-1079.086278
 20
424.43512
 30
0.0
 70
0
  0
VERTEX
  5
59
  8
1
 10
-1063.183686
 20
424.43512
 30
0.0
 70
0
  0
VERTEX
  5
5A
  8
1
 10
-1047.810067
 20
424.43512
 30
0.0
 70
0
  0
VERTEX
  5
5B
  8
1
 10
-1033.00333
 20
424.43512
 30
0.0
 70
0
  0
VERTEX
  5
5C
  8
1
 10
-1011.938595
 20
424.43512
 30
0.0
 70
0
  0
VERTEX
  5
5D
  8
1
 10
-992.361824
 20
424.43512
 30
0.0
 70
0
  0
VERTEX
  5
5E
  8
1
 10
-974.400496
 20
424.43512
 30
0.0
 70
0
  0
VERTEX
  5
5F
  8
1
 10
-958.182105
 20
424.43512
 30
0.0
 70
0
  0
VERTEX
  5
60
  8
1
 10
-939.489362
 20
424.43512
 30
0.0
 70
0
  0
VERTEX
  5
61
  8
1
 10
-924.424285
 20
424.43512
 30
0.0
 70
0
  0
VERTEX
  5
62
  8
1
 10
-909.289827
 20
424.43512
 30
0.0
 70
0
  0
VERTEX
  5
63
  8
1
 10
-904.018097
 20
424.43512
 30
0.0
 70
0
  0
VERTEX
  5
64
  8
1
 10
-904.018097
 20
408.868157
 30
0.0
 70
0
  0
VERTEX
  5
65
  8
1
 10
-904.018097
 20
394.544334
 30
0.0
 70
0
  0
VERTEX
  5
66
  8
1
 10
-924.423853
 20
394.544334
 30
0.0
 70
0
  0
VERTEX
  5
67
  8
1
 10
-943.833724
 20
394.544334
 30
0.0
 70
0
  0
VERTEX
  5
68
  8
1
 10
-963.386093
 20
394.544334
 30
0.0
 70
0
  0
VERTEX
  5
69
  8
1
 10
-980.199579
 20
394.544334
 30
0.0
 70
0
  0
VERTEX
  5
6A
  8
1
 10
-998.713554
 20
394.544334
 30
0.0
 70
0
  0
VERTEX
  5
6B
  8
1
 10
-1018.80046
 20
394.544334
 30
0.0
 70
0
  0
VERTEX
  5
6C
  8
1
 10
-1040.33277
 20
394.544334
 30
0.0
 70
0
  0
VERTEX
  5
6D
  8
1
 10
-1063.18295
 20
394.544334
 30
0.0
 70
0
  0
VERTEX
  5
6E
  8
1
 10
-1079.085604
 20
394.544334
 30
0.0
 70
0
  0
VERTEX
  5
6F
  8
1
 10
-1095.479475
 20
394.544334
 30
0.0
 70
0
  0
VERTEX
  5
70
  8
1
 10
-1112.326807
 20
394.544334
 30
0.0
 70
0
  0
VERTEX
  5
71
  8
1
 10
-1129.589809
 20
394.544334
 30
0.0
 70
0
  0
VERTEX
  5
72
  8
1
 10
-1147.230695
 20
394.544334
 30
0.0
 70
0
  0
VERTEX
  5
73
  8
1
 10
-1165.211675
 20
394.544334
 30
0.0
 70
0
  0
VERTEX
  5
74
  8
1
 10
-1183.494961
 20
394.544334
 30
0.0
 70
0
  0
VERTEX
  5
75
  8
1
 10
-1202.042802
 20
394.544334
 30
0.0
 70
0
  0
VERTEX
  5
76
  8
1
 10
-1220.817335
 20
394.544334
 30
0.0
 70
0
  0
VERTEX
  5
77
  8
1
 10
-1239.780809
 20
394.544334
 30
0.0
 70
0
  0
VERTEX
  5
78
  8
1
 10
-1258.895435
 20
394.544334
 30
0.0
 70
0
  0
VERTEX
  5
79
  8
1
 10
-1278.123425
 20
394.544334
 30
0.0
 70
0
  0
VERTEX
  5
7A
  8
1
 10
-1297.42699
 20
394.544334
 30
0.0
 70
0
  0
VERTEX
  5
7B
  8
1
 10
-1316.767502
 20
394.544334
 30
0.0
 70
0
  0
VERTEX
  5
7C
  8
1
 10
-1336.108852
 20
394.544334
 30
0.0
 70
0
  0
VERTEX
  5
7D
  8
1
 10
-1355.412414
 20
394.544334
 30
0.0
 70
0
  0
VERTEX
  5
7E
  8
1
 10
-1374.640438
 20
394.544334
 30
0.0
 70
0
  0
VERTEX
  5
7F
  8
1
 10
-1393.75502
 20
394.544334
 30
0.0
 70
0
  0
VERTEX
  5
80
  8
1
 10
-1412.718525
 20
394.544334
 30
0.0
 70
0
  0
VERTEX
  5
81
  8
1
 10
-1431.493088
 20
394.544334
 30
0.0
 70
0
  0
VERTEX
  5
82
  8
1
 10
-1450.040847
 20
394.544334
 30
0.0
 70
0
  0
VERTEX
  5
83
  8
1
 10
-1468.324161
 20
394.544334
 30
0.0
 70
0
  0
VERTEX
  5
84
  8
1
 10
-1486.305097
 20
394.544334
 30
0.0
 70
0
  0
VERTEX
  5
85
  8
1
 10
-1503.946008
 20
394.544334
 30
0.0
 70
0
  0
VERTEX
  5
86
  8
1
 10
-1521.208969
 20
394.544334
 30
0.0
 70
0
  0
VERTEX
  5
87
  8
1
 10
-1538.056325
 20
394.544334
 30
0.0
 70
0
  0
VERTEX
  5
88
  8
1
 10
-1554.450157
 20
394.544334
 30
0.0
 70
0
  0
VERTEX
  5
89
  8
1
 10
-1570.352805
 20
394.544334
 30
0.0
 70
0
  0
VERTEX
  5
8A
  8
1
 10
-1585.726415
 20
394.544334
 30
0.0
 70
0
  0
VERTEX
  5
8B
  8
1
 10
-1600.533142
 20
394.544334
 30
0.0
 70
0
  0
VERTEX
  5
8C
  8
1
 10
-1621.59786
 20
394.544334
 30
0.0
 70
0
  0
VERTEX
  5
8D
  8
1
 10
-1641.17461
 20
394.544334
 30
0.0
 70
0
  0
VERTEX
  5
8E
  8
1
 10
-1659.135913
 20
394.544334
 30
0.0
 70
0
  0
VERTEX
  5
8F
  8
1
 10
-1675.354276
 20
394.544334
 30
0.0
 70
0
  0
VERTEX
  5
90
  8
1
 10
-1694.046974
 20
394.544334
 30
0.0
 70
0
  0
VERTEX
  5
91
  8
1
 10
-1709.111999
 20
394.544334
 30
0.0
 70
0
  0
VERTEX
  5
92
  8
1
 10
-1724.246362
 20
394.544334
 30
0.0
 70
0
  0
SEQEND
  5
33
  8
1
  0
POLYLINE
  5
93
  8
14
 66
1
 10
0.0
 20
0.0
 30
0.0
 70
1
  0
VERTEX
  5
95
  8
14
 10
-1729.517975
 20
394.544334
 30
0.0
 70
0
  0
VERTEX
  5
96
  8
14
 10
-1729.517975
 20
424.43512
 30
0.0
 70
0
  0
VERTEX
  5
97
  8
14
 10
-1709.112197
 20
424.43512
 30
0.0
 70
0
  0
VERTEX
  5
98
  8
14
 10
-1689.702308
 20
424.43512
 30
0.0
 70
0
  0
VERTEX
  5
99
  8
14
 10
-1670.149921
 20
424.43512
 30
0.0
 70
0
  0
VERTEX
  5
9A
  8
14
 10
-1653.336421
 20
424.43512
 30
0.0
 70
0
  0
VERTEX
  5
9B
  8
14
 10
-1634.82243
 20
424.43512
 30
0.0
 70
0
  0
VERTEX
  5
9C
  8
14
 10
-1614.735508
 20
424.43512
 30
0.0
 70
0
  0
VERTEX
  5
9D
  8
14
 10
-1593.203182
 20
424.43512
 30
0.0
 70
0
  0
VERTEX
  5
9E
  8
14
 10
-1570.352986
 20
424.43512
 30
0.0
 70
0
  0
VERTEX
  5
9F
  8
14
 10
-1554.450322
 20
424.43512
 30
0.0
 70
0
  0
VERTEX
  5
A0
  8
14
 10
-1538.05644
 20
424.43512
 30
0.0
 70
0
  0
VERTEX
  5
A1
  8
14
 10
-1521.209099
 20
424.43512
 30
0.0
 70
0
  0
VERTEX
  5
A2
  8
14
 10
-1503.946087
 20
424.43512
 30
0.0
 70
0
  0
VERTEX
  5
A3
  8
14
 10
-1486.305192
 20
424.43512
 30
0.0
 70
0
  0
VERTEX
  5
A4
  8
14
 10
-1468.324203
 20
424.43512
 30
0.0
 70
0
  0
VERTEX
  5
A5
  8
14
 10
-1450.04091
 20
424.43512
 30
0.0
 70
0
  0
VERTEX
  5
A6
  8
14
 10
-1431.493062
 20
424.43512
 30
0.0
 70
0
  0
VERTEX
  5
A7
  8
14
 10
-1412.718523
 20
424.43512
 30
0.0
 70
0
  0
VERTEX
  5
A8
  8
14
 10
-1393.755043
 20
424.43512
 30
0.0
 70
0
  0
VERTEX
  5
A9
  8
14
 10
-1374.640413
 20
424.43512
 30
0.0
 70
0
  0
VERTEX
  5
AA
  8
14
 10
-1355.412421
 20
424.43512
 30
0.0
 70
0
  0
VERTEX
  5
AB
  8
14
 10
-1336.108854
 20
424.43512
 30
0.0
 70
0
  0
VERTEX
  5
AC
  8
14
 10
-1316.769028
 20
424.43512
 30
0.0
 70
0
  0
VERTEX
  5
AD
  8
14
 10
-1297.427639
 20
424.43512
 30
0.0
 70
0
  0
VERTEX
  5
AE
  8
14
 10
-1278.124115
 20
424.43512
 30
0.0
 70
0
  0
VERTEX
  5
AF
  8
14
 10
-1258.896091
 20
424.43512
 30
0.0
 70
0
  0
VERTEX
  5
B0
  8
14
 10
-1239.781433
 20
424.43512
 30
0.0
 70
0
  0
VERTEX
  5
B1
  8
14
 10
-1220.818003
 20
424.43512
 30
0.0
 70
0
  0
VERTEX
  5
B2
  8
14
 10
-1202.043439
 20
424.43512
 30
0.0
 70
0
  0
VERTEX
  5
B3
  8
14
 10
-1183.495678
 20
424.43512
 30
0.0
 70
0
  0
VERTEX
  5
B4
  8
14
 10
-1165.212362
 20
424.43512
 30
0.0
 70
0
  0
VERTEX
  5
B5
  8
14
 10
-1147.231423
 20
424.43512
 30
0.0
 70
0
  0
VERTEX
  5
B6
  8
14
 10
-1129.590507
 20
424.43512
 30
0.0
 70
0
  0
VERTEX
  5
B7
  8
14
 10
-1112.327542
 20
424.43512
 30
0.0
 70
0
  0
VERTEX
  5
B8
  8
14
 10
-1095.48018
 20
424.43512
 30
0.0
 70
0
  0
VERTEX
  5
B9
  8
14
 10
-1079.086278
 20
424.43512
 30
0.0
 70
0
  0
VERTEX
  5
BA
  8
14
 10
-1063.183686
 20
424.43512
 30
0.0
 70
0
  0
VERTEX
  5
BB
  8
14
 10
-1047.810067
 20
424.43512
 30
0.0
 70
0
  0
VERTEX
  5
BC
  8
14
 10
-1033.00333
 20
424.43512
 30
0.0
 70
0
  0
VERTEX
  5
BD
  8
14
 10
-1011.938595
 20
424.43512
 30
0.0
 70
0
  0
VERTEX
  5
BE
  8
14
 10
-992.361824
 20
424.43512
 30
0.0
 70
0
  0
VERTEX
  5
BF
  8
14
 10
-974.400496
 20
424.43512
 30
0.0
 70
0
  0
VERTEX
  5
C0
  8
14
 10
-958.182105
 20
424.43512
 30
0.0
 70
0
  0
VERTEX
  5
C1
  8
14
 10
-939.489362
 20
424.43512
 30
0.0
 70
0
  0
VERTEX
  5
C2
  8
14
 10
-924.424285
 20
424.43512
 30
0.0
 70
0
  0
VERTEX
  5
C3
  8
14
 10
-909.289827
 20
424.43512
 30
0.0
 70
0
  0
VERTEX
  5
C4
  8
14
 10
-904.018097
 20
424.43512
 30
0.0
 70
0
  0
VERTEX
  5
C5
  8
14
 10
-904.018097
 20
408.868157
 30
0.0
 70
0
  0
VERTEX
  5
C6
  8
14
 10
-904.018097
 20
394.544334
 30
0.0
 70
0
  0
VERTEX
  5
C7
  8
14
 10
-924.423853
 20
394.544334
 30
0.0
 70
0
  0
VERTEX
  5
C8
  8
14
 10
-943.833724
 20
394.544334
 30
0.0
 70
0
  0
VERTEX
  5
C9
  8
14
 10
-963.386093
 20
394.544334
 30
0.0
 70
0
  0
VERTEX
  5
CA
  8
14
 10
-980.199579
 20
394.544334
 30
0.0
 70
0
  0
VERTEX
  5
CB
  8
14
 10
-998.713554
 20
394.544334
 30
0.0
 70
0
  0
VERTEX
  5
CC
  8
14
 10
-1018.80046
 20
394.544334
 30
0.0
 70
0
  0
VERTEX
  5
CD
  8
14
 10
-1040.33277
 20
394.544334
 30
0.0
 70
0
  0
VERTEX
  5
CE
  8
14
 10
-1063.18295
 20
394.544334
 30
0.0
 70
0
  0
VERTEX
  5
CF
  8
14
 10
-1079.085604
 20
394.544334
 30
0.0
 70
0
  0
VERTEX
  5
D0
  8
14
 10
-1095.479475
 20
394.544334
 30
0.0
 70
0
  0
VERTEX
  5
D1
  8
14
 10
-1112.326807
 20
394.544334
 30
0.0
 70
0
  0
VERTEX
  5
D2
  8
14
 10
-1129.589809
 20
394.544334
 30
0.0
 70
0
  0
VERTEX
  5
D3
  8
14
 10
-1147.230695
 20
394.544334
 30
0.0
 70
0
  0
VERTEX
  5
D4
  8
14
 10
-1165.211675
 20
394.544334
 30
0.0
 70
0
  0
VERTEX
  5
D5
  8
14
 10
-1183.494961
 20
394.544334
 30
0.0
 70
0
  0
VERTEX
  5
D6
  8
14
 10
-1202.042802
 20
394.544334
 30
0.0
 70
0
  0
VERTEX
  5
D7
  8
14
 10
-1220.817335
 20
394.544334
 30
0.0
 70
0
  0
VERTEX
  5
D8
  8
14
 10
-1239.780809
 20
394.544334
 30
0.0
 70
0
  0
VERTEX
  5
D9
  8
14
 10
-1258.895435
 20
394.544334
 30
0.0
 70
0
  0
VERTEX
  5
DA
  8
14
 10
-1278.123425
 20
394.544334
 30
0.0
 70
0
  0
VERTEX
  5
DB
  8
14
 10
-1297.42699
 20
394.544334
 30
0.0
 70
0
  0
VERTEX
  5
DC
  8
14
 10
-1316.767502
 20
394.544334
 30
0.0
 70
0
  0
VERTEX
  5
DD
  8
14
 10
-1336.108852
 20
394.544334
 30
0.0
 70
0
  0
VERTEX
  5
DE
  8
14
 10
-1355.412414
 20
394.544334
 30
0.0
 70
0
  0
VERTEX
  5
DF
  8
14
 10
-1374.640438
 20
394.544334
 30
0.0
 70
0
  0
VERTEX
  5
E0
  8
14
 10
-1393.75502
 20
394.544334
 30
0.0
 70
0
  0
VERTEX
  5
E1
  8
14
 10
-1412.718525
 20
394.544334
 30
0.0
 70
0
  0
VERTEX
  5
E2
  8
14
 10
-1431.493088
 20
394.544334
 30
0.0
 70
0
  0
VERTEX
  5
E3
  8
14
 10
-1450.040847
 20
394.544334
 30
0.0
 70
0
  0
VERTEX
  5
E4
  8
14
 10
-1468.324161
 20
394.544334
 30
0.0
 70
0
  0
VERTEX
  5
E5
  8
14
 10
-1486.305097
 20
394.544334
 30
0.0
 70
0
  0
VERTEX
  5
E6
  8
14
 10
-1503.946008
 20
394.544334
 30
0.0
 70
0
  0
VERTEX
  5
E7
  8
14
 10
-1521.208969
 20
394.544334
 30
0.0
 70
0
  0
VERTEX
  5
E8
  8
14
 10
-1538.056325
 20
394.544334
 30
0.0
 70
0
  0
VERTEX
  5
E9
  8
14
 10
-1554.450157
 20
394.544334
 30
0.0
 70
0
  0
VERTEX
  5
EA
  8
14
 10
-1570.352805
 20
394.544334
 30
0.0
 70
0
  0
VERTEX
  5
EB
  8
14
 10
-1585.726415
 20
394.544334
 30
0.0
 70
0
  0
VERTEX
  5
EC
  8
14
 10
-1600.533142
 20
394.544334
 30
0.0
 70
0
  0
VERTEX
  5
ED
  8
14
 10
-1621.59786
 20
394.544334
 30
0.0
 70
0
  0
VERTEX
  5
EE
  8
14
 10
-1641.17461
 20
394.544334
 30
0.0
 70
0
  0
VERTEX
  5
EF
  8
14
 10
-1659.135913
 20
394.544334
 30
0.0
 70
0
  0
VERTEX
  5
F0
  8
14
 10
-1675.354276
 20
394.544334
 30
0.0
 70
0
  0
VERTEX
  5
F1
  8
14
 10
-1694.046974
 20
394.544334
 30
0.0
 70
0
  0
VERTEX
  5
F2
  8
14
 10
-1709.111999
 20
394.544334
 30
0.0
 70
0
  0
VERTEX
  5
F3
  8
14
 10
-1724.246362
 20
394.544334
 30
0.0
 70
0
  0
SEQEND
  5
94
  8
14
  0
LINE
  5
F4
  8
7
 10
-1551.534424
 20
411.350021
 30
0.0
 11
-1238.583679
 21
411.350021
 31
0.0
  0
ENDSEC
  0
EOF
